<svg width="95" height="62" viewBox="0 0 95 62" fill="none" xmlns="http://www.w3.org/2000/svg">
<mask id="mask0_6075_44953" style="mask-type:alpha" maskUnits="userSpaceOnUse" x="0" y="0" width="95" height="62">
<rect width="95" height="62" fill="#D9D9D9"/>
</mask>
<g mask="url(#mask0_6075_44953)">
<mask id="path-2-outside-1_6075_44953" maskUnits="userSpaceOnUse" x="3" y="3" width="73" height="57" fill="black">
<rect fill="white" x="3" y="3" width="73" height="57"/>
<path d="M27.048 57.792C22.968 57.792 19.272 56.688 15.96 54.48C12.648 52.272 10.032 49.2 8.112 45.264C6.24 41.28 5.304 36.696 5.304 31.512C5.304 26.28 6.24 21.72 8.112 17.832C9.984 13.896 12.552 10.848 15.816 8.688C19.08 6.48 22.776 5.376 26.904 5.376C31.08 5.376 34.8 6.48 38.064 8.688C41.328 10.848 43.896 13.896 45.768 17.832C47.688 21.768 48.648 26.352 48.648 31.584C48.648 36.816 47.688 41.4 45.768 45.336C43.896 49.272 41.328 52.344 38.064 54.552C34.848 56.712 31.176 57.792 27.048 57.792ZM26.976 47.784C29.088 47.784 30.912 47.184 32.448 45.984C33.984 44.736 35.16 42.912 35.976 40.512C36.84 38.064 37.272 35.088 37.272 31.584C37.272 28.032 36.84 25.056 35.976 22.656C35.16 20.256 33.984 18.456 32.448 17.256C30.912 16.008 29.064 15.384 26.904 15.384C24.84 15.384 23.016 15.984 21.432 17.184C19.896 18.384 18.72 20.184 17.904 22.584C17.088 24.984 16.68 27.96 16.68 31.512C16.68 35.064 17.088 38.04 17.904 40.44C18.72 42.84 19.896 44.664 21.432 45.912C23.016 47.16 24.864 47.784 26.976 47.784ZM62.1851 57V6.168H73.4171V57H62.1851ZM52.3931 15.744V6.168H72.6971V15.744H52.3931Z"/>
</mask>
<path d="M15.96 54.48L14.8506 56.1441L15.96 54.48ZM8.112 45.264L6.30187 46.1145L6.30807 46.1277L6.31446 46.1408L8.112 45.264ZM8.112 17.832L9.91402 18.6996L9.91813 18.691L8.112 17.832ZM15.816 8.688L16.9197 10.3559L16.9282 10.3503L16.9366 10.3446L15.816 8.688ZM38.064 8.688L36.9434 10.3446L36.9518 10.3503L36.9603 10.3559L38.064 8.688ZM45.768 17.832L43.9619 18.691L43.9661 18.6999L43.9705 18.7088L45.768 17.832ZM45.768 45.336L43.9705 44.4592L43.9661 44.468L43.9619 44.477L45.768 45.336ZM38.064 54.552L39.1791 56.2123L39.1846 56.2086L38.064 54.552ZM32.448 45.984L33.6793 47.56L33.6944 47.5483L33.7092 47.5362L32.448 45.984ZM35.976 40.512L34.09 39.8464L34.0862 39.8573L34.0825 39.8682L35.976 40.512ZM35.976 22.656L34.0825 23.2998L34.0882 23.3167L34.0942 23.3334L35.976 22.656ZM32.448 17.256L31.1868 18.8082L31.2017 18.8203L31.2167 18.832L32.448 17.256ZM21.432 17.184L20.2243 15.5898L20.2124 15.5988L20.2007 15.608L21.432 17.184ZM17.904 22.584L19.7975 23.2278L17.904 22.584ZM17.904 40.44L19.7975 39.7962V39.7962L17.904 40.44ZM21.432 45.912L20.1708 47.4642L20.1825 47.4737L20.1943 47.483L21.432 45.912ZM27.048 55.792C23.3524 55.792 20.0443 54.7991 17.0694 52.8159L14.8506 56.1441C18.4997 58.5769 22.5836 59.792 27.048 59.792V55.792ZM17.0694 52.8159C14.0815 50.824 11.69 48.0372 9.90954 44.3872L6.31446 46.1408C8.37395 50.3628 11.2145 53.72 14.8506 56.1441L17.0694 52.8159ZM9.92213 44.4135C8.19547 40.7388 7.304 36.4538 7.304 31.512H3.304C3.304 36.9382 4.28453 41.8212 6.30187 46.1145L9.92213 44.4135ZM7.304 31.512C7.304 26.5176 8.19707 22.2656 9.914 18.6996L6.31 16.9644C4.28293 21.1744 3.304 26.0424 3.304 31.512H7.304ZM9.91813 18.691C11.6521 15.0451 13.9926 12.2929 16.9197 10.3559L14.7123 7.02013C11.1114 9.40306 8.31587 12.7468 6.30587 16.973L9.91813 18.691ZM16.9366 10.3446C19.8535 8.37137 23.1554 7.376 26.904 7.376V3.376C22.3966 3.376 18.3065 4.58862 14.6954 7.03143L16.9366 10.3446ZM26.904 7.376C30.7057 7.376 34.0305 8.37407 36.9434 10.3446L39.1846 7.03143C35.5695 4.58593 31.4543 3.376 26.904 3.376V7.376ZM36.9603 10.3559C39.8874 12.2929 42.2279 15.0451 43.9619 18.691L47.5741 16.973C45.5641 12.7468 42.7686 9.40306 39.1677 7.02013L36.9603 10.3559ZM43.9705 18.7088C45.7338 22.3236 46.648 26.5973 46.648 31.584H50.648C50.648 26.1067 49.6422 21.2124 47.5655 16.9552L43.9705 18.7088ZM46.648 31.584C46.648 36.5707 45.7338 40.8444 43.9705 44.4592L47.5655 46.2128C49.6422 41.9556 50.648 37.0613 50.648 31.584H46.648ZM43.9619 44.477C42.2264 48.1258 39.8812 50.9081 36.9434 52.8954L39.1846 56.2086C42.7748 53.7799 45.5656 50.4182 47.5741 46.195L43.9619 44.477ZM36.9489 52.8917C34.0846 54.8155 30.8062 55.792 27.048 55.792V59.792C31.5458 59.792 35.6114 58.6085 39.1791 56.2123L36.9489 52.8917ZM26.976 49.784C29.4945 49.784 31.7616 49.0583 33.6793 47.56L31.2167 44.408C30.0624 45.3097 28.6815 45.784 26.976 45.784V49.784ZM33.7092 47.5362C35.6089 45.9927 36.966 43.8132 37.8695 41.1558L34.0825 39.8682C33.354 42.0108 32.3591 43.4793 31.1868 44.4318L33.7092 47.5362ZM37.862 41.1776C38.8227 38.4556 39.272 35.2406 39.272 31.584H35.272C35.272 34.9354 34.8573 37.6724 34.09 39.8464L37.862 41.1776ZM39.272 31.584C39.272 27.8849 38.8241 24.6628 37.8578 21.9786L34.0942 23.3334C34.8559 25.4492 35.272 28.1791 35.272 31.584H39.272ZM37.8695 22.0122C36.9654 19.3529 35.6019 17.182 33.6793 15.6799L31.2167 18.832C32.3661 19.73 33.3546 21.1591 34.0825 23.2998L37.8695 22.0122ZM33.7092 15.7038C31.7834 14.139 29.4785 13.384 26.904 13.384V17.384C28.6495 17.384 30.0406 17.877 31.1868 18.8082L33.7092 15.7038ZM26.904 13.384C24.422 13.384 22.17 14.1158 20.2243 15.5898L22.6397 18.7782C23.862 17.8522 25.258 17.384 26.904 17.384V13.384ZM20.2007 15.608C18.2781 17.11 16.9146 19.2809 16.0105 21.9402L19.7975 23.2278C20.5254 21.0871 21.5139 19.658 22.6633 18.76L20.2007 15.608ZM16.0105 21.9402C15.1019 24.6123 14.68 27.8219 14.68 31.512H18.68C18.68 28.0981 19.0741 25.3557 19.7975 23.2278L16.0105 21.9402ZM14.68 31.512C14.68 35.2021 15.1019 38.4117 16.0105 41.0838L19.7975 39.7962C19.0741 37.6683 18.68 34.9259 18.68 31.512H14.68ZM16.0105 41.0838C16.914 43.7412 18.2711 45.9207 20.1708 47.4642L22.6932 44.3598C21.5209 43.4073 20.526 41.9388 19.7975 39.7962L16.0105 41.0838ZM20.1943 47.483C22.1485 49.0227 24.4378 49.784 26.976 49.784V45.784C25.2902 45.784 23.8835 45.2973 22.6697 44.341L20.1943 47.483ZM62.1851 57H60.1851V59H62.1851V57ZM62.1851 6.168V4.168H60.1851V6.168H62.1851ZM73.4171 6.168H75.4171V4.168H73.4171V6.168ZM73.4171 57V59H75.4171V57H73.4171ZM52.3931 15.744H50.3931V17.744H52.3931V15.744ZM52.3931 6.168V4.168H50.3931V6.168H52.3931ZM72.6971 6.168H74.6971V4.168H72.6971V6.168ZM72.6971 15.744V17.744H74.6971V15.744H72.6971ZM64.1851 57V6.168H60.1851V57H64.1851ZM62.1851 8.168H73.4171V4.168H62.1851V8.168ZM71.4171 6.168V57H75.4171V6.168H71.4171ZM73.4171 55H62.1851V59H73.4171V55ZM54.3931 15.744V6.168H50.3931V15.744H54.3931ZM52.3931 8.168H72.6971V4.168H52.3931V8.168ZM70.6971 6.168V15.744H74.6971V6.168H70.6971ZM72.6971 13.744H52.3931V17.744H72.6971V13.744Z" fill="black" mask="url(#path-2-outside-1_6075_44953)"/>
</g>
</svg>
