<svg width="95" height="63" viewBox="0 0 95 63" fill="none" xmlns="http://www.w3.org/2000/svg">
<mask id="mask0_6075_44990" style="mask-type:alpha" maskUnits="userSpaceOnUse" x="0" y="0" width="95" height="63">
<rect y="0.958008" width="95" height="62" fill="#D9D9D9"/>
</mask>
<g mask="url(#mask0_6075_44990)">
<path d="M7.20762 45.6473L7.21072 45.6539L7.21392 45.6604C9.20366 49.7394 11.9319 52.954 15.406 55.27C18.8866 57.5904 22.7765 58.75 27.0487 58.75C31.3616 58.75 35.2304 57.6182 38.6222 55.3401L38.625 55.3383C42.0508 53.0208 44.7295 49.8054 46.6696 45.728C48.6665 41.6324 49.6487 36.8947 49.6487 31.542C49.6487 26.1893 48.6665 21.4516 46.6696 17.356C44.7296 13.2787 42.0499 10.0853 38.6207 7.81482C35.1822 5.49 31.266 4.33398 26.9047 4.33398C22.5888 4.33398 18.6971 5.49135 15.2606 7.81485C11.8308 10.0857 9.15077 13.28 7.21065 17.3583C5.26181 21.4069 4.30469 26.1201 4.30469 31.47C4.30469 36.7751 5.26295 41.5086 7.20762 45.6473ZM35.0337 40.1372L35.0336 40.1371L35.0299 40.1481C34.2591 42.4152 33.1762 44.0596 31.8255 45.1598C30.4819 46.2069 28.8819 46.742 26.9767 46.742C25.0804 46.742 23.455 46.1882 22.0575 45.0891C20.706 43.9889 19.6226 42.3441 18.8515 40.0761C18.0817 37.8121 17.6807 34.9529 17.6807 31.47C17.6807 27.987 18.0817 25.1278 18.8515 22.8639C19.6223 20.5968 20.7025 18.9837 22.0425 17.9346C23.4442 16.8746 25.0523 16.342 26.9047 16.342C28.8575 16.342 30.477 16.9005 31.8181 17.9901L31.8255 17.9961L31.833 18.002C33.1757 19.051 34.258 20.6655 35.0299 22.9359L35.0328 22.9443L35.0358 22.9527C35.8486 25.2106 36.2727 28.0635 36.2727 31.542C36.2727 34.9697 35.8493 37.8262 35.0337 40.1372ZM52.1293 49.755L51.6818 49.9097V50.2173L50.3455 51.5979L51.6818 51.6117V56.958V57.958H52.6818H89.2578H90.2578V56.958V47.31V46.31H89.2578H72.5476L80.891 38.011L80.8929 38.0091C82.8859 36.0161 84.4866 34.1729 85.6812 32.4809C86.9314 30.7302 87.8475 28.9572 88.4118 27.1618L88.4142 27.1542C88.9742 25.3212 89.2498 23.3497 89.2498 21.246C89.2498 17.879 88.495 14.8898 86.9511 12.3138C85.4574 9.74139 83.3189 7.76327 80.5645 6.38529C77.8522 5.00432 74.6669 4.33398 71.0418 4.33398C66.8628 4.33398 63.1161 5.23083 59.8293 7.05119C56.5369 8.87468 53.8455 11.577 51.7491 15.1208L51.3242 15.8391L51.9549 16.3857L59.5149 22.9377L60.4095 23.713L61.0243 22.7014C62.4713 20.3209 63.9157 18.7025 65.3325 17.7581L65.3381 17.7543C66.8007 16.7649 68.4286 16.27 70.2498 16.27C72.1194 16.27 73.5143 16.7864 74.5395 17.7328L74.5542 17.7463L74.5693 17.7592C75.6063 18.6426 76.1618 19.8802 76.1618 21.606C76.1618 22.3897 76.0184 23.1822 75.7225 23.9879C75.4246 24.7513 74.9443 25.6108 74.2601 26.5687C73.5814 27.519 72.6609 28.5807 71.4867 29.7549L71.4809 29.7607L71.4753 29.7665L52.1293 49.755Z" stroke="black" stroke-width="2"/>
</g>
</svg>
