<svg width="95" height="63" viewBox="0 0 95 63" fill="none" xmlns="http://www.w3.org/2000/svg">
<mask id="mask0_6075_44993" style="mask-type:alpha" maskUnits="userSpaceOnUse" x="0" y="0" width="95" height="63">
<rect y="0.916016" width="95" height="62" fill="#D9D9D9"/>
</mask>
<g mask="url(#mask0_6075_44993)">
<path d="M7.20762 45.6053L7.21072 45.6119L7.21392 45.6184C9.20366 49.6974 11.9319 52.912 15.406 55.228C18.8866 57.5484 22.7765 58.708 27.0487 58.708C31.3616 58.708 35.2304 57.5763 38.6222 55.2981L38.625 55.2963C42.0508 52.9788 44.7295 49.7635 46.6696 45.686C48.6665 41.5904 49.6487 36.8527 49.6487 31.5C49.6487 26.1473 48.6665 21.4096 46.6696 17.314C44.7296 13.2367 42.0499 10.0433 38.6207 7.77283C35.1822 5.448 31.266 4.29199 26.9047 4.29199C22.5888 4.29199 18.6971 5.44936 15.2606 7.77286C11.8308 10.0437 9.15077 13.238 7.21065 17.3163C5.26181 21.3649 4.30469 26.0781 4.30469 31.428C4.30469 36.7331 5.26295 41.4666 7.20762 45.6053ZM35.0337 40.0952L35.0336 40.0951L35.0299 40.1061C34.2591 42.3732 33.1762 44.0176 31.8255 45.1179C30.4819 46.1649 28.8819 46.7 26.9767 46.7C25.0804 46.7 23.455 46.1462 22.0575 45.0471C20.706 43.9469 19.6226 42.3021 18.8515 40.0341C18.0817 37.7701 17.6807 34.9109 17.6807 31.428C17.6807 27.945 18.0817 25.0858 18.8515 22.8219C19.6223 20.5548 20.7025 18.9417 22.0425 17.8926C23.4442 16.8326 25.0523 16.3 26.9047 16.3C28.8575 16.3 30.477 16.8585 31.8181 17.9481L31.8255 17.9541L31.833 17.96C33.1757 19.009 34.258 20.6235 35.0299 22.8939L35.0328 22.9023L35.0358 22.9107C35.8486 25.1686 36.2727 28.0216 36.2727 31.5C36.2727 34.9277 35.8493 37.7842 35.0337 40.0952ZM59.1297 56.8279L59.1297 56.828L59.1426 56.8333C62.2032 58.0877 65.5497 58.708 69.1698 58.708C73.2725 58.708 76.8848 57.9666 79.9766 56.4466C83.1036 54.9329 85.5536 52.7978 87.2926 50.0383C89.0843 47.2715 89.9698 44.105 89.9698 40.572C89.9698 37.3689 89.3195 34.5556 87.9748 32.1712C86.6956 29.7709 84.9414 27.9059 82.7119 26.6078C81.3571 25.7898 79.9 25.2231 78.3466 24.9043L88.6196 13.1965L89.0338 13.0417V12.7245L90.2527 11.3354L89.0338 11.3423V6.08399V5.08399H88.0338H55.2738H54.2738V6.08399V15.66V16.66H55.2738H70.4381L62.2164 26.3157L61.9778 26.5959V26.964V32.8796L60.0221 35.3455L61.9778 34.647V34.8589L63.372 34.1494C63.9372 33.9544 64.65 33.8066 65.5253 33.719L65.5463 33.7169L65.5672 33.7139C66.5337 33.5759 67.4462 33.508 68.3058 33.508C70.1721 33.508 71.705 33.8043 72.9368 34.3565L72.9367 34.3566L72.9482 34.3615C74.232 34.9179 75.1412 35.6834 75.7378 36.638L75.7509 36.6589L75.7649 36.6791C76.3967 37.5873 76.7378 38.7229 76.7378 40.14C76.7378 41.5559 76.3971 42.7243 75.7538 43.6893L75.7456 43.7015L75.7378 43.714C75.124 44.6961 74.2641 45.46 73.128 46.007C71.9953 46.5524 70.6141 46.844 68.9538 46.844C67.1345 46.844 65.41 46.469 63.7704 45.7182C62.174 44.9175 61.002 43.9205 60.2053 42.7465L59.5261 41.7455L58.6707 42.6009L51.3987 49.8729L50.7372 50.5344L51.3532 51.2385C53.4722 53.6601 56.0691 55.5234 59.1297 56.8279Z" stroke="black" stroke-width="2"/>
</g>
</svg>
