<svg width="98" height="63" viewBox="0 0 98 63" fill="none" xmlns="http://www.w3.org/2000/svg">
<mask id="mask0_6075_44996" style="mask-type:alpha" maskUnits="userSpaceOnUse" x="0" y="0" width="98" height="63">
<rect y="0.874023" width="98" height="62" fill="#D9D9D9"/>
</mask>
<g mask="url(#mask0_6075_44996)">
<path d="M7.20762 45.5633L7.21072 45.5699L7.21392 45.5764C9.20366 49.6554 11.9319 52.87 15.406 55.1861C18.8866 57.5064 22.7765 58.666 27.0487 58.666C31.3616 58.666 35.2304 57.5343 38.6222 55.2561L38.625 55.2543C42.0508 52.9368 44.7295 49.7215 46.6696 45.644C48.6665 41.5484 49.6487 36.8108 49.6487 31.458C49.6487 26.1053 48.6665 21.3676 46.6696 17.272C44.7296 13.1948 42.0499 10.0013 38.6207 7.73084C35.1822 5.40601 31.266 4.25 26.9047 4.25C22.5888 4.25 18.6971 5.40737 15.2606 7.73087C11.8308 10.0018 9.15077 13.196 7.21065 17.2743C5.26181 21.3229 4.30469 26.0361 4.30469 31.386C4.30469 36.6911 5.26295 41.4246 7.20762 45.5633ZM35.0337 40.0532L35.0336 40.0532L35.0299 40.0641C34.2591 42.3312 33.1762 43.9756 31.8255 45.0759C30.4819 46.1229 28.8819 46.658 26.9767 46.658C25.0804 46.658 23.455 46.1042 22.0575 45.0052C20.706 43.9049 19.6226 42.2601 18.8515 39.9921C18.0817 37.7281 17.6807 34.8689 17.6807 31.386C17.6807 27.903 18.0817 25.0439 18.8515 22.7799C19.6223 20.5128 20.7025 18.8997 22.0425 17.8506C23.4442 16.7906 25.0523 16.258 26.9047 16.258C28.8575 16.258 30.477 16.8165 31.8181 17.9061L31.8255 17.9121L31.833 17.918C33.1757 18.967 34.258 20.5815 35.0299 22.8519L35.0328 22.8603L35.0358 22.8687C35.8486 25.1266 36.2727 27.9796 36.2727 31.458C36.2727 34.8857 35.8493 37.7422 35.0337 40.0532ZM51.6616 38.6075L51.4658 38.7769V38.9966L50.8431 40.234H51.4658V45.57V46.57H52.4658H75.4418V56.874V57.874H76.4418H87.5298H88.5298V56.874V46.57H93.2178H94.2178V45.57V35.994V34.994H93.2178H88.5298V25.41V24.41H87.5298H76.4418H75.4418V25.41V34.994H67.722L82.3712 6.49922L83.1203 5.042H81.4818H69.1698H68.5536L68.2766 5.59246L51.6616 38.6075Z" stroke="black" stroke-width="2"/>
</g>
</svg>
