<svg width="95" height="63" viewBox="0 0 95 63" fill="none" xmlns="http://www.w3.org/2000/svg">
<mask id="mask0_6075_44999" style="mask-type:alpha" maskUnits="userSpaceOnUse" x="0" y="0" width="95" height="63">
<rect y="0.874023" width="95" height="62" fill="#D9D9D9"/>
</mask>
<g mask="url(#mask0_6075_44999)">
<path d="M7.20762 45.5633L7.21072 45.5699L7.21392 45.5764C9.20366 49.6554 11.9319 52.87 15.406 55.1861C18.8866 57.5064 22.7765 58.666 27.0487 58.666C31.3616 58.666 35.2304 57.5343 38.6222 55.2561L38.625 55.2543C42.0508 52.9368 44.7295 49.7215 46.6696 45.644C48.6665 41.5484 49.6487 36.8108 49.6487 31.458C49.6487 26.1053 48.6665 21.3676 46.6696 17.272C44.7296 13.1948 42.0499 10.0013 38.6207 7.73084C35.1822 5.40601 31.266 4.25 26.9047 4.25C22.5888 4.25 18.6971 5.40737 15.2606 7.73087C11.8308 10.0018 9.15077 13.196 7.21065 17.2743C5.26181 21.3229 4.30469 26.0361 4.30469 31.386C4.30469 36.6911 5.26295 41.4246 7.20762 45.5633ZM35.0337 40.0532L35.0336 40.0532L35.0299 40.0641C34.2591 42.3312 33.1762 43.9756 31.8255 45.0759C30.4819 46.1229 28.8819 46.658 26.9767 46.658C25.0804 46.658 23.455 46.1042 22.0575 45.0052C20.706 43.9049 19.6226 42.2601 18.8515 39.9921C18.0817 37.7281 17.6807 34.8689 17.6807 31.386C17.6807 27.903 18.0817 25.0439 18.8515 22.7799C19.6223 20.5128 20.7025 18.8997 22.0425 17.8506C23.4442 16.7906 25.0523 16.258 26.9047 16.258C28.8575 16.258 30.477 16.8165 31.8181 17.9061L31.8255 17.9121L31.833 17.918C33.1757 18.967 34.258 20.5815 35.0299 22.8519L35.0328 22.8603L35.0358 22.8687C35.8486 25.1266 36.2727 27.9796 36.2727 31.458C36.2727 34.8857 35.8493 37.7422 35.0337 40.0532ZM58.9963 56.7904L59.0051 56.794L59.014 56.7975C62.209 58.0455 65.6212 58.666 69.2418 58.666C73.3966 58.666 77.0598 57.899 80.201 56.3284C83.3286 54.7646 85.7765 52.58 87.513 49.7733C89.3003 46.9623 90.1858 43.7752 90.1858 40.242C90.1858 37.0211 89.4803 34.0532 88.0574 31.3572C86.6711 28.6392 84.5925 26.4651 81.8509 24.8396C79.1159 23.1895 75.7834 22.394 71.9058 22.394C70.2188 22.394 68.7208 22.5425 67.4244 22.8536C67.3221 22.8782 67.2203 22.9037 67.1191 22.9303L67.8311 16.618H86.3778H87.3778V15.618V6.042V5.042H86.3778H69.137H68.0178H57.7938H56.8913H56.6235L56.7857 6.06934L54.351 29.7718L54.3 30.2683L54.6662 30.6076L59.1836 34.7928L58.9417 36.6541L60.1783 35.7143L60.243 35.7743L60.8856 35.1769C61.9801 34.3521 63.1797 33.7447 64.4892 33.3518L64.5037 33.3475L64.518 33.3427C65.843 32.901 67.3186 32.674 68.9538 32.674C70.5499 32.674 71.9289 32.9836 73.1146 33.5764L73.1335 33.5859L73.1528 33.5945C74.3802 34.1448 75.304 34.9328 75.9595 35.9571C76.6073 36.9691 76.9538 38.2143 76.9538 39.738C76.9538 41.2033 76.612 42.4553 75.9546 43.5266C75.2921 44.5588 74.3822 45.3712 73.1996 45.9651C72.0169 46.5114 70.5869 46.802 68.8818 46.802C66.9596 46.802 65.1879 46.4241 63.5544 45.6762C61.958 44.8755 60.786 43.8785 59.9893 42.7045L59.3135 41.7085L58.4582 42.5554L51.1142 49.8274L50.4461 50.4889L51.0652 51.1965C53.1897 53.6244 55.8398 55.4877 58.9963 56.7904Z" stroke="black" stroke-width="2"/>
</g>
</svg>
