<svg width="95" height="62" viewBox="0 0 95 62" fill="none" xmlns="http://www.w3.org/2000/svg">
<mask id="mask0_6075_45020" style="mask-type:alpha" maskUnits="userSpaceOnUse" x="0" y="0" width="95" height="62">
<rect width="95" height="62" fill="#D9D9D9"/>
</mask>
<g mask="url(#mask0_6075_45020)">
<mask id="path-2-outside-1_6075_45020" maskUnits="userSpaceOnUse" x="3" y="3" width="90" height="57" fill="black">
<rect fill="white" x="3" y="3" width="90" height="57"/>
<path d="M27.048 57.792C22.968 57.792 19.272 56.688 15.96 54.48C12.648 52.272 10.032 49.2 8.112 45.264C6.24 41.28 5.304 36.696 5.304 31.512C5.304 26.28 6.24 21.72 8.112 17.832C9.984 13.896 12.552 10.848 15.816 8.688C19.08 6.48 22.776 5.376 26.904 5.376C31.08 5.376 34.8 6.48 38.064 8.688C41.328 10.848 43.896 13.896 45.768 17.832C47.688 21.768 48.648 26.352 48.648 31.584C48.648 36.816 47.688 41.4 45.768 45.336C43.896 49.272 41.328 52.344 38.064 54.552C34.848 56.712 31.176 57.792 27.048 57.792ZM26.976 47.784C29.088 47.784 30.912 47.184 32.448 45.984C33.984 44.736 35.16 42.912 35.976 40.512C36.84 38.064 37.272 35.088 37.272 31.584C37.272 28.032 36.84 25.056 35.976 22.656C35.16 20.256 33.984 18.456 32.448 17.256C30.912 16.008 29.064 15.384 26.904 15.384C24.84 15.384 23.016 15.984 21.432 17.184C19.896 18.384 18.72 20.184 17.904 22.584C17.088 24.984 16.68 27.96 16.68 31.512C16.68 35.064 17.088 38.04 17.904 40.44C18.72 42.84 19.896 44.664 21.432 45.912C23.016 47.16 24.864 47.784 26.976 47.784ZM71.6171 57.792C68.0651 57.792 64.8491 57 61.9691 55.416C59.1371 53.832 56.8811 51.72 55.2011 49.08C53.5691 46.392 52.7531 43.392 52.7531 40.08C52.7531 35.76 54.2651 31.392 57.2891 26.976L71.6171 6.168H84.3611L68.4491 28.344L64.2011 28.704C64.8731 27.552 65.5691 26.568 66.2891 25.752C67.0571 24.888 68.0171 24.24 69.1691 23.808C70.3211 23.328 71.7851 23.088 73.5611 23.088C76.7291 23.088 79.5611 23.832 82.0571 25.32C84.6011 26.76 86.6411 28.752 88.1771 31.296C89.7131 33.792 90.4811 36.672 90.4811 39.936C90.4811 43.248 89.6411 46.272 87.9611 49.008C86.2811 51.696 84.0251 53.832 81.1931 55.416C78.3611 57 75.1691 57.792 71.6171 57.792ZM71.6171 47.928C73.1051 47.928 74.4491 47.568 75.6491 46.848C76.8491 46.128 77.7851 45.144 78.4571 43.896C79.1291 42.648 79.4651 41.256 79.4651 39.72C79.4651 38.136 79.1291 36.744 78.4571 35.544C77.7851 34.296 76.8491 33.336 75.6491 32.664C74.4491 31.944 73.1051 31.584 71.6171 31.584C70.0811 31.584 68.7131 31.944 67.5131 32.664C66.3611 33.336 65.4491 34.296 64.7771 35.544C64.1051 36.744 63.7691 38.136 63.7691 39.72C63.7691 41.256 64.1051 42.648 64.7771 43.896C65.4491 45.144 66.3611 46.128 67.5131 46.848C68.7131 47.568 70.0811 47.928 71.6171 47.928Z"/>
</mask>
<path d="M15.96 54.48L14.8506 56.1441L15.96 54.48ZM8.112 45.264L6.30187 46.1145L6.30807 46.1277L6.31446 46.1408L8.112 45.264ZM8.112 17.832L9.91402 18.6996L9.91813 18.691L8.112 17.832ZM15.816 8.688L16.9197 10.3559L16.9282 10.3503L16.9366 10.3446L15.816 8.688ZM38.064 8.688L36.9434 10.3446L36.9518 10.3503L36.9603 10.3559L38.064 8.688ZM45.768 17.832L43.9619 18.691L43.9661 18.6999L43.9705 18.7088L45.768 17.832ZM45.768 45.336L43.9705 44.4592L43.9661 44.468L43.9619 44.477L45.768 45.336ZM38.064 54.552L39.1791 56.2123L39.1846 56.2086L38.064 54.552ZM32.448 45.984L33.6793 47.56L33.6944 47.5483L33.7092 47.5362L32.448 45.984ZM35.976 40.512L34.09 39.8464L34.0862 39.8573L34.0825 39.8682L35.976 40.512ZM35.976 22.656L34.0825 23.2998L34.0882 23.3167L34.0942 23.3334L35.976 22.656ZM32.448 17.256L31.1868 18.8082L31.2017 18.8203L31.2167 18.832L32.448 17.256ZM21.432 17.184L20.2243 15.5898L20.2124 15.5988L20.2007 15.608L21.432 17.184ZM17.904 22.584L19.7975 23.2278L17.904 22.584ZM17.904 40.44L19.7975 39.7962V39.7962L17.904 40.44ZM21.432 45.912L20.1708 47.4642L20.1825 47.4737L20.1943 47.483L21.432 45.912ZM27.048 55.792C23.3524 55.792 20.0443 54.7991 17.0694 52.8159L14.8506 56.1441C18.4997 58.5769 22.5836 59.792 27.048 59.792V55.792ZM17.0694 52.8159C14.0815 50.824 11.69 48.0372 9.90954 44.3872L6.31446 46.1408C8.37395 50.3628 11.2145 53.72 14.8506 56.1441L17.0694 52.8159ZM9.92213 44.4135C8.19547 40.7388 7.304 36.4538 7.304 31.512H3.304C3.304 36.9382 4.28453 41.8212 6.30187 46.1145L9.92213 44.4135ZM7.304 31.512C7.304 26.5176 8.19707 22.2656 9.914 18.6996L6.31 16.9644C4.28293 21.1744 3.304 26.0424 3.304 31.512H7.304ZM9.91813 18.691C11.6521 15.0451 13.9926 12.2929 16.9197 10.3559L14.7123 7.02013C11.1114 9.40306 8.31587 12.7468 6.30587 16.973L9.91813 18.691ZM16.9366 10.3446C19.8535 8.37137 23.1554 7.376 26.904 7.376V3.376C22.3966 3.376 18.3065 4.58862 14.6954 7.03143L16.9366 10.3446ZM26.904 7.376C30.7057 7.376 34.0305 8.37407 36.9434 10.3446L39.1846 7.03143C35.5695 4.58593 31.4543 3.376 26.904 3.376V7.376ZM36.9603 10.3559C39.8874 12.2929 42.2279 15.0451 43.9619 18.691L47.5741 16.973C45.5641 12.7468 42.7686 9.40306 39.1677 7.02013L36.9603 10.3559ZM43.9705 18.7088C45.7338 22.3236 46.648 26.5973 46.648 31.584H50.648C50.648 26.1067 49.6422 21.2124 47.5655 16.9552L43.9705 18.7088ZM46.648 31.584C46.648 36.5707 45.7338 40.8444 43.9705 44.4592L47.5655 46.2128C49.6422 41.9556 50.648 37.0613 50.648 31.584H46.648ZM43.9619 44.477C42.2264 48.1258 39.8812 50.9081 36.9434 52.8954L39.1846 56.2086C42.7748 53.7799 45.5656 50.4182 47.5741 46.195L43.9619 44.477ZM36.9489 52.8917C34.0846 54.8155 30.8062 55.792 27.048 55.792V59.792C31.5458 59.792 35.6114 58.6085 39.1791 56.2123L36.9489 52.8917ZM26.976 49.784C29.4945 49.784 31.7616 49.0583 33.6793 47.56L31.2167 44.408C30.0624 45.3097 28.6815 45.784 26.976 45.784V49.784ZM33.7092 47.5362C35.6089 45.9927 36.966 43.8132 37.8695 41.1558L34.0825 39.8682C33.354 42.0108 32.3591 43.4793 31.1868 44.4318L33.7092 47.5362ZM37.862 41.1776C38.8227 38.4556 39.272 35.2406 39.272 31.584H35.272C35.272 34.9354 34.8573 37.6724 34.09 39.8464L37.862 41.1776ZM39.272 31.584C39.272 27.8849 38.8241 24.6628 37.8578 21.9786L34.0942 23.3334C34.8559 25.4492 35.272 28.1791 35.272 31.584H39.272ZM37.8695 22.0122C36.9654 19.3529 35.6019 17.182 33.6793 15.6799L31.2167 18.832C32.3661 19.73 33.3546 21.1591 34.0825 23.2998L37.8695 22.0122ZM33.7092 15.7038C31.7834 14.139 29.4785 13.384 26.904 13.384V17.384C28.6495 17.384 30.0406 17.877 31.1868 18.8082L33.7092 15.7038ZM26.904 13.384C24.422 13.384 22.17 14.1158 20.2243 15.5898L22.6397 18.7782C23.862 17.8522 25.258 17.384 26.904 17.384V13.384ZM20.2007 15.608C18.2781 17.11 16.9146 19.2809 16.0105 21.9402L19.7975 23.2278C20.5254 21.0871 21.5139 19.658 22.6633 18.76L20.2007 15.608ZM16.0105 21.9402C15.1019 24.6123 14.68 27.8219 14.68 31.512H18.68C18.68 28.0981 19.0741 25.3557 19.7975 23.2278L16.0105 21.9402ZM14.68 31.512C14.68 35.2021 15.1019 38.4117 16.0105 41.0838L19.7975 39.7962C19.0741 37.6683 18.68 34.9259 18.68 31.512H14.68ZM16.0105 41.0838C16.914 43.7412 18.2711 45.9207 20.1708 47.4642L22.6932 44.3598C21.5209 43.4073 20.526 41.9388 19.7975 39.7962L16.0105 41.0838ZM20.1943 47.483C22.1485 49.0227 24.4378 49.784 26.976 49.784V45.784C25.2902 45.784 23.8835 45.2973 22.6697 44.341L20.1943 47.483ZM61.9691 55.416L60.9928 57.1615L60.999 57.165L61.0053 57.1684L61.9691 55.416ZM55.2011 49.08L53.4916 50.118L53.5025 50.136L53.5138 50.1537L55.2011 49.08ZM57.2891 26.976L55.6419 25.8417L55.639 25.846L57.2891 26.976ZM71.6171 6.168V4.168H70.566L69.9699 5.03373L71.6171 6.168ZM84.3611 6.168L85.9861 7.33397L88.2578 4.168H84.3611V6.168ZM68.4491 28.344L68.618 30.3369L69.5366 30.259L70.0741 29.51L68.4491 28.344ZM64.2011 28.704L62.4736 27.6963L60.5336 31.022L64.37 30.6969L64.2011 28.704ZM66.2891 25.752L64.7943 24.4233L64.7895 24.4288L66.2891 25.752ZM69.1691 23.808L69.8714 25.6807L69.9051 25.668L69.9384 25.6542L69.1691 23.808ZM82.0571 25.32L81.033 27.0379L81.0523 27.0494L81.0719 27.0605L82.0571 25.32ZM88.1771 31.296L86.465 32.3297L86.4694 32.337L86.4738 32.3442L88.1771 31.296ZM87.9611 49.008L89.6571 50.068L89.6613 50.0613L89.6655 50.0545L87.9611 49.008ZM81.1931 55.416L80.2168 53.6705L81.1931 55.416ZM78.4571 43.896L76.6962 42.9478L78.4571 43.896ZM78.4571 35.544L76.6962 36.4922L76.704 36.5068L76.7121 36.5212L78.4571 35.544ZM75.6491 32.664L74.6201 34.379L74.6458 34.3944L74.6719 34.409L75.6491 32.664ZM67.5131 32.664L68.5209 34.3916L68.5315 34.3853L68.5421 34.379L67.5131 32.664ZM64.7771 35.544L66.5221 36.5212L66.5302 36.5068L66.5381 36.4922L64.7771 35.544ZM64.7771 43.896L63.0162 44.8442L64.7771 43.896ZM67.5131 46.848L66.4531 48.544L66.4685 48.5536L66.4841 48.563L67.5131 46.848ZM71.6171 55.792C68.3742 55.792 65.4941 55.0722 62.933 53.6636L61.0053 57.1684C64.2041 58.9278 67.7561 59.792 71.6171 59.792V55.792ZM62.9454 53.6705C60.3913 52.2419 58.384 50.3564 56.8884 48.0062L53.5138 50.1537C55.3782 53.0836 57.8829 55.4221 60.9928 57.1615L62.9454 53.6705ZM56.9107 48.042C55.479 45.6839 54.7531 43.0463 54.7531 40.08H50.7531C50.7531 43.7377 51.6593 47.1001 53.4916 50.118L56.9107 48.042ZM54.7531 40.08C54.7531 36.2506 56.0883 32.2693 58.9393 28.106L55.639 25.846C52.4419 30.5147 50.7531 35.2694 50.7531 40.08H54.7531ZM58.9364 28.1103L73.2644 7.30227L69.9699 5.03373L55.6419 25.8417L58.9364 28.1103ZM71.6171 8.168H84.3611V4.168H71.6171V8.168ZM82.7362 5.00203L66.8242 27.178L70.0741 29.51L85.9861 7.33397L82.7362 5.00203ZM68.2802 26.3511L64.0322 26.7111L64.37 30.6969L68.618 30.3369L68.2802 26.3511ZM65.9287 29.7117C66.5492 28.648 67.1715 27.7748 67.7888 27.0752L64.7895 24.4288C63.9667 25.3612 63.197 26.456 62.4736 27.6963L65.9287 29.7117ZM67.7839 27.0807C68.322 26.4754 69.0037 26.006 69.8714 25.6807L68.4669 21.9353C67.0305 22.474 65.7922 23.3006 64.7943 24.4233L67.7839 27.0807ZM69.9384 25.6542C70.7667 25.309 71.946 25.088 73.5611 25.088V21.088C71.6243 21.088 69.8756 21.347 68.3999 21.9618L69.9384 25.6542ZM73.5611 25.088C76.4022 25.088 78.8743 25.751 81.033 27.0379L83.0813 23.6021C80.2479 21.913 77.0561 21.088 73.5611 21.088V25.088ZM81.0719 27.0605C83.3118 28.3284 85.1035 30.0748 86.465 32.3297L89.8893 30.2623C88.1788 27.4292 85.8905 25.1916 83.0423 23.5795L81.0719 27.0605ZM86.4738 32.3442C87.7943 34.49 88.4811 36.9988 88.4811 39.936H92.4811C92.4811 36.3452 91.6319 33.094 89.8804 30.2478L86.4738 32.3442ZM88.4811 39.936C88.4811 42.8908 87.7371 45.5506 86.2568 47.9615L89.6655 50.0545C91.5451 46.9934 92.4811 43.6052 92.4811 39.936H88.4811ZM86.2651 47.948C84.7679 50.3436 82.7623 52.2467 80.2168 53.6705L82.1694 57.1615C85.2879 55.4173 87.7944 53.0484 89.6571 50.068L86.2651 47.948ZM80.2168 53.6705C77.7108 55.0721 74.8605 55.792 71.6171 55.792V59.792C75.4778 59.792 79.0114 58.9279 82.1694 57.1615L80.2168 53.6705ZM71.6171 49.928C73.4437 49.928 75.1474 49.4814 76.6781 48.563L74.6201 45.133C73.7508 45.6546 72.7665 45.928 71.6171 45.928V49.928ZM76.6781 48.563C78.1908 47.6554 79.3778 46.4047 80.2181 44.8442L76.6962 42.9478C76.1925 43.8833 75.5075 44.6006 74.6201 45.133L76.6781 48.563ZM80.2181 44.8442C81.0599 43.2808 81.4651 41.5586 81.4651 39.72H77.4651C77.4651 40.9534 77.1983 42.0152 76.6962 42.9478L80.2181 44.8442ZM81.4651 39.72C81.4651 37.8463 81.0652 36.108 80.2021 34.5668L76.7121 36.5212C77.193 37.38 77.4651 38.4257 77.4651 39.72H81.4651ZM80.2181 34.5958C79.3717 33.0239 78.1685 31.7826 76.6263 30.919L74.6719 34.409C75.5297 34.8894 76.1986 35.5681 76.6962 36.4922L80.2181 34.5958ZM76.6781 30.949C75.1474 30.0306 73.4437 29.584 71.6171 29.584V33.584C72.7665 33.584 73.7508 33.8574 74.6201 34.379L76.6781 30.949ZM71.6171 29.584C69.7551 29.584 68.0248 30.0246 66.4841 30.949L68.5421 34.379C69.4014 33.8634 70.4071 33.584 71.6171 33.584V29.584ZM66.5054 30.9364C65.0152 31.8057 63.8513 33.0449 63.0162 34.5958L66.5381 36.4922C67.0469 35.5471 67.7071 34.8663 68.5209 34.3916L66.5054 30.9364ZM63.0321 34.5668C62.169 36.108 61.7691 37.8463 61.7691 39.72H65.7691C65.7691 38.4257 66.0412 37.38 66.5221 36.5212L63.0321 34.5668ZM61.7691 39.72C61.7691 41.5586 62.1743 43.2808 63.0162 44.8442L66.5381 42.9478C66.0359 42.0152 65.7691 40.9534 65.7691 39.72H61.7691ZM63.0162 44.8442C63.8455 46.3843 64.9935 47.6317 66.4531 48.544L68.5731 45.152C67.7288 44.6243 67.0528 43.9037 66.5381 42.9478L63.0162 44.8442ZM66.4841 48.563C68.0248 49.4874 69.7551 49.928 71.6171 49.928V45.928C70.4071 45.928 69.4014 45.6486 68.5421 45.133L66.4841 48.563Z" fill="black" mask="url(#path-2-outside-1_6075_45020)"/>
</g>
</svg>
