<svg width="95" height="63" viewBox="0 0 95 63" fill="none" xmlns="http://www.w3.org/2000/svg">
<mask id="mask0_6075_45023" style="mask-type:alpha" maskUnits="userSpaceOnUse" x="0" y="0" width="95" height="63">
<rect y="0.958008" width="95" height="62" fill="#D9D9D9"/>
</mask>
<g mask="url(#mask0_6075_45023)">
<path d="M7.20762 45.6473L7.21072 45.6539L7.21392 45.6604C9.20366 49.7394 11.9319 52.954 15.406 55.27C18.8866 57.5904 22.7765 58.75 27.0487 58.75C31.3616 58.75 35.2304 57.6182 38.6222 55.3401L38.625 55.3383C42.0508 53.0208 44.7295 49.8054 46.6696 45.728C48.6665 41.6324 49.6487 36.8947 49.6487 31.542C49.6487 26.1893 48.6665 21.4516 46.6696 17.356C44.7296 13.2787 42.0499 10.0853 38.6207 7.81482C35.1822 5.49 31.266 4.33398 26.9047 4.33398C22.5888 4.33398 18.6971 5.49135 15.2606 7.81485C11.8308 10.0857 9.15077 13.28 7.21065 17.3583C5.26181 21.4069 4.30469 26.1201 4.30469 31.47C4.30469 36.7751 5.26295 41.5086 7.20762 45.6473ZM35.0337 40.1372L35.0336 40.1371L35.0299 40.1481C34.2591 42.4152 33.1762 44.0596 31.8255 45.1598C30.4819 46.2069 28.8819 46.742 26.9767 46.742C25.0804 46.742 23.455 46.1882 22.0575 45.0891C20.706 43.9889 19.6226 42.3441 18.8515 40.0761C18.0817 37.8121 17.6807 34.9529 17.6807 31.47C17.6807 27.987 18.0817 25.1278 18.8515 22.8639C19.6223 20.5968 20.7025 18.9837 22.0425 17.9346C23.4442 16.8746 25.0523 16.342 26.9047 16.342C28.8575 16.342 30.477 16.9005 31.8181 17.9901L31.8255 17.9961L31.833 18.002C33.1757 19.051 34.258 20.6655 35.0299 22.9359L35.0328 22.9443L35.0358 22.9527C35.8486 25.2106 36.2727 28.0635 36.2727 31.542C36.2727 34.9697 35.8493 37.8262 35.0337 40.1372ZM56.3312 56.596L55.8023 57.958H57.2634H68.9274H69.6212L69.8641 57.3081L86.4067 13.0512L86.5594 12.9191V12.6428L87.0007 11.462H86.5594V6.12598V5.12598H85.5594H50.4954H49.4954V6.12598V15.702V16.702H50.4954H71.824L56.3312 56.596Z" stroke="black" stroke-width="2"/>
</g>
</svg>
