<svg width="92" height="92" viewBox="0 0 92 92" fill="none" xmlns="http://www.w3.org/2000/svg">
<mask id="mask0_9016_58969" style="mask-type:alpha" maskUnits="userSpaceOnUse" x="0" y="0" width="92" height="92">
<rect width="92" height="92" fill="black"/>
</mask>
<g mask="url(#mask0_9016_58969)">
<path d="M16.0392 25.0284C16.0317 23.3742 16.4809 21.7501 17.3372 20.3348C18.1936 18.9196 19.4239 17.7681 20.8928 17.0072C22.3616 16.2464 24.0119 15.9056 25.6619 16.0225C27.312 16.1393 28.8978 16.7093 30.2447 17.6696C31.5915 18.63 32.6473 19.9434 33.2956 21.4652C33.9439 22.987 34.1597 24.6583 33.9191 26.2949C33.6786 27.9315 32.991 29.47 31.9322 30.7409C30.8734 32.0118 29.4843 32.9658 27.9181 33.4979C27.9696 33.6669 28.0047 33.8405 28.0229 34.0162V48.9959C28.0229 49.7905 27.7073 50.5525 27.1454 51.1144C26.5836 51.6762 25.8215 51.9919 25.027 51.9919C24.2324 51.9919 23.4704 51.6762 22.9085 51.1144C22.3467 50.5525 22.031 49.7905 22.031 48.9959V34.0162C22.0492 33.8405 22.0843 33.6669 22.1359 33.4979C20.362 32.9005 18.8198 31.7622 17.7263 30.243C16.6327 28.7239 16.0427 26.9002 16.0392 25.0284ZM69.8612 58.502C69.9128 58.3331 69.9479 58.1595 69.9661 57.9837V46C69.9661 45.2054 69.6504 44.4434 69.0886 43.8815C68.5267 43.3197 67.7647 43.004 66.9701 43.004C66.1755 43.004 65.4135 43.3197 64.8517 43.8815C64.2898 44.4434 63.9742 45.2054 63.9742 46V57.9837C63.9924 58.1595 64.0275 58.3331 64.079 58.502C62.0625 59.1871 60.3548 60.566 59.2602 62.3929C58.1656 64.2198 57.7554 66.3761 58.1025 68.4773C58.4497 70.5786 59.5318 72.4882 61.1558 73.866C62.7799 75.2437 64.8404 76 66.9701 76C69.0998 76 71.1604 75.2437 72.7844 73.866C74.4085 72.4882 75.4905 70.5786 75.8377 68.4773C76.1849 66.3761 75.7746 64.2198 74.6801 62.3929C73.5855 60.566 71.8777 59.1871 69.8612 58.502ZM72.962 16.0406H60.9782C60.1837 16.0406 59.4216 16.3562 58.8598 16.9181C58.2979 17.4799 57.9823 18.242 57.9823 19.0365V22.0325H45.9985C45.204 22.0325 44.4419 22.3481 43.8801 22.91C43.3183 23.4718 43.0026 24.2338 43.0026 25.0284C43.0026 25.823 43.3183 26.585 43.8801 27.1469C44.4419 27.7087 45.204 28.0244 45.9985 28.0244H57.9823V31.0203C57.9823 31.8149 58.2979 32.5769 58.8598 33.1387C59.4216 33.7006 60.1837 34.0162 60.9782 34.0162H72.962C73.7566 34.0162 74.5186 33.7006 75.0805 33.1387C75.6423 32.5769 75.9579 31.8149 75.9579 31.0203V19.0365C75.9579 18.242 75.6423 17.4799 75.0805 16.9181C74.5186 16.3562 73.7566 16.0406 72.962 16.0406ZM45.9985 63.9756H34.0148V60.9797C34.0148 60.1851 33.6991 59.4231 33.1373 58.8612C32.5755 58.2994 31.8134 57.9837 31.0189 57.9837H19.0351C18.2405 57.9837 17.4785 58.2994 16.9166 58.8612C16.3548 59.4231 16.0392 60.1851 16.0392 60.9797V72.9634C16.0392 73.758 16.3548 74.52 16.9166 75.0819C17.4785 75.6437 18.2405 75.9594 19.0351 75.9594H31.0189C31.8134 75.9594 32.5755 75.6437 33.1373 75.0819C33.6991 74.52 34.0148 73.758 34.0148 72.9634V69.9675H45.9985C46.7931 69.9675 47.5551 69.6519 48.117 69.09C48.6788 68.5282 48.9945 67.7661 48.9945 66.9716C48.9945 66.177 48.6788 65.415 48.117 64.8531C47.5551 64.2913 46.7931 63.9756 45.9985 63.9756Z" fill="black"/>
</g>
</svg>
