<svg width="300" height="100" viewBox="0 0 300 100" fill="none" xmlns="http://www.w3.org/2000/svg">
<path d="M174.503 69.3757C174.503 67.8054 174.418 66.7388 174.418 65.4289C174.418 63.6475 174.364 63.6437 174.439 61.792C174.627 57.1626 178.171 53.1968 179.152 51.8793L183.226 46.3583L184.005 51.5561C185.817 59.3033 194.469 62.9308 201.365 58.7292C210.84 52.9534 208.087 39.3772 197.237 37.2042C189.074 35.5711 182.631 43.978 177.908 49.2766C170.054 58.0847 162.72 70.1818 149.223 69.3852C143.027 69.0202 137.419 66.216 133.575 61.3262C133.082 60.7007 131.32 58.0543 131.158 57.4212C130.955 56.6284 130.97 55.7672 131.225 54.9934C131.48 54.2196 134.47 50.8184 135.227 49.9648C136.183 48.8849 137.219 47.7918 138.276 46.8089C138.577 49.7747 138.93 53.4706 140.763 55.9478C145.119 61.8357 153.537 61.638 158.834 57.079C170.461 47.0712 181.931 23.3542 200.604 28.8752C209.426 31.4836 215.622 38.3848 215.983 47.8127C216.532 62.2083 203.49 71.9195 189.713 68.8738C188.84 68.6818 182.783 64.6038 183.192 66.4441L183.224 69.3776H174.503V69.3757Z" fill="white"/>
<path d="M170.88 28.301C170.88 28.8086 170.797 37.0691 170.797 40.5464L162.38 50.8697C161.808 48.0085 161.85 44.6586 160.01 42.1833C154.141 34.2858 145.709 36.4246 139.255 42.2061C130.458 50.0883 120.494 68.0582 108.151 69.3529C89.8793 71.2711 78.0027 51.9115 88.3185 36.6718C95.6304 25.8713 113.594 25.4207 121.349 35.8999C121.817 36.533 124.376 40.4266 124.498 40.8829C124.589 41.2251 124.798 41.4304 124.498 41.8981L117.435 50.4172C116.302 46.1776 116.074 42.9799 112.583 39.9209C107.374 35.3581 100.393 36.2535 95.9764 41.3886C91.6721 46.3925 92.9649 55.2006 98.6076 58.6246C108.334 64.5258 115.292 56.2101 121.159 49.6263C132.285 37.1414 140.386 22.8598 159.909 30.3181C160.616 30.5881 161.141 30.7535 162.042 31.0101V28.301H170.879H170.88Z" fill="white"/>
<path d="M129.02 73.889H137.264C137.471 73.889 138.118 73.908 138.235 74.4992C138.562 76.138 139.034 78.6248 139.77 80.1875C140.867 82.5146 145.599 85.9766 148.129 86.277C154.481 87.0298 160.895 83.3111 161.74 76.6818C161.979 74.8091 161.665 69.8509 162.439 68.579L170.801 61.25C170.373 71.1703 173.034 83.7636 163.785 90.4595C155.194 96.6802 145.171 97.4273 136.817 90.355C131.863 86.161 129.847 80.1685 129.019 73.8871L129.02 73.889Z" fill="white"/>
<path d="M183.451 28.64L174.645 35.7504L175.145 11.539L183.451 4.60547V28.64Z" fill="white"/>
<path d="M125.857 69.3763H116.372L125.857 61.0264V69.3763Z" fill="white"/>
</svg>
