<svg width="181" height="182" viewBox="0 0 181 182" fill="none" xmlns="http://www.w3.org/2000/svg">
<rect width="181" height="181" rx="48" transform="matrix(-1 0 0 1 181 0.5)" fill="black"/>
<mask id="mask0_4254_34982" style="mask-type:alpha" maskUnits="userSpaceOnUse" x="40" y="41" width="100" height="101">
<rect width="100" height="100" transform="matrix(-1 0 0 1 140 41.5)" fill="#D9D9D9"/>
</mask>
<g mask="url(#mask0_4254_34982)">
<path d="M67.7476 65.4257C68.0652 65.3718 68.3818 65.5264 68.5401 65.8126L72.1739 72.386L74.2848 72.018C74.7019 71.9453 75.0974 72.2314 75.1686 72.657C75.2398 73.0825 74.9595 73.4864 74.5426 73.5591L71.9007 74.0197C71.5822 74.0752 71.2638 73.9206 71.105 73.6333L68.2402 68.4512L65.483 83.5413C65.4282 83.8411 65.2081 84.0807 64.9189 84.1558C64.6297 84.2308 64.3241 84.1276 64.1359 83.8912L57.3924 75.4197L55.9059 79.958C55.8164 80.2312 55.5868 80.4321 55.3086 80.4806L52.2893 81.007C51.8724 81.0797 51.4768 80.7936 51.4056 80.368C51.3344 79.9424 51.6146 79.5386 52.0315 79.4659L54.5988 79.0184L56.3818 73.575C56.4703 73.3045 56.6961 73.1048 56.971 73.0538C57.2458 73.0028 57.5261 73.1086 57.7023 73.3299L64.2809 81.5941L67.1204 66.0534C67.1794 65.7304 67.4301 65.4795 67.7476 65.4257Z" fill="white"/>
<path fill-rule="evenodd" clip-rule="evenodd" d="M45.2597 78.4653C43.5867 68.4646 50.1723 58.9729 59.9689 57.2651C69.0461 55.6827 77.6954 61.3382 80.2472 70.1329C80.3089 70.1166 80.3732 70.1079 80.4398 70.1079H119.11C119.533 70.1079 119.876 70.4579 119.876 70.8896V97.2723C119.876 97.7041 119.533 98.054 119.11 98.054C118.687 98.054 118.344 97.7041 118.344 97.2723V71.6713H80.624C80.6646 71.8731 80.7021 72.0763 80.7362 72.2808C81.7466 78.3199 79.7453 84.1732 75.8442 88.2392C75.8449 88.2537 75.8453 88.2682 75.8453 88.2826V124.437H118.344V117.01C118.344 116.578 118.687 116.229 119.11 116.229C119.533 116.229 119.876 116.578 119.876 117.01V125.218C119.876 125.65 119.533 126 119.11 126H75.0796C74.6566 126 74.3138 125.65 74.3138 125.218V89.6608C72.5601 91.1112 70.5202 92.2392 68.267 92.94L69.516 100.407C69.9329 100.334 70.3286 100.62 70.3998 101.046L72.7844 115.301C73.0691 117.003 71.9482 118.619 70.2807 118.91C68.6132 119.2 67.0306 118.056 66.7458 116.354L64.3612 102.099C64.29 101.673 64.5702 101.269 64.9871 101.196L63.7381 93.7296C54.821 94.1157 46.8016 87.683 45.2597 78.4653ZM60.2266 58.8062C51.2638 60.3687 45.2388 69.0525 46.7693 78.2022C48.2999 87.352 56.8065 93.5025 65.7693 91.9398C74.7323 90.3776 80.7572 81.6936 79.2265 72.544C77.6961 63.3943 69.1895 57.2437 60.2266 58.8062ZM65.2695 93.5967L66.4967 100.933L68.0064 100.67L66.7791 93.3332C66.5307 93.3876 66.28 93.4372 66.0271 93.481C65.7742 93.5251 65.5216 93.5638 65.2695 93.5967ZM65.9997 102.606L69.019 102.079L71.2748 115.564C71.4171 116.415 70.8567 117.223 70.0229 117.368C69.1892 117.514 68.3978 116.942 68.2554 116.09L65.9997 102.606Z" fill="white"/>
<path d="M83.8828 80.4663C83.8828 80.0344 84.2255 79.6846 84.6486 79.6846H109.727C110.15 79.6846 110.493 80.0344 110.493 80.4663C110.493 80.8982 110.15 81.248 109.727 81.248H84.6486C84.2255 81.248 83.8828 80.8982 83.8828 80.4663Z" fill="white"/>
<path d="M83.8828 87.9311C83.8828 87.4992 84.2255 87.1494 84.6486 87.1494H109.727C110.15 87.1494 110.493 87.4992 110.493 87.9311C110.493 88.363 110.15 88.7128 109.727 88.7128H84.6486C84.2255 88.7128 83.8828 88.363 83.8828 87.9311Z" fill="white"/>
<path d="M83.8828 95.396C83.8828 94.9641 84.2255 94.6143 84.6486 94.6143H109.727C110.15 94.6143 110.493 94.9641 110.493 95.396C110.493 95.8279 110.15 96.1777 109.727 96.1777H84.6486C84.2255 96.1777 83.8828 95.8279 83.8828 95.396Z" fill="white"/>
<path d="M83.8828 102.862C83.8828 102.43 84.2255 102.08 84.6486 102.08H106.664C107.087 102.08 107.43 102.43 107.43 102.862C107.43 103.294 107.087 103.643 106.664 103.643H84.6486C84.2255 103.643 83.8828 103.294 83.8828 102.862Z" fill="white"/>
<path d="M83.8828 110.327C83.8828 109.895 84.2255 109.545 84.6486 109.545H102.835C103.258 109.545 103.601 109.895 103.601 110.327C103.601 110.759 103.258 111.108 102.835 111.108H84.6486C84.2255 111.108 83.8828 110.759 83.8828 110.327Z" fill="white"/>
<path d="M83.8828 117.791C83.8828 117.36 84.2255 117.01 84.6486 117.01H106.281C106.704 117.01 107.047 117.36 107.047 117.791C107.047 118.223 106.704 118.573 106.281 118.573H84.6486C84.2255 118.573 83.8828 118.223 83.8828 117.791Z" fill="white"/>
<path fill-rule="evenodd" clip-rule="evenodd" d="M132.224 87.5013C131.907 87.2156 131.423 87.2465 131.143 87.5701L113.787 107.642C113.725 107.714 113.677 107.795 113.644 107.884L111.549 113.555C111.437 113.859 111.521 114.202 111.759 114.417C111.998 114.632 112.341 114.674 112.623 114.523L117.875 111.696C117.957 111.652 118.031 111.593 118.093 111.522L135.449 91.4497C135.729 91.1261 135.698 90.632 135.381 90.3463L132.224 87.5013ZM130.391 90.8025L131.784 89.1906L133.793 91.0014L132.4 92.6129L130.391 90.8025ZM129.377 91.9742L131.386 93.7851L117.451 109.902L115.442 108.091L129.377 91.9742ZM114.686 109.495L116.18 110.842L113.694 112.179L114.686 109.495Z" fill="white"/>
</g>
</svg>
