<svg width="181" height="182" viewBox="0 0 181 182" fill="none" xmlns="http://www.w3.org/2000/svg">
<rect y="0.5" width="181" height="181" rx="48" fill="black"/>
<mask id="mask0_4254_34983" style="mask-type:alpha" maskUnits="userSpaceOnUse" x="40" y="41" width="100" height="101">
<rect x="40" y="41.5" width="100" height="100" fill="#D9D9D9"/>
</mask>
<g mask="url(#mask0_4254_34983)">
<path fill-rule="evenodd" clip-rule="evenodd" d="M57.5031 88.4529C58.132 88.6599 58.4719 89.3357 58.2648 89.9646C58.0578 90.5935 57.382 90.9333 56.7531 90.7263C56.0188 90.4841 55.3117 90.2263 54.6398 89.9529C53.9641 89.6794 53.3312 89.3943 52.7414 89.1013C52.1477 88.8044 51.9094 88.0896 52.2024 87.4958C52.4993 86.9021 53.2141 86.6638 53.8079 86.9567C54.3509 87.2263 54.929 87.488 55.5384 87.7341C56.1517 87.9841 56.8078 88.2224 57.5031 88.4529ZM57.5031 105.465C58.132 105.672 58.4719 106.348 58.2648 106.977C58.0578 107.605 57.382 107.945 56.7531 107.738C56.0188 107.496 55.3117 107.238 54.6398 106.965C53.9953 106.703 53.3625 106.418 52.7414 106.105C52.1516 105.809 51.9133 105.094 52.2102 104.504C52.5071 103.914 53.2219 103.676 53.8118 103.973C54.3235 104.227 54.9016 104.484 55.5423 104.746C56.1556 104.996 56.8118 105.234 57.5071 105.465L57.5031 105.465ZM103.476 112.27C101.902 113.688 99.6128 114.934 96.7769 115.949C91.5269 117.828 84.2999 118.984 76.3359 118.984C68.375 118.984 61.1449 117.824 55.8949 115.949C53.059 114.934 50.766 113.688 49.1957 112.27V124.668C49.1957 126.902 52.0629 129.046 56.6996 130.703C61.7074 132.492 68.6486 133.601 76.3366 133.601C84.0246 133.601 90.9656 132.496 95.9736 130.703C100.61 129.047 103.478 126.902 103.478 124.668L103.476 112.27ZM57.5031 122.477C58.132 122.684 58.4719 123.359 58.2648 123.988C58.0578 124.617 57.382 124.957 56.7531 124.75C56.0188 124.508 55.3117 124.25 54.6398 123.977C53.9953 123.715 53.3625 123.43 52.7414 123.117C52.1516 122.82 51.9133 122.105 52.2102 121.516C52.5071 120.926 53.2219 120.687 53.8118 120.984C54.3235 121.238 54.9016 121.496 55.5423 121.758C56.1556 122.008 56.8118 122.246 57.5071 122.477L57.5031 122.477ZM132.804 57.5856H128.101C127.246 57.5856 126.468 57.234 125.902 56.6715C125.339 56.109 124.988 55.3317 124.988 54.4723V48.3942H98.4758C98.4211 48.3942 98.3742 48.4177 98.339 48.4528C98.3039 48.488 98.2804 48.5388 98.2804 48.5895V92.5035C98.2804 92.5582 98.3039 92.6051 98.339 92.6403C98.3742 92.6754 98.425 92.6989 98.4758 92.6989H132.605C132.659 92.6989 132.706 92.6754 132.741 92.6403C132.777 92.6051 132.8 92.5543 132.8 92.5035L132.804 57.5856ZM127.386 50.4528L131.413 55.1911H128.101C127.906 55.1911 127.726 55.1091 127.597 54.9801C127.468 54.8512 127.386 54.6716 127.386 54.4762L127.386 50.4528ZM126.999 83.2418C127.66 83.2418 128.199 83.777 128.199 84.441C128.199 85.1012 127.663 85.6402 126.999 85.6402H104.022C103.362 85.6402 102.823 85.105 102.823 84.441C102.823 83.7808 103.358 83.2418 104.022 83.2418H126.999ZM126.999 68.4878C127.66 68.4878 128.199 69.0229 128.199 69.687C128.199 70.3471 127.663 70.8862 126.999 70.8862H104.022C103.362 70.8862 102.823 70.351 102.823 69.687C102.823 69.0268 103.358 68.4878 104.022 68.4878H126.999ZM126.999 75.8667C127.66 75.8667 128.199 76.4018 128.199 77.0659C128.199 77.726 127.663 78.2651 126.999 78.2651H104.022C103.362 78.2651 102.823 77.7299 102.823 77.0659C102.823 76.4057 103.358 75.8667 104.022 75.8667H126.999ZM89.9214 81.3237V65.9757C88.0308 65.5968 86.0152 65.296 83.9058 65.0851C81.523 64.8468 78.9839 64.7179 76.3355 64.7179C68.648 64.7179 61.7065 65.8234 56.6985 67.6163C52.0618 69.2725 49.1946 71.4171 49.1946 73.6515C49.1946 75.8859 52.0618 78.0304 56.6985 79.6867C61.7063 81.4758 68.6475 82.5851 76.3355 82.5851C78.9839 82.5851 81.523 82.4562 83.9058 82.2179C86.0152 82.0069 88.0308 81.7062 89.9214 81.3273V81.3237ZM89.9214 98.3277V98.2574V83.7614C88.1089 84.109 86.1753 84.3864 84.1402 84.5895C81.6363 84.8434 79.0191 84.9762 76.3355 84.9762C68.3707 84.9762 61.1445 83.816 55.8945 81.941C53.0586 80.9254 50.7656 79.6793 49.1953 78.2613V90.6523C49.1953 92.8867 52.0625 95.0312 56.6992 96.6875C61.707 98.4766 68.6482 99.5859 76.3362 99.5859C79.055 99.5859 81.6604 99.4492 84.1057 99.1953C86.1526 98.9843 88.1011 98.691 89.9214 98.3277ZM103.476 100.91H92.5704C92.0587 100.91 91.5782 100.761 91.172 100.507C89.0548 100.96 86.7658 101.324 84.3517 101.574C81.7892 101.839 79.0978 101.98 76.34 101.98C68.3752 101.98 61.149 100.82 55.899 98.9448C53.0631 97.9292 50.7701 96.6831 49.1998 95.2651V107.663C49.1998 109.897 52.067 112.042 56.7037 113.698C61.7115 115.487 68.6527 116.597 76.3407 116.597C84.0287 116.597 90.9697 115.491 95.9777 113.698C100.614 112.042 103.482 109.897 103.482 107.663V100.909L103.476 100.91ZM130.8 95.1011H132.609C133.324 95.1011 133.972 94.812 134.441 94.3394C134.91 93.8706 135.203 93.2222 135.203 92.5074L135.199 56.3594V56.3555V56.3242L135.195 56.2969V56.293L135.191 56.2656V56.2617V56.2578L135.187 56.2305V56.2266V56.2226L135.183 56.1992V56.1953V56.1914L135.179 56.1641V56.1601L135.175 56.1367V56.1328L135.171 56.1289L135.168 56.1094V56.1055L135.164 56.1016L135.156 56.0781V56.0742L135.148 56.0469V56.043L135.14 56.0195L135.136 56.0117L135.129 55.9922V55.9883L135.125 55.9805L135.117 55.9609V55.957L135.113 55.9492L135.105 55.9336L135.097 55.9101L135.093 55.9023L135.089 55.8984L135.082 55.8867L135.078 55.8789L135.074 55.875L135.066 55.8633L135.062 55.8594L135.058 55.8516L135.05 55.8398L135.046 55.8359L135.043 55.8281L135.035 55.8164L135.031 55.8125L135.027 55.8047L135.019 55.793L135.015 55.7891L135.011 55.7812L135.004 55.7695V55.7656L134.996 55.7539L134.988 55.7422L134.976 55.7226L134.972 55.7148L134.961 55.6992L134.953 55.6914C134.933 55.6641 134.91 55.6328 134.886 55.6055L134.871 55.582L134.863 55.5703L134.855 55.5586L134.836 55.5391L127.125 46.4688C126.906 46.1758 126.558 45.9844 126.164 45.9844H98.4527C97.7379 45.9844 97.0894 46.2734 96.6207 46.7461C96.1519 47.2148 95.859 47.8633 95.859 48.5781V49.8086H92.5426C91.8121 49.8086 91.1481 50.1055 90.6715 50.5859C90.191 51.0664 89.8941 51.7304 89.8941 52.457V63.519C88.0816 63.1714 86.148 62.894 84.1129 62.6909C81.609 62.437 78.9918 62.3042 76.3082 62.3042C68.3434 62.3042 61.1172 63.4644 55.8672 65.3394C50.2656 67.3433 46.7969 70.2496 46.7734 73.5933V73.6285V124.651C46.7734 128.011 50.25 130.933 55.8672 132.941C61.1172 134.819 68.3442 135.976 76.3082 135.976C84.2722 135.976 91.4992 134.816 96.7492 132.941C102.37 130.933 105.843 128.011 105.843 124.651V100.885H128.12C128.851 100.885 129.515 100.589 129.991 100.108C130.472 99.6276 130.768 98.9636 130.768 98.237V95.0808L130.8 95.1011ZM95.8864 52.2181V92.5031C95.8864 93.2179 96.1755 93.8664 96.6481 94.3351C97.1169 94.8038 97.7653 95.0968 98.4801 95.0968H128.406V98.253C128.406 98.3233 128.379 98.3858 128.332 98.4327C128.285 98.4796 128.223 98.5069 128.152 98.5069H92.5742C92.5039 98.5069 92.4414 98.4796 92.3945 98.4327C92.3476 98.3858 92.3203 98.3233 92.3203 98.253L92.3164 52.476C92.3164 52.4057 92.3437 52.3432 92.3906 52.2963C92.4375 52.2494 92.5 52.2221 92.5703 52.2221H95.8867L95.8864 52.2181ZM126.609 61.1087C127.27 61.1087 127.809 61.6438 127.809 62.3079C127.809 62.968 127.273 63.5071 126.609 63.5071H103.632C102.972 63.5071 102.433 62.9719 102.433 62.3079C102.433 61.6477 102.968 61.1087 103.632 61.1087H126.609Z" fill="white"/>
</g>
</svg>
