<svg width="181" height="182" viewBox="0 0 181 182" fill="none" xmlns="http://www.w3.org/2000/svg">
<rect width="181" height="181" rx="48" transform="matrix(-1 0 0 1 181 0.5)" fill="black"/>
<mask id="mask0_4254_34984" style="mask-type:alpha" maskUnits="userSpaceOnUse" x="40" y="41" width="100" height="101">
<rect width="100" height="100" transform="matrix(-1 0 0 1 140 41.5)" fill="#D9D9D9"/>
</mask>
<g mask="url(#mask0_4254_34984)">
<path d="M70.6139 51.3699C70.6139 50.6341 71.2028 50.0425 71.9351 50.0425H91.9503C92.6777 50.0425 93.2715 50.6341 93.2715 51.3699C93.2715 52.1006 92.6778 52.6923 91.9503 52.6923H71.9351C71.2028 52.6923 70.6139 52.1007 70.6139 51.3699ZM101.846 57.1067C101.846 56.7587 101.707 56.4206 101.46 56.1721C101.213 55.9235 100.876 55.7843 100.525 55.7843H71.9352C71.2029 55.7843 70.614 56.3759 70.614 57.1067C70.614 57.8425 71.2028 58.4341 71.9352 58.4341H100.525C100.876 58.4341 101.213 58.2949 101.46 58.0463C101.707 57.7978 101.846 57.4596 101.846 57.1067ZM40.0002 88.2074C40.0002 84.3795 43.0927 81.2775 46.9027 81.2775H55.3738V73.9697C55.3738 71.0864 57.6994 68.7498 60.5743 68.7498H61.6431V47.6316C61.6431 43.9678 64.597 41 68.2388 41H111.608C113.479 41 115.255 41.7954 116.507 43.1874L121.391 48.621L137.037 48.6259C139.754 48.6309 141.96 50.8282 142 53.5574V138.014C141.99 140.763 139.773 142.99 137.037 143H57.5905C54.0032 142.99 50.965 140.325 50.4801 136.756L44.8194 94.7844C41.9595 93.8796 40.0101 91.22 40.0002 88.2074ZM88.9267 140.346C91.2078 140.336 93.1227 138.636 93.4295 136.369L98.9168 95.128H84.4042V115.584H90.7229C91.2573 115.584 91.7373 115.913 91.9401 116.41C92.143 116.902 92.0243 117.474 91.6482 117.851L74.9682 134.57C74.7208 134.819 74.3843 134.963 74.033 134.963C73.6817 134.963 73.3403 134.819 73.0929 134.57L56.442 117.851C56.066 117.469 55.9571 116.902 56.1649 116.405C56.3678 115.913 56.8478 115.589 57.3772 115.584H63.6959L63.7009 100.79C63.7009 100.059 64.2897 99.4627 65.0171 99.4627C65.7494 99.4627 66.3383 100.059 66.3383 100.79V116.912C66.3383 117.26 66.1997 117.598 65.9523 117.846C65.7049 118.095 65.3685 118.234 65.0172 118.234H60.559L74.0329 131.771L87.4917 118.249H83.0829C82.3555 118.249 81.7617 117.658 81.7617 116.922V95.1281H47.5505L53.0924 136.395V136.4C53.3893 138.667 55.3091 140.367 57.5902 140.377H88.926L88.9267 140.346ZM123.761 51.2766L131.906 60.3193C132.989 61.5323 133.593 63.1132 133.593 64.7438V127.182C133.593 128.942 132.9 130.627 131.658 131.87C130.421 133.113 128.744 133.814 126.997 133.814H96.4379L96.0421 136.757C95.8639 138.079 95.3196 139.322 94.4686 140.346H137.036C137.65 140.346 138.244 140.102 138.679 139.665C139.114 139.227 139.357 138.631 139.357 138.014V53.5581C139.357 52.9367 139.114 52.3451 138.679 51.9076C138.244 51.4701 137.65 51.2216 137.036 51.2216L123.761 51.2766ZM114.523 44.9681H114.528C114.083 44.4859 113.524 44.118 112.905 43.9042V59.0461C112.905 61.4621 114.855 63.4209 117.259 63.4209H130.689C130.526 62.9287 130.259 62.4763 129.912 62.0935L114.523 44.9681ZM64.2652 68.7512H85.9576C88.8126 68.791 91.1134 71.1077 91.158 73.9711V81.2739H99.6143V81.2789C103.028 81.2491 105.943 83.7446 106.462 87.1301C106.982 90.5206 104.948 93.7767 101.688 94.7858L96.7938 131.16H126.967C129.154 131.16 130.925 129.381 130.925 127.183V66.0712H117.283C113.423 66.0662 110.296 62.9243 110.291 59.0468V43.6555H68.2125C66.0254 43.6555 64.2541 45.4352 64.2541 47.6325L64.2652 68.7512ZM58.0109 81.2789H62.9193V75.7757C62.9193 75.0449 63.5131 74.4483 64.2405 74.4483H82.2911C82.6424 74.4483 82.9789 74.5875 83.2263 74.8361C83.4737 75.0847 83.6122 75.4227 83.6122 75.7757V81.2788H88.5207V73.9711C88.5207 72.5542 87.3727 71.401 85.9576 71.401H60.5589C59.1487 71.4059 58.0107 72.5593 58.0107 73.9711L58.0109 81.2789ZM80.9851 81.2789V77.1031H65.5465V81.2789H80.9851ZM42.7217 88.2138V88.2088C42.7267 90.5702 44.6316 92.4791 46.982 92.4791H99.7631C100.931 92.5438 102.074 92.1212 102.925 91.3159C103.776 90.5055 104.261 89.3821 104.261 88.2039C104.261 87.0257 103.776 85.9022 102.925 85.0919C102.074 84.2865 100.931 83.864 99.7631 83.9286H46.9035C45.7753 83.9286 44.6867 84.381 43.8901 85.1814C43.0885 85.9867 42.6432 87.0754 42.6432 88.2089L42.7217 88.2138Z" fill="white"/>
</g>
</svg>
