<svg width="181" height="181" viewBox="0 0 181 181" fill="none" xmlns="http://www.w3.org/2000/svg">
<rect width="181" height="181" rx="48" fill="black"/>
<mask id="mask0_4254_34985" style="mask-type:alpha" maskUnits="userSpaceOnUse" x="40" y="41" width="100" height="101">
<rect x="40" y="41.5" width="100" height="100" fill="#D9D9D9"/>
</mask>
<g mask="url(#mask0_4254_34985)">
<path d="M124 107.5C124 125.971 109.195 141 90.9998 141C72.805 141 58 125.971 58 107.5C58 99.8626 60.5982 92.3919 65.3142 86.4622C69.9646 80.6205 76.4742 76.4913 83.6445 74.8334L84.0262 76.5376C69.7181 79.846 59.7192 92.575 59.7192 107.5C59.7192 125.008 73.752 139.255 91 139.255C108.248 139.255 122.281 125.009 122.281 107.5C122.281 92.575 112.286 79.8454 97.9738 76.5376L98.3555 74.8334C105.526 76.4918 112.036 80.6209 116.686 86.4622C121.402 92.3914 124 99.8617 124 107.5ZM94.3443 74.9251C94.3443 74.4418 93.9585 74.0501 93.4824 74.0501H87.8264C87.3503 74.0501 86.9645 74.4418 86.9645 74.9251C86.9645 75.4085 87.3503 75.8001 87.8264 75.8001H93.4824C93.9585 75.796 94.3443 75.4043 94.3443 74.9251ZM89.5462 77.6001C89.0701 77.6001 88.6843 77.9918 88.6843 78.4751C88.6843 78.9585 89.0701 79.3501 89.5462 79.3501H91.7627C92.2388 79.3501 92.6246 78.9585 92.6246 78.4751C92.6246 77.9918 92.2388 77.6001 91.7627 77.6001H89.5462ZM90.6544 45.0208C91.1305 45.0208 91.5164 44.6292 91.5164 44.1458V41.875C91.5164 41.3917 91.1305 41 90.6544 41C90.1783 41 89.7925 41.3917 89.7925 41.875V44.15C89.7966 44.6292 90.1824 45.0208 90.6544 45.0208ZM101.634 49.6375C101.855 49.6375 102.073 49.55 102.241 49.3833L103.825 47.775C104.162 47.4333 104.162 46.8792 103.825 46.5374C103.489 46.1958 102.943 46.1958 102.606 46.5374L101.022 48.1458C100.686 48.4874 100.686 49.0416 101.022 49.3833C101.194 49.5542 101.416 49.6375 101.634 49.6375ZM106.181 60.7831H108.422C108.899 60.7831 109.284 60.3914 109.284 59.9081C109.284 59.4248 108.899 59.0331 108.422 59.0331H106.181C105.705 59.0331 105.32 59.4248 105.32 59.9081C105.324 60.3915 105.705 60.7831 106.181 60.7831ZM79.0669 49.3794C79.2352 49.5502 79.4568 49.6335 79.6743 49.6335C79.896 49.6335 80.1135 49.546 80.2818 49.3794C80.6184 49.0377 80.6184 48.4835 80.2818 48.1418L78.6975 46.5335C78.3609 46.1918 77.815 46.1918 77.4784 46.5335C77.1418 46.8751 77.1418 47.4293 77.4784 47.771L79.0669 49.3794ZM72.8896 60.7831H75.1266C75.6027 60.7831 75.9885 60.3914 75.9885 59.9081C75.9885 59.4248 75.6027 59.0331 75.1266 59.0331H72.8855C72.4094 59.0331 72.0236 59.4248 72.0236 59.9081C72.0277 60.3915 72.4135 60.7831 72.8896 60.7831ZM80.0724 59.9081C80.0724 53.9872 84.8172 49.1668 90.6535 49.1668C96.486 49.1668 101.235 53.9834 101.235 59.9081C101.235 63.4123 99.8102 65.0873 98.5502 66.5623C97.6718 67.5915 96.9125 68.4832 96.5841 69.9499C96.2804 71.304 94.9793 72.2498 93.4155 72.2498H87.8909C86.327 72.2498 85.0259 71.304 84.7222 69.9499C84.3939 68.4832 83.6345 67.5957 82.7562 66.5623C81.5002 65.0873 80.0724 63.4123 80.0724 59.9081ZM81.7963 59.9081C81.7963 62.7623 82.8471 63.9914 84.0619 65.4207C85.006 66.529 85.9828 67.6707 86.4056 69.5623C86.5493 70.2082 87.2799 70.4998 87.8956 70.4998H93.4202C94.0359 70.4998 94.7664 70.204 94.9102 69.5623C95.3329 67.6707 96.3098 66.5248 97.2539 65.4207C98.4687 63.9957 99.5195 62.7623 99.5195 59.9081C99.5195 54.9498 95.5464 50.9164 90.662 50.9164C85.7695 50.9164 81.7963 54.9497 81.7963 59.9081ZM88.7616 62.8373C88.9176 63.0248 89.1433 63.1415 89.3855 63.154H89.4265C89.6523 63.154 89.8739 63.0623 90.034 62.8998L94.7049 58.1581C95.0415 57.8165 95.0415 57.2623 94.7049 56.9206C94.3683 56.5789 93.8224 56.5789 93.4858 56.9206L89.4839 60.9831L87.8791 59.0122C87.5754 58.6414 87.0336 58.5872 86.6683 58.8955C86.303 59.2039 86.2497 59.7539 86.5534 60.1247L88.7616 62.8373ZM103.813 97.3622V103.379C104.379 103.133 104.966 103.012 105.606 103.012C108.262 103.012 110.425 105.208 110.425 107.904C110.425 110.6 108.262 112.795 105.606 112.795C104.97 112.795 104.379 112.675 103.813 112.429V118.445C103.813 119.804 102.725 120.912 101.383 120.912H95.1972C94.6555 120.912 94.1588 120.633 93.8715 120.162C93.5842 119.691 93.5596 119.12 93.8017 118.625C94.0029 118.22 94.0932 117.812 94.0932 117.345C94.0932 115.612 92.7058 114.2 90.9943 114.2C89.2868 114.2 87.8954 115.608 87.8954 117.345C87.8954 117.812 87.9898 118.22 88.1868 118.625C88.429 119.116 88.4044 119.691 88.117 120.162C87.8297 120.633 87.3372 120.912 86.7913 120.912H80.6059C79.2679 120.912 78.176 119.804 78.176 118.445V112.429C77.6096 112.675 77.0226 112.795 76.3824 112.795C73.7268 112.795 71.5638 110.6 71.5638 107.904C71.5638 105.208 73.7268 103.012 76.3824 103.012C77.0186 103.012 77.6097 103.133 78.176 103.379V97.3622C78.176 96.0039 79.2638 94.8955 80.6059 94.8955H86.7913C87.3331 94.8955 87.8298 95.1747 88.117 95.6455C88.4044 96.1122 88.429 96.6872 88.1868 97.183C87.9857 97.5872 87.8954 97.9955 87.8954 98.4622C87.8954 100.196 89.2827 101.608 90.9943 101.608C92.7017 101.608 94.0932 100.2 94.0932 98.4622C94.0932 97.9955 93.9987 97.5872 93.8017 97.183C93.5596 96.6914 93.5842 96.1164 93.8715 95.6455C94.1588 95.1747 94.6514 94.8955 95.1972 94.8955H101.383C102.721 94.8997 103.813 96.0039 103.813 97.3622ZM102.827 104.987C102.364 104.696 102.089 104.196 102.089 103.641V97.3622C102.089 96.9664 101.773 96.6414 101.379 96.6414H95.4517C95.6939 97.2164 95.8129 97.8123 95.8129 98.4622C95.8129 101.158 93.6499 103.354 90.9943 103.354C88.3387 103.354 86.1757 101.158 86.1757 98.4622C86.1757 97.8163 86.2947 97.2163 86.5369 96.6414H80.61C80.2201 96.6414 79.8999 96.9622 79.8999 97.3622V103.641C79.8999 104.191 79.6249 104.696 79.1611 104.987C78.7014 105.279 78.135 105.304 77.6466 105.058C77.2484 104.854 76.8462 104.762 76.3865 104.762C74.6791 104.762 73.2877 106.171 73.2877 107.908C73.2877 109.641 74.675 111.054 76.3865 111.054C76.8462 111.054 77.2485 110.958 77.6466 110.758C78.135 110.512 78.6973 110.537 79.1611 110.829C79.6249 111.121 79.8999 111.621 79.8999 112.175V118.454C79.8999 118.85 80.216 119.175 80.61 119.175H86.5369C86.2947 118.6 86.1757 118.004 86.1757 117.354C86.1757 114.658 88.3387 112.462 90.9943 112.462C93.6499 112.462 95.8129 114.658 95.8129 117.354C95.8129 118 95.6939 118.6 95.4517 119.175H101.379C101.769 119.175 102.089 118.854 102.089 118.454V112.175C102.089 111.625 102.364 111.12 102.827 110.829C103.291 110.537 103.854 110.512 104.342 110.758C104.74 110.962 105.142 111.054 105.602 111.054C107.31 111.054 108.701 109.646 108.701 107.908C108.701 106.175 107.314 104.762 105.602 104.762C105.142 104.762 104.74 104.858 104.342 105.058C103.858 105.304 103.291 105.275 102.827 104.987Z" fill="white"/>
</g>
</svg>
