<svg width="180" height="181" viewBox="0 0 180 181" fill="none" xmlns="http://www.w3.org/2000/svg">
<rect width="180" height="180" rx="48" transform="matrix(-1 0 0 1 180 0.5)" fill="black"/>
<mask id="mask0_4254_34986" style="mask-type:alpha" maskUnits="userSpaceOnUse" x="40" y="40" width="100" height="101">
<rect x="40" y="40.5" width="100" height="100" fill="#D9D9D9"/>
</mask>
<g mask="url(#mask0_4254_34986)">
<path d="M90.438 125.733H84.887L83.293 119.095C82.406 118.726 81.818 118.483 81.058 118.168L80.384 117.889L74.565 121.461L73.977 120.873C72.706 119.602 72.687 119.583 71.78 118.672L70.644 117.529L74.215 111.719L74.007 111.216C73.656 110.369 73.405 109.763 73.009 108.81L66.371 107.216V101.664L73.008 100.079L73.232 99.538C73.575 98.711 73.824 98.107 74.215 97.169L70.644 91.35L74.566 87.429L80.387 90.994C81.037 90.727 81.525 90.525 82.036 90.313C82.418 90.155 82.812 89.991 83.295 89.792L84.889 83.156H90.44L92.025 89.791C92.696 90.067 93.196 90.274 93.726 90.494C94.092 90.646 94.472 90.803 94.934 90.994L100.755 87.43L104.676 91.35L101.111 97.171C101.576 98.301 101.841 98.944 102.311 100.079L108.948 101.664V107.216L102.31 108.81C101.84 109.94 101.575 110.583 101.11 111.718L104.674 117.53L103.528 118.682C102.631 119.584 102.607 119.607 101.341 120.873L100.753 121.461L94.934 117.889C93.983 118.285 93.377 118.536 92.531 118.886L92.024 119.096L90.438 125.733ZM86.55 123.623H88.773L90.222 117.558L91.724 116.936C92.706 116.53 93.366 116.256 94.62 115.734L95.118 115.527L100.437 118.792C101.143 118.085 101.299 117.93 102.007 117.217L98.751 111.907L98.954 111.412C99.628 109.767 99.886 109.141 100.568 107.503L100.774 107.008L106.838 105.552V103.329L100.773 101.88L100.567 101.383C99.886 99.74 99.628 99.113 98.955 97.478L98.751 96.983L102.007 91.666L100.437 90.096L95.12 93.352L94.625 93.148C93.923 92.859 93.407 92.645 92.917 92.442C92.266 92.172 91.66 91.921 90.724 91.537L90.223 91.332L88.773 85.264H86.55L85.093 91.331L84.595 91.536C83.871 91.834 83.346 92.051 82.842 92.26C82.207 92.523 81.606 92.772 80.69 93.147L80.195 93.35L74.879 90.095L73.31 91.664L76.575 96.983L76.368 97.481C75.852 98.721 75.579 99.38 75.18 100.344L74.544 101.879L68.479 103.328V105.551L74.543 107.007L74.749 107.502C75.273 108.76 75.546 109.421 75.954 110.407L76.574 111.904L73.309 117.216C74.017 117.928 74.172 118.084 74.878 118.79L80.196 115.526L81.864 116.217C82.759 116.587 83.414 116.859 84.598 117.352L85.093 117.558L86.55 123.623ZM94.098 98.933L95.142 97.536L93.452 96.273L87.013 104.89L84.054 102.098L82.606 103.632L87.286 108.048L92.772 100.706C93.463 101.761 93.871 103.017 93.871 104.369C93.871 108.074 90.855 111.091 87.149 111.091C83.444 111.091 80.427 108.075 80.427 104.369C80.427 100.663 83.443 97.647 87.149 97.647C87.982 97.647 88.784 97.802 89.522 98.079L90.844 96.349C89.719 95.829 88.467 95.537 87.149 95.537C82.28 95.537 78.318 99.499 78.318 104.368C78.318 109.237 82.28 113.199 87.149 113.199C92.018 113.199 95.98 109.237 95.98 104.368C95.982 102.318 95.276 100.432 94.098 98.933ZM123.906 65.336V133.891H62.735V130.375H120.391V58.571L107.82 46H55V130.375H60.625V136H126.016V65.336H123.906ZM108.061 49.224L117.044 58.207H108.061V49.224ZM57.11 48.109H105.952V60.316H118.282V128.265H57.11V48.109ZM97.188 58.38H78.128V60.489H97.188V58.38ZM102.718 65.634H72.598V67.743H102.718V65.634ZM102.718 72.812H72.598V74.921H102.718V72.812Z" fill="white"/>
</g>
</svg>
