<svg width="181" height="182" viewBox="0 0 181 182" fill="none" xmlns="http://www.w3.org/2000/svg">
<rect y="0.5" width="181" height="181" rx="48" fill="black"/>
<mask id="mask0_4254_34987" style="mask-type:alpha" maskUnits="userSpaceOnUse" x="40" y="41" width="100" height="101">
<rect x="40" y="41.5" width="100" height="100" fill="#D9D9D9"/>
</mask>
<g mask="url(#mask0_4254_34987)">
<path d="M69.899 127.992C69.899 128.805 69.24 129.463 68.428 129.463H46.471C45.658 129.463 45 128.804 45 127.992C45 127.179 45.659 126.521 46.471 126.521H68.427C69.24 126.521 69.899 127.179 69.899 127.992ZM135.654 126.832L129.939 122.369C129.299 121.869 128.374 121.983 127.874 122.623C127.374 123.263 127.488 124.188 128.128 124.688L130.474 126.52H89.711C69.425 126.52 52.922 110.016 52.922 89.731C52.922 86.014 53.478 82.425 54.508 79.04L60.214 76.013C60.932 75.632 61.205 74.742 60.824 74.024C60.443 73.306 59.553 73.033 58.835 73.414L56.051 74.89C61.768 61.976 74.703 52.942 89.711 52.942C109.997 52.942 126.5 69.446 126.5 89.731C126.5 93.416 125.964 97.004 124.943 100.406L119.208 103.448C118.49 103.829 118.217 104.719 118.598 105.437C118.979 106.155 119.869 106.428 120.587 106.047L123.423 104.543C120.441 111.355 115.398 117.186 108.75 121.215C108.055 121.636 107.833 122.541 108.254 123.236C108.675 123.931 109.58 124.153 110.275 123.732C116.015 120.253 120.818 115.342 124.166 109.528C124.772 108.475 125.327 107.395 125.832 106.293L126.421 108.644C126.589 109.312 127.188 109.758 127.847 109.758C127.965 109.758 128.086 109.744 128.206 109.713C128.994 109.515 129.473 108.716 129.275 107.928L127.663 101.497C128.836 97.706 129.442 93.736 129.442 89.73C129.442 79.117 125.309 69.14 117.805 61.635C110.301 54.13 100.324 50 89.711 50C79.098 50 69.121 54.133 61.616 61.637C58.227 65.026 55.528 68.921 53.584 73.15L52.999 70.818C52.801 70.03 52.002 69.551 51.214 69.749C50.426 69.947 49.947 70.746 50.145 71.534L51.751 77.939C50.585 81.709 49.978 85.674 49.978 89.732C49.978 100.345 54.111 110.322 61.615 117.827C69.119 125.332 79.098 129.463 89.711 129.463H130.474L128.128 131.295C127.488 131.795 127.374 132.72 127.874 133.36C128.164 133.732 128.597 133.926 129.035 133.926C129.352 133.926 129.671 133.824 129.939 133.614L135.654 129.151C136.011 128.872 136.22 128.444 136.22 127.991C136.22 127.538 136.011 127.111 135.654 126.832Z" fill="white" stroke="black" stroke-width="0.7"/>
<path d="M97.5394 95.8926L98.1404 96.4937L97.5394 95.8926ZM99.1663 85.9391L98.3163 85.9354V85.9391H99.1663ZM97.7781 85.3612L98.379 85.9624L98.379 85.9624L97.7781 85.3612ZM93.9099 89.2278L93.309 88.6266H93.309L93.9099 89.2278ZM90.3547 89.2275L90.9557 88.6264L90.3547 89.2275ZM83.6913 82.044L84.2923 82.6451L83.6913 82.044ZM93.6465 80.4174V81.2674L93.6501 81.2674L93.6465 80.4174ZM94.2245 81.8053L94.8255 82.4063L94.8255 82.4063L94.2245 81.8053ZM90.3573 85.6728L89.7562 85.0718L89.7562 85.0718L90.3573 85.6728ZM71.1809 102.701L71.7819 103.302L71.7819 103.302L71.1809 102.701ZM76.8826 108.403L77.4837 109.004L77.4837 109.004L76.8826 108.403ZM82.0614 90.9905L81.2114 90.9908L82.0614 90.9905ZM81.476 92.4053L80.8749 91.8043L81.476 92.4053ZM81.9855 91.788L81.2002 91.4629L81.9855 91.788ZM88.5911 97.5222L88.5908 98.3722L88.5911 97.5222ZM87.1762 98.1078L87.7772 98.7088L87.1762 98.1078ZM87.7935 97.5982L87.4683 96.8128L87.7935 97.5982ZM88.5908 98.3722C90.7862 98.3729 92.6885 98.3666 94.2435 98.1488C95.8034 97.9303 97.1509 97.483 98.1404 96.4937L96.9384 95.2915C96.3302 95.8996 95.4162 96.2679 94.0077 96.4652C92.5944 96.6632 90.8215 96.6729 88.5914 96.6722L88.5908 98.3722ZM98.1404 96.4937C98.5847 96.0495 98.9654 95.617 99.2553 95.0848C99.5488 94.5461 99.7225 93.9553 99.8298 93.2187C100.036 91.802 100.016 89.6489 100.016 85.9391H98.3163C98.3163 89.7389 98.3308 91.7148 98.1475 92.9737C98.06 93.5749 97.933 93.9585 97.7624 94.2716C97.5883 94.5913 97.3419 94.8881 96.9384 95.2915L98.1404 96.4937ZM100.016 85.9427C100.023 84.4564 98.2261 83.7116 97.1772 84.76L98.379 85.9624C98.3819 85.9595 98.3807 85.9614 98.3748 85.9645C98.3691 85.9674 98.3625 85.9696 98.3561 85.9707C98.3501 85.9717 98.3457 85.9715 98.3432 85.9712C98.3409 85.971 98.3397 85.9705 98.3393 85.9703C98.3388 85.9701 98.3376 85.9696 98.3357 85.9681C98.3337 85.9665 98.3304 85.9634 98.3268 85.9583C98.323 85.9528 98.3198 85.9465 98.3179 85.9402C98.3158 85.9337 98.3163 85.9314 98.3163 85.9354L100.016 85.9427ZM97.1772 84.76L93.309 88.6266L94.5108 89.8289L98.379 85.9624L97.1772 84.76ZM93.309 88.6266C92.6591 89.2762 91.6055 89.2761 90.9557 88.6264L89.7537 89.8286C91.0673 91.142 93.197 91.1421 94.5108 89.8289L93.309 88.6266ZM82.9114 90.9902C82.9107 88.7616 82.9205 86.989 83.1185 85.5758C83.3158 84.1672 83.6842 83.2531 84.2923 82.6451L83.0903 81.4429C82.1008 82.4323 81.6535 83.7801 81.4349 85.3399C81.2171 86.8949 81.2107 88.7969 81.2114 90.9908L82.9114 90.9902ZM84.2923 82.6451C84.6958 82.2417 84.9927 81.9952 85.3124 81.8211C85.6256 81.6506 86.0093 81.5236 86.6106 81.4361C87.8698 81.2528 89.8461 81.2674 93.6465 81.2674V79.5674C89.9361 79.5674 87.7826 79.5476 86.3657 79.7538C85.6291 79.861 85.0382 80.0348 84.4994 80.3281C83.9672 80.618 83.5346 80.9987 83.0903 81.4429L84.2923 82.6451ZM93.6501 81.2674C93.6542 81.2674 93.6519 81.2679 93.6454 81.2658C93.6392 81.2639 93.6329 81.2607 93.6275 81.2569C93.6224 81.2533 93.6193 81.25 93.6177 81.248C93.6162 81.2461 93.6156 81.2449 93.6154 81.2444C93.6152 81.2439 93.6147 81.2427 93.6145 81.2403C93.6142 81.2378 93.614 81.2334 93.615 81.2273C93.6161 81.2209 93.6183 81.2143 93.6213 81.2086C93.6243 81.2026 93.6263 81.2014 93.6234 81.2043L94.8255 82.4063C95.8746 81.3571 95.1288 79.561 93.6428 79.5674L93.6501 81.2674ZM93.6234 81.2043L89.7562 85.0718L90.9583 86.2738L94.8255 82.4063L93.6234 81.2043ZM89.7562 85.0718C88.4439 86.3842 88.4388 88.5139 89.7537 89.8286L90.9557 88.6264C90.3072 87.978 90.3075 86.9247 90.9583 86.2738L89.7562 85.0718ZM71.7819 107.802C70.5394 106.559 70.5394 104.545 71.7819 103.302L70.5798 102.1C68.6734 104.006 68.6734 107.097 70.5798 109.004L71.7819 107.802ZM76.2816 107.802C75.039 109.044 73.0245 109.044 71.7819 107.802L70.5798 109.004C72.4863 110.91 75.5772 110.91 77.4837 109.004L76.2816 107.802ZM86.5751 97.5068L76.2815 107.802L77.4837 109.004L87.7772 98.7088L86.5751 97.5068ZM71.7819 103.302L82.0771 93.0063L80.8749 91.8043L70.5798 102.1L71.7819 103.302ZM81.2114 90.9908C81.2115 91.2078 81.211 91.3239 81.2045 91.4096C81.1991 91.4813 81.1922 91.4821 81.2002 91.4629L82.7709 92.1132C82.9267 91.7367 82.9115 91.3299 82.9114 90.9902L81.2114 90.9908ZM82.0771 93.0063C82.317 92.7664 82.615 92.4896 82.7709 92.1132L81.2002 91.4629C81.2081 91.4438 81.2123 91.4492 81.1656 91.5036C81.1098 91.5687 81.0282 91.651 80.8749 91.8043L82.0771 93.0063ZM88.5914 96.6722C88.2517 96.6721 87.8448 96.6569 87.4683 96.8128L88.1187 98.3835C88.0995 98.3914 88.1003 98.3846 88.172 98.3792C88.2577 98.3727 88.3738 98.3721 88.5908 98.3722L88.5914 96.6722ZM87.7772 98.7088C87.9305 98.5555 88.0129 98.4739 88.078 98.418C88.1324 98.3713 88.1377 98.3756 88.1187 98.3835L87.4683 96.8128C87.0918 96.9687 86.815 97.2668 86.5751 97.5068L87.7772 98.7088Z" fill="white"/>
<path d="M84.0231 109.583C86.9052 104.674 93.7688 104.401 97.0938 108.764C97.3941 109.158 97.5443 109.355 97.7281 109.393C97.9119 109.431 98.1079 109.319 98.5 109.097L103.977 105.987C104.379 105.759 104.58 105.645 104.641 105.464C104.702 105.284 104.602 105.049 104.403 104.579C102.431 99.9248 105.628 94.5818 110.67 93.9511C111.168 93.8887 111.418 93.8575 111.543 93.7157C111.668 93.5739 111.668 93.3457 111.668 92.8893V86.6942C111.668 86.2378 111.668 86.0096 111.543 85.8678C111.418 85.726 111.168 85.6948 110.67 85.6325C105.628 85.0017 102.428 79.6587 104.4 75.0039C104.599 74.5341 104.699 74.2992 104.638 74.1189C104.577 73.9386 104.376 73.8246 103.974 73.5966L98.4967 70.4866C98.1047 70.2641 97.9087 70.1528 97.7248 70.1903C97.541 70.2279 97.3908 70.425 97.0905 70.8191C93.9628 74.9227 87.7032 74.9229 84.5755 70.8193C84.2751 70.4252 84.125 70.2281 83.9411 70.1905C83.7573 70.153 83.5613 70.2643 83.1693 70.4868L77.6918 73.5968C77.2902 73.8248 77.0895 73.9388 77.0283 74.1191C76.9672 74.2994 77.0668 74.5343 77.2659 75.0041C79.2387 79.6588 76.0413 85.0017 70.9996 85.6325C70.5009 85.6948 70.2516 85.726 70.1264 85.8678C70.0013 86.0096 70.0013 86.2378 70.0013 86.6942V92.8893C70.0013 93.3458 70.0013 93.574 70.1265 93.7158C70.2516 93.8576 70.5007 93.8887 70.9988 93.951C71.3764 93.9982 71.7437 94.0718 72.0992 94.1697" stroke="white" stroke-width="1.7" stroke-linecap="round"/>
</g>
</svg>
