<svg width="180" height="181" viewBox="0 0 180 181" fill="none" xmlns="http://www.w3.org/2000/svg">
<rect width="180" height="180" rx="48" transform="matrix(-1 0 0 1 180 0.5)" fill="black"/>
<mask id="mask0_4254_34988" style="mask-type:alpha" maskUnits="userSpaceOnUse" x="40" y="40" width="100" height="101">
<rect x="40" y="40.5" width="100" height="100" fill="#D9D9D9"/>
</mask>
<g mask="url(#mask0_4254_34988)">
<path d="M85.7205 72.0026C86.2843 71.858 86.6746 71.352 86.6746 70.7738V66.3067C86.6746 65.7284 86.2843 65.2224 85.7205 65.0779L82.7279 64.3117C82.4388 63.372 82.0629 62.4757 81.6003 61.6083L83.1761 58.9483C83.4797 58.4568 83.3929 57.8207 82.9882 57.4014L79.8366 54.2499C79.4318 53.8451 78.7958 53.7584 78.3042 54.062L75.6442 55.6377C74.7768 55.1751 73.8805 54.7993 72.9408 54.5101L72.1746 51.5176C72.0301 50.9538 71.5241 50.5635 70.9458 50.5635H66.4788C65.9005 50.5635 65.3945 50.9538 65.2499 51.5176L64.4837 54.5101C63.5441 54.7848 62.6478 55.1607 61.7804 55.6377L59.1204 54.062C58.6288 53.7728 57.9927 53.8451 57.588 54.2499L54.4364 57.4303C54.0316 57.8351 53.9449 58.4712 54.2485 58.9772L55.8243 61.6372C55.3616 62.5046 54.9858 63.4009 54.6966 64.3406L51.7041 65.1068C51.1403 65.2514 50.75 65.7573 50.75 66.3356V70.8027C50.75 71.3809 51.1403 71.8869 51.7041 72.0315L54.6966 72.7977C54.9858 73.7374 55.3616 74.6337 55.8243 75.5011L54.2485 78.1611C53.9449 78.6526 54.0316 79.2887 54.4364 79.7079L57.588 82.8595C57.9927 83.2642 58.6288 83.351 59.1348 83.0474L61.7948 81.4716C62.6622 81.9342 63.5585 82.3101 64.4982 82.5992L65.2644 85.5918C65.409 86.1556 65.9149 86.5459 66.4932 86.5459H70.9603C71.5386 86.5459 72.0445 86.1556 72.1891 85.5918L72.9553 82.5992C73.895 82.3246 74.7913 81.9487 75.6587 81.4716L78.3187 83.0474C78.8102 83.3365 79.4463 83.2642 79.8655 82.8595L83.0171 79.7079C83.4219 79.3031 83.5086 78.6671 83.205 78.1611L81.6292 75.5011C82.0919 74.6337 82.4677 73.7374 82.7569 72.7977L85.7205 72.0026ZM81.3835 70.4991C80.9353 70.6147 80.5739 70.9762 80.4727 71.4243C80.1836 72.6242 79.7065 73.7663 79.056 74.8216C78.8102 75.2264 78.8102 75.7179 79.056 76.1227L80.5016 78.5659L78.7379 80.3296L76.2948 78.8839C75.89 78.6381 75.384 78.6526 74.9937 78.8839C73.9383 79.52 72.7963 79.9971 71.5964 80.3007C71.1482 80.4163 70.7868 80.7633 70.6712 81.2114L69.9628 83.9726H67.4618L66.7534 81.2114C66.6378 80.7633 66.2764 80.4018 65.8282 80.3007C64.6283 80.0115 63.4862 79.5345 62.4309 78.8839C62.0261 78.6381 61.5346 78.6381 61.1298 78.8839L58.6867 80.3296L56.923 78.5659L58.3686 76.1227C58.6144 75.7179 58.5999 75.2119 58.3686 74.8216C57.7325 73.7663 57.2555 72.6242 56.9519 71.4243C56.8362 70.9762 56.4893 70.6147 56.0411 70.4991L53.2799 69.7907V67.2897L56.0411 66.5814C56.4893 66.4657 56.8507 66.1043 56.9519 65.6561C57.241 64.4562 57.7181 63.3142 58.3686 62.2588C58.6144 61.8541 58.6144 61.3625 58.3686 60.9578L56.923 58.5146L58.6867 56.7509L61.1298 58.1965C61.5346 58.4423 62.0406 58.4279 62.4309 58.1821C63.4862 57.546 64.6283 57.0689 65.8282 56.7653C66.2764 56.6497 66.6378 56.3027 66.7534 55.8546L67.4618 53.0934H69.9628L70.6712 55.8546C70.7868 56.3027 71.1482 56.6642 71.5964 56.7653C72.7963 57.0545 73.9383 57.5315 74.9937 58.1821C75.3985 58.4279 75.89 58.4279 76.2948 58.1821L78.7379 56.7364L80.5016 58.5001L79.056 60.9433C78.8102 61.3481 78.8247 61.8541 79.056 62.2444C79.6921 63.2997 80.1691 64.4418 80.4727 65.6417C80.5884 66.0898 80.9353 66.4513 81.3835 66.5669L84.1447 67.2753V69.7763L81.3835 70.4991Z" fill="white"/>
<path d="M68.7063 60.1768C64.0946 60.1768 60.3359 63.9355 60.3359 68.5471C60.3359 73.1588 64.0946 76.9175 68.7063 76.9175C73.3179 76.9175 77.0767 73.1588 77.0767 68.5471C77.0767 63.9355 73.3324 60.1768 68.7063 60.1768ZM68.7063 74.3876C65.4825 74.3876 62.8658 71.7709 62.8658 68.5471C62.8658 65.3233 65.4825 62.7067 68.7063 62.7067C71.9301 62.7067 74.5468 65.3233 74.5468 68.5471C74.5468 71.7709 71.9301 74.3876 68.7063 74.3876Z" fill="white"/>
<path d="M89.1614 108.404H83.3788C82.6849 108.404 82.1066 108.968 82.1066 109.676V127.212H78.8394V105.325C78.8394 104.631 78.2756 104.053 77.5672 104.053H71.7846C71.0907 104.053 70.5124 104.617 70.5124 105.325V127.198H67.2597V100.988C67.2597 100.294 66.6959 99.7158 65.9875 99.7158H60.2049C59.511 99.7158 58.9327 100.28 58.9327 100.988V127.198H57.2991C56.6486 127.198 56.0703 127.762 56.0703 128.47C56.0703 129.178 56.6341 129.742 57.3425 129.742H60.2338H66.0164H71.7991H77.5817H83.3788H89.1614H94.9585H100.741H103.632C104.326 129.742 104.905 129.178 104.905 128.47C104.905 127.762 104.341 127.198 103.632 127.198H101.999V114.013C101.999 113.319 101.435 112.741 100.727 112.741H94.944C94.2501 112.741 93.6719 113.305 93.6719 114.013V127.198H90.4047V109.676C90.4336 108.968 89.8553 108.404 89.1614 108.404ZM61.506 127.198V102.26H64.7587V127.212H61.506V127.198ZM73.0712 127.198V106.597H76.324V127.198H73.0712ZM84.651 127.198V110.934H87.9037V127.198H84.651ZM96.2162 115.271H99.469V127.198H96.2162V115.271Z" fill="white"/>
<path d="M134.625 114.881L124.115 104.371C125.156 102.896 125.041 100.829 123.711 99.5132L121.889 97.6917C122.756 95.4654 123.234 93.0656 123.234 90.608C123.234 85.4036 121.21 80.5173 117.538 76.8453C113.866 73.1733 108.979 71.1494 103.775 71.1494C98.5706 71.1494 93.6843 73.1733 90.0123 76.8453C86.3403 80.5173 84.3164 85.4036 84.3164 90.608C84.3164 95.8123 86.3403 100.699 90.0123 104.371C93.6843 108.043 98.5706 110.067 103.775 110.067C106.247 110.067 108.632 109.604 110.859 108.722L112.68 110.544C113.417 111.281 114.386 111.642 115.355 111.642C116.121 111.642 116.887 111.397 117.538 110.934L128.048 121.444C128.929 122.326 130.1 122.803 131.344 122.803C132.587 122.803 133.758 122.311 134.64 121.444C135.522 120.562 135.999 119.391 135.999 118.148C135.999 116.904 135.507 115.762 134.625 114.881ZM91.8049 102.592C88.61 99.3976 86.8463 95.1473 86.8463 90.6224C86.8463 86.0975 88.61 81.8473 91.8049 78.6524C94.9998 75.4575 99.2501 73.6938 103.775 73.6938C108.3 73.6938 112.55 75.4575 115.745 78.6524C118.94 81.8473 120.704 86.0975 120.704 90.6224C120.704 93.0222 120.198 95.3497 119.243 97.4893C119.229 97.5038 119.229 97.5327 119.215 97.5471C118.376 99.3976 117.22 101.118 115.745 102.607C114.27 104.081 112.55 105.238 110.7 106.076C110.671 106.091 110.656 106.105 110.627 106.105C108.502 107.045 106.175 107.566 103.775 107.566C99.2501 107.551 94.9998 105.787 91.8049 102.592ZM114.473 108.78L113.287 107.594C114.82 106.727 116.251 105.657 117.538 104.385C118.824 103.098 119.88 101.667 120.747 100.135L121.932 101.32C122.424 101.812 122.424 102.607 121.932 103.098L121.484 103.547L116.685 108.346L116.237 108.794C115.745 109.257 114.964 109.257 114.473 108.78ZM132.833 119.68C132.038 120.475 130.635 120.49 129.826 119.68L119.374 109.228L122.381 106.221L132.833 116.673C133.671 117.497 133.671 118.856 132.833 119.68Z" fill="white"/>
<path d="M113.449 100.293C118.783 94.959 118.783 86.2706 113.449 80.9361C110.861 78.3484 107.421 76.9316 103.777 76.9316C100.12 76.9316 96.6793 78.3484 94.106 80.9361C91.5183 83.5238 90.1016 86.95 90.1016 90.6076C90.1016 94.2651 91.5183 97.6913 94.106 100.279C96.6938 102.867 100.134 104.283 103.777 104.283C107.435 104.298 110.861 102.881 113.449 100.293ZM92.617 90.6076C92.617 87.6295 93.7735 84.8249 95.8842 82.7143C97.9949 80.6036 100.799 79.4471 103.777 79.4471C106.756 79.4471 109.56 80.6036 111.671 82.7143C116.022 87.0657 116.022 94.135 111.671 98.4864C109.56 100.597 106.77 101.754 103.792 101.754C100.814 101.754 98.0093 100.597 95.8986 98.4864C93.788 96.3902 92.617 93.6001 92.617 90.6076Z" fill="white"/>
<path d="M109.588 86.1548C109.097 85.6633 108.287 85.6633 107.796 86.1548L101.565 92.3856L99.7433 90.564C99.2518 90.0725 98.4422 90.0725 97.9507 90.564C97.4592 91.0556 97.4592 91.8651 97.9507 92.3566L100.669 95.0745C100.9 95.3058 101.232 95.4504 101.565 95.4504C101.897 95.4504 102.23 95.3202 102.461 95.0745L109.588 87.9474C110.08 87.4559 110.08 86.6608 109.588 86.1548Z" fill="white"/>
<path d="M114.751 114.866C114.057 114.866 113.478 115.43 113.478 116.138V129.395C113.478 132.17 111.209 134.44 108.433 134.44H52.544C49.7683 134.44 47.4987 132.17 47.4987 129.395V52.3702C47.4987 49.5945 49.7539 47.3248 52.544 47.3248H94.8439V58.3986C94.8439 62.5765 98.2412 65.9738 102.419 65.9738H113.493V69.2844C113.493 69.9783 114.057 70.5565 114.765 70.5565C115.473 70.5565 116.037 69.9927 116.037 69.2844V64.7161C116.037 64.6872 116.023 64.6583 116.023 64.6293C116.023 64.5137 115.994 64.4125 115.965 64.3113C115.951 64.2679 115.936 64.2246 115.922 64.1956C115.864 64.0655 115.777 63.9354 115.676 63.8198L97.0269 45.1708C96.9112 45.0551 96.7956 44.9829 96.651 44.925C96.6076 44.9106 96.5787 44.8961 96.5354 44.8817C96.4342 44.8383 96.3185 44.8238 96.2029 44.8094C96.1739 44.8094 96.1595 44.7949 96.1306 44.7949H52.544C48.366 44.7949 44.9688 48.1922 44.9688 52.3702V129.38C44.9688 133.558 48.366 136.956 52.544 136.956H108.448C112.626 136.956 116.023 133.558 116.023 129.38V116.124C116.008 115.43 115.445 114.866 114.751 114.866ZM97.3738 58.3986V49.1174L111.7 63.4439H102.419C99.6291 63.4439 97.3738 61.1887 97.3738 58.3986Z" fill="white"/>
</g>
</svg>
