<svg width="115" height="115" viewBox="0 0 115 115" fill="none" xmlns="http://www.w3.org/2000/svg">
<mask id="mask0_7606_86773" style="mask-type:alpha" maskUnits="userSpaceOnUse" x="0" y="0" width="115" height="115">
<rect width="115" height="115" fill="#D9D9D9"/>
</mask>
<g mask="url(#mask0_7606_86773)">
<g clip-path="url(#clip0_7606_86773)">
<path d="M16.5983 77.3201C15.3083 77.4401 14.0483 77.5601 12.7883 77.6901C11.5983 77.8101 10.3983 77.9601 9.2083 78.0501C6.7283 78.2401 4.9683 76.4401 5.2183 73.9701C5.3883 72.3501 5.5883 70.7401 5.8283 69.1301C5.9083 68.5501 5.7883 68.2301 5.1883 68.0101C3.7783 67.5001 2.3983 66.9201 1.0083 66.3601C-0.0517045 65.9301 -0.271705 65.2601 0.328295 64.2901C3.3883 59.3301 4.8083 53.9401 4.8183 48.1101C4.8283 38.2201 12.3683 29.6301 22.1583 28.2201C33.5183 26.5901 43.7683 34.2201 45.4183 45.6001C45.9983 49.6101 45.4183 53.4901 43.6183 57.1401C42.1283 60.1701 41.0683 63.3201 40.5983 66.6701C40.2183 69.3501 40.4383 72.0101 40.7283 74.6701C41.1583 78.6001 41.5783 82.5201 41.9883 86.4501C42.0983 87.4801 41.5983 87.9801 40.4583 87.9801C36.7783 87.9901 33.0983 87.9801 29.4283 87.9801C25.3983 87.9801 21.3683 87.9801 17.3483 87.9701C15.9083 87.9701 15.5183 87.5001 15.6883 86.1001C16.0183 83.2901 16.3183 80.4901 16.6383 77.6801C16.6483 77.5901 16.6283 77.4901 16.6083 77.3201H16.5983ZM39.4783 85.5601C39.2883 83.8301 39.1083 82.1901 38.9483 80.5501C38.6283 77.4401 38.1983 74.3401 38.0283 71.2201C37.7483 65.9901 38.9783 61.0501 41.3183 56.3701C42.9983 53.0101 43.6083 49.4501 43.0583 45.7301C41.1283 32.7001 26.1983 26.0101 15.2683 33.3401C9.7883 37.0201 7.1183 42.2901 7.1983 48.8801C7.2483 52.9901 6.5983 56.9501 4.9283 60.7201C4.35829 62.0201 3.6583 63.2601 2.9983 64.5801C3.2083 64.6701 3.4183 64.7901 3.6483 64.8801C4.8783 65.3801 6.1083 65.8601 7.3383 66.3601C8.2583 66.7401 8.4583 67.1101 8.3283 68.1101C8.0683 70.1401 7.8083 72.1801 7.5583 74.2101C7.4483 75.1301 7.9783 75.7001 8.8983 75.6901C9.1683 75.6901 9.4483 75.6501 9.7183 75.6201C12.3783 75.3501 15.0383 75.0701 17.7083 74.8101C18.7083 74.7101 19.2783 75.3001 19.1683 76.3001C19.0083 77.7901 18.8283 79.2801 18.6583 80.7701C18.4783 82.3501 18.3183 83.9301 18.1383 85.5501H39.4783V85.5601Z" fill="black"/>
<path d="M30.0599 38.6902C34.0499 39.1602 34.4399 39.5502 34.8699 43.5202C35.7999 43.6602 37.2499 43.2402 37.1599 44.8502C37.0799 46.2202 35.8099 45.8702 34.8699 45.9702V50.7102C35.7799 50.8702 37.1999 50.4402 37.1699 51.9902C37.1399 53.4302 35.8299 53.0702 34.8199 53.1802C34.8699 54.5202 34.7999 55.8302 33.7899 56.8602C32.7599 57.9102 31.4599 58.0002 30.0699 57.9502C29.9099 58.9202 30.3399 60.2202 28.7799 60.3302C27.9899 60.3802 27.7499 59.8802 27.5699 58.0002H22.8499C22.6899 58.9202 23.1099 60.3302 21.5599 60.3002C20.1199 60.2702 20.4799 58.9602 20.3699 57.9502C19.0299 57.9902 17.7199 57.9302 16.6899 56.9102C15.6499 55.8802 15.5399 54.5802 15.6099 53.2002C14.6399 53.0202 13.3299 53.4702 13.2299 51.9102C13.1799 51.1202 13.6799 50.8902 15.6099 50.7002V45.9902C14.6399 45.8202 13.2199 46.2502 13.2599 44.7002C13.2899 43.2602 14.5999 43.6202 15.6099 43.5102C15.5599 42.1802 15.6099 40.8602 16.6399 39.8302C17.6699 38.7902 18.9699 38.6802 20.3599 38.7502C20.5199 37.7602 20.0899 36.3102 21.7099 36.4002C23.0799 36.4802 22.7299 37.7502 22.8299 38.6902H27.5699C27.7299 37.7802 27.2899 36.4602 28.8499 36.3602C29.6399 36.3102 29.8699 36.8202 30.0499 38.6802L30.0599 38.6902ZM17.9899 48.2802C17.9899 50.2302 17.9899 52.1802 17.9899 54.1302C17.9899 55.1202 18.4299 55.5602 19.4099 55.5602C23.2599 55.5602 27.1199 55.5602 30.9699 55.5602C31.9899 55.5602 32.4199 55.1202 32.4199 54.0902C32.4199 50.2602 32.4199 46.4302 32.4199 42.6102C32.4199 41.5802 31.9899 41.1402 30.9699 41.1402C27.1399 41.1402 23.3099 41.1402 19.4899 41.1402C18.4199 41.1402 17.9999 41.5702 17.9999 42.6502C17.9999 44.5302 17.9999 46.4002 17.9999 48.2802H17.9899Z" fill="black"/>
<path d="M25.2119 43.5601C27.8619 43.5601 30.0219 45.7301 30.0119 48.3901C30.0019 51.0001 27.8319 53.1501 25.2219 53.1501C22.5719 53.1501 20.4119 50.9701 20.4219 48.3201C20.4419 45.7001 22.5919 43.5601 25.2119 43.5601ZM25.2119 45.9401C23.9019 45.9401 22.8219 47.0001 22.8019 48.3101C22.7819 49.6501 23.8719 50.7501 25.2119 50.7601C26.5119 50.7601 27.6019 49.6901 27.6219 48.3901C27.6419 47.0501 26.5519 45.9501 25.2119 45.9401Z" fill="black"/>
</g>
</g>
<defs>
<clipPath id="clip0_7606_86773">
<rect width="45.64" height="60" fill="white" transform="translate(0 28)"/>
</clipPath>
</defs>
</svg>
