<svg width="86" height="86" viewBox="0 0 86 86" fill="none" xmlns="http://www.w3.org/2000/svg">
<circle cx="43" cy="43" r="42" stroke="url(#paint0_linear_5212_36418)" stroke-width="1.5"/>
<mask id="mask0_5212_36418" style="mask-type:alpha" maskUnits="userSpaceOnUse" x="2" y="2" width="82" height="82">
<circle cx="43" cy="43" r="41" fill="#D9D9D9"/>
</mask>
<g mask="url(#mask0_5212_36418)">
<path d="M23.4779 63.3249L33.7045 59.2876L33.7068 59.2899C33.7843 59.2603 33.8686 59.2443 33.9529 59.2443L56.3871 59.2421C59.1404 59.2421 61.3786 57.0184 61.3922 54.2638V36.9186C61.3763 34.1663 59.1403 31.9427 56.3871 31.9403H28.6124C25.8591 31.9426 23.6209 34.1663 23.6072 36.9186C23.6072 45.7475 23.5799 54.5029 23.475 63.3248L23.4779 63.3249ZM35.2729 51.6299C35.1384 51.5046 35.0609 51.3314 35.0564 51.1469C35.0518 50.9646 35.1225 50.7869 35.2524 50.657C35.38 50.5249 35.5578 50.4542 35.7401 50.4542C35.9248 50.4565 36.098 50.5317 36.2256 50.6638C39.6103 54.0131 46.7165 54.0131 50.1013 50.6638C50.3703 50.4155 50.7896 50.4223 51.0472 50.6844C51.3047 50.9441 51.3093 51.3633 51.0563 51.6299C47.1475 55.4986 39.184 55.4986 35.2729 51.6299ZM22.2543 39.4425H19.2914C19.0429 39.4835 18.831 39.6408 18.7239 39.8663C18.4731 40.2901 18.3455 40.7754 18.3592 41.2675V49.9208C18.3478 50.4107 18.4731 50.896 18.7239 51.3197C18.8333 51.5453 19.0429 51.7025 19.2914 51.7435H22.2543V39.4425ZM19.2914 38.0846L22.2543 38.0869V36.9204C22.2726 33.4185 25.1124 30.5908 28.6131 30.5844H35.2274L37.249 27.1622C37.3698 26.9549 37.5932 26.8296 37.8325 26.8273H40.1619V23.3664C38.1265 22.3184 37.0735 20.0149 37.6114 17.7912C38.1493 15.5675 40.1413 14 42.4319 14C44.7203 14 46.7123 15.5675 47.2525 17.7912C47.7904 20.0149 46.7374 22.3184 44.6997 23.3664V26.8273H47.0314C47.2867 26.8273 47.5214 26.9708 47.6354 27.1987L49.6366 30.5821H56.3874C59.8883 30.5889 62.7304 33.4187 62.7461 36.9181V38.0846H65.7114C66.4248 38.1143 67.0698 38.5107 67.4185 39.1327C67.8083 39.7752 68.0088 40.5157 67.9997 41.2676V49.9209C68.0088 50.6705 67.8083 51.411 67.4185 52.0512C67.0698 52.6732 66.4248 53.0719 65.7114 53.1015H62.7461V54.2681C62.7279 57.7677 59.8857 60.5953 56.3874 60.5994H34.0764L23.0358 64.9534C22.8261 65.0354 22.5891 65.0081 22.4045 64.8805C22.2199 64.7529 22.1104 64.541 22.1127 64.3154L22.2472 53.0992H19.2911C18.5777 53.0696 17.9304 52.6709 17.5839 52.0489C17.1919 51.4086 16.9891 50.6682 17.0005 49.9163V41.2653C16.9891 40.5134 17.1919 39.773 17.5839 39.1305C17.9327 38.5085 18.578 38.112 19.2914 38.0846ZM65.7141 39.4425H62.7465V51.7436H65.7118C65.9579 51.7026 66.1699 51.5454 66.2793 51.3221C66.53 50.8983 66.6554 50.413 66.644 49.9209V41.2653C66.6576 40.7731 66.53 40.2878 66.2793 39.8664C66.1699 39.6408 65.9602 39.4836 65.7118 39.4426L65.7141 39.4425ZM48.0592 30.5839L46.6438 28.187H38.2154L36.8 30.5839H48.0592ZM51.3914 38.2597C53.3082 38.2597 55.0358 39.4148 55.7697 41.1851C56.5013 42.9554 56.0979 44.9923 54.7418 46.3479C53.388 47.7013 51.3503 48.1068 49.5794 47.3755C47.8084 46.6441 46.6529 44.9171 46.6506 43.001C46.6506 41.7433 47.1497 40.538 48.0386 39.6495C48.9275 38.7609 50.1332 38.2619 51.3914 38.2619V38.2597ZM53.7846 40.6087C52.8159 39.6403 51.3595 39.351 50.0945 39.875C48.8295 40.3968 48.0068 41.6316 48.0068 42.9987C48.0068 44.368 48.8296 45.6029 50.0945 46.1247C51.3595 46.6487 52.8159 46.3593 53.7846 45.391C54.4182 44.7577 54.776 43.8964 54.776 42.9987C54.776 42.1033 54.4182 41.2421 53.7846 40.6087ZM34.9376 38.2597C36.8545 38.2597 38.5821 39.4148 39.3137 41.1851C40.0476 42.9554 39.6419 44.9923 38.2881 46.3479C36.932 47.7013 34.8943 48.1068 33.1234 47.3755C31.3524 46.6441 30.1969 44.9171 30.1946 43.001C30.1946 41.7433 30.6937 40.538 31.5849 39.6495C32.4738 38.7609 33.6795 38.2619 34.9354 38.2619L34.9376 38.2597ZM37.3285 40.6087C36.3622 39.6403 34.9058 39.351 33.6408 39.875C32.3758 40.3968 31.5508 41.6316 31.5508 42.9987C31.5508 44.368 32.3759 45.6029 33.6408 46.1247C34.9058 46.6487 36.3622 46.3593 37.3285 45.391C37.9644 44.7577 38.3223 43.8964 38.3223 42.9987C38.3223 42.1033 37.9644 41.2421 37.3285 40.6087ZM41.5223 23.8304V26.8288H43.3434V23.8304C42.7394 23.9398 42.1217 23.9398 41.52 23.8304H41.5223ZM44.9776 16.4142C43.9497 15.3844 42.3998 15.0768 41.055 15.6327C39.7103 16.1909 38.8328 17.5033 38.8328 18.9592C38.8328 20.4151 39.7103 21.7274 41.055 22.2833C42.3998 22.8392 43.9496 22.5317 44.9776 21.5019C46.3839 20.0984 46.3839 17.82 44.9776 16.4142Z" fill="url(#paint1_linear_5212_36418)"/>
</g>
<defs>
<linearGradient id="paint0_linear_5212_36418" x1="10.9196" y1="1.00002" x2="85.0417" y2="14.9118" gradientUnits="userSpaceOnUse">
<stop stop-color="#2EC4F3"/>
<stop offset="1" stop-color="#BFD633"/>
</linearGradient>
<linearGradient id="paint1_linear_5212_36418" x1="23.0226" y1="14" x2="68.0253" y2="22.4465" gradientUnits="userSpaceOnUse">
<stop stop-color="#2EC4F3"/>
<stop offset="1" stop-color="#BFD633"/>
</linearGradient>
</defs>
</svg>
