<svg width="100" height="100" viewBox="0 0 100 100" fill="none" xmlns="http://www.w3.org/2000/svg">
<rect width="100" height="100" fill="white"/>
<path d="M69.4239 52.4551C69.2845 52.5943 69.174 52.7596 69.0986 52.9416C69.0232 53.1235 68.9844 53.3185 68.9844 53.5155C68.9844 53.7124 69.0232 53.9075 69.0986 54.0894C69.174 54.2713 69.2845 54.4366 69.4239 54.5758C71.39 56.5471 72.4941 59.2175 72.4941 62.0017C72.4941 64.7858 71.39 67.4563 69.4239 69.4275C69.2846 69.5667 69.1742 69.732 69.0988 69.914C69.0234 70.0959 68.9846 70.2909 68.9846 70.4879C68.9846 70.6848 69.0234 70.8798 69.0988 71.0617C69.1742 71.2436 69.2846 71.409 69.4239 71.5482C69.5631 71.6875 69.7284 71.7979 69.9104 71.8733C70.0923 71.9486 70.2873 71.9874 70.4842 71.9874C70.6812 71.9874 70.8762 71.9486 71.0581 71.8733C71.24 71.7979 71.4053 71.6875 71.5446 71.5482C74.0727 69.0143 75.4925 65.5811 75.4925 62.0017C75.4925 58.4223 74.0727 54.989 71.5446 52.4551C71.4054 52.3158 71.2401 52.2053 71.0582 52.1299C70.8762 52.0544 70.6812 52.0156 70.4842 52.0156C70.2873 52.0156 70.0923 52.0544 69.9103 52.1299C69.7284 52.2053 69.5631 52.3158 69.4239 52.4551Z" fill="black"/>
<path d="M63.941 67.3021C64.0799 67.4413 64.2449 67.5517 64.4266 67.6271C64.6082 67.7025 64.803 67.7413 64.9997 67.7413C65.1964 67.7413 65.3911 67.7025 65.5728 67.6271C65.7545 67.5517 65.9195 67.4413 66.0584 67.3021C66.7551 66.606 67.3077 65.7795 67.6848 64.8698C68.0618 63.9601 68.2559 62.985 68.2559 62.0002C68.2559 61.0155 68.0618 60.0404 67.6848 59.1306C67.3077 58.2209 66.7551 57.3944 66.0584 56.6984C65.9207 56.5533 65.7554 56.4372 65.5721 56.357C65.3888 56.2768 65.1914 56.2341 64.9913 56.2314C64.7913 56.2287 64.5928 56.2661 64.4074 56.3413C64.222 56.4165 64.0536 56.5281 63.912 56.6694C63.7705 56.8108 63.6586 56.979 63.5831 57.1643C63.5076 57.3495 63.4699 57.548 63.4723 57.7481C63.4747 57.9481 63.5171 58.1456 63.597 58.329C63.677 58.5124 63.7928 58.6779 63.9377 58.8159C64.3562 59.2335 64.6882 59.7296 64.9147 60.2758C65.1412 60.8219 65.2578 61.4073 65.2578 61.9986C65.2578 62.5898 65.1412 63.1753 64.9147 63.7214C64.6882 64.2676 64.3562 64.7636 63.9377 65.1813C63.7984 65.3205 63.6878 65.4858 63.6124 65.6678C63.537 65.8497 63.4982 66.0447 63.4982 66.2417C63.4982 66.4386 63.537 66.6337 63.6124 66.8156C63.6878 66.9975 63.8016 67.1628 63.941 67.3021ZM26.0002 75.5002H46.998C47.1954 75.5007 47.391 75.4621 47.5734 75.3868C47.7559 75.3114 47.9216 75.2008 48.0612 75.0612C48.2008 74.9216 48.3114 74.7559 48.3868 74.5734C48.4621 74.391 48.5007 74.1954 48.5002 73.9981V69.5275L52.9708 69.557C54.1817 69.6519 55.314 69.0988 56.1715 68.2479C57.029 67.397 57.5002 66.2646 57.5002 65.057V56.9275L59.6308 55.8606C62.0526 54.6497 62.861 51.5864 61.3653 49.3413L57.5002 43.5453V40.9991C57.4959 36.6241 55.756 32.4295 52.6624 29.3359C49.5688 26.2423 45.3742 24.5024 40.9991 24.498C36.6241 24.5024 32.4295 26.2423 29.3359 29.3359C26.2423 32.4295 24.5024 36.6241 24.498 40.9991V73.9981C24.498 74.8293 25.169 75.5002 26.0002 75.5002ZM51.498 58.9991H53.0002C53.3982 58.9991 53.7799 59.1572 54.0613 59.4386C54.3427 59.72 54.5008 60.1017 54.5008 60.4997C54.5008 60.8977 54.3427 61.2793 54.0613 61.5607C53.7799 61.8421 53.3982 62.0002 53.0002 62.0002H51.498C51.1001 62.0002 50.7184 61.8421 50.437 61.5607C50.1556 61.2793 49.9975 60.8977 49.9975 60.4997C49.9975 60.1017 50.1556 59.72 50.437 59.4386C50.7184 59.1572 51.1001 58.9991 51.498 58.9991ZM45.4991 40.9991C45.4991 40.6012 45.6572 40.2195 45.9386 39.9381C46.22 39.6567 46.6017 39.4986 46.9997 39.4986C47.3977 39.4986 47.7793 39.6567 48.0607 39.9381C48.3421 40.2195 48.5002 40.6012 48.5002 40.9991V44.0002C48.5002 44.3982 48.3421 44.7799 48.0607 45.0613C47.7793 45.3427 47.3977 45.5008 46.9997 45.5008C46.6017 45.5008 46.22 45.3427 45.9386 45.0613C45.6572 44.7799 45.4991 44.3982 45.4991 44.0002V40.9991Z" fill="black"/>
<path fill-rule="evenodd" clip-rule="evenodd" d="M66.7989 17.0011H33.2011C29.7909 17.0011 27.4116 17.0011 25.5625 17.1549C23.7462 17.3022 22.7055 17.5804 21.9135 17.9796C20.2196 18.8426 18.8426 20.2196 17.9796 21.9135C17.5771 22.7055 17.3022 23.7462 17.1549 25.5625C17.0011 27.4116 17.0011 29.7909 17.0011 33.2011V66.7989C17.0011 70.2091 17.0011 72.5851 17.1549 74.4375C17.3022 76.2538 17.5804 77.2945 17.9796 78.0865C18.8426 79.7804 20.2196 81.1574 21.9135 82.0204C22.7055 82.4229 23.7462 82.6978 25.5625 82.8451C27.4116 82.9989 29.7909 82.9989 33.2011 82.9989H66.7989C70.2091 82.9989 72.5851 82.9989 74.4375 82.8451C76.2538 82.6978 77.2945 82.4196 78.0865 82.0204C79.7804 81.1574 81.1574 79.7804 82.0204 78.0865C82.4229 77.2945 82.6978 76.2538 82.8451 74.4375C82.9989 72.5851 82.9989 70.2091 82.9989 66.7989V33.2011C82.9989 29.7909 82.9989 27.4116 82.8451 25.5625C82.6978 23.7462 82.4196 22.7055 82.0204 21.9135C81.1574 20.2196 79.7804 18.8426 78.0865 17.9796C77.2945 17.5771 76.2538 17.3022 74.4375 17.1549C72.5851 17.0011 70.2091 17.0011 66.7989 17.0011ZM15.3091 20.552C14 23.1178 14 26.4789 14 33.2011V66.7989C14 73.5211 14 76.8789 15.3091 79.448C16.4578 81.7062 18.2938 83.5389 20.552 84.6909C23.1178 86 26.4789 86 33.2011 86H66.7989C73.5211 86 76.8789 86 79.448 84.6909C81.7051 83.5403 83.5403 81.7051 84.6909 79.448C86 76.8822 86 73.5211 86 66.7989V33.2011C86 26.4789 86 23.1211 84.6909 20.552C83.5405 18.2948 81.7052 16.4595 79.448 15.3091C76.8822 14 73.5211 14 66.7989 14H33.2011C26.4789 14 23.1211 14 20.552 15.3091C18.2938 16.4578 16.4611 18.2938 15.3091 20.552Z" fill="black"/>
</svg>
