<svg width="175" height="120" viewBox="0 0 175 120" fill="none" xmlns="http://www.w3.org/2000/svg">
<g clip-path="url(#clip0_6857_55442)">
<path d="M101.495 81.0327C100.05 81.0327 98.8741 79.8563 98.8741 78.4112C98.8741 76.9662 100.05 75.7907 101.495 75.7907C102.94 75.7907 104.115 76.9659 104.115 78.4112C104.115 79.8565 102.94 81.0327 101.495 81.0327ZM72.5279 81.0327C71.0829 81.0327 69.9074 79.8563 69.9074 78.4112C69.9074 76.9662 71.0826 75.7907 72.5279 75.7907C73.973 75.7907 75.1484 76.9659 75.1484 78.4112C75.1484 79.8565 73.9732 81.0327 72.5279 81.0327ZM102.435 65.2463L107.672 56.1749C107.816 55.9246 107.855 55.6273 107.781 55.3482C107.706 55.0692 107.523 54.8312 107.273 54.6865C107.023 54.5424 106.726 54.5034 106.447 54.5782C106.168 54.653 105.93 54.8353 105.785 55.0853L100.482 64.2713C96.4261 62.4207 91.8715 61.3896 87.0113 61.3896C82.1511 61.3896 77.5965 62.4207 73.541 64.2713L68.2376 55.0853C68.0928 54.8353 67.8549 54.653 67.5758 54.5782C67.2968 54.5034 66.9995 54.5424 66.7491 54.6865C66.499 54.8311 66.3164 55.069 66.2416 55.3482C66.1668 55.6273 66.2059 55.9246 66.3503 56.1749L71.588 65.2463C62.5941 70.1379 56.4429 79.243 55.543 90.0002H118.48C117.579 79.2432 111.428 70.1379 102.435 65.246" fill="#3DDB85"/>
</g>
<defs>
<clipPath id="clip0_6857_55442">
<rect width="112.024" height="60" fill="white" transform="translate(31 30)"/>
</clipPath>
</defs>
</svg>
