<svg width="80" height="80" viewBox="0 0 80 80" fill="none" xmlns="http://www.w3.org/2000/svg">
<mask id="mask0_7380_56185" style="mask-type:alpha" maskUnits="userSpaceOnUse" x="-1" y="-1" width="82" height="82">
<rect width="80" height="80" fill="white" stroke="white" stroke-width="2"/>
</mask>
<g mask="url(#mask0_7380_56185)">
<path d="M71.9398 24.5221L58.0934 10.6757C57.7707 10.353 57.3595 10.1333 56.9119 10.0443C56.4643 9.95531 56.0004 10.001 55.5788 10.1756C55.1572 10.3503 54.7968 10.646 54.5432 11.0254C54.2896 11.4048 54.1542 11.8509 54.1541 12.3072V19.2304H19.5382C17.702 19.2304 15.9411 19.9598 14.6427 21.2582C13.3444 22.5565 12.615 24.3175 12.615 26.1536C12.615 27.9898 13.3444 29.7507 14.6427 31.0491C15.9411 32.3474 17.702 33.0768 19.5382 33.0768H54.1541V40C54.1542 40.4564 54.2896 40.9024 54.5432 41.2818C54.7968 41.6613 55.1572 41.957 55.5788 42.1316C56.0004 42.3062 56.4643 42.3519 56.9119 42.2629C57.3595 42.1739 57.7707 41.9542 58.0934 41.6316L71.9398 27.7852C72.1543 27.5711 72.3244 27.3167 72.4406 27.0368C72.5567 26.7568 72.6164 26.4567 72.6164 26.1536C72.6164 25.8505 72.5567 25.5504 72.4406 25.2705C72.3244 24.9905 72.1543 24.7362 71.9398 24.5221ZM61.0773 46.9232H26.4613V40C26.4613 39.5436 26.3259 39.0976 26.0723 38.7182C25.8187 38.3387 25.4583 38.043 25.0367 37.8684C24.6151 37.6938 24.1511 37.6481 23.7035 37.7371C23.2559 37.8261 22.8448 38.0458 22.5221 38.3684L8.67567 52.2148C8.24304 52.6476 8 53.2345 8 53.8464C8 54.4583 8.24304 55.0452 8.67567 55.4779L22.5221 69.3243C22.8448 69.647 23.2559 69.8667 23.7035 69.9557C24.1511 70.0447 24.6151 69.999 25.0367 69.8244C25.4583 69.6497 25.8187 69.354 26.0723 68.9746C26.3259 68.5952 26.4613 68.1491 26.4613 67.6928V60.7696H61.0773C61.9865 60.7696 62.8867 60.5905 63.7267 60.2426C64.5667 59.8947 65.3299 59.3847 65.9727 58.7418C66.6156 58.0989 67.1256 57.3357 67.4735 56.4958C67.8214 55.6558 68.0005 54.7555 68.0005 53.8464C68.0005 52.9372 67.8214 52.0369 67.4735 51.197C67.1256 50.357 66.6156 49.5938 65.9727 48.9509C65.3299 48.3081 64.5667 47.7981 63.7267 47.4502C62.8867 47.1023 61.9865 46.9232 61.0773 46.9232Z" fill="black"/>
</g>
</svg>
