<svg width="93" height="92" viewBox="0 0 93 92" fill="none" xmlns="http://www.w3.org/2000/svg">
<mask id="mask0_7374_56630" style="mask-type:alpha" maskUnits="userSpaceOnUse" x="0" y="0" width="93" height="92">
<rect x="0.75" width="92" height="92" fill="black"/>
</mask>
<g mask="url(#mask0_7374_56630)">
</g>
<g clip-path="url(#clip0_7374_56630)">
<path d="M46.75 24.9062C35.1182 24.9062 25.6562 34.3682 25.6562 46C25.6562 57.6318 35.1182 67.0938 46.75 67.0938C58.3818 67.0938 67.8438 57.6318 67.8438 46C67.8438 34.3682 58.3818 24.9062 46.75 24.9062ZM40.9615 48.2729L38.4759 50.7585L33.7175 46L38.4759 41.2416L40.9615 43.7273L38.6888 46L40.9615 48.2729ZM46.7157 55.1341L43.2687 54.4439L46.7843 36.8658L50.2313 37.5559L46.7157 55.1341ZM55.024 50.7584L52.5384 48.2727L54.8112 46L52.5384 43.7271L55.024 41.2415L59.7825 46L55.024 50.7584Z" fill="black"/>
<path d="M46.75 72.4844C32.2103 72.4844 20.2656 60.5397 20.2656 46C20.2656 39.3292 22.9221 32.9391 27.4141 28.0878V31.9375H30.9297V23.1484H20.3828V26.6641H24.0162C19.4526 32.0341 16.75 38.8673 16.75 46C16.75 62.4777 30.2723 76 46.75 76C51.1652 76 55.4172 74.9404 59.3911 73.0847L57.9011 69.8986C54.3992 71.5363 50.6467 72.4844 46.75 72.4844Z" fill="black"/>
<path d="M76.7505 46C76.7505 29.5223 63.2282 16 46.7505 16C42.3354 16 38.0833 17.0596 34.1094 18.9153L35.5994 22.1014C39.1013 20.4637 42.8538 19.5156 46.7505 19.5156C61.2902 19.5156 73.2349 31.4603 73.2349 46C73.2349 52.6708 70.5784 59.0609 66.0864 63.9122V60.0625H62.5708V68.8516H73.1177V65.3359H69.4843C74.0479 59.9659 76.7505 53.1327 76.7505 46Z" fill="black"/>
</g>
<defs>
<clipPath id="clip0_7374_56630">
<rect width="60" height="60" fill="white" transform="translate(16.75 16)"/>
</clipPath>
</defs>
</svg>
