<svg width="80" height="80" viewBox="0 0 80 80" fill="none" xmlns="http://www.w3.org/2000/svg">
<mask id="mask0_7380_56182" style="mask-type:alpha" maskUnits="userSpaceOnUse" x="-1" y="-1" width="82" height="82">
<rect width="80" height="80" fill="white" stroke="white" stroke-width="2"/>
</mask>
<g mask="url(#mask0_7380_56182)">
<path fill-rule="evenodd" clip-rule="evenodd" d="M15.4935 0H76.6689C77.5517 0.00239545 78.3975 0.354115 79.0217 0.978292C79.6459 1.60247 79.9976 2.44835 80 3.33106V64.5065C79.9976 65.3892 79.6459 66.2351 79.0217 66.8592C78.3975 67.4834 77.5517 67.8351 76.6689 67.8375H37.3315V47.6696C37.3315 46.3432 36.8046 45.0712 35.8667 44.1333C34.9288 43.1954 33.6568 42.6685 32.3304 42.6685H12.1988V3.33106C12.2011 2.45458 12.5478 1.61413 13.1642 0.990973C13.7805 0.367819 14.6171 0.0119057 15.4935 0ZM3.33106 46.1538C2.44835 46.1562 1.60247 46.508 0.978292 47.1321C0.354115 47.7563 0.00239545 48.6022 0 49.4849V76.7143C0.0142623 77.5891 0.371214 78.4234 0.994115 79.0378C1.61702 79.6523 2.45613 79.9977 3.33106 80H30.5151C31.3978 79.9976 32.2437 79.6459 32.8679 79.0217C33.492 78.3975 33.8438 77.5517 33.8462 76.6689V49.4849C33.8438 48.6022 33.492 47.7563 32.8679 47.1321C32.2437 46.508 31.3978 46.1562 30.5151 46.1538H3.33106ZM43.3764 39.4736L68.0281 14.8219L67.7195 23.5262C67.7323 24.0496 67.9447 24.5484 68.3133 24.9202C68.6819 25.2921 69.1787 25.5089 69.702 25.5263C70.2253 25.5437 70.7355 25.3604 71.1279 25.0138C71.5204 24.6673 71.7655 24.1838 71.813 23.6624L72.3122 9.74813C72.3269 9.20557 72.1259 8.67931 71.7534 8.28463C71.3808 7.88994 70.867 7.659 70.3245 7.64239L55.43 7.15226C54.9071 7.16681 54.4094 7.38062 54.0389 7.74995C53.6684 8.11927 53.453 8.61621 53.4368 9.1391C53.4205 9.66199 53.6047 10.1713 53.9516 10.5629C54.2985 10.9545 54.7819 11.1988 55.3029 11.2457L65.4686 11.5816L40.472 36.5691C40.0868 36.9543 39.8704 37.4766 39.8704 38.0213C39.8704 38.566 40.0868 39.0884 40.472 39.4736C40.8571 39.8587 41.3795 40.0751 41.9242 40.0751C42.4689 40.0751 42.9913 39.8587 43.3764 39.4736Z" fill="black"/>
</g>
</svg>
