<svg width="76" height="76" viewBox="0 0 76 76" fill="none" xmlns="http://www.w3.org/2000/svg">
<mask id="mask0_7039_79560" style="mask-type:alpha" maskUnits="userSpaceOnUse" x="-1" y="-1" width="78" height="78">
<rect width="76" height="76" fill="white" stroke="white" stroke-width="2"/>
</mask>
<g mask="url(#mask0_7039_79560)">
<path d="M33.5263 45.7884L30.6155 59.2872L38.9113 48.6992L33.5263 45.7884ZM40.7305 49.6452L29.5967 63.8717C29.4148 64.1264 29.1601 64.3447 28.8327 64.381C28.2505 64.4538 27.7775 64.0536 27.7047 63.5078L24.7575 39.1299L5.80103 35.0185C5.47357 34.9457 5.18249 34.7274 5.07334 34.3999C4.85503 33.8905 5.14611 33.3084 5.65549 33.1264L44.3326 18.6817C44.3326 18.6817 44.369 18.6817 44.4054 18.6817L70.0931 9.07605C70.3114 9.00328 70.5297 8.9669 70.7844 9.03967C71.2938 9.18521 71.6213 9.73098 71.4757 10.2768L58.6319 57.9045C58.5955 57.9773 58.5591 58.0501 58.5227 58.1229C58.268 58.6322 57.6495 58.8142 57.1765 58.5231L40.7305 49.6452ZM61.2152 17.0443L55.6119 20.6101L55.6483 22.1018L56.7762 21.0467L61.2152 17.0443ZM58.6682 22.0654L63.3619 32.6171L68.6377 13.042L58.6682 22.0654ZM62.525 35.6734L57.1037 23.4845L55.43 24.9762C55.43 25.0126 55.3936 25.0126 55.3936 25.049L34.4359 43.9691L56.9945 56.1581L62.525 35.6734ZM53.7199 23.8483L53.6471 21.8471L26.7223 38.8025L28.9782 57.3224L31.7434 44.5149C31.6343 44.1147 31.7434 43.7144 32.0345 43.4597L53.7199 23.8483ZM61.761 14.3519L49.6812 18.8272L54.3021 19.0455L61.761 14.3519ZM44.8784 20.6464L9.58506 33.7814L25.4489 37.2379L51.3185 20.9375L44.8784 20.6464ZM50.5544 57.6862C50.8819 57.2496 51.5368 57.1768 51.9734 57.5043C52.41 57.8318 52.4828 58.4867 52.1553 58.9233L48.9535 63.0712C48.5896 63.5078 47.9711 63.5806 47.5345 63.2531C47.0979 62.8893 46.9887 62.2707 47.3525 61.8341L50.5544 57.6862ZM25.7763 65.1087C26.1402 64.7085 26.7951 64.6721 27.1953 65.036C27.5956 65.3998 27.632 66.0548 27.2681 66.455L23.4841 70.6756C23.1202 71.0759 22.5017 71.1122 22.0651 70.7484C21.6648 70.3846 21.6284 69.7296 21.9923 69.3294L25.7763 65.1087ZM20.3186 41.4586C20.7552 41.1311 21.4101 41.2403 21.7376 41.6769C22.0651 42.1499 21.9559 42.7684 21.4829 43.0959L17.1167 46.2614C16.6801 46.5888 16.0616 46.5161 15.7341 46.0431C15.4066 45.6065 15.4794 44.9879 15.9524 44.6604L20.3186 41.4586Z" fill="black"/>
</g>
</svg>
