<svg width="93" height="92" viewBox="0 0 93 92" fill="none" xmlns="http://www.w3.org/2000/svg">
<mask id="mask0_7374_56619" style="mask-type:alpha" maskUnits="userSpaceOnUse" x="0" y="0" width="93" height="92">
<rect x="0.75" width="92" height="92" fill="black"/>
</mask>
<g mask="url(#mask0_7374_56619)">
</g>
<path fill-rule="evenodd" clip-rule="evenodd" d="M53.3004 17.0547H59.4493V20.14C61.4852 20.5458 63.3782 21.3468 65.0458 22.4596L67.2284 20.2769L71.5763 24.6249L69.3937 26.8075C70.5066 28.4748 71.3073 30.3682 71.7132 32.4039H74.7985V38.5529H71.7133C71.3075 40.5888 70.5065 42.4819 69.3938 44.1494L71.5764 46.332L67.2284 50.6799L65.0459 48.4974C63.3785 49.6103 61.4852 50.4111 59.4494 50.817V53.9021H53.3005V50.817C51.2646 50.4112 49.3714 49.6102 47.7038 48.4975L45.5213 50.68L41.1734 46.332L43.3558 44.1495C42.2429 42.482 41.4423 40.5886 41.0362 38.5527H37.9511V32.4038H41.0362C41.442 30.3679 42.2431 28.4748 43.3558 26.8073L41.1731 24.6249L45.5211 20.277L47.7037 22.4596C49.3712 21.3467 51.2646 20.5461 53.3004 20.1401V17.0547ZM51.4507 64.5962C52.6208 62.4623 51.8745 59.7399 49.7601 58.5078L36.1031 50.551C34.2173 49.7682 32.3152 49.7661 30.428 50.5458L26.1335 52.3199V69.059C28.2719 68.4495 30.2987 68.5845 32.5063 69.754L40.4259 73.9493C42.2292 74.9046 44.0806 75.2184 46.0523 74.6901L70.4177 68.1617C72.5918 67.5791 73.8937 65.3237 73.3114 63.1493C72.7291 60.9752 70.4734 59.6727 68.2992 60.2553L53.5532 64.2062C53.4344 64.733 53.2347 65.2498 52.9496 65.7392C51.4374 68.3346 48.0774 69.2253 45.4808 67.7124L38.1855 63.4621C37.7386 63.2032 37.5861 62.631 37.845 62.1841C38.1038 61.7371 38.6761 61.5846 39.123 61.8435L46.4183 66.0938C48.2961 67.1876 50.3867 66.422 51.4507 64.5962ZM24.2585 50.8952V71.2217C24.2585 71.7174 23.8528 72.1231 23.3572 72.1231H19.6005C19.1048 72.1231 18.6992 71.7174 18.6992 71.2217V50.8952C18.6992 50.3995 19.1049 49.9937 19.6005 49.9937H23.3573C23.8529 49.9936 24.2585 50.3995 24.2585 50.8952ZM60.018 31.3377L54.4218 36.9339L52.45 34.4526C51.973 33.8523 51.0995 33.7526 50.4993 34.2298C49.8991 34.7069 49.7994 35.5803 50.2766 36.1805L53.163 39.813C53.6567 40.5201 54.673 40.6168 55.2882 40.0016L61.985 33.3048C62.5282 32.7617 62.5282 31.881 61.985 31.3379C61.442 30.7946 60.5612 30.7946 60.018 31.3377ZM56.3748 25.8985C51.0839 25.8985 46.7948 30.1875 46.7947 35.4786C46.7947 40.7695 51.0839 45.0585 56.3748 45.0585C61.6657 45.0585 65.9548 40.7695 65.9548 35.4784C65.955 30.1875 61.6658 25.8985 56.3748 25.8985Z" fill="black"/>
</svg>
