<svg width="76" height="76" viewBox="0 0 76 76" fill="none" xmlns="http://www.w3.org/2000/svg">
<mask id="mask0_7039_79530" style="mask-type:alpha" maskUnits="userSpaceOnUse" x="-1" y="-1" width="78" height="78">
<rect width="76" height="76" fill="white" stroke="white" stroke-width="2"/>
</mask>
<g mask="url(#mask0_7039_79530)">
<path fill-rule="evenodd" clip-rule="evenodd" d="M25.0869 31.7114C24.8437 31.6309 24.6042 31.5412 24.3693 31.4441C23.9793 31.2822 23.5994 31.0969 23.2317 30.8893L21.1777 31.9343L18.0593 28.8168L19.1053 26.7637C18.8976 26.397 18.7123 26.018 18.5504 25.629C18.3881 25.2368 18.2495 24.8354 18.1351 24.4267L15.9452 23.7155V19.3107L18.1361 18.5986C18.2505 18.1928 18.3889 17.7941 18.5504 17.4046C18.7126 17.0151 18.8979 16.6356 19.1053 16.2681L18.0584 14.2159L21.1787 11.0975L23.2308 12.1425C23.5979 11.935 23.9772 11.7497 24.3665 11.5876C24.7562 11.426 25.1552 11.2876 25.5613 11.1733L26.2725 8.98242H30.6801L31.3922 11.1733C32.2077 11.4024 32.9929 11.7281 33.7311 12.1434L33.818 12.099L35.7814 11.0984L38.9026 14.2187L37.902 16.1811L37.8576 16.2681C38.0652 16.6376 38.2505 17.0193 38.4125 17.4111C38.5216 17.6738 38.6196 17.942 38.7084 18.2148C38.9858 18.0834 39.2688 17.9577 39.5537 17.8448C40.3674 17.5073 41.204 17.2276 42.0571 17.0079L43.3204 13.1237H50.3175L51.5808 17.0079C53.2894 17.449 54.9273 18.1286 56.4462 19.0268L60.0899 17.1707L65.0414 22.1175L63.1834 25.7667C63.6311 26.5258 64.0254 27.315 64.3635 28.1287C64.7016 28.9401 64.9816 29.7745 65.2013 30.6257L69.0911 31.8899V38.887L65.2013 40.1512C64.7604 41.8588 64.0811 43.4958 63.1834 45.0138L65.0423 48.6622L60.0927 53.609L56.4462 51.752C55.6876 52.1984 54.8987 52.5912 54.0852 52.9274C53.2715 53.2664 52.4345 53.5467 51.5808 53.7662L50.3175 57.6578H43.3195L42.0571 53.7681C41.2043 53.5482 40.3681 53.2686 39.5546 52.9311C38.7412 52.5933 37.9523 52.1993 37.1936 51.752L33.547 53.609L28.5938 48.6594L30.4526 45.0111C30.005 44.2521 29.6107 43.4628 29.2726 42.6491C28.9348 41.836 28.6549 41 28.4347 40.1475L24.5505 38.8842V31.8871L25.0906 31.7114H25.0869ZM8.67158 62.513H12.8073V46.8024H8.67158V62.513ZM13.7173 64.3331C13.9586 64.3328 14.1899 64.2369 14.3605 64.0663C14.5311 63.8956 14.6271 63.6643 14.6273 63.423V61.2719H15.9165L22.8859 68.7758L23.0357 68.9478C23.6831 69.708 24.7586 70.9824 28.2673 70.9824H50.0262C51.0517 70.9666 52.0299 70.5482 52.7495 69.8174C53.4691 69.0866 53.8725 68.1021 53.8725 67.0765C53.8725 66.0509 53.4691 65.0664 52.7495 64.3356C52.0299 63.6048 51.0517 63.1863 50.0262 63.1706H34.5079H34.163C33.7533 63.1706 33.339 63.1706 32.9376 63.1539C33.0913 63.0425 33.2357 62.9188 33.3695 62.784H33.376C34.0375 62.1203 34.409 61.2214 34.409 60.2843C34.409 59.3471 34.0375 58.4482 33.376 57.7845L25.8711 50.276C23.5859 47.9908 22.109 48.0074 19.3337 48.0389C19.1746 48.0389 19.0562 48.0389 18.3266 48.0389H14.6273V45.8924C14.6273 45.6511 14.5315 45.4196 14.3608 45.2489C14.1901 45.0783 13.9587 44.9824 13.7173 44.9824H7.76157C7.52022 44.9824 7.28876 45.0783 7.1181 45.2489C6.94744 45.4196 6.85156 45.6511 6.85156 45.8924V63.423C6.85181 63.6643 6.94776 63.8956 7.11837 64.0663C7.28898 64.2369 7.5203 64.3328 7.76157 64.3331H13.7173ZM14.6273 49.8626V59.4519H16.3096C16.4343 59.4531 16.5575 59.4795 16.6718 59.5296C16.7861 59.5797 16.889 59.6523 16.9745 59.7432L24.2148 67.5394C24.2879 67.617 24.3517 67.6929 24.422 67.7752C24.8613 68.2931 25.5965 69.1624 28.2673 69.1624H50.0262C50.5795 69.1624 51.1102 68.9426 51.5015 68.5513C51.8927 68.16 52.1126 67.6294 52.1126 67.076C52.1126 66.5227 51.8927 65.992 51.5015 65.6007C51.1102 65.2095 50.5795 64.9897 50.0262 64.9897H34.5079H34.163C32.4354 64.9961 30.6395 65.0035 29.3198 63.6949L28.7066 63.0883C28.589 62.997 28.4772 62.8984 28.3718 62.7933L22.6195 57.0298C22.5351 56.9458 22.468 56.846 22.4221 56.736C22.3762 56.626 22.3525 56.5081 22.3522 56.3889C22.3519 56.2698 22.375 56.1517 22.4203 56.0415C22.4657 55.9313 22.5322 55.8311 22.6163 55.7467C22.7003 55.6622 22.8002 55.5951 22.9102 55.5493C23.0201 55.5034 23.138 55.4796 23.2572 55.4793C23.3764 55.479 23.4944 55.5022 23.6046 55.5475C23.7148 55.5928 23.815 55.6594 23.8995 55.7434L28.9156 60.7559L28.9267 60.7448L29.87 61.6779C30.2016 61.9144 30.606 62.0263 31.012 61.994C31.418 61.9617 31.7995 61.7872 32.0895 61.5013C32.4097 61.1777 32.5893 60.7409 32.5893 60.2856C32.5893 59.8304 32.4097 59.3936 32.0895 59.07L24.582 51.5661C22.8313 49.8154 21.6226 49.8284 19.3448 49.8543L18.3275 49.8654L14.6273 49.8626ZM44.8685 33.2558H48.774V28.3275H44.8658V33.2568L44.8685 33.2558ZM49.6803 35.0786H43.9558C43.7146 35.0784 43.4833 34.9824 43.3129 34.8118C43.1424 34.6411 43.0467 34.4098 43.0467 34.1686V28.3275H39.7581V42.4447H53.878V28.3275H50.5903V34.1668C50.5903 34.2863 50.5668 34.4046 50.5211 34.515C50.4753 34.6254 50.4083 34.7257 50.3238 34.8102C50.2393 34.8947 50.139 34.9618 50.0286 35.0075C49.9181 35.0532 49.7998 35.0768 49.6803 35.0768V35.0786ZM54.7871 44.2675C55.0284 44.2673 55.2597 44.1713 55.4303 44.0007C55.6009 43.8301 55.6969 43.5988 55.6971 43.3575V27.4166C55.6969 27.1753 55.6009 26.944 55.4303 26.7734C55.2597 26.6028 55.0284 26.5068 54.7871 26.5066H38.848C38.6068 26.5068 38.3754 26.6028 38.2048 26.7734C38.0342 26.944 37.9383 27.1753 37.938 27.4166V43.3547C37.9383 43.596 38.0342 43.8273 38.2048 43.9979C38.3754 44.1685 38.6068 44.2645 38.848 44.2647L54.7871 44.2675ZM46.819 20.13C43.2899 20.1298 39.87 21.3532 37.1419 23.5919C34.4138 25.8305 32.5462 28.9458 31.8575 32.4069C31.1688 35.8681 31.7015 39.461 33.3649 42.5734C35.0282 45.6859 37.7193 48.1253 40.9796 49.476C44.2399 50.8268 47.8676 51.0053 51.2448 49.9811C54.6219 48.957 57.5395 46.7935 59.5004 43.8594C61.4612 40.9253 62.344 37.402 61.9984 33.89C61.6528 30.3779 60.1002 27.0943 57.605 24.5987C56.19 23.1803 54.5087 22.0554 52.6577 21.2887C50.8067 20.522 48.8225 20.1286 46.819 20.131V20.13ZM56.3176 25.8842C54.1196 23.686 51.2273 22.3179 48.1337 22.0131C45.04 21.7083 41.9364 22.4856 39.3516 24.2126C36.7668 25.9395 34.8608 28.5094 33.9583 31.4841C33.0559 34.4589 33.2128 37.6545 34.4024 40.5266C35.5919 43.3986 37.7406 45.7693 40.4821 47.2347C43.2237 48.7002 46.3885 49.1696 49.4374 48.5632C52.4864 47.9567 55.2307 46.3119 57.2028 43.9089C59.1749 41.5059 60.2527 38.4934 60.2527 35.3847C60.2551 33.62 59.9086 31.8722 59.2333 30.2418C58.558 28.6113 57.5671 27.1304 56.3176 25.8842ZM37.0336 18.9407C36.9487 18.6565 36.8493 18.3769 36.7358 18.1029C36.5442 17.6428 36.3156 17.199 36.0523 16.7758L35.7795 16.3411L36.2836 15.3534L36.6849 14.5646L35.4346 13.3142L34.642 13.7156L33.6562 14.2196L33.2215 13.9468C32.8004 13.6843 32.3584 13.4569 31.9 13.2671C31.4422 13.0773 30.9691 12.9267 30.4859 12.8167L29.9838 12.6983L29.3669 10.8024H27.5959L26.9791 12.6983L26.4778 12.8139C25.9948 12.924 25.5218 13.0743 25.0638 13.2634C24.6068 13.4541 24.166 13.6818 23.7459 13.944L23.3076 14.2215L21.5292 13.3151L20.2807 14.5673L21.1861 16.343L20.9086 16.7822C20.646 17.202 20.4186 17.6428 20.2289 18.1001C20.0386 18.5574 19.8876 19.0302 19.7776 19.5132L19.6629 20.0154L17.7661 20.6322V22.4041L19.6601 23.0201L19.7767 23.5213C19.9995 24.4883 20.382 25.4112 20.9086 26.2523L21.1861 26.6916L20.2798 28.4681L21.531 29.7148L23.3076 28.8094L23.7459 29.0868C24.1664 29.3501 24.6081 29.5778 25.0666 29.7675C25.5234 29.9574 25.9955 30.1084 26.4778 30.2188L26.9791 30.3344L27.2029 31.0252L28.4347 30.6248C28.6299 29.8707 28.8714 29.1295 29.1579 28.4052C28.9341 28.4274 28.7094 28.4385 28.4819 28.4385C27.2971 28.4393 26.1319 28.1362 25.0978 27.5581C24.0636 26.98 23.195 26.1463 22.5751 25.1366C21.9551 24.127 21.6046 22.9752 21.5569 21.7914C21.5092 20.6076 21.766 19.4313 22.3027 18.3751C22.8394 17.3189 23.6381 16.418 24.6225 15.7586C25.6068 15.0992 26.7438 14.7033 27.9248 14.6088C29.1058 14.5143 30.2913 14.7244 31.3679 15.2189C32.4446 15.7134 33.3764 16.4759 34.0742 17.4333L37.0336 18.9407ZM30.1151 26.3568C30.2242 26.1561 30.3361 25.9573 30.4526 25.7603L28.5966 22.1128L32.4327 18.2777C32.0266 17.7836 31.532 17.3696 30.9742 17.0569C29.898 16.4545 28.6402 16.2619 27.433 16.5146C26.2259 16.7674 25.151 17.4485 24.4069 18.4322C23.6629 19.4158 23.2999 20.6354 23.3852 21.8658C23.4704 23.0962 23.998 24.2542 24.8705 25.1259C25.3438 25.5999 25.906 25.9758 26.525 26.2319C27.1439 26.4881 27.8074 26.6194 28.4773 26.6185C28.8078 26.6192 29.1376 26.5882 29.4622 26.526C29.6813 26.4829 29.8975 26.4261 30.1095 26.3559L30.1151 26.3568ZM53.3869 19.5132C52.5075 19.1484 51.5989 18.8583 50.6708 18.6457L50.1695 18.5311L48.9987 14.9299H44.6383L43.4684 18.5311L42.9662 18.6457C41.1049 19.0729 39.3284 19.8091 37.7105 20.8237L37.2712 21.1011L33.8938 19.38L30.8142 22.4596L32.5325 25.8361L32.2551 26.2735C31.2427 27.8931 30.507 29.6699 30.0781 31.5311L29.9625 32.0332L26.3631 33.2031V37.5664L29.9634 38.7372L30.0781 39.2384C30.2908 40.1659 30.5809 41.0738 30.9456 41.9527C31.3104 42.8343 31.7485 43.6838 32.2551 44.4922L32.5325 44.9297L30.8142 48.3034L33.8966 51.3848L37.2712 49.6656L37.7105 49.9431C38.5183 50.4498 39.3671 50.8879 40.2482 51.2526C41.1279 51.6184 42.0372 51.9086 42.9662 52.1201L43.4675 52.2347L44.6383 55.8415H48.9987L50.1695 52.2403L50.6708 52.1247C51.5995 51.9123 52.5087 51.6221 53.3888 51.2572C54.2682 50.8922 55.1156 50.4542 55.9218 49.9477L56.3602 49.6702L59.7357 51.3895L62.8218 48.3034L61.1026 44.9297L61.38 44.4922C62.391 42.8743 63.1258 41.0994 63.5543 39.2403L63.6689 38.7381L67.2711 37.5673V33.2059L63.6689 32.0351L63.5543 31.5329C63.3417 30.6054 63.0516 29.6975 62.6868 28.8186C62.3217 27.9371 61.8837 27.0877 61.3773 26.2791L61.0998 25.8417L62.819 22.467L59.7394 19.3856L56.3611 21.1066L55.9228 20.8292C55.1157 20.3216 54.2674 19.8826 53.3869 19.5169V19.5132Z" fill="black"/>
</g>
</svg>
