<svg width="76" height="76" viewBox="0 0 76 76" fill="none" xmlns="http://www.w3.org/2000/svg">
<mask id="mask0_7039_79527" style="mask-type:alpha" maskUnits="userSpaceOnUse" x="-1" y="-1" width="78" height="78">
<rect width="76" height="76" fill="white" stroke="white" stroke-width="2"/>
</mask>
<g mask="url(#mask0_7039_79527)">
<path d="M68.9546 59.4839C68.7823 58.5193 68.3069 57.7614 67.5421 57.2447C66.2744 56.3834 64.3038 56.2387 61.5203 56.7968L48.3536 59.3599C47.2512 57.41 44.5779 55.9287 41.7117 55.9287H39.3553C37.1574 55.9287 36.2755 55.3706 34.801 54.4473C34.4359 54.2131 34.0156 53.9513 33.5471 53.6825C29.916 51.5742 27.1669 51.7327 22.9985 51.967C22.2337 52.0083 21.4414 52.0565 20.5664 52.091L17.1696 52.2288L17.1765 51.7809C17.1834 51.2159 16.9629 50.6785 16.5633 50.272C16.1637 49.8655 15.6332 49.6381 15.0613 49.6313L9.26683 49.583C9.25994 49.583 9.25305 49.583 9.24616 49.583C8.08176 49.583 7.12406 50.527 7.11717 51.6982L7.00004 65.6228C6.99315 66.7941 7.93707 67.7587 9.11525 67.7725L14.9097 67.8207C14.9166 67.8207 14.9235 67.8207 14.9304 67.8207C15.4885 67.8207 16.019 67.6072 16.4255 67.2075C16.832 66.8079 17.0594 66.2774 17.0663 65.7055V65.4851C18.5407 65.8916 19.6638 66.05 20.6766 66.1878C21.4138 66.2912 22.1097 66.3876 22.8883 66.5668C24.3352 66.9113 26.0921 67.8828 27.787 68.8267C28.6138 69.2814 29.4613 69.7568 30.2743 70.1564C31.4525 70.7352 32.6169 71.0039 33.926 71.0039H42.5522C43.7855 71.0039 44.7708 70.7145 45.6527 70.4045L66.86 62.9151C68.424 62.357 69.237 61.041 68.9546 59.4839ZM15.1853 65.9605C15.144 66.0018 15.0544 66.0707 14.9235 66.0707L9.12903 66.0225C8.92234 66.0225 8.75698 65.8502 8.75698 65.6435L8.881 51.7051C8.881 51.4984 9.05325 51.3331 9.25305 51.3331L15.0475 51.3813C15.1784 51.3813 15.268 51.4502 15.3093 51.4915C15.3507 51.5329 15.4196 51.6225 15.4196 51.7534L15.2955 65.6917C15.2955 65.8295 15.2266 65.9191 15.1853 65.9605ZM66.2606 61.2615L45.0533 68.7509C44.2058 69.0472 43.4548 69.247 42.5384 69.247H33.9191C32.8718 69.247 31.983 69.0403 31.0391 68.5786C30.2674 68.1997 29.4751 67.7587 28.6345 67.2971C26.8362 66.2981 24.9691 65.2646 23.2879 64.865C22.4267 64.6583 21.6894 64.5618 20.9109 64.4516C19.8085 64.3 18.6716 64.1415 17.08 63.6661L17.1627 53.9788L20.649 53.8341C21.531 53.7997 22.3302 53.7514 23.1088 53.7101C27.229 53.4759 29.5026 53.3449 32.672 55.1915C33.113 55.4464 33.4988 55.6944 33.8778 55.9287C35.4349 56.9071 36.6613 57.6787 39.3622 57.6787H41.7185C44.7157 57.6787 47.1341 59.6355 47.1341 61.2546C47.1341 61.9092 46.6035 62.4466 45.9421 62.4466H36.7578C36.2755 62.4466 35.8759 62.8393 35.8759 63.3285C35.8759 63.8177 36.2686 64.2104 36.7578 64.2104H45.9352C47.5612 64.2104 48.8841 62.8875 48.8841 61.2615C48.8841 61.1926 48.8841 61.1237 48.8772 61.0479L61.8648 58.5193C64.6966 57.9543 65.9781 58.2988 66.5569 58.6984C66.922 58.9465 67.1356 59.2979 67.2252 59.7939C67.3492 60.4967 67.0254 60.9928 66.2606 61.2615ZM47.2719 45.1666C55.2229 45.1666 61.6994 38.6969 61.6994 30.739C61.6994 22.788 55.2298 16.3114 47.2719 16.3114C39.3208 16.3114 32.8443 22.7811 32.8443 30.739C32.8443 38.6969 39.3139 45.1666 47.2719 45.1666ZM47.2719 18.0752C54.2583 18.0752 59.9425 23.7595 59.9425 30.7459C59.9425 37.7323 54.2583 43.4165 47.2719 43.4165C40.2854 43.4165 34.6012 37.7323 34.6012 30.7459C34.6012 23.7526 40.2854 18.0752 47.2719 18.0752ZM43.7786 37.0089C44.2954 37.0089 44.8259 36.8504 45.2807 36.5334L55.7258 29.2714C56.3046 28.8718 56.6904 28.2655 56.8144 27.5765C56.9385 26.8806 56.7869 26.1847 56.3873 25.606C55.5605 24.414 53.9138 24.1177 52.7218 24.9445L44.2403 30.8423L41.5463 27.6592C41.0916 27.1218 40.4577 26.7979 39.7549 26.7359C39.0521 26.6739 38.37 26.8944 37.8395 27.3491C36.7302 28.2862 36.5924 29.9535 37.5294 31.0559L41.7737 36.0718C42.2904 36.685 43.0276 37.0089 43.7786 37.0089ZM38.9694 28.6858C39.1486 28.5342 39.376 28.4653 39.6102 28.4791C39.8445 28.4998 40.0512 28.61 40.2028 28.7891L43.4135 32.5855C43.7028 32.93 44.2127 32.9989 44.5848 32.7371L53.7209 26.3845C54.1205 26.1089 54.6648 26.2054 54.9404 26.605C55.0713 26.7979 55.1264 27.0322 55.0851 27.2596C55.0437 27.4869 54.9128 27.6936 54.7199 27.8245L44.2747 35.0934C43.9095 35.3484 43.3997 35.2795 43.1103 34.935L38.8661 29.9191C38.5561 29.5539 38.5974 29.0027 38.9694 28.6858ZM26.4917 29.4781C26.8569 30.3325 26.8569 31.1593 26.4917 32.0067L25.9405 33.2745C25.0242 35.3897 25.6787 37.8288 27.5321 39.2067L28.6414 40.0335C29.3855 40.5847 29.7989 41.3013 29.9092 42.2246L30.0676 43.6025C30.3363 45.89 32.1208 47.6814 34.4083 47.9432L35.7863 48.1017C36.7095 48.2119 37.4261 48.6253 37.9773 49.3694L38.8041 50.4787C40.1821 52.3321 42.6211 52.9798 44.7363 52.0703L46.0041 51.5191C46.8585 51.1539 47.6852 51.1539 48.5327 51.5191L49.8005 52.0703C50.4412 52.3459 51.1096 52.4768 51.771 52.4768C53.2937 52.4768 54.775 51.7671 55.7327 50.4787L56.5595 49.3694C57.1107 48.6253 57.8273 48.2119 58.7505 48.1017L60.1285 47.9432C62.416 47.6745 64.2074 45.89 64.4692 43.6025L64.6277 42.2246C64.7379 41.3013 65.1513 40.5847 65.8954 40.0335L67.0047 39.2067C68.8581 37.8288 69.5058 35.3897 68.5963 33.2745L68.0451 32.0067C67.6799 31.1524 67.6799 30.3256 68.0451 29.4781L68.5963 28.2104C69.5126 26.0952 68.8581 23.6561 67.0047 22.2781L65.8954 21.4513C65.1513 20.9001 64.7379 20.1836 64.6277 19.2603L64.4692 17.8823C64.2005 15.5949 62.416 13.8035 60.1285 13.5416L58.7505 13.3832C57.8273 13.2729 57.1107 12.8595 56.5595 12.1154L55.7327 11.0061C54.3547 9.15274 51.9157 8.50509 49.8005 9.41456L48.5327 9.96576C47.6784 10.3309 46.8516 10.3309 46.0041 9.96576L44.7363 9.41456C42.6211 8.4982 40.1821 9.15274 38.8041 11.0061L37.9773 12.1154C37.4261 12.8595 36.7095 13.2729 35.7863 13.3832L34.4083 13.5416C32.1208 13.8104 30.3294 15.5949 30.0676 17.8823L29.9092 19.2603C29.7989 20.1836 29.3855 20.9001 28.6414 21.4513L27.5321 22.2781C25.6787 23.6561 25.0311 26.0952 25.9405 28.2104L26.4917 29.4781ZM28.5794 23.6837L29.6887 22.8569C30.8117 22.0232 31.487 20.845 31.6523 19.4601L31.8108 18.0821C31.983 16.5801 33.113 15.4571 34.6081 15.2848L35.9861 15.1263C37.3779 14.9679 38.5492 14.2858 39.3828 13.1627L40.2096 12.0534C41.1122 10.8408 42.6487 10.4274 44.0336 11.0268L45.3013 11.578C46.5829 12.1292 47.9402 12.1292 49.2286 11.578L50.4963 11.0268C51.8812 10.4274 53.4177 10.8408 54.3203 12.0534L55.1471 13.1627C55.9808 14.2858 57.1589 14.961 58.5438 15.1263L59.9218 15.2848C61.4238 15.4571 62.5469 16.587 62.7191 18.0821L62.8776 19.4601C63.0361 20.8519 63.7182 22.0232 64.8412 22.8569L65.9505 23.6837C67.1632 24.5863 67.5766 26.1227 66.9771 27.5076L66.4259 28.7753C65.8747 30.0569 65.8747 31.4142 66.4259 32.7026L66.9771 33.9704C67.5766 35.3553 67.1632 36.8917 65.9505 37.7943L64.8412 38.6211C63.7182 39.4548 63.043 40.633 62.8776 42.0178L62.7191 43.3958C62.5469 44.8979 61.4169 46.0209 59.9218 46.1932L58.5438 46.3516C57.1521 46.5101 55.9808 47.1922 55.1471 48.3153L54.3203 49.4246C53.4177 50.6372 51.8812 51.0506 50.4963 50.4512L49.2286 49.9C48.5878 49.6244 47.9264 49.4866 47.265 49.4866C46.6035 49.4866 45.9421 49.6244 45.3013 49.9L44.0336 50.4512C42.6487 51.0506 41.1122 50.6372 40.2096 49.4246L39.3828 48.3222C38.5492 47.1991 37.371 46.5239 35.9861 46.3585L34.6081 46.2001C33.1061 46.0278 31.983 44.8979 31.8108 43.4027L31.6523 42.0247C31.4938 40.633 30.8117 39.4617 29.6887 38.628L28.5794 37.8012C27.3668 36.8986 26.9534 35.3622 27.5528 33.9773L28.104 32.7095C28.6552 31.428 28.6552 30.0707 28.104 28.7822L27.5528 27.5145C26.9534 26.1227 27.3668 24.5863 28.5794 23.6837Z" fill="black"/>
</g>
</svg>
