<svg width="80" height="80" viewBox="0 0 80 80" fill="none" xmlns="http://www.w3.org/2000/svg">
<mask id="mask0_7380_56159" style="mask-type:alpha" maskUnits="userSpaceOnUse" x="-1" y="-1" width="82" height="82">
<rect width="80" height="80" fill="white" stroke="white" stroke-width="2"/>
</mask>
<g mask="url(#mask0_7380_56159)">
<path d="M38.6768 19.088C43.3872 19.088 47.2209 15.2544 47.2209 10.544C47.2209 5.83361 43.3873 2 38.6768 2C33.9664 2 30.1328 5.83361 30.1328 10.544C30.1328 15.2544 33.9664 19.088 38.6768 19.088ZM32.4278 13.9278C35.5037 13.9278 34 12.4241 34 15.5C34 18.5759 41.7527 16.116 38.6768 16.116C35.601 16.116 33.1046 13.6197 33.1046 10.5438C33.1046 7.46797 29.3519 13.9278 32.4278 13.9278Z" fill="black" stroke="black"/>
<path d="M18.4984 18.5388C22.6143 18.5388 25.9577 15.1955 25.9577 11.0794C25.9577 6.9634 22.6144 3.62012 18.4984 3.62012C14.3823 3.62012 11.0391 6.9634 11.0391 11.0794C11.0391 15.1955 14.3823 18.5388 18.4984 18.5388ZM18.4984 17C20.9799 17 22.9859 8.59852 22.9859 11.08C22.9859 13.5615 20.9799 15.5675 18.4984 15.5675C16.0169 15.5675 14.0109 13.5615 14.0109 11.08C14.0109 8.59852 16.0317 17 18.4984 17Z" fill="black" stroke="black"/>
<path d="M58.8578 18.5388C62.9737 18.5388 66.3171 15.1955 66.3171 11.0794C66.3171 6.9634 62.9738 3.62012 58.8578 3.62012C54.7417 3.62012 51.3984 6.9634 51.3984 11.0794C51.3984 15.1955 54.7417 18.5388 58.8578 18.5388ZM58.8578 6.59251C61.3393 6.59251 63.3453 8.59852 63.3453 11.08C63.3453 13.5615 61.3244 4.5 58.8578 4.5C56.3911 4.5 54.3703 13.5615 54.3703 11.08C54.3703 8.59852 56.3763 6.59251 58.8578 6.59251Z" fill="black" stroke="black"/>
<path d="M0.148335 55.6952C0.0194255 55.9061 -0.0313546 56.1561 0.0194254 56.3944L4.62103 77.7924C4.67181 78.0307 4.82025 78.2416 5.01947 78.3705C5.23041 78.4994 5.48041 78.5502 5.71869 78.4994L12.6679 76.9994C13.1679 76.89 13.4882 76.3979 13.3788 75.8978L9.32022 57.0268C9.21867 56.8549 9.19132 56.7065 9.21867 56.5385L8.77726 54.4994C8.66788 53.9994 8.1757 53.6909 7.67566 53.7885L0.726456 55.2768C0.488176 55.3276 0.277235 55.476 0.148335 55.6752V55.6952Z" fill="black"/>
<path d="M79.9988 49.7068C80.0301 49.0857 79.8191 48.4959 79.3895 48.0466C77.8895 46.4685 75.4207 46.2185 73.6278 47.4763L59.4287 57.4963C56.7295 59.3947 53.6006 60.4651 50.3193 60.6252C50.1084 60.6447 49.8897 60.6564 49.6787 60.6564H36.8197C36.2416 60.6564 35.7689 60.1877 35.7689 59.6056C35.7689 59.0275 36.2377 58.5548 36.8197 58.5548H49.4487C49.5698 58.5548 49.6987 58.5431 49.8198 58.5431C52.0386 58.465 53.8198 56.6525 53.8198 54.4142C53.8198 52.1759 51.9604 50.2736 49.6792 50.2736H40.2495C38.6284 50.2736 37.0503 50.0236 35.5503 49.5353C31.7691 48.297 22.4213 45.965 17.3203 51.0665L11.4492 56.9376L14.7578 72.3356H50.2188C52.8672 72.3356 55.4376 71.3942 57.4571 69.6872L79.1951 51.2962C79.6639 50.8978 79.9451 50.3353 79.9842 49.7181L79.9988 49.7068Z" fill="black"/>
<path fill-rule="evenodd" clip-rule="evenodd" d="M28.016 24.807C28.2864 24.3767 28.5425 24.0031 28.7793 23.6845C30.498 22.6153 32.507 22 34.6539 22H42.7967C45.239 22 47.5286 22.8057 49.3833 24.1752C49.7638 24.5308 50.2362 25.1019 50.75 25.9137C51.4534 27.0253 52.1821 28.5052 52.8154 30.2888C54.0324 33.716 54.8801 38.2155 54.5497 43.2945C54.4162 43.3328 54.2763 43.3526 54.1334 43.3526H23.2559C23.1354 43.3526 23.0172 43.3385 22.9031 43.3112C22.8593 41.461 23.0053 39.6192 23.2877 37.8359C23.7301 35.0427 24.507 32.3931 25.4131 30.0795C26.0458 28.4637 26.7366 27.0245 27.4099 25.8278C27.6142 25.4646 27.817 25.1237 28.016 24.807ZM56.6119 40.2471H71.9499C72.3957 40.2471 72.8117 40.0539 73.094 39.7122C73.3763 39.3704 73.4952 38.9246 73.4061 38.4788L71.9053 30.7075C71.2812 25.9229 67.1652 22.2972 62.3365 22.2972H55.4567C53.9757 22.2972 52.557 22.6296 51.2716 23.2566C51.6679 23.7078 52.061 24.2453 52.44 24.8443C53.2333 26.0979 54.0239 27.7151 54.7001 29.6196C55.7376 32.5411 56.5171 36.1698 56.6119 40.2471ZM21.9791 22.2972C23.5866 22.2972 25.1363 22.6942 26.5169 23.4389C26.452 23.5387 26.3872 23.6401 26.3226 23.7429C25.9693 24.3051 25.6088 24.9314 25.2501 25.6134C25.1762 25.7539 25.1024 25.8967 25.0287 26.0418C24.5203 27.0436 24.019 28.1544 23.5508 29.3502C22.3185 32.4969 21.2972 36.2761 20.99 40.2471H5.43931L5.48528 40.247C5.03953 40.247 4.62347 40.0539 4.34115 39.7121C4.05883 39.3703 3.93996 38.9097 4.02911 38.4788L5.54479 30.6183C6.15418 25.908 10.2701 22.2972 15.0993 22.2972H21.9791ZM21.9334 25.2843C22.3908 25.2843 22.8415 25.3292 23.2801 25.4179L21.9334 25.2843ZM28.5 30.7471L28.307 29.9194C29.8446 29.1112 32.1658 28.7007 34.4694 28.3306L28.5 30.7471Z" fill="black"/>
<path d="M28.7793 23.6845L28.5152 23.26L28.4346 23.3101L28.378 23.3863L28.7793 23.6845ZM28.016 24.807L28.4393 25.0731V25.0731L28.016 24.807ZM49.3833 24.1752L49.7247 23.8099L49.7036 23.7901L49.6803 23.773L49.3833 24.1752ZM50.75 25.9137L51.1725 25.6464V25.6464L50.75 25.9137ZM52.8154 30.2888L53.2866 30.1215L52.8154 30.2888ZM54.5497 43.2945L54.6875 43.7751L55.0257 43.6781L55.0486 43.327L54.5497 43.2945ZM22.9031 43.3112L22.4033 43.323L22.4124 43.7078L22.7866 43.7974L22.9031 43.3112ZM23.2877 37.8359L23.7816 37.9141V37.9141L23.2877 37.8359ZM25.4131 30.0795L24.9475 29.8972L25.4131 30.0795ZM27.4099 25.8278L27.8457 26.0729L27.4099 25.8278ZM56.6119 40.2471L56.112 40.2587L56.1234 40.7471H56.6119V40.2471ZM73.094 39.7122L72.7085 39.3938V39.3938L73.094 39.7122ZM73.4061 38.4788L72.9151 38.5737L72.9158 38.5769L73.4061 38.4788ZM71.9053 30.7075L71.4095 30.7722L71.4115 30.7873L71.4144 30.8023L71.9053 30.7075ZM51.2716 23.2566L51.0524 22.8072L50.4636 23.0943L50.8959 23.5865L51.2716 23.2566ZM52.44 24.8443L52.8625 24.5769V24.5769L52.44 24.8443ZM54.7001 29.6196L55.1713 29.4523L55.1713 29.4523L54.7001 29.6196ZM26.5169 23.4389L26.936 23.7116L27.2321 23.2565L26.7543 22.9988L26.5169 23.4389ZM26.3226 23.7429L26.7459 24.009L26.7459 24.009L26.3226 23.7429ZM25.2501 25.6134L25.6926 25.8462V25.8462L25.2501 25.6134ZM25.0287 26.0418L25.4746 26.2681L25.4746 26.2681L25.0287 26.0418ZM23.5508 29.3502L24.0163 29.5325L23.5508 29.3502ZM20.99 40.2471V40.7471H21.4529L21.4886 40.2857L20.99 40.2471ZM5.43931 40.2471L5.43827 39.7471L5.43931 40.7471V40.2471ZM5.48528 40.247L5.48631 40.747L5.48528 39.747V40.247ZM4.34115 39.7121L4.72664 39.3937L4.34115 39.7121ZM4.02911 38.4788L4.51879 38.5801L4.52007 38.5734L4.02911 38.4788ZM5.54479 30.6183L6.03575 30.713L6.03867 30.6978L6.04066 30.6824L5.54479 30.6183ZM21.9334 25.2843V24.7843L21.884 25.7819L21.9334 25.2843ZM23.2801 25.4179L23.2307 25.9155L23.3792 24.9279L23.2801 25.4179ZM28.307 29.9194L28.0744 29.4768L27.7323 29.6566L27.8201 30.0329L28.307 29.9194ZM28.5 30.7471L28.0131 30.8606L28.1458 31.4299L28.6876 31.2105L28.5 30.7471ZM34.4694 28.3306L34.657 28.7941L34.3901 27.8369L34.4694 28.3306ZM28.378 23.3863C28.1327 23.7163 27.8693 24.1008 27.5926 24.541L28.4393 25.0731C28.7036 24.6526 28.9524 24.2898 29.1806 23.9828L28.378 23.3863ZM34.6539 21.5C32.4098 21.5 30.3098 22.1435 28.5152 23.26L29.0434 24.1091C30.6862 23.0871 32.6042 22.5 34.6539 22.5V21.5ZM42.7967 21.5H34.6539V22.5H42.7967V21.5ZM49.6803 23.773C47.743 22.3425 45.3501 21.5 42.7967 21.5V22.5C45.128 22.5 47.3142 23.2689 49.0863 24.5774L49.6803 23.773ZM51.1725 25.6464C50.6434 24.8103 50.1451 24.2027 49.7247 23.8099L49.0419 24.5405C49.3826 24.8589 49.8291 25.3935 50.3274 26.1811L51.1725 25.6464ZM53.2866 30.1215C52.6425 28.3077 51.8983 26.7934 51.1725 25.6464L50.3274 26.1811C51.0084 27.2571 51.7216 28.7027 52.3443 30.4562L53.2866 30.1215ZM55.0486 43.327C55.3839 38.1746 54.5244 33.6073 53.2866 30.1215L52.3443 30.4562C53.5405 33.8248 54.3764 38.2563 54.0507 43.262L55.0486 43.327ZM54.1334 43.8526C54.3227 43.8526 54.509 43.8263 54.6875 43.7751L54.4118 42.8139C54.3234 42.8392 54.2299 42.8526 54.1334 42.8526V43.8526ZM23.2559 43.8526H54.1334V42.8526H23.2559V43.8526ZM22.7866 43.7974C22.939 43.8339 23.0963 43.8526 23.2559 43.8526V42.8526C23.1745 42.8526 23.0954 42.8431 23.0196 42.825L22.7866 43.7974ZM22.7939 37.7577C22.5074 39.5669 22.3586 41.439 22.4033 43.323L23.403 43.2994C23.36 41.483 23.5033 39.6715 23.7816 37.9141L22.7939 37.7577ZM24.9475 29.8972C24.03 32.24 23.2426 34.9245 22.7939 37.7577L23.7816 37.9141C24.2176 35.1609 24.984 32.5462 25.8786 30.2618L24.9475 29.8972ZM26.9741 25.5826C26.2889 26.8005 25.5883 28.2608 24.9475 29.8972L25.8786 30.2618C26.5033 28.6666 27.1843 27.2485 27.8457 26.0729L26.9741 25.5826ZM27.5926 24.541C27.389 24.865 27.1822 25.2128 26.9741 25.5826L27.8457 26.0729C28.0463 25.7164 28.2449 25.3825 28.4393 25.0731L27.5926 24.541ZM56.6119 40.7471H71.9499V39.7471H56.6119V40.7471ZM71.9499 40.7471C72.5422 40.7471 73.1006 40.4894 73.4795 40.0306L72.7085 39.3938C72.5229 39.6185 72.2492 39.7471 71.9499 39.7471V40.7471ZM73.4795 40.0306C73.8554 39.5756 74.0157 38.9775 73.8964 38.3808L72.9158 38.5769C72.9748 38.8718 72.8973 39.1653 72.7085 39.3938L73.4795 40.0306ZM73.897 38.384L72.3963 30.6127L71.4144 30.8023L72.9152 38.5736L73.897 38.384ZM72.4011 30.6428C71.7447 25.6099 67.4171 21.7972 62.3365 21.7972V22.7972C66.9134 22.7972 70.8178 26.2359 71.4095 30.7722L72.4011 30.6428ZM62.3365 21.7972H55.4567V22.7972H62.3365V21.7972ZM55.4567 21.7972C53.9 21.7972 52.4063 22.1468 51.0524 22.8072L51.4907 23.706C52.7077 23.1124 54.0515 22.7972 55.4567 22.7972V21.7972ZM50.8959 23.5865C51.2713 24.014 51.6491 24.5295 52.0175 25.1116L52.8625 24.5769C52.4728 23.9611 52.0644 23.4016 51.6472 22.9266L50.8959 23.5865ZM52.0175 25.1116C52.7883 26.3297 53.5634 27.9126 54.229 29.7869L55.1713 29.4523C54.4843 27.5176 53.6783 25.866 52.8625 24.5769L52.0175 25.1116ZM54.229 29.7869C55.2496 32.6612 56.0185 36.2374 56.112 40.2587L57.1118 40.2355C57.0156 36.1022 56.2255 32.421 55.1713 29.4523L54.229 29.7869ZM26.7543 22.9988C25.3009 22.2149 23.6697 21.7972 21.9791 21.7972V22.7972C23.5036 22.7972 24.9717 23.1735 26.2796 23.879L26.7543 22.9988ZM26.7459 24.009C26.8092 23.9083 26.8726 23.8091 26.936 23.7116L26.0978 23.1662C26.0314 23.2683 25.9652 23.3719 25.8992 23.4769L26.7459 24.009ZM25.6926 25.8462C26.0459 25.1746 26.4 24.5594 26.7459 24.009L25.8992 23.4769C25.5386 24.0508 25.1717 24.6883 24.8075 25.3807L25.6926 25.8462ZM25.4746 26.2681C25.5471 26.1252 25.6198 25.9845 25.6926 25.8462L24.8075 25.3807C24.7325 25.5233 24.6576 25.6683 24.5829 25.8155L25.4746 26.2681ZM24.0163 29.5325C24.4788 28.3515 24.9735 27.2553 25.4746 26.2681L24.5829 25.8155C24.067 26.8318 23.5592 27.9574 23.0852 29.1679L24.0163 29.5325ZM21.4886 40.2857C21.7912 36.373 22.7985 32.6425 24.0163 29.5325L23.0852 29.1679C21.8386 32.3513 20.8032 36.1792 20.4915 40.2085L21.4886 40.2857ZM5.43931 40.7471H20.99V39.7471H5.43931V40.7471ZM5.48424 39.747L5.43827 39.7471L5.44034 40.7471L5.48631 40.747L5.48424 39.747ZM3.95565 40.0305C4.33463 40.4893 4.89303 40.747 5.48528 40.747V39.747C5.18603 39.747 4.9123 39.6184 4.72664 39.3937L3.95565 40.0305ZM3.53948 38.3774C3.41873 38.9611 3.57958 39.5752 3.95565 40.0305L4.72664 39.3937C4.53808 39.1654 4.46118 38.8583 4.51874 38.5801L3.53948 38.3774ZM5.05383 30.5236L3.53816 38.3841L4.52007 38.5734L6.03575 30.713L5.05383 30.5236ZM15.0993 21.7972C10.0219 21.7972 5.69096 25.5915 5.04892 30.5541L6.04066 30.6824C6.6174 26.2244 10.5184 22.7972 15.0993 22.7972V21.7972ZM21.9791 21.7972H15.0993V22.7972H21.9791V21.7972ZM21.9334 25.7843C22.358 25.7843 22.7756 25.826 23.1809 25.908L23.3792 24.9279C22.9075 24.8324 22.4235 24.7843 21.9334 24.7843V25.7843ZM23.3295 24.9204L21.9827 24.7867L21.884 25.7819L23.2307 25.9155L23.3295 24.9204ZM27.8201 30.0329L28.0131 30.8606L28.9869 30.6335L28.794 29.8058L27.8201 30.0329ZM34.3901 27.8369C32.1096 28.2034 29.699 28.6229 28.0744 29.4768L28.5396 30.362C29.9902 29.5995 32.222 29.1981 34.5487 28.8243L34.3901 27.8369ZM28.6876 31.2105L34.657 28.7941L34.2818 27.8671L28.3124 30.2836L28.6876 31.2105Z" fill="black"/>
</g>
</svg>
