<svg width="76" height="76" viewBox="0 0 76 76" fill="none" xmlns="http://www.w3.org/2000/svg">
<mask id="mask0_7039_79516" style="mask-type:alpha" maskUnits="userSpaceOnUse" x="-1" y="-1" width="78" height="78">
<rect width="76" height="76" fill="white" stroke="white" stroke-width="2"/>
</mask>
<g mask="url(#mask0_7039_79516)">
<path d="M41.8368 15.9206L41.3762 18.6842C41.3592 18.7701 41.3671 18.859 41.399 18.9406C41.4308 19.0222 41.4852 19.093 41.5558 19.1448C41.6255 19.1962 41.7083 19.2269 41.7946 19.2334C41.881 19.24 41.9674 19.222 42.044 19.1816L44.5036 17.8597L46.9817 19.1632C47.0583 19.2036 47.1447 19.2215 47.2311 19.215C47.3174 19.2085 47.4002 19.1778 47.4699 19.1263C47.5405 19.0746 47.5949 19.0038 47.6267 18.9222C47.6586 18.8406 47.6665 18.7517 47.6495 18.6658L47.1889 15.9022L49.1925 13.9492C49.2525 13.8906 49.2954 13.8168 49.3165 13.7356C49.3376 13.6544 49.3361 13.569 49.3123 13.4886C49.2856 13.4068 49.2365 13.334 49.1705 13.2787C49.1046 13.2233 49.0244 13.1875 48.9392 13.1754L46.1756 12.7701L44.9182 10.2598C44.8805 10.182 44.8216 10.1163 44.7483 10.0703C44.6749 10.0244 44.5902 10 44.5036 10C44.4171 10 44.3323 10.0244 44.259 10.0703C44.1857 10.1163 44.1268 10.182 44.0891 10.2598L42.8501 12.7655L40.0865 13.1708C40.0012 13.1829 39.9211 13.2187 39.8552 13.2741C39.7892 13.3294 39.7401 13.4022 39.7134 13.484C39.6895 13.5644 39.6881 13.6498 39.7092 13.731C39.7303 13.8122 39.7732 13.886 39.8332 13.9446L41.8368 15.9206ZM43.2186 13.6544C43.2924 13.6434 43.3624 13.6145 43.4225 13.5704C43.4827 13.5263 43.5313 13.4682 43.564 13.4011L44.4852 11.5081L45.4064 13.4011C45.4392 13.4682 45.4877 13.5263 45.5479 13.5704C45.6081 13.6145 45.6781 13.6434 45.7519 13.6544L47.843 13.9584L46.346 15.4277C46.2935 15.48 46.2544 15.5441 46.232 15.6146C46.2095 15.6852 46.2044 15.7601 46.2171 15.8331L46.5717 17.915L44.7201 16.9109C44.6528 16.8776 44.5787 16.8603 44.5036 16.8603C44.4285 16.8603 44.3545 16.8776 44.2872 16.9109L42.4217 17.8966L42.7764 15.8146C42.7891 15.7417 42.7839 15.6668 42.7615 15.5962C42.739 15.5256 42.6999 15.4615 42.6474 15.4093L41.1321 13.9354L43.2186 13.6544ZM53.6235 18.7533L53.1629 21.5169C53.1464 21.6032 53.1551 21.6925 53.1877 21.7741C53.2203 21.8557 53.2757 21.9263 53.3471 21.9775C53.4138 22.0236 53.4916 22.0513 53.5725 22.0578C53.6533 22.0643 53.7345 22.0493 53.8077 22.0143L56.2903 20.7108L58.7822 21.9775C58.8498 22.0099 58.9237 22.0272 58.9987 22.0281C59.0663 22.0291 59.1334 22.0152 59.1951 21.9873C59.2568 21.9594 59.3115 21.9183 59.3555 21.8668C59.3995 21.8154 59.4316 21.7549 59.4495 21.6896C59.4675 21.6243 59.4708 21.5559 59.4593 21.4892L58.9987 18.7256L61.0023 16.7681C61.0623 16.7095 61.1051 16.6356 61.1262 16.5545C61.1473 16.4733 61.1459 16.3879 61.122 16.3075C61.0961 16.2248 61.0473 16.1511 60.9813 16.0948C60.9153 16.0386 60.8347 16.0022 60.7489 15.9897L57.9854 15.589L56.7463 13.0787C56.7086 13.0008 56.6497 12.9351 56.5764 12.8892C56.5031 12.8432 56.4183 12.8189 56.3318 12.8189C56.2453 12.8189 56.1605 12.8432 56.0872 12.8892C56.0139 12.9351 55.955 13.0008 55.9173 13.0787L54.6368 15.6028L51.8732 15.9897C51.7874 16.0022 51.7069 16.0386 51.6409 16.0948C51.5749 16.1511 51.5261 16.2248 51.5001 16.3075C51.4763 16.3879 51.4748 16.4733 51.4959 16.5545C51.517 16.6356 51.5599 16.7095 51.6199 16.7681L53.6235 18.7533ZM55.0053 16.4825C55.0786 16.4719 55.1483 16.4438 55.2085 16.4005C55.2686 16.3572 55.3174 16.3 55.3507 16.2338L56.2719 14.3407L57.1931 16.2338C57.2264 16.3 57.2753 16.3572 57.3354 16.4005C57.3955 16.4438 57.4652 16.4719 57.5386 16.4825L59.6297 16.7865L58.1143 18.2604C58.0611 18.3131 58.0216 18.378 57.9991 18.4494C57.9766 18.5209 57.9719 18.5967 57.9854 18.6704L58.34 20.7477L56.47 19.7666C56.405 19.7315 56.3319 19.7141 56.2581 19.7159C56.1829 19.7149 56.1086 19.7323 56.0416 19.7666L54.1992 20.7477L54.5539 18.6704C54.5673 18.5967 54.5626 18.5209 54.5401 18.4494C54.5177 18.378 54.4781 18.3131 54.4249 18.2604L52.9096 16.7865L55.0053 16.4825ZM30.0316 18.7533L29.571 21.5169C29.5556 21.6041 29.5656 21.694 29.5999 21.7757C29.6342 21.8574 29.6913 21.9274 29.7645 21.9775C29.8345 22.0179 29.9139 22.0392 29.9948 22.0392C30.0756 22.0392 30.1551 22.0179 30.2251 21.9775L32.7031 20.674L35.1903 21.9775C35.2559 22.011 35.3285 22.0284 35.4022 22.0281C35.4998 22.0285 35.5949 21.9978 35.674 21.9406C35.7454 21.8894 35.8007 21.8188 35.8334 21.7372C35.866 21.6556 35.8746 21.5664 35.8582 21.48L35.3976 18.7164L37.4012 16.7589C37.4612 16.7003 37.5041 16.6264 37.5252 16.5452C37.5463 16.4641 37.5448 16.3787 37.521 16.2983C37.4925 16.2153 37.441 16.1423 37.3725 16.0876C37.3039 16.0329 37.2212 15.999 37.1341 15.9897L34.3705 15.589L33.1315 13.0787C33.0937 13.0008 33.0348 12.9351 32.9615 12.8892C32.8882 12.8432 32.8034 12.8189 32.7169 12.8189C32.6304 12.8189 32.5456 12.8432 32.4723 12.8892C32.399 12.9351 32.3401 13.0008 32.3024 13.0787L31.0542 15.6028L28.2906 16.0035C28.2048 16.016 28.1242 16.0524 28.0582 16.1087C27.9922 16.1649 27.9434 16.2386 27.9175 16.3213C27.8936 16.4017 27.8922 16.4871 27.9133 16.5683C27.9344 16.6494 27.9772 16.7233 28.0372 16.7819L30.0316 18.7533ZM31.4134 16.4825C31.4868 16.4719 31.5565 16.4438 31.6166 16.4005C31.6767 16.3572 31.7255 16.3 31.7589 16.2338L32.6801 14.3407L33.6013 16.2338C33.6346 16.3 33.6834 16.3572 33.7435 16.4005C33.8037 16.4438 33.8734 16.4719 33.9467 16.4825L36.0378 16.7865L34.5225 18.2604C34.4693 18.3131 34.4297 18.378 34.4072 18.4494C34.3848 18.5209 34.38 18.5967 34.3935 18.6704L34.7482 20.7477L32.8827 19.7666C32.8158 19.7323 32.7415 19.7149 32.6662 19.7159C32.5924 19.7141 32.5194 19.7315 32.4544 19.7666L30.5843 20.7477L30.939 18.6704C30.9524 18.5967 30.9477 18.5209 30.9253 18.4494C30.9028 18.378 30.8632 18.3131 30.81 18.2604L29.2947 16.7865L31.4134 16.4825Z" fill="black"/>
<path d="M41.0816 51.5544H16.9288C15.8636 51.5544 15 52.4181 15 53.4832V70.295C15 70.6837 15.3095 70.9931 15.6981 70.9931H42.3193C42.7007 70.9931 43.0174 70.6837 43.0174 70.295V53.4832C43.0174 52.4181 42.1396 51.5544 41.0816 51.5544ZM41.6214 69.597H16.3963V53.4834C16.3963 53.1884 16.6338 52.9509 16.9288 52.9509H41.0817C41.3767 52.9509 41.6214 53.1884 41.6214 53.4834L41.6214 69.597Z" fill="black"/>
<path d="M23.789 67.1933C23.5875 67.1933 23.3788 67.107 23.2421 66.9342L19.0535 61.7092C18.852 61.4573 18.852 61.0903 19.0535 60.8384L23.2421 55.6134C23.4868 55.3111 23.9258 55.2679 24.2208 55.5054C24.5231 55.7501 24.5663 56.1891 24.3288 56.4842L20.4929 61.2703L24.336 66.0564C24.5735 66.3586 24.5303 66.7976 24.2281 67.0351C24.0985 67.1431 23.9474 67.1933 23.789 67.1933Z" fill="black"/>
<path d="M34.215 67.1932C34.0638 67.1932 33.9055 67.1428 33.776 67.0421C33.4737 66.7974 33.4305 66.3583 33.668 66.0633L37.5112 61.2772L33.668 56.4911C33.4305 56.1889 33.4737 55.7498 33.776 55.5123C34.0782 55.2677 34.5173 55.318 34.7547 55.6203L38.9433 60.8453C39.1448 61.0972 39.1448 61.4643 38.9433 61.7161L34.7547 66.9412C34.6252 67.1067 34.4237 67.1932 34.215 67.1932Z" fill="black"/>
<path d="M26.7903 67.1933C26.6967 67.1933 26.6104 67.1717 26.5168 67.1357C26.1641 66.9846 25.9986 66.5744 26.1498 66.2217L30.583 55.7717C30.7341 55.419 31.1444 55.2535 31.497 55.4046C31.8497 55.5558 32.0152 55.966 31.8641 56.3186L27.4308 66.7687C27.3157 67.035 27.0565 67.1933 26.7903 67.1933Z" fill="black"/>
<path d="M44.485 42.1696C40.1309 42.1696 36.5898 38.6288 36.5898 34.2745C36.5898 29.9202 40.1307 26.3794 44.485 26.3794C48.8392 26.3794 52.3801 29.9202 52.3801 34.2745C52.3801 38.6288 48.8392 42.1696 44.485 42.1696ZM44.485 27.7759C40.901 27.7759 37.9864 30.6906 37.9864 34.2745C37.9864 37.8584 40.9011 40.7731 44.485 40.7731C48.0688 40.7731 50.9835 37.8584 50.9835 34.2745C50.9835 30.6906 48.0688 27.7759 44.485 27.7759Z" fill="black"/>
<path d="M44.4777 46.5305C39.8789 46.5305 35.719 48.4593 32.7758 51.5538C32.3511 51.9928 31.9481 52.4606 31.5811 52.95H33.4378C33.8768 52.4534 34.3518 51.9856 34.8556 51.5538C37.4393 49.3228 40.8074 47.9698 44.478 47.9698C52.6177 47.9698 59.2314 54.5909 59.2314 62.7232V69.5604H41.6209V69.5963H28.2852V70.2801C28.2852 70.6543 28.573 70.9566 28.9329 70.9925C28.9616 70.9997 28.9904 70.9997 29.0048 70.9997H59.9515C60.3545 70.9997 60.6712 70.6759 60.6712 70.2801V62.7235C60.6712 53.792 53.4168 46.5307 44.4784 46.5307L44.4777 46.5305Z" fill="black"/>
</g>
</svg>
