<svg width="80" height="80" viewBox="0 0 80 80" fill="none" xmlns="http://www.w3.org/2000/svg">
<mask id="mask0_7380_56177" style="mask-type:alpha" maskUnits="userSpaceOnUse" x="-1" y="-1" width="82" height="82">
<rect width="80" height="80" fill="white" stroke="white" stroke-width="2"/>
</mask>
<g mask="url(#mask0_7380_56177)">
<path d="M40.0027 24.9873C31.8593 24.9873 25.2344 31.6122 25.2344 39.7549C25.2344 47.8985 31.8593 54.5232 40.0027 54.5232C48.1457 54.5232 54.7703 47.8985 54.7703 39.755C54.7703 31.6121 48.1457 24.9873 40.0027 24.9873ZM48.7706 36.9739L38.1908 47.5536C37.9798 47.7652 37.7291 47.933 37.4531 48.0474C37.177 48.1618 36.8811 48.2205 36.5823 48.2202C36.2836 48.2206 35.9878 48.1619 35.7119 48.0475C35.436 47.9331 35.1854 47.7653 34.9746 47.5536L30.9314 43.5106C30.0433 42.623 30.0433 41.1831 30.9314 40.2949C31.819 39.4067 33.259 39.4067 34.1472 40.2949L36.5823 42.7301L45.5549 33.7582C46.4425 32.8699 47.8824 32.8699 48.7706 33.7582C49.6588 34.6458 49.6588 36.0858 48.7706 36.9739Z" fill="black"/>
<path d="M72.9261 22.0296L72.9238 21.9694C72.8886 21.1669 72.8653 20.364 72.854 19.5609C72.7907 15.2871 69.3934 11.752 65.1192 11.5133C56.2076 11.0158 49.3137 8.11 43.4234 2.36859L43.3731 2.32076C41.4517 0.559097 38.5536 0.559097 36.6317 2.32076L36.5814 2.36859C30.691 8.11 23.7971 11.0158 14.8856 11.5137C10.612 11.752 7.21403 15.2873 7.15075 19.5613C7.13964 20.3643 7.11643 21.1671 7.08111 21.9694L7.07748 22.1094C6.90414 31.1967 6.68887 42.5062 10.4723 52.7713C12.5528 58.4164 15.7034 63.3232 19.8363 67.3569C24.5435 71.9505 30.7087 75.5973 38.1609 78.1957C38.4062 78.281 38.6571 78.3493 38.9118 78.4002C39.2738 78.4724 39.6382 78.5085 40.0024 78.5085C40.3666 78.5085 40.7315 78.4724 41.0928 78.4002C41.3485 78.349 41.6004 78.2802 41.8467 78.1943C49.29 75.5913 55.4489 71.9428 60.1518 67.3498C64.2831 63.3151 67.4337 58.4069 69.5158 52.7607C73.3135 42.4647 73.0988 31.1339 72.9261 22.0296ZM40.0012 59.0715C29.3498 59.0715 20.6848 50.4065 20.6848 39.7553C20.6848 29.1038 29.3499 20.4389 40.0012 20.4389C50.652 20.4389 59.3175 29.1038 59.3175 39.7553C59.3175 50.4067 50.652 59.0715 40.0012 59.0715Z" fill="black"/>
</g>
</svg>
