<svg width="80" height="80" viewBox="0 0 80 80" fill="none" xmlns="http://www.w3.org/2000/svg">
<mask id="mask0_7380_56189" style="mask-type:alpha" maskUnits="userSpaceOnUse" x="-1" y="-1" width="82" height="82">
<rect width="80" height="80" fill="white" stroke="white" stroke-width="2"/>
</mask>
<g mask="url(#mask0_7380_56189)">
<path fill-rule="evenodd" clip-rule="evenodd" d="M22.0216 80H58.9784C61.37 79.9973 63.6629 79.0619 65.3541 77.3991C67.0454 75.7364 67.9969 73.4819 68 71.1302V8.87109C67.9969 6.51926 67.0455 4.26462 65.3542 2.60162C63.663 0.938618 61.3701 0.00301812 58.9784 0L22.0216 0C19.6298 0.00281184 17.3368 0.938345 15.6455 2.60139C13.9543 4.26443 13.0029 6.5192 13 8.87109V71.1302C13.0029 73.4819 13.9544 75.7365 15.6457 77.3993C17.337 79.0621 19.6299 79.9974 22.0216 80ZM42.3008 44.6847L47.0658 40L42.301 35.3148C42.1002 35.1207 41.9406 34.8894 41.8312 34.6343C41.7218 34.3792 41.6649 34.1053 41.6637 33.8285C41.6625 33.5516 41.7171 33.2773 41.8243 33.0213C41.9315 32.7653 42.0892 32.5327 42.2883 32.3369C42.4874 32.1411 42.7239 31.986 42.9842 31.8806C43.2446 31.7752 43.5236 31.7215 43.8051 31.7227C44.0867 31.7238 44.3652 31.7798 44.6247 31.8873C44.8841 31.9948 45.1193 32.1518 45.3168 32.3492L50.0817 37.0353L54.844 32.3495C55.2451 31.9618 55.7858 31.7455 56.3483 31.7479C56.9108 31.7503 57.4496 31.9712 57.8473 32.3624C58.245 32.7536 58.4694 33.2835 58.4716 33.8366C58.4739 34.3897 58.2538 34.9213 57.8593 35.3156L53.0977 40L57.8594 44.6839C58.2539 45.0783 58.4739 45.6099 58.4716 46.163C58.4693 46.7161 58.2449 47.246 57.8471 47.6371C57.4494 48.0283 56.9106 48.2491 56.3481 48.2514C55.7856 48.2538 55.2449 48.0375 54.8438 47.6497L50.0817 42.9661L45.3169 47.65C45.1195 47.8474 44.8843 48.0044 44.6249 48.112C44.3654 48.2196 44.0869 48.2755 43.8054 48.2767C43.5238 48.2779 43.2448 48.2242 42.9844 48.1189C42.7241 48.0135 42.4875 47.8584 42.2884 47.6627C42.0893 47.4669 41.9316 47.2343 41.8244 46.9783C41.7172 46.7223 41.6625 46.448 41.6637 46.1711C41.6649 45.8943 41.7217 45.6204 41.8311 45.3653C41.9404 45.1101 42.1001 44.8788 42.3008 44.6847ZM22.5147 40.8269V33.8281C22.5147 33.2721 22.7393 32.7389 23.1391 32.3457C23.5389 31.9526 24.0812 31.7317 24.6466 31.7317C25.2121 31.7317 25.7543 31.9526 26.1542 32.3457C26.554 32.7389 26.7786 33.2721 26.7786 33.8281V40.8264C26.7786 41.688 27.1267 42.5144 27.7463 43.1236C28.3659 43.7329 29.2062 44.0752 30.0825 44.0752C30.9587 44.0752 31.7991 43.7329 32.4187 43.1236C33.0382 42.5144 33.3863 41.688 33.3863 40.8264V33.8281C33.3839 33.5512 33.4373 33.2766 33.5433 33.0201C33.6494 32.7636 33.8061 32.5303 34.0044 32.3336C34.2026 32.137 34.4386 31.9809 34.6985 31.8744C34.9584 31.7678 35.2372 31.713 35.5189 31.713C35.8005 31.713 36.0793 31.7678 36.3392 31.8744C36.5992 31.9809 36.8351 32.137 37.0333 32.3336C37.2316 32.5303 37.3883 32.7636 37.4944 33.0201C37.6005 33.2766 37.6538 33.5512 37.6514 33.8281V40.8264C37.656 41.8066 37.4636 42.778 37.0853 43.6849C36.707 44.5917 36.1502 45.4162 35.447 46.1109C34.7437 46.8055 33.9079 47.3568 32.9874 47.7329C32.0668 48.1091 31.0798 48.3027 30.083 48.3027C29.0862 48.3027 28.0992 48.1091 27.1787 47.7329C26.2582 47.3568 25.4223 46.8055 24.7191 46.1109C24.0158 45.4162 23.4591 44.5917 23.0808 43.6849C22.7025 42.778 22.5101 41.8066 22.5147 40.8264V40.8269ZM42.6332 65.8073C42.6333 66.2221 42.5082 66.6276 42.274 66.9725C42.0397 67.3175 41.7067 67.5864 41.317 67.7452C40.9274 67.9041 40.4986 67.9458 40.0848 67.865C39.671 67.7843 39.2909 67.5848 38.9925 67.2916C38.694 66.9985 38.4906 66.625 38.4081 66.2182C38.3255 65.8115 38.3674 65.3898 38.5284 65.0064C38.6895 64.6231 38.9626 64.2953 39.3131 64.0645C39.6636 63.8337 40.0758 63.7103 40.4976 63.7098H40.5013C40.7813 63.7098 41.0587 63.7641 41.3174 63.8695C41.5761 63.975 41.8112 64.1295 42.0092 64.3243C42.2072 64.519 42.3642 64.7503 42.4713 65.0047C42.5784 65.2592 42.6334 65.5319 42.6332 65.8073Z" fill="black"/>
</g>
</svg>
