<svg width="76" height="76" viewBox="0 0 76 76" fill="none" xmlns="http://www.w3.org/2000/svg">
<mask id="mask0_7039_79533" style="mask-type:alpha" maskUnits="userSpaceOnUse" x="-1" y="-1" width="78" height="78">
<rect width="76" height="76" fill="white" stroke="white" stroke-width="2"/>
</mask>
<g mask="url(#mask0_7039_79533)">
<path d="M27.872 31.0951C28.3476 31.3686 28.9459 31.2979 29.3439 30.9203C30.7873 29.5513 32.5499 28.5358 34.4422 27.9834C34.971 27.829 35.3343 27.3441 35.3343 26.793V23.8535H40.6732V26.793C40.6732 27.4774 41.2287 28.033 41.9132 28.033C42.5976 28.033 43.1532 27.4774 43.1532 26.793V22.6135C43.1532 21.9291 42.5976 21.3735 41.9132 21.3735H34.0943C33.4099 21.3735 32.8543 21.9291 32.8543 22.6135V25.8946C31.2157 26.4892 29.6781 27.3751 28.3333 28.4998L25.4751 26.8562C24.883 26.5152 24.1266 26.7179 23.7837 27.3094L19.874 34.0618C19.7091 34.3464 19.6645 34.6862 19.7494 35.0042C19.8343 35.3223 20.0433 35.5939 20.3291 35.7575L23.1823 37.3987C23.0317 38.2512 22.9554 39.1223 22.9554 39.9996C22.9554 40.8769 23.0317 41.748 23.1823 42.6005L20.3291 44.2416C20.0433 44.4059 19.835 44.6769 19.7494 44.9949C19.6638 45.313 19.7091 45.6527 19.874 45.9373L23.7837 52.6897C24.0138 53.0872 24.4298 53.3091 24.8582 53.3091C25.0678 53.3091 25.2804 53.2558 25.4751 53.1436L29.1077 51.0536C29.7016 50.7119 29.9056 49.9543 29.564 49.361C29.223 48.767 28.4641 48.5624 27.8714 48.9046L25.3102 50.3778L22.6436 45.7718L25.1986 44.3018C25.6766 44.0271 25.9159 43.4685 25.7851 42.9328C25.5532 41.9842 25.4354 40.9972 25.4354 40.0002C25.4354 39.0032 25.5532 38.0162 25.7851 37.0676C25.9159 36.5313 25.6772 35.9733 25.1986 35.6986L22.6436 34.2286L25.3102 29.6226L27.872 31.0951Z" fill="black"/>
<path d="M56.251 35.0032C56.3365 34.6852 56.2913 34.346 56.1264 34.0608L52.2166 27.3084C51.8744 26.7169 51.118 26.5148 50.5247 26.8552L46.8964 28.9452C46.3031 29.2868 46.0991 30.0451 46.4407 30.6384C46.7823 31.2318 47.5406 31.4357 48.1339 31.0941L50.6914 29.6216L53.3581 34.2276L50.8055 35.697C50.3275 35.9723 50.0888 36.5303 50.2196 37.066C50.4515 38.0146 50.5693 39.0016 50.5693 39.9986C50.5693 40.9955 50.4515 41.9826 50.2196 42.9312C50.0888 43.4668 50.3275 44.0248 50.8055 44.3001L53.3581 45.7695L50.6914 50.3755L48.1339 48.903C47.6584 48.6296 47.0595 48.7003 46.6621 49.0778C45.2193 50.4456 43.4554 51.463 41.5613 52.0191C41.0331 52.1741 40.6704 52.6583 40.6704 53.2089V56.1452H35.3316V53.2089C35.3316 52.5244 34.776 51.9689 34.0916 51.9689C33.4071 51.9689 32.8516 52.5244 32.8516 53.2089V57.3852C32.8516 58.0697 33.4071 58.6252 34.0916 58.6252H41.9104C42.5949 58.6252 43.1504 58.0697 43.1504 57.3852V54.106C44.7897 53.5096 46.3273 52.6224 47.6708 51.4983L50.5253 53.1419C51.1186 53.4836 51.875 53.2808 52.2173 52.6887L56.127 45.9363C56.2919 45.6517 56.3365 45.3126 56.2516 44.9939C56.1667 44.6758 55.9583 44.4043 55.6725 44.24L52.8224 42.5995C52.973 41.747 53.0493 40.8752 53.0493 39.9979C53.0493 39.1206 52.973 38.2489 52.8224 37.3964L55.6725 35.7559C55.9577 35.5928 56.166 35.3219 56.251 35.0032Z" fill="black"/>
<path d="M55.856 16.6601C56.5405 16.6601 57.096 16.1046 57.096 15.4201V10.24C57.096 9.55552 56.5405 9 55.856 9C55.1715 9 54.616 9.55552 54.616 10.24V14.1801H51.144V10.24C51.144 9.55552 50.5885 9 49.904 9C49.2195 9 48.664 9.55552 48.664 10.24V14.1801H45.192V10.24C45.192 9.55552 44.6365 9 43.952 9C43.2675 9 42.712 9.55552 42.712 10.24V14.1801H39.24V10.24C39.24 9.55552 38.6845 9 38 9C37.3155 9 36.76 9.55552 36.76 10.24V14.1801H33.288V10.24C33.288 9.55552 32.7325 9 32.048 9C31.3635 9 30.808 9.55552 30.808 10.24V14.1801H27.3354V10.24C27.3354 9.55552 26.7799 9 26.0954 9C25.4109 9 24.8554 9.55552 24.8554 10.24V14.1801H21.3834V10.24C21.3834 9.55552 20.8279 9 20.1434 9C19.4589 9 18.9034 9.55552 18.9034 10.24V14.1801H13.4201C12.7356 14.1801 12.1801 14.7356 12.1801 15.4201V20.904H8.24C7.55552 20.904 7 21.4595 7 22.144C7 22.8285 7.55552 23.384 8.24 23.384H12.1801V26.856H8.24C7.55552 26.856 7 27.4115 7 28.096C7 28.7805 7.55552 29.336 8.24 29.336H12.1801V32.808H8.24C7.55552 32.808 7 33.3635 7 34.048C7 34.7325 7.55552 35.288 8.24 35.288H12.1801V38.76H8.24C7.55552 38.76 7 39.3155 7 40C7 40.6845 7.55552 41.24 8.24 41.24H12.1801V44.712H8.24C7.55552 44.712 7 45.2675 7 45.952C7 46.6365 7.55552 47.192 8.24 47.192H12.1801V50.664H8.24C7.55552 50.664 7 51.2195 7 51.904C7 52.5885 7.55552 53.144 8.24 53.144H12.1801V56.616H8.24C7.55552 56.616 7 57.1715 7 57.856C7 58.5405 7.55552 59.096 8.24 59.096H12.1801V64.5793C12.1801 65.2638 12.7356 65.8193 13.4201 65.8193C14.1046 65.8193 14.6601 65.2638 14.6601 64.5793V16.6601H55.856Z" fill="black"/>
<path d="M67.759 29.3364C68.4434 29.3364 68.999 28.7809 68.999 28.0964C68.999 27.412 68.4434 26.8564 67.759 26.8564H63.8182V23.3844H67.759C68.4434 23.3844 68.999 22.8289 68.999 22.1444C68.999 21.46 68.4434 20.9044 67.759 20.9044H63.8182V15.4212C63.8182 14.7367 63.2627 14.1812 62.5782 14.1812C61.8938 14.1812 61.3382 14.7367 61.3382 15.4212V63.3403H20.1423C19.4579 63.3403 18.9023 63.8958 18.9023 64.5803V69.7604C18.9023 70.4449 19.4579 71.0004 20.1423 71.0004C20.8268 71.0004 21.3823 70.4449 21.3823 69.7604V65.8203H24.8543V69.7604C24.8543 70.4449 25.4099 71.0004 26.0943 71.0004C26.7788 71.0004 27.3343 70.4449 27.3343 69.7604V65.8203H30.807V69.7604C30.807 70.4449 31.3625 71.0004 32.047 71.0004C32.7314 71.0004 33.287 70.4449 33.287 69.7604V65.8203H36.759V69.7604C36.759 70.4449 37.3145 71.0004 37.999 71.0004C38.6834 71.0004 39.239 70.4449 39.239 69.7604V65.8203H42.711V69.7604C42.711 70.4449 43.2665 71.0004 43.951 71.0004C44.6354 71.0004 45.191 70.4449 45.191 69.7604V65.8203H48.663V69.7604C48.663 70.4449 49.2185 71.0004 49.903 71.0004C50.5874 71.0004 51.143 70.4449 51.143 69.7604V65.8203H54.615V69.7604C54.615 70.4449 55.1705 71.0004 55.855 71.0004C56.5394 71.0004 57.095 70.4449 57.095 69.7604V65.8203H62.5782C63.2627 65.8203 63.8182 65.2648 63.8182 64.5803V59.0964H67.759C68.4434 59.0964 68.999 58.5409 68.999 57.8564C68.999 57.172 68.4434 56.6164 67.759 56.6164H63.8182V53.1444H67.759C68.4434 53.1444 68.999 52.5889 68.999 51.9044C68.999 51.2199 68.4434 50.6644 67.759 50.6644H63.8182V47.1924H67.759C68.4434 47.1924 68.999 46.6369 68.999 45.9524C68.999 45.2679 68.4434 44.7124 67.759 44.7124H63.8182V41.2404H67.759C68.4434 41.2404 68.999 40.6849 68.999 40.0004C68.999 39.316 68.4434 38.7604 67.759 38.7604H63.8182V35.2884H67.759C68.4434 35.2884 68.999 34.7329 68.999 34.0484C68.999 33.364 68.4434 32.8084 67.759 32.8084H63.8182V29.3364H67.759Z" fill="black"/>
<path d="M38.0017 47.767C42.2847 47.767 45.7685 44.2826 45.7685 39.9997C45.7685 35.7167 42.2847 32.2329 38.0017 32.2329C33.7188 32.2329 30.2344 35.7167 30.2344 39.9997C30.2344 44.2826 33.7188 47.767 38.0017 47.767ZM38.0017 34.7129C40.917 34.7129 43.2885 37.0844 43.2885 39.9997C43.2885 42.9149 40.917 45.287 38.0017 45.287C35.0865 45.287 32.7144 42.9149 32.7144 39.9997C32.7144 37.0844 35.0865 34.7129 38.0017 34.7129Z" fill="black"/>
</g>
</svg>
