<svg width="80" height="80" viewBox="0 0 80 80" fill="none" xmlns="http://www.w3.org/2000/svg">
<mask id="mask0_7380_56172" style="mask-type:alpha" maskUnits="userSpaceOnUse" x="-1" y="-1" width="82" height="82">
<rect width="80" height="80" fill="white" stroke="white" stroke-width="2"/>
</mask>
<g mask="url(#mask0_7380_56172)">
<path d="M42.8636 0.010376H8.58677C6.31408 0.010376 4.13447 0.9132 2.52744 2.52024C0.920402 4.12727 0.0175781 6.30688 0.0175781 8.57957V71.4204C0.0175781 73.6931 0.920402 75.8727 2.52744 77.4797C4.13447 79.0867 6.31408 79.9896 8.58677 79.9896H42.8636C45.1363 79.9896 47.3159 79.0867 48.9229 77.4797C50.5299 75.8727 51.4328 73.6931 51.4328 71.4204V8.57957C51.4328 6.30688 50.5299 4.12727 48.9229 2.52024C47.3159 0.9132 45.1363 0.010376 42.8636 0.010376ZM48.5764 69.9922C48.5764 73.9283 45.3743 77.1332 41.4354 77.1332H10.015C8.12176 77.1309 6.30674 76.3778 4.96803 75.0391C3.62933 73.7004 2.87625 71.8854 2.87398 69.9922V10.0078C2.87398 6.07166 6.07886 2.86678 10.015 2.86678H41.4354C45.3743 2.86678 48.5764 6.07166 48.5764 10.0078V69.9922Z" fill="black"/>
<path d="M41.4355 5.72314H31.4381C31.4381 7.23827 30.8362 8.69135 29.7648 9.7627C28.6935 10.8341 27.2404 11.4359 25.7253 11.4359C24.2101 11.4359 22.7571 10.8341 21.6857 9.7627C20.6143 8.69135 20.0125 7.23827 20.0125 5.72314H10.0151C7.65283 5.72314 5.73047 7.6455 5.73047 10.0077V69.9921C5.73047 72.3544 7.65283 74.2767 10.0151 74.2767H41.4355C43.7977 74.2767 45.7201 72.3544 45.7201 69.9921V10.0077C45.7201 7.6455 43.7977 5.72314 41.4355 5.72314ZM22.3833 48.9233C22.6681 49.1733 22.842 49.5262 22.8666 49.9044C22.8913 50.2826 22.7647 50.6551 22.5147 50.9399C22.2647 51.2248 21.9118 51.3987 21.5336 51.4233C21.1554 51.4479 20.7829 51.3213 20.4981 51.0713L9.07246 41.0739C8.91953 40.9399 8.797 40.7747 8.71305 40.5895C8.6291 40.4043 8.58567 40.2033 8.58567 39.9999C8.58567 39.7966 8.6291 39.5956 8.71305 39.4104C8.797 39.2251 8.91953 39.06 9.07246 38.9259L20.4981 28.9285C20.7836 28.6816 21.1553 28.5578 21.5319 28.5841C21.9084 28.6105 22.2593 28.7848 22.5077 29.0691C22.7561 29.3533 22.8818 29.7244 22.8574 30.1011C22.8331 30.4778 22.6605 30.8295 22.3776 31.0794L12.1859 39.9999L22.3833 48.9233ZM42.3781 41.0739L30.9525 51.0713C30.8118 51.1961 30.6478 51.2917 30.4699 51.3526C30.2919 51.4134 30.1037 51.4383 29.9161 51.4258C29.7285 51.4133 29.5452 51.3637 29.3769 51.2798C29.2087 51.1959 29.0587 51.0794 28.9359 50.9371C28.6869 50.6521 28.5612 50.28 28.5864 49.9024C28.6115 49.5249 28.7855 49.1727 29.0701 48.9233L39.2646 39.9999L29.0672 31.0765C28.7992 30.8228 28.6398 30.4751 28.6225 30.1064C28.6051 29.7377 28.7312 29.3767 28.9742 29.0989C29.2173 28.8211 29.5585 28.6482 29.9262 28.6164C30.2939 28.5847 30.6597 28.6965 30.9468 28.9285L42.3724 38.9259C42.5253 39.06 42.6478 39.2251 42.7318 39.4104C42.8157 39.5956 42.8591 39.7966 42.8591 39.9999C42.8591 40.2033 42.8157 40.4043 42.7318 40.5895C42.6478 40.7747 42.5253 40.9399 42.3724 41.0739H42.3781ZM78.5429 45.4185L74.5183 43.1477C74.6754 42.0851 74.7525 41.034 74.7525 39.9999C74.7525 38.9659 74.6754 37.9148 74.5183 36.8522L78.5458 34.5813C78.8769 34.3948 79.1675 34.144 79.4005 33.8437C79.6334 33.5434 79.8041 33.1996 79.9025 32.8325C80.001 32.4654 80.0252 32.0824 79.9737 31.7058C79.9222 31.3292 79.796 30.9667 79.6027 30.6395L73.7499 20.7478C73.3695 20.1045 72.752 19.6359 72.03 19.4426C71.308 19.2493 70.5391 19.3466 69.888 19.7138L65.792 22.0275C64.0639 20.6984 62.1595 19.6159 60.1334 18.8112V14.2923C60.1334 13.5348 59.8325 12.8082 59.2968 12.2726C58.7611 11.7369 58.0346 11.4359 57.277 11.4359H54.2893V28.5743C57.3195 28.5743 60.2257 29.7781 62.3684 31.9208C64.5111 34.0635 65.7148 36.9697 65.7148 39.9999C65.7148 43.0302 64.5111 45.9363 62.3684 48.0791C60.2257 50.2218 57.3195 51.4255 54.2893 51.4255V68.5639H57.2799C58.0375 68.5639 58.764 68.263 59.2997 67.7273C59.8354 67.1916 60.1363 66.4651 60.1363 65.7075V61.1944C62.1618 60.3885 64.0661 59.3061 65.7948 57.9781L69.8909 60.2889C70.5419 60.6561 71.3109 60.7535 72.0329 60.5602C72.7549 60.3669 73.3723 59.8983 73.7528 59.2549L79.5998 49.3604C79.7932 49.0332 79.9193 48.6707 79.9708 48.2941C80.0223 47.9175 79.9981 47.5345 79.8997 47.1674C79.8013 46.8002 79.6306 46.4565 79.3976 46.1562C79.1646 45.8559 78.8741 45.6051 78.5429 45.4185Z" fill="black"/>
</g>
</svg>
