<svg width="77" height="76" viewBox="0 0 77 76" fill="none" xmlns="http://www.w3.org/2000/svg">
<mask id="mask0_7039_79541" style="mask-type:alpha" maskUnits="userSpaceOnUse" x="0" y="-1" width="78" height="78">
<rect x="1" width="76" height="76" fill="white" stroke="white" stroke-width="2"/>
</mask>
<g mask="url(#mask0_7039_79541)">
<path d="M43.9251 43.8205C43.9251 41.0529 41.6793 38.8071 38.9118 38.8071C36.1443 38.8071 33.8984 41.0529 33.8984 43.8205C33.8984 46.588 36.1443 48.8338 38.9118 48.8338C41.6793 48.8338 43.9251 46.588 43.9251 43.8205ZM38.9049 47.5737C36.8318 47.5737 35.1517 45.8901 35.1517 43.8205C35.1517 41.7474 36.8352 40.0672 38.9049 40.0672C40.978 40.0672 42.6581 41.7508 42.6581 43.8205C42.6581 45.8935 40.9746 47.5737 38.9049 47.5737Z" fill="black"/>
<path d="M29.7874 59.9854C30.1329 59.9854 30.4209 59.7076 30.4209 59.3519V54.3555C30.4209 52.3434 32.0603 50.7039 34.0725 50.7039H35.4681C35.8136 50.7039 36.1015 50.4261 36.1015 50.0705C36.1015 49.7148 35.8238 49.437 35.4681 49.437H34.0725C31.3659 49.437 29.1641 51.6389 29.1641 54.3454V59.3418C29.1641 59.6873 29.4418 59.9753 29.7975 59.9753L29.7874 59.9854Z" fill="black"/>
<path d="M33.8906 56.6959V59.3584C33.8906 59.704 34.1684 59.9919 34.5241 59.9919C34.8798 59.9919 35.1575 59.7141 35.1575 59.3584V56.6959C35.1575 56.3504 34.8798 56.0625 34.5241 56.0625C34.1684 56.0625 33.8906 56.3403 33.8906 56.6959Z" fill="black"/>
<path d="M42.3561 49.457C42.0106 49.457 41.7227 49.7348 41.7227 50.0905C41.7227 50.4462 42.0004 50.7239 42.3561 50.7239H43.7517C45.7639 50.7239 47.4033 52.3634 47.4033 54.3755V59.3719C47.4033 59.7175 47.6811 60.0054 48.0368 60.0054C48.3925 60.0054 48.6702 59.7276 48.6702 59.3719V54.3755C48.6702 51.669 46.4684 49.4671 43.7618 49.4671H42.3662L42.3561 49.457Z" fill="black"/>
<path d="M43.2897 56.0625C42.9442 56.0625 42.6562 56.3403 42.6562 56.6959V59.3584C42.6562 59.704 42.934 59.9919 43.2897 59.9919C43.6454 59.9919 43.9231 59.7141 43.9231 59.3584V56.6959C43.9231 56.3504 43.6454 56.0625 43.2897 56.0625Z" fill="black"/>
<path d="M51.7779 56.3567C51.4662 56.2077 51.0936 56.3398 50.9378 56.6514C50.7888 56.9631 50.9209 57.3357 51.2325 57.4915C52.8991 58.2808 53.807 59.1919 53.807 60.0591C53.807 62.2948 47.6859 64.7845 38.8924 64.7845C30.0989 64.7845 23.9778 62.2948 23.9778 60.0591C23.9778 59.2021 24.8958 58.2909 26.5523 57.4915C26.8639 57.3424 26.996 56.9631 26.847 56.6514C26.6979 56.3398 26.3185 56.2077 26.0069 56.3567C23.2834 57.6575 22.7109 59.0869 22.7109 60.0591C22.7109 60.9771 23.1953 61.8443 24.1675 62.6336C25.0076 63.3179 26.1966 63.9242 27.6871 64.4458C30.6883 65.479 34.6584 66.0515 38.8823 66.0515C43.1064 66.0515 47.0765 65.479 50.0776 64.4458C51.5782 63.9343 52.757 63.3178 53.5971 62.6336C54.5592 61.8443 55.0537 60.9874 55.0537 60.0591C55.0537 58.2977 53.2584 57.0748 51.7577 56.3567H51.7779Z" fill="black"/>
<path d="M38.4081 34.0038C38.5199 34.1698 38.6927 34.2544 38.8756 34.2714H38.9094H38.9264H38.9433H38.9772C39.1601 34.2544 39.3329 34.1664 39.4447 34.0038L44.6816 26.4668C44.8104 26.2771 44.8307 26.023 44.7257 25.8164C44.6139 25.6098 44.4039 25.4777 44.1701 25.4777H41.5957V21.2909C41.5957 20.9453 41.3179 20.6574 40.9622 20.6574C40.6065 20.6574 40.3288 20.9352 40.3288 21.2909V26.1044C40.3288 26.4499 40.6065 26.7378 40.9622 26.7378H42.9642L38.923 32.5574L34.8817 26.7378H36.8837C37.2292 26.7378 37.5172 26.4601 37.5172 26.1044V15.0817C37.5172 14.7362 37.2394 14.4482 36.8837 14.4482C36.528 14.4482 36.2503 14.726 36.2503 15.0817V25.4774H33.6758C33.442 25.4774 33.2253 25.6061 33.1202 25.8162C33.0085 26.0228 33.0254 26.2768 33.1643 26.4665L38.4013 34.0035L38.4081 34.0038Z" fill="black"/>
<path d="M40.9616 19.3668C41.3071 19.3668 41.595 19.089 41.595 18.7333V17.4596C41.595 17.1141 41.3173 16.8262 40.9616 16.8262C40.6059 16.8262 40.3281 17.1039 40.3281 17.4596V18.7333C40.3281 19.0788 40.6059 19.3668 40.9616 19.3668Z" fill="black"/>
<path d="M53.1612 40.5517C53.273 40.6635 53.439 40.7346 53.605 40.7346C53.6388 40.7346 53.6829 40.7346 53.7167 40.7244L62.7545 39.0951C62.9882 39.0511 63.1711 38.8885 63.2389 38.6615C63.3066 38.4346 63.249 38.1941 63.083 38.0281L61.2606 36.2056L64.228 33.2382C64.4719 32.9943 64.4719 32.598 64.228 32.344C63.9841 32.0933 63.5878 32.1001 63.3337 32.344L59.926 35.7517C59.6821 35.9956 59.6821 36.3919 59.926 36.646L61.3487 38.0686L54.3842 39.3254L55.6409 32.3609L57.0636 33.7836C57.3075 34.0275 57.7038 34.0275 57.9578 33.7836L65.7523 25.9891C65.9962 25.7452 65.9962 25.3489 65.7523 25.0949C65.5084 24.8442 65.1121 24.851 64.8581 25.0949L57.504 32.449L55.6815 30.6265C55.5155 30.4605 55.275 30.3996 55.0481 30.4707C54.8211 30.5385 54.6585 30.7315 54.6145 30.9551L52.9851 39.9928C52.9513 40.2096 53.019 40.4163 53.168 40.5551L53.1612 40.5517Z" fill="black"/>
<path d="M65.1389 31.4464C65.2608 31.5683 65.4234 31.6293 65.5826 31.6293C65.7384 31.6293 65.9044 31.5683 66.0264 31.4464L66.9275 30.5453C67.1713 30.3014 67.1713 29.9051 66.9275 29.651C66.6836 29.4004 66.2872 29.4072 66.0332 29.651L65.1321 30.5521C64.8882 30.796 64.8882 31.1923 65.1321 31.4464H65.1389Z" fill="black"/>
<path d="M76.3652 49.9141H65.9695V47.3396C65.9695 47.1059 65.8408 46.8891 65.6308 46.7841C65.4241 46.6723 65.1701 46.6892 64.9804 46.8281L57.4434 52.0651C57.2706 52.187 57.1758 52.3767 57.1758 52.5664V52.5833V52.6003C57.1758 52.8001 57.2706 52.9898 57.4434 53.1016L64.9804 58.3386C65.0854 58.4165 65.2141 58.4504 65.3361 58.4504C65.4309 58.4504 65.5359 58.4233 65.6308 58.3826C65.8374 58.2708 65.9695 58.0608 65.9695 57.8271V55.2526H70.1563C70.5018 55.2526 70.7898 54.9748 70.7898 54.6192C70.7898 54.2635 70.512 53.9857 70.1563 53.9857H65.3428C64.9973 53.9857 64.7093 54.2635 64.7093 54.6192V56.6211L58.8898 52.5799L64.7093 48.5387V50.5407C64.7093 50.8862 64.9871 51.1741 65.3428 51.1741H76.3655C76.711 51.1741 76.9989 50.8963 76.9989 50.5407C76.9989 50.185 76.7212 49.9072 76.3655 49.9072L76.3652 49.9141Z" fill="black"/>
<path d="M73.9892 53.9727H72.7155C72.37 53.9727 72.082 54.2504 72.082 54.6061C72.082 54.9618 72.3598 55.2395 72.7155 55.2395H73.9892C74.3347 55.2395 74.6226 54.9618 74.6226 54.6061C74.6226 54.2504 74.3449 53.9727 73.9892 53.9727Z" fill="black"/>
<path d="M19.7465 33.7769C19.9904 34.0208 20.3867 34.0208 20.6407 33.7769L22.0634 32.3542L23.3202 39.3187L16.3557 38.062L17.7784 36.6393C18.0223 36.3954 18.0223 35.9991 17.7784 35.7451L14.3706 32.3373C14.1267 32.0934 13.7304 32.0934 13.4764 32.3373C13.2257 32.5812 13.2325 32.9775 13.4764 33.2316L16.4438 36.199L14.6213 38.0214C14.4553 38.1874 14.3944 38.4279 14.4655 38.6549C14.5332 38.8818 14.7263 39.0444 14.9499 39.0884L23.9876 40.7178C23.9876 40.7178 24.0655 40.7279 24.0994 40.7279C24.2722 40.7279 24.428 40.6602 24.5432 40.545C24.6922 40.4061 24.76 40.1995 24.7261 39.9827L23.0967 30.945C23.0527 30.7113 22.8901 30.5283 22.6631 30.4606C22.4362 30.3928 22.1957 30.4504 22.0297 30.6164L20.2072 32.4389L12.8531 25.0848C12.6092 24.8409 12.2129 24.8409 11.9589 25.0848C11.7082 25.3287 11.715 25.725 11.9589 25.979L19.7534 33.7735L19.7465 33.7769Z" fill="black"/>
<path d="M11.6558 31.4463C11.7777 31.5682 11.9403 31.6292 12.0995 31.6292C12.2554 31.6292 12.4213 31.5682 12.5433 31.4463C12.7872 31.2024 12.7872 30.806 12.5433 30.552L11.6422 29.6509C11.3983 29.407 11.002 29.407 10.748 29.6509C10.4973 29.8948 10.5041 30.2912 10.748 30.5452L11.6491 31.4463H11.6558Z" fill="black"/>
<path d="M20.5104 52.5596C20.5104 52.3597 20.4155 52.17 20.2428 52.0583L12.7058 46.8213C12.5161 46.6926 12.262 46.6722 12.0554 46.7773C11.8488 46.889 11.7167 47.0991 11.7167 47.3328V49.9073H1.32095C0.975429 49.9073 0.6875 50.185 0.6875 50.5407C0.6875 50.8964 0.965266 51.1742 1.32095 51.1742H12.3436C12.6892 51.1742 12.9771 50.8964 12.9771 50.5407V48.5387L18.7966 52.58L12.9771 56.6212V54.6192C12.9771 54.2737 12.6993 53.9858 12.3436 53.9858H7.53011C7.18459 53.9858 6.89667 54.2635 6.89667 54.6192C6.89667 54.9749 7.17443 55.2527 7.53011 55.2527H11.7169V57.8271C11.7169 58.0609 11.8457 58.2777 12.0557 58.3827C12.1505 58.4335 12.2454 58.4504 12.3504 58.4504C12.4791 58.4504 12.601 58.4165 12.7061 58.3386L20.243 53.1017C20.4158 52.9797 20.5106 52.79 20.5106 52.6003V52.5834V52.5665L20.5104 52.5596Z" fill="black"/>
<path d="M4.97356 53.9727H3.69985C3.35434 53.9727 3.06641 54.2504 3.06641 54.6061C3.06641 54.9618 3.34417 55.2395 3.69985 55.2395H4.97356C5.31908 55.2395 5.60701 54.9618 5.60701 54.6061C5.60701 54.2504 5.32925 53.9727 4.97356 53.9727Z" fill="black"/>
</g>
</svg>
