<svg width="56" height="53" viewBox="0 0 56 53" fill="none" xmlns="http://www.w3.org/2000/svg">
<mask id="mask0_7187_6423" style="mask-type:alpha" maskUnits="userSpaceOnUse" x="0" y="0" width="56" height="53">
<rect width="56" height="53" fill="#D9D9D9"/>
</mask>
<g mask="url(#mask0_7187_6423)">
<path d="M39.3787 15.3285C40.4721 14.2409 40.4721 12.4685 39.3787 11.3808L35.3562 7.35829L35.362 7.36404C34.2973 6.29942 32.4674 4.46943 29.8777 1.88557C28.6577 0.694345 26.6839 0.705854 25.4754 1.91434L2.81339 24.5591C2.52344 24.8471 2.29333 25.1895 2.13631 25.5668C1.97928 25.9441 1.89844 26.3487 1.89844 26.7574C1.89844 27.166 1.97928 27.5706 2.13631 27.9479C2.29333 28.3252 2.52344 28.6677 2.81339 28.9557L25.4696 51.5947C26.0538 52.1778 26.8454 52.5053 27.6708 52.5053C28.4962 52.5053 29.2878 52.1778 29.872 51.5947L39.373 42.0994C40.4664 41.0118 40.4664 39.2393 39.373 38.1517C38.8478 37.6291 38.1371 37.3358 37.3963 37.3358C36.6554 37.3358 35.9447 37.6291 35.4195 38.1517L28.2261 45.3566C27.9269 45.6558 27.4608 45.6558 27.1615 45.3566L9.06299 27.2753C8.76375 26.9761 8.76375 26.5099 9.06299 26.2107L27.1558 8.12942C27.1788 8.1064 27.2076 8.08913 27.2306 8.06611C27.5298 7.83017 27.9442 7.85319 28.2204 8.12942L35.4253 15.3285C36.5187 16.4219 38.2911 16.4219 39.3787 15.3285ZM21.6715 26.8725C21.6715 28.4933 22.316 30.0478 23.4632 31.1939C24.6104 32.3401 26.1664 32.984 27.7888 32.984C29.4112 32.984 30.9671 32.3401 32.1143 31.1939C33.2615 30.0478 33.906 28.4933 33.906 26.8725C33.906 25.2516 33.2615 23.6971 32.1143 22.551C30.9671 21.4049 29.4112 20.761 27.7888 20.761C26.1664 20.761 24.6104 21.4049 23.4632 22.551C22.316 23.6971 21.6715 25.2516 21.6715 26.8725ZM52.5282 24.6512L45.4557 17.6132C44.3623 16.5255 42.5899 16.5255 41.5022 17.6189C41.2423 17.8777 41.036 18.1853 40.8953 18.524C40.7545 18.8628 40.6821 19.226 40.6821 19.5928C40.6821 19.9596 40.7545 20.3228 40.8953 20.6615C41.036 21.0002 41.2423 21.3078 41.5022 21.5666L46.2786 26.3373C46.5779 26.6365 46.5779 27.1027 46.2786 27.4019L41.5713 32.1035C41.3113 32.3623 41.1051 32.6699 40.9643 33.0086C40.8236 33.3473 40.7511 33.7105 40.7511 34.0774C40.7511 34.4442 40.8236 34.8074 40.9643 35.1461C41.1051 35.4848 41.3113 35.7924 41.5713 36.0512C42.0965 36.5738 42.8072 36.8671 43.548 36.8671C44.2889 36.8671 44.9996 36.5738 45.5248 36.0512L52.534 29.0477C52.8229 28.759 53.052 28.4161 53.2082 28.0387C53.3643 27.6613 53.4444 27.2567 53.4439 26.8483C53.4434 26.4398 53.3622 26.0355 53.2051 25.6584C53.0479 25.2814 52.8179 24.9391 52.5282 24.6512Z" fill="black"/>
</g>
</svg>
