<svg width="56" height="53" viewBox="0 0 56 53" fill="none" xmlns="http://www.w3.org/2000/svg">
<mask id="mask0_7197_55622" style="mask-type:alpha" maskUnits="userSpaceOnUse" x="0" y="0" width="56" height="53">
<rect width="56" height="53" fill="#D9D9D9"/>
</mask>
<g mask="url(#mask0_7197_55622)">
<path fill-rule="evenodd" clip-rule="evenodd" d="M32.4194 49.019C32.4194 49.2229 32.3999 49.422 32.3696 49.6175C32.3661 49.6423 32.3631 49.6665 32.359 49.6907C32.0461 51.5261 30.4786 52.9264 28.5935 52.9264C26.9122 52.9264 25.4845 51.8117 24.9719 50.2698L9.05233 40.8853C7.47359 39.9546 6.50168 38.2341 6.50168 36.3739V20.567C7.09134 20.771 7.72012 20.8865 8.37733 20.8865C8.96699 20.8865 9.53591 20.7952 10.0728 20.6294V36.3739C10.0728 36.9301 10.3656 37.4481 10.8385 37.7264L25.689 46.4816C26.3913 45.6447 27.4313 45.1116 28.5934 45.1116C29.8575 45.1116 30.9764 45.7427 31.6739 46.7104C31.6863 46.7279 31.6994 46.7449 31.7118 46.7624C31.7605 46.8333 31.8069 46.9057 31.8511 46.9797C31.8683 47.0081 31.8855 47.0359 31.902 47.065C31.9412 47.1334 31.9773 47.2036 32.0123 47.2744C32.0312 47.3125 32.049 47.3506 32.0662 47.3893C32.0964 47.4553 32.1243 47.5219 32.151 47.5896C32.1699 47.6381 32.1865 47.6865 32.2037 47.7355C32.225 47.7972 32.2458 47.8595 32.2635 47.9225C32.2813 47.983 32.2944 48.0435 32.3092 48.1034C32.3228 48.1603 32.337 48.2166 32.3477 48.2741C32.3625 48.3497 32.372 48.4259 32.3827 48.5028C32.388 48.5494 32.3969 48.5936 32.401 48.6396C32.4123 48.7648 32.4194 48.8907 32.4194 49.019ZM51.9979 14.8956C51.9979 16.0678 51.4882 17.1183 50.6846 17.8348V36.3739C50.6846 38.2341 49.7133 39.9546 48.134 40.8853L34.4569 48.9482C34.4414 47.629 34.0047 46.4145 33.2805 45.4305L46.3484 37.7264C46.8207 37.4481 47.1135 36.9301 47.1135 36.3739V18.6475C45.5175 18.1779 44.3453 16.6754 44.3453 14.8956C44.3453 14.0291 44.6268 13.2303 45.0962 12.5822C45.1027 12.5719 45.1104 12.5616 45.1181 12.5513C45.2064 12.4315 45.3012 12.3159 45.4026 12.207L45.4162 12.1919C45.626 11.9686 45.8607 11.7725 46.1167 11.6049C46.1434 11.5873 46.1712 11.5716 46.1985 11.554C46.2998 11.4923 46.4035 11.4336 46.5102 11.381C46.5416 11.3658 46.573 11.3495 46.605 11.335C46.7383 11.2733 46.8758 11.2164 47.0175 11.1716C47.0181 11.1716 47.0181 11.1716 47.0181 11.171C47.3825 11.053 47.7695 10.9882 48.1719 10.9882C50.2822 10.9882 51.9979 12.7407 51.9979 14.8956ZM6.50169 18.2977C5.33897 17.6266 4.55078 16.354 4.55078 14.8956C4.55078 12.7407 6.26702 10.9882 8.37734 10.9882C8.92433 10.9882 9.44347 11.1087 9.9146 11.3205L26.0422 1.81247C26.831 1.34712 27.7128 1.11475 28.5929 1.11475C29.4741 1.11475 30.3553 1.34712 31.1441 1.81247L44.9018 9.92379C43.8896 10.6209 43.1056 11.6339 42.6753 12.8206L29.3585 4.9707C29.1262 4.83334 28.8613 4.76132 28.5929 4.76132C28.325 4.76132 28.0607 4.83334 27.8278 4.9707L12.1423 14.2185C12.1802 14.4388 12.2033 14.6639 12.2033 14.8956C12.2033 16.5767 11.1562 18.0091 9.69474 18.5592C9.68349 18.5634 9.67163 18.5683 9.66096 18.5719C9.54422 18.6136 9.42747 18.6505 9.30716 18.6814C9.28287 18.6875 9.25916 18.6947 9.23487 18.6996C9.12464 18.7256 9.01204 18.7462 8.89885 18.7625C8.86803 18.7667 8.83781 18.7728 8.8064 18.7764C8.66536 18.7928 8.52254 18.803 8.37734 18.803C8.22148 18.803 8.068 18.7903 7.91628 18.7716C7.87599 18.7667 7.83628 18.7595 7.79539 18.7528C7.67924 18.7347 7.56545 18.7117 7.45226 18.6826C7.41789 18.6735 7.38293 18.6657 7.34796 18.6554C7.04987 18.5695 6.766 18.4502 6.50169 18.2977Z" fill="black"/>
<path fill-rule="evenodd" clip-rule="evenodd" d="M28.3285 13.0481L15.3555 17.791L17.3247 35.2252L28.3285 41.4755L39.3329 35.2252L41.3022 17.791L28.3285 13.0481ZM19.1642 33.971L17.4893 19.1443L28.3285 15.1815L39.1676 19.1443L37.4935 33.971L28.3285 39.1767L19.1642 33.971ZM20.8744 34.113H23.6647L25.1657 30.2868H31.503L33.0041 34.113H35.7885L28.3285 17.0102L20.8744 34.113ZM28.3285 22.5688L30.5115 27.9284H26.1454L28.3285 22.5688Z" fill="black"/>
</g>
</svg>
