<svg width="56" height="53" viewBox="0 0 56 53" fill="none" xmlns="http://www.w3.org/2000/svg">
<mask id="mask0_7200_57065" style="mask-type:alpha" maskUnits="userSpaceOnUse" x="0" y="0" width="56" height="53">
<rect width="56" height="53" fill="#D9D9D9"/>
</mask>
<g mask="url(#mask0_7200_57065)">
<path d="M28 12C12.3001 12 0 18.5895 0 27C0 35.4104 12.3001 42 28 42C43.6998 42 56 35.4104 56 27C56 18.5895 43.6998 12 28 12ZM25.0924 16.6154H28.1505L27.1796 21.2308H29.9096C31.6412 21.2308 32.8034 21.4697 33.4642 22.0691C34.1112 22.6595 34.3072 23.6287 34.0475 24.9492L32.8354 30.4615H29.7271L30.8439 25.3638C30.9804 24.6653 30.9258 24.1784 30.6887 23.9215C30.4519 23.6647 29.9322 23.5385 29.1529 23.5385H26.7057L25.2292 30.4615H22.1667L25.0924 16.6154ZM11.6667 21.2308H17.8874C20.8542 21.2308 22.6497 23.196 21.9479 26.13C21.1322 29.5375 18.9447 30.4615 14.9251 30.4615H13.002L12.3913 33.9231H9.30144L11.6667 21.2308ZM36.1667 21.2308H42.3873C45.3542 21.2308 47.1497 23.196 46.4478 26.13C45.6321 29.5375 43.4446 30.4615 39.4252 30.4615H37.502L36.8912 33.9231H33.8014L36.1667 21.2308ZM14.3145 23.5385L13.4349 28.1538H15.431C17.1582 28.1538 18.7624 27.96 19.0312 25.4135C19.1315 24.4265 18.7168 23.5385 16.7207 23.5385H14.3145ZM38.8145 23.5385L37.9349 28.1538H39.931C41.6582 28.1538 43.2623 27.96 43.5311 25.4135C43.6315 24.4265 43.2168 23.5385 41.2207 23.5385H38.8145Z" fill="black"/>
</g>
</svg>
