<svg width="56" height="53" viewBox="0 0 56 53" fill="none" xmlns="http://www.w3.org/2000/svg">
<mask id="mask0_7200_55713" style="mask-type:alpha" maskUnits="userSpaceOnUse" x="0" y="0" width="56" height="53">
<rect width="56" height="53" fill="#D9D9D9"/>
</mask>
<g mask="url(#mask0_7200_55713)">
<path d="M54.5511 37.0834H2.37277C2.1201 37.0834 1.91797 36.8756 1.91797 36.6286C1.91797 36.3815 2.1201 36.1738 2.37277 36.1738H54.5455C54.7981 36.1738 55.0003 36.3815 55.0003 36.6286C55.0003 36.8756 54.8038 37.0834 54.5511 37.0834ZM28.4423 30.5646C28.3019 30.5646 28.1728 30.4916 28.1054 30.3681L23.9111 22.513C23.8157 22.3333 23.8887 22.1143 24.0684 22.0189C24.0684 22.0189 24.0684 22.0189 24.074 22.0189C24.2593 21.929 24.4895 21.9964 24.5849 22.1761L28.7848 30.02C28.8802 30.1996 28.8072 30.4186 28.6276 30.5141C28.6276 30.5141 28.6276 30.5141 28.622 30.5141C28.5602 30.5477 28.5097 30.559 28.4423 30.5646Z" fill="black"/>
<path d="M23.1451 37.0834H2.36471C2.08958 37.0834 1.85938 36.8644 1.85938 36.5893C1.85938 36.3142 2.08397 36.0952 2.36471 36.0952H23.1507C24.1614 36.0952 25.0766 35.5562 25.5426 34.6859L32.432 21.4069C33.072 20.2109 34.3354 19.4698 35.7222 19.4698H48.597L46.7104 17.7685C46.5083 17.5888 46.497 17.2744 46.6823 17.0722C46.8788 16.8757 47.1876 16.8645 47.401 17.0442L51.1741 20.4355H35.7166C34.7059 20.4355 33.7907 20.9745 33.3247 21.8448L26.4353 35.1463C25.7896 36.3422 24.5319 37.0834 23.1451 37.0834Z" fill="black"/>
<path d="M17.5565 34.5566C16.1416 34.5566 14.9625 34.0681 14.1371 33.1529C13.4352 32.3612 13.0478 31.3169 13.0478 30.1939C13.0478 29.9918 13.2163 29.8234 13.4296 29.8234C13.643 29.8234 13.8114 29.9862 13.8114 30.1939C13.8114 31.126 14.1427 32.03 14.7154 32.6757C15.3836 33.4281 16.3662 33.8267 17.5565 33.8267C19.1118 33.8267 20.2067 33.2428 20.8187 32.0974C21.0321 31.6987 21.0714 31.2327 20.9254 30.8059C20.7738 30.368 20.4537 30.003 20.0326 29.8065L14.7379 27.2574C14.1146 26.9598 13.643 26.4152 13.4465 25.7695C13.25 25.1182 13.3398 24.4219 13.6935 23.838C14.6761 22.2265 16.456 21.8896 17.7755 21.8896C18.8535 21.8953 19.8979 22.2995 20.6952 23.0238C21.3184 23.5965 22.0596 24.6184 22.0596 26.2636C22.0596 26.4657 21.8911 26.6342 21.6778 26.6342C21.4644 26.6342 21.296 26.4713 21.296 26.2636C21.296 23.9054 19.4824 22.6252 17.7699 22.6252C16.1416 22.6252 14.9849 23.1586 14.3392 24.2142C14.0922 24.6184 14.0304 25.1069 14.1708 25.5617C14.3112 26.0221 14.6312 26.3927 15.0748 26.6061L20.3695 29.1608C20.9759 29.4528 21.4307 29.9637 21.6441 30.5926C21.8518 31.2102 21.8013 31.8671 21.4869 32.4455C20.9647 33.4056 19.8698 34.5566 17.5565 34.5566ZM43.1881 23.9278C42.722 22.9958 41.7338 21.8896 39.6676 21.8896C37.4666 21.8896 36.2482 22.8217 35.6362 23.6022C35.5632 23.692 35.4116 23.7874 35.4116 23.8773V22.249C35.4116 22.0469 35.2487 21.8784 35.0354 21.8784C34.8276 21.8784 34.6592 22.0412 34.6592 22.249V34.1917C34.6592 34.3938 34.822 34.5622 35.0354 34.5622C35.2431 34.5622 35.4116 34.3994 35.4116 34.1917V26.1625C35.4116 25.573 35.6249 24.8206 36.2426 24.0401C36.9837 23.0968 38.1516 22.614 39.6676 22.614C42.868 22.614 42.9466 25.7751 42.9466 25.9098V34.1917C42.9466 34.3938 43.1095 34.5622 43.3228 34.5622C43.5306 34.5622 43.699 34.3994 43.699 34.1917V25.9155C43.6934 25.8762 43.6822 24.9048 43.1993 23.9278H43.1881ZM50.302 34.5566C48.5502 34.5566 47.5058 33.7088 46.9388 32.9957C46.2144 32.0861 45.9449 31.0193 45.9393 30.3287V26.1906C45.9505 25.7302 46.0685 24.5398 46.8826 23.4899C47.4497 22.7712 48.5277 21.9065 50.4705 21.9065C52.7108 21.9065 53.8 23.0856 54.3222 24.0682C54.8781 25.1125 54.9061 26.1513 54.9061 26.1962C54.9118 26.3983 54.7433 26.5668 54.5356 26.5724C54.3278 26.578 54.1482 26.4152 54.1482 26.213C54.1425 26.0614 54.0078 22.642 50.4817 22.642C49.1678 22.642 48.1628 23.0744 47.4946 23.9278C46.7815 24.8374 46.7029 25.8986 46.6973 26.2018V30.3175C46.7029 30.8621 46.9219 31.7717 47.5283 32.5409C47.9943 33.1249 48.8534 33.8155 50.2964 33.8155C51.8405 33.8155 52.941 33.3101 53.5754 32.3163C54.1089 31.4853 54.1482 30.514 54.1482 30.2445C54.1482 30.0423 54.3166 29.8739 54.53 29.8739C54.7377 29.8739 54.9118 30.0367 54.9118 30.2445C54.9118 30.6543 54.8444 31.7268 54.2268 32.7037C53.2498 34.231 51.5485 34.5566 50.302 34.5566ZM9.48243 23.1979C8.74689 22.3388 7.67447 21.884 6.33253 21.884C4.91198 21.884 3.74411 22.2995 2.92435 23.0912C2.77275 23.2372 2.77836 23.4674 2.92996 23.6078C3.08156 23.7538 3.31738 23.7538 3.46898 23.6078C4.14837 22.9508 5.1085 22.614 6.33814 22.614C8.83111 22.614 9.70702 24.3826 9.70702 26.0446V26.432C9.22415 26.6678 8.2191 27.263 6.23708 27.263C4.8783 27.263 3.84517 27.6392 3.04226 28.414C1.55995 29.857 2.13266 32.2658 3.18263 33.2821C4.03046 34.1131 5.15342 34.5791 6.33253 34.5791H6.34376C7.50041 34.5791 8.58406 34.1018 9.39821 33.3045L9.42628 33.2484C9.53858 33.2484 9.70141 33.0463 9.70141 32.9227V34.2029C9.70141 34.405 9.84178 34.5735 10.0495 34.5735C10.2573 34.5735 10.3976 34.405 10.3976 34.2029V26.0446C10.4033 24.9329 10.1057 23.9222 9.48243 23.1979ZM8.85357 32.7767V32.7936C8.18541 33.4505 7.29266 33.8211 6.35499 33.8267H6.34376C5.36678 33.8267 4.43473 33.4393 3.72726 32.7543C3.32861 32.3669 3.01418 31.665 2.93558 30.9744C2.87381 30.3961 2.92996 29.5763 3.59251 28.9418C4.24382 28.313 5.09166 28.0042 6.24269 28.0042C7.94398 28.0042 9.13431 27.6055 9.71264 27.2855V30.3006C9.71264 31.418 9.45997 32.1872 8.85357 32.7767Z" fill="black"/>
</g>
</svg>
