<svg width="68" height="67" viewBox="0 0 68 67" fill="none" xmlns="http://www.w3.org/2000/svg">
<path d="M37.0938 16.666V49.9993" stroke="black" stroke-width="1.66667" stroke-linecap="round" stroke-linejoin="round"/>
<path d="M44.8825 33.399C44.8825 36.4132 42.5564 38.8612 39.6822 38.8612C38.7323 38.8612 37.8432 38.5932 37.082 38.1304V28.6736C37.8493 28.2047 38.7383 27.9429 39.6822 27.9429C42.5564 27.9429 44.8825 30.3847 44.8825 33.4051V33.399Z" stroke="black" stroke-width="1.66667" stroke-linecap="round" stroke-linejoin="round"/>
<path d="M37.1173 20.7271H40.8684C41.2276 20.7271 41.5382 20.9889 41.593 21.3482L41.8488 22.9497C41.8853 23.1811 42.0314 23.3881 42.2446 23.4916L44.5037 24.6182C44.7412 24.7339 45.0213 24.7156 45.2345 24.5755L46.909 23.4612C47.2074 23.2663 47.6032 23.309 47.8468 23.5647L49.5336 25.3367C49.7893 25.6047 49.8076 26.0126 49.5762 26.2988L48.4497 27.7055C48.2731 27.9247 48.2365 28.2292 48.3644 28.4849L49.4788 30.7745C49.5823 30.9877 49.7832 31.1338 50.0146 31.1764L51.9206 31.5053C52.2738 31.5662 52.5296 31.8706 52.5296 32.2299V34.7083C52.5296 35.0615 52.2799 35.3659 51.9328 35.4268L50.2704 35.7435C50.0573 35.7861 49.8685 35.9201 49.765 36.1089L48.608 38.2097C48.4618 38.4715 48.4923 38.8004 48.6871 39.0318L49.7711 40.3349C50.0207 40.6333 49.9903 41.0839 49.7041 41.3457L47.7798 43.1056C47.5058 43.3552 47.0796 43.3613 46.7994 43.1177L45.6546 42.1191C45.4476 41.9364 45.1553 41.8877 44.8995 41.9912L42.3542 43.0142C42.1228 43.1056 41.9523 43.3126 41.9036 43.5623L41.5504 45.4683C41.4834 45.8153 41.185 46.0711 40.8257 46.0711H37.0625" stroke="black" stroke-width="1.66667" stroke-linecap="round" stroke-linejoin="round"/>
<path d="M20.3119 41.2188H18.7043C16.7374 41.2188 15.9762 39.4711 16.0006 37.4981L16.0249 35.5374C16.0493 33.467 16.7922 32.5901 18.8504 32.0542C19.9587 31.7619 21.073 31.4818 22.1752 31.1774L24.1177 30.6354C25.0007 30.264 25.908 30.0508 26.4804 29.3018L30.1097 24.546C30.7917 23.6509 31.8573 23.1211 32.9839 23.1211H37.0942V41.2066H27.4852" stroke="black" stroke-width="1.66667" stroke-linecap="round" stroke-linejoin="round"/>
<path d="M23.8992 44.8061C25.88 44.8061 27.4858 43.2003 27.4858 41.2195C27.4858 39.2386 25.88 37.6328 23.8992 37.6328C21.9183 37.6328 20.3125 39.2386 20.3125 41.2195C20.3125 43.2003 21.9183 44.8061 23.8992 44.8061Z" stroke="black" stroke-width="1.66667" stroke-linecap="round" stroke-linejoin="round"/>
</svg>
