<svg width="117" height="81" viewBox="0 0 117 81" fill="none" xmlns="http://www.w3.org/2000/svg">
<mask id="mask0_6572_17408" style="mask-type:alpha" maskUnits="userSpaceOnUse" x="0" y="0" width="118" height="81">
<rect x="0.335938" y="0.666992" width="116.667" height="80" fill="#D9D9D9"/>
</mask>
<g mask="url(#mask0_6572_17408)">
<path d="M58.301 23.3335C49.5072 23.3335 50.0158 27.1855 50.0158 27.1855V31.1841H58.4465V32.3471H46.6727C46.6727 32.3471 41.0039 31.6913 41.0039 40.6306C41.0039 49.5699 45.946 49.2802 45.946 49.2802H48.924V45.1367C48.924 45.1367 48.7788 40.1946 53.7935 40.1946H62.1513C62.1513 40.1946 66.8753 40.2672 66.8753 35.6159V27.9848C66.8753 27.9848 67.6038 23.3335 58.301 23.3335ZM53.6483 26.0225C53.8503 26.0173 54.0512 26.0532 54.2388 26.128C54.4265 26.2028 54.597 26.315 54.74 26.4578C54.883 26.6005 54.9954 26.7709 55.0705 26.9584C55.1455 27.146 55.1817 27.3469 55.1767 27.5489C55.1798 27.7513 55.1425 27.9522 55.0672 28.14C54.9919 28.3279 54.88 28.4988 54.7379 28.643C54.5959 28.7872 54.4267 28.9017 54.2399 28.9799C54.0533 29.058 53.8529 29.0983 53.6506 29.0983C53.4482 29.0983 53.2478 29.058 53.0611 28.9799C52.8744 28.9017 52.7051 28.7872 52.5631 28.643C52.4211 28.4988 52.3092 28.3279 52.2338 28.14C52.1585 27.9522 52.1213 27.7513 52.1244 27.5489C52.1266 27.1452 52.2878 26.7586 52.573 26.4729C52.8583 26.1873 53.2446 26.0254 53.6483 26.0225Z" fill="url(#paint0_linear_6572_17408)"/>
<path d="M58.5931 58.0001C67.4597 58.0001 66.8782 54.1481 66.8782 54.1481V50.1513H58.4489V48.9882H70.2225C70.2225 48.9882 75.8921 49.6423 75.8921 40.703C75.8921 31.7637 70.9489 32.1261 70.9489 32.1261H67.9692V36.2699C67.9692 36.2699 68.1147 41.212 63.0999 41.212H54.7421C54.7421 41.212 50.0179 41.1394 50.0179 45.7906V53.42C50.0179 53.42 49.3641 58.0001 58.5931 58.0001ZM63.2444 55.3837C63.0428 55.3885 62.8423 55.3523 62.655 55.2772C62.4678 55.2022 62.2977 55.09 62.1551 54.9473C62.0126 54.8046 61.9004 54.6345 61.8255 54.4472C61.7506 54.2599 61.7146 54.0594 61.7194 53.8577C61.7164 53.6553 61.7536 53.4544 61.8289 53.2665C61.9043 53.0787 62.0162 52.9077 62.1582 52.7636C62.3003 52.6194 62.4696 52.5049 62.6562 52.4267C62.8429 52.3485 63.0432 52.3083 63.2457 52.3083C63.448 52.3083 63.6484 52.3485 63.8351 52.4267C64.0217 52.5049 64.191 52.6194 64.333 52.7636C64.4751 52.9077 64.587 53.0787 64.6622 53.2665C64.7378 53.4544 64.7751 53.6553 64.772 53.8577C64.7693 54.2617 64.6079 54.6486 64.3221 54.9343C64.0364 55.22 63.6495 55.3814 63.2455 55.3837H63.2444Z" fill="url(#paint1_linear_6572_17408)"/>
</g>
<defs>
<linearGradient id="paint0_linear_6572_17408" x1="-610.469" y1="-629.799" x2="-609.092" y2="-628.423" gradientUnits="userSpaceOnUse">
<stop stop-color="#3A7FBA"/>
<stop offset="1" stop-color="#396A95"/>
</linearGradient>
<linearGradient id="paint1_linear_6572_17408" x1="-609.71" y1="-628.932" x2="-608.208" y2="-627.509" gradientUnits="userSpaceOnUse">
<stop stop-color="#FFE054"/>
<stop offset="1" stop-color="#FCC234"/>
</linearGradient>
</defs>
</svg>
