<svg width="175" height="120" viewBox="0 0 175 120" fill="none" xmlns="http://www.w3.org/2000/svg">
<mask id="mask0_135_1557" style="mask-type:alpha" maskUnits="userSpaceOnUse" x="0" y="0" width="175" height="120">
<rect width="175" height="120" fill="#D9D9D9"/>
</mask>
<g mask="url(#mask0_135_1557)">
</g>
<path d="M113.46 73.9913C111.607 74.4625 110.462 74.0116 109.434 72.4678C107.126 69.0106 104.579 65.7119 102.121 62.3522C101.804 61.9175 101.475 61.491 101.065 60.9506C98.1562 64.875 95.2515 68.6125 92.5256 72.5003C91.5506 73.8897 90.5268 74.495 88.7068 74.0035L99.6431 59.3256L89.4625 46.0697C91.2134 45.7285 92.424 45.9031 93.4965 47.4713C95.8649 50.9325 98.4771 54.2272 101.081 57.7128C103.702 54.2394 106.281 50.9406 108.719 47.5119C109.698 46.1225 110.75 45.5944 112.509 46.1063C111.177 47.8735 109.872 49.6122 108.56 51.3388C106.789 53.6666 105.05 56.0228 103.214 58.3019C102.56 59.1144 102.666 59.6425 103.251 60.4103C106.647 64.875 110.002 69.3844 113.46 73.9913ZM62.5403 59.0819C62.8328 57.6153 63.0278 56.1203 63.434 54.6822C65.8715 45.9763 75.8653 42.3566 82.7309 47.7516C86.7528 50.9163 87.7521 55.3769 87.5531 60.4063H64.8843C64.5431 69.4291 71.039 74.8769 79.3184 72.0981C82.2231 71.1231 83.9334 68.8481 84.7906 66.0044C85.2253 64.5785 85.9443 64.355 87.285 64.7613C86.5984 68.32 85.0425 71.2938 81.7925 73.1544C76.9175 75.9413 69.9584 75.0394 66.2981 71.1678C64.1368 68.8928 63.2187 66.0613 62.8125 63.0022C62.7515 62.5147 62.6256 62.0353 62.5281 61.5519C62.5362 60.7286 62.5403 59.9052 62.5403 59.0819ZM64.925 58.4766H85.4121C85.2781 51.9522 81.2156 47.3169 75.6621 47.2763C69.5684 47.2275 65.189 51.7531 64.925 58.4766Z" fill="black"/>
</svg>
