<svg width="175" height="120" viewBox="0 0 175 120" fill="none" xmlns="http://www.w3.org/2000/svg">
<mask id="mask0_135_1549" style="mask-type:alpha" maskUnits="userSpaceOnUse" x="0" y="0" width="175" height="120">
<rect width="175" height="120" fill="#D9D9D9"/>
</mask>
<g mask="url(#mask0_135_1549)">
</g>
<g clip-path="url(#clip0_135_1549)">
<path d="M113.177 45.8641C113.195 45.933 113.205 46.004 113.205 46.0754V57.1691C113.205 57.3115 113.167 57.4514 113.096 57.5746C113.025 57.6978 112.922 57.8 112.799 57.8708L103.487 63.2317V73.8573C103.487 74.1464 103.334 74.4134 103.083 74.559L83.6466 85.7477C83.6021 85.773 83.5536 85.7892 83.505 85.8064C83.4868 85.8125 83.4696 85.8236 83.4504 85.8286C83.3146 85.8644 83.1717 85.8644 83.0359 85.8286C83.0136 85.8226 82.9934 85.8104 82.9722 85.8023C82.9277 85.7862 82.8812 85.772 82.8387 85.7477L63.4065 74.559C63.283 74.488 63.1804 74.3858 63.1091 74.2626C63.0377 74.1395 63.0001 73.9996 63 73.8573V40.576C63 40.5032 63.0101 40.4325 63.0283 40.3637C63.0344 40.3404 63.0485 40.3192 63.0566 40.296C63.0718 40.2535 63.0859 40.21 63.1082 40.1706C63.1234 40.1443 63.1456 40.1231 63.1638 40.0988C63.1871 40.0664 63.2083 40.0331 63.2356 40.0048C63.2588 39.9815 63.2892 39.9643 63.3155 39.9441C63.3448 39.9198 63.3711 39.8935 63.4044 39.8743L73.1221 34.2799C73.2451 34.2091 73.3846 34.1719 73.5265 34.1719C73.6685 34.1719 73.8079 34.2091 73.931 34.2799L83.6476 39.8743H83.6496C83.682 39.8945 83.7093 39.9198 83.7386 39.9431C83.7649 39.9633 83.7942 39.9815 83.8175 40.0037C83.8458 40.0331 83.866 40.0664 83.8903 40.0988C83.9074 40.1231 83.9307 40.1443 83.9449 40.1706C83.9681 40.211 83.9813 40.2535 83.9974 40.296C84.0055 40.3192 84.0197 40.3404 84.0257 40.3647C84.0444 40.4336 84.0539 40.5047 84.0541 40.576V61.3631L92.1509 56.701V46.0744C92.1509 46.0036 92.161 45.9318 92.1792 45.8641C92.1863 45.8398 92.1994 45.8186 92.2075 45.7953C92.2237 45.7528 92.2379 45.7094 92.2601 45.6699C92.2753 45.6436 92.2975 45.6224 92.3147 45.5981C92.339 45.5658 92.3592 45.5324 92.3875 45.5041C92.4108 45.4809 92.4401 45.4637 92.4664 45.4434C92.4967 45.4192 92.523 45.3929 92.5553 45.3737L102.274 39.7793C102.397 39.7084 102.536 39.6711 102.678 39.6711C102.82 39.6711 102.96 39.7084 103.083 39.7793L112.8 45.3737C112.834 45.3939 112.86 45.4192 112.891 45.4424C112.916 45.4627 112.945 45.4809 112.968 45.5031C112.997 45.5324 113.017 45.5658 113.041 45.5981C113.059 45.6224 113.082 45.6436 113.096 45.6699C113.119 45.7094 113.132 45.7528 113.148 45.7953C113.157 45.8186 113.171 45.8398 113.177 45.8641ZM111.585 56.701V47.4757L108.185 49.4332L103.487 52.1379V61.3631L111.586 56.701H111.585ZM101.869 73.3891V64.1578L97.2478 66.7968L84.053 74.3274V83.6457L101.869 73.3891ZM64.6198 41.9764V73.3891L82.4333 83.6447V74.3284L73.1271 69.0616L73.1241 69.0596L73.1201 69.0576C73.0887 69.0394 73.0624 69.0131 73.0331 68.9909C73.0078 68.9706 72.9785 68.9545 72.9563 68.9322L72.9542 68.9292C72.928 68.9039 72.9098 68.8726 72.8875 68.8442C72.8673 68.8169 72.843 68.7937 72.8268 68.7654L72.8258 68.7623C72.8076 68.732 72.7965 68.6956 72.7834 68.6612C72.7702 68.6309 72.753 68.6026 72.7449 68.5702C72.7348 68.5318 72.7328 68.4904 72.7288 68.4509C72.7247 68.4206 72.7166 68.3903 72.7166 68.3599V46.6386L68.0201 43.9329L64.6198 41.9764ZM73.5275 35.9159L65.4317 40.576L73.5255 45.2362L81.6203 40.575L73.5255 35.9159H73.5275ZM77.7377 64.9991L82.4343 62.2954V41.9764L79.034 43.9339L74.3364 46.6386V66.9575L77.7377 64.9991ZM102.678 41.4152L94.5836 46.0754L102.678 50.7355L110.772 46.0744L102.678 41.4152ZM101.869 52.1379L97.171 49.4332L93.7707 47.4757V56.701L98.4672 59.4047L101.869 61.3631V52.1379ZM83.2421 72.9271L95.1154 66.1487L101.051 62.7615L92.9618 58.1044L83.6486 63.4662L75.1605 68.3529L83.2421 72.9271Z" fill="#FF2D20"/>
</g>
<defs>
<clipPath id="clip0_135_1549">
<rect width="50.2944" height="52" fill="white" transform="translate(63 34)"/>
</clipPath>
</defs>
</svg>
