<svg width="175" height="120" viewBox="0 0 175 120" fill="none" xmlns="http://www.w3.org/2000/svg">
<mask id="mask0_807_19631" style="mask-type:alpha" maskUnits="userSpaceOnUse" x="0" y="0" width="175" height="120">
<rect width="175" height="120" fill="#D9D9D9"/>
</mask>
<g mask="url(#mask0_807_19631)">
</g>
<g clip-path="url(#clip0_807_19631)">
<path d="M64.6618 87.359C63.6047 87.359 63.2974 86.7436 63.2974 85.8214C63.2974 85.514 63.336 85.1673 63.3835 84.8021C63.615 83.2074 64.1803 82.2949 65.5447 82.2949C66.4675 82.2949 66.9175 82.7077 66.9175 83.4572V83.8226H67.8329C67.8431 83.8226 67.8431 83.4863 67.8431 83.4097C67.8431 82.3144 67.1799 81.2756 65.5462 81.2756C63.3262 81.2756 62.4134 82.4816 62.077 84.8458C62.0288 85.1631 62 85.4592 62 85.7753C62 87.1687 62.5482 88.4362 64.5084 88.4362C65.9977 88.4362 66.8823 87.71 67.4009 86.8163L66.5262 86.2272C65.9595 87.1212 65.344 87.359 64.6618 87.359ZM70.6682 82.9577C68.89 82.9577 68.1218 83.8702 67.8624 85.6861C67.8319 85.8963 67.8156 86.1083 67.8136 86.3207C67.8136 87.4927 68.3615 88.4254 69.8794 88.4254C71.6576 88.4254 72.4362 87.4738 72.6955 85.6861C72.7244 85.4558 72.7437 85.2443 72.7437 85.0331C72.7441 83.8417 72.1774 82.9577 70.6682 82.9577ZM71.4081 85.6867C71.2158 87.0036 70.803 87.4072 70.024 87.4072C69.3998 87.4072 69.0925 87.1476 69.0925 86.3692C69.0925 86.1768 69.112 85.9465 69.1502 85.6867C69.3426 84.38 69.7269 83.9764 70.5148 83.9764C71.1492 83.9764 71.4658 84.2358 71.4658 85.0237C71.4658 85.2159 71.4463 85.4371 71.4081 85.6867ZM77.2135 81.3711L76.9159 83.1353C76.8968 83.2886 76.9065 83.2376 76.9646 83.3818C76.6859 83.1706 76.1858 83.0308 75.8495 83.0308C74.2541 83.0308 73.3608 83.753 73.0728 85.771C73.0391 85.984 73.023 86.1995 73.0246 86.4151C73.0246 87.8859 73.8893 88.4342 75.0518 88.4342C75.5425 88.4342 76.0227 88.4443 76.3971 88.1277L76.4928 88.7255H77.4156L78.4917 81.3711H77.2135ZM76.3006 87.1281C75.8686 87.3869 75.4461 87.4454 75.1867 87.4454C74.4851 87.4454 74.2929 87.0799 74.2929 86.4941C74.2929 86.2729 74.3218 86.0141 74.3606 85.7346C74.5812 84.2069 75.0715 83.9374 75.7059 83.9374C76.1186 83.9374 76.4355 84.005 76.7341 84.1688L76.3006 87.1281ZM81.2981 82.9577C79.539 82.9577 78.7133 83.7932 78.4342 85.6861C78.405 85.917 78.3857 86.1382 78.3857 86.3495C78.3857 87.6469 79.0491 88.4254 80.5092 88.4254C81.6432 88.4254 82.4896 87.9542 82.941 87.0893L81.9702 86.6952C81.692 87.1177 81.3172 87.4062 80.654 87.4062C79.943 87.4062 79.6546 87.2148 79.6546 86.5805C79.6546 86.4553 79.6644 86.2735 79.6837 86.2735H83.1522C83.201 85.7832 83.2578 85.4367 83.2578 85.1492C83.2578 84.1889 82.893 82.9575 81.2981 82.9575V82.9577ZM81.9609 85.2935H79.8468C80.0586 84.8031 80.4135 84.0442 81.1441 84.0442C81.7108 84.0442 81.9899 84.3755 81.9899 84.9425C81.9893 85.0385 81.9806 85.2935 81.9609 85.2935ZM86.9559 82.8419L87.0711 81.8615H84.3608L84.246 82.8419H84.957L84.1888 87.7448H83.4768L83.3622 88.7255H86.0719L86.1877 87.7448H85.4762L86.2446 82.8419H86.9559ZM92.4627 84.3128L92.809 83.3323H91.8768L91.2047 83.471C90.8297 83.2313 90.3203 83.0514 89.8403 83.0514C88.4656 83.0514 87.2937 83.7152 87.2937 85.2242C87.2937 85.6475 87.4473 85.9892 87.6295 86.2201C87.3419 86.3735 87.0918 86.6304 87.0918 86.977C87.0918 87.1305 87.1491 87.2877 87.2649 87.4315C86.6878 87.7781 86.3334 88.3523 86.3334 89.0245C86.3334 90.3224 87.688 90.5993 88.7258 90.5993C90.0325 90.5993 91.5896 90.3007 91.5896 88.6381C91.5896 88.0714 91.2342 87.6286 90.2059 87.4364L88.3514 87.0899C88.1402 87.0511 88.092 86.9839 88.092 86.8878C88.092 86.7436 88.1794 86.6672 88.3228 86.6672L88.4479 86.6863C88.6977 86.7438 88.9862 86.773 89.2838 86.773C90.6199 86.773 91.8112 86.1961 91.8112 84.6971C91.8112 84.4854 91.773 84.3422 91.677 84.1113C91.8401 84.1884 92.0519 84.3134 92.1377 84.3134H92.4627V84.3128ZM89.8206 88.2906C90.1854 88.3582 90.3101 88.4925 90.3101 88.7328C90.3101 89.5113 89.4741 89.6074 88.869 89.6074C87.9464 89.6074 87.6007 89.3868 87.6007 88.8961C87.6007 88.4634 87.7252 88.2621 88.014 87.9542L89.8206 88.2906ZM89.4259 85.7734C88.8686 85.7734 88.561 85.5719 88.561 85.0909C88.561 84.38 88.9744 83.9666 89.6951 83.9666C90.2717 83.9666 90.5506 84.2069 90.5506 84.6772C90.5506 85.3885 90.1466 85.7734 89.4259 85.7734ZM95.8766 82.9577C95.3383 82.9577 94.8583 83.2218 94.2621 83.6922L94.1758 83.3323H93.1183L92.3786 88.7253H93.6566L94.2142 84.6355C94.5892 84.405 95.0501 84.0702 95.4441 84.0702C95.9243 84.0702 96.0978 84.302 96.0978 84.7438C96.0978 84.8496 96.0876 85.163 96.0683 85.2782L95.5981 88.7253H96.8764L97.3466 85.2502C97.3661 85.0877 97.3852 84.8198 97.3852 84.6664C97.3858 83.7523 96.9527 82.9577 95.8766 82.9577ZM99.8131 87.3743L99.8229 87.2422L100.38 83.3323H98.256L98.1221 84.3128H99.0537C98.9767 84.3128 98.9287 84.3987 98.9194 84.4761L98.5349 87.0801C98.5158 87.2055 98.5064 87.4663 98.5064 87.5713C98.5064 88.2438 98.8713 88.7255 99.6204 88.7255H100.274L100.418 87.7448H100.005C99.8607 87.7448 99.8131 87.4894 99.8131 87.3743ZM100.639 81.3711H99.39C99.313 81.3711 99.313 81.0882 99.3037 81.1842L99.1302 82.5659C99.1203 82.6528 99.1203 82.8421 99.1973 82.8421H100.447C100.524 82.8421 100.524 82.5062 100.533 82.4188L100.707 81.3524C100.717 81.2563 100.717 81.3711 100.639 81.3711ZM103.246 87.407C102.929 87.407 102.775 87.2723 102.775 86.9845L102.785 86.9648L103.188 84.3128H104.649L105.091 83.3323H103.323L103.62 81.1745L102.275 81.6045L102.035 83.3323H101.257L101.122 84.3128H102.025C101.939 84.8031 101.852 84.485 101.843 84.5815L101.497 86.9069C101.478 87.0129 101.478 87.0897 101.478 87.1854C101.478 88.0984 102.15 88.4401 102.958 88.4401C103.707 88.4401 104.313 88.2213 104.784 87.8266L104.188 87.0933C103.889 87.2755 103.688 87.407 103.246 87.407ZM107.935 82.9577C106.177 82.9577 105.35 83.7932 105.071 85.6861C105.043 85.917 105.023 86.1382 105.023 86.3495C105.023 87.6469 105.686 88.4254 107.147 88.4254C108.281 88.4254 109.127 87.9542 109.578 87.0893L108.608 86.6952C108.33 87.1177 107.954 87.4062 107.291 87.4062C106.58 87.4062 106.292 87.2148 106.292 86.5805C106.292 86.4553 106.302 86.2735 106.321 86.2735H109.79C109.838 85.7832 109.896 85.4367 109.896 85.1492C109.896 84.1889 109.531 82.9575 107.935 82.9575V82.9577ZM108.598 85.2935H106.484C106.696 84.8031 107.051 84.0442 107.782 84.0442C108.348 84.0442 108.628 84.3755 108.628 84.9425C108.627 85.0385 108.618 85.2935 108.598 85.2935ZM113.432 82.9575C112.971 82.9575 112.539 83.222 112.106 83.6343L112.029 83.3323H110.972L110.232 88.7253H111.52L112.087 84.549C112.423 84.3477 112.808 84.1757 113.173 84.1757C113.404 84.1757 113.624 84.1389 113.836 84.1675L114 83.0534C113.807 83.015 113.615 82.9577 113.432 82.9577V82.9575ZM80.7972 77.5083C77.8884 76.2509 75.1666 73.0554 75.1601 69.7857C75.1521 66.2208 77.4113 63.1943 80.2211 61.2053C79.8833 62.4815 79.6991 63.6489 80.536 64.7904C81.3139 65.8517 82.6765 66.3675 83.9631 66.0876C86.9693 65.4295 87.1073 62.1246 85.325 60.1992C83.5629 58.2925 81.8583 56.1387 82.529 53.3736C82.8648 51.9875 83.7159 50.6891 84.7941 49.761C83.9653 51.9389 86.3204 54.0868 87.872 55.1566C90.5636 57.0128 93.5169 58.4155 95.9917 60.5914C98.595 62.8782 100.517 65.9702 100.129 69.5563C99.7085 73.4433 96.6198 76.1467 93.1553 77.5115C100.476 75.8957 108.041 70.2137 108.196 62.0943C108.324 55.4146 103.742 50.2739 98.0657 47.3308L97.7691 47.1689C97.9249 47.5469 97.9759 47.8685 97.97 48.1563C98.0208 47.944 98.0553 47.7259 98.065 47.5008C98.0637 47.7682 98.0287 48.0343 97.961 48.293L97.97 48.1563C97.8857 48.5109 97.7437 48.8493 97.5497 49.1579L97.633 49.0683C96.5006 50.9466 93.4348 51.3545 91.9203 49.4096C89.4857 46.2811 91.9713 42.908 92.319 39.595C92.7543 35.4429 90.1505 31.4121 86.922 29C88.7002 31.8765 86.3575 35.682 84.4833 37.8095C82.6659 39.8719 80.4557 41.5938 78.4495 43.4676C76.2943 45.4801 74.2224 47.6002 72.451 49.9623C68.9081 54.6902 66.7391 60.6365 68.333 66.5349C69.9259 72.4291 75.0317 76.1813 80.7974 77.5081L80.7972 77.5083Z" fill="#EE4323"/>
</g>
<defs>
<clipPath id="clip0_807_19631">
<rect width="52" height="61.7577" fill="white" transform="translate(62 29)"/>
</clipPath>
</defs>
</svg>
