<svg width="175" height="120" viewBox="0 0 175 120" fill="none" xmlns="http://www.w3.org/2000/svg">
<mask id="mask0_135_1520" style="mask-type:alpha" maskUnits="userSpaceOnUse" x="0" y="0" width="175" height="120">
<rect width="175" height="120" fill="#D9D9D9"/>
</mask>
<g mask="url(#mask0_135_1520)">
</g>
<path d="M129.994 55.5898C129.75 55.5898 129.511 55.6398 129.3 55.7575L122.626 59.5617C122.195 59.8073 121.932 60.2719 121.932 60.7652V68.3593C121.932 68.8533 122.195 69.3158 122.626 69.5628L124.37 70.5549C125.216 70.9675 125.529 70.9606 125.914 70.9606C127.168 70.9606 127.884 70.2094 127.884 68.9046V61.4077C127.884 61.3023 127.79 61.2264 127.686 61.2264H126.849C126.743 61.2264 126.652 61.3016 126.652 61.4077V68.9039C126.652 69.4834 126.041 70.0643 125.05 69.5751L123.236 68.5262C123.172 68.4927 123.123 68.4318 123.123 68.3586V60.7645C123.123 60.6934 123.171 60.6188 123.236 60.5825L129.896 56.792C129.958 56.7571 130.032 56.7571 130.094 56.792L136.753 60.5825C136.817 60.6202 136.866 60.6899 136.866 60.7645V68.3593C136.866 68.4318 136.83 68.5064 136.767 68.5413L130.093 72.3311C130.036 72.3646 129.958 72.3646 129.895 72.3311L128.18 71.3239C128.126 71.2952 128.062 71.2952 128.01 71.3239C127.536 71.5894 127.448 71.6202 127.004 71.7714C126.895 71.8091 126.729 71.8672 127.061 72.0513L129.3 73.3506C129.51 73.4717 129.75 73.5346 129.993 73.5333C130.238 73.5346 130.477 73.4717 130.688 73.3513L137.361 69.5614C137.793 69.3137 138.056 68.8526 138.056 68.3586V60.7638C138.056 60.2705 137.793 59.8073 137.361 59.561L130.688 55.7568C130.48 55.6398 130.24 55.5898 129.994 55.5898Z" fill="#83CD29"/>
<path d="M131.779 61.0156C129.88 61.0156 128.747 61.8148 128.747 63.1415C128.747 64.5817 129.871 64.9772 131.695 65.1551C133.876 65.3658 134.046 65.6819 134.046 66.1062C134.046 66.8417 133.453 67.155 132.05 67.155C130.285 67.155 129.898 66.7199 129.768 65.855C129.752 65.7613 129.68 65.6874 129.583 65.6874H128.719C128.613 65.6874 128.521 65.777 128.521 65.8831C128.521 66.9908 129.131 68.3018 132.05 68.3018C134.161 68.3018 135.379 67.4842 135.379 66.0507C135.379 64.6289 134.395 64.2478 132.347 63.981C130.277 63.7107 130.08 63.578 130.08 63.099C130.08 62.7049 130.247 62.1767 131.78 62.1767C133.15 62.1767 133.655 62.4682 133.864 63.3796C133.88 63.4651 133.958 63.5335 134.047 63.5335H134.912C134.965 63.5335 135.016 63.5014 135.053 63.463C135.09 63.4227 135.116 63.3782 135.11 63.3235C134.975 61.7553 133.915 61.0156 131.779 61.0156Z" fill="#83CD29"/>
<path d="M90.7588 45.6318C90.6854 45.6318 90.6112 45.6509 90.5467 45.6879C90.4157 45.7631 90.3346 45.902 90.3332 46.0512V56.7509C90.3332 56.8562 90.284 56.95 90.1918 57.0027C90.0996 57.056 89.9859 57.056 89.8938 57.0027L88.122 55.9955C87.8606 55.845 87.5362 55.845 87.2721 55.9955L80.2017 60.0234C79.9376 60.174 79.7768 60.4627 79.7768 60.7644V68.8197C79.7768 69.12 79.9376 69.3965 80.2017 69.547L87.2721 73.5756C87.5342 73.7268 87.86 73.7268 88.122 73.5756L95.1931 69.547C95.4565 69.3971 95.618 69.1207 95.618 68.8197V48.736C95.618 48.4288 95.4503 48.1462 95.1786 47.995L90.971 45.6728C90.9051 45.6366 90.8316 45.6304 90.7588 45.6318ZM45.2757 55.6876C45.1405 55.6931 45.0137 55.7163 44.8931 55.7848L37.8226 59.8134C37.5592 59.9632 37.397 60.2403 37.3977 60.5407L37.4123 71.3519C37.4123 71.5018 37.4913 71.642 37.6251 71.7152C37.7554 71.7926 37.9197 71.7926 38.05 71.7152L42.2444 69.3376C42.5099 69.1816 42.6832 68.9107 42.6832 68.6103V63.5615C42.6832 63.2611 42.8433 62.9833 43.1081 62.8342L44.8938 61.8133C45.0234 61.7394 45.1697 61.7004 45.3194 61.7011C45.465 61.7011 45.6147 61.7367 45.7443 61.8133L47.5299 62.8342C47.7934 62.9833 47.9563 63.2611 47.9556 63.5615V68.6103C47.9556 68.9107 48.1302 69.1837 48.3943 69.3376L52.5888 71.7159C52.7198 71.7932 52.8834 71.7932 53.0137 71.7159C53.1454 71.6407 53.2265 71.5018 53.2265 71.3526L53.2404 60.5414C53.2425 60.241 53.0796 59.9632 52.8155 59.8141L45.745 55.7854C45.6258 55.717 45.4982 55.6938 45.3624 55.6883L45.2757 55.6876ZM108.811 55.7848C108.663 55.7848 108.518 55.8224 108.386 55.8977L101.315 59.9256C101.051 60.0748 100.89 60.3526 100.89 60.6529V68.7081C100.89 69.0112 101.064 69.2863 101.331 69.4361L108.344 73.3799C108.603 73.5257 108.92 73.5366 109.18 73.3943L113.431 71.0584C113.565 70.9852 113.657 70.8463 113.657 70.6951C113.659 70.5439 113.578 70.405 113.445 70.3311L106.332 66.3031C106.199 66.2286 106.104 66.076 106.104 65.9248V63.4082C106.104 63.257 106.2 63.1188 106.332 63.0442L108.542 61.786C108.672 61.7107 108.835 61.7107 108.966 61.786L111.176 63.0442C111.308 63.1188 111.39 63.2577 111.389 63.4082V65.3938C111.389 65.5437 111.47 65.6826 111.602 65.7571C111.735 65.8324 111.895 65.8324 112.027 65.7571L116.264 63.3234C116.526 63.1729 116.689 62.8958 116.689 62.5961V60.6522C116.689 60.3519 116.527 60.0754 116.264 59.9249L109.235 55.897C109.107 55.8238 108.96 55.7848 108.811 55.7848ZM87.67 61.7997C87.7068 61.7997 87.7511 61.8086 87.7837 61.827L90.2078 63.2119C90.2729 63.2488 90.3201 63.3179 90.3201 63.3939V66.1629C90.3201 66.2381 90.2729 66.3072 90.2078 66.3449L87.7837 67.729C87.7179 67.7667 87.6374 67.7667 87.5716 67.729L85.1482 66.3449C85.0817 66.3072 85.0352 66.2388 85.0352 66.1629V63.3939C85.0352 63.3186 85.0824 63.2495 85.1482 63.2119L87.5716 61.8277C87.6007 61.8092 87.6354 61.7997 87.67 61.7997Z" fill="#404137"/>
<path d="M66.5155 55.7432C66.3678 55.7432 66.223 55.78 66.0906 55.8553L59.0194 59.8696C58.7553 60.0194 58.5945 60.3102 58.5945 60.6113V68.6665C58.5945 68.9675 58.7546 69.2426 59.0194 69.3939L66.0906 73.4217C66.3526 73.5729 66.6777 73.5729 66.9404 73.4217L74.0115 69.3939C74.2743 69.2447 74.4372 68.9661 74.4365 68.6665V60.6113C74.4365 60.3095 74.2756 60.0194 74.0115 59.8696L66.9404 55.8553C66.8115 55.7821 66.6645 55.7432 66.5155 55.7432ZM108.797 62.9314C108.768 62.9314 108.737 62.9314 108.712 62.9458L107.352 63.7292C107.3 63.7579 107.268 63.8114 107.267 63.8688V65.4083C107.267 65.4665 107.301 65.5184 107.352 65.5478L108.712 66.317C108.762 66.3464 108.818 66.3464 108.868 66.317L110.228 65.5472C110.28 65.5192 110.313 65.4665 110.313 65.4083V63.8688C110.313 63.8114 110.28 63.7579 110.228 63.7292L108.868 62.9458C108.843 62.9307 108.825 62.9321 108.797 62.9314Z" fill="#83CD29"/>
</svg>
