<svg width="175" height="76" viewBox="0 0 175 76" fill="none" xmlns="http://www.w3.org/2000/svg">
<path d="M91.3234 11.0789C62.6763 11.0789 39.4546 23.1321 39.4546 37.9999C39.4546 52.8685 62.6763 64.921 91.3234 64.921C119.969 64.921 143.193 52.8685 143.193 37.9999C143.192 23.1321 119.969 11.0789 91.3234 11.0789Z" fill="#8993BE"/>
<path d="M70.007 30.0203H65.3885L63.3093 41.1998V41.1918H67.8758C71.0731 41.1918 73.9157 39.5017 74.2703 33.4795C74.2695 31.356 72.4937 30.0203 70.007 30.0203Z" fill="#8993BE"/>
<path d="M117.614 30.0203H112.995L112.128 41.1998V41.1918H115.482C118.679 41.1918 121.52 39.5017 121.876 33.4795C121.877 31.356 120.099 30.0203 117.614 30.0203Z" fill="#8993BE"/>
<path d="M72.8458 25.2476H59.7016L54.0161 53.9409H60.7668L62.1873 46.5015H68.5818C74.6217 46.8565 81.3714 41.8964 81.3714 33.3964C81.3723 28.4354 78.5296 25.6019 72.8458 25.2476ZM67.8719 41.1886H63.6095L65.3853 30.5605H70.0039C72.4905 30.5605 74.2672 31.6234 74.2672 33.7483C73.9118 39.7722 71.0691 40.8343 67.8719 41.1886Z" fill="#232531"/>
<path d="M94.9719 46.5009H102.078L104.564 31.9786C105.274 28.4356 103.144 25.6013 97.4585 25.247H91.064L92.4861 17.8083H85.7356L80.0502 46.5009H86.8016L89.998 30.5607H95.3273C97.813 30.5607 97.813 31.6236 97.4593 33.3959L94.9719 46.5009Z" fill="#232531"/>
<path d="M120.451 25.2476H107.306L101.622 53.9409H108.372L109.794 46.5015H116.188C122.227 46.8565 128.977 41.8964 128.977 33.3964C128.978 28.4354 126.136 25.6019 120.451 25.2476ZM115.479 41.1886H111.216L112.993 30.5605H117.611C120.097 30.5605 121.874 31.6234 121.874 33.7483C121.516 39.7722 118.677 40.8343 115.479 41.1886Z" fill="#232531"/>
</svg>
