<svg width="56" height="53" viewBox="0 0 56 53" fill="none" xmlns="http://www.w3.org/2000/svg">
<mask id="mask0_7200_56071" style="mask-type:alpha" maskUnits="userSpaceOnUse" x="0" y="0" width="56" height="53">
<rect width="56" height="53" fill="#D9D9D9"/>
</mask>
<g mask="url(#mask0_7200_56071)">
<path d="M46.9045 14.5999H9.04297V51.9999H46.9045V14.5999Z" fill="#242424"/>
<path d="M46.9045 46.9003H9.04297V52.0003H46.9045V46.9003Z" fill="#000311"/>
<path d="M40.0167 13.9383V22.7235C40.0167 23.8703 39.1202 24.8 38.0142 24.8C36.9083 24.8 36.0117 23.8703 36.0117 22.7235V13.9383C36.0117 9.08632 32.2186 5.15303 27.5396 5.15303C22.8606 5.15303 19.0675 9.08632 19.0675 13.9383V22.7235C19.0675 23.8703 18.1709 24.8 17.065 24.8C15.959 24.8 15.0625 23.8703 15.0625 22.7235V13.9383C15.0625 6.79266 20.6487 1 27.5396 1C34.4305 1 40.0167 6.79266 40.0167 13.9383Z" fill="#000311"/>
</g>
</svg>
