<svg width="56" height="53" viewBox="0 0 56 53" fill="none" xmlns="http://www.w3.org/2000/svg">
<mask id="mask0_7200_56642" style="mask-type:alpha" maskUnits="userSpaceOnUse" x="0" y="0" width="56" height="53">
<rect width="56" height="53" fill="#D9D9D9"/>
</mask>
<g mask="url(#mask0_7200_56642)">
<path d="M38.8245 26.792C38.8245 24.9722 38.8209 23.1528 38.8259 21.333C38.8286 20.2334 39.56 19.362 40.626 19.1697C41.9 18.9398 43.0989 19.9202 43.1319 21.2189C43.1392 21.5115 42.9464 21.7465 42.6835 21.7652C42.3616 21.7881 42.1711 21.6077 42.1409 21.2524C42.0818 20.5526 41.584 20.1071 40.9049 20.1464C40.3778 20.1767 39.9277 20.5911 39.8622 21.1154C39.8411 21.2849 39.8297 21.4571 39.8297 21.6279C39.8279 25.4539 39.8288 29.2795 39.8283 33.1056C39.8283 34.6552 38.9069 36.0162 37.4699 36.5941C36.0696 37.1574 34.4187 36.802 33.3691 35.6934C32.7358 35.0243 32.3951 34.2179 32.3351 33.2984C32.3044 32.8262 32.5023 32.6215 32.9758 32.6211C34.8194 32.6197 36.6631 32.6206 38.5067 32.6202C38.718 32.6202 38.8239 32.5119 38.8245 32.2955C38.8245 30.461 38.8245 28.626 38.8245 26.7915V26.792ZM36.0966 33.6143C35.2833 33.6143 34.47 33.613 33.6567 33.6153C33.4172 33.6157 33.3865 33.6556 33.4548 33.8767C33.6883 34.6351 34.154 35.2102 34.8647 35.5601C36.4098 36.3198 38.2081 35.5285 38.7151 33.8804C38.7915 33.6322 38.7806 33.6153 38.514 33.6148C37.7081 33.6134 36.9021 33.6148 36.0966 33.6148V33.6143Z" fill="black"/>
<path d="M4.78535 27.549C5.05965 27.6498 5.31243 27.7386 5.51576 27.9231C6.00163 28.3641 6.12435 28.9132 5.99064 29.5328C5.85463 30.1624 5.4315 30.5329 4.84946 30.7459C4.56737 30.8489 4.27383 30.8919 3.9716 30.8901C3.22516 30.8851 2.47873 30.8901 1.73229 30.8878C1.25787 30.8864 1.04768 30.6767 1.04722 30.2064C1.04676 28.5285 1.04676 26.8507 1.04722 25.1728C1.04722 24.7368 1.21574 24.5175 1.64895 24.5065C2.43889 24.4863 3.22974 24.5115 4.0206 24.5111C4.30314 24.5111 4.56875 24.5752 4.82382 24.6855C5.7896 25.1023 6.10787 26.2031 5.50019 27.0247C5.32297 27.2637 5.06927 27.407 4.78535 27.5495V27.549ZM3.14777 28.0156C2.87072 28.0156 2.66969 28.0175 2.46865 28.0152C2.3418 28.0138 2.27449 28.0624 2.2754 28.1984C2.27769 28.7493 2.27723 29.2997 2.27632 29.8506C2.27632 29.96 2.32028 30.0159 2.43522 30.0155C2.96368 30.0136 3.49397 30.042 4.01647 29.9426C4.49181 29.852 4.75009 29.5383 4.76886 29.0552C4.78764 28.5643 4.56188 28.2574 4.09112 28.1072C3.75637 28.0005 3.41383 28.0221 3.14823 28.0161L3.14777 28.0156ZM2.2754 26.2773C2.2754 26.5159 2.28227 26.7549 2.27311 26.9931C2.26716 27.1561 2.33264 27.2271 2.49338 27.2239C2.82905 27.217 3.16563 27.2257 3.50038 27.2046C3.8017 27.1859 4.09616 27.1172 4.31093 26.879C4.5518 26.6121 4.61088 26.297 4.4941 25.9623C4.35718 25.5703 4.01876 25.4333 3.65058 25.399C3.25813 25.3624 2.86019 25.3825 2.46499 25.3743C2.3157 25.3711 2.27174 25.448 2.27403 25.5835C2.27861 25.8148 2.2754 26.0461 2.27494 26.2773H2.2754Z" fill="black"/>
<path d="M52.6564 27.0301C52.8308 26.8639 52.9838 26.7022 53.1798 26.5942C54.1584 26.0552 55.2607 26.3931 55.7191 27.4088C56.0707 28.1887 56.0978 29.0057 55.7626 29.8006C55.2359 31.0494 53.776 31.3356 52.7951 30.3992C52.7535 30.3598 52.7113 30.3208 52.6362 30.2508C52.6362 30.7591 52.6362 31.2257 52.6362 31.6924C52.6362 31.8114 52.6403 31.9309 52.6344 32.05C52.6202 32.3289 52.4288 32.5253 52.1554 32.5469C51.8023 32.5748 51.5793 32.4278 51.5207 32.1256C51.5079 32.0601 51.5047 31.9923 51.5047 31.9255C51.5037 30.2929 51.5037 28.6604 51.5042 27.0278C51.5042 26.7934 51.5505 26.58 51.7909 26.4673C52.0125 26.3634 52.2255 26.3803 52.4256 26.5223C52.5918 26.64 52.6225 26.8259 52.6568 27.0292L52.6564 27.0301ZM54.8151 28.6585C54.7963 28.3632 54.7807 28.0733 54.6782 27.7967C54.5307 27.3997 54.1996 27.1446 53.8117 27.1295C53.3451 27.1112 52.9444 27.3223 52.796 27.7138C52.5657 28.3206 52.5561 28.9388 52.8199 29.5405C52.9907 29.9302 53.4092 30.1748 53.8063 30.1505C54.2363 30.1244 54.5687 29.8464 54.7066 29.4022C54.7826 29.1577 54.794 28.9054 54.8151 28.6585Z" fill="black"/>
<path d="M43.1115 30.9437C42.1787 30.9267 41.4103 30.6048 41.0032 29.7123C40.5883 28.8033 40.6689 27.9172 41.2935 27.1245C41.794 26.4893 42.5098 26.313 43.2791 26.3551C44.2197 26.4069 44.9492 26.8204 45.2872 27.7363C45.6311 28.6673 45.5171 29.5483 44.8201 30.2934C44.3649 30.7802 43.7668 30.9455 43.1115 30.9432V30.9437ZM41.9333 28.6618C41.9635 28.942 42.001 29.2388 42.1279 29.5121C42.3078 29.8996 42.6023 30.1345 43.0433 30.1597C43.5113 30.1862 43.8589 29.9889 44.0595 29.5726C44.3512 28.9677 44.3489 28.3453 44.0672 27.739C43.8864 27.3498 43.5571 27.1387 43.123 27.1327C42.6976 27.1268 42.3779 27.3292 42.1778 27.6996C42.0198 27.9918 41.9557 28.3137 41.9337 28.6618H41.9333Z" fill="black"/>
<path d="M14.7435 30.3428C14.4733 30.6533 14.1257 30.8553 13.7058 30.9157C13.3143 30.9716 12.9314 30.9441 12.5706 30.7628C12.0875 30.5201 11.8558 30.1198 11.8594 29.5886C11.8626 29.0551 12.1172 28.6636 12.5903 28.4213C13.0317 28.1956 13.5167 28.1475 14.0007 28.1054C14.134 28.0939 14.2695 28.1021 14.4037 28.1021C14.7765 28.1017 14.8557 27.9803 14.7224 27.6236C14.5942 27.2792 14.3053 27.1927 13.987 27.1822C13.579 27.1689 13.1879 27.2655 12.8151 27.4326C12.7405 27.4661 12.6636 27.5009 12.5843 27.5146C12.4392 27.5398 12.3187 27.4807 12.234 27.363C12.1516 27.2486 12.1589 27.1263 12.2258 27.0045C12.3233 26.8282 12.4648 26.6908 12.6457 26.6148C13.4338 26.2837 14.2398 26.22 15.0357 26.5635C15.5485 26.7847 15.8004 27.2252 15.8105 27.7756C15.8265 28.6334 15.8174 29.4911 15.8155 30.3488C15.8151 30.6817 15.6488 30.8635 15.3457 30.8859C15.0879 30.9047 14.7884 30.738 14.8035 30.4243C14.8049 30.3959 14.8012 30.3634 14.744 30.3428H14.7435ZM14.2508 28.7872C14.0053 28.7982 13.6628 28.8193 13.3436 28.9608C13.0446 29.0936 12.9186 29.3019 12.9365 29.6097C12.9525 29.8831 13.1087 30.0667 13.4086 30.1633C14.0328 30.3648 14.6835 29.9156 14.7563 29.2333C14.803 28.7959 14.792 28.7836 14.2503 28.7868L14.2508 28.7872Z" fill="black"/>
<path d="M9.57402 28.8385C9.13348 28.8385 8.69295 28.8358 8.25241 28.8399C8.00971 28.8422 7.99917 28.8637 8.05642 29.105C8.25791 29.9549 8.96908 30.2375 9.82313 30.0186C10.0681 29.9559 10.3076 29.8666 10.5325 29.7466C10.7033 29.6555 10.8681 29.6454 10.9918 29.8148C11.1159 29.9852 11.0706 30.1564 10.9432 30.3062C10.6689 30.6304 10.2953 30.7847 9.89594 30.8653C9.13165 31.0196 8.39117 30.978 7.73998 30.4848C6.94638 29.8844 6.64872 28.6773 7.05857 27.7532C7.51559 26.7238 8.4736 26.1921 9.53418 26.3794C10.6314 26.5735 11.2496 27.2783 11.3 28.3934C11.3151 28.7318 11.196 28.8449 10.8503 28.8408C10.4249 28.8353 9.99898 28.8394 9.57356 28.8394C9.57356 28.839 9.57356 28.838 9.57356 28.8376L9.57402 28.8385ZM9.1779 28.2285C9.48289 28.2285 9.78787 28.2285 10.0929 28.2285C10.1977 28.2285 10.2976 28.2217 10.2614 28.0715C10.167 27.6767 9.98753 27.3484 9.57585 27.2037C8.9123 26.9706 8.25928 27.3218 8.0784 28.0037C8.0326 28.1759 8.09214 28.2345 8.26295 28.2304C8.56793 28.2235 8.87292 28.2285 9.1779 28.2285Z" fill="black"/>
<path d="M33.8071 30.2916C33.4312 30.7248 32.9764 30.941 32.4191 30.9391C31.5037 30.9359 30.8594 30.3154 30.8489 29.4014C30.8397 28.5885 30.8452 27.7757 30.8475 26.9624C30.8484 26.6249 31.0522 26.4175 31.3856 26.4019C31.6928 26.3877 31.9502 26.6093 31.9681 26.9294C31.9841 27.2193 31.974 27.511 31.9745 27.8018C31.9754 28.2716 31.9713 28.7415 31.9768 29.2113C31.9827 29.7549 32.2318 30.1002 32.6453 30.1538C33.1885 30.2238 33.6578 29.9257 33.8039 29.4201C33.8419 29.2892 33.8506 29.1568 33.8506 29.0217C33.8502 28.3577 33.8493 27.6942 33.8506 27.0302C33.8515 26.6222 34.0503 26.4019 34.4139 26.4005C34.7555 26.3991 34.9767 26.6441 34.9776 27.038C34.9799 28.1196 34.9799 29.2008 34.9776 30.2824C34.9767 30.6557 34.7931 30.8649 34.4592 30.886C34.1121 30.9084 33.9042 30.7298 33.8438 30.3585C33.8415 30.3452 33.8305 30.3337 33.8071 30.2916Z" fill="black"/>
<path d="M49.2928 30.2952C48.9218 30.7009 48.4996 30.9285 47.9762 30.9367C46.9747 30.9523 46.3359 30.3501 46.3171 29.3495C46.302 28.5518 46.3107 27.7541 46.3153 26.9564C46.3171 26.6271 46.5424 26.4073 46.8634 26.4009C47.1899 26.3945 47.4349 26.6212 47.4377 26.955C47.4436 27.6707 47.4386 28.3865 47.4409 29.1023C47.4409 29.2433 47.4317 29.3853 47.4711 29.5245C47.6012 29.9852 47.9295 30.2054 48.4144 30.1546C48.8971 30.1042 49.296 29.7035 49.3079 29.2167C49.3244 28.5312 49.3148 27.8448 49.3166 27.1592C49.3166 27.0773 49.3134 26.9948 49.3216 26.9133C49.3532 26.6038 49.5913 26.3931 49.8959 26.4013C50.227 26.41 50.4417 26.6207 50.4422 26.9541C50.4449 28.065 50.444 29.176 50.4431 30.2869C50.4431 30.6414 50.2796 30.8452 49.9714 30.8836C49.6371 30.9253 49.4082 30.7577 49.3271 30.4129C49.3207 30.3845 49.3106 30.357 49.2923 30.2961L49.2928 30.2952Z" fill="black"/>
<path d="M19.9338 30.2499C19.4484 30.8274 18.8558 31.0344 18.1529 30.9016C17.4879 30.7756 17.0488 30.2957 16.9535 29.6262C16.8963 29.2251 16.9265 28.8221 16.9219 28.42C16.9169 27.9502 16.9178 27.4803 16.9219 27.011C16.9256 26.63 17.1445 26.3982 17.4861 26.4005C17.83 26.4028 18.0475 26.6359 18.0489 27.0132C18.0512 27.7139 18.0484 28.415 18.0512 29.1156C18.0516 29.2489 18.0512 29.3867 18.0819 29.5149C18.1748 29.9097 18.4441 30.1382 18.8127 30.157C19.2968 30.1812 19.6984 29.9344 19.8587 29.509C19.9246 29.3331 19.9512 29.1491 19.9507 28.9604C19.9493 28.3042 19.9493 27.6479 19.9507 26.9922C19.9516 26.6208 20.16 26.3964 20.497 26.4001C20.8451 26.4042 21.0511 26.618 21.052 26.9876C21.0539 28.0688 21.053 29.15 21.0525 30.2312C21.0525 30.6598 20.8803 30.8714 20.5236 30.886C20.1646 30.9007 19.9777 30.7102 19.9338 30.249V30.2499Z" fill="black"/>
<path d="M28.0228 28.8358C28.0228 28.3582 28.0178 27.881 28.0256 27.4034C28.0283 27.2303 27.9693 27.1575 27.7925 27.1671C27.6899 27.1731 27.5828 27.1621 27.4825 27.1392C27.2846 27.0943 27.204 26.9477 27.2031 26.7582C27.2022 26.5631 27.3314 26.4683 27.4999 26.4133C27.5278 26.4042 27.5585 26.4033 27.5883 26.4005C27.8716 26.3749 28.0173 26.2158 28.0256 25.9233C28.0343 25.6381 28.0819 25.361 28.1904 25.0945C28.3297 24.7515 28.5728 24.5376 28.9369 24.452C29.3421 24.3567 29.7383 24.3888 30.1293 24.512C30.3295 24.5752 30.4384 24.7758 30.394 24.969C30.3469 25.1737 30.1802 25.2941 29.964 25.2804C29.278 25.2369 29.2712 25.2424 29.1823 25.9142C29.1396 26.2363 29.2799 26.3978 29.6032 26.3987C29.6554 26.3987 29.708 26.3964 29.7598 26.401C29.9851 26.4207 30.1335 26.5645 30.1399 26.7664C30.1463 26.9661 30.0062 27.13 29.7873 27.1598C29.6696 27.1758 29.5478 27.1799 29.4296 27.1676C29.208 27.1447 29.1512 27.2417 29.153 27.451C29.1617 28.3985 29.159 29.346 29.1558 30.293C29.1544 30.6923 28.9195 30.9121 28.538 30.8851C28.2275 30.8631 28.0302 30.6419 28.0256 30.2902C28.0192 29.8053 28.0242 29.3203 28.0242 28.8358H28.0233H28.0228Z" fill="black"/>
<path d="M23.645 25.7658C23.645 25.9151 23.6482 26.0644 23.6441 26.2132C23.6404 26.347 23.7027 26.4024 23.8337 26.3987C23.9678 26.395 24.1025 26.3946 24.2367 26.4001C24.4913 26.4111 24.6552 26.5681 24.6602 26.7994C24.6657 27.0398 24.4995 27.2042 24.2321 27.2161C24.0979 27.2221 23.9633 27.2216 23.8291 27.218C23.6945 27.2143 23.6427 27.2775 23.6436 27.408C23.6473 28.1315 23.6377 28.8555 23.6537 29.5786C23.6619 29.9637 23.8387 30.1176 24.2197 30.048C24.5829 29.9811 24.7894 30.1304 24.8361 30.3644C24.8865 30.6186 24.7129 30.8013 24.3466 30.892C24.081 30.9579 23.8108 30.9597 23.5452 30.9236C22.9077 30.8375 22.5382 30.3992 22.5208 29.689C22.5025 28.9581 22.5066 28.2268 22.5153 27.4959C22.518 27.2784 22.4425 27.1973 22.23 27.2166C22.0688 27.2312 21.9117 27.2033 21.805 27.0659C21.707 26.9395 21.6795 26.7957 21.7514 26.6451C21.8302 26.4802 21.9676 26.4083 22.1466 26.3992C22.5354 26.379 22.5359 26.3776 22.5743 25.9934C22.5982 25.7562 22.6211 25.5186 22.644 25.2813C22.6705 25.0061 22.8683 24.8326 23.1591 24.8312C23.4572 24.8294 23.6171 24.9722 23.6377 25.274C23.6487 25.4375 23.6395 25.6019 23.6395 25.7663C23.6413 25.7663 23.6432 25.7663 23.6445 25.7663L23.645 25.7658Z" fill="black"/>
<path d="M36.0868 27.6877C36.0868 26.8309 36.0859 25.9741 36.0868 25.1178C36.0873 24.728 36.2695 24.522 36.6162 24.5128C36.9972 24.5027 37.2152 24.7001 37.2165 25.099C37.2225 26.8346 37.222 28.5706 37.2165 30.3062C37.2152 30.6666 36.9638 30.8946 36.6166 30.8868C36.2851 30.8795 36.0882 30.6666 36.0873 30.3025C36.085 29.431 36.0863 28.5591 36.0863 27.6877H36.0868Z" fill="black"/>
<path d="M26.5588 28.6668C26.5588 29.2108 26.5629 29.7553 26.5574 30.2993C26.5538 30.6716 26.306 30.9029 25.9461 30.886C25.6132 30.8704 25.4314 30.6671 25.4286 30.2851C25.4236 29.6069 25.4268 28.9283 25.4268 28.2501C25.4268 27.8402 25.424 27.4299 25.4277 27.0201C25.4314 26.6349 25.6416 26.4055 25.985 26.4009C26.3115 26.3968 26.5533 26.6468 26.5574 27.0118C26.5634 27.5636 26.5588 28.115 26.5588 28.6668Z" fill="black"/>
<path d="M25.9875 25.5272C25.9143 25.5212 25.8465 25.5222 25.781 25.5098C25.5273 25.4617 25.3528 25.2781 25.3373 25.0482C25.3208 24.8119 25.4586 24.6026 25.6967 24.5161C25.8914 24.4451 26.0906 24.4428 26.2861 24.5147C26.5311 24.6049 26.6607 24.8018 26.6415 25.045C26.6227 25.284 26.4578 25.4622 26.2032 25.5102C26.1309 25.524 26.0553 25.5222 25.9875 25.5272Z" fill="black"/>
</g>
</svg>
