<svg width="56" height="53" viewBox="0 0 56 53" fill="none" xmlns="http://www.w3.org/2000/svg">
<mask id="mask0_7187_15540" style="mask-type:alpha" maskUnits="userSpaceOnUse" x="0" y="0" width="56" height="53">
<rect width="56" height="53" fill="#D9D9D9"/>
</mask>
<g mask="url(#mask0_7187_15540)">
<path d="M39.1678 20.5347L49.9988 26.9384V39.5876L39.1678 45.8332L28.2578 39.5876V26.9384L39.1678 20.5347Z" fill="#00B46F"/>
<path d="M28.2538 1.40283L39.1638 7.88559V20.5349L28.2538 26.7014L17.3438 20.5349V7.88559L28.2538 1.40283Z" fill="#2294D9"/>
<path d="M39.1678 7.88574L49.9988 14.2894V26.9387L39.1678 33.1843L28.2578 26.9387V14.2894L39.1678 7.88574Z" fill="black"/>
<path d="M17.3466 7.8855L28.2566 14.2892V26.9385L17.3466 33.1841L6.51562 26.9385V14.2892L17.3466 7.8855Z" fill="black"/>
<path d="M17.3466 20.5349L28.2566 26.9386V39.5879L17.3466 45.8335L6.51562 39.5879V26.9386L17.3466 20.5349Z" fill="#0D0D0D"/>
<path d="M28.2538 26.7012L39.1638 33.1839V45.8332L28.2538 51.9997L17.3438 45.8332V33.1839L28.2538 26.7012Z" fill="black"/>
<path d="M39.1638 7.88559L28.2538 14.2893L17.3438 7.88559L28.2538 1.40283L39.1638 7.88559ZM49.9947 14.2893L39.0847 20.772L28.2538 14.2893L39.1638 7.80653L49.9947 14.2893Z" fill="black"/>
<path d="M28.2538 39.3505V26.7012L17.3438 33.1839V45.8332L28.2538 39.3505Z" fill="#060606"/>
<path d="M39.1638 33.1839L28.2538 39.3505L17.3438 33.1839L28.2538 26.7012L39.1638 33.1839Z" fill="#090909"/>
<path d="M28.2538 39.3505L17.3438 33.1839L28.2538 26.7012V39.3505Z" fill="#0B0B0B"/>
<path d="M28.2538 14.2893L17.3438 7.88559L28.2538 1.40283V14.2893Z" fill="#181818"/>
<path d="M28.2566 14.2892L17.3466 20.772L6.51562 14.2892L17.3466 7.8855L28.2566 14.2892Z" fill="black"/>
<path d="M49.9988 26.9385L39.1678 33.1841L28.2578 26.7013L39.1678 20.772L49.9988 26.9385Z" fill="black"/>
<path d="M17.1885 45.6754L6.51562 39.5089L17.1885 33.0261V45.6754Z" fill="black"/>
<path d="M17.3438 20.7722V7.88574L28.2538 14.2894V26.7015L17.3438 20.7722Z" fill="#030202"/>
<path d="M28.2538 26.7012V14.2891L17.3438 20.7718V33.1839L28.2538 26.7012Z" fill="black"/>
<path d="M28.2538 26.7012L17.3438 20.7718L28.2538 14.2891V26.7012Z" fill="#0F0F0F"/>
<path d="M49.995 39.5878L39.1641 33.1841L49.995 26.9385V39.5878Z" fill="#10161A" fill-opacity="0.2"/>
<path d="M39.1678 45.8333V33.1841L28.2578 39.3506V51.9999L39.1678 45.8333ZM49.9988 39.5878V26.9385L39.0888 33.105V45.7543L49.9988 39.5878Z" fill="black"/>
<path d="M49.995 39.5878L39.1641 33.1841L49.995 26.9385V39.5878Z" fill="#0A0A0A"/>
<path d="M49.995 26.9383V14.2891L39.1641 20.7718V33.1839L49.995 26.9383Z" fill="black"/>
<path d="M49.995 26.9383L39.1641 20.7718L49.995 14.2891V26.9383Z" fill="black"/>
<path opacity="0.78" d="M6.51562 14.2893L17.4256 20.4558L28.2566 14.2893L17.6628 20.8511L17.4256 33.1051L17.1885 20.8511L6.51562 14.2893Z" fill="#A4A4A4"/>
<path opacity="0.78" d="M28.2578 14.2891L39.1678 20.5346L49.9988 14.2891L39.405 20.8509L39.1678 33.1839L38.8516 20.8509L28.2578 14.2891Z" fill="#A4A4A4"/>
<path opacity="0.78" d="M17.3438 33.1841L28.2538 39.1134L39.1638 33.1841L28.57 39.5087L28.2538 51.9999L28.0166 39.5087L17.3438 33.1841Z" fill="#A4A4A4"/>
</g>
</svg>
