<svg width="86" height="86" viewBox="0 0 86 86" fill="none" xmlns="http://www.w3.org/2000/svg">
<circle cx="43" cy="43" r="42" stroke="url(#paint0_linear_5212_36428)" stroke-width="1.5"/>
<mask id="mask0_5212_36428" style="mask-type:alpha" maskUnits="userSpaceOnUse" x="2" y="1" width="82" height="82">
<circle cx="43" cy="42" r="41" fill="#D9D9D9"/>
</mask>
<g mask="url(#mask0_5212_36428)">
<path d="M42.0789 55.893H23.5758C21.9673 55.893 20.6101 54.5849 20.6101 52.9273L20.6082 32.5131H57.3118V39.7035C57.3118 40.2063 57.7144 40.5578 58.1661 40.5578C58.6179 40.5578 59.0205 40.1552 59.0205 39.7035L59.0224 27.988C59.0224 25.3739 56.9111 23.3116 54.3461 23.3116H50.5752V21.8543C50.5752 21.3516 50.1726 21 49.7208 21C49.2691 21 48.8665 21.4026 48.8665 21.8543V23.3116H39.8656V21.8543C39.8656 21.3516 39.4629 21 39.0112 21C38.5595 21 38.1569 21.4026 38.1569 21.8543V23.3116H29.1559V21.8543C29.1559 21.3516 28.7533 21 28.3016 21C27.7988 21 27.4473 21.4026 27.4473 21.8543V23.3116H23.6763C21.0622 23.3116 19 25.4229 19 27.988V52.9273C19 55.5414 21.1113 57.6527 23.6763 57.6527H42.1795C42.6823 57.6527 43.0338 57.2501 43.0338 56.7984C42.9828 56.2445 42.5817 55.893 42.0789 55.893ZM23.5758 25.0227H27.3467V26.48C27.3467 26.9828 27.7493 27.3343 28.201 27.3343C28.7038 27.3343 29.0554 26.9317 29.0554 26.48V25.0227H38.0543V26.48C38.0543 26.9828 38.4569 27.3343 38.9087 27.3343C39.3604 27.3343 39.763 26.9317 39.763 26.48V25.0227H48.7619V26.48C48.7619 26.9828 49.1645 27.3343 49.6163 27.3343C50.068 27.3343 50.4706 26.9317 50.4706 26.48V25.0227H54.2415C55.85 25.0227 57.2072 26.3308 57.2072 27.9884V30.7537H20.6589V27.9884C20.6589 26.3798 21.9673 25.0227 23.5758 25.0227Z" fill="url(#paint1_linear_5212_36428)"/>
<path d="M30.765 36.9385H25.7372C25.2344 36.9385 24.8828 37.3411 24.8828 37.7928C24.8828 38.2956 25.2854 38.6472 25.7372 38.6472H30.765C31.2678 38.6472 31.6194 38.2445 31.6194 37.7928C31.6685 37.3411 31.2678 36.9385 30.765 36.9385Z" fill="url(#paint2_linear_5212_36428)"/>
<path d="M30.765 43.3232H25.7372C25.2344 43.3232 24.8828 43.7259 24.8828 44.1776C24.8828 44.6804 25.2854 45.0319 25.7372 45.0319H30.765C31.2678 45.0319 31.6194 44.6293 31.6194 44.1776C31.6685 43.7259 31.2678 43.3232 30.765 43.3232Z" fill="url(#paint3_linear_5212_36428)"/>
<path d="M30.765 49.7085H25.7372C25.2344 49.7085 24.8828 50.1111 24.8828 50.5628C24.8828 51.0146 25.2854 51.4172 25.7372 51.4172H30.765C31.2678 51.4172 31.6194 51.0146 31.6194 50.5628C31.6194 50.1111 31.2678 49.7085 30.765 49.7085Z" fill="url(#paint4_linear_5212_36428)"/>
<path d="M41.5229 36.9385H36.495C35.9922 36.9385 35.6406 37.3411 35.6406 37.7928C35.6406 38.2956 36.0432 38.6472 36.495 38.6472H41.5229C42.0256 38.6472 42.3772 38.2445 42.3772 37.7928C42.3772 37.3411 42.0256 36.9385 41.5229 36.9385Z" fill="url(#paint5_linear_5212_36428)"/>
<path d="M41.5229 43.3232H36.495C35.9922 43.3232 35.6406 43.7259 35.6406 44.1776C35.6406 44.6804 36.0432 45.0319 36.495 45.0319H41.5229C42.0256 45.0319 42.3772 44.6293 42.3772 44.1776C42.3772 43.7259 42.0256 43.3232 41.5229 43.3232Z" fill="url(#paint6_linear_5212_36428)"/>
<path d="M41.5229 49.7085H36.495C35.9922 49.7085 35.6406 50.1111 35.6406 50.5628C35.6406 51.0146 36.0432 51.4172 36.495 51.4172H41.5229C42.0256 51.4172 42.3772 51.0146 42.3772 50.5628C42.3772 50.1111 42.0256 49.7085 41.5229 49.7085Z" fill="url(#paint7_linear_5212_36428)"/>
<path d="M47.2059 36.9385C46.7031 36.9385 46.3516 37.3411 46.3516 37.7928C46.3516 38.2956 46.7542 38.6472 47.2059 38.6472H52.2338C52.7366 38.6472 53.0881 38.2445 53.0881 37.7928C53.0881 37.29 52.6855 36.9385 52.2338 36.9385H47.2059Z" fill="url(#paint8_linear_5212_36428)"/>
<path d="M55.5502 42.269C49.4166 42.269 44.4375 47.2459 44.4375 53.3817C44.4375 59.5152 49.4143 64.4943 55.5502 64.4943C61.6837 64.4943 66.6628 59.5175 66.6628 53.3817C66.6628 47.2459 61.686 42.269 55.5502 42.269ZM55.5502 62.7321C50.3709 62.7321 46.1973 58.5094 46.1973 53.3792C46.1973 48.1999 50.4199 44.0263 55.5502 44.0263C60.6801 44.0283 64.903 48.1998 64.903 53.3299C64.903 58.5071 60.7295 62.7321 55.5502 62.7321Z" fill="url(#paint9_linear_5212_36428)"/>
<path d="M59.5756 52.4735H56.4587V47.2962C56.4587 46.7934 56.0561 46.4419 55.6043 46.4419C55.1526 46.4419 54.75 46.8445 54.75 47.2962V53.3297C54.75 53.8325 55.1526 54.184 55.6043 54.184H59.6267C60.1294 54.184 60.481 53.7814 60.481 53.3297C60.4319 52.876 60.0293 52.4735 59.5756 52.4735Z" fill="url(#paint10_linear_5212_36428)"/>
</g>
<defs>
<linearGradient id="paint0_linear_5212_36428" x1="10.9196" y1="1.00002" x2="85.0417" y2="14.9118" gradientUnits="userSpaceOnUse">
<stop stop-color="#2EC4F3"/>
<stop offset="1" stop-color="#BFD633"/>
</linearGradient>
<linearGradient id="paint1_linear_5212_36428" x1="23.7263" y1="21" x2="58.8127" y2="28.1907" gradientUnits="userSpaceOnUse">
<stop stop-color="#2EC4F3"/>
<stop offset="1" stop-color="#BFD633"/>
</linearGradient>
<linearGradient id="paint2_linear_5212_36428" x1="25.6788" y1="36.9385" x2="29.656" y2="39.8832" gradientUnits="userSpaceOnUse">
<stop stop-color="#2EC4F3"/>
<stop offset="1" stop-color="#BFD633"/>
</linearGradient>
<linearGradient id="paint3_linear_5212_36428" x1="25.6788" y1="43.3232" x2="29.656" y2="46.268" gradientUnits="userSpaceOnUse">
<stop stop-color="#2EC4F3"/>
<stop offset="1" stop-color="#BFD633"/>
</linearGradient>
<linearGradient id="paint4_linear_5212_36428" x1="25.6783" y1="49.7085" x2="29.6548" y2="52.651" gradientUnits="userSpaceOnUse">
<stop stop-color="#2EC4F3"/>
<stop offset="1" stop-color="#BFD633"/>
</linearGradient>
<linearGradient id="paint5_linear_5212_36428" x1="36.4361" y1="36.9385" x2="40.4126" y2="39.8809" gradientUnits="userSpaceOnUse">
<stop stop-color="#2EC4F3"/>
<stop offset="1" stop-color="#BFD633"/>
</linearGradient>
<linearGradient id="paint6_linear_5212_36428" x1="36.4361" y1="43.3232" x2="40.4126" y2="46.2657" gradientUnits="userSpaceOnUse">
<stop stop-color="#2EC4F3"/>
<stop offset="1" stop-color="#BFD633"/>
</linearGradient>
<linearGradient id="paint7_linear_5212_36428" x1="36.4361" y1="49.7085" x2="40.4126" y2="52.651" gradientUnits="userSpaceOnUse">
<stop stop-color="#2EC4F3"/>
<stop offset="1" stop-color="#BFD633"/>
</linearGradient>
<linearGradient id="paint8_linear_5212_36428" x1="47.1471" y1="36.9385" x2="51.1235" y2="39.8809" gradientUnits="userSpaceOnUse">
<stop stop-color="#2EC4F3"/>
<stop offset="1" stop-color="#BFD633"/>
</linearGradient>
<linearGradient id="paint9_linear_5212_36428" x1="47.0621" y1="42.269" x2="66.6738" y2="45.9499" gradientUnits="userSpaceOnUse">
<stop stop-color="#2EC4F3"/>
<stop offset="1" stop-color="#BFD633"/>
</linearGradient>
<linearGradient id="paint10_linear_5212_36428" x1="55.4268" y1="46.4419" x2="60.5628" y2="47.1555" gradientUnits="userSpaceOnUse">
<stop stop-color="#2EC4F3"/>
<stop offset="1" stop-color="#BFD633"/>
</linearGradient>
</defs>
</svg>
