<svg width="56" height="53" viewBox="0 0 56 53" fill="none" xmlns="http://www.w3.org/2000/svg">
<mask id="mask0_7196_8513" style="mask-type:alpha" maskUnits="userSpaceOnUse" x="0" y="0" width="56" height="53">
<rect width="56" height="53" fill="#D9D9D9"/>
</mask>
<g mask="url(#mask0_7196_8513)">
<path fill-rule="evenodd" clip-rule="evenodd" d="M36.8646 7.85425L28.1209 22.9899L19.4375 7.85425H5.50781L28.1209 47.1105L50.7942 7.85425H36.8646Z" fill="#404040"/>
<path d="M5.02344 0.859375H50.9732L27.938 40.779L5.02344 0.859375Z" fill="#242424"/>
<path fill-rule="evenodd" clip-rule="evenodd" d="M22.0352 6.1062H29.995C31.5025 6.1062 32.6482 6.40771 33.5527 7.07103C34.4573 7.79464 34.8794 8.75947 34.8794 10.1464C34.8794 10.9906 34.6985 11.7142 34.2764 12.257C33.8543 12.86 33.3115 13.3424 32.5276 13.6439V13.7042C33.5527 13.8851 34.3367 14.3675 34.8191 15.1514C35.3618 15.875 35.603 16.7796 35.603 17.9253C35.603 18.5886 35.4824 19.1916 35.2412 19.7343C35.0603 20.2771 34.6985 20.7595 34.2161 21.1816C33.6733 21.5434 33.0703 21.9052 32.2864 22.1464C31.5628 22.3876 30.598 22.5082 29.5728 22.5082H22.0352V6.1062ZM24.9296 12.9806H29.5728C30.2965 12.9806 30.8392 12.7394 31.3216 12.3776C31.804 11.9554 31.9849 11.4127 31.9849 10.6891C31.9849 9.84489 31.804 9.24188 31.3819 8.94037C30.9598 8.57856 30.3568 8.39766 29.5728 8.39766H24.9296V12.9806ZM24.9296 20.1565H29.995C30.8392 20.1565 31.5628 19.9152 31.9849 19.4931C32.4673 19.0107 32.7688 18.3474 32.7688 17.5635C32.7688 16.7193 32.5276 16.1163 31.9849 15.6941C31.5025 15.2117 30.8392 15.0308 29.995 15.0308H24.9296V20.1565Z" fill="white"/>
<path fill-rule="evenodd" clip-rule="evenodd" d="M42.4121 10.6282L28 35.593L13.5879 10.6282H4L28 52.2362L52 10.6282H42.4121Z" fill="black"/>
</g>
</svg>
