<svg width="304" height="142" viewBox="0 0 304 142" fill="none" xmlns="http://www.w3.org/2000/svg">
<mask id="mask0_9390_51346" style="mask-type:alpha" maskUnits="userSpaceOnUse" x="0" y="0" width="304" height="142">
<rect x="0.5" y="-0.5" width="303" height="141" rx="23.5" transform="matrix(1 0 0 -1 0 141)" stroke="url(#paint0_linear_9390_51346)"/>
</mask>
<g mask="url(#mask0_9390_51346)">
</g>
<g clip-path="url(#clip0_9390_51346)">
<path d="M143.269 73.4847C145.072 73.5032 147.16 73.5032 149.552 73.5032C152.412 73.5032 154.742 73.2362 156.537 72.713C158.329 72.1898 159.668 71.2569 160.518 69.9329C161.372 68.609 161.807 66.7327 161.807 64.3094C161.807 61.487 161.259 59.2804 160.164 57.6922C159.07 56.1119 157.145 55.1975 154.387 54.9623V54.6531C156.639 54.4496 158.248 53.6885 159.201 52.3751C160.164 51.0618 160.641 49.1538 160.641 46.63C160.641 44.1036 160.237 42.3384 159.436 41.0065C158.624 39.6825 157.286 38.747 155.42 38.2237C153.557 37.7005 151.042 37.4336 147.88 37.4336C145.793 37.4336 143.948 37.4336 142.325 37.4547C140.715 37.4759 139.233 37.5076 137.887 37.5578C136.538 37.608 135.139 37.7005 133.699 37.8353V73.083C135.28 73.186 136.822 73.268 138.312 73.3393C139.812 73.4107 141.454 73.4529 143.259 73.4635L143.269 73.4847ZM142.943 44.1142C144.271 44.1248 145.761 44.1354 147.434 44.1354C148.55 44.1354 149.401 44.2384 150.009 44.4445C150.617 44.648 151.032 45.018 151.266 45.573C151.499 46.1147 151.621 46.9154 151.621 47.9725C151.621 49.0296 151.499 49.9016 151.266 50.4777C151.032 51.0512 150.627 51.4529 150.058 51.6458C149.492 51.8519 148.681 51.955 147.637 51.955H142.943V44.1142ZM142.943 57.7212H147.739C148.986 57.7212 149.938 57.8454 150.585 58.1018C151.246 58.3581 151.702 58.8311 151.976 59.5077C152.248 60.1842 152.381 61.1593 152.381 62.4225C152.381 63.6117 152.258 64.5366 152.005 65.1814C151.752 65.8289 151.295 66.2596 150.648 66.4843C149.988 66.7115 149.057 66.8146 147.849 66.8146C146.095 66.8146 144.464 66.8146 142.954 66.804V57.7212H142.943Z" fill="#3B422E"/>
<path d="M186.638 48.3028C184.653 47.4281 182.018 46.9973 178.712 46.9973C175.409 46.9973 172.774 47.4281 170.788 48.3028C168.8 49.1749 167.37 50.5808 166.499 52.539C165.627 54.4998 165.191 57.1266 165.191 60.4299C165.191 63.7359 165.627 66.2992 166.499 68.2205C167.37 70.1496 168.8 71.5449 170.788 72.4064C172.774 73.2785 175.409 73.7092 178.712 73.7092C182.018 73.7092 184.653 73.2785 186.638 72.4064C188.627 71.5343 190.054 70.139 190.925 68.2205C191.799 66.2992 192.235 63.6936 192.235 60.4299C192.235 57.1689 191.799 54.4998 190.925 52.539C190.054 50.5808 188.627 49.1643 186.638 48.3028ZM182.32 64.7189C182.099 65.7046 181.702 66.3838 181.136 66.7406C180.567 67.1 179.756 67.2744 178.712 67.2744C177.668 67.2744 176.867 67.1 176.322 66.7406C175.764 66.3838 175.367 65.7152 175.135 64.7189C174.903 63.7359 174.78 62.2983 174.78 60.4299C174.78 58.5642 174.903 57.0764 175.135 56.0907C175.367 55.105 175.764 54.4179 176.322 54.0479C176.878 53.6779 177.679 53.4824 178.712 53.4824C179.748 53.4824 180.557 53.6674 181.136 54.0479C181.702 54.4285 182.099 55.105 182.32 56.0907C182.545 57.0764 182.646 58.5219 182.646 60.4299C182.646 62.3406 182.534 63.7359 182.32 64.7189Z" fill="#3B422E"/>
<path d="M198.749 66.7115C198.749 68.9287 199.43 70.6517 200.797 71.8937C202.157 73.1358 204.02 73.7594 206.373 73.7594C207.083 73.7594 207.923 73.7198 208.896 73.6379C209.869 73.5559 210.842 73.4212 211.795 73.2573C212.758 73.0829 213.569 72.8689 214.237 72.5914L213.225 66.5159H210.295C209.423 66.5159 208.794 66.3415 208.429 66.0033C208.056 65.665 207.873 65.1206 207.873 64.3701V53.4929H214.38V47.7267H207.873V40.8822H198.741V47.7584L194.402 47.983V53.5035H198.741V66.7326L198.749 66.7115Z" fill="#3B422E"/>
<path d="M154.399 102.411V102.102C156.648 101.898 158.26 101.137 159.213 99.8345C160.175 98.5211 160.653 96.6131 160.653 94.0894C160.653 91.5657 160.246 89.8004 159.447 88.4659C158.636 87.1419 157.297 86.209 155.432 85.6858C153.566 85.1625 151.054 84.8956 147.892 84.8956C145.804 84.8956 143.96 84.8956 142.337 84.9141C140.727 84.9353 139.245 84.967 137.899 85.0172C136.55 85.07 135.151 85.1625 133.711 85.2947V120.542C135.292 120.645 136.834 120.727 138.324 120.799C139.824 120.873 141.465 120.912 143.271 120.923C145.074 120.944 147.161 120.944 149.554 120.944C152.413 120.944 154.743 120.677 156.538 120.154C158.331 119.631 159.669 118.695 160.52 117.371C161.383 116.05 161.809 114.171 161.809 111.75C161.809 108.928 161.261 106.721 160.165 105.13C159.072 103.55 157.146 102.636 154.388 102.401L154.399 102.411ZM142.945 91.5657C144.273 91.5736 145.762 91.5842 147.435 91.5842C148.552 91.5842 149.402 91.6872 150.01 91.8934C150.618 92.0969 151.033 92.4668 151.268 93.0218C151.5 93.5662 151.623 94.3669 151.623 95.424C151.623 96.481 151.5 97.3531 151.268 97.9265C151.033 98.5 150.629 98.9017 150.06 99.0972C149.494 99.3007 148.682 99.4038 147.638 99.4038H142.945V91.5657ZM152.006 112.63C151.753 113.278 151.296 113.708 150.649 113.936C149.989 114.16 149.058 114.263 147.85 114.263C146.096 114.263 144.466 114.263 142.955 114.253V105.17H147.751C148.995 105.17 149.95 105.294 150.597 105.551C151.257 105.807 151.714 106.28 151.985 106.956C152.259 107.633 152.392 108.608 152.392 109.871C152.392 111.061 152.27 111.985 152.017 112.63H152.006Z" fill="#3B422E"/>
<path d="M182.25 112.21C181.357 112.612 180.598 112.908 179.959 113.082C179.098 113.32 178.266 113.441 177.467 113.441C176.666 113.441 176.017 113.267 175.651 112.929C175.276 112.591 175.114 112.025 175.145 111.245V95.157H165.961V114.16C165.961 118.891 168.406 121.261 173.28 121.261C175.124 121.261 176.909 120.873 178.631 120.082C180.233 119.353 181.845 118.264 183.476 116.819L184.287 120.542H191.504V95.157H182.271V112.21H182.25Z" fill="#3B422E"/>
<path d="M208.229 88.3125H199.097V95.186L194.758 95.4133V100.934H199.097V114.16C199.097 116.377 199.775 118.1 201.142 119.343C202.502 120.585 204.367 121.211 206.718 121.211C207.428 121.211 208.268 121.169 209.241 121.087C210.214 121.005 211.187 120.873 212.14 120.706C213.092 120.542 213.914 120.318 214.582 120.04L213.57 113.965H210.64C209.768 113.965 209.139 113.79 208.774 113.452C208.401 113.114 208.218 112.569 208.218 111.822V100.944H214.725V95.1755H208.218V88.331L208.229 88.3125Z" fill="#3B422E"/>
<path d="M229.93 113.954C229.059 113.954 228.388 113.78 227.931 113.441C227.477 113.103 227.253 112.559 227.253 111.811V84.7925H218.121V114.21C218.121 116.428 218.831 118.143 220.24 119.374C221.649 120.595 223.605 121.211 226.087 121.211C226.697 121.211 227.436 121.169 228.307 121.087C229.179 121.005 230.04 120.873 230.882 120.706C231.722 120.532 232.362 120.318 232.797 120.04L231.785 113.965H229.92L229.93 113.954Z" fill="#3B422E"/>
<path d="M258.683 108.497C259.99 107.408 260.627 105.685 260.598 103.333C260.598 100.411 259.635 98.1934 257.72 96.695C255.802 95.1966 252.59 94.4487 248.079 94.4487C244.815 94.4487 242.18 94.8795 240.184 95.7516C238.188 96.6236 236.727 98.0401 235.816 100.019C234.903 101.991 234.457 104.647 234.457 107.992C234.457 110.96 234.903 113.42 235.796 115.371C236.688 117.331 238.136 118.788 240.163 119.742C242.18 120.698 244.878 121.169 248.233 121.169C249.611 121.169 250.988 121.097 252.366 120.965C253.746 120.83 255.085 120.606 256.382 120.297C257.678 119.99 258.865 119.567 259.938 119.025L259.077 113.402C257.13 113.605 255.267 113.751 253.504 113.833C251.74 113.915 250.321 113.954 249.235 113.954C247.858 113.954 246.793 113.751 246.034 113.338C245.272 112.929 244.755 112.231 244.471 111.245C244.38 110.918 244.299 110.537 244.239 110.117H251.719C255.053 110.117 257.365 109.573 258.683 108.486V108.497ZM249.144 105.479H244.087C244.137 104.39 244.239 103.518 244.411 102.874C244.643 101.949 245.068 101.343 245.697 101.037C246.316 100.728 247.218 100.596 248.395 100.625C249.64 100.625 250.514 100.799 251.02 101.137C251.526 101.478 251.789 102.144 251.831 103.13C251.831 104.012 251.667 104.628 251.354 104.966C251.03 105.305 250.3 105.479 249.154 105.479H249.144Z" fill="#3B422E"/>
<mask id="mask1_9390_51346" style="mask-type:luminance" maskUnits="userSpaceOnUse" x="264" y="94" width="20" height="28">
<path d="M264.129 94.0524H283.961V121.113H264.129V94.0524Z" fill="white"/>
</mask>
<g mask="url(#mask1_9390_51346)">
<path d="M282.551 94.4487C280.899 94.4487 279.196 94.8478 277.432 95.6485C275.78 96.3964 274.16 97.5063 272.579 98.9518L271.757 95.157H264.59V120.542H273.774V104.063C275.204 103.714 276.409 103.447 277.403 103.283C278.609 103.077 279.723 102.977 280.738 102.977H283.159L283.97 94.4487H282.551Z" fill="#3B422E"/>
</g>
<path d="M84.2786 82.0839C84.2786 82.0839 79.8274 93.2279 76.0781 96.777C76.0781 96.777 88.9594 97.9583 84.2786 121.436H112.606C112.606 121.436 118.941 77.5781 84.2786 82.0839Z" fill="#3B422E"/>
<mask id="mask2_9390_51346" style="mask-type:luminance" maskUnits="userSpaceOnUse" x="54" y="19" width="27" height="27">
<path d="M54.3984 19.5322H80.448V45.343H54.3984V19.5322Z" fill="white"/>
</mask>
<g mask="url(#mask2_9390_51346)">
<path d="M79.3825 28.4088C79.5103 28.8079 79.6199 29.2122 79.7086 29.6218C79.7973 30.0314 79.8652 30.4437 79.9147 30.8612C79.9643 31.2761 79.993 31.6963 80.0008 32.1138C80.0087 32.534 79.9956 32.9516 79.9643 33.3718C79.9304 33.7893 79.8782 34.2042 79.8051 34.6164C79.7321 35.0313 79.6408 35.4383 79.5286 35.8426C79.4164 36.247 79.2833 36.6434 79.1346 37.0345C78.9833 37.4229 78.8137 37.8061 78.6258 38.1814C78.438 38.554 78.2318 38.916 78.0075 39.2701C77.7857 39.6243 77.5456 39.9652 77.2873 40.2955C77.0316 40.6232 76.7603 40.9403 76.4733 41.2416C76.1863 41.5455 75.8862 41.8335 75.5705 42.1057C75.2548 42.3779 74.9287 42.6342 74.5869 42.8721C74.2477 43.1126 73.8981 43.3345 73.5354 43.5407C73.1754 43.7468 72.8049 43.9318 72.4239 44.1009C72.0456 44.2674 71.6595 44.418 71.2655 44.5475C70.8715 44.677 70.4723 44.7854 70.0653 44.8752C69.6609 44.9677 69.2538 45.0364 68.8416 45.0866C68.432 45.1342 68.0171 45.1633 67.6049 45.1712C67.19 45.1791 66.7752 45.1685 66.3629 45.1342C65.9507 45.1025 65.5384 45.0496 65.1314 44.9756C64.7244 44.9016 64.32 44.8091 63.9208 44.6955C63.5242 44.5792 63.1302 44.4471 62.7441 44.2938C62.3605 44.1406 61.9822 43.9688 61.6117 43.7785C61.2438 43.5882 60.8838 43.3821 60.5367 43.1548C60.1871 42.9302 59.8505 42.6871 59.5244 42.4255C59.1983 42.1665 58.8878 41.8917 58.5877 41.601C58.2903 41.3103 58.0059 41.0064 57.7371 40.6866C57.4658 40.3668 57.2127 40.0365 56.9779 39.693C56.7405 39.3494 56.5213 38.9927 56.3178 38.628C56.1143 38.2607 55.9316 37.8854 55.7646 37.5022C55.6003 37.119 55.4516 36.7253 55.3237 36.3289C55.1959 35.9298 55.0863 35.5255 54.9976 35.1159C54.9089 34.7063 54.841 34.2914 54.7914 33.8765C54.7445 33.459 54.7158 33.0414 54.7053 32.6212C54.6975 32.2037 54.7106 31.7835 54.7419 31.366C54.7758 30.9484 54.828 30.5309 54.901 30.1186C54.9741 29.7064 55.0654 29.2968 55.1776 28.8951C55.2898 28.4908 55.4229 28.0944 55.5742 27.7033C55.7255 27.3121 55.8925 26.929 56.083 26.5564C56.2708 26.1811 56.4743 25.8191 56.6987 25.4649C56.9231 25.1135 57.1605 24.7699 57.4188 24.4422C57.6745 24.1119 57.9459 23.7948 58.2329 23.4935C58.5199 23.1923 58.8225 22.9042 59.1356 22.632C59.4513 22.3598 59.7801 22.1035 60.1193 21.863C60.4585 21.6225 60.8081 21.4005 61.1708 21.1944C61.5308 20.9909 61.9013 20.8033 62.2822 20.6368C62.6606 20.4677 63.0493 20.3197 63.4433 20.1902C63.8373 20.0607 64.2365 19.9497 64.6409 19.8599C65.0453 19.77 65.4523 19.7013 65.8646 19.6511C66.2768 19.6009 66.6891 19.5718 67.1039 19.5639C67.5162 19.556 67.931 19.5692 68.3433 19.6009C68.7555 19.6326 69.1677 19.6881 69.5748 19.7594C69.9818 19.8334 70.3862 19.9286 70.7854 20.0422C71.1846 20.1558 71.576 20.288 71.9621 20.4413C72.3483 20.5945 72.724 20.7663 73.0945 20.9566C73.4624 21.1468 73.8224 21.3556 74.172 21.5802C74.5191 21.8075 74.8582 22.0506 75.1818 22.3096C75.5079 22.5686 75.821 22.8434 76.1184 23.1341C76.4185 23.4248 76.7003 23.7314 76.9716 24.0485C77.2404 24.3682 77.4935 24.6986 77.7309 25.0448C77.9657 25.3883 78.1875 25.7424 78.3884 26.1097C78.5919 26.4744 78.7745 26.8497 78.9415 27.2329C79.1085 27.6187 79.2546 28.0098 79.3825 28.4088Z" fill="#3B422E"/>
</g>
<mask id="mask3_9390_51346" style="mask-type:luminance" maskUnits="userSpaceOnUse" x="21" y="37" width="96" height="86">
<path d="M21.0117 37.2249H116.516V122.316H21.0117V37.2249Z" fill="white"/>
</mask>
<g mask="url(#mask3_9390_51346)">
<path d="M110.408 37.4442H88.3037H86.6913V37.8036C86.6913 37.8036 88.6273 37.7639 89.7022 39.0879C89.864 39.3442 90.0362 39.6402 90.1979 39.96C91.2025 41.9816 91.9722 45.2743 90.5945 50.0972C88.0402 59.0452 64.1093 48.8763 57.2081 45.0682C51.7551 42.0529 44.486 42.1639 44.486 42.1639C16.6336 42.1639 21.3274 80.411 21.3274 80.411H44.486C37.5249 61.5689 51.6429 61.5187 51.6429 61.5187C65.3147 105.704 21.0117 95.1253 21.0117 95.1253V121.2C67.3524 131.153 85.7076 69.452 85.7076 69.452C113.237 77.372 112.031 56.902 112.031 44.9863C112.031 37.1165 115.953 37.793 115.953 37.793V37.4336H110.419L110.408 37.4442ZM77.3871 64.8035C76.5574 64.9859 75.9391 61.7037 74.1753 61.5584C71.8427 61.3654 70.486 66.8965 69.0353 66.6481C67.0785 66.3098 66.6949 55.689 68.5787 55.2186C69.9068 54.8804 71.4775 59.8142 73.8805 59.5288C75.6547 59.3121 76.1922 56.4395 77.0923 56.6245C78.5325 56.9099 78.6343 64.5366 77.3767 64.8035H77.3871Z" fill="#3B422E"/>
</g>
</g>
<defs>
<linearGradient id="paint0_linear_9390_51346" x1="35.8995" y1="2.57323e-05" x2="274.998" y2="96.0721" gradientUnits="userSpaceOnUse">
<stop stop-color="#2EC4F3"/>
<stop offset="1" stop-color="#BFD633"/>
</linearGradient>
<clipPath id="clip0_9390_51346">
<rect width="263" height="103" fill="white" transform="translate(21 19.4662)"/>
</clipPath>
</defs>
</svg>
