<svg width="613" height="240" viewBox="0 0 613 240" fill="none" xmlns="http://www.w3.org/2000/svg">
<g clip-path="url(#clip0_7_12404)">
<path d="M284.67 125.767C288.868 125.81 293.728 125.81 299.298 125.81C305.956 125.81 311.381 125.189 315.56 123.971C319.733 122.752 322.85 120.58 324.83 117.498C326.816 114.415 327.831 110.047 327.831 104.405C327.831 97.834 326.555 92.6965 324.004 88.9987C321.458 85.3194 316.975 83.1906 310.554 82.643V81.9231C315.797 81.4493 319.545 79.6774 321.762 76.6195C324.004 73.5616 325.115 69.1193 325.115 63.2435C325.115 57.3615 324.174 53.2516 322.309 50.1506C320.42 47.0681 317.303 44.89 312.96 43.6718C308.623 42.4536 302.767 41.8322 295.404 41.8322C290.545 41.8322 286.25 41.8322 282.471 41.8814C278.723 41.9306 275.273 42.0044 272.138 42.1213C268.998 42.2382 265.742 42.4536 262.389 42.7674V124.832C266.07 125.072 269.66 125.263 273.129 125.429C276.622 125.595 280.443 125.693 284.646 125.718L284.67 125.767ZM283.911 57.3862C287.003 57.4108 290.472 57.4354 294.366 57.4354C296.966 57.4354 298.946 57.6753 300.361 58.1552C301.777 58.629 302.742 59.4904 303.289 60.7824C303.83 62.0437 304.115 63.908 304.115 66.3691C304.115 68.8302 303.83 70.8606 303.289 72.2018C302.742 73.537 301.801 74.4722 300.477 74.9213C299.158 75.4012 297.269 75.6412 294.839 75.6412H283.911V57.3862ZM283.911 89.0664H295.076C297.98 89.0664 300.197 89.3555 301.704 89.9524C303.241 90.5492 304.304 91.6505 304.942 93.2256C305.573 94.8007 305.883 97.071 305.883 100.012C305.883 102.781 305.598 104.934 305.008 106.435C304.419 107.943 303.356 108.946 301.85 109.469C300.313 109.998 298.144 110.238 295.331 110.238C291.249 110.238 287.453 110.238 283.935 110.213V89.0664H283.911Z" fill="#E3F979"/>
<path d="M385.643 67.1382C381.02 65.1016 374.884 64.0988 367.188 64.0988C359.497 64.0988 353.362 65.1016 348.739 67.1382C344.11 69.1686 340.781 72.4418 338.752 77.0009C336.723 81.5662 335.709 87.682 335.709 95.3729C335.709 103.07 336.723 109.038 338.752 113.511C340.781 118.002 344.11 121.251 348.739 123.257C353.362 125.287 359.497 126.29 367.188 126.29C374.884 126.29 381.02 125.287 385.643 123.257C390.271 121.226 393.594 117.978 395.623 113.511C397.658 109.038 398.673 102.971 398.673 95.3729C398.673 87.7805 397.658 81.5662 395.623 77.0009C393.594 72.4418 390.271 69.144 385.643 67.1382ZM375.589 105.359C375.073 107.654 374.149 109.235 372.831 110.066C371.507 110.902 369.618 111.308 367.188 111.308C364.758 111.308 362.893 110.902 361.623 110.066C360.323 109.235 359.4 107.678 358.859 105.359C358.319 103.07 358.033 99.7228 358.033 95.3729C358.033 91.0291 358.319 87.5651 358.859 85.2702C359.4 82.9752 360.323 81.3755 361.623 80.5141C362.917 79.6528 364.782 79.1975 367.188 79.1975C369.599 79.1975 371.483 79.6281 372.831 80.5141C374.149 81.4001 375.073 82.9752 375.589 85.2702C376.111 87.5651 376.348 90.9306 376.348 95.3729C376.348 99.8213 376.087 103.07 375.589 105.359Z" fill="#E3F979"/>
<path d="M413.841 109.998C413.841 115.16 415.427 119.172 418.61 122.063C421.775 124.955 426.112 126.407 431.591 126.407C433.243 126.407 435.199 126.315 437.465 126.124C439.731 125.933 441.997 125.62 444.214 125.238C446.456 124.832 448.345 124.334 449.9 123.688L447.543 109.543H440.721C438.692 109.543 437.228 109.136 436.378 108.349C435.509 107.561 435.084 106.294 435.084 104.547V79.2221H450.234V65.7969H435.084V49.8615H413.823V65.8708L403.721 66.3937V79.2467H413.823V110.047L413.841 109.998Z" fill="#E3F979"/>
<path d="M310.578 193.115V192.395C315.814 191.921 319.568 190.149 321.786 187.116C324.027 184.058 325.139 179.616 325.139 173.74C325.139 167.864 324.191 163.754 322.332 160.647C320.443 157.564 317.327 155.392 312.983 154.174C308.64 152.956 302.79 152.334 295.428 152.334C290.568 152.334 286.273 152.334 282.495 152.378C278.747 152.427 275.296 152.501 272.162 152.617C269.021 152.741 265.765 152.956 262.412 153.264V235.328C266.093 235.568 269.683 235.759 273.152 235.925C276.645 236.097 280.466 236.19 284.67 236.214C288.867 236.263 293.727 236.263 299.297 236.263C305.955 236.263 311.38 235.642 315.559 234.424C319.732 233.205 322.849 231.027 324.829 227.945C326.84 224.869 327.83 220.494 327.83 214.858C327.83 208.287 326.554 203.15 324.003 199.446C321.458 195.766 316.975 193.637 310.554 193.09L310.578 193.115ZM283.91 167.864C287.002 167.882 290.471 167.907 294.365 167.907C296.965 167.907 298.945 168.147 300.36 168.627C301.776 169.101 302.742 169.962 303.288 171.254C303.829 172.521 304.115 174.386 304.115 176.847C304.115 179.308 303.829 181.338 303.288 182.673C302.742 184.009 301.8 184.944 300.476 185.399C299.158 185.873 297.268 186.113 294.839 186.113H283.91V167.864ZM305.007 216.907C304.418 218.414 303.355 219.417 301.849 219.946C300.312 220.469 298.143 220.709 295.331 220.709C291.248 220.709 287.452 220.709 283.935 220.685V199.538H295.1C297.997 199.538 300.221 199.827 301.727 200.424C303.264 201.021 304.327 202.122 304.959 203.697C305.597 205.272 305.907 207.543 305.907 210.484C305.907 213.252 305.621 215.406 305.032 216.907H305.007Z" fill="#E3F979"/>
<path d="M375.424 215.929C373.346 216.864 371.579 217.553 370.09 217.959C368.086 218.513 366.148 218.796 364.289 218.796C362.424 218.796 360.912 218.39 360.061 217.602C359.186 216.815 358.81 215.498 358.883 213.683V176.225H337.5V220.469C337.5 231.483 343.192 237.002 354.539 237.002C358.834 237.002 362.989 236.097 366.998 234.258C370.728 232.559 374.482 230.025 378.279 226.659L380.168 235.328H396.971V176.225H375.473V215.929H375.424Z" fill="#E3F979"/>
<path d="M435.91 160.29H414.649V176.293L404.547 176.822V189.675H414.649V220.469C414.649 225.632 416.228 229.643 419.412 232.535C422.576 235.427 426.92 236.885 432.393 236.885C434.045 236.885 436.001 236.786 438.267 236.596C440.533 236.405 442.799 236.097 445.016 235.71C447.233 235.328 449.147 234.805 450.702 234.159L448.345 220.014H441.523C439.494 220.014 438.03 219.608 437.18 218.82C436.311 218.033 435.886 216.765 435.886 215.024V189.7H451.036V176.268H435.886V160.333L435.91 160.29Z" fill="#E3F979"/>
<path d="M486.433 219.99C484.404 219.99 482.843 219.583 481.78 218.796C480.723 218.008 480.201 216.741 480.201 215V152.095H458.939V220.586C458.939 225.748 460.592 229.742 463.872 232.609C467.152 235.451 471.708 236.885 477.485 236.885C478.907 236.885 480.626 236.786 482.655 236.596C484.684 236.405 486.688 236.097 488.651 235.71C490.607 235.304 492.095 234.805 493.109 234.159L490.752 220.014H486.409L486.433 219.99Z" fill="#E3F979"/>
<path d="M553.382 207.284C556.425 204.749 557.907 200.738 557.84 195.262C557.84 188.457 555.599 183.295 551.14 179.806C546.675 176.318 539.197 174.576 528.694 174.576C521.095 174.576 514.959 175.579 510.312 177.61C505.665 179.64 502.263 182.938 500.143 187.546C498.017 192.136 496.979 198.32 496.979 206.109C496.979 213.018 498.017 218.747 500.095 223.287C502.172 227.853 505.544 231.243 510.264 233.464C514.959 235.691 521.241 236.786 529.053 236.786C532.26 236.786 535.467 236.62 538.675 236.313C541.888 235.999 545.005 235.476 548.024 234.756C551.043 234.042 553.807 233.058 556.303 231.797L554.299 218.704C549.767 219.177 545.43 219.516 541.323 219.706C537.217 219.897 533.912 219.989 531.385 219.989C528.178 219.989 525.699 219.516 523.932 218.556C522.158 217.602 520.955 215.978 520.293 213.683C520.08 212.92 519.892 212.034 519.752 211.056H537.168C544.932 211.056 550.314 209.788 553.382 207.26V207.284ZM531.173 200.258H519.4C519.515 197.723 519.752 195.693 520.153 194.191C520.694 192.038 521.684 190.629 523.148 189.915C524.588 189.195 526.69 188.888 529.429 188.955C532.327 188.955 534.362 189.361 535.54 190.149C536.719 190.943 537.332 192.493 537.43 194.788C537.43 196.843 537.047 198.277 536.318 199.064C535.565 199.852 533.864 200.258 531.197 200.258H531.173Z" fill="#E3F979"/>
<mask id="mask0_7_12404" style="mask-type:luminance" maskUnits="userSpaceOnUse" x="566" y="173" width="47" height="64">
<path d="M566.059 173.654H612.232V236.657H566.059V173.654Z" fill="white"/>
</mask>
<g mask="url(#mask0_7_12404)">
<path d="M608.953 174.576C605.107 174.576 601.141 175.506 597.034 177.37C593.189 179.111 589.417 181.695 585.735 185.061L583.822 176.225H567.135V235.328H588.517V196.96C591.846 196.148 594.653 195.526 596.967 195.145C599.774 194.665 602.368 194.431 604.731 194.431H610.368L612.257 174.576H608.953Z" fill="#E3F979"/>
</g>
<path d="M147.329 145.788C147.329 145.788 136.966 171.734 128.236 179.997C128.236 179.997 158.227 182.747 147.329 237.408H213.281C213.281 237.408 228.03 135.298 147.329 145.788Z" fill="#E3F979"/>
<mask id="mask1_7_12404" style="mask-type:luminance" maskUnits="userSpaceOnUse" x="77" y="0" width="62" height="61">
<path d="M77.7559 0.153809H138.405V60.2471H77.7559V0.153809Z" fill="white"/>
</mask>
<g mask="url(#mask1_7_12404)">
<path d="M135.92 20.8206C136.218 21.7497 136.473 22.6911 136.679 23.6447C136.886 24.5984 137.044 25.5582 137.159 26.5303C137.275 27.4963 137.342 28.4746 137.36 29.4467C137.378 30.425 137.348 31.3971 137.275 32.3754C137.196 33.3475 137.074 34.3135 136.904 35.2733C136.734 36.2393 136.521 37.1868 136.26 38.1282C135.999 39.0695 135.689 39.9924 135.343 40.903C134.991 41.8075 134.596 42.6996 134.158 43.5733C133.721 44.4408 133.241 45.2837 132.719 46.1082C132.202 46.9327 131.643 47.7264 131.042 48.4954C130.447 49.2584 129.815 49.9967 129.147 50.6981C128.479 51.4057 127.78 52.0763 127.045 52.71C126.31 53.3438 125.551 53.9406 124.755 54.4943C123.965 55.0542 123.151 55.571 122.307 56.051C121.468 56.5309 120.606 56.9616 119.719 57.3553C118.838 57.7429 117.939 58.0936 117.022 58.3951C116.105 58.6966 115.175 58.9489 114.228 59.1581C113.286 59.3734 112.338 59.5334 111.378 59.6503C110.425 59.761 109.459 59.8287 108.499 59.8472C107.533 59.8656 106.567 59.841 105.608 59.761C104.648 59.6872 103.688 59.5641 102.74 59.3919C101.793 59.2196 100.851 59.0042 99.9217 58.7397C98.9984 58.469 98.0811 58.1613 97.1821 57.8045C96.2891 57.4476 95.4083 57.0477 94.5457 56.6047C93.6891 56.1617 92.8508 55.6818 92.0429 55.1527C91.2289 54.6297 90.4453 54.0636 89.686 53.4545C88.9266 52.8516 88.2037 52.2117 87.5052 51.5349C86.8127 50.8581 86.1505 50.1505 85.5248 49.406C84.8931 48.6616 84.3038 47.8925 83.7571 47.0926C83.2043 46.2928 82.6941 45.4622 82.2202 44.6131C81.7464 43.7579 81.3212 42.8842 80.9324 41.9921C80.5497 41.0999 80.2035 40.1832 79.9058 39.2603C79.6081 38.3312 79.353 37.3898 79.1465 36.4362C78.9399 35.4825 78.782 34.5165 78.6666 33.5506C78.5572 32.5784 78.4904 31.6063 78.4661 30.628C78.4479 29.6559 78.4783 28.6776 78.5511 27.7055C78.6301 26.7334 78.7516 25.7613 78.9217 24.8014C79.0918 23.8416 79.3044 22.8879 79.5656 21.9527C79.8268 21.0114 80.1366 20.0885 80.489 19.1779C80.8413 18.2673 81.2301 17.3751 81.6735 16.5076C82.1109 15.6339 82.5847 14.791 83.1071 13.9665C83.6295 13.1482 84.1823 12.3484 84.7837 11.5855C85.379 10.8164 86.0108 10.078 86.679 9.37664C87.3472 8.67523 88.0519 8.00458 88.7808 7.37086C89.5159 6.73713 90.2813 6.14032 91.071 5.58043C91.8607 5.02053 92.6747 4.5037 93.5191 4.02379C94.3574 3.55004 95.22 3.11319 96.1069 2.72558C96.9877 2.3318 97.8928 1.98725 98.8101 1.68577C99.7273 1.38429 100.657 1.12588 101.598 0.916685C102.54 0.707495 103.488 0.547523 104.447 0.430623C105.407 0.313721 106.367 0.246042 107.333 0.227584C108.293 0.209125 109.258 0.239889 110.218 0.313722C111.178 0.387554 112.138 0.51676 113.085 0.682883C114.033 0.855158 114.975 1.07666 115.904 1.34122C116.834 1.60579 117.745 1.91342 118.644 2.27028C119.543 2.62713 120.418 3.02706 121.28 3.47005C122.137 3.91305 122.975 4.39911 123.789 4.92209C124.597 5.45122 125.387 6.01727 126.14 6.62023C126.899 7.22319 127.628 7.86307 128.321 8.53987C129.019 9.21666 129.675 9.93038 130.307 10.6687C130.933 11.4132 131.522 12.1823 132.075 12.9883C132.622 13.7881 133.138 14.6126 133.606 15.4678C134.079 16.3169 134.505 17.1906 134.893 18.0827C135.282 18.981 135.622 19.8916 135.92 20.8206Z" fill="#E3F979"/>
</g>
<mask id="mask2_7_12404" style="mask-type:luminance" maskUnits="userSpaceOnUse" x="0" y="41" width="223" height="199">
<path d="M0.0234375 41.3461H222.38V239.457H0.0234375V41.3461Z" fill="white"/>
</mask>
<g mask="url(#mask2_7_12404)">
<path d="M208.159 41.8568H156.694H152.94V42.6935C152.94 42.6935 157.448 42.6012 159.95 45.6837C160.327 46.2805 160.728 46.9696 161.105 47.7141C163.443 52.4209 165.235 60.0872 162.028 71.3159C156.081 92.1489 100.364 68.4733 84.2969 59.6073C71.6009 52.5871 54.677 52.8455 54.677 52.8455C-10.1698 52.8455 0.758469 141.893 0.758469 141.893H54.677C38.4698 98.0247 71.3397 97.9078 71.3397 97.9078C103.171 200.781 0.0234375 176.152 0.0234375 176.152V236.86C107.915 260.031 150.65 116.378 150.65 116.378C214.744 134.818 211.937 87.159 211.937 59.4165C211.937 41.0938 221.067 42.6689 221.067 42.6689V41.8322H208.183L208.159 41.8568ZM131.278 105.556C129.346 105.98 127.907 98.3385 123.8 98.0001C118.37 97.5509 115.211 110.429 111.833 109.85C107.277 109.063 106.384 84.3349 110.77 83.2398C113.862 82.4522 117.519 93.9393 123.114 93.2748C127.245 92.7703 128.496 86.0823 130.592 86.513C133.945 87.1775 134.182 104.934 131.254 105.556H131.278Z" fill="#E3F979"/>
</g>
</g>
<defs>
<clipPath id="clip0_7_12404">
<rect width="612.324" height="239.807" fill="white"/>
</clipPath>
</defs>
</svg>
