<svg width="108" height="32" viewBox="0 0 108 32" fill="none" xmlns="http://www.w3.org/2000/svg">
<path d="M6.09162 11.4335L7.18746 31.9979H6.36557C6.30917 30.5136 6.23665 28.5345 6.23665 28.5345C6.23665 28.5345 5.21332 28.7504 5.10857 26.1056C4.99577 23.4609 4.65735 20.3663 4.92325 12.1711C4.18195 12.459 3.45675 13.1427 2.94105 14.0602C2.00636 15.7425 1.70018 17.7395 1.35369 19.6466C1.07973 22.7952 1.36175 26.0067 1.63571 29.1192C1.71629 30.0008 1.80493 31.0893 1.87744 31.9709L1.6196 31.9979C1.55514 31.1163 1.45845 30.0368 1.37787 29.1552C1.17643 26.8613 0.974986 24.5224 0.983043 22.1835C0.61239 25.368 0.580159 28.8044 0.539871 31.9979H0C0.0805768 25.9257 -0.467342 19.0709 2.48177 13.7904C2.97329 12.9088 4.17388 11.4425 5.5598 11.4425H6.09162V11.4335Z" fill="url(#paint0_linear_131_1421)"/>
<path d="M16.9382 11.4318C18.3241 11.4318 19.5247 12.9072 20.0162 13.7798C22.9573 19.0693 22.4094 25.9151 22.498 31.9873H21.9581C21.9178 28.7938 21.8937 25.3484 21.515 22.1728C21.5311 24.5118 21.3216 26.8507 21.1201 29.1446C21.0396 30.0262 20.9509 31.1057 20.8784 31.9873L20.6206 31.9603C20.685 31.0697 20.7817 29.9902 20.8623 29.1086C21.1363 25.9871 21.4183 22.7846 21.1443 19.636C20.7978 17.7199 20.4997 15.7318 19.557 14.0496C19.0413 13.1321 18.308 12.4484 17.5748 12.1605C17.8487 20.3467 17.5022 23.4503 17.3894 26.095C17.2766 28.7398 16.2614 28.5239 16.2614 28.5239C16.2614 28.5239 16.1969 30.503 16.1324 31.9873H15.3105L16.4064 11.4229H16.9382V11.4318Z" fill="url(#paint1_linear_131_1421)"/>
<path d="M8.17186 0.743153C9.54973 -0.17442 11.8059 -0.795131 14.0056 2.3534C14.0056 2.3534 15.3835 7.0852 15.9556 9.25319C16.1409 9.94587 16.1087 10.2517 16.1087 10.2517C16.1087 10.2517 13.1837 4.92621 13.0951 4.7283C12.2732 3.04608 7.99459 3.38792 7.57559 4.20654C6.89069 5.24106 6.68119 7.58897 6.68119 7.58897L6.34277 10.4946V7.93081C6.34277 7.65194 6.35889 7.36407 6.38306 7.0942L6.75371 3.37893C6.81817 2.29043 7.33386 1.30089 8.17992 0.734157L8.17186 0.743153Z" fill="url(#paint2_linear_131_1421)"/>
<path d="M14.7441 2.37114C14.7441 2.59603 14.6152 2.80294 14.4138 2.8839C12.0367 3.71151 9.51469 3.71151 7.13767 2.8839C6.89594 2.79394 6.7509 2.49708 6.82342 2.2272C6.84759 2.15524 6.87176 2.09227 6.92011 2.03829C7.00068 1.93034 7.12155 1.86737 7.25047 1.86737C7.37939 1.86737 7.33106 1.86737 7.3794 1.89436C9.60332 2.67699 11.9642 2.67699 14.1881 1.89436C14.3574 1.84038 14.5346 1.89436 14.6394 2.04729C14.6797 2.10126 14.7038 2.16423 14.7361 2.2362C14.7441 2.29017 14.7602 2.33515 14.7602 2.38913L14.7441 2.37114Z" fill="black"/>
<path d="M14.7552 3.77516C12.1526 4.60277 9.39687 4.60277 6.80229 3.77516C6.52833 3.6852 6.3833 3.38834 6.45582 3.11846C6.5364 2.84859 6.80229 2.69566 7.05208 2.78562C9.4855 3.56825 12.064 3.56825 14.4974 2.78562C14.7472 2.70466 15.0131 2.84859 15.0937 3.11846C15.1742 3.38834 15.0211 3.6852 14.7472 3.77516H14.7552Z" fill="black"/>
<path d="M10.7682 4.01423C9.44678 4.01423 8.13338 3.80733 6.86832 3.40252C6.80386 3.38453 6.65076 3.34854 6.71523 3.14164C6.77969 2.92574 6.9489 2.99771 6.97308 3.0067C8.2059 3.40252 9.48707 3.60043 10.7682 3.60043C12.0494 3.60043 13.3306 3.40252 14.5634 3.0067C14.5876 3.0067 14.7648 2.92574 14.8213 3.14164C14.8857 3.31256 14.7246 3.38453 14.6682 3.40252C13.3951 3.80733 12.0816 4.01423 10.7682 4.01423Z" fill="white"/>
<path d="M10.0947 14.7741H8.09644V17.0051H10.0947V14.7741ZM9.82884 16.6902H8.38652V15.089H9.82884V16.6902Z" fill="#FDD600"/>
<path d="M9.536 15.3969H8.67383V16.3595H9.536V15.3969Z" fill="#FDD600"/>
<path d="M12.1394 14.7741V17.0051H14.1377V14.7741H12.1394ZM13.8637 16.6902H12.4214V15.089H13.8637V16.6902Z" fill="#FDD600"/>
<path d="M13.558 15.3969H12.6958V16.3595H13.558V15.3969Z" fill="#FDD600"/>
<path d="M8.10693 21.4563H10.1052V19.2253H8.10693V21.4563ZM8.37283 19.5492H9.81516V21.1504H8.37283V19.5492Z" fill="#FDD600"/>
<path d="M9.536 19.8683H8.67383V20.8308H9.536V19.8683Z" fill="#FDD600"/>
<path d="M8.67061 17.3162H8.10693V17.6308H8.67061V17.3162Z" fill="#FDD600"/>
<path d="M9.81718 17.6411H10.1153V17.9559H9.53516V18.9005H10.3973V18.5856H9.81718V18.2708H10.3973V18.5856H10.6793V17.9559H10.3973V17.3262H9.81718V17.6411Z" fill="#FDD600"/>
<path d="M11.5267 18.2811V18.5959H11.2447V18.9108H10.9708V19.2436H10.6888V19.5585H10.4067V18.9108H10.6888V18.5959H10.9708V18.2811H11.5267Z" fill="#FDD600"/>
<path d="M12.115 19.8667V19.246H11.8329V19.5519H10.9708V19.8667H11.2528V20.2086H10.9708V19.8667H10.6888V20.1996H10.4067V20.5324H10.6888V20.8473H10.4067V21.468H10.9708V20.8473H11.2528V20.5144H11.5348V19.8667H12.115Z" fill="#FDD600"/>
<path d="M11.8113 20.8446V21.1594H12.6735V21.4743H13.5356V21.1594H12.9474V20.5117H12.6654V20.8446H11.8032H11.8113Z" fill="#FDD600"/>
<path d="M11.8103 21.1552H11.2466V21.4699H11.8103V21.1552Z" fill="#FDD600"/>
<path d="M12.1076 17.9597H11.5198V18.2743H12.1076V17.9597Z" fill="#FDD600"/>
<path d="M13.807 18.2814V18.5962H14.089V18.9111H13.807V18.5962H13.525V18.9111H13.243V18.5962H12.969V17.9665H13.525V17.6516H13.2268V17.3368H13.807V17.9665H14.1051V18.2814H13.7989H13.807Z" fill="#FDD600"/>
<path d="M11.2363 18.9172V19.2498H11.5182V18.9352H11.8V18.6025H11.5182V18.9172H11.2363Z" fill="#FDD600"/>
<path d="M11.8121 20.5117H11.5303V20.8264H11.8121V20.5117Z" fill="#FDD600"/>
<path d="M13.5238 20.5117H13.2419V20.8264H13.5238V20.5117Z" fill="#FDD600"/>
<path d="M12.3897 18.6025H12.1079V18.9172H12.3897V18.6025Z" fill="#FDD600"/>
<path d="M12.1079 17.9559H12.3899V17.6411H12.9701V17.3262H12.1079V17.9559Z" fill="#FDD600"/>
<path d="M8.38895 17.949H8.10693V18.9116H8.38895V17.949Z" fill="#FDD600"/>
<path d="M10.6702 17.3278H10.6783V17.9576H10.9603V17.6247H11.2423V17.3188H11.8225V16.0414H11.5404V16.3743H11.2423V16.6891H11.5404V17.004H11.2423V16.6891H10.9603V17.004H10.6783V16.0414H10.9522V14.764H10.6783V15.0789H10.3962V15.7266H10.6783V16.0414H10.3962V17.3188H10.6702V17.3278Z" fill="#FDD600"/>
<path d="M13.8 19.5577V19.8996H13.518V19.5577H13.236V18.928H12.954V18.6132H12.6719V18.946H12.3899V19.8906H12.1079V20.2054H12.3658V20.5383H12.6719V20.2054H12.954V19.8906H13.236V20.2054H13.518V20.5383H13.8V21.168H14.082V19.5757H13.8C13.8 19.5667 13.8 19.5577 13.8 19.5577ZM12.9459 19.5487H12.6639V19.2429H12.9459V19.5487Z" fill="#FDD600"/>
<path d="M13.8072 18.9139H13.5254V19.5432H13.8072V18.9139Z" fill="#FDD600"/>
<path d="M13.2401 20.1797H12.9583V20.5123H13.2401V20.1797Z" fill="#FDD600"/>
<path d="M11.8161 15.0888V14.7741H11.2363V15.4214H11.5343V15.0888H11.8161Z" fill="#FDD600"/>
<path d="M11.5445 15.739H11.2466V16.0537H11.5445V15.739Z" fill="#FDD600"/>
<path d="M11.8387 15.4276H11.5408V15.7423H11.8387V15.4276Z" fill="#FDD600"/>
<path d="M9.23936 18.6025H8.95752V18.9172H9.23936V18.6025Z" fill="#FDD600"/>
<path d="M9.23787 18.2888V17.3262H8.95585V17.6321H8.67383V18.5946H8.95585V18.2888H9.23787Z" fill="#FDD600"/>
<path d="M7.62111 15.6843C7.55665 15.6843 7.5083 15.6303 7.5083 15.5583V14.2359C7.5083 14.164 7.55665 14.11 7.62111 14.11H8.80559C8.87005 14.11 8.9184 14.164 8.9184 14.2359C8.9184 14.3079 8.87005 14.3619 8.80559 14.3619H7.72585V15.5673C7.72585 15.6393 7.67751 15.6932 7.61304 15.6932L7.62111 15.6843Z" fill="#FDD600"/>
<path d="M14.6103 15.6832C14.5458 15.6832 14.4975 15.6293 14.4975 15.5573V14.3519H13.4177C13.3533 14.3519 13.3049 14.2979 13.3049 14.2259C13.3049 14.154 13.3533 14.1 13.4177 14.1H14.6022C14.6667 14.1 14.715 14.154 14.715 14.2259V15.5483C14.715 15.6203 14.6667 15.6742 14.6022 15.6742L14.6103 15.6832Z" fill="#FDD600"/>
<path d="M8.82658 22.1379H7.64211C7.57764 22.1379 7.5293 22.0839 7.5293 22.0119V20.6895C7.5293 20.6176 7.57764 20.5636 7.64211 20.5636C7.70657 20.5636 7.75492 20.6176 7.75492 20.6895V21.895H8.83465C8.89911 21.895 8.94745 21.949 8.94745 22.0209C8.94745 22.0929 8.89911 22.1469 8.83465 22.1469L8.82658 22.1379Z" fill="#FDD600"/>
<path d="M14.6127 22.1363H13.4282C13.3638 22.1363 13.3154 22.0823 13.3154 22.0104C13.3154 21.9384 13.3638 21.8844 13.4282 21.8844H14.508V20.679C14.508 20.607 14.5563 20.553 14.6208 20.553C14.6852 20.553 14.7336 20.607 14.7336 20.679V22.0014C14.7336 22.0733 14.6852 22.1273 14.6208 22.1273L14.6127 22.1363Z" fill="#FDD600"/>
<path d="M36.5047 13.1684C37.0077 13.1684 37.4058 13.379 37.6992 13.7767C37.9926 14.1745 38.0974 14.6658 38.0136 15.2273L37.825 16.3972C37.7412 16.8417 37.5735 17.2629 37.2592 17.6138C36.9448 17.9648 36.6095 18.2221 36.2113 18.3391C36.5676 18.4795 36.84 18.7135 37.0286 19.0878C37.2172 19.4622 37.2592 19.8833 37.1963 20.3512L37.0077 21.5445C36.9239 22.1294 36.6514 22.6207 36.2323 23.0419C35.8131 23.463 35.3521 23.6502 34.8491 23.6502H28.0591L29.7147 13.145H36.4838L36.5047 13.1684ZM34.0947 20.4214C34.1785 20.3512 34.2204 20.2576 34.2414 20.1641C34.2623 20.0705 34.2414 19.9769 34.1785 19.9067C34.1156 19.8365 34.0528 19.7897 33.9689 19.7897H31.7056L31.5798 20.5384H33.8432C33.927 20.5384 34.0108 20.4916 34.0947 20.4214ZM34.6605 16.7949C34.7443 16.7247 34.7863 16.6311 34.7863 16.5376C34.7863 16.444 34.7862 16.3504 34.7234 16.2802C34.6605 16.21 34.5976 16.1866 34.5138 16.1866H32.2714L32.1457 16.9119H34.409C34.4929 16.9119 34.5767 16.8651 34.6605 16.7949ZM40.4865 13.145H46.082C46.5011 13.145 46.8365 13.3088 47.067 13.6363C47.2975 13.9639 47.4023 14.3616 47.3184 14.8296L46.1868 21.9656C46.1029 22.4335 45.8934 22.8313 45.5581 23.1588C45.2228 23.4864 44.8246 23.6502 44.4054 23.6502H38.81C38.3908 23.6502 38.0555 23.4864 37.825 23.1588C37.5945 22.8313 37.4897 22.4335 37.5735 21.9656L38.7052 14.8296C38.789 14.3616 38.9986 13.9639 39.3339 13.6363C39.6692 13.3088 40.0674 13.145 40.4865 13.145ZM44.0282 16.5142C44.0282 16.4206 44.0282 16.327 43.9653 16.2568C43.9025 16.1866 43.8396 16.1632 43.7558 16.1632H41.8278C41.7439 16.1632 41.6601 16.1866 41.5763 16.2568C41.4924 16.327 41.4505 16.4206 41.4296 16.5142L40.8428 20.281C40.8428 20.3746 40.8428 20.4682 40.9057 20.5384C40.9685 20.6086 41.0314 20.6554 41.1152 20.6554H43.0432C43.1271 20.6554 43.2109 20.6086 43.2947 20.5384C43.3786 20.4682 43.4205 20.3746 43.4414 20.281L44.0282 16.5142ZM53.5007 13.1684H55.6383L55.1563 16.1866H53.0187L51.8451 23.6736H48.8274L50.0009 16.1866H47.8424L48.3244 13.1684H53.5007ZM63.1828 13.1684C63.6858 13.1684 64.0839 13.379 64.3773 13.7767C64.6707 14.1745 64.7755 14.6658 64.6917 15.2273L64.5031 16.3972C64.4193 16.8417 64.2516 17.2629 63.9373 17.6138C63.6229 17.9648 63.2876 18.2221 62.8894 18.3391C63.2457 18.4795 63.5181 18.7135 63.7067 19.0878C63.8953 19.4622 63.9372 19.8833 63.8744 20.3512L63.6858 21.5445C63.6019 22.1294 63.3295 22.6207 62.9104 23.0419C62.4912 23.463 62.0302 23.6502 61.5272 23.6502H54.7372L56.3928 13.145H63.1618L63.1828 13.1684ZM60.7518 20.4214C60.8356 20.3512 60.8776 20.2576 60.8985 20.1641C60.9195 20.0705 60.8985 19.9769 60.8356 19.9067C60.7728 19.8365 60.7099 19.7897 60.6261 19.7897H58.3627L58.237 20.5384H60.5003C60.5841 20.5384 60.668 20.4916 60.7518 20.4214ZM61.3176 16.7949C61.4015 16.7247 61.4434 16.6311 61.4434 16.5376C61.4434 16.444 61.4434 16.3504 61.3805 16.2802C61.3176 16.21 61.2548 16.1866 61.1709 16.1866H58.9286L58.8028 16.9119H61.0661C61.15 16.9119 61.2338 16.8651 61.3176 16.7949ZM70.0986 20.281L71.2093 13.1684H74.2271L72.8439 21.989C72.7601 22.4569 72.5505 22.8547 72.2152 23.1822C71.8799 23.5098 71.4817 23.6736 71.0626 23.6736H65.4671C65.048 23.6736 64.7127 23.5098 64.4821 23.1822C64.2516 22.8547 64.1468 22.4569 64.2307 21.989L65.6138 13.1684H68.6316L67.4999 20.281C67.4999 20.3746 67.4999 20.4682 67.5628 20.5384C67.6256 20.6086 67.6885 20.6554 67.7723 20.6554H69.7004C69.7842 20.6554 69.868 20.6086 69.9519 20.5384C70.0357 20.4682 70.0776 20.3746 70.0986 20.281ZM80.1788 13.1684H82.3164L81.8344 16.1866H79.6968L78.5232 23.6736H75.5054L76.679 16.1866H74.5205L75.0025 13.1684H80.1788ZM84.9151 20.6554H89.2112L88.7502 23.6736H81.4362L83.0918 13.1684H86.1096L84.9151 20.6554ZM94.157 13.1684H98.4532L97.9712 16.1866H93.675L93.5493 16.9119H96.2737L95.7917 19.9301H93.0673L92.9416 20.6554H97.2377L96.7766 23.6736H89.4627L89.7771 21.7082L89.9447 20.6554L90.0705 19.9301L90.1962 19.1112L90.6573 16.1866L91.1393 13.1684H94.157ZM105.998 13.1684C106.501 13.1684 106.899 13.379 107.192 13.7767C107.486 14.1745 107.59 14.6658 107.507 15.2273L107.36 16.21L107.255 16.9353L107.108 17.918C107.025 18.4093 106.815 18.8304 106.48 19.2048C106.144 19.5791 105.746 19.8131 105.327 19.9067L106.144 23.697H102.959L102.142 19.9535H101.178L100.591 23.697H97.573L99.2286 13.1918H105.998V13.1684ZM104.133 16.7949C104.216 16.7247 104.258 16.6311 104.258 16.5376C104.258 16.444 104.258 16.3504 104.195 16.2802C104.133 16.21 104.07 16.1866 103.986 16.1866H101.743L101.618 16.9119H103.881C103.965 16.9119 104.049 16.8651 104.133 16.7949Z" fill="url(#paint3_linear_131_1421)"/>
<defs>
<linearGradient id="paint0_linear_131_1421" x1="3.352" y1="11.4605" x2="3.66332" y2="31.997" gradientUnits="userSpaceOnUse">
<stop stop-color="#FCD600"/>
<stop offset="1" stop-color="#F2C715"/>
</linearGradient>
<linearGradient id="paint1_linear_131_1421" x1="19.1702" y1="11.4318" x2="18.8388" y2="32.0132" gradientUnits="userSpaceOnUse">
<stop stop-color="#FCD600"/>
<stop offset="1" stop-color="#F2C715"/>
</linearGradient>
<linearGradient id="paint2_linear_131_1421" x1="11.5882" y1="0.00465183" x2="11.5247" y2="10.5102" gradientUnits="userSpaceOnUse">
<stop stop-color="#FCD600"/>
<stop offset="1" stop-color="#F2C715"/>
</linearGradient>
<linearGradient id="paint3_linear_131_1421" x1="67.7304" y1="24.2585" x2="67.9133" y2="12.5841" gradientUnits="userSpaceOnUse">
<stop stop-color="#F3C814"/>
<stop offset="1" stop-color="#FDD600"/>
</linearGradient>
</defs>
</svg>
