<svg width="86" height="29" viewBox="0 0 86 29" fill="none" xmlns="http://www.w3.org/2000/svg">
<path d="M85.5262 12.6647C84.6981 12.6647 83.861 12.6647 83.0147 12.6647C83.0147 10.3181 83.0147 7.98938 83.0147 5.65171C83.0056 5.65171 82.9874 5.65171 82.9783 5.65171C82.7053 7.98039 82.4232 10.3091 82.1502 12.6468C81.4951 12.6468 80.849 12.6468 80.1666 12.6468C79.8936 10.2731 79.6115 7.89947 79.3385 5.52583C79.3294 5.52583 79.3203 5.52583 79.3112 5.52583C79.3112 7.89048 79.3112 10.2551 79.3112 12.6468C78.474 12.6468 77.6551 12.6468 76.8088 12.6468C76.8088 8.50187 76.8088 4.35699 76.8088 0.194129C78.0009 0.194129 79.202 0.194129 80.4213 0.194129C80.6579 2.35199 80.9036 4.51883 81.1402 6.67669C81.1584 6.67669 81.1766 6.67669 81.1857 6.67669C81.2403 6.20016 81.2949 5.73263 81.3404 5.2561C81.4496 4.26708 81.5588 3.28706 81.6589 2.29804C81.7317 1.65068 81.7954 1.01232 81.8591 0.364959C81.8682 0.257066 81.8773 0.176147 82.032 0.176147C83.1967 0.185139 84.3614 0.185138 85.5262 0.194129C85.5262 4.348 85.5262 8.50187 85.5262 12.6647Z" fill="white"/>
<path d="M0 0.185096C0.0818956 0.176105 0.154692 0.167114 0.236587 0.167114C2.15658 0.167114 4.06748 0.167114 5.98748 0.167114C6.06937 0.167114 6.16037 0.167114 6.25136 0.167114C6.25136 0.97631 6.25136 1.75853 6.25136 2.56773C5.669 2.56773 5.10483 2.56773 4.51336 2.56773C4.51336 5.93938 4.51336 9.28405 4.51336 12.6467C3.59431 12.6467 2.69346 12.6467 1.77441 12.6467C1.77441 9.30204 1.77441 5.95736 1.77441 2.57672C1.16474 2.57672 0.582369 2.57672 0 2.57672C0 1.77652 0 0.985301 0 0.185096Z" fill="white"/>
<path d="M29.619 6.28116C30.2741 6.61383 30.6654 7.09036 30.7928 7.76469C30.811 7.84561 30.8201 7.91754 30.8201 7.99846C30.8201 8.75371 30.8383 9.51795 30.811 10.2732C30.7928 10.9206 30.6017 11.523 30.1013 11.9815C29.6827 12.3681 29.1731 12.5749 28.6271 12.6109C27.6717 12.6648 26.7162 12.6558 25.7517 12.6648C25.2785 12.6738 24.8053 12.6648 24.314 12.6648C24.314 8.50196 24.314 4.35708 24.314 0.194213C24.3504 0.185222 24.3959 0.176231 24.4414 0.176231C25.7153 0.176231 26.9892 0.167239 28.2632 0.203203C28.9001 0.221185 29.4916 0.401007 29.983 0.84157C30.4652 1.27314 30.6745 1.83059 30.7018 2.45097C30.7382 3.20622 30.7382 3.97046 30.7018 4.72571C30.6745 5.40903 30.3287 5.94849 29.619 6.28116ZM27.0165 10.4171C27.1894 10.4171 27.335 10.4171 27.4897 10.4171C27.8901 10.4081 28.0994 10.2193 28.1085 9.83263C28.1267 9.21225 28.1176 8.60086 28.1085 7.98048C28.0994 7.64781 27.9356 7.41404 27.6808 7.38706C27.4715 7.36009 27.244 7.37808 27.0165 7.37808C27.0165 8.38507 27.0165 9.38308 27.0165 10.4171ZM27.0256 2.43299C27.0256 3.34109 27.0256 4.22221 27.0256 5.11233C27.1894 5.11233 27.3441 5.11233 27.4897 5.11233C27.7991 5.10333 28.0084 4.93251 28.0175 4.62681C28.0357 4.06037 28.0357 3.48494 28.0175 2.91851C28.0084 2.63978 27.8173 2.45097 27.5625 2.43299C27.3896 2.424 27.2167 2.43299 27.0256 2.43299Z" fill="white"/>
<path d="M13.9858 12.6558C13.0759 12.6558 12.1932 12.6558 11.2833 12.6558C11.2833 10.9115 11.2833 9.17625 11.2833 7.42299C10.8465 7.42299 10.437 7.42299 10.0003 7.42299C10.0003 9.15827 10.0003 10.8935 10.0003 12.6468C9.0721 12.6468 8.17125 12.6468 7.2522 12.6468C7.2522 8.50192 7.2522 4.34804 7.2522 0.185181C8.16215 0.185181 9.0539 0.185181 9.98205 0.185181C9.98205 1.79458 9.98205 3.39499 9.98205 5.00439C10.4188 5.00439 10.8374 5.00439 11.2742 5.00439C11.2742 3.39499 11.2742 1.79458 11.2742 0.185181C12.1841 0.185181 13.0759 0.185181 13.9858 0.185181C13.9858 4.33905 13.9858 8.48393 13.9858 12.6558Z" fill="white"/>
<path d="M56.799 7.63868C56.799 9.329 56.799 10.9834 56.799 12.6557C55.8981 12.6557 55.0064 12.6557 54.0964 12.6557C54.0964 8.51082 54.0964 4.35694 54.0964 0.194081C54.1419 0.18509 54.1874 0.176099 54.2329 0.176099C55.5342 0.176099 56.8354 0.158116 58.1275 0.203071C58.992 0.230044 59.7654 0.508768 60.2477 1.29099C60.4934 1.6866 60.6026 2.12716 60.6117 2.5857C60.6208 3.32297 60.639 4.06024 60.6117 4.78852C60.5844 5.52578 60.2477 6.10121 59.5106 6.44287C59.9929 6.67664 60.3296 7.00931 60.4661 7.50382C60.5298 7.74658 60.5844 8.00732 60.5844 8.25907C60.6026 9.26607 60.5844 10.2731 60.6026 11.2801C60.6117 11.7386 60.6754 12.1882 60.7209 12.6647C60.1021 12.6647 59.447 12.6647 58.7918 12.6647C58.6189 12.6647 58.4369 12.6467 58.2731 12.6647C58.082 12.6827 58.0092 12.5928 57.991 12.4399C57.9455 12.0713 57.8909 11.6937 57.8818 11.325C57.8636 10.39 57.8818 9.44589 57.8727 8.51082C57.8727 8.38494 57.8636 8.25907 57.8454 8.13319C57.7999 7.80052 57.6179 7.63868 57.2722 7.62969C57.1266 7.62969 56.9719 7.63868 56.799 7.63868ZM56.799 5.30101C56.9719 5.30101 57.1175 5.30101 57.2631 5.30101C57.6634 5.30101 57.8636 5.13018 57.8818 4.72558C57.9 4.16813 57.8909 3.61968 57.8818 3.06223C57.8727 2.74754 57.7089 2.51378 57.4542 2.4868C57.2358 2.45983 57.0174 2.47781 56.799 2.47781C56.799 3.43086 56.799 4.34795 56.799 5.30101Z" fill="white"/>
<path d="M75.7169 6.416C75.7169 7.57585 75.7169 8.7267 75.7169 9.88655C75.7169 11.451 74.6887 12.5749 73.1054 12.7637C72.4866 12.8356 71.8769 12.8266 71.2673 12.6558C69.966 12.2962 69.1653 11.2892 69.1653 9.95848C69.1562 7.59383 69.1562 5.23817 69.1653 2.88251C69.1744 1.43495 70.148 0.338037 71.613 0.10427C72.432 -0.0216052 73.2419 -0.00362311 74.0153 0.329046C75.1255 0.805573 75.6805 1.65972 75.7078 2.83755C75.7442 4.02437 75.7169 5.22019 75.7169 6.416ZM72.978 6.42499C72.978 5.3101 72.978 4.18621 72.978 3.07132C72.978 2.97242 72.978 2.86453 72.9689 2.76562C72.9234 2.47791 72.7323 2.29809 72.4684 2.2891C72.1863 2.28011 71.977 2.45993 71.9224 2.74764C71.9042 2.83755 71.9042 2.93646 71.9042 3.02637C71.9042 5.28312 71.9042 7.54887 71.9042 9.80563C71.9042 9.89554 71.9042 9.97646 71.9133 10.0664C71.9588 10.3541 72.1681 10.5429 72.4411 10.5429C72.7232 10.5429 72.9143 10.3631 72.9598 10.0664C72.978 9.95848 72.9689 9.85058 72.9689 9.74269C72.978 8.6278 72.978 7.53089 72.978 6.42499Z" fill="white"/>
<path d="M45.8979 6.42478C45.8979 7.57564 45.8979 8.72649 45.8979 9.86836C45.8979 11.4508 44.8788 12.5657 43.2773 12.7545C42.4765 12.8534 41.6939 12.8084 40.9569 12.4668C40.0014 12.0262 39.4737 11.28 39.3827 10.246C39.3554 9.97625 39.3463 9.69753 39.3463 9.4278C39.3463 7.30591 39.3372 5.19301 39.3554 3.07112C39.3554 2.71147 39.4009 2.33385 39.501 1.9832C39.7193 1.20097 40.2471 0.634535 41.0024 0.33783C42.1489 -0.120714 43.3046 -0.129705 44.4238 0.41875C45.3792 0.886286 45.8615 1.70447 45.8888 2.73845C45.9252 3.97022 45.8979 5.202 45.8979 6.42478ZM43.1499 6.41579C43.1499 5.35485 43.1499 4.2939 43.1499 3.22396C43.1499 3.07111 43.159 2.90928 43.1408 2.75643C43.1044 2.4867 42.9224 2.31586 42.6858 2.29788C42.4219 2.27091 42.2126 2.40578 42.1307 2.67551C42.0943 2.77441 42.0852 2.89129 42.0852 2.99919C42.0852 5.28292 42.0852 7.56665 42.0852 9.85038C42.0852 10.3089 42.2854 10.5517 42.6403 10.5517C42.9861 10.5427 43.1499 10.3179 43.1499 9.85038C43.1499 8.69952 43.1499 7.55766 43.1499 6.41579Z" fill="white"/>
<path d="M68.1644 6.43417C68.1644 7.57604 68.1644 8.7179 68.1644 9.85977C68.1644 11.4692 67.1635 12.5661 65.5438 12.7639C64.6247 12.8718 63.7421 12.7998 62.9322 12.3233C62.1588 11.8648 61.7311 11.1635 61.6492 10.2734C61.6219 10.0036 61.6128 9.7249 61.6128 9.45517C61.6128 7.3153 61.6128 5.17542 61.6128 3.02656C61.6128 2.49609 61.6947 1.9836 61.9586 1.51606C62.2953 0.913658 62.7957 0.500069 63.4509 0.275292C64.5428 -0.0933416 65.6257 -0.0933411 66.6721 0.41915C67.6367 0.886685 68.128 1.70487 68.1553 2.74784C68.1826 3.97961 68.1553 5.2024 68.1644 6.43417C68.1553 6.43417 68.1553 6.43417 68.1644 6.43417ZM65.4164 6.4072C65.4164 5.28332 65.4164 4.15943 65.4164 3.02656C65.4164 2.92766 65.4164 2.81976 65.3982 2.72086C65.3527 2.46911 65.1707 2.30727 64.9341 2.28929C64.6702 2.27131 64.4791 2.39718 64.3972 2.64893C64.3608 2.7838 64.3426 2.92766 64.3426 3.06252C64.3426 5.29231 64.3426 7.52209 64.3426 9.74289C64.3426 9.84179 64.3426 9.94968 64.3608 10.0486C64.4063 10.3543 64.6247 10.5341 64.9068 10.5251C65.1889 10.5161 65.38 10.3183 65.4073 10.0036C65.4164 9.91372 65.4164 9.8328 65.4164 9.74289C65.4164 8.64598 65.4164 7.52209 65.4164 6.4072Z" fill="white"/>
<path d="M31.8027 6.40698C31.8027 5.22915 31.8027 4.04233 31.8027 2.8645C31.8027 1.58777 32.5307 0.589763 33.7773 0.221129C34.8784 -0.102549 35.9703 -0.0755762 36.9895 0.490861C37.863 0.976379 38.3089 1.74961 38.3271 2.72064C38.3544 5.1842 38.3453 7.64775 38.3362 10.1023C38.3271 11.2352 37.5809 12.2152 36.4344 12.5928C35.5426 12.8806 34.6418 12.8895 33.75 12.6018C32.5307 12.2152 31.8118 11.2262 31.8027 9.95845C31.8027 8.78062 31.8027 7.5938 31.8027 6.40698ZM34.5235 6.40698C34.5235 7.48591 34.5235 8.56484 34.5235 9.64377C34.5235 9.76964 34.5235 9.89552 34.5326 10.0214C34.569 10.3361 34.7783 10.5429 35.0695 10.5429C35.3606 10.5429 35.5335 10.372 35.5881 10.0394C35.5972 9.94946 35.6154 9.85056 35.6154 9.76065C35.6154 7.53986 35.6154 5.31906 35.6154 3.09827C35.6154 2.95441 35.5972 2.81955 35.5699 2.68468C35.5153 2.44192 35.3242 2.30706 35.0968 2.29806C34.8511 2.28907 34.66 2.40596 34.5963 2.64872C34.5508 2.81056 34.5326 2.99038 34.5326 3.15222C34.5144 4.23114 34.5235 5.31906 34.5235 6.40698Z" fill="white"/>
<path d="M19.9097 7.414C19.209 7.414 18.5357 7.414 17.835 7.414C17.835 8.36705 17.835 9.31111 17.835 10.2732C18.6266 10.2732 19.4092 10.2732 20.2009 10.2732C20.2009 11.0734 20.2009 11.8556 20.2009 12.6558C18.5175 12.6558 16.8431 12.6558 15.1506 12.6558C15.1506 8.50192 15.1506 4.35704 15.1506 0.185181C16.834 0.185181 18.5084 0.185181 20.2009 0.185181C20.2009 0.976395 20.2009 1.75862 20.2009 2.56781C19.4183 2.56781 18.6357 2.56781 17.835 2.56781C17.835 3.386 17.835 4.1862 17.835 5.01338C18.5175 5.01338 19.1999 5.01338 19.9006 5.01338C19.9097 5.81359 19.9097 6.59581 19.9097 7.414Z" fill="white"/>
<path d="M51.3486 12.6558C50.4205 12.6558 49.5287 12.6558 48.6188 12.6558C48.6188 9.30212 48.6188 5.95745 48.6188 2.5768C48.0273 2.5768 47.454 2.5768 46.8625 2.5768C46.8625 1.76761 46.8625 0.976395 46.8625 0.185181C48.9281 0.185181 50.9937 0.185181 53.0775 0.185181C53.0775 0.976395 53.0775 1.75862 53.0775 2.56781C52.5042 2.56781 51.9401 2.56781 51.3486 2.56781C51.3486 5.93946 51.3486 9.28414 51.3486 12.6558Z" fill="white"/>
<path d="M63.2998 21.56C63.2998 23.7448 63.2998 25.9387 63.2998 28.1415C62.4899 28.1415 61.68 28.1415 60.8611 28.1415C60.8611 23.9876 60.8611 19.8337 60.8611 15.6619C61.1705 15.6619 61.4708 15.6619 61.771 15.6619C62.2806 15.6619 62.7902 15.6709 63.2907 15.6619C63.4454 15.6619 63.509 15.7068 63.5454 15.8597C63.9549 17.6309 64.3735 19.4021 64.783 21.1644C64.8012 21.2543 64.8285 21.3442 64.8467 21.4341C64.8558 21.4341 64.8649 21.4341 64.874 21.4341C64.874 19.519 64.874 17.6129 64.874 15.6798C65.702 15.6798 66.5028 15.6798 67.3308 15.6798C67.3308 19.8337 67.3308 23.9786 67.3308 28.1415C66.5574 28.1415 65.7839 28.1415 65.0014 28.1415C64.4463 25.9476 63.8821 23.7538 63.327 21.551C63.318 21.551 63.3089 21.56 63.2998 21.56Z" fill="white"/>
<path d="M59.7874 21.9018C59.7874 23.0616 59.7965 24.2125 59.7874 25.3723C59.7783 26.0826 59.5963 26.748 59.1049 27.2964C58.65 27.8089 58.0585 28.0966 57.3851 28.2135C56.457 28.3843 55.5561 28.3394 54.7008 27.8988C53.7271 27.3953 53.2448 26.5681 53.2357 25.4982C53.2175 23.1336 53.2266 20.7599 53.2266 18.3953C53.2266 16.9297 54.2094 15.8058 55.6835 15.5811C56.3387 15.4822 56.9938 15.4822 57.6308 15.662C58.9957 16.0486 59.7601 17.0286 59.7692 18.4312C59.7874 19.5911 59.7874 20.7419 59.7874 21.9018ZM57.0393 21.9108C57.0393 20.7869 57.0393 19.663 57.0393 18.5391C57.0393 18.4043 57.0211 18.2604 56.9847 18.1255C56.921 17.9187 56.7754 17.8019 56.548 17.7839C56.3205 17.7659 56.1294 17.8558 56.0475 18.0626C55.9838 18.2154 55.9474 18.3953 55.9474 18.5571C55.9383 20.7869 55.9383 23.0077 55.9474 25.2375C55.9474 25.3993 55.9838 25.5612 56.0293 25.714C56.1112 25.9388 56.3023 26.0377 56.5298 26.0287C56.7573 26.0197 56.921 25.8938 56.9756 25.678C57.012 25.5432 57.0302 25.3993 57.0302 25.2644C57.0393 24.1496 57.0393 23.0347 57.0393 21.9108Z" fill="white"/>
<path d="M15.7092 21.9018C15.7092 23.1246 15.7183 24.3384 15.7092 25.5612C15.691 26.9368 14.7628 27.8809 13.5435 28.1776C12.7701 28.3664 11.9875 28.3664 11.2231 28.1416C9.92191 27.764 9.19395 26.793 9.18485 25.3724C9.16665 23.0707 9.18485 20.76 9.18485 18.4583C9.18485 16.5522 10.568 15.6351 12.1149 15.5452C12.6609 15.5182 13.1886 15.5452 13.7073 15.698C15.0085 16.0846 15.7183 17.0736 15.7274 18.5032C15.7365 19.6361 15.7274 20.769 15.7274 21.9018C15.7183 21.9018 15.7092 21.9018 15.7092 21.9018ZM12.9793 21.9108C12.9793 20.7959 12.9793 19.6721 12.9793 18.5572C12.9793 18.4313 12.9702 18.3054 12.9429 18.1885C12.8884 17.9458 12.7064 17.8019 12.4789 17.7929C12.2423 17.7839 12.0421 17.9008 11.9602 18.1256C11.9238 18.2425 11.8965 18.3683 11.8965 18.4942C11.8965 20.778 11.8965 23.0617 11.8965 25.3454C11.8965 25.4623 11.9147 25.5792 11.9511 25.6871C12.0239 25.9119 12.2241 26.0557 12.4516 26.0467C12.6882 26.0467 12.8884 25.8849 12.9429 25.6421C12.9702 25.5252 12.9793 25.3904 12.9793 25.2735C12.9793 24.1406 12.9793 23.0257 12.9793 21.9108Z" fill="white"/>
<path d="M8.14755 23.2955C8.14755 24.1767 8.21124 25.0398 8.12934 25.8939C8.01105 27.1797 7.1011 28.0428 5.79077 28.2406C5.04461 28.3485 4.30755 28.3215 3.58869 28.0608C2.46945 27.6472 1.77789 26.6852 1.76879 25.5073C1.75969 23.1067 1.75969 20.7061 1.76879 18.3055C1.77789 16.9029 2.78793 15.797 4.22566 15.5812C4.91722 15.4823 5.59968 15.4823 6.27304 15.6981C7.40138 16.0577 8.08385 16.9119 8.15665 18.1347C8.20214 18.8719 8.16574 19.6182 8.16574 20.3824C7.28309 20.3824 6.40954 20.3824 5.50869 20.3824C5.50869 19.8519 5.50869 19.3215 5.50869 18.791C5.50869 18.5842 5.49959 18.3684 5.46319 18.1616C5.4177 17.9189 5.2539 17.784 5.01731 17.784C4.78073 17.784 4.60784 17.8919 4.54414 18.1257C4.49864 18.2875 4.48044 18.4673 4.48044 18.6382C4.48044 20.823 4.48044 22.9988 4.48044 25.1837C4.48044 25.3545 4.49864 25.5253 4.54414 25.6961C4.60784 25.9299 4.79893 26.0558 5.01731 26.0468C5.2448 26.0378 5.4086 25.9029 5.46319 25.6602C5.49049 25.5253 5.50869 25.3815 5.50869 25.2466C5.51779 24.6082 5.50869 23.9699 5.50869 23.3045C6.40954 23.2955 7.2831 23.2955 8.14755 23.2955Z" fill="white"/>
<path d="M41.2335 20.4001C41.0515 20.4001 40.8786 20.4001 40.7057 20.4001C40.0778 20.4001 39.45 20.3911 38.8312 20.4001C38.6492 20.4001 38.5855 20.3552 38.5855 20.1663C38.5946 19.5639 38.5855 18.9615 38.5764 18.3591C38.5764 18.2602 38.5491 18.1523 38.5218 18.0624C38.449 17.8736 38.3034 17.7747 38.1032 17.7747C37.903 17.7747 37.7392 17.8466 37.6664 18.0355C37.6118 18.1793 37.5845 18.3412 37.5754 18.485C37.5663 20.7597 37.5754 23.0345 37.5754 25.3092C37.5754 25.4351 37.5937 25.561 37.6301 25.6779C37.6847 25.9026 37.8666 26.0195 38.085 26.0195C38.3125 26.0195 38.4854 25.9116 38.54 25.6779C38.5764 25.507 38.5946 25.3272 38.5946 25.1474C38.6037 24.527 38.5946 23.9156 38.5946 23.2772C39.4864 23.2772 40.3508 23.2772 41.2335 23.2772C41.2426 23.3222 41.2608 23.3672 41.2608 23.4211C41.2608 24.1584 41.2699 24.8867 41.2426 25.6239C41.188 27.0175 40.2507 28.0245 38.8494 28.2223C38.2488 28.3033 37.6482 28.3033 37.0568 28.1504C35.6373 27.7818 34.8729 26.8107 34.8638 25.3362C34.8456 23.0255 34.8638 20.7238 34.8638 18.4131C34.8638 16.516 36.256 15.5809 37.7938 15.5C38.3762 15.473 38.9495 15.5 39.4955 15.7068C40.6875 16.1563 41.2244 17.0644 41.2517 18.2872C41.2699 18.9346 41.2517 19.5819 41.2517 20.2383C41.2608 20.3012 41.2426 20.3462 41.2335 20.4001Z" fill="white"/>
<path d="M31.4605 22.8907C31.4605 23.8618 31.4605 24.7968 31.4605 25.7589C32.2613 25.7589 33.053 25.7589 33.8537 25.7589C33.8537 26.5591 33.8537 27.3413 33.8537 28.1325C32.1612 28.1325 30.4778 28.1325 28.7671 28.1325C28.7671 23.9876 28.7671 19.8338 28.7671 15.6709C30.4596 15.6709 32.143 15.6709 33.8446 15.6709C33.8446 16.4531 33.8446 17.2353 33.8446 18.0445C33.053 18.0445 32.2704 18.0445 31.4605 18.0445C31.4605 18.8717 31.4605 19.6719 31.4605 20.4901C32.1521 20.4901 32.8346 20.4901 33.5352 20.4901C33.5352 21.2993 33.5352 22.0815 33.5352 22.8817C32.8437 22.8907 32.1612 22.8907 31.4605 22.8907Z" fill="white"/>
<path d="M46.6841 28.1415C45.7559 28.1415 44.8642 28.1415 43.9451 28.1415C43.9451 24.7788 43.9451 21.4342 43.9451 18.0625C43.3536 18.0625 42.7804 18.0625 42.198 18.0625C42.198 17.2533 42.198 16.4711 42.198 15.6709C44.2727 15.6709 46.3383 15.6709 48.413 15.6709C48.413 16.4621 48.413 17.2443 48.413 18.0445C47.8397 18.0445 47.2755 18.0445 46.6841 18.0445C46.6841 21.4162 46.6841 24.7699 46.6841 28.1415Z" fill="white"/>
<path d="M19.4583 15.6799C19.4583 19.0426 19.4583 22.3873 19.4583 25.7589C20.2317 25.7589 20.9961 25.7589 21.7786 25.7589C21.7786 26.5591 21.7786 27.3413 21.7786 28.1416C20.1316 28.1416 18.4846 28.1416 16.8103 28.1416C16.8103 23.9967 16.8103 19.8518 16.8103 15.6799C17.6839 15.6799 18.5574 15.6799 19.4583 15.6799Z" fill="white"/>
<path d="M22.7979 15.6709C23.6805 15.6709 24.5632 15.6709 25.4549 15.6709C25.4549 19.0336 25.4549 22.3782 25.4549 25.7499C26.2284 25.7499 26.9927 25.7499 27.7662 25.7499C27.7662 26.5501 27.7662 27.3323 27.7662 28.1325C26.1192 28.1325 24.4631 28.1325 22.7979 28.1325C22.7979 23.9966 22.7979 19.8517 22.7979 15.6709Z" fill="white"/>
<path d="M52.1617 28.1505C51.2427 28.1505 50.3509 28.1505 49.4319 28.1505C49.4319 23.9967 49.4319 19.8518 49.4319 15.6799C50.3327 15.6799 51.2336 15.6799 52.1617 15.6799C52.1617 19.8338 52.1617 23.9787 52.1617 28.1505Z" fill="white"/>
<path d="M74.0189 25.9117C74.0189 27.3773 72.8541 28.5102 71.3527 28.5191C69.8513 28.5191 68.6501 27.3593 68.6501 25.9117C68.6501 24.4911 69.8695 23.3313 71.3527 23.3313C72.8541 23.3403 74.0189 24.4732 74.0189 25.9117ZM69.3508 25.9027C69.3508 27.0626 70.2153 27.9437 71.3618 27.9527C72.4537 27.9617 73.3455 27.0356 73.3364 25.9207C73.3273 24.7699 72.4628 23.8887 71.3618 23.8887C70.2335 23.8798 69.3599 24.7609 69.3508 25.9027Z" fill="white"/>
<path d="M71.9807 25.9747C72.5358 26.2445 72.4084 26.8199 72.6358 27.2605C72.4266 27.2605 72.2446 27.2695 72.0626 27.2515C71.9989 27.2425 71.9261 27.1795 71.8988 27.1256C71.8442 26.9907 71.8169 26.8379 71.7805 26.703C71.6713 26.3074 71.5621 26.2265 71.1435 26.2265C71.0889 26.2265 71.0343 26.2355 70.9524 26.2355C70.9524 26.5682 70.9524 26.9008 70.9524 27.2425C70.734 27.2425 70.5521 27.2425 70.3428 27.2425C70.3428 26.3973 70.3428 25.5432 70.3428 24.68C70.8705 24.5901 71.4074 24.5362 71.9352 24.6621C72.2901 24.743 72.463 24.9408 72.4994 25.2465C72.5267 25.5881 72.4084 25.768 71.9807 25.9747ZM70.9797 25.8219C71.2072 25.7859 71.4074 25.7949 71.5803 25.723C71.6895 25.678 71.8078 25.5252 71.8078 25.4173C71.8078 25.3094 71.6895 25.1476 71.5803 25.1116C71.3983 25.0487 71.189 25.0577 70.9797 25.0397C70.9797 25.3184 70.9797 25.5432 70.9797 25.8219Z" fill="white"/>
</svg>
