<svg width="56" height="53" viewBox="0 0 56 53" fill="none" xmlns="http://www.w3.org/2000/svg">
<mask id="mask0_7200_55764" style="mask-type:alpha" maskUnits="userSpaceOnUse" x="0" y="0" width="56" height="53">
<rect width="56" height="53" fill="#D9D9D9"/>
</mask>
<g mask="url(#mask0_7200_55764)">
<path d="M24.0465 4.77555C23.1326 4.79249 21.9888 5.36267 21.1707 5.16586C20.8443 5.08698 20.4452 5.05311 20.0546 5.07438C20.0476 5.07479 20.0405 5.07397 20.0337 5.07438C19.6365 5.09792 19.2488 5.18177 18.9631 5.35668C18.9513 5.36391 18.9377 5.37052 18.9259 5.37733C18.9148 5.39369 18.9022 5.40897 18.8883 5.42297C18.5087 5.80296 17.669 5.83745 17.2782 6.22837C16.9592 6.54764 16.6634 7.15872 16.3114 7.70618C16.3081 7.71135 16.3064 7.71754 16.3031 7.7227C15.0504 9.18379 14.0507 10.9815 13.6971 12.4508C13.4064 13.6579 13.4105 15.2883 12.9334 16.4896C12.8 16.8256 12.2469 18.685 12.6762 19.0467C12.9685 19.293 14.2149 19.4816 14.5809 19.0467C14.7779 18.8127 16.5845 18.2276 17.1496 17.5565C17.815 16.7661 18.1583 15.4009 18.6146 14.2522C18.687 14.0695 18.7806 13.8756 18.8883 13.6835C19.1472 14.1849 19.3526 14.5942 19.461 14.846C19.6869 15.3695 19.9352 16.0935 20.1417 16.8673C19.6945 17.5525 19.881 18.4897 20.2038 18.918C18.8968 19.325 19.5195 20.7318 19.4693 20.7818C19.3832 20.8679 19.1107 20.9829 19.0004 21.0932C18.8642 21.2295 18.8427 21.5141 18.8427 21.72C18.8427 21.9186 18.8679 22.0952 18.905 22.2513C17.7157 25.2441 16.593 28.9903 15.1744 31.01C14.7659 31.1962 14.3482 31.3563 13.8587 31.454C12.9051 31.6927 10.4948 32.1652 8.46411 32.8488C8.36998 32.9721 8.26733 33.0886 8.15691 33.1976C7.95582 33.3987 7.55324 33.3989 7.35174 33.6003C7.19546 33.7568 6.70761 33.5806 6.55112 33.7372C6.0866 34.2018 5.40118 34.443 4.67116 34.8082C4.59023 34.8486 4.33051 34.7462 4.26858 34.8082C3.93701 35.1398 3.34325 35.3313 3.06103 35.6136C2.50898 36.1656 2.04632 36.7655 1.45091 37.3611C0.859214 37.9529 2.06614 39.5827 2.25607 39.7727C2.81515 40.332 3.84225 40.4212 4.40133 40.9808C4.63668 41.2161 5.42533 40.9013 5.70858 41.0886C5.78167 41.099 5.84711 41.1122 5.89129 41.1343C6.71504 41.5463 8.33115 41.8509 9.30644 42.1761C10.6507 42.6243 11.717 43.822 13.1035 44.1686C14.1591 44.4327 15.358 44.5731 16.4233 44.9283C16.8688 45.0768 17.4097 44.975 17.8426 45.1192C18.6521 45.3893 19.3832 45.7242 20.1208 45.9702C20.3764 46.0555 20.714 45.9047 20.9756 45.9702C21.5648 46.1174 22.2015 46.1602 22.7767 46.3522C23.8011 46.6936 25.1676 46.0105 26.192 46.3522C26.8671 46.5773 31.0705 46.217 31.4085 45.8789C31.6568 45.6303 32.6017 45.946 32.9271 45.7835C33.2095 45.6423 34.0667 45.7808 34.255 45.5925C34.7412 45.1061 35.7392 45.0849 36.4337 44.7375C36.7261 44.5913 37.1763 44.7935 37.4796 44.6419C37.6539 44.5548 38.0081 44.6619 38.3925 44.8286C39.1238 44.8133 39.6866 44.7373 40.4176 44.7373C41.2868 44.7373 42.4867 44.3245 43.758 43.6996C45.1654 43.3826 46.8854 43.0164 46.9659 42.9359C47.5774 42.3242 49.2024 42.5002 49.8088 41.8938C50.2382 41.4643 50.7898 41.29 51.2321 40.8478C51.6258 40.4538 52.1669 40.0028 52.7342 39.5278C52.8331 39.2523 53.0858 38.9934 53.3193 38.76C53.4171 38.6619 54.1081 36.6395 53.9832 36.3896C53.7547 35.9322 53.3769 35.5539 52.9417 35.2024C52.8067 35.1561 52.7032 35.109 52.6553 35.0613C52.1904 34.5963 51.0766 34.524 50.6635 34.1108C49.9981 33.4452 48.9976 32.8469 47.8041 32.4463C47.5543 32.3224 47.3204 32.1904 47.1527 32.0229C46.9401 31.8102 45.7117 31.5386 45.3517 31.3586C45.158 31.2617 44.7368 31.4118 44.5923 31.2673C44.2418 30.9168 42.7733 30.6669 41.7123 30.3291C41.5575 30.339 41.3093 30.2209 41.2643 30.1756C41.2323 30.1436 40.4098 30.0226 40.1395 29.7523C40.1088 29.7213 39.9985 28.6194 39.9985 28.482C39.9985 28.4312 39.8755 28.2272 39.9486 28.1541C39.9599 28.1427 39.9713 28.1293 39.9818 28.1167C39.4909 25.0901 39.1153 21.7478 38.7617 21.4501C38.2367 21.0079 37.945 18.5661 37.3675 18.0795C36.7636 17.5709 36.3856 17.0148 35.9192 16.5811C35.9188 16.5796 35.9194 16.5782 35.9192 16.577C35.7438 15.6119 35.4103 14.5277 35.305 14.4391C35.1337 14.295 35.3932 13.641 35.222 13.4968C34.6894 13.0481 33.9953 10.4101 33.4957 9.98919C32.8412 9.4378 32.5194 8.58242 31.898 8.05891C30.3626 6.76572 27.8122 4.84102 24.9927 4.98723C24.8732 4.95319 24.7555 4.91301 24.6401 4.86683C24.4607 4.79559 24.2575 4.77163 24.0465 4.77555Z" fill="#0D0D0D"/>
<path d="M23.4453 21.5062C23.2089 21.4635 22.9777 21.461 22.7963 21.5215C22.4944 21.6222 22.0077 21.3836 21.6923 21.4407C20.5002 21.6572 19.5656 21.9818 19.4048 22.3846C21.1741 21.8747 23.1382 23.0129 23.9428 24.0943C24.2774 24.5438 23.7614 25.2251 23.9436 25.7764C23.9848 25.9015 24.0178 26.701 23.8745 26.8087C23.5751 27.0337 23.6048 27.8192 23.3573 28.1778C22.7747 29.0214 22.2665 29.6379 21.7715 30.3547C21.2612 31.0938 19.8964 31.2417 19.1347 31.4961C18.9665 31.5521 18.7545 31.4354 18.5772 31.4945C18.5352 31.5086 18.4863 31.511 18.4375 31.504C18.4546 31.5235 18.4746 31.5421 18.4886 31.5612C18.5529 31.6474 18.8661 31.5653 18.9576 31.6291C19.5495 32.0422 21.8916 31.8837 22.541 31.667C22.9449 31.5324 23.32 31.3331 23.7239 31.1982C24.242 31.0255 24.752 30.2155 25.1242 29.7984C26.404 28.3641 26.9891 25.8798 26.356 23.9627C26.0378 22.999 25.2048 22.4214 24.4957 21.9263C24.2533 21.7573 23.8393 21.5777 23.4453 21.5062ZM26.2999 19.6548C26.2237 19.6523 26.2132 20.4024 26.2072 20.76C26.1713 20.7621 26.173 20.807 26.1824 20.8582C25.7979 21.0299 24.9604 21.3738 25.0247 21.4426C25.0278 21.4442 25.028 21.4463 25.0294 21.4476C24.9991 21.449 24.9674 21.4594 24.966 21.5014C24.9631 21.5572 25.0768 21.5045 25.1321 21.5064C25.2213 21.5095 26.0001 21.7981 26.3096 21.929C26.3479 22.2246 26.4611 22.4013 26.4611 22.7392C26.4611 22.9499 26.5023 23.2401 26.5147 23.2401C26.5194 23.2401 26.5278 23.2339 26.5342 23.2304C26.5433 23.2669 26.5536 23.2884 26.5684 23.2745C26.6292 23.2173 26.7395 23.0638 26.8518 22.8915C26.8567 22.884 26.8619 22.8793 26.8662 22.8718C27.0639 22.6261 27.2893 22.3114 27.482 22.027C27.8556 22.0817 28.1977 22.1254 28.2832 22.1254C28.3245 22.1254 29.7437 22.3705 29.3338 21.9582C29.3089 21.9331 29.2798 21.9118 29.2508 21.8894C29.2599 21.8822 29.265 21.8749 29.2652 21.865C29.2683 21.7854 28.4759 21.4192 28.3467 21.2806C28.2843 21.2135 28.1942 21.1708 28.1318 21.1037C28.1153 21.0861 28.1462 21.037 28.1952 20.9661V20.9614C28.3055 20.8391 28.423 20.7128 28.5079 20.6272C28.5487 20.5864 28.7778 20.1549 28.5604 20.1835C28.4137 20.2025 27.9341 20.2332 27.3062 20.418C27.3062 20.418 27.1368 20.1951 27.1356 20.1957C26.9991 20.1398 26.613 19.6654 26.2995 19.6548H26.2999Z" fill="#393939"/>
<path d="M22.7295 19.5566C22.6843 19.5785 22.6156 19.6675 22.5938 19.6221C22.5719 19.5768 22.7747 19.5346 22.7295 19.5566C22.5944 19.6219 22.0723 20.0933 22.2647 20.2423C22.423 20.3649 23.0102 20.1357 23.2594 20.2229C23.2965 20.2359 23.7105 20.8721 23.7753 20.6863C23.8811 20.3831 23.7501 19.8678 23.7534 19.8583C23.8023 19.7186 24.1845 19.7758 24.2778 19.7308C24.3549 19.6936 24.5115 19.6274 24.5329 19.5654C24.5387 19.5489 24.543 19.4993 24.5507 19.5152C24.5569 19.5282 24.4486 19.4228 24.3165 19.3767C24.1194 19.3077 23.9197 19.3509 23.7782 19.3013C23.7132 19.2786 23.7918 18.8943 23.7679 18.8452C23.6903 18.6839 23.641 18.4944 23.6546 18.5227C23.6932 18.6029 23.4875 18.6013 23.4335 18.6715C23.3658 18.7592 23.1884 19.0564 23.074 19.0549C22.9366 19.0529 22.3864 18.9216 22.3495 19.0274C22.3464 19.0336 22.6921 19.3765 22.7295 19.5566ZM28.0472 24.9043C28.0105 24.87 27.9028 24.8383 27.9369 24.8015C27.9711 24.7645 28.0841 24.9386 28.0474 24.9043C27.9375 24.8022 27.309 24.4868 27.2407 24.7203C27.1844 24.9129 27.6116 25.3772 27.6213 25.6415C27.6244 25.681 27.1823 26.2992 27.3787 26.2917C27.699 26.2799 28.1303 25.9699 28.14 25.9697C28.2879 25.9641 28.3737 26.3417 28.4499 26.4124C28.5126 26.4707 28.631 26.5927 28.6964 26.5902C28.7143 26.5896 28.7617 26.5753 28.7496 26.5881C28.7399 26.5986 28.7983 26.4593 28.7929 26.3194C28.7853 26.11 28.6724 25.9395 28.6669 25.7897C28.6638 25.7205 29.0499 25.6537 29.087 25.6136C29.2087 25.4824 29.3665 25.3674 29.3453 25.3904C29.2849 25.4555 29.2116 25.2631 29.1264 25.2381C29.0202 25.2071 28.6794 25.15 28.6392 25.0425C28.5909 24.9136 28.5124 24.3524 28.4006 24.3566C28.3942 24.3568 28.2011 24.8038 28.0474 24.9043H28.0472Z" fill="#393939"/>
<path d="M40.1768 29.8688C40.0694 30.2381 39.3966 31.4217 39.1132 31.705C38.7488 32.0694 38.4355 32.449 38.1162 32.7685C37.8898 32.9948 37.2437 33.5743 37.0525 33.7655C36.6371 34.1809 36.3934 34.0257 35.9226 34.4965C35.689 34.73 35.2192 34.7346 34.9919 34.9619C34.7864 35.1673 33.1368 35.2911 32.7319 35.4937C32.6338 35.5426 32.3411 35.4191 32.2665 35.4937C31.9754 35.7844 29.676 35.8905 29.6076 35.9587C29.2556 36.3108 28.3183 35.9056 27.813 36.1583C27.3646 36.3823 26.4751 36.2247 25.9517 36.2247C25.6617 36.2247 24.8918 36.2193 24.0988 36.1999C23.9115 36.1732 23.7639 36.1523 23.7581 36.1583C23.754 36.1622 23.736 36.1806 23.7249 36.1914C23.5761 36.1868 23.4324 36.1806 23.2888 36.1748C23.1991 36.1407 23.104 36.1197 23.0269 36.1583C23.0234 36.16 23.0182 36.1606 23.0145 36.1624C22.3957 36.1325 21.8905 36.0887 21.764 36.0252C21.2438 35.7652 20.6851 35.6929 20.0357 35.6929C19.019 35.6929 16.768 34.4913 15.9807 34.0978C15.8602 34.0375 15.526 33.687 15.3451 33.5909C15.3437 33.5214 15.3412 33.4582 15.3162 33.4332C15.1308 33.2478 15.0496 32.8338 14.9173 32.5691C14.8621 32.4587 14.9173 32.0545 14.9173 32.1037C14.9173 32.106 15.0508 31.5721 15.0502 31.5721C14.9363 31.5721 14.3406 32.3482 14.1195 32.5691C14.1174 32.5712 14.1236 32.5832 14.1277 32.5939C14.0033 32.7654 13.9161 33.0217 13.9161 33.4082C13.9161 34.7255 14.6426 34.7953 15.3244 35.4769C15.4919 35.6443 15.8501 35.5331 15.9807 35.664C16.1142 35.7973 16.3101 35.9159 16.5416 36.0211C16.2523 36.191 15.6942 36.2329 15.5113 36.4158C15.3325 36.5946 14.5033 37.1088 14.1943 37.2632C14.1364 37.2921 13.8553 37.3239 13.8204 37.3589C12.0644 39.1147 10.0826 40.2487 8.46095 41.8702C8.32454 42.0066 8.27411 43.7895 8.27411 44.1258C8.27411 44.7131 8.07465 45.3348 8.46116 45.7211C8.62403 45.8841 9.16473 45.7682 9.30858 45.9122C9.33979 45.9432 9.73291 46.2357 9.77797 46.1904C9.94952 46.0189 9.68248 45.1221 9.68248 44.8779C9.68248 43.5942 9.82096 42.2966 10.6256 41.4922C12.177 39.941 14.389 39.2329 15.7938 37.8282C16.2068 37.4153 16.9635 37.1954 17.5139 36.744C17.4945 36.8763 17.517 37.0011 17.6135 37.1053C17.6776 37.1747 17.9062 37.0375 17.9874 37.0805C18.5393 37.3731 20.2217 38.0006 20.7169 37.3963C20.8068 37.567 20.8779 37.7399 20.9662 37.8282C21.2961 38.1578 21.0381 39.749 20.8707 40.084C20.2389 41.3473 19.9057 44.9952 19.3666 45.534C19.2736 45.627 19.4783 46.5134 19.5537 46.6641C19.7494 47.0557 19.4103 47.9289 19.5537 48.0723C19.6947 48.2133 19.6037 48.5876 19.7449 48.7287C19.873 48.8568 20.4598 48.6956 20.5882 48.8242C20.639 48.875 21.3079 49.3301 21.4356 49.2024C21.5416 49.0962 21.1456 47.8743 21.0576 47.6985C20.9819 47.5468 21.2618 44.765 21.3401 44.6867C21.4496 44.5772 21.2306 44.1401 21.3401 44.0303C21.5536 43.8168 21.8095 39.3921 21.8095 38.7671C21.8095 38.6617 22.0792 38.0024 21.9052 37.8282C21.9042 37.8272 21.7493 37.4717 21.5396 37.1261C21.8496 37.1491 22.1108 37.1865 22.1877 37.2632C22.3256 37.4012 25.107 37.2632 25.5694 37.2632C27.406 37.2632 30.2953 37.121 31.3982 36.8852C31.838 36.7911 32.8807 36.7091 33.4671 36.4158C33.8077 36.2455 35.0067 36.1292 35.2163 36.0752C35.664 35.9597 37.103 35.6135 37.5054 35.2112C37.8038 34.9125 38.8247 33.8786 39.2004 33.6907C39.6241 33.4789 39.837 32.7264 40.0855 32.3779C40.1173 32.12 40.8116 31.4459 40.6754 31.1733C40.5206 30.5438 40.424 29.8932 40.1768 29.8688Z" fill="#393939"/>
</g>
</svg>
