<svg width="56" height="53" viewBox="0 0 56 53" fill="none" xmlns="http://www.w3.org/2000/svg">
<mask id="mask0_7196_21992" style="mask-type:alpha" maskUnits="userSpaceOnUse" x="0" y="0" width="56" height="53">
<rect width="56" height="53" fill="#D9D9D9"/>
</mask>
<g mask="url(#mask0_7196_21992)">
<path d="M30.9145 0.00901048C30.8974 0.00901048 30.5389 0.0523435 30.1097 0.0761767C28.7362 0.184509 27.3734 0.383841 26.0277 0.678506C25.1649 0.873505 22.817 1.5495 22.7226 1.61667C21.1387 2.17783 19.5635 2.92966 18.0654 3.69015C16.7649 4.40948 14.7518 5.72247 14.4406 6.06047C14.2287 6.24227 14.0111 6.41713 13.7881 6.5848C12.9576 7.2543 11.2728 8.97245 10.5088 9.92795C7.92695 13.2039 6.49546 16.7421 6.05764 20.8977C5.91599 22.3277 6.05764 26.3295 6.24221 26.3295C6.28513 26.3295 6.92898 26.0435 7.71019 25.6708C8.12011 25.4845 8.60728 25.2548 8.80688 25.1617C9.00862 25.0685 10.0989 24.5702 11.2149 24.0459C12.3459 23.5194 13.4598 23.0059 13.7044 22.8932L14.7518 22.4035C15.0866 22.2519 15.3892 22.1219 15.4299 22.1219C15.4729 22.1219 15.4149 21.9464 15.3055 21.7254C14.6182 20.3901 14.2645 18.9055 14.2753 17.4007C14.2753 14.9047 15.1381 12.5344 16.9151 10.1554C17.7478 9.09378 18.6986 8.13612 19.748 7.29546C19.8983 7.17846 20.1172 7.01596 20.2352 6.91413C20.9649 6.34864 23.3192 5.07031 23.6476 5.07031C23.7227 5.07031 23.7463 5.12014 23.7227 5.21331C23.697 5.29998 23.5296 6.12764 23.3364 7.04196C23.1604 7.98229 22.993 8.80995 22.9673 8.90529C22.9501 8.98762 22.875 9.36028 22.8085 9.72428C22.7333 10.0883 22.6668 10.4609 22.6496 10.5476C22.6239 10.6386 22.4479 11.5529 22.2376 12.6016C22.038 13.6416 21.8298 14.6599 21.7869 14.8701C21.744 15.0737 21.6925 15.3099 21.686 15.4031L21.3491 17.1386C21.3276 17.2317 21.1065 18.3411 20.8554 19.6085C20.6043 20.8804 20.3854 21.9875 20.3618 22.0807L20.0335 23.7404C19.9866 24.0124 19.9336 24.2833 19.8747 24.5528C19.7824 24.9818 19.7008 25.4152 19.63 25.8485C19.5991 25.9539 19.5741 26.061 19.5549 26.1692C19.5334 26.2775 19.4218 26.8192 19.3124 27.389C19.1943 27.9545 19.087 28.5568 19.0613 28.7085C19.0355 28.8602 18.9604 29.2155 18.9024 29.495C18.8445 29.7398 18.7951 29.9846 18.7522 30.2316C18.3702 32.1816 17.9796 34.1316 17.5847 36.0816L17.4345 36.9006C17.4087 36.9938 17.2327 37.9168 17.016 38.9589L16.5717 41.2252C16.5316 41.4045 16.498 41.5852 16.4708 41.7669L16.136 43.4937C16.1103 43.5869 15.8828 44.7049 15.6317 45.9637C15.3892 47.2355 15.1703 48.3449 15.1552 48.4207C15.0479 48.919 14.5414 51.5342 14.5114 51.7357L14.4685 52L22.0788 51.974C28.8113 51.974 31.0583 51.9307 32.2151 51.8223L33.1959 51.7292C33.5564 51.7032 33.8998 51.662 33.975 51.6533C34.0501 51.636 34.3012 51.6013 34.5458 51.5775C34.7884 51.5515 35.2991 51.467 35.6769 51.3912C36.0632 51.3218 36.4645 51.2547 36.5654 51.2395C36.6662 51.2135 37.001 51.1442 37.3037 51.0683C37.5977 51.0033 37.8896 50.934 37.9647 50.9167C38.1664 50.8733 39.5314 50.4682 39.7181 50.3923C39.8104 50.349 40.2289 50.18 40.6474 50.0023C43.3473 48.919 45.5771 47.1597 47.1546 44.8652C47.4464 44.4427 48.2512 43.0799 48.2512 43.0127C48.2512 42.9867 48.4015 42.6661 48.5732 42.2934C49.2724 40.7417 49.7354 39.0924 49.9467 37.4011C50.054 36.5713 49.9896 33.4643 49.8394 33.2281C49.8027 33.0925 49.7769 32.9541 49.7621 32.8143C49.3892 30.8659 48.5826 29.0284 47.4033 27.4408C46.224 25.8531 44.7028 24.5566 42.9545 23.6494C42.112 23.2033 41.2277 22.8426 40.3147 22.5725L39.9112 22.4794L40.5723 22.0395C40.8577 21.8489 41.1367 21.6495 41.4093 21.4459C41.9501 21.0125 42.4759 20.5619 42.9846 20.0917C44.1113 18.9326 44.7981 18.0356 45.4956 16.8352C46.0643 15.8602 46.6674 14.3284 46.8348 13.4553C46.8463 13.3519 46.8694 13.2501 46.9035 13.1519C47.103 12.5778 47.103 9.66361 46.9035 9.33645C46.8863 9.31045 46.8605 9.17395 46.8348 9.03962C46.7739 8.78818 46.7023 8.5395 46.6202 8.29429C45.7295 5.54264 43.6842 3.25032 40.8684 1.84633C39.9112 1.36967 38.2587 0.745672 37.7114 0.65034C37.5194 0.619827 37.3294 0.577132 37.1427 0.522507C36.4843 0.365382 35.818 0.243876 35.1468 0.158509C34.2209 0.0480101 33.2891 -0.00481175 32.3567 0.000343872C31.567 0.00901048 30.921 -0.00182278 30.9124 0.00684383L30.9145 0.00901048ZM34.445 3.93498C36.531 4.48531 38.1836 5.86547 38.9133 7.66813C39.3575 8.76012 39.4584 9.37978 39.4584 11.0113C39.4584 12.3394 39.4155 12.9396 39.2137 13.7781C38.9185 15.1343 38.3256 16.4064 37.4787 17.5006C36.6319 18.5948 35.5526 19.4832 34.3205 20.1004C33.8483 20.3474 33.4406 20.5337 33.2216 20.6095C33.1959 20.6095 33.1208 20.6529 33.0521 20.6767C32.4662 20.9215 30.0088 21.4805 29.9187 21.3874C29.8929 21.3614 30.0088 20.7439 30.1548 19.992C30.305 19.2467 30.4552 18.5014 30.4703 18.3411C30.4919 18.201 30.5205 18.0622 30.5561 17.9251C30.593 17.7897 30.6175 17.6511 30.6291 17.5112C30.6548 17.3422 30.6978 17.1646 30.7149 17.0974C30.7385 17.0281 30.7729 16.8504 30.79 16.6901C30.8137 16.5384 30.9489 15.8451 31.0819 15.1669C31.2257 14.4822 31.3609 13.8388 31.3759 13.7283C31.3931 13.6091 31.5691 12.6883 31.788 11.6699C31.9876 10.6473 32.1743 9.69828 32.1958 9.56395C32.2237 9.42962 32.2902 9.05695 32.3567 8.74279C32.4233 8.42212 32.4855 8.07546 32.507 7.96279C32.8761 5.99114 33.3118 3.85915 33.329 3.77465C33.3805 3.65765 33.447 3.67282 34.445 3.93498ZM31.949 25.6188C32.3589 25.6795 33.0392 25.8052 33.7088 25.9655C34.078 26.0435 35.1339 26.4747 35.6962 26.7693C38.8403 28.4117 40.5744 31.874 40.1988 35.7241C40.1419 36.207 40.0631 36.6871 39.9628 37.1628C39.937 37.2148 39.9134 37.3578 39.8791 37.4943C39.6684 38.1944 39.4161 38.881 39.1236 39.5504C36.8015 44.2564 31.8395 47.1337 25.8195 47.242L24.798 47.268L24.8473 47.0405L24.9396 46.6007C24.9654 46.4815 25.0061 46.202 25.0576 45.9832L25.1821 45.3224C25.2079 45.1794 25.2336 45.0017 25.2594 44.9085C25.2744 44.8154 25.4418 43.9422 25.6199 42.9694C25.8131 42.0052 26.0127 40.9631 26.0792 40.6684L26.2509 39.8039C26.2724 39.6176 26.2981 39.4139 26.3239 39.3489C26.3475 39.2796 26.3732 39.1344 26.399 39.0239C26.4247 38.9069 26.4848 38.5949 26.5235 38.3241C26.575 38.0533 26.751 37.1801 26.9012 36.3849C27.0085 35.8216 27.1201 35.2626 27.2296 34.7015C27.2446 34.5563 27.3218 34.1923 27.3798 33.8781C27.4978 33.3126 27.5472 33.0418 27.6223 32.5586L27.824 31.536L28.4357 28.3618C28.6868 27.0402 28.9143 25.8918 28.9293 25.7878C28.9551 25.6708 29.0474 25.6015 29.1997 25.5863C29.6011 25.5343 31.4532 25.569 31.9468 25.6188H31.949Z" fill="black"/>
</g>
</svg>
