<svg width="115" height="115" viewBox="0 0 115 115" fill="none" xmlns="http://www.w3.org/2000/svg">
<mask id="mask0_7606_86751" style="mask-type:alpha" maskUnits="userSpaceOnUse" x="0" y="0" width="115" height="115">
<rect width="115" height="115" fill="#D9D9D9"/>
</mask>
<g mask="url(#mask0_7606_86751)">
<g clip-path="url(#clip0_7606_86751)">
<path d="M78.65 32.86C78.65 31.42 78.19 30.2 77.32 29.33C76.45 28.46 75.23 28 73.79 28C66.79 28 59.67 28 52.6 28C45.53 28 37.68 28 30.23 28C28.85 28 27.66 28.46 26.78 29.33C25.9 30.2 25.43 31.38 25.41 32.76C25.39 33.93 25.4 35.13 25.41 36.28C25.41 36.8 25.41 37.33 25.41 37.85V38.25H24.42C22.65 38.25 20.87 38.25 19.1 38.25C17.33 38.25 15.55 38.25 13.78 38.25C10.34 38.25 7.56 38.25 5.02 38.25C3.45 38.25 2.21 38.7 1.33 39.58C0.45 40.46 0 41.7 0 43.27C0 52.15 0 61.36 0 71.42C0 73.01 0.45 74.26 1.33 75.14C2.21 76.02 3.46 76.47 5.05 76.48C5.35 76.48 5.65 76.48 5.95 76.48C6.2 76.48 6.45 76.48 6.71 76.48C6.81 76.48 6.92 76.48 7.03 76.48V76.93C7.03 77.67 7.03 78.41 7.03 79.15C7.03 81.48 7.03 83.88 7.06 86.25C7.06 86.81 7.45 87.59 8 87.87C8.16 87.95 8.34 87.99 8.54 87.99C8.85 87.99 9.18 87.9 9.47 87.82C9.55 87.8 9.63 87.77 9.7 87.76C9.97 87.69 10.16 87.52 10.31 87.38C10.36 87.34 10.41 87.29 10.45 87.26C11.42 86.53 12.39 85.79 13.37 85.06C16.91 82.38 20.57 79.61 24.19 76.91C24.51 76.67 24.98 76.51 25.37 76.51C30.28 76.49 35.28 76.49 40.11 76.49C42.69 76.49 45.35 76.49 47.97 76.49C48.59 76.49 49.26 76.47 49.88 76.31C51.93 75.78 53.26 73.99 53.28 71.75C53.29 70.38 53.28 68.98 53.28 67.63C53.28 67.17 53.28 66.72 53.28 66.26C53.32 66.26 53.36 66.26 53.39 66.26C53.81 66.26 54.16 66.39 54.55 66.69C57.51 68.96 60.54 71.24 63.47 73.46C65.12 74.71 66.83 76 68.51 77.27C68.91 77.57 69.39 77.9 69.97 77.9C70.24 77.9 70.5 77.83 70.76 77.7C71.67 77.23 71.66 76.34 71.66 75.7V75.68C71.66 73.47 71.66 71.22 71.66 69.04C71.66 68.25 71.66 67.47 71.66 66.68V66.25C71.8 66.25 71.93 66.25 72.06 66.25C72.33 66.25 72.6 66.25 72.86 66.25C73.18 66.25 73.49 66.25 73.8 66.25C76.76 66.24 78.67 64.34 78.67 61.41C78.67 52.37 78.67 43.03 78.67 32.86H78.65ZM68.22 71.08V72.72C67.28 72.01 66.34 71.3 65.4 70.59C62.46 68.37 59.41 66.08 56.44 63.79C55.83 63.32 55 62.79 53.89 62.79C53.74 62.79 53.58 62.8 53.42 62.82C53.4 62.82 53.37 62.82 53.34 62.82C53.32 62.82 53.29 62.82 53.26 62.82V56.86C53.26 52.36 53.26 47.86 53.26 43.36C53.26 40.11 51.4 38.25 48.16 38.25C45.87 38.25 43.39 38.25 40.35 38.25C38.53 38.25 36.71 38.25 34.89 38.25C33.08 38.25 31.28 38.25 29.47 38.25H28.87C28.87 37.79 28.87 37.33 28.87 36.89C28.87 35.37 28.87 33.94 28.89 32.48C28.9 31.81 29.44 31.52 29.94 31.48C30.12 31.46 30.3 31.46 30.48 31.46C30.53 31.46 30.57 31.46 30.62 31.46C30.67 31.46 30.71 31.46 30.76 31.46C38.53 31.46 46.3 31.46 54.06 31.46C60.47 31.46 66.89 31.46 73.3 31.46C74.2 31.46 74.68 31.56 74.91 31.79C75.14 32.02 75.24 32.5 75.24 33.39C75.24 42.62 75.24 51.85 75.24 61.07C75.24 62.48 74.9 62.82 73.5 62.82C73.25 62.82 73.01 62.82 72.76 62.82C72.51 62.82 72.28 62.82 72.03 62.82C71.79 62.82 71.54 62.82 71.3 62.82C70.99 62.82 70.68 62.82 70.37 62.82C69.8 62.82 69.15 62.88 68.72 63.31C68.28 63.74 68.23 64.38 68.22 64.94C68.22 66.97 68.22 68.96 68.22 71.08ZM10.45 75.82C10.45 74.7 10.42 73.98 9.97 73.53C9.52 73.07 8.81 73.04 7.7 73.04H7.68C7.39 73.04 7.11 73.04 6.82 73.04C6.53 73.04 6.25 73.04 5.96 73.04C5.55 73.04 5.2 73.04 4.88 73.04C3.84 73.04 3.43 72.62 3.42 71.57C3.42 70.46 3.42 69.33 3.42 68.24C3.42 67.76 3.42 67.28 3.42 66.8V60.84C3.42 55.06 3.42 49.28 3.42 43.5C3.42 42.72 3.52 42.26 3.76 42.03C4 41.8 4.45 41.69 5.24 41.69C19.53 41.69 33.81 41.69 48.1 41.69C48.82 41.69 49.26 41.79 49.48 42.01C49.7 42.23 49.8 42.66 49.8 43.36C49.8 52.4 49.8 61.82 49.8 71.36C49.8 72.07 49.7 72.5 49.48 72.72C49.26 72.94 48.82 73.04 48.11 73.04H47.58C46.16 73.04 44.75 73.04 43.33 73.04C41.91 73.04 40.5 73.04 39.08 73.04C34.76 73.04 29.67 73.04 24.65 73.07C23.99 73.07 23.26 73.32 22.72 73.72C19.62 76.02 16.49 78.39 13.46 80.68C12.53 81.39 11.59 82.09 10.66 82.8C10.59 82.85 10.52 82.9 10.45 82.96V81.42C10.45 79.51 10.45 77.67 10.45 75.83V75.82Z" fill="#231F20"/>
<path d="M13.2816 62.2999C14.5816 62.2999 15.8216 61.7799 16.7616 60.8299C17.7016 59.8799 18.2216 58.6499 18.2116 57.3499C18.2116 56.0499 17.6816 54.8299 16.7516 53.8899C15.8116 52.9599 14.5816 52.4399 13.2916 52.4399C13.2716 52.4399 13.2616 52.4399 13.2416 52.4399C10.5616 52.4699 8.37156 54.6699 8.35156 57.3399C8.35156 58.6399 8.86156 59.8799 9.80156 60.8299C10.7416 61.7799 11.9716 62.2999 13.2716 62.2999H13.2816ZM11.3716 59.2499C10.8616 58.7299 10.5816 58.0399 10.5916 57.3199C10.6116 55.8599 11.8216 54.6699 13.2816 54.6699H13.2916C14.7616 54.6699 15.9616 55.8699 15.9716 57.3399C15.9716 58.0599 15.6916 58.7399 15.1816 59.2499C14.6716 59.7699 13.9916 60.0499 13.2716 60.0499C12.5516 60.0499 11.8816 59.7599 11.3716 59.2399V59.2499Z" fill="#231F20"/>
<path d="M39.9325 62.2999C39.9325 62.2999 39.9625 62.2999 39.9825 62.2999C42.6725 62.2999 44.8625 60.0899 44.8725 57.3699C44.8725 56.0499 44.3625 54.8099 43.4325 53.8799C42.5025 52.9499 41.2725 52.4399 39.9725 52.4399H39.9525C37.2625 52.4499 35.0725 54.6399 35.0625 57.3199C35.0625 58.6399 35.5625 59.8899 36.4725 60.8199C37.3925 61.7599 38.6225 62.2799 39.9325 62.2899V62.2999ZM37.2825 57.3799C37.2725 55.9099 38.4625 54.6899 39.9325 54.6699C39.9425 54.6699 39.9525 54.6699 39.9725 54.6699C41.4525 54.6699 42.6225 55.8299 42.6525 57.3099C42.6625 58.0399 42.3925 58.7299 41.8825 59.2499C41.3725 59.7699 40.7025 60.0499 39.9825 60.0499C38.5125 60.0499 37.3125 58.8499 37.3025 57.3699L37.2825 57.3799Z" fill="#231F20"/>
<path d="M26.5323 62.2999C26.5323 62.2999 26.6123 62.2999 26.6523 62.2999C27.9023 62.2999 29.1023 61.7999 30.0323 60.8899C30.9623 59.9799 31.4923 58.7799 31.5323 57.5199C31.5723 56.1899 31.0823 54.9299 30.1523 53.9599C29.2223 52.9999 27.9923 52.4599 26.6623 52.4399C26.6423 52.4399 26.6223 52.4399 26.6023 52.4399C25.3223 52.4399 24.1123 52.9399 23.1823 53.8499C22.2623 54.7599 21.7423 55.9699 21.7123 57.2599C21.6823 58.5799 22.1623 59.8299 23.0723 60.7799C23.9723 61.7299 25.2023 62.2699 26.5223 62.3099L26.5323 62.2999ZM23.9323 57.3299C23.9523 55.8599 25.1623 54.6699 26.6323 54.6699H26.6423C28.1123 54.6699 29.3023 55.8899 29.2923 57.3599C29.2923 58.8399 28.1023 60.0399 26.6323 60.0499H26.6223C25.9023 60.0499 25.2223 59.7599 24.7123 59.2399C24.2023 58.7199 23.9223 58.0399 23.9323 57.3299Z" fill="#231F20"/>
<path d="M70.4436 35.71H70.9836V40.68C70.9836 46.89 70.9836 53.1 70.9836 59.3V59.33C70.9836 59.59 70.9836 59.88 71.0936 60.15C71.1836 60.38 71.4436 60.76 72.0736 60.76C72.0936 60.76 72.1136 60.76 72.1436 60.76C72.7536 60.74 72.9936 60.37 73.0836 60.15C73.1936 59.89 73.1936 59.61 73.1936 59.36V59.31V55.17C73.1936 48.56 73.1936 41.72 73.1936 34.99C73.1936 34.5 73.1636 34.06 72.8636 33.77C72.5636 33.49 72.1436 33.46 71.6336 33.46C70.1036 33.46 68.5736 33.46 67.0436 33.46C65.9636 33.46 64.8736 33.46 63.7936 33.46H60.7736C60.3136 33.46 59.8536 33.46 59.3936 33.46C58.9336 33.46 58.4736 33.46 58.0036 33.46C57.2036 33.46 56.1436 33.46 55.0536 33.49C54.5736 33.5 53.8936 33.94 53.8036 34.44C53.7436 34.75 53.8036 35.05 53.9936 35.28C54.2136 35.55 54.5936 35.7 55.0536 35.7H55.2336C55.3536 35.7 55.4836 35.7 55.6036 35.7H68.8036H70.4536L70.4436 35.71Z" fill="#231F20"/>
</g>
</g>
<defs>
<clipPath id="clip0_7606_86751">
<rect width="78.66" height="60" fill="white" transform="translate(0 28)"/>
</clipPath>
</defs>
</svg>
