<svg width="175" height="120" viewBox="0 0 175 120" fill="none" xmlns="http://www.w3.org/2000/svg">
<mask id="mask0_807_24393" style="mask-type:alpha" maskUnits="userSpaceOnUse" x="0" y="0" width="175" height="120">
<rect width="175" height="120" fill="#D9D9D9"/>
</mask>
<g mask="url(#mask0_807_24393)">
</g>
<g clip-path="url(#clip0_807_24393)">
<path d="M68.2952 52.8854C68.2952 53.9555 68.4108 54.8231 68.6133 55.4594C68.8447 56.0957 69.1339 56.7898 69.5388 57.5417C69.6834 57.7731 69.7412 58.0045 69.7412 58.2069C69.7412 58.4961 69.5677 58.7853 69.1917 59.0745L67.3697 60.2892C67.1094 60.4627 66.8491 60.5495 66.6177 60.5495C66.3285 60.5495 66.0393 60.4049 65.7501 60.1446C65.3452 59.7108 64.9982 59.2481 64.7089 58.7853C64.4197 58.2937 64.1305 57.7442 63.8124 57.079C61.5566 59.7397 58.7223 61.0701 55.3096 61.0701C52.8802 61.0701 50.9425 60.376 49.5254 58.9878C48.1083 57.5996 47.3853 55.7486 47.3853 53.4349C47.3853 50.9766 48.2529 48.9811 50.0171 47.4772C51.7812 45.9733 54.1239 45.2214 57.1027 45.2214C58.086 45.2214 59.0983 45.3081 60.1683 45.4527C61.2384 45.5973 62.3374 45.8287 63.4943 46.089V43.9778C63.4943 41.7798 63.0315 40.2469 62.135 39.3504C61.2095 38.4538 59.6478 38.02 57.4208 38.02C56.4086 38.02 55.3675 38.1357 54.2974 38.396C53.2273 38.6563 52.1861 38.9744 51.1739 39.3793C50.7112 39.5818 50.3641 39.6974 50.1617 39.7553C49.9592 39.8131 49.8146 39.842 49.6989 39.842C49.294 39.842 49.0916 39.5528 49.0916 38.9455V37.5284C49.0916 37.0656 49.1494 36.7186 49.294 36.5161C49.4386 36.3137 49.6989 36.1112 50.1038 35.9088C51.1161 35.3882 52.3307 34.9544 53.7479 34.6073C55.165 34.2314 56.6689 34.0578 58.2596 34.0578C61.7012 34.0578 64.2173 34.8387 65.8369 36.4004C67.4275 37.9622 68.2373 40.3337 68.2373 43.515V52.8854H68.2952ZM56.5532 57.2814C57.5076 57.2814 58.4909 57.1079 59.5321 56.7608C60.5732 56.4138 61.4987 55.7775 62.2796 54.9099C62.7423 54.3604 63.0894 53.7531 63.2629 53.059C63.4364 52.3649 63.5521 51.5261 63.5521 50.5428V49.3281C62.7134 49.1257 61.8168 48.9522 60.8914 48.8365C59.9659 48.7208 59.0693 48.663 58.1728 48.663C56.2351 48.663 54.818 49.0389 53.8636 49.8198C52.9092 50.6007 52.4464 51.6997 52.4464 53.1457C52.4464 54.505 52.7935 55.5172 53.5165 56.2113C54.2106 56.9344 55.2229 57.2814 56.5532 57.2814ZM79.7768 60.4049C79.2562 60.4049 78.9092 60.3181 78.6778 60.1157C78.4464 59.9422 78.244 59.5373 78.0705 58.9878L71.274 36.6318C71.1005 36.0534 71.0137 35.6774 71.0137 35.475C71.0137 35.0122 71.2451 34.7519 71.7078 34.7519H74.5421C75.0916 34.7519 75.4676 34.8387 75.67 35.0412C75.9014 35.2147 76.0749 35.6196 76.2484 36.1691L81.1072 55.3148L85.6188 36.1691C85.7635 35.5907 85.937 35.2147 86.1683 35.0412C86.3997 34.8676 86.8046 34.7519 87.3252 34.7519H89.6389C90.1884 34.7519 90.5643 34.8387 90.7957 35.0412C91.0271 35.2147 91.2295 35.6196 91.3452 36.1691L95.9147 55.5462L100.918 36.1691C101.092 35.5907 101.294 35.2147 101.496 35.0412C101.728 34.8676 102.104 34.7519 102.624 34.7519H105.314C105.777 34.7519 106.037 34.9833 106.037 35.475C106.037 35.6196 106.008 35.7642 105.979 35.9377C105.95 36.1112 105.892 36.3426 105.777 36.6607L98.8068 59.0167C98.6333 59.5951 98.4309 59.9711 98.1995 60.1446C97.9681 60.3181 97.5921 60.4338 97.1005 60.4338H94.6133C94.0638 60.4338 93.6878 60.3471 93.4564 60.1446C93.2251 59.9422 93.0226 59.5662 92.9069 58.9878L88.4242 40.3337L83.9703 58.9588C83.8257 59.5373 83.6522 59.9132 83.4208 60.1157C83.1895 60.3181 82.7846 60.4049 82.264 60.4049H79.7768ZM116.94 61.1858C115.436 61.1858 113.933 61.0122 112.486 60.6652C111.04 60.3181 109.913 59.9422 109.161 59.5083C108.698 59.2481 108.38 58.9588 108.264 58.6986C108.148 58.4383 108.09 58.1491 108.09 57.8888V56.4138C108.09 55.8065 108.322 55.5172 108.756 55.5172C108.929 55.5172 109.103 55.5462 109.276 55.604C109.45 55.6618 109.71 55.7775 109.999 55.8932C110.983 56.327 112.053 56.6741 113.181 56.9055C114.337 57.1368 115.465 57.2525 116.622 57.2525C118.444 57.2525 119.861 56.9344 120.845 56.2981C121.828 55.6618 122.349 54.7364 122.349 53.5506C122.349 52.7408 122.088 52.0756 121.568 51.5261C121.047 50.9766 120.064 50.485 118.647 50.0222L114.453 48.7208C112.342 48.0556 110.78 47.0723 109.826 45.7709C108.871 44.4983 108.38 43.0812 108.38 41.5773C108.38 40.3626 108.64 39.2925 109.161 38.3671C109.681 37.4416 110.375 36.6318 111.243 35.9956C112.11 35.3304 113.094 34.8387 114.251 34.4917C115.408 34.1446 116.622 34 117.895 34C118.531 34 119.196 34.0289 119.832 34.1157C120.498 34.2024 121.105 34.3181 121.712 34.4338C122.291 34.5784 122.84 34.723 123.361 34.8966C123.881 35.0701 124.286 35.2436 124.575 35.4171C124.98 35.6485 125.27 35.8799 125.443 36.1402C125.617 36.3715 125.703 36.6897 125.703 37.0945V38.4538C125.703 39.0612 125.472 39.3793 125.038 39.3793C124.807 39.3793 124.431 39.2636 123.939 39.0323C122.291 38.2803 120.44 37.9043 118.386 37.9043C116.738 37.9043 115.436 38.1646 114.54 38.7141C113.643 39.2636 113.181 40.1023 113.181 41.2881C113.181 42.0979 113.47 42.792 114.048 43.3415C114.627 43.891 115.697 44.4405 117.23 44.9321L121.336 46.2336C123.419 46.8988 124.923 47.8243 125.819 49.01C126.716 50.1958 127.149 51.5551 127.149 53.059C127.149 54.3026 126.889 55.4305 126.397 56.4138C125.877 57.3971 125.183 58.2647 124.286 58.9588C123.39 59.6819 122.32 60.2024 121.076 60.5784C119.775 60.9833 118.415 61.1858 116.94 61.1858Z" fill="#252F3E"/>
<path fill-rule="evenodd" clip-rule="evenodd" d="M122.406 75.2414C112.891 82.2692 99.0671 86 87.1806 86C70.5221 86 55.5121 79.8398 44.175 69.6018C43.2785 68.792 44.0883 67.693 45.1583 68.3292C57.4209 75.4438 72.5466 79.7531 88.1928 79.7531C98.749 79.7531 110.346 77.5551 121.018 73.0434C122.609 72.3203 123.968 74.0845 122.406 75.2414Z" fill="#FF9900"/>
<path fill-rule="evenodd" clip-rule="evenodd" d="M126.369 70.7297C125.154 69.168 118.329 69.9777 115.234 70.3537C114.308 70.4694 114.164 69.6596 115.003 69.0523C120.44 65.2347 129.376 66.3337 130.417 67.6062C131.459 68.9077 130.128 77.8443 125.038 82.1246C124.257 82.7898 123.505 82.4427 123.852 81.5751C125.009 78.7119 127.583 72.2625 126.369 70.7297Z" fill="#FF9900"/>
</g>
<defs>
<clipPath id="clip0_807_24393">
<rect width="88.7372" height="52" fill="white" transform="translate(43 34)"/>
</clipPath>
</defs>
</svg>
