<svg width="146" height="89" viewBox="0 0 146 89" fill="none" xmlns="http://www.w3.org/2000/svg">
<path d="M15.084 2.57422L18.4706 12.997H29.4297L20.5636 19.4386L23.9501 29.8614L15.084 23.4198L6.21784 29.8614L9.60441 19.4386L0.738263 12.997H11.6974L15.084 2.57422Z" fill="#E5AF0D"/>
<path d="M37.092 21.4662L44.176 8.7262H47.144L39.92 21.4662H37.092ZM37.092 23.0902V21.4662L38.212 20.7382H51.988V23.0902H37.092ZM46.584 28.1582V15.3062H49.188V28.1582H46.584ZM55.8139 28.4382C55.2912 28.4382 54.8526 28.2609 54.4979 27.9062C54.1619 27.5329 53.9939 27.0942 53.9939 26.5902C53.9939 26.0675 54.1619 25.6382 54.4979 25.3022C54.8526 24.9475 55.2912 24.7702 55.8139 24.7702C56.3366 24.7702 56.7659 24.9475 57.1019 25.3022C57.4566 25.6382 57.6339 26.0675 57.6339 26.5902C57.6339 27.0942 57.4566 27.5329 57.1019 27.9062C56.7659 28.2609 56.3366 28.4382 55.8139 28.4382ZM67.575 28.4382C66.287 28.4382 65.1483 28.1955 64.159 27.7102C63.1883 27.2249 62.4323 26.5529 61.891 25.6942C61.3497 24.8355 61.079 23.8649 61.079 22.7822C61.079 21.9049 61.247 21.1022 61.583 20.3742C61.919 19.6462 62.4137 19.0302 63.067 18.5262C63.7203 18.0035 64.4857 17.6302 65.363 17.4062L65.447 18.1622C64.7003 17.9569 64.0657 17.6302 63.543 17.1822C63.0203 16.7155 62.619 16.1742 62.339 15.5582C62.0777 14.9235 61.947 14.2515 61.947 13.5422C61.947 12.5342 62.1897 11.6475 62.675 10.8822C63.1603 10.1169 63.823 9.51953 64.663 9.0902C65.5217 8.6422 66.4923 8.4182 67.575 8.4182C68.6763 8.4182 69.647 8.6422 70.487 9.0902C71.327 9.51953 71.9897 10.1169 72.475 10.8822C72.9603 11.6475 73.203 12.5342 73.203 13.5422C73.203 14.2515 73.063 14.9235 72.783 15.5582C72.5217 16.1742 72.1297 16.7155 71.607 17.1822C71.103 17.6302 70.4777 17.9569 69.731 18.1622L69.787 17.4062C70.683 17.6302 71.4483 18.0035 72.083 18.5262C72.7363 19.0302 73.231 19.6462 73.567 20.3742C73.9217 21.1022 74.099 21.9049 74.099 22.7822C74.099 23.8649 73.8283 24.8355 73.287 25.6942C72.7457 26.5529 71.9803 27.2249 70.991 27.7102C70.0203 28.1955 68.8817 28.4382 67.575 28.4382ZM67.575 26.0582C68.359 26.0582 69.0403 25.9089 69.619 25.6102C70.2163 25.2929 70.683 24.8635 71.019 24.3222C71.3737 23.7809 71.551 23.1555 71.551 22.4462C71.551 21.7555 71.3737 21.1395 71.019 20.5982C70.683 20.0569 70.2163 19.6369 69.619 19.3382C69.0403 19.0209 68.359 18.8622 67.575 18.8622C66.8097 18.8622 66.1283 19.0209 65.531 19.3382C64.9337 19.6369 64.4577 20.0569 64.103 20.5982C63.767 21.1395 63.599 21.7555 63.599 22.4462C63.599 23.1555 63.767 23.7809 64.103 24.3222C64.4577 24.8635 64.9337 25.2929 65.531 25.6102C66.1283 25.9089 66.8097 26.0582 67.575 26.0582ZM67.575 16.8182C68.5083 16.8182 69.2737 16.5289 69.871 15.9502C70.4683 15.3715 70.767 14.6249 70.767 13.7102C70.767 12.8142 70.4683 12.0862 69.871 11.5262C69.2737 10.9475 68.5083 10.6582 67.575 10.6582C66.6603 10.6582 65.9043 10.9475 65.307 11.5262C64.7097 12.0862 64.411 12.8142 64.411 13.7102C64.411 14.6249 64.7097 15.3715 65.307 15.9502C65.9043 16.5289 66.6603 16.8182 67.575 16.8182Z" fill="white"/>
<g clip-path="url(#clip0_7881_53014)">
<path d="M68.056 88.7464H74.764V60.5742H68.056V75.4534H68.1768C68.1768 81.6745 62.8108 82.2811 61.3491 82.2811C57.4463 82.2811 56.5939 78.4996 56.5939 76.1834V60.5742H49.8849V76.4297C49.8271 79.8529 50.9946 83.184 53.1769 85.822C55.0056 87.6508 57.9321 88.7485 61.2267 88.7485C63.545 88.7485 66.5928 88.1382 68.0544 86.4302V88.7464H68.056Z" fill="white"/>
<path d="M81.2265 88.7485H87.9345V67.2821H92.8137V60.5742H87.9345V50.5742H81.2265V60.5742H76.2266V67.2821H81.2265V88.7485Z" fill="white"/>
<path d="M108.424 88.6268C112.113 88.6598 115.681 87.3108 118.424 84.8453L119.401 83.8689L114.767 79.235L113.791 80.4535C112.333 81.8059 110.413 82.548 108.424 82.527C103.79 82.527 100.374 79.235 100.374 74.3558C100.374 69.4767 103.666 66.3055 108.424 66.3055C109.413 66.2671 110.399 66.4312 111.322 66.7878C112.245 67.1443 113.085 67.6858 113.791 68.379L114.767 69.2314L119.157 64.8417L118.18 63.8653C115.375 61.5471 112.083 60.0838 108.422 60.0838C100.13 59.963 94.0317 65.9394 94.0317 74.3527C94.0172 76.2413 94.3805 78.1137 95.1002 79.8598C95.8199 81.6059 96.8814 83.1905 98.2224 84.5204C99.5633 85.8503 101.157 86.8987 102.909 87.6039C104.661 88.3091 106.536 88.6569 108.424 88.6268Z" fill="white"/>
<path d="M129.281 73.013C129.281 66.7919 133.916 66.1853 135.379 66.1853C139.282 66.1853 139.282 69.9668 139.282 72.283V88.7488H145.989V72.1606C146.11 68.5025 145.257 65.2079 143.063 63.013C142.104 62.0554 140.961 61.3023 139.703 60.7992C138.445 60.2962 137.098 60.0538 135.744 60.0866C133.426 60.0866 130.989 60.6969 129.157 62.4049V47.1602H122.449V88.7503H129.156V73.0156H129.28L129.281 73.013Z" fill="white"/>
<path d="M103.305 74.3568C103.305 75.2973 103.584 76.2167 104.106 76.9987C104.629 77.7807 105.371 78.3902 106.24 78.7501C107.109 79.11 108.065 79.2041 108.988 79.0207C109.91 78.8372 110.757 78.3843 111.422 77.7193C112.087 77.0542 112.54 76.2069 112.724 75.2845C112.907 74.3621 112.813 73.406 112.453 72.537C112.093 71.6681 111.484 70.9255 110.702 70.403C109.92 69.8805 109 69.6016 108.06 69.6016C106.799 69.6028 105.59 70.1042 104.699 70.9957C103.807 71.8872 103.306 73.096 103.305 74.3568Z" fill="#E52421"/>
<path d="M19.1465 88.6273C24.5125 88.6273 29.6359 86.5537 33.0493 82.7717L34.0256 81.7954L29.6359 77.1609L28.7835 78.3794C26.1934 80.8708 22.7429 82.2685 19.1491 82.2822C11.5861 82.2822 6.22003 76.4267 6.22003 68.5002C6.22003 60.4504 11.5861 54.7183 19.0257 54.7183C22.5624 54.7183 25.8534 56.1815 28.6601 58.6211L29.6364 59.5974L34.0261 55.2077L33.0503 54.2324C31.2628 52.3494 29.1047 50.857 26.7119 49.8492C24.3191 48.8414 21.7436 48.3401 19.1475 48.3769C8.17066 48.4977 0 57.0376 0 68.5008C0 79.964 8.17013 88.6273 19.1465 88.6273Z" fill="white"/>
<path d="M44.7587 47.1582H38.0508V88.7484H44.7587V47.1582Z" fill="white"/>
</g>
<defs>
<clipPath id="clip0_7881_53014">
<rect width="146" height="41.5928" fill="white" transform="translate(0 47.1582)"/>
</clipPath>
</defs>
</svg>
