<svg width="220" height="67" viewBox="0 0 220 67" fill="none" xmlns="http://www.w3.org/2000/svg">
<path d="M12.463 23.6758L14.705 66.2594H13.0234C12.908 63.1858 12.7597 59.0876 12.7597 59.0876C12.7597 59.0876 10.666 59.5347 10.4517 54.0581C10.2209 48.5814 9.52856 42.1734 10.0726 25.2033C8.55592 25.7994 7.07222 27.2151 6.01716 29.1152C4.10486 32.5986 3.47842 36.734 2.76955 40.6832C2.20905 47.203 2.78604 53.8532 3.34654 60.2985C3.51139 62.124 3.69273 64.378 3.8411 66.2035L3.31358 66.2594C3.18169 64.4339 2.98387 62.1985 2.81901 60.373C2.40688 55.6228 1.99474 50.7795 2.01123 45.9363C1.2529 52.5306 1.18696 59.6465 1.10453 66.2594H0C0.164854 53.6855 -0.956143 39.491 5.0775 28.5563C6.08311 26.7308 8.53942 23.6944 11.3749 23.6944H12.463V23.6758Z" fill="url(#paint0_linear_89_552)"/>
<path d="M34.6543 23.6729C37.4898 23.6729 39.9461 26.7279 40.9517 28.5348C46.9688 39.4881 45.8478 53.664 46.0292 66.2379H44.9247C44.8422 59.625 44.7928 52.4905 44.018 45.9148C44.0509 50.7581 43.6223 55.6013 43.2102 60.3515C43.0453 62.177 42.864 64.4124 42.7156 66.2379L42.1881 66.1821C42.32 64.3379 42.5178 62.1025 42.6826 60.277C43.2431 53.8131 43.8201 47.1815 43.2596 40.6617C42.5508 36.6939 41.9408 32.5771 40.012 29.0937C38.957 27.1936 37.4568 25.7779 35.9566 25.1818C36.5171 42.1333 35.8082 48.56 35.5775 54.0366C35.3467 59.5132 33.2695 59.0662 33.2695 59.0662C33.2695 59.0662 33.1376 63.1643 33.0057 66.2379H31.3242L33.5662 23.6543H34.6543V23.6729Z" fill="url(#paint1_linear_89_552)"/>
<path d="M16.7187 1.53875C19.5377 -0.361305 24.1536 -1.64664 28.6541 4.87317C28.6541 4.87317 31.4731 14.6715 32.6436 19.1609C33.0228 20.5952 32.9568 21.2286 32.9568 21.2286C32.9568 21.2286 26.9726 10.2008 26.7913 9.79096C25.1098 6.30752 16.3561 7.01539 15.4988 8.71054C14.0976 10.8528 13.6689 15.7147 13.6689 15.7147L12.9766 21.7315V16.4225C12.9766 15.8451 13.0095 15.249 13.059 14.6901L13.8173 6.99676C13.9492 4.74277 15.0043 2.69369 16.7352 1.52012L16.7187 1.53875Z" fill="url(#paint2_linear_89_552)"/>
<path d="M30.1653 4.91036C30.1653 5.37606 29.9015 5.8045 29.4894 5.97215C24.6262 7.68593 19.4663 7.68593 14.6031 5.97215C14.1086 5.78587 13.8118 5.17115 13.9602 4.61231C14.0097 4.46328 14.0591 4.33289 14.158 4.22112C14.3229 3.99758 14.5701 3.86719 14.8339 3.86719C15.0977 3.86719 14.9988 3.86719 15.0977 3.92307C19.6477 5.54371 24.4779 5.54371 29.0278 3.92307C29.374 3.8113 29.7367 3.92307 29.951 4.23975C30.0334 4.35152 30.0829 4.48191 30.1488 4.63094C30.1653 4.7427 30.1983 4.83584 30.1983 4.94761L30.1653 4.91036Z" fill="black"/>
<path d="M30.1878 7.81746C24.8631 9.53123 19.225 9.53123 13.9168 7.81746C13.3563 7.63118 13.0595 7.01645 13.2079 6.45761C13.3728 5.89877 13.9168 5.5821 14.4278 5.76838C19.4064 7.38901 24.6817 7.38901 29.6603 5.76838C30.1713 5.60072 30.7154 5.89877 30.8802 6.45761C31.0451 7.01645 30.7318 7.63118 30.1713 7.81746H30.1878Z" fill="black"/>
<path d="M22.0309 8.31249C19.3273 8.31249 16.6402 7.88405 14.052 7.04579C13.9201 7.00853 13.6069 6.93402 13.7388 6.50557C13.8707 6.0585 14.2169 6.20752 14.2663 6.22615C16.7886 7.04578 19.4098 7.4556 22.0309 7.4556C24.6521 7.4556 27.2733 7.04578 29.7955 6.22615C29.845 6.22615 30.2077 6.0585 30.3231 6.50557C30.4549 6.8595 30.1252 7.00853 30.0099 7.04579C27.4052 7.88405 24.718 8.31249 22.0309 8.31249Z" fill="#2B2C2B"/>
<path d="M20.6528 30.5938H16.5645V35.2135H20.6528V30.5938ZM20.1088 34.5615H17.1579V31.2457H20.1088V34.5615Z" fill="#FDD600"/>
<path d="M19.51 31.8828H17.7461V33.876H19.51V31.8828Z" fill="#FDD600"/>
<path d="M24.8359 30.5938V35.2135H28.9243V30.5938H24.8359ZM28.3638 34.5615H25.4129V31.2457H28.3638V34.5615Z" fill="#FDD600"/>
<path d="M27.7385 31.8828H25.9746V33.876H27.7385V31.8828Z" fill="#FDD600"/>
<path d="M16.5859 44.4303H20.6743V39.8105H16.5859V44.4303ZM17.1299 40.4812H20.0808V43.7969H17.1299V40.4812Z" fill="#FDD600"/>
<path d="M19.51 41.1426H17.7461V43.1358H19.51V41.1426Z" fill="#FDD600"/>
<path d="M17.7392 35.8574H16.5859V36.509H17.7392V35.8574Z" fill="#FDD600"/>
<path d="M20.0848 36.5309H20.6948V37.1829H19.5078V39.1388H21.2717V38.4868H20.0848V37.8348H21.2717V38.4868H21.8487V37.1829H21.2717V35.8789H20.0848V36.5309Z" fill="#FDD600"/>
<path d="M23.5825 37.8555V38.5074H23.0055V39.1594H22.445V39.8487H21.868V40.5006H21.291V39.1594H21.868V38.5074H22.445V37.8555H23.5825Z" fill="#FDD600"/>
<path d="M24.7859 41.1388V39.8535H24.2089V40.4869H22.445V41.1388H23.022V41.8467H22.445V41.1388H21.868V41.8281H21.291V42.5173H21.868V43.1693H21.291V44.4546H22.445V43.1693H23.022V42.4801H23.599V41.1388H24.7859Z" fill="#FDD600"/>
<path d="M24.1649 43.1638V43.8158H25.9289V44.4678H27.6928V43.8158H26.4894V42.4746H25.9124V43.1638H24.1484H24.1649Z" fill="#FDD600"/>
<path d="M24.163 43.8066H23.0098V44.4582H24.163V43.8066Z" fill="#FDD600"/>
<path d="M24.771 37.1895H23.5684V37.841H24.771V37.1895Z" fill="#FDD600"/>
<path d="M28.2477 37.8563V38.5083H28.8247V39.1603H28.2477V38.5083H27.6707V39.1603H27.0937V38.5083H26.5332V37.2044H27.6707V36.5524H27.0607V35.9004H28.2477V37.2044H28.8576V37.8563H28.2312H28.2477Z" fill="#FDD600"/>
<path d="M22.9883 39.173V39.8618H23.5649V39.2103H24.1415V38.5215H23.5649V39.173H22.9883Z" fill="#FDD600"/>
<path d="M24.1665 42.4746H23.5898V43.1262H24.1665V42.4746Z" fill="#FDD600"/>
<path d="M27.6684 42.4746H27.0918V43.1262H27.6684V42.4746Z" fill="#FDD600"/>
<path d="M25.3481 38.5215H24.7715V39.173H25.3481V38.5215Z" fill="#FDD600"/>
<path d="M24.7715 37.1829H25.3485V36.5309H26.5354V35.8789H24.7715V37.1829Z" fill="#FDD600"/>
<path d="M17.1629 37.168H16.5859V39.1612H17.1629V37.168Z" fill="#FDD600"/>
<path d="M21.83 35.8812H21.8465V37.1852H22.4235V36.496H23.0005V35.8626H24.1875V33.2174H23.6105V33.9067H23.0005V34.5587H23.6105V35.2106H23.0005V34.5587H22.4235V35.2106H21.8465V33.2174H22.407V30.5723H21.8465V31.2242H21.2695V32.5655H21.8465V33.2174H21.2695V35.8626H21.83V35.8812Z" fill="#FDD600"/>
<path d="M28.2334 40.4989V41.2068H27.6564V40.4989H27.0794V39.1949H26.5024V38.543H25.9255V39.2322H25.3485V41.1881H24.7715V41.8401H25.299V42.5294H25.9255V41.8401H26.5024V41.1881H27.0794V41.8401H27.6564V42.5294H28.2334V43.8333H28.8104V40.5362H28.2334C28.2334 40.5175 28.2334 40.4989 28.2334 40.4989ZM26.486 40.4803H25.909V39.8469H26.486V40.4803Z" fill="#FDD600"/>
<path d="M28.2485 39.166H27.6719V40.4691H28.2485V39.166Z" fill="#FDD600"/>
<path d="M27.0883 41.7871H26.5117V42.4759H27.0883V41.7871Z" fill="#FDD600"/>
<path d="M24.1745 31.2453V30.5938H22.9883V31.9341H23.5979V31.2453H24.1745Z" fill="#FDD600"/>
<path d="M23.6193 32.5918H23.0098V33.2434H23.6193V32.5918Z" fill="#FDD600"/>
<path d="M24.2209 31.9473H23.6113V32.5988H24.2209V31.9473Z" fill="#FDD600"/>
<path d="M18.9028 38.5215H18.3262V39.173H18.9028V38.5215Z" fill="#FDD600"/>
<path d="M18.9001 37.8721V35.8789H18.3231V36.5123H17.7461V38.5055H18.3231V37.8721H18.9001Z" fill="#FDD600"/>
<path d="M15.5921 32.4787C15.4602 32.4787 15.3613 32.3669 15.3613 32.2179V29.4795C15.3613 29.3305 15.4602 29.2188 15.5921 29.2188H18.0155C18.1474 29.2188 18.2463 29.3305 18.2463 29.4795C18.2463 29.6286 18.1474 29.7403 18.0155 29.7403H15.8064V32.2365C15.8064 32.3855 15.7075 32.4973 15.5756 32.4973L15.5921 32.4787Z" fill="#FDD600"/>
<path d="M29.8913 32.4758C29.7594 32.4758 29.6605 32.364 29.6605 32.215V29.7189H27.4515C27.3196 29.7189 27.2207 29.6071 27.2207 29.4581C27.2207 29.309 27.3196 29.1973 27.4515 29.1973H29.8748C30.0067 29.1973 30.1056 29.309 30.1056 29.4581V32.1964C30.1056 32.3454 30.0067 32.4572 29.8748 32.4572L29.8913 32.4758Z" fill="#FDD600"/>
<path d="M18.0584 45.8419H15.6351C15.5032 45.8419 15.4043 45.7302 15.4043 45.5811V42.8428C15.4043 42.6938 15.5032 42.582 15.6351 42.582C15.767 42.582 15.8659 42.6938 15.8659 42.8428V45.339H18.0749C18.2068 45.339 18.3057 45.4507 18.3057 45.5998C18.3057 45.7488 18.2068 45.8606 18.0749 45.8606L18.0584 45.8419Z" fill="#FDD600"/>
<path d="M29.8963 45.8391H27.473C27.3411 45.8391 27.2422 45.7273 27.2422 45.5783C27.2422 45.4293 27.3411 45.3175 27.473 45.3175H29.682V42.8213C29.682 42.6723 29.7809 42.5605 29.9128 42.5605C30.0447 42.5605 30.1436 42.6723 30.1436 42.8213V45.5597C30.1436 45.7087 30.0447 45.8204 29.9128 45.8204L29.8963 45.8391Z" fill="#FDD600"/>
<path d="M74.6853 27.2691C75.7143 27.2691 76.529 27.7052 77.1292 28.5288C77.7295 29.3524 77.9439 30.3699 77.7724 31.5326L77.3865 33.9551C77.215 34.8756 76.872 35.7477 76.2288 36.4744C75.5857 37.2011 74.8997 37.7341 74.085 37.9763C74.8139 38.267 75.3713 38.7515 75.7572 39.5267C76.1431 40.3019 76.2289 41.1739 76.1003 42.1429L75.7144 44.6138C75.5429 45.825 74.9854 46.8424 74.1279 47.7145C73.2704 48.5866 72.3271 48.9742 71.2981 48.9742H57.4062L60.7935 27.2207H74.6425L74.6853 27.2691ZM69.7546 42.2883C69.9261 42.1429 70.0118 41.9491 70.0547 41.7553C70.0976 41.5615 70.0547 41.3677 69.9261 41.2224C69.7975 41.077 69.6688 40.9801 69.4973 40.9801H64.8667L64.6094 42.5305H69.2401C69.4116 42.5305 69.5831 42.4336 69.7546 42.2883ZM70.9122 34.7787C71.0837 34.6334 71.1695 34.4396 71.1695 34.2458C71.1695 34.052 71.1695 33.8582 71.0409 33.7128C70.9122 33.5675 70.7836 33.519 70.6121 33.519H66.0244L65.7671 35.0209H70.3977C70.5692 35.0209 70.7407 34.924 70.9122 34.7787ZM82.8318 27.2207H94.2797C95.1372 27.2207 95.8232 27.5598 96.2949 28.2381C96.7665 28.9164 96.9809 29.74 96.8094 30.709L94.494 45.4859C94.3225 46.4548 93.8938 47.2785 93.2078 47.9568C92.5217 48.635 91.7071 48.9742 90.8496 48.9742H79.4017C78.5442 48.9742 77.8582 48.635 77.3865 47.9568C76.9149 47.2785 76.7005 46.4548 76.872 45.4859L79.1873 30.709C79.3588 29.74 79.7876 28.9164 80.4736 28.2381C81.1596 27.5598 81.9743 27.2207 82.8318 27.2207ZM90.0778 34.1973C90.0778 34.0035 90.0778 33.8097 89.9492 33.6644C89.8206 33.519 89.6919 33.4706 89.5204 33.4706H85.5758C85.4043 33.4706 85.2328 33.519 85.0613 33.6644C84.8898 33.8097 84.8041 34.0035 84.7612 34.1973L83.5606 41.9976C83.5606 42.1914 83.5607 42.3852 83.6893 42.5305C83.8179 42.6758 83.9466 42.7727 84.1181 42.7727H88.0626C88.2341 42.7727 88.4057 42.6758 88.5772 42.5305C88.7487 42.3852 88.8344 42.1914 88.8773 41.9976L90.0778 34.1973ZM109.458 27.2691H113.831L112.845 33.519H108.472L106.071 49.0226H99.8965L102.298 33.519H97.8813L98.8674 27.2691H109.458ZM129.267 27.2691C130.296 27.2691 131.11 27.7052 131.71 28.5288C132.311 29.3524 132.525 30.3699 132.354 31.5326L131.968 33.9551C131.796 34.8756 131.453 35.7477 130.81 36.4744C130.167 37.2011 129.481 37.7341 128.666 37.9763C129.395 38.267 129.953 38.7515 130.338 39.5267C130.724 40.3019 130.81 41.1739 130.681 42.1429L130.296 44.6138C130.124 45.825 129.567 46.8424 128.709 47.7145C127.852 48.5866 126.908 48.9742 125.879 48.9742H111.987L115.375 27.2207H129.224L129.267 27.2691ZM124.293 42.2883C124.464 42.1429 124.55 41.9491 124.593 41.7553C124.636 41.5615 124.593 41.3677 124.464 41.2224C124.336 41.077 124.207 40.9801 124.036 40.9801H119.405L119.148 42.5305H123.778C123.95 42.5305 124.121 42.4336 124.293 42.2883ZM125.451 34.7787C125.622 34.6334 125.708 34.4396 125.708 34.2458C125.708 34.052 125.708 33.8582 125.579 33.7128C125.451 33.5675 125.322 33.519 125.15 33.519H120.563L120.305 35.0209H124.936C125.108 35.0209 125.279 34.924 125.451 34.7787ZM143.416 41.9976L145.688 27.2691H151.862L149.032 45.5343C148.861 46.5033 148.432 47.3269 147.746 48.0052C147.06 48.6835 146.245 49.0226 145.388 49.0226H133.94C133.082 49.0226 132.396 48.6835 131.925 48.0052C131.453 47.3269 131.239 46.5033 131.41 45.5343L134.24 27.2691H140.414L138.099 41.9976C138.099 42.1914 138.099 42.3852 138.228 42.5305C138.356 42.6758 138.485 42.7727 138.656 42.7727H142.601C142.773 42.7727 142.944 42.6758 143.115 42.5305C143.287 42.3852 143.373 42.1914 143.416 41.9976ZM164.039 27.2691H168.412L167.426 33.519H163.053L160.652 49.0226H154.478L156.879 33.519H152.462L153.449 27.2691H164.039ZM173.729 42.7727H182.519L181.575 49.0226H166.612L169.999 27.2691H176.173L173.729 42.7727ZM192.637 27.2691H201.427L200.441 33.519H191.651L191.394 35.0209H196.968L195.982 41.2708H190.408L190.151 42.7727H198.94L197.997 49.0226H183.033L183.676 44.9529L184.019 42.7727L184.277 41.2708L184.534 39.5751L185.477 33.519L186.463 27.2691H192.637ZM216.862 27.2691C217.891 27.2691 218.706 27.7052 219.306 28.5288C219.907 29.3524 220.121 30.3699 219.949 31.5326L219.649 33.5675L219.435 35.0694L219.135 37.1042C218.963 38.1217 218.535 38.9937 217.848 39.7689C217.162 40.5441 216.348 41.0286 215.49 41.2224L217.162 49.0711H210.645L208.973 41.3193H207.001L205.8 49.0711H199.626L203.013 27.3176H216.862V27.2691ZM213.046 34.7787C213.218 34.6334 213.304 34.4396 213.304 34.2458C213.304 34.052 213.304 33.8582 213.175 33.7128C213.046 33.5675 212.918 33.519 212.746 33.519H208.159L207.901 35.0209H212.532C212.703 35.0209 212.875 34.924 213.046 34.7787Z" fill="url(#paint3_linear_89_552)"/>
<defs>
<linearGradient id="paint0_linear_89_552" x1="6.85792" y1="23.7317" x2="7.51041" y2="66.2573" gradientUnits="userSpaceOnUse">
<stop stop-color="#FCD600"/>
<stop offset="1" stop-color="#F2C715"/>
</linearGradient>
<linearGradient id="paint1_linear_89_552" x1="39.2207" y1="23.6729" x2="38.5261" y2="66.2914" gradientUnits="userSpaceOnUse">
<stop stop-color="#FCD600"/>
<stop offset="1" stop-color="#F2C715"/>
</linearGradient>
<linearGradient id="paint2_linear_89_552" x1="23.7082" y1="0.00950635" x2="23.5751" y2="21.7637" gradientUnits="userSpaceOnUse">
<stop stop-color="#FCD600"/>
<stop offset="1" stop-color="#F2C715"/>
</linearGradient>
<linearGradient id="paint3_linear_89_552" x1="138.571" y1="50.2338" x2="138.954" y2="26.0593" gradientUnits="userSpaceOnUse">
<stop stop-color="#F3C814"/>
<stop offset="1" stop-color="#FDD600"/>
</linearGradient>
</defs>
</svg>
