<svg width="200" height="68" viewBox="0 0 200 68" fill="none" xmlns="http://www.w3.org/2000/svg">
<path d="M200 29.9723C198.064 29.9723 196.106 29.9723 194.127 29.9723C194.127 24.4186 194.127 18.9073 194.127 13.3748C194.106 13.3748 194.063 13.3748 194.042 13.3748C193.404 18.8861 192.744 24.3973 192.106 29.9298C190.573 29.9298 189.063 29.9298 187.467 29.9298C186.828 24.3122 186.169 18.6946 185.53 13.0769C185.509 13.0769 185.488 13.0769 185.467 13.0769C185.467 18.6733 185.467 24.2696 185.467 29.9298C183.509 29.9298 181.594 29.9298 179.615 29.9298C179.615 20.1202 179.615 10.3107 179.615 0.458573C182.402 0.458573 185.211 0.458573 188.063 0.458573C188.616 5.5655 189.19 10.6937 189.744 15.8006C189.786 15.8006 189.829 15.8006 189.85 15.8006C189.978 14.6728 190.105 13.5663 190.212 12.4386C190.467 10.0979 190.722 7.7785 190.956 5.43782C191.127 3.90575 191.276 2.39495 191.425 0.86287C191.446 0.607523 191.467 0.416016 191.829 0.416016C194.553 0.437294 197.276 0.437294 200 0.458573C200 10.2894 200 20.1202 200 29.9723Z" fill="black"/>
<path d="M0 0.437332C0.19151 0.416054 0.36174 0.394775 0.55325 0.394775C5.04309 0.394775 9.51165 0.394775 14.0015 0.394775C14.193 0.394775 14.4058 0.394775 14.6186 0.394775C14.6186 2.30987 14.6186 4.16113 14.6186 6.07623C13.2567 6.07623 11.9374 6.07623 10.5543 6.07623C10.5543 14.0558 10.5543 21.9715 10.5543 29.9298C8.40515 29.9298 6.29854 29.9298 4.14938 29.9298C4.14938 22.0141 4.14938 14.0984 4.14938 6.09751C2.72369 6.09751 1.36185 6.09751 0 6.09751C0 4.20369 0 2.33115 0 0.437332Z" fill="black"/>
<path d="M69.2627 14.8644C70.7948 15.6517 71.7098 16.7795 72.0077 18.3754C72.0503 18.5669 72.0716 18.7372 72.0716 18.9287C72.0716 20.7161 72.1141 22.5248 72.0503 24.3122C72.0077 25.8443 71.5609 27.27 70.3905 28.3552C69.4117 29.2702 68.2201 29.7596 66.9434 29.8447C64.7091 29.9724 62.4748 29.9511 60.2192 29.9724C59.1127 29.9937 58.0062 29.9724 56.8572 29.9724C56.8572 20.1203 56.8572 10.3107 56.8572 0.458618C56.9423 0.437339 57.0487 0.416061 57.1551 0.416061C60.1341 0.416061 63.1132 0.39478 66.0922 0.479895C67.5817 0.522453 68.9648 0.948031 70.1139 1.9907C71.2417 3.01208 71.7311 4.33137 71.7949 5.79961C71.8801 7.58703 71.8801 9.39574 71.7949 11.1832C71.7311 12.8004 70.9225 14.0771 69.2627 14.8644ZM63.177 24.6527C63.5813 24.6527 63.9218 24.6527 64.2835 24.6527C65.2198 24.6314 65.7092 24.1845 65.7305 23.2696C65.773 21.8013 65.7517 20.3543 65.7305 18.8861C65.7092 18.0988 65.3262 17.5455 64.7304 17.4817C64.2409 17.4179 63.709 17.4604 63.177 17.4604C63.177 19.8437 63.177 22.2056 63.177 24.6527ZM63.1983 5.75705C63.1983 7.90622 63.1983 9.99155 63.1983 12.0982C63.5813 12.0982 63.943 12.0982 64.2835 12.0982C65.007 12.0769 65.4964 11.6726 65.5177 10.9491C65.5602 9.60853 65.5602 8.24668 65.5177 6.90611C65.4964 6.24647 65.0495 5.79961 64.4537 5.75705C64.0494 5.73577 63.6451 5.75705 63.1983 5.75705Z" fill="black"/>
<path d="M32.7056 29.9512C30.5778 29.9512 28.5137 29.9512 26.3858 29.9512C26.3858 25.8231 26.3858 21.7162 26.3858 17.5669C25.3644 17.5669 24.4069 17.5669 23.3855 17.5669C23.3855 21.6737 23.3855 25.7805 23.3855 29.9299C21.2151 29.9299 19.1085 29.9299 16.9593 29.9299C16.9593 20.1203 16.9593 10.2895 16.9593 0.437378C19.0872 0.437378 21.1725 0.437378 23.3429 0.437378C23.3429 4.24629 23.3429 8.03393 23.3429 11.8428C24.3643 11.8428 25.3432 11.8428 26.3645 11.8428C26.3645 8.03393 26.3645 4.24629 26.3645 0.437378C28.4924 0.437378 30.5778 0.437378 32.7056 0.437378C32.7056 10.2682 32.7056 20.0778 32.7056 29.9512Z" fill="black"/>
<path d="M132.823 18.0776C132.823 22.078 132.823 25.9933 132.823 29.9512C130.716 29.9512 128.631 29.9512 126.503 29.9512C126.503 20.1416 126.503 10.3108 126.503 0.458679C126.609 0.437401 126.716 0.416122 126.822 0.416122C129.865 0.416122 132.908 0.373562 135.929 0.479956C137.951 0.543793 139.76 1.20344 140.887 3.0547C141.462 3.99097 141.717 5.03363 141.738 6.11885C141.76 7.86372 141.802 9.60859 141.738 11.3322C141.675 13.077 140.887 14.4389 139.164 15.2475C140.292 15.8007 141.079 16.5881 141.398 17.7584C141.547 18.3329 141.675 18.95 141.675 19.5458C141.717 21.929 141.675 24.3123 141.717 26.6955C141.738 27.7807 141.887 28.8447 141.994 29.9725C140.547 29.9725 139.015 29.9725 137.483 29.9725C137.078 29.9725 136.653 29.9299 136.27 29.9725C135.823 30.015 135.653 29.8022 135.61 29.4405C135.504 28.5681 135.376 27.6743 135.355 26.8019C135.312 24.5889 135.355 22.3546 135.334 20.1416C135.334 19.8437 135.312 19.5458 135.27 19.2479C135.163 18.4606 134.738 18.0776 133.929 18.0563C133.589 18.0563 133.227 18.0776 132.823 18.0776ZM132.823 12.5451C133.227 12.5451 133.567 12.5451 133.908 12.5451C134.844 12.5451 135.312 12.1408 135.355 11.1832C135.397 9.86394 135.376 8.56592 135.355 7.24663C135.334 6.50187 134.951 5.94863 134.355 5.88479C133.844 5.82095 133.333 5.86351 132.823 5.86351C132.823 8.11907 132.823 10.2895 132.823 12.5451Z" fill="black"/>
<path d="M177.061 15.1836C177.061 17.9286 177.061 20.6522 177.061 23.3972C177.061 27.0997 174.657 29.7596 170.954 30.2065C169.507 30.3767 168.082 30.3554 166.656 29.9511C163.613 29.0999 161.741 26.7167 161.741 23.5674C161.719 17.9711 161.719 12.396 161.741 6.82099C161.762 3.39509 164.039 0.79907 167.465 0.245819C169.38 -0.0520845 171.273 -0.00952686 173.082 0.777791C175.678 1.90557 176.976 3.92706 177.04 6.71459C177.125 9.5234 177.061 12.3535 177.061 15.1836ZM170.656 15.2049C170.656 12.5663 170.656 9.90642 170.656 7.26784C170.656 7.03377 170.656 6.77843 170.635 6.54436C170.529 5.86344 170.082 5.43786 169.465 5.41658C168.805 5.3953 168.316 5.82088 168.188 6.5018C168.146 6.71459 168.145 6.94866 168.145 7.16145C168.145 12.5024 168.145 17.8647 168.145 23.2057C168.145 23.4185 168.145 23.61 168.167 23.8228C168.273 24.5037 168.763 24.9506 169.401 24.9506C170.061 24.9506 170.507 24.525 170.614 23.8228C170.656 23.5674 170.635 23.3121 170.635 23.0568C170.656 20.4182 170.656 17.8222 170.656 15.2049Z" fill="black"/>
<path d="M107.331 15.2049C107.331 17.9286 107.331 20.6523 107.331 23.3547C107.331 27.0998 104.947 29.7383 101.202 30.1852C99.3297 30.4193 97.4997 30.3129 95.7761 29.5043C93.5419 28.4616 92.3077 26.6955 92.0949 24.2484C92.0311 23.61 92.0098 22.9504 92.0098 22.312C92.0098 17.2902 91.9885 12.2897 92.0311 7.26787C92.0311 6.41672 92.1374 5.52301 92.3715 4.69313C92.8822 2.84187 94.1164 1.5013 95.8825 0.799098C98.5637 -0.286124 101.266 -0.307401 103.883 0.990609C106.118 2.09711 107.245 4.03349 107.309 6.48056C107.394 9.39576 107.331 12.311 107.331 15.2049ZM100.904 15.1836C100.904 12.6727 100.904 10.1618 100.904 7.62961C100.904 7.26787 100.926 6.88485 100.883 6.52311C100.798 5.88475 100.372 5.48045 99.8191 5.43789C99.202 5.37405 98.7126 5.69323 98.5211 6.3316C98.436 6.56567 98.4147 6.84229 98.4147 7.09764C98.4147 12.5025 98.4147 17.9073 98.4147 23.3121C98.4147 24.3974 98.8828 24.9719 99.7127 24.9719C100.521 24.9506 100.904 24.4186 100.904 23.3121C100.904 20.5884 100.904 17.886 100.904 15.1836Z" fill="black"/>
<path d="M159.4 15.2262C159.4 17.9286 159.4 20.6311 159.4 23.3335C159.4 27.1424 157.059 29.7384 153.272 30.2065C151.122 30.4619 149.058 30.2917 147.165 29.1639C145.356 28.0787 144.356 26.4189 144.164 24.3123C144.1 23.6739 144.079 23.0143 144.079 22.3759C144.079 17.3115 144.079 12.2472 144.079 7.16154C144.079 5.90608 144.271 4.69319 144.888 3.58669C145.675 2.161 146.845 1.18218 148.377 0.650204C150.931 -0.222229 153.463 -0.222228 155.91 0.990667C158.166 2.09717 159.315 4.03354 159.379 6.50189C159.442 9.41709 159.379 12.311 159.4 15.2262C159.379 15.2262 159.379 15.2262 159.4 15.2262ZM152.974 15.1624C152.974 12.5025 152.974 9.84267 152.974 7.16154C152.974 6.92747 152.974 6.67212 152.931 6.43805C152.825 5.84225 152.399 5.45923 151.846 5.41667C151.229 5.37411 150.782 5.67202 150.59 6.26782C150.505 6.58701 150.463 6.92747 150.463 7.24665C150.463 12.5238 150.463 17.801 150.463 23.0568C150.463 23.2909 150.463 23.5463 150.505 23.7803C150.612 24.5038 151.122 24.9294 151.782 24.9081C152.442 24.8868 152.889 24.4187 152.952 23.6739C152.974 23.4611 152.974 23.2696 152.974 23.0568C152.974 20.4608 152.974 17.801 152.974 15.1624Z" fill="black"/>
<path d="M74.3696 15.1623C74.3696 12.3747 74.3696 9.56594 74.3696 6.77841C74.3696 3.75681 76.0719 1.39486 78.9871 0.522423C81.5619 -0.243616 84.1153 -0.179779 86.4986 1.16079C88.5413 2.30985 89.584 4.13983 89.6266 6.43794C89.6904 12.2684 89.6691 18.0988 89.6479 23.9079C89.6266 26.589 87.8817 28.9084 85.2006 29.8021C83.1152 30.4831 81.0086 30.5043 78.9233 29.8234C76.0719 28.9084 74.3909 26.5677 74.3696 23.5674C74.3696 20.7799 74.3696 17.9711 74.3696 15.1623ZM80.732 15.1623C80.732 17.7157 80.732 20.2692 80.732 22.8227C80.732 23.1206 80.732 23.4185 80.7533 23.7164C80.8384 24.4611 81.3278 24.9506 82.0087 24.9506C82.6897 24.9506 83.094 24.5463 83.2216 23.7589C83.2429 23.5461 83.2855 23.3121 83.2855 23.0993C83.2855 17.8434 83.2855 12.5875 83.2855 7.33166C83.2855 6.9912 83.2429 6.67201 83.1791 6.35283C83.0514 5.7783 82.6046 5.45912 82.0726 5.43784C81.498 5.41656 81.0512 5.69319 80.9022 6.26772C80.7958 6.65073 80.7533 7.07631 80.7533 7.45933C80.7107 10.0128 80.732 12.5875 80.732 15.1623Z" fill="black"/>
<path d="M46.5582 17.5456C44.9197 17.5456 43.3451 17.5456 41.7066 17.5456C41.7066 19.8011 41.7066 22.0354 41.7066 24.3123C43.5578 24.3123 45.3878 24.3123 47.2391 24.3123C47.2391 26.2061 47.2391 28.0573 47.2391 29.9512C43.3025 29.9512 39.3872 29.9512 35.4293 29.9512C35.4293 20.1203 35.4293 10.3108 35.4293 0.437378C39.3659 0.437378 43.2812 0.437378 47.2391 0.437378C47.2391 2.30992 47.2391 4.16118 47.2391 6.07628C45.4091 6.07628 43.5791 6.07628 41.7066 6.07628C41.7066 8.01265 41.7066 9.90647 41.7066 11.8641C43.3025 11.8641 44.8984 11.8641 46.5369 11.8641C46.5582 13.7579 46.5582 15.6092 46.5582 17.5456Z" fill="black"/>
<path d="M120.077 29.9512C117.906 29.9512 115.821 29.9512 113.693 29.9512C113.693 22.0141 113.693 14.0984 113.693 6.09756C112.31 6.09756 110.969 6.09756 109.586 6.09756C109.586 4.18246 109.586 2.30992 109.586 0.437378C114.416 0.437378 119.247 0.437378 124.12 0.437378C124.12 2.30992 124.12 4.16118 124.12 6.07628C122.779 6.07628 121.46 6.07628 120.077 6.07628C120.077 14.0558 120.077 21.9716 120.077 29.9512Z" fill="black"/>
<path d="M148.024 51.0242C148.024 56.195 148.024 61.387 148.024 66.6004C146.13 66.6004 144.236 66.6004 142.321 66.6004C142.321 56.7695 142.321 46.9387 142.321 37.0653C143.045 37.0653 143.747 37.0653 144.449 37.0653C145.641 37.0653 146.832 37.0866 148.003 37.0653C148.364 37.0653 148.513 37.1717 148.598 37.5334C149.556 41.7254 150.535 45.9173 151.492 50.088C151.535 50.3008 151.599 50.5135 151.641 50.7263C151.662 50.7263 151.684 50.7263 151.705 50.7263C151.705 46.1939 151.705 41.6828 151.705 37.1079C153.641 37.1079 155.514 37.1079 157.45 37.1079C157.45 46.9387 157.45 56.7483 157.45 66.6004C155.642 66.6004 153.833 66.6004 152.003 66.6004C150.705 61.4083 149.386 56.2163 148.088 51.003C148.066 51.003 148.045 51.0242 148.024 51.0242Z" fill="black"/>
<path d="M139.81 51.8327C139.81 54.5777 139.831 57.3014 139.81 60.0464C139.789 61.7274 139.363 63.302 138.214 64.6001C137.15 65.8129 135.767 66.4939 134.193 66.7705C132.022 67.1748 129.915 67.0684 127.915 66.0257C125.638 64.8341 124.511 62.8765 124.489 60.3443C124.447 54.7479 124.468 49.1303 124.468 43.534C124.468 40.0655 126.766 37.4057 130.213 36.8737C131.745 36.6396 133.278 36.6396 134.767 37.0652C137.959 37.9802 139.746 40.2996 139.768 43.6191C139.81 46.3641 139.81 49.0878 139.81 51.8327ZM133.384 51.854C133.384 49.1942 133.384 46.5343 133.384 43.8744C133.384 43.5553 133.341 43.2148 133.256 42.8956C133.107 42.4062 132.767 42.1296 132.235 42.087C131.703 42.0445 131.256 42.2572 131.065 42.7467C130.916 43.1084 130.83 43.534 130.83 43.917C130.809 49.1942 130.809 54.45 130.83 59.7272C130.83 60.1102 130.916 60.4932 131.022 60.855C131.213 61.3869 131.66 61.621 132.192 61.5997C132.724 61.5785 133.107 61.2806 133.235 60.7699C133.32 60.4507 133.363 60.1102 133.363 59.791C133.384 57.1525 133.384 54.5139 133.384 51.854Z" fill="black"/>
<path d="M36.7353 51.8328C36.7353 54.7267 36.7566 57.5994 36.7353 60.4933C36.6928 63.7489 34.5223 65.9832 31.671 66.6854C29.8623 67.1323 28.0323 67.1323 26.2449 66.6003C23.202 65.7066 21.4997 63.4085 21.4784 60.0464C21.4358 54.599 21.4784 49.1304 21.4784 43.683C21.4784 39.1719 24.7128 37.0014 28.3302 36.7886C29.6069 36.7248 30.8411 36.7886 32.054 37.1504C35.0969 38.0654 36.7566 40.406 36.7779 43.7894C36.7992 46.4705 36.7779 49.1516 36.7779 51.8328C36.7566 51.8328 36.7353 51.8328 36.7353 51.8328ZM30.3517 51.8541C30.3517 49.2155 30.3517 46.5556 30.3517 43.917C30.3517 43.6191 30.3304 43.3212 30.2666 43.0446C30.1389 42.4701 29.7133 42.1296 29.1813 42.1083C28.6281 42.0871 28.1599 42.3637 27.9684 42.8957C27.8833 43.1723 27.8195 43.4702 27.8195 43.7681C27.8195 49.1729 27.8195 54.5778 27.8195 59.9826C27.8195 60.2592 27.862 60.5358 27.9472 60.7912C28.1174 61.3232 28.5855 61.6636 29.1175 61.6423C29.6708 61.6423 30.1389 61.2593 30.2666 60.6848C30.3304 60.4082 30.3517 60.089 30.3517 59.8124C30.3517 57.1312 30.3517 54.4926 30.3517 51.8541Z" fill="black"/>
<path d="M19.0527 55.131C19.0527 57.2163 19.2016 59.2591 19.0101 61.2806C18.7335 64.3235 16.6056 66.3662 13.5415 66.8344C11.7966 67.0897 10.073 67.0259 8.39197 66.4088C5.77467 65.43 4.15748 63.1531 4.1362 60.3656C4.11492 54.6841 4.11492 49.0027 4.1362 43.3212C4.15748 40.0017 6.51943 37.3844 9.88149 36.8737C11.4987 36.6397 13.0946 36.6397 14.6692 37.1504C17.3078 38.0015 18.9037 40.023 19.074 42.9169C19.1804 44.6618 19.0952 46.4279 19.0952 48.2366C17.0312 48.2366 14.9884 48.2366 12.8818 48.2366C12.8818 46.9812 12.8818 45.7257 12.8818 44.4703C12.8818 43.9809 12.8605 43.4702 12.7754 42.9808C12.669 42.4062 12.286 42.0871 11.7328 42.0871C11.1795 42.0871 10.7752 42.3424 10.6263 42.8957C10.5199 43.2787 10.4773 43.7043 10.4773 44.1086C10.4773 49.2793 10.4773 54.4288 10.4773 59.5996C10.4773 60.0039 10.5199 60.4082 10.6263 60.8125C10.7752 61.3657 11.2221 61.6636 11.7328 61.6423C12.2647 61.621 12.6477 61.3019 12.7754 60.7273C12.8393 60.4082 12.8818 60.0677 12.8818 59.7485C12.9031 58.2377 12.8818 56.7269 12.8818 55.1523C14.9884 55.131 17.0312 55.131 19.0527 55.131Z" fill="black"/>
<path d="M96.4226 48.2792C95.997 48.2792 95.5927 48.2792 95.1884 48.2792C93.7202 48.2792 92.2519 48.2579 90.805 48.2792C90.3794 48.2792 90.2305 48.1728 90.2305 47.7259C90.2517 46.3003 90.2304 44.8746 90.2092 43.4489C90.2092 43.2148 90.1453 42.9595 90.0815 42.7467C89.9113 42.2998 89.5708 42.0658 89.1027 42.0658C88.6345 42.0658 88.2515 42.236 88.0813 42.6829C87.9536 43.0233 87.8898 43.4063 87.8685 43.7468C87.8472 49.1304 87.8685 54.5139 87.8685 59.8975C87.8685 60.1954 87.9111 60.4933 87.9962 60.7699C88.1238 61.3019 88.5494 61.5785 89.0601 61.5785C89.5921 61.5785 89.9964 61.3231 90.1241 60.7699C90.2092 60.3656 90.2517 59.94 90.2517 59.5144C90.273 58.0462 90.2517 56.5992 90.2517 55.0884C92.3371 55.0884 94.3586 55.0884 96.4226 55.0884C96.4439 55.1948 96.4864 55.3012 96.4864 55.4289C96.4864 57.1738 96.5077 58.8974 96.4439 60.6422C96.3162 63.9404 94.1245 66.3237 90.8475 66.7918C89.4431 66.9833 88.0387 66.9833 86.6556 66.6216C83.3361 65.7491 81.5487 63.451 81.5274 59.9613C81.4848 54.4926 81.5274 49.0452 81.5274 43.5766C81.5274 39.0867 84.7831 36.8737 88.3792 36.6822C89.741 36.6184 91.0816 36.6822 92.3583 37.1716C95.1459 38.2356 96.4013 40.3847 96.4651 43.2787C96.5077 44.8107 96.4651 46.3428 96.4651 47.8962C96.4864 48.0451 96.4439 48.1515 96.4226 48.2792Z" fill="black"/>
<path d="M73.5691 54.1735C73.5691 56.4716 73.5691 58.6846 73.5691 60.9614C75.4416 60.9614 77.2929 60.9614 79.1655 60.9614C79.1655 62.8552 79.1655 64.7065 79.1655 66.579C75.2076 66.579 71.271 66.579 67.2706 66.579C67.2706 56.7695 67.2706 46.9387 67.2706 37.0865C71.2284 37.0865 75.165 37.0865 79.1442 37.0865C79.1442 38.9378 79.1442 40.7891 79.1442 42.7042C77.2929 42.7042 75.4629 42.7042 73.5691 42.7042C73.5691 44.6618 73.5691 46.5556 73.5691 48.492C75.1863 48.492 76.7822 48.492 78.4207 48.492C78.4207 50.4071 78.4207 52.2584 78.4207 54.1522C76.8035 54.1735 75.2076 54.1735 73.5691 54.1735Z" fill="black"/>
<path d="M109.169 66.6003C106.998 66.6003 104.913 66.6003 102.764 66.6003C102.764 58.642 102.764 50.7263 102.764 42.7467C101.381 42.7467 100.04 42.7467 98.6781 42.7467C98.6781 40.8316 98.6781 38.9804 98.6781 37.0865C103.53 37.0865 108.36 37.0865 113.212 37.0865C113.212 38.9591 113.212 40.8104 113.212 42.7042C111.871 42.7042 110.552 42.7042 109.169 42.7042C109.169 50.6837 109.169 58.6208 109.169 66.6003Z" fill="black"/>
<path d="M45.5023 37.1078C45.5023 45.0661 45.5023 52.9818 45.5023 60.9614C47.311 60.9614 49.0985 60.9614 50.9284 60.9614C50.9284 62.8552 50.9284 64.7065 50.9284 66.6003C47.077 66.6003 43.2255 66.6003 39.3102 66.6003C39.3102 56.7907 39.3102 46.9812 39.3102 37.1078C41.353 37.1078 43.3957 37.1078 45.5023 37.1078Z" fill="black"/>
<path d="M53.3116 37.0865C55.3756 37.0865 57.4397 37.0865 59.525 37.0865C59.525 45.0448 59.525 52.9606 59.525 60.9402C61.3337 60.9402 63.1211 60.9402 64.9298 60.9402C64.9298 62.834 64.9298 64.6852 64.9298 66.579C61.0784 66.579 57.2056 66.579 53.3116 66.579C53.3116 56.7908 53.3116 46.9812 53.3116 37.0865Z" fill="black"/>
<path d="M121.978 66.6216C119.829 66.6216 117.744 66.6216 115.595 66.6216C115.595 56.7907 115.595 46.9812 115.595 37.1078C117.701 37.1078 119.808 37.1078 121.978 37.1078C121.978 46.9386 121.978 56.7482 121.978 66.6216Z" fill="black"/>
<path d="M173.09 61.3231C173.09 64.7915 170.367 67.4727 166.856 67.494C163.345 67.494 160.536 64.749 160.536 61.3231C160.536 57.961 163.387 55.2161 166.856 55.2161C170.367 55.2373 173.09 57.9185 173.09 61.3231ZM162.174 61.3018C162.174 64.0468 164.196 66.1321 166.877 66.1534C169.43 66.1747 171.516 63.983 171.494 61.3444C171.473 58.6207 169.452 56.5353 166.877 56.5353C164.238 56.5141 162.196 58.5994 162.174 61.3018Z" fill="black"/>
<path d="M168.324 61.4721C169.622 62.1105 169.324 63.4724 169.856 64.515C169.367 64.515 168.941 64.5363 168.515 64.4937C168.366 64.4725 168.196 64.3235 168.132 64.1958C168.005 63.8767 167.941 63.5149 167.856 63.1957C167.6 62.2595 167.345 62.068 166.366 62.068C166.239 62.068 166.111 62.0892 165.919 62.0892C165.919 62.8765 165.919 63.6639 165.919 64.4725C165.409 64.4725 164.983 64.4725 164.494 64.4725C164.494 62.4723 164.494 60.4508 164.494 58.408C165.728 58.1952 166.983 58.0675 168.217 58.3654C169.047 58.5569 169.452 59.0251 169.537 59.7486C169.601 60.5572 169.324 60.9827 168.324 61.4721ZM165.983 61.1104C166.515 61.0253 166.983 61.0466 167.388 60.8763C167.643 60.7699 167.92 60.4082 167.92 60.1529C167.92 59.8975 167.643 59.5145 167.388 59.4294C166.962 59.2804 166.473 59.3017 165.983 59.2591C165.983 59.9188 165.983 60.4508 165.983 61.1104Z" fill="black"/>
</svg>
