<svg width="110" height="110" viewBox="0 0 110 110" fill="none" xmlns="http://www.w3.org/2000/svg">
<path d="M54.4535 13.2034L54.0696 84.606" stroke="url(#paint0_linear_89_626)" stroke-width="5.5"/>
<path d="M14.0493 69.3799V68.9628C15.2409 68.9628 16.1049 68.6041 16.6434 67.8857C17.1843 67.165 17.5234 65.9882 17.6609 64.3565C17.8007 62.7226 17.8718 60.5478 17.8718 57.8344V39.3911C17.8718 36.6503 17.8007 34.4709 17.6609 32.8507C17.5234 31.2316 17.1843 30.0629 16.6434 29.3444C16.1049 28.6237 15.2409 28.2628 14.0493 28.2628V27.8457H19.0313C20.5553 27.8457 21.9475 27.7769 23.2068 27.6394C24.4649 27.4997 25.7379 27.3599 27.0247 27.2224C28.3137 27.0849 29.7621 27.0161 31.3697 27.0161C34.3305 27.0161 36.8353 27.5226 38.8863 28.5332C40.9362 29.5415 42.4934 30.9188 43.5568 32.6628C44.6224 34.4079 45.1563 36.4154 45.1563 38.6853C45.1563 40.5679 44.6636 42.3405 43.6805 44.0019C42.6997 45.6646 41.3224 47.0017 39.5509 48.0124C37.7783 49.0207 35.6883 49.5249 33.2809 49.5249C32.3093 49.5249 31.4075 49.3942 30.5768 49.1307C29.7483 48.8683 28.9955 48.5578 28.3172 48.2003C27.6388 47.8405 27.0212 47.5288 26.4655 47.2653C25.9121 46.9994 25.4136 46.8665 24.9713 46.8665C24.7238 46.8665 24.4603 46.9296 24.183 47.0544C23.9046 47.1805 23.7659 47.4784 23.7659 47.9482C23.7659 48.4741 24.0696 48.9451 24.678 49.3599C25.2887 49.7758 26.0782 50.1917 27.0476 50.6065C28.0158 51.0225 29.0528 51.4797 30.1597 51.9769C31.2688 52.4754 32.3345 53.085 33.3588 53.8057C34.3855 54.5241 35.23 55.4099 35.8934 56.464C36.7242 57.7382 37.5824 59.1029 38.4693 60.5569C39.355 62.0087 40.29 63.3711 41.2743 64.6453C42.2574 65.9194 43.2886 66.9587 44.368 67.7619C45.4497 68.5629 46.5841 68.9628 47.7734 68.9628V69.3799H41.4209C40.95 69.3799 40.4859 69.1862 40.0276 68.7978C39.5716 68.4105 39.0112 67.7528 38.3455 66.8269C37.6821 65.8988 36.8307 64.6315 35.7926 63.0274C34.7533 61.4209 33.4161 59.3836 31.7822 56.9178C30.7853 55.3961 29.7896 54.193 28.7938 53.3061C27.797 52.4204 26.8895 51.7088 26.0713 51.1703C25.2555 50.6294 24.5978 50.1161 24.1005 49.6303C23.6021 49.1444 23.3534 48.5566 23.3534 47.8657C23.3534 47.3684 23.5047 47.0086 23.8072 46.7886C24.112 46.5663 24.4454 46.454 24.8063 46.454C25.4136 46.454 26.0083 46.5721 26.5893 46.8069C27.1725 47.043 27.7763 47.3191 28.3997 47.6365C29.023 47.9551 29.7071 48.2312 30.453 48.4661C31.2012 48.7022 32.0595 48.819 33.0288 48.819C34.3305 48.819 35.5061 48.5291 36.558 47.9482C37.6122 47.3684 38.5117 46.5996 39.2576 45.6428C40.0058 44.6872 40.5799 43.6066 40.9809 42.4024C41.3843 41.1992 41.5859 39.9732 41.5859 38.7265C41.5859 36.4291 41.0726 34.4503 40.0459 32.7911C39.0216 31.1297 37.5686 29.8486 35.6872 28.9503C33.8046 28.0497 31.5759 27.5982 29.0001 27.5982C27.4784 27.5982 26.1493 27.7025 25.0126 27.9099C23.8782 28.1184 22.6751 28.4576 21.4009 28.9274V57.8344C21.4009 60.5478 21.4697 62.7226 21.6072 64.3565C21.7447 65.9882 22.0838 67.165 22.6247 67.8857C23.1655 68.6041 24.0318 68.9628 25.2234 68.9628V69.3799H14.0493Z" fill="#952E31"/>
<path d="M63.6856 37.8144C63.6856 35.878 64.2597 34.0916 65.4089 32.4565C66.5571 30.8226 68.2392 29.5072 70.4552 28.5103C72.6701 27.5146 75.3697 27.0161 78.5539 27.0161C81.1023 27.0161 83.3092 27.1972 85.1769 27.5569C87.0469 27.9144 88.7851 28.3716 90.3927 28.9274V34.4915H89.9756C89.9756 34.4915 89.8633 34.2566 89.641 33.7857C89.421 33.3159 89.0475 32.735 88.5227 32.044C87.9968 31.3508 87.2967 30.6587 86.4235 29.9678C85.5527 29.2746 84.4664 28.6925 83.1648 28.2215C81.8631 27.7517 80.3254 27.5157 78.5539 27.5157C75.9781 27.5157 73.7964 27.9729 72.0089 28.8861C70.2237 29.8005 68.8751 30.9624 67.9619 32.374C67.0475 33.7857 66.5914 35.2661 66.5914 36.8153C66.5914 38.2304 66.9581 39.4358 67.6914 40.4315C68.4248 41.4284 69.4205 42.2866 70.6798 43.0074C71.9413 43.7258 73.3473 44.3629 74.8964 44.9186C76.4479 45.472 78.0544 46.0255 79.7135 46.5778C81.375 47.1312 82.9814 47.7328 84.5306 48.3836C86.0821 49.0344 87.488 49.817 88.7473 50.7303C90.0088 51.6447 91.0069 52.7458 91.7402 54.0349C92.4735 55.3216 92.8402 56.8788 92.8402 58.7053C92.8402 60.1444 92.4793 61.5504 91.7585 62.9219C91.0401 64.2912 90.0031 65.523 88.6464 66.6161C87.2898 67.7104 85.6547 68.5824 83.7423 69.2332C81.8322 69.884 79.6734 70.2094 77.266 70.2094C75.4384 70.2094 73.6933 69.9459 72.0319 69.4211C70.3693 68.8963 68.8464 68.2386 67.4623 67.4503C66.0781 66.6597 64.8738 65.8908 63.8506 65.1449V59.5761H64.2677C64.2677 59.5761 64.4808 59.9095 64.9094 60.5753C65.3402 61.2387 65.9773 62.0626 66.8206 63.0457C67.6639 64.03 68.7009 65.0142 69.9327 65.9974C71.1668 66.9782 72.5933 67.802 74.2135 68.4678C75.8326 69.1312 77.6247 69.4624 79.5898 69.4624C81.1137 69.4624 82.5334 69.2137 83.8477 68.7153C85.1643 68.218 86.3135 67.5397 87.2944 66.6803C88.2775 65.822 89.0463 64.8538 89.5998 63.7744C90.1555 62.6928 90.4339 61.5722 90.4339 60.4103C90.4339 58.8588 90.0593 57.5216 89.311 56.3999C88.5617 55.2792 87.551 54.3179 86.2769 53.5169C85.005 52.7137 83.5727 51.9941 81.9777 51.3582C80.385 50.72 78.7442 50.1104 77.0552 49.5294C75.3685 48.9462 73.7288 48.3229 72.1373 47.6594C70.5446 46.9937 69.1123 46.2249 67.8381 45.354C66.5639 44.4809 65.5522 43.4279 64.8039 42.1961C64.058 40.9655 63.6856 39.5045 63.6856 37.8144Z" fill="#696A6C"/>
<mask id="mask0_89_626" style="mask-type:luminance" maskUnits="userSpaceOnUse" x="1" y="42" width="103" height="13">
<path d="M1.74054 42.9H103.921V54.8007H1.74054V42.9Z" fill="white"/>
</mask>
<g mask="url(#mask0_89_626)">
<path d="M1.74054 42.9H103.918V54.8007H1.74054V42.9Z" fill="white"/>
</g>
<path d="M17.3032 50.9722H16.8403V50.821C17.0477 50.766 17.2046 50.7156 17.3124 50.6697C17.4189 50.6216 17.4888 50.5552 17.5232 50.4727C17.5599 50.3879 17.5782 50.2687 17.5782 50.1152V47.411C17.5782 47.2895 17.5621 47.1933 17.5324 47.1222C17.5014 47.0489 17.4338 46.9893 17.3307 46.9435C17.2299 46.8977 17.0706 46.8472 16.854 46.7922V46.641H17.3032C17.5965 46.641 17.7982 46.7212 17.9082 46.8793C17.9907 46.8003 18.1213 46.7407 18.3024 46.7006C18.4822 46.6616 18.7149 46.641 18.999 46.641C19.3073 46.641 19.588 46.6777 19.8424 46.751C20.099 46.822 20.3053 46.9366 20.4611 47.0947C20.6169 47.254 20.6949 47.4683 20.6949 47.7364C20.6949 47.9232 20.6456 48.0836 20.5482 48.2177C20.4531 48.3529 20.3259 48.464 20.1678 48.5522C20.0085 48.6416 19.8332 48.7081 19.6407 48.7539C19.4482 48.7974 19.2568 48.8227 19.0678 48.8318V48.841C19.2752 48.8868 19.4585 48.9682 19.6178 49.0839C19.7793 49.2008 19.9294 49.3383 20.0669 49.4964C20.2044 49.6557 20.3396 49.8195 20.4749 49.9868C20.6089 50.1518 20.7544 50.3099 20.9103 50.4589C21.0684 50.6056 21.2494 50.727 21.4511 50.821V50.9722H21.3869C21.2643 50.9722 21.144 50.9528 21.0249 50.9127C20.9057 50.8703 20.8026 50.8107 20.7178 50.7339C20.7178 50.829 20.6857 50.8932 20.6215 50.9264C20.5596 50.9573 20.4771 50.9722 20.374 50.9722H20.264C20.2239 50.8531 20.1517 50.7064 20.0486 50.5322C19.9478 50.3558 19.8252 50.1724 19.6819 49.9822C19.5376 49.7897 19.384 49.611 19.219 49.446C19.0563 49.281 18.8913 49.1469 18.724 49.0427C18.5556 48.9395 18.3963 48.8868 18.2474 48.8868H18.2336V50.1152C18.2336 50.2618 18.2485 50.3787 18.2794 50.4635C18.3092 50.546 18.3768 50.6124 18.4811 50.6606C18.5842 50.7098 18.7481 50.7637 18.9715 50.821V50.9722H18.5178C18.221 50.9722 18.0182 50.8932 17.9082 50.7339C17.7982 50.8932 17.5965 50.9722 17.3032 50.9722ZM18.2336 47.4477V48.6393H18.7561C19.1319 48.6393 19.423 48.5774 19.6315 48.4514C19.8424 48.3231 19.9478 48.1248 19.9478 47.8556C19.9478 47.5657 19.8572 47.3273 19.6774 47.1406C19.4997 46.9549 19.2282 46.861 18.8615 46.861C18.6599 46.861 18.5143 46.8862 18.4261 46.9343C18.3367 46.9802 18.2817 47.0478 18.2611 47.136C18.2428 47.2219 18.2336 47.3262 18.2336 47.4477Z" fill="#696A6C"/>
<path d="M24.4355 47.654C24.3255 47.654 24.2304 47.6162 24.1513 47.5395C24.0746 47.4638 24.0367 47.3722 24.0367 47.2645C24.0367 47.1579 24.0746 47.0662 24.1513 46.9895C24.2304 46.9138 24.3255 46.8749 24.4355 46.8749C24.5455 46.8749 24.6395 46.9138 24.7197 46.9895C24.7987 47.0662 24.8388 47.1579 24.8388 47.2645C24.8388 47.3722 24.7987 47.4638 24.7197 47.5395C24.6395 47.6162 24.5455 47.654 24.4355 47.654ZM23.8626 50.9724H23.6884V50.8211C23.8465 50.7753 23.9646 50.7146 24.0413 50.6378C24.1204 50.5587 24.1605 50.4178 24.1605 50.2161V48.9511C24.1605 48.7495 24.1204 48.6108 24.0413 48.534C23.9646 48.455 23.8465 48.3943 23.6884 48.3507V48.1995H23.8626C24.1376 48.1995 24.3266 48.2797 24.4309 48.4378C24.5317 48.2797 24.7197 48.1995 24.9947 48.1995H25.178V48.3507C25.0245 48.3943 24.9087 48.4515 24.8297 48.5249C24.7495 48.5982 24.7105 48.7403 24.7105 48.9511V50.2161C24.7105 50.4304 24.7495 50.5736 24.8297 50.647C24.9087 50.718 25.0245 50.7753 25.178 50.8211V50.9724H24.9947C24.7197 50.9724 24.5317 50.8933 24.4309 50.734C24.3266 50.8933 24.1376 50.9724 23.8626 50.9724Z" fill="#696A6C"/>
<path d="M27.7335 51.0865H27.5823V51.0223C27.5823 50.9009 27.6029 50.8069 27.6464 50.7427C27.6923 50.6763 27.7496 50.6373 27.8206 50.6282C27.7312 50.5457 27.6694 50.4529 27.6327 50.3486C27.5983 50.242 27.5823 50.0999 27.5823 49.9223V49.7711H27.7335C27.9008 50.053 28.0509 50.2661 28.1827 50.4127C28.3168 50.5594 28.4508 50.6625 28.586 50.7198C28.7235 50.7748 28.8759 50.8023 29.0444 50.8023C29.3102 50.8023 29.505 50.729 29.631 50.5823C29.7594 50.4334 29.8235 50.2649 29.8235 50.0782C29.8235 49.9533 29.7914 49.8249 29.7273 49.6932C29.6654 49.5591 29.5737 49.4411 29.4523 49.3402C29.2472 49.1638 29.0329 48.9965 28.8106 48.8407C28.5872 48.6848 28.3947 48.5405 28.2331 48.4052C28.0681 48.2677 27.9535 48.1429 27.8894 48.0294C27.8275 47.9137 27.7977 47.7796 27.7977 47.6261C27.7977 47.4061 27.8527 47.217 27.9627 47.0577C28.0727 46.8962 28.2251 46.7724 28.421 46.6865C28.6193 46.6017 28.845 46.5582 29.0994 46.5582C29.2827 46.5582 29.4443 46.565 29.5852 46.5765C29.725 46.5857 29.8384 46.6017 29.9244 46.6223C30.0401 46.6475 30.118 46.6521 30.1581 46.6361C30.2005 46.6177 30.2418 46.5765 30.2819 46.5123H30.4377V46.5857C30.4377 46.6865 30.4171 46.7736 30.3781 46.8469C30.338 46.9202 30.2773 46.9615 30.1948 46.9707C30.3013 47.06 30.3689 47.1574 30.3964 47.264C30.4239 47.3717 30.4377 47.484 30.4377 47.6032V47.8369H30.2819C30.1925 47.5505 30.0756 47.335 29.9289 47.1907C29.7846 47.044 29.6356 46.9455 29.4798 46.8927C29.3262 46.8377 29.1887 46.8102 29.0673 46.8102C28.8988 46.8102 28.7625 46.8458 28.6594 46.9157C28.5585 46.9867 28.4852 47.0669 28.4394 47.1586C28.3958 47.2502 28.3752 47.335 28.3752 47.4107C28.3752 47.4932 28.3981 47.5745 28.4439 47.6536C28.4898 47.7338 28.5368 47.798 28.586 47.8461C28.6685 47.9263 28.7877 48.0202 28.9435 48.1302C29.0994 48.238 29.2667 48.3537 29.4477 48.4786C29.631 48.6046 29.7983 48.7341 29.9519 48.8682C30.1352 49.0309 30.2658 49.1833 30.346 49.3265C30.4251 49.4674 30.4652 49.6244 30.4652 49.7986C30.4652 49.9338 30.4388 50.0736 30.3873 50.2202C30.338 50.3669 30.2544 50.5033 30.1352 50.6282C30.016 50.7508 29.8579 50.8516 29.6631 50.9307C29.4706 51.0063 29.2288 51.0452 28.9389 51.0452C28.7854 51.0452 28.6433 51.0418 28.5127 51.0361C28.3844 51.0292 28.2514 51.0132 28.1139 50.9857C27.9971 50.9616 27.9169 50.9559 27.871 50.9673C27.8275 50.9788 27.7817 51.0189 27.7335 51.0865Z" fill="#696A6C"/>
<path d="M35.749 48.9831V50.216C35.749 50.4303 35.7879 50.5735 35.8681 50.6468C35.9472 50.7179 36.0618 50.7752 36.2119 50.821V50.9722H36.0285C35.7558 50.9722 35.5679 50.8932 35.4648 50.7339C35.364 50.8932 35.176 50.9722 34.901 50.9722H34.846V50.821C34.9526 50.7912 35.0305 50.7557 35.0798 50.7156C35.1279 50.6732 35.1589 50.6136 35.1715 50.5368C35.1864 50.4578 35.1944 50.3512 35.1944 50.216V49.1664C35.1944 48.9991 35.1577 48.8547 35.0844 48.7356C35.0133 48.6141 34.8804 48.5522 34.6856 48.5522C34.508 48.5522 34.3694 48.5981 34.2685 48.6897C34.1677 48.7791 34.0944 48.8983 34.0485 49.0472C34.0027 49.1973 33.9798 49.3612 33.9798 49.5377V50.216C33.9798 50.3569 33.9855 50.4669 33.9981 50.546C34.013 50.6228 34.0451 50.6812 34.0944 50.7202C34.1459 50.7568 34.2227 50.7912 34.3235 50.821V50.9722H34.264C33.989 50.9722 33.7988 50.8932 33.6956 50.7339C33.5948 50.8932 33.4069 50.9722 33.1319 50.9722H32.9531V50.821C33.1147 50.7752 33.2339 50.7144 33.3106 50.6377C33.3897 50.5586 33.4298 50.4177 33.4298 50.216V47.3927C33.4298 47.1887 33.3897 47.0478 33.3106 46.971C33.2339 46.8954 33.1147 46.8358 32.9531 46.7922V46.641H33.1319C33.4069 46.641 33.5948 46.7212 33.6956 46.8793C33.7988 46.7212 33.989 46.641 34.264 46.641H34.4473V46.7922C34.2938 46.8358 34.178 46.8931 34.099 46.9664C34.0188 47.0397 33.9798 47.1818 33.9798 47.3927V48.6393C34.0955 48.4904 34.2101 48.3804 34.3235 48.3093C34.4393 48.236 34.5527 48.189 34.6627 48.1672C34.7727 48.1432 34.8701 48.1306 34.956 48.1306C35.1726 48.1306 35.3594 48.2016 35.5152 48.3414C35.671 48.4789 35.749 48.6932 35.749 48.9831Z" fill="#696A6C"/>
<path d="M42.5896 51.0865H42.4338C42.3971 51.0338 42.357 50.9994 42.3146 50.9811C42.2745 50.9627 42.2103 50.9605 42.1221 50.9719C41.9777 50.9925 41.8437 51.0097 41.7188 51.0223C41.5927 51.0372 41.4312 51.0452 41.2329 51.0452C40.7437 51.0452 40.3346 50.9914 40.0046 50.8848C39.6769 50.7748 39.4145 50.6213 39.2163 50.4219C39.0169 50.2202 38.8737 49.9842 38.7854 49.7115C38.6961 49.4399 38.6525 49.1374 38.6525 48.804C38.6525 48.5084 38.6961 48.2254 38.7854 47.9561C38.8737 47.6845 39.0169 47.445 39.2163 47.2365C39.4145 47.0257 39.6769 46.863 40.0046 46.7461C40.3346 46.6269 40.7437 46.5673 41.2329 46.5673C41.4312 46.5673 41.5927 46.5754 41.7188 46.5902C41.8437 46.6029 41.9777 46.62 42.1221 46.6407C42.2069 46.6533 42.2711 46.6487 42.3146 46.6269C42.357 46.6063 42.3971 46.5673 42.4338 46.5123H42.5896V46.5902C42.5896 46.7129 42.5667 46.8057 42.5209 46.8698C42.475 46.934 42.4166 46.9695 42.3467 46.9752C42.4407 47.0612 42.5048 47.154 42.5392 47.2548C42.5724 47.3534 42.5896 47.4611 42.5896 47.5802V47.8415H42.4338C42.3146 47.5516 42.1828 47.335 42.0396 47.1907C41.8987 47.044 41.7417 46.9477 41.5675 46.9019C41.3957 46.8538 41.2032 46.8286 40.99 46.8286C40.7299 46.8286 40.4996 46.8859 40.2979 46.9982C40.0986 47.1116 39.9336 47.2629 39.8029 47.4519C39.6712 47.6421 39.5715 47.8541 39.505 48.089C39.4374 48.3216 39.4042 48.5599 39.4042 48.804C39.4042 49.0515 39.4374 49.2921 39.505 49.5236C39.5715 49.7562 39.6712 49.9682 39.8029 50.1607C39.9336 50.3509 40.0986 50.5021 40.2979 50.6144C40.4996 50.7244 40.7299 50.7794 40.99 50.7794C41.2066 50.7794 41.4002 50.7565 41.5721 50.7107C41.7463 50.6648 41.9033 50.5709 42.0442 50.4265C42.184 50.2798 42.3146 50.0621 42.4338 49.7711H42.5896V50.0277C42.5896 50.163 42.5713 50.2787 42.5346 50.3761C42.4979 50.4746 42.4349 50.5583 42.3467 50.6282C42.5083 50.6534 42.5896 50.784 42.5896 51.0223V51.0865Z" fill="#696A6C"/>
<path d="M46.3081 50.9722H46.1293C45.9884 50.9722 45.852 50.9516 45.7214 50.9081C45.5896 50.8622 45.4842 50.7866 45.4052 50.6789C45.3249 50.5689 45.286 50.4177 45.286 50.2252V47.3927C45.286 47.1887 45.2459 47.0478 45.1668 46.971C45.09 46.8954 44.972 46.8358 44.8139 46.7922V46.641H44.9881C45.2596 46.641 45.451 46.7212 45.561 46.8793C45.671 46.7212 45.86 46.641 46.1293 46.641H46.3081V46.7922C46.1488 46.8358 46.0296 46.8954 45.9506 46.971C45.8738 47.0478 45.836 47.1887 45.836 47.3927V50.216C45.836 50.4177 45.8738 50.5586 45.9506 50.6377C46.0296 50.7144 46.1488 50.7752 46.3081 50.821V50.9722Z" fill="#696A6C"/>
<path d="M50.1627 51.0276C49.8843 51.0276 49.6357 50.9623 49.4157 50.8305C49.198 50.6999 49.0272 50.5223 48.9023 50.2988C48.7763 50.0731 48.7144 49.8222 48.7144 49.5472C48.7144 49.2813 48.774 49.0419 48.8932 48.8276C49.0123 48.6145 49.175 48.4449 49.3836 48.3188C49.591 48.1905 49.8327 48.1263 50.1077 48.1263C50.3942 48.1263 50.6451 48.1905 50.8594 48.3188C51.0725 48.4449 51.2398 48.6168 51.359 48.8368C51.4805 49.0568 51.5423 49.3088 51.5423 49.593C51.5423 49.8623 51.4805 50.1052 51.359 50.3218C51.2398 50.5395 51.076 50.7113 50.8686 50.8397C50.6635 50.9657 50.4286 51.0276 50.1627 51.0276ZM50.1948 50.7938C50.4423 50.7938 50.628 50.7091 50.754 50.5372C50.8789 50.3664 50.9419 50.1419 50.9419 49.8634C50.9419 49.6835 50.9247 49.5048 50.8915 49.3272C50.8606 49.1473 50.8067 48.9834 50.7311 48.8368C50.6577 48.6901 50.5626 48.5732 50.4469 48.4838C50.3335 48.3956 50.1925 48.3509 50.0252 48.3509C49.8259 48.3509 49.6597 48.4288 49.5257 48.5847C49.3939 48.7382 49.3286 48.972 49.3286 49.2859C49.3286 49.4544 49.3423 49.6274 49.3698 49.8038C49.3996 49.978 49.4489 50.1419 49.5165 50.2943C49.583 50.4444 49.6723 50.5647 49.7823 50.6563C49.8923 50.748 50.0298 50.7938 50.1948 50.7938Z" fill="#696A6C"/>
<path d="M57.1985 48.1991V48.3503C57.0392 48.3939 56.9201 48.4546 56.841 48.5337C56.7642 48.6105 56.7264 48.7491 56.7264 48.9508V50.2158C56.7264 50.4174 56.7642 50.5584 56.841 50.6374C56.9201 50.7142 57.0392 50.7749 57.1985 50.8208V50.972H57.0198C56.8387 50.972 56.6726 50.9376 56.5202 50.8666C56.3666 50.7967 56.2647 50.6695 56.2131 50.4862C56.0939 50.6512 55.9725 50.7738 55.851 50.8528C55.7318 50.9331 55.615 50.9823 55.5027 51.0041C55.3927 51.0282 55.2918 51.0408 55.2002 51.0408C54.9859 51.0408 54.7991 50.9709 54.641 50.8299C54.4852 50.6867 54.4073 50.4724 54.4073 50.1883V48.9508C54.4073 48.7399 54.3672 48.5978 54.2881 48.5245C54.2113 48.4512 54.0956 48.3939 53.9398 48.3503V48.1991H54.1231C54.3981 48.1991 54.586 48.2793 54.6868 48.4374C54.79 48.2793 54.9802 48.1991 55.2552 48.1991H55.3102V48.3503C55.2025 48.3813 55.1245 48.4168 55.0764 48.4558C55.0272 48.4959 54.9951 48.5555 54.9802 48.6345C54.9641 48.7113 54.9573 48.8167 54.9573 48.9508V50.0003C54.9573 50.1653 54.9916 50.3097 55.0627 50.4312C55.136 50.5538 55.2712 50.6145 55.4706 50.6145C55.6448 50.6145 55.7823 50.571 55.8831 50.4816C55.9862 50.3899 56.0618 50.2708 56.1077 50.1241C56.1535 49.9751 56.1764 49.8113 56.1764 49.6337V48.9508C56.1764 48.811 56.1684 48.7021 56.1535 48.6253C56.1375 48.5497 56.1054 48.4924 56.0573 48.4558C56.008 48.4168 55.9335 48.3813 55.8327 48.3503V48.1991H55.8923C56.1673 48.1991 56.3552 48.2793 56.456 48.4374C56.5591 48.2793 56.747 48.1991 57.0198 48.1991H57.1985Z" fill="#696A6C"/>
<path d="M60.7699 51.0272C60.519 51.0272 60.3093 50.9654 60.142 50.8393C59.9735 50.711 59.8464 50.5483 59.7616 50.3489C59.6791 50.1472 59.6378 49.9341 59.6378 49.7072C59.6378 49.4265 59.6997 49.1653 59.8257 48.9235C59.9541 48.6829 60.1305 48.4904 60.3574 48.346C60.5831 48.1993 60.8409 48.126 61.132 48.126C61.2752 48.126 61.4001 48.142 61.5078 48.1718C61.6144 48.2028 61.7072 48.2303 61.7874 48.2543V47.3927C61.7874 47.1887 61.7473 47.0478 61.6682 46.971C61.5915 46.8954 61.4734 46.8358 61.3153 46.7922V46.641H61.4941C61.7622 46.641 61.9524 46.7212 62.0624 46.8793C62.1724 46.7212 62.3626 46.641 62.6353 46.641H62.8141V46.7922C62.6514 46.8358 62.531 46.8954 62.452 46.971C62.3752 47.0478 62.3374 47.1887 62.3374 47.3927V50.216C62.3374 50.4177 62.3752 50.5586 62.452 50.6377C62.531 50.7144 62.6514 50.7752 62.8141 50.821V50.9722H62.6353C62.4612 50.9722 62.2984 50.9402 62.1495 50.876C62.0028 50.8118 61.8985 50.6995 61.8378 50.5368C61.7335 50.6503 61.5903 50.7603 61.407 50.8668C61.2237 50.9734 61.0105 51.0272 60.7699 51.0272ZM61.0816 50.6102C61.3566 50.6102 61.5422 50.5116 61.6407 50.3122C61.7381 50.114 61.7874 49.7943 61.7874 49.3543C61.7874 49.061 61.7141 48.8249 61.5674 48.6439C61.423 48.4606 61.2374 48.3689 61.0082 48.3689C60.8982 48.3689 60.7768 48.3964 60.6462 48.4514C60.5178 48.5064 60.4055 48.6049 60.3116 48.7447C60.2199 48.8822 60.1741 49.0828 60.1741 49.3452C60.1741 49.4895 60.189 49.6339 60.2199 49.7806C60.2531 49.9272 60.3047 50.0636 60.3757 50.1885C60.4491 50.3145 60.543 50.4165 60.6599 50.4956C60.7756 50.5723 60.9166 50.6102 61.0816 50.6102Z" fill="#696A6C"/>
<path d="M70.4446 50.9719H69.858V50.8619C70.0653 50.823 70.2269 50.7829 70.3438 50.7427C70.4595 50.7004 70.5455 50.6534 70.6005 50.6007C70.6555 50.5491 70.6887 50.4907 70.7013 50.4265C70.7162 50.36 70.7242 50.2833 70.7242 50.1973V47.6169C70.7242 47.547 70.7173 47.4691 70.7059 47.3832C70.6967 47.2984 70.6703 47.2159 70.628 47.1357C70.5844 47.0532 70.5145 46.9867 70.4171 46.934C70.322 46.8824 70.1891 46.8561 70.0184 46.8561C69.9267 46.8561 69.819 46.8779 69.6975 46.9202C69.5784 46.9638 69.4603 47.0555 69.3446 47.1952C69.2277 47.3327 69.1292 47.5482 69.0467 47.8415H68.8909V47.6077C68.8909 47.4955 68.9046 47.3855 68.9321 47.2777C68.9619 47.1677 69.0295 47.0669 69.1338 46.9752C68.9711 46.9569 68.8909 46.8286 68.8909 46.5902V46.5123H69.0467C69.0834 46.5765 69.1258 46.6155 69.175 46.6269C69.2232 46.6361 69.2896 46.6407 69.3721 46.6407H72.7363C72.8153 46.6407 72.8795 46.6361 72.9288 46.6269C72.9803 46.6155 73.025 46.5765 73.0617 46.5123H73.213V46.5902C73.213 46.8286 73.1327 46.9569 72.9746 46.9752C73.0812 47.0669 73.1465 47.1677 73.1717 47.2777C73.1992 47.3855 73.213 47.4955 73.213 47.6077V47.8415H73.0617C72.9815 47.5482 72.8841 47.3327 72.7684 47.1952C72.6515 47.0555 72.5323 46.9638 72.4109 46.9202C72.2917 46.8779 72.184 46.8561 72.09 46.8561C71.9182 46.8561 71.7841 46.8824 71.6867 46.934C71.5916 46.9867 71.5228 47.0532 71.4805 47.1357C71.4369 47.2159 71.4094 47.2984 71.398 47.3832C71.3888 47.4691 71.3842 47.547 71.3842 47.6169V50.1973C71.3842 50.2775 71.3888 50.3509 71.398 50.4173C71.4094 50.4815 71.4403 50.5399 71.4896 50.5915C71.5412 50.6442 71.6271 50.6923 71.7463 50.7382C71.8655 50.7817 72.0327 50.823 72.2505 50.8619V50.9719H71.6592C71.524 50.9719 71.4025 50.9524 71.2925 50.9123C71.1848 50.8699 71.1058 50.8104 71.0542 50.7336C70.9442 50.8929 70.7402 50.9719 70.4446 50.9719Z" fill="#952E31"/>
<path d="M78.1631 49.4141H76.1418V49.5012C76.1418 49.6937 76.1808 49.8701 76.261 50.0282C76.3435 50.1875 76.4581 50.3147 76.6047 50.4087C76.7537 50.5038 76.9347 50.5507 77.1456 50.5507C77.3129 50.5507 77.4549 50.5255 77.5718 50.4728C77.691 50.4213 77.7987 50.3388 77.8972 50.2253L78.0347 50.3032C77.9797 50.4568 77.8938 50.5874 77.7781 50.6974C77.6612 50.8051 77.5306 50.8876 77.3839 50.9449C77.2372 50.9999 77.0871 51.0274 76.9347 51.0274C76.5314 51.0274 76.2117 50.9117 75.9768 50.6791C75.7442 50.4442 75.6285 50.1245 75.6285 49.7212C75.6285 49.5012 75.6697 49.2949 75.7522 49.1024C75.837 48.9099 75.9516 48.7426 76.096 48.5982C76.2392 48.4516 76.3985 48.337 76.5726 48.2545C76.7491 48.172 76.9301 48.1307 77.1135 48.1307C77.3025 48.1307 77.4458 48.1697 77.5443 48.2453C77.6451 48.3221 77.7208 48.4172 77.7735 48.5295C77.825 48.6395 77.8651 48.7518 77.8926 48.8641C77.9201 48.9775 77.9522 49.0726 77.9889 49.1482C78.0279 49.2216 78.0863 49.2582 78.1631 49.2582V49.4141ZM76.9806 48.3966C76.8797 48.3966 76.772 48.4229 76.6597 48.4745C76.5497 48.5272 76.4489 48.612 76.3572 48.7312C76.2679 48.848 76.206 49.0039 76.1693 49.1987H77.4618C77.4125 49.1253 77.3805 49.0451 77.3656 48.9557C77.3495 48.8641 77.3312 48.777 77.3106 48.6945C77.2922 48.6097 77.2601 48.5387 77.2143 48.4837C77.1685 48.4287 77.0906 48.4 76.9806 48.3966Z" fill="#952E31"/>
<path d="M81.9541 51.0274C81.5474 51.0274 81.2277 50.9151 80.9962 50.6882C80.7636 50.4591 80.6479 50.1428 80.6479 49.7395C80.6479 49.5195 80.6891 49.3132 80.7716 49.1207C80.8541 48.9282 80.9664 48.7575 81.1108 48.6074C81.254 48.4584 81.4133 48.3416 81.5875 48.2591C81.7639 48.1743 81.9461 48.1307 82.1329 48.1307C82.3185 48.1307 82.4629 48.1697 82.5637 48.2453C82.6646 48.3221 82.739 48.4172 82.7883 48.5295C82.8399 48.6395 82.88 48.7518 82.9075 48.8641C82.9373 48.9775 82.9716 49.0726 83.0083 49.1482C83.045 49.2216 83.1023 49.2582 83.1825 49.2582V49.4141H83.0037C82.8445 49.4141 82.7207 49.39 82.6325 49.3407C82.5465 49.2926 82.4858 49.2296 82.4491 49.1528C82.4125 49.0772 82.3861 48.9958 82.3712 48.9099C82.3586 48.8251 82.3437 48.7438 82.3254 48.667C82.3071 48.5879 82.2727 48.5238 82.2246 48.4745C82.1787 48.4264 82.102 48.4 81.9954 48.3966C81.8854 48.3966 81.7639 48.4332 81.6333 48.5066C81.5015 48.5799 81.3904 48.6991 81.2987 48.8641C81.2071 49.0268 81.1612 49.2445 81.1612 49.5195C81.1612 49.712 81.2002 49.8862 81.2804 50.042C81.3595 50.1955 81.474 50.3193 81.6241 50.4132C81.7731 50.5049 81.9518 50.5507 82.1604 50.5507C82.3277 50.5507 82.4721 50.5255 82.5912 50.4728C82.7104 50.4213 82.8181 50.3388 82.9166 50.2253L83.0496 50.3032C82.9968 50.4568 82.9132 50.5874 82.7975 50.6974C82.6806 50.8051 82.5477 50.8876 82.3987 50.9449C82.2521 50.9999 82.1031 51.0274 81.9541 51.0274Z" fill="#952E31"/>
<path d="M88.3286 48.9831V50.216C88.3286 50.4303 88.3676 50.5735 88.4478 50.6468C88.5268 50.7179 88.6414 50.7752 88.7915 50.821V50.9722H88.6082C88.3355 50.9722 88.1476 50.8932 88.0444 50.7339C87.9436 50.8932 87.7557 50.9722 87.4807 50.9722H87.4257V50.821C87.5323 50.7912 87.6102 50.7557 87.6594 50.7156C87.7076 50.6732 87.7385 50.6136 87.7511 50.5368C87.766 50.4578 87.774 50.3512 87.774 50.216V49.1664C87.774 48.9991 87.7374 48.8547 87.664 48.7356C87.593 48.6141 87.4601 48.5522 87.2653 48.5522C87.0877 48.5522 86.949 48.5981 86.8482 48.6897C86.7474 48.7791 86.674 48.8983 86.6282 49.0472C86.5824 49.1973 86.5594 49.3612 86.5594 49.5377V50.216C86.5594 50.3569 86.5652 50.4669 86.5778 50.546C86.5927 50.6228 86.6248 50.6812 86.674 50.7202C86.7256 50.7568 86.8024 50.7912 86.9032 50.821V50.9722H86.8436C86.5686 50.9722 86.3784 50.8932 86.2753 50.7339C86.1744 50.8932 85.9865 50.9722 85.7115 50.9722H85.5328V50.821C85.6943 50.7752 85.8135 50.7144 85.8903 50.6377C85.9693 50.5586 86.0094 50.4177 86.0094 50.216V47.3927C86.0094 47.1887 85.9693 47.0478 85.8903 46.971C85.8135 46.8954 85.6943 46.8358 85.5328 46.7922V46.641H85.7115C85.9865 46.641 86.1744 46.7212 86.2753 46.8793C86.3784 46.7212 86.5686 46.641 86.8436 46.641H87.0269V46.7922C86.8734 46.8358 86.7577 46.8931 86.6786 46.9664C86.5984 47.0397 86.5594 47.1818 86.5594 47.3927V48.6393C86.6752 48.4904 86.7898 48.3804 86.9032 48.3093C87.0189 48.236 87.1324 48.189 87.2424 48.1672C87.3524 48.1432 87.4498 48.1306 87.5357 48.1306C87.7523 48.1306 87.939 48.2016 88.0949 48.3414C88.2507 48.4789 88.3286 48.6932 88.3286 48.9831Z" fill="#952E31"/>
<defs>
<linearGradient id="paint0_linear_89_626" x1="54.4534" y1="13.1992" x2="54.0697" y2="84.611" gradientUnits="userSpaceOnUse">
<stop stop-color="#696A6C"/>
<stop offset="0.015625" stop-color="#696A6C"/>
<stop offset="0.03125" stop-color="#6A696B"/>
<stop offset="0.046875" stop-color="#6B686A"/>
<stop offset="0.0625" stop-color="#6B6769"/>
<stop offset="0.078125" stop-color="#6C6668"/>
<stop offset="0.09375" stop-color="#6D6567"/>
<stop offset="0.109375" stop-color="#6E6466"/>
<stop offset="0.125" stop-color="#6E6365"/>
<stop offset="0.140625" stop-color="#6F6264"/>
<stop offset="0.15625" stop-color="#706163"/>
<stop offset="0.171875" stop-color="#706062"/>
<stop offset="0.1875" stop-color="#715F61"/>
<stop offset="0.203125" stop-color="#725E61"/>
<stop offset="0.21875" stop-color="#725D60"/>
<stop offset="0.234375" stop-color="#735C5F"/>
<stop offset="0.25" stop-color="#745C5E"/>
<stop offset="0.265625" stop-color="#745B5D"/>
<stop offset="0.28125" stop-color="#755A5C"/>
<stop offset="0.296875" stop-color="#76595B"/>
<stop offset="0.3125" stop-color="#76585A"/>
<stop offset="0.328125" stop-color="#775759"/>
<stop offset="0.34375" stop-color="#785658"/>
<stop offset="0.359375" stop-color="#785557"/>
<stop offset="0.375" stop-color="#795456"/>
<stop offset="0.390625" stop-color="#7A5355"/>
<stop offset="0.40625" stop-color="#7B5255"/>
<stop offset="0.421875" stop-color="#7B5154"/>
<stop offset="0.4375" stop-color="#7C5053"/>
<stop offset="0.453125" stop-color="#7D4F52"/>
<stop offset="0.46875" stop-color="#7D4E51"/>
<stop offset="0.484375" stop-color="#7E4D50"/>
<stop offset="0.5" stop-color="#7F4C4F"/>
<stop offset="0.515625" stop-color="#7F4C4E"/>
<stop offset="0.53125" stop-color="#804B4D"/>
<stop offset="0.546875" stop-color="#814A4C"/>
<stop offset="0.5625" stop-color="#81494B"/>
<stop offset="0.578125" stop-color="#82484A"/>
<stop offset="0.59375" stop-color="#834749"/>
<stop offset="0.609375" stop-color="#834649"/>
<stop offset="0.625" stop-color="#844548"/>
<stop offset="0.640625" stop-color="#854447"/>
<stop offset="0.65625" stop-color="#854346"/>
<stop offset="0.671875" stop-color="#864245"/>
<stop offset="0.6875" stop-color="#874144"/>
<stop offset="0.703125" stop-color="#884043"/>
<stop offset="0.71875" stop-color="#883F42"/>
<stop offset="0.734375" stop-color="#893E41"/>
<stop offset="0.75" stop-color="#8A3D40"/>
<stop offset="0.765625" stop-color="#8A3C3F"/>
<stop offset="0.78125" stop-color="#8B3C3E"/>
<stop offset="0.796875" stop-color="#8C3B3D"/>
<stop offset="0.8125" stop-color="#8C3A3D"/>
<stop offset="0.828125" stop-color="#8D393C"/>
<stop offset="0.84375" stop-color="#8E383B"/>
<stop offset="0.859375" stop-color="#8E373A"/>
<stop offset="0.875" stop-color="#8F3639"/>
<stop offset="0.890625" stop-color="#903538"/>
<stop offset="0.90625" stop-color="#903437"/>
<stop offset="0.921875" stop-color="#913336"/>
<stop offset="0.9375" stop-color="#923235"/>
<stop offset="0.953125" stop-color="#933134"/>
<stop offset="0.96875" stop-color="#933033"/>
<stop offset="0.984375" stop-color="#942F32"/>
<stop offset="1" stop-color="#952E31"/>
</linearGradient>
</defs>
</svg>
