<svg width="211" height="68" viewBox="0 0 211 68" fill="none" xmlns="http://www.w3.org/2000/svg">
<path d="M108.695 42.6999V38.3009H115.233C116.747 38.3354 118.244 37.9784 119.58 37.2646C120.808 36.5875 121.816 35.5717 122.484 34.338C123.205 32.9609 123.564 31.4222 123.525 29.8678C123.56 28.34 123.195 26.8296 122.465 25.487C121.783 24.2625 120.771 23.2544 119.543 22.5779C118.22 21.867 116.736 21.51 115.234 21.5416H108.586V17.1414H115.306C117.109 17.1242 118.898 17.4448 120.583 18.0867C122.157 18.6891 123.596 19.5973 124.818 20.7591C126.02 21.9059 126.977 23.2851 127.631 24.813C128.313 26.4221 128.656 28.1547 128.638 29.9024C128.655 31.6558 128.314 33.3943 127.633 35.0104C126.986 36.5421 126.035 37.9272 124.839 39.0826C123.626 40.2466 122.192 41.1552 120.621 41.7546C118.949 42.3947 117.17 42.7153 115.379 42.6999H108.695ZM105.299 42.6999V17.1414H110.266V42.6999H105.299ZM131.34 42.6999V25.1399H136.162V42.6999H131.34ZM133.75 22.3039C133.391 22.3145 133.033 22.2506 132.7 22.116C132.367 21.9815 132.065 21.7793 131.814 21.5222C131.562 21.2666 131.364 20.9627 131.232 20.6287C131.1 20.2947 131.037 19.9375 131.047 19.5786C131.04 19.2226 131.105 18.8688 131.237 18.538C131.368 18.2072 131.564 17.9059 131.814 17.6518C132.062 17.3899 132.363 17.1833 132.697 17.0454C133.03 16.9076 133.389 16.8416 133.75 16.8518C134.114 16.838 134.476 16.9023 134.813 17.0403C135.15 17.1783 135.454 17.3867 135.704 17.6518C136.197 18.1704 136.466 18.8627 136.453 19.5786C136.463 19.936 136.402 20.2919 136.273 20.6255C136.145 20.9591 135.951 21.2639 135.704 21.5222C135.452 21.7825 135.147 21.9868 134.811 22.1218C134.474 22.2568 134.113 22.3195 133.751 22.3058L133.75 22.3039ZM151.539 42.6999V32.6292C151.557 32.1601 151.479 31.6922 151.309 31.2545C151.139 30.8168 150.882 30.4185 150.552 30.0843C150.215 29.7557 149.814 29.4992 149.375 29.3304C148.935 29.1617 148.466 29.0842 147.996 29.1028C147.36 29.0916 146.731 29.2417 146.169 29.5389C145.64 29.823 145.203 30.2517 144.909 30.775C144.596 31.342 144.439 31.9817 144.452 32.6292L142.59 31.6839C142.56 30.4199 142.868 29.171 143.483 28.0665C144.071 27.0454 144.931 26.2082 145.967 25.6487C147.072 25.0556 148.311 24.7552 149.565 24.7761C150.79 24.7578 151.994 25.0923 153.034 25.7397C154.035 26.3602 154.864 27.223 155.443 28.2484C156.023 29.2608 156.326 30.4083 156.32 31.575V42.6999H151.539ZM139.668 42.6999V25.1399H144.453V42.6999H139.668ZM163.372 42.6999V38.3009H169.91C171.423 38.3353 172.92 37.9784 174.256 37.2646C175.484 36.5875 176.492 35.5717 177.159 34.338C177.881 32.9609 178.24 31.4222 178.2 29.8678C178.236 28.34 177.871 26.8296 177.141 25.487C176.459 24.2628 175.447 23.255 174.219 22.5787C172.896 21.8677 171.411 21.5108 169.91 21.5424H163.263V17.1414H169.983C171.786 17.124 173.576 17.4446 175.261 18.0867C176.836 18.6891 178.275 19.5973 179.497 20.7591C180.699 21.9059 181.656 23.2851 182.309 24.813C182.991 26.4224 183.333 28.1551 183.314 29.9028C183.331 31.6562 182.989 33.3947 182.309 35.0108C181.662 36.5423 180.712 37.9272 179.516 39.0826C178.303 40.2466 176.868 41.1552 175.298 41.7546C173.625 42.3946 171.847 42.7152 170.057 42.6999H163.372ZM159.975 42.6999V17.1414H164.943V42.6999H159.975ZM186.017 42.6999V25.1399H190.838V42.6999H186.017ZM188.429 22.3058C188.07 22.3165 187.712 22.2525 187.379 22.118C187.046 21.9834 186.744 21.7812 186.493 21.5241C186.241 21.2685 186.043 20.9646 185.911 20.6306C185.78 20.2967 185.717 19.9395 185.726 19.5806C185.72 19.2245 185.784 18.8708 185.916 18.54C186.048 18.2091 186.244 17.9079 186.493 17.6537C186.742 17.3918 187.042 17.1852 187.376 17.0474C187.709 16.9096 188.068 16.8436 188.429 16.8537C188.793 16.84 189.156 16.9043 189.493 17.0422C189.83 17.1802 190.133 17.3887 190.383 17.6537C190.877 18.1723 191.146 18.8647 191.132 19.5806C191.142 19.938 191.081 20.2938 190.952 20.6274C190.824 20.9611 190.63 21.2658 190.383 21.5241C190.131 21.7843 189.826 21.9883 189.489 22.123C189.153 22.2577 188.791 22.32 188.429 22.3058ZM206.215 42.6999V32.6292C206.234 32.1601 206.155 31.6922 205.986 31.2545C205.816 30.8168 205.559 30.4185 205.229 30.0843C204.892 29.7557 204.491 29.4992 204.052 29.3304C203.612 29.1617 203.143 29.0842 202.672 29.1028C202.036 29.0916 201.408 29.2417 200.846 29.5389C200.317 29.823 199.88 30.2517 199.586 30.775C199.273 31.342 199.115 31.9817 199.129 32.6292L197.266 31.6839C197.236 30.4199 197.545 29.171 198.16 28.0665C198.747 27.0454 199.607 26.2082 200.644 25.6487C201.749 25.0556 202.987 24.7552 204.241 24.7761C205.466 24.7579 206.671 25.0924 207.711 25.7397C208.712 26.3602 209.541 27.223 210.12 28.2484C210.7 29.2608 211.002 30.4083 210.997 31.575V42.6999H206.215ZM194.345 42.6999V25.1399H199.129V42.6999H194.345Z" fill="url(#paint0_linear_89_3257)"/>
<path d="M82.6912 49.9287C82.6912 49.9287 79.6641 50.689 77.9609 50.4955C79.675 51.2573 80.1735 51.9119 81.783 53.5873C85.2725 57.1001 87.8061 63.8248 87.8061 63.8248C87.985 64.3304 88.2837 64.7852 88.6765 65.1503L90.8759 67.1444C91.4943 67.6868 92.2862 67.9901 93.1087 67.9995H93.1965C93.9737 67.9979 94.7267 67.7287 95.329 67.2373L103.276 60.5126C103.295 60.5042 103.313 60.4908 103.326 60.4737C103.352 60.4511 103.377 60.4264 103.4 60.3998C103.42 60.381 103.438 60.3602 103.454 60.3376C103.668 60.0825 103.771 59.7529 103.742 59.4213C103.713 59.0897 103.553 58.7833 103.298 58.5694C102.12 57.5403 100.685 56.8489 99.1463 56.5683C97.6072 56.2878 96.021 56.4285 94.5554 56.9757C93.788 57.2576 93.0655 57.6492 92.4104 58.1383C92.125 57.3297 91.7969 56.537 91.4273 55.7633C90.321 53.3293 88.7519 51.1339 86.8074 49.2994C86.5688 49.0892 86.3183 48.8929 86.0571 48.7117" fill="url(#paint1_linear_89_3257)"/>
<path d="M72.8192 41.1688C71.4291 40.6116 70.1783 39.7558 69.1552 38.662C68.1204 37.5374 67.3234 36.2152 66.8121 34.7749C66.2427 33.1653 65.9625 31.4677 65.9844 29.7605C65.9309 27.5355 66.4232 25.3312 67.4183 23.3405C68.3315 21.5654 69.7374 20.0917 71.4673 19.0962C73.3253 18.0569 75.4273 17.5335 77.5556 17.5802C79.1671 17.5582 80.7676 17.8486 82.2687 18.4354C83.6539 18.987 84.9027 19.833 85.9288 20.915C86.9745 22.0259 87.7812 23.3396 88.2991 24.7749C88.8706 26.3743 89.1511 28.0633 89.1272 29.7617C89.1724 31.9863 88.6804 34.189 87.6929 36.1828C86.7868 37.9837 85.3812 39.4855 83.6443 40.5084C81.7927 41.5654 79.6886 42.0989 77.5572 42.0515C75.9358 42.0706 74.3265 41.7706 72.8207 41.1688M77.5572 9.69677C74.7756 9.66714 72.015 10.1821 69.4311 11.2127C67.0218 12.1784 64.8287 13.6139 62.9796 15.4358C61.1304 17.2577 59.6622 19.4294 58.6604 21.8246C57.6137 24.3382 57.0888 27.0384 57.1177 29.7613C57.0944 32.4748 57.6191 35.165 58.6604 37.6708C59.6656 40.0805 61.1458 42.2629 63.0125 44.088C64.8908 45.9299 67.1076 47.391 69.5407 48.3907C70.491 48.7828 71.4705 49.0999 72.4702 49.3391C74.2616 49.771 75.3531 50.1399 77.6384 50.1325C80.5788 50.1053 83.4788 49.4436 86.1402 48.1924L86.7386 47.9164C91.1296 45.843 94.5932 42.2106 96.4563 37.7252C97.4959 35.2188 98.0205 32.5288 97.9989 29.8153C98.0238 27.0839 97.4992 24.3754 96.4563 21.851C95.4561 19.4515 93.9846 17.2772 92.129 15.4571C90.2613 13.6306 88.0533 12.1885 85.6303 11.2127C83.0637 10.186 80.3213 9.67106 77.5572 9.69677Z" fill="url(#paint2_linear_89_3257)"/>
<path d="M60.4711 57.4744C60.0766 57.8341 59.7616 58.2722 59.5463 58.7607L58.5671 61.3806C58.5469 61.4418 58.53 61.5041 58.5166 61.5672C58.5082 61.5978 58.5018 61.629 58.4975 61.6605C58.4254 62.0071 58.4223 62.3646 58.4886 62.7124C58.5548 63.0602 58.6891 63.3915 58.8836 63.6873C59.0782 63.9831 59.3292 64.2375 59.6223 64.436C59.9154 64.6345 60.2448 64.7732 60.5916 64.844L71.1797 67.8562C71.5613 67.9785 71.9745 67.9563 72.3407 67.7935C72.7068 67.6308 73.0004 67.339 73.1654 66.9738C74.5103 63.3556 72.2483 59.4802 68.1181 58.2981L68.0757 58.2869L74.4574 50.2238C72.2158 49.7668 70.034 49.0539 67.9549 48.0991C65.9692 53.4431 60.4711 57.4744 60.4711 57.4744Z" fill="url(#paint3_linear_89_3257)"/>
<path d="M82.6503 28.0793C82.9443 28.2864 83.1843 28.5611 83.35 28.8805C83.5157 29.1998 83.6022 29.5543 83.6022 29.914C83.6022 30.2738 83.5157 30.6283 83.35 30.9476C83.1843 31.2669 82.9443 31.5417 82.6503 31.7487L77.9908 35.0295C77.6548 35.2659 77.2605 35.4056 76.8506 35.4332C76.4408 35.4608 76.0312 35.3753 75.6667 35.1861C75.3021 34.9968 74.9965 34.711 74.7831 34.3598C74.5698 34.0086 74.457 33.6056 74.457 33.1947V26.6341C74.457 26.2232 74.5698 25.8202 74.7831 25.469C74.9965 25.1179 75.3021 24.832 75.6667 24.6428C76.0312 24.4535 76.4408 24.368 76.8506 24.3956C77.2605 24.4232 77.6548 24.5629 77.9908 24.7993L82.6503 28.0793Z" fill="url(#paint4_linear_89_3257)"/>
<path d="M28.41 55.9705C24.6102 55.9987 20.8423 55.2763 17.3222 53.8447C13.9324 52.4645 10.8483 50.4285 8.24683 47.8534C5.65981 45.3012 3.59602 42.268 2.17134 38.9244C0.707281 35.4649 -0.0317527 31.7418 -5.80428e-05 27.9852C-0.0368252 24.1993 0.715947 20.4473 2.2102 16.9688C3.65809 13.6295 5.74981 10.6085 8.36574 8.07856C11.0242 5.50919 14.1609 3.48672 17.5981 2.12583C21.2399 0.686531 25.1254 -0.0353201 29.0411 -3.24852e-05C33.3786 -0.0481287 37.6787 0.807568 41.6677 2.5126C45.3656 4.08163 48.6384 6.50626 51.2171 9.58715L43.9568 16.7006C42.2432 14.5022 40.0229 12.7516 37.4857 11.5983C34.808 10.3918 31.8992 9.78502 28.9626 9.82037C25.7005 9.75464 22.4775 10.5398 19.6109 12.0986C16.9433 13.5771 14.7427 15.773 13.258 18.4377C11.7322 21.1434 10.9692 24.3001 10.9692 27.9079C10.9692 31.5156 11.7189 34.6982 13.2184 37.4554C14.6398 40.1309 16.7692 42.3639 19.3739 43.9104C22.0921 45.4867 25.1897 46.2888 28.3311 46.2298C31.8025 46.2298 34.775 45.5984 37.2487 44.3356C39.6759 43.1175 41.6623 41.1716 42.9305 38.7696C44.2458 36.3215 44.9034 33.3194 44.9034 29.7632L51.927 34.4791L27.6997 34.2458V25.1247H55.9512V26.5937C55.9512 33.0875 54.7674 38.5119 52.3999 42.8671C50.2099 47.0438 46.8143 50.4648 42.6547 52.6851C38.5245 54.8754 33.7763 55.9705 28.41 55.9705Z" fill="url(#paint5_linear_89_3257)"/>
<defs>
<linearGradient id="paint0_linear_89_3257" x1="199.899" y1="15.9711" x2="192.06" y2="53.6184" gradientUnits="userSpaceOnUse">
<stop stop-color="#B00093"/>
<stop offset="1" stop-color="#4617C0"/>
</linearGradient>
<linearGradient id="paint1_linear_89_3257" x1="101.039" y1="48.0559" x2="87.7612" y2="68.9082" gradientUnits="userSpaceOnUse">
<stop stop-color="#B00093"/>
<stop offset="1" stop-color="#4617C0"/>
</linearGradient>
<linearGradient id="paint2_linear_89_3257" x1="93.707" y1="8.3207" x2="63.4341" y2="44.2737" gradientUnits="userSpaceOnUse">
<stop stop-color="#B00093"/>
<stop offset="1" stop-color="#4617C0"/>
</linearGradient>
<linearGradient id="paint3_linear_89_3257" x1="72.7757" y1="47.4247" x2="57.7273" y2="61.6984" gradientUnits="userSpaceOnUse">
<stop stop-color="#B00093"/>
<stop offset="1" stop-color="#4617C0"/>
</linearGradient>
<linearGradient id="paint4_linear_89_3257" x1="83.9131" y1="34.2783" x2="74.6281" y2="27.7352" gradientUnits="userSpaceOnUse">
<stop stop-color="#B00093"/>
<stop offset="1" stop-color="#4617C0"/>
</linearGradient>
<linearGradient id="paint5_linear_89_3257" x1="50.0762" y1="-1.90504" x2="8.09374" y2="47.392" gradientUnits="userSpaceOnUse">
<stop stop-color="#B00093"/>
<stop offset="1" stop-color="#4617C0"/>
</linearGradient>
</defs>
</svg>
