<svg width="228" height="83" viewBox="0 0 228 83" fill="none" xmlns="http://www.w3.org/2000/svg">
<path d="M50.5193 12.2321C55.6909 13.9516 60.2704 17.0406 63.7961 21.1432C65.2143 22.7935 64.6895 25.2718 62.8726 26.4791C61.0567 27.6856 58.6417 27.1559 57.1504 25.5738C54.6444 22.915 51.51 20.9027 48.0088 19.7386C43.2562 18.1584 38.1033 18.2328 33.3772 19.9497C28.651 21.6667 24.6256 24.9267 21.947 29.2066C19.2684 33.4865 18.0918 38.5381 18.6062 43.5507C19.1205 48.5633 21.2959 53.2463 24.7833 56.8481C28.2707 60.4499 32.8678 62.7616 37.8369 63.4124C42.806 64.0631 47.859 63.0151 52.1848 60.4365C55.3745 58.5352 58.0326 55.883 59.9435 52.7347L46.9353 52.7759C44.8477 52.7825 43.1587 51.0822 43.1653 48.9807C43.1718 46.8846 44.8631 45.182 46.9453 45.1754L64.4162 45.1201C66.9636 45.1121 69.0246 47.1869 69.0166 49.7513L69.0074 52.706C66.5307 59.0645 62.0084 63.7449 56.1626 67.2294C50.3168 70.714 43.4884 72.1303 36.7734 71.2509C30.0584 70.3715 23.8461 67.2475 19.1334 62.3802C16.4629 59.6222 14.3618 56.395 12.9157 52.8835C11.8098 50.198 11.0871 47.3462 10.7859 44.4108C10.3698 40.3557 10.7725 36.2817 11.9395 32.4238C12.4876 30.6118 13.2043 28.8475 14.0839 27.1552C14.4598 26.432 14.8329 25.8056 15.3005 25.0268C18.9203 19.2431 24.36 14.8377 30.7468 12.5174C37.1335 10.1972 44.0968 10.0967 50.5193 12.2321Z" fill="url(#paint0_linear_100_3332)"/>
<path d="M105.831 38.4008C107.103 38.4009 108.132 39.4388 108.128 40.7191L108.063 64.6488H93.9291L93.9945 40.7191C93.9981 39.4386 95.032 38.4008 96.3041 38.4008H105.831ZM101.068 41.4291C100.231 41.4291 99.5573 42.1074 99.5629 42.9437C99.5686 43.7798 100.251 44.4573 101.087 44.4574C101.923 44.4574 102.597 43.7799 102.592 42.9437C102.587 42.1075 101.904 41.4293 101.068 41.4291Z" fill="url(#paint1_linear_100_3332)"/>
<path d="M131.353 41.4293C131.353 58.1563 117.794 71.7162 101.067 71.7162C84.3397 71.7162 70.7798 58.1563 70.7798 41.4293C70.7798 24.7023 84.3397 11.1425 101.067 11.1425C117.794 11.1425 131.353 24.7023 131.353 41.4293ZM78.7194 41.4293C78.7194 53.7713 88.7246 63.7765 101.067 63.7765C105.234 63.7765 109.135 62.6359 112.474 60.6498C115.685 58.7398 118.377 56.0479 120.287 52.8366C122.273 49.4973 123.414 45.5965 123.414 41.4293C123.414 29.0873 113.409 19.0821 101.067 19.0821C88.7246 19.0821 78.7194 29.0873 78.7194 41.4293Z" fill="url(#paint2_linear_100_3332)"/>
<path d="M142.069 50.5564C144.294 50.5564 146.216 50.976 147.836 51.8153C149.476 52.6351 150.725 53.8159 151.584 55.3578C152.462 56.8998 152.901 58.715 152.901 60.8034C152.901 62.8919 152.462 64.7071 151.584 66.249C150.725 67.7714 149.476 68.9425 147.836 69.7623C146.216 70.5625 144.294 70.9626 142.069 70.9626H135.716V50.5564H142.069ZM142.069 68.7668C144.704 68.7668 146.714 68.074 148.1 66.6882C149.486 65.2829 150.179 63.3213 150.179 60.8034C150.179 58.2661 149.476 56.285 148.071 54.8601C146.685 53.4353 144.684 52.7229 142.069 52.7229H138.38V68.7668H142.069ZM157.792 52.313C157.284 52.313 156.855 52.1373 156.503 51.786C156.152 51.4347 155.976 51.0053 155.976 50.4978C155.976 49.9903 156.152 49.5609 156.503 49.2096C156.855 48.8583 157.284 48.6826 157.792 48.6826C158.28 48.6826 158.689 48.8583 159.021 49.2096C159.373 49.5609 159.548 49.9903 159.548 50.4978C159.548 51.0053 159.373 51.4347 159.021 51.786C158.689 52.1373 158.28 52.313 157.792 52.313ZM159.08 54.9187V70.9626H156.416V54.9187H159.08ZM171.438 54.6259C173.389 54.6259 174.97 55.2212 176.181 56.4118C177.391 57.5829 177.996 59.281 177.996 61.5061V70.9626H175.361V61.8867C175.361 60.2862 174.961 59.0663 174.16 58.227C173.36 57.3682 172.267 56.9388 170.881 56.9388C169.476 56.9388 168.354 57.378 167.514 58.2563C166.695 59.1346 166.285 60.4131 166.285 62.0916V70.9626H163.621V54.9187H166.285V57.2023C166.812 56.3826 167.524 55.7482 168.422 55.2993C169.339 54.8504 170.345 54.6259 171.438 54.6259ZM188.701 50.5564C190.926 50.5564 192.849 50.976 194.469 51.8153C196.108 52.6351 197.357 53.8159 198.216 55.3578C199.094 56.8998 199.534 58.715 199.534 60.8034C199.534 62.8919 199.094 64.7071 198.216 66.249C197.357 67.7714 196.108 68.9425 194.469 69.7623C192.849 70.5625 190.926 70.9626 188.701 70.9626H182.348V50.5564H188.701ZM188.701 68.7668C191.336 68.7668 193.346 68.074 194.732 66.6882C196.118 65.2829 196.811 63.3213 196.811 60.8034C196.811 58.2661 196.108 56.285 194.703 54.8601C193.317 53.4353 191.316 52.7229 188.701 52.7229H185.012V68.7668H188.701ZM204.424 52.313C203.916 52.313 203.487 52.1373 203.136 51.786C202.784 51.4347 202.609 51.0053 202.609 50.4978C202.609 49.9903 202.784 49.5609 203.136 49.2096C203.487 48.8583 203.916 48.6826 204.424 48.6826C204.912 48.6826 205.322 48.8583 205.653 49.2096C206.005 49.5609 206.18 49.9903 206.18 50.4978C206.18 51.0053 206.005 51.4347 205.653 51.786C205.322 52.1373 204.912 52.313 204.424 52.313ZM205.712 54.9187V70.9626H203.048V54.9187H205.712ZM218.07 54.6259C220.022 54.6259 221.603 55.2212 222.813 56.4118C224.023 57.5829 224.628 59.281 224.628 61.5061V70.9626H221.993V61.8867C221.993 60.2862 221.593 59.0663 220.793 58.227C219.992 57.3682 218.899 56.9388 217.513 56.9388C216.108 56.9388 214.986 57.378 214.147 58.2563C213.327 59.1346 212.917 60.4131 212.917 62.0916V70.9626H210.253V54.9187H212.917V57.2023C213.444 56.3826 214.156 55.7482 215.054 55.2993C215.972 54.8504 216.977 54.6259 218.07 54.6259Z" fill="url(#paint3_linear_100_3332)"/>
<defs>
<linearGradient id="paint0_linear_100_3332" x1="64.0318" y1="50.5588" x2="19.4006" y2="6.62998" gradientUnits="userSpaceOnUse">
<stop stop-color="#4617C0"/>
<stop offset="1" stop-color="#B00093"/>
</linearGradient>
<linearGradient id="paint1_linear_100_3332" x1="96.5039" y1="58.521" x2="111.487" y2="56.0088" gradientUnits="userSpaceOnUse">
<stop stop-color="#4617C0"/>
<stop offset="1" stop-color="#B00093"/>
</linearGradient>
<linearGradient id="paint2_linear_100_3332" x1="81.7638" y1="57.5749" x2="141.717" y2="38.9921" gradientUnits="userSpaceOnUse">
<stop stop-color="#4617C0"/>
<stop offset="1" stop-color="#B00093"/>
</linearGradient>
<linearGradient id="paint3_linear_100_3332" x1="150.507" y1="70.2586" x2="207.812" y2="19.6638" gradientUnits="userSpaceOnUse">
<stop stop-color="#4617C0"/>
<stop offset="1" stop-color="#B00093"/>
</linearGradient>
</defs>
</svg>
