<svg width="263" height="56" viewBox="0 0 263 56" fill="none" xmlns="http://www.w3.org/2000/svg">
<g clip-path="url(#clip0_89_3213)">
<path fill-rule="evenodd" clip-rule="evenodd" d="M27.2949 41.406C36.1283 41.406 43.2891 34.2452 43.2891 25.4119C43.2891 16.5786 36.1283 9.41772 27.2949 9.41772C18.4616 9.41772 11.3008 16.5786 11.3008 25.4119C11.3008 34.2452 18.4616 41.406 27.2949 41.406ZM32.3237 20.8853C32.1919 21.5514 31.9426 22.1886 31.5873 22.7672C31.0056 23.6676 30.1635 24.3693 29.173 24.7791C28.2405 25.123 27.2326 25.2094 26.2552 25.0292C25.4781 24.8396 24.7483 24.4919 24.1113 24.0079C23.4484 23.4401 22.9234 22.7288 22.5763 21.9279C22.3451 21.2991 22.2285 20.6339 22.232 19.9639C22.238 19.2818 22.3842 18.6083 22.6615 17.9852C22.9388 17.362 23.3413 16.8026 23.844 16.3416C24.3469 15.8697 24.9415 15.5062 25.5907 15.2737C26.2399 15.0411 26.93 14.9444 27.6182 14.9896C28.1482 15.0321 28.6707 15.142 29.173 15.3167C29.75 15.5733 30.284 15.9176 30.7558 16.3374C31.0375 16.6243 31.3017 16.9276 31.5473 17.2459C31.9102 17.8374 32.1646 18.4889 32.2987 19.1699C32.3856 19.7392 32.394 20.3178 32.3237 20.8895V20.8853ZM35.6395 32.0388C35.9309 31.7422 36.0982 31.3458 36.1075 30.9302V30.9291C36.0873 30.8017 36.0654 30.6764 36.0353 30.5521C35.8586 29.863 35.6057 29.1957 35.2813 28.5626C34.9211 27.9444 34.5112 27.3566 34.0556 26.805C33.9947 26.7435 33.9349 26.6808 33.8751 26.6182C33.751 26.4882 33.627 26.3584 33.494 26.2387C33.1389 25.8126 32.6498 25.5193 32.1067 25.4067C31.7497 25.4289 31.4067 25.5535 31.1187 25.7655C30.0039 26.5487 28.6693 26.9578 27.3071 26.934C26.5128 26.9551 25.7224 26.8159 24.9832 26.5247C24.4667 26.3631 23.9795 26.1196 23.5402 25.8035C23.3427 25.6544 23.1239 25.5357 22.8912 25.4515C22.6941 25.406 22.4894 25.4046 22.2917 25.4473C22.0939 25.49 21.908 25.5758 21.7472 25.6985C21.2098 26.1127 20.7228 26.5887 20.2964 27.1165C19.6978 27.8719 19.2118 28.71 18.8534 29.6047C18.8297 29.6788 18.8062 29.7529 18.7827 29.827C18.7152 30.04 18.6479 30.2527 18.5742 30.4637C18.4624 30.7514 18.4536 31.0689 18.5492 31.3623C18.714 31.7089 18.9312 32.0281 19.193 32.3087C19.6573 32.7601 20.129 33.2047 20.6334 33.6087C21.3107 34.0966 22.0299 34.5234 22.7825 34.8843C23.9044 35.3709 25.095 35.6807 26.3118 35.8026C27.2718 35.8798 28.2376 35.8381 29.1874 35.6783C30.0524 35.521 30.8983 35.2724 31.7109 34.9368C31.7832 34.8993 31.8555 34.8619 31.9304 34.8271C33.3463 34.1642 34.6093 33.2148 35.6395 32.0388Z" fill="#EA723C"/>
<path d="M37.9087 38.0028L45.6988 46.5823" stroke="#EA723C" stroke-width="4" stroke-miterlimit="10" stroke-linecap="round"/>
<path d="M2.5 14.9839V2H15.4792" stroke="#EA723C" stroke-width="4" stroke-linecap="round" stroke-linejoin="round"/>
<path d="M15.4792 54.0001H2.5V41.0209" stroke="#EA723C" stroke-width="4" stroke-linecap="round" stroke-linejoin="round"/>
<path d="M54.5002 41.0209V54.0001H41.5164" stroke="#EA723C" stroke-width="4" stroke-linecap="round" stroke-linejoin="round"/>
<path d="M41.5164 2H54.5002V14.9839" stroke="#EA723C" stroke-width="4" stroke-linecap="round" stroke-linejoin="round"/>
<g opacity="0.8">
<path d="M164.65 52.724V47.6389H160.053V52.724H158.616V42.2018H160.053V46.4174H164.65V42.2018H166.088V52.724H164.65Z" fill="#EA723C"/>
<path d="M169.238 52.7234V46.1802H168.182V45.031H170.602V52.7239L169.238 52.7234ZM169.984 42.1211C170.151 42.1201 170.315 42.169 170.455 42.2615C170.594 42.354 170.703 42.4859 170.767 42.6404C170.831 42.795 170.848 42.9652 170.815 43.1293C170.783 43.2934 170.702 43.4441 170.583 43.562C170.505 43.6418 170.412 43.705 170.309 43.7478C170.206 43.7905 170.095 43.8119 169.984 43.8106C169.873 43.8123 169.763 43.7911 169.661 43.7483C169.559 43.7055 169.467 43.6421 169.391 43.562C169.271 43.4451 169.19 43.2952 169.156 43.1315C169.122 42.9679 169.138 42.7979 169.202 42.6434C169.265 42.4888 169.373 42.3567 169.512 42.264C169.651 42.1712 169.815 42.122 169.982 42.1227L169.984 42.1211Z" fill="#EA723C"/>
<path d="M177.393 46.3445C177.133 46.1512 176.82 46.0431 176.496 46.0351C176.248 46.0401 176.004 46.1031 175.784 46.219C175.564 46.3349 175.374 46.5006 175.229 46.7027C174.863 47.1588 174.671 47.7301 174.687 48.3148V52.7238H173.322V45.0289H174.687V46.2566C174.884 45.8376 175.198 45.4849 175.592 45.2412C175.986 44.9975 176.442 44.8733 176.905 44.8838C177.26 44.8965 177.613 44.9397 177.96 45.0127L177.392 46.3424L177.393 46.3445Z" fill="#EA723C"/>
<path d="M185.849 49.0096H180.304C180.279 49.3877 180.332 49.767 180.46 50.1239C180.587 50.4808 180.786 50.8079 181.044 51.0849C181.268 51.2968 181.532 51.4618 181.821 51.5704C182.109 51.679 182.416 51.7289 182.724 51.7173C183.438 51.7415 184.135 51.4978 184.679 51.034L185.251 52.0189C184.971 52.2691 184.64 52.4555 184.281 52.5654C183.696 52.7735 183.078 52.8756 182.457 52.867C182.001 52.8765 181.548 52.7942 181.125 52.625C180.702 52.4558 180.317 52.2031 179.993 51.8821C179.612 51.5018 179.315 51.0458 179.121 50.5437C178.927 50.0415 178.84 49.5043 178.866 48.9665C178.844 48.4061 178.936 47.8472 179.134 47.3228C179.333 46.7985 179.635 46.3194 180.023 45.9141C180.339 45.5851 180.72 45.3243 181.141 45.1475C181.562 44.9707 182.015 44.8818 182.472 44.886C182.942 44.8593 183.412 44.9275 183.855 45.0866C184.298 45.2458 184.705 45.4925 185.05 45.8121C185.356 46.1227 185.593 46.4929 185.749 46.8996C185.905 47.3062 185.975 47.7406 185.955 48.1755C185.958 48.4565 185.922 48.7366 185.848 49.0075L185.849 49.0096ZM182.538 46.0352C181.988 46.0231 181.454 46.2217 181.046 46.5904C180.637 46.9591 180.385 47.47 180.341 48.0185H184.6C184.616 47.5089 184.43 47.0137 184.083 46.64C183.883 46.4358 183.642 46.2765 183.376 46.1725C183.109 46.0685 182.824 46.0223 182.538 46.0368V46.0352Z" fill="#EA723C"/>
<path d="M189.407 50.7049C189.548 50.7048 189.688 50.7326 189.819 50.7867C189.949 50.8408 190.068 50.9201 190.168 51.0201C190.268 51.1201 190.348 51.2389 190.402 51.3696C190.456 51.5003 190.484 51.6403 190.483 51.7818C190.485 51.924 190.458 52.0652 190.404 52.1967C190.35 52.3283 190.27 52.4475 190.168 52.5472C190.069 52.6482 189.95 52.7285 189.82 52.7832C189.689 52.838 189.549 52.8662 189.407 52.8662C189.265 52.8662 189.125 52.838 188.994 52.7832C188.863 52.7285 188.745 52.6482 188.645 52.5472C188.443 52.3443 188.33 52.0698 188.33 51.7836C188.33 51.4974 188.443 51.2229 188.645 51.02C188.744 50.9181 188.862 50.8376 188.993 50.7834C189.124 50.7292 189.265 50.7025 189.407 50.7049Z" fill="#EA723C"/>
<path d="M203.821 52.7234L203.093 50.5051H199.179L198.404 52.7234H196.792L201.066 42.0562H201.446L205.411 52.7234H203.821ZM201.194 44.8153L199.563 49.448H202.688L201.194 44.8153Z" fill="#EA723C"/>
<path d="M212.66 45.6555L211.984 46.619C211.769 46.4374 211.518 46.3026 211.248 46.2233C210.914 46.1019 210.562 46.0389 210.208 46.0371C209.873 46.0228 209.539 46.0857 209.233 46.221C208.926 46.3562 208.655 46.5602 208.44 46.8171C207.973 47.4282 207.741 48.186 207.785 48.9533C207.733 49.6998 207.972 50.4376 208.453 51.0109C208.695 51.2527 208.984 51.4407 209.304 51.5625C209.623 51.6843 209.964 51.7371 210.305 51.7176C210.985 51.6934 211.637 51.4432 212.158 51.0068L212.696 52.156C211.877 52.6532 210.931 52.9002 209.974 52.8668C209.491 52.8842 209.009 52.7991 208.561 52.6172C208.113 52.4352 207.709 52.1606 207.374 51.8112C207.021 51.4269 206.748 50.976 206.572 50.4849C206.395 49.9938 206.318 49.4724 206.346 48.9512C206.299 47.865 206.683 46.804 207.413 45.9987C207.965 45.4761 208.652 45.1184 209.396 44.9658C210.14 44.8133 210.912 44.8721 211.625 45.1355C211.992 45.2538 212.339 45.4282 212.653 45.6523L212.66 45.6555Z" fill="#EA723C"/>
<path d="M220.384 45.6555L219.708 46.619C219.493 46.4374 219.242 46.3026 218.972 46.2233C218.638 46.1019 218.287 46.0389 217.932 46.0371C217.597 46.0228 217.263 46.0857 216.957 46.221C216.65 46.3562 216.379 46.5602 216.164 46.8171C215.697 47.4282 215.465 48.186 215.51 48.9533C215.457 49.6998 215.696 50.4376 216.177 51.0109C216.419 51.2527 216.709 51.4406 217.028 51.5624C217.347 51.6842 217.688 51.7371 218.029 51.7176C218.709 51.6934 219.361 51.4432 219.882 51.0068L220.42 52.156C219.601 52.6532 218.655 52.9002 217.698 52.8668C217.215 52.8842 216.733 52.7991 216.285 52.6172C215.837 52.4353 215.433 52.1606 215.098 51.8112C214.745 51.4269 214.472 50.976 214.296 50.4849C214.119 49.9938 214.043 49.4724 214.07 48.9512C214.023 47.865 214.407 46.804 215.137 45.9987C215.689 45.4761 216.376 45.1184 217.12 44.9658C217.864 44.8133 218.637 44.8721 219.349 45.1355C219.717 45.2538 220.063 45.4282 220.377 45.6523L220.384 45.6555Z" fill="#EA723C"/>
<path d="M223.599 45.031V49.9357C223.599 51.124 224.114 51.7179 225.144 51.7172C225.586 51.7196 226.018 51.584 226.38 51.3292C226.716 51.1168 226.976 50.8018 227.12 50.4307V45.0289H228.484V52.7218H227.12V51.6584C226.902 52.0213 226.581 52.311 226.198 52.4904C225.785 52.7291 225.319 52.8591 224.843 52.8684C224.487 52.892 224.13 52.8393 223.796 52.7137C223.462 52.5882 223.158 52.3927 222.906 52.1404C222.426 51.5649 222.185 50.8267 222.234 50.0786V45.0289H223.599L223.599 45.031Z" fill="#EA723C"/>
<path d="M234.965 46.3445C234.705 46.1511 234.392 46.043 234.068 46.0351C233.819 46.0401 233.575 46.1031 233.356 46.219C233.136 46.3349 232.946 46.5006 232.801 46.7027C232.435 47.1588 232.243 47.7301 232.259 48.3148V52.7238H230.894V45.0289H232.259V46.2566C232.456 45.8376 232.771 45.4849 233.164 45.2412C233.558 44.9975 234.014 44.8733 234.477 44.8838C234.832 44.8965 235.185 44.9397 235.532 45.0127L234.964 46.3424L234.965 46.3445Z" fill="#EA723C"/>
<path d="M241.287 51.8405C240.978 52.1956 240.591 52.4736 240.156 52.6521C239.721 52.8306 239.25 52.9048 238.781 52.8685C238.488 52.8709 238.198 52.8139 237.928 52.7008C237.658 52.5877 237.414 52.421 237.211 52.2107C236.994 51.9985 236.823 51.7437 236.709 51.4624C236.594 51.1811 236.539 50.8793 236.547 50.5759C236.548 50.1883 236.642 49.8066 236.82 49.4623C236.998 49.118 237.255 48.8211 237.571 48.5962C238.322 48.0353 239.244 47.7498 240.181 47.7876C240.514 47.7965 240.844 47.8593 241.158 47.9738C241.158 46.7286 240.603 46.1059 239.494 46.1059C239.136 46.0825 238.778 46.1314 238.44 46.2498C238.102 46.3682 237.791 46.5536 237.526 46.7949L236.954 45.6509C237.276 45.4071 237.64 45.2234 238.027 45.1086C238.449 44.9635 238.891 44.8868 239.337 44.8813C240.453 44.8813 241.263 45.1353 241.768 45.6431C242.274 46.151 242.526 46.9577 242.526 48.0632V50.8223C242.492 51.0814 242.53 51.345 242.636 51.5838C242.743 51.8225 242.913 52.0269 243.129 52.1743V52.8576C242.7 52.8843 242.271 52.8028 241.881 52.6205C241.591 52.4443 241.379 52.1643 241.288 51.8374L241.287 51.8405ZM241.158 48.9446C240.862 48.8688 240.559 48.8209 240.253 48.8016C239.646 48.7757 239.049 48.9633 238.565 49.332C238.366 49.476 238.203 49.6647 238.089 49.8829C237.976 50.1011 237.915 50.3429 237.911 50.5889C237.911 51.3862 238.383 51.7863 239.327 51.789C239.687 51.7789 240.041 51.6846 240.359 51.5136C240.677 51.3426 240.95 51.0996 241.157 50.8041V48.9441L241.158 48.9446Z" fill="#EA723C"/>
<path d="M245.6 46.1075H244.709V45.0306H245.6V43.4186L246.965 42.8939V45.0259H249.078V46.1028H246.965V49.9248C246.922 50.4076 247.037 50.8913 247.292 51.3034C247.424 51.4482 247.588 51.5605 247.77 51.6315C247.952 51.7025 248.149 51.7303 248.344 51.7126C248.721 51.7064 249.091 51.6155 249.428 51.4464L249.63 52.6465C249.022 52.7949 248.397 52.8672 247.77 52.8618C247.48 52.8661 247.191 52.8076 246.926 52.6903C246.66 52.573 246.422 52.3997 246.229 52.1822C245.805 51.7148 245.579 51.1 245.601 50.4688V46.1008L245.6 46.1075Z" fill="#EA723C"/>
<path d="M257.863 49.0096H252.318C252.293 49.3877 252.346 49.767 252.473 50.1239C252.601 50.4808 252.8 50.8079 253.058 51.0849C253.282 51.2968 253.546 51.4618 253.835 51.5704C254.123 51.679 254.43 51.7289 254.738 51.7173C255.452 51.7415 256.149 51.4978 256.693 51.034L257.265 52.0189C256.985 52.2691 256.654 52.4556 256.295 52.5654C255.71 52.7735 255.092 52.8756 254.471 52.867C254.015 52.8765 253.562 52.7942 253.139 52.625C252.716 52.4558 252.331 52.2031 252.007 51.8821C251.626 51.5018 251.329 51.0458 251.135 50.5437C250.941 50.0415 250.854 49.5043 250.879 48.9665C250.858 48.4061 250.949 47.8472 251.148 47.3228C251.347 46.7985 251.649 46.3194 252.036 45.9141C252.353 45.5851 252.734 45.3242 253.155 45.1474C253.577 44.9706 254.029 44.8817 254.486 44.886C254.956 44.8593 255.427 44.9275 255.87 45.0866C256.313 45.2458 256.719 45.4925 257.065 45.8121C257.37 46.1227 257.608 46.4929 257.764 46.8996C257.919 47.3062 257.989 47.7406 257.97 48.1755C257.973 48.4565 257.937 48.7366 257.862 49.0075L257.863 49.0096ZM254.552 46.0373C254.002 46.0252 253.468 46.2238 253.06 46.5925C252.651 46.9612 252.399 47.4721 252.355 48.0206H256.614C256.63 47.511 256.444 47.0158 256.097 46.6421C255.897 46.4379 255.656 46.2786 255.389 46.1746C255.123 46.0706 254.838 46.0244 254.552 46.0389V46.0373Z" fill="#EA723C"/>
<path d="M261.423 50.7049C261.564 50.7048 261.704 50.7326 261.835 50.7867C261.966 50.8408 262.085 50.9201 262.185 51.0201C262.285 51.1201 262.364 51.2389 262.418 51.3696C262.472 51.5003 262.5 51.6403 262.5 51.7818C262.502 51.924 262.475 52.0652 262.421 52.1967C262.366 52.3283 262.286 52.4475 262.185 52.5472C262.085 52.6482 261.967 52.7285 261.836 52.7832C261.705 52.838 261.565 52.8662 261.423 52.8662C261.281 52.8662 261.141 52.838 261.01 52.7832C260.88 52.7285 260.761 52.6482 260.662 52.5472C260.46 52.3443 260.346 52.0698 260.346 51.7836C260.346 51.4974 260.46 51.2229 260.662 51.02C260.76 50.9181 260.879 50.8376 261.01 50.7834C261.141 50.7292 261.281 50.7025 261.423 50.7049Z" fill="#EA723C"/>
</g>
<path d="M105.197 14.9641L102.851 19.0622C101.565 17.8489 99.841 17.2422 97.6802 17.2422C95.5185 17.2422 93.9658 17.9333 92.7599 19.3139C91.5541 20.6945 90.9529 22.6055 90.9529 25.0448C90.9529 29.9675 93.298 32.4288 97.988 32.4288C99.9662 32.4487 101.881 31.7296 103.356 30.4123L105.373 34.7283C104.095 35.5824 102.684 36.2195 101.199 36.6138C99.8107 36.8954 98.3967 37.0273 96.9808 37.0074C93.3567 37.0074 90.4967 35.952 88.4008 33.8411C86.3048 31.7303 85.2567 28.7973 85.2563 25.0422C85.2563 21.2868 86.4035 18.3576 88.6967 16.0785C90.9899 13.7993 94.1145 12.6636 98.0728 12.6636C100.638 12.6088 103.148 13.4191 105.197 14.9641Z" fill="#EA723C"/>
<path d="M122.811 34.2269C122.179 35.1527 121.271 35.8546 120.215 36.2321C118.991 36.7484 117.676 37.0128 116.348 37.0095C113.82 37.0095 111.833 36.3777 110.388 35.1141C108.942 33.8505 108.219 32.057 108.218 29.7336C108.167 28.5017 108.419 27.276 108.952 26.1641C109.485 25.0522 110.282 24.088 111.275 23.3563C113.313 21.8234 116.209 21.0566 119.964 21.0559C120.735 21.0737 121.5 21.1842 122.244 21.385C122.244 18.6242 120.498 17.2437 117.006 17.2437C115.226 17.1853 113.457 17.5378 111.835 18.2739L110.653 14.0229C112.765 13.0692 115.064 12.6047 117.381 12.6641C120.96 12.6641 123.582 13.4788 125.248 15.1081C126.913 16.7374 127.745 19.8238 127.744 24.3672V29.3857C127.744 32.5127 128.372 34.4778 129.629 35.281C129.321 35.9354 128.783 36.4536 128.118 36.737C127.5 36.9285 126.857 37.021 126.211 37.011C125.414 37.0085 124.651 36.6935 124.084 36.1338C123.502 35.6196 123.064 34.9623 122.814 34.2269H122.811ZM122.287 25.5258C121.596 25.3673 120.892 25.2723 120.184 25.2419C115.859 25.2419 113.697 26.6589 113.697 29.4929C113.697 31.5957 114.917 32.6479 117.357 32.6493C120.644 32.6493 122.288 31.0059 122.287 27.7191V25.5284V25.5258Z" fill="#EA723C"/>
<path d="M148.759 36.5707V23.0055C148.759 21.0045 148.376 19.5438 147.608 18.6234C146.841 17.703 145.588 17.2428 143.85 17.2428C142.951 17.2677 142.07 17.5003 141.276 17.9225C140.443 18.312 139.711 18.8898 139.14 19.6104V36.5733H133.662V13.1021H137.607L138.615 15.2928C140.106 13.5404 142.305 12.6639 145.211 12.6632C148.119 12.6632 150.203 13.4994 151.815 15.1712C153.427 16.843 154.237 19.1752 154.237 22.173V36.5697H148.76L148.759 36.5707Z" fill="#EA723C"/>
<path d="M157.063 36.57V34.906L167.231 19.9394C169.261 16.9439 170.277 14.4239 170.277 12.3796C170.277 9.95297 168.824 8.73964 165.917 8.73964C163.698 8.73964 161.909 9.91571 160.548 12.2678L156.713 9.243C157.522 7.65577 158.765 6.33001 160.296 5.41892C161.915 4.40615 163.789 3.87765 165.698 3.89584C168.986 3.89584 171.557 4.64447 173.412 6.14172C175.268 7.63897 176.195 9.71707 176.195 12.376C176.195 14.8155 175.005 17.8542 172.624 21.4921L166.049 31.5073H178.102V36.5685H157.063V36.57Z" fill="#EA723C"/>
<path d="M197.043 36.5702V22.1069C197.072 21.4636 196.966 20.8214 196.732 20.2215C196.498 19.6216 196.141 19.0771 195.685 18.6229C195.21 18.1785 194.652 17.8333 194.042 17.6074C193.433 17.3815 192.784 17.2795 192.135 17.3073C191.175 17.3213 190.233 17.5736 189.395 18.0415C188.603 18.4189 187.924 18.9967 187.423 19.7175V36.5696H181.859V4.35564L187.423 3.04004V14.5882C188.841 13.3017 190.791 12.6588 193.274 12.6595C196.211 12.6595 198.49 13.4742 200.111 15.1035C201.732 16.7329 202.543 19.0668 202.543 22.1053V36.5686H197.043V36.5702Z" fill="#EA723C"/>
<path d="M209.928 36.5702V17.5949H205.411V13.1021H215.473V36.5722H209.928V36.5702Z" fill="#EA723C"/>
<path d="M235.414 18.2062C234.46 17.5714 233.338 17.2359 232.193 17.2427C231.535 17.2577 230.888 17.4211 230.302 17.7209C229.716 18.0206 229.205 18.4489 228.808 18.9738C227.812 20.1538 227.285 21.6594 227.329 23.2029V36.57H221.851V13.0998H227.329V15.248C228.094 14.3927 229.039 13.7174 230.097 13.2702C231.154 12.823 232.297 12.6152 233.443 12.6615C235.313 12.6615 236.745 12.9461 237.739 13.5153L235.417 18.2047H235.413L235.414 18.2062Z" fill="#EA723C"/>
<path d="M261.973 26.5118H245.209C245.213 27.3323 245.386 28.1431 245.718 28.8935C246.049 29.6438 246.533 30.3174 247.138 30.872C248.32 31.9096 249.913 32.4283 251.915 32.4283C254.413 32.4283 256.313 31.7783 257.613 30.4783L259.739 34.6643C257.81 36.2268 254.933 37.0087 251.107 37.0101C247.528 37.0101 244.697 35.9619 242.615 33.8656C240.534 31.7693 239.493 28.8442 239.492 25.0901C239.492 21.3367 240.636 18.3998 242.924 16.105C243.987 14.9997 245.265 14.1241 246.68 13.5325C248.094 12.9408 249.615 12.6457 251.149 12.6652C254.551 12.6652 257.283 13.6808 259.345 15.7119C260.366 16.7223 261.168 17.933 261.7 19.2679C262.232 20.6028 262.482 22.0331 262.435 23.4693C262.384 24.4977 262.23 25.5185 261.974 26.5159V26.5118H261.973ZM245.407 22.3923H256.934C256.552 18.9603 254.653 17.2443 251.236 17.2443C248.109 17.2433 246.166 18.9593 245.407 22.3923Z" fill="#EA723C"/>
<path d="M82.3059 27.1113C81.9233 26.205 81.3519 25.3906 80.6299 24.7224C79.5994 23.8532 78.452 23.133 77.2213 22.5826C73.8262 20.928 73.3213 19.7299 73.3213 19.1642C73.3114 18.903 73.3556 18.6427 73.4509 18.3994C73.5463 18.1561 73.6909 17.9351 73.8756 17.7503C74.3415 17.3551 74.9447 17.1601 75.5537 17.2079C77.0135 17.2267 78.4295 17.7095 79.5967 18.5864L80.3132 19.0997L81.9736 14.3906L81.6054 14.0968C80.2565 13.0198 78.2514 12.4972 75.4772 12.4972C73.5217 12.4265 71.6122 13.1012 70.1353 14.3848C69.4509 14.9835 68.9058 15.7247 68.5385 16.5565C68.1712 17.3883 67.9904 18.2904 68.009 19.1995C67.9986 20.1591 68.1804 21.111 68.5436 21.9992C68.893 22.838 69.4178 23.5924 70.0827 24.2118C71.1936 25.1083 72.4142 25.8597 73.715 26.4478C75.743 27.4639 76.5656 28.1804 76.9026 28.6037C77.3305 29.0986 77.5722 29.7275 77.5858 30.3816C77.5858 30.9162 77.5858 32.1714 74.7409 32.1714C73.1951 32.1129 71.7054 31.5766 70.4769 30.6364L69.2138 29.8299L66.3726 33.9966L68.2659 35.3065C70.0641 36.4575 72.1593 37.0584 74.2942 37.0355C76.8516 37.0355 78.9326 36.3912 80.4822 35.1224C81.2421 34.5314 81.8542 33.7719 82.2702 32.9037C82.6861 32.0356 82.8945 31.0826 82.8789 30.12C82.8924 29.0892 82.6978 28.0663 82.3069 27.1124L82.3059 27.1113Z" fill="#EA723C"/>
<path d="M211.356 10.3117C212.283 10.3101 213.171 9.94033 213.825 9.28379C214.48 8.62724 214.847 7.73767 214.845 6.81075C214.843 5.88384 214.474 4.99553 213.817 4.34123C213.161 3.68692 212.271 3.32023 211.344 3.32182C210.88 3.31476 210.419 3.40017 209.989 3.57307C209.558 3.74597 209.166 4.00289 208.836 4.32886C208.505 4.65482 208.243 5.04329 208.065 5.47162C207.886 5.89994 207.795 6.35954 207.795 6.82361C207.796 7.28768 207.89 7.74693 208.07 8.17456C208.25 8.60219 208.514 8.98965 208.845 9.31433C209.177 9.63901 209.57 9.89441 210.001 10.0656C210.432 10.2369 210.894 10.3205 211.358 10.3117H211.356Z" fill="#EA723C"/>
</g>
<defs>
<clipPath id="clip0_89_3213">
<rect width="263" height="56" fill="white"/>
</clipPath>
</defs>
</svg>
