<svg width="137" height="93" viewBox="0 0 137 93" fill="none" xmlns="http://www.w3.org/2000/svg">
<path d="M11.0211 51.5909C12.8678 51.5909 14.6016 51.3513 16.1747 50.8781C17.786 50.3934 19.1897 49.6517 20.3454 48.6733C21.507 47.6891 22.4256 46.4695 23.077 45.0481C23.7259 43.6292 24.0544 41.984 24.0544 40.1573C24.0544 38.439 23.7421 36.9709 23.1251 35.7929C22.5196 34.6391 21.7244 33.6566 20.7615 32.8728C19.8246 32.112 18.7719 31.4896 17.6311 31.0236C16.5678 30.5895 15.5194 30.1787 14.4889 29.793C13.7289 29.5084 12.9928 29.2237 12.2806 28.94C11.6304 28.6796 11.0573 28.3835 10.5761 28.0585C10.1476 27.7692 9.80719 27.4319 9.5638 27.053C9.34893 26.7212 9.24469 26.3279 9.24469 25.8504C9.24469 25.3274 9.34595 24.915 9.54635 24.6248C9.77782 24.2901 10.065 24.0314 10.4242 23.8338C10.8233 23.6159 11.2785 23.4587 11.7764 23.3666C13.6711 23.0203 15.3765 23.268 16.9831 23.988C18.1788 24.5263 19.1548 25.0938 19.8833 25.6758L20.6032 26.2514L21.2376 25.5832C21.9095 24.8772 22.4409 24.1465 22.8166 23.4124C23.2298 22.6083 23.431 21.9498 23.431 21.4006C23.431 20.5327 23.114 19.3059 21.6861 18.4448C21.3738 18.2111 20.9517 17.9673 20.3951 17.698C19.8552 17.4384 19.1961 17.1869 18.4349 16.9499C17.6788 16.7154 16.8151 16.5124 15.8671 16.3458C14.9033 16.1776 13.8532 16.0918 12.7456 16.0918C11.1249 16.0918 9.56381 16.3059 8.10437 16.7299C6.62195 17.1602 5.2893 17.8093 4.14345 18.658C2.96866 19.5289 2.03173 20.6355 1.35689 21.9473C0.679085 23.265 0.335714 24.7871 0.335714 26.4723C0.335714 28.2187 0.637811 29.6995 1.23478 30.8732C1.82408 32.0325 2.59849 33.0032 3.53585 33.7585C4.4413 34.49 5.47141 35.0881 6.59726 35.5367C7.64227 35.9547 8.69835 36.3473 9.734 36.702C10.5531 36.9853 11.3343 37.2687 12.0755 37.552C12.7482 37.8099 13.3456 38.1178 13.8502 38.4683C14.314 38.7899 14.6761 39.1692 14.9565 39.6267C15.2088 40.0392 15.3369 40.5719 15.3369 41.21C15.3369 41.8225 15.222 42.3276 14.9961 42.7121C14.751 43.128 14.4502 43.4529 14.0757 43.7057C13.68 43.9737 13.2158 44.1751 12.6933 44.3051C11.3743 44.6339 9.9008 44.5506 8.72388 44.2575C8.01799 44.0808 7.3606 43.8527 6.76831 43.5778C6.16752 43.3009 5.61012 42.9891 5.11187 42.6522C4.59064 42.3005 4.11068 41.953 3.68519 41.6182L2.88399 40.9882L2.26618 41.7983C1.73048 42.5005 1.22882 43.2635 0.775673 44.0676C0.253593 44.9946 0 45.7962 0 46.5204C0 47.1827 0.193601 47.7834 0.575268 48.3059C0.899494 48.7515 1.30796 49.1398 1.82919 49.4847C2.54359 49.9125 3.63031 50.3581 5.15272 50.8471C6.68619 51.3403 8.66005 51.5909 11.0211 51.5909Z" fill="black"/>
<path d="M55.8669 17.3825C55.3461 17.0409 54.7695 16.8069 54.1517 16.6858C53.2577 16.5112 52.5182 16.4832 51.6996 16.5792L49.2219 16.8795V29.7791H39.1033V21.272C39.1033 20.3013 38.9242 19.4904 38.5706 18.8608C38.2238 18.2427 37.7715 17.7465 37.2265 17.3867C36.7065 17.0431 36.1287 16.8077 35.5087 16.6875C34.6811 16.5252 33.911 16.4662 33.0404 16.5817L30.5781 16.868V45.1387C30.5781 48.2491 33.1128 50.7797 36.2282 50.7797H39.1033V36.9026H49.2219V45.1383C49.2219 48.2487 51.7562 50.7792 54.8716 50.7792H57.7467V21.2584C57.7467 20.2907 57.5676 19.481 57.2136 18.8531C56.8672 18.238 56.4149 17.7436 55.8669 17.3825Z" fill="black"/>
<path d="M70.0864 50.7794H74.2805V21.0877C74.2805 18.7033 72.3377 16.7637 69.949 16.7637H65.7549V46.4557C65.7549 48.8393 67.6977 50.7794 70.0864 50.7794Z" fill="black"/>
<path d="M104.604 17.5381L104.454 16.7148H82.5312V45.1376C82.5312 48.248 85.0659 50.7785 88.1814 50.7785H91.0564V36.4236H95.2301C98.6106 36.4236 101.361 33.6768 101.361 30.3017V29.2996H91.0564V23.8388H99.8782C101.668 23.8388 102.911 23.414 103.677 22.5393C104.398 21.7161 104.764 20.6893 104.764 19.4875C104.764 19.1107 104.755 18.793 104.737 18.5343C104.719 18.2658 104.676 17.9332 104.604 17.5381Z" fill="black"/>
<path d="M136.289 17.5751L136.166 16.7148H112.77C111.003 16.7148 109.691 17.1936 108.873 18.1371C108.089 19.0385 107.693 20.0568 107.693 21.1621C107.693 21.5389 107.702 21.8635 107.72 22.1328C107.736 22.3974 107.774 22.7224 107.837 23.1107V24.078H117.854V45.1376C117.854 48.248 120.388 50.7785 123.503 50.7785H126.475V24.078H131.509C132.377 24.078 133.099 23.962 133.717 23.7237C134.332 23.4858 134.854 23.1663 135.268 22.7734C135.71 22.3541 136.024 21.8584 136.204 21.2993C136.363 20.8032 136.443 20.2904 136.443 19.7747C136.443 19.0262 136.392 18.2858 136.289 17.5751Z" fill="black"/>
<path d="M23.8974 86.3333C23.4897 85.9051 22.9532 85.5645 22.3009 85.3198C21.6708 85.0836 20.9278 84.9693 20.0313 84.9693H10.7786V78.1211H19.5514C21.4235 78.1211 22.9468 76.6011 22.9468 74.7316V74.3862C22.9468 72.5179 21.4235 70.9967 19.5514 70.9967H10.7786V65.1059H19.2169C21.0721 65.1059 22.3516 64.7389 23.1268 63.9853C23.9012 63.2343 24.2943 62.1472 24.2943 60.7547C24.2943 60.3775 24.2854 60.0606 24.268 59.7997C24.2492 59.5317 24.2058 59.1999 24.1348 58.8057L23.9846 57.9824H2.15723V92.0461H24.8139L24.9113 91.1523C24.9441 90.8511 24.9696 90.575 24.9879 90.3201C25.0045 90.0635 25.0139 89.7462 25.0139 89.3694C25.0139 88.8588 24.9343 88.3422 24.7769 87.8295C24.6033 87.2679 24.308 86.7654 23.8974 86.3333Z" fill="#00A551"/>
<path d="M40.6235 67.7987C41.206 66.8849 41.9884 66.1317 42.9488 65.5612C43.8891 65.0035 45.0958 64.721 46.5344 64.721C47.3645 64.721 48.1211 64.8136 48.7819 64.995C49.4648 65.1853 50.0792 65.4172 50.6042 65.687C51.1276 65.9567 51.6067 66.2694 52.0258 66.6177C52.4815 66.9979 52.8951 67.3709 53.2534 67.7286L53.9427 68.4172L54.652 67.7485C55.2677 67.1695 55.8378 66.5306 56.3476 65.8509C56.9581 65.0387 57.267 64.1925 57.267 63.3357C57.267 62.7427 57.116 62.1853 56.8152 61.6768C56.5548 61.2388 56.2386 60.8523 55.8685 60.5226C55.577 60.2686 55.1779 59.9712 54.6452 59.611C54.0882 59.235 53.4163 58.8897 52.5892 58.5549C51.7897 58.2317 50.8498 57.95 49.7945 57.7155C48.7189 57.4772 47.5092 57.3574 46.1983 57.3574C43.5428 57.3574 41.1868 57.8132 39.1942 58.7142C37.194 59.6186 35.5014 60.8943 34.1628 62.5039C32.8361 64.1012 31.8298 66.0136 31.1711 68.1891C30.5227 70.3313 30.1934 72.6915 30.1934 75.2017C30.1934 77.7068 30.4963 80.0445 31.0941 82.1506C31.7047 84.3018 32.6808 86.1956 33.9943 87.7797C35.3193 89.3778 37.0157 90.6382 39.036 91.526C41.0417 92.4084 43.4356 92.8557 46.1506 92.8557C47.5492 92.8557 48.8172 92.7448 49.9184 92.5256C51.0157 92.3051 51.9611 92.0388 52.7296 91.7316C53.5019 91.4228 54.1473 91.1038 54.6494 90.7826C55.163 90.4534 55.531 90.1743 55.7748 89.9313L55.7753 89.9305C56.1948 89.5116 56.4999 89.1263 56.7105 88.7512C56.9522 88.3154 57.0751 87.7971 57.0751 87.213C57.0751 86.7793 56.9671 86.3315 56.7445 85.8388C56.565 85.4488 56.3501 85.0537 56.1029 84.6646C55.8625 84.287 55.5991 83.9204 55.3204 83.5712C55.0562 83.2432 54.8264 82.9629 54.629 82.733L53.9635 81.959L53.1998 82.637C52.9211 82.8843 52.573 83.1774 52.1535 83.5181C51.7714 83.8295 51.3127 84.134 50.7906 84.4233C50.2813 84.7062 49.6801 84.9518 49.0027 85.1527C48.3491 85.3473 47.6156 85.4463 46.8216 85.4463C45.309 85.4463 44.0483 85.1676 43.0726 84.6183C42.0821 84.0606 41.2702 83.3142 40.6588 82.3983C40.0308 81.4578 39.5806 80.3529 39.3206 79.1124C39.0479 77.8164 38.9104 76.4358 38.9104 75.0114C38.9104 73.6843 39.0479 72.3623 39.3198 71.0807C39.5823 69.8479 40.0205 68.7438 40.6235 67.7987Z" fill="#00A551"/>
<path d="M89.169 62.5545C87.9274 60.953 86.3148 59.6739 84.3746 58.747C82.4411 57.8251 80.1107 57.3574 77.4476 57.3574C74.7525 57.3574 72.3804 57.8421 70.3976 58.7967C68.4173 59.7512 66.7524 61.0596 65.4495 62.6857C64.1577 64.297 63.1935 66.1938 62.5838 68.3237C61.9864 70.4146 61.6826 72.6486 61.6826 74.963C61.6826 77.3024 61.9592 79.5593 62.5059 81.6727C63.0625 83.8299 63.965 85.7576 65.1874 87.4029C66.4264 89.0698 68.0467 90.4101 70.0019 91.3863C71.9561 92.3616 74.3325 92.8561 77.065 92.8561C79.8239 92.8561 82.2288 92.3714 84.2116 91.4156C86.1991 90.4585 87.8521 89.1276 89.1261 87.4607C90.3834 85.8162 91.3122 83.8779 91.8862 81.7012C92.4496 79.5683 92.7347 77.2849 92.7347 74.9137C92.7347 72.5093 92.4487 70.2319 91.885 68.1444C91.3088 66.017 90.3953 64.136 89.169 62.5545ZM83.9691 74.9634C83.9691 76.4213 83.8376 77.8393 83.5802 79.1762C83.3296 80.471 82.9296 81.6285 82.3901 82.6188C81.8757 83.5627 81.2106 84.2895 80.3554 84.8401C79.5346 85.3689 78.4926 85.637 77.2569 85.637C76.0213 85.637 74.9788 85.3689 74.1593 84.8401C73.3122 84.295 72.6178 83.544 72.0944 82.6094C71.5417 81.6234 71.1354 80.4676 70.8852 79.1762C70.6273 77.8406 70.4963 76.4239 70.4963 74.9634C70.4963 73.5042 70.6273 72.1049 70.8843 70.8033C71.1324 69.5522 71.5417 68.4448 72.1025 67.5119C72.6374 66.6219 73.3445 65.9091 74.204 65.3905C75.0474 64.8832 76.1238 64.6254 77.4008 64.6254C78.6062 64.6254 79.6197 64.8794 80.4103 65.3785C81.2268 65.8951 81.9067 66.6088 82.4288 67.5009C82.9739 68.4333 83.3691 69.5416 83.6027 70.7914C83.8448 72.0985 83.9691 73.5021 83.9691 74.9634Z" fill="#00A551"/>
<path d="M70.0064 0L61.2285 8.76369L78.809 8.78833L70.0064 0Z" fill="#00A551"/>
</svg>
