<svg width="240" height="61" viewBox="0 0 240 61" fill="none" xmlns="http://www.w3.org/2000/svg">
<path d="M20.585 46.3V39.3531L45.6873 17.981H20.585V11.5654H54.8853V18.5124L29.7833 39.8845H54.8853V46.3H20.585Z" fill="black"/>
<path d="M59.2734 46.2983V11.5543H65.5134V46.2983H59.2734Z" fill="black"/>
<path d="M70.1282 46.2993V11.6099H97.7586C98.9689 11.6099 100.072 11.9144 101.094 12.5318C102.116 13.1403 102.918 13.9575 103.519 14.9699C104.12 15.9872 104.429 17.1039 104.429 18.3209V27.6787C104.429 28.9047 104.128 30.0308 103.519 31.057C102.918 32.0878 102.107 32.896 101.094 33.4951C100.072 34.0947 98.9689 34.3897 97.7586 34.3897L76.4174 34.4394V46.3087H70.1282V46.2993ZM76.9865 27.9648H97.4721C97.6243 27.9648 97.7721 27.9151 97.9024 27.8152C98.0322 27.7199 98.0904 27.5878 98.0904 27.4338V18.5524C98.0904 18.3979 98.0322 18.2573 97.9024 18.1436C97.7721 18.0303 97.6288 17.9802 97.4721 17.9802H76.9865C76.8253 17.9802 76.6955 18.0393 76.5831 18.1436C76.4712 18.2573 76.4219 18.3934 76.4219 18.5524V27.4338C76.4219 27.5972 76.4756 27.7199 76.5831 27.8152C76.6955 27.9102 76.8298 27.9648 76.9865 27.9648ZM97.4676 46.2993L87.1306 33.8085H95.3738L104.33 44.5194V46.3087H97.4721L97.4631 46.2993H97.4676Z" fill="black"/>
<path d="M115.948 46.2984C114.738 46.2984 113.635 45.9944 112.64 45.3769C111.636 44.7684 110.838 43.9512 110.233 42.9384C109.632 41.9215 109.323 40.8138 109.323 39.5878V18.2565C109.323 17.0305 109.623 15.9133 110.233 14.9054C110.834 13.8885 111.64 13.0848 112.64 12.4674C113.644 11.8589 114.738 11.5454 115.948 11.5454H137.007C138.218 11.5454 139.32 11.8499 140.315 12.4674C141.319 13.0759 142.113 13.8885 142.723 14.9054C143.323 15.9227 143.632 17.0394 143.632 18.2565V39.5878C143.632 40.8138 143.332 41.9305 142.723 42.9384C142.122 43.9557 141.315 44.7639 140.315 45.3769C139.311 45.9854 138.218 46.2984 137.007 46.2984H115.948ZM116.186 39.8829H136.671C136.823 39.8829 136.972 39.8282 137.101 39.7194C137.231 39.6057 137.29 39.4696 137.29 39.3107V18.565C137.29 18.406 137.231 18.2699 137.101 18.1566C136.972 18.0429 136.828 17.9932 136.671 17.9932H116.186C116.024 17.9932 115.895 18.0518 115.782 18.1566C115.67 18.2699 115.621 18.406 115.621 18.565V39.3107C115.621 39.4741 115.67 39.6057 115.782 39.7194C115.895 39.8327 116.029 39.8829 116.186 39.8829Z" fill="black"/>
<path d="M172.274 46.3V17.981H158.271V11.5654H192.571V17.981H178.617V46.3H172.274Z" fill="black"/>
<path d="M195.467 46.2983V11.5543H201.707V46.2983H195.467Z" fill="black"/>
<path d="M205.852 46.2983V44.5095L218.758 28.9266L205.852 13.3436V11.5543H212.666L222.958 23.9094L233.147 11.5543H240V13.3436L227.041 28.9266L240 44.4643V46.2939H233.147L222.904 33.9939L212.661 46.2939H205.848L205.852 46.2983Z" fill="black"/>
<path d="M28.3164 0.166713C30.5888 0.185072 30.7415 3.2997 28.4463 3.38612H3.17812V19.741C14.3442 23.5775 14.3531 36.8177 3.17812 40.6452V57.0001H115.089C116.829 57.0001 116.932 60.2195 115.116 60.2195H0V37.1719C11.3229 38.1799 11.3229 22.2248 0 23.2282V0.180597H28.3164V0.162231V0.166713Z" fill="#1ACA0A"/>
<path d="M151.309 3.84135C152.354 3.84135 153.206 2.98299 153.206 1.92045C153.206 0.858359 152.359 0 151.309 0C150.261 0 149.414 0.858359 149.414 1.92045C149.414 2.98299 150.261 3.84135 151.309 3.84135Z" fill="black"/>
<path d="M151.309 10.9148C152.354 10.9148 153.206 10.0565 153.206 8.99393C153.206 7.9314 152.359 7.07349 151.309 7.07349C150.261 7.07349 149.414 7.9314 149.414 8.99393C149.414 10.0565 150.261 10.9148 151.309 10.9148Z" fill="black"/>
<path d="M151.309 17.9901C152.354 17.9901 153.206 17.1322 153.206 16.0696C153.206 15.0071 152.359 14.1492 151.309 14.1492C150.261 14.1492 149.414 15.0071 149.414 16.0696C149.414 17.1322 150.261 17.9901 151.309 17.9901Z" fill="black"/>
<path d="M151.309 25.0635C152.354 25.0635 153.206 24.2056 153.206 23.1475C153.206 22.0894 152.359 21.2271 151.309 21.2271C150.261 21.2271 149.414 22.085 149.414 23.1475C149.414 24.21 150.261 25.0635 151.309 25.0635Z" fill="black"/>
<path d="M151.309 39.2237C152.354 39.2237 153.206 38.3658 153.206 37.3033C153.206 36.2407 152.359 35.3828 151.309 35.3828C150.261 35.3828 149.414 36.2407 149.414 37.3033C149.414 38.3658 150.261 39.2237 151.309 39.2237Z" fill="#B72027"/>
<path d="M151.309 46.2976C152.354 46.2976 153.206 45.4397 153.206 44.3772C153.206 43.3146 152.359 42.4563 151.309 42.4563C150.261 42.4563 149.414 43.3146 149.414 44.3772C149.414 45.4397 150.261 46.2976 151.309 46.2976Z" fill="#B72027"/>
<path d="M151.309 53.3733C152.354 53.3733 153.206 52.5154 153.206 51.4529C153.206 50.3903 152.359 49.532 151.309 49.532C150.261 49.532 149.414 50.3903 149.414 51.4529C149.414 52.5154 150.261 53.3733 151.309 53.3733Z" fill="#B72027"/>
<path d="M151.309 60.4467C152.354 60.4467 153.206 59.5884 153.206 58.5263C153.206 57.4637 152.359 56.6099 151.309 56.6099C150.261 56.6099 149.414 57.4682 149.414 58.5263C149.414 59.5839 150.261 60.4467 151.309 60.4467Z" fill="#B72027"/>
<path d="M151.309 32.137C152.354 32.137 153.206 31.279 153.206 30.221C153.206 29.1629 152.359 28.3005 151.309 28.3005C150.261 28.3005 149.414 29.1584 149.414 30.221C149.414 31.2835 150.261 32.137 151.309 32.137Z" fill="black"/>
</svg>
