<svg width="251" height="59" viewBox="0 0 251 59" fill="none" xmlns="http://www.w3.org/2000/svg">
<path d="M29.2385 0C13.0836 0 0 13.1009 0 29.2385C0 45.3761 13.1009 58.477 29.2385 58.477C37.3469 58.477 41.5412 56.4295 46.3652 52.9417L42.27 48.6383C38.5393 51.137 34.0624 52.5946 29.2385 52.5946C16.3284 52.5946 5.86506 42.1312 5.86506 29.2211C5.86506 16.3111 16.3284 5.8477 29.2385 5.8477C42.1486 5.8477 52.612 16.3111 52.612 29.2211C52.8028 35.6493 51.1197 38.6261 48.5689 42.3741L52.8028 46.556C56.3774 41.7148 58.4944 35.7109 58.4944 29.2385C58.4944 13.0836 45.3934 0 29.2559 0H29.2385Z" fill="#13477A"/>
<path d="M26.7398 12.7531C18.7057 13.9504 12.5457 20.8913 12.5457 29.2551C12.5457 37.6188 20.0245 45.9479 29.2385 45.9479C38.4525 45.9479 45.9313 38.4691 45.9313 29.2551C45.9313 20.041 39.6151 13.7769 31.4422 12.7184L31.1993 13.1175L32.2925 19.4163L25.2475 23.3032L26.8959 13.2042L26.7571 12.7531H26.7398ZM29.2385 41.176L23.3908 34.6863L24.0675 30.5565L33.351 25.4376L34.9647 34.6863L29.2559 41.176H29.2385ZM32.6395 21.516L32.9692 23.3727L24.4666 28.0578L24.831 25.8367L32.6569 21.5333L32.6395 21.516Z" fill="#1079BF"/>
<path d="M95.7668 26.0315V42.3946H89.173V26.1876C89.173 22.2834 86.3098 20.5308 83.1344 20.5308C79.9589 20.5308 77.0958 22.2834 77.0958 26.1876V42.3946H70.502V26.0315C70.502 21.2596 74.0765 14.4402 83.1344 14.4402C92.1922 14.4402 95.7668 21.2423 95.7668 26.0315Z" fill="#1079BF"/>
<path d="M118.654 33.8746H125.856C124.051 39.4273 119.158 42.8804 112.512 42.8804C105.866 42.8804 98.283 37.1715 98.283 28.6516C98.283 20.1316 103.992 14.5442 112.512 14.5442C121.032 14.5442 126.689 20.201 126.689 28.6516C126.689 37.1021 126.636 30.1265 126.584 30.8553H105.102C105.814 34.6381 108.555 36.8418 112.46 36.8418C116.364 36.8418 117.353 35.8007 118.672 33.8746H118.654ZM119.383 24.8167C118.221 22.1271 115.757 20.5828 112.46 20.5828C109.163 20.5828 106.751 22.1271 105.588 24.8167H119.366H119.383Z" fill="#1079BF"/>
<path d="M125.907 14.9253H133.49L138.87 23.0461L144.249 14.9253H151.832L142.774 28.6509L151.832 42.3765H144.249L138.87 34.2557L133.49 42.3765H125.907L134.965 28.6509L125.907 14.9253Z" fill="#1079BF"/>
<path d="M158.79 22.0929C158.79 20.9998 159.953 20.2883 162.087 20.2883C164.222 20.2883 167.189 21.1212 170.104 23.5332L173.627 18.4316C171.215 16.4535 167.64 14.2671 162.209 14.2671C156.777 14.2671 152.214 17.1823 152.214 22.2318C152.214 32.2787 167.154 29.3635 167.154 34.1007C167.154 38.8378 165.454 36.4606 163.198 36.4606C160.942 36.4606 157.593 35.3674 155.285 33.1637L151.763 38.3346C153.463 39.879 157.194 42.5165 163.024 42.5165C168.855 42.5165 173.731 39.4972 173.731 33.8925C173.731 23.6199 158.79 26.1534 158.79 22.145V22.0929Z" fill="#13477A"/>
<path d="M182.563 29.4475V21.0143L188.584 18.2379L185.929 12.7546L182.563 14.3337V3.71411H175.969V29.5342C175.969 37.9848 180.741 42.5484 189.747 42.5484V36.5098C184.576 36.5098 182.545 34.4796 182.545 29.4822L182.563 29.4475Z" fill="#13477A"/>
<path d="M204.808 14.3018C196.358 14.3018 190.631 19.9586 190.631 28.4091C190.631 36.8597 196.34 42.638 204.305 42.638C212.27 42.638 211.107 41.2151 212.426 39.5146V42.1521H219.02V28.5306C219.02 20.0106 213.311 14.3018 204.791 14.3018H204.808ZM204.86 36.5994C200.244 36.5994 197.225 33.5801 197.225 28.4785C197.225 23.377 200.244 20.3577 204.86 20.3577C209.476 20.3577 212.443 23.377 212.443 28.4785C212.443 33.5801 209.424 36.5994 204.86 36.5994Z" fill="#13477A"/>
<path d="M223.098 14.6815L223.046 20.7201V42.1328H229.64V25.7522L235.487 23.0106L232.919 17.5273L229.657 19.0543L229.692 14.6642C230.178 10.8814 232.329 9.33704 236.824 9.33704V3.29846C228.425 3.29846 223.705 7.25477 223.098 14.6642V14.6815Z" fill="#13477A"/>
<path d="M251 9.35425V3.31567C242.602 3.31567 237.882 7.27198 237.274 14.6814L237.222 20.72V42.1326H243.816V25.7348L249.629 23.0105L247.061 17.5272L243.834 19.0368L243.868 14.6814C244.354 10.8986 246.506 9.35425 251 9.35425Z" fill="#13477A"/>
</svg>
