<svg width="200" height="74" viewBox="0 0 200 74" fill="none" xmlns="http://www.w3.org/2000/svg">
<g clip-path="url(#clip0_89_598)">
<path d="M57.1698 73.3333H16.7761C7.52686 73.3333 0 65.8688 0 56.6962V16.6372C0 7.4645 7.52686 0 16.7761 0H57.1698C66.4191 0 73.946 7.4645 73.946 16.6372V56.6962C73.946 65.8688 66.4191 73.3333 57.1698 73.3333ZM16.7761 4.68437C10.1325 4.68437 4.72351 10.0442 4.72351 16.6372V56.6962C4.72351 63.2848 10.1281 68.649 16.7761 68.649H57.1698C63.8135 68.649 69.2225 63.2892 69.2225 56.6962V16.6372C69.2225 10.0485 63.8179 4.68437 57.1698 4.68437H16.7761Z" fill="#193155"/>
<path d="M18.8721 44.5081V42.5341H24.0438V44.9003C24.0438 47.3667 25.1379 48.2556 26.8779 48.2556C28.6179 48.2556 29.712 47.3667 29.712 44.8044C29.712 41.9415 28.6179 40.12 25.0368 37.0131C20.4627 33.0172 18.9687 30.2066 18.9687 26.263C18.9687 20.8379 21.8028 17.683 27.1239 17.683C32.445 17.683 35.0814 20.8379 35.0814 26.3632V27.7925H29.9097V26.019C29.9097 23.5526 28.9167 22.6157 27.1723 22.6157C25.4279 22.6157 24.4348 23.5526 24.4348 25.9188C24.4348 28.4331 25.5773 30.2589 29.1583 33.3658C33.7324 37.3617 35.1781 40.1244 35.1781 44.4122C35.1781 50.0335 32.2956 53.1927 26.9218 53.1927C21.548 53.1927 18.8633 50.0378 18.8633 44.5125L18.8721 44.5081Z" fill="#193155"/>
<path d="M49.8539 52.5957C48.8082 52.9922 47.5647 53.1883 46.2245 53.1883C40.8551 53.1883 37.9199 50.0335 37.9199 44.5081V26.3588C37.9199 20.8335 40.8551 17.6786 46.2245 17.6786C51.5939 17.6786 54.5291 20.8335 54.5291 26.3588V44.5081C54.5291 46.8742 53.9842 48.748 52.9868 50.1816C53.3867 50.8745 54.0326 50.9703 55.0256 50.9703H55.8693V55.9031H54.428C52.3892 55.9031 50.4998 55.1623 49.8539 52.6001V52.5957ZM49.0586 44.8523V26.0102C49.0586 23.5439 47.9645 22.607 46.2245 22.607C44.4845 22.607 43.3904 23.5439 43.3904 26.0102V44.8523C43.3904 47.3187 44.4845 48.2556 46.2245 48.2556C47.9645 48.2556 49.0586 47.3187 49.0586 44.8523Z" fill="#193155"/>
<path d="M87.5936 25.4438V23.8751H91.702V25.7532C91.702 27.7097 92.572 28.4156 93.9517 28.4156C95.3314 28.4156 96.2014 27.7097 96.2014 25.6747C96.2014 23.4045 95.3314 21.9534 92.4885 19.487C88.8547 16.3147 87.6683 14.0836 87.6683 10.9462C87.6683 6.63658 89.918 4.13098 94.145 4.13098C98.372 4.13098 100.464 6.63658 100.464 11.0246V12.162H96.3552V10.7501C96.3552 8.79357 95.5643 8.04843 94.1846 8.04843C92.8049 8.04843 92.014 8.79357 92.014 10.6717C92.014 12.6674 92.9235 14.1185 95.7664 16.5849C99.4002 19.7572 100.547 21.949 100.547 25.361C100.547 29.8275 98.2578 32.3331 93.9912 32.3331C89.7247 32.3331 87.5936 29.8275 87.5936 25.4394V25.4438Z" fill="#193155"/>
<path d="M103.038 4.52747H114.889V8.44491H107.384V15.6915H113.347V19.609H107.384V28.0321H114.889V31.9496H103.038V4.52747Z" fill="#193155"/>
<path d="M117.099 25.6007V10.8766C117.099 6.64537 119.309 4.13977 123.497 4.13977C127.684 4.13977 129.894 6.64537 129.894 10.8766V13.7743H125.786V10.602C125.786 8.80236 124.916 8.05721 123.615 8.05721C122.315 8.05721 121.445 8.80236 121.445 10.602V25.9188C121.445 27.7185 122.315 28.4244 123.615 28.4244C124.916 28.4244 125.786 27.7185 125.786 25.9188V21.7269H129.894V25.6051C129.894 29.8363 127.684 32.3419 123.497 32.3419C119.309 32.3419 117.099 29.8363 117.099 25.6051V25.6007Z" fill="#193155"/>
<path d="M132.342 25.4437V4.52747H136.687V25.7575C136.687 27.714 137.518 28.42 138.898 28.42C140.277 28.42 141.108 27.714 141.108 25.7575V4.52747H145.295V25.4437C145.295 29.8318 143.085 32.3374 138.818 32.3374C134.552 32.3374 132.342 29.8318 132.342 25.4437Z" fill="#193155"/>
<path d="M148.38 4.52747H154.817C159.321 4.52747 161.254 6.60166 161.254 10.8329V12.5192C161.254 15.3386 160.344 17.1426 158.411 17.9226V18.001C160.582 18.6677 161.293 20.7027 161.293 23.7966V28.616C161.293 29.9495 161.333 30.9256 161.768 31.9452H157.343C157.106 31.2393 156.948 30.8079 156.948 28.5768V23.5613C156.948 21.0165 156.196 20.1929 154.224 20.1929H152.721V31.9452H148.375V4.52747H148.38ZM154.303 16.2798C155.924 16.2798 156.908 15.5739 156.908 13.382V11.2686C156.908 9.31206 156.236 8.44927 154.698 8.44927H152.721V16.2842H154.303V16.2798Z" fill="#193155"/>
<path d="M164.295 4.52747H168.64V31.9452H164.295V4.52747Z" fill="#193155"/>
<path d="M175.275 8.44491H170.732V4.52747H184.16V8.44491H179.616V31.9452H175.271V8.44491H175.275Z" fill="#193155"/>
<path d="M190.399 20.2757L185.144 4.52747H189.766L192.728 14.5934H192.807L195.769 4.52747H199.996L194.74 20.2757V31.9496H190.395V20.2757H190.399Z" fill="#193155"/>
<path d="M97.5107 66.296C96.6803 66.6097 95.696 66.7666 94.6283 66.7666C90.3618 66.7666 88.033 64.261 88.033 59.8729V45.4581C88.033 41.07 90.3618 38.5645 94.6283 38.5645C98.8948 38.5645 101.224 41.07 101.224 45.4581V59.8729C101.224 61.751 100.789 63.2413 99.9977 64.3786C100.314 64.9277 100.828 65.0061 101.619 65.0061H102.291V68.9236H101.145C99.5232 68.9236 98.0248 68.3353 97.5107 66.3003V66.296ZM96.878 60.1431V45.1792C96.878 43.2227 96.008 42.4775 94.6283 42.4775C93.2486 42.4775 92.3786 43.2227 92.3786 45.1792V60.1431C92.3786 62.104 93.2486 62.8448 94.6283 62.8448C96.008 62.8448 96.878 62.0996 96.878 60.1431Z" fill="#193155"/>
<path d="M103.988 59.8685V38.9523H108.333V60.1823C108.333 62.1432 109.164 62.8448 110.543 62.8448C111.923 62.8448 112.753 62.1388 112.753 60.1823V38.9523H116.941V59.8685C116.941 64.2566 114.731 66.7622 110.464 66.7622C106.198 66.7622 103.988 64.2566 103.988 59.8685Z" fill="#193155"/>
<path d="M123.299 38.9523H129.182L133.686 66.37H129.341L128.55 60.9231V61.0015H123.611L122.82 66.37H118.791L123.295 38.9523H123.299ZM128.04 57.2845L126.107 43.7325H126.028L124.134 57.2845H128.044H128.04Z" fill="#193155"/>
<path d="M135.778 38.9523H142.215C146.719 38.9523 148.652 41.0265 148.652 45.2577V46.944C148.652 49.7634 147.743 51.5674 145.809 52.3474V52.4258C147.98 53.0925 148.692 55.1275 148.692 58.2214V63.0408C148.692 64.3743 148.731 65.3504 149.166 66.37H144.742C144.504 65.6641 144.346 65.2327 144.346 63.0016V57.9861C144.346 55.4413 143.595 54.6177 141.622 54.6177H140.119V66.37H135.773V38.9523H135.778ZM141.705 50.7046C143.327 50.7046 144.311 49.9987 144.311 47.8068V45.6934C144.311 43.7369 143.639 42.8741 142.101 42.8741H140.123V50.709H141.705V50.7046Z" fill="#193155"/>
<path d="M151.697 38.9523H156.043V50.5085L161.57 38.9523H165.916L160.74 49.0182L165.995 66.37H161.452L157.778 54.1471L156.038 57.6331V66.37H151.693V38.9523H151.697Z" fill="#193155"/>
<path d="M167.019 59.8685V58.2998H171.127V60.1779C171.127 62.1388 171.997 62.8403 173.377 62.8403C174.757 62.8403 175.627 62.1344 175.627 60.0994C175.627 57.8291 174.757 56.3781 171.914 53.9117C168.28 50.7394 167.094 48.504 167.094 45.3709C167.094 41.0613 169.343 38.5557 173.57 38.5557C177.797 38.5557 179.889 41.0613 179.889 45.4493V46.5866H175.78V45.1748C175.78 43.2182 174.99 42.4731 173.61 42.4731C172.23 42.4731 171.439 43.2182 171.439 45.0964C171.439 47.0921 172.349 48.5432 175.192 51.0096C178.826 54.1819 179.972 56.3781 179.972 59.7857C179.972 64.2522 177.683 66.7578 173.417 66.7578C169.15 66.7578 167.019 64.2522 167.019 59.8641V59.8685Z" fill="#193155"/>
</g>
<defs>
<clipPath id="clip0_89_598">
<rect width="200" height="73.3333" fill="white"/>
</clipPath>
</defs>
</svg>
