<svg width="100" height="100" viewBox="0 0 100 100" fill="none" xmlns="http://www.w3.org/2000/svg">
<rect opacity="0.2" width="100" height="100" rx="20" fill="url(#paint0_linear_7581_60561)"/>
<path d="M50.0842 72.1621C48.5938 72.1631 47.1562 71.6103 46.0505 70.6111C44.9448 69.6118 44.2499 68.2373 44.1006 66.7544C43.9513 65.2716 44.3583 63.7861 45.2426 62.5865C46.1269 61.3868 47.4254 60.5585 48.886 60.2624C50.3467 59.9663 51.8653 60.2235 53.1469 60.984C54.4286 61.7446 55.382 62.9542 55.822 64.3782C56.262 65.8021 56.1572 67.3387 55.5279 68.6897C54.8987 70.0407 53.7899 71.1097 52.4168 71.6892C51.6789 72.0018 50.8856 72.1626 50.0842 72.1621ZM50.0842 60.766C49.0195 60.7656 47.9787 61.081 47.0933 61.6722C46.2079 62.2634 45.5177 63.104 45.1101 64.0875C44.7025 65.071 44.5957 66.1534 44.8033 67.1976C45.0109 68.2418 45.5235 69.201 46.2764 69.9538C47.0292 70.7066 47.9884 71.2193 49.0326 71.4269C50.0768 71.6345 51.1591 71.5277 52.1427 71.1201C53.1262 70.7125 53.9667 70.0223 54.558 69.1369C55.1492 68.2515 55.4645 67.2106 55.4641 66.146C55.4624 64.7197 54.8951 63.3522 53.8865 62.3437C52.8779 61.3351 51.5105 60.7677 50.0842 60.766Z" fill="#1F0505" stroke="black" stroke-width="0.5"/>
<path d="M51.9029 76.0003H48.2639C48.1796 76.0003 48.0987 75.9668 48.039 75.9072C47.9794 75.8475 47.9459 75.7666 47.9459 75.6822V74.2233C47.223 74.0349 46.5289 73.7495 45.8825 73.375L44.8519 74.4056C44.8223 74.4354 44.7872 74.4591 44.7484 74.4753C44.7096 74.4914 44.6681 74.4997 44.6261 74.4997C44.5841 74.4997 44.5425 74.4914 44.5037 74.4753C44.465 74.4591 44.4298 74.4354 44.4002 74.4056L41.8301 71.8291C41.8003 71.7995 41.7766 71.7644 41.7604 71.7256C41.7443 71.6868 41.736 71.6453 41.736 71.6033C41.736 71.5613 41.7443 71.5197 41.7604 71.4809C41.7766 71.4422 41.8003 71.407 41.8301 71.3774L42.8607 70.3468C42.4867 69.6994 42.2014 69.0047 42.0124 68.2814H40.5407C40.4564 68.2814 40.3755 68.2478 40.3158 68.1882C40.2562 68.1285 40.2227 68.0476 40.2227 67.9633V64.3286C40.2227 64.2442 40.2562 64.1633 40.3158 64.1036C40.3755 64.044 40.4564 64.0105 40.5407 64.0105H41.9997C42.1887 63.2871 42.474 62.5924 42.848 61.945L41.8173 60.9144C41.7875 60.8848 41.7639 60.8497 41.7477 60.8109C41.7316 60.7721 41.7233 60.7306 41.7233 60.6886C41.7233 60.6466 41.7316 60.605 41.7477 60.5662C41.7639 60.5275 41.7875 60.4923 41.8173 60.4627L44.4002 57.8926C44.4298 57.8628 44.465 57.8391 44.5037 57.8229C44.5425 57.8068 44.5841 57.7985 44.6261 57.7985C44.6681 57.7985 44.7096 57.8068 44.7484 57.8229C44.7872 57.8391 44.8223 57.8628 44.8519 57.8926L45.8825 58.9232C46.5289 58.5487 47.223 58.2633 47.9459 58.0749V56.6032C47.9459 56.5189 47.9794 56.438 48.039 56.3783C48.0987 56.3187 48.1796 56.2852 48.2639 56.2852H51.9029C51.9873 56.2852 52.0682 56.3187 52.1278 56.3783C52.1875 56.438 52.221 56.5189 52.221 56.6032V58.0622C52.9439 58.2506 53.6379 58.536 54.2843 58.9105L55.3149 57.8798C55.3445 57.85 55.3797 57.8264 55.4184 57.8102C55.4572 57.7941 55.4988 57.7858 55.5408 57.7858C55.5828 57.7858 55.6243 57.7941 55.6631 57.8102C55.7019 57.8264 55.737 57.85 55.7666 57.8798L58.3368 60.4627C58.3666 60.4923 58.3903 60.5275 58.4064 60.5662C58.4226 60.605 58.4309 60.6466 58.4309 60.6886C58.4309 60.7306 58.4226 60.7721 58.4064 60.8109C58.3903 60.8497 58.3666 60.8848 58.3368 60.9144L57.3062 61.945C57.6802 62.5924 57.9655 63.2871 58.1544 64.0105H59.6261C59.7105 64.0105 59.7914 64.044 59.851 64.1036C59.9107 64.1633 59.9442 64.2442 59.9442 64.3286V67.9633C59.9442 68.0476 59.9107 68.1285 59.851 68.1882C59.7914 68.2478 59.7105 68.2814 59.6261 68.2814H58.1608C57.9718 69.0047 57.6865 69.6994 57.3125 70.3468L58.3431 71.3774C58.3729 71.407 58.3966 71.4422 58.4128 71.4809C58.4289 71.5197 58.4372 71.5613 58.4372 71.6033C58.4372 71.6453 58.4289 71.6868 58.4128 71.7256C58.3966 71.7644 58.3729 71.7995 58.3431 71.8291L55.7666 74.3993C55.737 74.4291 55.7019 74.4527 55.6631 74.4689C55.6243 74.485 55.5828 74.4934 55.5408 74.4934C55.4988 74.4934 55.4572 74.485 55.4184 74.4689C55.3797 74.4527 55.3445 74.4291 55.3149 74.3993L54.2843 73.3687C53.6379 73.7432 52.9439 74.0285 52.221 74.2169V75.6886C52.2193 75.7718 52.1851 75.8511 52.1256 75.9094C52.0661 75.9677 51.9862 76.0003 51.9029 76.0003ZM48.582 75.3641H51.5848V73.973C51.5852 73.9013 51.6097 73.8319 51.6543 73.7757C51.6989 73.7196 51.761 73.68 51.8308 73.6634C52.6567 73.4732 53.4451 73.1464 54.1634 72.6964C54.2244 72.6585 54.2965 72.6424 54.3678 72.6509C54.4391 72.6594 54.5054 72.6919 54.5558 72.7431L55.5397 73.7249L57.6603 71.6043L56.6806 70.6204C56.6294 70.57 56.5969 70.5037 56.5884 70.4324C56.5799 70.3611 56.596 70.289 56.6339 70.2281C57.083 69.5093 57.4098 68.7211 57.6009 67.8954C57.6176 67.8251 57.6573 67.7624 57.7139 67.7174C57.7704 67.6724 57.8404 67.6477 57.9127 67.6473H59.3016V64.6467H57.9127C57.8404 64.6462 57.7704 64.6215 57.7139 64.5765C57.6573 64.5315 57.6176 64.4689 57.6009 64.3985C57.4098 63.5729 57.083 62.7846 56.6339 62.0659C56.596 62.0049 56.5799 61.9329 56.5884 61.8616C56.5969 61.7902 56.6294 61.7239 56.6806 61.6736L57.6624 60.6918L55.5418 58.5712L54.5579 59.5488C54.5075 59.6 54.4412 59.6325 54.3699 59.641C54.2986 59.6494 54.2265 59.6334 54.1656 59.5954C53.4473 59.1455 52.6589 58.8186 51.8329 58.6284C51.7632 58.6118 51.701 58.5723 51.6564 58.5161C51.6118 58.46 51.5873 58.3905 51.5869 58.3188V56.9277H48.582V58.3188C48.5816 58.3905 48.5571 58.46 48.5125 58.5161C48.4679 58.5723 48.4058 58.6118 48.3361 58.6284C47.5101 58.8186 46.7217 59.1455 46.0034 59.5954C45.9424 59.6334 45.8704 59.6494 45.7991 59.641C45.7277 59.6325 45.6614 59.6 45.6111 59.5488L44.6271 58.5669L42.5065 60.6875L43.4884 61.6693C43.5396 61.7197 43.5721 61.786 43.5806 61.8573C43.5891 61.9286 43.573 62.0007 43.535 62.0617C43.086 62.7804 42.7592 63.5687 42.568 64.3943C42.5514 64.4646 42.5116 64.5273 42.4551 64.5723C42.3986 64.6173 42.3286 64.642 42.2563 64.6424H40.8652V67.6452H42.2542C42.3264 67.6456 42.3964 67.6703 42.453 67.7153C42.5095 67.7603 42.5493 67.823 42.5659 67.8933C42.7571 68.7189 43.0838 69.5072 43.5329 70.2259C43.5709 70.2869 43.5869 70.359 43.5785 70.4303C43.57 70.5016 43.5375 70.5679 43.4863 70.6183L42.5044 71.6001L44.625 73.7207L45.609 72.7388C45.6593 72.6876 45.7256 72.6551 45.7969 72.6466C45.8682 72.6382 45.9403 72.6542 46.0013 72.6922C46.7196 73.1421 47.508 73.469 48.3339 73.6592C48.4037 73.6758 48.4658 73.7153 48.5104 73.7715C48.555 73.8276 48.5795 73.8971 48.5799 73.9688L48.582 75.3641Z" fill="#1F0505" stroke="black" stroke-width="0.5"/>
<path d="M47.759 68.1859C47.5849 68.1859 47.4147 68.1343 47.27 68.0376C47.1253 67.9409 47.0125 67.8034 46.9459 67.6426C46.8793 67.4818 46.8619 67.3049 46.8958 67.1341C46.9298 66.9634 47.0136 66.8066 47.1367 66.6835C47.2597 66.5605 47.4166 66.4766 47.5873 66.4427C47.758 66.4087 47.9349 66.4262 48.0957 66.4928C48.2565 66.5594 48.394 66.6722 48.4907 66.8169C48.5874 66.9616 48.639 67.1318 48.639 67.3058C48.639 67.5392 48.5463 67.7631 48.3812 67.9281C48.2162 68.0932 47.9924 68.1859 47.759 68.1859ZM47.759 67.0641C47.7106 67.0641 47.6634 67.0784 47.6232 67.1053C47.5831 67.1322 47.5518 67.1704 47.5335 67.2151C47.5151 67.2598 47.5104 67.3089 47.5199 67.3563C47.5295 67.4037 47.553 67.4471 47.5873 67.4811C47.6216 67.5152 47.6652 67.5382 47.7127 67.5474C47.7601 67.5566 47.8092 67.5514 47.8538 67.5326C47.8983 67.5139 47.9362 67.4823 47.9628 67.4419C47.9893 67.4015 48.0032 67.3541 48.0028 67.3058C48.0028 67.2739 47.9965 67.2423 47.9842 67.2128C47.9719 67.1834 47.9539 67.1566 47.9313 67.1341C47.9086 67.1117 47.8817 67.0939 47.8521 67.0819C47.8225 67.0698 47.7909 67.0638 47.759 67.0641Z" fill="#1F0505" stroke="black" stroke-width="0.2"/>
<path d="M52.4134 65.8636C52.2392 65.864 52.0687 65.8127 51.9237 65.7162C51.7786 65.6196 51.6655 65.4822 51.5986 65.3213C51.5318 65.1604 51.5142 64.9833 51.5481 64.8124C51.5819 64.6415 51.6658 64.4845 51.789 64.3613C51.9122 64.2381 52.0692 64.1542 52.2401 64.1203C52.411 64.0864 52.5882 64.104 52.7491 64.1709C52.9099 64.2378 53.0474 64.3509 53.1439 64.496C53.2405 64.641 53.2918 64.8114 53.2913 64.9857C53.2908 65.2183 53.1981 65.4413 53.0336 65.6058C52.8691 65.7704 52.6461 65.863 52.4134 65.8636ZM52.4134 64.7418C52.3651 64.7414 52.3177 64.7553 52.2774 64.7819C52.237 64.8084 52.2054 64.8464 52.1866 64.8909C52.1678 64.9354 52.1627 64.9845 52.1719 65.0319C52.181 65.0794 52.2041 65.123 52.2381 65.1574C52.2721 65.1917 52.3156 65.2151 52.3629 65.2247C52.4103 65.2343 52.4594 65.2296 52.5041 65.2112C52.5488 65.1928 52.587 65.1615 52.6139 65.1214C52.6408 65.0812 52.6552 65.034 52.6552 64.9857C52.6552 64.9214 52.6298 64.8597 52.5845 64.814C52.5392 64.7683 52.4777 64.7424 52.4134 64.7418Z" fill="#1F0505" stroke="black" stroke-width="0.2"/>
<path d="M50.0811 67.0234C49.9074 67.0234 49.7377 66.9719 49.5933 66.8755C49.4489 66.779 49.3364 66.6419 49.27 66.4815C49.2035 66.3211 49.1861 66.1445 49.22 65.9742C49.2539 65.8039 49.3375 65.6475 49.4603 65.5247C49.583 65.4019 49.7395 65.3183 49.9098 65.2844C50.0801 65.2506 50.2566 65.268 50.417 65.3344C50.5774 65.4009 50.7146 65.5134 50.811 65.6578C50.9075 65.8021 50.959 65.9719 50.959 66.1455C50.959 66.3783 50.8665 66.6016 50.7018 66.7663C50.5372 66.9309 50.3139 67.0234 50.0811 67.0234ZM50.0811 65.9038C50.0332 65.9038 49.9865 65.9179 49.9467 65.9445C49.907 65.9711 49.876 66.0088 49.8577 66.053C49.8394 66.0972 49.8346 66.1458 49.8439 66.1927C49.8533 66.2396 49.8763 66.2826 49.9101 66.3164C49.9439 66.3503 49.987 66.3733 50.0339 66.3826C50.0808 66.3919 50.1294 66.3871 50.1736 66.3689C50.2177 66.3506 50.2555 66.3196 50.2821 66.2798C50.3086 66.2401 50.3228 66.1933 50.3228 66.1455C50.3228 66.0814 50.2973 66.0199 50.252 65.9746C50.2067 65.9292 50.1452 65.9038 50.0811 65.9038Z" fill="#1F0505" stroke="black" stroke-width="0.2"/>
<path d="M50.0837 65.904C49.9994 65.904 49.9184 65.8705 49.8588 65.8108C49.7991 65.7512 49.7656 65.6703 49.7656 65.5859V62.9182C49.7656 62.8338 49.7991 62.7529 49.8588 62.6933C49.9184 62.6336 49.9994 62.6001 50.0837 62.6001C50.1681 62.6001 50.249 62.6336 50.3086 62.6933C50.3683 62.7529 50.4018 62.8338 50.4018 62.9182V65.5859C50.4018 65.6703 50.3683 65.7512 50.3086 65.8108C50.249 65.8705 50.1681 65.904 50.0837 65.904Z" fill="#1F0505" stroke="black" stroke-width="0.2"/>
<path d="M52.4157 64.7419C52.3314 64.7419 52.2505 64.7084 52.1908 64.6487C52.1312 64.5891 52.0977 64.5082 52.0977 64.4238V62.9182C52.0977 62.8338 52.1312 62.7529 52.1908 62.6933C52.2505 62.6336 52.3314 62.6001 52.4157 62.6001C52.5001 62.6001 52.581 62.6336 52.6407 62.6933C52.7003 62.7529 52.7338 62.8338 52.7338 62.9182V64.4238C52.7338 64.5082 52.7003 64.5891 52.6407 64.6487C52.581 64.7084 52.5001 64.7419 52.4157 64.7419Z" fill="#1F0505" stroke="black" stroke-width="0.2"/>
<path d="M47.7634 69.6921C47.679 69.6921 47.5981 69.6586 47.5385 69.5989C47.4788 69.5393 47.4453 69.4584 47.4453 69.374V67.8684C47.4453 67.784 47.4788 67.7031 47.5385 67.6435C47.5981 67.5838 47.679 67.5503 47.7634 67.5503C47.8478 67.5503 47.9287 67.5838 47.9883 67.6435C48.048 67.7031 48.0815 67.784 48.0815 67.8684V69.374C48.0815 69.4584 48.048 69.5393 47.9883 69.5989C47.9287 69.6586 47.8478 69.6921 47.7634 69.6921Z" fill="#1F0505" stroke="black" stroke-width="0.2"/>
<path d="M50.0837 69.6916C49.9994 69.6916 49.9184 69.6581 49.8588 69.5984C49.7991 69.5388 49.7656 69.4579 49.7656 69.3735V66.7058C49.7656 66.6214 49.7991 66.5405 49.8588 66.4809C49.9184 66.4212 49.9994 66.3877 50.0837 66.3877C50.1681 66.3877 50.249 66.4212 50.3086 66.4809C50.3683 66.5405 50.4018 66.6214 50.4018 66.7058V69.3735C50.4018 69.4579 50.3683 69.5388 50.3086 69.5984C50.249 69.6581 50.1681 69.6916 50.0837 69.6916Z" fill="#1F0505" stroke="black" stroke-width="0.2"/>
<path d="M52.4157 69.692C52.3314 69.692 52.2505 69.6585 52.1908 69.5989C52.1312 69.5392 52.0977 69.4583 52.0977 69.3739V65.5569C52.0977 65.4725 52.1312 65.3916 52.1908 65.3319C52.2505 65.2723 52.3314 65.2388 52.4157 65.2388C52.5001 65.2388 52.581 65.2723 52.6407 65.3319C52.7003 65.3916 52.7338 65.4725 52.7338 65.5569V69.3739C52.7338 69.4583 52.7003 69.5392 52.6407 69.5989C52.581 69.6585 52.5001 69.692 52.4157 69.692Z" fill="#1F0505" stroke="black" stroke-width="0.2"/>
<path d="M47.7634 67.0636C47.679 67.0636 47.5981 67.0301 47.5385 66.9704C47.4788 66.9108 47.4453 66.8299 47.4453 66.7455V62.9284C47.4453 62.8441 47.4788 62.7632 47.5385 62.7035C47.5981 62.6439 47.679 62.6104 47.7634 62.6104C47.8478 62.6104 47.9287 62.6439 47.9883 62.7035C48.048 62.7632 48.0815 62.8441 48.0815 62.9284V66.7455C48.0815 66.8299 48.048 66.9108 47.9883 66.9704C47.9287 67.0301 47.8478 67.0636 47.7634 67.0636Z" fill="#1F0505" stroke="black" stroke-width="0.2"/>
<path d="M37.8193 56.3975C37.9573 56.5356 38.0342 56.7211 38.0342 56.918C38.0342 56.9633 38.0342 57.0176 38.0161 57.0629C38.0048 57.1081 37.9935 57.1557 37.9754 57.2009C37.9573 57.2462 37.9347 57.2869 37.9052 57.3277C37.8758 57.3684 37.8464 57.4091 37.8125 57.4386C37.6744 57.5766 37.4888 57.6535 37.292 57.6535C37.2467 57.6535 37.1924 57.6535 37.1471 57.6354C37.1019 57.6241 37.0543 57.6128 37.0091 57.5947C36.9638 57.5766 36.9231 57.554 36.8823 57.5245C36.8416 57.4951 36.8076 57.4657 36.7714 57.4318C36.7375 57.3978 36.7081 57.3616 36.6787 57.3209C36.6492 57.2801 36.6266 57.2394 36.6085 57.1941C36.5904 57.1489 36.5746 57.1013 36.5678 57.0561C36.5564 57.0108 36.5497 56.9565 36.5497 56.9112C36.5497 56.866 36.5497 56.8117 36.5678 56.7664C36.5791 56.7211 36.5904 56.6736 36.6085 56.6284C36.6266 56.5831 36.6492 56.5424 36.6787 56.5016C36.7081 56.4609 36.7375 56.4269 36.7714 56.3907C36.8054 56.3568 36.8416 56.3274 36.8823 56.2979C36.9231 56.2685 36.9638 56.2459 37.0091 56.2278C37.0543 56.2097 37.1019 56.1938 37.1471 56.1871C37.3847 56.1418 37.6405 56.2165 37.8124 56.3907L37.8193 56.3975ZM75.2275 40.3386V40.9179C75.2275 42.441 74.6301 43.878 73.5529 44.9553C72.6499 45.8582 71.4957 46.4217 70.251 46.5779V61.2766C70.251 63.1662 68.7167 64.6938 66.8338 64.6938H65.6411C65.6706 65.0989 65.6864 65.504 65.6864 65.9159C65.6864 68.5003 65.0618 71.0666 63.8669 73.3368C63.7334 73.5857 63.4777 73.7305 63.2129 73.7305C63.0975 73.7305 62.982 73.7011 62.8712 73.6445C62.5113 73.4544 62.3733 73.0132 62.5589 72.6488C63.6361 70.5871 64.2109 68.2584 64.2109 65.9115C64.2109 57.8823 57.6817 51.3531 49.6525 51.3531C45.8573 51.3531 42.2588 52.8082 39.5318 55.4424C39.2421 55.7253 38.7737 55.714 38.4885 55.4243C38.2056 55.1347 38.217 54.6662 38.5066 54.3811C41.5143 51.473 45.4704 49.873 49.6521 49.873C57.573 49.873 64.1701 55.6484 65.4574 63.2096H66.8356C67.9083 63.2096 68.7818 62.3338 68.7818 61.2634V46.5647C67.5711 46.4018 66.435 45.8473 65.5366 44.9534C65.1541 44.571 64.8237 44.1364 64.5634 43.6725C64.3077 44.1365 63.9841 44.5596 63.6016 44.9466C62.5244 46.0239 61.0873 46.6213 59.5642 46.6213C57.4324 46.6213 55.5722 45.4445 54.5945 43.7133C54.3388 44.1591 54.0265 44.5755 53.6553 44.9466C52.5781 46.0239 51.1411 46.6213 49.618 46.6213C47.4861 46.6213 45.6259 45.4445 44.6483 43.7133C44.3925 44.1591 44.0802 44.5755 43.7091 44.9466C42.6318 46.0239 41.1948 46.6213 39.6717 46.6213C37.5399 46.6213 35.6796 45.4445 34.6952 43.7133C34.4395 44.1591 34.1272 44.5755 33.756 44.9466C32.8531 45.8496 31.6989 46.4131 30.4542 46.5693V61.2679C30.4542 62.3407 31.33 63.2142 32.4005 63.2142H33.8488C34.0933 61.7658 34.5391 60.3627 35.175 59.0252C35.3493 58.6609 35.7883 58.5047 36.1549 58.6767C36.5193 58.851 36.6755 59.29 36.5035 59.6566C35.5711 61.6142 35.0958 63.7234 35.0958 65.9072C35.0958 67.6633 35.4149 69.4127 36.0282 71.0467L36.7456 69.1638C36.8905 68.7813 37.3137 68.5958 37.6961 68.7406C38.0786 68.8854 38.2641 69.3086 38.1193 69.6911L36.809 73.1219C36.7683 73.3369 36.6347 73.5338 36.4265 73.6424C36.3156 73.7013 36.2002 73.7284 36.0848 73.7284H36.0735H36.0667C35.94 73.7284 35.811 73.6945 35.7023 73.6289L32.0588 71.531C31.7057 71.3273 31.5835 70.8769 31.7872 70.5239C31.9909 70.1708 32.4412 70.0486 32.7943 70.2523L34.5255 71.2549C33.9235 69.5463 33.6113 67.7335 33.6113 65.914C33.6113 65.5021 33.6294 65.097 33.6565 64.6919H32.3869C30.4973 64.6919 28.9697 63.1576 28.9697 61.2747V46.576C27.759 46.4131 26.6297 45.8586 25.7313 44.9647C24.6314 43.8694 24 42.3644 24 40.8233V40.3028C24 38.7685 24.4345 37.2793 25.2583 35.9803L31.2713 26.548C31.8914 25.5793 32.946 25 34.0934 25H65.0069C66.1475 25 67.1975 25.5726 67.8177 26.5298L73.9304 35.9622C74.7767 37.2657 75.2226 38.7775 75.2226 40.33L75.2275 40.3386ZM73.7565 40.3386C73.7565 39.069 73.3921 37.8356 72.7019 36.7697L66.5892 27.3373C66.2407 26.8032 65.6568 26.4796 65.0141 26.4796L34.0983 26.4818C33.4555 26.4818 32.8649 26.8054 32.5164 27.3508L26.5033 36.7832C25.8311 37.8378 25.4714 39.0599 25.4714 40.3113V40.8318C25.4714 41.9792 25.9466 43.1085 26.7681 43.9255C27.567 44.7198 28.6103 45.1588 29.7101 45.1588H29.7441C30.862 45.1475 31.9166 44.7062 32.7042 43.9187C33.503 43.1198 33.9443 42.0539 33.9443 40.9223V38.1817C33.9443 37.8287 34.2001 37.5277 34.5305 37.4643C34.5757 37.453 34.63 37.4462 34.6821 37.4462C34.7341 37.4462 34.7817 37.4462 34.8337 37.4643C35.1686 37.5345 35.4198 37.8287 35.4198 38.1817V40.9223C35.4198 43.2578 37.3208 45.1633 39.6608 45.1633C40.7969 45.1633 41.8561 44.722 42.6572 43.9232C43.456 43.1243 43.8973 42.0584 43.8973 40.9269V38.1862C43.8973 37.7812 44.2277 37.4508 44.6328 37.4508C45.0379 37.4508 45.3683 37.7812 45.3683 38.1862V40.9269C45.3683 43.2623 47.2693 45.1679 49.6093 45.1679C50.7386 45.1679 51.8045 44.7266 52.6056 43.9277C53.4045 43.1288 53.8458 42.0629 53.8458 40.9314V38.1908C53.8458 37.7857 54.1762 37.4553 54.5813 37.4553C54.9864 37.4553 55.3168 37.7857 55.3168 38.1908V40.9314C55.3168 43.2668 57.2177 45.1724 59.5578 45.1724C60.6938 45.1724 61.753 44.7311 62.5541 43.9322C63.353 43.1334 63.7943 42.0674 63.7943 40.9359V38.1953C63.7943 37.8422 64.05 37.5413 64.3804 37.4779C64.4257 37.4666 64.48 37.4598 64.532 37.4598C64.5841 37.4598 64.6316 37.4598 64.6836 37.4779C65.0186 37.548 65.2698 37.8422 65.2698 38.1953V40.8431C65.2698 41.9905 65.745 43.1152 66.5665 43.9367C67.3654 44.7356 68.4155 45.1701 69.5085 45.1701H69.5379C70.6627 45.1633 71.7173 44.7242 72.5094 43.9299C73.3082 43.131 73.7495 42.0651 73.7495 40.9336V40.3542L73.7565 40.3386Z" fill="black"/>
<defs>
<linearGradient id="paint0_linear_7581_60561" x1="11.809" y1="1.81213e-05" x2="100.05" y2="16.5617" gradientUnits="userSpaceOnUse">
<stop stop-color="#2EC4F3"/>
<stop offset="1" stop-color="#BFD633"/>
</linearGradient>
</defs>
</svg>
