<svg width="100" height="100" viewBox="0 0 100 100" fill="none" xmlns="http://www.w3.org/2000/svg">
<rect opacity="0.2" width="100" height="100" rx="20" fill="url(#paint0_linear_7581_60634)"/>
<path d="M78.6341 55.5844L69.5365 51.4147C68.8416 45.4128 65.4932 40.2323 60.6917 37.0734V30.5661C60.6917 29.9975 60.3758 29.4921 59.8072 29.2394L50.1411 24.817C49.762 24.6274 49.3198 24.6274 48.9407 24.817L39.2114 29.3026C38.7059 29.5553 38.3269 30.0607 38.3269 30.6293V37.0734C33.5254 40.2954 30.177 45.476 29.482 51.4778L20.3845 55.5844C19.8791 55.8371 19.5 56.3425 19.5 56.9111V69.7361C19.5 70.3047 19.8159 70.8101 20.3845 71.0628L30.1138 75.5484C30.3033 75.6116 30.4929 75.6748 30.7456 75.6748C30.9983 75.6748 31.1878 75.6116 31.3774 75.5484L39.9063 71.6314C42.7493 73.2109 46.0345 74.1585 49.5093 74.1585C52.9841 74.1585 56.2693 73.2109 59.1123 71.6314L67.6412 75.5484C67.8307 75.6116 68.0203 75.6748 68.273 75.6748C68.4625 75.6748 68.7152 75.6116 68.9048 75.5484L78.6341 71.0628C79.1395 70.8101 79.5186 70.3047 79.5186 69.7361V56.9111C79.5186 56.3425 79.2027 55.7739 78.6341 55.5844ZM59.9967 59.1855L66.8199 62.2812V71.8842L59.9967 68.7885V59.1855ZM68.273 59.7541L62.0816 56.9111L68.273 54.0681L74.5276 56.9111L68.273 59.7541ZM41.233 32.9037L48.0562 35.9994V45.6023L41.233 42.5066V32.9037ZM50.9624 35.9994L57.7855 32.9037V42.5066L50.9624 45.6023V35.9994ZM49.5093 27.7231L55.7007 30.5661L49.5093 33.4723L43.3179 30.5661L49.5093 27.7231ZM32.1987 62.2812L39.0218 59.1855V68.7885L32.1987 71.8842V62.2812ZM30.7456 59.7541L24.491 56.9111L30.7456 54.0681L36.937 56.9111L30.7456 59.7541ZM22.4693 59.1855L29.2925 62.2812V71.8842L22.4693 68.7885V59.1855ZM41.928 69.3571V56.9111C41.928 56.3425 41.6121 55.8371 41.0435 55.5844L32.325 51.6042C32.8936 47.2449 35.0417 43.3911 38.2005 40.7377V43.4543C38.2005 44.0229 38.5164 44.5283 39.085 44.781L48.8775 49.2035C49.067 49.2666 49.2566 49.3298 49.5093 49.3298C49.762 49.3298 49.9515 49.2666 50.1411 49.2035L59.8704 44.7179C60.3758 44.4651 60.7549 43.9597 60.7549 43.3911V40.6745C63.9138 43.3911 66.0618 47.245 66.6304 51.541L57.9119 55.5212C57.4065 55.7739 57.0274 56.2793 57.0274 56.8479V69.3571C54.753 70.4943 52.1627 71.126 49.4461 71.126C46.7927 71.1892 44.2656 70.4943 41.928 69.3571ZM69.7893 71.8842V62.2812L76.6124 59.1855V68.7885L69.7893 71.8842Z" fill="black"/>
<defs>
<linearGradient id="paint0_linear_7581_60634" x1="11.809" y1="1.81213e-05" x2="100.05" y2="16.5617" gradientUnits="userSpaceOnUse">
<stop stop-color="#2EC4F3"/>
<stop offset="1" stop-color="#BFD633"/>
</linearGradient>
</defs>
</svg>
