<svg width="100" height="100" viewBox="0 0 100 100" fill="none" xmlns="http://www.w3.org/2000/svg">
<rect opacity="0.2" width="100" height="100" rx="20" fill="url(#paint0_linear_7581_60545)"/>
<path d="M29.2423 55.7812L41.1686 61.9967C41.3179 62.0757 41.4783 62.1126 41.635 62.1126C42.0002 62.1126 42.3518 61.9127 42.532 61.5673C42.791 61.0739 42.5986 60.4619 42.1039 60.2053L31.8626 54.8682L42.1172 49.3079C42.6081 49.0427 42.7908 48.4283 42.5243 47.9385C42.2578 47.4463 41.6422 47.2624 41.1549 47.5314L29.2285 53.9972C28.8992 54.1749 28.6956 54.5203 28.6993 54.8929C28.7019 55.2679 28.9116 55.6085 29.2423 55.7812Z" fill="black"/>
<path d="M45.7654 66.3487C45.9023 66.4128 46.0479 66.4449 46.1897 66.4449C46.5709 66.4449 46.9361 66.2278 47.1076 65.8601L55.8411 47.0645C56.078 46.5587 55.8583 45.9579 55.3525 45.7222C54.8492 45.4866 54.2446 45.705 54.0102 46.2133L45.2743 65.0064C45.0387 65.5147 45.2583 66.1143 45.7654 66.3487Z" fill="black"/>
<path d="M58.7148 57.0495H70.361C70.9187 57.0495 71.3727 56.5955 71.3727 56.0378C71.3727 55.4801 70.9187 55.0261 70.361 55.0261H58.7148C58.1571 55.0261 57.7031 55.4801 57.7031 56.0378C57.7031 56.5955 58.1571 57.0495 58.7148 57.0495Z" fill="black"/>
<path d="M76.0702 25H24.0026C23.4449 25 22.9922 25.4528 22.9922 26.0104V38.0836V72.0317C22.9922 73.6676 24.3233 75 25.9605 75H74.1135C75.7494 75 77.0818 73.6676 77.0818 72.0317V38.0836V26.0104C77.0819 25.4528 76.6279 25 76.0702 25ZM25.013 27.0209H75.0586V37.0732H25.013V27.0209ZM75.0586 72.0316C75.0586 72.5522 74.6342 72.9767 74.1135 72.9767H25.9605C25.4386 72.9767 25.0129 72.5523 25.0129 72.0316V39.094H75.0585V72.0316H75.0586Z" fill="black"/>
<path d="M72.6845 31.0366H48.3581C47.8004 31.0366 47.3477 31.4894 47.3477 32.047C47.3477 32.6047 47.8004 33.0575 48.3581 33.0575H72.6845C73.2421 33.0575 73.6961 32.6047 73.6961 32.047C73.6961 31.4894 73.2421 31.0366 72.6845 31.0366Z" fill="black"/>
<path d="M30.0168 34.1276C31.1661 33.8562 31.8778 32.7045 31.6064 31.5552C31.335 30.406 30.1834 29.6943 29.0341 29.9657C27.8848 30.237 27.1731 31.3887 27.4445 32.538C27.7159 33.6873 28.8675 34.399 30.0168 34.1276Z" fill="black"/>
<path d="M35.845 34.1271C36.9942 33.8557 37.7059 32.704 37.4345 31.5548C37.1632 30.4055 36.0115 29.6938 34.8622 29.9652C33.7129 30.2365 33.0012 31.3882 33.2726 32.5375C33.544 33.6868 34.6957 34.3985 35.845 34.1271Z" fill="black"/>
<path d="M42.6961 33.5598C43.5311 32.7248 43.5311 31.3709 42.6961 30.5359C41.861 29.7008 40.5072 29.7008 39.6721 30.5359C38.8371 31.3709 38.8371 32.7248 39.6721 33.5598C40.5072 34.3949 41.861 34.3949 42.6961 33.5598Z" fill="black"/>
<defs>
<linearGradient id="paint0_linear_7581_60545" x1="11.809" y1="1.81213e-05" x2="100.05" y2="16.5617" gradientUnits="userSpaceOnUse">
<stop stop-color="#2EC4F3"/>
<stop offset="1" stop-color="#BFD633"/>
</linearGradient>
</defs>
</svg>
