<svg width="100" height="100" viewBox="0 0 100 100" fill="none" xmlns="http://www.w3.org/2000/svg">
<rect opacity="0.2" width="100" height="100" rx="20" fill="url(#paint0_linear_7581_60603)"/>
<path d="M77.0815 24.0898H21.9338C19.2812 24.0898 17.125 26.246 17.125 28.8986V61.7725C17.125 64.4252 19.2812 66.5813 21.9338 66.5813H48.9412V72.1997C46.3667 72.2564 43.7788 72.6747 41.2715 73.0821C38.6243 73.5112 35.8879 73.9564 33.2165 73.9564C32.9034 73.9564 32.6498 74.2101 32.6498 74.5231C32.6498 74.8362 32.9034 75.0898 33.2165 75.0898C35.9771 75.0898 38.7593 74.6392 41.4525 74.202C44.0998 73.7729 46.8362 73.3277 49.5076 73.3277C52.1765 73.3277 54.9155 73.7729 57.5627 74.202C60.2532 74.6392 63.0381 75.0898 65.7988 75.0898C66.1118 75.0898 66.3655 74.8362 66.3655 74.5231C66.3655 74.2101 66.1118 73.9564 65.7988 73.9564C63.1299 73.9564 60.3909 73.5112 57.7437 73.0821C55.2368 72.6746 52.6488 72.2564 50.0741 72.1997V66.5813H77.0815C79.7341 66.5813 81.8903 64.4252 81.8903 61.7725L81.8876 28.8986C81.8876 26.2487 79.7314 24.0898 77.0815 24.0898ZM21.9338 25.2205H77.0787C79.1053 25.2205 80.7568 26.8693 80.7568 28.8986V61.2088H18.258V28.8986C18.258 26.872 19.9072 25.2205 21.9338 25.2205ZM77.0815 65.4504H21.9338C20.0988 65.4504 18.5714 64.0984 18.2989 62.339H80.7141C80.4415 64.0984 78.9165 65.4504 77.0815 65.4504ZM45.6217 41.8917H37.016C36.1525 41.8917 35.4509 42.5933 35.4509 43.4568V49.623C35.4509 50.4866 36.1525 51.1882 37.016 51.1882H45.6217C46.4853 51.1882 47.1869 50.4866 47.1869 49.623V43.4568C47.1869 42.596 46.4853 41.8917 45.6217 41.8917ZM46.0562 49.6228C46.0562 49.8629 45.8619 50.0572 45.6217 50.0572H37.016C36.7759 50.0572 36.5816 49.8629 36.5816 49.6228V43.4565C36.5816 43.2164 36.7759 43.0221 37.016 43.0221H45.6217C45.8619 43.0221 46.0562 43.2164 46.0562 43.4565V49.6228ZM30.4586 47.4153V48.8645C30.4586 49.1775 30.2049 49.4312 29.8919 49.4312C29.5789 49.4312 29.3252 49.1775 29.3252 48.8645V47.4153C29.3252 47.1023 29.5789 46.8486 29.8919 46.8486C30.2049 46.8486 30.4586 47.1023 30.4586 47.4153ZM24.5892 37.9109C24.6729 38.3508 24.851 38.7583 25.102 39.1091L25.0939 53.2573H23.9847C23.6717 53.2573 23.418 53.511 23.418 53.824C23.418 54.137 23.6717 54.3907 23.9847 54.3907H50.8083C51.1214 54.3907 51.375 54.137 51.375 53.824C51.375 53.511 51.1214 53.2573 50.8083 53.2573H49.6992L49.7073 39.1111C49.961 38.7603 50.1391 38.3528 50.2227 37.9103C50.6869 37.8833 51.097 37.6701 51.3885 37.3031C51.7015 36.9064 51.8095 36.4207 51.6934 35.9295L51.062 33.2795C50.8866 32.5509 50.2416 32.0409 49.4914 32.0409L25.3206 32.0355C24.5705 32.0355 23.9255 32.5455 23.7501 33.2742L23.1186 35.9241C23.0026 36.4152 23.1105 36.9037 23.4209 37.2977C23.7123 37.6728 24.1251 37.8839 24.5892 37.9109ZM47.2492 39.2467C46.4018 39.2467 45.6813 38.6881 45.4411 37.9163H49.0599C48.8171 38.6854 48.0992 39.2467 47.2492 39.2467ZM25.7526 37.9163H29.3714C29.1312 38.6854 28.4107 39.2467 27.5633 39.2467C26.7133 39.2467 25.9928 38.6854 25.7526 37.9163ZM33.2598 53.2576H28.7424V43.4588C28.7424 43.2186 28.9367 43.0243 29.1769 43.0243H32.8226C33.0628 43.0243 33.2571 43.2186 33.2571 43.4588L33.2598 53.2576ZM34.3905 53.2576V43.4588C34.3905 42.5953 33.6889 41.8937 32.8254 41.8937H29.1797C28.3161 41.8937 27.6145 42.5953 27.6145 43.4588V53.2603H26.2275L26.2356 40.0668C26.6376 40.2638 27.0856 40.3772 27.5633 40.3772C28.578 40.3772 29.4738 39.8752 30.0244 39.1062C30.5749 39.8753 31.4708 40.3772 32.4854 40.3772C33.5001 40.3772 34.396 39.8752 34.9465 39.1062C35.497 39.8753 36.393 40.3772 37.4076 40.3772C38.4222 40.3772 39.3182 39.8752 39.8687 39.1062C40.4192 39.8753 41.3152 40.3772 42.3298 40.3772C43.3444 40.3772 44.2403 39.8752 44.7909 39.1062C45.3414 39.8753 46.2373 40.3772 47.252 40.3772C47.7269 40.3772 48.1748 40.2638 48.577 40.0668L48.5662 53.2576H34.3905ZM30.6746 37.9163H34.2934C34.0532 38.6854 33.3327 39.2467 32.4854 39.2467C31.6353 39.2467 30.9148 38.6854 30.6746 37.9163ZM35.5968 37.9163H39.2156C38.9754 38.6854 38.2549 39.2467 37.4075 39.2467C36.5575 39.2467 35.837 38.6854 35.5968 37.9163ZM40.519 37.9163H44.1377C43.8976 38.6854 43.1771 39.2467 42.3297 39.2467C41.4796 39.2467 40.7592 38.6854 40.519 37.9163ZM24.2195 36.1892L24.851 33.5392C24.9022 33.318 25.0938 33.1695 25.3205 33.1695H49.4913C49.7207 33.1695 49.9069 33.318 49.9609 33.5392L50.5923 36.1892C50.6301 36.3457 50.6004 36.4752 50.5006 36.5994C50.4007 36.7235 50.282 36.7829 50.1228 36.7829L24.6891 36.7856C24.5299 36.7856 24.4085 36.7262 24.3113 36.6021C24.2115 36.4752 24.1817 36.3457 24.2195 36.1892Z" fill="black"/>
<path fill-rule="evenodd" clip-rule="evenodd" d="M66.074 35.7717C65.9959 35.7717 65.9211 35.8027 65.8659 35.8579C65.8108 35.9131 65.7798 35.9879 65.7798 36.0659V37.2919C64.9192 37.4822 64.0985 37.8203 63.3536 38.2914L62.4903 37.4282C62.4351 37.3731 62.3603 37.3421 62.2823 37.3421C62.2043 37.3421 62.1295 37.3731 62.0744 37.4282L60.1452 39.3568C60.1179 39.3841 60.0962 39.4166 60.0814 39.4523C60.0666 39.488 60.059 39.5263 60.059 39.5649C60.059 39.6035 60.0666 39.6418 60.0814 39.6775C60.0962 39.7132 60.1179 39.7457 60.1452 39.773L61.0084 40.6359C60.5371 41.3805 60.1987 42.2011 60.008 43.0614H58.7825C58.7044 43.0614 58.6296 43.0924 58.5744 43.1476C58.5193 43.2028 58.4883 43.2776 58.4883 43.3556V46.0833C58.4883 46.1613 58.5193 46.2361 58.5744 46.2913C58.6296 46.3465 58.7044 46.3775 58.7825 46.3775H60.008C60.1987 47.2377 60.5371 48.0584 61.0084 48.803L60.1452 49.666C60.09 49.7211 60.059 49.7959 60.059 49.874C60.059 49.952 60.09 50.0268 60.1452 50.082L62.0744 52.0107C62.1295 52.0659 62.2043 52.0968 62.2823 52.0968C62.3603 52.0968 62.4351 52.0659 62.4903 52.0107L63.3537 51.1475C64.0985 51.6185 64.9192 51.9567 65.7798 52.147V53.3729C65.7798 53.4509 65.8108 53.5257 65.8659 53.5809C65.9211 53.6361 65.9959 53.6671 66.074 53.6671H68.8022C68.8802 53.6671 68.955 53.6361 69.0102 53.5809C69.0654 53.5257 69.0964 53.4509 69.0964 53.3729V52.147C69.9569 51.9567 70.7776 51.6185 71.5225 51.1475L72.3858 52.0107C72.441 52.0659 72.5158 52.0969 72.5939 52.0969C72.6719 52.0969 72.7467 52.0659 72.8019 52.0107L74.7309 50.082C74.7861 50.0268 74.8171 49.952 74.8171 49.874C74.8171 49.7959 74.7861 49.7211 74.7309 49.666L73.8676 48.8029C74.3387 48.0583 74.6769 47.2377 74.8673 46.3775H76.0928C76.1708 46.3775 76.2456 46.3464 76.3007 46.2913C76.3559 46.2361 76.3869 46.1613 76.3869 46.0833V43.3556C76.3869 43.2776 76.3559 43.2028 76.3007 43.1476C76.2456 43.0925 76.1708 43.0615 76.0928 43.0614H74.8713C74.6794 42.2011 74.3396 41.3807 73.8671 40.6366L74.7309 39.773C74.7583 39.7457 74.78 39.7132 74.7948 39.6775C74.8096 39.6418 74.8172 39.6035 74.8172 39.5649C74.8172 39.5263 74.8096 39.488 74.7948 39.4523C74.78 39.4166 74.7583 39.3841 74.7309 39.3568L72.8019 37.4282C72.7467 37.373 72.6719 37.342 72.5939 37.342C72.5158 37.342 72.441 37.373 72.3858 37.4282L71.522 38.2918C70.7777 37.8191 69.957 37.4792 69.0964 37.2871V36.0659C69.0964 35.9879 69.0654 35.9131 69.0102 35.8579C68.955 35.8027 68.8802 35.7717 68.8022 35.7717H66.074ZM66.368 36.3601H68.508V37.5263C68.508 37.5948 68.5319 37.6611 68.5756 37.7139C68.6193 37.7667 68.6801 37.8026 68.7474 37.8153C69.696 37.9952 70.5973 38.3686 71.3952 38.9121C71.4519 38.9506 71.5202 38.9681 71.5884 38.9616C71.6566 38.9551 71.7204 38.925 71.7688 38.8765L72.5939 38.0518L74.1069 39.5645L73.2819 40.3891C73.2334 40.4375 73.2033 40.5013 73.1968 40.5696C73.1903 40.6378 73.2078 40.7061 73.2464 40.7628C73.7897 41.5605 74.1629 42.4616 74.3426 43.4099C74.3553 43.4772 74.3912 43.538 74.4439 43.5817C74.4967 43.6254 74.563 43.6493 74.6316 43.6494H75.7982V45.7887H74.6272C74.5586 45.7887 74.4922 45.8127 74.4394 45.8565C74.3867 45.9002 74.3508 45.9611 74.3382 46.0285C74.16 46.9767 73.7886 47.8781 73.2469 48.6766C73.2085 48.7332 73.1911 48.8014 73.1976 48.8695C73.2041 48.9376 73.2341 49.0013 73.2825 49.0497L74.1066 49.8735L72.5935 51.3862L71.7693 50.5623C71.721 50.5139 71.6573 50.4839 71.5892 50.4774C71.5211 50.4709 71.4529 50.4883 71.3962 50.5267C70.5976 51.0684 69.6961 51.4397 68.7476 51.6177C68.6802 51.6304 68.6193 51.6662 68.5755 51.719C68.5317 51.7717 68.5077 51.8382 68.5077 51.9068V53.0783H66.3677V51.9068C66.3677 51.8382 66.3437 51.7718 66.2999 51.719C66.2561 51.6662 66.1953 51.6304 66.1279 51.6177C65.1794 51.4397 64.2778 51.0684 63.4792 50.5267C63.4226 50.4883 63.3544 50.4709 63.2863 50.4774C63.2182 50.4839 63.1545 50.5139 63.1061 50.5623L62.282 51.3862L60.7689 49.8735L61.593 49.0497C61.6414 49.0013 61.6714 48.9376 61.6779 48.8695C61.6844 48.8013 61.667 48.7331 61.6285 48.6765C61.0865 47.8781 60.7149 46.9767 60.5365 46.0285C60.5239 45.9611 60.488 45.9002 60.4353 45.8565C60.3825 45.8127 60.3161 45.7887 60.2475 45.7887H59.0765V43.6494H60.2475C60.3161 43.6493 60.3825 43.6254 60.4353 43.5816C60.488 43.5378 60.5239 43.4769 60.5365 43.4095C60.7149 42.4613 61.0865 41.5598 61.6285 40.7616C61.667 40.7049 61.6845 40.6367 61.678 40.5685C61.6715 40.5004 61.6414 40.4366 61.593 40.3882L60.7689 39.5645L62.282 38.0518L63.1061 38.8756C63.1545 38.924 63.2182 38.954 63.2863 38.9605C63.3544 38.967 63.4226 38.9496 63.4792 38.9112C64.2778 38.3697 65.1794 37.9983 66.1279 37.8203C66.1953 37.8076 66.2562 37.7718 66.3 37.719C66.3437 37.6662 66.3677 37.5997 66.3677 37.5311L66.368 36.3601ZM67.4377 39.4374C66.0366 39.4374 64.6927 39.994 63.7019 40.9845C62.7112 41.975 62.1545 43.3187 62.1545 44.7195C62.1545 46.1202 62.7112 47.4639 63.7019 48.4544C64.6927 49.4448 66.0366 50.0014 67.4377 50.0014C68.8387 50.0014 70.1826 49.4448 71.1733 48.4544C72.164 47.4639 72.7208 46.1202 72.7208 44.7195C72.7208 43.3187 72.164 41.975 71.1733 40.9845C70.1826 39.994 68.8387 39.4374 67.4377 39.4374ZM67.4377 40.0258C68.6829 40.0258 69.8768 40.5202 70.7574 41.4005C71.6379 42.2808 72.1325 43.4745 72.1325 44.7195C72.1325 45.9643 71.6379 47.158 70.7574 48.0383C69.8768 48.9186 68.6829 49.4131 67.4376 49.4131C66.1924 49.4131 64.9984 48.9186 64.1179 48.0383C63.2373 47.158 62.7428 45.9643 62.7428 44.7195C62.7428 43.4745 63.2373 42.2808 64.1179 41.4005C64.9984 40.5202 66.1924 40.0258 67.4377 40.0258ZM67.9032 42.5804C67.8906 42.5796 67.878 42.5796 67.8654 42.5804C67.8078 42.5887 67.754 42.6139 67.7107 42.6528C67.6675 42.6917 67.6367 42.7426 67.6223 42.7989L66.6838 46.4889C66.6646 46.5645 66.6762 46.6446 66.716 46.7117C66.7559 46.7787 66.8207 46.8272 66.8963 46.8464C66.9338 46.856 66.9727 46.858 67.011 46.8525C67.0492 46.847 67.086 46.834 67.1192 46.8142C67.1524 46.7945 67.1814 46.7684 67.2046 46.7375C67.2277 46.7065 67.2445 46.6713 67.254 46.6339L68.1925 42.944C68.202 42.9066 68.2041 42.8676 68.1985 42.8294C68.193 42.7912 68.18 42.7544 68.1603 42.7212C68.1405 42.688 68.1144 42.659 68.0835 42.6358C68.0526 42.6127 68.0173 42.5959 67.9799 42.5864C67.9549 42.5793 67.9291 42.5756 67.9032 42.5753V42.5804ZM65.9114 42.9653C65.8494 42.9699 65.7905 42.994 65.7431 43.0342L64.0166 44.495C63.9839 44.5226 63.9577 44.557 63.9397 44.5958C63.9217 44.6346 63.9124 44.6768 63.9124 44.7196C63.9124 44.7623 63.9217 44.8046 63.9397 44.8434C63.9577 44.8821 63.9839 44.9165 64.0166 44.9442L65.7431 46.4049C65.7726 46.4299 65.8067 46.4488 65.8435 46.4606C65.8803 46.4724 65.919 46.4768 65.9575 46.4736C65.996 46.4704 66.0335 46.4596 66.0678 46.4419C66.1022 46.4242 66.1327 46.4 66.1577 46.3705C66.1826 46.341 66.2015 46.3069 66.2133 46.2701C66.2251 46.2333 66.2295 46.1945 66.2263 46.156C66.2231 46.1175 66.2124 46.0801 66.1947 46.0457C66.177 46.0114 66.1527 45.9808 66.1232 45.9559L64.6622 44.7197L66.1232 43.4834C66.1527 43.4584 66.177 43.4279 66.1947 43.3935C66.2124 43.3592 66.2231 43.3217 66.2263 43.2832C66.2295 43.2447 66.2251 43.206 66.2133 43.1692C66.2015 43.1324 66.1826 43.0983 66.1577 43.0688C66.1327 43.0392 66.1022 43.0149 66.0679 42.9972C66.0336 42.9794 65.9961 42.9686 65.9575 42.9654C65.942 42.9641 65.927 42.9641 65.9114 42.9653ZM68.9638 42.9653C68.9487 42.9642 68.9334 42.9642 68.9183 42.9655C68.8797 42.9687 68.8422 42.9795 68.8079 42.9973C68.7736 43.015 68.7431 43.0394 68.7181 43.0689C68.6932 43.0984 68.6743 43.1325 68.6625 43.1693C68.6507 43.2061 68.6463 43.2448 68.6495 43.2833C68.6527 43.3218 68.6635 43.3593 68.6811 43.3937C68.6988 43.428 68.7231 43.4585 68.7526 43.4835L70.2136 44.7198L68.7526 45.956C68.7231 45.981 68.6988 46.0115 68.6811 46.0458C68.6635 46.0802 68.6527 46.1177 68.6495 46.1562C68.6463 46.1947 68.6507 46.2334 68.6625 46.2702C68.6743 46.307 68.6932 46.3411 68.7181 46.3706C68.7431 46.4001 68.7736 46.4244 68.808 46.442C68.8423 46.4597 68.8798 46.4705 68.9183 46.4737C68.9568 46.4769 68.9955 46.4725 69.0323 46.4607C69.0691 46.4489 69.1032 46.43 69.1327 46.4051L70.8591 44.9443C70.8918 44.9166 70.918 44.8823 70.936 44.8435C70.954 44.8047 70.9633 44.7624 70.9633 44.7197C70.9633 44.6769 70.954 44.6347 70.936 44.5959C70.918 44.5571 70.8918 44.5227 70.8591 44.4951L69.1327 43.0343C69.0853 42.9941 69.0258 42.9699 68.9638 42.9653Z" fill="black" stroke="black" stroke-width="0.3"/>
<defs>
<linearGradient id="paint0_linear_7581_60603" x1="11.809" y1="1.81213e-05" x2="100.05" y2="16.5617" gradientUnits="userSpaceOnUse">
<stop stop-color="#2EC4F3"/>
<stop offset="1" stop-color="#BFD633"/>
</linearGradient>
</defs>
</svg>
