<svg width="100" height="100" viewBox="0 0 100 100" fill="none" xmlns="http://www.w3.org/2000/svg">
<rect opacity="0.2" width="100" height="100" rx="20" fill="url(#paint0_linear_7581_60613)"/>
<path d="M25.9101 74.5134H25.4821C25.2629 74.5134 25.0938 74.6908 25.0938 74.9017C25.0938 75.1209 25.2712 75.29 25.4821 75.29H25.9184C26.1376 75.29 26.3067 75.1126 26.3067 74.9017C26.3088 74.6908 26.1293 74.5134 25.9101 74.5134Z" fill="black"/>
<path d="M74.5886 74.5134H74.0624C73.9163 73.4841 73.196 72.6344 72.1751 72.3275C72.1668 72.3275 72.1584 72.3191 72.15 72.3191C72.125 71.5091 71.5759 70.8284 70.8305 70.603C71.0164 70.0435 71.1625 69.2501 70.58 68.9599C70.1353 68.7407 69.4714 68.7177 68.6843 69.6489C68.1164 68.3691 66.9598 67.4463 65.5756 67.1707V62.3605C65.9472 62.2707 66.3209 62.1747 66.6696 62.0682C66.8805 62.0035 66.9932 61.7843 66.9368 61.5817C66.8721 61.3709 66.6529 61.2581 66.4504 61.3145C66.1748 61.3959 65.8763 61.4774 65.584 61.5483V24.6784C65.584 24.4591 65.4065 24.29 65.1956 24.29H36.2444C36.0252 24.29 35.8561 24.4675 35.8561 24.6784V58.5778C35.2652 58.5778 34.6744 58.6028 34.1149 58.6592C33.8956 58.6842 33.7432 58.8784 33.7662 59.0893C33.7913 59.2918 33.9604 59.4379 34.1545 59.4379H34.1942C34.7287 59.3815 35.2965 59.3648 35.854 59.3565V67.2522H32.6555C32.4363 67.2522 32.2672 67.4297 32.2672 67.6406V70.8725L29.2879 70.8683C29.0687 70.8683 28.8996 71.0457 28.8996 71.2566V74.4885H27.3922C27.173 74.4885 27.0039 74.666 27.0039 74.8768C27.0039 75.096 27.1814 75.2652 27.3922 75.2652H74.5887C74.8079 75.2652 74.9771 75.0877 74.9771 74.8768C74.9771 74.691 74.7994 74.5134 74.5886 74.5134ZM60.3604 71.6218C59.8259 71.5236 59.2518 71.6781 58.8384 72.0185C58.6442 71.7846 58.4166 71.5738 58.1828 71.3858C58.1911 71.3524 58.2078 71.3128 58.2078 71.2731V68.0412H61.9971C61.0013 68.8429 60.3603 70.0664 60.3603 71.4339L60.3604 71.6218ZM64.7969 67.0871H64.7072C64.2854 67.0871 63.8804 67.1518 63.4921 67.2646H62.9096L62.9117 25.0664H64.7907V67.0871L64.7969 67.0871ZM36.633 25.0664H62.1331V67.2565L36.633 67.2586V25.0664ZM33.0462 68.0433H57.4207V70.8847H57.3811C56.7819 70.5924 56.1263 70.44 55.4374 70.44C54.74 70.44 54.0761 70.6029 53.4769 70.8847H33.0457L33.0462 68.0433ZM29.6765 71.6698H52.3434C51.8904 72.1061 51.5166 72.6343 51.2745 73.2481C51.1116 73.6531 51.0156 74.0832 50.9738 74.5112L29.6762 74.5133L29.6765 71.6698ZM51.7673 74.5133C51.8007 74.1814 51.88 73.8494 52.0094 73.5425C52.3414 72.7157 52.9406 72.0769 53.6859 71.6719H53.7026C53.7026 71.6635 53.711 71.6635 53.711 71.6551C54.2287 71.3796 54.8196 71.2251 55.4355 71.2251C56.6506 71.2251 57.7842 71.8159 58.4649 72.8201C58.538 72.9245 58.659 72.9893 58.7885 72.9893H58.8449C58.9743 72.9893 59.0954 72.9245 59.1685 72.8201C59.4837 72.3671 60.1727 72.246 60.6174 72.5529C60.7468 72.6427 60.9243 72.6427 61.0621 72.5529C61.1915 72.4631 61.2562 72.3024 61.2249 72.1395C61.1769 71.9287 61.1518 71.6865 61.1518 71.4359C61.1518 69.4672 62.7553 67.8638 64.724 67.8638C66.3838 67.8638 67.8181 68.9807 68.1898 70.5841C68.2294 70.7386 68.3526 70.8513 68.505 70.8847C68.6595 70.9098 68.8203 70.8367 68.9017 70.7073C69.1439 70.3273 69.7431 69.4692 70.2128 69.655C70.2379 69.7531 70.2212 70.0767 69.9372 70.7636C69.9289 70.7803 69.9289 70.7887 69.9289 70.8033C69.9289 70.8033 69.9289 70.8116 69.9205 70.8116C69.8808 70.9578 69.8307 71.0705 69.6282 71.3461C69.4988 71.5236 69.5385 71.7678 69.718 71.8973C69.7911 71.9453 69.8725 71.9703 69.9518 71.9703C70.0729 71.9703 70.194 71.914 70.2671 71.8075C70.3965 71.63 70.4863 71.4839 70.5594 71.3377C71.0291 71.4505 71.3778 71.8722 71.3778 72.3816V72.6321C71.3778 72.8263 71.5239 72.9891 71.7097 73.0205C71.7911 73.0372 71.8726 73.0539 71.9519 73.0768C72.6409 73.2794 73.1336 73.8389 73.2714 74.5111L51.7673 74.5133Z" fill="black"/>
<path d="M75.7125 74.5137H75.6227C75.4035 74.5137 75.2344 74.6911 75.2344 74.902C75.2344 75.1212 75.4118 75.2903 75.6227 75.2903H75.7125C75.9317 75.2903 76.1008 75.1129 76.1008 74.902C76.1008 74.6911 75.9233 74.5137 75.7125 74.5137Z" fill="black"/>
<path d="M59.8565 26.9453H38.9079C38.6886 26.9453 38.5195 27.1228 38.5195 27.3336V64.9807C38.5195 65.2 38.697 65.3691 38.9079 65.3691H59.865C60.0842 65.3691 60.2533 65.1916 60.2533 64.9807V27.3336C60.2533 27.1228 60.0757 26.9453 59.8565 26.9453ZM59.4681 27.7303V44.4368H39.2961V27.7303H59.4681ZM39.2961 45.222H59.4681V47.101H39.2961V45.222ZM39.2961 64.5923V47.8858H59.4681V64.5923H39.2961Z" fill="black"/>
<path d="M41.7837 42.4702C42.6104 42.4702 43.2744 41.8062 43.2744 40.9795C43.2744 40.1527 42.6021 39.4888 41.7837 39.4888C40.9652 39.4888 40.293 40.1527 40.293 40.9795C40.293 41.8062 40.9652 42.4702 41.7837 42.4702ZM41.7837 40.2821C42.172 40.2821 42.4872 40.5974 42.4872 40.9857C42.4872 41.374 42.172 41.6893 41.7837 41.6893C41.3953 41.6893 41.0801 41.374 41.0801 40.9857C41.078 40.5995 41.4037 40.2821 41.7837 40.2821Z" fill="black"/>
<path d="M57.7255 58.487L54.2347 56.0422C54.1137 55.9608 53.9592 55.9441 53.8297 56.0172C53.7003 56.0819 53.6189 56.2197 53.6189 56.3658V57.3053H49.318C49.0988 57.3053 48.9297 57.4828 48.9297 57.6936V59.9213C48.9297 60.1405 49.1071 60.3096 49.318 60.3096H53.6189V61.2491C53.6189 61.3953 53.7003 61.5331 53.8297 61.5978C53.8861 61.6312 53.9508 61.6375 54.0072 61.6375C54.0886 61.6375 54.1617 61.6124 54.2347 61.5644L57.7255 59.1196C57.8299 59.0465 57.8946 58.9254 57.8946 58.796C57.8967 58.6812 57.832 58.5601 57.7255 58.487ZM54.4059 60.4954V59.913C54.4059 59.6937 54.2285 59.5246 54.0176 59.5246H49.7168V58.0841H54.0176C54.2368 58.0841 54.4059 57.9066 54.4059 57.6958V57.1133L56.8194 58.8065L54.4059 60.4954Z" fill="black"/>
<path d="M47.369 57.3057H45.7008C45.4816 57.3057 45.3125 57.4831 45.3125 57.694V59.9217C45.3125 60.1409 45.49 60.31 45.7008 60.31H47.369C47.5882 60.31 47.7573 60.1325 47.7573 59.9217V57.694C47.7573 57.4748 47.5882 57.3057 47.369 57.3057ZM46.9723 59.5229H46.0892V58.0823H46.9723V59.5229Z" fill="black"/>
<path d="M41.0363 33.8598L44.527 36.3046C44.5918 36.3526 44.6732 36.3776 44.7546 36.3776C44.8193 36.3776 44.8757 36.3609 44.9321 36.338C45.0615 36.2733 45.1429 36.1355 45.1429 35.9893V35.0498H49.4438C49.663 35.0498 49.8321 34.8724 49.8321 34.6615V32.4338C49.8321 32.2146 49.6546 32.0455 49.4438 32.0455H45.1429V31.0914C45.1429 30.9452 45.0615 30.8074 44.9321 30.7427C44.8026 30.678 44.6481 30.6863 44.527 30.7678L41.0363 33.2125C40.9319 33.2856 40.8672 33.4067 40.8672 33.5361C40.8672 33.6656 40.9319 33.7888 41.0363 33.8598ZM44.3558 31.8514V32.4338C44.3558 32.653 44.5333 32.8221 44.7442 32.8221H49.045V34.2627H44.7442C44.525 34.2627 44.3558 34.4402 44.3558 34.651V35.2335L41.9424 33.5403L44.3558 31.8514Z" fill="black"/>
<path d="M51.3961 35.0434H53.0643C53.2835 35.0434 53.4526 34.8659 53.4526 34.6551V32.4274C53.4526 32.2082 53.2751 32.0391 53.0643 32.0391H51.3961C51.1769 32.0391 51.0078 32.2165 51.0078 32.4274V34.6551C51.0078 34.8722 51.1769 35.0434 51.3961 35.0434ZM51.7928 32.8241H52.6759V34.2647H51.7928V32.8241Z" fill="black"/>
<path d="M26.4529 44.0737H32.5181C33.3845 44.0737 34.0881 43.3701 34.0881 42.5036L34.0902 31.4486C34.0902 30.5822 33.3866 29.8786 32.5201 29.8786L26.4528 29.8765C25.5864 29.8765 24.8828 30.5801 24.8828 31.4466V42.5016C24.8828 43.368 25.5864 44.0737 26.4529 44.0737ZM25.6678 31.4489C25.6678 31.0188 26.0165 30.6639 26.4529 30.6639H32.5181C32.9481 30.6639 33.3031 31.0125 33.3031 31.4489L33.3052 42.5018C33.3052 42.9319 32.9565 43.2868 32.5201 43.2868H26.4528C26.0227 43.2868 25.6678 42.9382 25.6678 42.5018L25.6678 31.4489Z" fill="black"/>
<path d="M29.4896 35.0183C30.3644 35.0183 31.0847 34.3064 31.0847 33.4232C31.0847 32.5484 30.3728 31.8281 29.4896 31.8281C28.6064 31.8281 27.8945 32.54 27.8945 33.4232C27.8945 34.3064 28.6064 35.0183 29.4896 35.0183ZM29.4896 32.6132C29.9343 32.6132 30.2997 32.9785 30.2997 33.4232C30.2997 33.8679 29.9343 34.2332 29.4896 34.2332C29.0449 34.2332 28.6796 33.8679 28.6796 33.4232C28.6796 32.9785 29.0366 32.6132 29.4896 32.6132Z" fill="black"/>
<path d="M29.4818 38.9316C28.607 38.9316 27.8867 39.6436 27.8867 40.5267C27.8867 41.4015 28.5986 42.1218 29.4818 42.1218C30.365 42.1218 31.0769 41.4099 31.0769 40.5267C31.0852 39.6436 30.365 38.9316 29.4818 38.9316ZM29.4818 41.3368C29.0371 41.3368 28.6718 40.9714 28.6718 40.5267C28.6718 40.082 29.0371 39.7167 29.4818 39.7167C29.9265 39.7167 30.2918 40.082 30.2918 40.5267C30.3002 40.9714 29.9348 41.3368 29.4818 41.3368Z" fill="black"/>
<path d="M27.4745 37.3675H31.5081C31.7274 37.3675 31.8965 37.19 31.8965 36.9791C31.8965 36.7599 31.719 36.5908 31.5081 36.5908H27.4745C27.2553 36.5908 27.0862 36.7683 27.0862 36.9791C27.0779 37.19 27.2553 37.3675 27.4745 37.3675Z" fill="black"/>
<defs>
<linearGradient id="paint0_linear_7581_60613" x1="11.809" y1="1.81213e-05" x2="100.05" y2="16.5617" gradientUnits="userSpaceOnUse">
<stop stop-color="#2EC4F3"/>
<stop offset="1" stop-color="#BFD633"/>
</linearGradient>
</defs>
</svg>
