<svg width="100" height="100" viewBox="0 0 100 100" fill="none" xmlns="http://www.w3.org/2000/svg">
<rect opacity="0.2" width="100" height="100" rx="20" fill="url(#paint0_linear_7581_60642)"/>
<path d="M29.2002 60.829H20.8956C19.6223 60.829 18.5889 59.7929 18.5889 58.5224V28.4104C18.5889 27.1371 19.625 26.1038 20.8956 26.1038H71.5109C72.7842 26.1038 73.8176 27.1399 73.8176 28.4104V31.1342C73.8176 31.5868 74.1829 31.9522 74.6356 31.9522C75.0882 31.9522 75.4535 31.5868 75.4535 31.1342V28.4104C75.4535 26.2374 73.684 24.4679 71.511 24.4679H20.8956C18.7226 24.4679 16.9531 26.2374 16.9531 28.4104V58.5224C16.9531 60.6954 18.7227 62.4649 20.8956 62.4649H29.2003C29.6529 62.4649 30.0183 62.0995 30.0183 61.6469C30.0183 61.1943 29.6529 60.829 29.2002 60.829Z" fill="black"/>
<path d="M78.9274 33.1332H64.627C61.816 33.1332 59.5284 35.4208 59.5284 38.2318V47.074C59.5284 47.5266 59.8937 47.8919 60.3464 47.8919C60.799 47.8919 61.1643 47.5266 61.1643 47.074V38.2318C61.1643 36.3233 62.7185 34.7692 64.627 34.7692H78.9274C80.836 34.7692 82.39 36.3233 82.39 38.2318V70.3694C82.39 72.2779 80.8359 73.832 78.9274 73.832H64.627C62.7184 73.832 61.1643 72.2779 61.1643 70.3694V55.2698H66.721C66.9554 55.2698 67.1463 55.0789 67.1463 54.8444V51.2808C67.1463 51.0464 66.9554 50.8555 66.721 50.8555H56.9191V47.6682C56.9191 47.4692 56.6846 47.3628 56.5374 47.4937L50.6944 52.6086C50.4218 52.8486 50.4218 53.2739 50.6944 53.5139L56.5374 58.6288C56.6873 58.7597 56.9191 58.6533 56.9191 58.4543V55.267H59.5284V60.8263L33.3922 60.8291C32.9396 60.8291 32.5742 61.1944 32.5742 61.647C32.5742 62.0997 32.9396 62.465 33.3922 62.465H40.8111V69.8483H38.7526C38.3 69.8483 37.9346 70.2137 37.9346 70.6663C37.9346 71.1189 38.3 71.4843 38.7526 71.4843H53.661C54.1136 71.4843 54.4789 71.1189 54.4789 70.6663C54.4789 70.2137 54.1136 69.8483 53.661 69.8483H51.6024V62.465H59.5337V70.369C59.5337 73.18 61.8212 75.4676 64.6323 75.4676H78.9327C81.7437 75.4676 84.0313 73.1801 84.0313 70.369L84.0258 38.2315C84.0258 35.4205 81.7385 33.1332 78.9274 33.1332Z" fill="black"/>
<path d="M74.9488 39.7832C75.6386 39.7832 76.1976 39.2243 76.1976 38.5345C76.1976 37.8447 75.6387 37.2857 74.9488 37.2857H68.6042C67.9144 37.2857 67.3555 37.8446 67.3555 38.5345C67.3555 39.2243 67.9144 39.7832 68.6042 39.7832H74.9488Z" fill="black"/>
<path d="M50.8706 45.3511L56.7136 40.2361C56.9862 39.9962 56.9862 39.5709 56.7136 39.3309L50.8706 34.216C50.7207 34.0851 50.4889 34.1914 50.4889 34.3905V37.5778H40.6871C40.4526 37.5778 40.2617 37.7686 40.2617 38.0031V41.5667C40.2617 41.8012 40.4526 41.992 40.6871 41.992H50.4889V45.1793C50.4889 45.3784 50.7234 45.4847 50.8706 45.3538V45.3511Z" fill="black"/>
<defs>
<linearGradient id="paint0_linear_7581_60642" x1="11.809" y1="1.81213e-05" x2="100.05" y2="16.5617" gradientUnits="userSpaceOnUse">
<stop stop-color="#2EC4F3"/>
<stop offset="1" stop-color="#BFD633"/>
</linearGradient>
</defs>
</svg>
