<svg width="100" height="100" viewBox="0 0 100 100" fill="none" xmlns="http://www.w3.org/2000/svg">
<rect opacity="0.2" width="100" height="100" rx="20" fill="url(#paint0_linear_7581_60670)"/>
<path d="M47.0742 60.2126C45.9282 60.2126 45 61.1408 45 62.2869C45 63.4329 45.9282 64.3611 47.0742 64.3611C48.2203 64.3611 49.1484 63.4329 49.1484 62.2869C49.1484 61.1408 48.2122 60.2126 47.0742 60.2126ZM47.0742 62.8115C46.7837 62.8115 46.5496 62.5774 46.5496 62.2869C46.5496 61.9963 46.7837 61.7623 47.0742 61.7623C47.3648 61.7623 47.5988 61.9963 47.5988 62.2869C47.5988 62.5774 47.3648 62.8115 47.0742 62.8115Z" fill="black"/>
<path d="M33.6541 56.0884H60.4979C61.8054 56.0884 62.8707 55.023 62.8707 53.7155V35.669C62.8707 34.3615 61.8054 33.2961 60.4979 33.2961H33.6541C32.3466 33.2961 31.2812 34.3615 31.2812 35.669V53.7074C31.2812 55.023 32.3385 56.0884 33.6541 56.0884ZM32.8228 35.669C32.8228 35.2089 33.1941 34.8377 33.6541 34.8377H60.4979C60.9579 34.8377 61.3292 35.2089 61.3292 35.669V53.7074C61.3292 54.1594 60.9579 54.5307 60.4979 54.5307H33.6541C33.1941 54.5307 32.8228 54.1594 32.8228 53.7074V35.669Z" fill="black"/>
<path d="M37.7499 45.7898H36.2084C35.7806 45.7898 35.4336 46.1368 35.4336 46.5646C35.4336 46.9924 35.7806 47.3394 36.2084 47.3394H37.7499C38.1777 47.3394 38.5247 46.9924 38.5247 46.5646C38.5247 46.1368 38.1777 45.7898 37.7499 45.7898Z" fill="black"/>
<path d="M40.4154 45.7898C39.9877 45.7898 39.6406 46.1368 39.6406 46.5646C39.6406 46.9924 39.9877 47.3394 40.4154 47.3394H43.0788C43.5066 47.3394 43.8536 46.9924 43.8536 46.5646C43.8536 46.1368 43.5066 45.7898 43.0788 45.7898H40.4154Z" fill="black"/>
<path d="M54.5177 46.5646C54.5177 46.1368 54.1706 45.7898 53.7429 45.7898H51.0795C50.6517 45.7898 50.3047 46.1368 50.3047 46.5646C50.3047 46.9924 50.6517 47.3394 51.0795 47.3394H53.7429C54.1706 47.3394 54.5177 46.9924 54.5177 46.5646Z" fill="black"/>
<path d="M45.7436 47.3394H48.407C48.8347 47.3394 49.1818 46.9924 49.1818 46.5646C49.1818 46.1368 48.8347 45.7898 48.407 45.7898H45.7436C45.3158 45.7898 44.9688 46.1368 44.9688 46.5646C44.9688 46.9924 45.3239 47.3394 45.7436 47.3394Z" fill="black"/>
<path d="M57.957 45.7898H56.4154C55.9877 45.7898 55.6406 46.1368 55.6406 46.5646C55.6406 46.9924 55.9877 47.3394 56.4154 47.3394H57.957C58.3847 47.3394 58.7318 46.9924 58.7318 46.5646C58.7318 46.1368 58.3847 45.7898 57.957 45.7898Z" fill="black"/>
<path d="M36.904 43.312H41.8354C42.6747 43.312 43.3527 42.634 43.3527 41.7946V37.6623C43.3527 36.823 42.6747 36.145 41.8354 36.145H36.904C36.0647 36.145 35.3867 36.823 35.3867 37.6623V41.7946C35.3867 42.634 36.0647 43.312 36.904 43.312ZM39.6643 41.7785V40.4952C39.6724 40.4952 39.6804 40.5033 39.6885 40.5033H41.8112V41.7704L39.6643 41.7785ZM41.8112 38.9537H39.6966C39.6885 38.9537 39.6804 38.9618 39.6724 38.9618V37.6785L41.8112 37.6623V38.9537ZM38.1228 37.6866V41.7946L36.9363 41.8027L36.904 37.6946L38.1228 37.6866Z" fill="black"/>
<path d="M49.7709 41.157H58.2373C58.665 41.157 59.0121 40.8099 59.0121 40.3822V37.3798C59.0121 36.952 58.665 36.605 58.2373 36.605H49.7709C49.3431 36.605 48.9961 36.952 48.9961 37.3798V40.3822C48.9961 40.818 49.3431 41.157 49.7709 41.157ZM50.5457 38.1627H57.4705V39.6154H50.5457V38.1627Z" fill="black"/>
<path d="M57.9563 48.9534H53.7514C53.3236 48.9534 52.9766 49.3004 52.9766 49.7282C52.9766 50.1559 53.3236 50.503 53.7514 50.503H57.9563C58.3841 50.503 58.7311 50.1559 58.7311 49.7282C58.7311 49.3004 58.3841 48.9534 57.9563 48.9534Z" fill="black"/>
<path d="M57.9522 51.2131H55.9506C55.5228 51.2131 55.1758 51.5602 55.1758 51.9879C55.1758 52.4157 55.5228 52.7627 55.9506 52.7627H57.9522C58.3799 52.7627 58.727 52.4157 58.727 51.9879C58.727 51.5602 58.3799 51.2131 57.9522 51.2131Z" fill="black"/>
<path d="M75.4747 30.8101C75.4747 27.2832 72.6015 24.4099 69.0745 24.4099C66.4434 24.4099 64.1754 26.0079 63.1908 28.292H28.0178C25.9597 28.292 24.2891 29.9627 24.2891 32.0208V62.8355C24.2891 64.8935 25.9678 66.5723 28.0259 66.5723H42.0531C42.2226 68.7514 40.9716 70.0347 39.761 71.1485H38.1629C37.598 71.1485 37.0653 71.3664 36.6698 71.7699C36.2582 72.1654 36.0403 72.7062 36.0403 73.2792C36.0403 74.4495 36.9927 75.4099 38.171 75.4099H55.9915C56.5565 75.4099 57.1134 75.1759 57.4847 74.7965C57.8963 74.4011 58.1142 73.8603 58.1142 73.2873C58.1142 72.117 57.1618 71.1566 55.9835 71.1566H54.3854C53.1748 70.0508 51.9157 68.7676 52.0933 66.5804H66.1205C68.1786 66.5804 69.8573 64.9016 69.8573 62.8435V37.1619C73.0131 36.7745 75.4747 34.0788 75.4747 30.8101ZM56.5565 73.2711C56.5565 73.4729 56.4677 73.602 56.3789 73.6908C56.274 73.7957 56.1288 73.8522 55.9754 73.8522H38.1549C37.832 73.8522 37.5738 73.594 37.5738 73.2711C37.5738 73.0694 37.6625 72.9402 37.7432 72.8595C37.8562 72.7465 38.0015 72.69 38.1549 72.69H55.9754C56.2982 72.69 56.5565 72.9483 56.5565 73.2711ZM28.0178 29.8336H62.763C62.7146 30.1483 62.6823 30.4792 62.6823 30.8101C62.6823 34.0788 65.1439 36.7745 68.3077 37.1539V57.9929H25.8306V32.0208C25.8306 30.8182 26.8153 29.8336 28.0178 29.8336ZM52.1902 71.1404H41.9482C42.9248 70.0428 43.7399 68.6061 43.6108 66.5723H50.5275C50.3903 68.6142 51.2136 70.0428 52.1902 71.1404ZM66.1125 65.0227H28.0259C26.8153 65.0227 25.8306 64.038 25.8306 62.8274V59.5345H68.2997V62.8274C68.3077 64.038 67.3231 65.0227 66.1125 65.0227ZM69.0745 35.6688C66.3949 35.6688 64.2239 33.4897 64.2239 30.8182C64.2239 28.1467 66.403 25.9676 69.0745 25.9676C71.754 25.9676 73.9251 28.1467 73.9251 30.8182C73.9251 33.4897 71.754 35.6688 69.0745 35.6688Z" fill="black"/>
<path d="M70.523 28.8809L68.3035 31.1004L67.6417 30.4386C67.343 30.14 66.8507 30.14 66.5521 30.4386C66.2535 30.7373 66.2535 31.2296 66.5521 31.5282L67.7627 32.7388C67.9161 32.8922 68.1098 32.9648 68.3115 32.9648C68.5133 32.9648 68.707 32.8922 68.8604 32.7388L71.6287 29.9705C71.9273 29.6719 71.9273 29.1796 71.6287 28.8809C71.3139 28.5823 70.8216 28.5823 70.523 28.8809Z" fill="black"/>
<defs>
<linearGradient id="paint0_linear_7581_60670" x1="11.809" y1="1.81213e-05" x2="100.05" y2="16.5617" gradientUnits="userSpaceOnUse">
<stop stop-color="#2EC4F3"/>
<stop offset="1" stop-color="#BFD633"/>
</linearGradient>
</defs>
</svg>
