<svg width="100" height="100" viewBox="0 0 100 100" fill="none" xmlns="http://www.w3.org/2000/svg">
<rect opacity="0.2" width="100" height="100" rx="20" fill="url(#paint0_linear_7581_60654)"/>
<path d="M48.6651 70.3221C48.6651 70.8057 48.2694 71.2014 47.7858 71.2014H40.9008C40.4171 71.2014 40.0214 70.8057 40.0214 70.3221C40.0214 69.8385 40.4171 69.4428 40.9008 69.4428H47.7858C48.2694 69.4428 48.6651 69.8385 48.6651 70.3221ZM72.4592 36.4334V53.6328C72.4592 55.919 70.6039 57.7743 68.3176 57.7743H61.3271V68.9328C61.3271 72.2829 58.6013 75 55.2599 75H33.4266C30.0764 75 27.3594 72.2741 27.3594 68.9328V30.0672C27.3594 26.7171 30.0852 24 33.4266 24H55.2599C58.6101 24 61.3271 26.7259 61.3271 30.0672V32.2919H68.3176C70.6039 32.2919 72.4592 34.1472 72.4592 36.4334ZM37.7001 25.7586L38.9399 28.6076H49.9225L51.048 25.7586H37.7089H37.7001ZM29.1092 30.0672V65.6793H59.5597V58.891L54.3542 63.8767C54.1871 64.035 53.9673 64.1229 53.7475 64.1229C53.6332 64.1229 53.5101 64.0966 53.4045 64.0526C53.0792 63.9119 52.8682 63.5953 52.8682 63.2436V57.7743H47.7858C45.5083 57.7743 43.6442 55.919 43.6442 53.6328V36.4334C43.6442 34.156 45.4995 32.2919 47.7858 32.2919H59.5685V30.0672C59.5685 27.6931 57.634 25.7586 55.2599 25.7586H52.9297L51.3382 29.8034C51.2063 30.1376 50.8809 30.3574 50.5204 30.3574H38.3683C38.0166 30.3574 37.7001 30.1464 37.5594 29.8298L35.792 25.7586H33.4354C31.0613 25.7586 29.1268 27.6931 29.1268 30.0672H29.1092ZM59.5685 68.9328V67.4379H29.1092V68.9328C29.1092 71.3069 31.0437 73.2414 33.4178 73.2414H55.2511C57.6252 73.2414 59.5597 71.3069 59.5597 68.9328H59.5685ZM70.7006 36.4334C70.7006 35.1233 69.6366 34.0505 68.3176 34.0505H47.7858C46.4756 34.0505 45.4028 35.1145 45.4028 36.4334V53.6328C45.4028 54.9429 46.4668 56.0157 47.7858 56.0157H53.7475C54.2311 56.0157 54.6268 56.4114 54.6268 56.895V61.186L59.7708 56.2619C59.9378 56.1036 60.1489 56.0157 60.3775 56.0157H68.3089C69.619 56.0157 70.6918 54.9517 70.6918 53.6328V36.4334H70.7006ZM67.113 39.1417C67.2801 39.3616 67.3328 39.6429 67.2625 39.9067L65.2576 47.0995C65.1521 47.4776 64.8092 47.7414 64.4135 47.7414H54.3806C53.9849 47.7414 53.6332 47.4776 53.5276 47.0907L51.1447 38.2712H48.9025C48.4189 38.2712 48.0232 37.8755 48.0232 37.3919C48.0232 36.9083 48.4189 36.5126 48.9025 36.5126H51.8218C52.2175 36.5126 52.5692 36.7764 52.6747 37.1633L53.1144 38.79H66.4271C66.6997 38.79 66.9635 38.9219 67.1306 39.1417H67.113ZM65.2576 40.5486H53.5804L55.0489 45.9828H63.7452L65.2576 40.5486ZM58.9882 51.241C58.9882 52.5952 57.8802 53.7031 56.5261 53.7031C55.172 53.7031 54.064 52.5952 54.064 51.241C54.064 49.8869 55.172 48.779 56.5261 48.779C57.8802 48.779 58.9882 49.8869 58.9882 51.241ZM57.2295 51.241C57.2295 50.8541 56.913 50.5376 56.5261 50.5376C56.1392 50.5376 55.8226 50.8541 55.8226 51.241C55.8226 51.6279 56.1392 51.9445 56.5261 51.9445C56.913 51.9445 57.2295 51.6279 57.2295 51.241ZM64.8795 51.241C64.8795 52.5952 63.7716 53.7031 62.4175 53.7031C61.0633 53.7031 59.9554 52.5952 59.9554 51.241C59.9554 49.8869 61.0633 48.779 62.4175 48.779C63.7716 48.779 64.8795 49.8869 64.8795 51.241ZM63.1209 51.241C63.1209 50.8541 62.8044 50.5376 62.4175 50.5376C62.0306 50.5376 61.714 50.8541 61.714 51.241C61.714 51.6279 62.0306 51.9445 62.4175 51.9445C62.8044 51.9445 63.1209 51.6279 63.1209 51.241Z" fill="black"/>
<defs>
<linearGradient id="paint0_linear_7581_60654" x1="11.809" y1="1.81213e-05" x2="100.05" y2="16.5617" gradientUnits="userSpaceOnUse">
<stop stop-color="#2EC4F3"/>
<stop offset="1" stop-color="#BFD633"/>
</linearGradient>
</defs>
</svg>
