<svg width="100" height="100" viewBox="0 0 100 100" fill="none" xmlns="http://www.w3.org/2000/svg">
<rect opacity="0.2" width="100" height="100" rx="20" fill="url(#paint0_linear_7581_60662)"/>
<path d="M42.9165 48.083C42.9165 47.8028 42.9996 47.5289 43.1553 47.296C43.311 47.063 43.5322 46.8814 43.7911 46.7742C44.0499 46.667 44.3348 46.6389 44.6096 46.6936C44.8844 46.7483 45.1368 46.8832 45.3349 47.0813C45.533 47.2794 45.668 47.5318 45.7226 47.8067C45.7773 48.0815 45.7492 48.3663 45.642 48.6252C45.5348 48.884 45.3532 49.1053 45.1202 49.2609C44.8873 49.4166 44.6134 49.4997 44.3332 49.4997C43.9575 49.4997 43.5971 49.3504 43.3315 49.0847C43.0658 48.8191 42.9165 48.4587 42.9165 48.083ZM55.6664 49.4997C55.9466 49.4997 56.2205 49.4166 56.4534 49.2609C56.6864 49.1053 56.868 48.884 56.9752 48.6252C57.0824 48.3663 57.1105 48.0815 57.0558 47.8067C57.0011 47.5318 56.8662 47.2794 56.6681 47.0813C56.47 46.8832 56.2176 46.7483 55.9428 46.6936C55.668 46.6389 55.3831 46.667 55.1243 46.7742C54.8654 46.8814 54.6441 47.063 54.4885 47.296C54.3328 47.5289 54.2497 47.8028 54.2497 48.083C54.2497 48.4587 54.399 48.8191 54.6647 49.0847C54.9303 49.3504 55.2907 49.4997 55.6664 49.4997ZM66.9996 65.0828V68.6244C66.9996 69.188 66.7757 69.7285 66.3772 70.127C65.9787 70.5255 65.4382 70.7494 64.8746 70.7494H59.5622C59.4942 70.7462 59.4272 70.7318 59.3638 70.7069C58.7333 71.9233 58.2072 73.191 57.7914 74.4964C57.7459 74.647 57.6516 74.7782 57.5233 74.8692C57.3951 74.9603 57.2402 75.0061 57.083 74.9994H42.9165C42.7594 75.0061 42.6045 74.9603 42.4762 74.8692C42.348 74.7782 42.2537 74.647 42.2082 74.4964C41.7964 73.2054 41.275 71.9518 40.6499 70.7494H40.5649H35.125C34.5614 70.7494 34.0209 70.5255 33.6224 70.127C33.2239 69.7285 33 69.188 33 68.6244V65.0828C33 63.9557 33.4478 62.8747 34.2448 62.0776C35.0418 61.2806 36.1228 60.8329 37.2499 60.8329H42.2082V59.4162H41.4999C40.3727 59.4162 39.2917 58.9685 38.4947 58.1714C37.6977 57.3744 37.2499 56.2934 37.2499 55.1663V48.4301C36.4915 47.8451 35.8773 47.094 35.4547 46.2344C35.0321 45.3748 34.8124 44.4297 34.8124 43.4718C34.8124 42.514 35.0321 41.5689 35.4547 40.7093C35.8773 39.8497 36.4915 39.0985 37.2499 38.5136V33.9165C37.2499 32.7894 37.6977 31.7084 38.4947 30.9114C39.2917 30.1144 40.3727 29.6666 41.4999 29.6666H49.2915V24.7083C49.2915 24.5205 49.3661 24.3403 49.4989 24.2075C49.6318 24.0746 49.8119 24 49.9998 24C50.1876 24 50.3678 24.0746 50.5006 24.2075C50.6335 24.3403 50.7081 24.5205 50.7081 24.7083V29.6666H58.4997C59.6268 29.6666 60.7078 30.1144 61.5048 30.9114C62.3019 31.7084 62.7496 32.7894 62.7496 33.9165V38.5277C63.5081 39.1127 64.1223 39.8639 64.5449 40.7235C64.9675 41.5831 65.1872 42.5281 65.1872 43.486C65.1872 44.4439 64.9675 45.3889 64.5449 46.2485C64.1223 47.1081 63.5081 47.8593 62.7496 48.4443V55.1663C62.7496 56.2934 62.3019 57.3744 61.5048 58.1714C60.7078 58.9685 59.6268 59.4162 58.4997 59.4162H57.7914V60.8329H62.7496C63.8768 60.8329 64.9578 61.2806 65.7548 62.0776C66.5518 62.8747 66.9996 63.9557 66.9996 65.0828ZM62.7496 40.511V46.4468C63.4067 45.597 63.7632 44.5531 63.7632 43.4789C63.7632 42.4047 63.4067 41.3609 62.7496 40.511ZM38.6666 38.8748V50.8101H45.7003C45.8682 50.8081 46.0314 50.8658 46.1607 50.973L49.9998 54.2384L53.7893 51.0792C53.9186 50.9721 54.0818 50.9143 54.2497 50.9163H61.333V33.9165C61.333 33.1651 61.0345 32.4444 60.5031 31.9131C59.9718 31.3818 59.2511 31.0832 58.4997 31.0832H50.7081V33.2082C50.7081 33.3961 50.6335 33.5762 50.5006 33.7091C50.3678 33.8419 50.1876 33.9165 49.9998 33.9165C49.8119 33.9165 49.6318 33.8419 49.4989 33.7091C49.3661 33.5762 49.2915 33.3961 49.2915 33.2082V31.0832H41.4999C40.7485 31.0832 40.0278 31.3818 39.4964 31.9131C38.9651 32.4444 38.6666 33.1651 38.6666 33.9165V38.8748ZM37.2499 46.4468V40.511C36.5929 41.3609 36.2364 42.4047 36.2364 43.4789C36.2364 44.5531 36.5929 45.597 37.2499 46.4468ZM41.4999 57.9996H58.4997C59.2511 57.9996 59.9718 57.7011 60.5031 57.1697C61.0345 56.6384 61.333 55.9177 61.333 55.1663V52.333H54.5047L50.4531 55.7117C50.3253 55.8195 50.1635 55.8787 49.9962 55.8787C49.829 55.8787 49.6672 55.8195 49.5394 55.7117L45.4382 52.2338H38.6666V55.1663C38.6666 55.9177 38.9651 56.6384 39.4964 57.1697C40.0278 57.7011 40.7485 57.9996 41.4999 57.9996ZM43.6249 60.8329H56.3747V59.4162H43.6249V60.8329ZM61.2338 65.7911H38.7658C41.4149 68.2278 42.9449 72.1661 43.4265 73.5827H56.573C57.083 72.1661 58.5847 68.2207 61.2338 65.7911ZM65.5829 65.0828C65.5829 64.3314 65.2844 63.6107 64.7531 63.0794C64.2217 62.548 63.5011 62.2495 62.7496 62.2495H37.2499C36.4985 62.2495 35.7778 62.548 35.2465 63.0794C34.7152 63.6107 34.4166 64.3314 34.4166 65.0828V68.6244C34.4166 68.8123 34.4913 68.9925 34.6241 69.1253C34.7569 69.2581 34.9371 69.3328 35.125 69.3328H39.8353C39.2717 68.4147 38.5907 67.5742 37.8095 66.8324C37.6007 66.6398 37.4546 66.3888 37.3903 66.1121C37.3259 65.8354 37.3462 65.5458 37.4485 65.2808C37.5509 65.0157 37.7305 64.7876 37.9641 64.626C38.1978 64.4644 38.4746 64.3768 38.7587 64.3745H61.2409C61.525 64.3768 61.8018 64.4644 62.0354 64.626C62.2691 64.7876 62.4487 65.0157 62.5511 65.2808C62.6534 65.5458 62.6737 65.8354 62.6093 66.1121C62.5449 66.3888 62.3989 66.6398 62.19 66.8324C61.4089 67.5742 60.7279 68.4147 60.1642 69.3328H64.8746C65.0625 69.3328 65.2426 69.2581 65.3755 69.1253C65.5083 68.9925 65.5829 68.8123 65.5829 68.6244V65.0828ZM45.7498 68.6244H54.2497C54.4376 68.6244 54.6178 68.5498 54.7506 68.417C54.8834 68.2841 54.9581 68.104 54.9581 67.9161C54.9581 67.7282 54.8834 67.5481 54.7506 67.4152C54.6178 67.2824 54.4376 67.2078 54.2497 67.2078H45.7498C45.562 67.2078 45.3818 67.2824 45.249 67.4152C45.1161 67.5481 45.0415 67.7282 45.0415 67.9161C45.0415 68.104 45.1161 68.2841 45.249 68.417C45.3818 68.5498 45.562 68.6244 45.7498 68.6244ZM54.2497 71.4577H45.7498C45.562 71.4577 45.3818 71.5324 45.249 71.6652C45.1161 71.798 45.0415 71.9782 45.0415 72.1661C45.0415 72.3539 45.1161 72.5341 45.249 72.6669C45.3818 72.7998 45.562 72.8744 45.7498 72.8744H54.2497C54.4376 72.8744 54.6178 72.7998 54.7506 72.6669C54.8834 72.5341 54.9581 72.3539 54.9581 72.1661C54.9581 71.9782 54.8834 71.798 54.7506 71.6652C54.6178 71.5324 54.4376 71.4577 54.2497 71.4577ZM49.2915 70.0411C49.2915 69.8532 49.2168 69.6731 49.084 69.5402C48.9512 69.4074 48.771 69.3328 48.5831 69.3328H44.3332C44.1453 69.3328 43.9652 69.4074 43.8323 69.5402C43.6995 69.6731 43.6249 69.8532 43.6249 70.0411C43.6249 70.2289 43.6995 70.4091 43.8323 70.5419C43.9652 70.6748 44.1453 70.7494 44.3332 70.7494H48.5831C48.771 70.7494 48.9512 70.6748 49.084 70.5419C49.2168 70.4091 49.2915 70.2289 49.2915 70.0411ZM55.6664 69.3328H51.4164C51.2286 69.3328 51.0484 69.4074 50.9156 69.5402C50.7827 69.6731 50.7081 69.8532 50.7081 70.0411C50.7081 70.2289 50.7827 70.4091 50.9156 70.5419C51.0484 70.6748 51.2286 70.7494 51.4164 70.7494H55.6664C55.8542 70.7494 56.0344 70.6748 56.1672 70.5419C56.3001 70.4091 56.3747 70.2289 56.3747 70.0411C56.3747 69.8532 56.3001 69.6731 56.1672 69.5402C56.0344 69.4074 55.8542 69.3328 55.6664 69.3328Z" fill="black"/>
<defs>
<linearGradient id="paint0_linear_7581_60662" x1="11.809" y1="1.81213e-05" x2="100.05" y2="16.5617" gradientUnits="userSpaceOnUse">
<stop stop-color="#2EC4F3"/>
<stop offset="1" stop-color="#BFD633"/>
</linearGradient>
</defs>
</svg>
