<svg width="100" height="100" viewBox="0 0 100 100" fill="none" xmlns="http://www.w3.org/2000/svg">
<rect opacity="0.2" width="100" height="100" rx="20" fill="url(#paint0_linear_7581_60582)"/>
<mask id="mask0_7581_60582" style="mask-type:luminance" maskUnits="userSpaceOnUse" x="26" y="26" width="48" height="48">
<path d="M73.501 26H26V73.5H73.501V26Z" fill="white"/>
</mask>
<g mask="url(#mask0_7581_60582)">
<path d="M48.78 53.5H52V60.75C52.0037 61.3523 52.2045 61.9368 52.5718 62.4141C52.9392 62.8914 53.4527 63.2352 54.034 63.393L54.309 63.466L54.201 63.729C54.0324 64.1421 53.9669 64.5901 54.01 65.0342C54.0532 65.4784 54.2038 65.9053 54.4489 66.2782C54.6939 66.6511 55.026 66.9588 55.4165 67.1747C55.8071 67.3906 56.2442 67.5083 56.6904 67.5175C57.1365 67.5267 57.5782 67.4272 57.9772 67.2276C58.3763 67.028 58.7209 66.7343 58.9811 66.3718C59.2413 66.0093 59.4094 65.589 59.4709 65.147C59.5324 64.705 59.4854 64.2547 59.334 63.835L59.213 63.5H62.3L62.175 63.837C62.0206 64.2501 61.9689 64.6946 62.0243 65.1321C62.0797 65.5697 62.2406 65.9872 62.4932 66.3488C62.7457 66.7104 63.0824 67.0051 63.4741 67.2078C63.8659 67.4104 64.301 67.5148 64.742 67.512H64.754C65.2043 67.5118 65.6477 67.401 66.0452 67.1893C66.4427 66.9776 66.782 66.6715 67.0335 66.2979C67.2849 65.9243 67.4407 65.4946 67.4872 65.0467C67.5337 64.5988 67.4694 64.1463 67.3 63.729L67.193 63.466L67.467 63.393C68.0481 63.2348 68.5615 62.8907 68.9286 62.4133C69.2958 61.9358 69.4964 61.3513 69.5 60.749V54.749C69.4995 54.5503 69.4203 54.3598 69.2797 54.2193C69.1392 54.0787 68.9487 53.9995 68.75 53.999H53.5V52.75C53.4995 52.5513 53.4203 52.3608 53.2797 52.2203C53.1392 52.0797 52.9487 52.0005 52.75 52H50.267L50.643 51.583C52.5555 49.46 55.151 48.0737 57.9789 47.6648C60.8069 47.2559 63.6888 47.8502 66.1243 49.3445C68.5598 50.8388 70.3951 53.1388 71.3117 55.8451C72.2283 58.5515 72.1683 61.4934 71.142 64.1601C70.1157 66.8269 68.1881 69.05 65.6936 70.4437C63.1991 71.8374 60.2954 72.3135 57.4865 71.7896C54.6776 71.2656 52.1408 69.7746 50.3166 67.5753C48.4923 65.376 47.4958 62.6074 47.5 59.75C47.4997 58.7982 47.6094 57.8496 47.827 56.923C47.8497 56.8271 47.8532 56.7277 47.8374 56.6305C47.8217 56.5333 47.7869 56.4401 47.7352 56.3563C47.6834 56.2725 47.6156 56.1997 47.5357 56.1421C47.4558 56.0845 47.3654 56.0432 47.2695 56.0205C47.1736 55.9978 47.0742 55.9943 46.977 56.0101C46.8798 56.0258 46.7866 56.0606 46.7028 56.1123C46.619 56.1641 46.5462 56.2319 46.4886 56.3118C46.431 56.3917 46.3897 56.4821 46.367 56.578C46.1228 57.6176 45.9996 58.6821 46 59.75C45.994 62.5622 46.8605 65.307 48.48 67.606L48.758 68H28.75C28.4186 67.9995 28.101 67.8676 27.8667 67.6333C27.6324 67.399 27.5005 67.0814 27.5 66.75V38.75C27.5 38.5511 27.421 38.3603 27.2803 38.2197C27.1397 38.079 26.9489 38 26.75 38C26.5511 38 26.3603 38.079 26.2197 38.2197C26.079 38.3603 26 38.5511 26 38.75V66.75C26.0005 67.4792 26.2904 68.1783 26.806 68.694C27.3217 69.2096 28.0208 69.4995 28.75 69.5H49.75C49.7864 69.4936 49.8225 69.4852 49.858 69.475L50 69.432L50.105 69.532C52.0337 71.4368 54.4827 72.7286 57.1439 73.2447C59.805 73.7609 62.5594 73.4783 65.0603 72.4326C67.5613 71.3869 69.697 69.6248 71.1988 67.368C72.7005 65.1113 73.5012 62.4608 73.5 59.75C73.5 59.566 73.487 59.386 73.476 59.205L73.458 58.919L73.472 58.875C73.4866 58.8264 73.4963 58.7765 73.501 58.726V28.75C73.5002 28.0207 73.2101 27.3216 72.6943 26.806C72.1785 26.2904 71.4793 26.0005 70.75 26H28.75C28.0209 26.0008 27.3219 26.2908 26.8063 26.8063C26.2908 27.3219 26.0008 28.0209 26 28.75V34.75C26.0003 34.9488 26.0794 35.1394 26.22 35.28C26.3606 35.4206 26.5512 35.4997 26.75 35.5H68.75C68.9489 35.5 69.1397 35.421 69.2803 35.2803C69.421 35.1397 69.5 34.9489 69.5 34.75C69.5 34.5511 69.421 34.3603 69.2803 34.2197C69.1397 34.079 68.9489 34 68.75 34H27.5V28.75C27.5005 28.4186 27.6324 28.101 27.8667 27.8667C28.101 27.6324 28.4186 27.5005 28.75 27.5H70.75C71.0814 27.5005 71.399 27.6324 71.6333 27.8667C71.8676 28.101 71.9995 28.4186 72 28.75V53.485L71.535 52.704C70.3483 50.7097 68.6751 49.0491 66.6719 47.8775C64.6687 46.706 62.4011 46.0617 60.0812 46.0051C57.7612 45.9484 55.4648 46.4812 53.4069 47.5536C51.3489 48.6261 49.5966 50.203 48.314 52.137L48.265 52.192C48.157 52.28 48.0768 52.3973 48.0339 52.5298C47.991 52.6623 47.9873 52.8043 48.0232 52.9389C48.0591 53.0735 48.1331 53.1948 48.2363 53.2883C48.3395 53.3818 48.4676 53.4435 48.605 53.466L48.674 53.735L48.706 53.487L48.78 53.5ZM65.5 55.5H68V58H65.5V55.5ZM65.5 59.5H68V60.75C67.9995 61.0814 67.8676 61.399 67.6333 61.6333C67.399 61.8676 67.0814 61.9995 66.75 62H65.5V59.5ZM66 64.75C66 64.9972 65.9267 65.2389 65.7893 65.4445C65.652 65.65 65.4568 65.8102 65.2284 65.9049C64.9999 65.9995 64.7486 66.0242 64.5061 65.976C64.2637 65.9277 64.0409 65.8087 63.8661 65.6339C63.6913 65.4591 63.5723 65.2363 63.524 64.9939C63.4758 64.7514 63.5005 64.5001 63.5951 64.2716C63.6898 64.0432 63.85 63.848 64.0555 63.7107C64.2611 63.5733 64.5028 63.5 64.75 63.5C65.0814 63.5005 65.399 63.6324 65.6333 63.8667C65.8676 64.101 65.9995 64.4186 66 64.75ZM61.5 55.5H64V58H61.5V55.5ZM61.5 59.5H64V62H61.5V59.5ZM57.5 55.5H60V58H57.5V55.5ZM57.5 59.5H60V62H57.5V59.5ZM58 64.75C58 64.9972 57.9267 65.2389 57.7893 65.4445C57.652 65.65 57.4568 65.8102 57.2284 65.9049C56.9999 65.9995 56.7486 66.0242 56.5061 65.976C56.2637 65.9277 56.0409 65.8087 55.8661 65.6339C55.6913 65.4591 55.5723 65.2363 55.524 64.9939C55.4758 64.7514 55.5005 64.5001 55.5951 64.2716C55.6898 64.0432 55.85 63.848 56.0555 63.7107C56.2611 63.5733 56.5028 63.5 56.75 63.5C57.0814 63.5005 57.399 63.6324 57.6333 63.8667C57.8676 64.101 57.9995 64.4186 58 64.75ZM53.5 55.5H56V58H53.5V55.5ZM53.5 59.5H56V62H54.75C54.4186 61.9995 54.101 61.8676 53.8667 61.6333C53.6324 61.399 53.5005 61.0814 53.5 60.75V59.5Z" fill="black"/>
<path d="M30 30.75C30 30.8983 30.044 31.0433 30.1264 31.1667C30.2088 31.29 30.3259 31.3861 30.463 31.4429C30.6 31.4997 30.7508 31.5145 30.8963 31.4856C31.0418 31.4567 31.1754 31.3852 31.2803 31.2803C31.3852 31.1754 31.4567 31.0418 31.4856 30.8963C31.5145 30.7508 31.4997 30.6 31.4429 30.463C31.3861 30.3259 31.29 30.2088 31.1667 30.1264C31.0433 30.044 30.8983 30 30.75 30C30.5512 30.0003 30.3606 30.0794 30.22 30.22C30.0794 30.3606 30.0003 30.5512 30 30.75Z" fill="black"/>
<path d="M33 30.75C33 30.8983 33.044 31.0433 33.1264 31.1667C33.2088 31.29 33.3259 31.3861 33.463 31.4429C33.6 31.4997 33.7508 31.5145 33.8963 31.4856C34.0418 31.4567 34.1754 31.3852 34.2803 31.2803C34.3852 31.1754 34.4567 31.0418 34.4856 30.8963C34.5145 30.7508 34.4997 30.6 34.4429 30.463C34.3861 30.3259 34.29 30.2088 34.1667 30.1264C34.0433 30.044 33.8983 30 33.75 30C33.5512 30.0003 33.3606 30.0794 33.22 30.22C33.0794 30.3606 33.0003 30.5512 33 30.75Z" fill="black"/>
<path d="M36 30.75C36 30.8983 36.044 31.0433 36.1264 31.1667C36.2088 31.29 36.3259 31.3861 36.463 31.4429C36.6 31.4997 36.7508 31.5145 36.8963 31.4856C37.0418 31.4567 37.1754 31.3852 37.2803 31.2803C37.3852 31.1754 37.4567 31.0418 37.4856 30.8963C37.5145 30.7508 37.4997 30.6 37.4429 30.463C37.3861 30.3259 37.29 30.2088 37.1667 30.1264C37.0433 30.044 36.8983 30 36.75 30C36.5512 30.0003 36.3606 30.0794 36.22 30.22C36.0794 30.3606 36.0003 30.5512 36 30.75Z" fill="black"/>
<path d="M30.75 53.5H44.75C44.9488 53.4995 45.1392 53.4203 45.2797 53.2797C45.4203 53.1392 45.4995 52.9488 45.5 52.75V38.75C45.4995 38.5512 45.4203 38.3608 45.2797 38.2203C45.1392 38.0797 44.9488 38.0005 44.75 38H30.75C30.5512 38.0005 30.3608 38.0797 30.2203 38.2203C30.0797 38.3608 30.0005 38.5512 30 38.75V52.75C30.0005 52.9488 30.0797 53.1392 30.2203 53.2797C30.3608 53.4203 30.5512 53.4995 30.75 53.5ZM31.5 39.5H44V52H31.5V39.5Z" fill="black"/>
<path d="M67.5 38.75C67.4995 38.5512 67.4203 38.3608 67.2797 38.2203C67.1392 38.0797 66.9487 38.0005 66.75 38H51C50.8011 38 50.6103 38.079 50.4697 38.2197C50.329 38.3603 50.25 38.5511 50.25 38.75C50.25 38.9489 50.329 39.1397 50.4697 39.2803C50.6103 39.421 50.8011 39.5 51 39.5H66.75C66.9487 39.4995 67.1392 39.4203 67.2797 39.2797C67.4203 39.1392 67.4995 38.9488 67.5 38.75Z" fill="black"/>
<path d="M48 42.75C48.0005 42.9488 48.0797 43.1392 48.2203 43.2797C48.3608 43.4203 48.5512 43.4995 48.75 43.5H66.75C66.9489 43.5 67.1397 43.421 67.2803 43.2803C67.421 43.1397 67.5 42.9489 67.5 42.75C67.5 42.5511 67.421 42.3603 67.2803 42.2197C67.1397 42.079 66.9489 42 66.75 42H48.75C48.5512 42.0005 48.3608 42.0797 48.2203 42.2203C48.0797 42.3608 48.0005 42.5512 48 42.75Z" fill="black"/>
<path d="M30.75 57.5H42.75C42.9489 57.5 43.1397 57.421 43.2803 57.2803C43.421 57.1397 43.5 56.9489 43.5 56.75C43.5 56.5511 43.421 56.3603 43.2803 56.2197C43.1397 56.079 42.9489 56 42.75 56H30.75C30.5511 56 30.3603 56.079 30.2197 56.2197C30.079 56.3603 30 56.5511 30 56.75C30 56.9489 30.079 57.1397 30.2197 57.2803C30.3603 57.421 30.5511 57.5 30.75 57.5Z" fill="black"/>
<path d="M30.75 61.5H40.75C40.9489 61.5 41.1397 61.421 41.2803 61.2803C41.421 61.1397 41.5 60.9489 41.5 60.75C41.5 60.5511 41.421 60.3603 41.2803 60.2197C41.1397 60.079 40.9489 60 40.75 60H30.75C30.5511 60 30.3603 60.079 30.2197 60.2197C30.079 60.3603 30 60.5511 30 60.75C30 60.9489 30.079 61.1397 30.2197 61.2803C30.3603 61.421 30.5511 61.5 30.75 61.5Z" fill="black"/>
<path d="M30.75 65.5H42.75C42.9489 65.5 43.1397 65.421 43.2803 65.2803C43.421 65.1397 43.5 64.9489 43.5 64.75C43.5 64.5511 43.421 64.3603 43.2803 64.2197C43.1397 64.079 42.9489 64 42.75 64H30.75C30.5511 64 30.3603 64.079 30.2197 64.2197C30.079 64.3603 30 64.5511 30 64.75C30 64.9489 30.079 65.1397 30.2197 65.2803C30.3603 65.421 30.5511 65.5 30.75 65.5Z" fill="black"/>
</g>
<defs>
<linearGradient id="paint0_linear_7581_60582" x1="11.809" y1="1.81213e-05" x2="100.05" y2="16.5617" gradientUnits="userSpaceOnUse">
<stop stop-color="#2EC4F3"/>
<stop offset="1" stop-color="#BFD633"/>
</linearGradient>
</defs>
</svg>
