<svg width="56" height="53" viewBox="0 0 56 53" fill="none" xmlns="http://www.w3.org/2000/svg">
<mask id="mask0_7200_55727" style="mask-type:alpha" maskUnits="userSpaceOnUse" x="0" y="0" width="56" height="53">
<rect width="56" height="53" fill="#D9D9D9"/>
</mask>
<g mask="url(#mask0_7200_55727)">
<path d="M7.8924 33.9793C6.77012 33.9793 5.728 33.7931 4.76605 33.4207C3.80409 33.0345 2.95874 32.5034 2.22998 31.8276C1.51581 31.1379 0.961954 30.3379 0.568427 29.4276C0.189476 28.5172 0 27.5379 0 26.4897C0 25.4414 0.189476 24.4621 0.568427 23.5517C0.961954 22.6414 1.51581 21.8483 2.22998 21.1724C2.95874 20.4966 3.7968 19.9655 4.74418 19.5793C5.70614 19.1931 6.75554 19 7.8924 19C9.1167 19 10.1953 19.1931 11.1281 19.5793C12.0609 19.9517 12.8844 20.469 13.5985 21.131L11.5872 23.0345C11.1645 22.5931 10.6471 22.2483 10.0349 22C9.42278 21.7517 8.7086 21.6276 7.8924 21.6276C7.17822 21.6276 6.52234 21.7448 5.92476 21.9793C5.34176 22.2 4.83163 22.531 4.39438 22.9724C3.95713 23.4 3.6219 23.9172 3.3887 24.5241C3.1555 25.1172 3.0389 25.7724 3.0389 26.4897C3.0389 27.2207 3.1555 27.8828 3.3887 28.4759C3.6219 29.069 3.95713 29.5862 4.39438 30.0276C4.83163 30.4552 5.34176 30.7862 5.92476 31.0207C6.52234 31.2552 7.17822 31.3724 7.8924 31.3724C8.75232 31.3724 9.48836 31.2483 10.1005 31C10.7272 30.7517 11.2519 30.4 11.6746 29.9448L13.686 31.8483C12.9718 32.5241 12.141 33.0483 11.1936 33.4207C10.2463 33.7931 9.14585 33.9793 7.8924 33.9793Z" fill="black"/>
<path d="M22.3267 34C21.2044 34 20.155 33.8069 19.1784 33.4207C18.2165 33.0345 17.3711 32.5034 16.6424 31.8276C15.9282 31.1379 15.3671 30.3379 14.959 29.4276C14.5509 28.5034 14.3468 27.5172 14.3468 26.469C14.3468 25.4207 14.5436 24.4483 14.9371 23.5517C15.3452 22.6414 15.9063 21.8483 16.6205 21.1724C17.3493 20.4828 18.1946 19.9517 19.1566 19.5793C20.1185 19.1931 21.1607 19 22.2829 19C23.4198 19 24.4692 19.1931 25.4311 19.5793C26.3931 19.9517 27.2312 20.4828 27.9453 21.1724C28.6741 21.8483 29.2425 22.6414 29.6506 23.5517C30.0587 24.4621 30.2628 25.4414 30.2628 26.4897C30.2628 27.5379 30.0587 28.5172 29.6506 29.4276C29.2425 30.3379 28.6741 31.1379 27.9453 31.8276C27.2312 32.5034 26.3931 33.0345 25.4311 33.4207C24.4838 33.8069 23.4489 34 22.3267 34ZM22.2829 31.3724C23.274 31.3724 24.134 31.1655 24.8627 30.7517C25.5915 30.3379 26.1599 29.7655 26.568 29.0345C26.9907 28.3034 27.202 27.4483 27.202 26.469C27.202 25.7517 27.0854 25.0966 26.8522 24.5034C26.619 23.9103 26.2838 23.4 25.8465 22.9724C25.4093 22.531 24.8919 22.1931 24.2943 21.9586C23.6967 21.7241 23.0263 21.6069 22.2829 21.6069C21.321 21.6069 20.4683 21.8138 19.725 22.2276C18.9963 22.6276 18.4205 23.1931 17.9979 23.9241C17.5898 24.6552 17.3857 25.5034 17.3857 26.469C17.3857 27.2 17.5023 27.869 17.7355 28.4759C17.9833 29.0828 18.3185 29.6 18.7412 30.0276C19.1784 30.4552 19.6959 30.7862 20.2934 31.0207C20.9056 31.2552 21.5688 31.3724 22.2829 31.3724Z" fill="black"/>
<path d="M34.8059 27.6897V25.4966H38.3695C39.0983 25.4966 39.6594 25.3241 40.0529 24.9793C40.4611 24.6207 40.6651 24.131 40.6651 23.5103C40.6651 22.9448 40.4611 22.4759 40.0529 22.1034C39.6594 21.7172 39.0983 21.5241 38.3695 21.5241H34.8059V19.2276H38.6319C39.623 19.2276 40.4902 19.4138 41.2335 19.7862C41.9914 20.1448 42.5744 20.6414 42.9825 21.2759C43.4052 21.9103 43.6166 22.6414 43.6166 23.469C43.6166 24.3241 43.4052 25.069 42.9825 25.7034C42.5744 26.3241 41.9914 26.8138 41.2335 27.1724C40.4756 27.5172 39.5938 27.6897 38.5882 27.6897H34.8059ZM32.6197 33.7724V19.2276H35.593V33.7724H32.6197ZM41.0149 33.7724L35.9428 27.4828L38.6756 26.6759L44.6222 33.7724H41.0149Z" fill="black"/>
<path d="M50.3595 33.9793C49.1206 33.9793 48.0566 33.7793 47.1675 33.3793C46.293 32.9793 45.4987 32.3793 44.7845 31.5793L46.7521 29.7172C47.204 30.2828 47.7287 30.7241 48.3262 31.0414C48.9238 31.3448 49.6526 31.4966 50.5125 31.4966C51.285 31.4966 51.8971 31.3517 52.3489 31.0621C52.8153 30.7724 53.0486 30.3724 53.0486 29.8621C53.0486 29.4207 52.9174 29.0621 52.655 28.7862C52.3927 28.5103 52.0429 28.2759 51.6056 28.0828C51.1829 27.8897 50.7093 27.7172 50.1846 27.5655C49.6744 27.4 49.157 27.2138 48.6323 27.0069C48.1222 26.8 47.6485 26.5448 47.2112 26.2414C46.7886 25.9241 46.4461 25.5241 46.1837 25.0414C45.9213 24.5448 45.7902 23.9241 45.7902 23.1793C45.7902 22.2966 46.0161 21.5448 46.4679 20.9241C46.9197 20.3034 47.5392 19.8276 48.3262 19.4966C49.1133 19.1655 50.0024 19 50.9935 19C52.0429 19 52.9903 19.1862 53.8356 19.5586C54.681 19.931 55.3733 20.4138 55.9126 21.0069L53.9449 22.869C53.4931 22.4 53.0267 22.0552 52.5457 21.8345C52.0793 21.6138 51.5473 21.5034 50.9497 21.5034C50.2647 21.5034 49.7254 21.6276 49.3319 21.8759C48.9384 22.1241 48.7416 22.4828 48.7416 22.9517C48.7416 23.3517 48.8728 23.6759 49.1351 23.9241C49.3975 24.1724 49.74 24.3862 50.1627 24.5655C50.5999 24.7448 51.0736 24.9172 51.5838 25.0828C52.1085 25.2483 52.6259 25.4345 53.136 25.6414C53.6607 25.8483 54.1344 26.1172 54.5571 26.4483C54.9943 26.7793 55.3441 27.2069 55.6065 27.731C55.8688 28.2414 56 28.8759 56 29.6345C56 30.9862 55.4972 32.0483 54.4915 32.8207C53.4858 33.5931 52.1085 33.9793 50.3595 33.9793Z" fill="black"/>
</g>
</svg>
