<svg width="80" height="80" viewBox="0 0 80 80" fill="none" xmlns="http://www.w3.org/2000/svg">
<rect width="80" height="80" rx="16" fill="#D5F3FD"/>
<g clip-path="url(#clip0_0_266)">
<mask id="mask0_0_266" style="mask-type:luminance" maskUnits="userSpaceOnUse" x="12" y="12" width="56" height="57">
<path d="M12 12.0018H68V68.0018H12V12.0018Z" fill="white"/>
</mask>
<g mask="url(#mask0_0_266)">
<path d="M60.3944 22.7271C60.3944 25.014 58.5405 26.8678 56.2536 26.8678C53.9667 26.8678 52.1128 25.014 52.1128 22.7271C52.1128 20.4402 53.9667 18.5863 56.2536 18.5863C58.5405 18.5863 60.3944 20.4402 60.3944 22.7271Z" stroke="black" stroke-width="2" stroke-miterlimit="10" stroke-linecap="round" stroke-linejoin="round"/>
<path d="M56.2536 38.4934C56.2432 38.4825 45.439 32.1847 45.6029 23.7463C45.7168 17.8654 50.3711 13.0956 56.2536 13.0956C62.1362 13.0956 66.7905 17.8654 66.9044 23.7463C67.0682 32.1756 56.2641 38.4824 56.2536 38.4934Z" stroke="black" stroke-width="2" stroke-miterlimit="10" stroke-linecap="round" stroke-linejoin="round"/>
<path d="M22.1587 60.14L29.1723 57.8455C31.4044 57.1154 31.7945 54.1242 29.8243 52.846C28.8177 52.1927 28.3403 50.9696 28.6388 49.807L29.4978 46.4617C29.9328 44.7668 31.4007 43.5384 33.1456 43.4084L36.8751 43.1307C38.9945 42.9728 40.6881 41.3044 40.8777 39.1877C41.068 37.0625 39.6861 35.114 37.6178 34.5907L34.5067 33.8036C33.1309 33.4555 32.2346 32.1315 32.4226 30.7249L32.7323 28.406C32.9282 26.9396 31.9471 25.5746 30.4946 25.2929L27.5788 24.7277C26.8806 24.5923 26.2603 24.1958 25.8443 23.619L22.7615 19.3441" stroke="black" stroke-width="2" stroke-miterlimit="10" stroke-linecap="round" stroke-linejoin="round"/>
<path d="M65.0261 30.0995C66.2396 33.1646 66.9062 36.5054 66.9062 40.0021C66.9062 54.862 54.8599 66.9083 40 66.9083C25.1401 66.9083 13.0938 54.862 13.0938 40.0021C13.0938 25.1422 25.1401 13.0958 40 13.0958C43.5791 13.0958 46.9945 13.7943 50.1178 15.0638" stroke="black" stroke-width="2" stroke-miterlimit="10" stroke-linecap="round" stroke-linejoin="round"/>
<path d="M66.1978 46.162C63.3499 44.3425 59.5597 45.0258 57.5253 47.7753C56.807 48.7449 55.7931 49.4679 54.552 49.7509C53.3982 50.0141 52.198 49.5774 51.513 48.6122L50.7402 47.5237C49.2806 45.4676 46.204 45.5415 44.8446 47.6653L43.7838 49.3229C43.2824 50.1064 43.108 51.0549 43.2976 51.9655L43.8786 54.7546C44.2198 56.3915 43.6586 58.0758 42.43 59.2103C40.2909 61.1852 39.369 64.1179 39.9473 66.9084H40" stroke="black" stroke-width="2" stroke-miterlimit="10" stroke-linecap="round" stroke-linejoin="round"/>
</g>
</g>
<defs>
<clipPath id="clip0_0_266">
<rect width="56" height="56" fill="white" transform="translate(12 12)"/>
</clipPath>
</defs>
</svg>
