<svg width="92" height="92" viewBox="0 0 92 92" fill="none" xmlns="http://www.w3.org/2000/svg">
<mask id="mask0_9016_58973" style="mask-type:alpha" maskUnits="userSpaceOnUse" x="0" y="0" width="92" height="92">
<rect width="92" height="92" fill="black"/>
</mask>
<g mask="url(#mask0_9016_58973)">
<path fill-rule="evenodd" clip-rule="evenodd" d="M24.7746 24.7748C19.5844 29.965 16.2842 37.0481 16.0028 44.9008C16.0028 44.9374 16.015 44.968 16.0395 44.9955C16.0639 45.0229 16.0975 45.0351 16.1311 45.0351H22.0938C22.628 45.0351 23.0616 45.4687 23.0616 46.003C23.0616 48.8821 26.5574 50.3293 28.5938 48.2959C29.18 47.7097 29.5433 46.9006 29.5433 46.003C29.5433 45.4687 29.9768 45.0351 30.5111 45.0351H43.3527C43.4046 45.0351 43.4504 45.0046 43.4718 44.9558C43.4932 44.9069 43.4809 44.852 43.4443 44.8153L31.9643 33.3353C31.9276 33.2986 31.8727 33.2864 31.8238 33.3078C31.775 33.3292 31.7444 33.375 31.7444 33.4269V36.8799C31.7444 37.4142 31.3109 37.8478 30.7766 37.8478C30.2423 37.8478 29.8087 37.4142 29.8087 36.8799V30.7798C29.8087 30.2455 30.2423 29.812 30.7766 29.812H36.8767C37.6247 29.812 38.0827 30.6241 37.7193 31.2592C37.5514 31.5523 37.2369 31.7477 36.8767 31.7477H33.4236C33.3717 31.7477 33.3259 31.7782 33.3045 31.8271C33.2832 31.8759 33.2954 31.9309 33.332 31.9675L44.8121 43.4476C44.8487 43.4842 44.9037 43.4964 44.9525 43.475C45.0014 43.4537 45.0319 43.4079 45.0319 43.356L45.0349 31.4945C45.0349 31.4334 44.9922 31.3815 44.9311 31.3693C40.956 30.5389 39.4172 25.5654 42.3421 22.6405C43.0382 21.9444 43.9328 21.4468 44.9311 21.236C44.9922 21.2238 45.0349 21.1719 45.0349 21.1109V16.1343C45.0349 16.0977 45.0227 16.0671 44.9953 16.0427C44.9678 16.0183 44.9372 16.0061 44.9006 16.0061C37.0969 16.2839 29.9988 19.5508 24.7746 24.7748ZM48.6531 45.0352C48.6012 45.0352 48.5554 45.0047 48.534 44.9559C48.5127 44.907 48.5249 44.8521 48.5615 44.8154L60.0416 33.3354C60.0782 33.2987 60.1332 33.2865 60.182 33.3079C60.2309 33.3293 60.2614 33.3751 60.2614 33.427V36.88C60.2614 37.4143 60.6949 37.8479 61.2293 37.8479C61.7635 37.8479 62.1971 37.4143 62.1971 36.88V30.7799C62.1971 30.2456 61.7636 29.8121 61.2293 29.8121H55.1291C54.5949 29.8121 54.1613 30.2456 54.1613 30.7799C54.1613 31.3142 54.5948 31.7478 55.1291 31.7478H58.5822C58.6341 31.7478 58.6799 31.7783 58.7013 31.8272C58.7227 31.876 58.7105 31.931 58.6738 31.9676L47.1914 43.4445C47.1548 43.4812 47.0998 43.4934 47.051 43.472C47.0021 43.4506 46.9716 43.4048 46.9716 43.3529V30.5114C46.9716 29.9771 46.5381 29.5435 46.0038 29.5435C45.1092 29.5435 44.2971 29.1802 43.7109 28.594C41.6744 26.5576 43.1247 23.0618 46.0038 23.0618C46.538 23.0618 46.9716 22.6283 46.9716 22.094V16.1313C46.9716 16.0946 46.9838 16.0641 47.0113 16.0366C47.0388 16.0122 47.0693 16 47.1059 16C62.8113 16.5679 75.4356 29.1925 76.0038 44.8979C76.0038 44.9345 75.9916 44.965 75.9672 44.9925C75.9427 45.02 75.9092 45.0322 75.8725 45.0322L70.896 45.0353C70.8349 45.0353 70.783 44.9925 70.7708 44.9315C70.5601 43.9301 70.0625 43.0385 69.3663 42.3424C66.4415 39.4175 61.4707 40.9594 60.6375 44.9315C60.6253 44.9925 60.5734 45.0353 60.5123 45.0353L48.6531 45.0352ZM46.9709 51.1445V60.508C46.9709 60.5691 47.0136 60.6209 47.0747 60.6332C51.0437 61.4636 52.5795 66.4127 49.679 69.3464C48.9829 70.0486 48.0791 70.5554 47.0747 70.7661C47.0136 70.7783 46.9709 70.8302 46.9709 70.8912V75.8678C46.9709 75.9044 46.9831 75.935 47.0106 75.9625C47.0381 75.9869 47.0686 75.9991 47.1052 75.9991C62.8074 75.4312 75.4349 62.8097 76.0031 47.1012C76.0031 47.0646 75.9909 47.034 75.9665 47.0066C75.942 46.9791 75.9084 46.9669 75.8718 46.9669H69.9122C69.3779 46.9669 68.9443 46.5333 68.9443 45.999C68.9443 43.12 65.4485 41.6728 63.4121 43.7062C62.8259 44.2924 62.4626 45.1015 62.4626 45.999C62.4626 46.5333 62.0291 46.9669 61.4948 46.9669L48.6532 46.9699C48.6013 46.9699 48.5555 47.0005 48.5341 47.0493C48.5128 47.0982 48.525 47.1531 48.5616 47.1898L60.0417 58.6698C60.0783 58.7065 60.1333 58.7187 60.1821 58.6973C60.231 58.6759 60.2615 58.6301 60.2615 58.5782V55.1251C60.2615 54.3588 61.1072 53.9069 61.7422 54.3038C62.0353 54.487 62.1971 54.7893 62.1971 55.1556V61.2282C62.1971 61.7625 61.7636 62.1961 61.2293 62.1961H55.1292C54.5949 62.1961 54.1613 61.7625 54.1613 61.2282C54.1613 60.6939 54.5949 60.2604 55.1292 60.2604H58.5823C58.6342 60.2604 58.68 60.2298 58.7013 60.181C58.7227 60.1321 58.7105 60.0772 58.6738 60.0405L47.1915 48.5605C47.1548 48.5239 47.0999 48.5116 47.051 48.533C47.0022 48.5544 46.9716 48.6002 46.9716 48.6521L46.9709 51.1445ZM31.3695 47.0747C31.3817 47.0137 31.4336 46.9709 31.4947 46.9709H43.353C43.4049 46.9709 43.4507 47.0015 43.4721 47.0503C43.4935 47.0992 43.4813 47.1541 43.4446 47.1908L31.9646 58.6708C31.9279 58.7074 31.873 58.7197 31.8241 58.6983C31.7753 58.6769 31.7447 58.6311 31.7447 58.5792V55.1261C31.7447 54.5918 31.3112 54.1583 30.7769 54.1583C30.2426 54.1583 29.809 54.5918 29.809 55.1261V61.2262C29.809 61.7605 30.2426 62.1941 30.7769 62.1941H36.877C37.4113 62.1941 37.8448 61.7605 37.8448 61.2262C37.8448 60.6919 37.4113 60.2584 36.877 60.2584H33.4239C33.372 60.2584 33.3262 60.2279 33.3048 60.179C33.2835 60.1302 33.2957 60.0752 33.3323 60.0386L44.8124 48.5585C44.849 48.5219 44.904 48.5097 44.9528 48.531C45.0017 48.5524 45.0322 48.5982 45.0322 48.6501V61.4917C45.0322 62.026 45.4657 62.4595 46 62.4595C46.8946 62.4595 47.7067 62.8229 48.2929 63.409C50.3294 65.4455 48.8791 68.9412 46 68.9412C45.4658 68.9412 45.0322 69.3748 45.0322 69.9091V75.8687C45.0322 75.9054 45.02 75.9359 44.9925 75.9634C44.965 75.9878 44.9345 76 44.8979 76C29.1589 75.4321 16.562 62.7707 16 47.1021C16 47.0655 16.0122 47.035 16.0366 47.0075C16.0611 46.98 16.0946 46.9678 16.1313 46.9678H21.1078C21.1689 46.9678 21.2208 47.0105 21.233 47.0716C21.4437 48.0699 21.9413 48.9645 22.6375 49.6606C25.5654 52.5886 30.5387 51.0498 31.3695 47.0747Z" fill="black"/>
</g>
</svg>
