<svg width="92" height="92" viewBox="0 0 92 92" fill="none" xmlns="http://www.w3.org/2000/svg">
<mask id="mask0_9015_58776" style="mask-type:alpha" maskUnits="userSpaceOnUse" x="0" y="0" width="92" height="92">
<rect width="92" height="92" fill="black"/>
</mask>
<g mask="url(#mask0_9015_58776)">
<path d="M13.5012 80.2797C13.1992 80.2797 12.8966 80.1673 12.6618 79.9421C12.1819 79.4809 12.1684 78.7193 12.6324 78.2412L29.1791 61.1909C29.6437 60.7139 30.4075 60.7003 30.8879 61.1616C31.3678 61.6228 31.3813 62.3843 30.9173 62.8625L14.3706 79.9127C14.1335 80.1566 13.8179 80.2797 13.5012 80.2797Z" fill="black"/>
<path d="M25.1412 80.9998C24.8555 80.9998 24.5693 80.8999 24.3396 80.6961C23.8405 80.2546 23.7954 79.4948 24.2385 78.998L34.9627 66.9855C35.407 66.4899 36.1691 66.4441 36.6687 66.8856C37.1678 67.3271 37.2129 68.0869 36.7698 68.5837L26.0455 80.5962C25.8062 80.8632 25.4748 80.9998 25.1412 80.9998Z" fill="black"/>
<path d="M12.7701 69.4861C12.4844 69.4861 12.1982 69.3862 11.9685 69.1824C11.4694 68.7409 11.4243 67.9811 11.8674 67.4843L22.5922 55.4719C23.0359 54.9762 23.7986 54.9305 24.2982 55.3719C24.7972 55.8134 24.8424 56.5732 24.3992 57.07L13.6745 69.0825C13.4351 69.3495 13.1037 69.4861 12.7701 69.4861Z" fill="black"/>
<path d="M52.9935 56.4936C50.9488 57.4403 48.8838 58.3261 46.8047 59.1508L47.5713 69.0672C50.6897 67.6525 57.9252 63.2622 63.6624 51.3418C61.1859 52.6566 58.7088 53.8392 56.5935 54.8486C55.4074 55.4171 54.2039 55.9618 52.9935 56.4936Z" fill="black"/>
<path d="M58.6814 28.2695C57.5732 28.2695 56.4656 28.6867 55.6222 29.5205C54.8082 30.3261 54.3594 31.3964 54.3594 32.5345C54.3594 33.6726 54.8076 34.7429 55.6228 35.5485C57.3096 37.2166 60.0548 37.2161 61.7405 35.5485L61.7411 35.5479C62.5551 34.7423 63.0045 33.672 63.0045 32.5339C63.0045 31.3959 62.5557 30.3255 61.7411 29.5199C60.8977 28.6861 59.7895 28.2695 58.6814 28.2695Z" fill="black"/>
<path d="M37.6198 31.8986C38.2916 30.5517 39.0091 29.1438 39.7774 27.7285C27.7345 33.3929 23.2855 40.5364 21.8477 43.6277L31.799 44.3797C32.84 41.8083 33.9753 39.2561 35.2093 36.7389C35.9584 35.205 36.7595 33.5668 37.6198 31.8986Z" fill="black"/>
<path d="M63.1172 12.5332L78.8956 28.1355C79.6678 25.0859 80.0878 22.029 80.2866 19.1658C80.3029 18.9259 80.3199 18.6865 80.3334 18.4443C80.3543 18.0819 80.3712 17.724 80.3854 17.3689C80.4012 16.9613 80.4136 16.5509 80.4215 16.1388C80.4271 15.8554 80.4316 15.5749 80.4333 15.2977C80.4367 14.7309 80.4356 14.1613 80.4249 13.5872C80.4226 13.4573 80.4192 13.3303 80.4158 13.2022C80.3983 12.5123 80.3741 11.8191 80.3351 11.1202C75.7359 10.8436 69.446 10.9413 63.1172 12.5332Z" fill="black"/>
<path d="M71.8045 42.03C72.1229 41.6794 72.4345 41.3209 72.7359 40.9512C72.7755 40.9026 72.8184 40.8552 72.8573 40.8061C73.1751 40.4103 73.4794 39.9999 73.778 39.5828C73.8814 39.4382 73.983 39.2926 74.0835 39.1464C74.3149 38.8099 74.5396 38.4661 74.7586 38.1161C74.8998 37.8903 75.0364 37.6623 75.1707 37.4336C75.3305 37.1626 75.4863 36.8883 75.6393 36.61C75.7725 36.3655 75.9052 36.1211 76.0316 35.8738C76.1259 35.6898 76.2151 35.5007 76.3065 35.3138C76.5487 34.8165 76.7813 34.3152 76.9975 33.8088C77.0314 33.7292 77.0647 33.6491 77.0986 33.5689C77.4841 32.647 77.8268 31.7128 78.1333 30.7717L60.4587 13.293C55.955 14.7466 52.1382 16.8794 49.0723 19.641C48.9933 19.7121 48.9142 19.7838 48.8358 19.8561C48.435 20.2259 48.0438 20.6041 47.67 20.9959C47.5374 21.1359 47.4092 21.2843 47.2788 21.4289C44.3264 24.6924 41.8549 28.9517 39.7447 33.0473C39.2745 33.9912 38.8274 34.9051 38.4124 35.7553C36.7674 39.1103 35.2703 42.5843 33.9618 46.0821C33.8697 46.3288 33.7004 46.5269 33.4904 46.6641C32.5651 49.0385 31.7223 51.4259 30.9766 53.8166L37.2021 59.9733C39.6866 59.2157 42.1676 58.3576 44.6335 57.4132C44.7616 57.272 44.9129 57.1495 45.102 57.0807C47.4329 56.2288 49.7514 55.2872 52.0366 54.2829C52.499 54.0684 52.9619 53.855 53.422 53.6343C59.2614 50.8726 65.8742 47.7452 70.4039 43.4655C70.7883 43.1037 71.1581 42.7243 71.5211 42.3376C71.6171 42.2354 71.7108 42.1327 71.8045 42.03ZM63.4433 37.253C62.1303 38.5519 60.4051 39.2011 58.6805 39.2011C56.9559 39.2011 55.2312 38.5519 53.9182 37.2535C52.6435 35.993 51.9418 34.3169 51.9418 32.533C51.9418 30.7491 52.644 29.0731 53.9176 27.8125C56.5443 25.2151 60.8172 25.2162 63.4428 27.8119C64.718 29.0725 65.4197 30.7486 65.4197 32.5324C65.4197 34.3158 64.718 35.9924 63.4433 37.253Z" fill="black"/>
</g>
</svg>
