<svg width="100" height="100" viewBox="0 0 100 100" fill="none" xmlns="http://www.w3.org/2000/svg">
<rect opacity="0.2" width="100" height="100" rx="20" fill="url(#paint0_linear_7581_60498)"/>
<path fill-rule="evenodd" clip-rule="evenodd" d="M47.8488 32.3651C48.1167 32.0973 48.4863 31.9291 48.8937 31.9291L52.0347 31.9224C52.4397 31.9224 52.8094 32.0862 53.0772 32.3541C53.3451 32.6219 53.5133 32.9894 53.5133 33.3989L53.5177 35.1919L53.6372 35.2184C54.4651 35.3999 55.2775 35.6545 56.0677 35.9799C56.858 36.3053 57.615 36.6971 58.33 37.1509L58.434 37.2173L59.7001 35.9467C59.9857 35.6589 60.3664 35.5151 60.745 35.5151C61.1235 35.5151 61.502 35.6567 61.7898 35.9423L64.0144 38.158C64.3021 38.4436 64.446 38.8243 64.446 39.2029C64.446 39.5814 64.3044 39.9599 64.0188 40.2477L62.7504 41.5205L62.8168 41.6245C63.2773 42.3417 63.6735 43.0987 63.9989 43.8801C64.322 44.6593 64.581 45.4716 64.767 46.3061L64.7935 46.4256L66.5909 46.4212C66.996 46.4212 67.3657 46.585 67.6335 46.8528C67.9013 47.1207 68.0695 47.4903 68.0695 47.8976L68.0762 51.0387C68.0762 51.4437 67.9124 51.8134 67.6445 52.0812C67.3767 52.349 67.0093 52.5173 66.5997 52.5173L64.8067 52.5217L64.7802 52.6412C64.5987 53.4691 64.3441 54.2814 64.0187 55.0717C63.6933 55.862 63.3015 56.619 62.8477 57.3339L62.7813 57.438L64.0519 58.7041C64.3397 58.9897 64.4836 59.3704 64.4836 59.7489C64.4836 60.1275 64.3419 60.5059 64.0563 60.7938L61.8406 63.0184C61.555 63.3061 61.1743 63.45 60.7958 63.45C60.4172 63.45 60.0387 63.3083 59.7509 63.0228L58.4782 61.7544L58.3741 61.8208C57.657 62.2812 56.8999 62.6775 56.1163 63.0028C55.3372 63.326 54.5248 63.585 53.6903 63.7709L53.5708 63.7975L53.5752 65.5949C53.5752 66 53.4114 66.3697 53.1436 66.6375C52.8757 66.9053 52.5061 67.0735 52.0988 67.0735L48.9577 67.0802C48.5527 67.0824 48.183 66.9164 47.9152 66.6485C47.6474 66.3807 47.4791 66.0132 47.4791 65.6037L47.4747 63.8107L47.3552 63.7842C46.5273 63.6027 45.715 63.3481 44.9269 63.0227C44.1367 62.6973 43.3796 62.3055 42.6647 61.8517L42.5606 61.7853L41.2945 63.0559C41.0089 63.3437 40.6282 63.4875 40.2497 63.4875C39.8712 63.4875 39.4927 63.3459 39.2049 63.0603L36.9802 60.8446C36.6925 60.559 36.5486 60.1783 36.5486 59.7997C36.5486 59.4212 36.6903 59.0427 36.9758 58.7549L38.2442 57.4821L38.1778 57.3781C37.7174 56.6609 37.3212 55.9039 36.9958 55.1225C36.6704 54.3433 36.4136 53.531 36.2277 52.6942L36.2011 52.5747L34.4037 52.5791C33.9986 52.5791 33.629 52.4153 33.3612 52.1475C33.0933 51.8797 32.9251 51.51 32.9251 51.1027L32.9184 47.9617C32.9162 47.5566 33.0822 47.1869 33.3501 46.9191C33.6179 46.6513 33.9876 46.4831 34.3949 46.4831L36.1879 46.4786L36.2144 46.3591C36.396 45.5313 36.6505 44.7189 36.9759 43.9308C37.3013 43.1406 37.6931 42.3836 38.1469 41.6686L38.2133 41.5646L36.9427 40.2984C36.655 40.0129 36.5111 39.6321 36.5111 39.2536C36.5111 38.8751 36.6527 38.4966 36.9383 38.2088L39.1541 35.9842C39.4396 35.6964 39.8203 35.5525 40.1989 35.5525C40.5774 35.5525 40.9559 35.6942 41.2437 35.9798L42.5165 37.2481L42.6205 37.1817C43.3377 36.7213 44.0947 36.3251 44.8761 35.9997C45.6553 35.6765 46.4676 35.4176 47.3021 35.2316L47.4216 35.205L47.4172 33.4076C47.4172 33.0026 47.581 32.6329 47.8488 32.3651ZM48.8937 33.0934C48.8095 33.0934 48.7321 33.1288 48.6745 33.1864C48.617 33.2439 48.5816 33.3236 48.5816 33.4077L48.586 35.67C48.586 35.9511 48.3868 36.1857 48.1211 36.241L47.5545 36.3672C46.7953 36.5377 46.0493 36.7745 45.3232 37.0778C44.6017 37.3788 43.9088 37.7418 43.2491 38.1646L42.7511 38.4834C42.5098 38.6383 42.1955 38.5918 42.0073 38.3882L40.4202 36.8099C40.3605 36.7502 40.2786 36.7192 40.1967 36.7192C40.117 36.7192 40.0373 36.7502 39.9775 36.8099L37.7618 39.0345C37.702 39.0943 37.671 39.1762 37.671 39.2581C37.671 39.3378 37.702 39.4175 37.7618 39.4772L39.3666 41.0754C39.5636 41.2724 39.5901 41.5756 39.4485 41.7992H39.4507L39.1341 42.2994C38.7114 42.9657 38.3483 43.6607 38.054 44.3802C37.7596 45.0973 37.5249 45.8455 37.3567 46.6136L37.2305 47.1913C37.1685 47.4791 36.9029 47.6717 36.6152 47.6495L34.395 47.654C34.3109 47.654 34.2334 47.6894 34.1758 47.7469C34.1183 47.8045 34.0829 47.8842 34.0829 47.9683L34.0895 51.1093C34.0895 51.1934 34.1249 51.2709 34.1825 51.3284C34.24 51.386 34.3197 51.4214 34.4038 51.4214L36.6661 51.417C36.9472 51.417 37.1818 51.6162 37.2371 51.8818L37.3633 52.4485C37.5338 53.2077 37.7706 53.9536 38.0739 54.6797C38.3749 55.4013 38.7379 56.0942 39.1607 56.7538L39.4795 57.2519C39.6344 57.4931 39.5879 57.8075 39.3843 57.9956L37.806 59.5827C37.7463 59.6425 37.7153 59.7244 37.7153 59.8063C37.7153 59.886 37.7462 59.9657 37.806 60.0254L40.0306 62.2412C40.0904 62.301 40.1723 62.332 40.2542 62.332C40.3339 62.332 40.4136 62.301 40.4733 62.2412L42.0715 60.6364C42.2685 60.4394 42.5717 60.4128 42.7953 60.5545V60.5523L43.2955 60.8688C43.9618 61.2916 44.659 61.6546 45.3763 61.949C46.0934 62.2434 46.8416 62.478 47.6097 62.6463L48.1874 62.7724C48.4752 62.8344 48.6678 63.1 48.6456 63.3878L48.6501 65.608C48.6501 65.6921 48.6855 65.7696 48.743 65.8271C48.8006 65.8847 48.8803 65.9201 48.9644 65.9201L52.1054 65.9134C52.1895 65.9134 52.267 65.878 52.3245 65.8205C52.3821 65.7629 52.4175 65.6832 52.4175 65.5991L52.4131 63.3347C52.4131 63.0536 52.6123 62.8189 52.8779 62.7636L53.4446 62.6374C54.2038 62.467 54.9497 62.2301 55.6758 61.9291C56.3974 61.6281 57.0903 61.265 57.7499 60.8422L58.248 60.5235C58.4892 60.3685 58.8036 60.415 58.9917 60.6187L60.5788 62.1969C60.6386 62.2567 60.7205 62.2877 60.8024 62.2877C60.8821 62.2877 60.9618 62.2567 61.0215 62.1969L63.2373 59.9723C63.2971 59.9126 63.328 59.8307 63.328 59.7488C63.328 59.6691 63.2971 59.5894 63.2373 59.5296L61.6325 57.9315C61.4355 57.7345 61.4089 57.4312 61.5506 57.2077H61.5484L61.8649 56.7074C62.2877 56.0411 62.6485 55.3461 62.9451 54.6289C63.2395 53.9117 63.4741 53.1636 63.6424 52.3954L63.7685 51.8177C63.8305 51.53 64.0961 51.3374 64.3839 51.3595L66.6041 51.3551C66.6882 51.3551 66.7657 51.3197 66.8232 51.2621C66.8808 51.2046 66.9162 51.1249 66.9162 51.0408L66.9095 47.8998C66.9095 47.8157 66.8741 47.7382 66.8166 47.6806C66.759 47.6231 66.6793 47.5877 66.5952 47.5877L64.333 47.5921C64.0519 47.5921 63.8172 47.3929 63.7619 47.1273L63.6357 46.5606C63.4653 45.8014 63.2284 45.0554 62.9252 44.3294C62.6242 43.6078 62.2611 42.9149 61.8383 42.2553L61.5196 41.7572C61.3646 41.5159 61.4111 41.2016 61.6148 41.0135L63.193 39.4263C63.2528 39.3666 63.2838 39.2847 63.2838 39.2028C63.2838 39.1231 63.2528 39.0434 63.193 38.9836L60.9684 36.7679C60.9087 36.7081 60.8268 36.6771 60.7449 36.6771C60.6652 36.6771 60.5855 36.7081 60.5257 36.7679L58.9276 38.3727C58.7306 38.5697 58.4273 38.5962 58.2038 38.4546V38.4568L57.7035 38.1402C57.0372 37.7175 56.3422 37.3567 55.625 37.0601C54.9078 36.7657 54.1597 36.531 53.3915 36.3628L52.8138 36.2366C52.5261 36.1746 52.3335 35.909 52.3556 35.6213L52.3512 33.4011C52.3512 33.317 52.3158 33.2395 52.2582 33.182C52.2007 33.1244 52.121 33.089 52.0369 33.089L48.8959 33.0956L48.8937 33.0934ZM51.3042 25.503C51.0983 25.2971 50.8128 25.1687 50.4985 25.1687C50.1841 25.1687 49.8986 25.2971 49.6927 25.503C49.4869 25.7088 49.3585 25.9944 49.3585 26.3087C49.3585 26.623 49.4869 26.9086 49.6927 27.1144C49.8986 27.3203 50.1841 27.4487 50.4985 27.4487C50.8128 27.4487 51.0983 27.3203 51.3042 27.1144C51.51 26.9086 51.6384 26.623 51.6384 26.3087C51.6384 25.9944 51.51 25.7088 51.3042 25.503ZM51.0828 28.5399V30.1248C51.0828 30.448 50.8216 30.7092 50.4985 30.7092C50.1754 30.7092 49.9142 30.448 49.9142 30.1248V28.5399C49.5113 28.4359 49.1527 28.2234 48.8671 27.9379C48.4488 27.5195 48.192 26.944 48.192 26.3065C48.192 25.669 48.451 25.0935 48.8671 24.6751C49.2855 24.2568 49.861 24 50.4985 24C51.136 24 51.7115 24.259 52.1299 24.6751C52.5482 25.0935 52.805 25.669 52.805 26.3065C52.805 26.944 52.546 27.5195 52.1299 27.9379C51.8443 28.2234 51.4857 28.4337 51.0828 28.5399ZM34.0982 31.9621C33.8061 31.9621 33.5161 32.0727 33.2925 32.2963C33.0711 32.5177 32.9583 32.8099 32.9583 33.1021C32.9583 33.3943 33.0689 33.6842 33.2925 33.9078C33.5138 34.1291 33.806 34.242 34.0982 34.242C34.3904 34.242 34.6804 34.1314 34.904 33.9078C35.1253 33.6864 35.2382 33.3943 35.2382 33.1021C35.2382 32.8099 35.1275 32.5199 34.904 32.2963C34.6826 32.075 34.3904 31.9621 34.0982 31.9621ZM36.0904 34.2664C36.3007 33.9078 36.4069 33.5049 36.4069 33.0998C36.4069 32.5088 36.1812 31.92 35.7318 31.4685C35.2802 31.0169 34.6915 30.7933 34.1004 30.7933C33.5116 30.7933 32.9206 31.0191 32.4691 31.4685C32.0175 31.92 31.794 32.5088 31.794 33.0998C31.794 33.6886 32.0197 34.2796 32.4691 34.7312C32.9206 35.1828 33.5094 35.4063 34.1004 35.4063C34.5033 35.4063 34.9084 35.3001 35.267 35.0898L36.387 36.2098C36.615 36.4378 36.9847 36.4378 37.2127 36.2098C37.4407 35.9819 37.4407 35.6122 37.2127 35.3842L36.0926 34.2642L36.0904 34.2664ZM26.4991 48.6942C26.2932 48.9 26.1648 49.1856 26.1648 49.4999C26.1648 49.8142 26.2932 50.0998 26.4991 50.3056C26.7049 50.5115 26.9905 50.6399 27.3048 50.6399C27.6191 50.6399 27.9047 50.5115 28.1105 50.3056C28.3164 50.0998 28.4448 49.8142 28.4448 49.4999C28.4448 49.1856 28.3164 48.9 28.1105 48.6942C27.9047 48.4883 27.6191 48.3599 27.3048 48.3599C26.9905 48.3599 26.7049 48.4883 26.4991 48.6942ZM29.536 48.9155H31.1209C31.4441 48.9155 31.7053 49.1767 31.7053 49.4999C31.7053 49.823 31.4441 50.0842 31.1209 50.0842H29.536C29.432 50.4871 29.2195 50.8457 28.934 51.1312C28.5156 51.5496 27.9401 51.8064 27.3026 51.8064C26.6651 51.8064 26.0896 51.5474 25.6712 51.1312C25.2529 50.7129 24.9961 50.1374 24.9961 49.4999C24.9961 48.8624 25.2551 48.2869 25.6712 47.8685C26.0896 47.4501 26.6651 47.1934 27.3026 47.1934C27.9401 47.1934 28.5156 47.4524 28.934 47.8685C29.2195 48.154 29.4298 48.5126 29.536 48.9155ZM32.9582 65.9001C32.9582 66.1923 33.0688 66.4823 33.2924 66.7059C33.5138 66.9272 33.8059 67.0401 34.0981 67.0401C34.3903 67.0401 34.6803 66.9294 34.9039 66.7059C35.1252 66.4823 35.2381 66.1923 35.2381 65.9001C35.2381 65.6079 35.1275 65.318 34.9039 65.0944C34.6825 64.873 34.3903 64.7601 34.0981 64.7601C33.8059 64.7601 33.516 64.8708 33.2924 65.0944C33.0711 65.3157 32.9582 65.6079 32.9582 65.9001ZM35.2624 63.908C34.9039 63.6977 34.501 63.5914 34.0959 63.5914C33.5049 63.5914 32.9161 63.8172 32.4645 64.2665C32.013 64.7181 31.7894 65.3069 31.7894 65.8979C31.7894 66.4867 32.0152 67.0777 32.4645 67.5293C32.9161 67.9808 33.5049 68.2044 34.0959 68.2044C34.6847 68.2044 35.2757 67.9786 35.7273 67.5293C36.1788 67.0799 36.4024 66.4889 36.4024 65.8979C36.4024 65.4951 36.2962 65.09 36.0859 64.7314L37.2059 63.6113C37.4339 63.3833 37.4339 63.0137 37.2059 62.7857C36.9779 62.5577 36.6083 62.5577 36.3803 62.7857L35.2602 63.9058L35.2624 63.908ZM49.6925 73.497C49.8984 73.7029 50.1839 73.8313 50.4983 73.8313C50.8126 73.8313 51.0981 73.7029 51.304 73.497C51.5099 73.2912 51.6382 73.0056 51.6382 72.6913C51.6382 72.377 51.5099 72.0914 51.304 71.8856C51.0982 71.6797 50.8126 71.5513 50.4983 71.5513C50.1839 71.5513 49.8984 71.6797 49.6925 71.8856C49.4867 72.0914 49.3583 72.377 49.3583 72.6913C49.3583 73.0056 49.4867 73.2912 49.6925 73.497ZM49.9139 70.4601V68.8752C49.9139 68.552 50.1751 68.2908 50.4982 68.2908C50.8214 68.2908 51.0826 68.552 51.0826 68.8752V70.4601C51.4854 70.5641 51.844 70.7766 52.1296 71.0621C52.5479 71.4805 52.8047 72.056 52.8047 72.6935C52.8047 73.331 52.5457 73.9065 52.1296 74.3249C51.7134 74.741 51.1357 75 50.4982 75C49.8607 75 49.2852 74.741 48.8669 74.3249C48.4485 73.9065 48.1917 73.331 48.1917 72.6935C48.1917 72.056 48.4507 71.4805 48.8669 71.0621C49.1524 70.7766 49.511 70.5663 49.9139 70.4601ZM66.8985 67.0379C67.1907 67.0379 67.4806 66.9272 67.7042 66.7037C67.9256 66.4823 68.0385 66.1901 68.0385 65.8979C68.0385 65.6057 67.9278 65.3158 67.7042 65.0922C67.4829 64.8709 67.1907 64.758 66.8985 64.758C66.6063 64.758 66.3164 64.8686 66.0927 65.0922C65.8714 65.3136 65.7585 65.6057 65.7585 65.8979C65.7585 66.1901 65.8692 66.4801 66.0927 66.7037C66.3141 66.925 66.6063 67.0379 66.8985 67.0379ZM64.9063 64.7336C64.696 65.0922 64.5898 65.4951 64.5898 65.9002C64.5898 66.4912 64.8156 67.08 65.2649 67.5315C65.7165 67.9831 66.3052 68.2067 66.8963 68.2067C67.4851 68.2067 68.0761 67.9809 68.5276 67.5315C68.9792 67.08 69.2028 66.4912 69.2028 65.9002C69.2028 65.3114 68.977 64.7204 68.5276 64.2688C68.0761 63.8172 67.4873 63.5937 66.8963 63.5937C66.4934 63.5937 66.0883 63.6999 65.7297 63.9102L64.6097 62.7902C64.3817 62.5622 64.012 62.5622 63.784 62.7902C63.5561 63.0181 63.5561 63.3878 63.784 63.6158L64.9041 64.7358L64.9063 64.7336ZM74.4954 50.3036C74.7013 50.0977 74.8296 49.8122 74.8296 49.4978C74.8296 49.1835 74.7013 48.898 74.4954 48.6921C74.2895 48.4862 74.004 48.3578 73.6897 48.3578C73.3753 48.3578 73.0898 48.4862 72.8839 48.6921C72.6781 48.8979 72.5497 49.1835 72.5497 49.4978C72.5497 49.8121 72.6781 50.0977 72.8839 50.3036C73.0898 50.5094 73.3753 50.6378 73.6897 50.6378C74.004 50.6378 74.2895 50.5094 74.4954 50.3036ZM71.4584 50.0822H69.8735C69.5504 50.0822 69.2892 49.821 69.2892 49.4979C69.2892 49.1747 69.5504 48.9135 69.8735 48.9135H71.4584C71.5625 48.5107 71.775 48.152 72.0605 47.8665C72.4789 47.4481 73.0544 47.1914 73.6919 47.1914C74.3294 47.1914 74.9049 47.4504 75.3232 47.8665C75.7416 48.2849 75.9984 48.8604 75.9984 49.4979C75.9984 50.1354 75.7394 50.7109 75.3232 51.1292C74.9071 51.5454 74.3294 51.8044 73.6919 51.8044C73.0544 51.8044 72.4789 51.5454 72.0605 51.1292C71.775 50.8437 71.5647 50.4851 71.4584 50.0822ZM68.0363 33.0976C68.0363 32.8054 67.9256 32.5155 67.702 32.2919C67.4785 32.0705 67.1885 31.9576 66.8963 31.9576C66.6041 31.9576 66.3142 32.0683 66.0906 32.2919C65.8692 32.5132 65.7563 32.8054 65.7563 33.0976C65.7563 33.3898 65.867 33.6797 66.0906 33.9033C66.3119 34.1247 66.6041 34.2376 66.8963 34.2376C67.1885 34.2376 67.4784 34.1269 67.702 33.9033C67.9234 33.6798 68.0363 33.3898 68.0363 33.0976ZM65.732 35.0898C66.0906 35.3001 66.4935 35.4063 66.8985 35.4063C67.4896 35.4063 68.0783 35.1805 68.5299 34.7312C68.9815 34.2818 69.205 33.6908 69.205 33.0998C69.205 32.511 68.9792 31.92 68.5299 31.4684C68.0784 31.0169 67.4896 30.7933 66.8985 30.7933C66.3097 30.7933 65.7188 31.0191 65.2672 31.4684C64.8156 31.92 64.5921 32.5088 64.5921 33.0998C64.5921 33.5027 64.6983 33.9078 64.9086 34.2663L63.7885 35.3864C63.5605 35.6144 63.5605 35.9841 63.7885 36.212C64.0165 36.44 64.3862 36.44 64.6141 36.212L65.7342 35.092L65.732 35.0898ZM50.4961 39.9883C47.8709 39.9883 45.4936 41.053 43.7715 42.7729C42.0516 44.4929 40.9869 46.8702 40.9869 49.4975C40.9869 52.1228 42.0516 54.5001 43.7715 56.2221C45.4915 57.9421 47.8688 59.0068 50.4961 59.0068C53.1214 59.0068 55.4987 57.9421 57.2207 56.2221C58.9407 54.5022 60.0054 52.1249 60.0054 49.4975C60.0054 46.8723 58.9407 44.495 57.2207 42.7729C55.5008 41.053 53.1235 39.9883 50.4961 39.9883ZM46.0624 54.5487C45.4626 54.7369 44.9114 54.9626 44.4244 55.2172C44.482 55.277 44.5395 55.3389 44.5993 55.3965C45.4073 56.2044 46.3768 56.8464 47.4592 57.2692C47.1869 56.9172 46.9346 56.5166 46.7066 56.076C46.4653 55.6112 46.2506 55.0999 46.0647 54.5487L46.0624 54.5487ZM49.9162 53.9223C48.9533 53.9555 48.0369 54.0706 47.1913 54.2521C47.3529 54.7169 47.5367 55.1507 47.7403 55.5425C48.3358 56.6913 49.0905 57.486 49.9073 57.7472L49.914 53.9244L49.9162 53.9223ZM53.801 54.2521C52.9554 54.0706 52.0412 53.9555 51.0783 53.9223L51.0717 57.7495C51.8951 57.4927 52.6544 56.6958 53.252 55.5426C53.4557 55.1508 53.6394 54.7169 53.801 54.2521ZM56.5679 55.2172C56.0809 54.9626 55.532 54.7368 54.9299 54.5487C54.7439 55.0998 54.527 55.6112 54.288 56.076C54.06 56.5165 53.8076 56.9149 53.5354 57.2691C54.6155 56.8463 55.5873 56.2044 56.3953 55.3965C56.455 55.3367 56.5126 55.2769 56.5701 55.2172L56.5679 55.2172ZM55.253 53.4309C56.0145 53.6677 56.7095 53.9621 57.316 54.3008C58.166 53.0967 58.7039 51.6556 58.8146 50.0973L55.6979 50.0907C55.6581 51.2771 55.5032 52.4038 55.253 53.4309ZM51.0805 52.7557C52.1541 52.7912 53.1789 52.9218 54.1286 53.132C54.3543 52.2002 54.496 51.1731 54.5336 50.0884L51.0872 50.0818L51.0828 52.7558L51.0805 52.7557ZM46.8638 53.132C47.8134 52.9218 48.8405 52.7912 49.9162 52.7557L49.9206 50.0796L46.4564 50.0729C46.4941 51.1642 46.6357 52.1957 46.8615 53.132L46.8638 53.132ZM43.6741 54.3008C44.2806 53.9621 44.9756 53.6699 45.7371 53.4308C45.4847 52.3971 45.3276 51.2638 45.2899 50.0707L42.1711 50.0641C42.2751 51.6356 42.8152 53.0877 43.6718 54.3008L43.6741 54.3008ZM54.9297 44.4482C55.5296 44.2601 56.0807 44.0343 56.5677 43.7797C56.5101 43.72 56.4526 43.658 56.3928 43.6004C55.5849 42.7925 54.6154 42.1506 53.5329 41.7278C53.8052 42.0797 54.0575 42.4804 54.2855 42.9209C54.5268 43.3857 54.7415 43.8971 54.9274 44.4482L54.9297 44.4482ZM51.0959 45.0747C52.0521 45.0415 52.9597 44.9264 53.8008 44.7471C53.6392 44.2822 53.4555 43.8484 53.2518 43.4566C52.6608 42.3166 51.9149 41.5264 51.1025 41.2586L51.0959 45.0747ZM47.1912 44.7471C48.0412 44.9308 48.9643 45.0459 49.9338 45.0769L49.9404 41.2431C49.1081 41.4932 48.3445 42.2923 47.7402 43.4566C47.5365 43.8484 47.3528 44.2822 47.1912 44.7471ZM44.4243 43.782C44.9113 44.0365 45.4602 44.2623 46.0623 44.4505C46.2483 43.8993 46.4652 43.388 46.7042 42.9231C46.9322 42.4827 47.1846 42.0842 47.4568 41.73C46.3767 42.1528 45.4049 42.7947 44.5969 43.6027C44.5372 43.6624 44.4796 43.7222 44.4221 43.782L44.4243 43.782ZM45.7392 45.5683C44.9777 45.3314 44.2827 45.037 43.6762 44.6983C42.8262 45.9025 42.2883 47.3435 42.1776 48.9018L45.2943 48.9085C45.3341 47.722 45.489 46.5953 45.7392 45.5683ZM49.9316 46.2434C48.8514 46.2102 47.8198 46.0774 46.8658 45.8671C46.64 46.799 46.4984 47.826 46.4607 48.9107L49.9249 48.9173L49.9293 46.2434L49.9316 46.2434ZM54.1284 45.8671C53.1854 46.0774 52.1627 46.208 51.0936 46.2434L51.0892 48.9196L54.5334 48.9262C54.4958 47.8349 54.3542 46.8034 54.1284 45.8671ZM57.3181 44.6983C56.7116 45.037 56.0165 45.3292 55.2551 45.5683C55.5074 46.602 55.6646 47.7353 55.7022 48.9284L58.8211 48.9351C58.717 47.3635 58.1769 45.9114 57.3203 44.6984L57.3181 44.6983Z" fill="black"/>
<defs>
<linearGradient id="paint0_linear_7581_60498" x1="11.809" y1="1.81213e-05" x2="100.05" y2="16.5617" gradientUnits="userSpaceOnUse">
<stop stop-color="#2EC4F3"/>
<stop offset="1" stop-color="#BFD633"/>
</linearGradient>
</defs>
</svg>
