<svg width="100" height="100" viewBox="0 0 100 100" fill="none" xmlns="http://www.w3.org/2000/svg">
<rect opacity="0.2" width="100" height="100" rx="20" fill="url(#paint0_linear_7581_60439)"/>
<path d="M29.2423 55.7812L41.1686 61.9967C41.3179 62.0757 41.4783 62.1126 41.635 62.1126C42.0002 62.1126 42.3518 61.9127 42.532 61.5673C42.791 61.0739 42.5986 60.4619 42.1039 60.2053L31.8626 54.8682L42.1172 49.3079C42.6081 49.0427 42.7908 48.4283 42.5243 47.9385C42.2578 47.4463 41.6422 47.2624 41.1549 47.5314L29.2285 53.9972C28.8992 54.1749 28.6956 54.5203 28.6993 54.8929C28.7019 55.2679 28.9116 55.6085 29.2423 55.7812Z" fill="black"/>
<path d="M45.7654 66.3487C45.9023 66.4128 46.0479 66.4449 46.1897 66.4449C46.5709 66.4449 46.9361 66.2278 47.1076 65.8601L55.8411 47.0645C56.078 46.5587 55.8583 45.9579 55.3525 45.7222C54.8492 45.4866 54.2446 45.705 54.0102 46.2133L45.2743 65.0064C45.0387 65.5147 45.2583 66.1143 45.7654 66.3487Z" fill="black"/>
<path d="M76.0702 25H24.0026C23.4449 25 22.9922 25.4528 22.9922 26.0104V38.0836V72.0317C22.9922 73.6676 24.3233 75 25.9605 75H74.1135C75.7494 75 77.0818 73.6676 77.0818 72.0317V38.0836V26.0104C77.0819 25.4528 76.6279 25 76.0702 25ZM25.013 27.0209H75.0586V37.0732H25.013V27.0209ZM75.0586 72.0316C75.0586 72.5522 74.6342 72.9767 74.1135 72.9767H25.9605C25.4386 72.9767 25.0129 72.5523 25.0129 72.0316V39.094H75.0585V72.0316H75.0586Z" fill="black"/>
<path d="M72.6845 31.0366H48.3581C47.8004 31.0366 47.3477 31.4894 47.3477 32.047C47.3477 32.6047 47.8004 33.0575 48.3581 33.0575H72.6845C73.2421 33.0575 73.6961 32.6047 73.6961 32.047C73.6961 31.4894 73.2421 31.0366 72.6845 31.0366Z" fill="black"/>
<path d="M30.0168 34.1276C31.1661 33.8562 31.8778 32.7045 31.6064 31.5552C31.335 30.406 30.1834 29.6943 29.0341 29.9657C27.8848 30.237 27.1731 31.3887 27.4445 32.538C27.7159 33.6873 28.8675 34.399 30.0168 34.1276Z" fill="black"/>
<path d="M35.845 34.1271C36.9942 33.8557 37.7059 32.704 37.4345 31.5548C37.1632 30.4055 36.0115 29.6938 34.8622 29.9652C33.7129 30.2365 33.0012 31.3882 33.2726 32.5375C33.544 33.6868 34.6957 34.3985 35.845 34.1271Z" fill="black"/>
<path d="M42.6961 33.5598C43.5311 32.7248 43.5311 31.3709 42.6961 30.5359C41.861 29.7008 40.5072 29.7008 39.6721 30.5359C38.8371 31.3709 38.8371 32.7248 39.6721 33.5598C40.5072 34.3949 41.861 34.3949 42.6961 33.5598Z" fill="black"/>
<path d="M66.6624 60.8061C67.0743 59.7428 67.1104 58.5707 66.7646 57.484C66.4189 56.3974 65.7121 55.4616 64.7616 54.8318C63.811 54.202 62.6737 53.9161 61.5382 54.0214C60.4028 54.1267 59.3375 54.6169 58.5189 55.4108C57.7004 56.2047 57.1778 57.2545 57.0378 58.3862C56.8978 59.5179 57.1489 60.6634 57.7493 61.6328C58.3498 62.6022 59.2635 63.3373 60.339 63.7161C61.4146 64.0949 62.5873 64.0946 63.6627 63.7154L63.2009 63.2536C62.5769 63.3841 61.9302 63.3571 61.3193 63.1751C60.5227 63.0446 59.7801 62.6889 59.1792 62.1499C58.5782 61.6109 58.1441 60.9113 57.9281 60.1335C57.712 59.3557 57.7231 58.5324 57.96 57.7607C58.1969 56.989 58.6496 56.3013 59.2648 55.7787C59.88 55.2561 60.6319 54.9204 61.4317 54.8114C62.2316 54.7024 63.0459 54.8246 63.7785 55.1636C64.5111 55.5025 65.1314 56.044 65.5661 56.7242C66.0008 57.4043 66.2318 58.1947 66.2318 59.0019C66.2318 59.0804 66.2292 59.1582 66.225 59.2356C66.2516 59.5916 66.2282 59.9496 66.1554 60.2991L66.6624 60.8061Z" fill="black"/>
<path d="M60.2129 50.9549V51.2364C59.3614 51.4253 58.5466 51.7523 57.8008 52.2044L57.5748 51.9784C57.3956 51.7996 57.1528 51.6992 56.8996 51.6992C56.6464 51.6992 56.4036 51.7996 56.2244 51.9784L55.0479 53.155C54.8688 53.3341 54.7682 53.577 54.7682 53.8302C54.7682 54.0835 54.8688 54.3264 55.0479 54.5055L55.2299 54.6876C54.7393 55.4389 54.3836 56.27 54.1787 57.1436H53.9549C53.7017 57.1438 53.459 57.2445 53.28 57.4235C53.101 57.6026 53.0003 57.8453 53 58.0984V59.7629C53.0003 60.0161 53.101 60.2588 53.28 60.4378C53.459 60.6168 53.7017 60.7175 53.9549 60.7178H54.1787C54.3836 61.5913 54.7393 62.4224 55.2299 63.1736L55.0479 63.3557C54.9592 63.4443 54.8888 63.5496 54.8408 63.6654C54.7929 63.7813 54.7682 63.9055 54.7682 64.0309C54.7682 64.1563 54.7929 64.2804 54.8408 64.3963C54.8888 64.5121 54.9592 64.6174 55.0479 64.7061L56.2244 65.883C56.3129 65.9719 56.4181 66.0424 56.534 66.0903C56.6499 66.1383 56.7742 66.1628 56.8996 66.1625H56.8998C57.0252 66.1629 57.1495 66.1383 57.2653 66.0903C57.3812 66.0423 57.4864 65.9718 57.5748 65.8828L57.8008 65.6568C58.5466 66.1089 59.3614 66.4359 60.2129 66.6248V67.0451C60.2132 67.2983 60.3139 67.541 60.4929 67.72C60.6719 67.899 60.9146 67.9997 61.1678 68H62.8322C63.0854 67.9997 63.3281 67.899 63.5071 67.72C63.6861 67.541 63.7868 67.2983 63.7871 67.0451V66.6248C64.4653 66.4738 65.121 66.235 65.7375 65.9144L65.1408 65.3176C64.5612 65.5931 63.9476 65.7902 63.316 65.9039C63.2237 65.9205 63.1402 65.969 63.0801 66.041C63.02 66.1129 62.9871 66.2037 62.9871 66.2975V67.0451C62.987 67.0862 62.9707 67.1255 62.9417 67.1546C62.9126 67.1836 62.8733 67.1999 62.8322 67.2H61.1678C61.1267 67.1999 61.0874 67.1836 61.0583 67.1546C61.0293 67.1255 61.013 67.0862 61.0129 67.0451V66.2975C61.0129 66.2037 60.98 66.1129 60.9199 66.041C60.8598 65.969 60.7763 65.9205 60.684 65.9039C59.7127 65.7304 58.7874 65.3594 57.9652 64.8141C57.8883 64.7632 57.7961 64.7404 57.7043 64.7497C57.6125 64.7589 57.5268 64.7996 57.4615 64.8648L57.009 65.3174C56.9799 65.3463 56.9405 65.3626 56.8995 65.3625C56.8584 65.3625 56.8191 65.3462 56.79 65.3172L55.6133 64.1402C55.5844 64.1112 55.5681 64.0718 55.5682 64.0308C55.5682 63.9898 55.5845 63.9505 55.6135 63.9215L56.0297 63.5051C56.0966 63.4382 56.1376 63.3498 56.1454 63.2555C56.1533 63.1613 56.1275 63.0673 56.0727 62.9902C55.4854 62.1709 55.0838 61.2334 54.8957 60.243C54.8783 60.1515 54.8295 60.069 54.7578 60.0096C54.6861 59.9502 54.5959 59.9178 54.5027 59.9178H53.9549C53.9138 59.9177 53.8745 59.9014 53.8454 59.8723C53.8164 59.8433 53.8001 59.8039 53.8 59.7629V58.0984C53.8001 58.0574 53.8164 58.018 53.8454 57.989C53.8745 57.96 53.9138 57.9436 53.9549 57.9436H54.5027C54.5958 57.9436 54.6861 57.9111 54.7578 57.8517C54.8295 57.7924 54.8783 57.7098 54.8957 57.6184C55.0837 56.628 55.4854 55.6904 56.0727 54.8711C56.1275 54.794 56.1533 54.7 56.1454 54.6058C56.1376 54.5115 56.0966 54.4231 56.0297 54.3561L55.6135 53.9397C55.5845 53.9107 55.5682 53.8713 55.5682 53.8303C55.5682 53.7892 55.5845 53.7498 55.6135 53.7208L56.79 52.5442C56.8191 52.5152 56.8585 52.4988 56.8996 52.4988C56.9407 52.4988 56.9801 52.515 57.0092 52.544L57.4615 52.9965C57.5268 53.0617 57.6125 53.1024 57.7043 53.1116C57.7961 53.1209 57.8883 53.0981 57.9652 53.0472C58.7874 52.5018 59.7128 52.1309 60.684 51.9574C60.7763 51.9408 60.8597 51.8922 60.9199 51.8203C60.98 51.7483 61.0129 51.6575 61.0129 51.5638V50.9549C61.0129 50.9138 61.0293 50.8745 61.0583 50.8454C61.0873 50.8164 61.1267 50.8 61.1678 50.8H62.8322C62.8733 50.8 62.9127 50.8164 62.9417 50.8454C62.9707 50.8745 62.9871 50.9138 62.9871 50.9549V51.5638C62.9871 51.6575 63.02 51.7483 63.0801 51.8203C63.1403 51.8922 63.2237 51.9408 63.316 51.9574C64.2872 52.1309 65.2126 52.5018 66.0348 53.0472C66.1117 53.0981 66.2039 53.1209 66.2957 53.1116C66.3875 53.1024 66.4732 53.0617 66.5385 52.9965L66.9908 52.544C67.0199 52.5151 67.0593 52.4988 67.1004 52.4988C67.1415 52.4988 67.1809 52.5151 67.21 52.544L68.3867 53.721C68.4156 53.7501 68.4319 53.7894 68.4318 53.8305C68.4318 53.8715 68.4155 53.9108 68.3865 53.9398L67.9703 54.3562C67.9034 54.4231 67.8624 54.5115 67.8546 54.6058C67.8467 54.7 67.8725 54.794 67.9273 54.8711C68.5146 55.6904 68.9163 56.628 69.1043 57.6184C69.1217 57.7098 69.1705 57.7924 69.2422 57.8517C69.3139 57.9111 69.4041 57.9436 69.4973 57.9436H70.0451C70.0862 57.9436 70.1255 57.96 70.1546 57.989C70.1836 58.018 70.1999 58.0574 70.2 58.0984V59.7629C70.1999 59.804 70.1836 59.8433 70.1546 59.8723C70.1255 59.9014 70.0862 59.9177 70.0451 59.9178H69.4973C69.4042 59.9178 69.3139 59.9502 69.2422 60.0096C69.1705 60.069 69.1217 60.1515 69.1043 60.243C68.9636 60.9858 68.7018 61.7004 68.3294 62.3584L68.9136 62.9426C69.3308 62.2531 69.6371 61.5023 69.8213 60.7178H70.0451C70.2983 60.7175 70.541 60.6168 70.72 60.4378C70.899 60.2588 70.9997 60.0161 71 59.7629V58.0984C70.9997 57.8453 70.899 57.6026 70.72 57.4235C70.541 57.2445 70.2983 57.1438 70.0451 57.1436H69.8213C69.6164 56.27 69.2607 55.4389 68.7701 54.6876L68.9522 54.5056C69.0408 54.4169 69.1112 54.3116 69.1592 54.1958C69.2071 54.0799 69.2318 53.9558 69.2318 53.8304C69.2318 53.705 69.2071 53.5808 69.1592 53.4649C69.1112 53.3491 69.0408 53.2438 68.9522 53.1552L67.7756 51.9782C67.5963 51.7996 67.3535 51.6993 67.1003 51.6993C66.8472 51.6994 66.6045 51.7997 66.4252 51.9784L66.1992 52.2044C65.4534 51.7523 64.6386 51.4253 63.7871 51.2364V50.9549C63.7868 50.7017 63.6861 50.459 63.5071 50.28C63.3281 50.101 63.0854 50.0003 62.8322 50H61.1678C60.9146 50.0003 60.6719 50.101 60.4929 50.28C60.3139 50.459 60.2132 50.7017 60.2129 50.9549Z" fill="black"/>
<path d="M65.8168 62.0035L69.3159 65.5025C69.3912 65.5774 69.4931 65.6195 69.5994 65.6194C69.7056 65.6193 69.8074 65.577 69.8825 65.5019C69.9577 65.4268 69.9999 65.325 70 65.2187C70.0001 65.1125 69.9581 65.0106 69.8831 64.9353L66.3839 61.4364C66.3304 61.3839 66.2917 61.3183 66.2716 61.2461C66.2515 61.1739 66.2507 61.0977 66.2694 61.0251C66.4112 60.5016 66.4173 59.9505 66.2869 59.424C66.1566 58.8974 65.8942 58.4128 65.5245 58.0159C65.1547 57.619 64.6899 57.3229 64.1739 57.1556C63.658 56.9883 63.1078 56.9553 62.5755 57.0597C62.4533 57.0834 62.3398 57.1399 62.2473 57.2232C62.1547 57.3065 62.0866 57.4135 62.0503 57.5326C62.0144 57.6502 62.0113 57.7753 62.0411 57.8945C62.071 58.0137 62.1328 58.1225 62.2199 58.2092L63.4981 59.4876C63.5274 59.5171 63.5439 59.5569 63.5439 59.5985C63.5439 59.64 63.5274 59.6799 63.4981 59.7093L62.7093 60.4981C62.6799 60.5274 62.64 60.5439 62.5985 60.5439C62.557 60.5439 62.5171 60.5276 62.4876 60.4983L61.2086 59.2191C61.122 59.1322 61.0133 59.0705 60.8942 59.0407C60.7752 59.0108 60.6502 59.014 60.5328 59.0497C60.4137 59.0862 60.3067 59.1543 60.2233 59.2469C60.14 59.3395 60.0834 59.4531 60.0597 59.5754C59.9553 60.1077 59.9883 60.6578 60.1556 61.1738C60.3229 61.6898 60.619 62.1546 61.016 62.5244C61.4129 62.8941 61.8975 63.1565 62.4241 63.2869C62.9506 63.4173 63.5017 63.4112 64.0253 63.2694C64.0978 63.2507 64.174 63.2515 64.2462 63.2716C64.3183 63.2917 64.3839 63.3305 64.4364 63.3839L67.9353 66.8831C68.0106 66.9581 68.1125 67.0001 68.2187 67C68.3249 66.9999 68.4268 66.9577 68.5019 66.8825C68.577 66.8074 68.6193 66.7056 68.6194 66.5994C68.6195 66.4931 68.5774 66.3912 68.5024 66.3159L65.0035 62.8168C64.8511 62.6637 64.6611 62.5533 64.4526 62.4968C64.2441 62.4404 64.0244 62.4397 63.8156 62.495C63.4425 62.5962 63.0504 62.6052 62.673 62.5215C62.2957 62.4377 61.9443 62.2636 61.649 62.0141C61.3537 61.7646 61.1234 61.4472 60.9779 61.0891C60.8323 60.731 60.7758 60.343 60.8132 59.9582L61.9205 61.0657C62.1005 61.2451 62.3444 61.3458 62.5985 61.3457C62.8527 61.3456 63.0965 61.2448 63.2764 61.0653L64.0654 60.2764C64.2449 60.0964 64.3456 59.8526 64.3456 59.5984C64.3455 59.3442 64.2447 59.1005 64.0652 58.9205L62.9582 57.8132C63.3429 57.7758 63.731 57.8322 64.0891 57.9778C64.4472 58.1233 64.7646 58.3536 65.0141 58.6488C65.2636 58.9441 65.4377 59.2955 65.5215 59.6729C65.6053 60.0502 65.5962 60.4423 65.495 60.8154C65.4397 61.0242 65.4403 61.244 65.4968 61.4525C65.5533 61.6611 65.6636 61.8511 65.8168 62.0035Z" fill="black"/>
<defs>
<linearGradient id="paint0_linear_7581_60439" x1="11.809" y1="1.81213e-05" x2="100.05" y2="16.5617" gradientUnits="userSpaceOnUse">
<stop stop-color="#2EC4F3"/>
<stop offset="1" stop-color="#BFD633"/>
</linearGradient>
</defs>
</svg>
