<svg width="100" height="100" viewBox="0 0 100 100" fill="none" xmlns="http://www.w3.org/2000/svg">
<rect opacity="0.2" width="100" height="100" rx="20" fill="url(#paint0_linear_7581_60482)"/>
<path fill-rule="evenodd" clip-rule="evenodd" d="M73.295 65.2896H26.8175V67.7605L73.295 67.7628V65.2896ZM45.5219 69.3104C45.6237 70.796 45.2053 72.2706 44.3374 73.4817H55.764C54.9006 72.2684 54.4865 70.7938 54.5906 69.3104H45.5219ZM49.9434 67.2978C49.6334 67.2867 49.3633 67.0919 49.2525 66.8041C49.1418 66.5163 49.2127 66.1886 49.4341 65.9738C49.6555 65.7591 49.9832 65.6971 50.2688 65.8166C50.5522 65.934 50.7404 66.213 50.7426 66.5207C50.7426 66.7288 50.6585 66.9259 50.5101 67.072C50.3618 67.2159 50.1625 67.2956 49.9544 67.2912L49.9434 67.2978ZM35.1091 39.8478C35.1578 39.6485 35.284 39.4758 35.4589 39.3695C35.6361 39.2633 35.8464 39.2301 36.0457 39.281C36.2449 39.3275 36.4154 39.4515 36.5217 39.6264C36.628 39.8013 36.6612 40.0116 36.6125 40.2086L35.3482 45.3098C35.2353 45.7128 34.8257 45.9541 34.4206 45.8523C34.0154 45.7526 33.763 45.3497 33.8515 44.9423L35.1158 39.8411L35.1091 39.8478ZM32.7002 44.5814V44.5792C33.0035 44.8781 33.008 45.3674 32.7091 45.6708C32.4102 45.9741 31.9209 45.9785 31.6175 45.6796L29.016 43.129C28.7194 42.8257 28.7194 42.3431 29.016 42.0397L31.6286 39.4781C31.9342 39.1792 32.4213 39.1836 32.7202 39.4869C33.0191 39.7902 33.0169 40.2795 32.7113 40.5785L30.6699 42.5799L32.7113 44.5814L32.7002 44.5814ZM38.833 45.6796C38.5296 45.9785 38.0404 45.9741 37.7414 45.6708C37.4425 45.3674 37.447 44.8781 37.7503 44.5792L39.7917 42.5777L37.7503 40.5763V40.5785C37.447 40.2796 37.4425 39.7903 37.7414 39.4869C38.0403 39.1836 38.5296 39.1792 38.833 39.4781L41.4412 42.0397C41.74 42.3408 41.74 42.8279 41.4412 43.1291L38.8397 45.6796L38.833 45.6796ZM48.8891 35.3469C48.5326 33.3985 48.7873 31.3881 49.6153 29.5882C50.4433 27.7882 51.8072 26.2893 53.5187 25.293C56.0892 23.814 59.202 23.6191 61.9368 24.7616C64.6733 25.904 66.7191 28.2576 67.4741 31.125C67.8372 32.5044 67.8881 33.9458 67.6269 35.3472H74.0719C74.2756 35.3472 74.4727 35.4291 74.6166 35.5731C74.7605 35.717 74.8424 35.914 74.8424 36.1177V68.538C74.838 68.9653 74.4926 69.3107 74.0653 69.3107H56.1204C56.0629 71.1595 56.6031 72.6717 58.2171 73.5794V73.5772C58.5382 73.7521 58.6932 74.1263 58.5891 74.4739C58.485 74.8237 58.1507 75.0517 57.7876 75.0229H42.2738C41.9261 75.0207 41.6206 74.786 41.532 74.4495C41.4435 74.1108 41.5918 73.7565 41.8951 73.5838C43.5114 72.6761 44.0494 71.1639 43.9918 69.3152H26.0402C25.6151 69.3152 25.2697 68.9698 25.2697 68.5447V36.1397C25.2653 35.9338 25.345 35.7323 25.4889 35.5817C25.635 35.4334 25.8321 35.3493 26.0402 35.347L48.8891 35.3469ZM49.8124 38.0281C49.6197 37.6606 49.4515 37.282 49.3076 36.8945H26.817V63.7443H73.2945V36.9121H67.219C67.075 37.2996 66.909 37.6782 66.7186 38.0457C66.9511 38.0258 67.1791 38.1121 67.343 38.2782L68.8176 39.7528V39.7505C68.9681 39.8989 69.05 40.1048 69.0434 40.3173V41.6657C69.0478 41.8805 68.9637 42.0842 68.8109 42.2325L67.7349 43.282C68.2397 44.1521 68.6205 45.0886 68.8685 46.0651H70.394H70.3918C70.6043 46.0584 70.8102 46.1403 70.9586 46.2909L71.9106 47.2496C72.0612 47.4001 72.1431 47.6038 72.1387 47.8164V49.9087C72.1431 50.119 72.0612 50.3249 71.9106 50.4755L70.963 51.4231L70.9652 51.4209C70.8146 51.5714 70.6109 51.6534 70.3984 51.6489H68.8906C68.6426 52.6231 68.2618 53.5597 67.757 54.432L68.8397 55.5147V55.5125C68.9903 55.6631 69.0722 55.869 69.0655 56.0793V57.4299C69.07 57.6424 68.9858 57.8461 68.8331 57.9967L67.3585 59.4712L67.3607 59.469C67.2101 59.6196 67.0042 59.7015 66.7939 59.6971H65.4433C65.2308 59.7037 65.0249 59.6174 64.8765 59.4646L63.8005 58.3886V58.3864C62.9304 58.8934 61.9938 59.2742 61.0174 59.52V61.0521C61.0219 61.2646 60.9377 61.4683 60.7849 61.6189L59.8373 62.5665L59.8395 62.5643C59.689 62.7149 59.4831 62.7968 59.2727 62.7923H57.2203C57.0077 62.7968 56.8018 62.7126 56.6535 62.5599L55.7236 61.5215C55.5753 61.3709 55.4956 61.165 55.5022 60.9547V59.4248C54.5258 59.179 53.5893 58.7982 52.7191 58.2912L51.6364 59.3739C51.4881 59.5244 51.2822 59.6064 51.0696 59.5997H49.7389C49.5242 59.6064 49.3183 59.5222 49.1721 59.3673L47.6976 57.8927V57.8949C47.547 57.7443 47.4629 57.5406 47.4717 57.3281V56.0019C47.4651 55.7893 47.547 55.5834 47.6976 55.4351L48.7736 54.3591V54.3569C48.2688 53.4867 47.888 52.5502 47.64 51.5738H46.0879C45.8754 51.5804 45.6717 51.4985 45.5211 51.3479L44.6133 50.418C44.4628 50.2675 44.3809 50.0638 44.3875 49.8512V47.7767C44.3831 47.5641 44.4672 47.3582 44.62 47.2099L45.5676 46.2622L45.5654 46.2644C45.7137 46.1117 45.9196 46.0275 46.1322 46.0364H47.6643C47.9101 45.0622 48.2931 44.1257 48.7979 43.2533L47.7219 42.1706H47.7197C47.5691 42.0223 47.4872 41.8164 47.4938 41.6038V40.2953C47.4872 40.0827 47.5691 39.8768 47.7197 39.7285L49.1987 38.2539C49.3625 38.0923 49.5884 38.0082 49.8164 38.0281L49.8124 38.0281ZM53.1002 44.2629C52.8567 43.4703 52.5224 42.7086 52.1017 41.9957L50.6914 39.558H50.0559L49.0308 40.6186V41.3204L50.3238 42.6134H50.3216C50.5806 42.8747 50.6205 43.2843 50.4124 43.5876C49.7349 44.6061 49.2611 45.7463 49.0197 46.9441C48.9599 47.3205 48.6345 47.5995 48.2536 47.6017H46.4337L45.9355 48.0955V49.5523L46.4337 50.046H48.2536V50.0438C48.6168 50.0438 48.9333 50.2962 49.013 50.6505C49.2499 51.8417 49.7149 52.9753 50.3836 53.9893C50.6249 54.2948 50.5983 54.7332 50.3216 55.01L49.0308 56.3185V57.0203L50.0559 58.0521H50.7578L52.0441 56.7657H52.0463C52.3054 56.5089 52.7106 56.469 53.0139 56.6705C54.0323 57.348 55.1726 57.8241 56.3704 58.0698C56.749 58.1252 57.028 58.4529 57.028 58.8359V60.6558L57.5261 61.154H58.9764L59.4745 60.6558L59.4767 58.8359C59.4767 58.4662 59.738 58.1474 60.0989 58.0765C60.7033 57.9547 61.2923 57.7754 61.8613 57.5429C62.4126 57.3127 62.9395 57.0315 63.4377 56.7038C63.7477 56.4624 64.186 56.489 64.465 56.7658L65.758 58.0521H66.4931L67.5182 57.027V56.3185L66.2097 55.0322C65.9462 54.7709 65.9041 54.3591 66.1123 54.0513C66.7942 53.035 67.268 51.8948 67.5071 50.6948C67.5691 50.3206 67.8923 50.0417 68.2732 50.0395H70.0976L70.5957 49.5457V48.0933L70.0976 47.5996L68.2732 47.6018C67.9034 47.6018 67.5868 47.3405 67.5182 46.9774C67.3964 46.3774 67.2171 45.7884 66.9868 45.2216C66.7566 44.6681 66.4754 44.1389 66.1477 43.6386C65.9041 43.333 65.9307 42.8924 66.2097 42.6179L67.496 41.3249V40.6186L66.4931 39.5913H65.8355L64.4185 42.0444V42.0467C64.0045 42.7618 63.6768 43.5212 63.4443 44.3139C65.2554 46.3508 65.7004 49.2601 64.5845 51.7463C63.4686 54.2327 60.9977 55.8334 58.2721 55.8334C55.5464 55.8334 53.0734 54.2327 51.9574 51.7463C50.8414 49.2599 51.2887 46.3506 53.0998 44.3139L53.1002 44.2629ZM64.4804 32.2473C63.8738 29.2827 61.27 27.1528 58.2456 27.1462C57.8205 27.1462 57.4751 27.4916 57.4751 27.9167C57.4751 28.3418 57.8205 28.6872 58.2456 28.6872C60.5261 28.7049 62.4878 30.3101 62.9572 32.5419C62.997 32.7411 63.1166 32.9182 63.2871 33.029C63.4598 33.1419 63.6679 33.1795 63.8693 33.1374C64.2723 33.0334 64.5224 32.6304 64.4361 32.223L64.4804 32.2473ZM59.946 50.2942H56.5452C56.6028 50.5378 56.822 51.0824 56.9814 51.1046H59.4811C59.6516 51.1046 59.8841 50.5378 59.9394 50.2942H59.946ZM62.3328 47.5621V48.5938C62.3328 49.1739 62.0383 49.7141 61.5512 50.0263C61.4383 51.244 60.763 52.6389 59.4877 52.6455H57.0279C55.746 52.6455 55.0774 51.2064 54.9711 50.0219C54.4796 49.7097 54.1829 49.1695 54.1829 48.5872V47.5776C53.7423 47.447 53.4301 47.0573 53.3991 46.599C52.6154 48.2639 52.7371 50.2167 53.7246 51.771C54.7099 53.3275 56.4235 54.2684 58.2656 54.2684C60.1077 54.2684 61.8214 53.3274 62.8088 51.771C63.7941 50.2167 63.9159 48.2639 63.1321 46.599L63.0989 46.8602V46.858C62.9815 47.2034 62.7048 47.4713 62.355 47.5776L62.3328 47.5621ZM57.4818 46.0543V41.1568C56.2065 40.8048 55.3253 39.6446 55.3275 38.3228C55.3076 38.1058 55.3806 37.8911 55.529 37.7316C55.6751 37.5722 55.8832 37.4792 56.1002 37.4792C56.3172 37.4792 56.5253 37.5722 56.6736 37.7316C56.8197 37.891 56.8928 38.1058 56.8751 38.3228C56.8507 38.7036 56.9836 39.0778 57.2448 39.3568C57.5083 39.6357 57.8714 39.7951 58.2544 39.7951C58.6375 39.7951 59.0028 39.6357 59.264 39.3568C59.5253 39.0778 59.6581 38.7036 59.6337 38.3228C59.616 38.1058 59.6891 37.8911 59.8352 37.7316C59.9836 37.5722 60.1917 37.4792 60.4087 37.4792C60.6256 37.4792 60.8338 37.5722 60.9799 37.7316C61.1282 37.891 61.2013 38.1058 61.1814 38.3228C61.1836 39.6446 60.3024 40.8048 59.0271 41.1568V46.0764H61.5777C61.6773 44.3694 62.1976 42.7155 63.0921 41.2586L65.1888 37.6143C66.422 35.449 66.5881 32.8364 65.6382 30.5339C64.6884 28.2312 62.7268 26.4954 60.3267 25.8312C58.2875 25.2821 56.1156 25.5677 54.2892 26.6238C50.4611 28.86 49.1459 33.7621 51.3423 37.6146L53.4567 41.2589C54.3578 42.7113 54.8737 44.3697 54.9578 46.0767L57.4818 46.0543ZM58.2589 47.6019H55.7238V48.5938C55.726 48.6802 55.7969 48.7488 55.8832 48.751H60.6545C60.7409 48.7488 60.8073 48.6779 60.8073 48.5938V47.6241L58.2589 47.6019ZM29.5534 55.5989H43.1056C43.3225 55.6166 43.5373 55.5435 43.6989 55.3974C43.8583 55.249 43.9491 55.0431 43.9491 54.824C43.9491 54.607 43.8583 54.3989 43.6989 54.2527C43.5373 54.1066 43.3225 54.0335 43.1056 54.0513H29.5534C29.1527 54.0867 28.8449 54.421 28.8449 54.824C28.8449 55.2291 29.1527 55.5634 29.5534 55.5989ZM29.5534 60.4454H45.7871C46.0041 60.4632 46.2188 60.3901 46.3782 60.244C46.5399 60.0956 46.6306 59.8875 46.6306 59.6705C46.6306 59.4536 46.5399 59.2454 46.3782 59.0993C46.2188 58.951 46.0041 58.8779 45.7871 58.8978H29.5534C29.1527 58.931 28.8449 59.2676 28.8449 59.6706C28.8449 60.0735 29.1527 60.41 29.5534 60.4454ZM29.5534 50.7481H40.4201C40.8452 50.7481 41.1906 50.4027 41.1906 49.9754C41.1906 49.5503 40.8452 49.2049 40.4201 49.2049H29.5534C29.1283 49.2049 28.7829 49.5503 28.7829 49.9754C28.7829 50.4027 29.1283 50.7481 29.5534 50.7481Z" fill="black"/>
<defs>
<linearGradient id="paint0_linear_7581_60482" x1="11.809" y1="1.81213e-05" x2="100.05" y2="16.5617" gradientUnits="userSpaceOnUse">
<stop stop-color="#2EC4F3"/>
<stop offset="1" stop-color="#BFD633"/>
</linearGradient>
</defs>
</svg>
