<svg width="100" height="100" viewBox="0 0 100 100" fill="none" xmlns="http://www.w3.org/2000/svg">
<rect width="100" height="100" fill="white"/>
<path fill-rule="evenodd" clip-rule="evenodd" d="M58 44C61.3137 44 64 46.6863 64 50V66C64 69.3137 61.3137 72 58 72H42C38.6863 72 36 69.3137 36 66V50C36 46.6863 38.6863 44 42 44H58ZM45 57C43.8954 57 43 56.1046 43 55V53C43 51.8954 43.8954 51 45 51C46.1046 51 47 51.8954 47 53V55C47 56.1046 46.1046 57 45 57ZM53 55C53 56.1046 53.8954 57 55 57C56.1046 57 57 56.1046 57 55V53C57 51.8954 56.1046 51 55 51C53.8954 51 53 51.8954 53 53V55ZM45 60C43.8954 60 43 60.8954 43 62C43 63.1046 45 64 45 64C45 64 48.0096 64.7549 49.9748 64.7579C51.9594 64.7608 55 64 55 64C55 64 57 63.1046 57 62C57 60.8954 56.1046 60 55 60C55 60 51.997 61.2545 49.9748 61.2497C47.9717 61.2449 45 60 45 60Z" fill="black"/>
<path fill-rule="evenodd" clip-rule="evenodd" d="M34 20C26.268 20 20 26.268 20 34V66C20 73.732 26.268 80 34 80H66C73.732 80 80 73.732 80 66V34C80 26.268 73.732 20 66 20H34ZM24 39H76V66C76 71.5228 71.5228 76 66 76H34C28.4772 76 24 71.5228 24 66V39ZM33 28C31.8954 28 31 28.8954 31 30C31 31.1046 31.8954 32 33 32H35C36.1046 32 37 31.1046 37 30C37 28.8954 36.1046 28 35 28H33Z" fill="black"/>
</svg>
