<svg width="100" height="100" viewBox="0 0 100 100" fill="none" xmlns="http://www.w3.org/2000/svg">
<rect opacity="0.2" width="100" height="100" rx="20" fill="url(#paint0_linear_7581_60522)"/>
<path fill-rule="evenodd" clip-rule="evenodd" d="M43.522 47.7554C43.3699 47.7919 43.2096 47.7665 43.0763 47.6848C42.9429 47.6031 42.8475 47.4718 42.8111 47.3197C42.7746 47.1676 42.8 47.0073 42.8817 46.874C42.9634 46.7407 43.0947 46.6453 43.2468 46.6088L47.5811 45.5825C47.6753 45.5597 47.7736 45.5597 47.8678 45.5825L51.9441 46.5686L54.9081 44.585C54.8328 44.5725 54.7607 44.5454 54.6959 44.5051C54.6311 44.4648 54.5749 44.4122 54.5304 44.3501C54.486 44.2881 54.4542 44.2179 54.4369 44.1436C54.4195 44.0693 54.417 43.9923 54.4294 43.917C54.4418 43.8417 54.469 43.7696 54.5093 43.7048C54.5495 43.64 54.6022 43.5838 54.6642 43.5393C54.7263 43.4949 54.7964 43.4631 54.8707 43.4457C54.945 43.4284 55.022 43.4259 55.0973 43.4383L56.4848 43.7192C56.6215 43.74 56.7461 43.8094 56.8356 43.9148C56.9252 44.0201 56.9737 44.1543 56.9721 44.2926V45.7431C56.9759 45.874 56.9348 46.0024 56.8555 46.1067C56.7762 46.211 56.6636 46.285 56.5364 46.3164C57.1728 46.3164 57.683 46.2304 58.1417 46.6948C58.3852 46.9359 58.5234 47.2637 58.5258 47.6064V53.3396C58.5243 53.6828 58.3873 54.0114 58.1446 54.2541C57.902 54.4968 57.5733 54.6338 57.2301 54.6353H56.0834C55.7413 54.6323 55.414 54.4946 55.1726 54.2521C54.9312 54.0096 54.795 53.6818 54.7935 53.3396V47.6064C54.7965 47.2652 54.9333 46.9388 55.1746 46.6975C55.4159 46.4562 55.7423 46.3194 56.0834 46.3164H56.2325C56.1064 46.2839 55.9951 46.2094 55.9169 46.1052C55.8387 46.001 55.7984 45.8733 55.8025 45.7431V45.3819L52.3626 47.6752C52.2953 47.7207 52.2191 47.7514 52.139 47.7652C52.059 47.779 51.9769 47.7757 51.8982 47.7554L47.7302 46.7292L43.5334 47.744L43.522 47.7554ZM50.0234 37.4643C47.7374 37.4643 45.5028 38.1422 43.6021 39.4122C41.7013 40.6822 40.2199 42.4874 39.3451 44.5993C38.4703 46.7113 38.2414 49.0353 38.6874 51.2773C39.1333 53.5194 40.2341 55.5789 41.8506 57.1953C43.467 58.8118 45.5265 59.9126 47.7686 60.3585C50.0106 60.8045 52.3346 60.5756 54.4466 59.7008C56.5585 58.826 58.3637 57.3446 59.6337 55.4438C60.9037 53.5431 61.5816 51.3085 61.5816 49.0225C61.5801 45.9575 60.3619 43.0185 58.1946 40.8513C56.0274 38.684 53.0884 37.4658 50.0234 37.4643ZM57.3677 41.6782C55.915 40.2249 54.0639 39.235 52.0486 38.8338C50.0333 38.4326 47.9443 38.6381 46.0458 39.4242C44.1472 40.2104 42.5245 41.5419 41.3828 43.2504C40.2411 44.9589 39.6317 46.9676 39.6317 49.0225C39.6317 51.0773 40.2411 53.086 41.3828 54.7945C42.5245 56.503 44.1472 57.8345 46.0458 58.6207C47.9443 59.4069 50.0333 59.6123 52.0486 59.2111C54.0639 58.8099 55.915 57.82 57.3677 56.3667C58.3326 55.4025 59.098 54.2576 59.6202 52.9974C60.1424 51.7373 60.4112 50.3865 60.4112 49.0225C60.4112 47.6584 60.1424 46.3077 59.6202 45.0475C59.098 43.7873 58.3326 42.6424 57.3677 41.6782ZM42.5703 36.868L40.6439 34.9474C40.5904 34.8919 40.5263 34.8478 40.4554 34.8176C40.3844 34.7875 40.3082 34.772 40.2311 34.772C40.154 34.772 40.0778 34.7875 40.0068 34.8176C39.9359 34.8478 39.8718 34.8919 39.8183 34.9474L35.9369 38.8288C35.8814 38.8823 35.8373 38.9464 35.8072 39.0173C35.777 39.0883 35.7615 39.1645 35.7615 39.2416C35.7615 39.3187 35.777 39.3949 35.8072 39.4659C35.8373 39.5368 35.8814 39.6009 35.9369 39.6544L37.869 41.5693C37.082 42.84 36.5015 44.2275 36.1491 45.68H33.4487C33.2967 45.68 33.1508 45.7404 33.0433 45.8479C32.9358 45.9554 32.8754 46.1013 32.8754 46.2533V51.7457C32.8754 51.8978 32.9358 52.0436 33.0433 52.1511C33.1508 52.2587 33.2967 52.3191 33.4487 52.3191H36.1663C36.5187 53.7716 37.0992 55.1591 37.8862 56.4298L35.9656 58.3561C35.9101 58.4096 35.866 58.4737 35.8358 58.5447C35.8057 58.6156 35.7901 58.6919 35.7901 58.7689C35.7901 58.846 35.8057 58.9223 35.8358 58.9932C35.866 59.0641 35.9101 59.1282 35.9656 59.1817L39.847 63.0631C39.9005 63.1186 39.9646 63.1627 40.0355 63.1929C40.1064 63.223 40.1827 63.2386 40.2598 63.2386C40.3368 63.2386 40.4131 63.223 40.484 63.1929C40.555 63.1627 40.6191 63.1186 40.6726 63.0631L42.5703 61.1769C43.841 61.9639 45.2284 62.5444 46.681 62.8968V65.6144C46.681 65.7664 46.7414 65.9123 46.8489 66.0198C46.9564 66.1273 47.1022 66.1877 47.2543 66.1877H52.7467C52.8988 66.1877 53.0446 66.1273 53.1521 66.0198C53.2596 65.9123 53.32 65.7664 53.32 65.6144V62.8796C54.7726 62.5272 56.16 61.9467 57.4308 61.1597L59.3571 63.0803C59.4106 63.1358 59.4747 63.1799 59.5456 63.2101C59.6166 63.2402 59.6928 63.2558 59.7699 63.2558C59.847 63.2558 59.9232 63.2402 59.9942 63.2101C60.0651 63.1799 60.1292 63.1358 60.1827 63.0803L64.0641 59.1989C64.1196 59.1454 64.1637 59.0813 64.1939 59.0104C64.224 58.9395 64.2395 58.8632 64.2395 58.7861C64.2395 58.7091 64.224 58.6328 64.1939 58.5619C64.1637 58.4909 64.1196 58.4268 64.0641 58.3733L62.1779 56.4756C62.9649 55.2049 63.5454 53.8175 63.8978 52.3649H66.6211C66.7732 52.3649 66.919 52.3045 67.0265 52.197C67.134 52.0895 67.1944 51.9437 67.1944 51.7916V46.2763C67.1944 46.1242 67.134 45.9784 67.0265 45.8709C66.919 45.7633 66.7732 45.7029 66.6211 45.7029H63.8806C63.5271 44.2507 62.9466 42.8634 62.1607 41.5922L64.0813 39.6659C64.1368 39.6124 64.1809 39.5483 64.2111 39.4773C64.2412 39.4064 64.2567 39.3301 64.2567 39.2531C64.2567 39.176 64.2412 39.0997 64.2111 39.0288C64.1809 38.9579 64.1368 38.8938 64.0813 38.8403L60.1999 34.9589C60.1464 34.9034 60.0823 34.8593 60.0114 34.8291C59.9404 34.799 59.8642 34.7834 59.7871 34.7834C59.71 34.7834 59.6338 34.799 59.5628 34.8291C59.4919 34.8593 59.4278 34.9034 59.3743 34.9589L57.4766 36.868C56.2059 36.081 54.8184 35.5005 53.3659 35.1481V32.4477C53.3659 32.2957 53.3055 32.1499 53.198 32.0423C53.0905 31.9348 52.9446 31.8744 52.7926 31.8744H47.2772C47.1252 31.8744 46.9793 31.9348 46.8718 32.0423C46.7643 32.1499 46.7039 32.2957 46.7039 32.4477V35.1653C45.2514 35.5177 43.8639 36.0982 42.5932 36.8852L42.5703 36.868ZM47.3346 36.2145C46.5378 36.3793 45.7584 36.6193 45.0069 36.9311C44.2501 37.2444 43.5245 37.6283 42.8397 38.0778C42.7285 38.1644 42.5893 38.2071 42.4486 38.1975C42.3079 38.188 42.1757 38.127 42.0772 38.0262L40.2311 36.1858L37.1753 39.2416L39.0157 41.0877C39.1165 41.1862 39.1775 41.3184 39.187 41.4591C39.1966 41.5998 39.1539 41.739 39.0673 41.8502C38.62 42.5362 38.2362 43.2616 37.9206 44.0174C37.6088 44.7689 37.3688 45.5483 37.204 46.3451C37.1897 46.487 37.1231 46.6185 37.017 46.7139C36.911 46.8093 36.7733 46.8618 36.6306 46.861H34.0278V51.1839H36.6364C36.779 51.1832 36.9168 51.2356 37.0228 51.3311C37.1288 51.4265 37.1954 51.558 37.2097 51.6999C37.3745 52.4967 37.6145 53.276 37.9264 54.0276C38.2396 54.7844 38.6235 55.51 39.073 56.1947C39.1597 56.3059 39.2023 56.4452 39.1928 56.5858C39.1833 56.7265 39.1222 56.8587 39.0214 56.9572L37.181 58.8033L40.2368 61.8591L42.0829 60.0188C42.1815 59.9179 42.3137 59.8569 42.4543 59.8474C42.595 59.8379 42.7342 59.8805 42.8455 59.9672C43.5302 60.4166 44.2558 60.8006 45.0126 61.1138C45.7641 61.4257 46.5435 61.6656 47.3403 61.8305C47.4822 61.8447 47.6137 61.9114 47.7091 62.0174C47.8045 62.1234 47.857 62.2612 47.8563 62.4038V65.0181H52.1791V62.4095C52.1784 62.2669 52.2309 62.1291 52.3263 62.0231C52.4217 61.9171 52.5532 61.8505 52.6951 61.8362C53.4919 61.6714 54.2713 61.4314 55.0228 61.1195C55.7796 60.8063 56.5052 60.4224 57.19 59.9729C57.3012 59.8862 57.4404 59.8436 57.5811 59.8531C57.7217 59.8626 57.854 59.9237 57.9525 60.0245L59.7986 61.8649L62.8544 58.8091L61.014 56.963C60.9132 56.8644 60.8521 56.7322 60.8426 56.5916C60.8331 56.4509 60.8758 56.3117 60.9624 56.2005C61.4119 55.5157 61.7958 54.7901 62.1091 54.0333C62.4209 53.2818 62.6609 52.5024 62.8257 51.7056C62.84 51.5637 62.9066 51.4322 63.0126 51.3368C63.1186 51.2414 63.2564 51.1889 63.399 51.1896H66.0191V46.8553H63.4334C63.2985 46.8578 63.167 46.8125 63.0621 46.7276C62.9573 46.6426 62.8857 46.5234 62.8601 46.3909C62.5278 44.7725 61.8916 43.2317 60.9854 41.8502C60.8987 41.739 60.856 41.5998 60.8656 41.4591C60.8751 41.3184 60.9361 41.1862 61.0369 41.0877L62.8773 39.2416L59.8215 36.1858L57.9754 38.0262C57.8769 38.127 57.7447 38.188 57.604 38.1975C57.4633 38.2071 57.3241 38.1644 57.2129 38.0778C56.5281 37.6283 55.8026 37.2444 55.0457 36.9311C54.2942 36.6193 53.5148 36.3793 52.7181 36.2145C52.5761 36.2002 52.4446 36.1336 52.3492 36.0275C52.2538 35.9215 52.2013 35.7838 52.2021 35.6411V33.0268H47.862V35.6354C47.8627 35.778 47.8103 35.9158 47.7148 36.0218C47.6194 36.1278 47.4879 36.1945 47.346 36.2087L47.3346 36.2145ZM27.7786 56.4126C27.852 56.3918 27.9288 56.3859 28.0045 56.3952C28.0802 56.4045 28.1534 56.4288 28.2196 56.4667C28.2858 56.5046 28.3438 56.5554 28.3901 56.616C28.4364 56.6766 28.4702 56.7458 28.4895 56.8196C29.9293 60.7817 32.4334 64.2703 35.7266 66.902C39.0198 69.5338 42.9747 71.2069 47.1568 71.7375C47.0804 71.2444 47.1176 70.7405 47.2658 70.264C43.4061 69.7617 39.756 68.2183 36.7068 65.7994C33.6576 63.3804 31.3244 60.1771 29.9572 56.533C29.9197 56.4557 29.9 56.3709 29.8996 56.285C29.8993 56.1991 29.9182 56.1141 29.9551 56.0365C29.992 55.9589 30.0458 55.8906 30.1127 55.8366C30.1795 55.7826 30.2577 55.7443 30.3413 55.7246L30.9605 55.5583L28.0939 53.0816L26.8956 56.6476L27.7786 56.4126ZM27.5722 57.6739C29.1734 61.8223 31.8921 65.4463 35.4269 68.1441C38.9616 70.842 43.1744 72.5084 47.5983 72.9586C47.7305 73.1805 47.8904 73.3848 48.0741 73.5664C48.4896 73.9779 49.0069 74.2717 49.5732 74.4178C50.1394 74.5639 50.7343 74.5569 51.297 74.3978C51.8597 74.2386 52.3701 73.9328 52.7759 73.5117C53.1817 73.0907 53.4684 72.5694 53.6067 72.0012L58.3079 73.6122C58.4083 73.6503 58.5174 73.6594 58.6227 73.6385C58.728 73.6176 58.8253 73.5676 58.9036 73.4941C58.9819 73.4206 59.0379 73.3266 59.0654 73.2228C59.0929 73.119 59.0907 73.0096 59.059 72.907L58.6749 71.4737C62.8232 69.8725 66.4472 67.1538 69.1451 63.619C71.843 60.0843 73.5094 55.8715 73.9596 51.4476C74.1815 51.3154 74.3857 51.1555 74.5673 50.9718C74.9789 50.5563 75.2727 50.039 75.4188 49.4727C75.5648 48.9065 75.5579 48.3116 75.3987 47.7489C75.2395 47.1862 74.9338 46.6758 74.5127 46.27C74.0916 45.8642 73.5704 45.5775 73.0022 45.4392L74.6132 40.738C74.6513 40.6376 74.6604 40.5285 74.6395 40.4232C74.6186 40.3179 74.5686 40.2206 74.4951 40.1423C74.4216 40.064 74.3276 40.008 74.2238 39.9805C74.12 39.953 74.0106 39.9552 73.908 39.9869L72.4747 40.371C70.8735 36.2226 68.1548 32.5987 64.62 29.9008C61.0852 27.2029 56.8724 25.5365 52.4486 25.0863C52.3163 24.8644 52.1564 24.6602 51.9727 24.4786C51.5573 24.067 51.0399 23.7732 50.4737 23.6271C49.9074 23.4811 49.3126 23.488 48.7499 23.6472C48.1872 23.8064 47.6768 24.1121 47.271 24.5332C46.8652 24.9543 46.5785 25.4755 46.4402 26.0437L41.7389 24.4327C41.6385 24.3946 41.5295 24.3855 41.4242 24.4064C41.3189 24.4273 41.2215 24.4773 41.1433 24.5508C41.065 24.6243 41.0089 24.7183 40.9815 24.8221C40.954 24.9259 40.9562 25.0353 40.9879 25.1379L41.372 26.5712C37.2236 28.1724 33.5996 30.8911 30.9018 34.4259C28.2039 37.9607 26.5375 42.1735 26.0873 46.5973C25.8654 46.7296 25.6611 46.8895 25.4795 47.0732C25.068 47.4886 24.7742 48.006 24.6281 48.5722C24.482 49.1385 24.489 49.7333 24.6481 50.296C24.8073 50.8587 25.1131 51.3691 25.5342 51.7749C25.9552 52.1807 26.4765 52.4674 27.0447 52.6057L25.4337 57.307C25.3956 57.4073 25.3865 57.5164 25.4074 57.6217C25.4283 57.727 25.4783 57.8244 25.5518 57.9026C25.6253 57.9809 25.7193 58.037 25.8231 58.0644C25.9269 58.0919 26.0363 58.0897 26.1389 58.058L27.5722 57.6739ZM29.2921 50.903C28.8891 51.2925 28.3505 51.5102 27.79 51.5102C27.2295 51.5102 26.6909 51.2925 26.2879 50.903C25.9899 50.6057 25.7868 50.2267 25.7043 49.814C25.6218 49.4012 25.6636 48.9733 25.8244 48.5843C25.9852 48.1953 26.2578 47.8628 26.6077 47.6288C26.9577 47.3949 27.3691 47.27 27.79 47.27C28.2109 47.27 28.6224 47.3949 28.9723 47.6288C29.3222 47.8628 29.5948 48.1953 29.7557 48.5843C29.9165 48.9733 29.9583 49.4012 29.8758 49.814C29.7933 50.2267 29.5901 50.6057 29.2921 50.903ZM29.1087 52.4223L32.5486 55.4035C32.6302 55.4717 32.6912 55.5613 32.7248 55.6622C32.7584 55.7631 32.7633 55.8713 32.7389 55.9748C32.7145 56.0784 32.6618 56.173 32.5867 56.2483C32.5116 56.3236 32.417 56.3765 32.3135 56.4011L31.2644 56.6878C32.648 60.0657 34.9176 63.0076 37.8338 65.2033C40.7499 67.399 44.2046 68.7671 47.8334 69.1632C48.1901 68.7244 48.6535 68.3846 49.1793 68.1763C49.705 67.968 50.2755 67.8981 50.8359 67.9735C51.3964 68.0489 51.9281 68.267 52.3802 68.6068C52.8322 68.9466 53.1894 69.3968 53.4175 69.9143L56.3988 66.4744C56.467 66.3928 56.5565 66.3318 56.6574 66.2982C56.7583 66.2646 56.8666 66.2597 56.9701 66.2841C57.0736 66.3085 57.1683 66.3612 57.2436 66.4363C57.3188 66.5114 57.3717 66.606 57.3964 66.7094L57.683 67.7586C61.0609 66.3749 64.0029 64.1053 66.1986 61.1892C68.3943 58.273 69.7623 54.8184 70.1585 51.1896C69.7197 50.8329 69.3798 50.3694 69.1715 49.8437C68.9632 49.3179 68.8934 48.7475 68.9688 48.187C69.0442 47.6265 69.2622 47.0948 69.602 46.6428C69.9419 46.1908 70.3921 45.8336 70.9095 45.6055L67.4696 42.6242C67.388 42.556 67.327 42.4664 67.2934 42.3655C67.2598 42.2646 67.2549 42.1564 67.2793 42.0529C67.3037 41.9494 67.3564 41.8547 67.4315 41.7794C67.5067 41.7041 67.6012 41.6512 67.7047 41.6266L68.7539 41.34C67.3702 37.962 65.1006 35.0201 62.1844 32.8244C59.2683 30.6287 55.8136 29.2606 52.1849 28.8645C51.8281 29.3033 51.3647 29.6431 50.8389 29.8514C50.3132 30.0598 49.7427 30.1296 49.1823 30.0542C48.6218 29.9788 48.0901 29.7608 47.638 29.4209C47.186 29.0811 46.8288 28.6309 46.6007 28.1134L43.6194 31.5534C43.5512 31.6349 43.4617 31.6959 43.3608 31.7295C43.2599 31.7631 43.1516 31.768 43.0481 31.7436C42.9446 31.7192 42.8499 31.6665 42.7746 31.5914C42.6994 31.5163 42.6465 31.4217 42.6219 31.3183L42.3352 30.2691C38.9573 31.6528 36.0153 33.9224 33.8196 36.8385C31.6239 39.7547 30.2559 43.2093 29.8597 46.8381C30.2985 47.1948 30.6384 47.6583 30.8467 48.184C31.055 48.7098 31.1248 49.2802 31.0494 49.8407C30.9741 50.4012 30.756 50.9329 30.4162 51.3849C30.0764 51.837 29.6261 52.1941 29.1087 52.4223ZM57.4136 71.2673C57.3928 71.1939 57.3869 71.1171 57.3962 71.0414C57.4054 70.9657 57.4298 70.8925 57.4677 70.8263C57.5056 70.7601 57.5563 70.7021 57.6169 70.6558C57.6775 70.6095 57.7468 70.5757 57.8206 70.5564C61.7827 69.1166 65.2713 66.6125 67.903 63.3193C70.5348 60.0261 72.2078 56.0712 72.7384 51.8891C72.2454 51.9655 71.7414 51.9283 71.265 51.7801C70.7627 55.6398 69.2193 59.2899 66.8004 62.3391C64.3814 65.3883 61.1781 67.7215 57.534 69.0887C57.4566 69.1262 57.3719 69.1459 57.286 69.1463C57.2 69.1466 57.1151 69.1277 57.0375 69.0908C56.9599 69.0539 56.8916 69.0001 56.8376 68.9332C56.7836 68.8664 56.7453 68.7882 56.7256 68.7046L56.5593 68.0854L54.0826 70.952L57.6486 72.1732L57.4136 71.2903V71.2673ZM51.9039 69.7308C52.2935 70.1339 52.5112 70.6724 52.5112 71.2329C52.5112 71.7934 52.2935 72.332 51.9039 72.735C51.6067 73.0331 51.2277 73.2362 50.8149 73.3187C50.4022 73.4012 49.9742 73.3594 49.5853 73.1986C49.1963 73.0378 48.8638 72.7651 48.6298 72.4152C48.3958 72.0653 48.271 71.6539 48.271 71.2329C48.271 70.812 48.3958 70.4006 48.6298 70.0507C48.8638 69.7008 49.1963 69.4281 49.5853 69.2673C49.9742 69.1065 50.4022 69.0647 50.8149 69.1472C51.2277 69.2297 51.6067 69.4328 51.9039 69.7308ZM72.2683 41.6381C72.1949 41.6589 72.1181 41.6648 72.0424 41.6555C71.9666 41.6462 71.8935 41.6219 71.8273 41.584C71.7611 41.5461 71.7031 41.4953 71.6568 41.4347C71.6104 41.3741 71.5766 41.3048 71.5574 41.231C70.1184 37.2678 67.6147 33.7781 64.3214 31.1453C61.0282 28.5125 57.0728 26.8385 52.89 26.3075C52.9747 26.8089 52.9413 27.3232 52.7926 27.8096C56.6469 28.3113 60.2924 29.8513 63.3391 32.2649C66.3858 34.6784 68.7192 37.8747 70.0897 41.5119C70.1272 41.5893 70.1469 41.674 70.1473 41.7599C70.1476 41.8459 70.1287 41.9308 70.0918 42.0084C70.0549 42.086 70.001 42.1543 69.9342 42.2083C69.8673 42.2623 69.7892 42.3006 69.7056 42.3203L69.0864 42.4866L71.953 44.9633L73.1742 41.3973L72.2912 41.6323L72.2683 41.6381ZM70.7318 47.1477C71.1348 46.7582 71.6734 46.5404 72.2339 46.5404C72.7944 46.5404 73.333 46.7582 73.736 47.1477C74.034 47.445 74.2372 47.8239 74.3197 48.2367C74.4022 48.6494 74.3604 49.0774 74.1996 49.4664C74.0387 49.8554 73.7661 50.1879 73.4162 50.4218C73.0663 50.6558 72.6548 50.7807 72.2339 50.7807C71.813 50.7807 71.4016 50.6558 71.0516 50.4218C70.7017 50.1879 70.4291 49.8554 70.2683 49.4664C70.1075 49.0774 70.0657 48.6494 70.1482 48.2367C70.2307 47.8239 70.4338 47.445 70.7318 47.1477ZM42.6391 26.7833C42.6598 26.8567 42.6657 26.9335 42.6565 27.0093C42.6472 27.085 42.6228 27.1581 42.5849 27.2243C42.547 27.2905 42.4963 27.3485 42.4357 27.3949C42.3751 27.4412 42.3058 27.475 42.232 27.4942C38.2696 28.9328 34.7804 31.4356 32.1476 34.7278C29.5149 38.02 27.8405 41.9741 27.3084 46.1559C27.8015 46.0794 28.3054 46.1167 28.7819 46.2648C29.2842 42.4052 30.8276 38.7551 33.2465 35.7059C35.6655 32.6567 38.8688 30.3234 42.5129 28.9562C42.5902 28.9187 42.675 28.899 42.7609 28.8986C42.8468 28.8983 42.9318 28.9173 43.0094 28.9541C43.087 28.991 43.1553 29.0449 43.2093 29.1117C43.2633 29.1786 43.3016 29.2567 43.3213 29.3403L43.4876 29.9595L45.9643 27.0929L42.3983 25.8947L42.6333 26.7776L42.6391 26.7833ZM48.1487 28.3198C47.7592 27.9168 47.5414 27.3782 47.5414 26.8177C47.5414 26.2572 47.7592 25.7186 48.1487 25.3156C48.4459 25.0176 48.8249 24.8145 49.2377 24.732C49.6504 24.6494 50.0784 24.6913 50.4674 24.8521C50.8563 25.0129 51.1889 25.2855 51.4228 25.6354C51.6568 25.9853 51.7817 26.3968 51.7817 26.8177C51.7817 27.2386 51.6568 27.6501 51.4228 28C51.1889 28.3499 50.8563 28.6225 50.4674 28.7833C50.0784 28.9442 49.6504 28.986 49.2377 28.9035C48.8249 28.821 48.4459 28.6178 48.1487 28.3198ZM57.2301 47.4688H56.0834C56.0671 47.4687 56.051 47.472 56.036 47.4784C56.021 47.4848 56.0075 47.4942 55.9962 47.506C55.985 47.5178 55.9762 47.5318 55.9705 47.5471C55.9648 47.5623 55.9623 47.5786 55.9631 47.5949V53.3281C55.9623 53.3444 55.9648 53.3607 55.9705 53.3759C55.9762 53.3912 55.985 53.4052 55.9962 53.417C56.0075 53.4288 56.021 53.4382 56.036 53.4446C56.051 53.451 56.0671 53.4543 56.0834 53.4542H57.2301C57.2635 53.4542 57.2956 53.4409 57.3193 53.4173C57.3429 53.3936 57.3562 53.3616 57.3562 53.3281V47.5949C57.3562 47.5614 57.3429 47.5294 57.3193 47.5057C57.2956 47.482 57.2635 47.4688 57.2301 47.4688ZM51.6689 49.2633C51.3257 49.2648 50.997 49.4018 50.7543 49.6444C50.5117 49.8871 50.3747 50.2158 50.3732 50.559V53.3338C50.3747 53.677 50.5117 54.0057 50.7543 54.2484C50.997 54.491 51.3257 54.628 51.6689 54.6295H52.8155C53.1587 54.628 53.4874 54.491 53.7301 54.2484C53.9727 54.0057 54.1097 53.677 54.1112 53.3338V50.559C54.1097 50.2158 53.9727 49.8871 53.7301 49.6444C53.4874 49.4018 53.1587 49.2648 52.8155 49.2633H51.6689ZM52.8155 50.4099H51.6689C51.6354 50.4099 51.6033 50.4232 51.5797 50.4468C51.556 50.4705 51.5427 50.5026 51.5427 50.536V53.3109C51.5427 53.3444 51.556 53.3764 51.5797 53.4001C51.6033 53.4237 51.6354 53.437 51.6689 53.437H52.8155C52.849 53.437 52.881 53.4237 52.9047 53.4001C52.9284 53.3764 52.9416 53.3444 52.9416 53.3109V50.559C52.9416 50.5255 52.9284 50.4934 52.9047 50.4698C52.881 50.4461 52.849 50.4328 52.8155 50.4328V50.4099ZM47.2543 48.1739C46.9111 48.1755 46.5824 48.3125 46.3398 48.5551C46.0971 48.7978 45.9601 49.1265 45.9586 49.4697V53.3109C45.9601 53.6541 46.0971 53.9828 46.3398 54.2254C46.5824 54.4681 46.9111 54.6051 47.2543 54.6066H48.4009C48.7441 54.6051 49.0728 54.4681 49.3155 54.2254C49.5581 53.9828 49.6951 53.6541 49.6966 53.3109V49.4697C49.6951 49.1265 49.5581 48.7978 49.3155 48.5551C49.0728 48.3125 48.7441 48.1755 48.4009 48.1739H47.2543ZM48.4009 49.3206H47.2543C47.2208 49.3206 47.1888 49.3339 47.1651 49.3575C47.1415 49.3812 47.1282 49.4133 47.1282 49.4467V53.288C47.1282 53.3214 47.1415 53.3535 47.1651 53.3772C47.1888 53.4008 47.2208 53.4141 47.2543 53.4141H48.4009C48.4344 53.4141 48.4665 53.4008 48.4901 53.3772C48.5138 53.3535 48.5271 53.3214 48.5271 53.288V49.4467C48.5279 49.4299 48.5252 49.4132 48.5191 49.3975C48.5131 49.3818 48.5038 49.3676 48.4919 49.3557C48.4801 49.3438 48.4658 49.3346 48.4502 49.3285C48.4345 49.3225 48.4177 49.3198 48.4009 49.3206ZM42.8397 49.2174C42.4965 49.2189 42.1678 49.3559 41.9252 49.5986C41.6825 49.8412 41.5455 50.1699 41.544 50.5131V53.288C41.5455 53.6312 41.6825 53.9598 41.9252 54.2025C42.1678 54.4452 42.4965 54.5822 42.8397 54.5837H43.9864C44.3285 54.5807 44.6558 54.443 44.8972 54.2005C45.1386 53.958 45.2748 53.6302 45.2763 53.288V50.559C45.2748 50.2168 45.1386 49.8889 44.8972 49.6464C44.6558 49.4039 44.3285 49.2663 43.9864 49.2633L42.8397 49.2174ZM43.9864 50.364H42.8397C42.8063 50.364 42.7742 50.3773 42.7505 50.401C42.7269 50.4246 42.7136 50.4567 42.7136 50.4902V53.265C42.7136 53.2985 42.7269 53.3306 42.7505 53.3542C42.7742 53.3779 42.8063 53.3912 42.8397 53.3912H43.9864C44.0027 53.3912 44.0188 53.3879 44.0338 53.3815C44.0488 53.3751 44.0623 53.3657 44.0736 53.3539C44.0848 53.3421 44.0936 53.3282 44.0993 53.3129C44.105 53.2976 44.1075 53.2813 44.1068 53.265V50.559C44.1082 50.54 44.1052 50.5209 44.0978 50.5033C44.0905 50.4857 44.079 50.4701 44.0645 50.4578C44.0499 50.4455 44.0327 50.4368 44.0141 50.4324C43.9955 50.4281 43.9762 50.4282 43.9577 50.4328L43.9864 50.364Z" fill="black"/>
<defs>
<linearGradient id="paint0_linear_7581_60522" x1="11.809" y1="1.81213e-05" x2="100.05" y2="16.5617" gradientUnits="userSpaceOnUse">
<stop stop-color="#2EC4F3"/>
<stop offset="1" stop-color="#BFD633"/>
</linearGradient>
</defs>
</svg>
