<svg width="100" height="100" viewBox="0 0 100 100" fill="none" xmlns="http://www.w3.org/2000/svg">
<rect opacity="0.2" width="100" height="100" rx="20" fill="url(#paint0_linear_7581_60530)"/>
<path d="M33.7881 64.4979L38.9017 59.3843C39.1708 59.1151 39.1957 58.6886 38.9597 58.3884C36.9183 55.8026 35.8377 52.6888 35.8377 49.3869C35.8377 42.0104 41.355 35.8015 48.6716 34.9423C49.0484 34.8989 49.3341 34.578 49.3341 34.197V26.9652C49.3341 26.5284 48.9614 26.1826 48.5246 26.2178C45.3881 26.4662 42.3904 27.3296 39.6122 28.7871C39.2457 28.9796 39.1029 29.433 39.2954 29.7995C39.4879 30.1659 39.9414 30.3088 40.3078 30.1162C42.6659 28.8803 45.1938 28.1018 47.8333 27.7934V33.5449C40.0942 34.7767 34.3389 41.4742 34.3389 49.3871C34.3389 52.8052 35.3886 56.0413 37.3802 58.7861L33.3141 62.8522C30.2936 59.0284 28.6415 54.279 28.6415 49.3871C28.6415 42.3418 32.0803 35.7046 37.838 31.6279C38.1755 31.3877 38.2562 30.9198 38.0161 30.5823C37.7759 30.2449 37.308 30.1641 36.9705 30.4043C30.8363 34.7457 27.1406 41.7807 27.1406 49.3867C27.1406 54.9061 29.1095 60.2581 32.6871 64.4546C32.9707 64.7879 33.4796 64.8064 33.7881 64.4979Z" fill="black"/>
<path d="M73.2606 69.6363C72.0743 69.6363 71.0682 70.4293 70.7452 71.5121H63.8865V68.3093C69.9587 63.9658 73.6295 56.9826 73.6295 49.3867C73.6295 43.8673 71.6606 38.5154 68.083 34.3188C67.7973 33.9814 67.288 33.9689 66.9816 34.2753L61.868 39.389C61.5988 39.6581 61.574 40.0846 61.81 40.3848C66.9754 46.9314 65.52 56.3161 58.9944 61.1125C58.6611 61.3568 58.5886 61.8268 58.835 62.1601C59.0793 62.4935 59.5493 62.5659 59.8826 62.3196C66.9941 57.092 68.5528 47.0985 63.3918 39.9849L67.4579 35.9188C70.4764 39.7447 72.1285 44.4941 72.1285 49.386C72.1285 60.3793 63.7624 69.7105 52.9346 70.9793V65.2277C54.4045 64.9938 55.8288 64.5549 57.1766 63.9255C57.5513 63.7495 57.7128 63.3044 57.5389 62.9276C57.3629 62.5529 56.9157 62.3914 56.541 62.5653C55.1374 63.2216 53.6405 63.6481 52.0961 63.8282C51.7193 63.8717 51.4336 64.1926 51.4336 64.5735V71.8053C51.4336 72.2422 51.8063 72.5879 52.2431 72.5527C55.8661 72.265 59.3276 71.1408 62.3857 69.2941V72.2588C62.3857 72.6729 62.721 73.0083 63.1351 73.0083H70.7454C71.0684 74.0911 72.0745 74.884 73.2608 74.884C74.708 74.884 75.886 73.706 75.886 72.2589C75.886 70.8138 74.7079 69.6358 73.2608 69.6358L73.2606 69.6363ZM73.2606 73.3857C72.6395 73.3857 72.1365 72.8805 72.1365 72.2615C72.1365 71.6404 72.6416 71.1373 73.2606 71.1373C73.8817 71.1373 74.3848 71.6404 74.3848 72.2615C74.3848 72.8826 73.8817 73.3857 73.2606 73.3857Z" fill="black"/>
<path d="M60.8874 49.3866C60.8874 43.5958 56.1775 38.8862 50.3871 38.8862C44.5967 38.8862 39.8867 43.5962 39.8867 49.3866C39.8867 55.177 44.5967 59.8869 50.3871 59.8869C56.1775 59.8869 60.8874 55.177 60.8874 49.3866ZM50.3871 58.386C45.4245 58.386 41.3877 54.3489 41.3877 49.3866C41.3877 44.4243 45.4248 40.3872 50.3871 40.3872C55.3493 40.3872 59.3865 44.4243 59.3865 49.3866C59.3865 54.3489 55.3493 58.386 50.3871 58.386Z" fill="black"/>
<path d="M48.6744 63.8312C46.0141 63.5186 43.4945 62.4752 41.3848 60.8106C41.0867 60.5746 40.6581 60.5995 40.389 60.8686L35.2753 65.9823C34.9668 66.2907 34.9855 66.8 35.3188 67.0836C35.826 67.5163 36.3498 67.9242 36.886 68.3093V71.5121H30.0273C29.7043 70.4293 28.6982 69.6363 27.5119 69.6363C26.0647 69.6363 24.8867 70.8144 24.8867 72.2615C24.8867 73.7086 26.0647 74.8866 27.5119 74.8866C28.6982 74.8866 29.7043 74.0937 30.0273 73.0109H37.6375C38.0516 73.0109 38.387 72.6755 38.387 72.2614V69.2967C41.4532 71.1538 44.9002 72.2676 48.5275 72.5554C48.9643 72.5906 49.337 72.2448 49.337 71.808V64.5761C49.337 64.1952 49.0533 63.8747 48.6744 63.8312ZM27.5115 73.3855C26.8904 73.3855 26.3873 72.8824 26.3873 72.2613C26.3873 71.6402 26.8925 71.1372 27.5115 71.1372C28.1326 71.1372 28.6357 71.6423 28.6357 72.2613C28.6357 72.8824 28.1326 73.3855 27.5115 73.3855ZM47.8381 70.9798C43.8155 70.5119 40.0725 68.9488 36.9211 66.4561L40.9893 62.388C43.0223 63.8599 45.3659 64.831 47.838 65.2264L47.8381 70.9798Z" fill="black"/>
<path d="M52.0962 34.9421C54.7565 35.2547 57.2761 36.2982 59.3858 37.9627C59.686 38.1987 60.1125 38.1718 60.3816 37.9047L65.4952 32.7911C65.8037 32.4826 65.7851 31.9754 65.4518 31.6897C64.9445 31.257 64.4207 30.8492 63.8845 30.4641V27.2613H70.7433C71.0662 28.3441 72.0724 29.137 73.2587 29.137C74.7059 29.137 75.8838 27.959 75.8838 26.5119C75.8838 25.0647 74.7058 23.8867 73.2587 23.8867C72.0724 23.8867 71.0663 24.6797 70.7433 25.7624H63.133C62.7189 25.7624 62.3835 26.0978 62.3835 26.5119V29.4766C59.3174 27.6196 55.8704 26.5057 52.2431 26.218C51.8042 26.1828 51.4336 26.5306 51.4336 26.9654V34.1972C51.4336 34.5782 51.7173 34.8987 52.0962 34.9421ZM73.259 25.3878C73.8801 25.3878 74.3832 25.893 74.3832 26.512C74.3832 27.1331 73.8781 27.6362 73.259 27.6362C72.6379 27.6362 72.1349 27.131 72.1349 26.512C72.1349 25.8909 72.6379 25.3878 73.259 25.3878ZM52.9325 27.7935C56.9634 28.2635 60.7044 29.8286 63.8494 32.3172L59.7813 36.3854C57.7482 34.9134 55.4046 33.9424 52.9326 33.5469L52.9325 27.7935Z" fill="black"/>
<defs>
<linearGradient id="paint0_linear_7581_60530" x1="11.809" y1="1.81213e-05" x2="100.05" y2="16.5617" gradientUnits="userSpaceOnUse">
<stop stop-color="#2EC4F3"/>
<stop offset="1" stop-color="#BFD633"/>
</linearGradient>
</defs>
</svg>
