<svg width="115" height="115" viewBox="0 0 115 115" fill="none" xmlns="http://www.w3.org/2000/svg">
<mask id="mask0_7606_86682" style="mask-type:alpha" maskUnits="userSpaceOnUse" x="-1" y="-1" width="117" height="117">
<rect width="115" height="115" fill="white" stroke="white" stroke-width="2"/>
</mask>
<g mask="url(#mask0_7606_86682)">
<g clip-path="url(#clip0_7606_86682)">
<path d="M70.8383 30.8H2.84828V38.87C3.22828 38.87 3.57828 38.87 3.92828 38.87C23.8783 38.87 43.8283 38.87 63.7783 38.87C64.2083 38.87 64.6483 38.87 65.0583 38.95C65.7383 39.09 66.1483 39.66 66.1283 40.32C66.1083 40.98 65.6583 41.51 64.9683 41.62C64.5983 41.68 64.2083 41.67 63.8283 41.67C43.9083 41.67 23.9783 41.67 4.05828 41.67C3.65828 41.67 3.25828 41.67 2.81828 41.67V85.21H3.79828C16.2283 85.21 28.6583 85.21 41.0883 85.21C41.3883 85.21 41.6983 85.2 41.9983 85.24C42.7383 85.36 43.2483 85.96 43.2183 86.66C43.1883 87.33 42.6883 87.88 41.9783 87.98C41.7583 88.01 41.5283 88.01 41.2983 88.01C28.2383 88.01 15.1683 88.01 2.10828 88.01C0.368281 88.01 -0.0117188 87.64 -0.0117188 85.93C-0.00171875 67.29 -0.00171875 48.65 -0.00171875 30.02C-0.00171875 28.39 0.388281 28 1.99828 28C25.2183 28 48.4283 28 71.6483 28C73.2283 28 73.6383 28.4 73.6383 29.97C73.6383 38.17 73.6383 46.38 73.6383 54.58C73.6383 54.73 73.6383 54.88 73.6383 55.04C73.5983 55.99 73.0383 56.61 72.2383 56.6C71.4383 56.6 70.8783 55.97 70.8483 55.02C70.8283 54.34 70.8483 53.65 70.8483 52.97C70.8483 45.86 70.8483 38.74 70.8483 31.63V30.81L70.8383 30.8Z" fill="black"/>
<path d="M69.499 59.7402C71.499 59.8102 73.359 60.8702 74.409 63.0802C75.469 65.3102 75.169 67.4602 73.679 69.4202C73.469 69.7002 73.209 69.9502 72.959 70.2002C68.109 75.0502 63.279 79.9102 58.399 84.7302C57.959 85.1602 57.329 85.5002 56.729 85.6602C54.279 86.2802 51.819 86.8202 49.349 87.3802C47.879 87.7102 47.059 86.9202 47.389 85.4702C47.969 82.8802 48.559 80.3002 49.189 77.7202C49.289 77.3002 49.529 76.8602 49.829 76.5602C54.819 71.5402 59.829 66.5302 64.839 61.5202C65.999 60.3602 67.399 59.7502 69.489 59.7402H69.499ZM50.449 84.3302C52.439 83.8702 54.269 83.4602 56.079 83.0202C56.299 82.9702 56.499 82.7502 56.669 82.5802C59.429 79.8202 62.169 77.0602 64.929 74.2902C66.979 72.2302 68.999 70.1202 71.119 68.1202C72.039 67.2502 72.359 66.3002 72.149 65.1402C71.939 63.9702 71.219 63.1802 70.089 62.8302C68.719 62.4002 67.569 62.8202 66.569 63.8102C61.789 68.5902 56.989 73.3502 52.199 78.1202C52.029 78.2902 51.819 78.4902 51.759 78.7202C51.319 80.5302 50.909 82.3502 50.449 84.3302Z" fill="black"/>
<path d="M52.3609 62.18C50.4209 60.25 48.5809 58.41 46.7409 56.57C46.5609 56.39 46.3709 56.22 46.2209 56.01C45.8109 55.44 45.8709 54.68 46.3609 54.21C46.8309 53.75 47.6109 53.69 48.1709 54.1C48.3309 54.22 48.4709 54.37 48.6209 54.51C50.7509 56.64 52.8709 58.77 54.9909 60.91C55.9209 61.85 55.9209 62.47 54.9809 63.42C52.9109 65.5 50.8309 67.57 48.7509 69.64C48.5009 69.88 48.2209 70.15 47.9109 70.26C47.2709 70.48 46.7109 70.28 46.3209 69.71C45.9509 69.15 46.0209 68.46 46.5609 67.91C47.9309 66.52 49.3109 65.15 50.7009 63.78C51.2209 63.27 51.7609 62.77 52.3709 62.18H52.3609Z" fill="black"/>
<path d="M21.3515 62.19C23.1515 63.98 24.9315 65.75 26.7015 67.51C27.6615 68.46 27.8015 69.26 27.1315 69.93C26.4615 70.6 25.6915 70.45 24.7215 69.48C22.6815 67.44 20.6515 65.39 18.6115 63.34C17.7715 62.49 17.7515 61.82 18.5715 61C20.7815 58.77 22.9915 56.55 25.2215 54.33C25.8515 53.7 26.7015 53.66 27.2615 54.18C27.8515 54.72 27.8315 55.59 27.2115 56.28C27.0715 56.43 26.9315 56.57 26.7815 56.71C25.1515 58.34 23.5215 59.97 21.8915 61.6C21.7215 61.77 21.5515 61.96 21.3415 62.19H21.3515Z" fill="black"/>
<path d="M41.4403 55.2702C41.3603 55.4902 41.2803 55.7802 41.1603 56.0502C39.1003 60.4702 37.0403 64.8902 34.9803 69.3002C34.5403 70.2302 33.8003 70.5602 33.0403 70.2002C32.2903 69.8502 32.0503 69.0102 32.4603 68.1202C34.5303 63.6802 36.6003 59.2402 38.6903 54.8102C39.0603 54.0202 39.6603 53.6902 40.3803 53.8702C41.0603 54.0402 41.3603 54.5302 41.4503 55.2702H41.4403Z" fill="black"/>
<path d="M70.8394 85.2002C70.8394 83.4702 70.8394 81.8302 70.8394 80.1902C70.8394 79.8602 70.8394 79.5302 70.8994 79.2102C71.0194 78.5402 71.5894 78.0602 72.2294 78.0802C72.8994 78.1102 73.5194 78.4402 73.5394 79.1202C73.6094 81.7202 73.6094 84.3302 73.5394 86.9302C73.5194 87.6402 72.8694 87.9902 72.1694 87.9902C69.7094 88.0102 67.2594 88.0102 64.7994 87.9902C63.9494 87.9902 63.3694 87.3702 63.3594 86.6202C63.3594 85.8502 63.9594 85.2302 64.8494 85.2202C66.4694 85.1902 68.0894 85.2102 69.7094 85.2102C70.0394 85.2102 70.3594 85.2102 70.8294 85.2102L70.8394 85.2002Z" fill="black"/>
<path d="M52.8188 36.59C52.4988 36.54 52.1588 36.54 51.8588 36.43C51.2088 36.2 50.9088 35.69 50.9488 35.02C50.9888 34.36 51.4988 33.86 52.1788 33.8C52.5788 33.76 52.9888 33.77 53.3888 33.79C54.1888 33.84 54.7388 34.39 54.7488 35.13C54.7488 35.86 54.2088 36.46 53.4288 36.54C53.2288 36.56 53.0288 36.54 52.8188 36.54C52.8188 36.56 52.8188 36.57 52.8188 36.59Z" fill="black"/>
<path d="M58.3108 33.7598C58.6108 33.7798 58.9308 33.7598 59.2108 33.8498C59.8608 34.0498 60.2008 34.5198 60.1808 35.2198C60.1608 35.8998 59.6608 36.4598 58.9508 36.5398C58.5508 36.5898 58.1408 36.5798 57.7408 36.5498C56.9408 36.4898 56.3408 35.8398 56.3808 35.0998C56.4108 34.3698 56.9808 33.8398 57.7908 33.7898C57.9708 33.7798 58.1408 33.7898 58.3208 33.7898V33.7698L58.3108 33.7598Z" fill="black"/>
<path d="M63.7504 36.5298C63.5204 36.5298 63.2904 36.5598 63.0704 36.5298C62.3604 36.4298 61.8204 35.8098 61.8404 35.1298C61.8604 34.4298 62.4004 33.8598 63.1304 33.7998C63.4804 33.7698 63.8404 33.7698 64.1904 33.7898C65.1004 33.8298 65.6404 34.3698 65.6304 35.1898C65.6104 35.9598 65.0504 36.4998 64.2104 36.5498C64.0604 36.5498 63.9104 36.5498 63.7604 36.5498C63.7604 36.5498 63.7604 36.5498 63.7604 36.5398L63.7504 36.5298Z" fill="black"/>
</g>
</g>
<defs>
<clipPath id="clip0_7606_86682">
<rect width="75.04" height="60" fill="white" transform="translate(0 28)"/>
</clipPath>
</defs>
</svg>
