<svg width="100" height="100" viewBox="0 0 100 100" fill="none" xmlns="http://www.w3.org/2000/svg">
<rect opacity="0.2" width="100" height="100" rx="20" fill="url(#paint0_linear_7581_60458)"/>
<path d="M75.9942 34.9324H75.7676C75.7298 34.7789 75.6896 34.6254 75.6448 34.4743C76.601 34.0541 77.0473 32.8262 76.4948 31.9196L75.6518 30.458C75.1182 29.523 73.8881 29.301 73.0215 29.9126C72.9106 29.7969 72.7972 29.6836 72.6815 29.5726C73.293 28.7061 73.0711 27.4759 72.1361 26.9423L70.6745 26.0994C69.7655 25.5469 68.5377 25.9931 68.1198 26.9493C67.9687 26.9045 67.8152 26.8643 67.6617 26.8266C67.7609 25.7664 66.9557 24.8054 65.8744 24.8125H64.1885C63.1071 24.8055 62.302 25.7664 62.4011 26.8266C62.2477 26.8643 62.0942 26.9045 61.9431 26.9493C61.5228 25.9931 60.295 25.5468 59.3883 26.0994L57.9268 26.9423C56.9917 27.4759 56.7698 28.7061 57.3813 29.5726C57.2656 29.6836 57.1523 29.7969 57.0413 29.9126C56.1748 29.3011 54.9446 29.523 54.411 30.458L53.5681 31.9172C53.0156 32.8239 53.4595 34.0541 54.4181 34.472C54.3732 34.6231 54.3331 34.7766 54.2953 34.93C53.2352 34.8309 52.2742 35.636 52.2813 36.7174V38.4033C52.2742 39.4847 53.2352 40.2898 54.2953 40.1906C54.3331 40.3441 54.3732 40.4976 54.4181 40.6487C53.4619 41.069 53.0156 42.2968 53.5681 43.2034L54.411 44.665C54.9423 45.6 56.1748 45.822 57.0413 45.2104C57.1523 45.3261 57.2656 45.4394 57.3813 45.5504C56.7698 46.417 56.9918 47.6471 57.9268 48.1807L59.386 49.0236C60.2926 49.5761 61.5228 49.1323 61.9407 48.1737C62.0918 48.2185 62.2453 48.2587 62.3988 48.2964C62.2996 49.3566 63.1048 50.3176 64.1861 50.3105H65.872C66.9534 50.3176 67.7586 49.3566 67.6594 48.2964C67.8128 48.2587 67.9663 48.2185 68.1174 48.1737C68.5377 49.1299 69.7655 49.5762 70.6722 49.0236L72.1337 48.1807C73.0688 47.6471 73.2907 46.417 72.6792 45.5504C72.7949 45.4394 72.9082 45.3261 73.0192 45.2104C73.8857 45.8219 75.1159 45.6 75.6495 44.665L76.4924 43.2058C77.0473 42.2991 76.5986 41.069 75.6424 40.651C75.6873 40.4999 75.7274 40.3464 75.7652 40.193C76.8253 40.2921 77.7864 39.487 77.7792 38.4056V36.7197C77.7792 35.7352 76.9764 34.9324 75.9919 34.9324H75.9942ZM75.8927 38.3041H74.9978C73.7676 38.3631 74.0699 39.9498 73.6213 40.7573C73.4607 41.1894 73.6355 41.6734 74.0345 41.9048L74.8065 42.351L74.0651 43.6355L73.3001 43.194C72.2046 42.6296 71.671 44.1573 70.8776 44.6319C70.5235 44.9247 70.4314 45.4323 70.6628 45.8313L71.1043 46.5963L69.8198 47.3378L69.3736 46.5657C68.7077 45.5315 67.4847 46.5846 66.5615 46.5987C66.1058 46.6767 65.7729 47.0686 65.7729 47.5314V48.4263H64.2878V47.5314C64.2287 46.3012 62.642 46.6035 61.8345 46.1549C61.4025 45.9943 60.9184 46.1691 60.687 46.5681L60.2408 47.3402L58.9563 46.5987L59.3979 45.8337C59.9622 44.7382 58.4345 44.2046 57.9599 43.4112C57.6648 43.0571 57.1572 42.965 56.7605 43.1964L55.9955 43.6379L55.2541 42.3535L56.0261 41.9072C57.0603 41.2413 56.0072 40.0207 55.9931 39.0951C55.9152 38.6394 55.5232 38.3065 55.0604 38.3065H54.1655V36.8214H55.0604C56.2906 36.7623 55.9884 35.1756 56.4369 34.3681C56.5975 33.9361 56.4228 33.452 56.0237 33.2207L55.2517 32.7744L55.9931 31.49L56.7581 31.9315C57.8536 32.4934 58.3872 30.9681 59.1806 30.4936C59.5348 30.2008 59.6268 29.6931 59.3955 29.2941L58.9539 28.5291L60.2384 27.7877L60.6846 28.5621C61.3505 29.5986 62.5712 28.5432 63.4967 28.529C63.9524 28.4511 64.2853 28.0592 64.2853 27.5964V26.7015H65.7705V27.5964C65.8295 28.8266 67.4162 28.5243 68.2237 28.9729C68.6558 29.1335 69.1398 28.9587 69.3712 28.5597L69.8174 27.7853L71.1019 28.5267L70.6603 29.2917C70.096 30.3872 71.6237 30.9209 72.0983 31.7142C72.3934 32.0684 72.8987 32.1581 73.2977 31.9291L74.0627 31.4875L74.8041 32.772L74.0321 33.2182C72.9979 33.8841 74.051 35.1048 74.0651 36.0303C74.1431 36.486 74.535 36.8189 74.9978 36.8189H75.8927V38.3041Z" fill="black"/>
<path d="M65.0311 30.9727C61.3973 30.9727 58.4414 33.9288 58.4414 37.5624C58.772 46.2936 71.2932 46.2912 71.6214 37.5624C71.6214 33.9286 68.6647 30.9727 65.0311 30.9727ZM65.0311 42.2638C58.8168 42.0654 58.8192 33.058 65.0311 32.8616C71.243 33.0599 71.243 42.0673 65.0311 42.2638Z" fill="black"/>
<path d="M56.0625 70.1457V73.9235C56.0625 74.9648 56.9101 75.8125 57.9514 75.8125H61.7292C62.7705 75.8125 63.6181 74.9648 63.6181 73.9235V70.1457C63.6181 69.1045 62.7705 68.2568 61.7292 68.2568H57.9514C56.9101 68.2568 56.0625 69.1045 56.0625 70.1457ZM57.9514 70.1457H61.7292V73.9235L57.9514 73.9259V70.1457Z" fill="black"/>
<path d="M35.2812 70.1457V73.9235C35.2812 74.9648 36.1289 75.8125 37.1702 75.8125H40.948C41.9892 75.8125 42.8369 74.9648 42.8369 73.9235V70.1457C42.8369 69.1045 41.9892 68.2568 40.948 68.2568H37.1702C36.1289 68.2568 35.2812 69.1045 35.2812 70.1457ZM37.1702 70.1457H40.948V73.9235L37.1702 73.9259V70.1457Z" fill="black"/>
<path d="M29.6157 60.7019H35.2824C36.5291 60.6712 36.522 58.839 35.2824 58.813H29.6157C21.342 58.5816 20.6554 46.8044 28.8531 45.6403C29.2757 45.593 29.6134 45.2696 29.6795 44.8493C29.951 43.1328 31.1411 41.7113 32.7797 41.1329C33.3511 40.9487 33.5966 40.2026 33.2495 39.7138C30.4091 35.4992 35.5493 30.2856 39.7897 33.164C40.3162 33.5465 41.1237 33.223 41.2465 32.5855C42.3893 26.9967 49.6145 24.7416 53.7012 28.7345C54.6079 29.5751 55.8923 28.2245 54.9974 27.3604C50.2539 22.716 41.8905 24.782 39.7448 30.9941C34.3141 28.6283 28.6428 34.4272 31.1434 39.801C29.5804 40.6651 28.4281 42.1291 27.9583 43.8645C17.98 46.091 19.3587 60.4281 29.6157 60.7019Z" fill="black"/>
<path d="M75.5611 46.0887C75.0912 46.3153 74.8928 46.8797 75.1172 47.3495C75.6319 48.4238 75.894 49.5784 75.894 50.7849C75.894 55.2121 72.2933 58.8126 67.8663 58.8126H63.6163C63.0945 58.8126 62.6719 59.2353 62.6719 59.7571C62.6719 60.2789 63.0945 60.7015 63.6163 60.7015H67.8663C73.3347 60.7015 77.7829 56.2532 77.7829 50.7849C77.7688 49.6185 77.339 45.3425 75.5611 46.0887Z" fill="black"/>
<path d="M49.4489 51.2568C46.2755 51.2875 45.5507 55.6934 48.5044 56.7488C48.3816 58.2269 50.5161 58.2245 50.3933 56.7488C53.3494 55.691 52.6199 51.2851 49.4489 51.2568ZM49.4489 55.0346C48.2069 55.0134 48.2069 53.167 49.4489 53.1457C50.6908 53.167 50.6908 55.0134 49.4489 55.0346Z" fill="black"/>
<path d="M59.8366 51.2568C56.6632 51.2852 55.936 55.6934 58.8921 56.7488C58.7693 58.2269 60.9038 58.2245 60.781 56.7488C63.7371 55.691 63.0076 51.2851 59.8366 51.2568ZM59.8366 55.0346C58.5946 55.0134 58.5946 53.167 59.8366 53.1457C61.0785 53.167 61.0785 55.0134 59.8366 55.0346Z" fill="black"/>
<path d="M58.8945 65.4237V66.3681C58.9158 67.6101 60.7622 67.6101 60.7834 66.3681V65.4237C60.7622 64.1817 58.9158 64.1817 58.8945 65.4237Z" fill="black"/>
<path d="M60.7834 60.702C60.7622 59.46 58.9158 59.46 58.8945 60.702V61.6464C58.9158 62.8884 60.7622 62.8884 60.7834 61.6464V60.702Z" fill="black"/>
<path d="M38.1172 65.4237V66.3681C38.1384 67.6101 39.9848 67.6101 40.0061 66.3681V65.4237C39.9848 64.1817 38.1385 64.1817 38.1172 65.4237Z" fill="black"/>
<path d="M40.0061 60.702C39.9848 59.46 38.1385 59.46 38.1172 60.702V61.6464C38.1384 62.8884 39.9848 62.8884 40.0061 61.6464V60.702Z" fill="black"/>
<path d="M39.0631 51.2568C35.8898 51.2852 35.1626 55.6934 38.1187 56.7488C37.9959 58.2269 40.1304 58.2245 40.0076 56.7488C42.9637 55.691 42.2341 51.2851 39.0631 51.2568ZM39.0631 55.0346C37.8212 55.0134 37.8212 53.167 39.0631 53.1457C40.3051 53.167 40.3051 55.0134 39.0631 55.0346Z" fill="black"/>
<path d="M45.6719 72.0353C45.8301 77.0267 53.0691 77.0267 53.2275 72.0353C53.0693 67.0438 45.8302 67.0438 45.6719 72.0353ZM49.4497 70.1463C51.9407 70.2125 51.9407 73.8604 49.4497 73.9242C46.9587 73.858 46.9587 70.2101 49.4497 70.1463Z" fill="black"/>
<path d="M48.5078 66.3681C48.5291 67.6101 50.3754 67.6101 50.3967 66.3681V65.4237C50.3755 64.1817 48.5291 64.1817 48.5078 65.4237V66.3681Z" fill="black"/>
<path d="M50.3967 61.6459V60.7015C50.3755 59.4595 48.5291 59.4595 48.5078 60.7015V61.6459C48.5291 62.8879 50.3754 62.8879 50.3967 61.6459Z" fill="black"/>
<defs>
<linearGradient id="paint0_linear_7581_60458" x1="11.809" y1="1.81213e-05" x2="100.05" y2="16.5617" gradientUnits="userSpaceOnUse">
<stop stop-color="#2EC4F3"/>
<stop offset="1" stop-color="#BFD633"/>
</linearGradient>
</defs>
</svg>
