<svg width="86" height="86" viewBox="0 0 86 86" fill="none" xmlns="http://www.w3.org/2000/svg">
<circle cx="43" cy="43" r="42" stroke="url(#paint0_linear_5212_36448)" stroke-width="1.5"/>
<mask id="mask0_5212_36448" style="mask-type:alpha" maskUnits="userSpaceOnUse" x="2" y="2" width="82" height="82">
<circle cx="43" cy="43" r="41" fill="#D9D9D9"/>
</mask>
<g mask="url(#mask0_5212_36448)">
<path d="M65.1101 46.2177C65.3482 46.2177 65.573 46.122 65.7399 45.9551C65.9068 45.7882 66.0002 45.5635 66.0002 45.3276V43.0534C65.998 41.3845 64.6451 40.0316 62.9762 40.0316H61.9993V34.4686C61.9993 23.8811 53.372 15.2651 42.7736 15.2651C32.1753 15.2651 23.5411 23.8811 23.5411 34.4732V40.0362H22.5709C20.902 40.0362 19.5491 41.3891 19.5469 43.058V54.0927C19.5469 55.7616 20.902 57.1167 22.5709 57.1167H25.4526C27.1215 57.1145 28.4744 55.7616 28.4744 54.0927V43.0534C28.4744 41.3845 27.1215 40.0316 25.4526 40.0316H25.3213V34.4686C25.3213 24.8649 33.1494 17.0453 42.7737 17.0453C52.3979 17.0453 60.2192 24.8649 60.2192 34.4732V40.0362H60.0901C58.419 40.0362 57.0661 41.3891 57.0639 43.058V54.1081C57.0661 55.777 58.419 57.1299 60.0901 57.1321H60.2192V61.6314V61.6292C60.2125 64.7512 57.6803 67.279 54.5583 67.2812H50.9668C50.613 65.8749 49.3514 64.8892 47.9005 64.8869H43.1341C41.3851 64.8892 39.9699 66.3044 39.9699 68.0512V68.3938C39.9677 70.1428 41.3851 71.5603 43.1341 71.5625H47.9005C49.3936 71.5603 50.6842 70.5167 50.9958 69.057H54.5561C58.6593 69.0548 61.9883 65.7303 61.9951 61.6248V57.1276H62.9743C64.6432 57.1254 65.9961 55.7725 65.9983 54.1036V50.8904C65.9983 50.3987 65.6 50.0003 65.1082 50.0003C64.6165 50.0003 64.2181 50.3987 64.2181 50.8904V54.1036C64.2159 54.7912 63.6596 55.3475 62.9743 55.3475H60.0904C59.4028 55.3475 58.8465 54.7912 58.8443 54.1036V43.0535C58.8443 42.3682 59.4028 41.8096 60.0904 41.8118H62.9787H62.9765C63.664 41.8096 64.2204 42.3681 64.2204 43.0535V45.3277C64.2204 45.5635 64.316 45.7883 64.4829 45.9552C64.6498 46.1221 64.8742 46.2177 65.1101 46.2177ZM26.694 43.0535V54.0882C26.694 54.7757 26.1377 55.332 25.4524 55.332H22.5707C21.8832 55.332 21.3268 54.7757 21.3268 54.0882V43.0535C21.3268 42.3681 21.8831 41.8096 22.5707 41.8118H25.4524C26.1377 41.8118 26.694 42.3681 26.694 43.0535ZM49.2795 68.3983C49.2795 69.1616 48.6632 69.7802 47.8999 69.7824H43.1335C42.368 69.7824 41.7494 69.1616 41.7494 68.3983V68.0557C41.7472 67.6885 41.8919 67.3347 42.1522 67.0743C42.4125 66.814 42.7641 66.6671 43.1335 66.6671H47.8999C48.6631 66.6671 49.284 67.2879 49.284 68.0512L49.2795 68.3983Z" fill="url(#paint1_linear_5212_36448)"/>
<path d="M43.4668 48.4522C47.4165 48.4477 51.0727 46.3605 53.0819 42.9604C55.0912 39.5603 55.158 35.3505 53.2577 31.8898C51.3552 28.4274 47.7704 26.2245 43.8231 26.0953C39.8734 25.9663 36.1505 27.9312 34.028 31.26C33.9012 31.4603 33.8589 31.7006 33.9101 31.932C33.9612 32.1635 34.1014 32.3637 34.2995 32.4906C34.7134 32.7554 35.263 32.6352 35.5277 32.2191C37.3123 29.4131 40.4454 27.7531 43.77 27.86C47.0944 27.9645 50.1165 29.8159 51.7184 32.7331C53.3183 35.6482 53.2626 39.1907 51.5693 42.0543C49.8736 44.9159 46.794 46.6716 43.4671 46.6716C43.2802 46.6716 43.0799 46.665 42.8752 46.6538H42.8173L33.8431 46.6716L36.0682 44.3085L36.0727 44.3041C36.3753 43.9814 36.3953 43.4852 36.1194 43.138C34.7798 41.478 34.0522 39.4064 34.0589 37.2723C34.0589 36.7806 33.6606 36.3823 33.1688 36.3823C32.6793 36.3823 32.2787 36.7806 32.2787 37.2723H32.2809C32.2832 39.5443 32.9752 41.7606 34.2658 43.6274L31.1416 46.9518H31.1394C30.8969 47.2121 30.8301 47.5904 30.9725 47.9153C31.1127 48.2424 31.4331 48.4538 31.7892 48.4516L42.7994 48.4293C43.0264 48.4427 43.2533 48.4516 43.467 48.4516L43.4668 48.4522Z" fill="url(#paint2_linear_5212_36448)"/>
<path d="M39.8997 36.0176C39.9019 35.5102 39.597 35.0519 39.1275 34.856C38.658 34.6624 38.1195 34.7692 37.759 35.1275C37.4008 35.4857 37.2917 36.0265 37.4853 36.496C37.6811 36.9633 38.1373 37.2703 38.6447 37.2703C39.339 37.2703 39.8997 36.7096 39.8997 36.0176Z" fill="url(#paint3_linear_5212_36448)"/>
<path d="M44.024 37.2703C44.5313 37.2703 44.9875 36.9654 45.1833 36.4981C45.3769 36.0308 45.2701 35.4901 44.9118 35.1319C44.5558 34.7736 44.0151 34.6668 43.5478 34.8604C43.0783 35.054 42.7734 35.5102 42.7734 36.0175C42.7734 36.7073 43.3342 37.2681 44.024 37.2703Z" fill="url(#paint4_linear_5212_36448)"/>
<path d="M50.1718 36.0175C50.1718 37.6886 47.6641 37.6886 47.6641 36.0175C47.6641 34.3464 50.1718 34.3464 50.1718 36.0175Z" fill="url(#paint5_linear_5212_36448)"/>
</g>
<defs>
<linearGradient id="paint0_linear_5212_36448" x1="10.9196" y1="1.00002" x2="85.0417" y2="14.9118" gradientUnits="userSpaceOnUse">
<stop stop-color="#2EC4F3"/>
<stop offset="1" stop-color="#BFD633"/>
</linearGradient>
<linearGradient id="paint1_linear_5212_36448" x1="25.0326" y1="15.2651" x2="66.4733" y2="21.683" gradientUnits="userSpaceOnUse">
<stop stop-color="#2EC4F3"/>
<stop offset="1" stop-color="#BFD633"/>
</linearGradient>
<linearGradient id="paint2_linear_5212_36448" x1="33.7018" y1="26.0894" x2="54.5591" y2="30.2449" gradientUnits="userSpaceOnUse">
<stop stop-color="#2EC4F3"/>
<stop offset="1" stop-color="#BFD633"/>
</linearGradient>
<linearGradient id="paint3_linear_5212_36448" x1="37.6869" y1="34.7607" x2="39.901" y2="35.1762" gradientUnits="userSpaceOnUse">
<stop stop-color="#2EC4F3"/>
<stop offset="1" stop-color="#BFD633"/>
</linearGradient>
<linearGradient id="paint4_linear_5212_36448" x1="43.0693" y1="34.7651" x2="45.2798" y2="35.18" gradientUnits="userSpaceOnUse">
<stop stop-color="#2EC4F3"/>
<stop offset="1" stop-color="#BFD633"/>
</linearGradient>
<linearGradient id="paint5_linear_5212_36448" x1="47.9602" y1="34.7642" x2="50.173" y2="35.1797" gradientUnits="userSpaceOnUse">
<stop stop-color="#2EC4F3"/>
<stop offset="1" stop-color="#BFD633"/>
</linearGradient>
</defs>
</svg>
