<svg width="100" height="100" viewBox="0 0 100 100" fill="none" xmlns="http://www.w3.org/2000/svg">
<rect opacity="0.2" width="100" height="100" rx="20" fill="url(#paint0_linear_7581_60514)"/>
<path fill-rule="evenodd" clip-rule="evenodd" d="M27.2397 53.0413C26.8853 52.9178 26.6872 52.5425 26.7851 52.1812C26.8807 51.8199 27.2397 51.5937 27.608 51.6614L32.7875 53.0506C32.9833 53.0879 33.1558 53.2045 33.2607 53.3723C33.3679 53.5425 33.3982 53.7476 33.3469 53.9387C33.2957 54.1322 33.1651 54.2954 32.9903 54.3863C32.8131 54.4795 32.6057 54.4959 32.4192 54.4306L27.2397 53.0436L27.2397 53.0413ZM27.2397 50.5052L32.4192 51.8921V51.8944C32.6057 51.9597 32.8155 51.9457 32.9926 51.8525C33.1675 51.7592 33.298 51.5961 33.3493 51.4049C33.4029 51.2114 33.3703 51.004 33.263 50.8362C33.1558 50.666 32.9833 50.5494 32.7875 50.5145L27.608 49.1275C27.2397 49.0599 26.883 49.286 26.7874 49.6473C26.6919 50.0063 26.8877 50.3793 27.2397 50.5052ZM33.9297 31.5891L50.7996 27.1275L44.6967 25.7149L27.6896 30.1205L33.9321 31.589L33.9297 31.5891ZM59.4523 29.1322L64.2332 30.2394L48.2167 34.9527L42.8391 33.6893L59.4523 29.1368V29.1322ZM39.9419 32.9994L36.8836 32.2837L53.7743 27.8152L56.5319 28.4539L39.9419 32.9994ZM34.6505 33.2208V36.9294L39.2356 37.9994V34.3001L34.6505 33.2208ZM42.4499 53.6472L43 54.864C43.1305 55.1531 43.0536 55.4934 42.8112 55.6985C42.3403 56.1041 41.9114 56.5563 41.5361 57.0482C41.352 57.3256 41.0023 57.4375 40.6899 57.3209L39.4405 56.85L38.1118 60.3675L39.3216 60.8244V60.8221C39.6409 60.9223 39.846 61.2277 39.8204 61.561C39.7691 62.1857 39.7901 62.8175 39.881 63.4398C39.9323 63.7592 39.7645 64.0738 39.4707 64.2067L38.2563 64.7545L39.8041 68.1788L41.0209 67.6287L41.0186 67.631C41.3076 67.5005 41.6479 67.5774 41.8531 67.8198C42.2563 68.2907 42.7085 68.7173 43.2027 69.0926C43.4778 69.2767 43.592 69.6264 43.4754 69.9387L43.0046 71.1882L46.522 72.5169L46.9789 71.3071H46.9766C47.0768 70.9878 47.3822 70.7826 47.7155 70.8083C48.3426 70.8596 48.972 70.8386 49.5943 70.7477C49.9137 70.6941 50.2284 70.8642 50.3613 71.1579L50.9114 72.3724L54.3333 70.834L53.7832 69.6172C53.6527 69.3281 53.7296 68.9878 53.972 68.7827C54.2121 68.5752 54.4429 68.3561 54.6596 68.1253C54.8671 67.9062 55.0606 67.6731 55.2447 67.433C55.4289 67.1556 55.7785 67.0437 56.0909 67.1602L57.3404 67.6311L58.6714 64.1113L57.4639 63.6544H57.4616C57.1446 63.5565 56.9371 63.2488 56.9628 62.9178C57.0141 62.2907 56.9931 61.6614 56.9022 61.039C56.8509 60.7197 57.0187 60.405 57.3148 60.2697L58.5293 59.7196L56.9838 56.2977L55.767 56.8478V56.8455C55.4779 56.976 55.1376 56.9014 54.9325 56.659C54.7251 56.4189 54.5059 56.1881 54.2751 55.9714C54.0537 55.7639 53.8229 55.5681 53.5805 55.3863C53.3054 55.1998 53.1935 54.8501 53.3101 54.5401L53.7809 53.2906L50.2635 51.9619L49.8089 53.1694C49.7087 53.4887 49.4033 53.6939 49.07 53.6682C48.8066 53.6472 48.5502 53.6379 48.3007 53.6403C48.2797 53.6426 48.2564 53.6449 48.2354 53.6449H48.1911H48.1212C47.8089 53.6542 47.4988 53.6822 47.1911 53.7265C46.8718 53.7778 46.5571 53.61 46.4219 53.3139L45.8741 52.0994L42.4499 53.6472ZM59.4009 58.1834L67.2403 55.1647V55.1624C67.5433 55.0738 67.7531 54.7941 67.7531 54.4771V30.1528C67.7531 29.8194 67.5223 29.5327 67.1983 29.4581L44.8486 24.2879C44.7367 24.2622 44.6201 24.2646 44.5106 24.2925L24.5967 29.4487C24.2518 29.507 24 29.8031 24 30.1527V54.7474C24.0023 55.0621 24.2098 55.3418 24.5128 55.4304L37.0492 59.146L36.6506 60.2066C36.5527 60.47 36.562 60.7614 36.6762 61.0155C36.7927 61.2719 37.0049 61.47 37.2659 61.5679L38.3709 61.9852C38.3662 62.1717 38.3662 62.3605 38.3709 62.5516C38.3755 62.7428 38.3849 62.9316 38.4035 63.1181L37.3242 63.6053L37.3289 63.6076C36.7974 63.8477 36.5596 64.4724 36.7998 65.0038L38.6506 69.1041H38.6483C38.8884 69.6356 39.5154 69.8734 40.0469 69.6333L41.1262 69.1461C41.2567 69.2859 41.3919 69.4188 41.5271 69.547C41.6623 69.6752 41.8045 69.7988 41.9514 69.9246L41.5341 71.0319V71.0295C41.329 71.575 41.604 72.1857 42.1495 72.3908L46.3104 73.9619C46.3523 73.9829 46.3966 73.9969 46.4409 74.0086C46.9374 74.1507 47.4619 73.913 47.6856 73.4491C47.7066 73.4072 47.7253 73.3629 47.7369 73.3186L48.1379 72.2603C48.3244 72.265 48.5132 72.2603 48.7043 72.2603C48.8954 72.2603 49.0843 72.244 49.2707 72.2277L49.7579 73.3069V73.3046C49.998 73.8361 50.6227 74.0715 51.1542 73.8338L55.2568 71.9806C55.7882 71.7405 56.0237 71.1158 55.7859 70.5843L55.2987 69.5051C55.4386 69.3745 55.5715 69.2393 55.6997 69.1041C55.8279 68.9689 55.9514 68.8267 56.075 68.6799L57.1356 69.0808L57.1332 69.0785C57.1752 69.0971 57.2195 69.1134 57.2638 69.1228C57.7603 69.265 58.2847 69.0295 58.5085 68.5633C58.5295 68.5214 58.5481 68.4794 58.5598 68.4328L60.1332 64.2696C60.2334 64.0062 60.2241 63.7171 60.1076 63.4607C59.9934 63.2066 59.7812 63.0061 59.5178 62.9082L58.4106 62.491C58.4152 62.3045 58.4152 62.1157 58.4106 61.9245C58.4036 61.7334 58.3943 61.5446 58.3756 61.3581L59.4549 60.8709H59.4572C59.9887 60.6285 60.2241 60.0061 59.9863 59.4747L59.3989 58.1833L59.4009 58.1834ZM48.9484 51.4074V36.2162L66.3237 31.1066V53.988L58.8131 56.8809L58.1325 55.3727C57.8924 54.8412 57.2677 54.6058 56.7362 54.8436L55.6546 55.3308C55.5241 55.1909 55.3889 55.058 55.2537 54.9298C55.1185 54.8016 54.9763 54.6781 54.8294 54.5545L55.2467 53.4473C55.3469 53.1862 55.3376 52.8948 55.221 52.6384C55.1068 52.3843 54.8947 52.1838 54.6313 52.0859L50.4215 50.4962C50.1604 50.3983 49.869 50.4076 49.6149 50.5218C49.3608 50.6384 49.1604 50.8505 49.0625 51.1115L48.9506 51.4099L48.9484 51.4074ZM41.4843 54.9762L40.9972 53.8946H40.9948C40.7571 53.3632 40.9948 52.7385 41.524 52.4984L45.6242 50.6475C46.158 50.4098 46.7827 50.6452 47.0229 51.1767L47.5101 52.2559H47.5194V36.249L40.664 34.6382V38.9017C40.664 39.1208 40.5638 39.3259 40.3936 39.4611C40.2235 39.5963 39.9997 39.6453 39.7876 39.5963L33.8106 38.2C33.468 38.1394 33.2209 37.8434 33.2185 37.4961V32.8876L25.4305 31.0554V54.2162L37.5563 57.8106L38.2229 56.0483V56.046C38.2346 56.0017 38.2532 55.9574 38.2765 55.9155C38.498 55.4516 39.0201 55.2161 39.5143 55.356C39.5586 55.3677 39.6029 55.3817 39.6448 55.4026L40.7078 55.8012C40.8313 55.6544 40.9548 55.5122 41.0831 55.377C41.2113 55.2418 41.3445 55.1068 41.4843 54.9762ZM43.6638 61.1066L47.9809 62.3863C48.165 62.4562 48.3702 62.4469 48.545 62.3606L52.9832 60.652C53.4821 62.0972 53.2723 63.6917 52.4145 64.9597C51.5567 66.2255 50.1534 67.0157 48.6266 67.0903C47.0997 67.1649 45.6266 66.5145 44.6498 65.3373C43.6731 64.1625 43.3095 62.5937 43.6638 61.1066ZM47.5193 57.4562V60.7616L44.1976 59.7779C44.9155 58.5588 46.1277 57.7126 47.5193 57.4562ZM52.3212 59.3793L48.9483 60.68V57.4096C49.3469 57.4562 49.7361 57.5518 50.1091 57.6916C50.9949 58.0273 51.7641 58.6124 52.3212 59.3793ZM50.6149 56.3583C52.9926 57.2557 54.5963 59.5005 54.6755 62.0413C54.7548 64.5821 53.2956 66.9224 50.9786 67.9667C48.6615 69.0134 45.9435 68.5612 44.088 66.8222C42.2348 65.0809 41.6125 62.3956 42.5099 60.0182L42.5262 59.9739L42.5309 59.9645C43.44 57.6219 45.6568 56.0438 48.1696 55.9552C48.1906 55.9552 48.2116 55.9528 48.2349 55.9528H48.2582V55.9505C49.0624 55.9342 49.8596 56.0717 50.6125 56.3561L50.6149 56.3583ZM66.3563 59.7336L68.5988 59.265L68.7549 60.0017C68.8202 60.314 69.0836 60.5448 69.4006 60.5681C69.8388 60.6007 70.2724 60.68 70.692 60.8059C70.995 60.8991 71.3237 60.7802 71.4962 60.5168L71.9088 59.8851L73.8249 61.1392L73.4123 61.7686C73.2305 62.046 73.2655 62.4119 73.4939 62.6544C73.7713 62.9784 74.0114 63.3327 74.2118 63.708C74.368 64.0064 74.7107 64.1532 75.0347 64.0623L75.727 63.9178L76.1979 66.1602L75.4613 66.3164L75.4589 66.3141C75.1489 66.3793 74.9181 66.6427 74.8925 66.9597C74.8785 67.1789 74.8482 67.3956 74.8086 67.6125C74.769 67.8292 74.7154 68.0414 74.6524 68.2511C74.5615 68.5542 74.6804 68.8805 74.9438 69.0554L75.5755 69.468L74.3214 71.384L73.692 70.9715C73.4123 70.7896 73.0463 70.8246 72.8062 71.053C72.65 71.1859 72.4845 71.3118 72.3144 71.4283C72.1325 71.5519 71.9437 71.6638 71.7503 71.7663C71.4542 71.9248 71.3074 72.2675 71.3983 72.5915L71.5428 73.2838L69.3004 73.7547L69.1465 73.0181V73.0158C69.0813 72.7057 68.8178 72.475 68.5009 72.4493C68.0626 72.419 67.6291 72.3398 67.2071 72.2116C66.9064 72.1207 66.5777 72.2395 66.4052 72.5029L65.9926 73.1346L64.0765 71.8805L64.4845 71.2512C64.664 70.9714 64.6313 70.6055 64.4006 70.3653C64.1232 70.0413 63.8831 69.687 63.6849 69.3094C63.5264 69.0134 63.1838 68.8665 62.8598 68.9574L62.1674 69.102L61.6966 66.8595L62.4332 66.7057H62.4355C62.7455 66.6404 62.9763 66.377 63.002 66.06C63.0323 65.6218 63.1138 65.1882 63.2397 64.7663C63.333 64.4656 63.2141 64.1392 62.9483 63.9644L62.3259 63.5541L63.5801 61.638L64.2094 62.0506V62.0483C64.4868 62.2301 64.8528 62.1952 65.0929 61.9667C65.2514 61.8338 65.4146 61.708 65.5848 61.5914C65.7666 61.4679 65.9554 61.356 66.1489 61.2534C66.4449 61.0949 66.5918 60.7523 66.5032 60.4282L66.3563 59.7336ZM65.009 60.2604L64.8645 59.568C64.7572 59.0506 65.0906 58.5448 65.6081 58.4352L68.7643 57.7732C69.0114 57.7219 69.2678 57.7708 69.4799 57.9084C69.692 58.0482 69.8412 58.2673 69.8925 58.5167L70.037 59.2067C70.1256 59.2207 70.2165 59.237 70.3074 59.2533C70.3983 59.2696 70.4869 59.2883 70.5755 59.3093L70.9624 58.7172V58.7148C71.2538 58.2743 71.8459 58.1507 72.2888 58.4375L74.9881 60.1997V60.202C75.431 60.4934 75.5546 61.0855 75.2655 61.5307L74.8786 62.1205C74.9345 62.1927 74.9858 62.2673 75.0371 62.3419C75.0883 62.4165 75.1396 62.4958 75.1886 62.5727L75.8809 62.4282C76.128 62.3769 76.3867 62.4258 76.5965 62.5634C76.811 62.7032 76.9602 62.9223 77.0114 63.1717L77.6735 66.328C77.7248 66.575 77.6758 66.8315 77.5383 67.0436C77.3984 67.2557 77.1793 67.4049 76.9299 67.4562L76.2399 67.6007C76.226 67.6916 76.2096 67.7802 76.1933 67.8711C76.177 67.962 76.1584 68.0506 76.1374 68.1392L76.7295 68.5261C77.1724 68.8175 77.2959 69.4119 77.0092 69.8548L75.2586 72.5588C74.9672 73.0017 74.3751 73.1252 73.9322 72.8385L73.3401 72.4515C73.2679 72.5051 73.1933 72.5588 73.1187 72.61C73.0441 72.6613 72.9648 72.7126 72.8879 72.7616L73.0324 73.4539C73.0837 73.701 73.0348 73.9574 72.8972 74.1695C72.7574 74.3816 72.5383 74.5308 72.2889 74.5821L69.1303 75.2488C68.8809 75.3024 68.6222 75.2534 68.41 75.1136C68.3821 75.0949 68.3564 75.0763 68.3331 75.053C68.1606 74.9154 68.0417 74.7196 67.9975 74.5029L67.8529 73.8176C67.7644 73.8036 67.6734 73.7896 67.5825 73.7709C67.4916 73.7546 67.403 73.736 67.3145 73.715L66.9275 74.3071V74.3094C66.6361 74.75 66.044 74.8735 65.6011 74.5868L62.8995 72.8199C62.4543 72.5285 62.3307 71.9341 62.6198 71.4889L63.0067 70.8968C62.9531 70.8245 62.8995 70.7499 62.8482 70.6753C62.797 70.5984 62.7457 70.5215 62.6967 70.4446L62.0044 70.5891V70.5914C61.4869 70.6987 60.9787 70.3653 60.8692 69.8478L60.2095 66.6939C60.1023 66.1765 60.4356 65.6707 60.9531 65.5611L61.6431 65.4166C61.657 65.328 61.671 65.2371 61.6897 65.1462C61.706 65.0553 61.7246 64.9667 61.7456 64.8781L61.1535 64.4911H61.1512C60.7106 64.1998 60.5871 63.6077 60.8738 63.1648L62.6384 60.4655C62.9274 60.0226 63.5218 59.899 63.9671 60.1881L64.5592 60.575C64.6314 60.5214 64.706 60.4678 64.7806 60.4165C64.8552 60.3653 64.9321 60.314 65.0114 60.265L65.009 60.2604ZM71.5242 62.5704C73.699 63.9947 74.3098 66.9108 72.8879 69.0856C71.4637 71.2581 68.5499 71.8689 66.3727 70.4493C64.1979 69.0274 63.5871 66.1113 65.009 63.9341C66.4309 61.7593 69.347 61.1485 71.5242 62.5681V62.5704ZM70.7667 63.7802C72.2562 64.7732 72.6758 66.7755 71.7084 68.2814C71.6967 68.2954 71.6874 68.314 71.6757 68.3304C70.685 69.8199 68.6827 70.2395 67.1769 69.2721C67.1605 69.2604 67.1442 69.2488 67.1279 69.2394C65.6384 68.2487 65.2188 66.2464 66.1862 64.7406C66.1978 64.7242 66.2072 64.7079 66.2165 64.6916C67.2095 63.2021 69.2118 62.7825 70.7177 63.7499C70.734 63.7615 70.7503 63.7709 70.7667 63.7825L70.7667 63.7802Z" fill="black"/>
<defs>
<linearGradient id="paint0_linear_7581_60514" x1="11.809" y1="1.81213e-05" x2="100.05" y2="16.5617" gradientUnits="userSpaceOnUse">
<stop stop-color="#2EC4F3"/>
<stop offset="1" stop-color="#BFD633"/>
</linearGradient>
</defs>
</svg>
