<svg width="100" height="100" viewBox="0 0 100 100" fill="none" xmlns="http://www.w3.org/2000/svg">
<rect opacity="0.2" width="100" height="100" rx="20" fill="url(#paint0_linear_7581_60490)"/>
<path d="M74.7855 53.382C73.272 53.382 71.9925 54.4069 71.597 55.7909H66.3609V51.7116H69.0199C74.0242 51.7116 78.097 47.6391 78.097 42.6345C78.097 42.53 78.0902 42.4254 78.0902 42.3209C78.072 41.8255 77.6538 41.4301 77.1584 41.455C76.6629 41.4732 76.2743 41.8914 76.2925 42.3868C76.2925 42.4686 76.2993 42.555 76.2993 42.6368C76.2993 46.6502 73.0358 49.9092 69.0269 49.9092H55.7842V44.7072C55.7842 43.3527 54.6797 42.2459 53.3229 42.2459H36.6215C36.7783 39.2733 38.7395 36.6848 41.6076 35.7304C41.9917 35.6032 42.2416 35.235 42.2235 34.835C42.2167 34.7123 42.2167 34.5895 42.2167 34.4623C42.2167 29.7852 46.0211 25.974 50.705 25.974C53.8116 25.974 56.6614 27.6671 58.1571 30.3965C58.2731 30.6124 58.4708 30.7692 58.7094 30.8328C58.9412 30.8965 59.198 30.8624 59.4071 30.7397C60.4139 30.1465 61.5706 29.8329 62.7456 29.8329C65.7409 29.8329 68.3589 31.851 69.1226 34.744C69.2158 35.1054 69.518 35.3667 69.8839 35.4076C72.5883 35.728 74.945 37.6075 75.8769 40.1846C76.0451 40.6505 76.5633 40.8937 77.0292 40.7255C77.4951 40.5573 77.7383 40.0392 77.5701 39.5733C76.4769 36.5484 73.818 34.3031 70.6886 33.7146C69.5364 30.3398 66.3548 28.0354 62.7414 28.0354C61.5437 28.0354 60.362 28.2922 59.2802 28.7808C57.3826 25.9172 54.1714 24.1719 50.7058 24.1719C45.1038 24.1719 40.5314 28.6739 40.4197 34.2531C37.1607 35.6031 34.9745 38.7166 34.8222 42.2458H22.9613C21.6068 42.2458 20.5 43.3503 20.5 44.707V56.518C20.5 57.018 20.9023 57.4202 21.4022 57.4202C21.9022 57.4202 22.3045 57.018 22.3045 56.518V44.707C22.3045 44.3457 22.6067 44.0435 22.9681 44.0435H53.3259C53.6918 44.0435 53.9895 44.3412 53.9895 44.707V62.504H22.3046V58.9905C22.3046 58.4906 21.9023 58.0883 21.4024 58.0883C20.9024 58.0883 20.5001 58.4974 20.5001 58.9905V66.7336C20.5001 68.0881 21.6046 69.1949 22.9614 69.1949H33.1247L32.5088 73.3674H30.8157C30.3157 73.3674 29.9134 73.7696 29.9134 74.2696C29.9134 74.7696 30.3157 75.1719 30.8157 75.1719H45.4739C45.9739 75.1719 46.3761 74.7696 46.3761 74.2696C46.3761 73.7696 45.9739 73.3674 45.4739 73.3674H43.7876L43.1649 69.1949H53.3236C54.678 69.1949 55.7848 68.0904 55.7848 66.7336V51.7141H60.1824V59.3181C58.7915 59.7135 57.7734 60.9885 57.7734 62.5066C57.7734 64.3338 59.2574 65.8178 61.0846 65.8178C62.9118 65.8178 64.3958 64.3338 64.3958 62.5066C64.3958 60.993 63.3709 59.7135 61.9869 59.3181V51.7141H64.5595V56.6934C64.5595 57.1934 64.9617 57.5956 65.4617 57.5956H71.5932C71.9886 58.9865 73.2681 60.0046 74.7817 60.0046C76.6089 60.0046 78.0929 58.5206 78.0929 56.6934C78.0975 54.8662 76.6134 53.3822 74.7862 53.3822L74.7855 53.382ZM41.9621 73.3677H34.3284L34.9443 69.1951H41.337L41.9621 73.3677ZM53.325 67.3973H22.9608C22.5995 67.3973 22.2972 67.0951 22.2972 66.7337V64.3066H53.9821V66.7337C53.9821 67.0951 53.6841 67.3973 53.325 67.3973ZM62.5976 62.5043C62.5976 63.3361 61.9226 64.0179 61.084 64.0179C60.2454 64.0179 59.5704 63.3429 59.5704 62.5043C59.5704 61.6726 60.2454 60.9908 61.084 60.9908C61.9226 60.993 62.5976 61.6726 62.5976 62.5043ZM74.7855 58.2C73.9538 58.2 73.272 57.525 73.272 56.6864C73.272 55.8547 73.9538 55.1729 74.7855 55.1729C75.6173 55.1729 76.2991 55.8478 76.2991 56.6864C76.2923 57.525 75.6173 58.2 74.7855 58.2Z" fill="black"/>
<defs>
<linearGradient id="paint0_linear_7581_60490" x1="11.809" y1="1.81213e-05" x2="100.05" y2="16.5617" gradientUnits="userSpaceOnUse">
<stop stop-color="#2EC4F3"/>
<stop offset="1" stop-color="#BFD633"/>
</linearGradient>
</defs>
</svg>
