<svg width="100" height="100" viewBox="0 0 100 100" fill="none" xmlns="http://www.w3.org/2000/svg">
<rect opacity="0.2" width="100" height="100" rx="20" fill="url(#paint0_linear_7581_60506)"/>
<path fill-rule="evenodd" clip-rule="evenodd" d="M21.3663 25H79.506C80.981 25 82.324 25.6026 83.2968 26.5754C84.2696 27.5482 84.8723 28.8912 84.8723 30.3663V70.6309C84.8723 72.1059 84.2696 73.4488 83.2968 74.4217C82.324 75.3946 80.9839 75.9971 79.506 75.9971L21.3663 76C19.8884 76 18.5483 75.3974 17.5754 74.4246C16.6026 73.4518 16 72.1088 16 70.6337V30.3669C16 28.8891 16.6026 27.549 17.5754 26.5761C18.5482 25.6062 19.8883 25 21.3663 25ZM40.9861 65.6348L51.271 57.5685C51.6354 57.2816 51.6986 56.7564 51.4116 56.3919C51.3657 56.3346 51.314 56.2829 51.2566 56.2399L40.9865 48.1817C40.622 47.8947 40.094 47.9578 39.8099 48.3223C39.5229 48.6867 39.586 49.2147 39.9505 49.4989L49.392 56.9054L39.9505 64.312C39.586 64.599 39.5229 65.1242 39.8099 65.4886C40.0968 65.8588 40.6245 65.9218 40.9861 65.6348ZM31.5365 64.3148L22.095 56.9082L31.5365 49.5016C31.901 49.2146 31.9641 48.6895 31.6771 48.325C31.3902 47.9606 30.865 47.8974 30.5005 48.1844L20.2304 56.2367C20.173 56.2798 20.1213 56.3314 20.0754 56.3888C19.7884 56.7532 19.8516 57.2812 20.216 57.5654L30.4979 65.6317C30.8624 65.9186 31.3904 65.8555 31.6745 65.4911C31.9644 65.1295 31.901 64.6018 31.5365 64.3148ZM46.4932 33.0899H77.5829C78.0478 33.0899 78.4237 32.7139 78.4237 32.2491C78.4237 31.7842 78.0478 31.4083 77.5829 31.4083H46.4932C46.0283 31.4083 45.6524 31.7842 45.6524 32.2491C45.6524 32.7139 46.0283 33.0899 46.4932 33.0899ZM38.2087 29.5716C37.4684 29.5716 36.7997 29.8729 36.3176 30.355C35.8327 30.84 35.5342 31.5086 35.5342 32.2461C35.5342 32.9865 35.8327 33.6552 36.3176 34.1372C36.8026 34.6222 37.4712 34.9206 38.2087 34.9206C38.9491 34.9206 39.6178 34.6193 40.0998 34.1372C40.5848 33.6523 40.8832 32.9836 40.8832 32.2461C40.8832 31.5058 40.5819 30.8371 40.0998 30.355C39.6177 29.8701 38.9491 29.5716 38.2087 29.5716ZM38.9147 31.5431C38.7339 31.3623 38.4842 31.2504 38.2087 31.2504C37.9332 31.2504 37.6836 31.3623 37.5028 31.5431C37.322 31.7239 37.2101 31.9735 37.2101 32.249C37.2101 32.5245 37.322 32.7742 37.5028 32.955C37.6836 33.1358 37.9332 33.2477 38.2087 33.2477C38.4842 33.2477 38.7339 33.1358 38.9147 32.955C39.0955 32.7742 39.2074 32.5245 39.2074 32.249C39.2045 31.9735 39.0955 31.7239 38.9147 31.5431ZM30.6412 29.5716C29.9037 29.5716 29.2322 29.8729 28.7501 30.355C28.2652 30.84 27.9667 31.5086 27.9667 32.2461C27.9667 32.9836 28.268 33.6552 28.7501 34.1372C29.2351 34.6222 29.9037 34.9206 30.6412 34.9206C31.3816 34.9206 32.0503 34.6193 32.5352 34.1372C33.0202 33.6523 33.3186 32.9836 33.3186 32.2461C33.3186 31.5058 33.0173 30.8371 32.5352 30.355C32.0502 29.8701 31.3816 29.5716 30.6412 29.5716ZM31.3472 31.5431C31.1664 31.3623 30.9167 31.2504 30.6412 31.2504C30.3657 31.2504 30.1161 31.3623 29.9353 31.5431C29.7545 31.7239 29.6426 31.9735 29.6426 32.249C29.6426 32.5245 29.7545 32.7742 29.9353 32.955C30.1161 33.1358 30.3657 33.2477 30.6412 33.2477C30.9167 33.2477 31.1664 33.1358 31.3472 32.955C31.5279 32.7742 31.6399 32.5245 31.6399 32.249C31.6399 31.9735 31.528 31.7239 31.3472 31.5431ZM23.0737 29.5716C22.3333 29.5716 21.6647 29.8729 21.1798 30.355C20.6948 30.84 20.3963 31.5086 20.3963 32.2461C20.3963 32.9836 20.6977 33.6552 21.1798 34.1372C21.6647 34.6222 22.3333 34.9206 23.0737 34.9206C23.8141 34.9206 24.4827 34.6193 24.9648 34.1372C25.4498 33.6523 25.7482 32.9836 25.7482 32.2461C25.7482 31.5058 25.4469 30.8371 24.9648 30.355C24.4827 29.8701 23.8141 29.5716 23.0737 29.5716ZM23.7797 31.5431C23.5989 31.3623 23.3492 31.2504 23.0737 31.2504C22.7982 31.2504 22.5486 31.3623 22.3678 31.5431C22.187 31.7239 22.0751 31.9735 22.0751 32.249C22.0751 32.5245 22.187 32.7742 22.3678 32.955C22.5486 33.1358 22.7982 33.2477 23.0737 33.2477C23.3492 33.2477 23.5989 33.1358 23.7797 32.955C23.9604 32.7742 24.0724 32.5245 24.0724 32.249C24.0724 31.9735 23.9604 31.7239 23.7797 31.5431ZM83.1932 39.4977H17.6785V70.6337C17.6785 71.6467 18.0946 72.5679 18.7633 73.2365C19.4319 73.9052 20.3531 74.3213 21.3661 74.3213H79.5058C80.5188 74.3213 81.4399 73.9052 82.1086 73.2365C82.7772 72.5679 83.1933 71.6467 83.1933 70.6337L83.1905 39.4977H83.1932ZM17.6785 37.8161H83.1903V30.3661C83.1903 29.3531 82.7741 28.432 82.1055 27.7633C81.4369 27.0947 80.5157 26.6786 79.5027 26.6786H21.3659C20.353 26.6786 19.4318 27.0947 18.7631 27.7633C18.0945 28.432 17.6784 29.3531 17.6784 30.3661L17.6785 37.8161Z" fill="black"/>
<path d="M71.6446 50.1142L71.2657 49.4634C71.0837 49.1469 70.6973 49.0186 70.366 49.1635L69.7236 49.4431C69.3848 49.1482 68.9946 48.9194 68.573 48.7694L68.499 48.083C68.4651 47.7144 68.1589 47.4322 67.7926 47.4322H67.051C66.6846 47.4322 66.3784 47.7144 66.3446 48.083L66.2706 48.7694C65.849 48.9194 65.4588 49.1482 65.12 49.4431L64.4775 49.1635C64.1463 49.0186 63.7598 49.1469 63.5791 49.4634L63.1964 50.1142C63.017 50.432 63.1011 50.8362 63.3922 51.0549L63.9581 51.4578C63.874 51.9014 63.874 52.3577 63.9581 52.8014L63.4085 53.2119C63.1174 53.4293 63.0321 53.8335 63.2128 54.1525L63.5955 54.8199L63.5942 54.8186C63.7749 55.1364 64.1638 55.2647 64.4939 55.1147L65.1363 54.8377V54.8389C65.4751 55.1338 65.8653 55.3626 66.2869 55.5126L66.3609 56.199C66.3948 56.5676 66.7009 56.8498 67.0673 56.8498H67.8252C68.1916 56.8498 68.4965 56.5676 68.5316 56.199L68.6056 55.5126C69.0272 55.3626 69.4174 55.1338 69.755 54.8389L70.3974 55.116V55.1147C70.7286 55.2647 71.1164 55.1364 71.2971 54.8186L71.676 54.1512V54.1525C71.8604 53.8347 71.7764 53.428 71.484 53.2119L70.9345 52.8014C71.0148 52.3577 71.0148 51.9027 70.9345 51.4578L71.484 51.0472C71.7626 50.8223 71.8316 50.4218 71.6446 50.1142ZM71.1239 50.6049L70.43 51.1324C70.3397 51.1972 70.2983 51.3129 70.3271 51.4222C70.44 51.8976 70.44 52.3946 70.3271 52.87C70.2983 52.9793 70.3397 53.0937 70.43 53.1598L71.1239 53.6771C71.1917 53.7254 71.2105 53.8169 71.1691 53.8881L70.7901 54.5555C70.7487 54.6266 70.6609 54.6559 70.5869 54.6203L69.7964 54.2695H69.7976C69.6948 54.2237 69.5756 54.2466 69.4952 54.3241C69.1452 54.6597 68.7211 54.9037 68.2581 55.0372C68.1514 55.069 68.0736 55.1631 68.0623 55.2749L67.9695 56.1405C67.9607 56.2232 67.8917 56.2854 67.8089 56.2829H67.051C66.9682 56.2854 66.8992 56.2232 66.8904 56.1405L66.7875 55.2775C66.7762 55.1656 66.6984 55.0716 66.5917 55.0411C66.1275 54.9025 65.7034 54.6546 65.3546 54.3152C65.3031 54.2644 65.2341 54.2364 65.1626 54.2364C65.1249 54.2377 65.0873 54.2453 65.0534 54.2593L64.2629 54.6101V54.6114C64.1889 54.6457 64.1011 54.6178 64.0609 54.5453L63.682 53.878L63.6807 53.8792C63.6393 53.8068 63.6594 53.7153 63.7259 53.667L64.4198 53.1496C64.5089 53.0836 64.5503 52.9692 64.5227 52.8598C64.411 52.3845 64.411 51.8887 64.5227 51.4121C64.5503 51.304 64.5101 51.1883 64.4198 51.1222L63.736 50.6049C63.6682 50.5579 63.6494 50.4651 63.6908 50.3939L64.0697 49.7431C64.1111 49.6719 64.1977 49.6427 64.273 49.6745L65.0635 50.0253L65.0622 50.0266C65.1639 50.0723 65.2831 50.052 65.3646 49.9744C65.7134 49.6351 66.1375 49.3859 66.6018 49.2486C66.7085 49.2169 66.7862 49.1228 66.7975 49.0109L66.8904 48.1453C66.8992 48.0627 66.9682 48.0004 67.051 48.0017H67.8089C67.8917 48.0004 67.9607 48.0627 67.9695 48.1453L68.0724 48.9944C68.0837 49.1063 68.1615 49.2003 68.2681 49.2321C68.7324 49.3694 69.1565 49.6185 69.5053 49.9579C69.5856 50.0355 69.7048 50.0558 69.8064 50.01L70.5969 49.6592V49.6579C70.6722 49.6262 70.7588 49.6554 70.7989 49.7266L71.1779 50.3774H71.1791C71.203 50.4143 71.2105 50.46 71.2005 50.5032C71.1904 50.5464 71.1628 50.5833 71.1239 50.6049ZM67.4299 49.9058C66.5378 49.9045 65.7335 50.4473 65.391 51.2824C65.0497 52.1163 65.2379 53.0772 65.869 53.7166C66.4989 54.3547 67.4475 54.5466 68.2719 54.1996C69.095 53.8539 69.632 53.0378 69.6308 52.134C69.6283 50.9049 68.6445 49.9071 67.4299 49.9058ZM67.4299 53.8106C66.7624 53.8106 66.1601 53.4026 65.9042 52.7785C65.6494 52.1531 65.79 51.4337 66.263 50.9557C66.7348 50.4765 67.445 50.3341 68.0623 50.5922C68.6784 50.8515 69.0812 51.4616 69.0812 52.1378C69.0787 53.0606 68.3409 53.8068 67.43 53.8068L67.4299 53.8106ZM69.5467 65.4503C69.5442 65.9307 69.3534 66.3896 69.0172 66.7264C68.6796 67.0646 68.2255 67.2527 67.7511 67.2501H67.1087C66.9682 67.2349 66.8628 67.1141 66.8628 66.9718C66.8628 66.8281 66.9682 66.7087 67.1087 66.6934H67.7511C68.4337 66.6972 68.9908 66.1418 68.9971 65.4503C68.9896 65.3715 69.0147 65.2927 69.0661 65.2329C69.1188 65.1744 69.1941 65.1401 69.2719 65.1401C69.3509 65.1401 69.425 65.1744 69.4777 65.2329C69.5304 65.2927 69.5555 65.3714 69.5467 65.4503ZM69.8428 58.2914C69.898 58.3435 69.9294 58.416 69.9306 58.4922C69.9331 58.5685 69.903 58.6422 69.8491 58.6956C69.7964 58.749 69.7236 58.7795 69.6483 58.777C69.5718 58.7744 69.5015 58.7414 69.4501 58.6855C68.3346 57.5554 66.5252 57.5554 65.4098 58.6855C65.3584 58.7414 65.2881 58.7744 65.2116 58.777C65.1363 58.7795 65.0635 58.749 65.0108 58.6956C64.9569 58.6422 64.9267 58.5685 64.9293 58.4922C64.9305 58.416 64.9619 58.3435 65.0171 58.2914C66.3509 56.944 68.5091 56.944 69.8428 58.2914ZM69.1301 59.0134H69.1288C69.1815 59.0655 69.2104 59.1367 69.2104 59.2104C69.2104 59.2842 69.1815 59.3553 69.1288 59.4075C69.0209 59.5155 68.8478 59.5155 68.7399 59.4075C68.0159 58.6766 66.844 58.6766 66.12 59.4075C66.0685 59.4608 65.9983 59.4901 65.9255 59.4901C65.8515 59.4901 65.7825 59.4608 65.731 59.4075C65.6783 59.3553 65.6494 59.2842 65.6494 59.2104C65.6494 59.1367 65.6783 59.0655 65.731 59.0134C66.1802 58.5558 66.79 58.2978 67.4274 58.2952C68.0648 58.294 68.6771 58.5482 69.1288 59.0045L69.1301 59.0134ZM78.011 51.1491C77.4677 51.1491 76.9972 51.5253 76.8704 52.0605H74.4638C74.425 50.9978 74.1489 49.9568 73.6583 49.0174L75.7424 47.801C75.9633 48.0374 76.2694 48.1721 76.5906 48.1709C77.0662 48.1709 77.4953 47.8811 77.6772 47.4362C77.8592 46.9913 77.7588 46.479 77.4225 46.1384C77.0863 45.7977 76.5806 45.696 76.1414 45.8804C75.701 46.0647 75.4149 46.4981 75.4149 46.9799C75.4174 47.0904 75.4363 47.201 75.4701 47.3053L73.3823 48.5293C72.8201 47.6332 72.0698 46.8731 71.1852 46.3036L72.3898 44.1885C72.4927 44.2228 72.6018 44.2406 72.711 44.2432C73.2794 44.2444 73.7687 43.8352 73.8766 43.2695C73.9833 42.7026 73.6784 42.1395 73.1501 41.9272C72.6207 41.7137 72.0171 41.912 71.7122 42.3988C71.4073 42.8856 71.4863 43.5237 71.9017 43.9178L70.7059 46.0304C69.7799 45.5321 68.7535 45.2537 67.7058 45.213V42.7763C68.2842 42.634 68.6682 42.0772 68.5967 41.4773C68.5264 40.8786 68.0258 40.4273 67.4297 40.4273C66.8337 40.4273 66.3331 40.8786 66.2628 41.4773C66.1913 42.0772 66.5753 42.634 67.1537 42.7763V45.213C66.1047 45.2537 65.0784 45.5334 64.1498 46.0304L62.949 43.919V43.9178C63.3568 43.5263 63.4334 42.8971 63.131 42.4166C62.8286 41.9374 62.2326 41.7416 61.7106 41.9526C61.1874 42.1624 60.8862 42.7179 60.9904 43.2771C61.0958 43.8364 61.5776 44.2419 62.1397 44.2432C62.2489 44.2406 62.3568 44.2228 62.4609 44.1885L63.6655 46.3036C62.7821 46.8731 62.0343 47.6332 61.4747 48.5293L59.3994 47.3154C59.4332 47.2099 59.4508 47.1006 59.4546 46.99C59.4546 46.4142 59.0505 45.9172 58.4922 45.8092C57.9338 45.6998 57.3767 46.01 57.1672 46.5451C56.9576 47.0815 57.1534 47.6929 57.6327 48.0018C58.1132 48.3107 58.7431 48.2306 59.1334 47.8099L61.2049 49.02V49.0213C60.7131 49.9606 60.4383 51.0003 60.3981 52.063H57.989C57.8498 51.477 57.2989 51.0893 56.7079 51.1605C56.1157 51.2317 55.6702 51.7401 55.6702 52.3427C55.6702 52.9464 56.1157 53.4549 56.7079 53.5261C57.2989 53.5972 57.8498 53.2095 57.989 52.6223H60.4019C60.4433 53.6837 60.7181 54.7222 61.2049 55.6628L59.117 56.8831C58.7306 56.4687 58.1082 56.3912 57.6352 56.6975C57.1609 57.0038 56.9689 57.6076 57.1759 58.1376C57.383 58.6664 57.9313 58.9728 58.4846 58.866C59.0367 58.7605 59.4357 58.2724 59.4383 57.7029C59.4357 57.5924 59.4169 57.4818 59.383 57.3775L61.4747 56.1573C61.6152 56.3835 61.7696 56.6009 61.9364 56.8081C62.4572 57.4487 62.7395 58.2546 62.7332 59.0859V59.4304C62.7332 60.5464 63.2539 61.5976 64.1373 62.2649C63.7621 62.4899 63.5312 62.8992 63.53 63.3415V63.4979C63.5312 63.9771 63.8023 64.4144 64.2276 64.6241V65.4503C64.2301 66.2219 64.535 66.9591 65.0758 67.5019C65.6166 68.0446 66.3469 68.3472 67.1085 68.3433H67.7509C68.5138 68.3497 69.2466 68.0472 69.7887 67.5044C70.332 66.9616 70.6381 66.2231 70.6419 65.4503V64.633C71.0647 64.4182 71.3282 63.9771 71.3232 63.4979V63.3454C71.3219 62.903 71.0911 62.4937 70.7159 62.2675C71.5992 61.6014 72.12 60.5502 72.12 59.4342V59.0986C72.1137 58.2686 72.3948 57.4615 72.9155 56.8208C73.0836 56.6136 73.238 56.3963 73.3785 56.17L75.4601 57.3636C75.4262 57.4691 75.4087 57.5784 75.4049 57.689C75.4036 58.1733 75.691 58.6093 76.1314 58.7948C76.5731 58.9817 77.08 58.8787 77.4175 58.5368C77.755 58.1949 77.8567 57.6814 77.6735 57.2339C77.489 56.7878 77.0586 56.4967 76.5806 56.498C76.2607 56.498 75.9532 56.6327 75.7337 56.8691L73.6458 55.6489C74.1326 54.7095 74.4061 53.671 74.4488 52.6097H76.8617H76.8604C76.9671 53.0533 77.3134 53.3965 77.7538 53.4944C78.1929 53.591 78.6497 53.4245 78.9282 53.066C79.2055 52.7063 79.2569 52.2182 79.0599 51.8089C78.863 51.3983 78.4514 51.1377 78.0009 51.139L78.011 51.1491ZM76.5906 46.3494C76.8441 46.3481 77.0737 46.5019 77.1716 46.7396C77.2695 46.9773 77.2168 47.2506 77.0373 47.4324C76.8579 47.6141 76.5869 47.6688 76.3522 47.5697C76.1189 47.4705 75.9658 47.2379 75.967 46.9799C75.967 46.6316 76.2468 46.3494 76.5906 46.3494ZM72.7361 42.4254V42.4241C72.9883 42.4317 73.2116 42.5894 73.3032 42.8271C73.3948 43.0648 73.3383 43.3355 73.1577 43.5135C72.977 43.6914 72.7085 43.7423 72.4763 43.6431C72.2442 43.5452 72.0936 43.3139 72.0936 43.0597C72.0924 42.8906 72.1589 42.7292 72.2768 42.6097C72.3935 42.4902 72.5541 42.4241 72.7197 42.4241L72.7361 42.4254ZM61.516 43.0597C61.5148 42.8016 61.6666 42.569 61.9012 42.4699C62.1359 42.3707 62.4056 42.4254 62.5851 42.6071C62.7645 42.7889 62.8185 43.0635 62.7206 43.2999C62.6227 43.5376 62.3931 43.6914 62.1396 43.6901C61.974 43.6901 61.8159 43.624 61.6992 43.5058C61.5813 43.3876 61.516 43.2262 61.516 43.0597ZM58.2689 47.6153C58.0167 47.6166 57.7883 47.464 57.6892 47.2289C57.5901 46.9937 57.6403 46.7217 57.8159 46.5387C57.9916 46.3556 58.2588 46.2959 58.4935 46.3887C58.7281 46.4827 58.885 46.709 58.8925 46.9645C58.8925 47.3166 58.6165 47.6038 58.2689 47.6153ZM58.2689 58.3308C58.0154 58.3321 57.7858 58.1782 57.6879 57.9406C57.5901 57.7029 57.6428 57.4296 57.8222 57.2478C58.0016 57.0648 58.2726 57.0114 58.5073 57.1105C58.7407 57.2097 58.8937 57.4423 58.8925 57.6991C58.8925 58.0473 58.6127 58.3308 58.2689 58.3308ZM76.5781 57.0648C76.8303 57.0635 77.0587 57.216 77.1578 57.4499C77.2557 57.6851 77.2067 57.9571 77.0311 58.1414C76.8554 58.3244 76.5882 58.3829 76.3535 58.2901C76.1189 58.1973 75.9608 57.9711 75.9545 57.7156C75.9545 57.3584 76.2381 57.0686 76.5907 57.0648L76.5781 57.0648ZM66.8036 41.6209C66.8036 41.3577 66.9604 41.12 67.2001 41.0196C67.4397 40.9192 67.7158 40.9751 67.9002 41.1607C68.0834 41.3476 68.1386 41.6272 68.0395 41.87C67.9404 42.1128 67.7057 42.2717 67.446 42.2717C67.0909 42.2717 66.8036 41.9806 66.8036 41.6209ZM56.8459 52.9745C56.5849 52.9745 56.349 52.8143 56.2511 52.569C56.152 52.3237 56.2097 52.0427 56.398 51.8572C56.5849 51.6729 56.8635 51.6207 57.1031 51.7275C57.3428 51.833 57.4946 52.0758 57.4883 52.3402C57.4795 52.6923 57.196 52.9732 56.8484 52.9745L56.8459 52.9745ZM67.7508 67.7842H67.1084C66.4948 67.7867 65.9063 67.5414 65.4697 67.1041C65.0343 66.6669 64.7884 66.072 64.7859 65.4504V64.7666H70.0734V65.4504C70.0658 66.7432 69.0269 67.7867 67.7508 67.7842ZM70.7697 63.498C70.7697 63.8857 70.4598 64.2009 70.0758 64.2009H64.7832C64.3992 64.2009 64.0893 63.8857 64.0893 63.498V63.3454C64.0893 62.9565 64.3992 62.6425 64.7832 62.6425H70.0758C70.4598 62.6425 70.7697 62.9565 70.7697 63.3454V63.498ZM73.0571 55.6031C72.8915 55.8916 72.7058 56.1662 72.5013 56.4267C71.8952 57.1678 71.569 58.1033 71.5828 59.0655V59.4113C71.5966 60.5362 70.9843 61.5721 69.9993 62.092H67.7056V60.179C67.7056 60.024 67.5827 59.8994 67.4296 59.8994C67.2765 59.8994 67.1535 60.024 67.1535 60.179V62.092H64.8762C63.9 61.5785 63.2877 60.5578 63.2889 59.4431V59.0986C63.3027 58.1364 62.9765 57.2009 62.3705 56.4598C61.0618 54.7946 60.6289 52.5917 61.2098 50.5479C61.7908 48.5027 63.3115 46.8692 65.2928 46.1624C67.274 45.457 69.4711 45.7671 71.1864 46.9937C72.9029 48.2203 73.9268 50.2122 73.9343 52.3401C73.9331 53.4905 73.6307 54.6204 73.0572 55.6133L73.0571 55.6031ZM78.0109 52.9642C77.7474 52.9731 77.5065 52.8168 77.4024 52.5728C77.297 52.3287 77.3509 52.044 77.5354 51.8546C77.7211 51.6665 78.0021 51.6105 78.2443 51.716C78.4852 51.8203 78.6395 52.0643 78.6332 52.33C78.6307 52.6795 78.3547 52.9643 78.0109 52.9744L78.0109 52.9642Z" fill="black"/>
<path fill-rule="evenodd" clip-rule="evenodd" d="M21.3663 25H79.506C80.981 25 82.324 25.6026 83.2968 26.5754C84.2696 27.5482 84.8723 28.8912 84.8723 30.3663V70.6309C84.8723 72.1059 84.2696 73.4488 83.2968 74.4217C82.324 75.3946 80.9839 75.9971 79.506 75.9971L21.3663 76C19.8884 76 18.5483 75.3974 17.5754 74.4246C16.6026 73.4518 16 72.1088 16 70.6337V30.3669C16 28.8891 16.6026 27.549 17.5754 26.5761C18.5482 25.6062 19.8883 25 21.3663 25ZM40.9861 65.6348L51.271 57.5685C51.6354 57.2816 51.6986 56.7564 51.4116 56.3919C51.3657 56.3346 51.314 56.2829 51.2566 56.2399L40.9865 48.1817C40.622 47.8947 40.094 47.9578 39.8099 48.3223C39.5229 48.6867 39.586 49.2147 39.9505 49.4989L49.392 56.9054L39.9505 64.312C39.586 64.599 39.5229 65.1242 39.8099 65.4886C40.0968 65.8588 40.6245 65.9218 40.9861 65.6348ZM31.5365 64.3148L22.095 56.9082L31.5365 49.5016C31.901 49.2146 31.9641 48.6895 31.6771 48.325C31.3902 47.9606 30.865 47.8974 30.5005 48.1844L20.2304 56.2367C20.173 56.2798 20.1213 56.3314 20.0754 56.3888C19.7884 56.7532 19.8516 57.2812 20.216 57.5654L30.4979 65.6317C30.8624 65.9186 31.3904 65.8555 31.6745 65.4911C31.9644 65.1295 31.901 64.6018 31.5365 64.3148ZM46.4932 33.0899H77.5829C78.0478 33.0899 78.4237 32.7139 78.4237 32.2491C78.4237 31.7842 78.0478 31.4083 77.5829 31.4083H46.4932C46.0283 31.4083 45.6524 31.7842 45.6524 32.2491C45.6524 32.7139 46.0283 33.0899 46.4932 33.0899ZM38.2087 29.5716C37.4684 29.5716 36.7997 29.8729 36.3176 30.355C35.8327 30.84 35.5342 31.5086 35.5342 32.2461C35.5342 32.9865 35.8327 33.6552 36.3176 34.1372C36.8026 34.6222 37.4712 34.9206 38.2087 34.9206C38.9491 34.9206 39.6178 34.6193 40.0998 34.1372C40.5848 33.6523 40.8832 32.9836 40.8832 32.2461C40.8832 31.5058 40.5819 30.8371 40.0998 30.355C39.6177 29.8701 38.9491 29.5716 38.2087 29.5716ZM38.9147 31.5431C38.7339 31.3623 38.4842 31.2504 38.2087 31.2504C37.9332 31.2504 37.6836 31.3623 37.5028 31.5431C37.322 31.7239 37.2101 31.9735 37.2101 32.249C37.2101 32.5245 37.322 32.7742 37.5028 32.955C37.6836 33.1358 37.9332 33.2477 38.2087 33.2477C38.4842 33.2477 38.7339 33.1358 38.9147 32.955C39.0955 32.7742 39.2074 32.5245 39.2074 32.249C39.2045 31.9735 39.0955 31.7239 38.9147 31.5431ZM30.6412 29.5716C29.9037 29.5716 29.2322 29.8729 28.7501 30.355C28.2652 30.84 27.9667 31.5086 27.9667 32.2461C27.9667 32.9836 28.268 33.6552 28.7501 34.1372C29.2351 34.6222 29.9037 34.9206 30.6412 34.9206C31.3816 34.9206 32.0503 34.6193 32.5352 34.1372C33.0202 33.6523 33.3186 32.9836 33.3186 32.2461C33.3186 31.5058 33.0173 30.8371 32.5352 30.355C32.0502 29.8701 31.3816 29.5716 30.6412 29.5716ZM31.3472 31.5431C31.1664 31.3623 30.9167 31.2504 30.6412 31.2504C30.3657 31.2504 30.1161 31.3623 29.9353 31.5431C29.7545 31.7239 29.6426 31.9735 29.6426 32.249C29.6426 32.5245 29.7545 32.7742 29.9353 32.955C30.1161 33.1358 30.3657 33.2477 30.6412 33.2477C30.9167 33.2477 31.1664 33.1358 31.3472 32.955C31.5279 32.7742 31.6399 32.5245 31.6399 32.249C31.6399 31.9735 31.528 31.7239 31.3472 31.5431ZM23.0737 29.5716C22.3333 29.5716 21.6647 29.8729 21.1798 30.355C20.6948 30.84 20.3963 31.5086 20.3963 32.2461C20.3963 32.9836 20.6977 33.6552 21.1798 34.1372C21.6647 34.6222 22.3333 34.9206 23.0737 34.9206C23.8141 34.9206 24.4827 34.6193 24.9648 34.1372C25.4498 33.6523 25.7482 32.9836 25.7482 32.2461C25.7482 31.5058 25.4469 30.8371 24.9648 30.355C24.4827 29.8701 23.8141 29.5716 23.0737 29.5716ZM23.7797 31.5431C23.5989 31.3623 23.3492 31.2504 23.0737 31.2504C22.7982 31.2504 22.5486 31.3623 22.3678 31.5431C22.187 31.7239 22.0751 31.9735 22.0751 32.249C22.0751 32.5245 22.187 32.7742 22.3678 32.955C22.5486 33.1358 22.7982 33.2477 23.0737 33.2477C23.3492 33.2477 23.5989 33.1358 23.7797 32.955C23.9604 32.7742 24.0724 32.5245 24.0724 32.249C24.0724 31.9735 23.9604 31.7239 23.7797 31.5431ZM83.1932 39.4977H17.6785V70.6337C17.6785 71.6467 18.0946 72.5679 18.7633 73.2365C19.4319 73.9052 20.3531 74.3213 21.3661 74.3213H79.5058C80.5188 74.3213 81.4399 73.9052 82.1086 73.2365C82.7772 72.5679 83.1933 71.6467 83.1933 70.6337L83.1905 39.4977H83.1932ZM17.6785 37.8161H83.1903V30.3661C83.1903 29.3531 82.7741 28.432 82.1055 27.7633C81.4369 27.0947 80.5157 26.6786 79.5027 26.6786H21.3659C20.353 26.6786 19.4318 27.0947 18.7631 27.7633C18.0945 28.432 17.6784 29.3531 17.6784 30.3661L17.6785 37.8161Z" stroke="black" stroke-width="0.2"/>
<path d="M71.6446 50.1142L71.2657 49.4634C71.0837 49.1469 70.6973 49.0186 70.366 49.1635L69.7236 49.4431C69.3848 49.1482 68.9946 48.9194 68.573 48.7694L68.499 48.083C68.4651 47.7144 68.1589 47.4322 67.7926 47.4322H67.051C66.6846 47.4322 66.3784 47.7144 66.3446 48.083L66.2706 48.7694C65.849 48.9194 65.4588 49.1482 65.12 49.4431L64.4775 49.1635C64.1463 49.0186 63.7598 49.1469 63.5791 49.4634L63.1964 50.1142C63.017 50.432 63.1011 50.8362 63.3922 51.0549L63.9581 51.4578C63.874 51.9014 63.874 52.3577 63.9581 52.8014L63.4085 53.2119C63.1174 53.4293 63.0321 53.8335 63.2128 54.1525L63.5955 54.8199L63.5942 54.8186C63.7749 55.1364 64.1638 55.2647 64.4939 55.1147L65.1363 54.8377V54.8389C65.4751 55.1338 65.8653 55.3626 66.2869 55.5126L66.3609 56.199C66.3948 56.5676 66.7009 56.8498 67.0673 56.8498H67.8252C68.1916 56.8498 68.4965 56.5676 68.5316 56.199L68.6056 55.5126C69.0272 55.3626 69.4174 55.1338 69.755 54.8389L70.3974 55.116V55.1147C70.7286 55.2647 71.1164 55.1364 71.2971 54.8186L71.676 54.1512V54.1525C71.8604 53.8347 71.7764 53.428 71.484 53.2119L70.9345 52.8014C71.0148 52.3577 71.0148 51.9027 70.9345 51.4578L71.484 51.0472C71.7626 50.8223 71.8316 50.4218 71.6446 50.1142ZM71.1239 50.6049L70.43 51.1324C70.3397 51.1972 70.2983 51.3129 70.3271 51.4222C70.44 51.8976 70.44 52.3946 70.3271 52.87C70.2983 52.9793 70.3397 53.0937 70.43 53.1598L71.1239 53.6771C71.1917 53.7254 71.2105 53.8169 71.1691 53.8881L70.7901 54.5555C70.7487 54.6266 70.6609 54.6559 70.5869 54.6203L69.7964 54.2695H69.7976C69.6948 54.2237 69.5756 54.2466 69.4952 54.3241C69.1452 54.6597 68.7211 54.9037 68.2581 55.0372C68.1514 55.069 68.0736 55.1631 68.0623 55.2749L67.9695 56.1405C67.9607 56.2232 67.8917 56.2854 67.8089 56.2829H67.051C66.9682 56.2854 66.8992 56.2232 66.8904 56.1405L66.7875 55.2775C66.7762 55.1656 66.6984 55.0716 66.5917 55.0411C66.1275 54.9025 65.7034 54.6546 65.3546 54.3152C65.3031 54.2644 65.2341 54.2364 65.1626 54.2364C65.1249 54.2377 65.0873 54.2453 65.0534 54.2593L64.2629 54.6101V54.6114C64.1889 54.6457 64.1011 54.6178 64.0609 54.5453L63.682 53.878L63.6807 53.8792C63.6393 53.8068 63.6594 53.7153 63.7259 53.667L64.4198 53.1496C64.5089 53.0836 64.5503 52.9692 64.5227 52.8598C64.411 52.3845 64.411 51.8887 64.5227 51.4121C64.5503 51.304 64.5101 51.1883 64.4198 51.1222L63.736 50.6049C63.6682 50.5579 63.6494 50.4651 63.6908 50.3939L64.0697 49.7431C64.1111 49.6719 64.1977 49.6427 64.273 49.6745L65.0635 50.0253L65.0622 50.0266C65.1639 50.0723 65.2831 50.052 65.3646 49.9744C65.7134 49.6351 66.1375 49.3859 66.6018 49.2486C66.7085 49.2169 66.7862 49.1228 66.7975 49.0109L66.8904 48.1453C66.8992 48.0627 66.9682 48.0004 67.051 48.0017H67.8089C67.8917 48.0004 67.9607 48.0627 67.9695 48.1453L68.0724 48.9944C68.0837 49.1063 68.1615 49.2003 68.2681 49.2321C68.7324 49.3694 69.1565 49.6185 69.5053 49.9579C69.5856 50.0355 69.7048 50.0558 69.8064 50.01L70.5969 49.6592V49.6579C70.6722 49.6262 70.7588 49.6554 70.7989 49.7266L71.1779 50.3774H71.1791C71.203 50.4143 71.2105 50.46 71.2005 50.5032C71.1904 50.5464 71.1628 50.5833 71.1239 50.6049ZM67.4299 49.9058C66.5378 49.9045 65.7335 50.4473 65.391 51.2824C65.0497 52.1163 65.2379 53.0772 65.869 53.7166C66.4989 54.3547 67.4475 54.5466 68.2719 54.1996C69.095 53.8539 69.632 53.0378 69.6308 52.134C69.6283 50.9049 68.6445 49.9071 67.4299 49.9058ZM67.4299 53.8106C66.7624 53.8106 66.1601 53.4026 65.9042 52.7785C65.6494 52.1531 65.79 51.4337 66.263 50.9557C66.7348 50.4765 67.445 50.3341 68.0623 50.5922C68.6784 50.8515 69.0812 51.4616 69.0812 52.1378C69.0787 53.0606 68.3409 53.8068 67.43 53.8068L67.4299 53.8106ZM69.5467 65.4503C69.5442 65.9307 69.3534 66.3896 69.0172 66.7264C68.6796 67.0646 68.2255 67.2527 67.7511 67.2501H67.1087C66.9682 67.2349 66.8628 67.1141 66.8628 66.9718C66.8628 66.8281 66.9682 66.7087 67.1087 66.6934H67.7511C68.4337 66.6972 68.9908 66.1418 68.9971 65.4503C68.9896 65.3715 69.0147 65.2927 69.0661 65.2329C69.1188 65.1744 69.1941 65.1401 69.2719 65.1401C69.3509 65.1401 69.425 65.1744 69.4777 65.2329C69.5304 65.2927 69.5555 65.3714 69.5467 65.4503ZM69.8428 58.2914C69.898 58.3435 69.9294 58.416 69.9306 58.4922C69.9331 58.5685 69.903 58.6422 69.8491 58.6956C69.7964 58.749 69.7236 58.7795 69.6483 58.777C69.5718 58.7744 69.5015 58.7414 69.4501 58.6855C68.3346 57.5554 66.5252 57.5554 65.4098 58.6855C65.3584 58.7414 65.2881 58.7744 65.2116 58.777C65.1363 58.7795 65.0635 58.749 65.0108 58.6956C64.9569 58.6422 64.9267 58.5685 64.9293 58.4922C64.9305 58.416 64.9619 58.3435 65.0171 58.2914C66.3509 56.944 68.5091 56.944 69.8428 58.2914ZM69.1301 59.0134H69.1288C69.1815 59.0655 69.2104 59.1367 69.2104 59.2104C69.2104 59.2842 69.1815 59.3553 69.1288 59.4075C69.0209 59.5155 68.8478 59.5155 68.7399 59.4075C68.0159 58.6766 66.844 58.6766 66.12 59.4075C66.0685 59.4608 65.9983 59.4901 65.9255 59.4901C65.8515 59.4901 65.7825 59.4608 65.731 59.4075C65.6783 59.3553 65.6494 59.2842 65.6494 59.2104C65.6494 59.1367 65.6783 59.0655 65.731 59.0134C66.1802 58.5558 66.79 58.2978 67.4274 58.2952C68.0648 58.294 68.6771 58.5482 69.1288 59.0045L69.1301 59.0134ZM78.011 51.1491C77.4677 51.1491 76.9972 51.5253 76.8704 52.0605H74.4638C74.425 50.9978 74.1489 49.9568 73.6583 49.0174L75.7424 47.801C75.9633 48.0374 76.2694 48.1721 76.5906 48.1709C77.0662 48.1709 77.4953 47.8811 77.6772 47.4362C77.8592 46.9913 77.7588 46.479 77.4225 46.1384C77.0863 45.7977 76.5806 45.696 76.1414 45.8804C75.701 46.0647 75.4149 46.4981 75.4149 46.9799C75.4174 47.0904 75.4363 47.201 75.4701 47.3053L73.3823 48.5293C72.8201 47.6332 72.0698 46.8731 71.1852 46.3036L72.3898 44.1885C72.4927 44.2228 72.6018 44.2406 72.711 44.2432C73.2794 44.2444 73.7687 43.8352 73.8766 43.2695C73.9833 42.7026 73.6784 42.1395 73.1501 41.9272C72.6207 41.7137 72.0171 41.912 71.7122 42.3988C71.4073 42.8856 71.4863 43.5237 71.9017 43.9178L70.7059 46.0304C69.7799 45.5321 68.7535 45.2537 67.7058 45.213V42.7763C68.2842 42.634 68.6682 42.0772 68.5967 41.4773C68.5264 40.8786 68.0258 40.4273 67.4297 40.4273C66.8337 40.4273 66.3331 40.8786 66.2628 41.4773C66.1913 42.0772 66.5753 42.634 67.1537 42.7763V45.213C66.1047 45.2537 65.0784 45.5334 64.1498 46.0304L62.949 43.919V43.9178C63.3568 43.5263 63.4334 42.8971 63.131 42.4166C62.8286 41.9374 62.2326 41.7416 61.7106 41.9526C61.1874 42.1624 60.8862 42.7179 60.9904 43.2771C61.0958 43.8364 61.5776 44.2419 62.1397 44.2432C62.2489 44.2406 62.3568 44.2228 62.4609 44.1885L63.6655 46.3036C62.7821 46.8731 62.0343 47.6332 61.4747 48.5293L59.3994 47.3154C59.4332 47.2099 59.4508 47.1006 59.4546 46.99C59.4546 46.4142 59.0505 45.9172 58.4922 45.8092C57.9338 45.6998 57.3767 46.01 57.1672 46.5451C56.9576 47.0815 57.1534 47.6929 57.6327 48.0018C58.1132 48.3107 58.7431 48.2306 59.1334 47.8099L61.2049 49.02V49.0213C60.7131 49.9606 60.4383 51.0003 60.3981 52.063H57.989C57.8498 51.477 57.2989 51.0893 56.7079 51.1605C56.1157 51.2317 55.6702 51.7401 55.6702 52.3427C55.6702 52.9464 56.1157 53.4549 56.7079 53.5261C57.2989 53.5972 57.8498 53.2095 57.989 52.6223H60.4019C60.4433 53.6837 60.7181 54.7222 61.2049 55.6628L59.117 56.8831C58.7306 56.4687 58.1082 56.3912 57.6352 56.6975C57.1609 57.0038 56.9689 57.6076 57.1759 58.1376C57.383 58.6664 57.9313 58.9728 58.4846 58.866C59.0367 58.7605 59.4357 58.2724 59.4383 57.7029C59.4357 57.5924 59.4169 57.4818 59.383 57.3775L61.4747 56.1573C61.6152 56.3835 61.7696 56.6009 61.9364 56.8081C62.4572 57.4487 62.7395 58.2546 62.7332 59.0859V59.4304C62.7332 60.5464 63.2539 61.5976 64.1373 62.2649C63.7621 62.4899 63.5312 62.8992 63.53 63.3415V63.4979C63.5312 63.9771 63.8023 64.4144 64.2276 64.6241V65.4503C64.2301 66.2219 64.535 66.9591 65.0758 67.5019C65.6166 68.0446 66.3469 68.3472 67.1085 68.3433H67.7509C68.5138 68.3497 69.2466 68.0472 69.7887 67.5044C70.332 66.9616 70.6381 66.2231 70.6419 65.4503V64.633C71.0647 64.4182 71.3282 63.9771 71.3232 63.4979V63.3454C71.3219 62.903 71.0911 62.4937 70.7159 62.2675C71.5992 61.6014 72.12 60.5502 72.12 59.4342V59.0986C72.1137 58.2686 72.3948 57.4615 72.9155 56.8208C73.0836 56.6136 73.238 56.3963 73.3785 56.17L75.4601 57.3636C75.4262 57.4691 75.4087 57.5784 75.4049 57.689C75.4036 58.1733 75.691 58.6093 76.1314 58.7948C76.5731 58.9817 77.08 58.8787 77.4175 58.5368C77.755 58.1949 77.8567 57.6814 77.6735 57.2339C77.489 56.7878 77.0586 56.4967 76.5806 56.498C76.2607 56.498 75.9532 56.6327 75.7337 56.8691L73.6458 55.6489C74.1326 54.7095 74.4061 53.671 74.4488 52.6097H76.8617H76.8604C76.9671 53.0533 77.3134 53.3965 77.7538 53.4944C78.1929 53.591 78.6497 53.4245 78.9282 53.066C79.2055 52.7063 79.2569 52.2182 79.0599 51.8089C78.863 51.3983 78.4514 51.1377 78.0009 51.139L78.011 51.1491ZM76.5906 46.3494C76.8441 46.3481 77.0737 46.5019 77.1716 46.7396C77.2695 46.9773 77.2168 47.2506 77.0373 47.4324C76.8579 47.6141 76.5869 47.6688 76.3522 47.5697C76.1189 47.4705 75.9658 47.2379 75.967 46.9799C75.967 46.6316 76.2468 46.3494 76.5906 46.3494ZM72.7361 42.4254V42.4241C72.9883 42.4317 73.2116 42.5894 73.3032 42.8271C73.3948 43.0648 73.3383 43.3355 73.1577 43.5135C72.977 43.6914 72.7085 43.7423 72.4763 43.6431C72.2442 43.5452 72.0936 43.3139 72.0936 43.0597C72.0924 42.8906 72.1589 42.7292 72.2768 42.6097C72.3935 42.4902 72.5541 42.4241 72.7197 42.4241L72.7361 42.4254ZM61.516 43.0597C61.5148 42.8016 61.6666 42.569 61.9012 42.4699C62.1359 42.3707 62.4056 42.4254 62.5851 42.6071C62.7645 42.7889 62.8185 43.0635 62.7206 43.2999C62.6227 43.5376 62.3931 43.6914 62.1396 43.6901C61.974 43.6901 61.8159 43.624 61.6992 43.5058C61.5813 43.3876 61.516 43.2262 61.516 43.0597ZM58.2689 47.6153C58.0167 47.6166 57.7883 47.464 57.6892 47.2289C57.5901 46.9937 57.6403 46.7217 57.8159 46.5387C57.9916 46.3556 58.2588 46.2959 58.4935 46.3887C58.7281 46.4827 58.885 46.709 58.8925 46.9645C58.8925 47.3166 58.6165 47.6038 58.2689 47.6153ZM58.2689 58.3308C58.0154 58.3321 57.7858 58.1782 57.6879 57.9406C57.5901 57.7029 57.6428 57.4296 57.8222 57.2478C58.0016 57.0648 58.2726 57.0114 58.5073 57.1105C58.7407 57.2097 58.8937 57.4423 58.8925 57.6991C58.8925 58.0473 58.6127 58.3308 58.2689 58.3308ZM76.5781 57.0648C76.8303 57.0635 77.0587 57.216 77.1578 57.4499C77.2557 57.6851 77.2067 57.9571 77.0311 58.1414C76.8554 58.3244 76.5882 58.3829 76.3535 58.2901C76.1189 58.1973 75.9608 57.9711 75.9545 57.7156C75.9545 57.3584 76.2381 57.0686 76.5907 57.0648L76.5781 57.0648ZM66.8036 41.6209C66.8036 41.3577 66.9604 41.12 67.2001 41.0196C67.4397 40.9192 67.7158 40.9751 67.9002 41.1607C68.0834 41.3476 68.1386 41.6272 68.0395 41.87C67.9404 42.1128 67.7057 42.2717 67.446 42.2717C67.0909 42.2717 66.8036 41.9806 66.8036 41.6209ZM56.8459 52.9745C56.5849 52.9745 56.349 52.8143 56.2511 52.569C56.152 52.3237 56.2097 52.0427 56.398 51.8572C56.5849 51.6729 56.8635 51.6207 57.1031 51.7275C57.3428 51.833 57.4946 52.0758 57.4883 52.3402C57.4795 52.6923 57.196 52.9732 56.8484 52.9745L56.8459 52.9745ZM67.7508 67.7842H67.1084C66.4948 67.7867 65.9063 67.5414 65.4697 67.1041C65.0343 66.6669 64.7884 66.072 64.7859 65.4504V64.7666H70.0734V65.4504C70.0658 66.7432 69.0269 67.7867 67.7508 67.7842ZM70.7697 63.498C70.7697 63.8857 70.4598 64.2009 70.0758 64.2009H64.7832C64.3992 64.2009 64.0893 63.8857 64.0893 63.498V63.3454C64.0893 62.9565 64.3992 62.6425 64.7832 62.6425H70.0758C70.4598 62.6425 70.7697 62.9565 70.7697 63.3454V63.498ZM73.0571 55.6031C72.8915 55.8916 72.7058 56.1662 72.5013 56.4267C71.8952 57.1678 71.569 58.1033 71.5828 59.0655V59.4113C71.5966 60.5362 70.9843 61.5721 69.9993 62.092H67.7056V60.179C67.7056 60.024 67.5827 59.8994 67.4296 59.8994C67.2765 59.8994 67.1535 60.024 67.1535 60.179V62.092H64.8762C63.9 61.5785 63.2877 60.5578 63.2889 59.4431V59.0986C63.3027 58.1364 62.9765 57.2009 62.3705 56.4598C61.0618 54.7946 60.6289 52.5917 61.2098 50.5479C61.7908 48.5027 63.3115 46.8692 65.2928 46.1624C67.274 45.457 69.4711 45.7671 71.1864 46.9937C72.9029 48.2203 73.9268 50.2122 73.9343 52.3401C73.9331 53.4905 73.6307 54.6204 73.0572 55.6133L73.0571 55.6031ZM78.0109 52.9642C77.7474 52.9731 77.5065 52.8168 77.4024 52.5728C77.297 52.3287 77.3509 52.044 77.5354 51.8546C77.7211 51.6665 78.0021 51.6105 78.2443 51.716C78.4852 51.8203 78.6395 52.0643 78.6332 52.33C78.6307 52.6795 78.3547 52.9643 78.0109 52.9744L78.0109 52.9642Z" stroke="black" stroke-width="0.2"/>
<defs>
<linearGradient id="paint0_linear_7581_60506" x1="11.809" y1="1.81213e-05" x2="100.05" y2="16.5617" gradientUnits="userSpaceOnUse">
<stop stop-color="#2EC4F3"/>
<stop offset="1" stop-color="#BFD633"/>
</linearGradient>
</defs>
</svg>
