<svg width="56" height="53" viewBox="0 0 56 53" fill="none" xmlns="http://www.w3.org/2000/svg">
<mask id="mask0_7200_56428" style="mask-type:alpha" maskUnits="userSpaceOnUse" x="0" y="0" width="56" height="53">
<rect width="56" height="53" fill="#D9D9D9"/>
</mask>
<g mask="url(#mask0_7200_56428)">
<path d="M4.89454 32.7405V30.6574H7.97608C8.75651 30.6574 9.43938 30.4968 10.0247 30.1754C10.61 29.8426 11.0634 29.3778 11.3847 28.781C11.7175 28.1842 11.884 27.4783 11.884 26.6635C11.884 25.8716 11.7175 25.183 11.3847 24.5976C11.0519 24.0008 10.5928 23.5418 10.0075 23.2204C9.42217 22.8876 8.74503 22.7212 7.97608 22.7212H4.8429V20.6381H8.01051C8.90571 20.6381 9.73204 20.7873 10.4895 21.0857C11.2585 21.3841 11.9241 21.8088 12.4865 22.3597C13.0603 22.8991 13.5022 23.536 13.8121 24.2705C14.1334 25.0051 14.2941 25.8084 14.2941 26.6807C14.2941 27.5529 14.1334 28.3621 13.8121 29.108C13.5022 29.8426 13.0661 30.4853 12.5037 31.0362C11.9413 31.5756 11.2757 31.9945 10.5067 32.2929C9.74926 32.5913 8.92866 32.7405 8.04495 32.7405H4.89454ZM3.29352 32.7405V20.6381H5.6348V32.7405H3.29352ZM15.2594 32.7405L20.1313 20.6381H22.0422L26.8969 32.7405H24.4007L20.6478 22.8072H21.5085L17.7039 32.7405H15.2594ZM17.8417 30.4853V28.5227H24.349V30.4853H17.8417ZM30.1298 32.7405L26.2047 20.6381H28.5115L31.4209 29.9516H30.6462L33.504 20.6381H35.2427L38.1004 29.9516H37.3085L40.2351 20.6381H42.542L38.5997 32.7405H36.8609L33.986 23.4442H34.7435L31.8857 32.7405H30.1298ZM44.1462 32.7405V20.6381H45.7817L46.4875 22.9794V32.7405H44.1462ZM52.5129 32.7405L45.3341 23.4442L45.7817 20.6381L52.9605 29.9344L52.5129 32.7405ZM52.5129 32.7405L51.8415 30.4681V20.6381H54.2V32.7405H52.5129Z" fill="black"/>
</g>
</svg>
