<svg width="300" height="100" viewBox="0 0 300 100" fill="none" xmlns="http://www.w3.org/2000/svg">
<path d="M107.034 76.8337C107.009 76.8429 107.027 76.9544 106.884 76.9727C106.622 77.0051 105.376 77.0143 105.155 76.9644C105.094 76.9502 105.091 76.8296 105.033 76.8071C103.375 76.1707 102.559 75.1698 102.358 73.3512C102.604 65.8919 102.041 58.2338 102.357 50.7987C102.714 42.3835 107.857 34.9234 115.831 32.1222C130.984 26.7994 145.878 40.4484 142.122 56.089C139.819 65.6789 130.248 72.5018 120.406 71.4668C117.477 71.159 115.976 67.7064 117.908 65.4027C119.398 63.6249 121.287 64.1831 123.301 64.0758C133.912 63.5117 139.216 50.6381 132.126 42.6514C124.548 34.1155 110.305 39.1206 109.737 50.4659C109.366 57.896 110.023 65.6357 109.74 73.0975C109.616 75.0817 108.901 76.1424 107.035 76.8346L107.034 76.8337Z" fill="#FFBE2E"/>
<path d="M15.1901 51.3634C14.9969 50.9208 14.9563 47.6363 15.0442 46.9682C15.0641 46.8143 15.1976 46.8617 15.2141 46.7919C15.3849 46.0664 15.3982 45.1446 15.5864 44.3509C17.9089 34.5505 27.4533 27.8325 37.4803 28.8783C41.7098 29.3192 41.694 35.791 37.4786 36.1994C34.8825 36.4507 33.167 36.0588 30.5577 37.0755C19.9453 41.2145 19.6261 56.4308 30.0834 60.925C38.8517 64.6938 47.6548 58.336 48.0545 49.0573C48.3671 41.7868 47.6242 34.1462 48.047 26.9199C48.3223 22.216 54.837 22.1827 55.3502 26.7543V50.222C54.5799 61.4483 45.2652 69.8635 33.997 69.3111C25.2734 68.8835 17.5167 62.2903 15.5698 53.7736C15.4463 53.2337 15.3286 51.6837 15.1893 51.3643L15.1901 51.3634Z" fill="#FFBE2E"/>
<path d="M166.021 32.6498C179.51 31.847 189.718 43.7256 185.88 56.9852C181.478 72.1991 160.23 75.3073 151.378 62.3513C143.011 50.105 151.354 33.5217 166.02 32.649L166.021 32.6498ZM167.017 39.887C152.301 40.2172 153.081 64.219 168.484 63.1566C182.202 62.2107 181.411 39.5633 167.017 39.887Z" fill="#FFBE2E"/>
<path d="M69.2809 54.5038C69.0894 54.696 69.6988 56.651 69.8232 56.9963C72.362 64.0313 80.5217 65.3524 86.4701 61.7259C87.5074 61.0937 88.582 59.8982 89.8116 59.7542C92.9773 59.3823 94.6547 63.0354 92.6614 65.4423C90.6822 67.8316 85.99 69.7393 82.9926 70.2168C69.4799 72.3666 59.278 62.0987 61.0822 48.5653C62.5656 37.4371 72.8753 30.0677 83.8583 33.3472C90.989 35.4762 96.2168 43.2841 95.7343 50.7226C95.6165 52.5337 94.0345 54.5046 92.1241 54.5046H69.2809V54.5038ZM69.4053 49.0129H87.3979C87.6873 49.0129 87.6135 48.5944 87.5944 48.3989C87.2039 44.359 84.4271 40.2533 80.2456 39.5503C74.619 38.6044 70.2991 42.4505 69.3033 47.8299C69.2461 48.1402 69.0396 48.953 69.4053 49.0137V49.0129Z" fill="#FFBE2E"/>
<path d="M228.474 54.5043C228.562 55.5093 228.881 56.5618 229.265 57.4969C232.032 64.2348 240.167 65.2232 245.879 61.6109C247.564 60.5451 248.476 59.1275 250.739 59.9936C253.068 60.8854 253.394 63.9129 251.731 65.6517C246.936 70.67 237.71 71.5685 231.485 69.1625C220.716 65.0002 217.283 51.575 222.544 41.7738C229.38 29.0408 248.059 29.5391 253.554 43.1923C254.461 45.4469 255.665 50.2639 254.496 52.4519C253.972 53.432 252.532 54.5043 251.401 54.5043H228.474ZM228.682 49.0135H246.674C246.952 49.0135 246.887 48.664 246.871 48.4835C246.501 44.4053 243.665 40.2297 239.453 39.5359C234.172 38.6665 230.116 41.9826 228.762 46.9311C228.685 47.2131 228.343 48.709 228.428 48.8454C228.45 48.8804 228.644 49.0051 228.682 49.0126V49.0135Z" fill="#FFBE2E"/>
<path d="M205.094 40.5272L205.007 40.9806C205.197 46.5963 204.769 52.3626 205.007 57.9599C205.072 59.4724 205.233 61.103 206.544 62.0748C209.096 63.9641 213.261 61.0273 214.774 64.7986C215.8 67.3552 213.92 69.0698 211.645 69.6888C204.581 71.6114 197.011 69.3194 196.798 60.955L196.785 40.7519C196.672 40.3692 195.482 40.5597 195.104 40.5256C191.354 40.1878 190.614 34.9282 194.091 33.6062C195.041 33.2452 195.693 33.523 196.509 33.3699C196.62 33.3491 196.704 33.3084 196.76 33.206C196.968 31.0846 196.623 28.7767 196.802 26.6761C196.929 25.1935 198.002 23.9681 199.314 23.3732C199.944 23.0879 201.18 22.8982 201.883 23.0587C201.947 23.0737 202.88 23.5587 203.044 23.6544C206.079 25.424 204.741 29.8649 205.005 32.835C205.022 33.0197 205.024 33.1977 205.174 33.3308L212.078 33.3924C215.369 33.8799 216.325 38.2976 213.411 40.0114C213.201 40.1345 212.206 40.5256 212.017 40.5256H205.093L205.094 40.5272Z" fill="#FFBE2E"/>
<path d="M271.757 40.402C271.774 40.4719 271.881 40.5659 271.965 40.4436C272.079 40.2755 272.191 39.8454 272.306 39.6216C273.417 37.4602 275.24 35.0975 277.37 33.887C279.827 32.4918 283.288 32.2272 284.624 35.2281C284.919 35.8887 285.102 37.2514 284.938 37.9719C284.924 38.0351 284.799 38.0368 284.78 38.0942C283.692 41.4319 281.459 40.669 278.804 41.8163C269.395 45.8829 272.219 58.2016 271.735 66.3372C271.037 70.8015 264.942 71.3314 263.584 66.9878C263.385 56.6933 263.386 46.3222 263.584 36.0284C264.511 32.4643 269.4 31.8304 271.19 35.0625C271.361 35.3712 271.757 36.3437 271.757 36.6574V40.4012L271.757 40.402Z" fill="#FFBE2E"/>
</svg>
