<svg width="90" height="18" viewBox="0 0 90 18" fill="none" xmlns="http://www.w3.org/2000/svg">
<path d="M30.6111 17.6921C30.6028 17.6951 30.6089 17.7317 30.5612 17.7378C30.474 17.7484 30.0595 17.7514 29.9862 17.735C29.9657 17.7304 29.9649 17.6907 29.9456 17.6833C29.3941 17.4742 29.1227 17.1453 29.0557 16.5476C29.1376 14.0962 28.9503 11.5794 29.0554 9.13595C29.1743 6.3704 30.8846 3.91871 33.5371 2.99814C38.577 1.24885 43.5305 5.73444 42.2815 10.8746C41.5154 14.0262 38.3321 16.2684 35.0586 15.9283C34.0845 15.8272 33.5851 14.6925 34.2276 13.9354C34.7232 13.3511 35.3517 13.5346 36.0216 13.4993C39.5507 13.314 41.3149 9.08318 38.9567 6.45843C36.4364 3.65323 31.699 5.29808 31.5101 9.02659C31.3866 11.4684 31.6053 14.012 31.5109 16.4642C31.4698 17.1163 31.2321 17.4649 30.6113 17.6924L30.6111 17.6921Z" fill="white"/>
<path d="M0.0632253 9.32201C-0.00103123 9.17656 -0.0145444 8.09713 0.0146882 7.87758C0.0213069 7.827 0.0657073 7.84258 0.0712229 7.81961C0.128033 7.5812 0.132446 7.27826 0.195048 7.01742C0.967505 3.79664 4.142 1.58884 7.477 1.93252C8.88375 2.07742 8.87851 4.20429 7.47645 4.33854C6.61298 4.42111 6.0424 4.29233 5.17452 4.62644C1.64482 5.98666 1.53864 10.9874 5.01677 12.4643C7.93314 13.7029 10.8611 11.6135 10.994 8.56411C11.098 6.17477 10.8509 3.66376 10.9915 1.2889C11.0831 -0.256964 13.2499 -0.267901 13.4206 1.2345V8.94689C13.1644 12.6363 10.0663 15.4019 6.31845 15.2203C3.41698 15.0798 0.837062 12.913 0.189532 10.1141C0.148441 9.93664 0.10928 9.42727 0.0629496 9.32228L0.0632253 9.32201Z" fill="white"/>
<path d="M50.2303 3.17067C54.7167 2.90683 58.1118 6.8106 56.8355 11.1682C55.3711 16.1681 48.304 17.1896 45.3598 12.9317C42.5769 8.90712 45.3518 3.4572 50.23 3.17039L50.2303 3.17067ZM50.5615 5.54908C45.667 5.65762 45.9262 13.5455 51.0494 13.1964C55.6121 12.8855 55.349 5.44272 50.5615 5.54908Z" fill="white"/>
<path d="M18.0536 10.3536C17.9899 10.4167 18.1926 11.0593 18.234 11.1727C19.0784 13.4847 21.7924 13.9189 23.7708 12.7271C24.1158 12.5193 24.4732 12.1264 24.8822 12.0791C25.9351 11.9569 26.493 13.1574 25.8301 13.9484C25.1718 14.7336 23.6111 15.3606 22.6142 15.5175C18.1198 16.224 14.7266 12.8496 15.3267 8.40196C15.8201 4.74481 19.2491 2.32293 22.9021 3.40072C25.2738 4.10038 27.0126 6.66635 26.8521 9.11092C26.8129 9.70614 26.2867 10.3539 25.6514 10.3539H18.0536V10.3536ZM18.095 8.54906H24.0794C24.1757 8.54906 24.1511 8.41153 24.1448 8.34728C24.0149 7.0196 23.0913 5.67031 21.7005 5.43928C19.8291 5.12841 18.3923 6.39239 18.0611 8.16027C18.0421 8.26225 17.9734 8.52937 18.095 8.54933V8.54906Z" fill="white"/>
<path d="M71.0021 10.3534C71.0313 10.6837 71.1372 11.0295 71.2649 11.3368C72.1854 13.5512 74.8911 13.876 76.7909 12.6889C77.3513 12.3386 77.6547 11.8727 78.4073 12.1573C79.1819 12.4504 79.2903 13.4454 78.7374 14.0168C77.1426 15.666 74.074 15.9613 72.0034 15.1706C68.4216 13.8027 67.2796 9.3907 69.0297 6.16963C71.3032 1.98507 77.516 2.14884 79.3436 6.6358C79.6453 7.37675 80.0457 8.9598 79.6568 9.67887C79.4825 10.0009 79.0038 10.3534 78.6274 10.3534H71.0021ZM71.071 8.54886H77.0554C77.1478 8.54886 77.1263 8.43403 77.1208 8.3747C76.9978 7.03443 76.0546 5.66218 74.6536 5.43416C72.8969 5.14844 71.5481 6.23826 71.0978 7.86451C71.0721 7.9572 70.9582 8.44879 70.9866 8.49363C70.9938 8.50512 71.0583 8.54613 71.071 8.54859V8.54886Z" fill="white"/>
<path d="M63.2261 5.76025L63.1971 5.90926C63.2603 7.75479 63.118 9.6498 63.1971 11.4893C63.2186 11.9864 63.2722 12.5223 63.7084 12.8416C64.5573 13.4625 65.9425 12.4974 66.4458 13.7368C66.787 14.577 66.1615 15.1405 65.405 15.3439C63.0554 15.9757 60.5375 15.2225 60.4669 12.4736L60.4625 5.83407C60.425 5.7083 60.0293 5.77091 59.9032 5.7597C58.6562 5.6487 58.4099 3.92019 59.5665 3.48574C59.8825 3.36708 60.0993 3.4584 60.3707 3.40809C60.4076 3.40125 60.4355 3.38786 60.4542 3.35423C60.5235 2.65703 60.4085 1.89858 60.4683 1.20822C60.5105 0.720999 60.8673 0.318264 61.3036 0.122774C61.5132 0.0289942 61.9244 -0.0333436 62.158 0.0194248C62.1795 0.0243462 62.4898 0.183745 62.5444 0.215188C63.5537 0.796734 63.1086 2.25621 63.1966 3.23228C63.2021 3.29298 63.2029 3.35149 63.2528 3.39524L65.549 3.41547C66.6436 3.57569 66.9615 5.02751 65.9924 5.59073C65.9227 5.6312 65.5915 5.7597 65.5286 5.7597H63.2258L63.2261 5.76025Z" fill="white"/>
<path d="M85.3985 5.71955C85.404 5.74252 85.4396 5.77341 85.4675 5.73322C85.5055 5.67799 85.5427 5.53664 85.5811 5.46309C85.9503 4.75277 86.5568 3.97628 87.2653 3.57847C88.0824 3.11995 89.2335 3.03301 89.6781 4.01921C89.776 4.23629 89.8369 4.68414 89.7823 4.92092C89.7776 4.9417 89.7362 4.94224 89.7299 4.96111C89.3681 6.05804 88.6251 5.80732 87.7424 6.18435C84.6128 7.52079 85.5521 11.5692 85.3911 14.2429C85.1589 15.71 83.1316 15.8842 82.6802 14.4567C82.614 11.0735 82.6142 7.66515 82.6802 4.28223C82.9885 3.11093 84.6145 2.90259 85.2099 3.9648C85.2667 4.06623 85.3982 4.38585 85.3982 4.48893V5.71928L85.3985 5.71955Z" fill="white"/>
</svg>
