<svg width="175" height="120" viewBox="0 0 175 120" fill="none" xmlns="http://www.w3.org/2000/svg">
<mask id="mask0_6041_78740" style="mask-type:alpha" maskUnits="userSpaceOnUse" x="0" y="0" width="175" height="120">
<rect width="175" height="120" fill="#D9D9D9"/>
</mask>
<g mask="url(#mask0_6041_78740)">
<path d="M71.2084 35H104.792C109.883 35 114 39.1167 114 44.2084V76.4916C114 81.5833 109.883 85.7 104.792 85.7H71.2084C66.1167 85.7 62 81.5833 62 76.4916V44.2084C62 39.1167 66.1167 35 71.2084 35Z" fill="#00005B"/>
<path d="M82.8846 65.3309H74.8246L73.1779 70.4441C73.1346 70.639 72.9611 70.769 72.7662 70.7474H68.693C68.4546 70.7474 68.3897 70.6174 68.4546 70.3574L75.4313 50.359C75.4962 50.1423 75.5613 49.9474 75.6481 49.6874C75.7348 49.2325 75.7781 48.7558 75.7781 48.279C75.7564 48.1706 75.843 48.0623 75.9513 48.0406H81.563C81.7146 48.0406 81.823 48.1055 81.8446 48.2139L89.753 70.3139C89.8181 70.5523 89.753 70.6607 89.5362 70.6607H85.0079C84.8562 70.6823 84.7046 70.5739 84.6611 70.4223L82.8844 65.2223V65.3306L82.8846 65.3309ZM76.0813 61.0192H81.5846C81.4546 60.5643 81.2813 60.0225 81.0862 59.4592C80.8911 58.8743 80.6962 58.246 80.5013 57.596C80.2846 56.9243 80.0897 56.2743 79.873 55.6027C79.6562 54.9311 79.4613 54.3027 79.2881 53.6743C79.1148 53.0676 78.9632 52.5043 78.8113 51.9843H78.7681C78.573 52.916 78.3348 53.8476 78.0313 54.7794C77.7064 55.8194 77.3813 56.9027 77.0346 57.9862C76.753 59.0911 76.4062 60.1094 76.0813 61.0194V61.0192ZM102.515 63.3809H95.6462C95.733 64.0525 95.9495 64.7241 96.3179 65.3092C96.7079 65.8941 97.2495 66.3492 97.8995 66.6092C98.7662 66.9776 99.7195 67.1725 100.673 67.1509C101.431 67.1292 102.189 67.0641 102.926 66.9125C103.598 66.8258 104.248 66.6525 104.854 66.4141C104.963 66.3274 105.028 66.3709 105.028 66.5874V69.9025C105.028 69.9892 105.006 70.0758 104.984 70.1625C104.941 70.2276 104.898 70.2709 104.833 70.3141C104.139 70.6174 103.424 70.8341 102.666 70.9641C101.648 71.159 100.629 71.2458 99.5893 71.2241C97.9426 71.2241 96.556 70.9641 95.4293 70.4658C94.3677 70.0106 93.436 69.2958 92.6993 68.4074C92.006 67.5625 91.5077 66.609 91.2044 65.569C90.9011 64.5506 90.7493 63.489 90.7493 62.4058C90.7493 61.2358 90.9226 60.0874 91.2909 58.9606C91.6377 57.8774 92.1793 56.8806 92.9158 55.9923C93.6309 55.1255 94.5191 54.4323 95.5374 53.9339C96.5558 53.4355 97.7691 53.2623 99.1558 53.2623C100.304 53.2406 101.453 53.4574 102.514 53.9339C103.403 54.3239 104.183 54.909 104.789 55.6672C105.353 56.4039 105.808 57.2272 106.089 58.1372C106.371 59.0039 106.501 59.8921 106.501 60.7804C106.501 61.3004 106.479 61.7555 106.458 62.1672C106.414 62.5788 106.393 62.8823 106.371 63.0772C106.349 63.2288 106.219 63.3588 106.068 63.3588C105.938 63.3588 105.699 63.3804 105.353 63.4021C105.006 63.4453 104.594 63.4672 104.096 63.4672C103.597 63.4672 103.077 63.3804 102.514 63.3804L102.515 63.3809ZM95.6462 60.2176H100.218C100.781 60.2176 101.193 60.2176 101.453 60.196C101.626 60.1743 101.799 60.1309 101.951 60.0227V59.806C101.951 59.5243 101.908 59.2643 101.821 59.0043C101.431 57.7911 100.283 56.9676 99.0044 57.0111C97.8128 56.946 96.686 57.5743 96.1228 58.6578C95.8628 59.1562 95.7111 59.6762 95.646 60.2178L95.6462 60.2176Z" fill="#9999FF"/>
</g>
</svg>
