<svg width="175" height="120" viewBox="0 0 175 120" fill="none" xmlns="http://www.w3.org/2000/svg">
<mask id="mask0_6041_78754" style="mask-type:alpha" maskUnits="userSpaceOnUse" x="0" y="0" width="175" height="120">
<rect width="175" height="120" fill="#D9D9D9"/>
</mask>
<g mask="url(#mask0_6041_78754)">
<path d="M70.4444 34H104.889C110.111 34 114.333 38.2222 114.333 43.4444V76.5556C114.333 81.7778 110.111 86 104.889 86H70.4444C65.2222 86 61 81.7778 61 76.5556V43.4444C61 38.2222 65.2222 34 70.4444 34Z" fill="#330000"/>
<path d="M86.8452 65.2H78.5786L76.8897 70.4222C76.8452 70.6222 76.6674 70.7555 76.4674 70.7333H72.2897C72.0452 70.7333 71.9786 70.6 72.0452 70.3333L79.2008 49.7333C79.2674 49.5111 79.3341 49.2667 79.423 49C79.5119 48.5333 79.5563 48.0444 79.5563 47.5555C79.5341 47.4444 79.623 47.3333 79.7341 47.3111H85.4897C85.6674 47.3111 85.7563 47.3778 85.7786 47.4889L93.8897 70.3778C93.9563 70.6222 93.8897 70.7333 93.6674 70.7333H89.023C88.8674 70.7555 88.7119 70.6444 88.6674 70.4889L86.8452 65.2ZM79.8674 60.6889H85.5119C85.3786 60.2222 85.2008 59.6667 85.0008 59.0889C84.8008 58.4889 84.6008 57.8444 84.4008 57.1778C84.1786 56.4889 83.9786 55.8222 83.7563 55.1333C83.5341 54.4444 83.3341 53.8 83.1563 53.1555C82.9786 52.5333 82.823 51.9555 82.6674 51.4222H82.623C82.423 52.3778 82.1786 53.3333 81.8674 54.2889C81.5341 55.3555 81.2008 56.4667 80.8452 57.5778C80.5341 58.7111 80.2008 59.7555 79.8674 60.6889ZM98.7341 51.1111C98.0008 51.1333 97.2897 50.8444 96.7563 50.3333C96.2452 49.7778 95.9786 49.0444 96.0008 48.2889C95.9786 47.5333 96.2674 46.8222 96.8008 46.3111C97.3341 45.8 98.0452 45.5333 98.7786 45.5333C99.6452 45.5333 100.312 45.8 100.801 46.3111C101.29 46.8444 101.556 47.5555 101.534 48.2889C101.556 49.0444 101.29 49.7778 100.756 50.3333C100.245 50.8667 99.4897 51.1555 98.7341 51.1111ZM96.2452 70.4V53.2889C96.2452 53.0667 96.3341 52.9778 96.5341 52.9778H100.934C101.134 52.9778 101.223 53.0889 101.223 53.2889V70.4C101.223 70.6444 101.134 70.7555 100.934 70.7555H96.5786C96.3563 70.7555 96.2452 70.6222 96.2452 70.4Z" fill="#FF9A00"/>
</g>
</svg>
