<svg width="100" height="100" viewBox="0 0 100 100" fill="none" xmlns="http://www.w3.org/2000/svg">
<path fill-rule="evenodd" clip-rule="evenodd" d="M84.4348 52.3437C84.4348 51.7952 84.8707 51.3593 85.4191 51.3593C85.9676 51.3593 86.4035 51.7952 86.4035 52.3437V64.9999C86.4035 65.5483 85.9676 65.9843 85.4191 65.9843C84.8707 65.9843 84.4348 65.5483 84.4348 64.9999V52.3437ZM71.9191 76.5593C72.2848 76.1515 72.8895 76.1093 73.2973 76.4749C73.7051 76.8405 73.7332 77.4593 73.3816 77.8671C71.8629 79.5827 69.8801 80.5952 67.7285 80.5952C65.577 80.5952 63.5941 79.5827 62.0754 77.8671C61.7098 77.4593 61.752 76.8405 62.1598 76.4749C62.5676 76.1093 63.1863 76.1515 63.552 76.5593C64.691 77.839 66.1395 78.6265 67.7285 78.6265C69.3176 78.6124 70.7801 77.839 71.9191 76.5593ZM72.1723 67.053H76.3629C76.9113 67.053 77.3473 67.489 77.3473 68.0374V72.228C77.3473 72.7765 76.9113 73.2124 76.3629 73.2124H72.1723C71.6238 73.2124 71.1879 72.7765 71.1879 72.228V68.0374C71.1879 67.489 71.6379 67.053 72.1723 67.053ZM59.1082 67.053H63.2988C63.8473 67.053 64.2832 67.489 64.2832 68.0374V72.228C64.2832 72.7765 63.8473 73.2124 63.2988 73.2124H59.1082C58.5598 73.2124 58.1238 72.7765 58.1238 72.228V68.0374C58.1238 67.489 58.5598 67.053 59.1082 67.053ZM76.6582 62.539H58.7988C56.2676 62.539 54.1863 64.6202 54.1863 67.1515V80.553C54.1863 83.0843 56.2676 85.1655 58.7988 85.1655H76.6582C79.1895 85.1655 81.2707 83.0843 81.2707 80.553V67.1515C81.2848 64.6202 79.2035 62.539 76.6582 62.539ZM58.7988 60.5702H76.6582C76.9816 60.5702 77.3051 60.5983 77.6285 60.6405V36.7062H25.2738V75.2796C25.2738 76.8265 26.877 77.8812 28.4801 77.8812H46.902V71.103C46.902 68.9796 48.6316 67.2499 50.7691 67.2499H52.2176C52.2176 65.3796 52.9207 63.7483 54.1582 62.5108C55.3535 61.3015 56.9988 60.5702 58.7988 60.5702ZM79.5973 61.2593C81.8332 62.3843 83.2535 64.6343 83.2535 67.2358H84.6879C86.8113 67.2358 88.5551 68.9655 88.5551 71.089V77.9796C88.5551 80.103 86.8254 81.8468 84.6879 81.8468H83.1129C82.5082 84.8843 79.8082 87.1343 76.6582 87.1343H58.7988C55.6488 87.1343 52.9488 84.8843 52.3441 81.8468H50.7691C49.3348 81.8468 48.0551 81.0593 47.3801 79.8499H28.4801C25.7941 79.8499 23.291 77.9515 23.291 75.2796V29.8155C23.291 27.1577 25.7941 25.2593 28.4801 25.2593H74.4082C77.0941 25.2593 79.5973 27.1577 79.5973 29.8155V61.2593ZM33.6691 53.6796H47.7598C50.3895 53.6796 52.541 55.8312 52.541 58.4468C52.541 61.0765 50.3895 63.228 47.7598 63.228H33.6691C31.0395 63.228 28.902 61.0765 28.902 58.4468C28.902 55.8171 31.0395 53.6796 33.6691 53.6796ZM33.6691 40.714H69.2332C71.8629 40.714 74.0145 42.8655 74.0145 45.4952C74.0145 48.1249 71.8629 50.2624 69.2332 50.2624H33.6691C31.0395 50.2624 28.902 48.1108 28.902 45.4952C28.902 42.8655 31.0395 40.714 33.6691 40.714ZM36.2285 59.3608H45.2004C45.7066 59.3608 46.1145 58.953 46.1145 58.4468C46.1145 57.9405 45.7066 57.5327 45.2004 57.5327H36.2285C35.7223 57.5327 35.3145 57.9405 35.3145 58.4468C35.3145 58.953 35.7223 59.3608 36.2285 59.3608ZM35.5395 46.4093H53.3848C53.891 46.4093 54.2988 46.0015 54.2988 45.4952C54.2988 44.989 53.891 44.5812 53.3848 44.5812H35.5395C35.0332 44.5812 34.6254 44.989 34.6254 45.4952C34.6254 45.9874 35.0332 46.4093 35.5395 46.4093ZM58.8551 46.4093H64.227C64.7332 46.4093 65.141 46.0015 65.141 45.4952C65.141 44.989 64.7332 44.5812 64.227 44.5812H58.8551C58.3488 44.5812 57.941 44.989 57.941 45.4952C57.941 45.9874 58.3488 46.4093 58.8551 46.4093ZM34.302 30.9124V31.4468C34.302 31.953 34.7098 32.3608 35.216 32.3608C35.7223 32.3608 36.1301 31.953 36.1301 31.4468V30.9124C36.1301 30.4062 35.7223 29.9983 35.216 29.9983C34.7098 29.9983 34.302 30.4062 34.302 30.9124ZM38.5629 30.9124V31.4468C38.5629 31.953 38.9707 32.3608 39.477 32.3608C39.9832 32.3608 40.391 31.953 40.391 31.4468V30.9124C40.391 30.4062 39.9832 29.9983 39.477 29.9983C38.9707 29.9983 38.5629 30.4062 38.5629 30.9124ZM30.0551 30.9124V31.4468C30.0551 31.953 30.4629 32.3608 30.9691 32.3608C31.4754 32.3608 31.8832 31.953 31.8832 31.4468V30.9124C31.8832 30.4062 31.4754 29.9983 30.9691 29.9983C30.4629 29.9983 30.0551 30.4062 30.0551 30.9124Z" fill="black"/>
</svg>
