<svg width="175" height="120" viewBox="0 0 175 120" fill="none" xmlns="http://www.w3.org/2000/svg">
<mask id="mask0_6041_78771" style="mask-type:alpha" maskUnits="userSpaceOnUse" x="0" y="0" width="175" height="120">
<rect width="175" height="120" fill="#D9D9D9"/>
</mask>
<g mask="url(#mask0_6041_78771)">
<path d="M70.4444 34H104.889C110.111 34 114.333 38.2222 114.333 43.4444V76.5556C114.333 81.7778 110.111 86 104.889 86H70.4444C65.2222 86 61 81.7778 61 76.5556V43.4444C61 38.2222 65.2222 34 70.4444 34Z" fill="#470137"/>
<path d="M89.0463 47.666L82.3796 58.666L89.4907 70.3327C89.5351 70.4216 89.5574 70.5104 89.5351 70.5993C89.5129 70.6882 89.424 70.6215 89.2907 70.6438H84.2018C83.8463 70.6438 83.6018 70.6216 83.4463 70.3993C82.9796 69.466 82.4907 68.5549 82.024 67.6216C81.5574 66.7104 81.0463 65.7771 80.5129 64.8216C79.9796 63.866 79.4463 62.9104 78.9129 61.9327H78.8685C78.4018 62.8882 77.8907 63.8438 77.3796 64.7993C76.8685 65.7549 76.3574 66.7104 75.8685 67.6438C75.3574 68.5771 74.8463 69.5327 74.3351 70.4438C74.2463 70.666 74.0685 70.6882 73.824 70.6882H68.9351C68.8463 70.6882 68.7796 70.7327 68.7796 70.6216C68.7574 70.5327 68.7796 70.4438 68.824 70.3771L75.7351 59.0438L69.0018 47.6438C68.9351 47.5549 68.9129 47.466 68.9574 47.4216C69.0018 47.3549 69.0907 47.3327 69.1796 47.3327H74.224C74.3351 47.3327 74.4463 47.3549 74.5351 47.3771C74.624 47.4216 74.6907 47.4882 74.7574 47.5771C75.1796 48.5327 75.6685 49.4882 76.1796 50.4438C76.7129 51.3993 77.224 52.3327 77.7796 53.266C78.3129 54.1993 78.8018 55.1327 79.2685 56.0882H79.3129C79.7796 55.1104 80.2685 54.1549 80.7574 53.2215C81.2463 52.2882 81.7574 51.3549 82.2685 50.4216C82.7796 49.4882 83.2685 48.5327 83.7574 47.6216C83.7796 47.5327 83.824 47.4438 83.8907 47.3993C83.9796 47.3549 84.0685 47.3327 84.1796 47.3549H88.8685C88.9796 47.3327 89.0907 47.3993 89.1129 47.5104C89.1351 47.5327 89.0907 47.6216 89.0463 47.666ZM99.3129 71.1104C97.6685 71.1327 96.024 70.7993 94.5351 70.1104C93.1351 69.466 91.9796 68.3993 91.1796 67.0882C90.3574 65.7327 89.9574 64.0438 89.9574 62.0216C89.9351 60.3771 90.3574 58.7549 91.1796 57.3327C92.024 55.8882 93.2463 54.6882 94.7129 53.8882C96.2685 53.0216 98.1351 52.5993 100.335 52.5993C100.446 52.5993 100.602 52.5993 100.802 52.6216C101.002 52.6438 101.224 52.6438 101.491 52.666V45.6438C101.491 45.4882 101.557 45.3993 101.713 45.3993H106.224C106.335 45.3771 106.424 45.466 106.446 45.5549V66.7549C106.446 67.1549 106.468 67.5993 106.491 68.0882C106.535 68.5549 106.557 68.9993 106.58 69.3771C106.58 69.5327 106.513 69.666 106.357 69.7327C105.202 70.2216 103.98 70.5771 102.735 70.7993C101.602 70.9993 100.468 71.1104 99.3129 71.1104ZM101.491 66.666V56.8882C101.291 56.8438 101.091 56.7993 100.891 56.7771C100.646 56.7549 100.402 56.7327 100.157 56.7327C99.2907 56.7327 98.424 56.9104 97.6463 57.3104C96.8907 57.6882 96.2463 58.2438 95.7574 58.9549C95.2685 59.666 95.024 60.6216 95.024 61.7771C95.0018 62.5549 95.1351 63.3327 95.4018 64.066C95.624 64.666 95.9574 65.1993 96.4018 65.6438C96.824 66.0438 97.3351 66.3549 97.9129 66.5327C98.5129 66.7327 99.1351 66.8216 99.7574 66.8216C100.091 66.8216 100.402 66.7993 100.691 66.7771C100.98 66.7993 101.224 66.7549 101.491 66.666Z" fill="#FF61F6"/>
</g>
</svg>
