<svg width="175" height="120" viewBox="0 0 175 120" fill="none" xmlns="http://www.w3.org/2000/svg">
<mask id="mask0_6041_78761" style="mask-type:alpha" maskUnits="userSpaceOnUse" x="0" y="0" width="175" height="120">
<rect width="175" height="120" fill="#D9D9D9"/>
</mask>
<g mask="url(#mask0_6041_78761)">
<path d="M87.3347 60.0014C87.3347 55.215 91.2149 51.3347 96.0014 51.3347C100.788 51.3347 104.668 55.215 104.668 60.0014C104.668 64.788 100.788 68.6681 96.0014 68.6681C91.2149 68.6681 87.3347 64.788 87.3347 60.0014Z" fill="#1ABCFE"/>
<path d="M70 77.3322C70 72.5458 73.8802 68.6655 78.6667 68.6655H87.3334V77.3322C87.3334 82.1188 83.4532 85.9989 78.6667 85.9989C73.8802 85.9989 70 82.1188 70 77.3322Z" fill="#0ACF83"/>
<path d="M87.3347 34V51.3333H96.0014C100.788 51.3333 104.668 47.4531 104.668 42.6666C104.668 37.8801 100.788 34 96.0014 34H87.3347Z" fill="#FF7262"/>
<path d="M70 42.6667C70 47.4532 73.8802 51.3334 78.6667 51.3334H87.3334V34H78.6667C73.8802 34 70 37.8803 70 42.6667Z" fill="#F24E1E"/>
<path d="M70 60.0014C70 64.788 73.8802 68.6681 78.6667 68.6681H87.3334V51.3347H78.6667C73.8802 51.3347 70 55.215 70 60.0014Z" fill="#A259FF"/>
</g>
</svg>
