<svg width="175" height="120" viewBox="0 0 175 120" fill="none" xmlns="http://www.w3.org/2000/svg">
<mask id="mask0_6041_78747" style="mask-type:alpha" maskUnits="userSpaceOnUse" x="0" y="0" width="175" height="120">
<rect width="175" height="120" fill="#D9D9D9"/>
</mask>
<g mask="url(#mask0_6041_78747)">
<path d="M71.2083 35H104.792C109.883 35 114 39.1167 114 44.2083V76.4917C114 81.5833 109.883 85.7 104.792 85.7H71.2083C66.1167 85.7 62 81.5833 62 76.4917V44.2083C62 39.1167 66.1167 35 71.2083 35Z" fill="#001E36"/>
<path d="M73.7 70.5536V48.2586C73.7 48.1069 73.765 48.0203 73.9166 48.0203C74.285 48.0203 74.6316 48.0203 75.13 47.9986C75.65 47.9769 76.1916 47.9769 76.7766 47.9553C77.3616 47.9336 77.99 47.9336 78.6616 47.9119C79.3333 47.8903 79.9833 47.8903 80.6333 47.8903C82.41 47.8903 83.8833 48.1069 85.0966 48.5619C86.18 48.9303 87.1766 49.5369 88 50.3386C88.6933 51.0319 89.235 51.8769 89.5816 52.8086C89.9066 53.7186 90.08 54.6503 90.08 55.6253C90.08 57.4886 89.6466 59.0269 88.78 60.2403C87.9133 61.4536 86.7 62.3636 85.2916 62.8836C83.8183 63.4253 82.1933 63.6203 80.4166 63.6203C79.8966 63.6203 79.55 63.6203 79.3333 63.5986C79.1166 63.5769 78.8133 63.5769 78.4016 63.5769V70.5319C78.4233 70.6836 78.315 70.8136 78.1633 70.8353H73.96C73.7866 70.8353 73.7 70.7486 73.7 70.5536ZM78.4233 52.2019V59.4819C78.7266 59.5036 79.0083 59.5253 79.2683 59.5253H80.4166C81.2616 59.5253 82.1066 59.3953 82.9083 59.1353C83.6016 58.9403 84.2083 58.5286 84.685 57.9869C85.14 57.4453 85.3566 56.7086 85.3566 55.7553C85.3783 55.0836 85.205 54.4119 84.8583 53.8269C84.49 53.2636 83.97 52.8303 83.3416 52.5919C82.54 52.2669 81.6733 52.1369 80.785 52.1586C80.2216 52.1586 79.7233 52.1586 79.3116 52.1803C78.8783 52.1586 78.575 52.1803 78.4233 52.2019ZM103.6 58.1603C102.95 57.8136 102.257 57.5753 101.52 57.4236C100.718 57.2503 99.9166 57.1419 99.0933 57.1419C98.66 57.1203 98.205 57.1853 97.7933 57.2936C97.5116 57.3586 97.2733 57.5103 97.1216 57.7269C97.0133 57.9003 96.9483 58.1169 96.9483 58.3119C96.9483 58.5069 97.035 58.7019 97.165 58.8753C97.36 59.1136 97.62 59.3086 97.9016 59.4603C98.4 59.7203 98.92 59.9586 99.44 60.1753C100.61 60.5653 101.737 61.1069 102.777 61.7569C103.492 62.2119 104.077 62.8186 104.488 63.5553C104.835 64.2486 105.008 65.0069 104.987 65.7869C105.008 66.8053 104.705 67.8236 104.142 68.6686C103.535 69.5353 102.69 70.2069 101.715 70.5969C100.653 71.0519 99.3533 71.2903 97.7933 71.2903C96.7966 71.2903 95.8216 71.2036 94.8466 71.0086C94.0883 70.8786 93.33 70.6403 92.6366 70.3153C92.4849 70.2286 92.3766 70.0769 92.3983 69.9036V66.1336C92.3983 66.0686 92.42 65.9819 92.485 65.9386C92.55 65.8953 92.615 65.9169 92.68 65.9603C93.525 66.4586 94.4133 66.8053 95.3666 67.0219C96.19 67.2386 97.0566 67.3469 97.9233 67.3469C98.7466 67.3469 99.3316 67.2386 99.7216 67.0436C100.068 66.8919 100.307 66.5236 100.307 66.1336C100.307 65.8303 100.133 65.5486 99.7866 65.2669C99.44 64.9853 98.725 64.6603 97.6633 64.2486C96.5583 63.8586 95.5399 63.3386 94.5866 62.6886C93.9149 62.2119 93.3516 61.5836 92.94 60.8469C92.5933 60.1536 92.42 59.3953 92.4416 58.6369C92.4416 57.7053 92.7016 56.8169 93.1783 56.0153C93.7199 55.1486 94.5216 54.4553 95.4533 54.0219C96.4716 53.5019 97.75 53.2636 99.2883 53.2636C100.177 53.2636 101.087 53.3286 101.975 53.4586C102.625 53.5453 103.253 53.7186 103.838 53.9569C103.925 53.9786 104.012 54.0653 104.055 54.1519C104.077 54.2386 104.098 54.3253 104.098 54.4119V57.9436C104.098 58.0303 104.055 58.1169 103.99 58.1603C103.795 58.2036 103.687 58.2036 103.6 58.1603Z" fill="#31A8FF"/>
</g>
</svg>
