<svg width="53" height="30" viewBox="0 0 53 30" fill="none" xmlns="http://www.w3.org/2000/svg">
<path d="M0.223479 0.477224C0.408308 0.175336 0.642425 0.187659 0.950474 0.150693C4.15418 -0.225127 11.0237 0.0829215 13.9871 1.29047C25.5328 5.9913 25.4897 22.8046 13.9255 27.45C13.5374 27.604 11.073 28.4234 10.8881 28.4234H0.0140052C-0.0660875 28.1955 0.223479 27.9614 0.223479 27.8936V0.477224ZM6.56313 22.7245H9.62514C9.82229 22.7245 12.2805 21.48 12.5824 21.2459C17.7515 17.309 16.2297 7.32208 9.61281 6.0714C9.19387 5.9913 6.56313 5.72638 6.56313 6.16381V22.7184V22.7245Z" fill="black"/>
<path d="M50.215 13.332C54.5832 17.3736 53.3756 24.4525 48.5023 27.5761C43.1299 31.0201 32.6008 28.9008 31.5473 21.7294C29.9762 11.0093 43.1053 6.75819 50.215 13.332ZM41.374 15.8271C36.7102 16.4617 37.1599 24.2061 42.5569 23.7687C45.8222 23.5037 47.2762 19.5361 45.2246 17.1456C44.1834 15.9319 42.9451 15.6115 41.374 15.8271Z" fill="black"/>
<path d="M30.0184 28.4255H24.0977V10.916H29.698L30.0184 11.2364V28.4255Z" fill="black"/>
<path d="M29.7113 5.98126C26.9266 9.55463 21.0182 4.632 24.5115 1.10176C27.518 -1.9356 32.7857 2.03207 29.7113 5.98126Z" fill="black"/>
</svg>
