<svg width="56" height="53" viewBox="0 0 56 53" fill="none" xmlns="http://www.w3.org/2000/svg">
<mask id="mask0_7200_56675" style="mask-type:alpha" maskUnits="userSpaceOnUse" x="0" y="0" width="56" height="53">
<rect width="56" height="53" fill="#D9D9D9"/>
</mask>
<g mask="url(#mask0_7200_56675)">
<path d="M27.6253 1H35.8011V38.8436C31.607 39.6405 28.5277 39.9589 25.1836 39.9589C15.2027 39.9585 10 35.4468 10 26.7929C10 18.4578 15.5215 13.0429 24.0683 13.0429C25.3957 13.0429 26.4043 13.1492 27.6253 13.4675V1ZM27.6253 20.0488C26.6699 19.7304 25.8734 19.6246 24.8648 19.6246C20.7242 19.6246 18.3347 22.1726 18.3347 26.632C18.3347 30.9855 20.6179 33.3741 24.8121 33.3741C25.714 33.3741 26.4574 33.321 27.6253 33.1624V20.0488Z" fill="black"/>
<path d="M48.8054 13.6255V32.5781C48.8054 39.1082 48.3273 42.2402 46.8941 44.9476C45.5668 47.5496 43.8148 49.1949 40.2051 51L32.6133 47.3902C36.2234 45.691 37.975 44.2055 39.0898 41.9215C40.2578 39.5859 40.6301 36.8785 40.6301 29.7645V13.6255H48.8054ZM40.6297 1.04346H48.8054V9.43172H40.6297V1.04346Z" fill="black"/>
</g>
</svg>
