<svg width="175" height="120" viewBox="0 0 175 120" fill="none" xmlns="http://www.w3.org/2000/svg">
<mask id="mask0_6857_56997" style="mask-type:alpha" maskUnits="userSpaceOnUse" x="0" y="0" width="175" height="120">
<rect width="175" height="120" fill="#D9D9D9"/>
</mask>
<g mask="url(#mask0_6857_56997)">
</g>
<g clip-path="url(#clip0_6857_56997)">
<path d="M93.7382 85.9102H94.3694L104.672 80.7581L104.844 80.5157V39.3914L104.672 39.1478L94.3694 34H93.7305L93.7382 85.9102Z" fill="#5294CF"/>
<path d="M80.3311 85.9102H79.6911L69.3969 80.7581L69.188 80.3988L69.082 39.6009L69.3969 39.1478L79.6911 34H80.339L80.3311 85.9102Z" fill="#1F5B98"/>
<path d="M79.7109 34H94.362V85.9102H79.7109V34Z" fill="#2D72B8"/>
<path d="M110.066 58.7895L109.718 58.7123L104.747 58.2488L104.673 58.2855L94.3609 57.8731H79.7092L69.3968 58.2855V50.4218L69.386 50.4276L69.3968 50.4045L79.7092 48.0151H94.3609L104.673 50.4045L108.464 52.4196V51.1241L110.066 50.9488L109.9 50.6253L104.828 46.9981L104.673 47.0483L94.3609 43.8529H79.7092L69.3968 47.0483V39.1484L64.0039 45.4663V50.9841L64.0457 50.9539L65.606 51.1241V52.4462L64.0039 53.3036V58.7938L64.0457 58.7895L65.606 58.8125V61.1169L64.2598 61.1371L64.0039 61.1126V66.605L65.606 67.4665V68.8039L64.071 68.9734L64.0039 68.923V74.4399L69.3968 80.7587V72.8596L79.7092 76.0549H94.3609L104.704 72.8502L104.841 72.9105L109.847 69.3367L110.066 68.9806L108.464 68.8039V67.4933L108.254 67.4094L104.828 69.2564L104.704 69.5155L94.3609 71.8912V71.894H79.7092V71.8912L69.3968 69.5055V61.613L79.7092 62.0239V62.034H94.3609L104.673 61.613L104.908 61.7209L109.726 61.306L110.066 61.1399L108.464 61.1169V58.8125L110.066 58.7895Z" fill="#1A476F"/>
<path d="M104.676 72.8596V80.7587L110.069 74.4399V68.959L104.707 72.8502L104.676 72.8596ZM104.676 69.5227L104.707 69.5155L110.069 66.6316V61.1169L104.676 61.613V69.5227ZM104.707 50.4117L104.676 50.4045V58.2855L110.069 58.7895V53.2775L104.707 50.4117ZM104.707 47.0792L110.069 50.9488V45.4678L104.676 39.1484V47.0483L104.707 47.0591V47.0792Z" fill="#2D72B8"/>
</g>
<defs>
<clipPath id="clip0_6857_56997">
<rect width="46.072" height="52" fill="white" transform="translate(64 34)"/>
</clipPath>
</defs>
</svg>
