<svg width="175" height="120" viewBox="0 0 175 120" fill="none" xmlns="http://www.w3.org/2000/svg">
<mask id="mask0_6041_78861" style="mask-type:alpha" maskUnits="userSpaceOnUse" x="0" y="0" width="175" height="120">
<rect width="175" height="120" fill="#D9D9D9"/>
</mask>
<g mask="url(#mask0_6041_78861)">
<path d="M64.6959 60C64.6959 68.829 69.8265 76.4587 77.2668 80.0744L66.627 50.9226C65.3516 53.7788 64.6935 56.872 64.6959 60ZM102.059 58.8744C102.059 56.1179 101.068 54.2088 100.219 52.7231C99.0885 50.8857 98.0287 49.3298 98.0287 47.4925C98.0287 45.442 99.5838 43.5333 101.774 43.5333C101.873 43.5333 101.967 43.5456 102.063 43.5513C98.095 39.9156 92.8079 37.6959 87.001 37.6959C79.2086 37.6959 72.3529 41.694 68.3646 47.7496C68.8879 47.7653 69.381 47.7761 69.8 47.7761C72.1329 47.7761 75.7443 47.4933 75.7443 47.4933C76.9469 47.4223 77.0886 49.1883 75.8875 49.3306C75.8875 49.3306 74.6791 49.4728 73.3344 49.5431L81.4574 73.7035L86.3387 59.064L82.8635 49.5425C81.6624 49.4721 80.5245 49.33 80.5245 49.33C79.3226 49.2595 79.4635 47.4217 80.6654 47.4927C80.6654 47.4927 84.349 47.7757 86.5406 47.7757C88.8734 47.7757 92.4851 47.4927 92.4851 47.4927C93.6882 47.4217 93.8297 49.1877 92.6282 49.33C92.6282 49.33 91.4173 49.4721 90.0751 49.5425L98.136 73.5198L100.361 66.0852C101.325 63.0001 102.059 60.7843 102.059 58.8746L102.059 58.8744ZM87.3923 61.9511L80.7 81.3977C82.7461 82.0003 84.8681 82.3063 87.001 82.3064C89.5984 82.3064 92.0893 81.8573 94.4081 81.0421C94.3462 80.9445 94.293 80.8417 94.2492 80.7347L87.3923 61.9511ZM106.573 49.2988C106.669 50.0093 106.723 50.7719 106.723 51.5923C106.723 53.8558 106.3 56.4002 105.027 59.5816L98.2139 79.2804C104.845 75.4134 109.305 68.2293 109.305 60.0006C109.306 56.1226 108.315 52.4759 106.573 49.2988ZM87.001 34C72.6643 34 61 45.6635 61 60C61 74.3383 72.6643 86.0014 87.001 86.0014C101.337 86.0014 113.003 74.3383 113.003 60C113.003 45.6635 101.337 34 87.001 34ZM87.001 84.8097C73.322 84.8097 62.1921 73.6801 62.1921 60C62.1921 46.3209 73.3213 35.1921 87.001 35.1921C100.68 35.1921 111.808 46.3209 111.808 60C111.808 73.6801 100.68 84.8097 87.001 84.8097Z" fill="#464342"/>
</g>
</svg>
