<svg width="115" height="115" viewBox="0 0 115 115" fill="none" xmlns="http://www.w3.org/2000/svg">
<mask id="mask0_7606_86705" style="mask-type:alpha" maskUnits="userSpaceOnUse" x="0" y="0" width="115" height="115">
<rect width="115" height="115" fill="#D9D9D9"/>
</mask>
<g mask="url(#mask0_7606_86705)">
</g>
<g clip-path="url(#clip0_7606_86705)">
<path d="M39.204 75.6604C32.154 75.6604 25.094 75.6604 18.044 75.6604C16.974 75.6604 16.024 75.3604 15.164 74.7404C13.474 73.5304 12.714 71.4704 13.214 69.5004C13.724 67.4704 15.364 65.8904 17.454 65.7904C20.634 65.6404 23.814 65.6504 26.994 65.6704C28.074 65.6704 28.714 66.4004 28.684 67.3204C28.654 68.2504 27.954 68.8604 26.804 68.8704C23.894 68.8904 20.974 68.8704 18.064 68.8804C17.164 68.8804 16.534 69.3804 16.284 70.2304C16.064 70.9504 16.354 71.8104 17.054 72.2004C17.444 72.4104 17.934 72.5304 18.374 72.5304C24.254 72.5504 30.134 72.5404 36.014 72.5404C44.224 72.5404 52.424 72.5404 60.634 72.5404C61.614 72.5404 62.314 72.9804 62.484 73.6804C62.744 74.7304 62.034 75.6304 60.904 75.6404C57.764 75.6604 54.634 75.6504 51.494 75.6504C47.404 75.6504 43.314 75.6504 39.224 75.6504L39.204 75.6604Z" fill="black"/>
<path d="M54.0432 44.77C56.0732 44.77 58.1132 44.77 60.1432 44.77C61.6132 44.77 62.3132 45.69 61.8832 47.08C59.8232 53.84 57.7532 60.59 55.6732 67.35C55.3232 68.49 54.7932 68.87 53.5632 68.87C50.1832 68.87 28.4632 68.87 25.0832 68.87C24.9832 68.87 24.8832 68.87 24.7932 68.87C23.7232 68.81 22.9432 68.12 22.9532 67.25C22.9632 66.34 23.7632 65.65 24.8832 65.64C27.5032 65.62 48.4632 65.64 51.0832 65.64C52.8932 65.64 52.9032 65.64 53.4332 63.91C54.9732 58.88 56.5132 53.86 58.0532 48.83C58.3132 47.98 58.2532 47.9 57.3632 47.9C54.2032 47.9 51.0432 47.9 47.8832 47.9C46.7132 47.9 46.1332 47.39 46.1132 46.41C46.0932 45.41 46.7532 44.79 47.8632 44.78C49.9232 44.77 51.9732 44.78 54.0332 44.78L54.0432 44.77Z" fill="black"/>
<path d="M11.1205 48.0202C11.7105 50.2202 12.2705 52.2902 12.8305 54.3602C13.4505 56.6502 14.0705 58.9302 14.6805 61.2202C15.0005 62.4302 14.6105 63.2602 13.5905 63.5502C12.6705 63.8202 11.8505 63.2402 11.5305 62.0702C9.51049 54.6002 7.48049 47.1302 5.50049 39.6502C5.29049 38.8602 4.97049 38.5702 4.16049 38.6302C3.31049 38.7002 2.45049 38.6602 1.59049 38.6302C0.640493 38.6202 0.020493 37.9902 0.000492955 37.0802C-0.019507 36.1502 0.570493 35.4702 1.51049 35.4502C3.17049 35.4102 4.84049 35.4202 6.50049 35.4502C7.34049 35.4602 7.81049 35.8702 8.05049 36.7502C8.69049 39.0802 9.36049 41.4002 9.93049 43.7502C10.1305 44.5602 10.4805 44.7602 11.2705 44.7502C15.3105 44.7102 19.3505 44.7302 23.3905 44.7402C24.3505 44.7402 25.0305 45.3602 25.0905 46.2202C25.1605 47.1202 24.6205 47.7902 23.6705 47.9602C23.3805 48.0102 23.0905 48.0202 22.7905 48.0202C19.2105 48.0202 15.6405 48.0202 12.0605 48.0202C11.7805 48.0202 11.4905 48.0202 11.1105 48.0202H11.1205Z" fill="black"/>
<path d="M26.9328 88.0004C24.2228 88.0004 22.1328 85.8904 22.1328 83.1404C22.1328 80.5904 24.2928 78.4304 26.8528 78.4204C29.6328 78.4204 31.8428 80.5504 31.8328 83.2104C31.8328 85.8704 29.6428 87.9904 26.9228 87.9904L26.9328 88.0004ZM28.6128 83.1904C28.6128 82.2604 27.8528 81.5204 26.9428 81.5404C26.0628 81.5604 25.2428 82.3904 25.2628 83.2404C25.2828 84.1004 26.1128 84.8904 26.9928 84.8804C27.9128 84.8804 28.6228 84.1304 28.6128 83.1904Z" fill="black"/>
<path d="M51.721 88C49.041 87.98 46.791 85.86 46.861 83.24C46.941 80.03 49.491 78.36 51.911 78.42C54.501 78.49 56.571 80.66 56.551 83.39C56.531 85.91 54.331 88.02 51.721 88.01V88ZM51.741 81.54C50.821 81.53 50.071 82.27 50.071 83.2C50.071 84.14 50.791 84.89 51.711 84.89C52.601 84.89 53.421 84.1 53.431 83.23C53.451 82.38 52.621 81.55 51.741 81.54Z" fill="black"/>
<path d="M43.718 45.4602C45.628 43.1502 46.438 40.4602 46.128 37.4702C45.828 34.6302 44.338 31.9802 42.048 30.2102C39.758 28.4402 36.938 27.7002 34.138 28.1202C30.048 28.7402 27.128 31.0602 25.668 34.8302C24.208 38.6202 24.808 42.2002 27.438 45.4902C28.258 46.5102 28.818 47.4202 29.208 48.3502C29.628 49.3702 29.888 50.4002 29.988 51.4302C29.278 51.7102 28.748 52.2502 28.518 52.9202C28.278 53.6202 28.398 54.3802 28.838 55.0702C28.318 55.8202 28.248 56.6402 28.638 57.4602C29.038 58.3002 29.778 58.7702 30.708 58.7902C30.828 58.7902 30.868 58.8102 30.978 58.9902C31.988 60.5902 33.718 61.5502 35.608 61.5502C37.478 61.5502 39.198 60.6002 40.198 59.0102C40.308 58.8302 40.388 58.7902 40.588 58.7702C41.608 58.7102 42.438 58.0202 42.688 57.0202C42.858 56.3302 42.738 55.6602 42.328 55.0602C42.768 54.3602 42.878 53.6002 42.638 52.9002C42.408 52.2202 41.878 51.6902 41.168 51.4102V51.3902C41.398 49.2002 42.238 47.2602 43.738 45.4502L43.718 45.4602ZM39.148 51.2802H32.008C31.978 51.1102 31.948 50.9402 31.908 50.7602C31.808 50.2002 31.698 49.6202 31.548 49.0602C31.108 47.3902 30.248 45.7902 28.928 44.1502C26.808 41.5102 26.328 38.6202 27.518 35.5402C28.718 32.4302 31.028 30.6002 34.378 30.0902C36.658 29.7502 38.928 30.3402 40.778 31.7602C42.668 33.2102 43.848 35.3002 44.118 37.6502C44.388 40.0802 43.768 42.2202 42.278 44.0302C40.438 46.2502 39.418 48.6202 39.138 51.2702L39.148 51.2802ZM30.468 53.4202C30.548 53.3402 30.708 53.2902 30.918 53.2902C34.018 53.2902 37.118 53.2902 40.208 53.2902C40.408 53.2902 40.568 53.3402 40.648 53.4202C40.708 53.4802 40.738 53.5602 40.728 53.6802C40.728 53.8002 40.728 54.0402 40.218 54.0402C39.108 54.0402 37.998 54.0402 36.898 54.0402H35.518H34.598H30.928C30.388 54.0402 30.378 53.8102 30.378 53.6702C30.378 53.5602 30.408 53.4702 30.458 53.4202H30.468ZM30.678 56.0602C30.778 56.0402 30.898 56.0402 31.048 56.0402C34.068 56.0402 37.078 56.0402 40.098 56.0402C40.218 56.0402 40.348 56.0402 40.458 56.0702C40.648 56.1202 40.748 56.2602 40.728 56.4502C40.698 56.7102 40.558 56.7602 40.418 56.7702C40.158 56.7902 39.898 56.7902 39.628 56.7902H39.398H34.098C33.018 56.7902 31.948 56.7902 30.868 56.7902C30.418 56.7902 30.388 56.5802 30.378 56.4902C30.348 56.2702 30.458 56.1102 30.668 56.0602H30.678ZM37.738 58.8302C37.168 59.2902 36.408 59.5402 35.588 59.5402C34.778 59.5402 34.018 59.2802 33.448 58.8302H37.738Z" fill="#231F20"/>
<path d="M37.1987 32.4903C37.1987 32.2203 37.0887 31.9803 36.9087 31.8103C36.6987 31.6103 36.3787 31.5103 36.0087 31.5103C32.5187 31.6103 29.3787 34.1703 28.5487 37.6103C28.3887 38.2803 28.6287 38.8003 29.1887 38.9603C29.2887 38.9903 29.3887 39.0003 29.4887 39.0003C29.6487 39.0003 29.7987 38.9603 29.9287 38.8903C30.1787 38.7503 30.3687 38.4803 30.4687 38.1203C31.2487 35.3503 33.2487 33.7103 36.1087 33.5103C36.8087 33.4603 37.2087 33.0803 37.1987 32.4903Z" fill="#231F20"/>
<path d="M38.8723 36.3502C38.4623 36.0802 37.9323 36.1402 37.5923 36.5102C37.4923 36.6202 37.4123 36.7402 37.3023 36.9102L34.9823 40.3902L34.0323 41.8102C33.8823 41.6502 33.7423 41.4902 33.6023 41.3502C33.1423 40.9002 32.5423 40.8802 32.1323 41.3002C31.7223 41.7202 31.7523 42.3102 32.2023 42.7702C32.4423 43.0102 32.6823 43.2502 32.9223 43.5002L33.3123 43.8902C33.5223 44.1002 33.8423 44.3802 34.2323 44.3802C34.2623 44.3802 34.2823 44.3802 34.3123 44.3802C34.7223 44.3402 35.0123 43.9802 35.1923 43.7202L39.0723 37.9002C39.1323 37.8102 39.2023 37.7102 39.2423 37.6002C39.4423 37.1402 39.2923 36.6402 38.8923 36.3602L38.8723 36.3502Z" fill="#231F20"/>
</g>
<defs>
<clipPath id="clip0_7606_86705">
<rect width="62.51" height="60" fill="white" transform="translate(0 28)"/>
</clipPath>
</defs>
</svg>
