<svg width="175" height="120" viewBox="0 0 175 120" fill="none" xmlns="http://www.w3.org/2000/svg">
<mask id="mask0_6041_78847" style="mask-type:alpha" maskUnits="userSpaceOnUse" x="0" y="0" width="175" height="120">
<rect width="175" height="120" fill="#D9D9D9"/>
</mask>
<g mask="url(#mask0_6041_78847)">
<path d="M105.049 44.1246C105.013 43.8632 104.784 43.7186 104.595 43.7027C104.406 43.6869 100.41 43.3907 100.41 43.3907C100.41 43.3907 97.6339 40.6349 97.3292 40.3299C97.0243 40.0251 96.429 40.1178 96.1979 40.1858C96.1639 40.1958 95.5914 40.3725 94.6445 40.6655C93.7173 37.9973 92.0808 35.5453 89.2019 35.5453C89.1224 35.5453 89.0406 35.5486 88.9588 35.5532C88.1401 34.4704 87.1258 34 86.2498 34C79.5435 34 76.3395 42.3836 75.3349 46.6439C72.729 47.4514 70.8777 48.0254 70.6413 48.0997C69.1867 48.556 69.1407 48.6018 68.9497 49.9724C68.806 51.0101 65 80.4434 65 80.4434L94.6569 86L110.726 82.5238C110.726 82.5238 105.085 44.3859 105.049 44.1246ZM93.0054 41.1725L90.4959 41.9492C90.4968 41.7723 90.4977 41.5983 90.4977 41.408C90.4977 39.7498 90.2675 38.4146 89.8982 37.3561C91.3816 37.5423 92.3696 39.2301 93.0054 41.1725ZM88.0581 37.685C88.4705 38.7183 88.7387 40.2014 88.7387 42.2026C88.7387 42.305 88.7378 42.3986 88.7369 42.4933C87.1049 42.9988 85.3315 43.5477 83.5542 44.0983C84.5521 40.2468 86.4227 38.3866 88.0581 37.685ZM86.0656 35.7988C86.3551 35.7988 86.6466 35.8971 86.9257 36.0891C84.7764 37.1005 82.4727 39.6477 81.4998 44.7344L77.4031 46.0032C78.5426 42.1233 81.2486 35.7988 86.0656 35.7988Z" fill="#95BF46"/>
<path d="M104.595 43.7029C104.407 43.6871 100.41 43.3909 100.41 43.3909C100.41 43.3909 97.634 40.6351 97.3294 40.3301C97.2153 40.2166 97.0616 40.1584 96.9008 40.1334L94.6584 85.9998L110.726 82.5239C110.726 82.5239 105.085 44.3861 105.05 44.1248C105.014 43.8634 104.785 43.7188 104.595 43.7029Z" fill="#5E8E3E"/>
<path d="M89.2027 52.5817L87.2213 58.4756C87.2213 58.4756 85.4853 57.5491 83.3573 57.5491C80.2377 57.5491 80.0807 59.5068 80.0807 60.0001C80.0807 62.692 87.0976 63.7234 87.0976 70.0286C87.0976 74.9893 83.9513 78.1836 79.7089 78.1836C74.6181 78.1836 72.0146 75.0153 72.0146 75.0153L73.3778 70.5116C73.3778 70.5116 76.0538 72.8091 78.312 72.8091C79.7875 72.8091 80.3877 71.6473 80.3877 70.7985C80.3877 67.2872 74.631 67.1305 74.631 61.3607C74.631 56.5046 78.1165 51.8052 85.1524 51.8052C87.8634 51.8052 89.2027 52.5817 89.2027 52.5817Z" fill="white"/>
</g>
</svg>
