<svg width="650" height="650" viewBox="0 0 650 650" fill="none" xmlns="http://www.w3.org/2000/svg">
<path d="M45.3467 503.363H616.837" stroke="black" stroke-linecap="round" stroke-linejoin="round"/>
<path d="M100.933 255.99C116.492 255.99 129.105 243.377 129.105 227.818C129.105 212.259 116.492 199.646 100.933 199.646C85.3738 199.646 72.7607 212.259 72.7607 227.818C72.7607 243.377 85.3738 255.99 100.933 255.99Z" stroke="black" stroke-linecap="round" stroke-linejoin="round"/>
<path d="M106.655 252.073C120.049 248.912 128.344 235.492 125.183 222.098C122.022 208.704 108.601 200.409 95.2077 203.57C81.8139 206.731 73.5187 220.152 76.68 233.546C79.8412 246.939 93.2617 255.235 106.655 252.073Z" stroke="black" stroke-linecap="round" stroke-linejoin="round"/>
<path d="M100.933 230.198C102.248 230.198 103.313 229.132 103.313 227.818C103.313 226.503 102.248 225.438 100.933 225.438C99.6184 225.438 98.5527 226.503 98.5527 227.818C98.5527 229.132 99.6184 230.198 100.933 230.198Z" fill="black" stroke="black" stroke-linecap="round" stroke-linejoin="round"/>
<path d="M109.606 232.054L100.933 227.817L86.4688 243.622" stroke="black" stroke-linecap="round" stroke-linejoin="round"/>
<path d="M603.221 198.697H532.845V286.368H603.221V198.697Z" stroke="black" stroke-linecap="round" stroke-linejoin="round"/>
<path d="M600.932 201.568H535.15V283.513H600.932V201.568Z" stroke="black" stroke-linecap="round" stroke-linejoin="round"/>
<path d="M581.565 225.688H554.517V259.378H581.565V225.688Z" stroke="black" stroke-linecap="round" stroke-linejoin="round"/>
<path d="M335.856 151.316V125" stroke="black" stroke-linecap="round" stroke-linejoin="round"/>
<path d="M357.586 165.39H314.134L327.167 148.869H344.553L357.586 165.39Z" fill="black"/>
<path d="M572.627 151.316V125" stroke="black" stroke-linecap="round" stroke-linejoin="round"/>
<path d="M594.349 165.39H550.896L563.93 148.869H581.316L594.349 165.39Z" fill="black"/>
<path d="M99.0938 151.316V125" stroke="black" stroke-linecap="round" stroke-linejoin="round"/>
<path d="M120.825 165.39H77.3721L90.4053 148.869H107.783L120.825 165.39Z" fill="black"/>
<path d="M92.661 386.139C92.6739 386.124 92.681 386.105 92.681 386.085C92.681 386.065 92.6739 386.046 92.661 386.031C92.6411 386.023 92.6186 386.022 92.5984 386.03C92.5782 386.038 92.5619 386.053 92.5528 386.073C90.1811 391.771 88.3044 397.663 86.9433 403.683C85.5667 409.704 84.5303 415.798 83.839 421.935L83.3979 426.546C83.3313 427.32 83.2481 428.085 83.1981 428.859L83.065 431.173C82.9984 432.713 82.9068 434.261 82.8652 435.809V440.444L82.9152 442.758C82.9152 443.532 83.0067 444.306 83.0567 445.072C83.1732 446.612 83.2647 448.16 83.4062 449.691C83.7058 452.77 84.1636 455.825 84.6463 458.846C84.6483 458.864 84.6571 458.881 84.671 458.893C84.6848 458.906 84.7027 458.912 84.7212 458.912C84.7324 458.914 84.7438 458.912 84.7545 458.909C84.7653 458.905 84.775 458.899 84.783 458.891C84.791 458.883 84.7971 458.873 84.8008 458.863C84.8045 458.852 84.8057 458.84 84.8044 458.829C84.8044 457.281 84.7295 455.741 84.6962 454.202C84.6629 452.662 84.5214 451.139 84.5381 449.599C84.5547 448.06 84.5381 446.537 84.4881 444.997V442.7V440.403V435.809L84.613 431.215L84.6629 428.918C84.6629 428.152 84.7545 427.386 84.7961 426.629L85.0707 422.035C85.597 415.924 86.4667 409.847 87.6757 403.833C88.8245 397.803 90.4925 391.883 92.661 386.139Z" fill="black"/>
<path d="M93.3178 410.167C93.3216 410.157 93.3234 410.146 93.323 410.136C93.3225 410.125 93.3198 410.115 93.3151 410.106C93.3104 410.096 93.3038 410.088 93.2956 410.081C93.2875 410.074 93.278 410.07 93.2678 410.067C93.258 410.063 93.2475 410.061 93.237 410.062C93.2265 410.062 93.2161 410.065 93.2067 410.069C93.1973 410.074 93.189 410.081 93.1823 410.089C93.1756 410.097 93.1707 410.107 93.1679 410.117C90.5422 417.781 88.7971 425.719 87.9663 433.778C87.5585 437.798 87.134 441.818 87.0508 445.862C86.9496 449.909 87.0941 453.959 87.4836 457.988C87.4854 458.006 87.493 458.021 87.5051 458.034C87.5172 458.046 87.5331 458.053 87.5502 458.055C87.5606 458.057 87.5715 458.058 87.582 458.055C87.5925 458.053 87.6025 458.049 87.6111 458.043C87.6198 458.036 87.6271 458.028 87.6323 458.019C87.6376 458.01 87.6408 457.999 87.6417 457.988C88.1078 453.96 88.3991 449.949 88.6737 445.929C88.9484 441.909 88.9983 437.898 89.2563 433.886C89.5064 429.879 89.9815 425.889 90.6795 421.935C91.3432 417.967 92.2239 414.038 93.3178 410.167Z" fill="black"/>
<path d="M106.643 418.614C106.627 418.6 106.606 418.593 106.585 418.593C106.563 418.593 106.543 418.6 106.526 418.614C103.197 420.756 100.197 423.372 97.6213 426.379C96.3293 427.894 95.1656 429.514 94.1424 431.222L93.4267 432.521L92.8607 433.927C92.6714 434.392 92.5102 434.867 92.378 435.351C92.2282 435.825 92.0701 436.308 91.9452 436.782C90.9219 440.624 90.3027 444.563 90.0976 448.534C89.9031 452.484 90.0507 456.443 90.5387 460.368C90.5434 460.386 90.5529 460.401 90.5662 460.413C90.5795 460.425 90.596 460.432 90.6136 460.435C90.6247 460.437 90.6363 460.437 90.6474 460.435C90.6585 460.432 90.6689 460.427 90.6777 460.42C90.6865 460.413 90.6936 460.403 90.6984 460.393C90.7031 460.383 90.7054 460.371 90.7052 460.36L91.7205 448.65C91.9879 444.783 92.4742 440.935 93.177 437.123C93.2852 436.649 93.4183 436.191 93.5349 435.725C93.6483 435.257 93.7872 434.796 93.951 434.343L94.4254 432.995L95.0329 431.714C95.9614 430.013 97.0304 428.392 98.2288 426.87C100.606 423.764 103.424 421.022 106.593 418.73C106.615 418.721 106.632 418.704 106.641 418.682C106.651 418.66 106.651 418.636 106.643 418.614Z" fill="black"/>
<path d="M100.192 433.661C98.4625 434.927 97.0706 436.599 96.1394 438.53C95.168 440.43 94.4089 442.431 93.8756 444.497C93.7175 445.005 93.5926 445.521 93.4761 446.045L93.1099 447.602C92.9177 448.647 92.787 449.703 92.7188 450.764C92.7188 451.829 92.7188 452.886 92.7188 453.952C92.7996 455.013 92.9385 456.068 93.1349 457.114C93.1402 457.13 93.149 457.144 93.1606 457.155C93.1721 457.167 93.1861 457.176 93.2015 457.181C93.2233 457.184 93.2455 457.178 93.2638 457.166C93.2822 457.154 93.2955 457.136 93.3013 457.114C93.5461 456.088 93.7323 455.049 93.859 454.002C94.0254 452.97 94.1835 451.946 94.3084 450.914C94.4332 449.882 94.5913 448.875 94.6746 447.851C94.7578 446.828 94.891 445.796 95.1157 444.788C95.4727 442.76 96.0561 440.778 96.8551 438.879C97.568 436.942 98.732 435.201 100.251 433.803C100.264 433.788 100.271 433.768 100.271 433.749C100.271 433.729 100.264 433.71 100.251 433.694C100.244 433.685 100.235 433.677 100.225 433.672C100.215 433.666 100.204 433.662 100.192 433.661Z" fill="black"/>
<path d="M81.5245 445.396C81.0834 440.194 80.2261 435.051 79.4188 429.907C78.6115 424.764 77.7044 419.629 76.7639 414.511C75.8235 409.392 74.7748 404.29 73.6679 399.197C73.6624 399.18 73.6518 399.166 73.6376 399.155C73.6234 399.145 73.6064 399.14 73.5888 399.14C73.5713 399.14 73.5542 399.145 73.54 399.155C73.5258 399.166 73.5152 399.18 73.5098 399.197C74.4003 404.324 75.1743 409.467 76.0066 414.61C76.8388 419.754 77.5213 424.897 78.1704 430.057C78.8196 435.217 79.3023 440.386 79.9515 445.537L81.849 461.017C81.8542 461.036 81.865 461.052 81.88 461.064C81.8949 461.076 81.9132 461.083 81.9323 461.084C81.9525 461.082 81.9716 461.074 81.9867 461.061C82.0017 461.047 82.0119 461.029 82.0155 461.009C82.0737 459.702 82.0737 458.396 82.107 457.089C82.1403 455.782 82.0571 454.484 82.0321 453.177C81.9323 450.597 81.7076 448.001 81.5245 445.396Z" fill="black"/>
<path d="M78.3958 445.321C78.1211 443.265 77.7383 441.218 77.3471 439.179L76.6147 436.141C76.3734 435.126 76.1487 434.11 75.8574 433.111C74.8199 429.078 73.4903 425.125 71.8792 421.285L71.255 419.854L70.5642 418.455C70.1231 417.515 69.5904 416.616 69.0828 415.709C68.0646 413.881 66.8017 412.201 65.3292 410.715C65.3142 410.702 65.295 410.695 65.2752 410.695C65.2553 410.695 65.2361 410.702 65.2211 410.715C65.2058 410.731 65.1973 410.752 65.1973 410.774C65.1973 410.795 65.2058 410.816 65.2211 410.832C66.5857 412.366 67.7389 414.077 68.65 415.917C69.0994 416.841 69.5821 417.756 69.965 418.705L70.5808 420.12L71.1218 421.568C72.5612 425.421 73.7184 429.374 74.584 433.394C75.0584 435.4 75.4163 437.439 75.7575 439.453L76.2485 442.499C76.4233 443.515 76.6397 444.522 76.7812 445.537C77.1058 447.576 77.4803 449.599 77.8382 451.638C78.196 453.677 78.5206 455.707 78.9534 457.746C78.9573 457.766 78.9677 457.783 78.983 457.795C78.9982 457.807 79.0172 457.813 79.0366 457.813C79.0465 457.813 79.0562 457.811 79.0653 457.807C79.0744 457.804 79.0826 457.798 79.0896 457.791C79.0965 457.784 79.1021 457.776 79.1058 457.767C79.1096 457.758 79.1115 457.748 79.1115 457.738C79.1115 455.657 79.0644 453.58 78.97 451.504C78.8535 449.457 78.6122 447.393 78.3958 445.321Z" fill="black"/>
<path d="M74.0931 445.588C73.1276 442.858 72.0124 440.187 70.764 437.573C69.5321 434.958 68.1424 432.421 66.6027 429.975C66.587 429.963 66.568 429.957 66.5486 429.957C66.5291 429.957 66.5102 429.963 66.4945 429.975C66.4792 429.99 66.4707 430.011 66.4707 430.033C66.4707 430.055 66.4792 430.076 66.4945 430.091C67.8303 432.625 69.0115 435.238 70.0316 437.915C71.0886 440.578 72.0374 443.274 72.8363 446.021C73.6353 448.767 74.2262 451.547 74.9586 454.302C75.691 457.057 76.3485 459.828 77.1891 462.624C77.1941 462.641 77.204 462.655 77.2174 462.665C77.2308 462.676 77.247 462.682 77.264 462.683C77.2745 462.684 77.2851 462.683 77.2952 462.68C77.3053 462.676 77.3145 462.671 77.3224 462.664C77.3303 462.657 77.3365 462.648 77.3408 462.638C77.3451 462.629 77.3473 462.618 77.3472 462.608C77.3745 459.701 77.0955 456.8 76.5149 453.952C75.9343 451.103 75.1243 448.306 74.0931 445.588Z" fill="black"/>
<path d="M73.9179 454.676C73.3806 452.977 72.6103 451.361 71.6291 449.874C70.7103 448.344 69.5907 446.944 68.3001 445.712C67.637 445.141 66.927 444.626 66.1778 444.173C65.4352 443.691 64.6244 443.323 63.7726 443.082C63.7622 443.079 63.7512 443.077 63.7401 443.077C63.729 443.078 63.7182 443.08 63.7081 443.085C63.6878 443.094 63.6721 443.111 63.6644 443.132C63.6566 443.153 63.6576 443.176 63.6669 443.197C63.6763 443.217 63.6933 443.233 63.7143 443.24C65.2481 443.977 66.6072 445.033 67.7009 446.336C68.8085 447.61 69.7406 449.027 70.4723 450.548C71.3046 452.037 71.6707 453.685 72.3615 455.225C72.6611 456.016 72.9608 456.815 73.3103 457.597C73.6151 458.415 73.9709 459.212 74.3756 459.986C74.3827 460 74.3934 460.012 74.4065 460.02C74.4196 460.029 74.4348 460.034 74.4505 460.036C74.4614 460.036 74.4723 460.033 74.4824 460.029C74.4925 460.025 74.5016 460.019 74.5094 460.011C74.5171 460.003 74.5232 459.994 74.5274 459.984C74.5316 459.974 74.5337 459.963 74.5337 459.952C74.563 459.066 74.5296 458.179 74.4339 457.297C74.309 456.407 74.1259 455.541 73.9179 454.676Z" fill="black"/>
<path d="M74.2344 406.646C71.6373 405.919 69.2879 404.498 67.4398 402.534C65.5918 400.57 64.3152 398.138 63.7479 395.502C61.7837 386.347 68.1172 390.259 62.4412 375.835C56.7652 361.412 58.0718 358.142 60.036 353.989C62.0001 349.836 63.0904 351.151 64.8381 356.61C66.5859 362.07 72.9277 370.592 75.3246 386.572C77.7216 402.551 74.2344 406.646 74.2344 406.646Z" fill="#BFD633"/>
<path d="M91.0628 391.132C91.0628 391.132 85.3784 389.168 85.1621 378.457C84.9457 367.746 89.3234 369.943 89.9642 356.61C90.6051 343.277 91.4956 333.889 93.9008 333.673C96.3061 333.457 102.64 340.223 104.828 355.12C107.017 370.018 101.99 379.814 97.621 384.183C93.2516 388.552 91.0628 391.132 91.0628 391.132Z" fill="#BFD633"/>
<path d="M71.1805 419.538C71.1805 419.538 69.8738 411.715 67.2439 407.953C64.6139 404.191 58.9213 400.962 55.226 393.754C51.5308 386.547 47.3611 383.051 47.5858 393.313C47.8106 403.575 52.388 408.827 58.0724 412.322C63.7567 415.818 71.1805 419.538 71.1805 419.538Z" fill="#BFD633"/>
<path d="M68.7745 433.079C68.7745 433.079 63.5312 423.033 55.8827 415.601C48.2342 408.169 42.1171 404.457 44.306 408.169C46.4948 411.881 49.1081 411.673 52.8283 418.223C56.5486 424.773 55.45 429.583 60.6932 433.295C65.9365 437.007 68.7745 433.079 68.7745 433.079Z" fill="#BFD633"/>
<path d="M68.1168 445.97C67.9004 445.313 67.684 440.511 60.2519 436.574C52.8198 432.637 45.8371 434.169 46.7109 436.141C47.5848 438.114 52.1706 441.384 56.7564 443.349C61.3421 445.313 68.1168 445.97 68.1168 445.97Z" fill="#BFD633"/>
<path d="M90.6215 419.971C90.6215 419.971 87.3423 415.809 89.0901 407.079C90.8379 398.348 94.7745 400.529 99.1438 395.935C103.513 391.341 102.639 390.692 107.009 385.889C111.378 381.087 115.331 378.457 117.054 380.43C118.777 382.402 116.222 388.511 113.559 392.007C110.895 395.502 106.792 397.25 104.82 401.619C102.847 405.989 103.73 412.98 98.7027 416.259C93.6759 419.538 90.6215 419.971 90.6215 419.971Z" fill="#BFD633"/>
<path d="M101.55 422.376C101.55 422.376 109.415 413.421 115.091 406.862C120.767 400.304 122.956 395.286 123.172 399.655C123.388 404.024 125.144 407.52 120.55 413.196C115.956 418.872 101.55 422.376 101.55 422.376Z" fill="#BFD633"/>
<path d="M97.3958 436.79C97.3958 436.79 97.1794 433.295 109.63 425.213C122.081 417.132 127.324 415.601 126.017 418.88C124.711 422.159 119.243 425.43 113.342 431.364C107.441 437.298 97.3958 436.79 97.3958 436.79Z" fill="#BFD633"/>
<path d="M74.7578 405.714C74.7578 405.714 71.8283 390.075 68.7739 378.898C65.7194 367.721 63.7803 360.979 63.7803 360.979" stroke="black" stroke-width="0.5" stroke-linecap="round" stroke-linejoin="round"/>
<path d="M90.5547 391.299C90.5547 391.299 95.8645 374.313 97.6123 364.042C99.36 353.772 97.3959 346.124 96.522 341.571" stroke="black" stroke-width="0.5" stroke-linecap="round" stroke-linejoin="round"/>
<path d="M70.4887 419.205C68.1341 415.162 65.4418 411.326 62.4407 407.736C57.6302 402.052 53.9183 398.998 51.7295 393.538" stroke="black" stroke-width="0.5" stroke-linecap="round" stroke-linejoin="round"/>
<path d="M90.6211 419.97C90.6211 419.97 92.3688 409.484 96.5218 404.024C100.675 398.565 109.006 390.042 112.252 384.574" stroke="black" stroke-width="0.5" stroke-linecap="round" stroke-linejoin="round"/>
<path d="M67.6009 445.729C67.6009 445.729 60.252 440.944 55.0088 438.322" stroke="black" stroke-width="0.5" stroke-linecap="round" stroke-linejoin="round"/>
<path d="M93.8839 503.363H73.3104L68.8994 454.518H98.2949L93.8839 503.363Z" fill="black" stroke="black" stroke-linecap="round" stroke-linejoin="round"/>
<path d="M429.145 206.678H223.276V347.913H429.145V206.678Z" fill="black" stroke="black" stroke-linecap="round" stroke-linejoin="round"/>
<path d="M425.882 210.082H226.547V344.501H425.882V210.082Z" fill="white" stroke="black" stroke-linecap="round" stroke-linejoin="round"/>
<path d="M327.225 244.13H297.93V267.616H327.225V244.13Z" fill="#2EC4F3"/>
<path d="M357.528 267.999H328.232V291.485H357.528V267.999Z" fill="#BFD633"/>
<path d="M327.225 314.972H297.93V338.458H327.225V314.972Z" fill="#2EC4F3"/>
<path d="M388.222 221.018H358.927V244.504H388.222V221.018Z" fill="#BFD633"/>
<path d="M237.059 224.43V338.466" stroke="black" stroke-linecap="round" stroke-linejoin="round"/>
<path d="M267.236 224.43V338.466" stroke="black" stroke-linecap="round" stroke-linejoin="round"/>
<path d="M297.422 224.43V338.466" stroke="black" stroke-linecap="round" stroke-linejoin="round"/>
<path d="M327.601 224.43V338.466" stroke="black" stroke-linecap="round" stroke-linejoin="round"/>
<path d="M357.786 224.43V338.466" stroke="black" stroke-linecap="round" stroke-linejoin="round"/>
<path d="M387.965 224.43V338.466" stroke="black" stroke-linecap="round" stroke-linejoin="round"/>
<path d="M418.15 224.43V338.466" stroke="black" stroke-linecap="round" stroke-linejoin="round"/>
<path d="M237.815 244.13H418.533" stroke="black" stroke-linecap="round" stroke-linejoin="round"/>
<path d="M237.815 267.616H418.533" stroke="black" stroke-linecap="round" stroke-linejoin="round"/>
<path d="M237.815 291.111H418.533" stroke="black" stroke-linecap="round" stroke-linejoin="round"/>
<path d="M237.815 314.597H418.533" stroke="black" stroke-linecap="round" stroke-linejoin="round"/>
<path d="M302.216 248.299H320.401" stroke="black" stroke-linecap="round" stroke-linejoin="round"/>
<path d="M302.216 251.328H320.401" stroke="black" stroke-linecap="round" stroke-linejoin="round"/>
<path d="M302.216 254.358H320.401" stroke="black" stroke-linecap="round" stroke-linejoin="round"/>
<path d="M302.216 257.388H320.401" stroke="black" stroke-linecap="round" stroke-linejoin="round"/>
<path d="M302.216 260.417H320.401" stroke="black" stroke-linecap="round" stroke-linejoin="round"/>
<path d="M334.042 273.684H352.227" stroke="black" stroke-linecap="round" stroke-linejoin="round"/>
<path d="M334.042 276.713H352.227" stroke="black" stroke-linecap="round" stroke-linejoin="round"/>
<path d="M334.042 279.742H352.227" stroke="black" stroke-linecap="round" stroke-linejoin="round"/>
<path d="M334.042 282.771H352.227" stroke="black" stroke-linecap="round" stroke-linejoin="round"/>
<path d="M334.042 285.801H352.227" stroke="black" stroke-linecap="round" stroke-linejoin="round"/>
<path d="M302.974 320.281H321.159" stroke="black" stroke-linecap="round" stroke-linejoin="round"/>
<path d="M302.974 323.312H321.159" stroke="black" stroke-linecap="round" stroke-linejoin="round"/>
<path d="M302.974 326.341H321.159" stroke="black" stroke-linecap="round" stroke-linejoin="round"/>
<path d="M302.974 329.37H321.159" stroke="black" stroke-linecap="round" stroke-linejoin="round"/>
<path d="M302.974 332.399H321.159" stroke="black" stroke-linecap="round" stroke-linejoin="round"/>
<path d="M363.213 227.459H381.398" stroke="black" stroke-linecap="round" stroke-linejoin="round"/>
<path d="M363.213 230.489H381.398" stroke="black" stroke-linecap="round" stroke-linejoin="round"/>
<path d="M363.213 233.519H381.398" stroke="black" stroke-linecap="round" stroke-linejoin="round"/>
<path d="M363.213 236.548H381.398" stroke="black" stroke-linecap="round" stroke-linejoin="round"/>
<path d="M363.213 239.586H381.398" stroke="black" stroke-linecap="round" stroke-linejoin="round"/>
<path d="M571.569 417.907H580.449V402.136H571.569V417.907Z" fill="black" stroke="black" stroke-linecap="round" stroke-linejoin="round"/>
<path d="M567.575 406.938H585.81C592.994 406.938 598.818 401.114 598.818 393.929V352.25C598.818 345.065 592.994 339.241 585.81 339.241H567.575C560.391 339.241 554.567 345.065 554.567 352.25V393.929C554.567 401.114 560.391 406.938 567.575 406.938Z" fill="#949494" stroke="black" stroke-linecap="round" stroke-linejoin="round"/>
<path d="M589.962 500.543C589.96 499.798 590.18 499.069 590.592 498.45C591.005 497.83 591.593 497.346 592.28 497.06C592.968 496.775 593.725 496.699 594.456 496.844C595.186 496.989 595.857 497.348 596.384 497.874C596.91 498.401 597.269 499.072 597.414 499.802C597.559 500.533 597.483 501.29 597.198 501.978C596.912 502.665 596.428 503.253 595.809 503.666C595.189 504.078 594.46 504.298 593.715 504.296C592.72 504.296 591.765 503.901 591.061 503.197C590.357 502.493 589.962 501.538 589.962 500.543Z" fill="black" stroke="black" stroke-linecap="round" stroke-linejoin="round"/>
<path d="M516.549 500.543C516.547 499.798 516.767 499.069 517.179 498.45C517.592 497.83 518.18 497.346 518.867 497.06C519.555 496.775 520.312 496.699 521.043 496.844C521.773 496.989 522.444 497.348 522.971 497.874C523.497 498.401 523.856 499.072 524.001 499.802C524.145 500.533 524.07 501.29 523.785 501.978C523.499 502.665 523.015 503.253 522.395 503.666C521.776 504.078 521.047 504.298 520.302 504.296C519.307 504.296 518.352 503.901 517.648 503.197C516.944 502.493 516.549 501.538 516.549 500.543Z" fill="black" stroke="black" stroke-linecap="round" stroke-linejoin="round"/>
<path d="M555.182 500.542C555.182 498.461 555.964 496.78 556.929 496.78C557.895 496.78 558.677 498.445 558.677 500.542C558.677 502.639 557.895 504.296 556.929 504.296C555.964 504.296 555.182 502.614 555.182 500.542Z" fill="black" stroke="black" stroke-linecap="round" stroke-linejoin="round"/>
<path d="M553.509 480.143V426.279H560.883V480.368L597.286 494.766V498.378H591.993V495.316L556.921 488.083L521.841 495.316V498.378H516.557V494.766L553.509 480.143Z" fill="black" stroke="black" stroke-linecap="round" stroke-linejoin="round"/>
<path d="M558.778 498.37H555.083L554.292 480.884H559.569L558.778 498.37Z" fill="black" stroke="black" stroke-linecap="round" stroke-linejoin="round"/>
<path d="M547.834 435.368H566.585V424.232H547.834V435.368Z" fill="black" stroke="black" stroke-linecap="round" stroke-linejoin="round"/>
<path d="M529.307 428.327H586.866C589.583 428.327 591.785 426.125 591.785 423.408V418.889C591.785 416.173 589.583 413.971 586.866 413.971H529.307C526.591 413.971 524.389 416.173 524.389 418.889V423.408C524.389 426.125 526.591 428.327 529.307 428.327Z" fill="#949494" stroke="black" stroke-linecap="round" stroke-linejoin="round"/>
<path d="M500.753 485.486C498.605 488.449 495.903 490.968 492.796 492.902C488.094 495.607 480.87 496.697 480.87 498.137C480.87 499.577 481.411 502.115 486.829 502.839C492.247 503.563 515.75 503.921 518.821 503.197C521.892 502.473 519.004 487.292 519.004 487.292C519.004 487.292 504.723 488.016 500.753 485.486Z" fill="black"/>
<path d="M486.837 502.839C492.263 503.563 515.758 503.921 518.829 503.197C519.612 503.014 520.011 501.89 520.161 500.309C513.611 500.517 500.836 500.708 493.171 500.309C482.867 499.768 480.878 498.137 480.878 498.137C480.87 499.585 481.411 502.115 486.837 502.839Z" fill="#2A2A2A"/>
<path d="M484.481 344.152C484.481 344.152 485.93 365.482 487.195 374.521C488.46 383.559 493.162 420.42 496.233 429.999C499.304 439.579 502.558 480.768 502.558 480.768C502.558 480.768 499.121 482.033 499.304 483.472C499.487 484.912 499.662 487.093 499.662 487.093C499.662 487.093 506.711 490.888 510.873 490.888C515.034 490.888 520.269 489.115 520.269 489.115C520.269 489.115 519.187 473.027 518.604 460.377C518.022 447.727 512.828 393.863 512.828 393.863L511.805 340.182L484.481 344.152Z" fill="white"/>
<path d="M515.026 489.465C515.026 489.465 515.393 492.902 506.354 495.973C497.316 499.044 496.234 502.298 497.316 505.012C498.398 507.725 517.199 507.716 524.248 506.634C531.297 505.552 534.909 505.186 535.45 503.746C535.991 502.307 534.002 491.263 534.002 491.263L515.026 489.465Z" fill="black"/>
<path d="M535.449 503.746C535.567 503.106 535.584 502.452 535.499 501.807C533.003 502.264 529.674 502.889 525.329 503.746C515.675 505.618 502.941 504.511 497.032 503.812C497.082 504.224 497.185 504.627 497.34 505.011C498.422 507.716 517.223 507.716 524.272 506.634C531.321 505.552 534.908 505.186 535.449 503.746Z" fill="#2A2A2A"/>
<path d="M490.999 349.394L496.242 355.72C496.242 355.72 500.212 399.455 501.66 410.849C503.108 422.242 509.983 462.899 509.983 462.899L514.302 484.587L513.22 487.292C512.95 488.484 512.95 489.721 513.22 490.912C513.404 491.637 513.037 492.178 519.879 493.259C524.437 493.889 529.061 493.889 533.619 493.259C534.216 491.639 534.521 489.926 534.518 488.199C534.608 485.837 534.426 483.471 533.977 481.15C533.436 478.262 533.977 462.898 530.007 446.453C526.037 430.007 523.133 411.024 523.133 404.698C523.133 398.373 523.316 361.321 523.499 360.588C523.682 359.856 527.111 357.509 527.294 350.826C527.477 344.143 526.57 341.604 526.57 341.604H491.349" fill="white"/>
<path d="M490.807 259.935C490.807 259.935 482.676 280.217 482.135 293.533C481.594 306.849 482.135 325.883 482.318 326.607C482.501 327.331 480.329 342.512 481.594 344.859C481.868 345.504 482.366 346.029 482.996 346.335C483.627 346.641 484.347 346.708 485.023 346.523C485.023 346.523 524.606 347.064 526.412 346.698C528.218 346.332 528.584 343.993 528.908 342.179C529.233 340.365 527.826 318.876 527.826 315.613C527.826 312.351 528.908 276.031 524.389 265.91C519.87 255.79 508.668 247.476 507.22 247.118C505.771 246.76 494.061 250.713 490.807 259.935Z" fill="#2EC4F3"/>
<path d="M471.024 220.128C471.024 220.128 469.643 226.786 470.051 227.319C470.458 227.851 471.848 230.498 471.848 230.498L468.253 240.319L472.547 241.559L478.631 252.07L488.044 249.424L490.816 262.008C490.816 262.008 490.399 266.568 492.48 265.337C494.561 264.105 496.35 262.707 500.362 255.791C504.373 248.874 508.376 247.776 508.376 247.776C508.376 247.776 503.383 241.118 502.434 239.062C501.485 237.006 502.018 233.536 500.362 225.097C498.705 216.658 493.029 214.868 485.289 214.868C477.549 214.868 471.732 216.391 471.024 220.128Z" fill="#FFC3BD"/>
<path d="M474.911 212.246C474.911 212.246 468.686 213.628 467.579 214.876C466.472 216.125 468.137 219.986 469.66 220.819C471.183 221.651 481.012 219.462 480.854 220.128C480.696 220.794 479.189 222.625 480.854 223.307C482.518 223.99 489.176 225.804 489.176 225.804L487.512 238.529C487.512 238.529 479.356 238.113 477.417 238.529C475.477 238.945 472.581 241.567 472.581 241.567C472.581 241.567 476.151 252.486 476.851 253.585C477.55 254.683 479.472 254.417 481.686 253.585C483.9 252.753 492.888 246.253 493.854 245.42C494.819 244.588 492.747 236.432 492.747 236.432C492.747 236.432 493.021 229.657 493.021 228.276C493.021 226.894 494.819 226.894 496.068 227.86C497.316 228.825 497.732 232.562 497.449 233.943C497.102 235.008 496.482 235.964 495.651 236.715C495.651 236.715 500.903 240.718 502.01 240.718C502.354 240.749 502.697 240.655 502.977 240.453C503.257 240.251 503.454 239.955 503.533 239.619C503.674 239.203 503.391 227.31 503.391 227.31C503.391 227.31 503.674 215.975 502.151 212.379C500.628 208.784 493.438 207.81 488.877 208.501C484.316 209.192 474.911 212.246 474.911 212.246Z" fill="black" stroke="black" stroke-linecap="round" stroke-linejoin="round"/>
<path d="M476.018 231.055C476.151 231.813 475.926 232.479 475.51 232.553C475.094 232.628 474.678 232.071 474.52 231.322C474.362 230.573 474.62 229.899 475.036 229.832C475.452 229.765 475.876 230.281 476.018 231.055Z" stroke="black" stroke-linecap="round" stroke-linejoin="round"/>
<path d="M472.972 228.284C473.462 227.753 474.136 227.429 474.856 227.378C475.577 227.327 476.29 227.553 476.85 228.009" stroke="black" stroke-linecap="round" stroke-linejoin="round"/>
<path d="M476.983 243.498C476.983 243.498 480.163 242.524 481.145 240.318" stroke="#FFC3BD" stroke-linecap="round" stroke-linejoin="round"/>
<path d="M514.127 306.017C514.127 306.017 506.353 340.539 505.629 342.345C504.905 344.151 501.817 351.383 501.817 351.383L510.315 358.791C510.315 358.791 511.58 356.801 512.662 352.132C513.335 349.098 513.758 346.014 513.927 342.911C513.927 342.911 526.219 316.711 528.2 313.091C530.181 309.471 528.749 306.766 528.749 305.867C528.749 304.968 514.127 306.017 514.127 306.017Z" fill="#FFC3BD"/>
<path d="M508.518 266.618C508.518 266.618 506.537 272.943 506.712 276.014C506.887 279.085 511.048 297.528 511.048 297.528C511.048 297.528 508.884 299.518 509.608 300.233C510.281 301.012 510.885 301.848 511.414 302.73C511.414 302.73 509.75 303.995 511.414 305.809C513.079 307.624 512.313 308.514 519.903 308.306C527.494 308.098 529.849 307.757 530.723 306.317C531.597 304.877 532.712 303.82 531.813 302.339L530.948 300.957C531.513 299.842 531.764 298.593 531.672 297.345C531.489 295.356 530.224 293.009 530.224 292.102C530.224 291.195 530.049 278.911 527.727 269.331C525.405 259.752 515.443 254.509 513.628 254.351" fill="#65D9FD"/>
<path d="M402.022 357.726C402.022 357.726 402.313 369.061 402.313 369.486C402.313 369.91 400.89 377.991 401.598 381.82C402.305 385.648 407.981 390.891 407.981 390.891L408.547 356.769L402.022 357.726Z" fill="#FFB573"/>
<path d="M419.125 279.551C419.125 279.551 402.479 299.824 401.98 302.072C401.481 304.319 397.128 359.24 397.128 359.764C397.128 360.288 403.886 362.885 406.657 362.885H410.636C410.636 362.885 405.958 325.117 408.039 311.085C410.12 297.053 415.146 293.066 418.958 287.698C422.77 282.33 422.753 278.169 419.125 279.551Z" fill="#2EC4F3"/>
<path d="M419.999 486.402C419.999 486.402 415.663 492.635 413.241 494.025C410.819 495.415 402.846 498.702 402.497 499.568C402.147 500.434 402.155 502.514 402.846 502.689C403.537 502.864 415.488 502.514 422.771 502.514C430.053 502.514 434.897 502.855 435.762 501.99C436.628 501.124 435.937 489.864 435.063 487.617L434.231 485.361L421.239 485.012L419.999 486.402Z" fill="#EBEBEB"/>
<path d="M436.071 500.949H402.272C402.272 501.781 402.422 502.614 402.847 502.689C403.537 502.855 415.489 502.514 422.771 502.514C430.053 502.514 434.897 502.855 435.763 501.99C435.951 501.674 436.057 501.316 436.071 500.949Z" fill="black"/>
<path d="M403.363 355.777L405.618 366.347C405.618 366.347 405.269 393.895 408.04 405.846C409.752 413.587 410.681 421.481 410.811 429.408C410.811 429.408 414.623 448.292 416.013 453.66C417.403 459.028 418.959 481.724 418.959 481.724C418.959 481.724 417.569 482.764 417.744 483.455C417.919 484.146 418.435 488.448 418.435 488.448C418.435 488.448 419.126 488.448 424.677 488.964C427.492 489.293 430.332 489.351 433.158 489.139L435.064 487.583C435.17 485.737 435.17 483.886 435.064 482.04C434.897 478.919 433.857 476.489 433.857 474.417C433.857 472.344 432.642 426.603 432.642 426.603L433.158 354.879L402.847 353.147L403.363 355.777Z" fill="#131313"/>
<path d="M436.969 486.052C436.129 488.114 435.086 490.088 433.856 491.944C432.291 494.025 425.883 497.662 423.286 499.043C422.52 499.486 421.88 500.116 421.426 500.875C420.971 501.634 420.718 502.496 420.689 503.379C420.689 503.379 426.574 503.554 445.982 502.855L454.305 502.514C454.399 500.895 454.34 499.27 454.13 497.662C453.789 495.065 453.439 488.507 453.439 488.507L436.969 486.052Z" fill="white"/>
<path d="M445.982 502.856L454.305 502.515C454.359 501.581 454.359 500.644 454.305 499.71L421.147 501.374C420.873 502.001 420.718 502.672 420.689 503.355C420.689 503.355 426.574 503.555 445.982 502.856Z" fill="black"/>
<path d="M414.432 368.079L421.015 374.487C421.015 374.487 423.62 399.455 426.217 414.161C428.814 428.868 435.572 466.827 435.572 469.923C435.572 473.019 436.953 481.017 436.953 481.017C436.953 481.017 436.437 481.184 436.262 482.399C436.088 483.614 436.071 488.283 436.071 488.283C438.65 489.494 441.397 490.31 444.219 490.705C447.451 490.876 450.691 490.821 453.915 490.538C454.24 488.759 454.473 486.965 454.614 485.162C454.614 483.78 454.089 477.713 454.439 475.291C454.788 472.869 457.21 460.56 456.52 447.052C455.829 433.545 451.667 412.58 451.667 412.58L453.049 382.086C454.696 376.587 455.284 370.826 454.78 365.108C453.948 355.753 451.842 352.116 451.842 352.116L411.303 352.291" fill="black"/>
<path d="M419.125 279.55C419.125 279.55 405.277 296.703 403.887 304.352C402.497 312 400.558 355.12 400.558 356.843C400.558 358.566 403.329 359.265 406.625 359.789C411.326 360.49 416.081 360.769 420.832 360.621C426.541 360.446 432.433 358.541 433.316 357.5C434.198 356.46 432.483 325.799 435.396 308.996C438.309 292.193 441.289 283.196 439.557 279.867C437.826 276.538 425.018 276.055 419.125 279.55Z" fill="black" stroke="black" stroke-linecap="round" stroke-linejoin="round"/>
<path d="M433.157 278.686C433.157 278.686 422.754 296.862 420.864 309.696C418.975 322.529 420.34 365.308 420.34 365.308C420.34 365.308 420.34 367.039 428.313 366.864C436.286 366.689 447.022 364.617 449.952 363.052C452.881 361.488 456.186 360.281 456.36 359.415C456.535 358.55 454.796 355.437 454.796 352.832C454.796 350.227 453.589 339.516 453.589 339.516C453.589 339.516 453.239 292.227 450.643 285.469C448.046 278.711 437.834 276.78 433.157 278.686Z" fill="#2EC4F3"/>
<path d="M407.865 246.294C407.865 246.294 406.484 251.837 407.033 253.568C407.5 254.96 407.678 256.433 407.557 257.896C407.383 258.595 403.396 263.097 404.228 263.963C405.157 264.782 406.142 265.536 407.175 266.218C407.175 266.218 408.007 275.373 409.605 275.914C411.203 276.455 416.879 275.398 416.879 275.398C416.879 275.398 418.785 282.498 418.785 283.721C418.785 284.944 412.892 297.928 416.188 296.887C419.484 295.847 432.642 276.788 432.642 276.788C432.642 276.788 432.467 252.361 428.655 246.128C424.844 239.894 413.417 240.926 407.865 246.294Z" fill="#FFB573"/>
<path d="M411.851 257.812C411.851 258.719 411.502 259.477 411.077 259.477C410.653 259.477 410.295 258.736 410.295 257.812C410.295 256.888 410.644 256.147 411.077 256.147C411.51 256.147 411.851 256.913 411.851 257.812Z" fill="black"/>
<path d="M409.255 254.259C409.516 254.025 409.825 253.851 410.16 253.75C410.496 253.649 410.849 253.622 411.196 253.672C411.542 253.722 411.874 253.847 412.167 254.039C412.46 254.231 412.708 254.485 412.892 254.783" stroke="black" stroke-linecap="round" stroke-linejoin="round"/>
<path d="M409.604 267.599C411.388 267.453 413.106 266.858 414.597 265.868" stroke="black" stroke-linecap="round" stroke-linejoin="round"/>
<path d="M414.107 233.61C414.107 233.61 405.618 236.939 404.752 240.018C403.887 243.098 403.188 246.776 403.188 246.776L410.811 248.341L417.394 248.857C417.394 248.857 417.219 250.413 419.125 254.05C420.15 255.966 421.075 257.933 421.897 259.943C421.897 259.943 421.381 270.163 420.865 273.109C420.43 275.282 419.849 277.423 419.125 279.518C419.125 279.518 423.461 280.35 431.426 281.257C439.391 282.164 449.27 280.217 449.27 280.217C449.27 280.217 451.351 276.746 451.176 269.822C451.001 262.897 447.714 253.018 447.364 249.015C447.014 245.012 448.063 242.257 441.821 237.405C435.579 232.553 424.502 230.872 414.107 233.61Z" fill="black" stroke="black" stroke-linecap="round" stroke-linejoin="round"/>
<path d="M398.76 336.486C398.322 336.489 397.885 336.458 397.453 336.394L397.844 333.897C398.676 334.022 400.557 334.014 401.131 333.198C401.914 332.083 401.298 325.899 400.507 324.876C400.208 324.526 398.784 324.526 397.761 324.768L397.187 322.329C397.802 322.188 400.948 321.555 402.405 323.253C403.861 324.951 404.735 332.408 403.17 334.655C402.097 336.203 400.099 336.486 398.76 336.486Z" fill="#FFB573" stroke="black" stroke-linecap="round" stroke-linejoin="round"/>
<path d="M398.859 320.091H383.962V339.491H398.859V320.091Z" fill="#2EC4F3" stroke="black" stroke-linecap="round" stroke-linejoin="round"/>
<path d="M437.834 289.604C437.834 289.604 434.896 296.188 434.721 299.475C434.546 302.763 438.358 325.159 438.358 325.159C438.358 325.159 425.874 328.271 422.42 328.271C420.509 328.287 418.599 328.173 416.703 327.93C416.703 327.93 412.025 324.809 410.635 323.944C409.246 323.078 408.214 323.594 405.792 321.688C403.37 319.782 401.456 319.616 401.281 320.656C401.106 321.697 401.114 322.387 402.845 323.253C403.959 323.826 405.003 324.524 405.958 325.334C405.958 325.334 401.797 326.166 400.59 326.374C399.383 326.582 399.034 328.271 399.758 329.145C400.482 330.019 401.664 331.218 401.664 331.218C401.664 331.218 401.489 335.379 403.744 336.211C406 337.043 412.233 336.902 412.233 336.902C412.233 336.902 418.817 337.426 419.857 337.426C420.897 337.426 434.064 340.714 443.418 340.714C452.773 340.714 455.544 341.238 456.06 339.157C456.576 337.077 455.711 306.416 453.98 297.062C452.249 287.707 448.262 282.505 445.491 282.164" fill="#65D9FD"/>
<path d="M428.18 327.406C426.284 327.834 424.359 328.112 422.42 328.239C420.509 328.254 418.599 328.14 416.703 327.897C416.703 327.897 412.025 324.776 410.635 323.911C409.246 323.045 408.214 323.561 405.792 321.655C403.37 319.75 401.456 319.583 401.281 320.623C401.106 321.664 401.114 322.354 402.845 323.22C403.959 323.793 405.003 324.491 405.958 325.301C405.958 325.301 401.797 326.133 400.59 326.341C399.383 326.549 399.034 328.239 399.758 329.112C400.482 329.986 401.664 331.185 401.664 331.185C401.664 331.185 401.489 335.346 403.744 336.178C406 337.011 412.233 336.869 412.233 336.869C412.233 336.869 418.817 337.393 419.857 337.393C420.406 337.393 424.318 338.309 429.27 339.166C427.447 334.997 427.68 330.444 428.18 327.406Z" fill="#FFB573"/>
<path d="M230.16 490.256C229.503 493.922 228.384 497.49 226.831 500.876C224.334 506.177 224.176 508.174 229.819 508.998C235.461 509.822 238.274 508.499 239.44 505.52C240.605 502.54 241.104 495.399 241.429 493.743C241.753 492.087 237.301 486.935 230.16 490.256Z" fill="white"/>
<path d="M239.456 503.031C238.291 505.186 236.801 507.841 230.825 507.342C227.438 507.059 226.023 505.594 225.44 504.387C224.675 507.134 225.665 508.39 229.835 508.998C235.469 509.83 238.291 508.499 239.456 505.519C239.923 504.117 240.257 502.673 240.454 501.208C240.155 501.741 239.814 502.357 239.456 503.031Z" fill="black"/>
<path d="M277.107 488.766C279.725 491.091 282.69 492.992 285.896 494.4C291.206 496.722 295.051 498.054 295.051 499.211C294.859 500.38 294.464 501.506 293.885 502.54C290.21 503.56 286.422 504.119 282.608 504.204C276.965 504.204 272.321 503.705 268.177 503.539C264.032 503.372 259.213 503.871 258.889 500.892C258.564 497.912 259.213 492.261 259.213 492.261C259.213 492.261 273.778 487.767 277.107 488.766Z" fill="white"/>
<path d="M293.861 502.531C293.861 502.531 294.152 501.991 294.444 501.308C291.73 501.798 288.985 502.095 286.229 502.199C280.262 502.365 278.106 501.533 271.298 500.709C267.149 500.257 262.964 500.257 258.814 500.709C258.814 500.75 258.814 500.8 258.814 500.85C259.139 503.83 263.958 503.347 268.103 503.497C272.247 503.647 276.891 504.163 282.534 504.163C286.363 504.093 290.168 503.545 293.861 502.531Z" fill="black"/>
<path d="M278.115 358.683C278.115 358.683 278.947 383.776 277.432 405.964C275.917 428.152 273.845 460.752 274.702 465.362C275.559 469.973 276.275 484.821 276.275 484.821L277.815 486.702L278.647 489.773C278.647 489.773 277.815 490.605 272.505 492.161C267.195 493.718 259.53 494.042 259.53 494.042C259.53 494.042 259.189 488.916 259.189 487.551C259.189 486.186 259.53 483.115 259.53 483.115C259.53 483.115 256.634 447.103 257.141 439.762C257.649 432.422 256.634 403.059 256.634 403.059L255.802 392.481C255.802 392.481 248.977 419.946 248.636 423.375C248.295 426.804 243.509 461.609 243.509 463.656C243.509 465.704 241.462 485.162 241.462 485.162C242.169 486.307 242.633 487.584 242.827 488.916C243.001 490.796 241.636 495.574 241.636 495.574C240.142 494.597 238.452 493.958 236.684 493.701L229.685 493.185C229.685 493.185 228.32 483.281 228.32 481.234V470.656C228.32 470.656 227.638 446.245 228.836 436.857C230.035 427.47 229.344 398.457 228.661 386.164C227.979 373.872 226.273 362.953 227.471 360.223C228.279 358.233 228.906 356.175 229.344 354.072C238.068 355.886 246.909 357.085 255.802 357.659C269.95 358.492 277.141 355.953 277.141 355.953L278.115 358.683Z" fill="black" stroke="black" stroke-linecap="round" stroke-linejoin="round"/>
<path d="M255.751 392.481L259.521 381.437" stroke="#FFC3BD" stroke-linecap="round" stroke-linejoin="round"/>
<path d="M255.469 363.235C255.469 363.235 258.523 363.56 265.114 362.594C271.706 361.629 274.428 360.181 274.428 360.181C274.428 360.181 270.091 276.48 270.091 275.673C270.181 274.369 269.764 273.081 268.926 272.078C268.089 271.074 266.896 270.433 265.597 270.288C261.095 269.456 255.152 271.412 253.862 276.397C252.572 281.382 255.469 363.235 255.469 363.235Z" fill="#2EC4F3"/>
<path d="M274.245 367.604C274.245 367.604 273.762 372.598 274.245 372.906C274.728 373.214 279.388 371.466 282.443 370.176C285.497 368.886 284.482 369.402 285.464 366.497C286.446 363.593 286.138 363.593 283.083 364.392C280.029 365.191 274.245 367.604 274.245 367.604Z" fill="#2EC4F3"/>
<path d="M267.869 285.677L271.465 334.123L273.329 369.078C273.329 369.078 273.945 370.193 274.935 369.952C275.925 369.711 284.473 367.721 285.463 366.481C286.454 365.241 286.828 362.02 286.828 361.488C286.828 360.955 284.231 330.511 284.231 330.511L290.89 321.589C290.89 321.589 285.804 293.717 284.564 288.14C283.324 282.564 283.333 279.593 281.343 277.113C279.354 274.633 267.961 269.057 267.961 269.057L267.869 285.677Z" fill="#BFD633"/>
<path d="M266.512 266.068C266.512 266.068 271.098 270.895 270.973 273.376C270.849 275.856 267.869 285.643 267.869 285.643L266.013 271.27C266.013 271.27 265.023 267.733 266.512 266.068Z" fill="#FFC3BD"/>
<path d="M251.407 255.781L251.024 265.918C251.024 265.918 254.353 274.241 256.476 276.738C258.598 279.235 262.418 283.396 262.418 283.396L266.638 274.599L266.754 269.764L268.618 265.178C265.684 264.505 262.934 263.196 260.562 261.341C256.601 258.245 252.506 254.525 252.14 254.4C251.773 254.275 251.407 255.781 251.407 255.781Z" fill="#FFC3BD"/>
<path d="M253.904 259.41C253.904 259.41 254.978 263.347 261.777 267.999C263.313 269.085 264.994 269.948 266.771 270.563V269.797L268.635 265.211C265.701 264.539 262.95 263.229 260.579 261.375C259.572 260.584 258.565 259.76 257.6 258.969L256.301 258.578L253.904 259.41Z" fill="#93554F"/>
<path d="M278.872 234.109C278.872 234.109 278.431 244.496 278.132 248.066C277.832 251.637 277.682 254.724 276.051 258.012C274.42 261.299 272.639 266.334 269.817 266.767C266.236 267.314 262.576 266.633 259.431 264.836C256.01 262.756 251.557 256.972 251.408 255.781C251.339 255.122 251.191 254.474 250.967 253.851C250.967 253.851 249.186 243.164 249.186 238.412C249.186 233.66 249.627 229.657 257.2 226.985C264.774 224.314 278.872 234.109 278.872 234.109Z" fill="#FFC3BD"/>
<path d="M254.079 234.11C254.079 234.11 258.681 235.3 256.309 237.372C253.937 239.445 251.707 241.825 251.707 241.825C251.707 241.825 252.447 244.796 252.156 245.986C251.865 247.176 250.375 248.067 249.335 246.877C248.294 245.687 247.404 244.796 247.404 244.796C247.404 244.796 244.583 235.891 243.992 233.369C243.401 230.847 242.802 228.167 246.488 225.646C247.906 224.604 249.394 223.662 250.941 222.824C255.417 220.175 260.605 218.982 265.789 219.412C274.394 220.153 278.273 225.055 278.273 225.055C278.273 225.055 285.097 223.274 284.656 228.167C284.215 233.061 279.313 236.332 276.641 236.041C273.97 235.749 259.863 228.617 257.042 229.807C254.22 230.997 252.139 233.66 254.079 234.11Z" fill="black" stroke="black" stroke-linecap="round" stroke-linejoin="round"/>
<path d="M271.157 245.096C271.157 245.096 273.229 251.754 272.638 252.37C272.047 252.986 269.667 253.41 269.667 253.41" stroke="black" stroke-linecap="round" stroke-linejoin="round"/>
<path d="M272.489 256.231C272.489 256.231 267.736 257.563 264.166 255.341" stroke="black" stroke-linecap="round" stroke-linejoin="round"/>
<path d="M269.251 240.934C269.251 240.934 262.992 240.343 259.721 240.343C256.45 240.343 255.268 240.044 255.119 240.934C254.969 241.825 254.678 246.577 257.199 248.208C259.721 249.84 264.324 249.099 266.254 248.658C268.185 248.217 268.751 244.946 268.926 243.905C269.101 242.865 269.251 240.934 269.251 240.934Z" stroke="black" stroke-linecap="round" stroke-linejoin="round"/>
<path d="M271.09 240.951C271.09 240.951 276.083 240.635 278.655 240.768C281.227 240.901 282.184 240.668 282.3 241.534C282.417 242.399 282.658 246.985 280.636 248.45C278.614 249.915 274.985 249.016 273.445 248.508C271.905 248 271.448 244.83 271.331 243.822C271.215 242.815 271.09 240.951 271.09 240.951Z" stroke="black" stroke-linecap="round" stroke-linejoin="round"/>
<path d="M255.119 240.935L247.404 244.796" stroke="black" stroke-linecap="round" stroke-linejoin="round"/>
<path d="M269.251 240.935H271.248" stroke="black" stroke-linecap="round" stroke-linejoin="round"/>
<path d="M251.707 248.508C251.707 248.508 248.295 244.205 245.881 244.796C243.468 245.387 245.59 251.629 247.546 252.661C249.502 253.693 251.549 252.37 251.549 252.37" fill="#FFC3BD"/>
<path d="M263.658 244.912C263.658 245.745 263.3 246.46 262.825 246.46C262.351 246.46 261.993 245.769 261.993 244.912C261.993 244.055 262.351 243.364 262.825 243.364C263.3 243.364 263.658 244.055 263.658 244.912Z" fill="black"/>
<path d="M274.753 246.46C275.198 246.46 275.56 245.767 275.56 244.912C275.56 244.057 275.198 243.364 274.753 243.364C274.307 243.364 273.945 244.057 273.945 244.912C273.945 245.767 274.307 246.46 274.753 246.46Z" fill="black"/>
<path d="M259.322 239.436C261.815 238.811 264.432 238.894 266.879 239.677" stroke="black" stroke-linecap="round" stroke-linejoin="round"/>
<path d="M272.946 239.769C274.381 239.111 275.991 238.939 277.532 239.278" stroke="black" stroke-linecap="round" stroke-linejoin="round"/>
<path d="M259.446 371.109L259.621 374.163C259.621 374.163 252.555 375.603 242.751 373.331C232.947 371.059 224.117 365.008 223.151 363.693C222.186 362.378 223.983 356.944 223.983 356.944C223.983 356.944 222.693 356.627 224.949 357.426C227.204 358.225 236.035 365.94 248.077 368.029C260.12 370.118 259.629 369.344 259.446 371.109Z" fill="#2EC4F3"/>
<path d="M250.276 262.814C250.276 262.814 256.351 271.245 259.197 275.082C262.044 278.919 261.303 283.629 260.937 284.869C260.571 286.109 260.105 288.198 260.105 288.198V366.523C260.105 366.523 261.22 370.734 259.48 371.109C257.741 371.483 245.107 370.859 235.819 366.032C226.531 361.205 223.335 357.851 223.335 357.851L225.691 338.767L226.681 328.114L211.317 328.189C211.317 328.189 220.364 284.745 221.354 282.414C222.345 280.084 246.755 267.667 246.755 267.667C246.755 267.667 247.055 263.622 250.276 262.814Z" fill="#BFD633"/>
<path d="M281.019 297.961L280.819 295.889" stroke="black" stroke-linecap="round" stroke-linejoin="round"/>
<path d="M284.232 330.528L281.327 301.032" stroke="black" stroke-linecap="round" stroke-linejoin="round"/>
<path d="M226.614 328.114L229.502 300.441" stroke="black" stroke-linecap="round" stroke-linejoin="round"/>
<path d="M222.453 322.38C220.3 321.971 218.089 321.971 215.936 322.38C212.182 323.045 210.418 330.003 210.193 332.433C209.969 334.864 211.517 339.091 214.355 340.273C217.193 341.455 218.666 341.372 221.645 339.607C224.625 337.843 224.3 329.67 224.142 326.907C224.091 325.253 223.498 323.662 222.453 322.38Z" fill="#2EC4F3"/>
<path d="M229.785 314.39C229.785 314.39 230.883 306.983 231 304.561C231.116 302.139 230.775 299.143 231.216 298.152C231.657 297.162 233.205 298.044 233.754 298.702C234.304 299.359 234.753 302.788 234.645 304.111C234.575 304.92 234.575 305.733 234.645 306.541C234.645 306.541 243.142 300.25 244.141 298.926C245.14 297.603 247.121 296.604 247.786 297.486C248.452 298.369 247.67 299.151 246.896 299.917C246.122 300.682 242.152 305.218 241.486 305.742C241.065 306.129 240.76 306.624 240.604 307.174C241.169 307.225 241.738 307.148 242.269 306.949C243.267 306.625 250.108 303.196 250.774 303.196C250.946 303.222 251.11 303.285 251.256 303.38C251.402 303.474 251.526 303.599 251.62 303.746C251.713 303.892 251.775 304.057 251.8 304.229C251.825 304.401 251.813 304.577 251.765 304.744C251.548 305.41 243.151 310.486 242.826 310.57C242.502 310.653 242.16 311.46 242.71 311.568C243.259 311.676 250.108 310.57 250.991 311.011C251.152 311.086 251.292 311.201 251.397 311.346C251.502 311.49 251.569 311.658 251.591 311.835C251.614 312.012 251.591 312.192 251.525 312.358C251.46 312.523 251.353 312.67 251.215 312.783C250.774 313.116 242.601 314.548 242.601 314.548L246.355 315.322C247.462 315.547 249.334 315.547 249.334 316.204C249.334 316.861 248.893 317.203 248.119 317.203H242.377C241.162 317.203 238.74 318.193 236.751 319.075C234.762 319.958 233.879 320.29 233.879 320.29C233.879 320.29 228.461 330.119 226.481 333.657C225.722 335.108 224.6 336.339 223.225 337.228C221.85 338.118 220.267 338.637 218.632 338.733C215.761 338.958 212.806 333.74 213.339 331.243C213.872 328.746 218.524 323.07 222.61 320.973C226.697 318.876 227.904 316.837 229.785 314.39Z" fill="#FFC3BD"/>
<path d="M295.617 323.661C295.617 323.661 292.462 319.558 290.249 319.4C288.035 319.242 284.09 326.341 284.09 329.346C284.09 332.35 284.248 338.026 285.513 338.817C286.778 339.607 289.142 338.184 290.565 336.32C291.988 334.456 295.617 323.661 295.617 323.661Z" fill="#2EC4F3"/>
<path d="M331.82 304.186C331.82 304.186 332.004 300.807 331.363 300.991C330.722 301.174 330.272 301.631 330.456 303.179C330.454 304.837 330.27 306.489 329.906 308.106L331.82 304.186Z" fill="#FFC3BD"/>
<path d="M292.388 322.529C292.388 322.529 287.394 331.684 287.553 334.123C287.711 336.561 289.833 337.452 293.67 336.312C297.506 335.171 324.247 320.615 325.52 319.425C326.794 318.235 331.18 309.113 332.645 307.465C334.109 305.818 333.918 301.723 333.918 300.99C333.918 300.258 332.645 300.533 332.645 301.448C332.645 302.364 329.54 308.289 329.082 308.472C328.625 308.656 324.522 310.661 324.522 310.661C324.522 310.661 326.619 306.558 327.351 305.185C328.084 303.812 328.716 302.264 327.168 302.813C325.62 303.362 323.148 307.557 322.233 309.846C321.317 312.134 319.736 315.139 320.044 316.595L320.319 318.06C320.319 318.06 311.097 320.157 305.621 320.432C300.145 320.707 292.663 321.614 292.388 322.529Z" fill="#FFC3BD"/>
<path d="M329.357 312.859C329.357 312.859 334.193 307.282 334.833 306.284C335.474 305.285 336.29 303.729 336.107 302.539C335.924 301.348 335.108 302.813 334.442 303.82C333.776 304.827 332.528 305.734 331.796 307.374C331.548 307.879 331.198 308.326 330.768 308.689C330.338 309.051 329.838 309.321 329.299 309.48L329.357 312.859Z" fill="#FFC3BD"/>
<path d="M327.626 316.229C327.626 316.229 330.364 310.57 331.088 309.022C331.812 307.474 332.003 304.819 332.095 303.196C332.187 301.573 330.813 302.646 330.63 304.028C330.447 305.41 329.357 309.504 329.357 309.504C329.357 309.504 323.423 313.666 323.423 314.797C323.441 315.652 323.502 316.504 323.606 317.352" fill="#FFC3BD"/>
<path d="M141.573 402.144H132.692V417.915H141.573V402.144Z" fill="black" stroke="black" stroke-linecap="round" stroke-linejoin="round"/>
<path d="M145.567 339.241H127.332C120.148 339.241 114.324 345.065 114.324 352.249V393.929C114.324 401.113 120.148 406.937 127.332 406.937H145.567C152.752 406.937 158.576 401.113 158.576 393.929V352.249C158.576 345.065 152.752 339.241 145.567 339.241Z" fill="#949494" stroke="black" stroke-linecap="round" stroke-linejoin="round"/>
<path d="M123.188 500.542C123.189 499.797 122.97 499.068 122.557 498.449C122.144 497.829 121.557 497.345 120.869 497.059C120.182 496.774 119.425 496.698 118.694 496.843C117.964 496.988 117.292 497.347 116.766 497.873C116.239 498.4 115.881 499.071 115.736 499.801C115.591 500.532 115.666 501.289 115.952 501.977C116.238 502.664 116.721 503.252 117.341 503.665C117.961 504.077 118.689 504.297 119.434 504.295C120.43 504.295 121.384 503.9 122.088 503.196C122.792 502.492 123.188 501.537 123.188 500.542Z" fill="black" stroke="black" stroke-linecap="round" stroke-linejoin="round"/>
<path d="M196.602 500.542C196.603 499.797 196.384 499.068 195.971 498.449C195.559 497.829 194.971 497.345 194.283 497.059C193.596 496.774 192.839 496.698 192.108 496.843C191.378 496.988 190.707 497.347 190.18 497.873C189.653 498.4 189.295 499.071 189.15 499.801C189.005 500.532 189.08 501.289 189.366 501.977C189.652 502.664 190.135 503.252 190.755 503.665C191.375 504.077 192.104 504.297 192.848 504.295C193.844 504.295 194.798 503.9 195.502 503.196C196.206 502.492 196.602 501.537 196.602 500.542Z" fill="black" stroke="black" stroke-linecap="round" stroke-linejoin="round"/>
<path d="M157.96 500.542C157.96 498.461 157.178 496.78 156.22 496.78C155.263 496.78 154.473 498.445 154.473 500.542C154.473 502.639 155.255 504.296 156.22 504.296C157.186 504.296 157.96 502.614 157.96 500.542Z" fill="black" stroke="black" stroke-linecap="round" stroke-linejoin="round"/>
<path d="M159.633 480.143V426.279H152.259V480.368L115.864 494.766V498.378H121.149V495.316L156.229 488.083L191.301 495.316V498.378H196.594V494.766L159.633 480.143Z" fill="black" stroke="black" stroke-linecap="round" stroke-linejoin="round"/>
<path d="M154.373 498.37H158.06L158.85 480.884H153.582L154.373 498.37Z" fill="black" stroke="black" stroke-linecap="round" stroke-linejoin="round"/>
<path d="M165.309 424.224H146.558V435.359H165.309V424.224Z" fill="black" stroke="black" stroke-linecap="round" stroke-linejoin="round"/>
<path d="M183.835 413.97H126.276C123.56 413.97 121.357 416.172 121.357 418.888V423.408C121.357 426.124 123.56 428.326 126.276 428.326H183.835C186.552 428.326 188.754 426.124 188.754 423.408V418.888C188.754 416.172 186.552 413.97 183.835 413.97Z" fill="#949494" stroke="black" stroke-linecap="round" stroke-linejoin="round"/>
<path d="M237.907 453.744L243.642 462.25L250.441 461.825C250.441 461.825 263.4 459.487 265.097 459.062C266.795 458.638 267.436 460.119 266.587 461.825C265.738 463.532 257.873 471.172 254.053 473.477C250.233 475.782 239.389 479.636 238.332 479.852C237.275 480.069 235.993 477.938 233.654 471.355C231.902 466.756 229.697 462.343 227.071 458.18L237.907 453.744Z" fill="#B46D6A" stroke="black" stroke-linecap="round" stroke-linejoin="round"/>
<path d="M266.587 461.825C267.419 460.161 266.803 458.638 265.097 459.062C263.391 459.487 250.474 461.825 250.474 461.825L243.675 462.25C243.71 464.207 244.07 466.145 244.74 467.984C244.74 467.984 235.177 470.323 233.688 471.388C236.026 477.971 237.3 480.093 238.365 479.885C239.43 479.677 250.258 475.849 254.086 473.51C257.915 471.172 265.738 463.523 266.587 461.825Z" fill="black"/>
<path d="M266.586 461.825C266.913 461.244 267.02 460.564 266.886 459.911C262.999 463.182 254.868 469.898 251.614 471.521C248.51 473.069 240.453 475.907 236.067 477.414C237.008 479.32 237.732 480.01 238.331 479.91C239.388 479.694 250.224 475.874 254.053 473.535C257.881 471.197 265.738 463.523 266.586 461.825Z" fill="white" stroke="black" stroke-linecap="round" stroke-linejoin="round"/>
<path d="M216.735 383.559C216.735 383.559 226.089 411.024 231.532 429.525C234.151 438.396 237.422 447.061 241.32 455.45C241.32 455.45 236.859 457.996 233.879 459.486C230.9 460.976 225.806 462.882 225.806 462.882C225.806 462.882 221.77 456.507 217.525 448.226C213.281 439.945 206.048 419.754 202.644 413.587C199.24 407.42 194.571 398.074 194.571 398.074C194.571 398.074 192.449 387.454 200.522 384.691C208.595 381.928 214.404 380.588 216.735 383.559Z" fill="#BFD633"/>
<path d="M184.493 378.965C184.493 378.965 188.155 381.403 188.255 381.803C188.355 382.202 188.155 382.519 187.34 382.827C186.524 383.134 182.771 383.842 182.771 383.842L184.493 378.965Z" fill="#B46D6A" stroke="black" stroke-linecap="round" stroke-linejoin="round"/>
<path d="M198.084 471.196C198.084 471.196 196.619 480.309 195.587 483.63C194.555 486.951 191.858 493.001 192.716 494.499C193.573 495.997 198.109 497.545 200.422 497.737C202.736 497.928 205.699 501.715 210.002 503.271C214.304 504.828 219.989 504.412 219.864 503.271C219.739 502.131 207.122 488.291 206.506 484.878C205.89 481.466 208.096 470.946 208.096 470.946L198.084 471.196Z" fill="#B46D6A"/>
<path d="M204.966 487.134L204.625 488.091C201.296 487.712 198.004 487.05 194.788 486.111C193.614 489.365 192.083 493.326 192.757 494.5C193.589 496.006 198.15 497.546 200.464 497.737C202.777 497.929 205.74 501.716 210.043 503.272C214.346 504.828 220.03 504.412 219.905 503.272C219.781 502.132 207.163 488.291 206.548 484.879C205.906 485.544 205.373 486.305 204.966 487.134Z" fill="black"/>
<path d="M209.785 501.016C206.381 499.351 203.302 496.488 198.766 494.957C195.82 493.95 193.772 493.143 192.69 492.693C192.523 493.288 192.547 493.919 192.757 494.499C193.589 496.006 198.15 497.545 200.464 497.737C202.777 497.928 205.74 501.715 210.043 503.271C214.154 504.77 219.497 504.445 219.872 503.43C217.034 503.013 212.124 502.165 209.785 501.016Z" fill="white" stroke="black" stroke-linecap="round" stroke-linejoin="round"/>
<path d="M195.828 402.751C195.828 402.751 212.615 404.665 213.896 413.163C215.178 421.66 212.19 474.567 212.19 474.567C209.705 474.679 207.215 474.536 204.758 474.143C201.354 473.51 195.603 472.237 195.603 472.237C195.603 472.237 194.771 454.176 193.689 446.944C192.607 439.712 191.775 418.689 191.775 418.689C191.775 418.689 163.727 416.35 161.181 414.652C158.634 412.955 195.828 402.751 195.828 402.751Z" fill="#BFD633"/>
<path d="M214.105 398.498C214.105 398.498 176.495 413.163 166.933 416.35C158.302 419.082 149.049 419.158 140.375 416.567C133.792 414.436 130.555 405.98 130.555 405.98C130.555 405.98 128.89 404.025 129.722 402.119C130.555 400.213 144.179 388.087 152.46 385.964C160.741 383.842 175.763 384.766 175.763 384.766C175.763 384.766 208.155 377.276 212.616 377.891C217.077 378.507 220.63 394.412 221.263 396.534" fill="#BFD633"/>
<path d="M140.158 407.637C140.158 407.637 143.138 395.985 150.978 391.066" stroke="black" stroke-linecap="round" stroke-linejoin="round"/>
<path d="M138.46 399.78C138.46 399.78 141.648 394.886 145.9 393.829" stroke="black" stroke-linecap="round" stroke-linejoin="round"/>
<path d="M161.855 312.268C162.979 312.528 164.037 313.017 164.963 313.705C165.89 314.392 166.664 315.263 167.239 316.263C169.328 319.742 172.807 332.783 172.807 332.783C172.807 332.783 178.367 348.954 177.326 352.758C176.286 356.561 172.108 362.146 172.108 362.146C172.108 362.146 172.458 374.629 173.498 377.126C174.412 379.626 175.168 382.18 175.762 384.775C175.762 384.775 172.807 386.864 163.07 388.254C153.332 389.643 145.334 390.343 142.03 392.948C138.726 395.553 131.427 405.431 130.553 405.989C129.679 406.547 128.298 407.554 127.599 406.164C126.9 404.774 125.685 401.819 127.249 395.561C128.814 389.302 131.602 364.609 132.642 352.957C133.683 341.306 131.427 329.487 132.817 321.331C134.207 313.175 146.549 308.298 149.329 307.774C152.109 307.249 161.855 312.268 161.855 312.268Z" fill="black" stroke="black" stroke-linecap="round" stroke-linejoin="round"/>
<path d="M132.51 395.527C132.51 395.527 137.828 389.368 140.375 388.303C142.921 387.237 160.773 387.237 160.773 387.237" stroke="#353535" stroke-linecap="round" stroke-linejoin="round"/>
<path d="M136.338 387.662C138.003 386.715 139.789 386.001 141.648 385.539C143.986 385.115 150.145 385.539 150.145 385.539" stroke="#353535" stroke-linecap="round" stroke-linejoin="round"/>
<path d="M145.685 366.415C151.471 364.155 156.746 360.759 161.198 356.428" stroke="#353535" stroke-linecap="round" stroke-linejoin="round"/>
<path d="M164.81 262.889C164.81 262.889 167.415 268.457 168.289 270.188C169.163 271.919 168.805 274.89 169.504 277.32C170.203 279.751 174.198 281.315 174.198 282.714C174.198 284.112 172.633 286.875 172.633 286.875C172.633 286.875 171.759 297.694 170.369 298.868C168.979 300.041 163.245 300.432 163.245 300.432L160.291 311.735L163.245 313.474C163.245 313.474 163.761 323.736 163.245 327.389C162.729 331.043 163.07 334.514 157.852 333.124C152.634 331.734 144.636 317.835 143.945 316.096C143.254 314.356 146.2 306.874 142.73 295.747C139.259 284.619 146.891 274.541 151.943 269.847C156.995 265.153 159.417 262.023 164.81 262.889Z" fill="#B46D6A"/>
<path d="M164.81 262.889C164.635 259.76 164.286 258.545 157.852 257.846C151.419 257.146 137.687 256.63 132.293 266.168C126.9 275.706 126.909 296.596 126.909 296.596C126.909 296.596 115.432 306.849 114.558 313.133C113.684 319.416 117.887 325.309 124.47 327.398L124.861 327.498C125.445 324.589 126.677 321.85 128.465 319.483C132.227 314.972 135.489 315.471 140.25 314.215C145.01 312.958 148.04 312.642 148.747 307.207C149.455 301.772 150.487 295.897 150.029 290.362C149.854 288.273 152.118 285.144 152.118 285.144C152.118 285.144 157.503 286.534 160.982 277.146C164.46 267.758 164.985 266.018 164.81 262.889Z" fill="black" stroke="black" stroke-linecap="round" stroke-linejoin="round"/>
<path d="M154.373 287.749C154.373 287.749 152.634 279.751 148.115 282.88C143.596 286.01 150.379 294.882 151.444 295.056C152.509 295.231 154.224 294.183 154.224 294.183" fill="#B46D6A"/>
<path d="M154.373 287.749C154.373 287.749 152.634 279.751 148.115 282.88C143.596 286.01 150.379 294.882 151.444 295.056C152.509 295.231 154.224 294.183 154.224 294.183" stroke="black" stroke-linecap="round" stroke-linejoin="round"/>
<path d="M163.245 300.441L157.852 299.75L161.68 304.794L163.245 300.441Z" fill="black" stroke="black" stroke-linecap="round" stroke-linejoin="round"/>
<path d="M168.963 279.31C169.188 280.492 168.963 281.532 168.439 281.632C167.915 281.732 167.315 280.849 167.082 279.676C166.849 278.502 167.082 277.462 167.615 277.362C168.148 277.262 168.739 278.136 168.963 279.31Z" fill="black"/>
<path d="M179.94 374.08C180.386 374.083 180.831 374.052 181.272 373.988L180.873 371.491C180.04 371.616 178.109 371.608 177.544 370.784C176.753 369.644 177.377 363.352 178.184 362.287C178.484 361.937 179.932 361.937 180.972 362.178L181.555 359.682C180.931 359.532 177.735 358.849 176.245 360.614C174.755 362.378 173.873 369.935 175.471 372.216C176.545 373.789 178.584 374.08 179.94 374.08Z" fill="#B46D6A" stroke="black" stroke-linecap="round" stroke-linejoin="round"/>
<path d="M179.84 377.134H194.987V357.401H179.84V377.134Z" fill="#BFD633" stroke="black" stroke-linecap="round" stroke-linejoin="round"/>
<path d="M135.988 315.721C135.988 315.721 127.965 313.225 124.295 328.73C123.08 333.89 118.128 386.156 119.16 386.505C122.905 387.829 162.363 375.553 162.363 375.553C162.363 375.553 174.572 374.721 175.679 374.463C176.786 374.205 178.425 372.29 178.351 371.217C178.276 370.143 178.351 367.971 178.351 367.971C178.351 367.971 180.19 365.857 179.549 364.459C179.162 363.619 178.473 362.956 177.618 362.603H175.121L173.632 361.987C173.632 361.987 175.488 360.056 175.18 358.275C174.872 356.494 173.374 355.512 172.741 356.81C172.109 358.109 171.984 359.032 170.802 360.198C169.436 361.414 168.198 362.767 167.107 364.234C166.274 365.557 164.002 368.961 164.002 368.961L135.572 370.509L139.783 337.735" fill="black"/>
<path d="M135.988 315.721C135.988 315.721 127.965 313.225 124.295 328.73C123.08 333.89 118.128 386.156 119.16 386.505C122.905 387.829 162.363 375.553 162.363 375.553C162.363 375.553 174.572 374.721 175.679 374.463C176.786 374.205 178.425 372.29 178.351 371.217C178.276 370.143 178.351 367.971 178.351 367.971C178.351 367.971 180.19 365.857 179.549 364.459C179.162 363.619 178.473 362.956 177.618 362.603H175.121L173.632 361.987C173.632 361.987 175.488 360.056 175.18 358.275C174.872 356.494 173.374 355.512 172.741 356.81C172.109 358.109 171.984 359.032 170.802 360.198C169.436 361.414 168.198 362.767 167.107 364.234C166.274 365.557 164.002 368.961 164.002 368.961L135.572 370.509L139.783 337.735" stroke="black" stroke-linecap="round" stroke-linejoin="round"/>
<path d="M179.466 364.458C179.079 363.618 178.389 362.956 177.535 362.602H175.038L173.548 361.986C173.548 361.986 175.404 360.055 175.096 358.274C174.789 356.493 173.29 355.511 172.658 356.81C172.025 358.108 171.901 359.032 170.719 360.197C169.353 361.414 168.115 362.766 167.024 364.233C166.191 365.557 163.919 368.961 163.919 368.961L135.489 370.509L137.37 356.235L121.407 355.869C119.951 370.85 118.627 386.313 119.185 386.513C122.93 387.836 162.388 375.56 162.388 375.56C162.388 375.56 174.597 374.728 175.704 374.47C176.811 374.212 178.451 372.298 178.376 371.224C178.301 370.151 178.376 367.979 178.376 367.979C178.376 367.979 180.107 365.856 179.466 364.458Z" fill="#B46D6A"/>
<path d="M178.193 378.74C178.193 378.74 175.005 379.381 174.157 380.405C173.308 381.428 171.185 387.204 172.251 387.421C173.316 387.637 175.438 382.96 175.438 382.96C175.438 382.96 181.397 380.014 178.193 378.74Z" fill="#B46D6A" stroke="black" stroke-linecap="round" stroke-linejoin="round"/>
<path d="M179.616 378.757C178.882 378.709 178.149 378.85 177.485 379.165C176.569 379.673 174.639 384.042 174.339 385.266C174.039 386.489 174.339 387.696 175.171 387.396C176.004 387.096 178.833 382.719 179.641 382.211C180.448 381.703 181.039 378.774 179.616 378.757Z" fill="#B46D6A" stroke="black" stroke-linecap="round" stroke-linejoin="round"/>
<path d="M181.855 378.757C181.759 378.54 181.602 378.355 181.403 378.226C181.205 378.096 180.973 378.027 180.735 378.027C180.498 378.027 180.266 378.096 180.067 378.226C179.868 378.355 179.712 378.54 179.616 378.757C178.401 380.488 176.37 385.773 176.878 386.173C177.385 386.572 178.601 385.265 179.416 384.35C180.232 383.434 182.462 381.096 181.855 378.757Z" fill="#B46D6A" stroke="black" stroke-linecap="round" stroke-linejoin="round"/>
<path d="M184.493 378.965C184.493 378.965 182.67 377.841 181.854 378.757C181.039 379.672 180.431 384.582 180.631 385.057C180.831 385.531 182.462 384.349 182.77 383.842C183.078 383.334 184.493 378.965 184.493 378.965Z" fill="#B46D6A" stroke="black" stroke-linecap="round" stroke-linejoin="round"/>
</svg>
