<svg width="650" height="650" viewBox="0 0 650 650" fill="none" xmlns="http://www.w3.org/2000/svg">
<path d="M570.813 293.217C539.744 266.21 502.567 247.875 465.714 230.173C424.417 210.307 381.265 190.507 337.03 178.281C322.28 174.155 307.264 171.046 292.088 168.977C225.398 160.071 161.572 205.213 115.398 248.25C96.9389 265.42 79.8244 283.981 64.2056 303.77C52.8286 318.226 39.2377 333.681 34.4522 352.191C28.8178 373.93 40.5943 392.14 52.3376 409.451C61.7505 423.366 71.5379 436.399 83.3227 448.392C110.69 476.147 144.121 497.178 180.989 509.83C249.334 533.225 325.22 524.353 395.43 515.872C399.391 515.395 403.347 514.898 407.298 514.382C450.65 508.731 493.72 504.928 535 489.115C594.923 466.186 635.288 398.873 605.293 336.811C597.087 319.841 585.044 305.576 570.813 293.217Z" fill="#BFD633"/>
<path opacity="0.7" d="M570.813 293.217C539.744 266.21 502.567 247.875 465.714 230.173C424.417 210.307 381.265 190.507 337.03 178.281C322.28 174.155 307.264 171.046 292.088 168.977C225.398 160.071 161.572 205.213 115.398 248.25C96.9389 265.42 79.8244 283.981 64.2056 303.77C52.8286 318.226 39.2377 333.681 34.4522 352.191C28.8178 373.93 40.5943 392.14 52.3376 409.451C61.7505 423.366 71.5379 436.399 83.3227 448.392C110.69 476.147 144.121 497.178 180.989 509.83C249.334 533.225 325.22 524.353 395.43 515.872C399.391 515.395 403.347 514.898 407.298 514.382C450.65 508.731 493.72 504.928 535 489.115C594.923 466.186 635.288 398.873 605.293 336.811C597.087 319.841 585.044 305.576 570.813 293.217Z" fill="white"/>
<path d="M45.3467 503.364H616.837" stroke="#263238" stroke-linecap="round" stroke-linejoin="round"/>
<path d="M100.933 255.99C116.492 255.99 129.105 243.377 129.105 227.818C129.105 212.259 116.492 199.646 100.933 199.646C85.3738 199.646 72.7607 212.259 72.7607 227.818C72.7607 243.377 85.3738 255.99 100.933 255.99Z" stroke="#263238" stroke-linecap="round" stroke-linejoin="round"/>
<path d="M106.655 252.073C120.049 248.912 128.344 235.491 125.183 222.098C122.022 208.704 108.601 200.409 95.2077 203.57C81.8139 206.731 73.5187 220.152 76.68 233.545C79.8412 246.939 93.2617 255.234 106.655 252.073Z" stroke="#263238" stroke-linecap="round" stroke-linejoin="round"/>
<path d="M100.933 230.198C102.248 230.198 103.314 229.133 103.314 227.818C103.314 226.503 102.248 225.438 100.933 225.438C99.6189 225.438 98.5532 226.503 98.5532 227.818C98.5532 229.133 99.6189 230.198 100.933 230.198Z" fill="#263238" stroke="#263238" stroke-linecap="round" stroke-linejoin="round"/>
<path d="M109.605 232.054L100.933 227.818L86.4683 243.623" stroke="#263238" stroke-linecap="round" stroke-linejoin="round"/>
<path d="M603.221 198.697H532.845V286.367H603.221V198.697Z" stroke="#263238" stroke-linecap="round" stroke-linejoin="round"/>
<path d="M600.932 201.568H535.15V283.513H600.932V201.568Z" stroke="#263238" stroke-linecap="round" stroke-linejoin="round"/>
<path d="M581.565 225.687H554.517V259.377H581.565V225.687Z" stroke="#263238" stroke-linecap="round" stroke-linejoin="round"/>
<path d="M335.856 151.316V125" stroke="#263238" stroke-linecap="round" stroke-linejoin="round"/>
<path d="M357.586 165.39H314.133L327.167 148.87H344.553L357.586 165.39Z" fill="#263238"/>
<path d="M572.626 151.316V125" stroke="#263238" stroke-linecap="round" stroke-linejoin="round"/>
<path d="M594.348 165.39H550.896L563.929 148.87H581.315L594.348 165.39Z" fill="#263238"/>
<path d="M99.0933 151.316V125" stroke="#263238" stroke-linecap="round" stroke-linejoin="round"/>
<path d="M120.824 165.39H77.3716L90.4048 148.87H107.782L120.824 165.39Z" fill="#263238"/>
<path d="M92.66 386.139C92.6729 386.124 92.68 386.105 92.68 386.085C92.68 386.065 92.6729 386.046 92.66 386.031C92.6401 386.022 92.6177 386.022 92.5975 386.029C92.5773 386.037 92.5609 386.053 92.5518 386.072C90.1802 391.771 88.3034 397.663 86.9423 403.683C85.5657 409.704 84.5293 415.797 83.838 421.934L83.3969 426.545C83.3303 427.319 83.2471 428.085 83.1972 428.859L83.064 431.173C82.9974 432.712 82.9059 434.26 82.8643 435.808V440.444L82.9142 442.758C82.9142 443.532 83.0057 444.306 83.0557 445.071C83.1722 446.611 83.2637 448.159 83.4052 449.69C83.7048 452.77 84.1626 455.824 84.6453 458.845C84.6474 458.864 84.6561 458.881 84.67 458.893C84.6838 458.905 84.7017 458.912 84.7202 458.912C84.7315 458.913 84.7429 458.912 84.7536 458.908C84.7643 458.905 84.774 458.898 84.782 458.89C84.79 458.882 84.7961 458.873 84.7998 458.862C84.8035 458.851 84.8048 458.84 84.8034 458.829C84.8034 457.281 84.7285 455.741 84.6952 454.201C84.6619 452.662 84.5205 451.139 84.5371 449.599C84.5538 448.059 84.5371 446.536 84.4872 444.996V442.699V440.402V435.808L84.612 431.214L84.6619 428.917C84.6619 428.151 84.7535 427.386 84.7951 426.628L85.0698 422.034C85.596 415.923 86.4657 409.846 87.6747 403.833C88.8236 397.802 90.4915 391.882 92.66 386.139Z" fill="#263238"/>
<path d="M93.3173 410.166C93.3211 410.157 93.3229 410.146 93.3225 410.136C93.322 410.125 93.3193 410.115 93.3146 410.105C93.3099 410.096 93.3033 410.088 93.2951 410.081C93.287 410.074 93.2775 410.069 93.2673 410.067C93.2575 410.063 93.247 410.061 93.2365 410.061C93.226 410.062 93.2157 410.064 93.2062 410.069C93.1968 410.074 93.1885 410.081 93.1818 410.089C93.1751 410.097 93.1702 410.106 93.1675 410.116C90.5417 417.781 88.7966 425.719 87.9658 433.778C87.558 437.798 87.1336 441.817 87.0503 445.862C86.9491 449.909 87.0936 453.959 87.4831 457.988C87.4849 458.005 87.4925 458.021 87.5046 458.033C87.5167 458.045 87.5326 458.053 87.5497 458.055C87.5601 458.057 87.571 458.057 87.5815 458.055C87.592 458.053 87.602 458.049 87.6107 458.042C87.6193 458.036 87.6266 458.028 87.6318 458.019C87.6371 458.009 87.6403 457.999 87.6412 457.988C88.1073 453.96 88.3986 449.949 88.6732 445.929C88.9479 441.909 88.9978 437.897 89.2558 433.886C89.5059 429.879 89.9811 425.889 90.679 421.935C91.3427 417.967 92.2234 414.038 93.3173 410.166Z" fill="#263238"/>
<path d="M106.642 418.614C106.626 418.6 106.605 418.593 106.584 418.593C106.563 418.593 106.542 418.6 106.526 418.614C103.196 420.756 100.196 423.372 97.6203 426.379C96.3283 427.894 95.1647 429.514 94.1414 431.223L93.4257 432.521L92.8597 433.928C92.6704 434.392 92.5092 434.867 92.377 435.351C92.2272 435.825 92.0691 436.308 91.9442 436.782C90.921 440.624 90.3017 444.563 90.0966 448.534C89.9022 452.484 90.0497 456.444 90.5377 460.369C90.5424 460.386 90.552 460.401 90.5653 460.413C90.5786 460.425 90.595 460.433 90.6126 460.435C90.6238 460.438 90.6353 460.438 90.6464 460.435C90.6575 460.432 90.6679 460.427 90.6767 460.42C90.6856 460.413 90.6926 460.404 90.6974 460.393C90.7021 460.383 90.7045 460.372 90.7042 460.36L91.7195 448.65C91.987 444.784 92.4732 440.935 93.176 437.123C93.2842 436.649 93.4174 436.191 93.5339 435.725C93.6473 435.258 93.7862 434.796 93.95 434.344L94.4244 432.995L95.032 431.714C95.9605 430.013 97.0295 428.393 98.2278 426.87C100.605 423.764 103.423 421.022 106.592 418.73C106.614 418.721 106.631 418.704 106.64 418.682C106.65 418.661 106.65 418.636 106.642 418.614Z" fill="#263238"/>
<path d="M100.192 433.661C98.462 434.927 97.0701 436.599 96.1389 438.53C95.1676 440.43 94.4084 442.431 93.8751 444.497C93.717 445.005 93.5921 445.521 93.4756 446.045L93.1094 447.602C92.9172 448.647 92.7866 449.703 92.7183 450.764C92.7183 451.829 92.7183 452.886 92.7183 453.952C92.7991 455.013 92.938 456.068 93.1344 457.114C93.1398 457.13 93.1485 457.144 93.1601 457.155C93.1716 457.167 93.1856 457.176 93.201 457.181C93.2229 457.184 93.245 457.178 93.2633 457.166C93.2817 457.154 93.295 457.136 93.3008 457.114C93.5456 456.088 93.7318 455.049 93.8585 454.002C94.0249 452.97 94.183 451.946 94.3079 450.914C94.4327 449.882 94.5909 448.875 94.6741 447.851C94.7573 446.828 94.8905 445.796 95.1152 444.788C95.4722 442.76 96.0557 440.778 96.8546 438.879C97.5675 436.942 98.7315 435.201 100.25 433.803C100.263 433.788 100.27 433.768 100.27 433.749C100.27 433.729 100.263 433.71 100.25 433.694C100.243 433.685 100.235 433.677 100.225 433.672C100.215 433.666 100.203 433.662 100.192 433.661Z" fill="#263238"/>
<path d="M81.524 445.396C81.0829 440.194 80.2256 435.051 79.4183 429.908C78.611 424.764 77.7039 419.629 76.7634 414.511C75.823 409.392 74.7743 404.291 73.6674 399.197C73.6619 399.18 73.6513 399.166 73.6371 399.156C73.6229 399.145 73.6059 399.14 73.5883 399.14C73.5708 399.14 73.5537 399.145 73.5395 399.156C73.5253 399.166 73.5148 399.18 73.5093 399.197C74.3998 404.324 75.1738 409.467 76.0061 414.611C76.8383 419.754 77.5208 424.897 78.1699 430.057C78.8191 435.217 79.3018 440.386 79.951 445.538L81.8486 461.018C81.8537 461.036 81.8645 461.052 81.8795 461.064C81.8944 461.076 81.9127 461.083 81.9318 461.084C81.952 461.083 81.9711 461.075 81.9862 461.061C82.0012 461.047 82.0114 461.029 82.015 461.009C82.0733 459.703 82.0733 458.396 82.1065 457.089C82.1398 455.783 82.0566 454.484 82.0316 453.178C81.9318 450.598 81.7071 448.001 81.524 445.396Z" fill="#263238"/>
<path d="M78.3953 445.321C78.1206 443.265 77.7378 441.218 77.3466 439.179L76.6142 436.141C76.3729 435.126 76.1482 434.11 75.8569 433.112C74.8194 429.078 73.4899 425.126 71.8787 421.285L71.2545 419.854L70.5637 418.456C70.1226 417.515 69.59 416.616 69.0823 415.709C68.0641 413.882 66.8013 412.202 65.3288 410.716C65.3137 410.703 65.2945 410.696 65.2747 410.696C65.2548 410.696 65.2356 410.703 65.2206 410.716C65.2053 410.731 65.1968 410.752 65.1968 410.774C65.1968 410.796 65.2053 410.816 65.2206 410.832C66.5852 412.367 67.7384 414.077 68.6495 415.917C69.0989 416.841 69.5816 417.756 69.9645 418.705L70.5803 420.12L71.1213 421.568C72.5608 425.421 73.7179 429.374 74.5835 433.395C75.0579 435.4 75.4158 437.439 75.757 439.454L76.2481 442.5C76.4228 443.515 76.6392 444.522 76.7807 445.537C77.1053 447.576 77.4798 449.599 77.8377 451.638C78.1955 453.677 78.5201 455.708 78.9529 457.747C78.9568 457.766 78.9673 457.783 78.9825 457.795C78.9977 457.807 79.0167 457.814 79.0361 457.813C79.046 457.813 79.0557 457.811 79.0648 457.808C79.0739 457.804 79.0821 457.798 79.0891 457.791C79.0961 457.784 79.1016 457.776 79.1053 457.767C79.1091 457.758 79.111 457.748 79.111 457.738C79.111 455.658 79.0639 453.58 78.9696 451.505C78.853 449.457 78.6117 447.393 78.3953 445.321Z" fill="#263238"/>
<path d="M74.0926 445.588C73.1271 442.858 72.0119 440.186 70.7635 437.573C69.5316 434.958 68.142 432.421 66.6022 429.974C66.5865 429.963 66.5676 429.957 66.5481 429.957C66.5286 429.957 66.5097 429.963 66.494 429.974C66.4788 429.99 66.4702 430.011 66.4702 430.033C66.4702 430.055 66.4788 430.075 66.494 430.091C67.8298 432.625 69.011 435.238 70.0311 437.914C71.0881 440.578 72.0369 443.274 72.8358 446.021C73.6348 448.767 74.2257 451.547 74.9581 454.302C75.6905 457.056 76.348 459.828 77.1886 462.624C77.1936 462.64 77.2035 462.655 77.2169 462.665C77.2303 462.675 77.2466 462.681 77.2635 462.682C77.274 462.684 77.2846 462.683 77.2947 462.679C77.3048 462.676 77.3141 462.671 77.3219 462.664C77.3298 462.657 77.3361 462.648 77.3403 462.638C77.3446 462.629 77.3468 462.618 77.3467 462.608C77.374 459.701 77.095 456.8 76.5145 453.952C75.9338 451.103 75.1239 448.306 74.0926 445.588Z" fill="#263238"/>
<path d="M73.9174 454.676C73.3801 452.977 72.6098 451.361 71.6286 449.874C70.7098 448.344 69.5902 446.944 68.2996 445.712C67.6365 445.141 66.9266 444.626 66.1773 444.173C65.4347 443.691 64.6239 443.323 63.7721 443.082C63.7617 443.079 63.7507 443.077 63.7396 443.077C63.7286 443.078 63.7177 443.08 63.7076 443.085C63.6874 443.094 63.6716 443.111 63.6639 443.132C63.6562 443.153 63.6571 443.176 63.6664 443.197C63.6758 443.217 63.6929 443.233 63.7138 443.24C65.2477 443.977 66.6067 445.033 67.7004 446.336C68.808 447.61 69.7401 449.027 70.4718 450.548C71.3041 452.037 71.6703 453.685 72.361 455.225C72.6606 456.016 72.9603 456.815 73.3098 457.597C73.6146 458.415 73.9704 459.212 74.3751 459.986C74.3822 460 74.3929 460.012 74.406 460.02C74.4191 460.029 74.4343 460.034 74.45 460.036C74.4609 460.036 74.4718 460.033 74.4819 460.029C74.492 460.025 74.5011 460.019 74.5089 460.011C74.5166 460.003 74.5227 459.994 74.5269 459.984C74.5311 459.974 74.5332 459.963 74.5332 459.952C74.5625 459.066 74.5291 458.179 74.4334 457.297C74.3085 456.407 74.1254 455.541 73.9174 454.676Z" fill="#263238"/>
<path d="M74.2334 406.646C71.6363 405.919 69.2869 404.498 67.4389 402.534C65.5908 400.57 64.3142 398.138 63.7469 395.502C61.7827 386.347 68.1163 390.259 62.4402 375.835C56.7642 361.412 58.0708 358.142 60.035 353.989C61.9991 349.836 63.0894 351.151 64.8371 356.61C66.5849 362.07 72.9267 370.592 75.3237 386.572C77.7206 402.551 74.2334 406.646 74.2334 406.646Z" fill="#BFD633"/>
<path d="M91.0618 391.132C91.0618 391.132 85.3775 389.168 85.1611 378.457C84.9447 367.746 89.3224 369.943 89.9632 356.61C90.6041 343.277 91.4946 333.889 93.8998 333.673C96.3051 333.457 102.639 340.223 104.827 355.12C107.016 370.018 101.989 379.814 97.62 384.183C93.2507 388.552 91.0618 391.132 91.0618 391.132Z" fill="#BFD633"/>
<path d="M71.1795 419.538C71.1795 419.538 69.8729 411.714 67.2429 407.952C64.613 404.191 58.9203 400.961 55.225 393.754C51.5298 386.547 47.3602 383.051 47.5849 393.313C47.8096 403.575 52.387 408.826 58.0714 412.322C63.7557 415.817 71.1795 419.538 71.1795 419.538Z" fill="#BFD633"/>
<path d="M68.774 433.079C68.774 433.079 63.5308 423.033 55.8823 415.601C48.2338 408.169 42.1166 404.457 44.3055 408.169C46.4943 411.881 49.1076 411.673 52.8279 418.223C56.5481 424.773 55.4495 429.583 60.6927 433.295C65.936 437.007 68.774 433.079 68.774 433.079Z" fill="#BFD633"/>
<path d="M68.1163 445.97C67.8999 445.313 67.6835 440.511 60.2514 436.574C52.8193 432.637 45.8366 434.169 46.7105 436.141C47.5843 438.114 52.1701 441.384 56.7559 443.349C61.3416 445.313 68.1163 445.97 68.1163 445.97Z" fill="#BFD633"/>
<path d="M90.621 419.97C90.621 419.97 87.3419 415.809 89.0896 407.079C90.8374 398.348 94.774 400.529 99.1434 395.935C103.513 391.34 102.639 390.691 107.008 385.889C111.378 381.087 115.331 378.457 117.054 380.43C118.776 382.402 116.221 388.511 113.558 392.006C110.895 395.502 106.792 397.25 104.819 401.619C102.847 405.988 103.729 412.979 98.7023 416.258C93.6754 419.538 90.621 419.97 90.621 419.97Z" fill="#BFD633"/>
<path d="M101.549 422.376C101.549 422.376 109.414 413.421 115.09 406.862C120.766 400.304 122.955 395.286 123.172 399.655C123.388 404.024 125.144 407.52 120.55 413.196C115.956 418.872 101.549 422.376 101.549 422.376Z" fill="#BFD633"/>
<path d="M97.3953 436.79C97.3953 436.79 97.1789 433.295 109.63 425.213C122.08 417.132 127.323 415.601 126.017 418.88C124.71 422.159 119.242 425.43 113.341 431.364C107.441 437.298 97.3953 436.79 97.3953 436.79Z" fill="#BFD633"/>
<path d="M74.7578 405.714C74.7578 405.714 71.8283 390.075 68.7739 378.898C65.7194 367.721 63.7803 360.979 63.7803 360.979" stroke="#263238" stroke-width="0.5" stroke-linecap="round" stroke-linejoin="round"/>
<path d="M90.5547 391.299C90.5547 391.299 95.8645 374.313 97.6123 364.042C99.36 353.772 97.3959 346.124 96.522 341.571" stroke="#263238" stroke-width="0.5" stroke-linecap="round" stroke-linejoin="round"/>
<path d="M70.4882 419.205C68.1336 415.162 65.4414 411.325 62.4402 407.736C57.6297 402.052 53.9179 398.997 51.729 393.538" stroke="#263238" stroke-width="0.5" stroke-linecap="round" stroke-linejoin="round"/>
<path d="M90.6211 419.97C90.6211 419.97 92.3688 409.484 96.5218 404.024C100.675 398.565 109.006 390.042 112.252 384.574" stroke="#263238" stroke-width="0.5" stroke-linecap="round" stroke-linejoin="round"/>
<path d="M67.6004 445.729C67.6004 445.729 60.2516 440.944 55.0083 438.322" stroke="#263238" stroke-width="0.5" stroke-linecap="round" stroke-linejoin="round"/>
<path d="M93.8835 503.363H73.3099L68.8989 454.518H98.2945L93.8835 503.363Z" fill="#263238" stroke="#263238" stroke-linecap="round" stroke-linejoin="round"/>
<path d="M429.144 206.678H223.276V347.913H429.144V206.678Z" fill="#263238" stroke="#263238" stroke-linecap="round" stroke-linejoin="round"/>
<path d="M425.882 210.082H226.546V344.501H425.882V210.082Z" fill="white" stroke="#263238" stroke-linecap="round" stroke-linejoin="round"/>
<path d="M327.225 244.13H297.93V267.616H327.225V244.13Z" fill="#2EC4F3"/>
<path d="M357.528 267.999H328.232V291.485H357.528V267.999Z" fill="#BFD633"/>
<path d="M327.225 314.972H297.93V338.459H327.225V314.972Z" fill="#2EC4F3"/>
<path d="M388.221 221.018H358.926V244.504H388.221V221.018Z" fill="#BFD633"/>
<path d="M237.058 224.43V338.467" stroke="#263238" stroke-linecap="round" stroke-linejoin="round"/>
<path d="M267.236 224.43V338.467" stroke="#263238" stroke-linecap="round" stroke-linejoin="round"/>
<path d="M297.422 224.43V338.467" stroke="#263238" stroke-linecap="round" stroke-linejoin="round"/>
<path d="M327.6 224.43V338.467" stroke="#263238" stroke-linecap="round" stroke-linejoin="round"/>
<path d="M357.786 224.43V338.467" stroke="#263238" stroke-linecap="round" stroke-linejoin="round"/>
<path d="M387.964 224.43V338.467" stroke="#263238" stroke-linecap="round" stroke-linejoin="round"/>
<path d="M418.15 224.43V338.467" stroke="#263238" stroke-linecap="round" stroke-linejoin="round"/>
<path d="M237.815 244.13H418.533" stroke="#263238" stroke-linecap="round" stroke-linejoin="round"/>
<path d="M237.815 267.616H418.533" stroke="#263238" stroke-linecap="round" stroke-linejoin="round"/>
<path d="M237.815 291.111H418.533" stroke="#263238" stroke-linecap="round" stroke-linejoin="round"/>
<path d="M237.815 314.597H418.533" stroke="#263238" stroke-linecap="round" stroke-linejoin="round"/>
<path d="M302.216 248.299H320.401" stroke="#263238" stroke-linecap="round" stroke-linejoin="round"/>
<path d="M302.216 251.329H320.401" stroke="#263238" stroke-linecap="round" stroke-linejoin="round"/>
<path d="M302.216 254.358H320.401" stroke="#263238" stroke-linecap="round" stroke-linejoin="round"/>
<path d="M302.216 257.388H320.401" stroke="#263238" stroke-linecap="round" stroke-linejoin="round"/>
<path d="M302.216 260.417H320.401" stroke="#263238" stroke-linecap="round" stroke-linejoin="round"/>
<path d="M334.042 273.684H352.226" stroke="#263238" stroke-linecap="round" stroke-linejoin="round"/>
<path d="M334.042 276.713H352.226" stroke="#263238" stroke-linecap="round" stroke-linejoin="round"/>
<path d="M334.042 279.742H352.226" stroke="#263238" stroke-linecap="round" stroke-linejoin="round"/>
<path d="M334.042 282.772H352.226" stroke="#263238" stroke-linecap="round" stroke-linejoin="round"/>
<path d="M334.042 285.801H352.226" stroke="#263238" stroke-linecap="round" stroke-linejoin="round"/>
<path d="M302.973 320.282H321.158" stroke="#263238" stroke-linecap="round" stroke-linejoin="round"/>
<path d="M302.973 323.311H321.158" stroke="#263238" stroke-linecap="round" stroke-linejoin="round"/>
<path d="M302.973 326.341H321.158" stroke="#263238" stroke-linecap="round" stroke-linejoin="round"/>
<path d="M302.973 329.37H321.158" stroke="#263238" stroke-linecap="round" stroke-linejoin="round"/>
<path d="M302.973 332.4H321.158" stroke="#263238" stroke-linecap="round" stroke-linejoin="round"/>
<path d="M363.213 227.459H381.398" stroke="#263238" stroke-linecap="round" stroke-linejoin="round"/>
<path d="M363.213 230.489H381.398" stroke="#263238" stroke-linecap="round" stroke-linejoin="round"/>
<path d="M363.213 233.519H381.398" stroke="#263238" stroke-linecap="round" stroke-linejoin="round"/>
<path d="M363.213 236.548H381.398" stroke="#263238" stroke-linecap="round" stroke-linejoin="round"/>
<path d="M363.213 239.586H381.398" stroke="#263238" stroke-linecap="round" stroke-linejoin="round"/>
<path d="M571.569 417.906H580.45V402.135H571.569V417.906Z" fill="#263238" stroke="#263238" stroke-linecap="round" stroke-linejoin="round"/>
<path d="M567.575 406.937H585.81C592.994 406.937 598.818 401.113 598.818 393.929V352.249C598.818 345.065 592.994 339.241 585.81 339.241H567.575C560.39 339.241 554.566 345.065 554.566 352.249V393.929C554.566 401.113 560.39 406.937 567.575 406.937Z" fill="#949494" stroke="#263238" stroke-linecap="round" stroke-linejoin="round"/>
<path d="M589.962 500.542C589.961 499.797 590.18 499.069 590.593 498.449C591.006 497.829 591.593 497.345 592.281 497.06C592.969 496.774 593.726 496.699 594.456 496.844C595.187 496.988 595.858 497.347 596.384 497.874C596.911 498.4 597.269 499.071 597.414 499.802C597.559 500.532 597.484 501.289 597.198 501.977C596.912 502.665 596.429 503.252 595.809 503.665C595.189 504.078 594.461 504.297 593.716 504.295C592.72 504.295 591.766 503.9 591.062 503.196C590.358 502.492 589.962 501.537 589.962 500.542Z" fill="#263238" stroke="#263238" stroke-linecap="round" stroke-linejoin="round"/>
<path d="M516.549 500.542C516.547 499.797 516.767 499.069 517.179 498.449C517.592 497.829 518.18 497.345 518.867 497.06C519.555 496.774 520.312 496.699 521.043 496.844C521.773 496.988 522.444 497.347 522.971 497.874C523.497 498.4 523.856 499.071 524.001 499.802C524.145 500.532 524.07 501.289 523.785 501.977C523.499 502.665 523.015 503.252 522.395 503.665C521.776 504.078 521.047 504.297 520.302 504.295C519.307 504.295 518.352 503.9 517.648 503.196C516.944 502.492 516.549 501.537 516.549 500.542Z" fill="#263238" stroke="#263238" stroke-linecap="round" stroke-linejoin="round"/>
<path d="M555.182 500.542C555.182 498.461 555.964 496.78 556.93 496.78C557.895 496.78 558.678 498.445 558.678 500.542C558.678 502.639 557.895 504.295 556.93 504.295C555.964 504.295 555.182 502.614 555.182 500.542Z" fill="#263238" stroke="#263238" stroke-linecap="round" stroke-linejoin="round"/>
<path d="M553.509 480.143V426.279H560.883V480.368L597.286 494.766V498.378H591.993V495.316L556.921 488.083L521.841 495.316V498.378H516.557V494.766L553.509 480.143Z" fill="#263238" stroke="#263238" stroke-linecap="round" stroke-linejoin="round"/>
<path d="M558.778 498.37H555.083L554.292 480.884H559.569L558.778 498.37Z" fill="#263238" stroke="#263238" stroke-linecap="round" stroke-linejoin="round"/>
<path d="M547.834 435.367H566.584V424.232H547.834V435.367Z" fill="#263238" stroke="#263238" stroke-linecap="round" stroke-linejoin="round"/>
<path d="M529.307 428.326H586.866C589.583 428.326 591.785 426.124 591.785 423.408V418.889C591.785 416.172 589.583 413.97 586.866 413.97H529.307C526.591 413.97 524.389 416.172 524.389 418.889V423.408C524.389 426.124 526.591 428.326 529.307 428.326Z" fill="#949494" stroke="#263238" stroke-linecap="round" stroke-linejoin="round"/>
<path d="M500.752 485.486C498.604 488.449 495.902 490.967 492.795 492.902C488.093 495.606 480.869 496.697 480.869 498.136C480.869 499.576 481.41 502.115 486.828 502.839C492.246 503.563 515.749 503.921 518.82 503.197C521.891 502.473 519.003 487.292 519.003 487.292C519.003 487.292 504.722 488.016 500.752 485.486Z" fill="white" stroke="#263238" stroke-linecap="round" stroke-linejoin="round"/>
<path d="M486.837 502.839C492.263 503.563 515.758 503.92 518.829 503.196C519.612 503.013 520.011 501.89 520.161 500.308C513.611 500.517 500.836 500.708 493.171 500.308C482.867 499.767 480.878 498.136 480.878 498.136C480.87 499.584 481.411 502.114 486.837 502.839Z" fill="white" stroke="#263238" stroke-linecap="round" stroke-linejoin="round"/>
<path d="M484.481 344.151C484.481 344.151 485.93 365.482 487.195 374.521C488.46 383.559 493.162 420.42 496.233 429.999C499.304 439.579 502.558 480.767 502.558 480.767C502.558 480.767 499.121 482.032 499.304 483.472C499.487 484.912 499.662 487.092 499.662 487.092C499.662 487.092 506.711 490.888 510.873 490.888C515.034 490.888 520.269 489.115 520.269 489.115C520.269 489.115 519.187 473.027 518.604 460.377C518.022 447.726 512.828 393.862 512.828 393.862L511.805 340.181L484.481 344.151Z" fill="#263238" stroke="#263238" stroke-linecap="round" stroke-linejoin="round"/>
<path d="M515.025 489.464C515.025 489.464 515.392 492.902 506.353 495.973C497.315 499.044 496.233 502.298 497.315 505.011C498.397 507.724 517.198 507.716 524.247 506.634C531.296 505.552 534.908 505.186 535.449 503.746C535.99 502.306 534.001 491.262 534.001 491.262L515.025 489.464Z" fill="white" stroke="#263238" stroke-linecap="round" stroke-linejoin="round"/>
<path d="M535.449 503.746C535.567 503.106 535.584 502.452 535.499 501.807C533.002 502.265 529.673 502.889 525.329 503.746C515.674 505.619 502.941 504.512 497.032 503.813C497.081 504.224 497.185 504.627 497.34 505.011C498.422 507.716 517.222 507.716 524.272 506.634C531.321 505.552 534.908 505.186 535.449 503.746Z" fill="white" stroke="#263238" stroke-linecap="round" stroke-linejoin="round"/>
<path d="M490.998 349.394L496.241 355.72C496.241 355.72 500.211 399.455 501.659 410.849C503.107 422.242 509.982 462.899 509.982 462.899L514.301 484.587L513.219 487.292C512.949 488.484 512.949 489.721 513.219 490.912C513.403 491.637 513.036 492.178 519.878 493.259C524.436 493.889 529.06 493.889 533.618 493.259C534.215 491.639 534.52 489.926 534.517 488.199C534.607 485.837 534.425 483.471 533.976 481.15C533.435 478.262 533.976 462.899 530.006 446.453C526.036 430.007 523.132 411.024 523.132 404.698C523.132 398.373 523.315 361.321 523.498 360.588C523.681 359.856 527.11 357.509 527.293 350.826C527.476 344.143 526.569 341.604 526.569 341.604H491.348" fill="#263238"/>
<path d="M490.998 349.394L496.241 355.72C496.241 355.72 500.211 399.455 501.659 410.849C503.107 422.242 509.982 462.899 509.982 462.899L514.301 484.587L513.219 487.292C512.949 488.484 512.949 489.721 513.219 490.912C513.403 491.637 513.036 492.178 519.878 493.259C524.436 493.889 529.06 493.889 533.618 493.259C534.215 491.639 534.52 489.926 534.517 488.199C534.607 485.837 534.425 483.471 533.976 481.15C533.435 478.262 533.976 462.899 530.006 446.453C526.036 430.007 523.132 411.024 523.132 404.698C523.132 398.373 523.315 361.321 523.498 360.588C523.681 359.856 527.11 357.509 527.293 350.826C527.476 344.143 526.569 341.604 526.569 341.604H491.348" stroke="#263238" stroke-linecap="round" stroke-linejoin="round"/>
<path d="M490.807 259.934C490.807 259.934 482.676 280.217 482.135 293.533C481.594 306.849 482.135 325.883 482.318 326.607C482.501 327.331 480.329 342.511 481.594 344.858C481.867 345.504 482.365 346.028 482.996 346.334C483.626 346.64 484.346 346.707 485.023 346.523C485.023 346.523 524.605 347.064 526.411 346.698C528.217 346.332 528.583 343.993 528.908 342.179C529.232 340.364 527.826 318.875 527.826 315.613C527.826 312.35 528.908 276.03 524.389 265.91C519.869 255.79 508.667 247.475 507.219 247.117C505.771 246.76 494.061 250.713 490.807 259.934Z" fill="#2EC4F3" stroke="#263238" stroke-linecap="round" stroke-linejoin="round"/>
<path d="M471.024 220.127C471.024 220.127 469.642 226.785 470.05 227.318C470.458 227.851 471.848 230.497 471.848 230.497L468.252 240.318L472.547 241.558L478.631 252.07L488.044 249.423L490.815 262.007C490.815 262.007 490.399 266.568 492.48 265.336C494.56 264.104 496.35 262.706 500.361 255.79C504.373 248.874 508.376 247.775 508.376 247.775C508.376 247.775 503.382 241.117 502.433 239.061C501.485 237.006 502.017 233.535 500.361 225.096C498.705 216.657 493.029 214.867 485.289 214.867C477.549 214.867 471.731 216.39 471.024 220.127Z" fill="white" stroke="#263238" stroke-linecap="round" stroke-linejoin="round"/>
<path d="M474.911 212.246C474.911 212.246 468.686 213.628 467.579 214.876C466.472 216.124 468.136 219.986 469.659 220.818C471.182 221.651 481.011 219.462 480.853 220.128C480.695 220.793 479.189 222.624 480.853 223.307C482.518 223.989 489.176 225.804 489.176 225.804L487.511 238.529C487.511 238.529 479.355 238.113 477.416 238.529C475.477 238.945 472.581 241.567 472.581 241.567C472.581 241.567 476.151 252.486 476.85 253.585C477.549 254.683 479.472 254.417 481.686 253.585C483.899 252.752 492.888 246.252 493.853 245.42C494.819 244.588 492.746 236.432 492.746 236.432C492.746 236.432 493.021 229.657 493.021 228.275C493.021 226.894 494.819 226.894 496.067 227.859C497.315 228.825 497.732 232.562 497.449 233.943C497.102 235.008 496.482 235.963 495.651 236.715C495.651 236.715 500.902 240.718 502.009 240.718C502.353 240.749 502.696 240.655 502.976 240.453C503.256 240.251 503.454 239.955 503.532 239.619C503.674 239.203 503.391 227.31 503.391 227.31C503.391 227.31 503.674 215.975 502.151 212.379C500.628 208.784 493.437 207.81 488.876 208.501C484.316 209.192 474.911 212.246 474.911 212.246Z" fill="#263238" stroke="#263238" stroke-linecap="round" stroke-linejoin="round"/>
<path d="M476.017 231.055C476.15 231.812 475.926 232.478 475.51 232.553C475.093 232.628 474.677 232.07 474.519 231.321C474.361 230.572 474.619 229.898 475.035 229.832C475.451 229.765 475.876 230.281 476.017 231.055Z" stroke="#263238" stroke-linecap="round" stroke-linejoin="round"/>
<path d="M472.972 228.283C473.462 227.753 474.136 227.429 474.856 227.378C475.577 227.327 476.29 227.552 476.85 228.009" stroke="#263238" stroke-linecap="round" stroke-linejoin="round"/>
<path d="M476.983 243.497C476.983 243.497 480.162 242.524 481.144 240.318" stroke="white" stroke-linecap="round" stroke-linejoin="round"/>
<path d="M514.127 306.017C514.127 306.017 506.353 340.539 505.629 342.345C504.905 344.151 501.817 351.383 501.817 351.383L510.315 358.791C510.315 358.791 511.58 356.801 512.662 352.132C513.335 349.098 513.758 346.014 513.927 342.911C513.927 342.911 526.219 316.711 528.2 313.091C530.181 309.471 528.749 306.766 528.749 305.867C528.749 304.968 514.127 306.017 514.127 306.017Z" fill="white" stroke="#263238" stroke-linecap="round" stroke-linejoin="round"/>
<path d="M508.517 266.618C508.517 266.618 506.536 272.943 506.711 276.014C506.886 279.085 511.047 297.528 511.047 297.528C511.047 297.528 508.883 299.517 509.607 300.233C510.28 301.012 510.884 301.847 511.413 302.73C511.413 302.73 509.749 303.995 511.413 305.809C513.078 307.623 512.312 308.514 519.902 308.306C527.493 308.098 529.848 307.756 530.722 306.317C531.596 304.877 532.711 303.82 531.812 302.338L530.947 300.957C531.512 299.841 531.763 298.592 531.671 297.345C531.488 295.356 530.223 293.009 530.223 292.102C530.223 291.194 530.048 278.91 527.726 269.331C525.404 259.751 515.442 254.508 513.627 254.35" fill="#2EC4F3"/>
<path d="M508.517 266.618C508.517 266.618 506.536 272.943 506.711 276.014C506.886 279.085 511.047 297.528 511.047 297.528C511.047 297.528 508.883 299.517 509.607 300.233C510.28 301.012 510.884 301.847 511.413 302.73C511.413 302.73 509.749 303.995 511.413 305.809C513.078 307.623 512.312 308.514 519.902 308.306C527.493 308.098 529.848 307.756 530.722 306.317C531.596 304.877 532.711 303.82 531.812 302.338L530.947 300.957C531.512 299.841 531.763 298.592 531.671 297.345C531.488 295.356 530.223 293.009 530.223 292.102C530.223 291.194 530.048 278.91 527.726 269.331C525.404 259.751 515.442 254.508 513.627 254.35" stroke="#263238" stroke-linecap="round" stroke-linejoin="round"/>
<path d="M402.022 357.726C402.022 357.726 402.313 369.061 402.313 369.486C402.313 369.91 400.89 377.991 401.598 381.82C402.305 385.648 407.981 390.891 407.981 390.891L408.547 356.769L402.022 357.726Z" fill="white" stroke="#263238" stroke-linecap="round" stroke-linejoin="round"/>
<path d="M419.125 279.551C419.125 279.551 402.479 299.825 401.98 302.072C401.481 304.319 397.128 359.24 397.128 359.765C397.128 360.289 403.886 362.886 406.657 362.886H410.636C410.636 362.886 405.958 325.117 408.039 311.085C410.12 297.054 415.146 293.067 418.958 287.699C422.77 282.331 422.753 278.169 419.125 279.551Z" fill="#2EC4F3" stroke="#263238" stroke-linecap="round" stroke-linejoin="round"/>
<path d="M419.998 486.402C419.998 486.402 415.662 492.635 413.24 494.025C410.818 495.415 402.845 498.703 402.496 499.568C402.146 500.434 402.154 502.514 402.845 502.689C403.536 502.864 415.487 502.514 422.77 502.514C430.052 502.514 434.896 502.856 435.761 501.99C436.627 501.125 435.936 489.864 435.062 487.617L434.23 485.361L421.238 485.012L419.998 486.402Z" fill="#263238" stroke="#263238" stroke-linecap="round" stroke-linejoin="round"/>
<path d="M436.07 500.95H402.271C402.271 501.782 402.421 502.614 402.846 502.689C403.537 502.856 415.488 502.514 422.77 502.514C430.052 502.514 434.896 502.856 435.762 501.99C435.95 501.675 436.056 501.317 436.07 500.95Z" fill="white" stroke="#263238" stroke-linecap="round" stroke-linejoin="round"/>
<path d="M403.362 355.778L405.617 366.348C405.617 366.348 405.268 393.896 408.039 405.847C409.751 413.588 410.68 421.481 410.81 429.408C410.81 429.408 414.622 448.292 416.012 453.66C417.402 459.028 418.958 481.724 418.958 481.724C418.958 481.724 417.568 482.765 417.743 483.455C417.918 484.146 418.434 488.449 418.434 488.449C418.434 488.449 419.125 488.449 424.676 488.965C427.491 489.293 430.331 489.352 433.157 489.14L435.063 487.583C435.169 485.737 435.169 483.887 435.063 482.041C434.896 478.92 433.856 476.489 433.856 474.417C433.856 472.345 432.641 426.604 432.641 426.604L433.157 354.879L402.846 353.148L403.362 355.778Z" fill="white" stroke="#263238" stroke-linecap="round" stroke-linejoin="round"/>
<path d="M436.968 486.052C436.128 488.115 435.085 490.089 433.855 491.945C432.291 494.026 425.882 497.663 423.286 499.044C422.52 499.487 421.88 500.117 421.425 500.876C420.971 501.634 420.717 502.496 420.689 503.38C420.689 503.38 426.573 503.555 445.981 502.856L454.304 502.515C454.398 500.895 454.34 499.271 454.129 497.663C453.788 495.066 453.439 488.508 453.439 488.508L436.968 486.052Z" fill="#263238" stroke="#263238" stroke-linecap="round" stroke-linejoin="round"/>
<path d="M445.981 502.856L454.304 502.514C454.358 501.58 454.358 500.644 454.304 499.71L421.147 501.374C420.873 502 420.718 502.672 420.689 503.355C420.689 503.355 426.573 503.555 445.981 502.856Z" fill="white" stroke="#263238" stroke-linecap="round" stroke-linejoin="round"/>
<path d="M414.431 368.079L421.014 374.487C421.014 374.487 423.619 399.455 426.216 414.161C428.813 428.867 435.571 466.827 435.571 469.923C435.571 473.019 436.952 481.017 436.952 481.017C436.952 481.017 436.436 481.183 436.261 482.398C436.087 483.614 436.07 488.283 436.07 488.283C438.649 489.494 441.396 490.31 444.218 490.704C447.45 490.876 450.69 490.82 453.914 490.538C454.239 488.759 454.472 486.964 454.613 485.162C454.613 483.78 454.088 477.713 454.438 475.291C454.788 472.869 457.209 460.56 456.519 447.052C455.828 433.545 451.667 412.58 451.667 412.58L453.048 382.086C454.695 376.587 455.283 370.826 454.779 365.108C453.947 355.753 451.841 352.116 451.841 352.116L411.302 352.291" fill="white"/>
<path d="M414.431 368.079L421.014 374.487C421.014 374.487 423.619 399.455 426.216 414.161C428.813 428.867 435.571 466.827 435.571 469.923C435.571 473.019 436.952 481.017 436.952 481.017C436.952 481.017 436.436 481.183 436.261 482.398C436.087 483.614 436.07 488.283 436.07 488.283C438.649 489.494 441.396 490.31 444.218 490.704C447.45 490.876 450.69 490.82 453.914 490.538C454.239 488.759 454.472 486.964 454.613 485.162C454.613 483.78 454.088 477.713 454.438 475.291C454.788 472.869 457.209 460.56 456.519 447.052C455.828 433.545 451.667 412.58 451.667 412.58L453.048 382.086C454.695 376.587 455.283 370.826 454.779 365.108C453.947 355.753 451.841 352.116 451.841 352.116L411.302 352.291" stroke="#263238" stroke-linecap="round" stroke-linejoin="round"/>
<path d="M419.124 279.551C419.124 279.551 405.276 296.704 403.886 304.352C402.496 312.001 400.557 355.12 400.557 356.843C400.557 358.566 403.328 359.265 406.624 359.789C411.325 360.491 416.08 360.769 420.831 360.622C426.54 360.447 432.432 358.541 433.315 357.501C434.197 356.46 432.482 325.8 435.395 308.996C438.308 292.193 441.288 283.196 439.557 279.867C437.825 276.538 425.017 276.055 419.124 279.551Z" fill="#263238" stroke="#263238" stroke-linecap="round" stroke-linejoin="round"/>
<path d="M433.157 278.686C433.157 278.686 422.754 296.862 420.864 309.696C418.975 322.529 420.34 365.307 420.34 365.307C420.34 365.307 420.34 367.039 428.313 366.864C436.286 366.689 447.022 364.617 449.952 363.052C452.881 361.487 456.186 360.281 456.36 359.415C456.535 358.55 454.796 355.437 454.796 352.832C454.796 350.227 453.589 339.516 453.589 339.516C453.589 339.516 453.239 292.226 450.643 285.468C448.046 278.711 437.834 276.78 433.157 278.686Z" fill="#2EC4F3" stroke="#263238" stroke-linecap="round" stroke-linejoin="round"/>
<path d="M407.864 246.294C407.864 246.294 406.483 251.837 407.032 253.568C407.499 254.96 407.677 256.433 407.556 257.896C407.382 258.595 403.395 263.097 404.227 263.963C405.156 264.782 406.141 265.536 407.174 266.218C407.174 266.218 408.006 275.373 409.604 275.914C411.202 276.455 416.878 275.398 416.878 275.398C416.878 275.398 418.784 282.498 418.784 283.721C418.784 284.944 412.891 297.928 416.187 296.887C419.483 295.847 432.641 276.788 432.641 276.788C432.641 276.788 432.466 252.361 428.654 246.128C424.843 239.894 413.416 240.926 407.864 246.294Z" fill="white" stroke="#263238" stroke-linecap="round" stroke-linejoin="round"/>
<path d="M411.851 257.812C411.851 258.72 411.501 259.477 411.077 259.477C410.652 259.477 410.294 258.736 410.294 257.812C410.294 256.889 410.644 256.148 411.077 256.148C411.51 256.148 411.851 256.914 411.851 257.812Z" fill="#263238"/>
<path d="M409.254 254.259C409.515 254.025 409.824 253.851 410.16 253.75C410.495 253.649 410.849 253.622 411.195 253.672C411.542 253.722 411.874 253.847 412.167 254.039C412.46 254.231 412.707 254.485 412.891 254.783" stroke="#263238" stroke-linecap="round" stroke-linejoin="round"/>
<path d="M409.604 267.6C411.388 267.454 413.106 266.858 414.597 265.869" stroke="#263238" stroke-linecap="round" stroke-linejoin="round"/>
<path d="M414.106 233.61C414.106 233.61 405.617 236.939 404.752 240.019C403.886 243.098 403.187 246.777 403.187 246.777L410.811 248.341L417.394 248.857C417.394 248.857 417.219 250.414 419.125 254.051C420.149 255.966 421.074 257.933 421.896 259.943C421.896 259.943 421.38 270.163 420.864 273.109C420.43 275.282 419.849 277.423 419.125 279.518C419.125 279.518 423.461 280.35 431.426 281.257C439.39 282.164 449.269 280.217 449.269 280.217C449.269 280.217 451.35 276.746 451.175 269.822C451.001 262.898 447.713 253.019 447.364 249.015C447.014 245.012 448.063 242.257 441.821 237.405C435.579 232.553 424.501 230.872 414.106 233.61Z" fill="#263238" stroke="#263238" stroke-linecap="round" stroke-linejoin="round"/>
<path d="M398.759 336.486C398.322 336.49 397.885 336.459 397.452 336.395L397.844 333.898C398.676 334.023 400.557 334.014 401.131 333.199C401.913 332.084 401.297 325.9 400.507 324.876C400.207 324.527 398.784 324.527 397.76 324.768L397.186 322.33C397.802 322.188 400.948 321.556 402.404 323.253C403.861 324.951 404.735 332.408 403.17 334.655C402.096 336.203 400.099 336.486 398.759 336.486Z" fill="white" stroke="#263238" stroke-linecap="round" stroke-linejoin="round"/>
<path d="M398.859 320.091H383.961V339.491H398.859V320.091Z" fill="#2EC4F3" stroke="#263238" stroke-linecap="round" stroke-linejoin="round"/>
<path d="M437.834 289.605C437.834 289.605 434.896 296.188 434.721 299.476C434.546 302.763 438.358 325.159 438.358 325.159C438.358 325.159 425.874 328.272 422.42 328.272C420.509 328.288 418.599 328.174 416.703 327.931C416.703 327.931 412.025 324.81 410.635 323.944C409.246 323.079 408.214 323.595 405.792 321.689C403.37 319.783 401.456 319.616 401.281 320.657C401.106 321.697 401.114 322.388 402.845 323.253C403.959 323.826 405.003 324.525 405.958 325.334C405.958 325.334 401.797 326.166 400.59 326.374C399.383 326.582 399.034 328.272 399.758 329.146C400.482 330.02 401.664 331.218 401.664 331.218C401.664 331.218 401.489 335.379 403.744 336.212C406 337.044 412.233 336.902 412.233 336.902C412.233 336.902 418.817 337.427 419.857 337.427C420.897 337.427 434.064 340.714 443.418 340.714C452.773 340.714 455.544 341.239 456.06 339.158C456.576 337.077 455.711 306.417 453.98 297.062C452.249 287.707 448.262 282.506 445.491 282.165" fill="#2EC4F3"/>
<path d="M437.834 289.605C437.834 289.605 434.896 296.188 434.721 299.476C434.546 302.763 438.358 325.159 438.358 325.159C438.358 325.159 425.874 328.272 422.42 328.272C420.509 328.288 418.599 328.174 416.703 327.931C416.703 327.931 412.025 324.81 410.635 323.944C409.246 323.079 408.214 323.595 405.792 321.689C403.37 319.783 401.456 319.616 401.281 320.657C401.106 321.697 401.114 322.388 402.845 323.253C403.959 323.826 405.003 324.525 405.958 325.334C405.958 325.334 401.797 326.166 400.59 326.374C399.383 326.582 399.034 328.272 399.758 329.146C400.482 330.02 401.664 331.218 401.664 331.218C401.664 331.218 401.489 335.379 403.744 336.212C406 337.044 412.233 336.902 412.233 336.902C412.233 336.902 418.817 337.427 419.857 337.427C420.897 337.427 434.064 340.714 443.418 340.714C452.773 340.714 455.544 341.239 456.06 339.158C456.576 337.077 455.711 306.417 453.98 297.062C452.249 287.707 448.262 282.506 445.491 282.165" stroke="#263238" stroke-linecap="round" stroke-linejoin="round"/>
<path d="M428.18 327.406C426.284 327.834 424.359 328.112 422.42 328.239C420.509 328.254 418.599 328.14 416.703 327.897C416.703 327.897 412.025 324.776 410.635 323.911C409.246 323.045 408.214 323.561 405.792 321.655C403.37 319.75 401.456 319.583 401.281 320.623C401.106 321.664 401.114 322.354 402.845 323.22C403.959 323.793 405.003 324.491 405.958 325.301C405.958 325.301 401.797 326.133 400.59 326.341C399.383 326.549 399.034 328.239 399.758 329.112C400.482 329.986 401.664 331.185 401.664 331.185C401.664 331.185 401.489 335.346 403.744 336.178C406 337.011 412.233 336.869 412.233 336.869C412.233 336.869 418.817 337.393 419.857 337.393C420.406 337.393 424.318 338.309 429.27 339.166C427.447 334.997 427.68 330.444 428.18 327.406Z" fill="white" stroke="#263238" stroke-linecap="round" stroke-linejoin="round"/>
<path d="M230.159 490.255C229.502 493.922 228.383 497.49 226.83 500.875C224.334 506.177 224.175 508.174 229.818 508.998C235.461 509.822 238.274 508.499 239.439 505.519C240.604 502.54 241.104 495.399 241.428 493.743C241.753 492.086 237.3 486.935 230.159 490.255Z" fill="white" stroke="#263238" stroke-linecap="round" stroke-linejoin="round"/>
<path d="M239.455 503.031C238.29 505.186 236.8 507.841 230.825 507.342C227.437 507.059 226.023 505.594 225.44 504.387C224.674 507.134 225.665 508.39 229.834 508.998C235.469 509.83 238.29 508.499 239.455 505.519C239.923 504.117 240.257 502.673 240.454 501.208C240.154 501.741 239.813 502.357 239.455 503.031Z" fill="white" stroke="#263238" stroke-linecap="round" stroke-linejoin="round"/>
<path d="M277.107 488.766C279.725 491.091 282.69 492.992 285.896 494.4C291.206 496.722 295.051 498.054 295.051 499.211C294.859 500.38 294.464 501.506 293.885 502.54C290.21 503.56 286.422 504.119 282.608 504.204C276.965 504.204 272.321 503.705 268.177 503.538C264.032 503.372 259.213 503.871 258.889 500.892C258.564 497.912 259.213 492.261 259.213 492.261C259.213 492.261 273.778 487.767 277.107 488.766Z" fill="white" stroke="#263238" stroke-linecap="round" stroke-linejoin="round"/>
<path d="M293.86 502.531C293.86 502.531 294.151 501.99 294.443 501.308C291.729 501.797 288.984 502.095 286.228 502.198C280.261 502.365 278.105 501.532 271.297 500.708C267.148 500.257 262.963 500.257 258.813 500.708C258.813 500.75 258.813 500.8 258.813 500.85C259.138 503.829 263.957 503.347 268.102 503.496C272.246 503.646 276.89 504.162 282.533 504.162C286.362 504.092 290.167 503.544 293.86 502.531Z" fill="white" stroke="#263238" stroke-linecap="round" stroke-linejoin="round"/>
<path d="M278.114 358.683C278.114 358.683 278.946 383.776 277.432 405.964C275.917 428.152 273.845 460.752 274.702 465.362C275.559 469.973 276.275 484.821 276.275 484.821L277.814 486.702L278.647 489.773C278.647 489.773 277.814 490.605 272.505 492.161C267.195 493.718 259.53 494.042 259.53 494.042C259.53 494.042 259.188 488.916 259.188 487.551C259.188 486.186 259.53 483.115 259.53 483.115C259.53 483.115 256.633 447.103 257.141 439.762C257.649 432.422 256.633 403.059 256.633 403.059L255.801 392.481C255.801 392.481 248.977 419.946 248.635 423.375C248.294 426.804 243.509 461.609 243.509 463.656C243.509 465.704 241.461 485.162 241.461 485.162C242.168 486.307 242.633 487.584 242.826 488.916C243.001 490.796 241.636 495.574 241.636 495.574C240.141 494.597 238.451 493.958 236.684 493.701L229.685 493.185C229.685 493.185 228.32 483.281 228.32 481.234V470.656C228.32 470.656 227.637 446.245 228.836 436.857C230.034 427.47 229.343 398.457 228.661 386.164C227.979 373.872 226.272 362.953 227.471 360.223C228.279 358.233 228.906 356.175 229.343 354.072C238.068 355.886 246.909 357.085 255.801 357.659C269.95 358.492 277.14 355.953 277.14 355.953L278.114 358.683Z" fill="#263238" stroke="#263238" stroke-linecap="round" stroke-linejoin="round"/>
<path d="M255.751 392.481L259.521 381.437" stroke="white" stroke-linecap="round" stroke-linejoin="round"/>
<path d="M255.468 363.235C255.468 363.235 258.522 363.56 265.114 362.595C271.706 361.629 274.427 360.181 274.427 360.181C274.427 360.181 270.091 276.48 270.091 275.673C270.181 274.369 269.763 273.081 268.926 272.078C268.088 271.074 266.896 270.433 265.597 270.288C261.094 269.456 255.152 271.412 253.862 276.397C252.572 281.382 255.468 363.235 255.468 363.235Z" fill="white" stroke="#263238" stroke-linecap="round" stroke-linejoin="round"/>
<path d="M274.244 367.604C274.244 367.604 273.761 372.598 274.244 372.906C274.727 373.214 279.387 371.466 282.442 370.176C285.496 368.886 284.481 369.402 285.463 366.498C286.445 363.593 286.137 363.593 283.082 364.392C280.028 365.191 274.244 367.604 274.244 367.604Z" fill="white" stroke="#263238" stroke-linecap="round" stroke-linejoin="round"/>
<path d="M267.869 285.677L271.464 334.123L273.328 369.078C273.328 369.078 273.944 370.193 274.935 369.952C275.925 369.71 284.472 367.721 285.463 366.481C286.453 365.241 286.828 362.02 286.828 361.488C286.828 360.955 284.231 330.511 284.231 330.511L290.889 321.589C290.889 321.589 285.804 293.716 284.564 288.14C283.324 282.564 283.332 279.593 281.343 277.113C279.354 274.633 267.96 269.056 267.96 269.056L267.869 285.677Z" fill="#BFD633" stroke="#263238" stroke-linecap="round" stroke-linejoin="round"/>
<path d="M266.512 266.069C266.512 266.069 271.098 270.896 270.973 273.376C270.849 275.856 267.869 285.643 267.869 285.643L266.013 271.27C266.013 271.27 265.023 267.733 266.512 266.069Z" fill="white" stroke="#263238" stroke-linecap="round" stroke-linejoin="round"/>
<path d="M251.406 255.782L251.023 265.919C251.023 265.919 254.352 274.241 256.475 276.738C258.597 279.235 262.417 283.396 262.417 283.396L266.637 274.599L266.753 269.764L268.617 265.178C265.683 264.506 262.933 263.196 260.561 261.341C256.6 258.245 252.505 254.525 252.139 254.4C251.772 254.275 251.406 255.782 251.406 255.782Z" fill="white" stroke="#263238" stroke-linecap="round" stroke-linejoin="round"/>
<path d="M253.903 259.411C253.903 259.411 254.977 263.347 261.777 268C263.312 269.085 264.993 269.948 266.77 270.563V269.797L268.634 265.212C265.7 264.539 262.949 263.229 260.578 261.375C259.571 260.584 258.564 259.76 257.599 258.97L256.3 258.578L253.903 259.411Z" fill="#263238" stroke="#263238" stroke-linecap="round" stroke-linejoin="round"/>
<path d="M278.871 234.11C278.871 234.11 278.43 244.496 278.131 248.067C277.831 251.637 277.681 254.725 276.05 258.012C274.419 261.3 272.638 266.335 269.816 266.768C266.235 267.314 262.575 266.634 259.43 264.837C256.009 262.756 251.557 256.972 251.407 255.782C251.338 255.123 251.19 254.474 250.966 253.851C250.966 253.851 249.185 243.165 249.185 238.412C249.185 233.66 249.626 229.657 257.199 226.985C264.773 224.314 278.871 234.11 278.871 234.11Z" fill="white" stroke="#263238" stroke-linecap="round" stroke-linejoin="round"/>
<path d="M254.078 234.11C254.078 234.11 258.681 235.3 256.309 237.372C253.937 239.445 251.706 241.825 251.706 241.825C251.706 241.825 252.447 244.796 252.156 245.986C251.864 247.176 250.375 248.067 249.334 246.877C248.294 245.687 247.403 244.796 247.403 244.796C247.403 244.796 244.582 235.891 243.991 233.369C243.4 230.847 242.801 228.167 246.488 225.646C247.906 224.604 249.393 223.662 250.941 222.824C255.416 220.175 260.605 218.982 265.788 219.412C274.394 220.153 278.272 225.055 278.272 225.055C278.272 225.055 285.097 223.274 284.656 228.167C284.214 233.061 279.312 236.332 276.641 236.041C273.969 235.749 259.862 228.617 257.041 229.807C254.22 230.997 252.139 233.66 254.078 234.11Z" fill="#263238" stroke="#263238" stroke-linecap="round" stroke-linejoin="round"/>
<path d="M271.156 245.095C271.156 245.095 273.229 251.754 272.638 252.369C272.047 252.985 269.667 253.41 269.667 253.41" stroke="#263238" stroke-linecap="round" stroke-linejoin="round"/>
<path d="M272.488 256.231C272.488 256.231 267.736 257.563 264.166 255.341" stroke="#263238" stroke-linecap="round" stroke-linejoin="round"/>
<path d="M269.25 240.934C269.25 240.934 262.991 240.343 259.721 240.343C256.45 240.343 255.268 240.044 255.118 240.934C254.968 241.825 254.677 246.577 257.199 248.208C259.721 249.839 264.323 249.099 266.254 248.657C268.185 248.216 268.751 244.946 268.925 243.905C269.1 242.865 269.25 240.934 269.25 240.934Z" stroke="#263238" stroke-linecap="round" stroke-linejoin="round"/>
<path d="M271.09 240.951C271.09 240.951 276.083 240.635 278.655 240.768C281.227 240.901 282.184 240.668 282.3 241.534C282.417 242.399 282.658 246.985 280.636 248.45C278.614 249.914 274.985 249.016 273.445 248.508C271.905 248 271.448 244.829 271.331 243.822C271.215 242.815 271.09 240.951 271.09 240.951Z" stroke="#263238" stroke-linecap="round" stroke-linejoin="round"/>
<path d="M255.119 240.934L247.404 244.796" stroke="#263238" stroke-linecap="round" stroke-linejoin="round"/>
<path d="M269.25 240.934H271.247" stroke="#263238" stroke-linecap="round" stroke-linejoin="round"/>
<path d="M251.706 248.508C251.706 248.508 248.294 244.205 245.88 244.796C243.467 245.387 245.589 251.629 247.545 252.661C249.501 253.693 251.548 252.37 251.548 252.37" fill="white"/>
<path d="M251.706 248.508C251.706 248.508 248.294 244.205 245.88 244.796C243.467 245.387 245.589 251.629 247.545 252.661C249.501 253.693 251.548 252.37 251.548 252.37" stroke="#263238" stroke-linecap="round" stroke-linejoin="round"/>
<path d="M263.657 244.912C263.657 245.745 263.299 246.46 262.825 246.46C262.351 246.46 261.993 245.769 261.993 244.912C261.993 244.055 262.351 243.364 262.825 243.364C263.299 243.364 263.657 244.055 263.657 244.912Z" fill="#263238"/>
<path d="M274.752 246.46C275.197 246.46 275.559 245.767 275.559 244.912C275.559 244.057 275.197 243.364 274.752 243.364C274.306 243.364 273.944 244.057 273.944 244.912C273.944 245.767 274.306 246.46 274.752 246.46Z" fill="#263238"/>
<path d="M259.321 239.436C261.814 238.811 264.431 238.895 266.878 239.677" stroke="#263238" stroke-linecap="round" stroke-linejoin="round"/>
<path d="M272.946 239.769C274.38 239.112 275.99 238.94 277.532 239.278" stroke="#263238" stroke-linecap="round" stroke-linejoin="round"/>
<path d="M259.446 371.108L259.621 374.163C259.621 374.163 252.555 375.603 242.751 373.331C232.947 371.059 224.117 365.008 223.151 363.693C222.186 362.378 223.983 356.943 223.983 356.943C223.983 356.943 222.693 356.627 224.949 357.426C227.204 358.225 236.035 365.94 248.077 368.029C260.12 370.118 259.629 369.344 259.446 371.108Z" fill="white" stroke="#263238" stroke-linecap="round" stroke-linejoin="round"/>
<path d="M250.275 262.814C250.275 262.814 256.35 271.245 259.197 275.082C262.043 278.919 261.302 283.629 260.936 284.869C260.57 286.109 260.104 288.198 260.104 288.198V366.523C260.104 366.523 261.219 370.734 259.479 371.109C257.74 371.483 245.106 370.859 235.818 366.032C226.53 361.205 223.334 357.851 223.334 357.851L225.69 338.767L226.68 328.114L211.316 328.189C211.316 328.189 220.363 284.745 221.353 282.414C222.344 280.084 246.754 267.667 246.754 267.667C246.754 267.667 247.054 263.622 250.275 262.814Z" fill="#BFD633" stroke="#263238" stroke-linecap="round" stroke-linejoin="round"/>
<path d="M281.019 297.961L280.819 295.889" stroke="#263238" stroke-linecap="round" stroke-linejoin="round"/>
<path d="M284.231 330.527L281.326 301.032" stroke="#263238" stroke-linecap="round" stroke-linejoin="round"/>
<path d="M226.614 328.114L229.502 300.441" stroke="#263238" stroke-linecap="round" stroke-linejoin="round"/>
<path d="M222.452 322.38C220.299 321.971 218.088 321.971 215.935 322.38C212.182 323.045 210.418 330.003 210.193 332.433C209.968 334.864 211.516 339.091 214.354 340.273C217.192 341.455 218.665 341.372 221.645 339.607C224.624 337.843 224.3 329.67 224.142 326.907C224.091 325.253 223.497 323.662 222.452 322.38Z" fill="white" stroke="#263238" stroke-linecap="round" stroke-linejoin="round"/>
<path d="M229.785 314.39C229.785 314.39 230.883 306.983 231 304.561C231.116 302.139 230.775 299.143 231.216 298.152C231.657 297.162 233.205 298.044 233.754 298.702C234.304 299.359 234.753 302.788 234.645 304.111C234.575 304.92 234.575 305.733 234.645 306.541C234.645 306.541 243.142 300.25 244.141 298.926C245.14 297.603 247.121 296.604 247.786 297.486C248.452 298.369 247.67 299.151 246.896 299.917C246.122 300.682 242.152 305.218 241.486 305.742C241.065 306.129 240.76 306.624 240.604 307.174C241.169 307.225 241.738 307.148 242.269 306.949C243.267 306.625 250.108 303.196 250.774 303.196C250.946 303.222 251.11 303.285 251.256 303.38C251.402 303.474 251.526 303.599 251.62 303.746C251.713 303.892 251.775 304.057 251.8 304.229C251.825 304.401 251.813 304.577 251.765 304.744C251.548 305.41 243.151 310.486 242.826 310.57C242.502 310.653 242.16 311.46 242.71 311.568C243.259 311.676 250.108 310.57 250.991 311.011C251.152 311.086 251.292 311.201 251.397 311.346C251.502 311.49 251.569 311.658 251.591 311.835C251.614 312.012 251.591 312.192 251.525 312.358C251.46 312.523 251.353 312.67 251.215 312.783C250.774 313.116 242.601 314.548 242.601 314.548L246.355 315.322C247.462 315.547 249.334 315.547 249.334 316.204C249.334 316.861 248.893 317.203 248.119 317.203H242.377C241.162 317.203 238.74 318.193 236.751 319.075C234.762 319.958 233.879 320.29 233.879 320.29C233.879 320.29 228.461 330.119 226.481 333.657C225.722 335.108 224.6 336.339 223.225 337.228C221.85 338.118 220.267 338.637 218.632 338.733C215.761 338.958 212.806 333.74 213.339 331.243C213.872 328.746 218.524 323.07 222.61 320.973C226.697 318.876 227.904 316.837 229.785 314.39Z" fill="white" stroke="#263238" stroke-linecap="round" stroke-linejoin="round"/>
<path d="M295.617 323.661C295.617 323.661 292.462 319.558 290.249 319.4C288.035 319.242 284.09 326.341 284.09 329.345C284.09 332.35 284.248 338.026 285.513 338.817C286.778 339.607 289.142 338.184 290.565 336.32C291.988 334.455 295.617 323.661 295.617 323.661Z" fill="white" stroke="#263238" stroke-linecap="round" stroke-linejoin="round"/>
<path d="M331.819 304.186C331.819 304.186 332.003 300.807 331.362 300.99C330.721 301.173 330.271 301.631 330.455 303.179C330.453 304.836 330.269 306.489 329.905 308.106L331.819 304.186Z" fill="white" stroke="#263238" stroke-linecap="round" stroke-linejoin="round"/>
<path d="M292.387 322.529C292.387 322.529 287.394 331.684 287.552 334.123C287.71 336.561 289.832 337.452 293.669 336.312C297.506 335.171 324.247 320.615 325.52 319.425C326.793 318.235 331.179 309.113 332.644 307.465C334.109 305.818 333.917 301.723 333.917 300.99C333.917 300.258 332.644 300.533 332.644 301.448C332.644 302.364 329.54 308.289 329.082 308.472C328.624 308.656 324.521 310.661 324.521 310.661C324.521 310.661 326.618 306.558 327.351 305.185C328.083 303.812 328.716 302.264 327.168 302.813C325.62 303.362 323.148 307.557 322.232 309.846C321.317 312.134 319.736 315.139 320.044 316.595L320.318 318.06C320.318 318.06 311.097 320.157 305.62 320.432C300.144 320.707 292.662 321.614 292.387 322.529Z" fill="white" stroke="#263238" stroke-linecap="round" stroke-linejoin="round"/>
<path d="M329.357 312.858C329.357 312.858 334.192 307.282 334.833 306.283C335.474 305.285 336.289 303.728 336.106 302.538C335.923 301.348 335.108 302.813 334.442 303.82C333.776 304.827 332.528 305.734 331.795 307.374C331.547 307.878 331.198 308.326 330.768 308.689C330.338 309.051 329.838 309.32 329.298 309.479L329.357 312.858Z" fill="white" stroke="#263238" stroke-linecap="round" stroke-linejoin="round"/>
<path d="M327.625 316.229C327.625 316.229 330.363 310.57 331.087 309.022C331.811 307.474 332.003 304.819 332.094 303.196C332.186 301.573 330.812 302.647 330.629 304.028C330.446 305.41 329.356 309.504 329.356 309.504C329.356 309.504 323.422 313.666 323.422 314.798C323.44 315.652 323.501 316.505 323.605 317.353" fill="white"/>
<path d="M327.625 316.229C327.625 316.229 330.363 310.57 331.087 309.022C331.811 307.474 332.003 304.819 332.094 303.196C332.186 301.573 330.812 302.647 330.629 304.028C330.446 305.41 329.356 309.504 329.356 309.504C329.356 309.504 323.422 313.666 323.422 314.798C323.44 315.652 323.501 316.505 323.605 317.353" stroke="#263238" stroke-linecap="round" stroke-linejoin="round"/>
<path d="M141.573 402.144H132.692V417.915H141.573V402.144Z" fill="#263238" stroke="#263238" stroke-linecap="round" stroke-linejoin="round"/>
<path d="M145.567 339.241H127.332C120.148 339.241 114.324 345.065 114.324 352.25V393.929C114.324 401.114 120.148 406.938 127.332 406.938H145.567C152.752 406.938 158.576 401.114 158.576 393.929V352.25C158.576 345.065 152.752 339.241 145.567 339.241Z" fill="#949494" stroke="#263238" stroke-linecap="round" stroke-linejoin="round"/>
<path d="M123.188 500.542C123.19 499.798 122.97 499.069 122.558 498.449C122.145 497.829 121.558 497.346 120.87 497.06C120.182 496.774 119.425 496.699 118.695 496.844C117.964 496.989 117.293 497.347 116.766 497.874C116.24 498.401 115.881 499.072 115.736 499.802C115.592 500.533 115.667 501.29 115.952 501.977C116.238 502.665 116.722 503.253 117.342 503.665C117.962 504.078 118.69 504.298 119.435 504.296C120.43 504.296 121.385 503.9 122.089 503.196C122.793 502.493 123.188 501.538 123.188 500.542Z" fill="#263238" stroke="#263238" stroke-linecap="round" stroke-linejoin="round"/>
<path d="M196.602 500.542C196.603 499.798 196.384 499.069 195.971 498.449C195.559 497.829 194.971 497.346 194.283 497.06C193.596 496.774 192.839 496.699 192.108 496.844C191.378 496.989 190.707 497.347 190.18 497.874C189.653 498.401 189.295 499.072 189.15 499.802C189.005 500.533 189.08 501.29 189.366 501.977C189.652 502.665 190.135 503.253 190.755 503.665C191.375 504.078 192.104 504.298 192.848 504.296C193.844 504.296 194.798 503.9 195.502 503.196C196.206 502.493 196.602 501.538 196.602 500.542Z" fill="#263238" stroke="#263238" stroke-linecap="round" stroke-linejoin="round"/>
<path d="M157.96 500.542C157.96 498.461 157.178 496.78 156.221 496.78C155.264 496.78 154.473 498.445 154.473 500.542C154.473 502.639 155.255 504.296 156.221 504.296C157.186 504.296 157.96 502.614 157.96 500.542Z" fill="#263238" stroke="#263238" stroke-linecap="round" stroke-linejoin="round"/>
<path d="M159.633 480.144V426.28H152.259V480.368L115.864 494.766V498.378H121.149V495.316L156.229 488.083L191.301 495.316V498.378H196.594V494.766L159.633 480.144Z" fill="#263238" stroke="#263238" stroke-linecap="round" stroke-linejoin="round"/>
<path d="M154.373 498.37H158.06L158.851 480.885H153.583L154.373 498.37Z" fill="#263238" stroke="#263238" stroke-linecap="round" stroke-linejoin="round"/>
<path d="M165.309 424.224H146.558V435.36H165.309V424.224Z" fill="#263238" stroke="#263238" stroke-linecap="round" stroke-linejoin="round"/>
<path d="M183.835 413.97H126.276C123.56 413.97 121.357 416.172 121.357 418.889V423.408C121.357 426.125 123.56 428.327 126.276 428.327H183.835C186.552 428.327 188.754 426.125 188.754 423.408V418.889C188.754 416.172 186.552 413.97 183.835 413.97Z" fill="#949494" stroke="#263238" stroke-linecap="round" stroke-linejoin="round"/>
<path d="M237.908 453.744L243.642 462.25L250.442 461.825C250.442 461.825 263.4 459.487 265.098 459.062C266.796 458.638 267.437 460.119 266.588 461.825C265.739 463.532 257.874 471.172 254.054 473.477C250.234 475.782 239.389 479.636 238.332 479.852C237.275 480.069 235.994 477.938 233.655 471.355C231.903 466.756 229.697 462.343 227.072 458.18L237.908 453.744Z" fill="white" stroke="#263238" stroke-linecap="round" stroke-linejoin="round"/>
<path d="M266.587 461.825C267.419 460.161 266.803 458.638 265.097 459.062C263.391 459.487 250.474 461.825 250.474 461.825L243.675 462.25C243.71 464.207 244.07 466.145 244.74 467.984C244.74 467.984 235.177 470.323 233.688 471.388C236.026 477.971 237.3 480.094 238.365 479.886C239.43 479.678 250.258 475.849 254.086 473.51C257.915 471.172 265.738 463.523 266.587 461.825Z" fill="white" stroke="#263238" stroke-linecap="round" stroke-linejoin="round"/>
<path d="M266.587 461.826C266.914 461.244 267.02 460.565 266.887 459.911C263 463.182 254.869 469.899 251.615 471.521C248.51 473.069 240.454 475.907 236.068 477.414C237.008 479.32 237.732 480.011 238.332 479.911C239.389 479.694 250.225 475.874 254.053 473.536C257.881 471.197 265.738 463.523 266.587 461.826Z" fill="white" stroke="#263238" stroke-linecap="round" stroke-linejoin="round"/>
<path d="M216.735 383.56C216.735 383.56 226.089 411.024 231.532 429.526C234.151 438.397 237.422 447.062 241.32 455.45C241.32 455.45 236.859 457.997 233.879 459.487C230.9 460.977 225.806 462.883 225.806 462.883C225.806 462.883 221.77 456.507 217.525 448.226C213.281 439.945 206.048 419.755 202.644 413.588C199.24 407.421 194.571 398.074 194.571 398.074C194.571 398.074 192.449 387.455 200.522 384.691C208.595 381.928 214.404 380.588 216.735 383.56Z" fill="#BFD633" stroke="#263238" stroke-linecap="round" stroke-linejoin="round"/>
<path d="M184.493 378.965C184.493 378.965 188.155 381.404 188.255 381.803C188.355 382.203 188.155 382.519 187.339 382.827C186.524 383.135 182.77 383.842 182.77 383.842L184.493 378.965Z" fill="white" stroke="#263238" stroke-linecap="round" stroke-linejoin="round"/>
<path d="M198.084 471.197C198.084 471.197 196.619 480.31 195.587 483.631C194.555 486.951 191.858 493.002 192.716 494.5C193.573 495.998 198.109 497.546 200.422 497.738C202.736 497.929 205.699 501.716 210.002 503.272C214.304 504.828 219.989 504.412 219.864 503.272C219.739 502.132 207.122 488.291 206.506 484.879C205.89 481.467 208.096 470.947 208.096 470.947L198.084 471.197Z" fill="white" stroke="#263238" stroke-linecap="round" stroke-linejoin="round"/>
<path d="M204.966 487.135L204.625 488.092C201.296 487.713 198.004 487.05 194.788 486.111C193.614 489.365 192.083 493.327 192.757 494.5C193.589 496.007 198.15 497.546 200.464 497.738C202.777 497.929 205.74 501.716 210.043 503.272C214.346 504.829 220.03 504.412 219.905 503.272C219.781 502.132 207.163 488.291 206.548 484.879C205.906 485.544 205.373 486.305 204.966 487.135Z" fill="white" stroke="#263238" stroke-linecap="round" stroke-linejoin="round"/>
<path d="M209.785 501.017C206.381 499.352 203.302 496.489 198.766 494.958C195.82 493.951 193.773 493.144 192.691 492.694C192.524 493.288 192.547 493.92 192.757 494.5C193.59 496.007 198.15 497.546 200.464 497.738C202.778 497.929 205.741 501.716 210.043 503.272C214.155 504.77 219.498 504.446 219.872 503.43C217.034 503.014 212.124 502.165 209.785 501.017Z" fill="white" stroke="#263238" stroke-linecap="round" stroke-linejoin="round"/>
<path d="M195.828 402.751C195.828 402.751 212.615 404.666 213.897 413.163C215.178 421.66 212.191 474.567 212.191 474.567C209.705 474.679 207.215 474.537 204.759 474.143C201.355 473.51 195.604 472.237 195.604 472.237C195.604 472.237 194.771 454.177 193.689 446.945C192.607 439.712 191.775 418.689 191.775 418.689C191.775 418.689 163.728 416.351 161.181 414.653C158.634 412.955 195.828 402.751 195.828 402.751Z" fill="#BFD633" stroke="#263238" stroke-linecap="round" stroke-linejoin="round"/>
<path d="M214.105 398.499C214.105 398.499 176.495 413.163 166.932 416.351C158.301 419.083 149.049 419.158 140.375 416.567C133.792 414.436 130.554 405.981 130.554 405.981C130.554 405.981 128.89 404.025 129.722 402.119C130.554 400.213 144.178 388.087 152.459 385.965C160.74 383.842 175.763 384.766 175.763 384.766C175.763 384.766 208.154 377.276 212.615 377.892C217.076 378.508 220.63 394.412 221.262 396.534" fill="#BFD633"/>
<path d="M214.105 398.499C214.105 398.499 176.495 413.163 166.932 416.351C158.301 419.083 149.049 419.158 140.375 416.567C133.792 414.436 130.554 405.981 130.554 405.981C130.554 405.981 128.89 404.025 129.722 402.119C130.554 400.213 144.178 388.087 152.459 385.965C160.74 383.842 175.763 384.766 175.763 384.766C175.763 384.766 208.154 377.276 212.615 377.892C217.076 378.508 220.63 394.412 221.262 396.534" stroke="#263238" stroke-linecap="round" stroke-linejoin="round"/>
<path d="M140.158 407.637C140.158 407.637 143.137 395.985 150.977 391.066" stroke="#263238" stroke-linecap="round" stroke-linejoin="round"/>
<path d="M138.46 399.78C138.46 399.78 141.648 394.887 145.9 393.83" stroke="#263238" stroke-linecap="round" stroke-linejoin="round"/>
<path d="M161.855 312.268C162.979 312.528 164.037 313.017 164.964 313.705C165.89 314.392 166.665 315.263 167.24 316.263C169.329 319.742 172.808 332.783 172.808 332.783C172.808 332.783 178.367 348.954 177.327 352.758C176.287 356.561 172.109 362.145 172.109 362.145C172.109 362.145 172.458 374.629 173.499 377.126C174.412 379.626 175.169 382.18 175.762 384.775C175.762 384.775 172.808 386.864 163.07 388.254C153.333 389.643 145.335 390.343 142.031 392.948C138.727 395.553 131.428 405.431 130.554 405.989C129.68 406.547 128.298 407.554 127.599 406.164C126.9 404.774 125.685 401.819 127.25 395.561C128.814 389.302 131.602 364.609 132.643 352.957C133.683 341.306 131.428 329.487 132.818 321.331C134.207 313.175 146.55 308.298 149.33 307.774C152.109 307.249 161.855 312.268 161.855 312.268Z" fill="#263238" stroke="#263238" stroke-linecap="round" stroke-linejoin="round"/>
<path d="M132.51 395.527C132.51 395.527 137.828 389.369 140.375 388.303C142.921 387.238 160.773 387.238 160.773 387.238" stroke="white" stroke-linecap="round" stroke-linejoin="round"/>
<path d="M136.338 387.662C138.003 386.716 139.79 386.002 141.648 385.54C143.987 385.116 150.146 385.54 150.146 385.54" stroke="white" stroke-linecap="round" stroke-linejoin="round"/>
<path d="M145.684 366.415C151.47 364.155 156.745 360.759 161.197 356.428" stroke="white" stroke-linecap="round" stroke-linejoin="round"/>
<path d="M164.81 262.89C164.81 262.89 167.415 268.457 168.289 270.188C169.163 271.92 168.805 274.891 169.504 277.321C170.203 279.751 174.198 281.316 174.198 282.714C174.198 284.112 172.633 286.875 172.633 286.875C172.633 286.875 171.759 297.695 170.369 298.868C168.979 300.042 163.245 300.433 163.245 300.433L160.291 311.735L163.245 313.474C163.245 313.474 163.761 323.736 163.245 327.39C162.729 331.044 163.07 334.514 157.852 333.124C152.634 331.734 144.636 317.836 143.945 316.096C143.254 314.357 146.2 306.875 142.73 295.747C139.259 284.62 146.891 274.541 151.943 269.847C156.995 265.153 159.417 262.024 164.81 262.89Z" fill="white" stroke="#263238" stroke-linecap="round" stroke-linejoin="round"/>
<path d="M164.81 262.89C164.635 259.76 164.285 258.545 157.852 257.846C151.418 257.147 137.686 256.631 132.293 266.169C126.9 275.707 126.908 296.596 126.908 296.596C126.908 296.596 115.431 306.85 114.557 313.134C113.684 319.417 117.887 325.31 124.47 327.399L124.861 327.498C125.445 324.59 126.677 321.851 128.465 319.484C132.226 314.973 135.489 315.472 140.249 314.215C145.01 312.959 148.039 312.642 148.747 307.208C149.454 301.773 150.486 295.897 150.029 290.363C149.854 288.274 152.118 285.145 152.118 285.145C152.118 285.145 157.502 286.534 160.981 277.146C164.46 267.759 164.984 266.019 164.81 262.89Z" fill="#263238" stroke="#263238" stroke-linecap="round" stroke-linejoin="round"/>
<path d="M154.373 287.749C154.373 287.749 152.633 279.751 148.114 282.881C143.595 286.01 150.378 294.882 151.443 295.057C152.509 295.231 154.223 294.183 154.223 294.183" fill="white"/>
<path d="M154.373 287.749C154.373 287.749 152.633 279.751 148.114 282.881C143.595 286.01 150.378 294.882 151.443 295.057C152.509 295.231 154.223 294.183 154.223 294.183" stroke="#263238" stroke-linecap="round" stroke-linejoin="round"/>
<path d="M163.245 300.441L157.852 299.75L161.68 304.794L163.245 300.441Z" fill="#263238" stroke="#263238" stroke-linecap="round" stroke-linejoin="round"/>
<path d="M168.963 279.31C169.188 280.492 168.963 281.533 168.438 281.633C167.914 281.732 167.315 280.85 167.082 279.677C166.849 278.503 167.082 277.463 167.615 277.363C168.147 277.263 168.738 278.137 168.963 279.31Z" fill="#263238"/>
<path d="M179.94 374.08C180.386 374.083 180.831 374.053 181.272 373.989L180.872 371.492C180.04 371.617 178.109 371.608 177.543 370.785C176.752 369.644 177.377 363.352 178.184 362.287C178.484 361.938 179.932 361.938 180.972 362.179L181.555 359.682C180.93 359.532 177.734 358.85 176.245 360.614C174.755 362.379 173.873 369.936 175.471 372.216C176.544 373.789 178.583 374.08 179.94 374.08Z" fill="white" stroke="#263238" stroke-linecap="round" stroke-linejoin="round"/>
<path d="M179.84 377.135H194.987V357.402H179.84V377.135Z" fill="#BFD633" stroke="#263238" stroke-linecap="round" stroke-linejoin="round"/>
<path d="M135.988 315.722C135.988 315.722 127.965 313.225 124.295 328.73C123.079 333.89 118.128 386.156 119.16 386.506C122.905 387.829 162.362 375.553 162.362 375.553C162.362 375.553 174.572 374.721 175.679 374.463C176.785 374.205 178.425 372.291 178.35 371.217C178.275 370.143 178.35 367.971 178.35 367.971C178.35 367.971 180.189 365.857 179.549 364.459C179.162 363.619 178.472 362.956 177.618 362.603H175.121L173.631 361.987C173.631 361.987 175.487 360.056 175.179 358.275C174.871 356.494 173.373 355.512 172.741 356.81C172.108 358.109 171.983 359.033 170.801 360.198C169.436 361.414 168.198 362.767 167.106 364.234C166.274 365.558 164.002 368.962 164.002 368.962L135.572 370.51L139.783 337.735" fill="#263238"/>
<path d="M135.988 315.722C135.988 315.722 127.965 313.225 124.295 328.73C123.079 333.89 118.128 386.156 119.16 386.506C122.905 387.829 162.362 375.553 162.362 375.553C162.362 375.553 174.572 374.721 175.679 374.463C176.785 374.205 178.425 372.291 178.35 371.217C178.275 370.143 178.35 367.971 178.35 367.971C178.35 367.971 180.189 365.857 179.549 364.459C179.162 363.619 178.472 362.956 177.618 362.603H175.121L173.631 361.987C173.631 361.987 175.487 360.056 175.179 358.275C174.871 356.494 173.373 355.512 172.741 356.81C172.108 358.109 171.983 359.033 170.801 360.198C169.436 361.414 168.198 362.767 167.106 364.234C166.274 365.558 164.002 368.962 164.002 368.962L135.572 370.51L139.783 337.735" stroke="#263238" stroke-linecap="round" stroke-linejoin="round"/>
<path d="M179.466 364.459C179.079 363.619 178.39 362.956 177.536 362.603H175.039L173.549 361.987C173.549 361.987 175.405 360.056 175.097 358.275C174.789 356.494 173.291 355.512 172.658 356.811C172.026 358.109 171.901 359.033 170.719 360.198C169.354 361.415 168.116 362.767 167.024 364.234C166.192 365.558 163.92 368.962 163.92 368.962L135.49 370.51L137.37 356.236L121.408 355.87C119.951 370.851 118.628 386.314 119.186 386.514C122.931 387.837 162.388 375.561 162.388 375.561C162.388 375.561 174.598 374.729 175.705 374.471C176.811 374.213 178.451 372.299 178.376 371.225C178.301 370.152 178.376 367.98 178.376 367.98C178.376 367.98 180.107 365.857 179.466 364.459Z" fill="white" stroke="#263238" stroke-linecap="round" stroke-linejoin="round"/>
<path d="M178.193 378.741C178.193 378.741 175.005 379.382 174.156 380.405C173.307 381.429 171.185 387.205 172.25 387.421C173.315 387.638 175.438 382.96 175.438 382.96C175.438 382.96 181.397 380.014 178.193 378.741Z" fill="white" stroke="#263238" stroke-linecap="round" stroke-linejoin="round"/>
<path d="M179.616 378.757C178.882 378.709 178.149 378.85 177.485 379.165C176.569 379.673 174.639 384.042 174.339 385.266C174.039 386.489 174.339 387.696 175.171 387.396C176.004 387.096 178.833 382.719 179.641 382.211C180.448 381.703 181.039 378.774 179.616 378.757Z" fill="white" stroke="#263238" stroke-linecap="round" stroke-linejoin="round"/>
<path d="M181.855 378.757C181.759 378.54 181.602 378.356 181.403 378.226C181.205 378.097 180.973 378.028 180.735 378.028C180.498 378.028 180.266 378.097 180.067 378.226C179.868 378.356 179.712 378.54 179.616 378.757C178.401 380.488 176.37 385.773 176.878 386.173C177.385 386.572 178.601 385.266 179.416 384.35C180.232 383.435 182.462 381.096 181.855 378.757Z" fill="white" stroke="#263238" stroke-linecap="round" stroke-linejoin="round"/>
<path d="M184.493 378.966C184.493 378.966 182.67 377.842 181.854 378.758C181.039 379.673 180.431 384.583 180.631 385.058C180.831 385.532 182.462 384.35 182.77 383.843C183.078 383.335 184.493 378.966 184.493 378.966Z" fill="white" stroke="#263238" stroke-linecap="round" stroke-linejoin="round"/>
</svg>
