<svg width="56" height="53" viewBox="0 0 56 53" fill="none" xmlns="http://www.w3.org/2000/svg">
<mask id="mask0_7196_33637" style="mask-type:alpha" maskUnits="userSpaceOnUse" x="0" y="0" width="56" height="53">
<rect width="56" height="53" fill="#D9D9D9"/>
</mask>
<g mask="url(#mask0_7196_33637)">
<path d="M45.4492 38.5576C45.4492 40.3659 44.4534 40.784 44.4534 40.784C44.4534 40.784 27.6467 50.2384 26.5063 50.7923C25.9388 51.0692 25.3658 51.0692 24.7983 50.7923C24.7983 50.7923 7.27955 40.784 6.7121 40.3659C6.42837 40.0889 6.14465 39.6708 6 39.2527V18.6768C6 17.7048 7.14047 17.1454 7.14047 17.1454L24.6592 7.27293C25.3713 6.99598 26.0834 6.99598 26.7955 7.27293C26.7955 7.27293 42.3171 16.0322 44.0306 17.0042C45.0264 17.4224 45.5994 18.3944 45.4548 19.5077C45.4492 19.2361 45.4492 36.7492 45.4492 38.5576ZM38.4673 18.818C34.9068 16.8739 26.3616 12.0083 26.3616 12.0083C25.9332 11.7313 25.2211 11.7313 24.6537 12.0083L10.8401 19.79C10.8401 19.79 9.84423 20.3439 9.84423 21.039V37.1674C9.84423 37.4443 10.128 37.8625 10.2726 38.1394C10.701 38.4164 24.5146 46.2036 24.5146 46.2036C24.943 46.4805 25.5104 46.4805 25.9388 46.2036C26.7955 45.7854 39.8971 38.2806 39.8971 38.2806C39.8971 38.2806 40.6092 38.0037 40.6092 36.6135V32.5841L25.2267 41.7615V38.286C25.2267 37.314 25.6551 36.6189 26.3672 35.7826L40.1808 27.713C40.4645 27.2949 40.7483 26.5998 40.7483 26.0459V22.4292L25.2267 31.6066V27.8542C25.2267 27.0179 25.5104 26.1871 26.2225 25.7689L38.4673 18.818ZM49.8609 6.02937C49.8609 5.75242 49.5772 5.61123 49.4325 5.61123H46.1558V2.27695C46.1558 2 45.872 2 45.5883 2L43.8804 2.27695C43.5967 2.27695 43.5967 2.41814 43.5967 2.5539V5.61123H40.4645C40.1808 5.61123 40.1808 5.88818 40.0362 5.88818V7.97346H43.8804V11.4489C43.8804 11.7259 44.1641 11.7259 44.4478 11.7259L46.1558 11.4489C46.4395 11.4489 46.4395 11.3077 46.4395 11.172V8.11465H50L49.8609 6.02937Z" fill="black"/>
</g>
</svg>
