<svg width="92" height="92" viewBox="0 0 92 92" fill="none" xmlns="http://www.w3.org/2000/svg">
<mask id="mask0_9016_58976" style="mask-type:alpha" maskUnits="userSpaceOnUse" x="0" y="0" width="92" height="92">
<rect width="92" height="92" fill="black"/>
</mask>
<g mask="url(#mask0_9016_58976)">
<path d="M69.2828 32.3438V66.2669H48.3592C49.23 67.5855 50.5611 68.6802 50.9964 70.26C51.5811 72.3997 50.9094 74.3527 49.3544 75.8579C46.9909 75.8206 44.3163 76.1316 41.9901 75.9325C40.2734 75.7833 37.8477 73.9795 37.8477 72.1509V32.3562H69.2953L69.2828 32.3438ZM53.8078 36.1752H47.9238C47.476 36.1752 46.9411 36.8967 46.9909 37.357C47.2272 40.7779 46.6674 44.6342 46.9909 48.0054C47.053 48.7144 47.277 49.212 48.0482 49.2991C51.5065 49.0379 55.425 49.635 58.8335 49.2991C59.3559 49.2493 59.9157 49.0752 59.9904 48.4781V36.9838C59.8038 35.8144 57.8507 36.2747 57.0297 36.1752V39.6459C56.3331 39.4344 55.8479 38.0785 55.0518 38.6009C54.6288 38.8746 54.3303 39.5463 53.8078 39.6459V36.1752ZM63.8342 53.5037H43.346L43.1594 53.6903V56.228H63.8342V53.5037ZM63.8342 59.6987H43.1594V62.2986H63.8342V59.6987Z" fill="black"/>
<path d="M36.4768 64.0268L32.2224 62.1982L27.6446 65.2957C27.2341 65.5196 26.836 65.2459 26.5002 65.022C25.6045 64.3752 22.2706 60.9915 21.5491 60.071C21.4247 59.9093 21.2133 59.6356 21.1759 59.449C21.0018 58.6031 23.838 55.2942 24.2237 54.299C23.4897 52.545 22.5941 50.8656 22.1338 48.9997C22.0467 48.8877 21.4621 48.7757 21.263 48.726C20.3549 48.5145 16.8345 48.0916 16.3618 47.681C16.2498 47.5815 16.1627 47.4571 16.113 47.3078L16.0508 39.8067C16.113 39.2096 16.2249 38.8862 16.7972 38.6996C18.3646 38.1895 20.3798 38.1522 21.997 37.7168C22.1462 37.6297 22.7682 35.5648 22.9299 35.1791C23.1663 34.5945 24.149 32.8778 24.2112 32.4921C24.2361 32.3553 24.2112 32.2433 24.1366 32.1314L21.1884 27.6406C21.0391 27.255 21.2879 26.8818 21.5118 26.5833C22.1338 25.7125 25.5672 22.3164 26.4628 21.6323C26.8609 21.3213 27.147 21.0974 27.6695 21.2964C28.901 21.7691 30.7172 23.6351 31.9985 24.2819L32.4463 24.4063C34.0635 23.3863 35.8797 22.8016 37.6835 22.2045C37.9696 21.284 38.4174 16.8057 38.9399 16.3703C39.0891 16.2583 39.4499 16.1463 39.6489 16.1215C41.2785 15.9473 45.0478 15.9722 46.7147 16.1215C47.175 16.1588 47.5108 16.2707 47.7348 16.7186L48.7673 22.304C50.6954 22.6274 52.3997 23.5977 54.1412 24.4188C54.4895 24.4188 57.7487 21.8437 58.4951 21.4705C59.0425 21.1969 59.2539 21.1347 59.7764 21.5079C60.585 22.0925 64.3045 25.8244 64.914 26.6455C65.1255 26.9316 65.2499 27.056 65.225 27.4541C65.1877 28.1756 63.3466 30.3027 62.9361 31.0616L53.768 30.9745C46.3539 24.9785 35.1084 26.3345 29.7345 34.3083C24.0744 42.6927 27.5824 53.7641 36.5017 58.0309V64.0393L36.4768 64.0268Z" fill="black"/>
<path d="M51.0788 75.9197C52.6462 73.8547 53.007 71.1304 51.8377 68.7793C51.6262 68.3439 51.2281 67.9583 51.0788 67.498H72.1891C74.7143 67.498 76.543 70.7075 75.7717 73.071C75.4109 74.2031 73.6569 75.9197 72.4254 75.9197H51.0664H51.0788Z" fill="black"/>
</g>
</svg>
