<svg width="56" height="53" viewBox="0 0 56 53" fill="none" xmlns="http://www.w3.org/2000/svg">
<mask id="mask0_7200_56049" style="mask-type:alpha" maskUnits="userSpaceOnUse" x="0" y="0" width="56" height="53">
<rect width="56" height="53" fill="#D9D9D9"/>
</mask>
<g mask="url(#mask0_7200_56049)">
<mask id="mask1_7200_56049" style="mask-type:alpha" maskUnits="userSpaceOnUse" x="0" y="1" width="56" height="53">
<rect y="1.00012" width="55.9997" height="52.9997" fill="#D9D9D9"/>
</mask>
<g mask="url(#mask1_7200_56049)">
<path d="M27.7177 32.1714L19.8516 27.6286V18.5429L27.7177 14.0001L35.5839 18.5429V27.6286L27.7177 32.1714ZM34.3178 26.9025V19.2784L27.7177 15.471L21.1176 19.2784V26.9025L27.7177 30.7099L34.3178 26.9025Z" fill="#656565"/>
<path d="M28.9604 27.2837V26.0176L33.0471 23.6345V22.3685L28.9604 24.7237V23.4577L33.0564 21.1118V20.0133L27.7223 16.932L22.3789 20.0133V26.1666L27.7223 29.2479L33.0564 26.1666V24.9006L28.9604 27.2837Z" fill="#232323"/>
<path d="M6.47509 42.8417H0.3125V37.0887H6.27029V38.3547H1.68093V39.2205H4.87393V40.4865H1.68093V41.5756H6.47509V42.8417ZM8.31828 37.0887V42.8417H9.68671V38.5874L13.159 42.8417H14.9649V37.0887H13.5965V41.3522L10.1242 37.0887H8.31828ZM16.5847 37.0887V38.3547H19.1819V42.8417H20.5504V38.3547H23.1476V37.0887H16.5847ZM49.6039 37.0887V38.3547H52.2011V42.8417H53.5696V38.3547H56.1668V37.0887H49.6039ZM29.3195 37.0887C29.9432 37.0887 30.4366 37.2562 30.8089 37.6007C31.1813 37.9451 31.3582 38.4013 31.3582 38.9691C31.3582 39.8814 30.9393 40.4586 30.1015 40.7192L31.6188 42.8417H30.027L28.6027 40.8402H26.1358V42.8417H24.7674V37.0887H29.3195ZM26.1358 38.3547V39.5742H29.0775C29.8967 39.5742 29.9618 39.2856 29.9618 38.9598C29.9618 38.5874 29.7291 38.3547 29.1147 38.3547H26.1358ZM36.7109 41.7339C38.4889 41.7339 38.6565 41.1288 38.6565 40.5982V37.0887H40.0249V40.8961C40.0249 42.2552 38.5634 42.9999 36.7109 42.9999C34.8584 42.9999 33.3969 42.2552 33.3969 40.8961V37.0887H34.7653V40.5982C34.7653 41.1195 34.9329 41.7339 36.7109 41.7339ZM47.3791 38.7643L48.2355 37.8613C47.0812 36.9397 45.6196 36.9677 45.21 36.9397C44.8098 36.9118 42.0915 36.856 41.9705 38.6991C41.8867 39.9466 43.0783 40.3562 45.0052 40.4027C46.9229 40.4493 47.0067 40.7844 47.0067 40.9892C47.0067 41.2126 46.7647 41.7246 45.0425 41.6967C43.9254 41.678 42.9759 41.2871 42.4546 40.8495L41.6912 41.8549C42.5942 42.5717 43.7392 42.9255 45.1728 42.9255C46.895 42.9255 48.3751 42.4786 48.4496 41.073C48.5427 39.4346 46.8671 39.2391 45.3497 39.1181C43.8789 38.997 43.4134 38.9598 43.4134 38.5967C43.4227 38.1965 44.5305 38.1406 45.3031 38.1872C46.1968 38.243 46.8671 38.4664 47.3791 38.7643Z" fill="#3F454F"/>
</g>
</g>
</svg>
