<svg width="56" height="53" viewBox="0 0 56 53" fill="none" xmlns="http://www.w3.org/2000/svg">
<mask id="mask0_7200_55749" style="mask-type:alpha" maskUnits="userSpaceOnUse" x="0" y="0" width="56" height="53">
<rect width="56" height="53" fill="#D9D9D9"/>
</mask>
<g mask="url(#mask0_7200_55749)">
<path d="M56.5314 39.0951C27.4991 42.8893 6.77731 47.4465 6.47077 28.741C6.47077 28.741 7.10428 21.4932 15.9938 21.0368C15.9938 21.0368 16.2935 14.5995 23.085 13.8707C26.7362 13.4756 30.8846 17.2358 31.3342 21.1935C31.3342 21.1935 40.3191 19.5314 40.7073 28.2915C40.8436 31.3432 40.1556 36.5338 31.4909 36.309C31.4909 36.309 26.4773 35.6279 25.7961 27.8759C24.386 42.8825 46.0819 42.0106 46.3953 28.38C46.5315 22.4877 42.7577 16.4251 34.2565 17.5627C29.5971 5.83946 17.1927 6.51383 12.5742 17.3856C5.9735 17.3856 0.925893 22.4673 1.00082 29.1021C1.25286 50.4573 30.9731 44.0201 56.5314 39.0951Z" fill="black"/>
</g>
</svg>
