<svg width="92" height="92" viewBox="0 0 92 92" fill="none" xmlns="http://www.w3.org/2000/svg">
<mask id="mask0_9016_58955" style="mask-type:alpha" maskUnits="userSpaceOnUse" x="0" y="0" width="92" height="92">
<rect width="92" height="92" fill="black"/>
</mask>
<g mask="url(#mask0_9016_58955)">
<path d="M46.0006 51.1181C51.5201 51.1181 64.4972 44.4754 64.4972 28.5588C64.4975 16.0999 62.8156 6 46.0006 6C29.1857 6 27.5039 16.0999 27.5039 28.559C27.5039 44.4754 40.481 51.1181 46.0006 51.1181ZM30.2684 24.7941C31.5677 22.2813 34.3781 19.3775 40.4222 19.5063C40.4222 19.5063 44.0247 28.2447 61.711 24.3205C61.7824 25.7163 61.8048 27.1405 61.8048 28.559C61.8048 36.339 58.3696 41.1596 55.4875 43.8334C51.8562 47.2028 47.8245 48.4257 46.0006 48.4257C44.1767 48.4257 40.1449 47.2028 36.5136 43.8334C33.6316 41.1596 30.1963 36.339 30.1963 28.559C30.1965 27.3005 30.2148 26.0376 30.2684 24.7941Z" fill="black"/>
<path d="M80.34 74.255C79.3957 68.3831 77.4515 60.8196 73.5522 58.1318C70.8896 56.296 61.5996 51.3327 57.6327 49.2132L57.564 49.1765C57.1106 48.9343 56.5569 48.9828 56.1524 49.3003C54.0743 50.9318 51.7979 52.0314 49.3864 52.5683C48.9604 52.6633 48.6108 52.966 48.4559 53.3739L46.0004 59.8466L43.5448 53.3739C43.3899 52.966 43.0403 52.6633 42.6143 52.5683C40.2028 52.0314 37.9264 50.9318 35.8483 49.3003C35.4438 48.9828 34.8901 48.934 34.4367 49.1765C30.5168 51.2711 21.1132 56.3356 18.4601 58.1238C13.9715 61.1477 12.0087 72.0918 11.661 74.255C11.6264 74.4696 11.6466 74.689 11.7189 74.8938C11.8795 75.3472 15.999 86.001 46.0004 86.001C76.0017 86.001 80.1212 75.3472 80.2818 74.8938C80.3544 74.689 80.3745 74.4694 80.34 74.255ZM66.5152 70.6719L60.6428 72.5023L54.7705 70.6719V67.5124H66.5152V70.6719Z" fill="black"/>
</g>
</svg>
