<svg width="56" height="53" viewBox="0 0 56 53" fill="none" xmlns="http://www.w3.org/2000/svg">
<mask id="mask0_7200_56270" style="mask-type:alpha" maskUnits="userSpaceOnUse" x="0" y="0" width="56" height="53">
<rect width="56" height="53" fill="#D9D9D9"/>
</mask>
<g mask="url(#mask0_7200_56270)">
<path d="M56 42.1397C55.185 42.4432 54.2853 42.4426 53.4707 42.1378C52.6562 41.833 51.983 41.2452 51.5783 40.4852L43.5283 29.5219L42.3617 27.9892L33.0213 40.499C32.641 41.2271 32.0044 41.7938 31.2305 42.0932C30.4567 42.3926 29.5986 42.4043 28.8167 42.1259L40.852 26.2245L29.6567 11.8603C30.4617 11.5746 31.342 11.5709 32.1495 11.8496C32.957 12.1284 33.6423 12.6726 34.09 13.3907L42.434 24.4896L50.8247 13.4367C51.208 12.7216 51.8448 12.1701 52.614 11.8871C53.3831 11.604 54.2311 11.6093 54.9967 11.9017L50.652 17.5798L44.7673 25.1238C44.6039 25.2673 44.4732 25.4433 44.3836 25.6401C44.2941 25.8369 44.2478 26.0502 44.2478 26.2658C44.2478 26.4815 44.2941 26.6947 44.3836 26.8915C44.4732 27.0884 44.6039 27.2643 44.7673 27.4079L55.9767 42.142L56 42.1397ZM0.00469466 26.0268L0.984694 21.2587C3.67736 11.8305 14.6534 7.90796 22.204 13.7446C26.6257 17.1662 27.7294 22.0101 27.5124 27.4699H2.60403C2.20036 37.2199 9.34502 43.1071 18.48 40.0991C19.9609 39.5742 21.2864 38.6957 22.3379 37.5423C23.3893 36.3889 24.1338 34.9967 24.5047 33.4904C24.9877 31.96 25.7834 31.698 27.244 32.1392C27.0006 34.006 26.3305 35.7941 25.2842 37.369C24.2378 38.944 22.8425 40.2648 21.203 41.232C18.495 42.6908 15.388 43.2689 12.3261 42.8839C9.26434 42.4988 6.40456 41.1702 4.15569 39.0881C1.9321 36.6233 0.588206 33.5099 0.329028 30.2228C0.329028 29.6828 0.142361 29.1773 0.0163613 28.6924C0.00500273 27.8047 -0.000441833 26.9169 2.79913e-05 26.0291L0.00469466 26.0268ZM2.63436 25.3696H25.1604C25.0204 18.3013 20.4914 13.2873 14.4504 13.2414C7.72569 13.1495 2.91436 18.0532 2.61803 25.3375L2.63436 25.3696Z" fill="black"/>
</g>
</svg>
