<svg width="56" height="53" viewBox="0 0 56 53" fill="none" xmlns="http://www.w3.org/2000/svg">
<mask id="mask0_7200_56878" style="mask-type:alpha" maskUnits="userSpaceOnUse" x="0" y="0" width="56" height="53">
<rect width="56" height="53" fill="#D9D9D9"/>
</mask>
<g mask="url(#mask0_7200_56878)">
<path fill-rule="evenodd" clip-rule="evenodd" d="M7.36719 16.5072C7.36719 9.31292 13.1993 3.48083 20.3935 3.48083H36.604C43.7983 3.48083 49.6303 9.31291 49.6303 16.5071V28.9545H53.1053C54.704 28.9545 56 30.2505 56 31.8492C56 33.4479 54.704 34.7439 53.1053 34.7439H3.89474C2.29602 34.7439 1 33.4479 1 31.8492C1 30.2505 2.29602 28.9545 3.89474 28.9545H7.36719V16.5072ZM17.6504 48.9324C14.8453 48.9139 12.602 48.8991 12.602 50.0553V51.5331H9.68583H9.67699C9.67699 51.3885 9.67576 51.24 9.67451 51.0884C9.64921 48.0212 9.61337 43.6756 19.4974 43.6756C27.0667 43.6756 27.5198 41.1551 27.6197 40.5992C27.6245 40.5725 27.6285 40.5503 27.6324 40.5331H27.9219H28.7903H29.9482C29.9549 40.5624 29.9582 40.6062 29.9625 40.6622C30.0129 41.3229 30.1923 43.6756 37.5036 43.6756C47.3718 43.6756 47.3453 46.669 47.3193 49.605C47.3179 49.7554 47.3166 49.9056 47.3166 50.0553L47.267 51.5528L44.4219 51.5331L44.3996 50.0553C44.3996 48.8991 42.1563 48.9139 39.3512 48.9324C34.9657 48.9614 29.207 48.9995 28.5008 44.5858C27.7946 48.9995 22.0359 48.9614 17.6504 48.9324Z" fill="black"/>
</g>
</svg>
