<svg width="92" height="92" viewBox="0 0 92 92" fill="none" xmlns="http://www.w3.org/2000/svg">
<mask id="mask0_9015_58903" style="mask-type:alpha" maskUnits="userSpaceOnUse" x="0" y="0" width="92" height="92">
<rect width="92" height="92" fill="black"/>
</mask>
<g mask="url(#mask0_9015_58903)">
<path d="M67.7969 32.8172L68.1642 33.1845C68.886 33.9063 70.0637 33.9063 70.7855 33.1845C71.5074 32.4626 71.5074 31.2849 70.7855 30.5631L67.0245 26.802C66.3026 26.0802 65.1249 26.0802 64.4031 26.802C63.6813 27.5239 63.6813 28.7016 64.4031 29.4234L64.707 29.7273L62.5922 31.8295C58.9704 28.6382 54.4369 26.4601 49.4348 25.7636V21.6859H50.8151C52.0181 21.6859 52.9932 20.6982 52.9932 19.5078V18.1781C52.9932 16.9751 52.0055 16 50.8151 16H41.3427C40.1397 16 39.1646 16.9878 39.1646 18.1781V19.4951C39.1646 20.6982 40.1524 21.6733 41.3427 21.6733H42.7231V25.713C30.3001 27.2959 20.6758 37.9206 20.6758 50.7615C20.6758 64.6788 31.997 76 45.9143 76C59.8315 76 71.1528 64.6788 71.1528 50.7615C71.1528 44.8096 69.076 39.3263 65.6061 34.9954L67.7969 32.8172ZM67.1131 49.4825H63.5166V52.0279H67.1131C66.8218 56.9413 64.859 61.3989 61.7817 64.8561L59.363 62.4373L57.5648 64.2355L59.9835 66.6543C56.5643 69.6809 52.1827 71.6184 47.3453 71.9477V68.5032H44.7999V71.9603C40.0004 71.7071 35.6188 69.8582 32.1743 66.9329L34.7323 64.3748L32.9215 62.5893L30.3254 65.1853C27.0835 61.6902 25.0067 57.0933 24.7028 52.0405H28.6158V49.4951H24.7155C25.0067 44.607 26.9569 40.1494 30.0215 36.7049L32.8961 39.5796L34.6944 37.7813L31.8197 34.9067C35.3149 31.7915 39.8358 29.816 44.8125 29.5627V33.6277H47.3579V29.5753C52.36 29.9046 56.8809 31.9814 60.3507 35.1853L57.6154 37.9206L59.4136 39.7189L62.111 37.0215C64.9983 40.428 66.8345 44.7463 67.1131 49.4825ZM42.8497 62.5133L33.1874 52.851L38.3288 47.7096L42.8497 52.2305L53.4998 41.5804L58.6412 46.7218L42.8497 62.5133Z" fill="black"/>
</g>
</svg>
