<svg width="34" height="47" viewBox="0 0 34 47" fill="none" xmlns="http://www.w3.org/2000/svg">
<path d="M22.2831 16.9682L17.5797 21.344L13.2109 12.5408L15.4696 7.47758C16.057 6.44992 16.9728 6.46087 17.5461 7.47758L22.2831 16.9682Z" fill="black"/>
<path d="M13.2087 12.5391L17.5727 21.3422L0 37.6918L13.2087 12.5391Z" fill="#2E2E2E"/>
<path d="M27.4231 10.2818C28.2631 9.47391 29.132 9.74998 29.3541 10.8942L33.9293 37.4789L18.7615 46.5808C18.2328 46.8749 16.8235 47.0008 16.8235 47.0008C16.8235 47.0008 15.5401 46.8444 15.0513 46.5605L0 37.694L27.4231 10.2818Z" fill="black"/>
<path d="M13.2079 12.54L0 37.6927L5.88286 0.934585C6.0995 -0.21039 6.75176 -0.316754 7.33285 0.689792L13.2079 12.54Z" fill="black"/>
</svg>
