<svg width="56" height="53" viewBox="0 0 56 53" fill="none" xmlns="http://www.w3.org/2000/svg">
<mask id="mask0_7200_56648" style="mask-type:alpha" maskUnits="userSpaceOnUse" x="0" y="0" width="56" height="53">
<rect width="56" height="53" fill="#D9D9D9"/>
</mask>
<g mask="url(#mask0_7200_56648)">
<path d="M17.4374 46.6345C15.3427 44.9878 13.1093 43.4103 11.5791 41.1899C8.36528 37.2734 5.88926 32.7337 4.20062 27.9666C3.17555 24.866 2.8289 21.5429 1.50671 18.561C0.130045 16.395 1.74441 14.0312 4.11643 13.3439C5.17122 13.1411 7.03318 12.1422 4.78991 12.8592C2.77938 14.3329 2.58625 11.5191 4.6463 11.3411C6.05268 11.1532 6.57264 10.0059 6.09229 8.9674C4.58192 7.98332 9.7568 6.90034 7.15203 5.43163C4.43831 2.50905 10.9453 1.94531 9.34083 5.26844C8.95952 7.82013 13.8868 4.79865 12.7429 7.74596C13.9066 9.16027 17.1007 8.06739 17.0165 10.0553C18.7101 10.174 19.2944 11.5933 20.8791 11.7021C22.5281 12.4438 25.5142 13.0323 26.0738 14.8867C24.4396 16.1774 20.6513 12.2164 20.473 15.7966C20.9682 21.083 20.8395 26.5276 22.7757 31.5617C23.6918 34.6079 25.9103 37.0063 27.9159 39.38C29.8373 41.7042 32.4322 43.3411 35.0865 44.7208C37.409 45.8136 39.9147 46.5406 42.4501 46.9955C43.4752 46.2092 45.2926 43.2966 46.8921 44.523C46.9713 45.9076 43.7129 47.4109 46.7386 47.2626C48.5164 46.7285 49.7494 48.6324 51.2152 46.9115C52.5622 48.5087 56.8209 45.8928 55.8602 49.1516C54.5628 49.9873 52.6711 49.4829 51.3687 50.6351C49.2245 49.567 47.521 51.5896 45.149 51.3374C42.5145 51.8071 39.8355 52 37.1614 52C32.7788 51.6538 28.3022 51.5104 24.1375 49.9873C21.7902 49.3049 19.4975 47.9697 17.4374 46.6345ZM21.1366 48.2368C23.4294 49.2258 25.6726 50.2692 28.1833 50.5857C32.1697 51.1395 36.2898 51.9901 40.291 51.2137C38.4786 50.3978 36.6067 51.5302 34.8042 50.6302C32.6402 51.095 30.3176 50.5115 28.1189 50.2247C25.6182 49.112 22.9193 48.3455 20.577 46.9016C17.6503 45.8334 22.0923 48.2714 22.8797 48.4692C24.707 49.5076 20.8692 47.9351 20.3244 47.5049C18.7943 46.6444 18.5962 46.8274 20.1709 47.6977C20.4879 47.8807 20.8048 48.0785 21.1366 48.2368ZM16.7738 45.1559C18.9973 45.9768 16.7639 43.5933 15.7488 43.7317C15.2981 42.9504 14.0255 42.4559 14.9218 42.0355C13.3074 42.5943 13.2282 39.9091 12.4705 40.2899C10.7621 39.7509 11.8069 37.8421 9.77166 36.6701C9.58843 35.4338 7.75123 34.3656 7.16689 32.5013C6.90938 31.5469 5.09198 28.8122 6.20619 31.359C7.15698 33.8118 8.82582 35.9135 10.2173 38.0102C11.2969 40.008 12.5745 42.0949 14.5355 43.3411C15.1991 43.9839 15.8379 44.9581 16.7738 45.1559ZM10.3709 38.1388C10.7769 38.8608 10.4501 37.8025 10.3709 38.1388ZM19.4331 46.14C19.9283 45.9224 18.7249 45.8631 19.4331 46.14ZM20.6414 46.5801C20.5176 45.9719 20.0917 46.9213 20.6414 46.5801ZM22.1517 47.2082C22.8698 46.5257 21.0425 46.7779 22.1517 47.2082ZM24.7367 48.6472C25.1774 48.0043 23.3402 48.4049 24.7367 48.6472ZM19.7698 45.1905C20.884 44.4686 18.3288 45.1807 19.7698 45.1905ZM20.9038 45.7543C20.8692 45.3735 20.4978 45.9224 20.9038 45.7543ZM26.564 49.2802C27.4752 49.8538 31.8775 50.5362 29.1193 49.5175C28.6587 49.6164 24.0038 48.2021 26.564 49.2802ZM17.5761 42.2927C17.4869 41.9119 16.1647 41.8724 17.5761 42.2927ZM20.2105 43.8257C20.8989 43.351 18.7893 43.4597 20.2105 43.8257ZM22.4291 45.1856C23.4096 44.8147 20.8296 44.8147 22.4291 45.1856ZM16.5015 41.1256C17.5711 41.9416 20.8097 41.2295 18.1356 40.6361C16.9224 39.9883 14.179 39.5481 16.0459 41.0267L16.5015 41.1256ZM23.9295 45.6554C24.3752 44.8988 22.0626 45.2202 23.9295 45.6554ZM21.6714 43.8603C24.2811 44.5971 19.4776 42.2086 21.0276 43.5883L21.3743 43.7466L21.6714 43.8603ZM26.1976 46.4713C28.6686 46.4961 23.9642 46.1351 26.1976 46.4713ZM15.5507 39.6965C15.4566 39.2366 14.9416 39.7361 15.5507 39.6965ZM30.3771 48.8153C30.4464 47.9845 29.5748 49.4335 30.3771 48.8153ZM19.7698 42.2779C19.6213 41.8427 18.9973 42.2581 19.7698 42.2779ZM15.7884 39.4097C17.2047 39.3256 13.8422 38.7866 15.7884 39.4097ZM11.0641 36.3635C10.8859 35.681 9.5191 35.142 11.0641 36.3635ZM23.4591 44.2164C23.3353 44.2806 23.2016 43.9196 23.4591 44.2164ZM31.1744 48.9439C31.1496 48.4939 30.7534 49.117 31.1744 48.9439ZM22.7757 43.5141C22.9144 42.9306 21.5674 43.3361 22.7757 43.5141ZM17.0313 39.8745C18.0861 39.7608 15.3377 39.1624 17.0313 39.8745ZM26.7522 45.9076C28.3963 45.2548 25.1477 45.5911 26.7522 45.9076ZM21.6962 42.4806C23.5928 42.7229 19.438 41.1899 21.2802 42.3421L21.6962 42.4806ZM28.2873 46.5307C30.0601 45.4724 29.4758 49.0082 31.2932 46.8274C33.0858 45.5219 29.7432 48.4444 31.9518 47.0598C33.5513 45.9917 35.9085 47.5642 37.3991 48.0785C38.4687 48.0241 39.5136 49.0032 40.6129 48.4098C42.7274 47.8411 36.473 47.5642 38.1122 46.5554C36.1759 47.1191 34.7448 45.8829 33.794 44.6466C31.62 44.1471 29.1094 43.0394 28.0249 41.1158C27.5841 40.3938 28.6637 41.2196 27.6436 40.0377C26.3362 38.8756 25.6825 37.5553 24.806 36.1409C23.7562 35.5821 23.6324 33.9354 23.5284 36.0865C23.5383 34.7316 22.2607 33.8167 21.9487 34.1975C21.9438 32.892 23.3155 33.5447 22.3548 32.5804C22.1468 31.2255 21.4684 29.8161 21.2653 28.2881C20.9484 27.5512 21.2208 25.9737 20.1808 27.6402C19.8045 29.4057 20.057 25.4743 20.6463 26.7699C21.4188 25.4496 20.369 25.6029 20.3244 25.7858C20.8296 24.6682 20.6414 23.0858 20.1907 23.6891C20.4581 22.5072 20.6166 19.3374 19.7896 19.9011C20.2898 18.6648 20.7404 14.2439 18.5665 15.9302C17.685 15.945 16.1647 16.2466 15.4417 16.6076C17.6999 17.8489 15.2139 17.0577 14.2929 16.8598C14.174 18.0121 13.2628 17.5126 12.1239 17.5225C13.9413 17.745 11.2375 19.3769 10.1975 18.7439C8.84067 19.3918 11.3662 21.0039 10.2223 21.5033C10.3609 22.255 8.14739 21.2313 8.32071 22.9671C7.00842 22.4132 8.14244 25.0243 8.79611 24.144C11.0295 24.7473 10.3709 26.127 10.4253 27.4326C10.0589 28.1941 8.62774 25.6424 10.1084 25.7611C8.93971 23.8671 8.81591 25.0787 7.85027 25.954C7.62743 26.0182 10.3213 27.2051 8.62774 27.7935C10.1183 28.026 10.1629 29.3265 10.4649 30.1474C11.3613 31.0771 11.178 29.1188 12.2477 30.2364C11.5692 29.2375 8.65745 27.4276 10.9998 28.0062C10.9849 27.0023 10.5739 26.1913 11.2969 26.2111C12.01 24.9254 10.5491 29.3859 12.1536 27.749C12.5993 27.5562 12.7082 26.4633 13.5055 27.8529C14.6643 28.9903 13.9264 29.8161 12.2873 28.7727C12.5795 29.7667 14.4761 30.1178 14.1195 31.6705C14.4959 33.0354 15.0258 32.531 15.4863 32.4519C15.8478 33.7772 16.0508 32.803 16.0706 32.17C17.7246 32.526 17.3384 33.5002 17.8534 34.1827C18.9923 34.697 16.2242 30.7013 18.1802 32.981C20.2403 34.8354 18.9527 35.6118 17.1056 35.3151C18.2743 35.2211 18.6507 36.8926 20.1115 36.8333C21.4436 37.4662 22.3498 39.8992 20.0521 38.8855C19.2548 38.1684 16.4321 37.2833 18.7398 38.6481C20.8692 39.6322 22.5578 40.2207 24.6129 41.457C26.0787 42.5053 26.7175 43.7021 27.2721 43.9394C26.0391 44.5279 23.5532 43.4696 25.4003 43.1433C24.2465 42.9356 22.954 42.352 24.0583 43.7861C24.9942 44.5675 27.3811 44.4883 27.8119 44.5724C27.4504 45.3686 26.8265 45.4329 27.8268 45.4922C26.7126 46.0955 28.1833 46.1895 28.2873 46.5307ZM26.0094 40.102C25.3309 39.3948 25.1576 38.0695 25.8905 39.2218C26.2619 39.3701 27.0939 41.3877 26.0094 40.102ZM33.4325 44.8098C33.8534 44.7801 33.4424 45.1312 33.4325 44.8098ZM24.9397 38.3663C25.1824 39.1921 24.91 37.2932 24.9397 38.3663ZM24.2019 37.3723C25.2765 37.8421 23.3452 35.7305 24.2019 37.3723ZM15.2585 31.2106C15.7587 31.0771 15.5061 32.0661 15.2585 31.2106ZM22.3746 35.0629C22.7361 36.0321 22.6816 33.9107 22.3746 35.0629ZM17.3483 31.5716C18.0911 32.17 16.9967 30.9337 17.3483 31.5716ZM21.6615 32.9513C20.8543 31.1464 22.2359 31.9623 21.8398 33.248L21.6615 32.9513ZM14.2235 28.0012C13.862 27.4078 13.2678 25.6671 13.456 25.138C13.6293 26.0034 15.2981 28.8617 14.2731 26.3199C13.144 24.1935 15.625 27.0122 15.8825 27.5413C16.0013 28.0705 15.1842 27.3979 15.7389 28.6342C14.7286 27.2249 15.1446 29.4156 14.2235 28.0012ZM11.9258 26.4188C12.4507 27.3633 12.0199 25.0391 11.9258 26.4188ZM12.9558 26.7748C13.7927 28.2238 13.451 25.7314 12.9558 26.7748ZM10.4699 24.8512C9.61319 24.0006 8.99419 23.2193 10.5095 24.3221C11.0939 24.3468 9.21208 22.5418 10.6482 23.7484C12.1635 24.0254 11.3959 26.2259 10.4699 24.8512ZM11.7772 24.8166C12.2724 24.327 12.0397 25.3012 11.7772 24.8166ZM12.5795 25.0737C13.4956 25.6671 11.8268 23.6644 12.5795 25.0737ZM10.9849 23.5506C8.49898 21.3401 14.1096 24.7078 11.391 23.9611L10.9849 23.5506ZM18.1109 27.6848C17.0313 27.0419 17.8237 23.1451 18.1901 25.8105C19.235 25.4743 18.1307 27.1853 18.9131 27.1705C18.7943 28.2485 18.4427 28.6392 18.1109 27.6848ZM20.7503 29.2425C20.9732 30.0436 20.8543 28.0655 20.7503 29.2425ZM20.2898 28.7875C20.4086 28.2881 20.3046 29.3809 20.2898 28.7875ZM11.4702 22.8237C9.8707 20.6231 16.1152 25.0539 12.4953 23.3825C12.114 23.2786 11.6584 23.244 11.4702 22.8237ZM16.551 25.5089C16.8877 25.8155 16.3975 23.6545 16.551 25.5089ZM20.4037 27.9815C20.7008 26.9232 20.4284 28.6787 20.4037 27.9815ZM11.7178 21.983C12.6686 21.7803 15.6547 23.6495 12.9112 22.5171C12.6042 22.1759 11.9555 22.3292 11.7178 21.983ZM19.8738 26.043C19.9728 24.144 20.4433 24.9105 19.8788 26.315L19.8738 26.043ZM12.421 21.3204C12.8073 20.7517 11.391 18.7588 12.624 20.6033C13.1588 21.0237 14.1641 21.3105 13.2727 21.4885C14.6791 22.7248 12.936 21.8248 12.421 21.3204ZM19.4727 25.4496C19.7401 23.2885 19.7054 26.7155 19.4727 25.4496ZM11.6138 19.3275C11.9109 19.1989 11.7723 19.7181 11.6138 19.3275ZM13.451 20.4203C14.3275 21.5231 13.9264 19.4264 13.451 20.4203ZM18.6358 23.2984C18.7348 23.8523 18.6358 22.9176 18.6358 23.2984ZM18.3387 22.6358C19.0072 23.5753 17.6206 20.8605 18.3387 22.6358ZM17.8979 21.4737C18.309 22.3935 17.7741 20.7418 17.8979 21.4737ZM18.616 20.3066C18.1208 19.4363 19.2399 16.4741 19.3637 18.3137C18.8438 19.7429 19.2152 20.544 19.5767 18.6253C20.2502 17.112 19.4331 21.6022 18.616 20.3066ZM19.3538 15.9005C19.5717 15.6384 19.4034 16.2219 19.3538 15.9005ZM18.1208 40.191C18.1555 40.3542 17.8286 39.9339 18.1208 40.191ZM20.6612 41.4767C22.0775 41.8427 22.0676 41.2592 20.7899 41.0861C20.1016 40.4482 17.9326 39.7707 19.8738 41.007C20.0075 41.3284 20.4136 41.3185 20.6612 41.4767ZM15.6398 38.1437C16.4173 38.7272 18.5764 39.7855 16.7491 38.3663C17.3631 37.6542 15.5705 37.2734 16.1647 36.7937C14.6494 35.869 14.9713 35.953 16.031 35.9827C14.2136 35.1717 16.2935 35.231 16.1944 34.8156C15.4913 34.6772 12.7132 33.5794 14.3473 34.9047C12.6835 34.059 13.9512 35.2211 13.4461 35.0975C11.7426 34.6327 14.9614 36.3931 13.1787 35.953C14.1542 36.7245 15.8032 37.9311 13.5897 36.769C13.3074 37.1893 15.1793 37.8272 15.6398 38.1437ZM18.2991 39.6718C21.5327 40.7103 16.7144 38.3959 18.2991 39.6718ZM31.9172 47.9054C31.9568 47.2626 31.4715 48.4543 31.9172 47.9054ZM33.3136 48.4939C34.0614 47.7719 33.3433 49.6461 34.5516 48.3159C34.5665 47.3664 34.517 46.8027 33.1651 47.9598C32.7937 48.1675 32.6253 49.0428 33.3136 48.4939ZM11.1038 34.5634C10.871 33.6634 9.49434 33.6684 11.1038 34.5634ZM12.5943 35.5426C12.0397 34.6228 10.6135 34.7118 12.5943 35.5426ZM21.097 40.6608C21.9289 41.3976 24.91 41.1998 22.1022 40.7498C21.6912 40.1366 19.4677 40.285 21.097 40.6608ZM32.7838 47.8659C34.0564 46.7977 31.5458 48.3455 32.7838 47.8659ZM35.4381 49.6906C35.448 49.3494 34.8884 49.839 35.4381 49.6906ZM35.443 49.2109C36.8593 47.7126 34.0713 49.3 35.443 49.2109ZM7.42439 31.4925C6.22105 29.7765 6.67663 29.0051 5.51291 27.6007C5.29006 26.5276 3.51724 24.0946 4.59678 26.671C5.58224 28.1793 5.8744 30.5134 7.42439 31.4925ZM34.9973 48.7362C37.6021 47.0549 33.9326 48.0043 34.9973 48.7362ZM36.9831 49.5126C38.2904 48.395 36.1611 49.2802 36.9831 49.5126ZM10.6581 32.6645C11.0344 32.1107 9.69738 32.5953 10.6581 32.6645ZM36.5721 48.9785C37.8348 48.1675 36.2799 48.2911 36.3443 49.0527L36.5721 48.9785ZM19.4479 38.2031C19.4034 37.6542 18.7794 38.2476 19.4479 38.2031ZM20.5077 38.8113C20.166 38.1289 19.9877 38.9152 20.5077 38.8113ZM38.5975 49.5274C40.2168 48.3604 37.6169 49.3049 38.2607 49.75L38.5975 49.5274ZM37.9735 49.2307C39.2957 48.128 36.5869 49.7203 37.9735 49.2307ZM41.1378 51.3324C42.0243 50.7439 40.0633 51.1445 41.1378 51.3324ZM11.4702 32.264C12.6537 32.531 16.2044 35.1766 14.1096 32.4469C13.035 32.1304 13.6788 29.5095 12.5844 29.9744C13.3173 31.2007 13.1886 31.72 11.6435 30.9485C9.70728 30.004 10.5541 31.4134 10.9354 31.8041C10.4204 31.9277 11.6237 32.2541 11.4702 32.264ZM6.07249 28.0062C6.28542 27.1309 4.11643 23.1847 5.04741 26.0281C5.38415 26.6265 5.34949 27.754 6.07249 28.0062ZM15.9815 34.1085C15.9518 34.0343 15.3724 33.5991 15.9815 34.1085ZM17.482 34.4596C17.482 33.5299 15.823 34.0788 17.482 34.4596ZM30.5058 42.6537C30.2582 42.0207 29.5253 42.6438 30.5058 42.6537ZM31.1298 43.1136C31.0406 42.7575 30.7732 43.1828 31.1298 43.1136ZM36.2948 46.3576C36.79 45.9917 35.6757 46.3131 36.2948 46.3576ZM8.76639 28.6936C10.1876 28.1447 7.24612 28.3029 8.76639 28.6936ZM29.3619 41.6498C29.3421 40.73 28.4557 41.8773 29.3619 41.6498ZM8.20681 27.388C9.11799 27.0814 7.36001 27.1853 8.20681 27.388ZM10.8512 28.6688C10.8363 28.3672 10.5739 28.7826 10.8512 28.6688ZM43.1484 48.4444C44.322 48.2071 46.9961 49.0428 47.4269 48.1329C46.0007 48.0983 42.4997 47.129 42.3362 48.3604L42.6482 48.4098L43.1484 48.4444ZM11.693 28.8815C11.7178 27.9518 10.97 28.8469 11.693 28.8815ZM4.73544 24.06C4.41851 22.2896 3.53209 23.7929 4.73544 24.06ZM6.39437 24.4754C6.41418 23.9067 4.87409 23.966 6.39437 24.4754ZM7.34021 24.9402C7.12727 25.2221 7.06784 24.7226 7.34021 24.9402ZM13.3124 28.7628C13.5946 28.5056 12.6438 28.5749 13.3124 28.7628ZM6.7113 23.8918C6.54788 22.5517 4.78991 23.694 6.7113 23.8918ZM3.30925 21.6863C3.25973 21.0682 2.97746 21.9187 3.30925 21.6863ZM3.81436 21.3055C3.73017 20.5736 3.37858 21.3995 3.81436 21.3055ZM6.61226 22.972C7.79579 22.5072 4.45812 22.0127 6.36961 22.883L6.61226 22.972ZM44.0447 46.0609C44.8024 45.3686 43.084 45.8482 44.0447 46.0609ZM48.5659 48.4049C48.868 47.5098 47.8033 48.5186 48.5659 48.4049ZM6.89452 21.5083C7.02328 20.6429 5.95859 21.6814 6.89452 21.5083ZM2.91804 18.8478C2.7051 17.6263 2.73481 15.4752 4.78 16.2021C2.05143 16.7461 6.67168 19.5896 6.08734 17.3445C7.23621 17.3989 8.33061 16.667 7.73142 17.7796C9.9945 17.5324 11.5593 15.5741 13.7432 15.8461C15.4467 15.6186 17.3037 15.4505 19.136 14.7681C20.6414 14.6593 22.0923 13.0373 21.2703 12.0779C19.2152 11.9048 17.0611 12.162 14.793 12.612C12.2774 13.1362 9.98955 14.1252 7.44915 14.5554C4.97313 14.8867 7.94436 15.4703 7.23621 15.5988C5.94373 16.0439 8.7763 16.3505 7.06785 16.8203C6.01306 16.6175 4.91371 16.2565 5.36434 15.1488C2.99232 15.4554 0.907514 16.4395 2.78434 18.8478H2.91804ZM8.63269 15.9401C9.18732 13.8928 11.6089 17.6214 9.54386 16.212C9.29626 16.0241 8.89019 15.8758 8.63269 15.9401ZM8.74163 14.9461C9.54386 14.3527 9.16751 15.2823 8.74163 14.9461ZM9.76175 14.9659C9.83603 14.0263 12.0942 15.4653 10.1332 15.3021L9.76175 14.9659ZM11.1533 14.4021C11.6633 13.8087 11.3018 14.9312 11.1533 14.4021ZM11.5098 14.1647C12.3566 13.146 16.3083 13.5169 13.4164 14.0658C12.6438 13.4823 12.0496 14.412 11.5098 14.1647ZM16.6698 13.3735C19.235 14.3576 16.5411 10.5944 16.6698 13.3735ZM18.1356 13.3636C18.6705 11.9642 20.2155 12.7999 18.3832 13.0818C18.4229 13.2301 18.3288 13.8037 18.1356 13.3636ZM6.32009 20.7912C7.9196 19.8121 4.62154 19.9407 6.32009 20.7912ZM7.50362 21.1176C8.0632 20.5242 6.28542 20.8753 7.50362 21.1176ZM4.01739 18.65C4.93352 17.9478 2.93785 18.3829 4.01739 18.65ZM51.235 48.1477C51.2598 47.3318 50.5368 48.5137 51.235 48.1477ZM46.4365 44.879C46.5752 43.9394 45.8225 44.9581 46.4365 44.879ZM52.5572 48.4642C53.8349 48.4692 56.4297 48.0686 53.6467 48.0686C53.2109 48.1329 51.1063 48.123 52.5572 48.4642ZM8.54355 20.544C9.57853 20.4747 10.1629 19.4066 8.34052 19.4659C5.52281 19.1742 10.8264 20.4302 7.97902 20.0692C7.59771 20.3214 8.51879 20.6132 8.54355 20.544ZM9.45473 21.0039C9.34578 20.3412 9.13284 21.355 9.45473 21.0039ZM10.5343 18.1258C10.98 17.5719 9.91031 17.9774 10.5343 18.1258ZM7.0926 12.3894C8.93971 11.7614 11.4603 11.0592 12.3319 12.696C11.4454 11.6328 11.9753 10.5795 12.8122 12.1422C13.9957 13.7197 14.59 11.4251 13.8175 10.896C14.694 11.9839 15.6943 12.4982 14.4068 10.9652C15.8082 9.28389 11.6039 11.1878 10.6482 11.168C10.1926 11.3707 5.90412 12.2559 7.0926 12.3894ZM8.1771 10.3224C9.23188 9.53115 11.8168 10.7971 10.1579 9.5361C9.9945 9.38774 6.51817 10.4905 8.1771 10.3224ZM12.0149 10.4806C13.248 10.5103 11.4851 8.82894 12.9509 9.59049C12.7082 8.80421 11.2424 8.65586 10.5244 8.34432C10.1183 9.06136 11.3464 10.4905 12.0149 10.4806ZM8.85058 6.99924C9.27645 6.4256 8.10282 7.29595 8.85058 6.99924ZM10.4154 7.37507C12.4012 7.11298 9.91031 6.52451 10.0143 7.35529L10.4154 7.37507ZM7.48877 5.09042C6.09229 3.26566 10.1183 5.39701 8.69707 3.48819C7.50362 2.53872 6.35475 4.55634 7.48877 5.09042ZM25.4201 14.7334C26.0589 13.601 22.7757 13.2054 24.9893 14.3329C25.1972 14.4021 25.1477 14.8126 25.4201 14.7334Z" fill="#010101"/>
</g>
</svg>
