<svg width="56" height="53" viewBox="0 0 56 53" fill="none" xmlns="http://www.w3.org/2000/svg">
<mask id="mask0_7197_55627" style="mask-type:alpha" maskUnits="userSpaceOnUse" x="0" y="0" width="56" height="53">
<rect width="56" height="53" fill="#D9D9D9"/>
</mask>
<g mask="url(#mask0_7197_55627)">
<path d="M42.0556 12.1389H13.9444M13.9444 18.9623H31.0377M13.9444 34.4811H42.0556M13.9444 40.6887H37.9811M17.2667 3H38.7333C43.0272 3 45.1738 3 46.814 3.85378C48.2566 4.60479 49.4294 5.80313 50.1643 7.27708C51 8.95271 51 11.1462 51 15.5333V37.4667C51 41.8539 51 44.0472 50.1643 45.723C49.4294 47.197 48.2566 48.3952 46.814 49.1462C45.1738 50 43.0272 50 38.7333 50H17.2667C12.9729 50 10.8261 50 9.18608 49.1462C7.74349 48.3952 6.57064 47.197 5.83562 45.723C5 44.0472 5 41.8539 5 37.4667V15.5333C5 11.1462 5 8.95271 5.83562 7.27708C6.57064 5.80313 7.74349 4.60479 9.18608 3.85378C10.8261 3 12.9729 3 17.2667 3Z" stroke="black" stroke-width="3" stroke-linecap="round" stroke-linejoin="round"/>
</g>
</svg>
