<svg width="80" height="80" viewBox="0 0 80 80" fill="none" xmlns="http://www.w3.org/2000/svg">
<mask id="mask0_9071_59659" style="mask-type:alpha" maskUnits="userSpaceOnUse" x="-1" y="-1" width="82" height="82">
<rect width="80" height="80" fill="white" stroke="white" stroke-width="2"/>
</mask>
<g mask="url(#mask0_9071_59659)">
</g>
<path d="M64.5 40H56C53.6625 40 51.75 41.9125 51.75 44.25V61.25C51.75 63.5875 53.6625 65.5 56 65.5H64.5C66.8375 65.5 68.75 63.5875 68.75 61.25V44.25C68.75 41.9125 66.8375 40 64.5 40ZM62.375 46.375C62.375 47.5438 61.4188 48.5 60.25 48.5C59.0812 48.5 58.125 47.5438 58.125 46.375V44.25H62.375V46.375ZM60.25 35.75V20.875C60.25 17.3688 57.3812 14.5 53.875 14.5H15.625C12.1188 14.5 9.25 17.3688 9.25 20.875V44.25H47.5C47.5 39.5537 51.3037 35.75 56 35.75H60.25ZM9.25 50.625C9.25 54.1312 12.1188 57 15.625 57H27.0575L24.9325 61.25H24.125C22.9563 61.25 22 62.2062 22 63.375C22 64.5438 22.9563 65.5 24.125 65.5H45.375C46.5438 65.5 47.5 64.5438 47.5 63.375C47.5 62.2062 46.5438 61.25 45.375 61.25H44.5887L42.5275 57H47.5V48.5H9.25V50.625Z" fill="black"/>
</svg>
