<svg width="80" height="80" viewBox="0 0 80 80" fill="none" xmlns="http://www.w3.org/2000/svg">
<mask id="mask0_9071_59718" style="mask-type:alpha" maskUnits="userSpaceOnUse" x="-1" y="-1" width="82" height="82">
<rect width="80" height="80" fill="white" stroke="white" stroke-width="2"/>
</mask>
<g mask="url(#mask0_9071_59718)">
<path fill-rule="evenodd" clip-rule="evenodd" d="M6.52766 10.5698H71.4752C74.275 10.5698 76.5614 12.8562 76.5614 15.6561V63.8715C76.5614 66.6653 74.275 68.9578 71.4752 68.9578H6.52766C3.72777 68.9578 1.44141 66.6714 1.44141 63.8715V15.6561C1.44141 12.8562 3.72777 10.5698 6.52766 10.5698ZM21.1323 34.2099H24.788V41.8148C24.788 42.5667 24.678 43.282 24.4579 43.9483C24.2378 44.6208 23.8955 45.2077 23.4309 45.709C22.9663 46.2103 22.4772 46.5648 21.9637 46.7666C21.2546 47.0478 20.3987 47.1945 19.4022 47.1945C18.8276 47.1945 18.1979 47.1517 17.5132 47.0661C16.8347 46.9805 16.26 46.8094 15.8015 46.5465C15.343 46.2897 14.9273 45.9229 14.5483 45.4461C14.1693 44.9693 13.9064 44.4802 13.7658 43.9728C13.5396 43.1597 13.4234 42.4445 13.4234 41.8148V34.2099H17.0792V41.9982C17.0792 42.6951 17.2565 43.2392 17.6171 43.6243C17.9778 44.0156 18.473 44.2112 19.1088 44.2112C19.7323 44.2112 20.2275 44.0156 20.5882 43.6305C20.9428 43.2453 21.1262 42.7012 21.1262 41.9921V34.2099H21.1323ZM27.3556 34.2099H31.0297V46.9805H27.3556V34.2099ZM35.4251 33.9959H37.088L34.0986 47.1945H32.4357L35.4251 33.9959ZM45.9583 34.2099H49.6141V41.8148C49.6141 42.5667 49.504 43.282 49.284 43.9483C49.0639 44.6208 48.7215 45.2077 48.2569 45.709C47.7923 46.2103 47.3032 46.5648 46.7897 46.7666C46.0806 47.0478 45.2247 47.1945 44.2283 47.1945C43.6536 47.1945 43.024 47.1517 42.3393 47.0661C41.6607 46.9805 41.086 46.8094 40.6275 46.5465C40.169 46.2897 39.7533 45.9229 39.3743 45.4461C38.9953 44.9693 38.7324 44.4802 38.5918 43.9728C38.3656 43.1597 38.2556 42.4445 38.2556 41.8148V34.2099H41.9113V41.9982C41.9113 42.6951 42.0886 43.2392 42.4493 43.6243C42.81 44.0156 43.3052 44.2112 43.9409 44.2112C44.5645 44.2112 45.0597 44.0156 45.4204 43.6305C45.7749 43.2453 45.9583 42.7012 45.9583 41.9921V34.2099ZM51.2219 34.2099H55.2627L57.3596 38.1407L59.3953 34.2099H63.3812L59.701 40.3965L63.7296 46.9805H59.6093L57.2862 42.8785L54.9448 46.9805H50.8551L54.9387 40.3232L51.2219 34.2099ZM42.3209 61.7258C41.2328 61.7258 40.3524 60.766 40.3524 59.5861C40.3524 58.4001 41.2328 57.4465 42.3209 57.4465H66.5601C67.6482 57.4465 68.5286 58.4063 68.5286 59.5861C68.5286 60.7721 67.6482 61.7258 66.5601 61.7258H42.3209ZM10.5869 61.7258C9.51094 61.7258 8.63674 60.766 8.63674 59.5861C8.63674 58.4001 9.51094 57.4465 10.5869 57.4465H33.0593C34.1352 57.4465 35.0094 58.4063 35.0094 59.5861C35.0094 60.7721 34.1352 61.7258 33.0593 61.7258H10.5869ZM73.5598 22.8575H4.67533V64.3667C4.67533 64.758 4.82816 65.1003 5.08492 65.3632C5.34779 65.6199 5.69014 65.7728 6.08139 65.7728H72.1293C72.5205 65.7728 72.8629 65.6199 73.1257 65.3632C73.3886 65.1003 73.5353 64.758 73.5353 64.3667V22.8575H73.5598ZM66.6334 14.3356C68.0212 14.3356 69.146 15.4605 69.146 16.8482C69.146 18.2359 68.0212 19.3607 66.6334 19.3607C65.2457 19.3607 64.1209 18.2359 64.1209 16.8482C64.127 15.4605 65.2518 14.3356 66.6334 14.3356ZM49.6141 14.3356C51.0018 14.3356 52.1266 15.4605 52.1266 16.8482C52.1266 18.2359 51.0018 19.3607 49.6141 19.3607C48.2264 19.3607 47.1015 18.2359 47.1015 16.8482C47.1015 15.4605 48.2264 14.3356 49.6141 14.3356ZM58.1238 14.3356C59.5115 14.3356 60.6363 15.4605 60.6363 16.8482C60.6363 18.2359 59.5115 19.3607 58.1238 19.3607C56.736 19.3607 55.6112 18.2359 55.6112 16.8482C55.6112 15.4605 56.736 14.3356 58.1238 14.3356Z" fill="black"/>
</g>
</svg>
