<svg width="80" height="80" viewBox="0 0 80 80" fill="none" xmlns="http://www.w3.org/2000/svg">
<mask id="mask0_9071_59680" style="mask-type:alpha" maskUnits="userSpaceOnUse" x="-1" y="-1" width="82" height="82">
<rect width="80" height="80" fill="white" stroke="white" stroke-width="2"/>
</mask>
<g mask="url(#mask0_9071_59680)">
<path d="M32.2998 42.9636H40.0248V60.9636C40.0248 63.6136 43.3248 64.8636 45.0748 62.8636L63.9998 41.3636C65.6498 39.4886 64.3248 36.5636 61.8248 36.5636H54.0998V18.5636C54.0998 15.9136 50.7998 14.6636 49.0498 16.6636L30.1248 38.1636C28.4998 40.0386 29.8248 42.9636 32.2998 42.9636Z" fill="black"/>
<path d="M30.25 21.6387H12.75C11.725 21.6387 10.875 20.7887 10.875 19.7637C10.875 18.7387 11.725 17.8887 12.75 17.8887H30.25C31.275 17.8887 32.125 18.7387 32.125 19.7637C32.125 20.7887 31.275 21.6387 30.25 21.6387Z" fill="black"/>
<path d="M27.75 61.6387H12.75C11.725 61.6387 10.875 60.7887 10.875 59.7637C10.875 58.7387 11.725 57.8887 12.75 57.8887H27.75C28.775 57.8887 29.625 58.7387 29.625 59.7637C29.625 60.7887 28.775 61.6387 27.75 61.6387Z" fill="black"/>
<path d="M20.25 41.6387H12.75C11.725 41.6387 10.875 40.7887 10.875 39.7637C10.875 38.7387 11.725 37.8887 12.75 37.8887H20.25C21.275 37.8887 22.125 38.7387 22.125 39.7637C22.125 40.7887 21.275 41.6387 20.25 41.6387Z" fill="black"/>
</g>
</svg>
