<svg width="80" height="80" viewBox="0 0 80 80" fill="none" xmlns="http://www.w3.org/2000/svg">
<mask id="mask0_9071_59737" style="mask-type:alpha" maskUnits="userSpaceOnUse" x="-1" y="-1" width="82" height="82">
<rect width="80" height="80" fill="white" stroke="white" stroke-width="2"/>
</mask>
<g mask="url(#mask0_9071_59737)">
<path d="M55.4364 21.2727H45.1636C44.6187 21.2727 44.0962 21.4892 43.7109 21.8745C43.3256 22.2598 43.1091 22.7824 43.1091 23.3273C43.1091 23.8722 43.3256 24.3948 43.7109 24.7801C44.0962 25.1654 44.6187 25.3818 45.1636 25.3818H50.4849L39.5958 36.2709C38.7693 35.8706 37.8638 35.66 36.9455 35.6546H16.4C14.7653 35.6546 13.1975 36.304 12.0416 37.4599C10.8857 38.6158 10.2363 40.1835 10.2363 41.8182V62.3637C10.2363 63.9984 10.8857 65.5661 12.0416 66.7221C13.1975 67.878 14.7653 68.5273 16.4 68.5273H36.9455C38.5802 68.5273 40.1479 67.878 41.3038 66.7221C42.4597 65.5661 43.1091 63.9984 43.1091 62.3637V41.8182C43.1077 40.906 42.8968 40.0063 42.4927 39.1884L53.3818 28.2787V33.6C53.3818 34.1449 53.5983 34.6675 53.9836 35.0528C54.3689 35.4381 54.8915 35.6546 55.4364 35.6546C55.9813 35.6546 56.5039 35.4381 56.8892 35.0528C57.2745 34.6675 57.4909 34.1449 57.4909 33.6V23.3273C57.4834 22.7833 57.2705 22.2623 56.8951 21.8686C56.7031 21.6781 56.4755 21.5275 56.2251 21.4252C55.9748 21.323 55.7068 21.2712 55.4364 21.2727Z" fill="black"/>
<path d="M12.2909 31.5456C12.8358 31.5456 13.3584 31.3291 13.7437 30.9438C14.129 30.5585 14.3454 30.0359 14.3454 29.491V25.3819C14.3454 24.837 14.129 24.3145 13.7437 23.9292C13.3584 23.5439 12.8358 23.3274 12.2909 23.3274C11.746 23.3274 11.2234 23.5439 10.8381 23.9292C10.4528 24.3145 10.2363 24.837 10.2363 25.3819V29.491C10.2363 30.0359 10.4528 30.5585 10.8381 30.9438C11.2234 31.3291 11.746 31.5456 12.2909 31.5456Z" fill="black"/>
<path d="M65.7088 23.3274C65.1639 23.3274 64.6414 23.5439 64.2561 23.9292C63.8708 24.3145 63.6543 24.837 63.6543 25.3819V29.491C63.6543 30.0359 63.8708 30.5585 64.2561 30.9438C64.6414 31.3291 65.1639 31.5456 65.7088 31.5456C66.2537 31.5456 66.7763 31.3291 67.1616 30.9438C67.5469 30.5585 67.7634 30.0359 67.7634 29.491V25.3819C67.7634 24.837 67.5469 24.3145 67.1616 23.9292C66.7763 23.5439 66.2537 23.3274 65.7088 23.3274Z" fill="black"/>
<path d="M65.7088 47.9819C65.1639 47.9819 64.6414 48.1984 64.2561 48.5837C63.8708 48.969 63.6543 49.4916 63.6543 50.0365V54.1456C63.6543 54.6905 63.8708 55.2131 64.2561 55.5984C64.6414 55.9837 65.1639 56.2001 65.7088 56.2001C66.2537 56.2001 66.7763 55.9837 67.1616 55.5984C67.5469 55.2131 67.7634 54.6905 67.7634 54.1456V50.0365C67.7634 49.4916 67.5469 48.969 67.1616 48.5837C66.7763 48.1984 66.2537 47.9819 65.7088 47.9819Z" fill="black"/>
<path d="M65.7088 35.6545C65.1639 35.6545 64.6414 35.871 64.2561 36.2563C63.8708 36.6416 63.6543 37.1642 63.6543 37.7091V41.8182C63.6543 42.3631 63.8708 42.8857 64.2561 43.271C64.6414 43.6563 65.1639 43.8727 65.7088 43.8727C66.2537 43.8727 66.7763 43.6563 67.1616 43.271C67.5469 42.8857 67.7634 42.3631 67.7634 41.8182V37.7091C67.7634 37.1642 67.5469 36.6416 67.1616 36.2563C66.7763 35.871 66.2537 35.6545 65.7088 35.6545Z" fill="black"/>
<path d="M49.2733 15.1091H53.3824C53.9273 15.1091 54.4499 14.8926 54.8352 14.5073C55.2205 14.122 55.4369 13.5994 55.4369 13.0545C55.4369 12.5096 55.2205 11.9871 54.8352 11.6018C54.4499 11.2165 53.9273 11 53.3824 11H49.2733C48.7284 11 48.2058 11.2165 47.8205 11.6018C47.4352 11.9871 47.2188 12.5096 47.2188 13.0545C47.2188 13.5994 47.4352 14.122 47.8205 14.5073C48.2058 14.8926 48.7284 15.1091 49.2733 15.1091Z" fill="black"/>
<path d="M24.619 15.1091H28.7281C29.273 15.1091 29.7956 14.8926 30.1809 14.5073C30.5662 14.122 30.7826 13.5994 30.7826 13.0545C30.7826 12.5096 30.5662 11.9871 30.1809 11.6018C29.7956 11.2165 29.273 11 28.7281 11H24.619C24.0741 11 23.5515 11.2165 23.1662 11.6018C22.7809 11.9871 22.5645 12.5096 22.5645 13.0545C22.5645 13.5994 22.7809 14.122 23.1662 14.5073C23.5515 14.8926 24.0741 15.1091 24.619 15.1091Z" fill="black"/>
<path d="M36.9452 15.1091H41.0543C41.5992 15.1091 42.1218 14.8926 42.5071 14.5073C42.8924 14.122 43.1088 13.5994 43.1088 13.0545C43.1088 12.5096 42.8924 11.9871 42.5071 11.6018C42.1218 11.2165 41.5992 11 41.0543 11H36.9452C36.4003 11 35.8777 11.2165 35.4924 11.6018C35.1071 11.9871 34.8906 12.5096 34.8906 13.0545C34.8906 13.5994 35.1071 14.122 35.4924 14.5073C35.8777 14.8926 36.4003 15.1091 36.9452 15.1091Z" fill="black"/>
<path d="M53.3824 64.4182H49.2733C48.7284 64.4182 48.2058 64.6347 47.8205 65.02C47.4352 65.4053 47.2188 65.9279 47.2188 66.4728C47.2188 67.0177 47.4352 67.5402 47.8205 67.9255C48.2058 68.3108 48.7284 68.5273 49.2733 68.5273H53.3824C53.9273 68.5273 54.4499 68.3108 54.8352 67.9255C55.2205 67.5402 55.4369 67.0177 55.4369 66.4728C55.4369 65.9279 55.2205 65.4053 54.8352 65.02C54.4499 64.6347 53.9273 64.4182 53.3824 64.4182Z" fill="black"/>
<path d="M65.7086 60.3091C65.1637 60.3091 64.6411 60.5255 64.2558 60.9108C63.8705 61.2961 63.654 61.8187 63.654 62.3636C63.654 62.9085 63.4376 63.4311 63.0523 63.8164C62.667 64.2017 62.1444 64.4182 61.5995 64.4182C61.0546 64.4182 60.532 64.6346 60.1467 65.0199C59.7614 65.4052 59.5449 65.9278 59.5449 66.4727C59.5449 67.0176 59.7614 67.5402 60.1467 67.9255C60.532 68.3108 61.0546 68.5273 61.5995 68.5273C63.2342 68.5273 64.8019 67.8779 65.9578 66.722C67.1137 65.5661 67.7631 63.9983 67.7631 62.3636C67.7631 61.8187 67.5467 61.2961 67.1614 60.9108C66.7761 60.5255 66.2535 60.3091 65.7086 60.3091Z" fill="black"/>
<path d="M61.5995 15.1091C62.1444 15.1091 62.667 15.3256 63.0523 15.7109C63.4376 16.0962 63.654 16.6187 63.654 17.1636C63.654 17.7085 63.8705 18.2311 64.2558 18.6164C64.6411 19.0017 65.1637 19.2182 65.7086 19.2182C66.2535 19.2182 66.7761 19.0017 67.1614 18.6164C67.5467 18.2311 67.7631 17.7085 67.7631 17.1636C67.7631 15.5289 67.1137 13.9612 65.9578 12.8053C64.8019 11.6494 63.2342 11 61.5995 11C61.0546 11 60.532 11.2165 60.1467 11.6018C59.7614 11.9871 59.5449 12.5096 59.5449 13.0545C59.5449 13.5994 59.7614 14.122 60.1467 14.5073C60.532 14.8926 61.0546 15.1091 61.5995 15.1091Z" fill="black"/>
<path d="M12.2909 19.2182C12.8358 19.2182 13.3584 19.0017 13.7437 18.6164C14.129 18.2311 14.3454 17.7085 14.3454 17.1636C14.3454 16.6187 14.5619 16.0962 14.9472 15.7109C15.3325 15.3256 15.8551 15.1091 16.4 15.1091C16.9449 15.1091 17.4675 14.8926 17.8528 14.5073C18.2381 14.122 18.4545 13.5994 18.4545 13.0545C18.4545 12.5096 18.2381 11.9871 17.8528 11.6018C17.4675 11.2165 16.9449 11 16.4 11C14.7653 11 13.1975 11.6494 12.0416 12.8053C10.8857 13.9612 10.2363 15.5289 10.2363 17.1636C10.2363 17.7085 10.4528 18.2311 10.8381 18.6164C11.2234 19.0017 11.746 19.2182 12.2909 19.2182Z" fill="black"/>
</g>
</svg>
