<svg width="80" height="80" viewBox="0 0 80 80" fill="none" xmlns="http://www.w3.org/2000/svg">
<mask id="mask0_9071_59756" style="mask-type:alpha" maskUnits="userSpaceOnUse" x="-1" y="-1" width="82" height="82">
<rect width="80" height="80" fill="white" stroke="white" stroke-width="2"/>
</mask>
<g mask="url(#mask0_9071_59756)">
<path d="M8.881 49.4816L3 52.8665L14.0843 72L19.9653 68.6152L8.881 49.4816ZM12.1089 51.1181L20.2102 65.0988L23.6794 63.1034H56.2659L73.0433 50.2488C74.6722 48.9976 75.6204 46.8903 74.5367 45.0267C73.4992 43.2289 71.16 42.6098 69.3693 43.6438L55.7239 51.4935H50.7811C49.7305 53.344 47.7613 54.5359 45.584 54.5359H32.5239L32.5206 52.5603H45.5807C48.6964 52.5603 50.6622 49.1063 48.8979 46.4161C48.1578 45.2901 46.9618 44.6282 45.5807 44.6282H23.3816L12.1089 51.1181ZM23.1637 13.028C20.9302 10.8021 17.3091 10.8021 15.0756 13.028C12.8422 15.2538 12.8422 18.8626 15.0756 21.0884C17.3091 23.3143 20.9302 23.3143 23.1637 21.0884C25.3971 18.8593 25.3971 15.2538 23.1637 13.028ZM62.5632 13.028C60.3297 10.8021 56.7086 10.8021 54.4751 13.028C52.2417 15.2538 52.2417 18.8626 54.4751 21.0884C56.7086 23.3143 60.3297 23.3143 62.5632 21.0884C64.7999 18.8593 64.7999 15.2538 62.5632 13.028ZM44.1271 10.193C41.1965 7.26902 36.4421 7.26902 33.5113 10.193C30.5774 13.1135 30.5774 17.855 33.5113 20.7792C36.4419 23.7032 41.1962 23.7032 44.1271 20.7792C47.0643 17.8587 47.0643 13.1172 44.1271 10.193ZM24.8553 34.513V28.28L25.08 28.0034C25.5689 27.4108 26.1041 26.8608 26.6956 26.367C25.46 25.5866 24.0393 25.1684 22.5425 25.1684H15.6967C14.4974 25.1684 13.3641 25.4384 12.3597 25.9192C11.4082 26.3735 10.5657 27.0123 9.87518 27.7861V34.5163L24.8553 34.513ZM52.7865 28.629V34.5163H67.7734V27.7861C67.0795 27.009 66.237 26.3702 65.2888 25.9192C64.2844 25.4384 63.1479 25.1684 61.9518 25.1684H55.106C53.6192 25.1684 52.182 25.5932 50.9529 26.367C51.541 26.8609 52.0861 27.4141 52.5686 28.0034C52.8428 28.3492 52.7865 28.1943 52.7865 28.629ZM50.804 37.8649V28.9847C49.8922 27.9376 48.7689 27.0815 47.4968 26.4789C46.1851 25.8533 44.7082 25.5043 43.1554 25.5043H34.4791C32.9263 25.5043 31.4494 25.8534 30.1377 26.4789C28.869 27.0815 27.7457 27.9376 26.8304 28.9847V37.8649H50.804Z" fill="black"/>
</g>
</svg>
