<svg width="92" height="92" viewBox="0 0 92 92" fill="none" xmlns="http://www.w3.org/2000/svg">
<mask id="mask0_9015_58821" style="mask-type:alpha" maskUnits="userSpaceOnUse" x="0" y="0" width="92" height="92">
<rect width="92" height="92" fill="black"/>
</mask>
<g mask="url(#mask0_9015_58821)">
<path d="M46 13C64.2254 13 79 27.7746 79 46C79 64.2254 64.2254 79 46 79C27.7746 79 13 64.2254 13 46C13 27.7746 27.7746 13 46 13ZM39.2676 59.7852C38.5433 59.7852 37.9551 60.3734 37.9551 61.0977C37.9554 61.8217 38.5435 62.4102 39.2676 62.4102H52.7266C53.4505 62.41 54.0378 61.8215 54.0381 61.0977C54.0381 60.3735 53.4506 59.7853 52.7266 59.7852H39.2676ZM40.6025 55.332V58.7002H51.3955V55.332H40.6025ZM28.584 50.9492C28.8808 52.8148 30.4997 54.2441 32.4473 54.2441H59.5488C61.4963 54.244 63.1153 52.8148 63.4121 50.9492H28.584ZM32.4482 29.5898C30.291 29.5899 28.5372 31.3454 28.5371 33.501V49.8604H63.4629V33.501C63.4628 31.3436 61.7074 29.5898 59.5518 29.5898H32.4482ZM48.043 35.0625C48.1929 34.8035 48.5252 34.7123 48.7842 34.8623C49.0432 35.0122 49.1331 35.3448 48.9834 35.6055L43.9541 44.3135C43.8536 44.4889 43.6718 44.5859 43.4844 44.5859C43.3924 44.5859 43.2981 44.5621 43.2129 44.5127C42.9526 44.361 42.8641 44.0293 43.0137 43.7705L48.043 35.0625ZM41.6553 35.9395C41.9552 35.9412 42.1992 36.1834 42.1992 36.4834C42.1992 36.7833 41.9551 37.0273 41.6553 37.0273H40.0977V42.3467H41.6553C41.9551 42.3467 42.1991 42.5907 42.1992 42.8906C42.1992 43.1905 41.9552 43.4346 41.6553 43.4346H37.4531C37.1533 43.4344 36.9102 43.1904 36.9102 42.8906C36.9102 42.5908 37.1533 42.3468 37.4531 42.3467H39.0107V37.0273H37.4531C37.1533 37.0272 36.9102 36.7832 36.9102 36.4834C36.9102 36.1835 37.1533 35.9396 37.4531 35.9395H41.6553ZM54.6465 35.9414C54.9462 35.9416 55.1895 36.1856 55.1895 36.4854V40.5488C55.1911 42.1388 53.8963 43.4345 52.3047 43.4346C50.7131 43.4346 49.4199 42.1388 49.4199 40.5488V36.4854C49.4199 36.1856 49.6631 35.9416 49.9629 35.9414C50.2628 35.9414 50.5068 36.1855 50.5068 36.4854V40.5488C50.5068 41.5406 51.3129 42.3467 52.3047 42.3467C53.2964 42.3467 54.1025 41.5406 54.1025 40.5488V36.4854C54.1025 36.1855 54.3466 35.9414 54.6465 35.9414ZM60.2695 36.166C60.4451 35.9225 60.7847 35.8685 61.0283 36.0439C61.2717 36.2196 61.3258 36.5582 61.1504 36.8018L59.0713 39.6885L61.1504 42.5742C61.3257 42.8178 61.2701 43.1565 61.0283 43.332C60.9329 43.4019 60.8217 43.4346 60.7109 43.4346C60.5422 43.4345 60.3752 43.3555 60.2695 43.209L58.4033 40.6191L56.5381 43.209C56.4325 43.3554 56.2652 43.4344 56.0967 43.4346C55.9859 43.4346 55.8748 43.4019 55.7793 43.332C55.5323 43.1565 55.478 42.8179 55.6533 42.5742L57.7324 39.6885L55.6533 36.8018C55.4779 36.5581 55.5344 36.2195 55.7764 36.0439C56.02 35.8686 56.3586 35.9243 56.5342 36.166L58.4023 38.7588L60.2695 36.166ZM35.9727 35.9395C36.2742 35.9413 36.5156 36.1835 36.5156 36.4834V40.5479C36.5155 42.1394 35.2207 43.4326 33.6309 43.4326C32.0394 43.4325 30.7462 42.1376 30.7461 40.5479V36.4834C30.7461 36.1834 30.9901 35.9395 31.29 35.9395C31.5897 35.9397 31.833 36.1836 31.833 36.4834V40.5479C31.8331 41.5395 32.6392 42.3456 33.6309 42.3457C34.6226 42.3457 35.4286 41.5395 35.4287 40.5479V36.4834C35.4287 36.1834 35.6727 35.9395 35.9727 35.9395Z" fill="black"/>
</g>
</svg>
