<svg width="80" height="80" viewBox="0 0 80 80" fill="none" xmlns="http://www.w3.org/2000/svg">
<mask id="mask0_9071_59699" style="mask-type:alpha" maskUnits="userSpaceOnUse" x="-1" y="-1" width="82" height="82">
<rect width="80" height="80" fill="white" stroke="white" stroke-width="2"/>
</mask>
<g mask="url(#mask0_9071_59699)">
<path d="M4.55273 76.5535C4.54871 76.7201 4.57726 76.886 4.63672 77.0417C4.69682 77.1991 4.7876 77.3432 4.90332 77.4656C5.01911 77.5879 5.15772 77.6869 5.31152 77.7556C5.46536 77.8243 5.63138 77.8623 5.7998 77.8669L15.9707 78.1462H16.0059C16.3401 78.1464 16.6618 78.016 16.9014 77.783C17.1406 77.55 17.2799 77.2329 17.2891 76.8992L17.3184 75.8308L19.96 74.4158C20.9965 73.8577 22.21 73.7252 23.3428 74.0457L39.1221 78.4744C39.1496 78.4825 39.1777 78.4894 39.2061 78.4958C40.3464 78.7343 41.5088 78.854 42.6738 78.8533C45.1413 78.8547 47.5797 78.322 49.8223 77.2927C49.8774 77.2675 49.9308 77.2381 49.9814 77.2048L72.8604 62.407C73.1348 62.2293 73.3311 61.953 73.4092 61.6355C73.4376 61.5196 73.4485 61.4013 73.4443 61.2839C73.4495 61.4045 73.4384 61.5261 73.4092 61.6453C73.3311 61.9628 73.1349 62.2391 72.8604 62.4167L49.9814 77.2146C49.9308 77.2479 49.8774 77.2773 49.8223 77.3025C47.5797 78.3317 45.1413 78.8645 42.6738 78.863C41.5088 78.8638 40.3464 78.744 39.2061 78.5056C39.1777 78.4992 39.1496 78.4923 39.1221 78.4841L23.3428 74.0554C22.21 73.7349 20.9965 73.8675 19.96 74.4255L17.3184 75.8406L17.2891 76.9089C17.2799 77.2427 17.1406 77.5598 16.9014 77.7927C16.6618 78.0258 16.3401 78.1561 16.0059 78.156H15.9707L5.7998 77.8767C5.63138 77.8721 5.46536 77.8341 5.31152 77.7654C5.15772 77.6966 5.01911 77.5977 4.90332 77.4753C4.78759 77.353 4.69683 77.2088 4.63672 77.0515C4.57668 76.8942 4.54804 76.7266 4.55273 76.5583V76.5535ZM24.8184 57.4031C27.3377 57.2687 29.8475 57.8134 32.085 58.9792L33.0283 59.4685C34.6777 60.3201 36.498 60.7897 38.3535 60.8435L47.6289 61.0984C50.2343 61.1734 52.4479 63.0289 52.9766 65.5818L39.1592 65.2C38.4509 65.1807 37.8619 65.7394 37.8418 66.447C37.8325 66.7871 37.9585 67.1169 38.1924 67.364C38.4262 67.6111 38.7488 67.7559 39.0889 67.7654L54.3369 68.1843H54.3721C54.7061 68.1841 55.0273 68.054 55.2666 67.821C55.5057 67.5882 55.6441 67.2709 55.6533 66.9373C55.6691 66.3799 55.6275 65.8221 55.5293 65.2732L65.8359 60.4031C65.8458 60.3988 65.8553 60.3935 65.8652 60.3884C66.579 60.0273 67.3865 59.8937 68.1787 60.0046C68.9708 60.1156 69.7099 60.4663 70.2969 61.0095L48.667 75.0017C45.8805 76.2591 42.7686 76.6069 39.7734 75.9949L24.0371 71.5769C22.2665 71.0765 20.3707 71.2839 18.75 72.155L17.3994 72.8787L17.7607 59.7429C19.8615 58.3457 22.2989 57.5375 24.8184 57.4031ZM15.3027 55.7908L14.7588 75.5476L7.15234 75.3376L7.69629 55.5818L15.3027 55.7908ZM17.9014 54.5828C17.9013 54.5847 17.9024 54.5867 17.9023 54.5886L17.8438 56.7175L17.9014 54.5828ZM30.1807 7.07788C30.5208 7.07791 30.8474 7.21334 31.0879 7.45386C31.3283 7.69439 31.4629 8.02099 31.4629 8.36108V14.1326C31.4629 14.4727 31.3283 14.7993 31.0879 15.0398C30.8474 15.2803 30.5208 15.4157 30.1807 15.4158C29.8405 15.4158 29.514 15.2803 29.2734 15.0398C29.0329 14.7993 28.8975 14.4727 28.8975 14.1326V8.36108C28.8975 8.02093 29.0329 7.6944 29.2734 7.45386C29.514 7.21331 29.8405 7.07788 30.1807 7.07788ZM39.8008 0.664795C40.1409 0.664848 40.4675 0.800271 40.708 1.04077C40.9482 1.28118 41.0829 1.60717 41.083 1.94702V14.1326C41.083 14.4726 40.9484 14.7993 40.708 15.0398C40.4675 15.2803 40.1409 15.4157 39.8008 15.4158C39.4606 15.4158 39.1341 15.2803 38.8936 15.0398C38.653 14.7993 38.5176 14.4727 38.5176 14.1326V1.94702C38.5177 1.60707 38.6532 1.2812 38.8936 1.04077C39.1341 0.800224 39.4606 0.664795 39.8008 0.664795ZM49.4209 7.07788C49.7609 7.07796 50.0867 7.21351 50.3271 7.45386C50.5677 7.69441 50.7031 8.0209 50.7031 8.36108V14.1326C50.7031 14.4728 50.5677 14.7992 50.3271 15.0398C50.0867 15.2801 49.7609 15.4157 49.4209 15.4158C49.0807 15.4158 48.7542 15.2803 48.5137 15.0398C48.2731 14.7992 48.1377 14.4728 48.1377 14.1326V8.36108C48.1377 8.0209 48.2731 7.69441 48.5137 7.45386C48.7542 7.21332 49.0807 7.07788 49.4209 7.07788Z" fill="black"/>
<path d="M39.1211 18.2861C49.3936 18.2861 57.7215 26.6133 57.7217 36.8857C57.7217 47.1583 49.3937 55.4863 39.1211 55.4863C28.8487 55.4861 20.5215 47.1582 20.5215 36.8857C20.5337 26.6184 28.8538 18.2976 39.1211 18.2861ZM39.0518 24.8965C38.7116 24.8965 38.385 25.031 38.1445 25.2715C37.904 25.512 37.7696 25.8386 37.7695 26.1787V27.4248C35.1227 28.1474 33.4188 30.7171 33.7832 33.4365C34.1476 36.1558 36.4683 38.1859 39.2119 38.1855C40.799 38.1855 42.0942 39.4558 42.123 41.042C42.1525 42.6285 40.9042 43.9462 39.3184 44.0039C39.1741 43.9724 39.025 43.9676 38.8789 43.9893C37.4104 43.8183 36.3025 42.5756 36.2998 41.0977C36.2998 40.7575 36.1644 40.431 35.9238 40.1904C35.6834 39.9501 35.3576 39.8145 35.0176 39.8145C34.6774 39.8145 34.3509 39.9499 34.1104 40.1904C33.8698 40.431 33.7344 40.7575 33.7344 41.0977C33.7383 43.5657 35.3896 45.7277 37.7695 46.3809V47.6631C37.7695 48.0031 37.9042 48.3298 38.1445 48.5703C38.385 48.8108 38.7116 48.9462 39.0518 48.9463C39.3919 48.9463 39.7184 48.8109 39.959 48.5703C40.1994 48.3298 40.335 48.0032 40.335 47.6631V46.458C43.0817 45.8829 44.9487 43.3245 44.6602 40.5332C44.3706 37.742 42.0183 35.6208 39.2119 35.6201C37.6038 35.6199 36.2998 34.3162 36.2998 32.708C36.2998 31.0998 37.6038 29.7961 39.2119 29.7959C40.8202 29.7959 42.125 31.0996 42.125 32.708C42.125 33.0482 42.2595 33.3747 42.5 33.6152C42.7405 33.8558 43.067 33.9912 43.4072 33.9912C43.7474 33.9912 44.0739 33.8558 44.3145 33.6152C44.555 33.3747 44.6895 33.0482 44.6895 32.708C44.6857 30.1165 42.8708 27.8807 40.335 27.3457V26.1787C40.3349 25.8386 40.1995 25.512 39.959 25.2715C39.7184 25.031 39.3919 24.8965 39.0518 24.8965Z" fill="black"/>
</g>
</svg>
