<svg width="175" height="120" viewBox="0 0 175 120" fill="none" xmlns="http://www.w3.org/2000/svg">
<mask id="mask0_807_24351" style="mask-type:alpha" maskUnits="userSpaceOnUse" x="0" y="0" width="175" height="120">
<rect width="175" height="120" fill="#D9D9D9"/>
</mask>
<g mask="url(#mask0_807_24351)">
<path d="M68.8021 80.4654L65 34L110.406 34.0934L106.386 80.4654L87.8746 85.8255L68.8021 80.4654Z" fill="#1B73BA"/>
<path d="M87.875 81.338V38.4253L106.574 38.4875L103.239 76.8816L87.875 81.338Z" fill="#1C88C7"/>
<path d="M101.93 43.9104H73.165L73.9443 49.5196H87.594L74.1625 55.2851L74.9414 60.7075H94.7309L94.0139 68.2801L87.3135 69.5892L81.2368 68.0311L80.7691 63.7303H75.1908L75.9385 72.6746L87.9056 76.0091L99.3744 72.363L100.839 54.8797H88.7156L101.929 49.3951L101.93 43.9104Z" fill="white"/>
</g>
</svg>
