<svg width="175" height="120" viewBox="0 0 175 120" fill="none" xmlns="http://www.w3.org/2000/svg">
<mask id="mask0_807_14467" style="mask-type:alpha" maskUnits="userSpaceOnUse" x="0" y="0" width="175" height="120">
<rect width="175" height="120" fill="#D9D9D9"/>
</mask>
<g mask="url(#mask0_807_14467)">
<path d="M61 60V34H113V86H61" fill="#007ACC"/>
<path d="M72.4014 60.0909V62.2099H79.1614V81.4499H83.9584V62.2099H90.7184V60.1299C90.7184 58.9599 90.7184 58.0109 90.6664 57.9849C90.6664 57.9459 86.5454 57.9329 81.5404 57.9329L72.4404 57.9719V60.1039L72.4014 60.0909ZM102.782 57.9199C104.108 58.2319 105.122 58.8299 106.032 59.7789C106.513 60.2989 107.228 61.2089 107.28 61.4429C107.28 61.5209 105.031 63.0419 103.666 63.8869C103.614 63.9259 103.406 63.7049 103.198 63.3669C102.522 62.4049 101.833 61.9889 100.754 61.9109C99.1944 61.8069 98.1544 62.6259 98.1544 63.9909C98.1544 64.4069 98.2324 64.6409 98.3884 64.9789C98.7394 65.6939 99.3894 66.1229 101.404 67.0069C105.122 68.6059 106.734 69.6589 107.709 71.1669C108.814 72.8569 109.061 75.5089 108.32 77.4979C107.488 79.6689 105.46 81.1379 102.561 81.6189C101.651 81.7749 99.5714 81.7489 98.5964 81.5799C96.5164 81.1899 94.5274 80.1499 93.3054 78.8109C92.8244 78.2909 91.9014 76.8999 91.9534 76.8089L92.4474 76.4969L94.3974 75.3659L95.8664 74.5079L96.2044 74.9629C96.6334 75.6389 97.5954 76.5489 98.1544 76.8609C99.8444 77.7319 102.106 77.6149 103.224 76.6009C103.705 76.1589 103.913 75.6909 103.913 75.0409C103.913 74.4429 103.822 74.1699 103.523 73.7149C103.107 73.1429 102.275 72.6749 99.9354 71.6349C97.2444 70.4909 96.1004 69.7629 95.0344 68.6449C94.4234 67.9689 93.8644 66.9159 93.6044 66.0449C93.4094 65.2909 93.3444 63.4449 93.5264 62.7039C94.0854 60.1039 96.0484 58.2839 98.8564 57.7639C99.7664 57.5819 101.911 57.6599 102.808 57.8939L102.782 57.9199Z" fill="white"/>
</g>
</svg>
