<svg width="175" height="120" viewBox="0 0 175 120" fill="none" xmlns="http://www.w3.org/2000/svg">
<mask id="mask0_807_14399" style="mask-type:alpha" maskUnits="userSpaceOnUse" x="0" y="0" width="175" height="120">
<rect width="175" height="120" fill="#D9D9D9"/>
</mask>
<g mask="url(#mask0_807_14399)">
<path d="M68.8021 80.4661L65 34L110.406 34.0934L106.386 80.4661L87.8746 85.8263L68.8021 80.4661Z" fill="#E9CA32"/>
<path d="M87.875 81.3387V38.4253L106.574 38.4875L103.239 76.882L87.875 81.3387Z" fill="#FFDE25"/>
<path d="M85.8754 43.5244H80.9319V72.0865L77.087 71.3541V67.5092L72.5098 66.7769V75.3821L85.8754 78.8608V43.5244ZM89.5837 43.5244H103.269L102.353 48.9988H94.808V57.9823H102.353L101.438 76.1145L89.5837 78.8608V73.185L97.5931 70.4387L98.0556 62.932L89.5837 64.1587V43.5244Z" fill="white"/>
</g>
</svg>
