<svg width="175" height="120" viewBox="0 0 175 120" fill="none" xmlns="http://www.w3.org/2000/svg">
<mask id="mask0_807_14433" style="mask-type:alpha" maskUnits="userSpaceOnUse" x="0" y="0" width="175" height="120">
<rect width="175" height="120" fill="#D9D9D9"/>
</mask>
<g mask="url(#mask0_807_14433)">
<path d="M110.635 60.0051C110.635 56.982 106.849 54.117 101.045 52.3403C102.384 46.4243 101.789 41.7175 99.1659 40.2106C98.5613 39.8572 97.8544 39.6897 97.0823 39.6897V41.764C97.5102 41.764 97.8544 41.8478 98.1427 42.0059C99.4078 42.7314 99.9566 45.4941 99.5287 49.0474C99.4264 49.9218 99.259 50.8427 99.0543 51.7822C97.2311 51.3357 95.2405 50.9915 93.1476 50.7683C91.8918 49.0474 90.5896 47.4847 89.278 46.1173C92.3104 43.2989 95.1568 41.7547 97.0916 41.7547V39.6804C94.5336 39.6804 91.1849 41.5036 87.799 44.6662C84.4131 41.5222 81.0644 39.7176 78.5064 39.7176V41.792C80.4319 41.792 83.2876 43.3268 86.32 46.1266C85.0177 47.494 83.7155 49.0474 82.4783 50.7683C80.3761 50.9915 78.3855 51.3357 76.5623 51.7915C76.3483 50.8613 76.1902 49.959 76.0786 49.094C75.6414 45.5406 76.1809 42.778 77.4367 42.0431C77.7157 41.8757 78.0785 41.8013 78.5064 41.8013V39.7269C77.725 39.7269 77.0181 39.8944 76.4041 40.2478C73.7903 41.7547 73.2043 46.4522 74.5531 52.3496C68.7673 54.1356 65 56.9913 65 60.0051C65 63.0282 68.7859 65.8932 74.5903 67.6699C73.2508 73.5859 73.8461 78.2927 76.4693 79.7996C77.0739 80.1531 77.7808 80.3205 78.5622 80.3205C81.1202 80.3205 84.4689 78.4973 87.8548 75.3347C91.2407 78.4787 94.5894 80.2833 97.1474 80.2833C97.9288 80.2833 98.6357 80.1158 99.2497 79.7624C101.863 78.2555 102.45 73.558 101.101 67.6606C106.868 65.8839 110.635 63.0189 110.635 60.0051ZM98.5241 53.8007C98.1799 55.0007 97.752 56.2378 97.2683 57.475C96.887 56.7308 96.487 55.9867 96.0498 55.2425C95.6219 54.4984 95.1661 53.7728 94.7103 53.0659C96.0312 53.2612 97.3056 53.5031 98.5241 53.8007ZM94.2638 63.7073C93.5383 64.963 92.7941 66.1537 92.0221 67.2606C90.6361 67.3815 89.2315 67.4466 87.8176 67.4466C86.413 67.4466 85.0084 67.3815 83.6317 67.2699C82.8597 66.163 82.1062 64.9816 81.3807 63.7352C80.6737 62.5166 80.0319 61.2795 79.4459 60.033C80.0226 58.7866 80.6737 57.5401 81.3714 56.3215C82.0969 55.0658 82.8411 53.8751 83.6131 52.7682C84.9991 52.6473 86.4037 52.5822 87.8176 52.5822C89.2222 52.5822 90.6268 52.6473 92.0035 52.7589C92.7755 53.8658 93.529 55.0472 94.2545 56.2936C94.9615 57.5122 95.6033 58.7493 96.1893 59.9958C95.6033 61.2423 94.9615 62.4887 94.2638 63.7073ZM97.2683 62.498C97.7706 63.7445 98.1985 64.9909 98.552 66.2002C97.3335 66.4978 96.0498 66.749 94.7196 66.9443C95.1754 66.2281 95.6312 65.4932 96.0591 64.7398C96.487 63.9956 96.887 63.2422 97.2683 62.498ZM87.8362 72.4232C86.9711 71.5302 86.106 70.5349 85.2503 69.4466C86.0874 69.4838 86.9432 69.5117 87.8083 69.5117C88.6827 69.5117 89.5478 69.4931 90.3942 69.4466C89.5571 70.5349 88.692 71.5302 87.8362 72.4232ZM80.9156 66.9443C79.5947 66.749 78.3203 66.5071 77.1018 66.2095C77.446 65.0095 77.8739 63.7724 78.3576 62.5352C78.7389 63.2794 79.1389 64.0235 79.5761 64.7677C80.0133 65.5118 80.4598 66.2374 80.9156 66.9443ZM87.7897 47.587C88.6548 48.48 89.5199 49.4753 90.3756 50.5637C89.5385 50.5265 88.6827 50.4985 87.8176 50.4985C86.9432 50.4985 86.0781 50.5172 85.2317 50.5637C86.0688 49.4753 86.9339 48.48 87.7897 47.587ZM80.9063 53.0659C80.4505 53.7821 79.9947 54.517 79.5668 55.2704C79.1389 56.0146 78.7389 56.7587 78.3576 57.5029C77.8552 56.2564 77.4274 55.01 77.0739 53.8007C78.2924 53.5124 79.5761 53.2612 80.9063 53.0659ZM72.488 64.7119C69.1952 63.3073 67.065 61.4655 67.065 60.0051C67.065 58.5447 69.1952 56.6936 72.488 55.2983C73.288 54.9542 74.1624 54.6472 75.0647 54.3588C75.5949 56.182 76.2925 58.0796 77.1576 60.0237C76.3018 61.9585 75.6135 63.8468 75.0926 65.6607C74.1717 65.3723 73.2973 65.056 72.488 64.7119ZM77.4925 78.0043C76.2274 77.2788 75.6786 74.5161 76.1065 70.9628C76.2088 70.0884 76.3762 69.1675 76.5809 68.228C78.4041 68.6745 80.3947 69.0187 82.4876 69.2419C83.7434 70.9628 85.0456 72.5255 86.3572 73.8929C83.3248 76.7113 80.4784 78.2555 78.5436 78.2555C78.125 78.2462 77.7715 78.1624 77.4925 78.0043ZM99.5566 70.9163C99.9938 74.4696 99.4543 77.2323 98.1985 77.9671C97.9195 78.1345 97.5567 78.209 97.1288 78.209C95.2033 78.209 92.3476 76.6741 89.3152 73.8743C90.6175 72.5069 91.9197 70.9535 93.1569 69.2326C95.2591 69.0094 97.2497 68.6652 99.0729 68.2094C99.2869 69.1489 99.4543 70.0512 99.5566 70.9163ZM103.138 64.7119C102.338 65.056 101.464 65.363 100.561 65.6514C100.031 63.8282 99.3334 61.9306 98.4683 59.9865C99.3241 58.0517 100.012 56.1634 100.533 54.3495C101.454 54.6379 102.329 54.9542 103.147 55.2983C106.44 56.7029 108.57 58.5447 108.57 60.0051C108.561 61.4655 106.431 63.3166 103.138 64.7119Z" fill="#61DAFB"/>
<path d="M87.8083 64.2561C90.1561 64.2561 92.0593 62.3529 92.0593 60.0051C92.0593 57.6574 90.1561 55.7542 87.8083 55.7542C85.4606 55.7542 83.5574 57.6574 83.5574 60.0051C83.5574 62.3529 85.4606 64.2561 87.8083 64.2561Z" fill="#61DAFB"/>
</g>
</svg>
