<svg width="56" height="53" viewBox="0 0 56 53" fill="none" xmlns="http://www.w3.org/2000/svg">
<g clip-path="url(#clip0_9023_56529)">
<path d="M24.8219 0.681406C24.1173 0.83774 22.6566 1.35807 21.5879 1.85507C16.5316 4.30507 13.4563 10.0684 14.2379 15.6194C14.6183 18.4758 15.9067 21.1343 17.9129 23.2027C20.5449 25.9421 23.6739 27.2441 27.5589 27.2721C31.3903 27.2721 34.5449 25.9421 37.2026 23.2051C45.2316 14.8354 39.7833 1.09907 28.2099 0.525073C27.0619 0.47374 25.5499 0.525073 24.8219 0.681406ZM32.1183 5.89874C34.2299 6.68041 36.7056 9.10474 37.2003 10.9037C37.6973 12.7541 37.4336 15.1504 36.5236 16.8467C34.5169 20.5217 29.9529 23.2074 27.2159 22.3207C25.9653 21.9031 24.2993 20.0014 23.3846 17.9924C21.4083 13.5847 20.7549 9.77907 21.6673 8.00574C23.0486 5.32241 28.0023 4.33074 32.1206 5.89641L32.1183 5.89874ZM9.57128 26.1754C2.94928 28.3127 -0.959057 34.5707 0.18661 41.2954C1.30661 47.9687 7.59028 52.9481 14.2636 52.4254C19.0073 52.0871 23.0486 49.5321 25.1859 45.5187C26.3596 43.2787 26.7749 41.6081 26.7749 38.9504C26.7749 34.1787 24.5093 30.0861 20.3886 27.5311C17.4953 25.7064 12.8053 25.1324 9.57128 26.1777V26.1754ZM15.2553 30.3731C21.6416 31.4161 25.1066 36.7594 22.6053 41.7644C21.5879 43.7711 19.4506 45.8057 17.2619 46.8487C15.7756 47.5254 15.3066 47.6304 13.9253 47.5254C11.5266 47.3691 10.4579 46.4054 9.15361 43.1457C7.59028 39.3144 6.93694 34.7271 7.72094 33.2407C8.68461 31.4417 10.3273 30.5294 13.3513 30.1374C13.5076 30.1374 14.3406 30.2424 15.2553 30.3731ZM38.2199 26.3061C30.4266 29.0431 26.9336 37.6974 30.5829 45.1524C31.5979 47.2384 33.9966 49.6884 36.1363 50.8107C41.6336 53.7041 47.5789 52.8431 51.9563 48.4891C59.0729 41.4517 56.3896 29.6427 46.8743 26.3061C44.4499 25.4474 40.6443 25.4474 38.2199 26.3061ZM46.1976 30.9214C48.9603 31.8081 51.7229 34.3864 52.3483 36.7081C52.7659 38.2457 52.5303 40.4624 51.8279 41.9207C50.5493 44.5551 47.3713 46.9257 44.2423 47.5511C40.0189 48.3864 37.8559 45.4931 36.8923 37.7744C36.3159 33.1101 37.5923 30.9727 41.3489 30.4011C42.9123 30.1654 44.2656 30.2937 46.1976 30.9214Z" fill="black"/>
</g>
<defs>
<clipPath id="clip0_9023_56529">
<rect width="56" height="56" fill="white" transform="translate(-0.0117188 -1.5)"/>
</clipPath>
</defs>
</svg>
