<svg width="146" height="95" viewBox="0 0 146 95" fill="none" xmlns="http://www.w3.org/2000/svg">
<g clip-path="url(#clip0_7881_53003)">
<path d="M61.7963 71.8911C61.7963 78.6529 56.4462 83.6356 49.8805 83.6356C43.3149 83.6356 37.9648 78.6529 37.9648 71.8911C37.9648 65.0815 43.3149 60.1465 49.8805 60.1465C56.4462 60.1465 61.7963 65.0815 61.7963 71.8911ZM56.5802 71.8911C56.5802 67.6655 53.4794 64.7745 49.8805 64.7745C46.2817 64.7745 43.1809 67.6655 43.1809 71.8911C43.1809 76.0743 46.2817 79.0078 49.8805 79.0078C53.4794 79.0078 56.5802 76.0689 56.5802 71.8911Z" fill="#EA4335"/>
<path d="M87.4994 71.8911C87.4994 78.6529 82.1494 83.6356 75.5838 83.6356C69.018 83.6356 63.668 78.6529 63.668 71.8911C63.668 65.0869 69.018 60.1465 75.5838 60.1465C82.1494 60.1465 87.4994 65.0815 87.4994 71.8911ZM82.2833 71.8911C82.2833 67.6655 79.1825 64.7745 75.5838 64.7745C71.9849 64.7745 68.8841 67.6655 68.8841 71.8911C68.8841 76.0743 71.9849 79.0078 75.5838 79.0078C79.1825 79.0078 82.2833 76.0689 82.2833 71.8911Z" fill="#FBBC05"/>
<path d="M112.138 60.856V81.9413C112.138 90.6146 106.965 94.1571 100.849 94.1571C95.0921 94.1571 91.6271 90.3499 90.3204 87.2363L94.8619 85.3672C95.6705 87.2788 97.652 89.5344 100.844 89.5344C104.759 89.5344 107.185 87.1463 107.185 82.6508V80.9616H107.002C105.835 82.3861 103.586 83.6304 100.747 83.6304C94.8082 83.6304 89.3672 78.5153 89.3672 71.9334C89.3672 65.3039 94.8082 60.1465 100.747 60.1465C103.58 60.1465 105.83 61.3908 107.002 62.7729H107.185V60.8613H112.138V60.856ZM107.554 71.9334C107.554 67.7979 104.764 64.7745 101.213 64.7745C97.6145 64.7745 94.5994 67.7979 94.5994 71.9334C94.5994 76.0266 97.6145 79.0078 101.213 79.0078C104.764 79.0078 107.554 76.0266 107.554 71.9334Z" fill="#4285F4"/>
<path d="M120.302 48.498V82.9164H115.215V48.498H120.302Z" fill="#34A853"/>
<path d="M140.131 75.7579L144.18 78.4267C142.873 80.3382 139.724 83.6318 134.283 83.6318C127.535 83.6318 122.496 78.4743 122.496 71.8871C122.496 64.9029 127.578 60.1426 133.7 60.1426C139.864 60.1426 142.879 64.9929 143.864 67.614L144.405 68.9484L128.526 75.4507C129.742 77.8071 131.632 79.0091 134.283 79.0091C136.94 79.0091 138.782 77.7171 140.131 75.7579ZM127.669 71.5324L138.284 67.1745C137.7 65.7078 135.944 64.6859 133.876 64.6859C131.225 64.6859 127.535 66.9998 127.669 71.5324Z" fill="#EA4335"/>
<path d="M18.7063 68.8364V63.8537H35.6883C35.8544 64.7221 35.9401 65.7494 35.9401 66.8614C35.9401 70.5998 34.9064 75.2224 31.5754 78.5159C28.3354 81.8519 24.1956 83.631 18.7118 83.631C8.5472 83.631 0 75.4448 0 65.3947C0 55.3445 8.5472 47.1582 18.7118 47.1582C24.335 47.1582 28.3408 49.3398 31.3504 52.1833L27.7945 55.6992C25.6362 53.6977 22.7122 52.1409 18.7063 52.1409C11.2838 52.1409 5.47856 58.0556 5.47856 65.3947C5.47856 72.7338 11.2838 78.6484 18.7063 78.6484C23.5209 78.6484 26.2629 76.7368 28.0194 75C29.444 73.5915 30.3811 71.5794 30.7507 68.8312L18.7063 68.8364Z" fill="#4285F4"/>
</g>
<path d="M15.084 2.57422L18.4706 12.997H29.4297L20.5636 19.4386L23.9501 29.8614L15.084 23.4198L6.21784 29.8614L9.60441 19.4386L0.738263 12.997H11.6974L15.084 2.57422Z" fill="#E5AF0D"/>
<path d="M37.092 21.4662L44.176 8.7262H47.144L39.92 21.4662H37.092ZM37.092 23.0902V21.4662L38.212 20.7382H51.988V23.0902H37.092ZM46.584 28.1582V15.3062H49.188V28.1582H46.584ZM55.8139 28.4382C55.2912 28.4382 54.8526 28.2609 54.4979 27.9062C54.1619 27.5329 53.9939 27.0942 53.9939 26.5902C53.9939 26.0675 54.1619 25.6382 54.4979 25.3022C54.8526 24.9475 55.2912 24.7702 55.8139 24.7702C56.3366 24.7702 56.7659 24.9475 57.1019 25.3022C57.4566 25.6382 57.6339 26.0675 57.6339 26.5902C57.6339 27.0942 57.4566 27.5329 57.1019 27.9062C56.7659 28.2609 56.3366 28.4382 55.8139 28.4382ZM67.575 28.4382C66.287 28.4382 65.1483 28.1955 64.159 27.7102C63.1883 27.2249 62.4323 26.5529 61.891 25.6942C61.3497 24.8355 61.079 23.8649 61.079 22.7822C61.079 21.9049 61.247 21.1022 61.583 20.3742C61.919 19.6462 62.4137 19.0302 63.067 18.5262C63.7203 18.0035 64.4857 17.6302 65.363 17.4062L65.447 18.1622C64.7003 17.9569 64.0657 17.6302 63.543 17.1822C63.0203 16.7155 62.619 16.1742 62.339 15.5582C62.0777 14.9235 61.947 14.2515 61.947 13.5422C61.947 12.5342 62.1897 11.6475 62.675 10.8822C63.1603 10.1169 63.823 9.51953 64.663 9.0902C65.5217 8.6422 66.4923 8.4182 67.575 8.4182C68.6763 8.4182 69.647 8.6422 70.487 9.0902C71.327 9.51953 71.9897 10.1169 72.475 10.8822C72.9603 11.6475 73.203 12.5342 73.203 13.5422C73.203 14.2515 73.063 14.9235 72.783 15.5582C72.5217 16.1742 72.1297 16.7155 71.607 17.1822C71.103 17.6302 70.4777 17.9569 69.731 18.1622L69.787 17.4062C70.683 17.6302 71.4483 18.0035 72.083 18.5262C72.7363 19.0302 73.231 19.6462 73.567 20.3742C73.9217 21.1022 74.099 21.9049 74.099 22.7822C74.099 23.8649 73.8283 24.8355 73.287 25.6942C72.7457 26.5529 71.9803 27.2249 70.991 27.7102C70.0203 28.1955 68.8817 28.4382 67.575 28.4382ZM67.575 26.0582C68.359 26.0582 69.0403 25.9089 69.619 25.6102C70.2163 25.2929 70.683 24.8635 71.019 24.3222C71.3737 23.7809 71.551 23.1555 71.551 22.4462C71.551 21.7555 71.3737 21.1395 71.019 20.5982C70.683 20.0569 70.2163 19.6369 69.619 19.3382C69.0403 19.0209 68.359 18.8622 67.575 18.8622C66.8097 18.8622 66.1283 19.0209 65.531 19.3382C64.9337 19.6369 64.4577 20.0569 64.103 20.5982C63.767 21.1395 63.599 21.7555 63.599 22.4462C63.599 23.1555 63.767 23.7809 64.103 24.3222C64.4577 24.8635 64.9337 25.2929 65.531 25.6102C66.1283 25.9089 66.8097 26.0582 67.575 26.0582ZM67.575 16.8182C68.5083 16.8182 69.2737 16.5289 69.871 15.9502C70.4683 15.3715 70.767 14.6249 70.767 13.7102C70.767 12.8142 70.4683 12.0862 69.871 11.5262C69.2737 10.9475 68.5083 10.6582 67.575 10.6582C66.6603 10.6582 65.9043 10.9475 65.307 11.5262C64.7097 12.0862 64.411 12.8142 64.411 13.7102C64.411 14.6249 64.7097 15.3715 65.307 15.9502C65.9043 16.5289 66.6603 16.8182 67.575 16.8182Z" fill="white"/>
<defs>
<clipPath id="clip0_7881_53003">
<rect width="146" height="47" fill="white" transform="translate(0 47.1582)"/>
</clipPath>
</defs>
</svg>
