<svg width="56" height="53" viewBox="0 0 56 53" fill="none" xmlns="http://www.w3.org/2000/svg">
<mask id="mask0_7200_55721" style="mask-type:alpha" maskUnits="userSpaceOnUse" x="0" y="0" width="56" height="53">
<rect width="56" height="53" fill="#D9D9D9"/>
</mask>
<g mask="url(#mask0_7200_55721)">
<path d="M33.9669 51.4621L34.4353 43.3061L35.7285 40.9991C35.7285 40.9991 32.7851 42.2574 27.8574 42.2574C22.9296 42.2574 20.0309 41.0223 20.0309 41.0223L21.4802 43.539L21.9929 51.4621C21.9929 52.3115 24.6733 53.0001 27.98 53.0001C31.2864 53.0001 33.9669 52.3115 33.9669 51.4621ZM32.4895 13.3749L33.4726 9.31402L38.9166 3.32749L37.4817 2.05029L31.7182 8.42744L30.5768 13.2791C29.7177 13.249 28.8582 13.2341 27.9987 13.2343C21.9286 13.2343 17.0078 13.9572 17.0078 14.8489C17.0078 15.7406 21.9286 16.4635 27.9987 16.4635C34.0687 16.4635 38.9894 15.7406 38.9894 14.8489C38.9894 14.1923 36.3206 13.6271 32.4895 13.3749Z" fill="black"/>
<path d="M31.915 15.6487C31.915 15.6487 31.7021 15.6986 31.0758 15.7014C30.4493 15.7041 30.0045 15.6972 29.8274 15.5285C29.7797 15.4832 29.7536 15.3933 29.7539 15.3324C29.7544 15.2165 29.8331 15.1483 29.9334 15.1055L30.0283 15.261C29.987 15.2759 29.9634 15.2935 29.9634 15.3122C29.963 15.4003 30.6039 15.4605 31.0941 15.454C31.5844 15.4477 32.1767 15.4055 32.1772 15.3187C32.1772 15.2925 32.1325 15.2678 32.0545 15.2483L32.1489 15.0939C32.276 15.1351 32.3869 15.2147 32.3866 15.3525C32.3854 15.5869 32.1001 15.6225 31.915 15.6487Z" fill="#464646"/>
<path d="M38.9033 3.33913C39.0401 3.1739 38.8324 2.75126 38.4393 2.39528C38.046 2.03947 37.6163 1.88489 37.4791 2.05012C37.3422 2.21535 37.55 2.63798 37.9433 2.99379C38.3364 3.34968 38.7663 3.50445 38.9033 3.33913ZM33.7025 31.5402C33.5735 30.2429 36.4177 28.364 35.6878 28.3039C34.1164 28.3977 33.3343 30.2284 32.5437 32.1456C32.254 32.8483 31.2627 35.8446 30.6125 35.4758C29.9625 35.1071 31.4552 32.6431 31.8736 31.1799C31.3908 31.5498 29.6204 32.9874 29.1641 31.6411C28.4305 32.2922 26.8631 32.6449 27.0399 30.9346C26.6496 31.6571 25.7738 32.6657 24.7224 32.2466C23.3418 31.6963 25.5225 27.1001 26.0647 27.332C26.607 27.5637 25.9553 28.6108 25.7845 29.0174C25.4091 29.9121 24.9755 31.037 25.2652 31.2673C25.7615 31.6618 27.1121 29.7749 27.1422 29.7334C27.3948 29.3846 28.1144 27.1029 28.6944 27.3649C29.2745 27.6269 27.2477 30.6395 28.0055 31.2374C28.1583 31.3581 28.7837 31.163 29.1641 30.7329C29.4102 30.4546 29.3256 29.8384 30.146 27.7936C30.9665 25.7488 31.6977 23.2024 32.2604 23.3964C32.8231 23.5903 32.3593 24.8972 32.1575 25.3845C31.2102 27.6712 29.5722 31.449 30.3447 31.163C31.1172 30.8771 31.5194 30.8603 32.2759 29.9352C33.0323 29.0101 32.9974 27.4864 33.5016 27.5187C34.0059 27.5512 33.9213 28.0398 33.799 28.4118C34.2952 27.8184 36.1512 26.5685 36.5993 27.8064C37.13 29.2719 33.9439 31.3888 34.7383 31.2808C35.5128 31.1755 36.7677 30.345 37.3034 29.5898L38.7781 15.7341C38.7781 15.7341 37.2942 17.0175 27.8534 17.0175C18.4124 17.0175 17.082 15.7608 17.082 15.7608L18.3375 28.4078C19.004 26.4283 20.5865 22.4246 23.0809 22.5589C24.2156 22.6201 25.7304 24.9035 24.4328 24.9808C23.8836 25.0135 23.8278 23.8411 23.1775 23.6689C22.7082 23.5446 22.0548 23.9434 21.6325 24.3754C20.7904 25.2367 18.9792 28.635 19.2185 30.3293C19.5234 32.4893 22.0706 29.5787 22.5016 28.7146C22.8051 28.1059 23.0101 26.3024 23.674 26.4916C24.3379 26.6809 23.6161 28.542 23.1348 30.1876C22.5943 32.0353 22.3101 33.9845 21.6325 33.7602C20.9549 33.5362 22.0587 31.1508 22.0187 30.7329C21.3818 31.347 20.2085 32.9017 18.7073 32.1322L19.4871 39.9859C19.4871 39.9859 21.5594 41.6971 27.8022 41.6971C34.0449 41.6971 36.194 40.0126 36.194 40.0126L37.1622 30.9161C36.3701 31.7223 33.863 33.1538 33.7025 31.5402Z" fill="black"/>
</g>
</svg>
