<svg width="56" height="53" viewBox="0 0 56 53" fill="none" xmlns="http://www.w3.org/2000/svg">
<mask id="mask0_7200_56893" style="mask-type:alpha" maskUnits="userSpaceOnUse" x="0" y="0" width="56" height="53">
<rect width="56" height="53" fill="#D9D9D9"/>
</mask>
<g mask="url(#mask0_7200_56893)">
<path fill-rule="evenodd" clip-rule="evenodd" d="M13.182 31.2958C12.4502 32.2497 11.2987 32.8648 10.0036 32.8648C7.79245 32.8648 6 31.0723 6 28.8612C6 27.5508 6.62951 26.3875 7.6026 25.6572L27.0587 6.20105L33.0641 11.6459L13.182 31.2958Z" fill="black"/>
<circle cx="29.7828" cy="9.08363" r="4.08363" fill="#252525"/>
<path fill-rule="evenodd" clip-rule="evenodd" d="M30.3226 48.4312C29.5909 49.3851 28.4393 50.0001 27.1442 50.0001C24.9331 50.0001 23.1406 48.2077 23.1406 45.9966C23.1406 44.6862 23.7701 43.5229 24.7432 42.7925L44.1993 23.3364L50.2047 28.7813L30.3226 48.4312Z" fill="black"/>
<circle cx="46.9196" cy="26.2189" r="4.08363" fill="#252525"/>
<path fill-rule="evenodd" clip-rule="evenodd" d="M41.6319 8.60327L9.92374 40.5517L9.93785 40.5658C9.28276 41.2786 8.88281 42.2296 8.88281 43.2741C8.88281 45.4852 10.6753 47.2776 12.8864 47.2776C14.3097 47.2776 15.5595 46.5349 16.2694 45.416L47.6373 14.0481L41.6319 8.60327Z" fill="black"/>
<circle cx="44.3532" cy="11.4859" r="4.08363" fill="#252525"/>
</g>
</svg>
