<svg width="81" height="80" viewBox="0 0 81 80" fill="none" xmlns="http://www.w3.org/2000/svg">
<mask id="mask0_2176_61901" style="mask-type:alpha" maskUnits="userSpaceOnUse" x="-1" y="-1" width="83" height="82">
<rect x="0.5" width="80" height="80" fill="white" stroke="white" stroke-width="2"/>
</mask>
<g mask="url(#mask0_2176_61901)">
<path d="M6.13398 17.0325L19.0577 19.9004C19.8137 20.0684 20.2697 20.8364 20.0537 21.5804L13.5978 44.1879C13.4298 44.7639 12.9018 45.1599 12.3018 45.1599H7.18996C6.46997 45.1599 5.88199 44.5959 5.84599 43.8879L4.50202 18.4125C4.45402 17.5245 5.27 16.8405 6.13398 17.0325Z" fill="white" stroke="black" stroke-width="2.5" stroke-linecap="round" stroke-linejoin="round"/>
<path d="M59.4483 23.4765L67.7162 47.0319C67.9082 47.5719 68.4121 47.9319 68.9881 47.9319H75.156C75.9 47.9319 76.5 47.3319 76.5 46.5879V21.6885C76.5 20.8965 75.816 20.2725 75.024 20.3445L60.5883 21.6885C59.7123 21.7725 59.1484 22.6485 59.4483 23.4765Z" fill="white" stroke="black" stroke-width="2.5" stroke-linecap="round" stroke-linejoin="round"/>
<path d="M61.8005 48.4118C62.9525 51.9037 60.6845 54.3037 58.2126 53.8477L56.9406 53.6197C57.1326 56.3556 54.5527 58.4676 51.9007 57.7236L50.2327 57.2556C50.2327 57.2556 50.5207 59.4876 48.1088 60.8555C45.6969 62.2235 44.0769 60.2795 44.0769 60.2795C44.0769 60.2795 42.9249 64.5514 36.5291 61.2275C33.1571 59.4756 19.0335 50.1878 14.5336 40.876" fill="white"/>
<path d="M61.8005 48.4118C62.9525 51.9037 60.6845 54.3037 58.2126 53.8477L56.9406 53.6197C57.1326 56.3556 54.5527 58.4676 51.9007 57.7236L50.2328 57.2556C50.2328 57.2556 50.5207 59.4876 48.1088 60.8555C45.6969 62.2235 44.0769 60.2795 44.0769 60.2795C44.0769 60.2795 42.9249 64.5514 36.5291 61.2275C33.1571 59.4756 19.0335 50.1878 14.5336 40.876" stroke="black" stroke-width="2.5" stroke-linecap="round" stroke-linejoin="round"/>
<path d="M60.4439 26.3203C46.1762 22.5524 43.7043 16.8765 33.3125 25.5163L60.4439 26.3203Z" fill="white"/>
<path d="M60.4439 26.3203C46.1762 22.5524 43.7043 16.8765 33.3125 25.5163" stroke="black" stroke-width="2.5" stroke-linecap="round" stroke-linejoin="round"/>
<path d="M33.3131 25.5164C29.1252 29.2843 26.6173 32.9082 27.8173 35.5001C27.9133 35.7041 28.0333 35.8961 28.1892 36.0641C30.9612 38.8481 41.161 31.9122 41.161 31.9122C41.6649 31.5282 42.3849 31.5402 42.8649 31.9722L61.4285 48.2078C61.9205 48.6278 62.6285 48.6518 63.1445 48.2558L67.0924 45.2439" fill="white"/>
<path d="M33.3131 25.5164C29.1252 29.2843 26.6173 32.9082 27.8173 35.5001C27.9133 35.7041 28.0333 35.8961 28.1892 36.0641C30.9612 38.8481 41.161 31.9122 41.161 31.9122C41.6649 31.5282 42.3849 31.5402 42.8649 31.9722L61.4285 48.2078C61.9205 48.6278 62.6285 48.6518 63.1445 48.2558L67.0924 45.2439" stroke="black" stroke-width="2.5" stroke-linecap="round" stroke-linejoin="round"/>
<path d="M46.165 43.804L56.9407 53.6197" stroke="black" stroke-width="2.5" stroke-linecap="round" stroke-linejoin="round"/>
<path d="M41.4488 48.8198L50.2326 57.2676" stroke="black" stroke-width="2.5" stroke-linecap="round" stroke-linejoin="round"/>
<path d="M35.5931 52.0356L44.1009 60.3035" stroke="black" stroke-width="2.5" stroke-linecap="round" stroke-linejoin="round"/>
<path d="M19.6216 23.1165L33.9253 25.0124" stroke="black" stroke-width="2.5" stroke-linecap="round" stroke-linejoin="round"/>
</g>
</svg>
