<svg width="213" height="100" viewBox="0 0 213 100" fill="none" xmlns="http://www.w3.org/2000/svg">
<path d="M69.1553 53.4937C70.3542 53.4937 71.4799 53.3382 72.5012 53.0309C73.5473 52.7162 74.4586 52.2347 75.2089 51.5995C75.963 50.9605 76.5595 50.1687 76.9824 49.2459C77.4037 48.3247 77.6169 47.2566 77.6169 46.0707C77.6169 44.9551 77.4142 44.0019 77.0136 43.2371C76.6205 42.4881 76.1042 41.8501 75.4791 41.3413C74.8708 40.8474 74.1874 40.4433 73.4467 40.1408C72.7564 39.8589 72.0757 39.5922 71.4067 39.3418C70.9133 39.157 70.4354 38.9722 69.973 38.788C69.5509 38.6189 69.1788 38.4267 68.8663 38.2157C68.5882 38.0279 68.3672 37.8089 68.2092 37.5629C68.0697 37.3475 68.002 37.0921 68.002 36.7821C68.002 36.4426 68.0677 36.1748 68.1978 35.9864C68.3481 35.7691 68.5346 35.6012 68.7677 35.4729C69.0268 35.3314 69.3224 35.2294 69.6456 35.1695C70.8757 34.9448 71.9829 35.1056 73.026 35.573C73.8023 35.9225 74.436 36.2909 74.9089 36.6688L75.3763 37.0425L75.7882 36.6086C76.2244 36.1503 76.5694 35.6759 76.8133 35.1993C77.0816 34.6772 77.2122 34.2498 77.2122 33.8932C77.2122 33.3297 77.0064 32.5332 76.0793 31.9742C75.8766 31.8225 75.6025 31.6642 75.2412 31.4893C74.8907 31.3208 74.4628 31.1575 73.9686 31.0036C73.4777 30.8514 72.9169 30.7196 72.3014 30.6115C71.6757 30.5022 70.994 30.4465 70.2749 30.4465C69.2227 30.4465 68.2092 30.5855 67.2616 30.8608C66.2992 31.1402 65.434 31.5616 64.6901 32.1126C63.9274 32.678 63.3191 33.3965 62.881 34.2481C62.4409 35.1036 62.218 36.0918 62.218 37.1859C62.218 38.3197 62.4141 39.2811 62.8017 40.0431C63.1843 40.7958 63.6871 41.426 64.2956 41.9163C64.8835 42.3913 65.5522 42.7796 66.2832 43.0708C66.9616 43.3422 67.6473 43.597 68.3197 43.8273C68.8514 44.0113 69.3586 44.1952 69.8398 44.3792C70.2766 44.5466 70.6644 44.7466 70.992 44.9741C71.2931 45.1829 71.5282 45.4292 71.7103 45.7262C71.8741 45.994 71.9572 46.3398 71.9572 46.7541C71.9572 47.1518 71.8827 47.4797 71.736 47.7293C71.5768 47.9993 71.3815 48.2103 71.1385 48.3744C70.8815 48.5484 70.5802 48.6791 70.2409 48.7635C69.3846 48.977 68.4279 48.9229 67.6639 48.7326C67.2056 48.6179 66.7788 48.4698 66.3942 48.2914C66.0042 48.1115 65.6423 47.9091 65.3188 47.6904C64.9804 47.462 64.6688 47.2364 64.3926 47.0191L63.8724 46.6101L63.4713 47.1361C63.1235 47.5919 62.7978 48.0873 62.5036 48.6094C62.1647 49.2111 62 49.7316 62 50.2018C62 50.6318 62.1257 51.0217 62.3735 51.361C62.584 51.6503 62.8492 51.9024 63.1876 52.1263C63.6514 52.404 64.3569 52.6933 65.3453 53.0108C66.3409 53.331 67.6224 53.4937 69.1553 53.4937Z" fill="#5A5A5A"/>
<path d="M98.2707 31.2848C97.9325 31.0631 97.5582 30.9111 97.1571 30.8325C96.5767 30.7192 96.0966 30.701 95.5651 30.7633L93.9566 30.9583V39.3331H87.3872V33.81C87.3872 33.1798 87.2709 32.6533 87.0413 32.2446C86.8162 31.8433 86.5226 31.5212 86.1687 31.2876C85.8311 31.0645 85.456 30.9117 85.0535 30.8336C84.5162 30.7283 84.0162 30.6899 83.451 30.7649L81.8524 30.9508V49.305C81.8524 51.3244 83.498 52.9673 85.5206 52.9673H87.3872V43.9579H93.9566V49.3048C93.9566 51.3242 95.6019 52.9671 97.6245 52.9671H99.4911V33.8012C99.4911 33.1729 99.3748 32.6472 99.145 32.2396C98.9201 31.8403 98.6265 31.5192 98.2707 31.2848Z" fill="#5A5A5A"/>
<path d="M107.502 52.9678H110.225V33.691C110.225 32.143 108.964 30.8837 107.413 30.8837H104.69V50.1607C104.69 51.7082 105.952 52.9678 107.502 52.9678Z" fill="#5A5A5A"/>
<path d="M129.912 31.3859L129.815 30.8514H115.582V49.3044C115.582 51.3238 117.228 52.9667 119.25 52.9667H121.117V43.647H123.826C126.021 43.647 127.807 41.8637 127.807 39.6725V39.0219H121.117V35.4765H126.844C128.006 35.4765 128.813 35.2007 129.311 34.6329C129.778 34.0984 130.016 33.4318 130.016 32.6516C130.016 32.4069 130.01 32.2006 129.999 32.0327C129.987 31.8584 129.959 31.6424 129.912 31.3859Z" fill="#5A5A5A"/>
<path d="M150.483 31.4099L150.404 30.8514H135.214C134.067 30.8514 133.215 31.1623 132.684 31.7748C132.175 32.36 131.918 33.0211 131.918 33.7387C131.918 33.9834 131.924 34.1941 131.935 34.3689C131.946 34.5408 131.97 34.7517 132.011 35.0038V35.6318H138.515V49.3044C138.515 51.3238 140.16 52.9667 142.182 52.9667H144.112V35.6318H147.38C147.944 35.6318 148.412 35.5565 148.813 35.4018C149.213 35.2473 149.552 35.04 149.821 34.7848C150.107 34.5126 150.312 34.1908 150.428 33.8278C150.531 33.5057 150.583 33.1728 150.583 32.838C150.584 32.352 150.55 31.8713 150.483 31.4099Z" fill="#5A5A5A"/>
<path d="M77.5151 76.0499C77.2504 75.7719 76.9021 75.5507 76.4786 75.3918C76.0695 75.2385 75.5872 75.1643 75.0051 75.1643H68.9979V70.7182H74.6935C75.909 70.7182 76.8979 69.7314 76.8979 68.5176V68.2934C76.8979 67.0805 75.909 66.0928 74.6935 66.0928H68.9979V62.2684H74.4764C75.6808 62.2684 76.5115 62.0301 77.0148 61.5408C77.5176 61.0532 77.7728 60.3475 77.7728 59.4434C77.7728 59.1985 77.767 58.9927 77.7557 58.8234C77.7435 58.6494 77.7153 58.434 77.6692 58.178L77.5717 57.6436H63.4007V79.7588H78.1101L78.1734 79.1785C78.1946 78.983 78.2112 78.8037 78.2231 78.6382C78.2339 78.4717 78.2399 78.2656 78.2399 78.021C78.2399 77.6895 78.1883 77.3541 78.0861 77.0212C77.9734 76.6566 77.7816 76.3304 77.5151 76.0499Z" fill="#838383"/>
<path d="M88.3741 64.0167C88.7523 63.4235 89.2603 62.9345 89.8838 62.5641C90.4943 62.202 91.2777 62.0186 92.2117 62.0186C92.7507 62.0186 93.2418 62.0787 93.6708 62.1965C94.1142 62.32 94.5131 62.4706 94.854 62.6457C95.1938 62.8209 95.5048 63.0238 95.7769 63.25C96.0728 63.4968 96.3413 63.739 96.5739 63.9712L97.0214 64.4183L97.4819 63.9842C97.8816 63.6082 98.2518 63.1935 98.5827 62.7522C98.9791 62.2249 99.1797 61.6755 99.1797 61.1192C99.1797 60.7342 99.0816 60.3723 98.8863 60.0422C98.7173 59.7579 98.512 59.5069 98.2717 59.2929C98.0824 59.1279 97.8233 58.9349 97.4775 58.701C97.1159 58.4569 96.6797 58.2327 96.1427 58.0154C95.6236 57.8055 95.0134 57.6227 94.3283 57.4704C93.63 57.3157 92.8446 57.2379 91.9935 57.2379C90.2694 57.2379 88.7399 57.5338 87.4462 58.1188C86.1476 58.706 85.0487 59.5342 84.1797 60.5792C83.3183 61.6162 82.665 62.8578 82.2374 64.2702C81.8164 65.661 81.6026 67.1933 81.6026 68.823C81.6026 70.4494 81.7993 71.9671 82.1874 73.3345C82.5838 74.7311 83.2175 75.9606 84.0703 76.989C84.9305 78.0266 86.0319 78.8449 87.3435 79.4213C88.6457 79.9941 90.1998 80.2845 91.9625 80.2845C92.8706 80.2845 93.6938 80.2126 94.4087 80.0702C95.1211 79.9271 95.7349 79.7542 96.2338 79.5548C96.7352 79.3543 97.1543 79.1471 97.4802 78.9386C97.8137 78.7249 98.0526 78.5437 98.2109 78.3859L98.2112 78.3854C98.4836 78.1135 98.6816 77.8633 98.8184 77.6198C98.9753 77.3368 99.0551 77.0004 99.0551 76.6211C99.0551 76.3395 98.9849 76.0489 98.8405 75.7289C98.7239 75.4757 98.5844 75.2193 98.4239 74.9666C98.2678 74.7215 98.0968 74.4834 97.9159 74.2567C97.7443 74.0438 97.5952 73.8618 97.467 73.7126L97.0349 73.2101L96.5391 73.6503C96.3581 73.8108 96.1322 74.0011 95.8598 74.2223C95.6117 74.4244 95.3139 74.6222 94.975 74.81C94.6443 74.9937 94.254 75.1531 93.8142 75.2835C93.3899 75.4098 92.9137 75.4741 92.3982 75.4741C91.4161 75.4741 90.5976 75.2932 89.9642 74.9366C89.3211 74.5745 88.794 74.0899 88.3971 73.4953C87.9893 72.8846 87.6971 72.1673 87.5283 71.362C87.3512 70.5205 87.262 69.6242 87.262 68.6994C87.262 67.8379 87.3512 66.9796 87.5277 66.1475C87.6982 65.3471 87.9827 64.6304 88.3741 64.0167Z" fill="#838383"/>
<path d="M119.891 60.612C119.085 59.5723 118.038 58.7418 116.779 58.14C115.524 57.5416 114.011 57.2379 112.282 57.2379C110.532 57.2379 108.992 57.5526 107.704 58.1723C106.419 58.792 105.338 59.6415 104.492 60.6972C103.653 61.7433 103.027 62.9747 102.632 64.3576C102.244 65.7151 102.046 67.1655 102.046 68.668C102.046 70.1868 102.226 71.6521 102.581 73.0242C102.942 74.4247 103.528 75.6763 104.322 76.7444C105.126 77.8266 106.178 78.6968 107.448 79.3306C108.716 79.9638 110.259 80.2848 112.033 80.2848C113.824 80.2848 115.386 79.9701 116.673 79.3496C117.963 78.7282 119.037 77.8641 119.864 76.7819C120.68 75.7143 121.283 74.4559 121.656 73.0427C122.021 71.6579 122.206 70.1755 122.206 68.636C122.206 67.075 122.021 65.5965 121.655 64.2412C121.281 62.86 120.688 61.6388 119.891 60.612ZM116.516 68.6683C116.516 69.6148 116.43 70.5354 116.263 71.4033C116.1 72.244 115.841 72.9955 115.49 73.6384C115.156 74.2512 114.725 74.7231 114.169 75.0805C113.637 75.4239 112.96 75.5979 112.158 75.5979C111.356 75.5979 110.679 75.4239 110.147 75.0805C109.597 74.7267 109.146 74.2391 108.806 73.6323C108.447 72.9922 108.183 72.2418 108.021 71.4033C107.854 70.5362 107.769 69.6165 107.769 68.6683C107.769 67.7209 107.854 66.8124 108.02 65.9674C108.182 65.1552 108.447 64.4362 108.811 63.8305C109.159 63.2527 109.618 62.79 110.176 62.4532C110.723 62.1239 111.422 61.9565 112.251 61.9565C113.034 61.9565 113.692 62.1214 114.205 62.4455C114.735 62.7809 115.177 63.2442 115.516 63.8234C115.869 64.4287 116.126 65.1483 116.278 65.9597C116.435 66.8083 116.516 67.7195 116.516 68.6683Z" fill="#838383"/>
<path d="M107.45 19.9998L101.752 25.6894L113.165 25.7054L107.45 19.9998Z" fill="#838383"/>
<mask id="mask0_0_332" style="mask-type:alpha" maskUnits="userSpaceOnUse" x="0" y="0" width="213" height="100">
<rect x="0.34956" y="-0.34956" width="211.833" height="98.5759" rx="16.4293" transform="matrix(1 0 0 -1 0 98.5764)" stroke="url(#paint0_linear_0_332)" stroke-width="0.69912"/>
</mask>
<g mask="url(#mask0_0_332)">
</g>
<defs>
<linearGradient id="paint0_linear_0_332" x1="25.098" y1="1.79899e-05" x2="192.256" y2="67.1659" gradientUnits="userSpaceOnUse">
<stop stop-color="#2EC4F3"/>
<stop offset="1" stop-color="#BFD633"/>
</linearGradient>
</defs>
</svg>
