<svg width="834" height="612" viewBox="0 0 834 612" fill="none" xmlns="http://www.w3.org/2000/svg">
<path d="M834 425C834 370.239 823.214 316.014 802.258 265.421C781.302 214.828 750.586 168.859 711.864 130.136C673.141 91.4144 627.172 60.6984 576.579 39.7422C525.986 18.786 471.761 8 417 8C362.239 8 308.014 18.786 257.421 39.7422C206.828 60.6985 160.858 91.4144 122.136 130.136C83.4144 168.859 52.6984 214.828 31.7422 265.421C10.786 316.014 -4.78738e-06 370.239 0 425H150.486C150.486 390.001 157.38 355.344 170.773 323.01C184.167 290.674 203.798 261.294 228.546 236.546C253.294 211.798 282.674 192.167 315.009 178.773C347.344 165.38 382.001 158.486 417 158.486C451.999 158.486 486.656 165.38 518.991 178.773C551.326 192.167 580.706 211.798 605.454 236.546C630.202 261.294 649.833 290.674 663.227 323.009C676.62 355.344 683.514 390.001 683.514 425H834Z" fill="url(#paint0_linear_14_2478)"/>
<path d="M123.202 306.654C123.563 311.736 127.976 315.564 133.059 315.203C127.976 315.564 124.148 319.976 124.509 325.059C124.148 319.976 119.736 316.149 114.654 316.51C119.736 316.149 123.563 311.736 123.202 306.654Z" fill="white"/>
<path d="M156.202 251.654C156.563 256.736 160.976 260.564 166.059 260.203C160.976 260.564 157.148 264.976 157.509 270.059C157.148 264.976 152.736 261.149 147.654 261.51C152.736 261.149 156.563 256.736 156.202 251.654Z" fill="white"/>
<path d="M124.202 167.654C124.563 172.736 128.976 176.564 134.059 176.203C128.976 176.564 125.148 180.976 125.509 186.059C125.148 180.976 120.736 177.149 115.654 177.51C120.736 177.149 124.563 172.736 124.202 167.654Z" fill="white"/>
<path d="M234.202 158.654C234.563 163.736 238.976 167.564 244.059 167.203C238.976 167.564 235.148 171.976 235.509 177.059C235.148 171.976 230.736 168.149 225.654 168.51C230.736 168.149 234.563 163.736 234.202 158.654Z" fill="white"/>
<path d="M203.202 100.654C203.563 105.736 207.976 109.564 213.059 109.203C207.976 109.564 204.148 113.976 204.509 119.059C204.148 113.976 199.736 110.149 194.654 110.51C199.736 110.149 203.563 105.736 203.202 100.654Z" fill="white"/>
<path d="M328.202 124.654C328.563 129.736 332.976 133.564 338.059 133.203C332.976 133.564 329.148 137.976 329.509 143.059C329.148 137.976 324.736 134.149 319.654 134.51C324.736 134.149 328.563 129.736 328.202 124.654Z" fill="white"/>
<path d="M317.202 47.6535C317.563 52.7362 321.976 56.5638 327.059 56.2029C321.976 56.5638 318.148 60.976 318.509 66.0587C318.148 60.976 313.736 57.149 308.654 57.5099C313.736 57.149 317.563 52.7362 317.202 47.6535Z" fill="white"/>
<path d="M462.058 26.9198C462.419 32.0025 466.832 35.8301 471.915 35.4692C466.832 35.8301 463.004 40.2423 463.365 45.325C463.004 40.2423 458.591 36.4153 453.509 36.7762C458.591 36.4153 462.419 32.0025 462.058 26.9198Z" fill="white"/>
<path d="M598.202 88.6535C598.563 93.7362 602.976 97.5638 608.059 97.2029C602.976 97.5638 599.148 101.976 599.509 107.059C599.148 101.976 594.736 98.149 589.654 98.5099C594.736 98.149 598.563 93.7362 598.202 88.6535Z" fill="white"/>
<path d="M122.682 368.841L114.841 361L107 368.841L114.841 376.682L122.682 368.841Z" fill="white"/>
<path d="M718.421 197.579L711.841 191L705.262 197.579L711.841 204.159L718.421 197.579Z" fill="white"/>
<path d="M779.159 309.841L772.579 303.262L766 309.841L772.579 316.421L779.159 309.841Z" fill="white"/>
<path d="M744.682 385.841L736.841 378L729 385.841L736.841 393.682L744.682 385.841Z" fill="white"/>
<path d="M672.762 133.921L667.841 129L662.921 133.921L667.841 138.841L672.762 133.921Z" fill="white"/>
<path d="M577.921 172.079L570.841 165L563.762 172.079L570.841 179.159L577.921 172.079Z" fill="white"/>
<path d="M90.5724 238.145C88.051 238.145 86 236.094 86 233.572C86 231.051 88.051 229 90.5724 229C93.0937 229 95.1447 231.051 95.1447 233.572C95.1447 236.094 93.0937 238.145 90.5724 238.145ZM90.5724 230.902C89.1003 230.902 87.9044 232.098 87.9044 233.57C87.9044 235.043 89.1003 236.238 90.5724 236.238C92.0444 236.238 93.2404 235.041 93.2404 233.57C93.2404 232.1 92.0444 230.902 90.5724 230.902Z" fill="white"/>
<path d="M70.5724 382.145C68.051 382.145 66 380.094 66 377.572C66 375.051 68.051 373 70.5724 373C73.0937 373 75.1447 375.051 75.1447 377.572C75.1447 380.094 73.0937 382.145 70.5724 382.145ZM70.5724 374.902C69.1003 374.902 67.9044 376.098 67.9044 377.57C67.9044 379.043 69.1003 380.238 70.5724 380.238C72.0444 380.238 73.2404 379.041 73.2404 377.57C73.2404 376.1 72.0444 374.902 70.5724 374.902Z" fill="white"/>
<path d="M190.572 233.145C188.051 233.145 186 231.094 186 228.572C186 226.051 188.051 224 190.572 224C193.094 224 195.145 226.051 195.145 228.572C195.145 231.094 193.094 233.145 190.572 233.145ZM190.572 225.902C189.1 225.902 187.904 227.098 187.904 228.57C187.904 230.043 189.1 231.238 190.572 231.238C192.044 231.238 193.24 230.041 193.24 228.57C193.24 227.1 192.044 225.902 190.572 225.902Z" fill="white"/>
<path d="M308.572 96.1447C306.051 96.1447 304 94.0937 304 91.5724C304 89.051 306.051 87 308.572 87C311.094 87 313.145 89.051 313.145 91.5724C313.145 94.0937 311.094 96.1447 308.572 96.1447ZM308.572 88.9024C307.1 88.9024 305.904 90.0984 305.904 91.5705C305.904 93.0425 307.1 94.2385 308.572 94.2385C310.044 94.2385 311.24 93.0406 311.24 91.5705C311.24 90.1003 310.044 88.9024 308.572 88.9024Z" fill="white"/>
<path d="M359.572 46.1447C357.051 46.1447 355 44.0937 355 41.5724C355 39.051 357.051 37 359.572 37C362.094 37 364.145 39.051 364.145 41.5724C364.145 44.0937 362.094 46.1447 359.572 46.1447ZM359.572 38.9024C358.1 38.9024 356.904 40.0984 356.904 41.5705C356.904 43.0425 358.1 44.2385 359.572 44.2385C361.044 44.2385 362.24 43.0406 362.24 41.5705C362.24 40.1003 361.044 38.9024 359.572 38.9024Z" fill="white"/>
<path d="M478.572 123.145C476.051 123.145 474 121.094 474 118.572C474 116.051 476.051 114 478.572 114C481.094 114 483.145 116.051 483.145 118.572C483.145 121.094 481.094 123.145 478.572 123.145ZM478.572 115.902C477.1 115.902 475.904 117.098 475.904 118.57C475.904 120.043 477.1 121.238 478.572 121.238C480.044 121.238 481.24 120.041 481.24 118.57C481.24 117.1 480.044 115.902 478.572 115.902Z" fill="white"/>
<path d="M532.572 63.1447C530.051 63.1447 528 61.0937 528 58.5724C528 56.051 530.051 54 532.572 54C535.094 54 537.145 56.051 537.145 58.5724C537.145 61.0937 535.094 63.1447 532.572 63.1447ZM532.572 55.9024C531.1 55.9024 529.904 57.0984 529.904 58.5705C529.904 60.0425 531.1 61.2385 532.572 61.2385C534.044 61.2385 535.24 60.0406 535.24 58.5705C535.24 57.1003 534.044 55.9024 532.572 55.9024Z" fill="white"/>
<path d="M616.572 142.145C614.051 142.145 612 140.094 612 137.572C612 135.051 614.051 133 616.572 133C619.094 133 621.145 135.051 621.145 137.572C621.145 140.094 619.094 142.145 616.572 142.145ZM616.572 134.902C615.1 134.902 613.904 136.098 613.904 137.57C613.904 139.043 615.1 140.238 616.572 140.238C618.044 140.238 619.24 139.041 619.24 137.57C619.24 136.1 618.044 134.902 616.572 134.902Z" fill="white"/>
<path d="M654.572 242.145C652.051 242.145 650 240.094 650 237.572C650 235.051 652.051 233 654.572 233C657.094 233 659.145 235.051 659.145 237.572C659.145 240.094 657.094 242.145 654.572 242.145ZM654.572 234.902C653.1 234.902 651.904 236.098 651.904 237.57C651.904 239.043 653.1 240.238 654.572 240.238C656.044 240.238 657.24 239.041 657.24 237.57C657.24 236.1 656.044 234.902 654.572 234.902Z" fill="white"/>
<path d="M733.572 259.145C731.051 259.145 729 257.094 729 254.572C729 252.051 731.051 250 733.572 250C736.094 250 738.145 252.051 738.145 254.572C738.145 257.094 736.094 259.145 733.572 259.145ZM733.572 251.902C732.1 251.902 730.904 253.098 730.904 254.57C730.904 256.043 732.1 257.238 733.572 257.238C735.044 257.238 736.24 256.041 736.24 254.57C736.24 253.1 735.044 251.902 733.572 251.902Z" fill="white"/>
<path d="M707.572 342.145C705.051 342.145 703 340.094 703 337.572C703 335.051 705.051 333 707.572 333C710.094 333 712.145 335.051 712.145 337.572C712.145 340.094 710.094 342.145 707.572 342.145ZM707.572 334.902C706.1 334.902 704.904 336.098 704.904 337.57C704.904 339.043 706.1 340.238 707.572 340.238C709.044 340.238 710.24 339.041 710.24 337.57C710.24 336.1 709.044 334.902 707.572 334.902Z" fill="white"/>
<path d="M796.572 383.145C794.051 383.145 792 381.094 792 378.572C792 376.051 794.051 374 796.572 374C799.094 374 801.145 376.051 801.145 378.572C801.145 381.094 799.094 383.145 796.572 383.145ZM796.572 375.902C795.1 375.902 793.904 377.098 793.904 378.57C793.904 380.043 795.1 381.238 796.572 381.238C798.044 381.238 799.24 380.041 799.24 378.57C799.24 377.1 798.044 375.902 796.572 375.902Z" fill="white"/>
<path d="M67.6202 290.24C69.6196 290.24 71.2404 288.62 71.2404 286.62C71.2404 284.621 69.6196 283 67.6202 283C65.6208 283 64 284.621 64 286.62C64 288.62 65.6208 290.24 67.6202 290.24Z" fill="white"/>
<path d="M358.62 116.24C360.62 116.24 362.24 114.62 362.24 112.62C362.24 110.621 360.62 109 358.62 109C356.621 109 355 110.621 355 112.62C355 114.62 356.621 116.24 358.62 116.24Z" fill="white"/>
<path d="M615.62 221.24C617.62 221.24 619.24 219.62 619.24 217.62C619.24 215.621 617.62 214 615.62 214C613.621 214 612 215.621 612 217.62C612 219.62 613.621 221.24 615.62 221.24Z" fill="white"/>
<path d="M756.62 245.24C758.62 245.24 760.24 243.62 760.24 241.62C760.24 239.621 758.62 238 756.62 238C754.621 238 753 239.621 753 241.62C753 243.62 754.621 245.24 756.62 245.24Z" fill="white"/>
<path d="M28.1654 341.583L21.5827 335L15 341.583L21.5827 348.165L28.1654 341.583Z" fill="white"/>
<path d="M676.421 279.579L670.841 274L665.262 279.579L670.841 285.159L676.421 279.579Z" fill="white"/>
<path d="M135.295 303.183C135.431 303.183 135.557 303.204 135.682 303.257V254.507C135.557 254.559 135.431 254.58 135.295 254.58H124.938C124.343 256.449 122.61 257.754 120.594 257.754H103.815C101.8 257.754 100.067 256.449 99.4719 254.58H89.7094C89.5737 254.58 89.4379 254.559 89.3126 254.507V303.257C89.4379 303.204 89.5737 303.183 89.7094 303.183H135.295ZM118.899 274.378C118.915 274.209 118.932 274.072 118.983 273.937C119.034 273.767 119.136 273.614 119.272 273.495C119.374 273.409 119.476 273.342 119.612 273.29L124.83 270.724L119.628 268.208C119.511 268.156 119.408 268.089 119.323 268.037C119.17 267.918 119.068 267.766 118.983 267.579C118.949 267.443 118.915 267.29 118.899 267.103V266.61C118.899 266.407 118.899 266.235 118.915 266.117C118.949 265.913 119 265.76 119.085 265.623C119.221 265.437 119.578 265.267 119.816 265.301C119.952 265.319 120.088 265.369 120.241 265.454L128.061 269.398C128.281 269.5 128.452 269.704 128.554 270.01C128.605 270.197 128.638 270.452 128.638 270.741C128.638 270.894 128.638 271.013 128.622 271.131C128.605 271.268 128.57 271.369 128.554 271.455C128.502 271.625 128.435 271.761 128.332 271.863C128.281 271.913 128.094 272.05 128.026 272.083L120.207 276.027C120.055 276.113 119.918 276.147 119.782 276.147H119.749C119.527 276.147 119.205 275.977 119.085 275.789C119 275.671 118.949 275.517 118.915 275.331C118.899 275.212 118.899 275.059 118.899 274.871V274.378ZM108.054 278.475L114.056 262.003C114.091 261.85 114.175 261.714 114.276 261.595C114.379 261.476 114.498 261.391 114.651 261.323C114.77 261.255 114.923 261.221 115.093 261.205C115.364 261.17 115.79 261.17 116.062 261.221C116.249 261.273 116.402 261.323 116.538 261.408C116.725 261.544 116.861 261.749 116.912 261.987C116.946 262.173 116.928 262.361 116.844 262.564L110.826 279.071C110.774 279.223 110.707 279.377 110.605 279.479C110.503 279.615 110.367 279.699 110.197 279.767C110.078 279.818 109.959 279.853 109.806 279.869C109.686 279.886 109.534 279.904 109.364 279.904C109.143 279.904 108.973 279.886 108.82 279.853C108.616 279.802 108.464 279.734 108.327 279.649C108.14 279.496 108.004 279.309 107.97 279.087C107.92 278.9 107.953 278.679 108.054 278.475ZM96.3792 270.332C96.3958 270.18 96.4304 270.061 96.4638 269.942C96.5149 269.84 96.5661 269.737 96.6172 269.653C96.7019 269.55 96.9064 269.381 97.0422 269.33L104.777 265.42C105.321 265.165 105.711 265.369 105.898 265.623C106.035 265.828 106.103 266.117 106.103 266.593C106.103 266.797 106.086 266.967 106.086 267.103C106.07 267.273 106.035 267.409 106.001 267.528C105.95 267.698 105.848 267.851 105.711 267.97C105.627 268.037 105.525 268.105 105.406 268.156L100.154 270.724L105.354 273.239C105.491 273.325 105.594 273.376 105.66 273.427C105.797 273.545 105.916 273.682 105.984 273.869C106.035 274.005 106.07 274.158 106.086 274.327C106.086 274.464 106.103 274.633 106.103 274.838C106.103 275.041 106.086 275.212 106.07 275.331C106.052 275.552 105.984 275.721 105.882 275.858C105.746 276.027 105.457 276.164 105.219 276.164C105.202 276.164 105.185 276.164 105.167 276.147C105.032 276.129 104.896 276.096 104.76 276.01L96.9231 272.05C96.7019 271.948 96.5493 271.744 96.4471 271.437C96.3792 271.251 96.3625 271.013 96.3625 270.707C96.3625 270.57 96.3625 270.452 96.3792 270.332ZM94.173 283.798H130.828C131.044 283.798 131.219 283.974 131.219 284.19C131.219 284.406 131.044 284.581 130.828 284.581H94.173C93.9569 284.581 93.7815 284.406 93.7815 284.19C93.7815 283.974 93.9569 283.798 94.173 283.798ZM94.173 291.275H130.828C131.044 291.275 131.219 291.451 131.219 291.667C131.219 291.883 131.044 292.058 130.828 292.058H94.173C93.9569 292.058 93.7815 291.883 93.7815 291.667C93.7815 291.451 93.9569 291.275 94.173 291.275ZM94.173 298.752H130.828C131.044 298.752 131.219 298.928 131.219 299.144C131.219 299.36 131.044 299.535 130.828 299.535H94.173C93.9569 299.535 93.7815 299.36 93.7815 299.144C93.7815 298.928 93.9569 298.752 94.173 298.752Z" fill="white"/>
<path d="M130.9 247.621H94.1057C91.4661 247.621 89.3184 249.764 89.3184 252.398V253.41C89.3184 253.626 89.4939 253.801 89.7099 253.801H100.084C100.38 255.603 101.952 256.966 103.816 256.966H120.595C122.458 256.966 124.031 255.603 124.327 253.801H135.296C135.512 253.801 135.688 253.626 135.688 253.41V252.398C135.688 249.764 133.54 247.621 130.9 247.621ZM115.221 253.711H109.777C109.561 253.711 109.385 253.536 109.385 253.32C109.385 253.104 109.561 252.928 109.777 252.928H115.221C115.437 252.928 115.612 253.104 115.612 253.32C115.612 253.536 115.437 253.711 115.221 253.711Z" fill="white"/>
<path d="M135.292 303.97H89.7059C89.4897 303.97 89.3143 304.145 89.3143 304.361V310.592C89.3143 313.231 91.462 315.379 94.1016 315.379H130.896C133.536 315.379 135.684 313.231 135.684 310.592V304.361C135.684 304.145 135.508 303.97 135.292 303.97ZM115.161 310.995C115.161 311.736 114.566 312.342 113.825 312.342H111.173C110.432 312.342 109.836 311.736 109.836 310.995V308.353C109.836 307.601 110.432 307.006 111.173 307.006H113.825C114.566 307.006 115.161 307.601 115.161 308.353V310.995Z" fill="white"/>
<g clip-path="url(#clip0_14_2478)">
<path d="M569.097 73H514.903C512.419 73 510.387 75.0324 510.387 77.5161V115.903H573.613V77.5161C573.613 75.0322 571.581 73 569.097 73ZM537.552 98.4258L542.068 80.3612C542.361 79.1416 543.603 78.4193 544.8 78.7129C546.019 79.0062 546.742 80.2483 546.448 81.4451L541.932 99.5097C541.684 100.549 540.758 101.226 539.742 101.226C539.562 101.226 539.381 101.203 539.2 101.158C537.981 100.865 537.258 99.6225 537.552 98.4258ZM521.677 110.258H519.419C518.177 110.258 517.161 109.242 517.161 108C517.161 106.758 518.177 105.742 519.419 105.742H521.677C522.919 105.742 523.936 106.758 523.936 108C523.936 109.242 522.919 110.258 521.677 110.258ZM526.194 89.9354C526.194 89.2579 526.51 88.603 527.052 88.174L532.697 83.6579C533.668 82.8676 535.09 83.0257 535.858 84.0193C536.648 84.9903 536.49 86.4129 535.497 87.1807L532.065 89.9354L535.497 92.6901C536.49 93.4579 536.648 94.8805 535.858 95.8515C535.406 96.4161 534.752 96.7097 534.097 96.7097C533.6 96.7097 533.103 96.5515 532.697 96.2129L527.052 91.6968C526.51 91.2678 526.194 90.6129 526.194 89.9354ZM551.032 110.258H530.71C529.468 110.258 528.451 109.242 528.451 108C528.451 106.758 529.468 105.742 530.71 105.742H551.032C552.274 105.742 553.29 106.758 553.29 108C553.29 109.242 552.274 110.258 551.032 110.258ZM551.303 96.2129C550.897 96.5515 550.4 96.7097 549.903 96.7097C549.248 96.7097 548.594 96.4161 548.142 95.8515C547.352 94.8805 547.51 93.4579 548.503 92.6901L551.936 89.9354L548.503 87.1807C547.51 86.4129 547.351 84.9903 548.142 84.0193C548.91 83.0257 550.332 82.8903 551.303 83.6579L556.948 88.174C557.49 88.603 557.806 89.2579 557.806 89.9354C557.806 90.6129 557.49 91.2678 556.948 91.6968L551.303 96.2129ZM564.581 110.258H560.065C558.823 110.258 557.806 109.242 557.806 108C557.806 106.758 558.822 105.742 560.065 105.742H564.581C565.822 105.742 566.839 106.758 566.839 108C566.839 109.242 565.823 110.258 564.581 110.258Z" fill="white"/>
<path d="M510.387 120.419H573.613V122.677C573.613 125.161 571.581 127.194 569.097 127.194H514.903C512.419 127.194 510.387 125.161 510.387 122.677V120.419Z" fill="white"/>
<path d="M555.548 140.742H528.452L532.968 131.71H551.032L555.548 140.742Z" fill="white"/>
<path d="M560.065 143H523.935C522.688 143 521.677 141.989 521.677 140.742C521.677 139.495 522.688 138.484 523.935 138.484H560.065C561.312 138.484 562.323 139.495 562.323 140.742C562.323 141.989 561.312 143 560.065 143Z" fill="white"/>
</g>
<path d="M158.518 176.178C156.453 177.228 154.158 177.741 151.844 177.672C149.529 177.741 147.234 177.228 145.17 176.178V203.246C145.775 203.184 146.382 203.154 146.99 203.155C149.305 203.085 151.6 203.599 153.664 204.648V195.874C153.664 193.932 155.586 192.335 158.518 191.548V176.178Z" fill="white"/>
<path d="M146.99 210.435C150.676 210.435 153.664 209.349 153.664 208.008C153.664 206.668 150.676 205.581 146.99 205.581C143.304 205.581 140.316 206.668 140.316 208.008C140.316 209.349 143.304 210.435 146.99 210.435Z" fill="white"/>
<path d="M140.316 211.368V214.076C140.316 215.046 142.977 216.502 146.99 216.502C151.003 216.502 153.664 215.046 153.664 214.076V211.368C151.6 212.418 149.305 212.931 146.99 212.862C144.675 212.931 142.38 212.418 140.316 211.368Z" fill="white"/>
<path d="M176.138 159.628C177.036 160.302 178.126 160.669 179.248 160.675C178.197 158.87 177.364 156.945 176.769 154.942C176.589 154.296 176.967 153.627 177.612 153.447C178.258 153.267 178.927 153.645 179.107 154.29C179.783 156.57 180.817 158.728 182.169 160.684H183.416C184.771 158.73 185.804 156.572 186.477 154.292C186.656 153.645 187.326 153.267 187.972 153.447C188.618 153.627 188.996 154.296 188.816 154.942C188.221 156.943 187.39 158.866 186.34 160.671C187.439 160.654 188.506 160.289 189.385 159.628C192.226 157.408 193.222 153.877 193.55 151.304C193.615 150.863 193.411 150.426 193.032 150.192C192.613 149.92 192.073 149.92 191.654 150.192C190.804 150.726 189.817 150.998 188.814 150.976C187.408 150.988 186.052 150.458 185.027 149.496C184.427 148.89 183.61 148.55 182.757 148.55C181.905 148.55 181.088 148.89 180.488 149.496C179.463 150.457 178.108 150.987 176.702 150.976C175.704 150.998 174.721 150.728 173.875 150.197C173.67 150.066 173.432 149.996 173.188 149.995C172.941 149.996 172.7 150.066 172.492 150.199C172.114 150.431 171.911 150.867 171.976 151.306C172.307 153.879 173.3 157.408 176.138 159.628Z" fill="white"/>
<path d="M159.125 158.257C162.81 158.257 165.798 157.17 165.798 155.83C165.798 154.49 162.81 153.403 159.125 153.403C155.439 153.403 152.451 154.49 152.451 155.83C152.451 157.17 155.439 158.257 159.125 158.257Z" fill="white"/>
<path d="M151.844 175.245C155.53 175.245 158.518 174.159 158.518 172.818C158.518 171.478 155.53 170.392 151.844 170.392C148.158 170.392 145.17 171.478 145.17 172.818C145.17 174.159 148.158 175.245 151.844 175.245Z" fill="white"/>
<path d="M207.319 187.658C203.37 170.899 192.828 164.043 189.621 162.308C189.03 162.595 188.405 162.805 187.761 162.932L190.014 165.035C190.25 165.255 190.388 165.559 190.399 165.881C190.41 166.203 190.293 166.516 190.073 166.751C189.854 166.987 189.55 167.125 189.228 167.136C188.906 167.148 188.593 167.03 188.358 166.811L184.395 163.111H184.006V166.751C184.006 167.421 183.463 167.965 182.793 167.965C182.123 167.965 181.579 167.421 181.579 166.751V163.111H181.191L177.228 166.811C176.993 167.03 176.679 167.148 176.358 167.136C176.036 167.125 175.732 166.987 175.512 166.751C175.292 166.516 175.175 166.203 175.186 165.881C175.197 165.559 175.335 165.255 175.57 165.035L177.812 162.945C177.163 162.818 176.533 162.609 175.938 162.322C172.921 164.022 170.201 166.202 167.884 168.776C167.875 168.786 167.866 168.797 167.856 168.808C166.97 169.776 166.137 170.791 165.359 171.848C164.957 172.371 164.211 172.477 163.679 172.086C163.147 171.696 163.025 170.952 163.403 170.412C164.195 169.332 165 168.358 165.798 167.463V159.188C163.734 160.238 161.439 160.752 159.125 160.684C156.81 160.753 154.515 160.239 152.451 159.19V167.98C157.332 168.137 160.945 170.165 160.945 172.818V191.111C161.549 191.05 162.157 191.02 162.765 191.02C167.952 191.02 171.866 193.107 171.866 195.874V209.222H193.938C195.206 209.222 201.725 208.979 205.481 204.247C208.417 200.533 209.036 194.953 207.319 187.658ZM188.854 187.38C188.854 190.06 186.681 192.234 184 192.234V193.447C184 194.117 183.457 194.66 182.787 194.66C182.117 194.66 181.573 194.117 181.573 193.447V192.234C178.893 192.234 176.719 190.06 176.719 187.38C176.719 186.71 177.263 186.166 177.933 186.166C178.603 186.166 179.146 186.71 179.146 187.38C179.146 188.72 180.233 189.807 181.573 189.807V184.953C178.893 184.953 176.719 182.78 176.719 180.099C176.719 177.418 178.893 175.245 181.573 175.245V174.032C181.573 173.362 182.117 172.818 182.787 172.818C183.457 172.818 184 173.362 184 174.032V175.245C186.681 175.245 188.854 177.418 188.854 180.099C188.854 180.769 188.311 181.312 187.64 181.312C186.97 181.312 186.427 180.769 186.427 180.099C186.427 178.759 185.34 177.672 184 177.672V182.526C186.681 182.526 188.854 184.699 188.854 187.38ZM203.579 202.733C200.516 206.599 195.011 206.795 193.938 206.795C193.268 206.795 192.725 206.252 192.725 205.581C192.725 204.911 193.268 204.368 193.938 204.368C194.816 204.368 199.308 204.216 201.675 201.226C202.795 199.645 203.392 197.752 203.383 195.814C203.423 195.149 203.987 194.637 204.653 194.66C204.975 194.676 205.277 194.818 205.493 195.057C205.71 195.295 205.822 195.609 205.807 195.931C205.797 198.376 205.017 200.756 203.579 202.733Z" fill="white"/>
<path d="M179.146 180.099C179.146 181.439 180.233 182.526 181.573 182.526V177.672C180.233 177.672 179.146 178.759 179.146 180.099Z" fill="white"/>
<path d="M184 189.807C185.34 189.807 186.427 188.72 186.427 187.38C186.427 186.039 185.34 184.953 184 184.953V189.807Z" fill="white"/>
<path d="M156.091 199.234V211.649C156.091 212.619 158.752 214.076 162.765 214.076C166.778 214.076 169.439 212.619 169.439 211.649V199.234C167.374 200.283 165.079 200.797 162.765 200.728C160.45 200.797 158.155 200.283 156.091 199.234Z" fill="white"/>
<path d="M162.765 198.301C166.451 198.301 169.439 197.214 169.439 195.874C169.439 194.533 166.451 193.447 162.765 193.447C159.079 193.447 156.091 194.533 156.091 195.874C156.091 197.214 159.079 198.301 162.765 198.301Z" fill="white"/>
<path d="M198.197 157.044C198.197 159.034 196.038 160.66 193.344 160.684C192.891 160.685 192.439 160.636 191.997 160.538C191.932 160.62 191.854 160.689 191.766 160.745C191.96 160.866 192.179 160.999 192.409 161.133C193.15 161.618 194.011 162.213 194.958 162.953C195.055 163.026 195.14 163.099 195.237 163.184C201.28 163.633 203.197 166.157 203.258 166.229C203.486 166.559 203.863 166.754 204.265 166.751C204.503 166.754 204.737 166.682 204.932 166.545C205.486 166.175 205.637 165.427 205.272 164.87C205.175 164.725 203.5 162.322 198.61 161.218C199.858 160.187 200.594 158.662 200.624 157.044C200.458 154.35 198.585 152.067 195.977 151.377C195.975 151.458 195.967 151.539 195.953 151.619C195.859 152.359 195.721 153.093 195.54 153.816C197.006 154.242 198.061 155.523 198.197 157.044Z" fill="white"/>
<path d="M399.895 79.496C401.923 81.0382 404.005 82.6311 404.529 85.5779H410.576C411.093 82.6296 413.183 81.0368 415.21 79.496C417.971 77.3892 420.578 75.401 420.578 69.6492C420.578 62.4516 414.743 56.6168 407.545 56.6168C400.348 56.6168 394.513 62.4516 394.513 69.6492C394.513 75.4009 397.127 77.3892 399.895 79.496ZM403.353 76.2437C403.525 75.8999 403.826 75.6382 404.19 75.5167C404.555 75.395 404.953 75.4232 405.297 75.5951L407.545 76.7187L409.794 75.5936C410.51 75.2362 411.38 75.5265 411.737 76.2424C412.095 76.9581 411.805 77.8281 411.089 78.1857L408.193 79.6338C407.785 79.8374 407.306 79.8374 406.898 79.6338L404.002 78.1857C403.658 78.0141 403.397 77.713 403.275 77.3485C403.153 76.984 403.181 76.586 403.353 76.2424V76.2437H403.353Z" fill="white"/>
<path d="M404.649 89.9219C404.649 90.7216 405.298 91.37 406.098 91.37H408.994C409.793 91.37 410.442 90.7217 410.442 89.9219V88.4738H404.65V89.9219H404.649Z" fill="white"/>
<path d="M368.448 47.9285H446.643C447.443 47.9285 448.091 47.2802 448.091 46.4804C448.091 45.6807 447.443 45.0322 446.643 45.0322H368.448C367.648 45.0322 367 45.6805 367 46.4804C367 47.2802 367.648 47.9285 368.448 47.9285Z" fill="white"/>
<path d="M446.643 100.058H368.448C367.648 100.058 367 100.707 367 101.507C367 102.306 367.648 102.955 368.448 102.955H446.643C447.443 102.955 448.091 102.306 448.091 101.507C448.091 100.707 447.443 100.058 446.643 100.058Z" fill="white"/>
<path d="M445.195 97.1622V50.8247H369.896V97.1623H445.195V97.1622ZM432.162 69.6493C432.162 70.4489 431.514 71.0974 430.714 71.0974H427.818C427.018 71.0974 426.37 70.4491 426.37 69.6493C426.37 68.8494 427.018 68.2011 427.818 68.2011H430.714C431.514 68.2013 432.162 68.8496 432.162 69.6493ZM424.379 58.2589L426.886 56.8107C427.334 56.548 427.889 56.5455 428.339 56.8043C428.79 57.0632 429.067 57.5435 429.066 58.0632C429.065 58.5828 428.785 59.062 428.334 59.3189L425.827 60.767C425.379 61.0298 424.824 61.0322 424.374 60.7734C423.923 60.5145 423.646 60.0342 423.647 59.5146C423.648 58.9949 423.927 58.5157 424.379 58.2589ZM407.545 53.7208C416.338 53.7311 423.464 60.8565 423.474 69.6493C423.474 76.8359 419.854 79.5887 416.949 81.7998C415.156 83.1639 413.979 84.1427 413.539 85.6182C414.248 85.7101 414.78 86.311 414.786 87.0257C414.786 87.8254 414.137 88.4738 413.338 88.4738V89.9219C413.338 92.3211 411.393 94.2661 408.993 94.2661H406.097C403.698 94.2661 401.753 92.3211 401.753 89.9219V88.4738C400.954 88.4738 400.305 87.8255 400.305 87.0257C400.311 86.311 400.843 85.7101 401.552 85.6182C401.118 84.1427 399.935 83.1565 398.142 81.7998C395.237 79.5886 391.617 76.8359 391.617 69.6493C391.627 60.8565 398.753 53.7311 407.545 53.7208ZM386.226 57.3409C386.418 57.0079 386.734 56.765 387.106 56.6656C387.477 56.5662 387.873 56.6185 388.205 56.8109L390.712 58.259C391.164 58.5159 391.443 58.9951 391.444 59.5147C391.445 60.0344 391.168 60.5147 390.717 60.7735C390.267 61.0324 389.712 61.0299 389.264 60.7671L386.757 59.319C386.424 59.1273 386.181 58.811 386.082 58.4401C385.982 58.0691 386.034 57.6736 386.226 57.3409ZM384.377 68.2013H387.273C388.073 68.2013 388.721 68.8496 388.721 69.6494C388.721 70.4493 388.073 71.0975 387.273 71.0975H384.377C383.577 71.0975 382.929 70.4493 382.929 69.6494C382.929 68.8496 383.577 68.2013 384.377 68.2013Z" fill="white"/>
<path d="M407.545 37.7921C409.145 37.7921 410.442 36.4955 410.442 34.8961C410.442 33.2966 409.145 32 407.545 32C405.946 32 404.649 33.2966 404.649 34.8961C404.649 36.4955 405.946 37.7921 407.545 37.7921Z" fill="white"/>
<path d="M408.994 110.596V105.851H406.097V110.596C404.962 111.251 404.409 112.587 404.748 113.853C405.087 115.12 406.235 116 407.546 116C408.856 116 410.004 115.12 410.343 113.853C410.682 112.587 410.129 111.251 408.994 110.596Z" fill="white"/>
<path d="M402.217 37.1406L385.564 42.1363H375.486L401.797 34.2445C401.768 34.4606 401.753 34.6782 401.753 34.8961C401.748 35.6685 401.906 36.4333 402.217 37.1406Z" fill="white"/>
<path d="M439.591 42.1363H429.541L412.874 37.1406C413.184 36.4333 413.342 35.6685 413.338 34.8961C413.338 34.6781 413.323 34.4604 413.294 34.2445L439.591 42.1363Z" fill="white"/>
<path d="M249.9 123.915C246.206 129.033 245.052 136.8 246.563 146.375C246.668 147.041 247.083 147.574 247.702 147.84C248.32 148.105 248.99 148.038 249.542 147.657L260.852 139.858C258.947 134.584 256.551 127.166 254.966 119.456C253.803 120.047 251.741 121.363 249.9 123.915Z" fill="white"/>
<path d="M299.1 123.915C297.237 121.332 295.147 120.016 293.992 119.435C292.41 127.14 290.016 134.556 288.111 139.832L299.458 147.657C300.011 148.038 300.681 148.105 301.298 147.84C301.917 147.575 302.332 147.041 302.438 146.376C303.948 136.8 302.794 129.033 299.1 123.915Z" fill="white"/>
<path d="M275.938 73.5371C275.515 73.179 274.996 73 274.477 73C273.958 73 273.44 73.179 273.016 73.5369C270.695 75.5005 267.555 78.5086 264.659 82.4358H284.295C281.4 78.5086 278.259 75.5005 275.938 73.5371Z" fill="white"/>
<path d="M291.574 98.7423C290.72 93.9676 288.905 89.7247 286.72 86.0747H262.233C260.048 89.7247 258.233 93.9676 257.379 98.7423C254.849 112.886 263.094 135.718 265.682 142.38C266.023 143.258 266.85 143.825 267.791 143.825H272.657V120.101C272.657 119.096 273.472 118.281 274.477 118.281C275.482 118.281 276.296 119.096 276.296 120.101V143.825H281.162C282.103 143.825 282.931 143.257 283.272 142.38C285.859 135.718 294.104 112.886 291.574 98.7423ZM274.477 107.682C269.371 107.682 265.216 103.528 265.216 98.4221C265.216 93.3161 269.371 89.1616 274.477 89.1616C279.583 89.1616 283.737 93.3161 283.737 98.4221C283.737 103.528 279.583 107.682 274.477 107.682Z" fill="white"/>
<path d="M274.477 92.8002C271.377 92.8002 268.855 95.3222 268.855 98.4219C268.855 101.522 271.377 104.043 274.477 104.043C277.577 104.043 280.098 101.522 280.098 98.4219C280.098 95.3222 277.577 92.8002 274.477 92.8002Z" fill="white"/>
<g clip-path="url(#clip1_14_2478)">
<path d="M668 147H664V145C664 143.895 663.105 143 662 143C660.895 143 660 143.895 660 145V147H652V145C652 143.895 651.105 143 650 143C648.895 143 648 143.895 648 145V147H640V145C640 143.895 639.105 143 638 143C636.895 143 636 143.895 636 145V147H628V145C628 143.895 627.106 143 626 143C624.894 143 624 143.895 624 145V147H620C616.691 147 614 149.691 614 153V201C614 202.105 614.895 203 616 203H649.047C647.126 200.137 646 196.699 646 193C646 183.074 654.074 175 664 175C667.699 175 671.137 176.126 674 178.047V153C674 149.691 671.308 147 668 147ZM628 195H624C622.894 195 622 194.105 622 193C622 191.895 622.894 191 624 191H628C629.106 191 630 191.895 630 193C630 194.105 629.106 195 628 195ZM628 187H624C622.894 187 622 186.105 622 185C622 183.895 622.894 183 624 183H628C629.106 183 630 183.895 630 185C630 186.105 629.106 187 628 187ZM628 179H624C622.894 179 622 178.105 622 177C622 175.895 622.894 175 624 175H628C629.106 175 630 175.895 630 177C630 178.105 629.106 179 628 179ZM628 171H624C622.894 171 622 170.105 622 169C622 167.895 622.894 167 624 167H628C629.106 167 630 167.895 630 169C630 170.105 629.106 171 628 171ZM640 195H636C634.895 195 634 194.105 634 193C634 191.895 634.895 191 636 191H640C641.105 191 642 191.895 642 193C642 194.105 641.105 195 640 195ZM640 187H636C634.895 187 634 186.105 634 185C634 183.895 634.895 183 636 183H640C641.105 183 642 183.895 642 185C642 186.105 641.105 187 640 187ZM640 179H636C634.895 179 634 178.105 634 177C634 175.895 634.895 175 636 175H640C641.105 175 642 175.895 642 177C642 178.105 641.105 179 640 179ZM640 171H636C634.895 171 634 170.105 634 169C634 167.895 634.895 167 636 167H640C641.105 167 642 167.895 642 169C642 170.105 641.105 171 640 171ZM652 179H648C646.895 179 646 178.105 646 177C646 175.895 646.895 175 648 175H652C653.105 175 654 175.895 654 177C654 178.105 653.105 179 652 179ZM652 171H648C646.895 171 646 170.105 646 169C646 167.895 646.895 167 648 167H652C653.105 167 654 167.895 654 169C654 170.105 653.105 171 652 171ZM664 171H660C658.895 171 658 170.105 658 169C658 167.895 658.895 167 660 167H664C665.105 167 666 167.895 666 169C666 170.105 665.105 171 664 171ZM670 159H618V153C618 151.896 618.897 151 620 151H624V153C624 154.106 624.894 155 626 155C627.106 155 628 154.106 628 153V151H636V153C636 154.106 636.895 155 638 155C639.105 155 640 154.106 640 153V151H648V153C648 154.106 648.895 155 650 155C651.105 155 652 154.106 652 153V151H660V153C660 154.106 660.895 155 662 155C663.105 155 664 154.106 664 153V151H668C669.104 151 670 151.896 670 153V159Z" fill="white"/>
<path d="M664 179C656.281 179 650 185.281 650 193C650 200.719 656.281 207 664 207C671.719 207 678 200.719 678 193C678 185.281 671.719 179 664 179ZM672 195H664C662.894 195 662 194.106 662 193V185C662 183.894 662.894 183 664 183C665.106 183 666 183.894 666 185V191H672C673.105 191 674 191.894 674 193C674 194.106 673.105 195 672 195Z" fill="white"/>
</g>
<g clip-path="url(#clip2_14_2478)">
<path d="M720.546 251.894C726.701 253.488 731.512 258.299 733.106 264.454H751C749.014 248.561 736.439 235.986 720.546 234V251.894Z" fill="white"/>
<path d="M733.107 273.242C732.693 274.84 732.06 276.337 731.242 277.725L743.896 290.379C747.673 285.52 750.199 279.656 751 273.242H733.107Z" fill="white"/>
<path d="M725.028 283.938C722.415 285.48 719.406 286.424 716.152 286.424C706.445 286.424 698.576 278.555 698.576 268.848C698.576 260.668 704.191 253.854 711.758 251.894V234C694.423 236.167 681 250.926 681 268.848C681 288.262 696.738 304 716.152 304C724.274 304 731.731 301.219 737.683 296.593L725.028 283.938Z" fill="white"/>
</g>
<path fill-rule="evenodd" clip-rule="evenodd" d="M795.794 344.791L784.967 355.621C784.468 356.121 783.791 356.4 783.086 356.4H772.256C770.79 356.4 769.6 355.21 769.6 353.744V342.914C769.6 342.209 769.88 341.532 770.379 341.033L781.209 330.206C781.861 329.555 782.803 329.285 783.699 329.498C784.595 329.71 785.318 330.369 785.608 331.244L787.896 338.104L794.756 340.392C795.631 340.682 796.29 341.405 796.502 342.301C796.715 343.197 796.446 344.139 795.794 344.791Z" fill="white"/>
<path fill-rule="evenodd" clip-rule="evenodd" d="M770.379 351.863C771.416 350.826 773.099 350.826 774.136 351.863C775.174 352.901 775.174 354.583 774.136 355.621L757.891 371.863C756.853 372.901 755.171 372.901 754.137 371.863C753.099 370.829 753.099 369.147 754.137 368.109L770.379 351.863Z" fill="white"/>
<path fill-rule="evenodd" clip-rule="evenodd" d="M788.693 356.903C790.35 360.997 791.26 365.471 791.26 370.156C791.26 389.703 775.39 405.573 755.844 405.573C736.297 405.573 720.427 389.703 720.427 370.156C720.427 350.61 736.297 334.74 755.844 334.74C760.529 334.74 765.003 335.65 769.097 337.307L767.875 338.529C766.713 339.694 766.058 341.27 766.058 342.914V350.518C763.001 348.924 759.527 348.021 755.844 348.021C743.629 348.021 733.708 357.941 733.708 370.156C733.708 382.371 743.629 392.292 755.844 392.292C768.059 392.292 777.979 382.371 777.979 370.156C777.979 366.473 777.076 362.999 775.482 359.942H783.086C784.73 359.942 786.306 359.287 787.471 358.125L788.693 356.903ZM771.285 363.477C772.174 365.527 772.667 367.783 772.667 370.156C772.667 379.442 765.13 386.979 755.844 386.979C746.558 386.979 739.021 379.442 739.021 370.156C739.021 360.87 746.558 353.333 755.844 353.333C758.217 353.333 760.473 353.826 762.523 354.715L751.629 365.605C749.21 368.024 749.21 371.952 751.629 374.371C754.048 376.79 757.976 376.79 760.395 374.371L771.285 363.477Z" fill="white"/>
<path d="M40.9844 379.587V395.922C40.9844 399.217 43.6653 401.898 46.9609 401.898H95.0391C98.3347 401.898 101.016 399.217 101.016 395.922V379.744C93.8657 383.797 83.4208 385.204 76.9766 385.696V387.953C76.9766 389.054 76.0855 389.945 74.9844 389.945H67.0156C65.9145 389.945 65.0234 389.054 65.0234 387.953V385.71C57.1785 385.12 47.5691 383.366 40.9844 379.587Z" fill="white"/>
<path d="M65.0234 381.709V379.984C65.0234 378.883 65.9145 377.992 67.0156 377.992H74.9844C76.0855 377.992 76.9766 378.883 76.9766 379.984V381.724C88.8071 380.799 105 377.095 105 368.031V364.047C105 360.751 102.319 358.07 99.0234 358.07H82.9531V352.094C82.9531 350.993 82.0621 350.102 80.9609 350.102H61.0391C59.9379 350.102 59.0469 350.993 59.0469 352.094V358.07H42.9766C39.681 358.07 37 360.751 37 364.047V368.031C37 376.999 53.1438 380.752 65.0234 381.709ZM63.0312 354.086H78.9688V358.07H63.0312V354.086Z" fill="white"/>
<ellipse cx="405.722" cy="585.909" rx="127.091" ry="19.0909" fill="#E6E6E6"/>
<path d="M573.84 570.664H558.355L532.366 480.671L526.709 461.113C526.45 460.273 526.224 459.27 526.062 458.366C524.866 451.351 526.547 444.336 530.038 439.713C531.751 437.451 533.884 435.77 536.341 434.961C540.253 433.636 544.131 434.767 547.235 437.612C550.079 440.231 552.246 444.304 553.085 449.314L557.514 475.238L573.84 570.664Z" fill="#CECECE"/>
<path d="M557.515 475.24L532.366 480.672L526.709 461.114C526.45 460.274 526.224 459.271 526.062 458.367C524.866 451.352 526.547 444.337 530.038 439.714C536.019 438.972 542.128 438.227 547.235 437.613C550.079 440.232 552.246 444.305 553.085 449.315L557.515 475.24Z" fill="#C2C2C2"/>
<path d="M296.974 458.367C296.844 459.271 296.587 460.274 296.36 461.114L290.478 481.512L264.714 570.665H249.23L265.91 473.14L269.984 449.316C270.663 445.244 272.247 441.783 274.315 439.23C277.612 435.223 282.17 433.413 286.728 434.964C290.057 436.096 292.805 438.81 294.68 442.398C297.008 446.826 297.976 452.613 296.974 458.367Z" fill="#CECECE"/>
<path d="M296.974 458.368C296.844 459.271 296.587 460.274 296.36 461.114L290.477 481.512L265.91 473.14L269.983 449.316C270.663 445.244 272.247 441.783 274.315 439.23L294.679 442.399C297.008 446.826 297.976 452.613 296.974 458.368Z" fill="#C2C2C2"/>
<path d="M569.961 334.787L503.436 430.34L340.969 415.599L251.946 334.465C251.946 334.465 249.295 314.52 252.367 287.819C252.432 287.075 252.528 286.366 252.625 285.621C258.218 240.559 280.264 177.753 357.068 157.807C357.779 157.646 358.522 157.452 359.266 157.291C374.33 153.574 391.462 151.505 410.955 151.505C431.837 151.505 450.036 153.896 465.875 158.131C466.619 158.293 467.361 158.519 468.073 158.714C542.162 179.531 563.691 241.143 569.25 285.622C569.347 286.367 569.444 287.109 569.508 287.82C572.61 314.712 569.961 334.787 569.961 334.787Z" fill="#3FA1C0"/>
<path d="M569.503 334.462L568.759 335.498C569.082 327.061 569.017 314.938 567.401 301.008C567.336 300.296 567.239 299.552 567.142 298.81C561.582 254.329 540.053 192.719 465.964 171.901C465.253 171.708 464.51 171.481 463.766 171.32C447.926 167.086 429.726 164.694 408.845 164.694C389.354 164.694 372.221 166.761 357.159 170.48C356.415 170.641 355.671 170.835 354.961 170.996C281.486 190.067 258.114 248.382 251.358 292.862C251.52 291.117 251.681 289.306 251.909 287.496C251.973 286.752 252.07 286.043 252.167 285.298C257.76 240.236 279.805 177.43 356.61 157.484C357.321 157.323 358.064 157.129 358.808 156.968C373.872 153.25 391.004 151.182 410.497 151.182C431.379 151.182 449.577 153.573 465.416 157.808C466.16 157.97 466.903 158.196 467.615 158.391C541.704 179.208 563.232 240.82 568.791 285.299C568.889 286.044 568.986 286.786 569.05 287.497C572.152 314.388 569.503 334.462 569.503 334.462Z" fill="#0A6784"/>
<path d="M569.508 287.819H252.366C252.431 287.075 252.527 286.366 252.624 285.621H569.249C569.347 286.365 569.443 287.107 569.508 287.819Z" fill="#0A6784"/>
<path d="M359.265 157.29V393.328H357.067V157.807C357.778 157.646 358.521 157.451 359.265 157.29Z" fill="#0A6784"/>
<path d="M468.072 158.712V393.328H465.873V158.13C466.616 158.292 467.36 158.518 468.072 158.712Z" fill="#0A6784"/>
<path d="M370.441 283.76L375.874 286.732L369.073 289.967C365.715 291.565 363.012 294.269 361.414 297.626L358.179 304.427L355.207 298.994C353.063 295.072 349.837 291.848 345.916 289.703L340.484 286.732L347.284 283.496C350.642 281.899 353.346 279.195 354.943 275.838L358.179 269.037L361.15 274.469C363.295 278.39 366.52 281.615 370.441 283.76Z" fill="#E64920"/>
<path d="M613.832 347.901C613.832 347.901 590.056 316.987 555.393 336.795C520.73 356.603 512.801 390.842 512.801 390.842L525.241 425.506L569.954 400.09L613.832 347.901Z" fill="#0A6784"/>
<path d="M216.48 347.901C216.48 347.901 237.624 314.646 272.287 334.455C306.951 354.263 323.535 405.114 323.535 405.114L305.071 425.505L260.358 400.089L216.48 347.901Z" fill="#0A6784"/>
<path d="M539.245 465.12H282.639C265.749 465.12 251.929 451.302 251.929 434.411C251.929 417.521 265.748 403.702 282.639 403.702H539.245C556.135 403.702 569.954 417.52 569.954 434.411C569.953 451.302 556.135 465.12 539.245 465.12Z" fill="#3FA1C0"/>
<path d="M300.532 461.569C292.005 465.824 281.445 467.223 271.721 463.816C263.477 460.926 256.591 454.912 251.493 448.149C246.395 441.386 242.88 433.844 239.406 426.372C233.018 412.629 226.63 398.887 220.242 385.144C213.567 370.783 208.965 356.529 219.029 343.86C223.96 337.651 232.344 333.686 241.169 334.58C257.131 336.196 265.873 348.913 274.467 360.226C286.151 375.607 296.053 391.903 306.333 407.956C312.527 417.388 318.959 427.631 318.291 438.042C317.737 446.69 312.164 454.119 304.869 459.042C303.497 459.967 302.047 460.813 300.532 461.569Z" fill="#3FA1C0"/>
<path d="M530.158 461.89C538.526 466.068 548.918 467.386 558.521 463.919C566.662 460.98 573.49 454.936 578.561 448.16C583.632 441.384 587.15 433.844 590.625 426.372C597.018 412.632 603.411 398.891 609.804 385.152C616.484 370.793 621.121 356.556 611.301 344.005C606.488 337.854 598.258 333.965 589.558 334.92C573.823 336.647 565.118 349.383 556.571 360.718C544.95 376.131 535.077 392.439 524.834 408.511C518.664 417.956 512.254 428.209 512.836 438.577C513.319 447.19 518.754 454.551 525.905 459.405C527.249 460.315 528.671 461.147 530.158 461.89Z" fill="#3FA1C0"/>
<path d="M503.443 437.034H325.087C312.854 437.034 302.846 427.026 302.846 414.794C302.846 402.562 312.854 392.554 325.087 392.554H503.443C515.675 392.554 525.683 402.562 525.683 414.794C525.683 427.026 515.675 437.034 503.443 437.034Z" fill="#3FA1C0"/>
<path d="M304.275 400.34C304.235 389.209 298.828 369.382 414.264 369.382C532.669 369.382 524.797 392.612 525.24 403.703C525.683 414.794 304.315 411.471 304.275 400.34Z" fill="#E64920"/>
<path d="M305.523 414.794C304.258 414.794 303.049 414.069 302.484 412.837C277.209 357.768 256.836 341.444 244.198 337.448C236.535 335.026 232.312 337.431 232.138 337.536C230.564 338.462 228.512 337.965 227.564 336.396C226.615 334.825 227.064 332.795 228.607 331.812C229.266 331.391 235.35 327.79 245.644 330.848C259.684 335.016 281.996 352.135 308.559 410.011C309.336 411.701 308.603 413.702 306.925 414.483C306.471 414.693 305.994 414.794 305.523 414.794Z" fill="#1B8AAD"/>
<path d="M521.848 414.794C523.113 414.794 524.322 414.083 524.887 412.875C550.164 358.873 570.537 342.865 583.177 338.947C590.84 336.572 595.062 338.932 595.236 339.032C596.811 339.941 598.863 339.453 599.811 337.915C600.761 336.375 600.311 334.384 598.768 333.421C598.109 333.009 592.026 329.476 581.73 332.476C567.689 336.563 545.376 353.35 518.812 410.104C518.035 411.761 518.768 413.723 520.446 414.489C520.9 414.696 521.377 414.794 521.848 414.794Z" fill="#1B8AAD"/>
<path d="M503.443 430.346H325.087C312.854 430.346 302.846 420.337 302.846 408.105C302.846 395.873 312.854 385.865 325.087 385.865H503.443C515.675 385.865 525.683 395.873 525.683 408.105C525.683 420.337 515.675 430.346 503.443 430.346Z" fill="#0A6784"/>
<path d="M383.802 89.3785C381.29 90.7758 378.884 92.3499 376.605 94.1018C374.438 95.7676 372.201 97.5632 370.417 99.6462C369.633 100.562 368.982 101.607 368.822 102.823C368.646 104.163 369.113 105.309 369.82 106.416C370.188 106.991 370.544 107.542 370.606 108.24C370.678 109.028 370.49 109.816 370.405 110.595C370.253 111.994 370.348 113.402 370.595 114.784C371.172 118.008 372.637 121.011 374.115 123.904C374.482 124.622 375.565 123.989 375.198 123.271C373.953 120.833 372.743 118.346 372.071 115.679C371.733 114.336 371.544 112.959 371.59 111.573C371.631 110.293 372.046 108.984 371.799 107.707C371.564 106.491 370.608 105.64 370.212 104.499C369.738 103.137 370.281 101.789 371.145 100.722C372.737 98.7557 374.84 97.0765 376.816 95.5137C379.211 93.623 381.769 91.9427 384.435 90.4615C385.14 90.0699 384.509 88.9859 383.802 89.3785Z" fill="#1E1D1F"/>
<path d="M422.104 341.537C422.155 347.807 421.591 354.064 420.876 360.283C420.676 362.038 420.474 363.793 420.249 365.561C419.736 369.924 419.184 374.288 418.644 378.663C418.506 379.742 418.381 380.833 418.255 381.911C418.091 382.024 417.916 382.137 417.753 382.237C412.011 386.024 406.168 389.647 400.274 393.196C395.447 396.092 390.607 398.462 385.516 400.819C381.654 402.612 377.754 404.342 373.83 405.985C371.059 407.151 368.275 408.28 365.48 409.37C362.985 410.336 360.376 411.665 357.669 411.853C354.772 412.065 352.553 410.849 350.07 409.646C349.782 409.508 349.481 409.369 349.193 409.232C347.751 408.541 346.309 407.865 344.855 407.212C329.407 400.165 313.295 394.573 296.807 390.486C294.977 390.035 293.021 389.959 291.253 389.434C289.936 389.032 288.696 387.979 288.583 386.612C288.508 385.634 289.009 384.719 289.56 383.916C291.679 380.907 294.776 378.988 297.597 376.719C301.171 373.835 304.745 370.964 308.33 368.08C320.932 357.937 333.733 347.856 348.504 341.009C358.848 336.207 369.782 333.173 381.079 331.631C386.884 330.841 392.715 330.389 398.571 330.201C404.401 330.001 410.344 329.862 416.163 330.239C416.677 330.276 417.153 330.352 417.579 330.464C422.23 331.681 422.066 337.223 422.104 341.537Z" fill="#313232"/>
<path d="M508.457 401.483C500.181 407.076 490.314 410.06 480.371 411.013C474.465 411.577 469.036 410.736 463.895 408.993C448.347 403.752 435.495 390.374 420.512 383.453C419.597 383.027 418.682 382.625 417.753 382.237C415.534 381.296 413.29 380.419 411.058 379.541C410.054 375.014 409.391 370.45 408.977 365.848C407.999 354.852 408.462 343.693 409.052 332.633C409.302 332.445 409.579 332.295 409.904 332.219C412.449 331.605 415.008 331.003 417.578 330.464C425.653 328.747 433.865 327.606 442.141 328.395C452.611 329.411 462.566 332.822 472.258 336.771C480.182 340.007 488.232 343.116 495.592 347.555C503.128 352.118 511.529 358.287 517.184 365.861C519.391 368.807 521.171 371.954 522.324 375.303C526.262 386.664 517.172 395.591 508.457 401.483Z" fill="#313232"/>
<path d="M359.299 347.162C359.113 348.553 358.385 350.09 357.564 351.878C355.563 356.25 353.352 360.514 350.993 364.687C350.768 365.217 350.556 365.733 350.344 366.263C352.186 367.218 350.927 370.158 348.861 369.867L348.702 370.238C348.291 371.232 347.06 371.696 346.079 371.272C339.508 368.437 333.083 365.298 326.765 361.933C322.222 360.184 317.691 358.396 313.2 356.528C304.351 352.859 292.482 349.997 289.051 339.784C286.972 333.611 288.402 325.583 289.011 319.198C289.739 311.662 290.959 304.164 292.456 296.745C293.17 291.54 294.045 286.36 295.078 281.207C296.641 273.272 298.588 265.43 300.906 257.667C301.092 257.045 301.886 256.474 302.536 256.925C312.498 263.788 323.122 270.079 335.004 272.835C335.561 271.483 337.574 272.544 337.018 273.894C336.991 273.947 336.965 274.001 336.952 274.053C336.991 274.291 336.965 274.53 336.82 274.742C336.687 274.955 336.555 275.166 336.409 275.378C333.919 281.419 331.455 287.459 329.097 293.553C327.521 297.606 325.997 301.672 324.554 305.779C323.813 310.932 321.746 316.23 320.606 321.344C320.447 322.047 320.289 322.814 320.579 323.49C320.593 323.53 320.606 323.569 320.632 323.596C320.977 324.285 321.718 324.682 322.407 325.04C324.805 326.259 327.202 327.49 329.587 328.71C338.476 333.241 347.311 337.85 356.147 342.46C358.821 343.85 359.537 345.373 359.299 347.162Z" fill="#FFBE9D"/>
<path d="M337.014 273.889C336.989 273.943 336.97 273.996 336.951 274.049C336.994 274.289 336.966 274.529 336.821 274.746C336.68 274.948 336.548 275.164 336.401 275.374C333.923 281.411 331.454 287.46 329.098 293.545C317.63 290.892 303.257 284.858 295.072 281.204C296.643 273.272 298.589 265.423 300.901 257.664C301.088 257.042 301.893 256.471 302.533 256.916C312.5 263.776 323.118 270.074 335.008 272.828C335.56 271.482 337.568 272.548 337.014 273.889Z" fill="#EB996E"/>
<path d="M426.618 148.676L427.052 210.828C427.088 215.938 424.155 220.142 420.535 220.166L387.847 220.394C384.227 220.42 381.236 216.258 381.2 211.148L380.766 148.996C380.763 148.539 380.782 148.082 380.827 147.64C381.263 143.16 383.987 139.68 387.284 139.657L419.971 139.428C423.591 139.404 426.582 143.565 426.618 148.676Z" fill="#FFBE9D"/>
<path d="M422.631 169.413C410.352 184.967 389.377 183.518 380.962 182.183L380.811 160.549C380.808 160.226 380.832 159.901 380.886 159.588C393.911 157.67 435.893 152.616 422.631 169.413Z" fill="#EB996E"/>
<path d="M430.942 140.135C431.855 157.888 420.942 174.154 405.971 174.923C391 175.693 378.125 161.925 377.212 144.171C376.952 139.124 376.758 116.224 378.287 111.884C382.136 100.956 391.021 93.1061 401.737 92.5557C411.858 92.0355 421.689 95.6759 426.845 105.185C429.317 109.742 430.647 134.385 430.942 140.135Z" fill="#FFBE9D"/>
<path d="M436.773 101.564C436.68 99.3643 436.014 97.0844 434.381 95.5349C433.91 95.0885 433.395 94.7977 432.998 94.4296C432.971 94.3547 432.936 94.2898 432.913 94.207C432.315 91.9953 432.072 89.7544 431.123 87.6434C430.189 85.5659 428.819 83.6831 427.115 82.1694C424.219 79.5964 420.703 78.3993 416.898 78.1185C409.375 77.5647 401.932 78.99 396.659 84.747C396.45 84.9741 396.314 85.2157 396.233 85.4607C396.256 85.3914 390.708 85.9429 390.172 86.0805C388.148 86.6041 386.207 87.4331 384.421 88.5171C382.53 89.6638 380.845 91.2491 379.116 92.6251C376.082 95.0404 370.686 97.9961 370.985 102.553C371.079 103.98 371.947 105.002 372.29 106.316C372.597 107.492 372.042 108.724 371.793 109.854C371.457 111.375 371.799 112.858 372.115 114.361L372.323 115.353C372.465 118.552 372.911 121.737 373.634 124.86C373.717 125.218 373.877 125.491 374.077 125.7C374.078 126.113 374.086 126.527 374.079 126.939C374.013 131.39 374.019 133.732 374.31 137.644C374.39 138.722 375.487 139.183 376.511 138.835C377.646 138.449 378.338 137.728 378.468 136.714C378.924 133.15 379.496 115.754 382.405 109.058C382.429 108.995 382.455 108.933 382.48 108.869C383.169 107.315 383.997 104.807 385.651 104.005C386.814 103.441 387.921 104.028 388.834 104.77C389.812 105.565 390.605 106.349 391.751 106.957C394.07 108.188 396.67 108.834 399.273 109.077C404.222 109.539 409.698 109.121 414.286 107.123C416.806 106.026 419.228 104.4 421.915 103.754C424.371 103.166 425.024 105.588 425.831 107.438C426.834 109.741 427.585 112.154 428.094 114.613C429.871 123.038 428.748 127.085 428.956 136.407C428.973 137.139 429.832 137.522 430.385 137.041C431.714 135.885 433.546 134.063 433.685 132.769C434.143 128.508 434.653 124.125 434.976 119.802C435.144 117.572 435.267 115.336 435.319 113.099C435.369 110.953 435.822 109.14 436.243 107.05C436.61 105.257 436.85 103.398 436.773 101.564Z" fill="#0A0A0A"/>
<path d="M425.615 122.185C423.546 119.86 420.223 119.056 417.199 119.422C415.079 119.678 413.047 120.487 411.238 121.622C410.758 121.922 410.283 122.256 409.949 122.715C409.616 123.173 409.446 123.783 409.631 124.319C409.846 124.941 410.494 125.33 411.144 125.434C411.794 125.538 412.455 125.41 413.103 125.292C415.572 124.843 418.088 124.547 420.591 124.745C422.15 124.869 423.764 125.178 425.246 124.673C425.752 124.501 426.283 124.157 426.344 123.625C426.39 123.23 426.159 122.859 425.914 122.546C425.818 122.423 425.718 122.302 425.615 122.185Z" fill="#0A0A0A"/>
<path d="M380.445 122.061C382.546 119.766 385.881 119.01 388.899 119.419C391.015 119.705 393.035 120.544 394.827 121.703C395.303 122.011 395.774 122.351 396.099 122.815C396.425 123.278 396.587 123.891 396.395 124.424C396.171 125.043 395.517 125.423 394.866 125.517C394.215 125.612 393.555 125.473 392.91 125.347C390.447 124.862 387.936 124.53 385.431 124.692C383.87 124.794 382.25 125.08 380.777 124.554C380.274 124.374 379.748 124.022 379.693 123.49C379.653 123.094 379.889 122.727 380.138 122.417C380.238 122.294 380.34 122.175 380.445 122.061Z" fill="#0A0A0A"/>
<path d="M405.005 145.958C404.325 146.089 403.549 146.01 402.787 145.932C402.4 145.891 401.999 145.851 401.614 145.836C398.946 145.738 396.031 145.732 396.002 145.732C395.592 145.731 395.261 145.399 395.262 144.99C395.262 144.58 395.593 144.249 396.005 144.25C396.034 144.25 398.975 144.256 401.669 144.355C402.102 144.371 402.527 144.415 402.938 144.457C403.923 144.558 404.854 144.654 405.18 144.278C405.392 144.032 405.66 143.259 405.057 140.842C403.593 134.984 403.611 127.928 403.614 127.63C403.615 127.221 403.949 126.891 404.359 126.893C404.768 126.895 405.098 127.229 405.096 127.638C405.095 127.709 405.078 134.808 406.494 140.483C407.103 142.921 407.044 144.391 406.3 145.249C405.949 145.653 405.503 145.862 405.005 145.958Z" fill="#D9855F"/>
<path d="M389.828 166.606C389.807 166.579 389.778 166.551 389.751 166.524C389.784 166.547 389.811 166.568 389.839 166.589C389.834 166.595 389.834 166.6 389.828 166.606Z" fill="#C7C8FF"/>
<path d="M478.905 206.716C478.532 206.037 478.245 205.378 477.676 204.823C477.217 204.376 476.674 204.028 476.134 203.684C475.468 203.258 474.8 202.831 474.104 202.453C473.395 202.067 472.663 201.726 471.958 201.329C470.779 200.664 469.601 199.998 468.417 199.343C467.518 198.846 466.617 198.351 465.719 197.852C463.221 196.465 460.724 195.077 458.232 193.68C457.013 192.995 455.756 192.348 454.563 191.624C453.38 190.907 452.174 190.23 450.946 189.595C449.737 188.969 448.488 188.453 447.262 187.858C445.999 187.245 444.751 186.603 443.508 185.95C442.401 185.368 441.31 184.747 440.193 184.188C438.264 183.313 436.41 182.275 434.471 181.421C432.198 180.415 429.275 179.28 426.938 178.464C426.345 180.546 425.096 182.638 424.867 182.948C423.253 185.181 421.416 187.225 419.356 189.056C417.559 190.655 415.59 192.086 413.437 193.168C411.315 194.234 408.969 194.966 406.584 195.055C405.254 195.105 403.879 195.018 402.553 194.905C401.27 194.797 399.997 194.577 398.748 194.26C396.514 193.691 394.36 192.804 392.368 191.643C390.504 190.557 388.873 189.23 387.325 187.735C385.705 186.164 383.934 184.752 382.592 182.909C381.668 181.637 380.88 178.583 380.869 178.567C380.021 179.083 366.304 185.36 360.896 188.658C358.722 189.985 356.532 191.181 354.151 192.105C352.917 192.583 351.689 193.029 350.483 193.588C349.787 193.909 349.097 194.231 348.395 194.539C346.02 195.81 343.64 197.067 341.239 198.284C338.775 199.533 336.247 200.649 333.836 201.999C333.54 202.167 333.251 202.338 332.943 202.476C332.638 202.613 332.323 202.811 332.101 203.065C331.958 203.23 332.054 203.442 332.203 203.514C332.252 203.727 332.359 203.933 332.523 204.099C335.615 216.217 336.843 228.696 338.207 241.103C339.588 253.652 340.957 266.206 342.223 278.765C343.542 291.862 341.903 312.79 341.07 334.825C341.774 335.516 342.566 336.129 343.474 336.646C344.714 337.352 346.272 337.906 347.842 338.313C355.444 337.873 363.002 336.872 370.533 335.722C379.075 334.418 387.604 332.986 396.199 332.065C404.706 331.153 413.229 330.927 421.775 331.304C430.329 331.682 438.739 332.904 447.242 333.767C451.633 334.212 456.083 334.386 460.481 334.863C461.147 321.088 460.603 287.33 460.867 283.847C461.112 280.623 461.373 277.4 461.65 274.178C462.405 265.434 463.443 256.706 465.09 248.087C465.471 246.104 465.884 244.125 466.33 242.153C467.824 237.642 469.389 233.148 470.971 228.654L478.536 207.192C478.549 207.157 478.553 207.126 478.561 207.093C478.779 207.188 479.042 206.964 478.905 206.716Z" fill="#1A1A1A"/>
<path d="M401.085 194.057C400.991 193.903 400.85 193.814 400.679 193.744C396.484 192.004 392.217 190.161 388.731 187.181C386.91 185.624 385.387 183.767 383.851 181.939C382.752 180.63 381.676 179.304 380.667 177.928C380.384 177.943 380.102 177.965 379.823 178.002C379.695 178.081 379.568 178.159 379.44 178.236C378.281 178.941 377.091 179.601 375.907 180.263C373.394 181.671 370.838 183 368.227 184.212C371.805 191.981 375.048 200.462 381.142 206.626C381.504 206.992 382.006 206.995 382.444 206.794C385.817 205.246 389.203 203.682 392.33 201.67C395.652 199.533 398.216 196.723 401.085 194.057Z" fill="black"/>
<path d="M440.593 183.919C440.549 183.703 440.348 183.559 440.164 183.438C438.452 182.321 436.663 181.32 434.815 180.447C432.48 179.342 429.428 178.701 426.938 178.015C424.865 181.743 423.124 185.126 419.914 187.937C416.602 190.836 412.534 192.719 408.45 194.36C408.115 194.495 407.75 194.677 407.474 194.915C407.265 195.096 409.645 197.861 409.992 198.172C411.268 199.32 412.807 200.278 414.235 201.226C417.851 203.626 421.708 205.643 425.614 207.524C426.04 207.732 426.519 207.946 426.972 207.807C427.293 207.709 427.537 207.451 427.76 207.2C433.583 200.68 437.088 192.469 440.494 184.418C440.56 184.258 440.628 184.087 440.593 183.919Z" fill="black"/>
<path d="M407.847 242.666C404.402 242.853 400.953 242.823 397.513 242.591C397.651 232.217 397.822 221.844 398.03 211.471C398.091 208.491 398.153 205.511 398.219 202.532C398.235 201.84 397.16 201.84 397.144 202.532C396.911 213.072 396.715 223.614 396.556 234.156C396.511 237.136 396.468 240.116 396.429 243.097C396.425 243.402 396.68 243.612 396.966 243.634C400.588 243.901 404.22 243.936 407.846 243.74C408.535 243.703 408.54 242.628 407.847 242.666Z" fill="#3B3B3B"/>
<path d="M400.981 217.655C401.777 217.655 402.422 217.009 402.422 216.214C402.422 215.418 401.777 214.773 400.981 214.773C400.185 214.773 399.54 215.418 399.54 216.214C399.54 217.009 400.185 217.655 400.981 217.655Z" fill="#3B3B3B"/>
<path d="M437.169 344.915C437.227 346.289 437.802 347.854 438.446 349.672C440.013 354.116 441.796 358.475 443.729 362.757C443.903 363.294 444.064 363.818 444.224 364.354C442.342 365.122 443.311 368.104 445.353 368.002L445.475 368.378C445.789 369.384 446.95 369.945 447.944 369.619C454.609 367.431 461.158 364.934 467.624 362.207C472.214 360.901 476.794 359.556 481.343 358.129C490.305 355.329 502.145 353.584 506.397 343.916C508.972 338.074 508.284 330.111 508.254 323.823C508.208 316.401 507.681 308.974 506.875 301.6C506.636 296.455 506.24 291.321 505.687 286.199C504.861 278.316 503.653 270.488 502.075 262.705C501.949 262.081 501.224 261.454 500.551 261.837C490.22 267.655 479.292 272.86 467.45 274.501C467.026 273.132 464.966 273.989 465.39 275.358C465.411 275.411 465.433 275.466 465.44 275.519C465.381 275.748 465.386 275.983 465.509 276.203C465.619 276.423 465.73 276.641 465.853 276.86C467.751 282.977 469.622 289.091 471.386 295.249C472.567 299.345 473.695 303.449 474.743 307.586C475.012 312.682 476.561 318.037 477.222 323.13C477.315 323.829 477.402 324.593 477.058 325.227C477.042 325.265 477.026 325.302 476.997 325.326C476.6 325.968 475.84 326.29 475.136 326.579C472.689 327.557 470.239 328.548 467.803 329.527C458.726 333.164 449.693 336.885 440.66 340.604C437.926 341.724 437.094 343.147 437.169 344.915Z" fill="#FFBE9D"/>
<path d="M465.393 275.353C465.414 275.408 465.427 275.462 465.442 275.515C465.378 275.747 465.384 275.982 465.508 276.208C465.627 276.418 465.737 276.64 465.861 276.859C467.747 282.971 469.623 289.093 471.386 295.243C482.815 293.667 497.38 289.045 505.693 286.201C504.861 278.32 503.653 270.484 502.082 262.706C501.956 262.082 501.219 261.454 500.554 261.832C490.218 267.649 479.297 272.858 467.446 274.497C467.026 273.131 464.972 273.995 465.393 275.353Z" fill="#EB996E"/>
<path d="M437.169 344.915L493.056 326.529L487.167 323.597L478.365 325.2L476.998 325.325C476.601 325.967 475.841 326.289 475.137 326.578C472.69 327.555 470.24 328.547 467.804 329.525C458.727 333.162 449.694 336.883 440.662 340.603C437.926 341.724 437.094 343.147 437.169 344.915Z" fill="#EB996E"/>
<path d="M477.378 326.277C477.581 326.349 477.811 326.345 478.022 326.246C478.384 326.077 486.723 322.334 495.548 329.07C495.92 329.354 496.448 329.282 496.731 328.911C497.014 328.541 496.944 328.011 496.572 327.728C486.904 320.346 477.693 324.535 477.305 324.717C476.884 324.915 476.703 325.417 476.901 325.84C476.999 326.053 477.175 326.204 477.378 326.277Z" fill="#D9855F"/>
<path d="M400.981 227.943C400.186 227.943 399.54 227.299 399.54 226.503C399.54 225.707 400.185 225.062 400.981 225.062C401.777 225.062 402.422 225.707 402.422 226.503C402.422 227.298 401.777 227.943 400.981 227.943Z" fill="#3B3B3B"/>
<path d="M400.981 238.37C400.186 238.37 399.54 237.726 399.54 236.929C399.54 236.134 400.185 235.488 400.981 235.488C401.777 235.488 402.422 236.133 402.422 236.929C402.422 237.725 401.777 238.37 400.981 238.37Z" fill="#3B3B3B"/>
<path d="M400.981 208.12C401.777 208.12 402.422 207.474 402.422 206.679C402.422 205.883 401.777 205.238 400.981 205.238C400.185 205.238 399.54 205.883 399.54 206.679C399.54 207.474 400.185 208.12 400.981 208.12Z" fill="#3B3B3B"/>
<path d="M508.778 274.059C508.169 274.39 507.561 274.727 506.952 275.059C503.349 277.01 494.182 280.942 490.35 282.378C486.269 283.916 482.133 285.295 477.986 286.649C477.541 286.795 477.09 286.953 476.643 287.111C475.16 287.486 473.671 287.86 472.188 288.241C469.997 288.795 467.812 289.35 465.623 289.903C465.145 290.023 464.666 289.822 464.406 289.409C463.227 287.555 462.047 285.702 460.868 283.849C459.885 282.305 458.902 280.757 457.917 279.213C457.879 279.191 457.841 279.169 457.809 279.148C453.102 276.316 452.037 270.431 452.265 265.289C453.205 243.593 463.249 223.253 474.944 205.404C475.129 205.117 475.389 204.964 475.661 204.927C475.84 204.508 476.275 204.187 476.732 204.204C476.96 204.215 477.188 204.307 477.401 204.519C481.347 208.465 484.754 212.916 487.624 217.693C498.3 235.476 506.49 253.771 508.778 274.059Z" fill="#1A1A1A"/>
<path d="M332.555 289.024C329.039 287.609 325.524 286.194 322.008 284.778C321.584 284.559 321.16 284.344 320.737 284.14C316.811 282.242 312.896 280.319 309.056 278.251C305.456 276.312 301.804 274.385 298.493 271.971C297.934 271.563 297.379 271.144 296.82 270.733C301.81 250.937 307.471 230.707 320.435 214.516C323.919 210.166 327.896 206.212 332.33 202.834C333.039 202.294 333.82 202.809 334.003 203.468C334.265 203.546 334.502 203.729 334.651 204.041C343.843 223.292 351.068 244.801 349.092 266.427C348.621 271.586 346.755 277.331 341.621 279.464C339.021 282.542 336.423 285.62 333.824 288.698C333.509 289.069 333.011 289.206 332.555 289.024Z" fill="#1A1A1A"/>
<path d="M345.486 256.928C344.688 252.681 343.79 248.454 342.798 244.249C342.735 243.978 342.576 243.813 342.384 243.73C342.392 243.307 342.396 242.884 342.405 242.461C342.424 241.412 340.794 241.412 340.775 242.461C340.506 256.94 340.399 271.423 340.455 285.904C340.47 289.977 340.499 294.049 340.541 298.123C340.55 298.957 341.624 299.197 342.06 298.534C350.194 286.181 348.06 270.633 345.486 256.928Z" fill="black"/>
<path d="M342.831 241.838C342.316 240.574 340.236 241.127 340.758 242.41C346.15 255.653 345.869 270.152 345.521 284.197C345.488 285.58 347.637 285.579 347.67 284.197C348.024 269.98 348.288 255.244 342.831 241.838Z" fill="#232323"/>
<path d="M472.186 288.241C469.996 288.795 467.811 289.35 465.622 289.903C465.144 290.023 464.665 289.822 464.405 289.409C463.225 287.555 462.046 285.702 460.867 283.849C460.595 287.435 460.34 291.028 460.101 294.614C459.525 294.506 458.948 294.381 458.372 294.245C458.013 294.158 457.796 293.81 457.775 293.458C457.563 289.724 457.536 285.98 457.666 282.241C457.704 281.209 457.748 280.182 457.807 279.149C458.492 266.992 460.639 254.971 462.78 242.998C462.797 242.895 462.829 242.814 462.873 242.738C462.867 242.694 462.862 242.65 462.856 242.602C462.742 241.558 464.372 241.57 464.486 242.602C464.688 244.434 464.888 246.261 465.089 248.091C465.296 249.944 465.508 251.792 465.73 253.64C467.128 265.296 468.915 276.953 472.186 288.241Z" fill="black"/>
<path d="M462.435 242.236C458.662 255.448 456.448 269.07 455.828 282.796C455.766 284.179 457.915 284.177 457.977 282.796C458.589 269.256 460.785 255.841 464.507 242.808C464.889 241.475 462.816 240.906 462.435 242.236Z" fill="#232323"/>
<path d="M359.298 347.162L304.204 323.344L310.457 320.907L319.252 323.344L320.631 323.596C320.975 324.285 321.717 324.682 322.406 325.04C324.803 326.259 327.201 327.49 329.586 328.71C338.474 333.241 347.31 337.85 356.146 342.46C358.821 343.85 359.537 345.373 359.298 347.162Z" fill="#EB996E"/>
<path d="M320.156 324.529C319.944 324.584 319.71 324.559 319.505 324.44C319.152 324.235 311.023 319.665 301.439 325.698C301.035 325.952 300.505 325.83 300.251 325.429C299.997 325.026 300.118 324.494 300.522 324.24C311.023 317.629 319.998 322.732 320.375 322.953C320.785 323.193 320.923 323.72 320.683 324.131C320.562 324.336 320.37 324.473 320.156 324.529Z" fill="#D9855F"/>
<path d="M381.269 524.582C380.768 525.056 361.812 546.775 361.812 546.775L375.833 561.604L399.753 544.129L381.269 524.582Z" fill="#FFBE9D"/>
<path d="M359.703 587.074L359.662 587.113C359.531 587.222 359.408 587.321 359.277 587.414C358.378 588.093 357.375 588.73 356.304 589.291C356.198 589.344 356.084 589.405 355.979 589.458C352.366 591.302 348.041 592.293 344.316 590.956C338.952 589.053 334.45 584.029 332.452 578.803C331.416 576.061 330.949 573.047 331.574 570.184C332.06 567.981 333.165 565.97 334.598 564.211C334.805 563.952 335.012 563.709 335.236 563.468C335.599 563.046 335.995 562.641 336.398 562.261C336.933 561.755 337.482 561.283 338.055 560.834C338.153 560.741 338.26 560.655 338.366 560.571C340.135 559.164 342.066 557.946 343.98 556.711C350.678 552.433 357.404 547.988 362.623 541.996C363.401 541.105 364.438 540.078 365.572 540.422C366.454 540.678 366.898 541.675 367.065 542.577C367.239 543.486 367.276 544.464 367.808 545.222C368.415 546.096 369.509 546.447 370.482 546.881C373.841 548.393 376.351 551.624 377.067 555.229C377.257 556.155 377.975 556.847 378.907 556.994C379.767 557.129 381.046 556.933 381.644 557.534C382.875 558.752 379.734 562.002 379.125 562.609C375.437 566.234 372.681 570.679 369.846 575.01C369.771 575.127 369.687 575.254 369.612 575.371C366.794 579.655 363.745 583.923 359.703 587.074Z" fill="#3D3D3D"/>
<path d="M359.704 587.074L359.662 587.113C359.531 587.222 359.408 587.321 359.277 587.414C358.378 588.093 357.376 588.73 356.304 589.292C356.199 589.344 356.085 589.406 355.979 589.458C347.791 588.901 342.031 582.28 337.665 575.885C336.535 574.228 335.52 572.448 335.064 570.481C334.612 568.588 334.747 566.623 335.024 564.726C335.093 564.304 335.152 563.89 335.236 563.468C335.599 563.046 335.995 562.641 336.398 562.261C336.933 561.755 337.482 561.283 338.055 560.834C337.364 563.247 336.958 565.733 337.027 568.129C337.111 570.556 338.204 572.652 339.525 574.625C340.97 576.762 342.552 578.831 344.3 580.729C347.515 584.228 351.614 587.032 356.498 587.225C357.569 587.271 358.652 587.213 359.704 587.074Z" fill="white"/>
<path d="M362.825 572.346C362.753 572.27 362.69 572.183 362.64 572.084C359.15 565.268 353.192 561.304 353.133 561.265C352.611 560.921 352.465 560.221 352.806 559.699C353.149 559.176 353.849 559.03 354.372 559.372C354.636 559.544 360.879 563.684 364.654 571.053C364.939 571.609 364.719 572.291 364.163 572.575C363.705 572.81 363.161 572.702 362.825 572.346Z" fill="white"/>
<path d="M366.693 568.689C366.622 568.613 366.559 568.526 366.509 568.427C363.018 561.611 357.061 557.647 357.002 557.608C356.479 557.264 356.334 556.564 356.675 556.042C357.017 555.519 357.718 555.373 358.24 555.715C358.504 555.887 364.748 560.027 368.522 567.396C368.808 567.952 368.587 568.633 368.031 568.918C367.573 569.153 367.03 569.045 366.693 568.689Z" fill="white"/>
<path d="M469.299 389.986L463.895 408.995C448.347 403.753 435.495 390.376 420.512 383.454C419.597 383.028 418.682 382.626 417.753 382.238C412.011 386.025 406.168 389.648 400.274 393.197C395.447 396.093 390.607 398.463 385.516 400.82C381.654 402.613 377.754 404.343 373.83 405.986C371.059 407.152 368.275 408.281 365.479 409.372C362.985 410.337 360.376 411.666 357.668 411.854C354.772 412.067 352.553 410.851 350.07 409.647C349.781 409.509 349.48 409.37 349.193 409.233L338.799 390.99C338.799 390.99 371.976 369.411 408.977 365.85C412.299 365.536 415.66 365.361 419.021 365.361C419.021 365.361 419.459 365.423 420.249 365.562C426.442 366.702 454.591 372.645 469.299 389.986Z" fill="#434343"/>
<path d="M370.562 565.032C370.49 564.956 370.428 564.868 370.377 564.77C366.887 557.953 360.93 553.99 360.87 553.951C360.348 553.607 360.202 552.907 360.544 552.384C360.886 551.862 361.586 551.715 362.109 552.058C362.373 552.23 368.616 556.369 372.391 563.738C372.676 564.294 372.456 564.977 371.9 565.261C371.441 565.495 370.899 565.387 370.562 565.032Z" fill="white"/>
<path d="M399.021 537.482C399.521 538.028 422.492 558.729 422.492 558.729L438.637 543.945L420.303 517.992L399.021 537.482Z" fill="#FFBE9D"/>
<path d="M465.679 561.678L465.72 561.723C465.834 561.865 465.939 561.998 466.037 562.14C466.751 563.117 467.415 564.202 468 565.362C468.055 565.476 468.119 565.599 468.174 565.713C470.089 569.62 471.079 574.276 469.581 578.247C467.449 583.968 461.983 588.71 456.344 590.764C453.386 591.828 450.145 592.278 447.084 591.559C444.729 591.001 442.593 589.781 440.73 588.213C440.456 587.986 440.2 587.76 439.945 587.517C439.498 587.12 439.071 586.689 438.669 586.251C438.137 585.669 437.639 585.072 437.168 584.45C437.07 584.342 436.98 584.226 436.891 584.111C435.412 582.19 434.137 580.099 432.846 578.024C428.372 570.766 423.72 563.476 417.382 557.777C416.44 556.928 415.356 555.798 415.744 554.587C416.034 553.646 417.111 553.187 418.08 553.023C419.058 552.851 420.107 552.829 420.931 552.273C421.878 551.636 422.273 550.468 422.756 549.432C424.435 545.856 427.943 543.219 431.823 542.513C432.818 542.325 433.573 541.567 433.746 540.571C433.906 539.65 433.718 538.276 434.372 537.643C435.7 536.344 439.131 539.767 439.772 540.431C443.598 544.447 448.318 547.48 452.914 550.595C453.039 550.677 453.173 550.769 453.298 550.852C457.841 553.946 462.367 557.29 465.679 561.678Z" fill="#3D3D3D"/>
<path d="M465.679 561.678L465.72 561.722C465.834 561.865 465.939 561.998 466.037 562.14C466.75 563.116 467.415 564.202 468 565.362C468.055 565.476 468.119 565.599 468.174 565.713C467.436 574.485 460.237 580.551 453.302 585.124C451.507 586.308 449.579 587.365 447.464 587.821C445.425 588.273 443.32 588.095 441.29 587.765C440.838 587.685 440.395 587.614 439.943 587.517C439.497 587.12 439.07 586.689 438.668 586.251C438.136 585.669 437.638 585.071 437.167 584.449C439.743 585.233 442.402 585.71 444.972 585.677C447.577 585.628 449.843 584.491 451.982 583.108C454.299 581.595 456.545 579.933 458.609 578.091C462.418 574.702 465.494 570.353 465.785 565.119C465.852 563.971 465.81 562.809 465.679 561.678Z" fill="white"/>
<path d="M449.935 558.079C449.852 558.155 449.757 558.221 449.651 558.272C442.28 561.9 437.927 568.221 437.885 568.284C437.508 568.839 436.754 568.982 436.199 568.607C435.645 568.231 435.5 567.477 435.876 566.922C436.066 566.643 440.611 560.016 448.579 556.094C449.181 555.798 449.908 556.046 450.203 556.647C450.447 557.144 450.323 557.724 449.935 558.079Z" fill="white"/>
<path d="M446.079 553.868C445.996 553.944 445.901 554.01 445.795 554.061C438.424 557.69 434.071 564.01 434.029 564.073C433.652 564.628 432.898 564.771 432.343 564.396C431.789 564.02 431.644 563.266 432.02 562.712C432.21 562.432 436.755 555.806 444.723 551.883C445.325 551.587 446.052 551.835 446.347 552.436C446.591 552.933 446.467 553.513 446.079 553.868Z" fill="white"/>
<path d="M442.222 549.657C442.139 549.733 442.044 549.799 441.938 549.851C434.568 553.479 430.215 559.8 430.172 559.862C429.795 560.417 429.041 560.56 428.486 560.185C427.933 559.81 427.787 559.056 428.163 558.501C428.353 558.221 432.899 551.595 440.866 547.672C441.468 547.376 442.195 547.624 442.491 548.225C442.734 548.721 442.609 549.301 442.222 549.657Z" fill="white"/>
<path d="M404.582 550.317C406.523 550.158 407.892 548.898 409.399 547.77C411.049 546.535 412.655 545.243 414.216 543.897C417.626 540.957 420.877 537.836 424.014 534.606C425.583 532.989 427.125 531.346 428.644 529.681C429.374 528.881 430.099 528.077 430.819 527.269C431.712 526.269 431.875 526.131 431.166 524.937C427.497 518.762 423.425 512.877 419.573 506.822C414.788 499.299 409.647 492 404.66 484.607C399.932 477.601 395.15 470.661 390.525 463.586C380.924 448.901 371.426 434.147 362.03 419.328C359.021 414.582 355.941 409.913 352.86 405.22C345.977 394.735 338.549 384.377 326.278 379.971C318.642 377.229 310.126 376.934 302.271 379.017C300.492 379.289 298.73 379.663 297.004 380.174C294.351 380.96 291.244 381.841 289.502 384.148C287.191 386.619 289.057 391.155 289.85 393.911C290.929 397.663 292.175 401.367 293.559 405.017C296.327 412.319 299.659 419.4 303.356 426.276C310.907 440.317 319.613 453.729 329.245 466.43C339.062 479.374 350.15 491.028 361.049 503.034C371.899 514.985 381.936 527.642 393.094 539.348C393.131 539.387 393.169 539.427 393.206 539.467C393.59 539.869 393.983 540.263 394.367 540.665C396.081 542.456 397.861 544.182 399.634 545.913C400.487 546.744 401.312 547.614 402.186 548.421C402.527 548.736 404.062 550.404 404.44 550.342C404.492 550.335 404.534 550.322 404.582 550.317Z" fill="#515151"/>
<path d="M519.654 367.831C518.013 366.067 516.032 364.659 513.728 364.017C509.784 362.92 505.583 364.218 501.835 365.866C482.29 374.457 468.443 392.037 455.307 408.867C427.051 445.071 398.14 481.053 375.541 521.034C374.849 522.259 374.141 523.583 374.255 524.985C374.359 526.267 375.134 527.382 375.883 528.428C381.034 535.625 387.392 543.723 392.638 550.992C392.996 551.487 393.682 551.613 394.19 551.271C402.765 545.524 409.558 537.542 416.535 530.129C419.572 526.902 436.629 506.894 442.702 500.44C443.536 500.44 446.271 496.648 446.916 495.962L452.454 490.078C455.198 487.016 460.182 481.455 462.927 478.393C464.644 476.475 466.995 474.628 468.497 473.033C471.028 470.344 473.559 467.654 476.091 464.965C480.996 459.753 485.902 454.54 490.808 449.328C502.686 436.708 514.789 423.754 521.758 407.886C526.893 396.194 528.797 381.942 522.097 371.072C521.391 369.926 520.576 368.822 519.654 367.831Z" fill="#515151"/>
<path d="M417.606 370.965C416.913 370.965 416.352 370.404 416.352 369.711V334.255C416.352 333.563 416.913 333.001 417.606 333.001C418.298 333.001 418.86 333.563 418.86 334.255V369.711C418.859 370.404 418.298 370.965 417.606 370.965Z" fill="#5A4699"/>
<path d="M343.53 389.985C343.121 389.985 342.719 389.785 342.478 389.416C342.1 388.835 342.264 388.059 342.843 387.68C343.138 387.488 372.818 368.372 408.579 365.605C409.269 365.551 409.872 366.068 409.926 366.758C409.979 367.448 409.462 368.051 408.772 368.105C373.643 370.823 344.503 389.591 344.214 389.78C344.002 389.919 343.765 389.985 343.53 389.985Z" fill="#5A4699"/>
<path d="M355.932 411.778C355.331 411.778 354.741 411.49 354.376 410.957C332.503 378.897 317.56 382.756 317.412 382.798C316.425 383.081 315.377 382.525 315.078 381.541C314.781 380.556 315.314 379.519 316.294 379.207C316.998 378.983 333.797 374.123 357.483 408.837C358.068 409.695 357.847 410.865 356.988 411.45C356.666 411.672 356.297 411.777 355.932 411.778Z" fill="#313232"/>
<path d="M466.843 389.304C466.484 389.304 466.126 389.149 465.879 388.852C451.273 371.289 420.402 366.815 420.091 366.772C419.405 366.677 418.926 366.044 419.021 365.358C419.116 364.673 419.756 364.191 420.435 364.289C421.741 364.47 452.573 368.932 467.808 387.249C468.251 387.781 468.178 388.572 467.646 389.014C467.411 389.209 467.127 389.304 466.843 389.304Z" fill="#5A4699"/>
<path d="M455.811 409.543C455.48 409.543 455.145 409.455 454.84 409.272C453.951 408.735 453.666 407.579 454.204 406.69C454.685 405.893 466.19 387.035 483.868 374.134C484.706 373.521 485.884 373.705 486.496 374.544C487.109 375.383 486.924 376.56 486.085 377.172C469.035 389.615 457.538 408.446 457.423 408.635C457.069 409.219 456.448 409.543 455.811 409.543Z" fill="#313232"/>
<path d="M394.245 130.334C392.988 130.315 391.754 130.592 390.528 130.881C390.439 130.905 390.347 130.924 390.258 130.943C390.138 130.974 390.023 131.001 389.903 131.028C389.313 131.163 388.715 131.294 388.117 131.375C387.381 131.483 386.644 131.525 385.912 131.445C385.788 131.433 385.661 131.414 385.538 131.394C384.088 131.155 382.811 130.014 382.267 128.649C383.313 129.05 384.273 129.397 385.399 129.324C386.259 129.27 387.126 129.131 387.975 129C388.816 128.869 389.672 128.741 390.52 128.714C391.044 128.695 391.561 128.714 392.078 128.788C392.541 128.853 393.393 128.942 393.79 129.2C393.941 129.296 394.566 130.338 394.245 130.334Z" fill="white"/>
<path d="M390.752 129.805C390.752 130.187 390.675 130.554 390.528 130.881C390.439 130.905 390.347 130.924 390.258 130.943C390.138 130.974 390.023 131.001 389.903 131.028C389.313 131.163 388.715 131.294 388.118 131.375C387.381 131.483 386.644 131.525 385.912 131.444C385.557 130.989 385.353 130.422 385.353 129.805C385.353 129.64 385.368 129.478 385.399 129.324C386.259 129.27 387.127 129.131 387.975 129C388.816 128.869 389.672 128.741 390.52 128.714C390.671 129.046 390.752 129.416 390.752 129.805Z" fill="#1A0400"/>
<path d="M390.393 130.608C390.366 130.723 390.319 130.835 390.258 130.943C390.138 130.974 390.023 131.001 389.903 131.028C389.313 131.163 388.715 131.294 388.117 131.375C387.666 131.028 387.462 130.45 387.971 129.925C388.264 129.624 388.688 129.497 389.101 129.432C389.448 129.374 389.837 129.37 390.111 129.586C390.408 129.813 390.485 130.245 390.393 130.608Z" fill="black"/>
<path d="M387.61 129.598C387.493 129.772 387.546 130.036 387.72 130.154C387.893 130.271 388.156 130.225 388.28 130.056C388.61 129.605 387.901 129.164 387.61 129.598Z" fill="white"/>
<path d="M387.418 130.692C387.393 130.692 387.367 130.687 387.342 130.676C386.965 130.514 386.549 130.426 386.14 130.42C386.033 130.418 385.948 130.331 385.95 130.224C385.952 130.118 386.033 130.029 386.145 130.034C386.605 130.041 387.072 130.14 387.494 130.322C387.592 130.364 387.637 130.477 387.595 130.575C387.564 130.648 387.493 130.692 387.418 130.692Z" fill="white"/>
<path d="M394.292 129.658C393.467 128.997 392.44 128.892 391.458 128.907C390.459 128.94 389.459 129.095 388.442 129.253C387.932 129.322 387.42 129.406 386.897 129.455C386.364 129.501 385.831 129.519 385.301 129.475C384.246 129.4 383.186 129.155 382.268 128.649C383.29 128.858 384.303 128.921 385.311 128.883C385.814 128.858 386.314 128.818 386.807 128.739L388.327 128.493C389.35 128.341 390.407 128.212 391.476 128.302C392.012 128.346 392.549 128.457 393.051 128.667C393.547 128.883 394.011 129.211 394.292 129.658Z" fill="black"/>
<path d="M423.495 128.628C422.661 129.978 420.888 131.016 419.281 131.223C418.787 131.291 418.285 131.31 417.798 131.291C417.7 131.287 417.602 131.284 417.508 131.272C416.814 131.231 416.127 131.133 415.441 131.02C415.196 130.982 414.947 130.94 414.702 130.899C414.366 130.842 414.027 130.786 413.691 130.737C413.087 130.65 411.341 130.884 411.654 129.997C411.993 129.05 413.272 128.779 414.641 128.749C416.022 128.718 417.493 128.926 418.176 128.934C418.647 128.937 419.123 128.945 419.594 128.949C420.82 128.964 422.272 128.617 423.495 128.628Z" fill="white"/>
<path d="M419.723 129.76C419.723 130.303 419.56 130.805 419.281 131.223C418.787 131.291 418.285 131.31 417.799 131.291C417.7 131.288 417.602 131.284 417.508 131.272C416.814 131.231 416.127 131.133 415.441 131.02C415.196 130.982 414.947 130.94 414.702 130.899C414.532 130.556 414.441 130.171 414.441 129.76C414.441 129.401 414.513 129.062 414.641 128.749C416.022 128.719 417.493 128.926 418.176 128.934C418.648 128.937 419.123 128.945 419.594 128.949C419.677 129.201 419.723 129.477 419.723 129.76Z" fill="#1A0400"/>
<path d="M417.908 130.393C417.934 130.642 417.836 130.891 417.682 131.091C417.629 131.159 417.572 131.223 417.508 131.272C416.814 131.231 416.127 131.132 415.441 131.019C415.32 130.842 415.237 130.638 415.211 130.423C415.064 129.235 416.456 129.243 417.225 129.571C417.323 129.613 417.418 129.665 417.501 129.733C417.599 129.805 417.685 129.892 417.749 129.99C417.836 130.111 417.893 130.246 417.908 130.393Z" fill="black"/>
<path d="M415.629 129.516C415.673 129.626 415.8 129.677 415.915 129.702C416.029 129.728 416.161 129.738 416.249 129.662C416.431 129.508 416.263 129.217 416.066 129.18C415.874 129.143 415.528 129.264 415.629 129.516Z" fill="white"/>
<path d="M418.413 130.274C418.339 130.274 418.269 130.23 418.239 130.157C418.199 130.061 418.245 129.951 418.341 129.911L419.151 129.575C419.246 129.535 419.357 129.581 419.397 129.677C419.437 129.773 419.391 129.884 419.295 129.924L418.486 130.26C418.462 130.269 418.438 130.274 418.413 130.274Z" fill="white"/>
<path d="M411.495 130.104C411.648 129.591 412.066 129.171 412.541 128.895C412.783 128.762 413.043 128.652 413.314 128.584C413.583 128.517 413.845 128.483 414.108 128.445C414.633 128.375 415.156 128.322 415.683 128.297C416.201 128.266 416.765 128.265 417.271 128.292L420.371 128.404C421.406 128.455 422.447 128.491 423.495 128.628C422.463 128.857 421.424 128.975 420.377 129.046C419.331 129.103 418.279 129.099 417.235 129.023C416.976 129.011 416.705 128.978 416.466 128.968C416.216 128.957 415.959 128.956 415.703 128.957C415.19 128.965 414.674 128.971 414.162 129.002C413.645 129.039 413.161 129.066 412.7 129.235C412.236 129.395 411.803 129.674 411.495 130.104Z" fill="black"/>
<path d="M422.794 81.6358C421.43 79.8526 419.225 79.0091 417.158 78.311C414.802 77.5156 412.316 77.0546 409.829 77.0043C405.394 76.9148 400.99 78.2248 397.473 80.9579C395.614 82.4022 394.064 84.21 392.97 86.2976C392.595 87.0113 393.677 87.6457 394.053 86.9297C396.356 82.5431 400.735 79.593 405.547 78.6231C408.367 78.0548 411.312 78.1588 414.116 78.7685C415.491 79.0672 416.841 79.4845 418.147 80.0058C419.439 80.5216 420.845 81.1313 421.714 82.2679C422.195 82.9 423.284 82.2769 422.794 81.6358Z" fill="#1E1D1F"/>
<path d="M467.121 388.619H340.976C336.455 388.619 332.791 384.954 332.791 380.434L329.643 304.382C329.643 299.861 333.308 296.197 337.828 296.197H470.268C474.789 296.197 478.452 299.862 478.452 304.382L475.304 380.434C475.307 384.954 471.642 388.619 467.121 388.619Z" fill="white"/>
<path d="M407.946 349.806C412.015 348.121 413.947 343.456 412.261 339.388C410.576 335.32 405.912 333.388 401.844 335.073C397.775 336.758 395.843 341.422 397.528 345.491C399.214 349.559 403.878 351.491 407.946 349.806Z" fill="#C2C2C2"/>
<path d="M478.454 304.382L475.305 380.431C475.305 384.952 471.641 388.616 467.121 388.616H340.977C337.587 388.616 334.677 386.553 333.436 383.616H457.018C461.539 383.616 465.203 379.952 465.203 375.431L468.348 299.382C468.348 298.251 468.117 297.177 467.705 296.197H470.269C474.789 296.197 478.454 299.862 478.454 304.382Z" fill="#C2C2C2"/>
<path d="M376.465 521.201C376.182 521.201 375.894 521.134 375.625 520.991C374.747 520.526 374.414 519.438 374.878 518.561C376.754 515.021 398.322 481.57 399.238 480.148C399.775 479.315 400.888 479.073 401.723 479.612C402.556 480.15 402.797 481.262 402.259 482.097C394.518 494.1 379.498 517.52 378.054 520.244C377.733 520.854 377.11 521.201 376.465 521.201Z" fill="#313232"/>
<path d="M390.375 139.478C386.081 139.478 381.204 137.731 378.56 133.495C377.029 131.043 376.423 127.791 376.854 124.34C376.962 123.464 377.064 122.852 377.468 122.34C378.825 120.621 382.047 120.457 384.178 120.348C384.378 120.338 384.566 120.328 384.738 120.318C387.429 120.155 390.129 120.379 392.764 120.979C396.075 121.735 399.828 122.59 400.565 127.219C401.05 130.265 400.511 133.288 399.09 135.513C397.699 137.688 395.586 138.903 392.439 139.338C391.775 139.431 391.083 139.478 390.375 139.478ZM386.445 121.599C385.903 121.599 385.362 121.616 384.82 121.648C384.645 121.658 384.452 121.669 384.247 121.68C382.471 121.77 379.496 121.922 378.513 123.166C378.339 123.386 378.266 123.773 378.175 124.506C377.782 127.655 378.32 130.597 379.69 132.791C382.454 137.221 387.993 138.609 392.259 138.021C395.029 137.638 396.791 136.644 397.971 134.798C399.219 132.844 399.687 130.157 399.253 127.43C398.697 123.942 396.32 123.158 392.47 122.279C390.488 121.826 388.467 121.599 386.445 121.599Z" fill="white"/>
<path d="M415.839 139.478C415.13 139.478 414.438 139.431 413.774 139.338C410.626 138.903 408.513 137.688 407.123 135.513C405.7 133.288 405.162 130.264 405.648 127.219C406.385 122.59 410.137 121.735 413.449 120.979C416.084 120.379 418.785 120.156 421.473 120.318C421.646 120.328 421.833 120.338 422.034 120.348C424.166 120.457 427.388 120.621 428.744 122.34C429.148 122.851 429.25 123.463 429.359 124.339C429.789 127.791 429.184 131.042 427.653 133.494C425.01 137.731 420.133 139.478 415.839 139.478ZM419.769 121.599C417.746 121.599 415.725 121.826 413.743 122.278C409.893 123.156 407.516 123.941 406.961 127.429C406.527 130.156 406.993 132.842 408.243 134.797C409.423 136.644 411.184 137.637 413.954 138.02C418.217 138.609 423.759 137.22 426.524 132.791C427.893 130.597 428.431 127.655 428.039 124.506C427.947 123.773 427.873 123.386 427.7 123.166C426.717 121.921 423.743 121.77 421.965 121.68C421.76 121.67 421.568 121.66 421.392 121.648C420.852 121.615 420.311 121.599 419.769 121.599Z" fill="white"/>
<path d="M406.385 127.559H400.075C399.708 127.559 399.41 127.261 399.41 126.893C399.41 126.525 399.707 126.227 400.075 126.227H406.385C406.752 126.227 407.05 126.525 407.05 126.893C407.05 127.26 406.753 127.559 406.385 127.559Z" fill="white"/>
<path d="M378.037 123.55C377.732 123.55 377.438 123.38 377.288 123.084C376.946 122.412 374.376 122.307 372.304 122.66C371.844 122.737 371.408 122.419 371.332 121.946C371.254 121.474 371.565 121.026 372.026 120.948C373.337 120.723 377.707 120.155 378.786 122.282C379 122.707 378.84 123.23 378.427 123.452C378.302 123.519 378.168 123.55 378.037 123.55Z" fill="white"/>
<path d="M427.72 122.943C428.015 123.079 428.373 123.05 428.648 122.838C429.268 122.358 431.798 123.405 433.647 124.661C434.059 124.939 434.617 124.835 434.896 124.423C435.174 124.012 435.068 123.454 434.657 123.174C433.488 122.378 429.512 119.896 427.548 121.416C427.155 121.719 427.082 122.284 427.387 122.676C427.478 122.795 427.594 122.885 427.72 122.943Z" fill="white"/>
<path d="M368.323 124.383C368.353 124.327 368.382 124.271 368.413 124.215C369.215 122.778 370.634 121.712 372.181 122.419C373.59 123.062 374.409 125.423 374.914 126.952C376.242 130.98 377.192 135.098 377.598 139.33C377.701 140.401 378.236 142.885 377.197 143.506C376.863 143.706 376.448 143.493 376.081 143.3C371.404 140.852 368.161 135.173 367.643 129.374C367.491 127.666 367.584 125.829 368.323 124.383Z" fill="#FFBE9D"/>
<path d="M374.142 129.918C374.191 129.92 374.24 129.909 374.286 129.881C374.444 129.788 374.502 129.547 374.416 129.342C374.371 129.238 373.314 126.781 371.546 126.211C370.583 125.9 369.614 126.207 368.664 127.126C368.526 127.259 368.509 127.514 368.627 127.695C368.744 127.877 368.95 127.918 369.087 127.785C369.88 127.019 370.666 126.755 371.426 126.999C372.887 127.469 373.834 129.658 373.843 129.681C373.904 129.824 374.022 129.912 374.142 129.918Z" fill="#D9855F"/>
<path d="M438.463 123.821C438.424 123.768 438.384 123.716 438.343 123.664C437.263 122.321 435.549 121.411 433.934 122.278C432.461 123.068 431.874 125.504 431.523 127.079C430.598 131.227 430.102 135.426 430.223 139.679C430.253 140.755 429.996 143.285 431.229 143.791C431.625 143.955 432.055 143.699 432.436 143.468C437.278 140.535 440.098 134.54 439.89 128.715C439.826 127 439.476 125.182 438.463 123.821Z" fill="#FFBE9D"/>
<path d="M432.776 129.947C432.722 129.955 432.665 129.948 432.611 129.926C432.423 129.85 432.327 129.616 432.395 129.403C432.43 129.295 433.269 126.739 435.146 125.982C436.169 125.571 437.283 125.773 438.458 126.585C438.628 126.703 438.68 126.955 438.575 127.148C438.47 127.342 438.247 127.403 438.077 127.286C437.098 126.609 436.192 126.429 435.386 126.752C433.833 127.374 433.081 129.654 433.073 129.676C433.025 129.83 432.906 129.929 432.776 129.947Z" fill="#D9855F"/>
<path d="M413.358 151.758C414.123 151.715 414.697 151.351 414.994 151.758C415.54 152.406 410.206 155.01 403.653 155C397.104 154.988 393.191 153.723 394.528 152.561C394.631 152.455 395.087 152.386 395.509 152.411C401.152 152.75 407.575 152.078 413.358 151.758Z" fill="#B65B32"/>
<defs>
<linearGradient id="paint0_linear_14_2478" x1="417" y1="8" x2="417" y2="417.5" gradientUnits="userSpaceOnUse">
<stop stop-color="#DDEA93"/>
<stop offset="1" stop-color="white"/>
</linearGradient>
<clipPath id="clip0_14_2478">
<rect width="70" height="70" fill="white" transform="translate(507 73)"/>
</clipPath>
<clipPath id="clip1_14_2478">
<rect width="64" height="64" fill="white" transform="translate(614 143)"/>
</clipPath>
<clipPath id="clip2_14_2478">
<rect width="70" height="70" fill="white" transform="translate(681 234)"/>
</clipPath>
</defs>
</svg>
