<svg width="212" height="99" viewBox="0 0 212 99" fill="none" xmlns="http://www.w3.org/2000/svg">
<mask id="mask0_0_289" style="mask-type:alpha" maskUnits="userSpaceOnUse" x="0" y="0" width="212" height="99">
<rect x="0.34956" y="-0.34956" width="211.259" height="98.2147" rx="16.4293" transform="matrix(1 0 0 -1 -3.05176e-05 98.2149)" stroke="url(#paint0_linear_0_289)" stroke-width="0.69912"/>
</mask>
<g mask="url(#mask0_0_289)">
</g>
<g clip-path="url(#clip0_0_289)">
<path fill-rule="evenodd" clip-rule="evenodd" d="M46.2309 57.5064C51.7606 57.5064 56.2432 53.0278 56.2432 47.5033C56.2432 41.9787 51.7606 37.5002 46.2309 37.5002C40.7012 37.5002 36.2185 41.9787 36.2185 47.5033C36.2185 53.0278 40.7012 57.5064 46.2309 57.5064ZM49.3788 44.6724C49.2964 45.089 49.1403 45.4875 48.9179 45.8494C48.5538 46.4125 48.0266 46.8514 47.4065 47.1077C46.8228 47.3227 46.1919 47.3768 45.58 47.2641C45.0935 47.1455 44.6366 46.9281 44.2379 46.6254C43.8229 46.2702 43.4943 45.8254 43.277 45.3245C43.1322 44.9312 43.0593 44.5152 43.0615 44.0961C43.0652 43.6696 43.1567 43.2483 43.3303 42.8586C43.5039 42.4689 43.7559 42.119 44.0706 41.8307C44.3854 41.5356 44.7576 41.3082 45.164 41.1628C45.5704 41.0173 46.0024 40.9568 46.4332 40.9851C46.765 41.0117 47.0921 41.0804 47.4065 41.1897C47.7678 41.3502 48.102 41.5655 48.3974 41.8281C48.5737 42.0075 48.7391 42.1972 48.8928 42.3962C49.12 42.7662 49.2793 43.1737 49.3632 43.5995C49.4176 43.9556 49.4229 44.3175 49.3788 44.675V44.6724ZM51.4546 51.6483C51.6369 51.4628 51.7417 51.2149 51.7475 50.955V50.9543C51.7348 50.8746 51.7212 50.7963 51.7023 50.7185C51.5917 50.2875 51.4334 49.8702 51.2303 49.4742C51.0049 49.0876 50.7483 48.72 50.463 48.375C50.4249 48.3365 50.3875 48.2973 50.35 48.2582C50.2724 48.1769 50.1947 48.0957 50.1115 48.0208C49.8892 47.7543 49.583 47.5709 49.243 47.5005C49.0195 47.5143 48.8048 47.5922 48.6245 47.7249C47.9266 48.2147 47.0912 48.4706 46.2384 48.4557C45.7412 48.4688 45.2465 48.3818 44.7837 48.1997C44.4603 48.0986 44.1554 47.9463 43.8804 47.7486C43.7567 47.6554 43.6198 47.5811 43.4741 47.5285C43.3507 47.5 43.2226 47.4992 43.0988 47.5259C42.975 47.5526 42.8587 47.6062 42.758 47.6829C42.4215 47.942 42.1167 48.2397 41.8498 48.5698C41.4751 49.0422 41.1708 49.5664 40.9465 50.126C40.9316 50.1723 40.9169 50.2187 40.9022 50.2651C40.86 50.3982 40.8178 50.5313 40.7717 50.6632C40.7017 50.8432 40.6962 51.0417 40.756 51.2252C40.8592 51.442 40.9951 51.6416 41.159 51.8171C41.4497 52.0994 41.745 52.3775 42.0607 52.6302C42.4847 52.9353 42.9349 53.2023 43.4061 53.4279C44.1084 53.7323 44.8537 53.9261 45.6154 54.0023C46.2163 54.0506 46.821 54.0245 47.4155 53.9245C47.957 53.8262 48.4866 53.6707 48.9953 53.4608C49.0405 53.4374 49.0858 53.4139 49.1326 53.3922C50.019 52.9776 50.8096 52.3838 51.4546 51.6483Z" fill="#838383"/>
<path d="M52.8751 55.3777L57.7517 60.7435" stroke="#838383" stroke-width="2.51081" stroke-miterlimit="10" stroke-linecap="round"/>
<path d="M30.7092 40.9814V32.861H38.8342" stroke="#838383" stroke-width="2.51081" stroke-linecap="round" stroke-linejoin="round"/>
<path d="M38.8342 65.3827H30.7092V57.2652" stroke="#838383" stroke-width="2.51081" stroke-linecap="round" stroke-linejoin="round"/>
<path d="M63.2613 57.2652V65.3827H55.1334" stroke="#838383" stroke-width="2.51081" stroke-linecap="round" stroke-linejoin="round"/>
<path d="M55.1334 32.8611H63.2613V40.9816" stroke="#838383" stroke-width="2.51081" stroke-linecap="round" stroke-linejoin="round"/>
<g opacity="0.8">
<path d="M132.216 64.5854V61.4051H129.338V64.5854H128.438V58.0046H129.338V60.6411H132.216V58.0046H133.116V64.5854H132.216Z" fill="#838383"/>
<path d="M135.087 64.5845V60.4922H134.427V59.7735H135.942V64.5848L135.087 64.5845ZM135.555 57.9536C135.659 57.9529 135.762 57.9835 135.849 58.0413C135.937 58.0992 136.005 58.1817 136.045 58.2784C136.085 58.375 136.096 58.4815 136.075 58.5841C136.055 58.6868 136.004 58.781 135.93 58.8547C135.881 58.9047 135.822 58.9442 135.758 58.9709C135.694 58.9976 135.624 59.011 135.555 59.0102C135.485 59.0113 135.416 58.998 135.353 58.9712C135.289 58.9445 135.231 58.9048 135.183 58.8547C135.108 58.7816 135.057 58.6878 135.036 58.5855C135.015 58.4831 135.025 58.3769 135.065 58.2802C135.105 58.1836 135.172 58.1009 135.259 58.0429C135.346 57.9849 135.449 57.9541 135.553 57.9545L135.555 57.9536Z" fill="#838383"/>
<path d="M140.192 60.5953C140.03 60.4744 139.834 60.4068 139.631 60.4018C139.475 60.4049 139.323 60.4443 139.185 60.5168C139.047 60.5893 138.928 60.6929 138.838 60.8193C138.609 61.1045 138.488 61.4619 138.498 61.8275V64.5851H137.644V59.7725H138.498V60.5403C138.622 60.2782 138.818 60.0576 139.065 59.9052C139.311 59.7528 139.597 59.6752 139.887 59.6817C140.109 59.6897 140.33 59.7167 140.547 59.7624L140.192 60.594L140.192 60.5953Z" fill="#838383"/>
<path d="M145.486 62.2614H142.015C141.999 62.4979 142.032 62.7351 142.112 62.9583C142.192 63.1815 142.316 63.3861 142.478 63.5594C142.618 63.6919 142.784 63.7951 142.964 63.863C143.145 63.9309 143.337 63.9621 143.53 63.9548C143.977 63.97 144.413 63.8176 144.753 63.5275L145.111 64.1435C144.936 64.2999 144.729 64.4166 144.505 64.4853C144.138 64.6154 143.751 64.6793 143.362 64.6739C143.077 64.6799 142.794 64.6284 142.529 64.5226C142.264 64.4167 142.023 64.2587 141.82 64.0579C141.582 63.8201 141.396 63.5349 141.274 63.2209C141.153 62.9068 141.098 62.5708 141.114 62.2344C141.101 61.884 141.158 61.5344 141.283 61.2065C141.407 60.8785 141.596 60.5789 141.839 60.3254C142.037 60.1197 142.275 59.9565 142.539 59.846C142.802 59.7354 143.086 59.6798 143.372 59.6824C143.666 59.6657 143.961 59.7084 144.238 59.8079C144.515 59.9074 144.77 60.0617 144.986 60.2616C145.177 60.4559 145.326 60.6874 145.423 60.9417C145.521 61.1961 145.565 61.4677 145.552 61.7398C145.554 61.9155 145.532 62.0906 145.485 62.2601L145.486 62.2614ZM143.413 60.4012C143.069 60.3936 142.735 60.5178 142.479 60.7484C142.224 60.979 142.066 61.2985 142.038 61.6416H144.704C144.714 61.3229 144.598 61.0131 144.381 60.7794C144.255 60.6517 144.104 60.5521 143.938 60.487C143.771 60.422 143.592 60.3931 143.413 60.4021V60.4012Z" fill="#838383"/>
<path d="M147.713 63.3221C147.802 63.322 147.889 63.3394 147.971 63.3732C148.053 63.4071 148.127 63.4567 148.19 63.5192C148.252 63.5818 148.302 63.6561 148.336 63.7378C148.37 63.8195 148.387 63.9071 148.387 63.9956C148.388 64.0846 148.371 64.1728 148.338 64.2551C148.304 64.3374 148.253 64.4119 148.19 64.4743C148.128 64.5375 148.053 64.5877 147.972 64.6219C147.89 64.6562 147.802 64.6738 147.713 64.6738C147.624 64.6738 147.537 64.6562 147.455 64.6219C147.373 64.5877 147.299 64.5375 147.236 64.4743C147.11 64.3474 147.039 64.1757 147.039 63.9967C147.039 63.8177 147.11 63.646 147.236 63.5191C147.298 63.4554 147.372 63.4051 147.454 63.3712C147.536 63.3373 147.624 63.3205 147.713 63.3221Z" fill="#838383"/>
<path d="M156.737 64.5843L156.281 63.1969H153.831L153.345 64.5843H152.336L155.012 57.9128H155.25L157.732 64.5843H156.737ZM155.092 59.6384L154.071 62.5358H156.027L155.092 59.6384Z" fill="#838383"/>
<path d="M162.27 60.164L161.846 60.7666C161.712 60.653 161.555 60.5688 161.385 60.5191C161.177 60.4432 160.957 60.4038 160.734 60.4027C160.525 60.3937 160.316 60.4331 160.124 60.5177C159.932 60.6023 159.762 60.7299 159.628 60.8905C159.336 61.2727 159.19 61.7466 159.218 62.2265C159.185 62.6934 159.335 63.1549 159.636 63.5134C159.787 63.6646 159.969 63.7822 160.169 63.8584C160.368 63.9345 160.582 63.9676 160.796 63.9554C161.221 63.9403 161.629 63.7838 161.955 63.5108L162.292 64.2296C161.78 64.5405 161.187 64.6951 160.588 64.6741C160.286 64.685 159.984 64.6318 159.704 64.518C159.423 64.4042 159.17 64.2324 158.961 64.014C158.74 63.7736 158.569 63.4916 158.458 63.1844C158.348 62.8773 158.3 62.5512 158.317 62.2252C158.288 61.5459 158.528 60.8823 158.985 60.3786C159.33 60.0519 159.76 59.8281 160.226 59.7327C160.692 59.6373 161.176 59.674 161.622 59.8388C161.852 59.9128 162.069 60.0218 162.265 60.162L162.27 60.164Z" fill="#838383"/>
<path d="M167.105 60.164L166.682 60.7666C166.547 60.653 166.39 60.5688 166.221 60.5191C166.012 60.4432 165.792 60.4038 165.57 60.4027C165.36 60.3937 165.151 60.4331 164.959 60.5177C164.767 60.6023 164.598 60.7299 164.463 60.8905C164.171 61.2727 164.026 61.7466 164.053 62.2265C164.02 62.6934 164.17 63.1549 164.471 63.5134C164.622 63.6646 164.804 63.7822 165.004 63.8583C165.204 63.9345 165.417 63.9676 165.631 63.9554C166.056 63.9402 166.464 63.7838 166.79 63.5108L167.127 64.2296C166.615 64.5405 166.023 64.6951 165.423 64.6741C165.121 64.685 164.82 64.6318 164.539 64.518C164.258 64.4043 164.005 64.2325 163.796 64.014C163.575 63.7736 163.404 63.4916 163.294 63.1844C163.183 62.8773 163.135 62.5512 163.152 62.2252C163.123 61.5459 163.363 60.8823 163.82 60.3786C164.166 60.0519 164.596 59.8281 165.062 59.7327C165.527 59.6373 166.011 59.674 166.457 59.8388C166.687 59.9128 166.904 60.0219 167.101 60.162L167.105 60.164Z" fill="#838383"/>
<path d="M169.118 59.7737V62.8412C169.118 63.5844 169.44 63.9558 170.085 63.9554C170.361 63.9569 170.632 63.8721 170.858 63.7128C171.069 63.5799 171.231 63.3829 171.321 63.1508V59.7724H172.176V64.5837H171.321V63.9186C171.185 64.1456 170.984 64.3268 170.744 64.439C170.486 64.5882 170.194 64.6696 169.896 64.6754C169.673 64.6901 169.45 64.6572 169.241 64.5786C169.031 64.5001 168.842 64.3779 168.684 64.2201C168.383 63.8601 168.232 63.3984 168.263 62.9306V59.7724H169.117L169.118 59.7737Z" fill="#838383"/>
<path d="M176.232 60.5953C176.07 60.4743 175.874 60.4067 175.671 60.4018C175.515 60.4049 175.363 60.4443 175.225 60.5168C175.087 60.5893 174.968 60.6929 174.878 60.8193C174.649 61.1045 174.528 61.4619 174.538 61.8275V64.5851H173.684V59.7725H174.538V60.5403C174.662 60.2782 174.859 60.0576 175.105 59.9052C175.352 59.7528 175.637 59.6752 175.927 59.6817C176.149 59.6897 176.37 59.7167 176.588 59.7624L176.232 60.594L176.232 60.5953Z" fill="#838383"/>
<path d="M180.19 64.0323C179.997 64.2544 179.755 64.4282 179.482 64.5399C179.21 64.6515 178.915 64.6979 178.621 64.6752C178.438 64.6767 178.257 64.6411 178.088 64.5703C177.919 64.4996 177.766 64.3953 177.638 64.2638C177.503 64.1311 177.396 63.9718 177.324 63.7958C177.253 63.6199 177.218 63.4311 177.223 63.2413C177.224 62.9989 177.282 62.7602 177.394 62.5449C177.505 62.3296 177.666 62.1439 177.864 62.0032C178.334 61.6524 178.911 61.4739 179.498 61.4975C179.707 61.5031 179.913 61.5424 180.109 61.6139C180.109 60.8352 179.762 60.4458 179.068 60.4458C178.844 60.4311 178.62 60.4617 178.408 60.5357C178.196 60.6098 178.002 60.7257 177.836 60.8767L177.478 60.1612C177.68 60.0087 177.907 59.8938 178.149 59.822C178.413 59.7313 178.69 59.6833 178.969 59.6799C179.668 59.6799 180.175 59.8387 180.492 60.1563C180.808 60.4739 180.966 60.9785 180.966 61.6699V63.3955C180.944 63.5576 180.968 63.7224 181.035 63.8717C181.102 64.021 181.208 64.1489 181.343 64.2411V64.6684C181.075 64.6851 180.806 64.6341 180.562 64.5201C180.381 64.4099 180.248 64.2348 180.191 64.0303L180.19 64.0323ZM180.109 62.2211C179.924 62.1737 179.734 62.1438 179.543 62.1317C179.163 62.1155 178.789 62.2328 178.486 62.4634C178.362 62.5535 178.259 62.6715 178.188 62.808C178.117 62.9444 178.079 63.0956 178.077 63.2495C178.077 63.7481 178.372 63.9984 178.963 64.0001C179.189 63.9937 179.41 63.9348 179.609 63.8278C179.808 63.7209 179.979 63.5689 180.109 63.3841V62.2208L180.109 62.2211Z" fill="#838383"/>
<path d="M182.89 60.4468H182.333V59.7733H182.89V58.7651L183.745 58.437V59.7704H185.067V60.4439H183.745V62.8342C183.718 63.1362 183.79 63.4387 183.95 63.6964C184.032 63.787 184.134 63.8572 184.249 63.9016C184.363 63.946 184.486 63.9634 184.608 63.9523C184.844 63.9485 185.076 63.8916 185.287 63.7858L185.413 64.5364C185.032 64.6292 184.641 64.6745 184.249 64.6711C184.067 64.6738 183.886 64.6372 183.72 64.5638C183.554 64.4904 183.405 64.3821 183.284 64.246C183.018 63.9537 182.877 63.5692 182.891 63.1744V60.4426L182.89 60.4468Z" fill="#838383"/>
<path d="M190.567 62.2614H187.096C187.08 62.4979 187.113 62.7351 187.193 62.9583C187.272 63.1815 187.397 63.3861 187.559 63.5594C187.699 63.6919 187.864 63.7951 188.045 63.863C188.225 63.9309 188.418 63.9621 188.611 63.9548C189.058 63.97 189.494 63.8176 189.834 63.5275L190.192 64.1435C190.017 64.3 189.81 64.4166 189.585 64.4853C189.219 64.6154 188.832 64.6793 188.443 64.6739C188.158 64.6798 187.874 64.6284 187.609 64.5225C187.344 64.4167 187.104 64.2587 186.901 64.0579C186.662 63.8201 186.476 63.5349 186.355 63.2209C186.233 62.9068 186.179 62.5708 186.195 62.2344C186.182 61.884 186.239 61.5344 186.363 61.2065C186.488 60.8785 186.677 60.5789 186.919 60.3254C187.118 60.1196 187.356 59.9565 187.62 59.8459C187.883 59.7353 188.167 59.6797 188.453 59.6824C188.747 59.6657 189.042 59.7084 189.319 59.8079C189.596 59.9074 189.851 60.0617 190.067 60.2616C190.258 60.4559 190.407 60.6874 190.504 60.9417C190.602 61.1961 190.646 61.4677 190.633 61.7398C190.635 61.9155 190.613 62.0906 190.566 62.2601L190.567 62.2614ZM188.494 60.4025C188.15 60.3949 187.816 60.5191 187.56 60.7497C187.304 60.9803 187.146 61.2998 187.119 61.6429H189.785C189.795 61.3242 189.678 61.0144 189.461 60.7807C189.336 60.653 189.185 60.5534 189.018 60.4883C188.851 60.4233 188.673 60.3944 188.494 60.4034V60.4025Z" fill="#838383"/>
<path d="M192.795 63.3221C192.884 63.322 192.971 63.3394 193.053 63.3732C193.135 63.4071 193.209 63.4567 193.272 63.5192C193.335 63.5818 193.384 63.6561 193.418 63.7378C193.452 63.8195 193.469 63.9071 193.469 63.9956C193.47 64.0846 193.454 64.1728 193.42 64.2551C193.386 64.3374 193.336 64.4119 193.272 64.4743C193.21 64.5375 193.136 64.5877 193.054 64.6219C192.972 64.6562 192.884 64.6738 192.795 64.6738C192.707 64.6738 192.619 64.6562 192.537 64.6219C192.455 64.5877 192.381 64.5375 192.319 64.4743C192.192 64.3474 192.121 64.1757 192.121 63.9967C192.121 63.8177 192.192 63.646 192.319 63.5191C192.38 63.4554 192.454 63.4051 192.536 63.3712C192.618 63.3373 192.706 63.3205 192.795 63.3221Z" fill="#838383"/>
</g>
<path d="M94.9976 40.969L93.5292 43.5321C92.7239 42.7732 91.6449 42.3938 90.2922 42.3938C88.939 42.3938 87.967 42.826 87.2121 43.6895C86.4573 44.5529 86.081 45.7481 86.081 47.2737C86.081 50.3525 87.5489 51.8919 90.4849 51.8919C91.7233 51.9043 92.9217 51.4546 93.8456 50.6307L95.108 53.33C94.3078 53.8642 93.4248 54.2626 92.4947 54.5092C91.6259 54.6853 90.7408 54.7679 89.8544 54.7554C87.5857 54.7554 85.7954 54.0953 84.4833 52.7751C83.1712 51.455 82.5151 49.6206 82.5149 47.2721C82.5149 44.9234 83.233 43.0914 84.6685 41.666C86.1041 40.2405 88.0601 39.5303 90.538 39.5303C92.1441 39.496 93.7149 40.0028 94.9976 40.969Z" fill="#838383"/>
<path d="M106.024 53.0162C105.629 53.5952 105.06 54.0342 104.399 54.2702C103.633 54.5931 102.81 54.7585 101.978 54.7564C100.396 54.7564 99.1519 54.3613 98.247 53.571C97.342 52.7807 96.8893 51.6591 96.8889 50.206C96.8568 49.4355 97.0145 48.6689 97.3481 47.9735C97.6817 47.2781 98.1811 46.6751 98.8023 46.2175C100.078 45.2587 101.891 44.7791 104.242 44.7787C104.724 44.7899 105.203 44.859 105.669 44.9846C105.669 43.2579 104.576 42.3945 102.39 42.3945C101.276 42.358 100.168 42.5785 99.1532 43.0388L98.413 40.3801C99.7349 39.7837 101.175 39.4932 102.625 39.5303C104.865 39.5303 106.507 40.0398 107.549 41.0589C108.592 42.0779 109.113 44.0082 109.112 46.8497V49.9884C109.112 51.9441 109.505 53.1731 110.292 53.6754C110.099 54.0847 109.763 54.4088 109.346 54.586C108.96 54.7058 108.557 54.7637 108.152 54.7574C107.654 54.7558 107.176 54.5588 106.821 54.2088C106.457 53.8872 106.182 53.4761 106.026 53.0162H106.024ZM105.696 47.5743C105.263 47.4752 104.823 47.4157 104.379 47.3967C101.672 47.3967 100.318 48.283 100.319 50.0554C100.319 51.3706 101.082 52.0286 102.61 52.0295C104.668 52.0295 105.696 51.0017 105.696 48.9461V47.5759V47.5743Z" fill="#838383"/>
<path d="M122.268 54.4824V45.9984C122.268 44.7469 122.028 43.8334 121.547 43.2578C121.067 42.6821 120.283 42.3943 119.195 42.3943C118.632 42.4099 118.08 42.5553 117.583 42.8194C117.062 43.063 116.604 43.4244 116.246 43.875V54.484H112.817V39.8046H115.286L115.918 41.1747C116.851 40.0787 118.227 39.5305 120.047 39.5301C121.867 39.5301 123.172 40.053 124.181 41.0986C125.19 42.1442 125.697 43.6028 125.697 45.4777V54.4817H122.268L122.268 54.4824Z" fill="#838383"/>
<path d="M127.466 54.4825V53.4418L133.831 44.0813C135.102 42.2079 135.738 40.6318 135.738 39.3533C135.738 37.8356 134.828 37.0768 133.009 37.0768C131.62 37.0768 130.499 37.8123 129.648 39.2834L127.247 37.3916C127.753 36.3989 128.531 35.5697 129.49 34.9999C130.503 34.3665 131.676 34.036 132.872 34.0473C134.929 34.0473 136.539 34.5155 137.701 35.452C138.862 36.3884 139.443 37.6881 139.442 39.351C139.442 40.8767 138.697 42.7772 137.207 45.0524L133.091 51.3162H140.636V54.4815H127.466V54.4825Z" fill="#838383"/>
<path d="M152.494 54.4824V45.4367C152.511 45.0344 152.445 44.6328 152.298 44.2576C152.152 43.8824 151.929 43.5419 151.643 43.2578C151.346 42.9799 150.996 42.7639 150.615 42.6227C150.233 42.4814 149.827 42.4176 149.421 42.435C148.82 42.4437 148.231 42.6015 147.706 42.8942C147.21 43.1302 146.785 43.4915 146.471 43.9423V54.4821H142.988V34.3347L146.471 33.5119V40.7344C147.359 39.9298 148.58 39.5277 150.134 39.5281C151.972 39.5281 153.399 40.0376 154.414 41.0567C155.429 42.0757 155.936 43.5354 155.936 45.4358V54.4814H152.494V54.4824Z" fill="#838383"/>
<path d="M160.56 54.4819V42.6143H157.732V39.8044H164.031V54.4832H160.56V54.4819Z" fill="#838383"/>
<path d="M176.513 42.9971C175.916 42.6001 175.214 42.3902 174.497 42.3945C174.085 42.4038 173.681 42.5061 173.314 42.6935C172.947 42.881 172.627 43.1489 172.378 43.4771C171.755 44.2151 171.425 45.1568 171.453 46.1221V54.4822H168.023V39.8035H171.452V41.1469C171.931 40.6121 172.523 40.1897 173.185 39.91C173.847 39.6303 174.562 39.5003 175.28 39.5293C176.451 39.5293 177.347 39.7073 177.969 40.0633L176.515 42.9961H176.513L176.513 42.9971Z" fill="#838383"/>
<path d="M193.14 48.1916H182.645C182.647 48.7047 182.756 49.2119 182.964 49.6812C183.171 50.1504 183.474 50.5717 183.853 50.9185C184.593 51.5675 185.59 51.8919 186.843 51.8919C188.407 51.8919 189.596 51.4854 190.41 50.6724L191.741 53.2904C190.534 54.2675 188.732 54.7566 186.337 54.7574C184.097 54.7574 182.325 54.1019 181.022 52.7908C179.718 51.4798 179.067 49.6503 179.066 47.3024C179.066 44.955 179.783 43.1182 181.215 41.683C181.88 40.9917 182.68 40.4441 183.566 40.074C184.451 39.704 185.404 39.5194 186.363 39.5316C188.494 39.5316 190.204 40.1668 191.494 41.4371C192.134 42.069 192.636 42.8262 192.968 43.6611C193.301 44.496 193.458 45.3905 193.428 46.2887C193.397 46.932 193.3 47.5704 193.14 48.1942V48.1916H193.14ZM182.769 45.6152H189.985C189.746 43.4687 188.557 42.3955 186.418 42.3955C184.461 42.3949 183.244 43.4681 182.769 45.6152Z" fill="#838383"/>
<path d="M80.6679 48.5663C80.4284 47.9995 80.0707 47.4901 79.6187 47.0722C78.9736 46.5286 78.2554 46.0781 77.485 45.7339C75.3596 44.6991 75.0436 43.9498 75.0436 43.596C75.0374 43.4326 75.065 43.2698 75.1247 43.1176C75.1844 42.9655 75.2749 42.8273 75.3906 42.7117C75.6822 42.4645 76.0598 42.3426 76.441 42.3725C77.3549 42.3842 78.2413 42.6862 78.9719 43.2346L79.4205 43.5556L80.4599 40.6104L80.2294 40.4267C79.385 39.7532 78.1298 39.4263 76.3932 39.4263C75.169 39.3821 73.9737 39.804 73.0491 40.6069C72.6206 40.9813 72.2795 41.4449 72.0495 41.9651C71.8196 42.4853 71.7064 43.0495 71.718 43.6181C71.7116 44.2182 71.8253 44.8135 72.0527 45.3691C72.2714 45.8937 72.6 46.3655 73.0162 46.7529C73.7116 47.3136 74.4757 47.7835 75.29 48.1513C76.5595 48.7868 77.0745 49.2349 77.2854 49.4997C77.5533 49.8092 77.7046 50.2025 77.7132 50.6116C77.7132 50.9459 77.7131 51.731 75.9322 51.731C74.9645 51.6944 74.032 51.359 73.263 50.771L72.4723 50.2665L70.6936 52.8725L71.8789 53.6917C73.0046 54.4116 74.3161 54.7874 75.6526 54.7731C77.2535 54.7731 78.5562 54.3702 79.5263 53.5766C80.002 53.207 80.3852 52.7319 80.6455 52.189C80.9059 51.646 81.0364 51.05 81.0266 50.448C81.0351 49.8033 80.9133 49.1635 80.6685 48.5669L80.6679 48.5663Z" fill="#838383"/>
<path d="M161.453 38.0593C162.034 38.0583 162.59 37.8271 162.999 37.4164C163.409 37.0058 163.638 36.4495 163.637 35.8698C163.636 35.29 163.405 34.7345 162.994 34.3253C162.583 33.916 162.026 33.6867 161.446 33.6877C161.155 33.6833 160.867 33.7367 160.597 33.8448C160.328 33.953 160.082 34.1137 159.876 34.3175C159.669 34.5214 159.505 34.7643 159.393 35.0322C159.281 35.3001 159.224 35.5876 159.224 35.8778C159.225 36.168 159.283 36.4553 159.396 36.7227C159.509 36.9902 159.674 37.2325 159.882 37.4355C160.089 37.6386 160.335 37.7983 160.605 37.9054C160.875 38.0125 161.164 38.0648 161.454 38.0593H161.453Z" fill="#838383"/>
</g>
<defs>
<linearGradient id="paint0_linear_0_289" x1="25.0302" y1="1.79245e-05" x2="191.693" y2="67.0298" gradientUnits="userSpaceOnUse">
<stop stop-color="#2EC4F3"/>
<stop offset="1" stop-color="#BFD633"/>
</linearGradient>
<clipPath id="clip0_0_289">
<rect width="164.639" height="35.0234" fill="white" transform="translate(29.1442 31.6099)"/>
</clipPath>
</defs>
</svg>
