<svg width="212" height="99" viewBox="0 0 212 99" fill="none" xmlns="http://www.w3.org/2000/svg">
<mask id="mask0_0_344" style="mask-type:alpha" maskUnits="userSpaceOnUse" x="0" y="0" width="212" height="99">
<rect x="0.348615" y="-0.348615" width="211.261" height="98.2166" rx="16.3849" transform="matrix(1 0 0 -1 0 98.2165)" stroke="url(#paint0_linear_0_344)" stroke-width="0.697231"/>
</mask>
<g mask="url(#mask0_0_344)">
</g>
<path d="M173.702 47.0637C172.393 47.0637 171.069 47.0637 169.731 47.0637C169.731 43.3119 169.731 39.5888 169.731 35.8514C169.717 35.8514 169.688 35.8514 169.673 35.8514C169.242 39.5744 168.796 43.2975 168.364 47.0349C167.328 47.0349 166.307 47.0349 165.228 47.0349C164.796 43.24 164.35 39.4451 163.918 35.6502C163.904 35.6502 163.889 35.6502 163.875 35.6502C163.875 39.4307 163.875 43.2112 163.875 47.0349C162.551 47.0349 161.256 47.0349 159.918 47.0349C159.918 40.4082 159.918 33.7815 159.918 27.126C161.803 27.126 163.702 27.126 165.63 27.126C166.004 30.5759 166.393 34.0402 166.767 37.4901C166.796 37.4901 166.825 37.4901 166.839 37.4901C166.925 36.7283 167.012 35.9808 167.084 35.2189C167.256 33.6377 167.429 32.0709 167.587 30.4897C167.702 29.4547 167.803 28.4341 167.904 27.3991C167.918 27.2266 167.932 27.0972 168.177 27.0972C170.019 27.1116 171.86 27.1116 173.702 27.126C173.702 33.7671 173.702 40.4082 173.702 47.0637Z" fill="#838383"/>
<path d="M38.4676 27.1113C38.5971 27.097 38.7122 27.0826 38.8417 27.0826C41.8776 27.0826 44.8991 27.0826 47.935 27.0826C48.0645 27.0826 48.2084 27.0826 48.3523 27.0826C48.3523 28.3763 48.3523 29.6269 48.3523 30.9206C47.4314 30.9206 46.5394 30.9206 45.6041 30.9206C45.6041 36.3111 45.6041 41.6585 45.6041 47.0346C44.1509 47.0346 42.7265 47.0346 41.2733 47.0346C41.2733 41.6872 41.2733 36.3399 41.2733 30.935C40.3093 30.935 39.3884 30.935 38.4676 30.935C38.4676 29.6556 38.4676 28.3907 38.4676 27.1113Z" fill="#838383"/>
<path d="M85.3012 36.8572C86.3371 37.389 86.9558 38.1509 87.1572 39.229C87.186 39.3583 87.2004 39.4733 87.2004 39.6027C87.2004 40.8102 87.2292 42.032 87.186 43.2395C87.1572 44.2745 86.8551 45.2376 86.0637 45.9707C85.4019 46.5888 84.5961 46.9194 83.7328 46.9769C82.2221 47.0632 80.7113 47.0488 79.1862 47.0632C78.438 47.0775 77.6898 47.0632 76.9128 47.0632C76.9128 40.4077 76.9128 33.781 76.9128 27.1255C76.9704 27.1111 77.0423 27.0968 77.1143 27.0968C79.1286 27.0968 81.143 27.0824 83.1573 27.1399C84.1645 27.1686 85.0997 27.4561 85.8767 28.1605C86.6393 28.8505 86.9702 29.7417 87.0133 30.7335C87.0709 31.941 87.0709 33.1629 87.0133 34.3703C86.9702 35.4628 86.4234 36.3253 85.3012 36.8572ZM81.1861 43.4695C81.4595 43.4695 81.6897 43.4695 81.9343 43.4695C82.5674 43.4551 82.8983 43.1533 82.9127 42.5351C82.9415 41.5433 82.9271 40.5658 82.9127 39.574C82.8983 39.0421 82.6393 38.6684 82.2365 38.6252C81.9055 38.5821 81.5458 38.6109 81.1861 38.6109C81.1861 40.2208 81.1861 41.8164 81.1861 43.4695ZM81.2005 30.7048C81.2005 32.1566 81.2005 33.5654 81.2005 34.9884C81.4595 34.9884 81.7041 34.9884 81.9343 34.9884C82.4235 34.9741 82.7544 34.701 82.7688 34.2122C82.7976 33.3066 82.7976 32.3866 82.7688 31.481C82.7544 31.0354 82.4523 30.7335 82.0494 30.7048C81.776 30.6904 81.5027 30.7048 81.2005 30.7048Z" fill="#838383"/>
<path d="M60.5823 47.0491C59.1434 47.0491 57.7478 47.0491 56.309 47.0491C56.309 44.2604 56.309 41.4861 56.309 38.683C55.6183 38.683 54.9709 38.683 54.2802 38.683C54.2802 41.4573 54.2802 44.2316 54.2802 47.0347C52.8126 47.0347 51.3882 47.0347 49.935 47.0347C49.935 40.408 49.935 33.7669 49.935 27.1114C51.3738 27.1114 52.7839 27.1114 54.2515 27.1114C54.2515 29.6845 54.2515 32.2431 54.2515 34.8162C54.9421 34.8162 55.6039 34.8162 56.2946 34.8162C56.2946 32.2431 56.2946 29.6845 56.2946 27.1114C57.7334 27.1114 59.1434 27.1114 60.5823 27.1114C60.5823 33.7525 60.5823 40.3792 60.5823 47.0491Z" fill="#838383"/>
<path d="M128.279 39.0282C128.279 41.7306 128.279 44.3755 128.279 47.0492C126.854 47.0492 125.444 47.0492 124.005 47.0492C124.005 40.4225 124.005 33.7814 124.005 27.1259C124.077 27.1115 124.149 27.0972 124.221 27.0972C126.279 27.0972 128.336 27.0684 130.379 27.1403C131.746 27.1834 132.969 27.629 133.732 28.8796C134.12 29.5121 134.293 30.2165 134.307 30.9496C134.322 32.1283 134.35 33.307 134.307 34.4714C134.264 35.6501 133.732 36.5701 132.566 37.1163C133.329 37.4901 133.861 38.0219 134.077 38.8125C134.178 39.2006 134.264 39.6175 134.264 40.02C134.293 41.63 134.264 43.2399 134.293 44.8499C134.307 45.583 134.408 46.3017 134.48 47.0636C133.502 47.0636 132.466 47.0636 131.43 47.0636C131.156 47.0636 130.869 47.0348 130.61 47.0636C130.307 47.0923 130.192 46.9486 130.164 46.7042C130.092 46.1149 130.005 45.5111 129.991 44.9218C129.962 43.4268 129.991 41.9175 129.976 40.4225C129.976 40.2212 129.962 40.02 129.933 39.8188C129.861 39.2869 129.574 39.0282 129.027 39.0138C128.797 39.0138 128.552 39.0282 128.279 39.0282ZM128.279 35.2907C128.552 35.2907 128.782 35.2907 129.012 35.2907C129.646 35.2907 129.962 35.0176 129.991 34.3708C130.02 33.4795 130.005 32.6027 129.991 31.7114C129.976 31.2083 129.717 30.8346 129.315 30.7915C128.969 30.7483 128.624 30.7771 128.279 30.7771C128.279 32.3008 128.279 33.767 128.279 35.2907Z" fill="#838383"/>
<path d="M158.192 37.0728C158.192 38.9271 158.192 40.7671 158.192 42.6214C158.192 45.1226 156.566 46.9194 154.062 47.2213C153.084 47.3363 152.12 47.3219 151.156 47.0488C149.098 46.4738 147.832 44.8639 147.832 42.7364C147.818 38.9559 147.818 35.1897 147.832 31.4235C147.847 29.1092 149.386 27.3555 151.703 26.9818C152.997 26.7805 154.278 26.8093 155.501 27.3411C157.256 28.103 158.134 29.4686 158.177 31.3517C158.235 33.2491 158.192 35.1609 158.192 37.0728ZM153.861 37.0872C153.861 35.3047 153.861 33.5079 153.861 31.7254C153.861 31.5673 153.861 31.3948 153.846 31.2367C153.774 30.7767 153.472 30.4892 153.055 30.4748C152.609 30.4604 152.278 30.7479 152.192 31.2079C152.163 31.3517 152.163 31.5098 152.163 31.6535C152.163 35.2616 152.163 38.884 152.163 42.492C152.163 42.6358 152.163 42.7652 152.177 42.9089C152.249 43.3689 152.58 43.6708 153.012 43.6708C153.458 43.6708 153.76 43.3833 153.832 42.9089C153.861 42.7364 153.846 42.5639 153.846 42.3914C153.861 40.6089 153.861 38.8552 153.861 37.0872Z" fill="#838383"/>
<path d="M111.042 37.0873C111.042 38.9272 111.042 40.7672 111.042 42.5928C111.042 45.1227 109.43 46.9052 106.898 47.207C105.632 47.3652 104.394 47.2933 103.229 46.7471C101.718 46.0427 100.884 44.8496 100.74 43.1965C100.697 42.7653 100.682 42.3197 100.682 41.8884C100.682 38.496 100.668 35.1179 100.697 31.7255C100.697 31.1505 100.768 30.5468 100.927 29.9862C101.272 28.7356 102.107 27.83 103.301 27.3556C105.114 26.6225 106.941 26.6081 108.711 27.485C110.221 28.2325 110.984 29.5406 111.027 31.1937C111.085 33.163 111.042 35.1323 111.042 37.0873ZM106.696 37.0729C106.696 35.3767 106.696 33.6805 106.696 31.9699C106.696 31.7255 106.711 31.4668 106.682 31.2224C106.624 30.7912 106.337 30.518 105.963 30.4893C105.545 30.4462 105.214 30.6618 105.085 31.093C105.027 31.2512 105.013 31.438 105.013 31.6105C105.013 35.2617 105.013 38.9129 105.013 42.564C105.013 43.2971 105.33 43.6852 105.891 43.6852C106.437 43.6709 106.696 43.3115 106.696 42.564C106.696 40.7241 106.696 38.8985 106.696 37.0729Z" fill="#838383"/>
<path d="M146.25 37.1018C146.25 38.9274 146.25 40.7529 146.25 42.5785C146.25 45.1516 144.667 46.9053 142.106 47.2215C140.652 47.394 139.257 47.279 137.976 46.5172C136.753 45.7841 136.077 44.6629 135.948 43.2398C135.904 42.8085 135.89 42.3629 135.89 41.9317C135.89 38.5105 135.89 35.0893 135.89 31.6538C135.89 30.8057 136.02 29.9863 136.437 29.2388C136.969 28.2757 137.76 27.6145 138.796 27.2551C140.523 26.6658 142.235 26.6658 143.89 27.4851C145.415 28.2326 146.192 29.5407 146.235 31.2082C146.278 33.1775 146.235 35.1324 146.25 37.1018C146.235 37.1018 146.235 37.1018 146.25 37.1018ZM141.904 37.0587C141.904 35.2618 141.904 33.465 141.904 31.6538C141.904 31.4957 141.904 31.3232 141.875 31.165C141.804 30.7625 141.516 30.5038 141.142 30.4751C140.724 30.4463 140.422 30.6476 140.293 31.05C140.235 31.2657 140.206 31.4957 140.206 31.7113C140.206 35.2762 140.206 38.8411 140.206 42.3917C140.206 42.5498 140.206 42.7223 140.235 42.8804C140.307 43.3691 140.652 43.6566 141.099 43.6423C141.545 43.6279 141.847 43.3116 141.89 42.8085C141.904 42.6648 141.904 42.5354 141.904 42.3917C141.904 40.6379 141.904 38.8411 141.904 37.0587Z" fill="#838383"/>
<path d="M88.7543 37.0585C88.7543 35.1754 88.7543 33.278 88.7543 31.3949C88.7543 29.3537 89.9054 27.7581 91.8766 27.1687C93.6175 26.6512 95.3441 26.6944 96.9556 27.6C98.3369 28.3762 99.0419 29.6124 99.0707 31.1649C99.1138 35.1036 99.0994 39.0422 99.0851 42.9665C99.0707 44.7777 97.8908 46.3446 96.0779 46.9483C94.6679 47.4083 93.2435 47.4227 91.8334 46.9627C89.9054 46.3446 88.7687 44.7633 88.7543 42.7365C88.7543 40.8534 88.7543 38.956 88.7543 37.0585ZM93.0564 37.0585C93.0564 38.7835 93.0564 40.5084 93.0564 42.2334C93.0564 42.4346 93.0564 42.6359 93.0708 42.8371C93.1283 43.3402 93.4593 43.6709 93.9197 43.6709C94.3801 43.6709 94.6535 43.3977 94.7398 42.8659C94.7542 42.7221 94.783 42.564 94.783 42.4203C94.783 38.8697 94.783 35.3192 94.783 31.7686C94.783 31.5386 94.7542 31.323 94.711 31.1074C94.6247 30.7193 94.3226 30.5037 93.9629 30.4893C93.5744 30.4749 93.2722 30.6618 93.1715 31.0499C93.0996 31.3086 93.0708 31.5961 93.0708 31.8549C93.042 33.5798 93.0564 35.3192 93.0564 37.0585Z" fill="#838383"/>
<path d="M69.949 38.6686C68.8411 38.6686 67.7764 38.6686 66.6685 38.6686C66.6685 40.1923 66.6685 41.7017 66.6685 43.2398C67.9202 43.2398 69.1576 43.2398 70.4094 43.2398C70.4094 44.5191 70.4094 45.7697 70.4094 47.0491C67.7476 47.0491 65.1002 47.0491 62.424 47.0491C62.424 40.408 62.424 33.7812 62.424 27.1114C65.0858 27.1114 67.7332 27.1114 70.4094 27.1114C70.4094 28.3764 70.4094 29.627 70.4094 30.9207C69.172 30.9207 67.9346 30.9207 66.6685 30.9207C66.6685 32.2288 66.6685 33.5081 66.6685 34.8306C67.7476 34.8306 68.8267 34.8306 69.9346 34.8306C69.949 36.1099 69.949 37.3605 69.949 38.6686Z" fill="#838383"/>
<path d="M119.66 47.0491C118.192 47.0491 116.782 47.0491 115.344 47.0491C115.344 41.6873 115.344 36.3399 115.344 30.9351C114.408 30.9351 113.502 30.9351 112.567 30.9351C112.567 29.6413 112.567 28.3764 112.567 27.1114C115.833 27.1114 119.099 27.1114 122.394 27.1114C122.394 28.3764 122.394 29.627 122.394 30.9207C121.487 30.9207 120.595 30.9207 119.66 30.9207C119.66 36.3112 119.66 41.6586 119.66 47.0491Z" fill="#838383"/>
<path d="M138.557 61.2847C138.557 64.7778 138.557 68.2852 138.557 71.807C137.277 71.807 135.996 71.807 134.701 71.807C134.701 65.1659 134.701 58.5248 134.701 51.8549C135.19 51.8549 135.665 51.8549 136.14 51.8549C136.946 51.8549 137.752 51.8693 138.543 51.8549C138.787 51.8549 138.888 51.9268 138.946 52.1712C139.593 55.003 140.255 57.8348 140.903 60.6522C140.931 60.796 140.974 60.9397 141.003 61.0835C141.018 61.0835 141.032 61.0835 141.046 61.0835C141.046 58.0217 141.046 54.9742 141.046 51.8837C142.356 51.8837 143.622 51.8837 144.931 51.8837C144.931 58.5248 144.931 65.1515 144.931 71.807C143.708 71.807 142.485 71.807 141.248 71.807C140.37 68.2995 139.478 64.7921 138.6 61.2703C138.586 61.2703 138.572 61.2847 138.557 61.2847Z" fill="#838383"/>
<path d="M133.003 61.8314C133.003 63.6858 133.018 65.5257 133.003 67.3801C132.989 68.5157 132.701 69.5794 131.924 70.4563C131.205 71.2756 130.27 71.7356 129.205 71.9225C127.737 72.1956 126.313 72.1237 124.96 71.4194C123.421 70.6144 122.658 69.2919 122.644 67.5813C122.615 63.8008 122.63 60.0059 122.63 56.2253C122.63 53.8822 124.183 52.0854 126.514 51.726C127.55 51.5679 128.586 51.5679 129.593 51.8554C131.752 52.4735 132.96 54.0404 132.975 56.2828C133.003 58.1372 133.003 59.9771 133.003 61.8314ZM128.658 61.8458C128.658 60.049 128.658 58.2522 128.658 56.4553C128.658 56.2397 128.629 56.0097 128.572 55.7941C128.471 55.4635 128.241 55.2766 127.881 55.2478C127.521 55.2191 127.219 55.3628 127.09 55.6935C126.989 55.9378 126.932 56.2253 126.932 56.4841C126.917 60.049 126.917 63.5995 126.932 67.1644C126.932 67.4232 126.989 67.6819 127.061 67.9263C127.191 68.2857 127.493 68.4438 127.852 68.4294C128.212 68.415 128.471 68.2138 128.557 67.8688C128.615 67.6532 128.644 67.4232 128.644 67.2076C128.658 65.4251 128.658 63.6427 128.658 61.8458Z" fill="#838383"/>
<path d="M63.307 61.8311C63.307 63.7861 63.3214 65.7267 63.307 67.6816C63.2783 69.8809 61.8107 71.3903 59.8826 71.8646C58.6596 72.1665 57.4223 72.1665 56.2137 71.8071C54.1561 71.2034 53.0051 69.6509 52.9907 67.3797C52.9619 63.6998 52.9907 60.0055 52.9907 56.3256C52.9907 53.2782 55.1777 51.812 57.6237 51.6682C58.487 51.6251 59.3215 51.6682 60.1416 51.9126C62.1991 52.5307 63.3214 54.1119 63.3358 56.3975C63.3502 58.2087 63.3358 60.0199 63.3358 61.8311C63.3214 61.8311 63.307 61.8311 63.307 61.8311ZM58.9906 61.8455C58.9906 60.063 58.9906 58.2662 58.9906 56.4837C58.9906 56.2825 58.9762 56.0812 58.933 55.8944C58.8467 55.5063 58.5589 55.2763 58.1992 55.2619C57.8251 55.2475 57.5086 55.4344 57.3791 55.7937C57.3215 55.9806 57.2784 56.1819 57.2784 56.3831C57.2784 60.0343 57.2784 63.6854 57.2784 67.3366C57.2784 67.5235 57.3072 67.7104 57.3647 67.8829C57.4798 68.2422 57.7964 68.4722 58.1561 68.4578C58.5301 68.4578 58.8467 68.1991 58.933 67.811C58.9762 67.6241 58.9906 67.4085 58.9906 67.2216C58.9906 65.4104 58.9906 63.6279 58.9906 61.8455Z" fill="#838383"/>
<path d="M51.3505 64.0596C51.3505 65.4683 51.4512 66.8483 51.3217 68.2139C51.1347 70.2694 49.6959 71.6494 47.624 71.9656C46.4441 72.1381 45.2787 72.095 44.142 71.6782C42.3723 71.0169 41.2788 69.4788 41.2644 67.5957C41.25 63.7577 41.25 59.9197 41.2644 56.0816C41.2788 53.8392 42.8759 52.0711 45.1492 51.7261C46.2427 51.568 47.3218 51.568 48.3865 51.913C50.1707 52.488 51.2498 53.8536 51.3649 55.8085C51.4368 56.9872 51.3793 58.1803 51.3793 59.4022C49.9836 59.4022 48.6024 59.4022 47.1779 59.4022C47.1779 58.5541 47.1779 57.706 47.1779 56.8579C47.1779 56.5272 47.1636 56.1823 47.106 55.8516C47.0341 55.4635 46.7751 55.2479 46.401 55.2479C46.0269 55.2479 45.7535 55.4204 45.6528 55.7941C45.5808 56.0529 45.5521 56.3404 45.5521 56.6135C45.5521 60.1065 45.5521 63.5852 45.5521 67.0783C45.5521 67.3514 45.5808 67.6245 45.6528 67.8976C45.7535 68.2714 46.0557 68.4726 46.401 68.4582C46.7607 68.4438 47.0197 68.2282 47.106 67.8401C47.1492 67.6245 47.1779 67.3945 47.1779 67.1789C47.1923 66.1583 47.1779 65.1377 47.1779 64.0739C48.6024 64.0596 49.9836 64.0596 51.3505 64.0596Z" fill="#838383"/>
<path d="M103.666 59.4305C103.378 59.4305 103.105 59.4305 102.831 59.4305C101.839 59.4305 100.846 59.4161 99.8675 59.4305C99.5797 59.4305 99.479 59.3586 99.479 59.0567C99.4934 58.0936 99.479 57.1305 99.4646 56.1674C99.4646 56.0093 99.4214 55.8368 99.3783 55.693C99.2631 55.3912 99.0329 55.233 98.7164 55.233C98.3999 55.233 98.1409 55.348 98.0258 55.6499C97.9394 55.8799 97.8963 56.1386 97.8819 56.3686C97.8675 60.0054 97.8819 63.6422 97.8819 67.279C97.8819 67.4803 97.9107 67.6815 97.9682 67.8684C98.0546 68.2278 98.3423 68.4146 98.6876 68.4146C99.0473 68.4146 99.3207 68.2421 99.407 67.8684C99.4646 67.5953 99.4934 67.3078 99.4934 67.0203C99.5078 66.0284 99.4934 65.0509 99.4934 64.0303C100.903 64.0303 102.27 64.0303 103.666 64.0303C103.68 64.1022 103.709 64.1741 103.709 64.2603C103.709 65.4391 103.723 66.6034 103.68 67.7821C103.594 70.0102 102.112 71.6202 99.8962 71.9364C98.9466 72.0658 97.997 72.0658 97.0618 71.8214C94.8172 71.2321 93.6086 69.6796 93.5942 67.3221C93.5654 63.6279 93.5942 59.9479 93.5942 56.2536C93.5942 53.2206 95.7956 51.7256 98.2272 51.5963C99.148 51.5531 100.055 51.5963 100.918 51.9269C102.803 52.6456 103.652 54.0974 103.695 56.0524C103.723 57.0874 103.695 58.1224 103.695 59.1717C103.709 59.2723 103.68 59.3442 103.666 59.4305Z" fill="#838383"/>
<path d="M88.213 63.4124C88.213 64.9649 88.213 66.4599 88.213 67.998C89.4792 67.998 90.7309 67.998 91.9971 67.998C91.9971 69.2773 91.9971 70.5279 91.9971 71.7929C89.3209 71.7929 86.6591 71.7929 83.9541 71.7929C83.9541 65.1661 83.9541 58.525 83.9541 51.8696C86.6303 51.8696 89.2921 51.8696 91.9827 51.8696C91.9827 53.1202 91.9827 54.3708 91.9827 55.6645C90.7309 55.6645 89.4935 55.6645 88.213 55.6645C88.213 56.987 88.213 58.2663 88.213 59.5744C89.3065 59.5744 90.3856 59.5744 91.4935 59.5744C91.4935 60.8681 91.4935 62.1187 91.4935 63.3981C90.4 63.4124 89.3209 63.4124 88.213 63.4124Z" fill="#838383"/>
<path d="M112.284 71.8072C110.817 71.8072 109.407 71.8072 107.954 71.8072C107.954 66.4311 107.954 61.0837 107.954 55.6932C107.018 55.6932 106.112 55.6932 105.191 55.6932C105.191 54.3995 105.191 53.1489 105.191 51.8696C108.472 51.8696 111.738 51.8696 115.018 51.8696C115.018 53.1345 115.018 54.3851 115.018 55.6645C114.112 55.6645 113.22 55.6645 112.284 55.6645C112.284 61.055 112.284 66.4167 112.284 71.8072Z" fill="#838383"/>
<path d="M69.235 51.8842C69.235 57.2603 69.235 62.6077 69.235 67.9982C70.458 67.9982 71.6666 67.9982 72.904 67.9982C72.904 69.2776 72.904 70.5282 72.904 71.8075C70.2997 71.8075 67.6955 71.8075 65.048 71.8075C65.048 65.1808 65.048 58.5541 65.048 51.8842C66.4293 51.8842 67.8106 51.8842 69.235 51.8842Z" fill="#838383"/>
<path d="M74.5154 51.8696C75.9111 51.8696 77.3067 51.8696 78.7168 51.8696C78.7168 57.2457 78.7168 62.5931 78.7168 67.9836C79.9398 67.9836 81.1484 67.9836 82.3714 67.9836C82.3714 69.2629 82.3714 70.5135 82.3714 71.7929C79.7671 71.7929 77.1485 71.7929 74.5154 71.7929C74.5154 65.1805 74.5154 58.5538 74.5154 51.8696Z" fill="#838383"/>
<path d="M120.946 71.8219C119.493 71.8219 118.083 71.8219 116.63 71.8219C116.63 65.1808 116.63 58.5541 116.63 51.8842C118.054 51.8842 119.478 51.8842 120.946 51.8842C120.946 58.5253 120.946 65.152 120.946 71.8219Z" fill="#838383"/>
<path d="M155.507 68.2423C155.507 70.5854 153.665 72.3966 151.291 72.4109C148.917 72.4109 147.018 70.5566 147.018 68.2423C147.018 65.9711 148.946 64.1168 151.291 64.1168C153.665 64.1311 155.507 65.9423 155.507 68.2423ZM148.125 68.2279C148.125 70.0823 149.492 71.491 151.305 71.5053C153.032 71.5197 154.442 70.0391 154.427 68.2567C154.413 66.4167 153.046 65.008 151.305 65.008C149.521 64.9936 148.14 66.4023 148.125 68.2279Z" fill="#838383"/>
<path d="M152.284 68.3426C153.161 68.7738 152.96 69.6938 153.32 70.3982C152.989 70.3982 152.701 70.4126 152.413 70.3838C152.312 70.3694 152.197 70.2688 152.154 70.1826C152.068 69.9669 152.025 69.7226 151.967 69.5069C151.794 68.8745 151.622 68.7451 150.96 68.7451C150.874 68.7451 150.787 68.7595 150.658 68.7595C150.658 69.2913 150.658 69.8232 150.658 70.3694C150.312 70.3694 150.025 70.3694 149.694 70.3694C149.694 69.0182 149.694 67.6526 149.694 66.2726C150.528 66.1289 151.377 66.0426 152.212 66.2439C152.773 66.3733 153.046 66.6895 153.104 67.1782C153.147 67.7245 152.96 68.012 152.284 68.3426ZM150.701 68.0982C151.061 68.0407 151.377 68.0551 151.651 67.9401C151.823 67.8682 152.01 67.6239 152.01 67.4514C152.01 67.2789 151.823 67.0201 151.651 66.9626C151.363 66.862 151.032 66.8764 150.701 66.8476C150.701 67.2932 150.701 67.6526 150.701 68.0982Z" fill="#838383"/>
<defs>
<linearGradient id="paint0_linear_0_344" x1="25.0302" y1="1.79245e-05" x2="191.693" y2="67.0298" gradientUnits="userSpaceOnUse">
<stop stop-color="#2EC4F3"/>
<stop offset="1" stop-color="#BFD633"/>
</linearGradient>
</defs>
</svg>
