<svg width="212" height="99" viewBox="0 0 212 99" fill="none" xmlns="http://www.w3.org/2000/svg">
<mask id="mask0_0_372" style="mask-type:alpha" maskUnits="userSpaceOnUse" x="16" y="16" width="180" height="68">
<rect x="16.5095" y="16" width="178.979" height="67.0334" fill="#D9D9D9"/>
</mask>
<g mask="url(#mask0_0_372)">
<path d="M60.7056 29.7948C64.1395 30.9365 67.1802 32.9875 69.5212 35.7116C70.4629 36.8074 70.1144 38.4529 68.908 39.2545C67.7023 40.0557 66.0987 39.7039 65.1086 38.6535C63.4446 36.888 61.3634 35.5519 59.0387 34.779C55.883 33.7298 52.4616 33.7791 49.3235 34.9192C46.1854 36.0592 43.5126 38.2238 41.734 41.0656C39.9555 43.9074 39.1742 47.2616 39.5158 50.5899C39.8573 53.9182 41.3017 57.0276 43.6173 59.4191C45.9329 61.8107 48.9853 63.3456 52.2847 63.7777C55.5841 64.2098 58.9392 63.5139 61.8115 61.8018C63.9294 60.5393 65.6943 58.7783 66.9632 56.6879L58.3259 56.7152C56.9398 56.7196 55.8183 55.5907 55.8226 54.1953C55.827 52.8035 56.95 51.673 58.3325 51.6686L69.9329 51.6319C71.6244 51.6266 72.9929 53.0042 72.9876 54.707L72.9815 56.6689C71.3369 60.8908 68.3342 63.9985 64.4527 66.3122C60.5711 68.6259 56.0372 69.5663 51.5786 68.9824C47.1199 68.3985 42.995 66.3242 39.8658 63.0924C38.0927 61.2611 36.6975 59.1183 35.7374 56.7867C35.0031 55.0036 34.5232 53.11 34.3232 51.1609C34.0469 48.4684 34.3144 45.7633 35.0892 43.2018C35.4531 41.9986 35.929 40.8272 36.513 39.7035C36.7626 39.2233 37.0104 38.8074 37.3209 38.2902C39.7243 34.45 43.3363 31.5248 47.5769 29.9842C51.8176 28.4436 56.4412 28.3769 60.7056 29.7948Z" fill="#838383"/>
<path d="M97.4315 47.1684C98.276 47.1684 98.959 47.8574 98.9569 48.7075L98.9139 64.5971H89.5292L89.5721 48.7075C89.5747 47.8575 90.261 47.1686 91.1053 47.1684H97.4315ZM94.2684 49.1791C93.7133 49.1794 93.2667 49.6298 93.2704 50.185C93.2743 50.7401 93.7269 51.1899 94.2821 51.1899C94.8373 51.1899 95.2846 50.7401 95.2811 50.185C95.2775 49.6297 94.8238 49.1791 94.2684 49.1791Z" fill="#838383"/>
<path d="M114.378 49.1812C114.378 60.2877 105.375 69.2912 94.2682 69.2912C83.1618 69.2912 74.1582 60.2877 74.1582 49.1812C74.1582 38.0747 83.1618 29.0712 94.2682 29.0712C105.375 29.0712 114.378 38.0747 114.378 49.1812ZM79.43 49.1812C79.43 57.3761 86.0733 64.0194 94.2682 64.0194C97.0352 64.0194 99.6253 63.2621 101.842 61.9433C103.975 60.6751 105.762 58.8877 107.03 56.7554C108.349 54.5383 109.106 51.9482 109.106 49.1812C109.106 40.9863 102.463 34.343 94.2682 34.343C86.0733 34.343 79.43 40.9863 79.43 49.1812Z" fill="#838383"/>
<path d="M121.493 55.1513C122.971 55.1513 124.247 55.4299 125.323 55.9872C126.411 56.5315 127.241 57.3156 127.811 58.3394C128.394 59.3632 128.686 60.5685 128.686 61.9552C128.686 63.3419 128.394 64.5471 127.811 65.571C127.241 66.5818 126.411 67.3594 125.323 67.9037C124.247 68.4351 122.971 68.7007 121.493 68.7007H117.275V55.1513H121.493ZM121.493 67.2428C123.243 67.2428 124.578 66.7827 125.498 65.8625C126.418 64.9294 126.878 63.627 126.878 61.9552C126.878 60.2704 126.411 58.955 125.478 58.0089C124.558 57.0628 123.23 56.5898 121.493 56.5898H119.044V67.2428H121.493ZM131.933 56.3177C131.596 56.3177 131.311 56.201 131.077 55.9677C130.844 55.7345 130.728 55.4493 130.728 55.1124C130.728 54.7754 130.844 54.4903 131.077 54.257C131.311 54.0238 131.596 53.9071 131.933 53.9071C132.257 53.9071 132.529 54.0238 132.749 54.257C132.983 54.4903 133.099 54.7754 133.099 55.1124C133.099 55.4493 132.983 55.7345 132.749 55.9677C132.529 56.201 132.257 56.3177 131.933 56.3177ZM132.788 58.0478V68.7007H131.019V58.0478H132.788ZM140.994 57.8534C142.29 57.8534 143.339 58.2487 144.143 59.0392C144.946 59.8168 145.348 60.9443 145.348 62.4217V68.7007H143.598V62.6744C143.598 61.6117 143.333 60.8017 142.801 60.2445C142.27 59.6742 141.544 59.3891 140.624 59.3891C139.691 59.3891 138.946 59.6807 138.389 60.2639C137.844 60.8471 137.572 61.696 137.572 62.8105V68.7007H135.803V58.0478H137.572V59.5641C137.922 59.0198 138.395 58.5986 138.991 58.3005C139.6 58.0024 140.268 57.8534 140.994 57.8534ZM152.456 55.1513C153.934 55.1513 155.21 55.4299 156.286 55.9872C157.374 56.5315 158.204 57.3156 158.774 58.3394C159.357 59.3632 159.649 60.5685 159.649 61.9552C159.649 63.3419 159.357 64.5471 158.774 65.571C158.204 66.5818 157.374 67.3594 156.286 67.9037C155.21 68.4351 153.934 68.7007 152.456 68.7007H148.238V55.1513H152.456ZM152.456 67.2428C154.206 67.2428 155.541 66.7827 156.461 65.8625C157.381 64.9294 157.841 63.627 157.841 61.9552C157.841 60.2704 157.374 58.955 156.441 58.0089C155.521 57.0628 154.193 56.5898 152.456 56.5898H150.007V67.2428H152.456ZM162.896 56.3177C162.559 56.3177 162.274 56.201 162.041 55.9677C161.807 55.7345 161.691 55.4493 161.691 55.1124C161.691 54.7754 161.807 54.4903 162.041 54.257C162.274 54.0238 162.559 53.9071 162.896 53.9071C163.22 53.9071 163.492 54.0238 163.712 54.257C163.946 54.4903 164.062 54.7754 164.062 55.1124C164.062 55.4493 163.946 55.7345 163.712 55.9677C163.492 56.201 163.22 56.3177 162.896 56.3177ZM163.751 58.0478V68.7007H161.982V58.0478H163.751ZM171.957 57.8534C173.253 57.8534 174.302 58.2487 175.106 59.0392C175.909 59.8168 176.311 60.9443 176.311 62.4217V68.7007H174.562V62.6744C174.562 61.6117 174.296 60.8017 173.764 60.2445C173.233 59.6742 172.507 59.3891 171.587 59.3891C170.654 59.3891 169.909 59.6807 169.352 60.2639C168.807 60.8471 168.535 61.696 168.535 62.8105V68.7007H166.766V58.0478H168.535V59.5641C168.885 59.0198 169.358 58.5986 169.954 58.3005C170.563 58.0024 171.231 57.8534 171.957 57.8534Z" fill="#838383"/>
</g>
</svg>
