<svg width="212" height="99" viewBox="0 0 212 99" fill="none" xmlns="http://www.w3.org/2000/svg">
<mask id="mask0_0_397" style="mask-type:alpha" maskUnits="userSpaceOnUse" x="0" y="0" width="212" height="99">
<rect x="0.34956" y="-0.34956" width="211.259" height="98.2147" rx="16.4293" transform="matrix(1 0 0 -1 0 98.2149)" stroke="url(#paint0_linear_0_397)" stroke-width="0.69912"/>
</mask>
<g mask="url(#mask0_0_397)">
</g>
<path d="M39.2112 29.067C27.9475 29.067 18.8252 38.1927 18.8252 49.4338C18.8252 60.6748 27.9596 69.8006 39.2112 69.8006C44.8646 69.8006 47.789 68.3744 51.1524 65.9448L48.2972 62.9472C45.696 64.6878 42.5746 65.7031 39.2112 65.7031C30.2099 65.7031 22.9145 58.4145 22.9145 49.4217C22.9145 40.4289 30.2099 33.1403 39.2112 33.1403C48.2125 33.1403 55.5079 40.4289 55.5079 49.4217C55.6409 53.8994 54.4674 55.9729 52.6889 58.5838L55.6409 61.4968C58.1332 58.1244 59.6093 53.9423 59.6093 49.4338C59.6093 38.1807 50.4749 29.067 39.2233 29.067H39.2112Z" fill="#5A5A5A"/>
<path d="M37.469 37.95C31.8674 38.784 27.5724 43.6189 27.5724 49.4449C27.5724 55.2709 32.7868 61.0727 39.2111 61.0727C45.6355 61.0727 50.8499 55.8632 50.8499 49.4449C50.8499 43.0266 46.4461 38.6632 40.7477 37.9258L40.5783 38.2038L41.3405 42.5915L36.4285 45.299L37.5779 38.2643L37.4811 37.95H37.469ZM39.2111 57.7488L35.134 53.2282L35.6058 50.3514L42.0785 46.7857L43.2037 53.2282L39.2232 57.7488H39.2111ZM41.5825 44.054L41.8123 45.3474L35.8841 48.6109L36.1381 47.0637L41.5946 44.0661L41.5825 44.054Z" fill="#838383"/>
<path d="M85.5968 47.2V58.5982H80.9993V47.3088C80.9993 44.5892 79.0031 43.3684 76.789 43.3684C74.575 43.3684 72.5788 44.5892 72.5788 47.3088V58.5982H67.9813V47.2C67.9813 43.876 70.4736 39.1258 76.789 39.1258C83.1045 39.1258 85.5968 43.864 85.5968 47.2Z" fill="#838383"/>
<path d="M101.555 52.6633H106.576C105.317 56.5312 101.906 58.9365 97.2718 58.9365C92.6381 58.9365 87.3511 54.9598 87.3511 49.025C87.3511 43.0902 91.3315 39.1982 97.2718 39.1982C103.212 39.1982 107.156 43.1386 107.156 49.025C107.156 54.9115 107.12 50.0524 107.084 50.5601H92.1058C92.6018 53.1951 94.5134 54.7302 97.2356 54.7302C99.9577 54.7302 100.647 54.0049 101.567 52.6633H101.555ZM102.063 46.3538C101.252 44.4803 99.5343 43.4045 97.2356 43.4045C94.9368 43.4045 93.2551 44.4803 92.4445 46.3538H102.051H102.063Z" fill="#838383"/>
<path d="M106.612 39.4633H111.899L115.649 45.1201L119.4 39.4633H124.687L118.372 49.0242L124.687 58.5852H119.4L115.649 52.9284L111.899 58.5852H106.612L112.927 49.0242L106.612 39.4633Z" fill="#838383"/>
<path d="M129.539 44.4564C129.539 43.6949 130.349 43.1993 131.837 43.1993C133.325 43.1993 135.394 43.7795 137.427 45.4596L139.883 41.906C138.201 40.528 135.709 39.0051 131.922 39.0051C128.135 39.0051 124.953 41.0357 124.953 44.5531C124.953 51.5515 135.37 49.5209 135.37 52.8207C135.37 56.1205 134.184 54.4645 132.612 54.4645C131.039 54.4645 128.704 53.703 127.095 52.168L124.639 55.7699C125.824 56.8457 128.426 58.6829 132.491 58.6829C136.556 58.6829 139.955 56.5798 139.955 52.6756C139.955 45.52 129.539 47.2848 129.539 44.4926V44.4564Z" fill="#5A5A5A"/>
<path d="M146.114 49.5796V43.7052L150.312 41.7713L148.461 37.9518L146.114 39.0517V31.6544H141.516V49.64C141.516 55.5265 144.843 58.7054 151.122 58.7054V54.4991C147.517 54.4991 146.101 53.0849 146.101 49.6038L146.114 49.5796Z" fill="#5A5A5A"/>
<path d="M161.624 39.0295C155.732 39.0295 151.739 42.9699 151.739 48.8563C151.739 54.7428 155.72 58.7678 161.273 58.7678C166.826 58.7678 166.015 57.7766 166.935 56.5921V58.4293H171.532V48.9409C171.532 43.0062 167.552 39.0295 161.612 39.0295H161.624ZM161.66 54.5615C158.442 54.5615 156.337 52.4583 156.337 48.9047C156.337 45.3511 158.442 43.2479 161.66 43.2479C164.878 43.2479 166.947 45.3511 166.947 48.9047C166.947 52.4583 164.842 54.5615 161.66 54.5615Z" fill="#5A5A5A"/>
<path d="M174.376 39.2939L174.34 43.5002V58.4157H178.937V47.0054L183.014 45.0957L181.224 41.2761L178.949 42.3398L178.973 39.2818C179.312 36.6468 180.812 35.571 183.946 35.571V31.3647C178.09 31.3647 174.799 34.1206 174.376 39.2818V39.2939Z" fill="#5A5A5A"/>
<path d="M193.83 35.583V31.3766C187.974 31.3766 184.684 34.1325 184.26 39.2937L184.224 43.5001V58.4156H188.821V46.9932L192.874 45.0956L191.084 41.276L188.833 42.3276L188.858 39.2937C189.196 36.6587 190.697 35.583 193.83 35.583Z" fill="#5A5A5A"/>
<defs>
<linearGradient id="paint0_linear_0_397" x1="25.0302" y1="1.79245e-05" x2="191.693" y2="67.0298" gradientUnits="userSpaceOnUse">
<stop stop-color="#2EC4F3"/>
<stop offset="1" stop-color="#BFD633"/>
</linearGradient>
</defs>
</svg>
