<svg width="100" height="100" viewBox="0 0 100 100" fill="none" xmlns="http://www.w3.org/2000/svg">
<path d="M90 50C90 72.0914 72.0914 90 50 90C27.9086 90 10 72.0914 10 50C10 27.9086 27.9086 10 50 10C72.0914 10 90 27.9086 90 50Z" stroke="black" stroke-width="3"/>
<path d="M59.5 42.5112C59.5 43.3396 60.1716 44.0112 61 44.0112C61.8284 44.0112 62.5 43.3396 62.5 42.5112H59.5ZM39.5 57.4906C39.5 56.6622 38.8284 55.9906 38 55.9906C37.1716 55.9906 36.5 56.6622 36.5 57.4906H39.5ZM51.5 30C51.5 29.1716 50.8284 28.5 50 28.5C49.1716 28.5 48.5 29.1716 48.5 30L51.5 30ZM48.5 70C48.5 70.8284 49.1716 71.5 50 71.5C50.8284 71.5 51.5 70.8284 51.5 70H48.5ZM50 47.9247C46.0956 47.9247 43.7111 47.3136 42.3345 46.392C41.0863 45.5564 40.5 44.351 40.5 42.5112H37.5C37.5 45.1259 38.4137 47.3774 40.6655 48.8849C42.7889 50.3064 45.9044 50.9247 50 50.9247V47.9247ZM40.5 42.5112C40.5 40.8766 41.4004 39.2701 43.1088 38.0174C44.8163 36.7654 47.2478 35.9453 50 35.9453V32.9453C46.6771 32.9453 43.6086 33.9309 41.3348 35.5981C39.062 37.2647 37.5 39.6911 37.5 42.5112H40.5ZM50 35.9453C52.7522 35.9453 55.1837 36.7654 56.8912 38.0174C58.5996 39.2701 59.5 40.8766 59.5 42.5112H62.5C62.5 39.6911 60.938 37.2647 58.6652 35.5981C56.3914 33.9309 53.3229 32.9453 50 32.9453V35.9453ZM60.5 57.4906C60.5 59.8024 59.4706 61.3489 57.7164 62.396C55.8712 63.4975 53.1785 64.0564 50 64.0564V67.0564C53.4489 67.0564 56.7562 66.4631 59.2541 64.972C61.8431 63.4265 63.5 60.94 63.5 57.4906H60.5ZM50 64.0564C46.9436 64.0564 44.2439 63.2211 42.3515 61.9491C40.4497 60.6708 39.5 59.0661 39.5 57.4906H36.5C36.5 60.3697 38.2366 62.7979 40.6779 64.4389C43.1287 66.0862 46.429 67.0564 50 67.0564V64.0564ZM50 50.9247C53.9164 50.9247 56.5559 51.5005 58.1842 52.5559C59.676 53.5229 60.5 55.0129 60.5 57.4906H63.5C63.5 54.2069 62.324 51.6641 59.8158 50.0384C57.4441 48.5012 54.0836 47.9247 50 47.9247V50.9247ZM51.5 34.4453L51.5 30L48.5 30L48.5 34.4453L51.5 34.4453ZM48.5 65.5564V70H51.5V65.5564H48.5Z" fill="black"/>
</svg>
