<svg width="100" height="100" viewBox="0 0 100 100" fill="none" xmlns="http://www.w3.org/2000/svg">
<path d="M50.3621 72.7191C47.7927 75.8502 44.5992 75.6006 42.5811 72.1366C41.312 72.8127 39.9597 73.104 38.5554 72.6047C37.1199 72.095 36.2669 71.0027 35.7988 69.5984C31.8147 70.7843 29.3389 68.2773 29.651 64.8133C27.9346 64.7197 26.4367 64.1788 25.5317 62.556C24.6475 60.9645 24.9596 59.4353 25.8854 57.8334C23.6073 56.4395 21.3708 55.0767 19.0822 53.6828C18.6662 54.4734 18.3229 55.2016 17.9172 55.8985C17.241 57.0636 16.2112 57.4381 15.0357 56.8035C12.508 55.4304 10.001 54.0157 7.51484 52.5698C6.39139 51.9144 6.17294 50.8846 6.79708 49.6155C9.41847 44.3103 12.0607 39.0155 14.6925 33.7208C16.024 31.0369 17.3659 28.3531 18.6974 25.6589C19.5503 23.9322 20.5698 23.5993 22.2237 24.5147C24.5331 25.7838 26.832 27.0633 29.1413 28.3427C30.7329 29.2269 31.0137 30.1007 30.2127 31.7339C29.9631 32.2332 29.7446 32.7429 29.4742 33.3151C31.1906 34.0328 32.7925 33.8768 34.3113 33.0238C36.3293 31.9003 38.3162 30.7249 40.303 29.5286C42.8204 28.0099 45.4522 27.7394 48.2504 28.634C48.7185 28.7796 49.301 28.8213 49.7483 28.6756C53.3683 27.5002 56.8531 27.8122 60.2443 29.4974C62.5328 30.6313 64.8109 31.7755 67.1514 32.7949C68.1085 33.211 69.2111 33.3047 70.2513 33.5439C70.3242 33.4295 70.397 33.3151 70.4698 33.2006C70.2097 32.6389 69.9601 32.0668 69.6896 31.5051C69.0967 30.2568 69.3151 29.2581 70.4802 28.5924C73.0496 27.1153 75.6397 25.6901 78.2403 24.2858C79.447 23.6409 80.5393 24.109 81.2154 25.4717C83.2751 29.6014 85.3243 33.752 87.3736 37.8817C89.2668 41.6889 91.1496 45.5066 93.0533 49.3139C93.9271 51.0719 93.6878 51.8936 91.9506 52.8923C89.7349 54.1613 87.5088 55.42 85.2827 56.6579C83.8056 57.4797 82.7861 57.178 81.9644 55.6697C81.4963 54.8271 81.0698 53.9533 80.5705 52.9755C79.1453 53.6932 77.793 54.3902 76.4511 55.0767C78.1987 59.1441 75.6606 61.8695 72.2174 61.8175C71.354 65.5727 70.6466 66.1864 66.8186 66.5089C66.1112 69.7649 65.3206 70.4722 61.7214 70.9715C61.6798 72.4487 61.3157 73.8322 60.1195 74.862C58.6735 76.1207 56.6659 76.3807 54.8975 75.4133C53.3787 74.5811 51.912 73.6449 50.3621 72.7191ZM28.5796 34.9274C25.6461 40.7111 22.7647 46.3908 19.852 52.1225C22.255 53.5788 24.5331 54.9519 26.7904 56.325C30.2856 51.8312 32.4388 51.6024 35.4035 55.2744C37.9729 53.35 41.5825 53.9845 42.5499 58.0518C46.2948 57.7501 47.5951 58.8424 48.3128 62.9097C48.448 62.9305 48.6041 62.9617 48.7601 62.9721C52.4633 63.2218 54.1277 66.5193 52.1409 69.6816C51.8496 70.1497 51.5687 70.6386 51.2359 71.19C52.7754 72.1158 54.2005 73.0312 55.6777 73.8738C57.0196 74.6331 58.6215 74.2275 59.4433 73C60.2859 71.7413 59.9946 70.0769 58.7672 69.0991C58.0702 68.5478 57.3004 68.0693 56.6555 67.4555C56.1458 66.9666 54.9287 66.5921 55.7609 65.5935C56.5099 64.6989 57.134 65.6663 57.7061 66.0616C58.7672 66.8106 59.7554 67.6532 60.7956 68.423C62.1479 69.4216 63.573 69.2967 64.4468 68.1421C65.2894 67.0394 65.0606 65.6455 63.8227 64.6053C62.46 63.461 61.0557 62.348 59.6826 61.2141C59.1729 60.7876 58.3615 60.3611 58.9856 59.5706C59.6097 58.78 60.2027 59.4353 60.7436 59.8514C62.5328 61.2453 64.3116 62.6601 66.1216 64.0228C67.4531 65.0318 68.8574 64.8966 69.7936 63.7419C70.6778 62.6497 70.4698 61.1205 69.2423 60.0907C67.9004 58.9776 66.5169 57.9166 65.1542 56.8347C64.2388 56.1066 63.2714 55.42 62.4288 54.6086C62.1791 54.3694 62.2519 53.7765 62.1791 53.35C62.6056 53.3396 63.0633 53.2459 63.469 53.3396C63.7499 53.402 63.9891 53.714 64.2388 53.9117C66.5273 55.7217 68.8158 57.5421 71.1147 59.3313C72.415 60.3403 73.8714 60.2051 74.7868 59.04C75.6397 57.9478 75.4525 56.4187 74.2354 55.4928C67.6924 50.4997 61.1493 45.517 54.5646 40.5759C52.2761 38.8595 49.8211 39.1092 47.7199 41.0752C46.3052 42.4067 44.9008 43.759 43.4757 45.0801C41.5929 46.8173 38.8987 47.1814 36.8286 46.0163C35.2163 45.1113 34.717 43.5302 35.5491 41.8658C36.4541 40.0558 37.432 38.277 38.2954 36.4462C38.9715 35.0314 39.9597 34.0016 41.3328 33.2526C43.0908 32.2956 44.7864 31.2346 46.5132 30.2256C44.9529 29.7471 43.4861 29.7783 42.1234 30.5064C40.6255 31.3074 39.1692 32.1916 37.692 33.0342C36.5686 33.6791 35.4763 34.3969 34.2905 34.917C32.4388 35.7492 30.504 35.5828 28.5588 34.917L28.5796 34.9274ZM79.7903 51.3943C76.9608 45.8291 74.1938 40.3782 71.3852 34.8338C69.0447 35.51 66.9954 34.7506 64.967 33.7104C62.8033 32.5973 60.6188 31.5363 58.3823 30.5792C55.4488 29.3102 52.4113 29.2477 49.5403 30.6625C46.7525 32.046 44.0895 33.6895 41.4057 35.2811C40.9167 35.5724 40.5007 36.1133 40.2198 36.623C39.1588 38.5786 38.1497 40.5655 37.1615 42.5627C36.6622 43.5614 36.9847 44.2999 38.0457 44.664C39.5853 45.1945 41.0208 44.9865 42.2379 43.863C43.7046 42.5211 45.1297 41.1376 46.5756 39.7749C49.301 37.2263 52.7962 37.0183 55.7505 39.2652C61.8567 43.8942 67.9628 48.5129 74.0482 53.1731C74.7139 53.6828 75.2445 53.8077 75.9934 53.3604C77.1793 52.6738 78.4276 52.0913 79.7903 51.3839V51.3943ZM71.1355 30.184C71.1355 30.4024 71.1251 30.4544 71.1355 30.4856C75.2133 38.537 79.3014 46.5884 83.3583 54.6607C83.7224 55.3784 84.0968 55.3472 84.7002 55.0039C86.7702 53.8181 88.8507 52.6322 90.952 51.4983C91.7322 51.0823 91.857 50.6974 91.4409 49.886C88.3098 43.6654 85.2307 37.424 82.1204 31.1826C81.205 29.3518 80.2792 27.521 79.3222 25.6277C76.4823 27.2089 73.8089 28.6964 71.1251 30.184H71.1355ZM29.0061 30.2568C26.2182 28.7068 23.4824 27.1881 20.757 25.6797C20.5698 25.8982 20.4762 25.9814 20.4241 26.0854C16.4401 34.0952 12.456 42.1154 8.45105 50.1148C8.08697 50.8534 8.39904 51.1239 8.96077 51.4255C11.0204 52.5594 13.0905 53.6724 15.0981 54.8895C16.0136 55.4408 16.388 55.1912 16.8249 54.3174C18.7286 50.4685 20.6946 46.6613 22.6398 42.8332C24.7411 38.6827 26.8424 34.5321 29.0061 30.2672V30.2568ZM34.2072 68.1837C34.4985 68.0069 35.3099 67.7884 35.6532 67.2683C37.3279 64.6989 38.9299 62.0775 40.4486 59.4145C41.0728 58.3223 40.5839 56.9596 39.5748 56.325C38.5554 55.6905 37.1095 55.8569 36.4333 56.8972C34.769 59.4665 33.1254 62.0671 31.6379 64.7509C30.7641 66.3321 32.0123 68.1629 34.2072 68.1733V68.1837ZM40.1782 71.346C40.8231 70.9195 41.6657 70.6282 42.061 70.0353C43.5069 67.8924 44.8384 65.6663 46.1387 63.4298C46.8253 62.2544 46.4196 60.8813 45.2857 60.1323C44.2143 59.4145 42.758 59.5185 42.0298 60.6212C40.5007 62.9097 39.0027 65.2294 37.7232 67.6532C36.8598 69.2863 38.1913 71.1172 40.1782 71.3564V71.346ZM46.9709 73.1872C47.283 73 48.0215 72.7815 48.3856 72.2822C49.3634 70.9507 50.2372 69.536 51.0278 68.0797C51.6104 67.0186 51.1631 65.7495 50.1852 65.1046C49.1658 64.4284 47.7615 64.5533 47.0229 65.5727C46.0555 66.9146 45.1401 68.3085 44.3807 69.7753C43.5797 71.3148 44.8904 73.2184 46.9709 73.1872ZM29.6198 62.9929C29.9319 62.7849 30.7017 62.4936 31.1177 61.9319C32.0332 60.7044 32.8341 59.3833 33.5727 58.031C34.2176 56.8451 33.8015 55.5449 32.6885 54.8687C31.6275 54.2134 30.3168 54.3798 29.547 55.4512C28.6108 56.7619 27.737 58.1454 26.988 59.5706C26.1766 61.0997 27.4457 62.9929 29.6198 62.9929Z" fill="black" stroke="black" stroke-width="0.5"/>
</svg>
