<svg width="100" height="100" viewBox="0 0 100 100" fill="none" xmlns="http://www.w3.org/2000/svg">
<path d="M10 24L37.6521 39.6985C47.7546 45.4338 52.2454 45.4338 62.3479 39.6985L90 24" stroke="black" stroke-width="3" stroke-linejoin="round"/>
<path d="M48 81.9835C46.1348 81.9591 40.2673 82.0306 38.3953 81.9835C25.8013 81.6665 19.5043 81.508 14.9798 76.9576C10.4553 72.4072 10.3246 66.2644 10.0631 53.9788C9.97898 50.0285 9.97898 46.1015 10.0631 42.1512C10.3245 29.8657 10.4553 23.7229 14.9798 19.1725C19.5043 14.622 25.8013 14.4635 38.3953 14.1465C46.1572 13.9511 53.8428 13.9512 61.6047 14.1466C74.1987 14.4636 80.4957 14.6221 85.0202 19.1725C89.5447 23.7229 89.6754 29.8657 89.9369 42.1513C89.9931 44.7893 90.0117 43.417 89.9929 46.0481" stroke="black" stroke-width="3" stroke-linecap="round" stroke-linejoin="round"/>
<path d="M62.0599 59.5465C66.3505 56.9877 70.0954 58.0188 72.345 59.6614C73.2674 60.3348 73.7286 60.6716 74 60.6716C74.2714 60.6716 74.7326 60.3348 75.655 59.6614C77.9046 58.0188 81.6495 56.9877 85.9401 59.5465C91.5711 62.9046 92.8452 73.9831 79.8568 83.3297C77.3829 85.1099 76.1459 86 74 86C71.8541 86 70.6171 85.1099 68.1432 83.3297C55.1548 73.9831 56.4289 62.9046 62.0599 59.5465Z" stroke="black" stroke-width="3" stroke-linecap="round"/>
</svg>
