<svg width="100" height="100" viewBox="0 0 100 100" fill="none" xmlns="http://www.w3.org/2000/svg">
<path d="M22.7203 63.1855C17.69 66.134 4.50085 72.1544 12.5339 79.688C16.458 83.3681 20.8284 86 26.3231 86H57.6769C63.1716 86 67.542 83.3681 71.4661 79.688C79.4991 72.1544 66.31 66.134 61.2797 63.1855C49.4838 56.2715 34.5162 56.2715 22.7203 63.1855Z" stroke="black" stroke-width="3" stroke-linecap="round" stroke-linejoin="round"/>
<path d="M58 30C58 38.8366 50.8366 46 42 46C33.1634 46 26 38.8366 26 30C26 21.1634 33.1634 14 42 14C50.8366 14 58 21.1634 58 30Z" stroke="black" stroke-width="3"/>
<path d="M80.0732 15.733L82.1849 19.9915C82.4729 20.5842 83.2408 21.1528 83.8887 21.2617L87.7163 21.9029C90.164 22.3142 90.74 24.1047 88.9762 25.871L86.0005 28.8713C85.4966 29.3794 85.2206 30.3593 85.3766 31.061L86.2285 34.775C86.9004 37.7148 85.3526 38.852 82.7729 37.3155L79.1853 35.1742C78.5373 34.7871 77.4695 34.7871 76.8095 35.1742L73.2219 37.3155C70.6542 38.852 69.0944 37.7027 69.7663 34.775L70.6182 31.061C70.7742 30.3593 70.4982 29.3794 69.9943 28.8713L67.0186 25.871C65.2668 24.1047 65.8307 22.3142 68.2785 21.9029L72.106 21.2617C72.742 21.1528 73.5099 20.5842 73.7979 19.9915L75.9096 15.733C77.0615 13.4223 78.9333 13.4223 80.0732 15.733Z" stroke="black" stroke-width="3" stroke-linecap="round" stroke-linejoin="round"/>
</svg>
