<svg width="100" height="100" viewBox="0 0 100 100" fill="none" xmlns="http://www.w3.org/2000/svg">
<path d="M58 74C58 74 62 74 66 82C66 82 78.7059 62 90 58" stroke="black" stroke-width="3" stroke-linecap="round" stroke-linejoin="round"/>
<path d="M54 90H28.3635C22.182 90 17.2652 86.9921 12.8506 82.7863C3.81346 74.1765 18.6512 67.296 24.3103 63.9263C37.0236 56.3563 53.0117 56.0385 66 62.9729" stroke="black" stroke-width="3" stroke-linecap="round" stroke-linejoin="round"/>
<path d="M68 28C68 37.9411 59.9411 46 50 46C40.0589 46 32 37.9411 32 28C32 18.0589 40.0589 10 50 10C59.9411 10 68 18.0589 68 28Z" stroke="black" stroke-width="3"/>
</svg>
