<svg width="48" height="47" viewBox="0 0 48 47" fill="none" xmlns="http://www.w3.org/2000/svg">
<path d="M12.5757 0H34.5386C35.5704 0 36.9685 3.51343 34.0123 4.07063C32.1292 4.42661 25.8711 3.0233 28.4094 6.12916H38.6247C38.8775 6.12916 39.9557 7.41381 39.9248 7.94521C40.1931 8.59527 38.9961 10.2153 38.6247 10.2153H19.2157L18.4521 10.9891L19.2157 12.2583H42.7108C42.9636 12.2583 44.0418 13.543 44.0109 14.0744C44.2792 14.7244 43.0822 16.3444 42.7108 16.3444H25.3448L24.5813 17.1183L25.3448 18.3875H45.7753C46.0281 18.3875 47.1064 19.6721 47.0755 20.2035C47.3438 20.8536 46.1468 22.4736 45.7753 22.4736H33.517L32.7535 23.2475L33.517 24.5166H42.7108C42.9636 24.5166 44.0418 25.8013 44.0109 26.3327C44.2792 26.9827 43.0822 28.6027 42.7108 28.6027H30.4524L29.6889 29.3766L30.4524 30.6458H38.6247C38.8775 30.6458 39.9557 31.9304 39.9248 32.4618C40.1931 33.1119 38.9961 34.7319 38.6247 34.7319H30.4524C28.0637 37.5746 33.0321 36.4706 34.4354 36.8781C36.7931 37.5592 35.5498 40.8611 34.5386 40.8611H23.3018L22.5382 42.1302C22.9922 44.2197 32.1705 40.9488 31.7526 45.1742C31.7835 45.7056 30.7052 46.9902 30.4524 46.9902H16.6618C15.6455 46.9902 14.4124 43.6728 16.765 43.0073C17.6421 42.7597 20.846 43.322 20.49 41.6349C20.0463 39.53 10.8938 42.837 11.2756 38.591C11.5903 35.0776 19.2415 38.4723 16.6618 34.7319H8.48963C8.23683 34.7319 7.15855 33.4473 7.1895 32.9159C6.92123 32.2658 8.11817 30.6458 8.48963 30.6458H16.6618L17.4254 29.8719L16.6618 28.6027H4.40352C4.15072 28.6027 3.07244 27.3181 3.1034 26.7867C2.83512 26.1366 4.03206 24.5166 4.40352 24.5166H29.9417L30.7052 23.7427L29.9417 22.4736H1.33894C1.08614 22.4736 0.00786474 21.1889 0.0388201 20.6575C-0.22946 20.0075 0.967481 18.3875 1.33894 18.3875H21.7695L22.533 17.6136L21.7695 16.3444H4.40352C4.15072 16.3444 3.07244 15.0598 3.1034 14.5284C2.83512 13.8783 4.03206 12.2583 4.40352 12.2583H15.6403L16.4039 10.9891C15.9499 8.89966 6.77161 12.1706 7.1895 7.94521C7.15855 7.41381 8.23683 6.12916 8.48963 6.12916H24.8341L25.5976 5.35527L24.8341 4.08611H12.5757C12.3229 4.08611 11.2447 2.80146 11.2756 2.27006L12.5757 0ZM22.3989 28.7059C17.6988 29.7326 18.7358 37.9822 24.7205 36.6769C29.4206 35.6502 28.3836 27.4006 22.3989 28.7059Z" fill="black"/>
</svg>
