<svg width="189" height="2" viewBox="0 0 189 2" fill="none" xmlns="http://www.w3.org/2000/svg">
<path d="M1.96094 0H5.96094C6.23698 0 6.47136 0.0989587 6.66927 0.291667C6.86198 0.489584 6.96094 0.723959 6.96094 1C6.96094 1.27604 6.86198 1.51042 6.66927 1.70833C6.47136 1.90104 6.23698 2 5.96094 2H1.96094C1.6849 2 1.45052 1.90104 1.2526 1.70833C1.0599 1.51042 0.960938 1.27604 0.960938 1C0.960938 0.723959 1.0599 0.489584 1.2526 0.291667C1.45052 0.0989587 1.6849 0 1.96094 0ZM9.96094 0H13.9609C14.237 0 14.4714 0.0989587 14.6693 0.291667C14.862 0.489584 14.9609 0.723959 14.9609 1C14.9609 1.27604 14.862 1.51042 14.6693 1.70833C14.4714 1.90104 14.237 2 13.9609 2H9.96094C9.6849 2 9.45052 1.90104 9.2526 1.70833C9.0599 1.51042 8.96094 1.27604 8.96094 1C8.96094 0.723959 9.0599 0.489584 9.2526 0.291667C9.45052 0.0989587 9.6849 0 9.96094 0ZM17.9609 0H21.9609C22.237 0 22.4714 0.0989587 22.6693 0.291667C22.862 0.489584 22.9609 0.723959 22.9609 1C22.9609 1.27604 22.862 1.51042 22.6693 1.70833C22.4714 1.90104 22.237 2 21.9609 2H17.9609C17.6849 2 17.4505 1.90104 17.2526 1.70833C17.0599 1.51042 16.9609 1.27604 16.9609 1C16.9609 0.723959 17.0599 0.489584 17.2526 0.291667C17.4505 0.0989587 17.6849 0 17.9609 0ZM25.9609 0H29.9609C30.237 0 30.4714 0.0989587 30.6693 0.291667C30.862 0.489584 30.9609 0.723959 30.9609 1C30.9609 1.27604 30.862 1.51042 30.6693 1.70833C30.4714 1.90104 30.237 2 29.9609 2H25.9609C25.6849 2 25.4505 1.90104 25.2526 1.70833C25.0599 1.51042 24.9609 1.27604 24.9609 1C24.9609 0.723959 25.0599 0.489584 25.2526 0.291667C25.4505 0.0989587 25.6849 0 25.9609 0ZM33.9609 0H37.9609C38.237 0 38.4714 0.0989587 38.6693 0.291667C38.862 0.489584 38.9609 0.723959 38.9609 1C38.9609 1.27604 38.862 1.51042 38.6693 1.70833C38.4714 1.90104 38.237 2 37.9609 2H33.9609C33.6849 2 33.4505 1.90104 33.2526 1.70833C33.0599 1.51042 32.9609 1.27604 32.9609 1C32.9609 0.723959 33.0599 0.489584 33.2526 0.291667C33.4505 0.0989587 33.6849 0 33.9609 0ZM41.9609 0H45.9609C46.237 0 46.4714 0.0989587 46.6693 0.291667C46.862 0.489584 46.9609 0.723959 46.9609 1C46.9609 1.27604 46.862 1.51042 46.6693 1.70833C46.4714 1.90104 46.237 2 45.9609 2H41.9609C41.6849 2 41.4505 1.90104 41.2526 1.70833C41.0599 1.51042 40.9609 1.27604 40.9609 1C40.9609 0.723959 41.0599 0.489584 41.2526 0.291667C41.4505 0.0989587 41.6849 0 41.9609 0ZM49.9609 0H53.9609C54.237 0 54.4714 0.0989587 54.6693 0.291667C54.862 0.489584 54.9609 0.723959 54.9609 1C54.9609 1.27604 54.862 1.51042 54.6693 1.70833C54.4714 1.90104 54.237 2 53.9609 2H49.9609C49.6849 2 49.4505 1.90104 49.2526 1.70833C49.0599 1.51042 48.9609 1.27604 48.9609 1C48.9609 0.723959 49.0599 0.489584 49.2526 0.291667C49.4505 0.0989587 49.6849 0 49.9609 0ZM57.9609 0H61.9609C62.237 0 62.4714 0.0989587 62.6693 0.291667C62.862 0.489584 62.9609 0.723959 62.9609 1C62.9609 1.27604 62.862 1.51042 62.6693 1.70833C62.4714 1.90104 62.237 2 61.9609 2H57.9609C57.6849 2 57.4505 1.90104 57.2526 1.70833C57.0599 1.51042 56.9609 1.27604 56.9609 1C56.9609 0.723959 57.0599 0.489584 57.2526 0.291667C57.4505 0.0989587 57.6849 0 57.9609 0ZM65.9609 0H69.9609C70.237 0 70.4714 0.0989587 70.6693 0.291667C70.862 0.489584 70.9609 0.723959 70.9609 1C70.9609 1.27604 70.862 1.51042 70.6693 1.70833C70.4714 1.90104 70.237 2 69.9609 2H65.9609C65.6849 2 65.4505 1.90104 65.2526 1.70833C65.0599 1.51042 64.9609 1.27604 64.9609 1C64.9609 0.723959 65.0599 0.489584 65.2526 0.291667C65.4505 0.0989587 65.6849 0 65.9609 0ZM73.9609 0H77.9609C78.237 0 78.4714 0.0989587 78.6693 0.291667C78.862 0.489584 78.9609 0.723959 78.9609 1C78.9609 1.27604 78.862 1.51042 78.6693 1.70833C78.4714 1.90104 78.237 2 77.9609 2H73.9609C73.6849 2 73.4505 1.90104 73.2526 1.70833C73.0599 1.51042 72.9609 1.27604 72.9609 1C72.9609 0.723959 73.0599 0.489584 73.2526 0.291667C73.4505 0.0989587 73.6849 0 73.9609 0ZM81.9609 0H85.9609C86.237 0 86.4714 0.0989587 86.6693 0.291667C86.862 0.489584 86.9609 0.723959 86.9609 1C86.9609 1.27604 86.862 1.51042 86.6693 1.70833C86.4714 1.90104 86.237 2 85.9609 2H81.9609C81.6849 2 81.4505 1.90104 81.2526 1.70833C81.0599 1.51042 80.9609 1.27604 80.9609 1C80.9609 0.723959 81.0599 0.489584 81.2526 0.291667C81.4505 0.0989587 81.6849 0 81.9609 0ZM89.9609 0H93.9609C94.237 0 94.4714 0.0989587 94.6693 0.291667C94.862 0.489584 94.9609 0.723959 94.9609 1C94.9609 1.27604 94.862 1.51042 94.6693 1.70833C94.4714 1.90104 94.237 2 93.9609 2H89.9609C89.6849 2 89.4505 1.90104 89.2526 1.70833C89.0599 1.51042 88.9609 1.27604 88.9609 1C88.9609 0.723959 89.0599 0.489584 89.2526 0.291667C89.4505 0.0989587 89.6849 0 89.9609 0ZM97.9609 0H101.961C102.237 0 102.471 0.0989587 102.669 0.291667C102.862 0.489584 102.961 0.723959 102.961 1C102.961 1.27604 102.862 1.51042 102.669 1.70833C102.471 1.90104 102.237 2 101.961 2H97.9609C97.6849 2 97.4505 1.90104 97.2526 1.70833C97.0599 1.51042 96.9609 1.27604 96.9609 1C96.9609 0.723959 97.0599 0.489584 97.2526 0.291667C97.4505 0.0989587 97.6849 0 97.9609 0ZM105.961 0H109.961C110.237 0 110.471 0.0989587 110.669 0.291667C110.862 0.489584 110.961 0.723959 110.961 1C110.961 1.27604 110.862 1.51042 110.669 1.70833C110.471 1.90104 110.237 2 109.961 2H105.961C105.685 2 105.451 1.90104 105.253 1.70833C105.06 1.51042 104.961 1.27604 104.961 1C104.961 0.723959 105.06 0.489584 105.253 0.291667C105.451 0.0989587 105.685 0 105.961 0ZM113.961 0H117.961C118.237 0 118.471 0.0989587 118.669 0.291667C118.862 0.489584 118.961 0.723959 118.961 1C118.961 1.27604 118.862 1.51042 118.669 1.70833C118.471 1.90104 118.237 2 117.961 2H113.961C113.685 2 113.451 1.90104 113.253 1.70833C113.06 1.51042 112.961 1.27604 112.961 1C112.961 0.723959 113.06 0.489584 113.253 0.291667C113.451 0.0989587 113.685 0 113.961 0ZM121.961 0H125.961C126.237 0 126.471 0.0989587 126.669 0.291667C126.862 0.489584 126.961 0.723959 126.961 1C126.961 1.27604 126.862 1.51042 126.669 1.70833C126.471 1.90104 126.237 2 125.961 2H121.961C121.685 2 121.451 1.90104 121.253 1.70833C121.06 1.51042 120.961 1.27604 120.961 1C120.961 0.723959 121.06 0.489584 121.253 0.291667C121.451 0.0989587 121.685 0 121.961 0ZM129.961 0H133.961C134.237 0 134.471 0.0989587 134.669 0.291667C134.862 0.489584 134.961 0.723959 134.961 1C134.961 1.27604 134.862 1.51042 134.669 1.70833C134.471 1.90104 134.237 2 133.961 2H129.961C129.685 2 129.451 1.90104 129.253 1.70833C129.06 1.51042 128.961 1.27604 128.961 1C128.961 0.723959 129.06 0.489584 129.253 0.291667C129.451 0.0989587 129.685 0 129.961 0ZM137.961 0H141.961C142.237 0 142.471 0.0989587 142.669 0.291667C142.862 0.489584 142.961 0.723959 142.961 1C142.961 1.27604 142.862 1.51042 142.669 1.70833C142.471 1.90104 142.237 2 141.961 2H137.961C137.685 2 137.451 1.90104 137.253 1.70833C137.06 1.51042 136.961 1.27604 136.961 1C136.961 0.723959 137.06 0.489584 137.253 0.291667C137.451 0.0989587 137.685 0 137.961 0ZM145.961 0H149.961C150.237 0 150.471 0.0989587 150.669 0.291667C150.862 0.489584 150.961 0.723959 150.961 1C150.961 1.27604 150.862 1.51042 150.669 1.70833C150.471 1.90104 150.237 2 149.961 2H145.961C145.685 2 145.451 1.90104 145.253 1.70833C145.06 1.51042 144.961 1.27604 144.961 1C144.961 0.723959 145.06 0.489584 145.253 0.291667C145.451 0.0989587 145.685 0 145.961 0ZM153.961 0H157.961C158.237 0 158.471 0.0989587 158.669 0.291667C158.862 0.489584 158.961 0.723959 158.961 1C158.961 1.27604 158.862 1.51042 158.669 1.70833C158.471 1.90104 158.237 2 157.961 2H153.961C153.685 2 153.451 1.90104 153.253 1.70833C153.06 1.51042 152.961 1.27604 152.961 1C152.961 0.723959 153.06 0.489584 153.253 0.291667C153.451 0.0989587 153.685 0 153.961 0ZM161.961 0H165.961C166.237 0 166.471 0.0989587 166.669 0.291667C166.862 0.489584 166.961 0.723959 166.961 1C166.961 1.27604 166.862 1.51042 166.669 1.70833C166.471 1.90104 166.237 2 165.961 2H161.961C161.685 2 161.451 1.90104 161.253 1.70833C161.06 1.51042 160.961 1.27604 160.961 1C160.961 0.723959 161.06 0.489584 161.253 0.291667C161.451 0.0989587 161.685 0 161.961 0ZM169.961 0H173.961C174.237 0 174.471 0.0989587 174.669 0.291667C174.862 0.489584 174.961 0.723959 174.961 1C174.961 1.27604 174.862 1.51042 174.669 1.70833C174.471 1.90104 174.237 2 173.961 2H169.961C169.685 2 169.451 1.90104 169.253 1.70833C169.06 1.51042 168.961 1.27604 168.961 1C168.961 0.723959 169.06 0.489584 169.253 0.291667C169.451 0.0989587 169.685 0 169.961 0ZM177.961 0H181.961C182.237 0 182.471 0.0989587 182.669 0.291667C182.862 0.489584 182.961 0.723959 182.961 1C182.961 1.27604 182.862 1.51042 182.669 1.70833C182.471 1.90104 182.237 2 181.961 2H177.961C177.685 2 177.451 1.90104 177.253 1.70833C177.06 1.51042 176.961 1.27604 176.961 1C176.961 0.723959 177.06 0.489584 177.253 0.291667C177.451 0.0989587 177.685 0 177.961 0ZM185.961 0H187.82C188.096 0 188.336 0.0989587 188.529 0.291667C188.727 0.489584 188.82 0.723959 188.82 1C188.82 1.27604 188.727 1.51042 188.529 1.70833C188.336 1.90104 188.096 2 187.82 2H185.961C185.685 2 185.451 1.90104 185.253 1.70833C185.06 1.51042 184.961 1.27604 184.961 1C184.961 0.723959 185.06 0.489584 185.253 0.291667C185.451 0.0989587 185.685 0 185.961 0Z" fill="white"/>
</svg>
