<svg width="426" height="345" viewBox="0 0 426 345" fill="none" xmlns="http://www.w3.org/2000/svg">
<path d="M372.71 329.939C372.71 333.573 289.294 336.521 186.361 336.521C83.4275 336.521 0 333.573 0 329.939C0 326.305 83.4161 323.357 186.361 323.357C289.305 323.357 372.71 326.305 372.71 329.939Z" fill="#CCCCCC"/>
<path d="M172.957 270.771C172.957 270.771 182.007 309.736 178.065 316.135C172.911 324.511 117.994 329.562 117.994 329.562H239.118C239.118 329.562 254.293 325.3 249.734 313.096C246.203 303.657 229.257 270.816 229.257 270.816L172.957 270.771Z" fill="white" stroke="#263238" stroke-width="1.14269" stroke-linecap="round" stroke-linejoin="round"/>
<path d="M170.294 270.771C170.294 270.771 179.962 310.056 175.414 316.135C170.866 322.214 117.994 326.865 117.994 326.865H239.667C239.667 326.865 249.894 322.729 247.049 313.153C244.203 303.577 226.583 270.874 226.583 270.874L170.294 270.771Z" fill="white" stroke="#263238" stroke-width="1.14269" stroke-linecap="round" stroke-linejoin="round"/>
<path d="M226.583 270.771H170.294C170.294 270.771 176.008 294.047 176.579 307.542H244.946C239.416 294.573 226.583 270.771 226.583 270.771Z" fill="#263238" stroke="#263238" stroke-width="1.14269" stroke-linecap="round" stroke-linejoin="round"/>
<path d="M239.096 327.048H117.994V329.551H239.096V327.048Z" fill="white" stroke="#263238" stroke-width="1.14269" stroke-linecap="round" stroke-linejoin="round"/>
<path d="M375.567 0.571289H29.5616C24.2099 0.571289 19.8716 4.90964 19.8716 10.2613V264.92C19.8716 270.272 24.2099 274.61 29.5616 274.61H375.567C380.919 274.61 385.257 270.272 385.257 264.92V10.2613C385.257 4.90964 380.919 0.571289 375.567 0.571289Z" fill="white" stroke="#263238" stroke-width="1.14269" stroke-linecap="round" stroke-linejoin="round"/>
<path d="M366.951 0.571289H20.9454C15.5937 0.571289 11.2554 4.90964 11.2554 10.2613V264.92C11.2554 270.272 15.5937 274.61 20.9454 274.61H366.951C372.302 274.61 376.641 270.272 376.641 264.92V10.2613C376.641 4.90964 372.302 0.571289 366.951 0.571289Z" fill="#263238" stroke="#263238" stroke-width="1.14269" stroke-linecap="round" stroke-linejoin="round"/>
<path d="M11.2554 232.022H376.652V264.92C376.652 267.49 375.631 269.955 373.814 271.772C371.997 273.589 369.532 274.61 366.962 274.61H20.9568C19.6843 274.61 18.4242 274.36 17.2486 273.873C16.0729 273.386 15.0047 272.672 14.1049 271.772C13.2051 270.872 12.4914 269.804 12.0044 268.629C11.5174 267.453 11.2668 266.193 11.2668 264.92V232.022H11.2554Z" fill="white" stroke="#263238" stroke-width="1.14269" stroke-linecap="round" stroke-linejoin="round"/>
<path d="M358.266 17.6201H29.6411V211.225H358.266V17.6201Z" fill="#2EC4F3" stroke="#263238" stroke-width="1.14269" stroke-linecap="round" stroke-linejoin="round"/>
<path d="M200.747 253.311C200.747 251.977 200.351 250.674 199.611 249.565C198.87 248.456 197.817 247.592 196.585 247.082C195.353 246.572 193.998 246.438 192.69 246.698C191.382 246.959 190.181 247.601 189.238 248.544C188.295 249.486 187.653 250.688 187.393 251.995C187.133 253.303 187.266 254.659 187.776 255.891C188.287 257.123 189.151 258.176 190.259 258.916C191.368 259.657 192.672 260.053 194.005 260.053C195.793 260.053 197.508 259.342 198.772 258.078C200.037 256.814 200.747 255.099 200.747 253.311Z" fill="#263238" stroke="#263238" stroke-width="1.14269" stroke-linecap="round" stroke-linejoin="round"/>
<path d="M355.182 31.2754H32.2241V48.2443H355.182V31.2754Z" fill="#263238" stroke="#263238" stroke-width="1.14269" stroke-linecap="round" stroke-linejoin="round"/>
<path d="M333.253 35.9373H279.158V46.3814H333.253V35.9373Z" fill="white"/>
<path d="M348.999 44.1648L344.497 41.6623C344.622 41.2391 344.692 40.801 344.702 40.3596C344.72 39.1953 344.325 38.0622 343.588 37.1607C342.851 36.2593 341.818 35.6475 340.674 35.4335C339.529 35.2194 338.346 35.417 337.332 35.9912C336.319 36.5654 335.542 37.4793 335.137 38.5713C334.733 39.6633 334.728 40.8632 335.122 41.9588C335.517 43.0544 336.286 43.9752 337.294 44.5584C338.302 45.1416 339.484 45.3498 340.63 45.146C341.777 44.9422 342.814 44.3397 343.56 43.4449L348.016 45.9245C348.164 46.0045 348.328 46.0476 348.496 46.0502C348.676 46.0495 348.853 46.0004 349.008 45.9079C349.163 45.8154 349.29 45.683 349.376 45.5246C349.443 45.411 349.486 45.2853 349.503 45.1548C349.52 45.0243 349.51 44.8917 349.475 44.7649C349.44 44.638 349.38 44.5196 349.298 44.4165C349.216 44.3134 349.114 44.2278 348.999 44.1648ZM339.857 43.2278C339.287 43.2278 338.73 43.0586 338.256 42.7417C337.783 42.4248 337.414 41.9744 337.196 41.4475C336.978 40.9207 336.922 40.3411 337.034 39.7822C337.146 39.2233 337.421 38.7103 337.825 38.308C338.229 37.9057 338.743 37.6324 339.303 37.5226C339.862 37.4128 340.441 37.4714 340.967 37.6911C341.493 37.9108 341.942 38.2817 342.257 38.7567C342.572 39.2318 342.739 39.7896 342.737 40.3596C342.735 40.7407 342.658 41.1177 342.51 41.4687C342.362 41.8198 342.145 42.1379 341.873 42.4047C341.601 42.6715 341.279 42.8816 340.925 43.0229C340.571 43.1642 340.193 43.2338 339.812 43.2278H339.857Z" fill="white"/>
<path d="M95.6202 37.7659H127.444C128.353 37.7659 129.225 38.127 129.868 38.7699C130.511 39.4128 130.872 40.2848 130.872 41.1939V55.7746H92.2607V41.1939C92.2606 40.2965 92.6123 39.4348 93.2404 38.7938C93.8686 38.1529 94.723 37.7838 95.6202 37.7659Z" fill="#808080" stroke="#808080" stroke-width="1.14269" stroke-miterlimit="10"/>
<path d="M138.585 37.7659H170.409C171.318 37.7659 172.19 38.127 172.833 38.7699C173.476 39.4128 173.837 40.2848 173.837 41.1939V55.7746H135.18V41.1939C135.18 40.2887 135.538 39.4202 136.176 38.778C136.814 38.1357 137.68 37.7719 138.585 37.7659Z" fill="#808080" stroke="#808080" stroke-width="1.14269" stroke-miterlimit="10"/>
<path d="M181.504 37.7659H213.317C214.226 37.7659 215.098 38.127 215.741 38.7699C216.384 39.4128 216.745 40.2848 216.745 41.1939V55.7746H178.099V41.1939C178.099 40.2887 178.457 39.4202 179.095 38.778C179.733 38.1357 180.599 37.7719 181.504 37.7659Z" fill="#2EC4F3" stroke="#263238" stroke-width="1.14269" stroke-linecap="round" stroke-linejoin="round"/>
<path d="M224.423 37.7659H256.247C257.156 37.7659 258.028 38.127 258.671 38.7699C259.314 39.4128 259.675 40.2848 259.675 41.1939V55.7746H221.018V41.1939C221.018 40.2887 221.376 39.4202 222.014 38.778C222.652 38.1357 223.518 37.7719 224.423 37.7659Z" fill="#808080" stroke="#808080" stroke-width="1.14269" stroke-miterlimit="10"/>
<path d="M85.5076 48.2442L81.6453 37.7544H32.2241V48.2442V62.1393V202.987H355.182V48.2442H85.5076Z" fill="white" stroke="#263238" stroke-width="1.14269" stroke-linecap="round" stroke-linejoin="round"/>
<path d="M253.814 142.676H169.003V194.279H253.425" stroke="#999999" stroke-width="0.571343" stroke-linecap="round" stroke-linejoin="round"/>
<path d="M169.392 157.382H254.191" stroke="#999999" stroke-width="0.571343" stroke-linecap="round" stroke-linejoin="round"/>
<path d="M169.392 172.066H254.191" stroke="#999999" stroke-width="0.571343" stroke-linecap="round" stroke-linejoin="round"/>
<path d="M169.392 186.738H254.191" stroke="#999999" stroke-width="0.571343" stroke-linecap="round" stroke-linejoin="round"/>
<path d="M166.683 143.007H163.198" stroke="#999999" stroke-width="0.571343" stroke-linecap="round" stroke-linejoin="round"/>
<path d="M166.683 150.286H163.198" stroke="#999999" stroke-width="0.571343" stroke-linecap="round" stroke-linejoin="round"/>
<path d="M166.683 157.565H163.198" stroke="#999999" stroke-width="0.571343" stroke-linecap="round" stroke-linejoin="round"/>
<path d="M166.683 164.844H163.198" stroke="#999999" stroke-width="0.571343" stroke-linecap="round" stroke-linejoin="round"/>
<path d="M166.683 172.112H163.198" stroke="#999999" stroke-width="0.571343" stroke-linecap="round" stroke-linejoin="round"/>
<path d="M166.683 179.39H163.198" stroke="#999999" stroke-width="0.571343" stroke-linecap="round" stroke-linejoin="round"/>
<path d="M166.683 186.669H163.198" stroke="#999999" stroke-width="0.571343" stroke-linecap="round" stroke-linejoin="round"/>
<path d="M166.683 193.948H163.198" stroke="#999999" stroke-width="0.571343" stroke-linecap="round" stroke-linejoin="round"/>
<path d="M175.985 163.335H172.089V194.074H175.985V163.335Z" fill="#263238" stroke="#999999" stroke-width="1.14269" stroke-linecap="round" stroke-linejoin="round"/>
<path d="M182.91 148.618H179.013V194.074H182.91V148.618Z" fill="#2EC4F3" stroke="#999999" stroke-width="1.14269" stroke-linecap="round" stroke-linejoin="round"/>
<path d="M189.835 163.335H185.938V194.074H189.835V163.335Z" fill="white" stroke="#999999" stroke-width="1.14269" stroke-linecap="round" stroke-linejoin="round"/>
<path d="M205.432 153.383H201.536V194.085H205.432V153.383Z" fill="#263238" stroke="#999999" stroke-width="1.14269" stroke-linecap="round" stroke-linejoin="round"/>
<path d="M212.357 159.439H208.46V194.074H212.357V159.439Z" fill="#2EC4F3" stroke="#999999" stroke-width="1.14269" stroke-linecap="round" stroke-linejoin="round"/>
<path d="M219.282 176.762H215.385V194.085H219.282V176.762Z" fill="white" stroke="#999999" stroke-width="1.14269" stroke-linecap="round" stroke-linejoin="round"/>
<path d="M234.868 163.335H230.971V194.074H234.868V163.335Z" fill="#263238" stroke="#999999" stroke-width="1.14269" stroke-linecap="round" stroke-linejoin="round"/>
<path d="M241.793 148.618H237.896V194.074H241.793V148.618Z" fill="#2EC4F3" stroke="#999999" stroke-width="1.14269" stroke-linecap="round" stroke-linejoin="round"/>
<path d="M248.728 163.335H244.832V194.074H248.728V163.335Z" fill="white" stroke="#999999" stroke-width="1.14269" stroke-linecap="round" stroke-linejoin="round"/>
<path d="M78.2854 75.1317C78.5168 74.4351 78.6364 73.7061 78.6396 72.972C78.6396 70.2867 75.92 70.1382 73.2462 70.1382H72.572V69.4983H84.1931V70.1382C81.165 70.1382 80.1023 72.0579 79.1196 74.9375L72.9376 93.4833C72.4577 94.8659 72.0692 95.8943 70.6523 95.8943H70.4809L65.0074 78.1713L59.8882 93.4833C59.4082 94.8659 59.0197 95.8943 57.6028 95.8943H57.4885L49.4897 70.1382H46.7358V69.4983H57.02V70.1382H54.0605L59.9682 90.4552H60.1967L64.6417 76.9029L62.562 70.1382H59.7739V69.4983H70.0581V70.1382H67.0528L72.9605 90.4552H73.2005L78.2854 75.1317Z" fill="#808080"/>
<path d="M164.97 109.492H252.488" stroke="#999999" stroke-width="0.571343" stroke-linecap="round" stroke-linejoin="round"/>
<path d="M164.97 114.531H252.488" stroke="#999999" stroke-width="0.571343" stroke-linecap="round" stroke-linejoin="round"/>
<path d="M164.97 119.559H252.488" stroke="#999999" stroke-width="0.571343" stroke-linecap="round" stroke-linejoin="round"/>
<path d="M164.97 124.587H252.488" stroke="#999999" stroke-width="0.571343" stroke-linecap="round" stroke-linejoin="round"/>
<path d="M164.97 129.615H252.488" stroke="#999999" stroke-width="0.571343" stroke-linecap="round" stroke-linejoin="round"/>
<path d="M164.97 134.643H252.488" stroke="#999999" stroke-width="0.571343" stroke-linecap="round" stroke-linejoin="round"/>
<path d="M44.7588 109.492H132.277" stroke="#999999" stroke-width="0.571343" stroke-linecap="round" stroke-linejoin="round"/>
<path d="M44.7588 114.531H132.277" stroke="#999999" stroke-width="0.571343" stroke-linecap="round" stroke-linejoin="round"/>
<path d="M44.7588 119.559H132.277" stroke="#999999" stroke-width="0.571343" stroke-linecap="round" stroke-linejoin="round"/>
<path d="M44.7588 124.587H132.277" stroke="#999999" stroke-width="0.571343" stroke-linecap="round" stroke-linejoin="round"/>
<path d="M44.7588 129.615H132.277" stroke="#999999" stroke-width="0.571343" stroke-linecap="round" stroke-linejoin="round"/>
<path d="M44.7588 134.643H132.277" stroke="#999999" stroke-width="0.571343" stroke-linecap="round" stroke-linejoin="round"/>
<path d="M86.5127 68.7554H139.819" stroke="#999999" stroke-width="0.571343" stroke-linecap="round" stroke-linejoin="round"/>
<path d="M86.5127 73.7832H139.819" stroke="#999999" stroke-width="0.571343" stroke-linecap="round" stroke-linejoin="round"/>
<path d="M86.5127 78.8225H139.819" stroke="#999999" stroke-width="0.571343" stroke-linecap="round" stroke-linejoin="round"/>
<path d="M86.5127 83.8501H139.819" stroke="#999999" stroke-width="0.571343" stroke-linecap="round" stroke-linejoin="round"/>
<path d="M86.5127 88.8782H139.819" stroke="#999999" stroke-width="0.571343" stroke-linecap="round" stroke-linejoin="round"/>
<path d="M86.5127 93.9058H139.819" stroke="#999999" stroke-width="0.571343" stroke-linecap="round" stroke-linejoin="round"/>
<path d="M140.825 141.682H42.748V194.497H140.825V141.682Z" stroke="#999999" stroke-width="0.571343" stroke-linecap="round" stroke-linejoin="round"/>
<path d="M42.748 194.497L140.825 141.682" stroke="#999999" stroke-width="0.571343" stroke-linecap="round" stroke-linejoin="round"/>
<path d="M63.9804 171.599C68.8417 170.437 71.8408 165.554 70.6791 160.693C69.5174 155.832 64.6348 152.832 59.7734 153.994C54.9121 155.156 51.9129 160.039 53.0747 164.9C54.2364 169.761 59.119 172.76 63.9804 171.599Z" stroke="#999999" stroke-width="0.571343" stroke-linecap="round" stroke-linejoin="round"/>
<path d="M286.688 107.984H302.275" stroke="#808080" stroke-width="1.14269" stroke-miterlimit="10"/>
<path d="M281.649 106.475H271.091V117.034H281.649V106.475Z" fill="#808080" stroke="#808080" stroke-width="1.14269" stroke-miterlimit="10"/>
<path d="M286.688 112.52H314.844" stroke="#808080" stroke-width="1.14269" stroke-miterlimit="10"/>
<path d="M286.688 130.118H302.275" stroke="#808080" stroke-width="1.14269" stroke-miterlimit="10"/>
<path d="M281.649 128.609H271.091V139.168H281.649V128.609Z" fill="#808080" stroke="#808080" stroke-width="1.14269" stroke-miterlimit="10"/>
<path d="M286.688 134.643H314.844" stroke="#808080" stroke-width="1.14269" stroke-miterlimit="10"/>
<path d="M286.688 152.251H302.275" stroke="#808080" stroke-width="1.14269" stroke-miterlimit="10"/>
<path d="M281.649 150.743H271.091V161.301H281.649V150.743Z" fill="#808080" stroke="#808080" stroke-width="1.14269" stroke-miterlimit="10"/>
<path d="M286.688 156.776H314.844" stroke="#808080" stroke-width="1.14269" stroke-miterlimit="10"/>
<path d="M286.688 174.374H302.275" stroke="#808080" stroke-width="1.14269" stroke-miterlimit="10"/>
<path d="M281.649 172.865H271.091V183.424H281.649V172.865Z" fill="#808080" stroke="#808080" stroke-width="1.14269" stroke-miterlimit="10"/>
<path d="M286.688 178.899H314.844" stroke="#808080" stroke-width="1.14269" stroke-miterlimit="10"/>
<path d="M263.881 47.9011V202.804" stroke="#263238" stroke-width="1.14269" stroke-linecap="round" stroke-linejoin="round"/>
<path opacity="0.5" d="M215.065 66.8015H201.947L196.782 56.9744L190.577 66.8015H165.952C165.559 66.8015 165.17 66.8789 164.807 67.0294C164.443 67.1798 164.113 67.4003 163.835 67.6783C163.557 67.9564 163.337 68.2864 163.186 68.6496C163.036 69.0129 162.959 69.4022 162.959 69.7953V98.1682C162.957 98.5623 163.033 98.9529 163.183 99.3174C163.333 99.682 163.553 100.013 163.831 100.293C164.11 100.572 164.44 100.793 164.804 100.944C165.168 101.096 165.558 101.173 165.952 101.173H215.088C215.482 101.173 215.872 101.096 216.236 100.944C216.6 100.793 216.931 100.572 217.209 100.293C217.487 100.013 217.707 99.682 217.857 99.3174C218.007 98.9529 218.083 98.5623 218.082 98.1682V69.761C218.073 68.969 217.75 68.2128 217.185 67.6581C216.619 67.1034 215.857 66.7954 215.065 66.8015Z" fill="black"/>
<path d="M210.7 62.4362H197.582L192.417 52.6091L186.212 62.4362H161.587C160.793 62.4362 160.032 62.7516 159.47 63.3131C158.909 63.8746 158.593 64.6361 158.593 65.4301V93.7573C158.592 94.1514 158.668 94.5419 158.818 94.9065C158.968 95.271 159.188 95.6024 159.466 95.8816C159.744 96.1608 160.075 96.3824 160.439 96.5335C160.803 96.6847 161.193 96.7625 161.587 96.7625H210.723C211.117 96.7625 211.507 96.6847 211.871 96.5335C212.235 96.3824 212.565 96.1608 212.844 95.8816C213.122 95.6024 213.342 95.271 213.492 94.9065C213.642 94.5419 213.718 94.1514 213.716 93.7573V65.4301C213.716 65.035 213.638 64.6438 213.486 64.2791C213.335 63.9143 213.112 63.5833 212.832 63.305C212.551 63.0267 212.218 62.8066 211.853 62.6575C211.487 62.5084 211.095 62.4332 210.7 62.4362Z" fill="#2EC4F3" stroke="#263238" stroke-width="2.28537" stroke-linecap="round" stroke-linejoin="round"/>
<path d="M164.044 69.521H208.243" stroke="#263238" stroke-width="1.14269" stroke-linecap="round" stroke-linejoin="round"/>
<path d="M164.044 76.7998H208.243" stroke="#263238" stroke-width="1.14269" stroke-linecap="round" stroke-linejoin="round"/>
<path d="M164.044 84.0789H208.243" stroke="#263238" stroke-width="1.14269" stroke-linecap="round" stroke-linejoin="round"/>
<path d="M164.044 91.3462H208.243" stroke="#263238" stroke-width="1.14269" stroke-linecap="round" stroke-linejoin="round"/>
<path opacity="0.5" d="M324.98 66.8015H311.873L306.697 56.9744L300.492 66.8015H275.867C275.474 66.8015 275.084 66.8789 274.721 67.0294C274.358 67.1798 274.028 67.4003 273.75 67.6783C273.472 67.9564 273.251 68.2864 273.101 68.6496C272.951 69.0129 272.873 69.4022 272.873 69.7953V98.1682C272.872 98.5623 272.948 98.9529 273.098 99.3174C273.247 99.682 273.468 100.013 273.746 100.293C274.024 100.572 274.355 100.793 274.719 100.944C275.083 101.096 275.473 101.173 275.867 101.173H325.002C325.397 101.173 325.787 101.096 326.151 100.944C326.515 100.793 326.845 100.572 327.123 100.293C327.402 100.013 327.622 99.682 327.772 99.3174C327.921 98.9529 327.998 98.5623 327.996 98.1682V69.761C327.987 68.969 327.665 68.2128 327.099 67.6581C326.534 67.1034 325.772 66.7954 324.98 66.8015Z" fill="black"/>
<path d="M320.615 62.4363H307.509L302.332 52.6206L296.128 62.4477H271.503C270.709 62.4477 269.947 62.7631 269.386 63.3246C268.824 63.886 268.509 64.6475 268.509 65.4415V93.7573C268.507 94.1514 268.584 94.542 268.733 94.9065C268.883 95.2711 269.104 95.6025 269.382 95.8817C269.66 96.1609 269.99 96.3824 270.354 96.5336C270.718 96.6848 271.109 96.7626 271.503 96.7626H320.638C321.032 96.7626 321.423 96.6848 321.787 96.5336C322.151 96.3824 322.481 96.1609 322.759 95.8817C323.037 95.6025 323.258 95.2711 323.407 94.9065C323.557 94.542 323.634 94.1514 323.632 93.7573V65.4301C323.632 65.035 323.554 64.6439 323.402 64.2791C323.25 63.9144 323.028 63.5833 322.747 63.305C322.467 63.0267 322.134 62.8067 321.768 62.6576C321.402 62.5085 321.01 62.4333 320.615 62.4363Z" fill="#2EC4F3" stroke="#263238" stroke-width="2.28537" stroke-linecap="round" stroke-linejoin="round"/>
<path d="M273.959 69.521H318.158" stroke="#263238" stroke-width="1.14269" stroke-linecap="round" stroke-linejoin="round"/>
<path d="M273.959 76.7998H318.158" stroke="#263238" stroke-width="1.14269" stroke-linecap="round" stroke-linejoin="round"/>
<path d="M273.959 84.0789H318.158" stroke="#263238" stroke-width="1.14269" stroke-linecap="round" stroke-linejoin="round"/>
<path d="M273.959 91.3462H318.158" stroke="#263238" stroke-width="1.14269" stroke-linecap="round" stroke-linejoin="round"/>
<path opacity="0.5" d="M93.2543 107.561H52.1176C51.1023 107.561 50.1287 107.964 49.4108 108.682C48.6929 109.4 48.2896 110.374 48.2896 111.389V134.357C48.2881 134.861 48.386 135.36 48.5777 135.825C48.7694 136.291 49.0511 136.714 49.4067 137.071C49.7623 137.428 50.1848 137.711 50.65 137.904C51.1152 138.097 51.6139 138.196 52.1176 138.196H68.5265L72.2174 146.332L75.9197 138.196H93.2886C93.7922 138.196 94.2909 138.097 94.7561 137.904C95.2213 137.711 95.6438 137.428 95.9994 137.071C96.355 136.714 96.6368 136.291 96.8285 135.825C97.0202 135.36 97.1181 134.861 97.1166 134.357V111.389C97.1166 110.883 97.0164 110.383 96.8219 109.916C96.6274 109.449 96.3424 109.026 95.9833 108.67C95.6242 108.314 95.1981 108.033 94.7297 107.842C94.2613 107.652 93.7599 107.556 93.2543 107.561Z" fill="black"/>
<path d="M89.4266 104.201H48.2899C47.2746 104.201 46.3009 104.605 45.583 105.323C44.8652 106.04 44.4619 107.014 44.4619 108.029V131.009C44.4543 131.513 44.5466 132.015 44.7334 132.483C44.9203 132.952 45.198 133.379 45.5506 133.741C45.9032 134.102 46.3237 134.389 46.7879 134.587C47.2521 134.785 47.7509 134.89 48.2556 134.894H64.6645L68.3554 143.041L72.0577 134.894H89.4266C90.4418 134.894 91.4155 134.491 92.1334 133.773C92.8512 133.055 93.2546 132.081 93.2546 131.066V108.029C93.2546 107.014 92.8512 106.04 92.1334 105.323C91.4155 104.605 90.4418 104.201 89.4266 104.201Z" fill="#2EC4F3" stroke="#263238" stroke-width="2.28537" stroke-linecap="round" stroke-linejoin="round"/>
<path d="M49.2153 109.949H88.4666" stroke="#263238" stroke-width="1.14269" stroke-linecap="round" stroke-linejoin="round"/>
<path d="M49.2153 116.805H88.4666" stroke="#263238" stroke-width="1.14269" stroke-linecap="round" stroke-linejoin="round"/>
<path d="M49.2153 123.673H88.4666" stroke="#263238" stroke-width="1.14269" stroke-linecap="round" stroke-linejoin="round"/>
<path d="M49.2153 130.529H88.4666" stroke="#263238" stroke-width="1.14269" stroke-linecap="round" stroke-linejoin="round"/>
<path d="M425.57 337.732C425.57 341.366 403.116 344.314 375.428 344.314C347.741 344.314 325.299 341.366 325.299 337.732C325.299 334.099 347.741 331.15 375.428 331.15C403.116 331.15 425.57 334.099 425.57 337.732Z" fill="#CCCCCC"/>
<path d="M295.03 142.722C295.03 142.722 292.641 140.436 293.041 142.322C293.441 144.207 295.955 146.161 297.143 147.087C298.332 148.012 301.12 147.487 301.12 147.487L295.03 142.722Z" fill="white" stroke="#263238" stroke-width="1.14269" stroke-linecap="round" stroke-linejoin="round"/>
<path d="M320.728 147.749C320.728 147.749 317.551 143.51 315.689 141.522C313.826 139.534 311.427 138.094 309.45 138.208C307.473 138.322 305.028 138.916 303.439 138.916C301.851 138.916 300.251 137.854 300.011 138.916C299.771 139.979 300.263 140.059 301.588 140.631C302.914 141.202 305.713 141.967 305.713 141.967C305.713 141.967 302.205 143.11 301.142 143.647C300.08 144.184 297.829 143.11 297.829 143.11C297.829 143.11 293.989 140.071 293.989 141.659C293.989 143.247 296.64 145.236 298.103 146.298C299.566 147.361 300.091 148.275 302.068 147.887C304.045 147.498 312.272 145.361 312.272 145.361L316.649 150.538L320.728 147.749Z" fill="white" stroke="#263238" stroke-width="1.14269" stroke-linecap="round" stroke-linejoin="round"/>
<path d="M304.171 147.087C304.171 147.087 301.519 147.887 300.457 147.087C299.394 146.287 295.692 143.11 295.292 141.122C294.892 139.134 301.919 144.836 301.919 144.836C301.919 144.836 307.633 142.184 308.936 141.785C309.348 141.682 309.779 141.677 310.193 141.771C310.608 141.864 310.995 142.052 311.324 142.322" fill="white"/>
<path d="M304.171 147.087C304.171 147.087 301.519 147.887 300.457 147.087C299.394 146.287 295.692 143.11 295.292 141.122C294.892 139.134 301.919 144.836 301.919 144.836C301.919 144.836 307.633 142.184 308.936 141.785C309.348 141.682 309.779 141.677 310.193 141.771C310.608 141.864 310.995 142.052 311.324 142.322" stroke="#263238" stroke-width="1.14269" stroke-linecap="round" stroke-linejoin="round"/>
<path d="M356.929 334.11C356.596 334.509 356.358 334.979 356.233 335.484C356.108 335.989 356.1 336.515 356.209 337.024C356.689 338.487 359.363 340.555 363.613 340.555C367.864 340.555 369.818 338.967 370.172 336.544C370.44 334.364 370.562 332.169 370.538 329.974C370.538 329.002 369.087 331.676 364.71 333.139C362.214 334.006 359.562 334.337 356.929 334.11Z" fill="#BFD633" stroke="#263238" stroke-width="1.14269" stroke-linecap="round" stroke-linejoin="round"/>
<path d="M353.409 249.426C353.409 249.426 356.837 259.39 356.323 263.755C355.809 268.12 354.14 275.182 356.209 284.895C358.277 294.607 363.499 315.519 363.373 321.232C363.248 326.945 359.603 329.494 357.18 333.379C354.758 337.264 360.608 339.458 366.047 338.727C371.486 337.995 370.058 328.888 370.618 320.866C371.178 312.845 368.835 309.725 369.201 298.298C369.567 286.871 371.029 278.621 371.144 268.166C371.258 257.71 371.635 249.208 371.635 249.208L353.409 249.426Z" fill="white" stroke="#263238" stroke-width="1.14269" stroke-linecap="round" stroke-linejoin="round"/>
<path d="M394.352 331.562C394.352 331.562 392.295 336.133 392.295 338.487C392.295 340.841 396.306 342.737 398.854 342.498C401.402 342.258 402.979 340.909 403.71 337.515C404.442 334.122 403.47 326.946 403.47 326.946L394.352 331.562Z" fill="#BFD633" stroke="#263238" stroke-width="1.14269" stroke-linecap="round" stroke-linejoin="round"/>
<path d="M367.75 249.62C367.75 249.62 368.653 259.504 369.875 263.389C371.098 267.274 380.022 284.78 384.639 293.773C389.255 302.766 396.66 317.461 397.026 320.055C397.391 322.649 394.603 331.242 393.266 334.521C391.929 337.801 393.506 339.869 396.42 340.6C399.334 341.332 402.259 339.458 403.345 335.367C404.43 331.276 404.487 328.077 403.95 322.123C403.413 316.17 402.865 317.267 401.665 313.862C400.465 310.456 395.951 293.293 393.666 284.826C391.381 276.359 390.992 269.388 388.193 264.532C385.393 259.675 383.336 256.762 383.336 256.762C383.336 256.762 384.182 249.585 384.182 249.22C384.182 248.854 367.75 249.62 367.75 249.62Z" fill="white" stroke="#263238" stroke-width="1.14269" stroke-linecap="round" stroke-linejoin="round"/>
<path d="M360.071 129.078C360.071 129.078 346.553 132.78 346.29 134.106C346.027 135.431 336.76 164.707 335.823 165.233C334.886 165.758 334.372 165.37 334.372 165.37L320.465 146.321L312.649 151.749C315.108 157.166 317.893 162.428 320.991 167.507C326.156 175.985 335.172 182.362 337.149 181.687C339.125 181.013 352.518 159.691 352.518 159.691C352.518 159.691 357.02 168.169 355.946 170.695C355.159 172.689 354.09 174.559 352.769 176.248C352.106 176.911 340.325 191.103 340.588 206.849C340.851 222.596 352.015 252.157 352.015 252.157H385.53C385.53 252.157 393.472 233.611 393.997 217.979C394.523 202.347 391.483 187.378 389.495 181.687C387.507 175.997 386.067 170.695 386.067 170.695L391.369 156.114C391.369 156.114 404.35 173.609 406.864 174.271C409.378 174.934 414.806 173.471 414.943 168.558C415.08 163.644 400.865 142.893 399.414 138.322C397.962 133.752 397.551 132.495 395.574 131.969C393.597 131.443 382.856 129.055 378.742 128.541C374.038 128.019 369.305 127.798 364.573 127.878C362.991 127.862 361.435 128.277 360.071 129.078Z" fill="#BFD633" stroke="#263238" stroke-width="1.14269" stroke-linecap="round" stroke-linejoin="round"/>
<path d="M391.335 156.091L395.3 144.436" stroke="#263238" stroke-width="1.14269" stroke-linecap="round" stroke-linejoin="round"/>
<path d="M352.518 159.667L348.016 146.561" stroke="#263238" stroke-width="1.14269" stroke-linecap="round" stroke-linejoin="round"/>
<path d="M366.573 242.878C366.573 242.878 367.419 214.082 375.886 200.53" stroke="#263238" stroke-width="1.14269" stroke-linecap="round" stroke-linejoin="round"/>
<path d="M366.161 125.89C364.095 125.971 362.066 126.469 360.197 127.352C359.587 127.624 359.058 128.047 358.658 128.581C358.258 129.115 358.001 129.742 357.911 130.403C357.911 130.403 362.15 140.071 364.767 146.161C367.384 152.252 370.481 156.891 372.583 155.303C374.686 153.714 381.862 137.945 382.867 133.443C383.873 128.941 383.142 128.678 381.153 127.09C379.598 125.664 377.548 124.902 375.44 124.964C373.292 124.964 366.161 125.89 366.161 125.89Z" fill="white" stroke="#263238" stroke-width="1.14269" stroke-linecap="round" stroke-linejoin="round"/>
<path d="M373.578 83.0389C373.578 83.0389 368.584 84.9243 366.253 88.2495C363.922 91.5747 363.968 93.3345 362.825 95.2199C361.682 97.1053 358.037 98.2252 357.592 98.8879C357.384 99.2585 357.265 99.6726 357.245 100.097C357.225 100.522 357.305 100.945 357.477 101.333C357.82 101.882 358.814 101.916 358.814 101.916C358.575 104.197 358.609 106.499 358.917 108.772C359.328 110.292 359.577 111.851 359.66 113.423C359.66 114.303 359.808 115.388 361.031 115.388C362.254 115.388 365.819 115.514 366.15 115.514C366.482 115.514 366.299 120.439 365.808 123.273C365.316 126.107 364.951 126.598 364.082 126.964C363.633 127.143 363.217 127.394 362.848 127.706C362.848 127.706 364.082 131.135 364.699 133.683C365.316 136.231 369.761 147.544 370.618 146.069C373.898 140.091 376.383 133.711 378.011 127.089C378.011 127.089 376.446 125.947 376.229 120.828C376.012 115.708 378.217 113.057 379.326 112.623C380.434 112.189 390.524 111.286 392.409 104.304C394.295 97.3225 391.632 88.7752 386.696 84.4558C381.759 80.1365 373.578 83.0389 373.578 83.0389Z" fill="white" stroke="#263238" stroke-width="1.14269" stroke-linecap="round" stroke-linejoin="round"/>
<path d="M366.756 96.9911C366.447 97.6539 365.899 98.0538 365.533 97.8938C365.168 97.7339 365.133 97.0483 365.453 96.3741C365.773 95.6999 366.299 95.3114 366.665 95.4828C367.03 95.6542 367.064 96.3284 366.756 96.9911Z" fill="#263238"/>
<path d="M364.848 95.7683C364.848 95.7683 366.436 93.6886 367.03 94.2828C367.624 94.877 367.03 96.2139 366.733 96.7624" stroke="#263238" stroke-width="0.857015" stroke-linecap="round" stroke-linejoin="round"/>
<path d="M360.426 106.556C361.217 106.74 362.045 106.687 362.807 106.405C363.569 106.122 364.231 105.623 364.711 104.967" stroke="#263238" stroke-width="1.14269" stroke-linecap="round" stroke-linejoin="round"/>
<path d="M365.738 92.3289C365.738 92.3289 367.292 90.1806 368.606 91.4947C368.997 91.9295 369.294 92.4399 369.478 92.9943C369.663 93.5486 369.732 94.135 369.681 94.7171" stroke="#263238" stroke-width="1.14269" stroke-linecap="round" stroke-linejoin="round"/>
<path d="M397.528 117.468C397.53 119.083 397.053 120.662 396.157 122.005C395.262 123.349 393.988 124.396 392.496 125.015C391.005 125.634 389.364 125.797 387.78 125.482C386.196 125.168 384.741 124.39 383.6 123.249C382.458 122.107 381.681 120.652 381.366 119.068C381.052 117.485 381.214 115.843 381.833 114.352C382.452 112.861 383.5 111.587 384.843 110.691C386.187 109.795 387.766 109.319 389.38 109.321C391.541 109.321 393.613 110.179 395.141 111.707C396.669 113.235 397.528 115.307 397.528 117.468Z" fill="#263238" stroke="#263238" stroke-width="1.14269" stroke-linecap="round" stroke-linejoin="round"/>
<path d="M369.532 82.2276C369.532 88.3067 373.292 96.7854 374.64 99.585C374.944 100.44 375.549 101.156 376.343 101.596C377.485 102.087 378.799 101.356 379.771 100.591C380.742 99.825 381.873 98.9223 383.13 99.048C383.747 99.1602 384.309 99.4711 384.732 99.9334C385.155 100.396 385.415 100.984 385.473 101.608C385.553 102.855 385.143 104.085 384.33 105.036C383.537 106.002 382.516 106.755 381.359 107.228C380.202 107.701 378.945 107.878 377.702 107.744C377.967 109.097 378.593 110.354 379.515 111.38C380.436 112.406 381.619 113.164 382.936 113.571C384.263 113.956 385.653 114.075 387.026 113.92C388.398 113.765 389.727 113.34 390.935 112.669C392.655 111.704 394.164 110.404 395.373 108.845C396.582 107.287 397.467 105.502 397.974 103.596C398.961 99.7646 398.802 95.7279 397.517 91.9861C396.26 88.2412 394.142 84.8432 391.334 82.0649C388.526 79.2866 385.106 77.2054 381.348 75.9885C378.758 75.2409 376.014 75.2054 373.406 75.8857C370.538 76.617 369.544 79.1309 369.532 82.2276Z" fill="#263238" stroke="#263238" stroke-width="1.14269" stroke-linecap="round" stroke-linejoin="round"/>
<path d="M379.279 106.967C379.298 106.742 379.27 106.515 379.197 106.301C379.123 106.087 379.006 105.891 378.853 105.724C378.7 105.558 378.514 105.425 378.307 105.334C378.1 105.243 377.877 105.196 377.651 105.196C377.425 105.196 377.201 105.243 376.994 105.334C376.787 105.425 376.601 105.558 376.448 105.724C376.295 105.891 376.178 106.087 376.105 106.301C376.031 106.515 376.003 106.742 376.022 106.967C376.057 107.375 376.243 107.756 376.545 108.033C376.846 108.31 377.241 108.464 377.651 108.464C378.06 108.464 378.455 108.31 378.757 108.033C379.058 107.756 379.245 107.375 379.279 106.967Z" fill="#BFD633" stroke="#263238" stroke-width="0.857015" stroke-linecap="round" stroke-linejoin="round"/>
<path d="M391.198 153.052H361.922V193.457H391.198V153.052Z" fill="#263238" stroke="#263238" stroke-width="1.14269" stroke-linecap="round" stroke-linejoin="round"/>
<path d="M382.056 150.926H371.063V154.64H382.056V150.926Z" fill="white" stroke="#263238" stroke-width="1.14269" stroke-linecap="round" stroke-linejoin="round"/>
<path d="M379.406 172.523C377.554 172.09 375.739 171.513 373.978 170.797C372.098 169.67 370.546 168.071 369.476 166.158C368.413 164.307 367.75 164.57 365.236 164.57H360.197C359.672 164.57 359.409 165.107 360.071 165.895C360.605 166.451 361.301 166.823 362.06 166.958C362.46 167.095 363.511 167.358 363.511 167.358L364.711 167.758C364.711 167.758 359.409 168.021 358.746 169.209C358.083 170.397 358.346 171.997 359.272 172.26C360.197 172.523 360.197 172.523 360.414 173.048C360.631 173.574 360.54 175.037 360.803 175.962C360.913 176.336 361.099 176.683 361.351 176.98C361.603 177.277 361.915 177.518 362.265 177.688C362.928 178.088 363.408 178.613 367.693 178.613C371.978 178.613 376.309 177.951 376.972 177.951H380.148L379.406 172.523Z" fill="white" stroke="#263238" stroke-width="1.14269" stroke-linecap="round" stroke-linejoin="round"/>
<path d="M407.755 165.895C407.755 165.895 396.899 170.135 388.42 171.06C379.942 171.986 378.879 171.997 378.879 171.997V181.744C386.819 181.923 394.748 181.035 402.452 179.105C414.771 175.917 417.696 174.328 418.45 171.677C419.204 169.026 412.485 162.147 412.485 162.147" fill="#BFD633"/>
<path d="M407.755 165.895C407.755 165.895 396.899 170.135 388.42 171.06C379.942 171.986 378.879 171.997 378.879 171.997V181.744C386.819 181.923 394.748 181.035 402.452 179.105C414.771 175.917 417.696 174.328 418.45 171.677C419.204 169.026 412.485 162.147 412.485 162.147" stroke="#263238" stroke-width="1.14269" stroke-linecap="round" stroke-linejoin="round"/>
<path d="M358.437 331.676C358.437 331.676 362.082 326.694 370.218 331.676L370.583 328.157C370.583 328.157 367.304 325.871 364.756 325.974L362.207 326.088C360.847 327.879 359.588 329.744 358.437 331.676Z" fill="#BFD633" stroke="#263238" stroke-width="1.14269" stroke-linecap="round" stroke-linejoin="round"/>
<path d="M393.267 334.476C394.046 333.862 394.949 333.424 395.914 333.193C396.878 332.963 397.882 332.944 398.854 333.139C399.787 333.363 400.66 333.786 401.415 334.377C402.17 334.968 402.789 335.715 403.231 336.567L403.951 332.796C403.717 331.972 403.248 331.234 402.6 330.674C401.952 330.113 401.155 329.754 400.306 329.642C398.463 329.354 396.578 329.563 394.843 330.248C394.45 331.703 393.922 333.118 393.267 334.476Z" fill="#BFD633" stroke="#263238" stroke-width="1.14269" stroke-linecap="round" stroke-linejoin="round"/>
</svg>
