<svg width="117" height="80" viewBox="0 0 117 80" fill="none" xmlns="http://www.w3.org/2000/svg">
<mask id="mask0_6572_17353" style="mask-type:alpha" maskUnits="userSpaceOnUse" x="0" y="0" width="118" height="80">
<rect x="0.335938" width="116.667" height="80" fill="#D9D9D9"/>
</mask>
<g mask="url(#mask0_6572_17353)">
</g>
<path d="M72.9077 46.053C72.8349 45.7785 72.717 45.5181 72.559 45.2822C72.5929 45.1581 72.6187 45.0318 72.6359 44.9043C72.7482 44.095 72.4676 43.3542 71.9389 42.7809C71.6525 42.4679 71.3455 42.2611 71.0204 42.1342C71.2338 41.2211 71.3417 40.2866 71.3423 39.3489C71.3423 38.9206 71.3181 38.5011 71.2774 38.0878C71.2563 37.8814 71.2307 37.6756 71.2006 37.4703C71.1076 36.8646 70.9695 36.2666 70.7875 35.6815C70.6682 35.297 70.5302 34.9185 70.3739 34.5475C70.1398 33.998 69.8664 33.466 69.5559 32.9558C69.3522 32.6163 69.1304 32.288 68.8914 31.9724C68.7742 31.813 68.6522 31.6574 68.5252 31.5058C68.149 31.0486 67.7402 30.6193 67.302 30.2212C67.1564 30.0874 67.0068 29.9581 66.8531 29.8336C66.7018 29.7075 66.5472 29.5854 66.3894 29.4675C66.0719 29.2311 65.7438 29.0094 65.406 28.803C63.5399 27.6695 61.3514 27.0195 59.0123 27.0195C52.202 27.0195 46.6824 32.5394 46.6824 39.3494C46.6821 40.2989 46.7921 41.2452 47.0101 42.1693C46.7176 42.2963 46.4373 42.4943 46.1773 42.7807C45.6487 43.3536 45.368 44.0918 45.4803 44.901C45.4973 45.0295 45.5229 45.1568 45.5571 45.282C45.3992 45.518 45.2815 45.7785 45.2086 46.053C45.0461 46.6707 45.0996 47.2276 45.3061 47.7157C45.0816 48.3535 45.1377 49.0327 45.43 49.6233C45.6426 50.0546 45.9469 50.3883 46.322 50.6864C46.768 51.041 47.3261 51.3421 47.9994 51.6311C48.8027 51.9737 49.7833 52.2956 50.2292 52.4137C51.3811 52.7119 52.4855 52.9009 53.6049 52.9101C55.1997 52.9249 56.5731 52.5499 57.5563 51.5902C58.0394 51.6494 58.5256 51.679 59.0123 51.6788C59.5265 51.6777 60.0401 51.6453 60.5504 51.5819C61.5314 52.5477 62.91 52.9261 64.5107 52.9109C65.6299 52.902 66.7343 52.7129 67.8832 52.4144C68.3321 52.2963 69.3123 51.9744 70.116 51.6318C70.7892 51.3424 71.3474 51.0412 71.7963 50.6872C72.1686 50.3889 72.4726 50.0554 72.6854 49.6241C72.9807 49.0334 73.0338 48.3542 72.8124 47.7163C73.0169 47.2283 73.0701 46.6701 72.9077 46.053ZM71.7648 47.6744C71.9911 48.1038 72.0056 48.589 71.806 49.0409C71.5032 49.7257 70.7511 50.2652 69.2903 50.8443C68.3819 51.2045 67.5502 51.4349 67.5429 51.4369C66.3415 51.7485 65.2549 51.9068 64.3143 51.9068C62.7567 51.9068 61.5977 51.477 60.8627 50.6282C59.6197 50.84 58.3506 50.8472 57.1053 50.6496C56.3693 51.4843 55.2169 51.9068 53.6724 51.9068C52.7317 51.9068 51.6453 51.7485 50.4437 51.4369C50.4364 51.4349 49.6049 51.2045 48.6963 50.8443C47.2357 50.2652 46.4833 49.7261 46.1807 49.0409C45.9811 48.589 45.9955 48.1038 46.2218 47.6744C46.2427 47.6344 46.2652 47.5956 46.2891 47.5579C46.1535 47.3542 46.0626 47.1242 46.0222 46.8827C45.9819 46.6414 45.9931 46.3943 46.0551 46.1576C46.145 45.8159 46.3307 45.5318 46.5828 45.3277C46.4614 45.1281 46.3817 44.906 46.3486 44.6748C46.276 44.1718 46.443 43.6697 46.8185 43.2602C47.111 42.9416 47.5244 42.7662 47.9821 42.7662H47.9943C47.6492 41.66 47.4742 40.5077 47.4754 39.3489C47.4754 33.0289 52.599 27.9049 58.92 27.9049C65.2408 27.9049 70.3644 33.0284 70.3644 39.3489C70.3654 40.5108 70.1892 41.6661 69.8419 42.7749C69.8971 42.7694 69.9513 42.7667 70.0045 42.7666C70.4622 42.7666 70.8758 42.942 71.168 43.2606C71.5435 43.6697 71.7106 44.1722 71.6379 44.6752C71.6049 44.9064 71.5251 45.1285 71.4038 45.3281C71.6559 45.5322 71.8417 45.8163 71.9315 46.158C71.9935 46.3947 72.0048 46.6418 71.9644 46.8833C71.9242 47.1246 71.8332 47.3546 71.6975 47.5583C71.7215 47.5956 71.7442 47.6344 71.7648 47.6744Z" fill="white"/>
<path d="M71.6993 47.5584C71.835 47.3547 71.926 47.1247 71.9664 46.8834C72.0066 46.6419 71.9953 46.3948 71.9333 46.1581C71.8434 45.8164 71.6576 45.5323 71.4056 45.3282C71.5271 45.1286 71.6067 44.9066 71.6397 44.6753C71.7125 44.1723 71.5455 43.6702 71.1698 43.2607C70.8776 42.9421 70.4641 42.7667 70.0063 42.7667C69.9531 42.7667 69.899 42.7695 69.8437 42.775C70.1906 41.6662 70.3666 40.5111 70.3653 39.3493C70.3653 33.0292 65.2417 27.9053 58.9214 27.9053C52.601 27.9053 47.4768 33.0286 47.4768 39.3493C47.4757 40.5081 47.6506 41.6603 47.9957 42.7666H47.9835C47.5258 42.7666 47.1124 42.9418 46.82 43.2604C46.4445 43.6695 46.2774 44.1722 46.3501 44.675C46.3833 44.9063 46.463 45.1285 46.5844 45.3281C46.3322 45.532 46.1465 45.8161 46.0566 46.1578C45.9946 46.3946 45.9834 46.6418 46.0238 46.8832C46.0641 47.1245 46.1551 47.3547 46.2908 47.5584C46.2667 47.5961 46.2445 47.6349 46.2235 47.6749C45.9974 48.1043 45.9827 48.5895 46.1825 49.0414C46.4853 49.7262 47.2374 50.2657 48.6981 50.8448C49.6064 51.2051 50.4382 51.4354 50.4455 51.4374C51.647 51.749 52.7335 51.9073 53.6741 51.9073C55.2187 51.9073 56.3711 51.4848 57.1071 50.6501C58.3524 50.8477 59.6215 50.8404 60.8645 50.6287C61.5995 51.4775 62.7586 51.9073 64.3161 51.9073C65.2567 51.9073 66.3433 51.749 67.5446 51.4374C67.5521 51.4354 68.3835 51.2051 69.2922 50.8448C70.7529 50.2657 71.5051 49.7262 71.8078 49.0414C72.0074 48.5895 71.9929 48.1043 71.7666 47.6749C71.746 47.6347 71.7233 47.5957 71.6993 47.5584ZM56.5805 49.3433C56.5171 49.4541 56.4492 49.5623 56.3771 49.6675C56.1868 49.9461 55.9366 50.159 55.6461 50.3171C55.0909 50.6199 54.3881 50.7257 53.6741 50.7257C52.5463 50.7257 51.3901 50.4617 50.7421 50.2937C50.7101 50.2854 46.7698 49.1724 47.2687 48.2251C47.3526 48.0657 47.4907 48.002 47.6647 48.002C48.3672 48.002 49.6462 49.048 50.1958 49.048C50.3186 49.048 50.4053 48.9957 50.4407 48.8682C50.6749 48.028 46.8801 47.6749 47.1997 46.4583C47.2561 46.243 47.4091 46.1555 47.6241 46.1555C48.5528 46.1554 50.6372 47.7886 51.0731 47.7886C51.1065 47.7886 51.1305 47.7787 51.1435 47.7582C51.1454 47.755 51.1473 47.7521 51.149 47.7488C51.3536 47.4109 51.2362 47.1653 49.8345 46.3068L49.6999 46.2248C48.1574 45.2913 47.0747 44.7294 47.6905 44.0591C47.7613 43.9818 47.8618 43.9475 47.9838 43.9475C48.1284 43.9475 48.3035 43.9959 48.4963 44.0771C49.311 44.4207 50.4401 45.3576 50.9118 45.7662C50.986 45.8306 51.0597 45.8958 51.1329 45.9613C51.1329 45.9613 51.7301 46.5823 52.0911 46.5823C52.1743 46.5823 52.2448 46.5496 52.2926 46.4686C52.5487 46.0369 49.9143 44.0406 49.7657 43.2168C49.665 42.6588 49.8364 42.376 50.1533 42.376C50.304 42.376 50.4879 42.4402 50.6909 42.569C51.3206 42.9686 52.5364 45.0578 52.9815 45.8706C53.1307 46.1429 53.3854 46.258 53.615 46.258C54.0704 46.258 54.4264 45.8053 53.6567 45.2301C52.4998 44.3645 52.9058 42.9496 53.4579 42.8626C53.4814 42.8588 53.5053 42.8569 53.529 42.8569C54.0311 42.8569 54.2525 43.7221 54.2525 43.7221C54.2525 43.7221 54.9017 45.3522 56.0169 46.4666C57.0287 47.478 57.1701 48.3079 56.5805 49.3433ZM60.1865 49.5343L60.1286 49.5412L60.0301 49.5524C59.9782 49.5578 59.9262 49.563 59.8741 49.5677L59.8233 49.5723L59.7768 49.5763L59.711 49.5815L59.6383 49.5868L59.5657 49.5916L59.5496 49.5926C59.5306 49.5937 59.5117 49.5949 59.4925 49.5959L59.4682 49.5972C59.4457 49.5985 59.4233 49.5996 59.4005 49.6005L59.3218 49.6039L59.2505 49.6063L59.2028 49.6077H59.1786C59.1637 49.6077 59.1489 49.6085 59.134 49.6086H59.1104C59.0956 49.6086 59.0808 49.6086 59.0659 49.6093L59.0052 49.6101H58.9206C58.8541 49.6101 58.7877 49.6094 58.7217 49.6081L58.668 49.6069C58.6527 49.6069 58.6374 49.6062 58.6224 49.6056L58.5655 49.604L58.495 49.6013L58.4313 49.5985L58.4149 49.5978L58.3544 49.5947C58.3375 49.5937 58.3208 49.5929 58.304 49.5917L58.2649 49.5894C58.2157 49.5863 58.1666 49.5829 58.1174 49.5791L58.066 49.5749C58.0443 49.5733 58.0226 49.5712 58.0011 49.5694C57.9758 49.5672 57.9505 49.5647 57.9251 49.5623C57.8828 49.5584 57.8404 49.5541 57.798 49.5494H57.796C58.4148 48.1689 58.1019 46.8794 56.8513 45.6299C56.0311 44.8108 55.4855 43.6013 55.3723 43.3357C55.1431 42.5496 54.5367 41.6758 53.5297 41.6758C53.4445 41.6758 53.3594 41.6826 53.2753 41.6958C52.8342 41.7653 52.4485 42.0192 52.1733 42.4013C51.8759 42.0315 51.587 41.7375 51.3256 41.5715C50.9316 41.3217 50.5383 41.1949 50.1552 41.1949C49.677 41.1949 49.2497 41.3913 48.9517 41.7474L48.9442 41.7565C48.9385 41.7331 48.9331 41.7096 48.9275 41.6861L48.9268 41.683C48.8701 41.4406 48.8225 41.1961 48.7841 40.9501C48.7841 40.9485 48.7841 40.9468 48.7833 40.9452C48.7803 40.9267 48.7776 40.908 48.7748 40.8894C48.7664 40.8344 48.7586 40.7793 48.7513 40.7242C48.7481 40.6992 48.7446 40.6741 48.7414 40.6491L48.7322 40.5739C48.7293 40.5488 48.7268 40.5261 48.7241 40.5023L48.7233 40.4963C48.7125 40.3988 48.703 40.3013 48.6949 40.2035L48.6919 40.166L48.6871 40.1021C48.6858 40.0846 48.6844 40.067 48.6835 40.0494C48.6835 40.0452 48.6828 40.0412 48.6827 40.0372C48.6792 39.9882 48.6763 39.9391 48.6739 39.8899C48.6725 39.8643 48.6712 39.8389 48.6701 39.8131L48.6674 39.746L48.6667 39.7256L48.6645 39.6638L48.6632 39.6111C48.6632 39.5901 48.6621 39.5691 48.6618 39.5481C48.6614 39.5271 48.6609 39.5041 48.6607 39.4819C48.6605 39.4597 48.6607 39.4377 48.6601 39.4157C48.6595 39.3935 48.6601 39.3714 48.6601 39.3493C48.6601 33.6817 53.2549 29.0869 58.923 29.0869C64.591 29.0869 69.1857 33.6816 69.1857 39.3493V39.4819C69.1857 39.504 69.185 39.5262 69.1846 39.5481C69.1846 39.5664 69.1838 39.5844 69.1833 39.603C69.1833 39.6192 69.1826 39.6356 69.1821 39.6513C69.1821 39.672 69.1808 39.6927 69.1802 39.7135V39.7151L69.1773 39.787C69.1764 39.808 69.1756 39.8291 69.1745 39.8501L69.1738 39.865L69.1701 39.9322C69.1622 40.0761 69.1512 40.2198 69.1375 40.3633V40.3651C69.1352 40.3886 69.1329 40.4122 69.1303 40.4358L69.1242 40.4914L69.1122 40.6003L69.1053 40.6554L69.0967 40.7203C69.0936 40.7438 69.0905 40.7675 69.087 40.791C69.0835 40.8174 69.0796 40.8436 69.0756 40.8699L69.0663 40.9321L69.0552 41.0025C69.0514 41.0259 69.0473 41.0492 69.043 41.0725C69.0385 41.0959 69.035 41.1192 69.0309 41.1425C69.0228 41.1891 69.0143 41.2357 69.0053 41.2821C68.9917 41.3516 68.9777 41.4209 68.9634 41.4903L68.9485 41.5589C68.9436 41.5818 68.9383 41.6048 68.9332 41.6277C68.6443 41.347 68.2618 41.1941 67.8399 41.1941C67.4571 41.1941 67.0635 41.3207 66.6695 41.5706C66.4082 41.7366 66.1193 42.0307 65.8218 42.4004C65.5463 42.0182 65.1606 41.7643 64.7197 41.6949C64.6356 41.6816 64.5505 41.6748 64.4654 41.6748C63.458 41.6748 62.852 42.5487 62.6227 43.3348C62.509 43.6003 61.9633 44.8099 61.1424 45.6302C59.8926 46.8758 59.5774 48.1594 60.1865 49.5343ZM70.7816 46.7706L70.7775 46.7826C70.7673 46.8098 70.7553 46.8364 70.7419 46.8621C70.7318 46.8811 70.7208 46.8995 70.7089 46.9174C70.6863 46.9511 70.6615 46.9833 70.6345 47.0136C70.6283 47.0207 70.6224 47.0277 70.6153 47.0346C70.6056 47.0451 70.5957 47.0553 70.5855 47.0654C70.4033 47.246 70.1254 47.4044 69.8112 47.5497C69.7756 47.5659 69.7394 47.582 69.703 47.5982L69.6667 47.6143C69.6425 47.625 69.6182 47.6356 69.5928 47.646C69.5685 47.6566 69.5434 47.6672 69.5182 47.6774L69.4426 47.7086C69.2659 47.7813 69.0848 47.8506 68.9083 47.919L68.8327 47.9484L68.7581 47.9777C68.7084 47.997 68.6594 48.0164 68.6111 48.0358L68.5392 48.0647L68.4686 48.0936L68.4339 48.1082C68.4107 48.1178 68.3881 48.1274 68.3655 48.1371C67.8459 48.3601 67.472 48.5869 67.5506 48.8683C67.5527 48.8763 67.5552 48.8839 67.5579 48.8913C67.5649 48.9122 67.5745 48.9318 67.5866 48.9504C67.5936 48.9613 67.6017 48.9718 67.6108 48.9812C67.7032 49.0772 67.8712 49.0621 68.0832 48.9858C68.1129 48.9749 68.1426 48.9635 68.172 48.9516L68.1904 48.944C68.2389 48.9234 68.2902 48.9004 68.3426 48.8755C68.3557 48.8693 68.369 48.8633 68.3823 48.8564C68.6415 48.7296 68.9352 48.559 69.2266 48.4037C69.3432 48.3407 69.4614 48.281 69.5811 48.2243C69.8571 48.0944 70.1166 48.0023 70.3251 48.0023C70.423 48.0023 70.5094 48.0224 70.5815 48.0684L70.5935 48.0764C70.6387 48.1082 70.6767 48.1491 70.705 48.1965C70.7105 48.2056 70.7159 48.2152 70.7212 48.2251C70.8243 48.4207 70.738 48.6233 70.5361 48.822C70.3423 49.0128 70.0409 49.1998 69.6983 49.3729C69.6728 49.3857 69.6474 49.3986 69.6215 49.4112C68.6018 49.912 67.2665 50.2891 67.2479 50.2938C66.892 50.3861 66.3831 50.5071 65.8098 50.5977L65.725 50.611L65.7111 50.613C65.6469 50.6228 65.5826 50.6318 65.5181 50.6402C65.4527 50.649 65.3866 50.657 65.3201 50.6645L65.3079 50.6658C65.0669 50.6936 64.8249 50.712 64.5824 50.7208H64.5788C64.4911 50.7239 64.4035 50.7255 64.3157 50.7255H64.2146C64.0808 50.7238 63.9473 50.7177 63.8139 50.7074C63.8108 50.7074 63.8074 50.7074 63.8043 50.7066C63.7565 50.7029 63.7088 50.6985 63.6611 50.6932C63.6117 50.6879 63.5624 50.6819 63.5132 50.6753C63.4809 50.671 63.4487 50.6661 63.4164 50.6608C63.3837 50.6555 63.3509 50.6501 63.3183 50.6444L63.2737 50.636L63.2703 50.6354C63.2233 50.6264 63.1766 50.6165 63.13 50.6057C63.1029 50.5996 63.076 50.5936 63.0493 50.5863L63.0332 50.5823C63.0199 50.579 63.0071 50.5755 62.9939 50.572L62.9868 50.5701L62.945 50.5579C62.9299 50.5537 62.9147 50.5491 62.8995 50.5446L62.8943 50.5431L62.8549 50.5311C62.84 50.5265 62.8251 50.5216 62.8103 50.5167L62.774 50.5047L62.7473 50.4953C62.7216 50.4863 62.696 50.4769 62.6707 50.4672L62.6466 50.4577L62.6267 50.4498C62.5882 50.4344 62.55 50.4183 62.5122 50.4014L62.4872 50.3892L62.483 50.3873C62.4741 50.3831 62.4653 50.3789 62.4563 50.3752C62.4389 50.3668 62.4215 50.3582 62.4043 50.3494L62.399 50.3468L62.3741 50.3336C62.3298 50.3105 62.2865 50.2858 62.244 50.2597L62.2207 50.2454C62.2091 50.2382 62.1974 50.2307 62.186 50.2231L62.1557 50.2031L62.1231 50.1806L62.1036 50.1667C62.083 50.1521 62.0628 50.1369 62.043 50.1213L62.0115 50.0971C61.9989 50.0869 61.9864 50.0766 61.9741 50.0662C61.9637 50.0577 61.9535 50.0487 61.9434 50.0398L61.9426 50.0391C61.9316 50.0295 61.9209 50.0199 61.9102 50.01C61.8996 50.0004 61.8891 49.9906 61.8788 49.9807L61.8776 49.9795C61.8667 49.9692 61.8562 49.9588 61.8457 49.9481C61.8353 49.9376 61.8246 49.927 61.8144 49.9162C61.8043 49.9055 61.7939 49.8945 61.7838 49.8832C61.7738 49.8721 61.7646 49.862 61.7551 49.851L61.752 49.8474C61.7428 49.8368 61.7337 49.8261 61.7248 49.8151C61.7054 49.792 61.6866 49.7683 61.6685 49.744C61.6502 49.7197 61.6323 49.6947 61.6148 49.6694L61.5982 49.6445C61.576 49.612 61.5543 49.5792 61.5333 49.5459C61.5176 49.522 61.5023 49.4979 61.4874 49.4733C61.4778 49.458 61.4686 49.4426 61.4594 49.4274L61.4556 49.4212C61.4468 49.4063 61.4381 49.3917 61.4297 49.3769C61.4249 49.3689 61.4202 49.3609 61.4159 49.3527C61.4114 49.3443 61.4063 49.3358 61.4016 49.3272L61.3938 49.3138L61.3891 49.3052C61.38 49.2889 61.3711 49.2725 61.3624 49.256C61.3584 49.2487 61.3544 49.2414 61.3502 49.2343L61.3382 49.2109L61.326 49.1878C61.2955 49.1268 61.2667 49.0651 61.2396 49.0025L61.23 48.9796C61.2238 48.9643 61.2179 48.9491 61.2117 48.9341C61.2087 48.9268 61.2057 48.9196 61.2032 48.9123C61.1887 48.8748 61.1751 48.8369 61.1627 48.7987C61.1582 48.785 61.1539 48.7716 61.1498 48.7581C61.1401 48.7273 61.1313 48.6963 61.1234 48.665C61.1138 48.6286 61.1053 48.5919 61.0981 48.5549C61.0966 48.5475 61.0951 48.5401 61.0939 48.5329C61.0869 48.4967 61.0812 48.4603 61.0767 48.4237C61.0756 48.4166 61.0748 48.4094 61.074 48.4022L61.0717 48.3803C61.0687 48.3516 61.0664 48.3227 61.0651 48.2939C61.0651 48.2866 61.0644 48.2792 61.0641 48.2722C61.0634 48.2578 61.0632 48.2435 61.063 48.2291C61.0554 47.6505 61.3482 47.0942 61.9742 46.4684C63.0894 45.3544 63.7386 43.7241 63.7386 43.7241C63.7386 43.7241 63.7561 43.6557 63.7923 43.5573C63.7974 43.5436 63.8026 43.5295 63.8086 43.5147C63.8297 43.4596 63.8536 43.4055 63.88 43.3526L63.8852 43.3425C63.9077 43.2975 63.9324 43.2537 63.9589 43.211C63.9651 43.2011 63.9711 43.1914 63.978 43.1815C63.9979 43.1521 64.0189 43.1234 64.041 43.0956C64.053 43.0806 64.0662 43.0657 64.0793 43.0512C64.0846 43.0455 64.0897 43.0398 64.0953 43.0344C64.1599 42.9677 64.2337 42.9132 64.3172 42.8842L64.3278 42.8807C64.3348 42.8784 64.3419 42.8763 64.349 42.8742C64.3573 42.8721 64.3656 42.8702 64.3741 42.8684L64.378 42.8676C64.3956 42.8641 64.4135 42.8618 64.4315 42.8605H64.433C64.4423 42.8605 64.4518 42.8596 64.4614 42.8596C64.4735 42.8596 64.4847 42.8596 64.4965 42.8608C64.5087 42.8619 64.5208 42.8633 64.5329 42.8651C64.6334 42.8811 64.729 42.941 64.8114 43.0333C64.8426 43.0685 64.8708 43.1065 64.8954 43.1465C64.9117 43.1725 64.927 43.2 64.9415 43.229C64.9473 43.2411 64.9529 43.2522 64.9583 43.2641C64.9724 43.2947 64.9851 43.3258 64.9962 43.3577C65.0226 43.4321 65.0425 43.5088 65.0556 43.5868C65.067 43.6552 65.0738 43.7242 65.076 43.7934C65.077 43.8304 65.077 43.8679 65.076 43.9057C65.0686 44.0815 65.0326 44.2549 64.9694 44.4192C64.9637 44.4342 64.9573 44.4494 64.9512 44.4646C64.9388 44.4952 64.9251 44.5252 64.9103 44.5546C64.8994 44.5769 64.8879 44.5994 64.8754 44.6218C64.8673 44.6367 64.8587 44.6516 64.8502 44.6665C64.8284 44.7036 64.8049 44.7404 64.7795 44.7771L64.7642 44.799C64.7044 44.8824 64.6377 44.9607 64.5649 45.033C64.4931 45.1049 64.4162 45.1714 64.3348 45.2321C64.2533 45.2925 64.1768 45.3594 64.1061 45.4321C63.9026 45.6457 63.8552 45.8342 63.9009 45.977C63.9083 45.9995 63.9179 46.0213 63.9295 46.0419C63.9432 46.0654 63.9594 46.0871 63.9779 46.1069L63.985 46.1143L63.9924 46.1216C63.9997 46.1287 64.0074 46.1356 64.0156 46.1424L64.0238 46.1489C64.0434 46.164 64.0643 46.1776 64.0861 46.1895C64.0924 46.1929 64.0981 46.1963 64.1053 46.1995C64.1289 46.211 64.1531 46.2209 64.178 46.2289C64.1849 46.2312 64.1918 46.2332 64.1989 46.2354L64.2077 46.2377L64.2199 46.2409L64.2303 46.2435L64.2417 46.246L64.2529 46.2483L64.2636 46.25C64.2714 46.2514 64.2796 46.2527 64.2877 46.2537L64.2954 46.2549L64.3095 46.2562L64.3182 46.2572L64.3324 46.2581H64.3408L64.3557 46.259H64.4025L64.4159 46.2581L64.4314 46.2572L64.4502 46.2554L64.4678 46.2534C64.4719 46.2534 64.4759 46.2523 64.48 46.2515C64.5342 46.2437 64.5872 46.2293 64.638 46.2087L64.6596 46.1996C64.6716 46.1944 64.6838 46.1888 64.6949 46.1829C64.7187 46.1709 64.7419 46.1574 64.7641 46.1426C64.7951 46.1223 64.8244 46.0996 64.8517 46.0745C64.8582 46.0687 64.8646 46.0625 64.8708 46.0565C64.8739 46.0535 64.8769 46.0507 64.8799 46.0474C64.8858 46.0413 64.8919 46.0354 64.8979 46.0288C64.9412 45.9811 64.9787 45.9285 65.0096 45.8721C65.2746 45.3901 65.5524 44.9154 65.8426 44.4483L65.8824 44.3845L65.9226 44.3207C65.9426 44.2884 65.9629 44.2566 65.9831 44.2249L66.0034 44.1932C66.0709 44.0876 66.1394 43.9826 66.2091 43.8785L66.2504 43.8167C66.3333 43.6939 66.4159 43.5745 66.4978 43.461L66.5386 43.4048C66.6277 43.282 66.7205 43.1617 66.8167 43.0444L66.8549 42.9987C66.8613 42.9911 66.8671 42.9835 66.874 42.9762C66.8866 42.9613 66.8992 42.9468 66.9115 42.9327C66.9178 42.9255 66.9236 42.9185 66.9302 42.9115L66.9665 42.8706L66.9847 42.8507C67.0029 42.831 67.0208 42.8122 67.0384 42.7942C67.0506 42.782 67.0618 42.7699 67.0735 42.7586C67.1421 42.6884 67.2178 42.6255 67.2995 42.5709L67.3185 42.5587C67.3366 42.5465 67.3554 42.5351 67.3747 42.5248C67.6948 42.3431 67.9598 42.3297 68.1124 42.4823C68.2048 42.5747 68.2559 42.7278 68.2531 42.941C68.2531 42.9503 68.2531 42.9598 68.2524 42.9696V42.98C68.2524 42.9897 68.2516 42.9995 68.2508 43.0094C68.2508 43.0216 68.2494 43.0336 68.2482 43.0458C68.247 43.0578 68.2463 43.0671 68.2451 43.0779C68.2451 43.0809 68.2446 43.084 68.244 43.0872C68.2432 43.0966 68.242 43.1062 68.2406 43.1158C68.2406 43.1186 68.2406 43.1216 68.2396 43.1246C68.2381 43.1375 68.2362 43.1502 68.234 43.1629C68.2325 43.1751 68.2305 43.1865 68.2283 43.1984L68.2248 43.2186C68.2213 43.2378 68.2168 43.2568 68.2113 43.2755C68.2007 43.3105 68.188 43.3448 68.1729 43.3781C68.1519 43.4239 68.1288 43.4684 68.1033 43.5118C68.0892 43.5359 68.0748 43.5596 68.0597 43.583C68.0443 43.6072 68.028 43.6317 68.0112 43.6565C67.9685 43.7177 67.924 43.7777 67.8779 43.8364L67.8567 43.863C67.7814 43.9569 67.7037 44.0488 67.6236 44.1386L67.5982 44.167C67.5641 44.2051 67.5294 44.2434 67.494 44.2819L67.4673 44.3109C67.4495 44.3302 67.431 44.3496 67.4131 44.3691C67.3954 44.3884 67.3768 44.4081 67.3581 44.4277L67.3025 44.4864L67.246 44.5454L67.1891 44.6044C67.1509 44.644 67.1126 44.6835 67.074 44.7231C66.5249 45.2863 65.9464 45.8476 65.7506 46.1975C65.7375 46.2202 65.7257 46.2438 65.7151 46.2678C65.6872 46.3314 65.6756 46.3858 65.6836 46.4299C65.6861 46.4443 65.6912 46.4582 65.6986 46.4709C65.7096 46.49 65.723 46.5076 65.7386 46.5233C65.7457 46.5303 65.7533 46.5368 65.7613 46.5428C65.8017 46.5715 65.8503 46.5863 65.8998 46.5849H65.9153L65.9311 46.5837L65.947 46.5819L65.9601 46.58C65.9619 46.5798 65.9637 46.5795 65.9655 46.5789L65.9776 46.5766L65.9807 46.576L65.9941 46.5731L65.9988 46.5719C66.0036 46.5707 66.0082 46.5695 66.0129 46.5681C66.0176 46.5668 66.0241 46.565 66.0298 46.5631C66.0537 46.5559 66.077 46.5474 66.0998 46.5376C66.1119 46.5328 66.1237 46.5275 66.1353 46.5218C66.1414 46.5191 66.1475 46.5163 66.1532 46.5133L66.1713 46.5043C66.2147 46.4819 66.2569 46.4573 66.2981 46.4311L66.3161 46.4189C66.3222 46.4151 66.3283 46.4112 66.3341 46.4068L66.3521 46.3948L66.3617 46.3881L66.3877 46.3699C66.412 46.3532 66.4346 46.336 66.4575 46.3185L66.4595 46.3169L66.4959 46.2887C66.5456 46.2495 66.5928 46.2099 66.6356 46.1727L66.664 46.1478L66.6666 46.1453L66.6815 46.1322C66.7164 46.1008 66.7475 46.0715 66.7734 46.0474L66.7841 46.037C66.7934 46.0282 66.802 46.0199 66.8097 46.0129L66.8249 45.9979L66.8303 45.9926L66.8318 45.9911L66.8476 45.9753L66.8576 45.9648L66.8589 45.9639L66.8636 45.9596L66.8696 45.9541L66.8714 45.9524L66.8765 45.9478L66.9041 45.9235L66.9195 45.9097C66.9278 45.9025 66.9358 45.8952 66.9438 45.8878L66.9622 45.8714C66.9656 45.8687 66.9688 45.8657 66.9722 45.8627L66.9916 45.8458L67.02 45.8207L67.0352 45.8076C67.0941 45.7564 67.1657 45.6945 67.248 45.6248L67.2818 45.5962L67.3374 45.5495L67.3944 45.502C67.4689 45.4401 67.5491 45.3744 67.6338 45.3063L67.6895 45.2616C67.7369 45.2238 67.7855 45.1854 67.8348 45.1466C67.8547 45.1311 67.8749 45.1155 67.8955 45.1001C67.9458 45.0609 67.9965 45.0221 68.0475 44.9837C68.1637 44.896 68.2836 44.8081 68.4049 44.7225L68.4569 44.6862C68.4933 44.6612 68.5296 44.636 68.5659 44.6115L68.5988 44.5893C68.6637 44.5453 68.7295 44.5023 68.7959 44.4605L68.8288 44.4398L68.8614 44.4195C68.8942 44.3991 68.9267 44.3792 68.959 44.3599L68.9914 44.3405L69.0561 44.3029L69.1196 44.2664L69.1325 44.2594L69.1827 44.2318C69.2037 44.2204 69.2246 44.2094 69.2454 44.1987L69.2764 44.1827L69.3066 44.1676C69.3172 44.1626 69.3276 44.1573 69.3379 44.1523C69.4059 44.1187 69.4752 44.0878 69.5457 44.0597C69.5648 44.0515 69.5837 44.0442 69.6025 44.0379L69.6581 44.0184C69.6747 44.0128 69.691 44.0075 69.7065 44.0028L69.7119 44.0012C69.7203 43.9984 69.7287 43.996 69.737 43.9938L69.7394 43.9932C69.7568 43.9882 69.774 43.9838 69.7909 43.9798H69.7921C69.8401 43.9683 69.8888 43.96 69.938 43.955C69.9606 43.9527 69.9832 43.9515 70.0059 43.9516H70.0173C70.0325 43.9516 70.0471 43.9525 70.0616 43.954C70.0682 43.954 70.0749 43.9554 70.0814 43.9562H70.0841C70.0906 43.957 70.0971 43.958 70.1036 43.9594C70.1099 43.9607 70.1164 43.9617 70.1227 43.9632H70.1247C70.1311 43.9646 70.1368 43.9662 70.1434 43.9681C70.1778 43.9777 70.2106 43.9926 70.2406 44.0121C70.2554 44.0217 70.2692 44.0326 70.2819 44.0446L70.2856 44.0481C70.288 44.0503 70.2903 44.0526 70.2925 44.0549L70.2991 44.0621C70.3536 44.1191 70.3985 44.1845 70.4324 44.2557L70.4375 44.2679C70.449 44.295 70.4581 44.323 70.4646 44.3516C70.4838 44.4391 70.4764 44.5304 70.4432 44.6136C70.4306 44.6472 70.4153 44.6796 70.3973 44.7105C70.3552 44.7814 70.3052 44.8474 70.2485 44.9071L70.2364 44.92C70.2184 44.9389 70.1997 44.9579 70.1801 44.9768C70.1714 44.9854 70.1623 44.9938 70.1533 45.0023L70.1255 45.0279L70.111 45.0407C70.0761 45.0719 70.0402 45.1021 70.0038 45.1313C69.9817 45.1492 69.9595 45.1667 69.937 45.1839C69.8577 45.2446 69.7768 45.3031 69.6945 45.3595C69.6448 45.3936 69.5947 45.4271 69.5442 45.4601C69.4197 45.5418 69.2939 45.6214 69.1669 45.6989C68.9004 45.8627 68.6051 46.038 68.2902 46.2285L68.2087 46.2779C68.1194 46.3324 68.0352 46.3844 67.9559 46.4339L67.9159 46.459L67.8404 46.5074C67.7902 46.5395 67.7403 46.5719 67.6903 46.6043L67.6501 46.6308C67.6305 46.6435 67.611 46.6565 67.5915 46.6695L67.5724 46.6817L67.5139 46.7211L67.4829 46.7424L67.4466 46.7676L67.4128 46.791C67.3564 46.831 67.3038 46.869 67.2555 46.9052L67.2373 46.919C67.2089 46.9405 67.1807 46.9624 67.153 46.9848C67.1111 47.0185 67.0729 47.0507 67.0387 47.0818L67.0219 47.0971C67.0123 47.1059 67.0028 47.1147 66.9937 47.1233C66.9875 47.1294 66.9817 47.1355 66.9752 47.1413L66.9665 47.15C66.9471 47.1695 66.9282 47.1894 66.9099 47.2099L66.901 47.2201C66.8811 47.2432 66.8637 47.2652 66.8486 47.2868L66.8418 47.2964C66.8299 47.3137 66.8189 47.3316 66.809 47.35C66.8064 47.3546 66.8041 47.3592 66.8018 47.3638L66.7952 47.3776L66.7907 47.3877L66.7879 47.3944L66.7856 47.4005L66.7825 47.4088C66.7741 47.4317 66.7683 47.4555 66.7649 47.4796L66.7638 47.488L66.763 47.4959V47.5385C66.763 47.542 66.763 47.5456 66.7639 47.5493L66.7646 47.5558C66.7646 47.5594 66.7654 47.5628 66.766 47.5665C66.7665 47.5701 66.7674 47.5764 66.7685 47.5814V47.5821C66.7695 47.5869 66.7704 47.5915 66.7716 47.5962C66.7729 47.6009 66.7741 47.6064 66.7756 47.6112C66.7781 47.6208 66.7814 47.6303 66.7848 47.6398C66.7869 47.6455 66.789 47.651 66.7913 47.6566C66.7913 47.6577 66.7921 47.6589 66.7926 47.66L66.7975 47.6709L66.8043 47.686C66.8116 47.7016 66.8196 47.7167 66.8282 47.7315L66.8372 47.7469L66.8464 47.7624C66.848 47.7649 66.8499 47.7674 66.8519 47.7697L66.8549 47.7728L66.8583 47.7759L66.8618 47.7786C66.867 47.7823 66.8725 47.7851 66.8784 47.7871C66.8815 47.7882 66.8847 47.789 66.888 47.7898C66.9661 47.8074 67.1267 47.7429 67.3401 47.6302C67.3522 47.6237 67.3654 47.6169 67.3783 47.6099L67.4433 47.5744L67.475 47.5568C67.4976 47.5447 67.5206 47.5311 67.5442 47.5177L67.5871 47.4934C67.8692 47.3311 68.2061 47.1225 68.5544 46.9188C68.587 46.8997 68.6198 46.8807 68.6526 46.8618L68.7184 46.8197C68.7948 46.776 68.8716 46.7328 68.9486 46.6901C69.0457 46.6368 69.1435 46.5848 69.2422 46.5344L69.3066 46.5018C69.3494 46.4806 69.3918 46.4601 69.4337 46.44C69.5146 46.4016 69.5966 46.365 69.6794 46.3305L69.7248 46.312L69.7302 46.3099C69.9706 46.2147 70.1885 46.1559 70.3648 46.1559C70.4028 46.1555 70.441 46.1587 70.4785 46.1652H70.4798C70.4918 46.1674 70.5028 46.1699 70.514 46.1726H70.5161C70.5449 46.1799 70.5729 46.1903 70.5995 46.2037C70.6367 46.2229 70.6702 46.2485 70.6985 46.2794C70.7115 46.2938 70.723 46.3093 70.7331 46.3259C70.7521 46.355 70.767 46.3865 70.7777 46.4196C70.782 46.4324 70.7858 46.445 70.7897 46.4584C70.8183 46.5609 70.8155 46.6697 70.7816 46.7706Z" fill="#FF9D00"/>
<path fill-rule="evenodd" clip-rule="evenodd" d="M69.1868 39.4157V39.3492C69.1868 33.6815 64.5937 29.0869 58.9256 29.0869C53.2576 29.0869 48.6628 33.6817 48.6628 39.3492V39.3714C48.6625 39.3862 48.6624 39.4009 48.6628 39.4157C48.6634 39.4378 48.6637 39.4598 48.6635 39.4819L48.6641 39.5307L48.6645 39.5481C48.6645 39.5562 48.6648 39.5642 48.6651 39.5724C48.6655 39.5852 48.6658 39.5982 48.6658 39.6111L48.6672 39.6638L48.6694 39.7257L48.6701 39.746L48.6728 39.81V39.8131C48.6739 39.8382 48.6753 39.8631 48.6765 39.888L48.6766 39.8899C48.6779 39.9154 48.6793 39.941 48.6809 39.9666C48.6823 39.9901 48.6836 40.0137 48.6854 40.0372L48.6857 40.0414C48.6869 40.0616 48.6882 40.0819 48.6897 40.1021L48.6901 40.1075L48.6946 40.166L48.695 40.1698C48.6958 40.1812 48.6966 40.1926 48.6977 40.2035C48.7058 40.3012 48.7153 40.3988 48.726 40.4962L48.7267 40.5023L48.735 40.5739L48.7442 40.6491L48.7509 40.7001L48.7541 40.7241C48.7613 40.7793 48.7691 40.8344 48.7775 40.8894L48.778 40.8931L48.786 40.9451C48.8247 41.1928 48.8726 41.4389 48.9296 41.6831L48.9302 41.6861L48.9346 41.7044L48.9469 41.7565L48.9545 41.7474C49.2524 41.3913 49.6798 41.1949 50.1579 41.1949C50.5411 41.1949 50.9343 41.3217 51.3283 41.5715C51.5897 41.7375 51.8787 42.0315 52.176 42.4014C52.4512 42.0192 52.8369 41.7652 53.2781 41.6958C53.3622 41.6826 53.4472 41.6759 53.5324 41.6758C54.5393 41.6758 55.1459 42.5496 55.375 43.3357C55.4882 43.6013 56.0338 44.8108 56.8566 45.629C58.1073 46.8785 58.4202 48.1678 57.8012 49.5484H57.8034C57.8455 49.5531 57.8879 49.5574 57.9306 49.5614C57.9559 49.5638 57.9811 49.5662 58.0065 49.5684L58.0155 49.5692L58.0714 49.574L58.1229 49.578C58.1719 49.5818 58.221 49.5853 58.2703 49.5885L58.3095 49.5908L58.3405 49.5927L58.3597 49.5937L58.4202 49.5969L58.4367 49.5975L58.5003 49.6004L58.5709 49.6031L58.6277 49.6047L58.6372 49.605C58.6492 49.6055 58.6613 49.6059 58.6733 49.6059L58.6863 49.6063C58.7662 49.6082 58.846 49.6092 58.9259 49.609H59.0106L59.0712 49.6084C59.0861 49.6077 59.1008 49.6077 59.1159 49.6077H59.1394L59.1599 49.6071C59.1679 49.6069 59.1759 49.6066 59.184 49.6066H59.2082L59.2557 49.6054L59.3272 49.6029L59.4059 49.5994C59.4287 49.5986 59.4512 49.5974 59.4736 49.5963L59.4979 49.5948L59.5339 49.5929L59.555 49.5917L59.571 49.5906L59.6437 49.5859L59.7163 49.5806L59.7822 49.5753L59.8286 49.5714L59.8795 49.5668C59.9645 49.5592 60.0493 49.5503 60.1341 49.5401L60.1919 49.5332C59.5826 48.1585 59.898 46.8747 61.1435 45.6302C61.9645 44.8099 62.5101 43.6003 62.6238 43.3346C62.8531 42.5487 63.4592 41.6748 64.4664 41.6748C64.5516 41.6748 64.6368 41.6816 64.7209 41.6949C65.1617 41.7642 65.5473 42.0183 65.8229 42.4004C66.1204 42.0307 66.4093 41.7365 66.6708 41.5704C67.0647 41.3207 67.4582 41.194 67.841 41.194C68.263 41.194 68.6454 41.347 68.9342 41.6277C68.9395 41.6048 68.9447 41.5819 68.9497 41.5589L68.9644 41.4904C68.9697 41.4654 68.975 41.4403 68.98 41.4152C68.989 41.371 68.9979 41.3267 69.0064 41.282C69.0154 41.2357 69.0239 41.1891 69.032 41.1425L69.0362 41.1173C69.0388 41.1024 69.0412 41.0875 69.0441 41.0725C69.0487 41.0492 69.0525 41.0259 69.0563 41.0024L69.0578 40.9934L69.0674 40.9321L69.0768 40.8699V40.8694C69.0837 40.8235 69.0903 40.7776 69.0963 40.7317L69.0978 40.7203L69.1064 40.6556L69.1133 40.6003L69.1255 40.4914L69.1302 40.4477L69.1314 40.4358C69.134 40.4122 69.1364 40.3887 69.1386 40.3651V40.3632C69.1404 40.3445 69.1423 40.3257 69.1439 40.3069C69.1535 40.2002 69.1616 40.0929 69.1681 39.9852C69.1693 39.9676 69.1703 39.9499 69.1714 39.9322V39.9314L69.1749 39.8649L69.1757 39.85C69.1779 39.805 69.1798 39.76 69.1813 39.7151V39.7135L69.1819 39.6959C69.1826 39.6811 69.1831 39.6662 69.1831 39.6513L69.1834 39.6454C69.184 39.6314 69.1845 39.6171 69.1845 39.6028L69.1849 39.5906C69.1853 39.5764 69.1857 39.5623 69.1857 39.5481L69.186 39.5361C69.1864 39.5181 69.1868 39.4999 69.1868 39.4819V39.4157ZM56.3802 49.6675C57.1929 48.4757 57.1353 47.5812 56.0202 46.4667C54.905 45.3521 54.2559 43.7222 54.2559 43.7222C54.2559 43.7222 54.0136 42.7755 53.4611 42.8624C52.9086 42.9494 52.5033 44.3641 53.6602 45.2301C54.8169 46.0961 53.43 46.6832 52.9848 45.8706C52.5395 45.0578 51.3239 42.9687 50.6936 42.5691C50.0634 42.1695 49.6202 42.3935 49.7687 43.2171C49.8425 43.6259 50.5288 44.3237 51.17 44.9756C51.8206 45.637 52.4247 46.2512 52.2955 46.4686C52.0391 46.9002 51.1363 45.9615 51.1363 45.9615C51.1363 45.9615 48.3093 43.3888 47.694 44.0593C47.1266 44.6772 48.0015 45.2024 49.3498 46.0121C49.4643 46.0809 49.5824 46.1519 49.7033 46.225C51.2459 47.1588 51.3658 47.4051 51.1469 47.7584C51.066 47.889 50.5497 47.579 49.9146 47.1978C48.8319 46.5477 47.4044 45.6906 47.2027 46.4578C47.0283 47.1217 48.0786 47.5285 49.0311 47.8975C49.8247 48.2049 50.5505 48.486 50.4437 48.8676C50.333 49.2633 49.7333 48.9333 49.0777 48.5726C48.3417 48.1675 47.5353 47.7239 47.2714 48.2245C46.7726 49.1711 50.7123 50.2854 50.7448 50.2937C52.0177 50.6239 55.2504 51.3234 56.3802 49.6675ZM61.6161 49.6675C60.8033 48.4757 60.861 47.5812 61.9761 46.4667C63.0913 45.3521 63.7403 43.7222 63.7403 43.7222C63.7403 43.7222 63.9826 42.7755 64.5351 42.8624C65.0876 42.9494 65.4929 44.3641 64.3362 45.2301C63.1793 46.0961 64.5662 46.6832 65.0115 45.8706C65.4569 45.0578 66.6717 42.9687 67.3019 42.5691C67.9322 42.1695 68.3757 42.3935 68.227 43.2171C68.1533 43.6259 67.4669 44.3237 66.8257 44.9758C66.1751 45.6371 65.571 46.2512 65.7001 46.4686C65.9564 46.9002 66.8599 45.9609 66.8599 45.9609C66.8599 45.9609 69.6868 43.3884 70.3024 44.0589C70.8696 44.6766 69.9947 45.202 68.6464 46.0117C68.5284 46.0825 68.4106 46.1535 68.2929 46.2246C66.7504 47.1584 66.6304 47.4047 66.8492 47.7579C66.9302 47.8886 67.4466 47.5785 68.0815 47.1973C69.1643 46.5473 70.5919 45.6901 70.7935 46.4574C70.9681 47.1213 69.9176 47.5281 68.9651 47.8971C68.1716 48.2045 67.4458 48.4856 67.5525 48.8672C67.663 49.2628 68.2626 48.9328 68.918 48.572C69.654 48.167 70.4605 47.7231 70.7243 48.2241C71.2232 49.1712 67.2828 50.2845 67.251 50.2926C65.9781 50.6239 62.7454 51.3234 61.6161 49.6675Z" fill="#FFD21E"/>
<path fill-rule="evenodd" clip-rule="evenodd" d="M62.2542 36.556C62.4142 36.6126 62.5333 36.7848 62.6465 36.9488C62.7995 37.1704 62.9419 37.3766 63.1605 37.2604C63.4183 37.1232 63.6297 36.9128 63.7679 36.6555C63.9061 36.3982 63.965 36.1058 63.9371 35.8151C63.9163 35.5977 63.8475 35.3877 63.7356 35.2002C63.6238 35.0126 63.4717 34.8522 63.2905 34.7305C63.1092 34.6087 62.9031 34.5288 62.6872 34.4963C62.4712 34.4638 62.2508 34.4796 62.0417 34.5426C61.8326 34.6056 61.6402 34.7141 61.4781 34.8604C61.316 35.0066 61.1883 35.187 61.1043 35.3886C61.0204 35.5901 60.9821 35.8077 60.9922 36.0258C61.0025 36.244 61.0609 36.457 61.1634 36.6498C61.2647 36.8404 61.4895 36.7504 61.7267 36.6555C61.9126 36.5812 62.1064 36.5037 62.2542 36.556ZM55.2971 36.556C55.1371 36.6126 55.018 36.785 54.9048 36.9488C54.7518 37.1705 54.6092 37.3766 54.3908 37.2604C54.0665 37.0887 53.8179 36.8023 53.6932 36.4573C53.5686 36.1122 53.577 35.733 53.7167 35.3937C53.8564 35.0544 54.1174 34.7793 54.4489 34.622C54.7804 34.4647 55.1586 34.4365 55.5097 34.5429C55.7894 34.6271 56.0377 34.7923 56.2235 35.0176C56.4093 35.2429 56.524 35.5182 56.5534 35.8088C56.5826 36.0993 56.5251 36.392 56.3881 36.6498C56.2866 36.8404 56.0618 36.7504 55.8246 36.6557C55.6385 36.5812 55.445 36.5037 55.2971 36.556ZM61.1779 42.8868C62.2806 42.0182 62.6856 40.5998 62.6856 39.7261C62.6856 39.0355 62.221 39.2528 61.4771 39.6211L61.4352 39.6419C60.7524 39.98 59.8435 40.4303 58.8457 40.4303C57.8478 40.4303 56.9389 39.98 56.2563 39.6417C55.4883 39.2613 55.0067 39.0227 55.0067 39.7262C55.0067 40.6276 55.4376 42.1075 56.6203 42.9673C56.7764 42.6505 56.9962 42.3694 57.266 42.1414C57.5356 41.9133 57.8495 41.7434 58.1877 41.6421C58.3058 41.6069 58.4274 41.8102 58.5519 42.0183C58.672 42.219 58.7948 42.4243 58.9197 42.4243C59.0528 42.4243 59.1835 42.222 59.3112 42.0245C59.4445 41.818 59.5747 41.6169 59.7005 41.6571C60.3336 41.8604 60.8632 42.3012 61.1779 42.8868Z" fill="#32343D"/>
<path d="M61.1784 42.8869C60.6041 43.3395 59.8408 43.643 58.8467 43.643C57.9127 43.643 57.1823 43.3751 56.6211 42.9674C56.7772 42.6506 56.997 42.3694 57.2668 42.1415C57.5364 41.9134 57.8503 41.7435 58.1885 41.6422C58.4204 41.573 58.6662 42.4244 58.9205 42.4244C59.1927 42.4244 59.455 41.5785 59.7013 41.6572C60.3342 41.8606 60.8637 42.3014 61.1784 42.8869Z" fill="#FF323D"/>
<path fill-rule="evenodd" clip-rule="evenodd" d="M52.6611 37.7845C52.5299 37.8722 52.3791 37.9262 52.222 37.9417C52.0649 37.9573 51.9064 37.9337 51.7606 37.8732C51.644 37.8251 51.5381 37.7544 51.449 37.6652C51.3598 37.5761 51.2891 37.4702 51.241 37.3536C51.1806 37.2077 51.1571 37.0493 51.1726 36.8922C51.1881 36.7351 51.2422 36.5843 51.3299 36.4531C51.4354 36.2952 51.5853 36.1721 51.7607 36.0994C51.9362 36.0268 52.1292 36.0078 52.3154 36.0448C52.5016 36.0819 52.6726 36.1734 52.8069 36.3076C52.9411 36.4419 53.0324 36.6131 53.0694 36.7993C53.1064 36.9855 53.0873 37.1785 53.0147 37.3538C52.9421 37.5292 52.8189 37.679 52.6611 37.7845ZM66.3941 37.7845C66.2629 37.8722 66.112 37.9262 65.9549 37.9417C65.7977 37.9573 65.6393 37.9337 65.4935 37.8732C65.3769 37.825 65.271 37.7544 65.1819 37.6652C65.0928 37.5761 65.0221 37.4702 64.9739 37.3536C64.9136 37.2077 64.8902 37.0493 64.9056 36.8922C64.9212 36.7351 64.9752 36.5843 65.0628 36.4531C65.1416 36.335 65.2458 36.236 65.3675 36.163C65.4893 36.09 65.6256 36.0449 65.7669 36.0311C65.9082 36.0172 66.0508 36.0348 66.1843 36.0827C66.318 36.1305 66.4393 36.2075 66.5397 36.3079C66.674 36.4421 66.7654 36.6131 66.8024 36.7993C66.8395 36.9855 66.8204 37.1785 66.7477 37.3538C66.675 37.5292 66.552 37.679 66.3941 37.7845Z" fill="#FFAD03"/>
</svg>
