<svg width="86" height="86" viewBox="0 0 86 86" fill="none" xmlns="http://www.w3.org/2000/svg">
<circle cx="43" cy="43" r="42" stroke="url(#paint0_linear_5212_36507)" stroke-width="1.5"/>
<mask id="mask0_5212_36507" style="mask-type:alpha" maskUnits="userSpaceOnUse" x="2" y="2" width="82" height="82">
<circle cx="43" cy="43" r="41" fill="#D9D9D9"/>
</mask>
<g mask="url(#mask0_5212_36507)">
<path fill-rule="evenodd" clip-rule="evenodd" d="M44.5188 71.0279H19.6058C18.1507 71.0279 16.9688 69.8459 16.9688 68.3909V45.2782C16.9688 43.823 18.1507 42.6411 19.6058 42.6411H44.5118C45.9669 42.6411 47.1488 43.8231 47.1488 45.2782V68.3909C47.1488 69.846 45.9668 71.0279 44.5118 71.0279H44.5188ZM19.6058 44.1132C18.9627 44.1132 18.4363 44.6347 18.4363 45.2827V68.3954C18.4363 69.0386 18.9577 69.565 19.6058 69.565H44.5118C45.1549 69.565 45.6813 69.0435 45.6813 68.3954V45.2827C45.6813 44.6396 45.1598 44.1132 44.5118 44.1132H19.6058Z" fill="url(#paint1_linear_5212_36507)"/>
<path fill-rule="evenodd" clip-rule="evenodd" d="M28.4722 53.4697C28.3704 53.4697 28.2686 53.4498 28.1743 53.4051C27.9061 53.2835 27.7422 53.0227 27.7422 52.7372V43.3806C27.7422 42.9734 28.0724 42.6431 28.4797 42.6431H35.6559C36.0631 42.6431 36.3934 42.9733 36.3934 43.3806V52.7372C36.3934 53.0227 36.227 53.2835 35.9738 53.4051C35.713 53.5268 35.4151 53.4871 35.1916 53.3033L31.9635 50.6265L28.9763 53.2835C28.8373 53.4052 28.6659 53.4672 28.4871 53.4672L28.4722 53.4697ZM31.9312 48.9181C32.0976 48.9181 32.2615 48.9752 32.4005 49.0894L34.911 51.1678V44.106H29.2022V51.0909L31.4395 49.1019C31.5786 48.9802 31.7499 48.9181 31.9287 48.9181L31.9312 48.9181Z" fill="url(#paint2_linear_5212_36507)"/>
<path fill-rule="evenodd" clip-rule="evenodd" d="M63.7183 56.1716H46.4285C46.0212 56.1716 45.691 55.8414 45.691 55.4341V45.2759C45.691 44.6328 45.1695 44.1064 44.5214 44.1064H38.7556C38.3484 44.1064 38.0181 43.7762 38.0181 43.3689L38.0156 20.6681C38.0156 18.8505 39.4956 17.3755 41.3083 17.3755H46.6669C47.0741 17.3755 47.4044 17.7057 47.4044 18.113V19.6203H57.6128V18.113C57.6128 17.7058 57.943 17.3755 58.3503 17.3755H63.7089C65.5265 17.3755 67.0015 18.8554 67.0015 20.6681V52.8793C67.0015 54.697 65.5265 56.1719 63.7089 56.1719L63.7183 56.1716ZM47.1633 54.7041H63.7158C64.719 54.7041 65.5409 53.8846 65.5409 52.879V20.6678C65.5409 19.6646 64.7214 18.8427 63.7158 18.8427H59.0873V20.35C59.0873 20.7572 58.757 21.0875 58.3498 21.0875H46.6717C46.2645 21.0875 45.9342 20.7572 45.9342 20.35V18.8427H41.3131C40.3099 18.8427 39.488 19.6622 39.488 20.6678V42.6363H44.5163C45.9715 42.6363 47.1534 43.8183 47.1534 45.2733V54.6992L47.1633 54.7041Z" fill="url(#paint3_linear_5212_36507)"/>
<path fill-rule="evenodd" clip-rule="evenodd" d="M58.3531 21.0825H46.675C46.2678 21.0825 45.9375 20.7522 45.9375 20.345V15.8629C45.9375 15.4557 46.2678 15.1254 46.675 15.1254H49.8783C50.2036 13.9757 51.2589 13.124 52.5104 13.124C53.7618 13.124 54.8246 13.9683 55.1425 15.1254H58.3457C58.753 15.1254 59.0832 15.4557 59.0832 15.8629V20.345C59.0832 20.7522 58.753 21.0825 58.3457 21.0825H58.3531ZM47.4149 19.6125H57.6233V16.6054H54.5219C54.1147 16.6054 53.7844 16.2751 53.7844 15.8679C53.7844 15.1676 53.2183 14.604 52.5205 14.604C51.8202 14.604 51.2566 15.1701 51.2566 15.8679C51.2566 16.2751 50.9263 16.6054 50.519 16.6054H47.4176V19.6125H47.4149Z" fill="url(#paint4_linear_5212_36507)"/>
<path fill-rule="evenodd" clip-rule="evenodd" d="M59.3687 31.8892C57.2084 31.8892 55.4453 30.1287 55.4453 27.9658C55.4453 25.8055 57.2058 24.0425 59.3687 24.0425C61.529 24.0425 63.292 25.803 63.292 27.9658C63.292 30.1261 61.5315 31.8892 59.3687 31.8892ZM59.3687 25.5127C58.0154 25.5127 56.9153 26.6127 56.9153 27.966C56.9153 29.3193 58.0154 30.4194 59.3687 30.4194C60.722 30.4194 61.822 29.3193 61.822 27.966C61.822 26.6127 60.722 25.5127 59.3687 25.5127Z" fill="url(#paint5_linear_5212_36507)"/>
<path fill-rule="evenodd" clip-rule="evenodd" d="M58.9771 29.4232C58.7809 29.4232 58.5947 29.3463 58.4556 29.2072L57.8001 28.5517C57.5145 28.2661 57.5145 27.8018 57.8001 27.5088C58.0857 27.2232 58.55 27.2232 58.843 27.5088L58.9821 27.6479L59.9158 26.7142C60.2013 26.4286 60.6657 26.4286 60.9586 26.7142C61.2442 26.9997 61.2442 27.4641 60.9586 27.7571L59.5085 29.2072C59.3695 29.3462 59.1832 29.4232 58.9871 29.4232L58.9771 29.4232Z" fill="url(#paint6_linear_5212_36507)"/>
<path fill-rule="evenodd" clip-rule="evenodd" d="M51.8156 27.2285H42.4641C42.0568 27.2285 41.7266 26.8982 41.7266 26.4909C41.7266 26.0837 42.0568 25.7534 42.4641 25.7534H51.8156C52.2228 25.7534 52.5531 26.0837 52.5531 26.4909C52.5531 26.8982 52.2228 27.2285 51.8156 27.2285Z" fill="url(#paint7_linear_5212_36507)"/>
<path fill-rule="evenodd" clip-rule="evenodd" d="M51.8156 30.1655H42.4641C42.0568 30.1655 41.7266 29.8352 41.7266 29.4279C41.7266 29.0207 42.0568 28.6904 42.4641 28.6904H51.8156C52.2228 28.6904 52.5531 29.0207 52.5531 29.4279C52.5531 29.8352 52.2228 30.1655 51.8156 30.1655Z" fill="url(#paint8_linear_5212_36507)"/>
<path fill-rule="evenodd" clip-rule="evenodd" d="M59.3687 41.8189C57.2084 41.8189 55.4453 40.0584 55.4453 37.8955C55.4453 35.7352 57.2058 33.9722 59.3687 33.9722C61.529 33.9722 63.292 35.7327 63.292 37.8955C63.292 40.0558 61.5315 41.8189 59.3687 41.8189ZM59.3687 35.4424C58.0154 35.4424 56.9153 36.5424 56.9153 37.8957C56.9153 39.249 58.0154 40.3491 59.3687 40.3491C60.722 40.3491 61.822 39.249 61.822 37.8957C61.822 36.5424 60.722 35.4424 59.3687 35.4424Z" fill="url(#paint9_linear_5212_36507)"/>
<path fill-rule="evenodd" clip-rule="evenodd" d="M51.8156 37.1581H42.4641C42.0568 37.1581 41.7266 36.8279 41.7266 36.4206C41.7266 36.0134 42.0568 35.6831 42.4641 35.6831H51.8156C52.2228 35.6831 52.5531 36.0134 52.5531 36.4206C52.5531 36.8279 52.2228 37.1581 51.8156 37.1581Z" fill="url(#paint10_linear_5212_36507)"/>
<path fill-rule="evenodd" clip-rule="evenodd" d="M51.8156 40.0956H42.4641C42.0568 40.0956 41.7266 39.7654 41.7266 39.3581C41.7266 38.9509 42.0568 38.6206 42.4641 38.6206H51.8156C52.2228 38.6206 52.5531 38.9509 52.5531 39.3581C52.5531 39.7654 52.2228 40.0956 51.8156 40.0956Z" fill="url(#paint11_linear_5212_36507)"/>
<path fill-rule="evenodd" clip-rule="evenodd" d="M59.3687 51.7466C57.2084 51.7466 55.4453 49.9861 55.4453 47.8233C55.4453 45.663 57.2058 43.8999 59.3687 43.8999C61.529 43.8999 63.292 45.6604 63.292 47.8233C63.292 49.9836 61.5315 51.7466 59.3687 51.7466ZM59.3687 45.3726C58.0154 45.3726 56.9153 46.4727 56.9153 47.826C56.9153 49.1793 58.0154 50.2793 59.3687 50.2793C60.722 50.2793 61.822 49.1793 61.822 47.826C61.822 46.4727 60.722 45.3726 59.3687 45.3726Z" fill="url(#paint12_linear_5212_36507)"/>
<path fill-rule="evenodd" clip-rule="evenodd" d="M51.8237 47.0883H46.4328C46.0256 47.0883 45.6953 46.7581 45.6953 46.3508C45.6953 45.9435 46.0256 45.6133 46.4328 45.6133H51.8237C52.2309 45.6133 52.5612 45.9435 52.5612 46.3508C52.5612 46.7581 52.231 47.0883 51.8237 47.0883Z" fill="url(#paint13_linear_5212_36507)"/>
<path fill-rule="evenodd" clip-rule="evenodd" d="M51.8237 50.0234H46.4328C46.0256 50.0234 45.6953 49.6931 45.6953 49.2859C45.6953 48.8786 46.0256 48.5483 46.4328 48.5483H51.8237C52.2309 48.5483 52.5612 48.8786 52.5612 49.2859C52.5612 49.6931 52.231 50.0234 51.8237 50.0234Z" fill="url(#paint14_linear_5212_36507)"/>
<path fill-rule="evenodd" clip-rule="evenodd" d="M58.9771 39.3505C58.7809 39.3505 58.5947 39.2735 58.4556 39.1345L57.8001 38.4789C57.5145 38.1934 57.5145 37.729 57.8001 37.436C58.0857 37.1505 58.55 37.1505 58.843 37.436L58.9821 37.5751L59.9158 36.6414C60.2013 36.3559 60.6657 36.3559 60.9586 36.6414C61.2442 36.927 61.2442 37.3913 60.9586 37.6843L59.5085 39.1344C59.3695 39.2735 59.1832 39.3505 58.9871 39.3505L58.9771 39.3505Z" fill="url(#paint15_linear_5212_36507)"/>
<path fill-rule="evenodd" clip-rule="evenodd" d="M58.9771 49.2807C58.7809 49.2807 58.5947 49.2037 58.4556 49.0646L57.8001 48.4091C57.5145 48.1236 57.5145 47.6592 57.8001 47.3662C58.0857 47.0807 58.55 47.0807 58.843 47.3662L58.9821 47.5053L59.9158 46.5716C60.2013 46.286 60.6657 46.286 60.9586 46.5716C61.2442 46.8572 61.2442 47.3215 60.9586 47.6145L59.5085 49.0646C59.3695 49.2037 59.1832 49.2806 58.9871 49.2806L58.9771 49.2807Z" fill="url(#paint16_linear_5212_36507)"/>
</g>
<defs>
<linearGradient id="paint0_linear_5212_36507" x1="10.9196" y1="1.00002" x2="85.0417" y2="14.9118" gradientUnits="userSpaceOnUse">
<stop stop-color="#2EC4F3"/>
<stop offset="1" stop-color="#BFD633"/>
</linearGradient>
<linearGradient id="paint1_linear_5212_36507" x1="20.5327" y1="42.6411" x2="47.0462" y2="47.9317" gradientUnits="userSpaceOnUse">
<stop stop-color="#2EC4F3"/>
<stop offset="1" stop-color="#BFD633"/>
</linearGradient>
<linearGradient id="paint2_linear_5212_36507" x1="28.7638" y1="42.6431" x2="36.4929" y2="43.8017" gradientUnits="userSpaceOnUse">
<stop stop-color="#2EC4F3"/>
<stop offset="1" stop-color="#BFD633"/>
</linearGradient>
<linearGradient id="paint3_linear_5212_36507" x1="41.4386" y1="17.3755" x2="67.4063" y2="21.0168" gradientUnits="userSpaceOnUse">
<stop stop-color="#2EC4F3"/>
<stop offset="1" stop-color="#BFD633"/>
</linearGradient>
<linearGradient id="paint4_linear_5212_36507" x1="47.4899" y1="13.124" x2="58.4454" y2="16.5205" gradientUnits="userSpaceOnUse">
<stop stop-color="#2EC4F3"/>
<stop offset="1" stop-color="#BFD633"/>
</linearGradient>
<linearGradient id="paint5_linear_5212_36507" x1="56.3719" y1="24.0425" x2="63.2959" y2="25.342" gradientUnits="userSpaceOnUse">
<stop stop-color="#2EC4F3"/>
<stop offset="1" stop-color="#BFD633"/>
</linearGradient>
<linearGradient id="paint6_linear_5212_36507" x1="58.0095" y1="26.5" x2="61.1211" y2="27.2166" gradientUnits="userSpaceOnUse">
<stop stop-color="#2EC4F3"/>
<stop offset="1" stop-color="#BFD633"/>
</linearGradient>
<linearGradient id="paint7_linear_5212_36507" x1="43.0051" y1="25.7534" x2="46.418" y2="30.4551" gradientUnits="userSpaceOnUse">
<stop stop-color="#2EC4F3"/>
<stop offset="1" stop-color="#BFD633"/>
</linearGradient>
<linearGradient id="paint8_linear_5212_36507" x1="43.0051" y1="28.6904" x2="46.418" y2="33.3921" gradientUnits="userSpaceOnUse">
<stop stop-color="#2EC4F3"/>
<stop offset="1" stop-color="#BFD633"/>
</linearGradient>
<linearGradient id="paint9_linear_5212_36507" x1="56.3719" y1="33.9722" x2="63.2959" y2="35.2717" gradientUnits="userSpaceOnUse">
<stop stop-color="#2EC4F3"/>
<stop offset="1" stop-color="#BFD633"/>
</linearGradient>
<linearGradient id="paint10_linear_5212_36507" x1="43.0051" y1="35.6831" x2="46.418" y2="40.3848" gradientUnits="userSpaceOnUse">
<stop stop-color="#2EC4F3"/>
<stop offset="1" stop-color="#BFD633"/>
</linearGradient>
<linearGradient id="paint11_linear_5212_36507" x1="43.0051" y1="38.6206" x2="46.418" y2="43.3223" gradientUnits="userSpaceOnUse">
<stop stop-color="#2EC4F3"/>
<stop offset="1" stop-color="#BFD633"/>
</linearGradient>
<linearGradient id="paint12_linear_5212_36507" x1="56.3719" y1="43.8999" x2="63.2959" y2="45.1994" gradientUnits="userSpaceOnUse">
<stop stop-color="#2EC4F3"/>
<stop offset="1" stop-color="#BFD633"/>
</linearGradient>
<linearGradient id="paint13_linear_5212_36507" x1="46.5061" y1="45.6133" x2="50.0632" y2="48.7209" gradientUnits="userSpaceOnUse">
<stop stop-color="#2EC4F3"/>
<stop offset="1" stop-color="#BFD633"/>
</linearGradient>
<linearGradient id="paint14_linear_5212_36507" x1="46.5061" y1="48.5483" x2="50.0632" y2="51.6559" gradientUnits="userSpaceOnUse">
<stop stop-color="#2EC4F3"/>
<stop offset="1" stop-color="#BFD633"/>
</linearGradient>
<linearGradient id="paint15_linear_5212_36507" x1="58.0095" y1="36.4272" x2="61.1211" y2="37.1438" gradientUnits="userSpaceOnUse">
<stop stop-color="#2EC4F3"/>
<stop offset="1" stop-color="#BFD633"/>
</linearGradient>
<linearGradient id="paint16_linear_5212_36507" x1="58.0095" y1="46.3574" x2="61.1211" y2="47.074" gradientUnits="userSpaceOnUse">
<stop stop-color="#2EC4F3"/>
<stop offset="1" stop-color="#BFD633"/>
</linearGradient>
</defs>
</svg>
