<svg width="100" height="100" viewBox="0 0 100 100" fill="none" xmlns="http://www.w3.org/2000/svg">
<rect width="100" height="100" fill="white"/>
<path d="M26.7078 58.4694C29.0471 58.4694 30.9431 56.5734 30.9431 54.2341H42.9431V42.2341C40.6038 42.2341 38.7078 40.3381 38.7078 37.9988C38.7078 35.6596 40.6038 33.7636 42.9431 33.7636V26.7047C42.9431 25.925 42.3111 25.293 41.5314 25.293H16.8255C15.266 25.293 14.002 26.5571 14.002 28.1165V54.2341H22.4725C22.4725 56.5734 24.3685 58.4694 26.7078 58.4694Z" fill="black"/>
<path d="M47.1784 73.2939C47.1784 70.9546 45.2824 69.0586 42.9431 69.0586V57.0586H33.1765C32.0867 59.5489 29.5963 61.2939 26.7078 61.2939C23.8194 61.2939 21.329 59.5489 20.2391 57.0586H14.002V83.1762C14.002 84.7362 15.2655 85.9998 16.8255 85.9998H42.9431V77.5292C45.2824 77.5292 47.1784 75.6332 47.1784 73.2939Z" fill="black"/>
<path d="M73.2931 57.0588H66.2343C66.2343 54.7195 64.3383 52.8235 61.999 52.8235C59.6597 52.8235 57.7637 54.7195 57.7637 57.0588H45.7637V66.8247C48.2547 67.916 49.999 70.4051 49.999 73.2941C49.999 76.1832 48.2547 78.6722 45.7637 79.7635V86H71.8813C73.4408 86 74.7048 84.7359 74.7048 83.1765V58.4706C74.7048 57.6909 74.0728 57.0588 73.2931 57.0588ZM83.1754 14H58.4696C57.6898 14 57.0578 14.632 57.0578 15.4118V22.4706C54.7185 22.4706 52.8225 24.3666 52.8225 26.7059C52.8225 29.0452 54.7185 30.9412 57.0578 30.9412V42.9412H69.0578C69.0578 40.6019 70.9538 38.7059 73.2931 38.7059C75.6324 38.7059 77.5284 40.6019 77.5284 42.9412H84.5872C85.3669 42.9412 85.999 42.3091 85.999 41.5294V16.8235C85.999 15.2641 84.7349 14 83.1754 14Z" fill="black"/>
</svg>
