<svg width="175" height="120" viewBox="0 0 175 120" fill="none" xmlns="http://www.w3.org/2000/svg">
<mask id="mask0_6857_55477" style="mask-type:alpha" maskUnits="userSpaceOnUse" x="0" y="0" width="175" height="120">
<rect width="175" height="120" fill="#D9D9D9"/>
</mask>
<g mask="url(#mask0_6857_55477)">
<path d="M88.0011 48.1621C85.6576 48.1621 83.3668 48.857 81.4183 50.159C79.4698 51.4609 77.9511 53.3114 77.0543 55.4765C76.1575 57.6416 75.9228 60.024 76.38 62.3224C76.8372 64.6208 77.9657 66.732 79.6228 68.3891C81.2798 70.0462 83.3911 71.1747 85.6895 71.6318C87.9879 72.089 90.3703 71.8544 92.5354 70.9576C94.7004 70.0608 96.5509 68.5421 97.8529 66.5936C99.1548 64.6451 99.8498 62.3543 99.8498 60.0108C99.846 56.8695 98.5965 53.8579 96.3752 51.6367C94.154 49.4154 91.1424 48.1659 88.0011 48.1621Z" fill="#478AFF"/>
<path d="M105.011 49.2127C107.992 49.2127 110.408 46.7962 110.408 43.8153C110.408 40.8344 107.992 38.418 105.011 38.418C102.03 38.418 99.6133 40.8344 99.6133 43.8153C99.6133 46.7962 102.03 49.2127 105.011 49.2127Z" fill="#478AFF"/>
<path d="M111.658 49.2407L111.432 48.7455L111.078 49.1558C110.193 50.1599 109.074 50.9301 107.821 51.3982L107.467 51.5256L107.608 51.8792C109.515 56.4632 109.756 61.5699 108.29 66.3132C106.825 71.0565 103.745 75.1371 99.5856 77.8471C95.426 80.5571 90.449 81.7254 85.518 81.1493C80.587 80.5733 76.0133 78.2892 72.5903 74.6934C69.1673 71.0977 67.1111 66.417 66.7785 61.4637C66.4458 56.5103 67.8576 51.5968 70.769 47.5756C73.6804 43.5544 77.9077 40.6792 82.7174 39.449C87.527 38.2188 92.6156 38.7111 97.1003 40.8405L97.4327 40.9997L97.5778 40.646C98.1063 39.4166 98.93 38.3366 99.9758 37.5016L100.4 37.1479L99.9157 36.8968C96.2345 34.9836 92.1449 33.9897 87.9962 34.0001C82.3792 34.0009 76.9136 35.8207 72.4172 39.1872C67.9208 42.5536 64.6356 47.2857 63.0531 52.6752C61.4707 58.0646 61.6761 63.8216 63.6387 69.0846C65.6013 74.3475 69.2155 78.8333 73.9404 81.8707C78.6653 84.9081 84.2468 86.3337 89.8496 85.9341C95.4523 85.5345 100.775 83.3312 105.021 79.6541C109.267 75.9769 112.208 71.0235 113.404 65.5353C114.6 60.0471 113.986 54.3192 111.655 49.2089L111.658 49.2407Z" fill="#478AFF"/>
</g>
</svg>
