<svg width="115" height="115" viewBox="0 0 115 115" fill="none" xmlns="http://www.w3.org/2000/svg">
<mask id="mask0_7606_86760" style="mask-type:alpha" maskUnits="userSpaceOnUse" x="0" y="0" width="115" height="115">
<rect width="115" height="115" fill="#D9D9D9"/>
</mask>
<g mask="url(#mask0_7606_86760)">
</g>
<g clip-path="url(#clip0_7606_86760)">
<path d="M83.9362 48.25C83.4962 49.11 83.1562 50.06 82.5762 50.82C81.5962 52.11 80.1662 52.64 78.5562 52.68C78.0162 52.6901 77.4762 52.68 76.8562 52.68C76.8562 53.08 76.8562 53.4 76.8562 53.72C76.8562 58.56 76.8562 63.4001 76.8562 68.2401C76.8562 70.4201 76.0862 72.21 74.1462 73.32C70.6662 75.3 66.3462 72.93 66.2462 68.91C66.1462 64.59 66.2162 60.2701 66.2062 55.9501C66.2062 54.8901 66.2062 53.83 66.2062 52.67C65.5962 52.67 65.0562 52.68 64.5162 52.67C61.4662 52.6 59.1862 50.38 59.1262 47.42C59.0662 44.53 61.2662 42.11 64.2762 42.04C69.1062 41.94 73.9362 41.95 78.7662 42.04C81.2262 42.08 82.9962 43.61 83.7262 45.98C83.7862 46.18 83.8562 46.38 83.9162 46.59V48.23L83.9362 48.25ZM69.4962 59.9501C69.4962 62.85 69.4962 65.7501 69.4962 68.6501C69.4962 69.5401 69.9262 70.1701 70.6862 70.5601C71.3762 70.9101 72.0562 70.82 72.6862 70.37C73.4062 69.85 73.5862 69.1301 73.5862 68.2901C73.5862 62.68 73.5862 57.07 73.5862 51.46C73.5862 50.01 74.1862 49.42 75.6262 49.41C76.5862 49.41 77.5362 49.42 78.4962 49.41C79.7062 49.39 80.6362 48.52 80.6562 47.4C80.6762 46.29 79.7462 45.33 78.5562 45.32C73.8562 45.3 69.1562 45.3 64.4662 45.32C63.3062 45.32 62.4262 46.26 62.4162 47.35C62.4162 48.48 63.3162 49.38 64.5262 49.4C65.4562 49.42 66.3862 49.4 67.3162 49.4C68.9162 49.4 69.4962 49.98 69.5062 51.57C69.5062 54.36 69.5062 57.1501 69.5062 59.9401L69.4962 59.9501Z" fill="black"/>
<path d="M37.1053 72.0301C29.4853 72.1601 23.0753 65.8301 22.9853 58.0701C22.8953 50.4501 29.0953 44.1101 36.7753 43.9701C44.5053 43.8301 50.8753 50.0201 50.9953 57.7801C51.1153 65.5501 44.9253 71.9001 37.1053 72.0301ZM37.0853 47.2501C31.1653 47.2001 26.3353 51.9601 26.2553 57.9001C26.1853 63.7701 30.9853 68.6601 36.9053 68.7501C42.7653 68.8401 47.6753 63.9901 47.7053 58.0701C47.7453 52.1201 43.0053 47.3001 37.0753 47.2501H37.0853Z" fill="black"/>
<path d="M0.0157528 57.93C0.0157528 54.67 -0.00424722 51.42 0.0157528 48.16C0.0357528 45.41 1.60575 43.13 3.97575 42.31C8.01575 40.91 12.0358 43.63 12.0958 47.98C12.1958 54.66 12.1658 61.34 12.0958 68.01C12.0658 71.03 10.0658 73.34 7.24575 73.92C4.54575 74.47 1.79575 73.15 0.625753 70.55C0.225753 69.66 0.0457528 68.6 0.0257528 67.62C-0.0442472 64.39 -0.00424722 61.16 -0.00424722 57.93H0.0157528ZM3.29575 58.03C3.29575 61.31 3.28575 64.6 3.29575 67.88C3.29575 69.54 4.47575 70.74 6.02575 70.76C7.58575 70.78 8.83575 69.6 8.83575 67.96C8.85575 61.31 8.85575 54.66 8.83575 48.01C8.83575 46.99 8.38575 46.16 7.49575 45.62C5.60575 44.47 3.30575 45.8 3.28575 48.1C3.25575 51.41 3.28575 54.72 3.28575 58.03H3.29575Z" fill="black"/>
<path d="M37.3888 88.0001C31.4988 88.0501 25.8888 86.4701 20.7588 83.2001C19.8188 82.6001 19.5488 81.6201 20.0588 80.8101C20.5488 80.0301 21.5088 79.8101 22.4488 80.3901C24.8788 81.9001 27.4188 83.1201 30.1988 83.8001C38.4188 85.8301 45.9888 84.3901 52.8788 79.4601C53.8988 78.7301 54.8088 77.8501 55.7588 77.0401C56.6788 76.2601 57.6388 76.2201 58.2988 76.9601C58.9588 77.7001 58.8288 78.6401 57.9388 79.4801C52.2388 84.9201 45.4488 87.7301 37.3988 88.0001H37.3888Z" fill="black"/>
<path d="M35.3173 28C42.3773 28 47.4773 29.35 52.1973 32.12C52.5173 32.31 52.8673 32.53 53.0873 32.81C53.5573 33.41 53.5673 34.09 53.1073 34.7C52.6373 35.33 51.9773 35.6 51.2273 35.26C50.2173 34.8 49.2573 34.2 48.2373 33.75C39.0173 29.69 30.1873 30.5 21.7973 36.04C20.7573 36.73 19.8373 37.61 18.8773 38.41C18.6073 38.64 18.3573 38.9 18.0773 39.11C17.2973 39.72 16.3973 39.69 15.7873 39.05C15.1773 38.4 15.1773 37.38 15.9073 36.7C17.0773 35.63 18.2473 34.55 19.5173 33.62C24.7173 29.89 30.5273 28.05 35.3173 28Z" fill="black"/>
<path d="M37.4304 35.9299C42.9604 36.0299 48.1004 38.0699 52.4004 42.1899C53.2404 42.9899 53.3204 43.9199 52.6504 44.6499C52.0004 45.3499 51.0204 45.3599 50.1804 44.5699C48.0404 42.5599 45.6304 40.9899 42.8104 40.1399C36.1404 38.1299 30.1004 39.3699 24.7204 43.8099C24.3404 44.1199 24.0004 44.4799 23.6104 44.7799C22.8404 45.3599 21.9104 45.2699 21.3404 44.5799C20.7704 43.9099 20.8004 42.9499 21.5404 42.2999C22.6204 41.3399 23.7004 40.3599 24.9004 39.5699C28.5604 37.1399 32.6304 35.9599 37.4204 35.9199L37.4304 35.9299Z" fill="black"/>
<path d="M37.4778 80.0402C31.0978 79.9602 25.9578 77.9002 21.6578 73.7902C20.8378 73.0102 20.7478 72.0302 21.3978 71.3202C22.0678 70.6002 23.0078 70.5802 23.8678 71.3902C26.0078 73.4002 28.4078 74.9902 31.2378 75.8302C37.9978 77.8402 44.1178 76.6002 49.5078 72.0002C49.8178 71.7302 50.1078 71.4402 50.4378 71.2002C51.2278 70.6202 52.1278 70.7002 52.7078 71.3802C53.2878 72.0602 53.2678 73.0002 52.5278 73.6602C51.4278 74.6402 50.3178 75.6302 49.0978 76.4402C45.5078 78.8302 41.2778 80.0502 37.4878 80.0502L37.4778 80.0402Z" fill="black"/>
<path d="M58.6998 37.9C58.7198 38.78 57.9898 39.53 57.1098 39.55C56.2198 39.57 55.4198 38.78 55.4298 37.89C55.4298 37.03 56.2098 36.27 57.0698 36.27C57.9298 36.27 58.6898 37.03 58.6998 37.9Z" fill="black"/>
<path d="M16.9772 76.4102C17.8372 76.4102 18.6672 77.2402 18.6672 78.1002C18.6672 78.9602 17.8972 79.7302 17.0372 79.7302C16.1472 79.7302 15.3672 78.9402 15.3672 78.0502C15.3672 77.1702 16.1072 76.4202 16.9772 76.4202V76.4102Z" fill="black"/>
<path d="M30.9688 57.9799C30.9688 54.6499 33.6987 51.9099 37.0087 51.9199C40.2987 51.9199 43.0588 54.6899 43.0588 57.9899C43.0588 61.3099 40.3187 64.04 37.0087 64.04C33.6787 64.04 30.9688 61.3299 30.9788 57.9899L30.9688 57.9799ZM37.0487 60.7499C38.5588 60.7299 39.7987 59.4799 39.7787 57.9699C39.7687 56.4599 38.5087 55.1999 37.0087 55.2099C35.4687 55.2099 34.2287 56.4899 34.2587 58.0499C34.2787 59.5799 35.5087 60.7699 37.0487 60.7499Z" fill="black"/>
</g>
<defs>
<clipPath id="clip0_7606_86760">
<rect width="83.94" height="60" fill="white" transform="translate(0 28)"/>
</clipPath>
</defs>
</svg>
