<svg width="75" height="75" viewBox="0 0 75 75" fill="none" xmlns="http://www.w3.org/2000/svg">
<mask id="mask0_7770_13961" style="mask-type:alpha" maskUnits="userSpaceOnUse" x="-1" y="-1" width="77" height="77">
<rect width="75" height="75" fill="white" stroke="white" stroke-width="1.225"/>
</mask>
<g mask="url(#mask0_7770_13961)">
<path d="M41.5404 57.7483C40.7659 58.4719 40.2327 59.3987 39.9787 60.4272L38.8615 64.8454C38.7599 65.239 38.4171 65.5056 38.0236 65.5056H26.4446C26.0511 65.5056 25.6956 65.239 25.6067 64.8454L24.4895 60.4272C24.1213 58.9544 23.2072 57.7356 21.8995 56.9738C20.5917 56.212 19.0682 56.0216 17.6082 56.4406L13.2153 57.7102C12.8345 57.8118 12.4282 57.6467 12.2378 57.3166L6.4483 47.2742C6.24516 46.9314 6.30864 46.4998 6.58796 46.2204L9.87629 43.0464C10.9554 42.0054 11.5649 40.5961 11.5649 39.0852C11.5649 37.5743 10.9681 36.1524 9.87629 35.0859L6.58796 31.9119C6.30864 31.6453 6.25786 31.2136 6.4483 30.8708L12.2378 20.8406C12.4409 20.4978 12.8472 20.3328 13.2153 20.4344L17.6082 21.6785C19.0555 22.0975 20.5791 21.9198 21.8868 21.158C23.1945 20.3962 24.1213 19.1774 24.4895 17.7046L25.6067 13.2864C25.7083 12.8928 26.0511 12.6262 26.4446 12.6262H38.0236C38.4172 12.6262 38.7726 12.8928 38.8615 13.2864L39.9787 17.7046C40.3469 19.1774 41.2738 20.4089 42.5814 21.158C43.8891 21.9071 45.4127 22.0975 46.86 21.6785L51.2529 20.4216C51.6338 20.32 52.04 20.4851 52.2305 20.8152L58.0199 30.8576C58.2104 31.2004 58.1596 31.632 57.8803 31.8986L54.5919 35.0854C53.6651 35.9995 53.0811 37.193 52.9415 38.4625C52.8653 39.1608 53.3731 39.7829 54.0714 39.8591C54.7697 39.9354 55.3918 39.4275 55.468 38.7292C55.5442 38.0436 55.8489 37.4088 56.3695 36.901L59.6578 33.7269C60.7877 32.6478 61.0163 30.9338 60.2291 29.588L54.4397 19.5456C53.6525 18.1998 52.0655 17.5523 50.5674 17.9712L46.1618 19.2282C45.3873 19.4567 44.562 19.3552 43.851 18.9489C43.14 18.5426 42.6449 17.8824 42.4417 17.0825L41.3244 12.6516C40.9436 11.1407 39.5851 10.0742 38.0234 10.0742H26.4445C24.8829 10.0742 23.5244 11.128 23.1435 12.6516L22.0262 17.0825C21.8231 17.8824 21.328 18.5426 20.6169 18.9489C19.9059 19.3552 19.0934 19.4567 18.3062 19.2282L13.9006 17.9712C12.4024 17.5396 10.8154 18.1871 10.0283 19.5456L4.23883 29.5758C3.45167 30.9343 3.6802 32.6355 4.81015 33.7148L8.09849 36.8888C8.69521 37.4601 9.01261 38.2345 9.01261 39.0598C9.01261 39.8724 8.68251 40.6342 8.09849 41.2055L4.81015 44.3795C3.69289 45.4714 3.4644 47.1853 4.25152 48.5185L10.041 58.5608C10.8281 59.9066 12.4152 60.5541 13.9133 60.1225L18.3061 58.8529C19.0933 58.6244 19.9186 58.7386 20.6169 59.1449C21.3279 59.5512 21.823 60.2241 22.0262 61.0113L23.1434 65.4422C23.5243 66.9531 24.8828 68.0196 26.4445 68.0196H38.0234C39.585 68.0196 40.9435 66.9657 41.3244 65.4422L42.4416 61.0113C42.5813 60.4526 42.8606 59.9575 43.2796 59.5766C43.7874 59.0942 43.8255 58.2943 43.343 57.7865C42.8606 57.2786 42.0607 57.2532 41.5529 57.723L41.5404 57.7483Z" fill="black"/>
<path d="M32.2413 25.0176C24.4839 25.0176 18.1865 31.3276 18.1865 39.0724C18.1865 46.8172 24.4965 53.1271 32.2413 53.1271C39.9861 53.1271 46.2961 46.8172 46.2961 39.0724C46.2961 31.3276 39.9861 25.0176 32.2413 25.0176ZM26.4011 48.988C26.4138 45.7885 29.0292 43.1858 32.2286 43.1858C35.4281 43.1858 38.0434 45.7885 38.0562 48.988C36.3422 50.0037 34.3489 50.5877 32.2286 50.5877C30.1083 50.5877 28.1151 49.991 26.4011 48.988ZM29.245 37.6504C29.245 35.9999 30.5908 34.6541 32.2413 34.6541C33.8918 34.6541 35.2376 35.9998 35.2376 37.6504C35.2376 39.3009 33.8918 40.6467 32.2413 40.6467C30.5908 40.6467 29.245 39.3009 29.245 37.6504ZM40.4046 47.1849C39.8587 44.7599 38.259 42.7159 36.1006 41.5986C37.129 40.5956 37.7638 39.199 37.7638 37.6501C37.7638 34.603 35.2754 32.1145 32.2283 32.1145C29.1812 32.1145 26.6928 34.603 26.6928 37.6501C26.6928 39.199 27.3276 40.5956 28.356 41.5986C26.1977 42.7285 24.5979 44.7599 24.052 47.1849C21.9825 45.1027 20.7002 42.2334 20.7002 39.072C20.7002 32.7239 25.8675 27.5565 32.2157 27.5565C38.5639 27.5565 43.7313 32.7239 43.7313 39.072C43.7313 42.2334 42.449 45.1027 40.3795 47.1849H40.4046Z" fill="black"/>
<path d="M68.4495 45.5862C63.2695 40.4062 54.8522 40.4062 49.6721 45.5862C44.4921 50.7662 44.4921 59.1835 49.6721 64.3636C52.2622 66.9536 55.6647 68.2486 59.0669 68.2486C62.4691 68.2486 65.8721 66.9535 68.4617 64.3636C70.9756 61.8497 72.3467 58.5233 72.3467 54.9688C72.3467 51.4143 70.9628 48.0874 68.4617 45.574L68.4495 45.5862ZM66.6466 62.5735C62.4569 66.7632 55.6389 66.7632 51.4616 62.5735C47.2719 58.3838 47.2719 51.5658 51.4616 47.3885C53.5564 45.2936 56.3115 44.2525 59.0539 44.2525C61.7963 44.2525 64.5513 45.2935 66.6463 47.3885C68.7412 49.4834 69.7949 52.1114 69.7949 54.9808C69.7949 57.8502 68.678 60.5421 66.6466 62.5735Z" fill="black"/>
<path d="M63.7401 51.1733L57.6967 56.0995L56.0462 54.449C55.5511 53.9538 54.7512 53.9538 54.2561 54.449C53.761 54.9441 53.761 55.744 54.2561 56.2391L56.7191 58.7022C56.9604 58.9434 57.2904 59.0703 57.6206 59.0703C57.8999 59.0703 58.1919 58.9815 58.4204 58.791L65.3525 53.1412C65.8985 52.6969 65.9746 51.8971 65.5303 51.3511C65.0859 50.8051 64.2861 50.729 63.7401 51.1733Z" fill="black"/>
</g>
</svg>
