<svg width="67" height="67" viewBox="0 0 67 67" fill="none" xmlns="http://www.w3.org/2000/svg">
<mask id="mask0_7770_13983" style="mask-type:alpha" maskUnits="userSpaceOnUse" x="-1" y="-1" width="69" height="69">
<rect width="67" height="67" fill="white" stroke="white" stroke-width="1.25"/>
</mask>
<g mask="url(#mask0_7770_13983)">
<path d="M28.317 42.9003V58.1511C28.317 60.0271 26.7928 61.5514 24.9168 61.5514H10.5704C8.19188 61.5514 6.26562 59.6251 6.26562 57.2466V42.9003C6.26562 41.0243 7.78988 39.5 9.66588 39.5H24.9168C26.7928 39.5 28.317 41.0243 28.317 42.9003Z" stroke="black" stroke-width="1.875" stroke-miterlimit="10" stroke-linecap="round"/>
<path d="M28.317 42.9003V58.1511C28.317 60.0271 26.7928 61.5514 24.9168 61.5514H10.5704C8.19188 61.5514 6.26562 59.6251 6.26562 57.2466V42.9003C6.26562 41.0243 7.78988 39.5 9.66588 39.5H24.9168C26.7928 39.5 28.317 41.0243 28.317 42.9003Z" stroke="black" stroke-width="1.875" stroke-miterlimit="10" stroke-linecap="round"/>
<path d="M28.317 42.9003V58.1511C28.317 60.0271 26.7928 61.5514 24.9168 61.5514H10.5704C8.19188 61.5514 6.26562 59.6251 6.26562 57.2466V42.9003C6.26562 41.0243 7.78988 39.5 9.66588 39.5H24.9168C26.7928 39.5 28.317 41.0243 28.317 42.9003Z" stroke="black" stroke-width="1.875" stroke-miterlimit="10" stroke-linecap="round"/>
<path d="M6.26562 33.5528V10.5801C6.26562 8.20164 8.19188 6.27539 10.5704 6.27539H57.2359C59.6144 6.27539 61.5406 8.20164 61.5406 10.5801V57.2456C61.5406 59.6241 59.6144 61.5504 57.2359 61.5504H34.2633" stroke="black" stroke-width="1.875" stroke-miterlimit="10" stroke-linecap="round"/>
<path d="M32.7982 33.2431C32.4283 33.6053 32.422 34.1989 32.7842 34.5689C33.1464 34.9388 33.74 34.9451 34.11 34.5829L32.7982 33.2431ZM48.3946 20.213C48.4 19.6953 47.9848 19.2712 47.467 19.2657L39.03 19.1764C38.5123 19.171 38.0881 19.5862 38.0826 20.104C38.0772 20.6217 38.4924 21.0459 39.0102 21.0513L46.5097 21.1307L46.4304 28.6302C46.4249 29.148 46.8402 29.5721 47.3579 29.5776C47.8757 29.5831 48.2998 29.1678 48.3053 28.6501L48.3946 20.213ZM34.11 34.5829L48.113 20.873L46.8012 19.5332L32.7982 33.2431L34.11 34.5829Z" fill="black"/>
</g>
</svg>
