<svg width="67" height="67" viewBox="0 0 67 67" fill="none" xmlns="http://www.w3.org/2000/svg">
<mask id="mask0_7770_14005" style="mask-type:alpha" maskUnits="userSpaceOnUse" x="-1" y="-1" width="69" height="69">
<rect width="67" height="67" fill="white" stroke="white" stroke-width="1.225"/>
</mask>
<g mask="url(#mask0_7770_14005)">
<path d="M61.9647 42.2622C60.8047 41.0256 59.0209 40.6317 57.4341 41.2445C55.6065 41.9449 53.5273 43.1596 51.2729 44.8558C50.299 45.589 49.0624 46.1252 47.7053 46.5192C47.957 45.2169 47.6725 43.4879 46.425 42.5358C45.9435 42.1747 45.3744 41.9667 44.6959 41.9011C41.3144 41.6056 36.4335 40.2268 30.9398 38.0271C23.7392 35.149 15.4768 41.923 15.1266 42.2076C15.061 42.2623 15.0172 42.3389 14.9734 42.4045L14.3715 41.3649C14.2293 41.1132 13.9885 40.9272 13.704 40.8506C13.4195 40.774 13.124 40.8177 12.8723 40.96L4.54411 45.7751C4.01883 46.0815 3.84374 46.749 4.13921 47.2743L12.8505 62.3542C12.9928 62.6059 13.2335 62.7919 13.5181 62.8685C13.6056 62.8904 13.7041 62.9013 13.8026 62.9013C13.9886 62.9013 14.1856 62.8466 14.3498 62.7591L22.6779 57.944C23.2032 57.6376 23.3783 56.97 23.0828 56.4447L22.4044 55.2629C25.0965 54.1904 28.3357 54.7266 32.3301 55.3942C35.1535 55.8647 38.2395 56.39 41.6213 56.39C42.8361 56.39 44.0836 56.3244 45.3749 56.1602C52.5426 55.2738 58.2332 51.3233 61.7575 48.1493C62.6111 47.3614 63.1035 46.2561 63.1035 45.0961C63.1035 44.0237 62.6986 43.0168 61.9654 42.2508L61.9647 42.2622ZM14.2073 60.3082L6.59072 47.1214L13.0254 43.4007L19.9088 55.3183V55.3512L19.9307 55.373L20.6311 56.5878L14.1964 60.3085L14.2073 60.3082ZM60.2901 46.5415C57.609 48.9491 52.0718 53.1294 45.1115 53.9943C40.559 54.5633 36.3785 53.8629 32.7015 53.2392C28.4008 52.517 24.6254 51.8931 21.3092 53.3486L15.9797 44.112C16.1876 44.0901 16.3846 44.0245 16.5488 43.8822C16.6254 43.8166 24.1325 37.6445 30.1403 40.052C35.8199 42.3282 40.9303 43.7508 44.5197 44.0682C44.6182 44.0682 44.8918 44.1011 45.1107 44.2652C45.5265 44.5826 45.7235 45.4143 45.5594 46.1475C45.5594 46.1584 45.5594 46.1803 45.5484 46.1913C45.439 46.5962 45.1216 46.9463 44.7058 47.1434C39.8469 47.8547 34.7583 47.3075 34.682 47.3075C34.0801 47.2419 33.5439 47.6796 33.4782 48.2705C33.4125 48.8724 33.8393 49.4086 34.4412 49.4743C34.7148 49.5072 38.2495 49.8792 42.3534 49.5838H42.3643C45.9538 49.3211 49.9592 48.5551 52.5856 46.5853C55.1902 44.6264 57.0834 43.6963 58.2215 43.2695C58.9766 42.974 59.8192 43.16 60.3773 43.751C60.7275 44.1121 60.9135 44.5936 60.9135 45.097C60.9135 45.6442 60.6837 46.1585 60.2898 46.5306L60.2901 46.5415Z" fill="black"/>
<path d="M46.9961 20C46.9961 27.1797 41.1758 33 33.9961 33C26.8164 33 20.9961 27.1797 20.9961 20C20.9961 12.8203 26.8164 7 33.9961 7C41.1758 7 46.9961 12.8203 46.9961 20Z" stroke="black" stroke-width="2"/>
<path d="M36.5707 17.5661C36.5707 18.1184 37.0184 18.5661 37.5707 18.5661C38.123 18.5661 38.5707 18.1184 38.5707 17.5661H36.5707ZM31.0957 22.4344C31.0957 21.8822 30.648 21.4344 30.0957 21.4344C29.5434 21.4344 29.0957 21.8822 29.0957 22.4344H31.0957ZM34.9957 13.5C34.9957 12.9477 34.548 12.5 33.9957 12.5C33.4434 12.5 32.9957 12.9477 32.9957 13.5L34.9957 13.5ZM32.9957 26.5C32.9957 27.0523 33.4434 27.5 33.9957 27.5C34.548 27.5 34.9957 27.0523 34.9957 26.5H32.9957ZM33.9957 18.813C32.7595 18.813 32.1094 18.6156 31.7895 18.4015C31.5553 18.2447 31.4207 18.0317 31.4207 17.5661H29.4207C29.4207 18.5483 29.7736 19.4587 30.6769 20.0635C31.4945 20.6109 32.6319 20.813 33.9957 20.813V18.813ZM31.4207 17.5661C31.4207 17.2374 31.6003 16.8554 32.0591 16.519C32.5173 16.183 33.1987 15.9447 33.9957 15.9447V13.9447C32.8182 13.9447 31.7122 14.2933 30.8765 14.9061C30.0414 15.5184 29.4207 16.4471 29.4207 17.5661H31.4207ZM33.9957 15.9447C34.7927 15.9447 35.4741 16.183 35.9323 16.519C36.3911 16.8554 36.5707 17.2374 36.5707 17.5661H38.5707C38.5707 16.4471 37.95 15.5184 37.1149 14.9061C36.2792 14.2933 35.1732 13.9447 33.9957 13.9447V15.9447ZM36.8957 22.4344C36.8957 22.9914 36.6684 23.3335 36.2409 23.5886C35.7526 23.8801 34.9825 24.0558 33.9957 24.0558V26.0558C35.1628 26.0558 36.3427 25.8571 37.266 25.3059C38.25 24.7186 38.8957 23.7499 38.8957 22.4344H36.8957ZM33.9957 24.0558C33.0903 24.0558 32.3155 23.8074 31.7958 23.4581C31.2699 23.1046 31.0957 22.7238 31.0957 22.4344H29.0957C29.0957 23.5929 29.7945 24.5227 30.6801 25.118C31.572 25.7175 32.7472 26.0558 33.9957 26.0558V24.0558ZM33.9957 20.813C35.2399 20.813 35.9746 21.0001 36.3768 21.2607C36.6881 21.4625 36.8957 21.7669 36.8957 22.4344H38.8957C38.8957 21.2295 38.4533 20.2233 37.4646 19.5824C36.5668 19.0005 35.3515 18.813 33.9957 18.813V20.813ZM34.9957 14.9447L34.9957 13.5L32.9957 13.5L32.9957 14.9447L34.9957 14.9447ZM32.9957 25.0558V26.5H34.9957V25.0558H32.9957Z" fill="black"/>
</g>
</svg>
