<svg width="67" height="68" viewBox="0 0 67 68" fill="none" xmlns="http://www.w3.org/2000/svg">
<mask id="mask0_7783_56421" style="mask-type:alpha" maskUnits="userSpaceOnUse" x="-1" y="-1" width="69" height="69">
<rect y="0.181641" width="67" height="67" fill="white" stroke="white" stroke-width="1.225"/>
</mask>
<g mask="url(#mask0_7783_56421)">
<path d="M61.9647 42.4439C60.8047 41.2073 59.0209 40.8133 57.4341 41.4262C55.6065 42.1265 53.5273 43.3413 51.2729 45.0374C50.299 45.7707 49.0624 46.3069 47.7053 46.7008C47.957 45.3986 47.6725 43.6695 46.425 42.7174C45.9435 42.3563 45.3744 42.1484 44.6959 42.0827C41.3144 41.7872 36.4335 40.4084 30.9398 38.2088C23.7392 35.3307 15.4768 42.1046 15.1266 42.3892C15.061 42.4439 15.0172 42.5205 14.9734 42.5862L14.3715 41.5465C14.2293 41.2948 13.9885 41.1088 13.704 41.0322C13.4195 40.9556 13.124 40.9994 12.8723 41.1416L4.54411 45.9567C4.01883 46.2632 3.84374 46.9307 4.13921 47.456L12.8505 62.5358C12.9928 62.7875 13.2335 62.9735 13.5181 63.0501C13.6056 63.072 13.7041 63.083 13.8026 63.083C13.9886 63.083 14.1856 63.0283 14.3498 62.9407L22.6779 58.1256C23.2032 57.8192 23.3783 57.1517 23.0828 56.6264L22.4044 55.4445C25.0965 54.3721 28.3357 54.9083 32.3301 55.5758C35.1535 56.0464 38.2395 56.5717 41.6213 56.5717C42.8361 56.5717 44.0836 56.506 45.3749 56.3419C52.5426 55.4555 58.2332 51.5049 61.7575 48.331C62.6111 47.543 63.1035 46.4378 63.1035 45.2777C63.1035 44.2053 62.6986 43.1984 61.9654 42.4324L61.9647 42.4439ZM14.2073 60.4898L6.59072 47.3031L13.0254 43.5823L19.9088 55.5V55.5328L19.9307 55.5547L20.6311 56.7694L14.1964 60.4902L14.2073 60.4898ZM60.2901 46.7232C57.609 49.1307 52.0718 53.3111 45.1115 54.1759C40.559 54.745 36.3785 54.0446 32.7015 53.4208C28.4008 52.6986 24.6254 52.0748 21.3092 53.5303L15.9797 44.2937C16.1876 44.2718 16.3846 44.2061 16.5488 44.0639C16.6254 43.9982 24.1325 37.8262 30.1403 40.2336C35.8199 42.5099 40.9303 43.9325 44.5197 44.2499C44.6182 44.2499 44.8918 44.2827 45.1107 44.4469C45.5265 44.7642 45.7235 45.5959 45.5594 46.3291C45.5594 46.3401 45.5594 46.362 45.5484 46.3729C45.439 46.7778 45.1216 47.128 44.7058 47.325C39.8469 48.0363 34.7583 47.4892 34.682 47.4892C34.0801 47.4235 33.5439 47.8612 33.4782 48.4522C33.4125 49.0541 33.8393 49.5903 34.4412 49.656C34.7148 49.6888 38.2495 50.0609 42.3534 49.7654H42.3643C45.9538 49.5028 49.9592 48.7367 52.5856 46.767C55.1902 44.8081 57.0834 43.8779 58.2215 43.4511C58.9766 43.1556 59.8192 43.3417 60.3773 43.9326C60.7275 44.2937 60.9135 44.7752 60.9135 45.2787C60.9135 45.8258 60.6837 46.3401 60.2898 46.7123L60.2901 46.7232Z" fill="black"/>
<path d="M33.5696 17.5025C37.2028 17.5025 40.1685 14.5477 40.1685 10.9036C40.1685 7.25944 37.2137 4.30469 33.5696 4.30469C29.9255 4.30469 26.9707 7.25944 26.9707 10.9036C26.9707 14.5477 29.9255 17.5025 33.5696 17.5025ZM33.5696 6.50443C35.9991 6.50443 37.9798 8.48517 37.9798 10.9146C37.9798 13.3441 35.9991 15.3249 33.5696 15.3249C31.1401 15.3249 29.1594 13.3441 29.1594 10.9146C29.1594 8.48517 31.1401 6.50443 33.5696 6.50443Z" fill="black"/>
<path d="M21.3536 34.9435C21.9555 35.0529 22.5136 34.659 22.6231 34.0571L24.0238 26.2437C24.4397 23.0592 27.1755 20.6516 30.3929 20.6516H36.7401C39.9575 20.6516 42.6933 23.0592 43.1201 26.2984L44.5209 34.0684C44.6193 34.5937 45.079 34.9657 45.5933 34.9657C45.6589 34.9657 45.7246 34.9657 45.7903 34.9438C46.3812 34.8344 46.7751 34.2653 46.6766 33.6744L45.2868 25.959C44.7287 21.6801 41.0627 18.4629 36.7506 18.4629H30.4034C26.0918 18.4629 22.4254 21.6912 21.8672 25.9044L20.4665 33.6744C20.357 34.2653 20.751 34.8344 21.3529 34.9438L21.3536 34.9435Z" fill="black"/>
<path d="M26.3276 26.3781L24.9597 33.6557C24.8502 34.2466 25.2442 34.8266 25.8351 34.936C25.9008 34.947 25.9665 34.9579 26.0431 34.9579C26.5574 34.9579 27.017 34.5968 27.1155 34.0606L28.4834 26.783C28.5928 26.192 28.1989 25.612 27.6079 25.5026C27.017 25.3932 26.437 25.7871 26.3276 26.3781Z" fill="black"/>
<path d="M39.4845 25.5027C38.8936 25.6121 38.4997 26.1811 38.6091 26.783L39.977 34.0606C40.0755 34.5859 40.5351 34.958 41.0494 34.958C41.1151 34.958 41.1807 34.958 41.2573 34.9361C41.8483 34.8266 42.2422 34.2576 42.1328 33.6557L40.7649 26.3781C40.6555 25.7872 40.0755 25.3933 39.4845 25.5027Z" fill="black"/>
</g>
</svg>
