<svg width="100" height="100" viewBox="0 0 100 100" fill="none" xmlns="http://www.w3.org/2000/svg">
<path d="M72.9514 47.6793L71.9642 45.9661C71.2176 44.6704 70.8443 44.0226 70.2092 43.7642C69.574 43.5059 68.8557 43.7098 67.419 44.1174L64.9785 44.8048C64.0613 45.0164 63.099 44.8964 62.2615 44.4661L61.5878 44.0773C60.8696 43.6174 60.3172 42.9392 60.0114 42.142L59.3435 40.1472C58.9044 38.8272 58.6848 38.1671 58.1621 37.7896C57.6393 37.4121 56.9449 37.4121 55.5562 37.4121H53.3267C51.938 37.4121 51.2436 37.4121 50.7209 37.7896C50.1981 38.1671 49.9785 38.8272 49.5394 40.1472L48.8715 42.142C48.5657 42.9392 48.0133 43.6174 47.2951 44.0773L46.6214 44.4661C45.7839 44.8964 44.8216 45.0164 43.9044 44.8048L41.4639 44.1174C40.0272 43.7098 39.3089 43.5059 38.6737 43.7642C38.0386 44.0226 37.6653 44.6704 36.9187 45.9661L35.9315 47.6793C35.2317 48.8938 34.8818 49.501 34.9497 50.1475C35.0176 50.7939 35.4861 51.3148 36.4229 52.3567L38.485 54.6621C38.989 55.3002 39.3468 56.4121 39.3468 57.4118C39.3468 58.4121 38.9891 59.5237 38.4851 60.1619L36.4229 62.4673C35.4861 63.5092 35.0176 64.0301 34.9497 64.6766C34.8818 65.323 35.2317 65.9303 35.9315 67.1448L36.9187 68.8579C37.6653 70.1536 38.0386 70.8015 38.6737 71.0598C39.3089 71.3181 40.0273 71.1143 41.4639 70.7065L43.9043 70.0191C44.8217 69.8076 45.7841 69.9276 46.6217 70.3581L47.2954 70.7469C48.0134 71.2068 48.5657 71.885 48.8714 72.682L49.5394 74.677C49.9785 75.9971 50.1981 76.6571 50.7209 77.0346C51.2436 77.4121 51.938 77.4121 53.3267 77.4121H55.5562C56.9449 77.4121 57.6393 77.4121 58.1621 77.0346C58.6848 76.6571 58.9044 75.9971 59.3435 74.677L60.0115 72.682C60.3172 71.885 60.8695 71.2068 61.5875 70.7469L62.2612 70.3581C63.0988 69.9276 64.0613 69.8076 64.9786 70.0191L67.419 70.7065C68.8557 71.1143 69.574 71.3181 70.2092 71.0598C70.8443 70.8015 71.2177 70.1536 71.9642 68.8579L72.9514 67.1448C73.6512 65.9303 74.0011 65.323 73.9332 64.6766C73.8653 64.0301 73.3968 63.5092 72.46 62.4673L70.3979 60.1619C69.8938 59.5237 69.5361 58.4121 69.5361 57.4118C69.5361 56.4121 69.8939 55.3002 70.3979 54.6621L72.46 52.3567C73.3969 51.3148 73.8653 50.7939 73.9332 50.1475C74.0011 49.501 73.6512 48.8938 72.9514 47.6793Z" stroke="black" stroke-width="3" stroke-linecap="round"/>
<path d="M61.3555 57.3965C61.3555 61.2625 58.2215 64.3965 54.3555 64.3965C50.4895 64.3965 47.3555 61.2625 47.3555 57.3965C47.3555 53.5305 50.4895 50.3965 54.3555 50.3965C58.2215 50.3965 61.3555 53.5305 61.3555 57.3965Z" stroke="black" stroke-width="3"/>
<path d="M21.0586 56.588L21.0586 79.1758" stroke="black" stroke-width="3" stroke-linecap="round" stroke-linejoin="round"/>
<path d="M28.1175 63.6465C28.1175 63.6465 22.9188 56.5879 21.0587 56.5879C19.1986 56.5879 14 63.6466 14 63.6466" stroke="black" stroke-width="3" stroke-linecap="round" stroke-linejoin="round"/>
<path d="M78.9414 20.8243L78.9414 43.4121" stroke="black" stroke-width="3" stroke-linecap="round" stroke-linejoin="round"/>
<path d="M86.0003 27.8828C86.0003 27.8828 80.8016 20.8242 78.9415 20.8242C77.0814 20.8242 71.8828 27.8829 71.8828 27.8829" stroke="black" stroke-width="3" stroke-linecap="round" stroke-linejoin="round"/>
</svg>
