<svg width="100" height="100" viewBox="0 0 100 100" fill="none" xmlns="http://www.w3.org/2000/svg">
<rect width="100" height="100" fill="white"/>
<path d="M53.4619 19.9044L56.4787 25.9879C56.8901 26.8348 57.9872 27.6471 58.9128 27.8026L64.3807 28.7186C67.8775 29.3062 68.7003 31.864 66.1805 34.3873L61.9296 38.6734C61.2097 39.3992 60.8154 40.7991 61.0382 41.8015L62.2553 47.1073C63.2151 51.3069 61.004 52.9315 57.3187 50.7366L52.1935 47.6776C51.2679 47.1246 49.7424 47.1246 48.7996 47.6776L43.6745 50.7366C40.0063 52.9315 37.778 51.2897 38.7379 47.1073L39.9549 41.8015C40.1777 40.7991 39.7835 39.3992 39.0635 38.6734L34.8126 34.3873C32.31 31.864 33.1156 29.3062 36.6124 28.7186L42.0803 27.8026C42.9888 27.6471 44.0858 26.8348 44.4972 25.9879L47.514 19.9044C49.1596 16.6035 51.8335 16.6035 53.4619 19.9044Z" stroke="black" stroke-width="3" stroke-linecap="round" stroke-linejoin="round"/>
<path d="M72.3174 50.7614L75.3342 56.8449C75.7456 57.6917 76.8426 58.504 77.7682 58.6595L83.2362 59.5755C86.733 60.1631 87.5557 62.7209 85.036 65.2442L80.785 69.5303C80.0651 70.2562 79.6709 71.6561 79.8937 72.6584L81.1107 77.9642C82.0706 82.1639 79.8594 83.7884 76.1741 81.5936L71.049 78.5345C70.1234 77.9815 68.5978 77.9815 67.6551 78.5345L62.5299 81.5936C58.8618 83.7884 56.6334 82.1466 57.5933 77.9642L58.8103 72.6584C59.0332 71.6561 58.6389 70.2562 57.919 69.5303L53.668 65.2442C51.1655 62.7209 51.9711 60.1631 55.4678 59.5755L60.9358 58.6595C61.8443 58.504 62.9413 57.6917 63.3527 56.8449L66.3695 50.7614C68.015 47.4604 70.689 47.4604 72.3174 50.7614Z" stroke="black" stroke-width="3" stroke-linecap="round" stroke-linejoin="round"/>
<path d="M34.6045 50.7614L37.6213 56.8449C38.0327 57.6917 39.1297 58.504 40.0553 58.6595L45.5233 59.5755C49.0201 60.1631 49.8428 62.7209 47.3231 65.2442L43.0722 69.5303C42.3522 70.2562 41.958 71.6561 42.1808 72.6584L43.3978 77.9642C44.3577 82.1639 42.1465 83.7884 38.4612 81.5936L33.3361 78.5345C32.4105 77.9815 30.8849 77.9815 29.9422 78.5345L24.817 81.5936C21.1489 83.7884 18.9205 82.1466 19.8804 77.9642L21.0974 72.6584C21.3203 71.6561 20.926 70.2562 20.2061 69.5303L15.9552 65.2442C13.4526 62.7209 14.2582 60.1631 17.755 59.5755L23.2229 58.6595C24.1314 58.504 25.2284 57.6917 25.6398 56.8449L28.6566 50.7614C30.3021 47.4604 32.9761 47.4604 34.6045 50.7614Z" stroke="black" stroke-width="3" stroke-linecap="round" stroke-linejoin="round"/>
</svg>
