<svg width="100" height="100" viewBox="0 0 100 100" fill="none" xmlns="http://www.w3.org/2000/svg">
<rect width="100" height="100" fill="white"/>
<path d="M42.7236 61.7055V81.5709C42.7236 84.0146 40.7382 86 38.2945 86H19.6073C16.5091 86 14 83.4909 14 80.3927V61.7055C14 59.2618 15.9855 57.2764 18.4291 57.2764H38.2945C40.7382 57.2764 42.7236 59.2618 42.7236 61.7055Z" stroke="black" stroke-width="3" stroke-miterlimit="10" stroke-linecap="round"/>
<path d="M42.7236 61.7055V81.5709C42.7236 84.0146 40.7382 86 38.2945 86H19.6073C16.5091 86 14 83.4909 14 80.3927V61.7055C14 59.2618 15.9855 57.2764 18.4291 57.2764H38.2945C40.7382 57.2764 42.7236 59.2618 42.7236 61.7055Z" stroke="black" stroke-width="3" stroke-miterlimit="10" stroke-linecap="round"/>
<path d="M42.7236 61.7055V81.5709C42.7236 84.0146 40.7382 86 38.2945 86H19.6073C16.5091 86 14 83.4909 14 80.3927V61.7055C14 59.2618 15.9855 57.2764 18.4291 57.2764H38.2945C40.7382 57.2764 42.7236 59.2618 42.7236 61.7055Z" stroke="black" stroke-width="3" stroke-miterlimit="10" stroke-linecap="round"/>
<path d="M14 49.5309V19.6073C14 16.5091 16.5091 14 19.6073 14H80.3927C83.4909 14 86 16.5091 86 19.6073V80.3927C86 83.4909 83.4909 86 80.3927 86H50.4691" stroke="black" stroke-width="3" stroke-miterlimit="10" stroke-linecap="round"/>
<path d="M48.3627 48.9289C47.7708 49.5085 47.7607 50.4582 48.3403 51.0501C48.9198 51.6421 49.8695 51.6521 50.4615 51.0726L48.3627 48.9289ZM69.152 32.1584C69.1608 31.3301 68.4964 30.6514 67.668 30.6427L54.1687 30.4999C53.3404 30.4911 52.6617 31.1555 52.653 31.9839C52.6442 32.8123 53.3086 33.4909 54.137 33.4997L66.1363 33.6266L66.0094 45.626C66.0007 46.4543 66.6651 47.133 67.4935 47.1417C68.3218 47.1505 69.0005 46.4861 69.0092 45.6577L69.152 32.1584ZM50.4615 51.0726L68.7015 33.2144L66.6027 31.0708L48.3627 48.9289L50.4615 51.0726Z" fill="black"/>
</svg>
