<svg width="100" height="100" viewBox="0 0 100 100" fill="none" xmlns="http://www.w3.org/2000/svg">
<rect width="100" height="100" fill="white"/>
<ellipse cx="49.2921" cy="54.704" rx="18.8234" ry="18.8232" stroke="black" stroke-width="3"/>
<path d="M21.0586 43.412L21.0586 20.8242" stroke="black" stroke-width="3" stroke-linecap="round" stroke-linejoin="round"/>
<path d="M28.1175 36.354C28.1175 36.354 22.9188 43.4126 21.0587 43.4126C19.1986 43.4126 14 36.3539 14 36.3539" stroke="black" stroke-width="3" stroke-linecap="round" stroke-linejoin="round"/>
<path d="M78.9414 79.1752L78.9414 56.5874" stroke="black" stroke-width="3" stroke-linecap="round" stroke-linejoin="round"/>
<path d="M86.0003 72.1172C86.0003 72.1172 80.8016 79.1758 78.9415 79.1758C77.0814 79.1758 71.8828 72.1171 71.8828 72.1171" stroke="black" stroke-width="3" stroke-linecap="round" stroke-linejoin="round"/>
<path d="M49.5913 69.888C49.2713 69.888 49.0047 69.7814 48.7913 69.568C48.5993 69.3547 48.5033 69.0987 48.5033 68.8V65.6L49.0793 66.144C47.586 66.1227 46.2207 65.92 44.9833 65.536C43.746 65.1307 42.7007 64.6187 41.8473 64C41.6127 63.8294 41.442 63.6267 41.3353 63.392C41.25 63.136 41.2287 62.8907 41.2713 62.656C41.3353 62.4214 41.442 62.2187 41.5913 62.048C41.762 61.8774 41.9647 61.7814 42.1993 61.76C42.434 61.7174 42.7007 61.792 42.9993 61.984C43.7033 62.4747 44.5567 62.9014 45.5593 63.264C46.562 63.6267 47.81 63.808 49.3033 63.808C50.5407 63.808 51.554 63.648 52.3433 63.328C53.1327 63.008 53.7193 62.56 54.1033 61.984C54.4873 61.408 54.6793 60.736 54.6793 59.968C54.6793 59.3707 54.5407 58.848 54.2633 58.4C53.986 57.952 53.5487 57.568 52.9513 57.248C52.354 56.928 51.554 56.6614 50.5513 56.448L47.3513 55.776C45.41 55.3494 43.97 54.656 43.0313 53.696C42.0927 52.7147 41.6233 51.4347 41.6233 49.856C41.6233 48.6187 41.922 47.52 42.5193 46.56C43.138 45.5787 43.9913 44.8107 45.0793 44.256C46.1673 43.68 47.4367 43.36 48.8873 43.296L48.5033 43.744V40.608C48.5033 40.3094 48.5993 40.0534 48.7913 39.84C49.0047 39.6267 49.2713 39.52 49.5913 39.52C49.89 39.52 50.146 39.6267 50.3593 39.84C50.5727 40.0534 50.6793 40.3094 50.6793 40.608V43.744L50.2633 43.296C51.266 43.3174 52.322 43.5307 53.4313 43.936C54.562 44.3414 55.522 44.9174 56.3113 45.664C56.5247 45.856 56.6527 46.0694 56.6953 46.304C56.7593 46.5174 56.7487 46.7307 56.6633 46.944C56.5993 47.136 56.482 47.3067 56.3113 47.456C56.162 47.584 55.9593 47.6587 55.7033 47.68C55.4687 47.68 55.2127 47.584 54.9353 47.392C54.2313 46.816 53.442 46.3787 52.5673 46.08C51.714 45.76 50.6793 45.6 49.4633 45.6C47.8633 45.6 46.5833 45.984 45.6233 46.752C44.6847 47.52 44.2153 48.5334 44.2153 49.792C44.2153 50.7734 44.514 51.5627 45.1113 52.16C45.7087 52.736 46.6793 53.1627 48.0233 53.44L51.2553 54.144C53.346 54.592 54.882 55.2747 55.8633 56.192C56.8447 57.088 57.3353 58.304 57.3353 59.84C57.3353 61.056 57.026 62.1227 56.4073 63.04C55.7887 63.936 54.946 64.6507 53.8793 65.184C52.8127 65.696 51.5753 66.0054 50.1673 66.112L50.6793 65.568V68.8C50.6793 69.0987 50.5727 69.3547 50.3593 69.568C50.1673 69.7814 49.9113 69.888 49.5913 69.888Z" fill="black"/>
</svg>
