<svg width="100" height="100" viewBox="0 0 100 100" fill="none" xmlns="http://www.w3.org/2000/svg">
<rect width="100" height="100" fill="white"/>
<path d="M12.9393 70.5397C12.3536 71.1255 12.3536 72.0753 12.9393 72.6611C13.5251 73.2468 14.4749 73.2468 15.0607 72.6611L12.9393 70.5397ZM40.6322 54.0261L39.6951 55.1974L40.6322 54.0261ZM48.2622 60.1302L47.3252 61.3015L48.2622 60.1302ZM58.1414 59.2913L57.0203 58.2948L58.1414 59.2913ZM83.5211 32.9969C84.0715 32.3778 84.0157 31.4297 83.3965 30.8793C82.7774 30.3289 81.8293 30.3847 81.2789 31.0038L83.5211 32.9969ZM53.4846 63.0412L53.6115 64.5359H53.6115L53.4846 63.0412ZM35.6681 51.2299L35.751 52.7276H35.751L35.6681 51.2299ZM71.6 26.9004C70.7716 26.9004 70.1 27.572 70.1 28.4004C70.1 29.2288 70.7716 29.9004 71.6 29.9004V26.9004ZM84.5 42.8004C84.5 43.6289 85.1716 44.3004 86 44.3004C86.8284 44.3004 87.5 43.6289 87.5 42.8004H84.5ZM84.9456 29.4548L86.0062 28.3941V28.3941L84.9456 29.4548ZM15.0607 72.6611L32.1038 55.6179L29.9825 53.4965L12.9393 70.5397L15.0607 72.6611ZM39.6951 55.1974L47.3252 61.3015L49.1993 58.9589L41.5692 52.8548L39.6951 55.1974ZM59.2625 60.2879L83.5211 32.9969L81.2789 31.0038L57.0203 58.2948L59.2625 60.2879ZM47.3252 61.3015C48.5566 62.2866 49.5933 63.1198 50.5081 63.673C51.46 64.2486 52.4563 64.634 53.6115 64.5359L53.3577 61.5466C53.0813 61.5701 52.73 61.5108 52.0604 61.1059C51.3538 60.6786 50.4951 59.9955 49.1993 58.9589L47.3252 61.3015ZM57.0203 58.2948C55.9178 59.5351 55.1866 60.3531 54.5621 60.8935C53.9703 61.4055 53.6341 61.5232 53.3577 61.5466L53.6115 64.5359C54.7667 64.4378 55.6838 63.89 56.525 63.1621C57.3335 62.4626 58.2148 61.4665 59.2625 60.2879L57.0203 58.2948ZM32.1038 55.6179C33.2158 54.506 33.9506 53.7752 34.5705 53.2962C35.1565 52.8434 35.4838 52.7424 35.751 52.7276L35.5851 49.7322C34.4788 49.7935 33.5773 50.2724 32.7362 50.9223C31.9289 51.5461 31.0381 52.441 29.9825 53.4965L32.1038 55.6179ZM41.5692 52.8548C40.4035 51.9223 39.4194 51.1313 38.5481 50.6004C37.6404 50.0474 36.6915 49.6709 35.5851 49.7322L35.751 52.7276C36.0183 52.7128 36.3547 52.777 36.9872 53.1624C37.6562 53.5699 38.4672 54.2151 39.6951 55.1974L41.5692 52.8548ZM71.6 29.9004H78.8V26.9004H71.6V29.9004ZM84.5 35.6004V42.8004H87.5V35.6004H84.5ZM78.8 29.9004C80.5395 29.9004 81.6932 29.9036 82.5503 30.0188C83.3643 30.1283 83.6829 30.3134 83.8849 30.5155L86.0062 28.3941C85.1539 27.5418 84.0967 27.1997 82.9501 27.0456C81.8465 26.8972 80.4546 26.9004 78.8 26.9004V29.9004ZM87.5 35.6004C87.5 33.9457 87.5032 32.5539 87.3548 31.4503C87.2007 30.3037 86.8586 29.2465 86.0062 28.3941L83.8849 30.5155C84.087 30.7175 84.2721 31.0361 84.3816 31.8501C84.4968 32.7072 84.5 33.8609 84.5 35.6004H87.5Z" fill="black"/>
</svg>
