<svg width="56" height="53" viewBox="0 0 56 53" fill="none" xmlns="http://www.w3.org/2000/svg">
<mask id="mask0_7200_55787" style="mask-type:alpha" maskUnits="userSpaceOnUse" x="0" y="0" width="56" height="53">
<rect width="56" height="53" fill="#D9D9D9"/>
</mask>
<g mask="url(#mask0_7200_55787)">
<path d="M47.7208 35.6951C47.3785 37.6668 46.1608 39.389 44.3799 40.4206C42.7198 41.382 40.7304 41.6691 38.6242 41.9728C37.4958 42.1354 36.329 42.3038 35.1892 42.5849C32.1754 43.328 29.2562 44.778 26.4332 46.1802C20.7837 48.9864 15.9047 51.4095 11.3042 48.2212C7.93436 45.8856 8.08997 41.5644 8.48257 39.1964C8.84641 37.0025 9.83007 34.9821 10.7813 33.0281C10.9457 32.6903 11.1068 32.3587 11.2635 32.03C11.735 32.2183 12.2365 32.3469 12.7592 32.4053C11.7909 35.601 13.3137 39.0758 16.51 40.7178L16.9474 40.9425L17.4107 40.7776C19.9374 39.8777 22.2658 38.4337 24.331 36.4852C25.6658 35.2258 26.8136 33.8325 27.757 32.3437C28.0398 32.3863 28.329 32.4087 28.6235 32.4087C31.557 32.4087 33.9863 30.2157 34.3622 27.3832C35.5629 27.3392 36.8384 27.3389 38.0461 27.3828C38.4217 30.2154 40.8511 32.4087 43.7847 32.4087C45.0113 32.4087 46.1491 32.0243 47.0863 31.3713C47.7371 32.7033 47.98 34.2021 47.7208 35.6951ZM13.405 23.1341C15.3446 23.1341 16.9223 24.712 16.9223 26.6514C16.9223 27.3481 16.718 27.9977 16.367 28.5448C15.7822 29.4566 14.7886 30.0816 13.6466 30.1596C13.5667 30.1651 13.4862 30.1688 13.405 30.1688C12.9728 30.1688 12.5587 30.0899 12.1759 29.9468C11.4015 29.657 10.7562 29.1014 10.3503 28.3919C10.0565 27.8782 9.88759 27.2843 9.88759 26.6514C9.88759 24.712 11.4655 23.1341 13.405 23.1341ZM25.1062 26.618C25.1062 24.8559 26.4088 23.3927 28.1015 23.1396C28.2719 23.1141 28.4462 23.1006 28.6235 23.1006C29.7511 23.1006 30.755 23.6349 31.3989 24.4626C31.559 24.6682 31.6977 24.8913 31.8095 25.1296C32.0217 25.582 32.1409 26.0862 32.1409 26.618C32.1409 26.8992 32.1068 27.1726 32.0442 27.4348C31.7014 28.8699 30.4778 29.9666 28.9784 30.1176C28.8618 30.1293 28.7433 30.1354 28.6235 30.1354C27.9213 30.1354 27.2671 29.9277 26.7173 29.5717C25.7488 28.9444 25.1062 27.8552 25.1062 26.618ZM39.7864 22.4355C39.0329 23.1565 38.4725 24.0776 38.1935 25.1134C36.891 25.0646 35.5099 25.0646 34.2149 25.1134C33.9174 24.0094 33.3004 23.0354 32.4706 22.2956L36.1101 14.936L39.7864 22.4355ZM24.1084 4.27331H48.1022L42.4352 20.9874C42.1895 21.0464 41.9499 21.1206 41.7174 21.2098L36.1191 9.78961L30.505 21.1416C30.2624 21.0581 30.0123 20.9908 29.7563 20.9398L24.1084 4.27331ZM47.3021 26.618C47.3021 26.9707 47.2493 27.3112 47.1524 27.6326C46.9214 28.3974 46.4368 29.0526 45.7967 29.5007C45.2261 29.9001 44.5325 30.1354 43.7847 30.1354C42.1607 30.1354 40.7906 29.0287 40.3879 27.5299C40.3097 27.2389 40.2673 26.9333 40.2673 26.618C40.2673 26.1372 40.3645 25.6788 40.5399 25.2611C40.6303 25.0458 40.743 24.8423 40.8725 24.6512C41.5055 23.7169 42.5737 23.1006 43.7847 23.1006C43.8958 23.1006 44.0053 23.1064 44.1138 23.1166C45.8996 23.283 47.3021 24.7895 47.3021 26.618ZM49.5754 26.618C49.5754 23.7909 47.5385 21.4321 44.8557 20.9282L51.2733 2H20.9377L27.3651 20.9667C24.7754 21.543 22.8328 23.8572 22.8328 26.618C22.8328 28.6911 23.9285 30.5121 25.5704 31.5353C24.7806 32.712 23.844 33.8192 22.7709 34.8317C21.0688 36.4375 19.1726 37.6552 17.1283 38.4564C15.0693 37.163 14.1988 34.7239 15.1028 32.5989L15.1736 32.4324C15.2179 32.3284 15.2623 32.2241 15.3065 32.1199C17.5681 31.3311 19.1957 29.1785 19.1957 26.6514C19.1957 23.4584 16.5979 20.8608 13.405 20.8608C10.212 20.8608 7.61428 23.4584 7.61428 26.6514C7.61428 28.2631 8.27672 29.7226 9.3429 30.7734C9.14967 31.1852 8.94621 31.6041 8.73741 32.0329C7.76261 34.0352 6.65778 36.3045 6.23995 38.8245C5.41007 43.8292 6.74871 47.8298 10.0092 50.0896C11.9878 51.4609 13.9969 52 16.0189 52C19.8263 52 23.6776 50.0872 27.4445 48.2162C30.1573 46.8688 32.9626 45.4754 35.7335 44.792C36.7645 44.5377 37.8254 44.3848 38.9487 44.2228C41.176 43.9014 43.4792 43.5693 45.5192 42.3878C47.8841 41.018 49.5029 38.7203 49.9606 36.0841C50.3536 33.8209 49.8807 31.5541 48.7273 29.6318C49.265 28.7532 49.5754 27.7213 49.5754 26.618Z" fill="black"/>
</g>
</svg>
