<svg width="56" height="53" viewBox="0 0 56 53" fill="none" xmlns="http://www.w3.org/2000/svg">
<mask id="mask0_7200_56260" style="mask-type:alpha" maskUnits="userSpaceOnUse" x="0" y="0" width="56" height="53">
<rect width="56" height="53" fill="#D9D9D9"/>
</mask>
<g mask="url(#mask0_7200_56260)">
</g>
<g clip-path="url(#clip0_7200_56260)">
<path d="M24.2508 2V15.45L28.0008 20.6L31.7508 15.45V2H24.2508ZM31.7508 15.45V21.85L37.8008 19.85L45.7508 9L39.6508 4.55L31.7508 15.45ZM37.8008 19.85L34.0508 25.05L40.1508 27L52.9508 22.85L50.6008 15.7L37.8008 19.85ZM40.1508 27L34.0508 28.95L37.8008 34.15L50.6008 38.3L52.9508 31.15L40.1508 27ZM37.8008 34.15L31.7508 32.15V38.55L39.6508 49.45L45.7508 45L37.8008 34.15ZM31.7508 38.55L28.0008 33.4L24.2508 38.55V52H31.7508V38.55ZM24.2508 38.55V32.15L18.2008 34.15L10.2508 45L16.3508 49.45L24.2508 38.55ZM18.2008 34.15L21.9508 28.95L15.8508 27L3.05078 31.15L5.40078 38.3L18.2008 34.15ZM15.8508 27L21.9508 25.05L18.2008 19.85L5.40078 15.7L3.05078 22.85L15.8508 27ZM18.2008 19.85L24.2508 21.85V15.45L16.3508 4.55L10.2508 9L18.2008 19.85Z" fill="black"/>
</g>
<defs>
<clipPath id="clip0_7200_56260">
<rect width="50" height="50" fill="white" transform="translate(3 2)"/>
</clipPath>
</defs>
</svg>
