<svg width="117" height="81" viewBox="0 0 117 81" fill="none" xmlns="http://www.w3.org/2000/svg">
<mask id="mask0_6572_17341" style="mask-type:alpha" maskUnits="userSpaceOnUse" x="0" y="0" width="118" height="81">
<rect x="0.335938" y="0.666992" width="116.667" height="80" fill="#D9D9D9"/>
</mask>
<g mask="url(#mask0_6572_17341)">
</g>
<g clip-path="url(#clip0_6572_17341)">
<path d="M76.3307 57.9984C76.3307 57.999 76.3301 57.9997 76.3294 57.9997H41.6653C41.6647 57.9997 41.6641 57.999 41.6641 57.9984V23.3343C41.6641 23.3336 41.6647 23.333 41.6653 23.333H76.3298C76.3304 23.333 76.3311 23.3336 76.3311 23.3343V57.9984H76.3307Z" fill="white"/>
<path d="M75.7533 57.421C75.7533 57.4216 75.7527 57.4222 75.752 57.4222H42.2435C42.2428 57.4222 42.2422 57.4216 42.2422 57.421V23.9124C42.2422 23.9118 42.2428 23.9111 42.2435 23.9111H75.7523C75.753 23.9111 75.7536 23.9118 75.7536 23.9124V57.421H75.7533Z" fill="#D00000"/>
<path d="M51.3909 49.772C51.3909 49.7973 51.4057 49.8326 51.4234 49.8503L51.997 50.4239C52.0149 50.4419 52.0503 50.4563 52.0753 50.4563H54.0381C54.0635 50.4563 54.0988 50.4415 54.1165 50.4239L54.6901 49.8503C54.708 49.8323 54.7225 49.797 54.7225 49.772V43.5438C54.7225 43.5185 54.7376 43.4835 54.7559 43.4662L57.2496 41.0844C57.2679 41.0671 57.2946 41.0697 57.3087 41.0908L63.6093 50.4187C63.6235 50.4396 63.6559 50.4569 63.6809 50.4569H66.4616C66.487 50.4569 66.5172 50.4386 66.5287 50.4162L67.0333 49.4384C67.0449 49.416 67.0426 49.3807 67.0282 49.3598L59.6583 38.6773C59.6439 38.6565 59.6467 38.625 59.6647 38.607L66.4433 31.8602C66.4613 31.8422 66.4758 31.8072 66.4758 31.7819V31.6573C66.4758 31.632 66.4674 31.5925 66.4575 31.5691L66.0665 30.67C66.0566 30.6469 66.0273 30.6279 66.0023 30.6279H63.2537C63.2283 30.6279 63.193 30.6427 63.1754 30.6603L54.7555 39.112C54.7376 39.1299 54.7231 39.1238 54.7231 39.0985V31.345C54.7231 31.3197 54.709 31.284 54.6917 31.2654L54.129 30.662C54.1116 30.6433 54.077 30.6283 54.0516 30.6283H52.0753C52.0499 30.6283 52.0153 30.6433 51.9979 30.662L51.4218 31.284C51.4044 31.3026 51.3906 31.3383 51.3906 31.3636V49.772H51.3909Z" fill="white"/>
</g>
<defs>
<clipPath id="clip0_6572_17341">
<rect width="34.6667" height="34.6667" fill="white" transform="translate(41.668 23.3335)"/>
</clipPath>
</defs>
</svg>
