<svg width="80" height="80" viewBox="0 0 80 80" fill="none" xmlns="http://www.w3.org/2000/svg">
<mask id="mask0_6960_19884" style="mask-type:alpha" maskUnits="userSpaceOnUse" x="-1" y="-1" width="82" height="82">
<rect width="80" height="80" fill="white" stroke="white" stroke-width="2"/>
</mask>
<g mask="url(#mask0_6960_19884)">
<path d="M63.0687 63.1H63.1M63.0687 63.1C61.0138 65.1377 57.2898 64.6302 54.6782 64.6302C51.4725 64.6302 49.9288 65.2573 47.6409 67.5452C45.6928 69.4933 43.0813 73 40.0001 73C36.9188 73 34.3072 69.4933 32.3591 67.5452C30.0712 65.2573 28.5275 64.6302 25.3218 64.6302C22.7102 64.6302 18.9862 65.1377 16.9313 63.1C14.86 61.046 15.3697 57.3065 15.3697 54.6781C15.3697 51.3567 14.6433 49.8294 12.2779 47.4641C8.75935 43.9455 7.00005 42.1861 7 39.9999C7.00003 37.8138 8.75931 36.0545 12.2779 32.536C14.3894 30.4244 15.3697 28.3321 15.3697 25.3218C15.3697 22.7102 14.8622 18.9861 16.9 16.9312C18.954 14.8599 22.6935 15.3696 25.3219 15.3696C28.3321 15.3696 30.4244 14.3894 32.5359 12.2779C36.0545 8.75931 37.8138 7 40 7C42.1862 7 43.9455 8.75931 47.4641 12.2779C49.5751 14.3889 51.667 15.3696 54.6781 15.3696C57.2898 15.3696 61.0139 14.8621 63.0688 16.9C65.14 18.954 64.6303 22.6934 64.6303 25.3218C64.6303 28.6433 65.3568 30.1705 67.7221 32.5359C71.2407 36.0545 73 37.8138 73 39.9999C72.9999 42.1861 71.2406 43.9455 67.7221 47.4641C65.3566 49.8293 64.6303 51.3567 64.6303 54.6781C64.6303 57.3065 65.14 61.046 63.0687 63.1Z" stroke="black" stroke-width="3"/>
<path d="M30.1016 42.9464L36.0416 48.25L49.9016 31.75" stroke="black" stroke-width="3" stroke-linecap="round" stroke-linejoin="round"/>
</g>
</svg>
