<svg width="80" height="80" viewBox="0 0 80 80" fill="none" xmlns="http://www.w3.org/2000/svg">
<mask id="mask0_6960_15266" style="mask-type:alpha" maskUnits="userSpaceOnUse" x="-1" y="-1" width="82" height="82">
<rect width="80" height="80" fill="white" stroke="white" stroke-width="2"/>
</mask>
<g mask="url(#mask0_6960_15266)">
<path d="M41.65 72.9996H22.1499C17.0501 72.9996 12.9938 70.5181 9.35178 67.0483C1.8961 59.9452 14.1373 54.2688 18.806 51.4888C26.2291 47.0688 35.0055 45.6457 43.3 47.2194" stroke="black" stroke-width="3" stroke-linecap="round" stroke-linejoin="round"/>
<path d="M51.5516 21.85C51.5516 30.0514 44.903 36.7 36.7016 36.7C28.5001 36.7 21.8516 30.0514 21.8516 21.85C21.8516 13.6486 28.5001 7 36.7016 7C44.903 7 51.5516 13.6486 51.5516 21.85Z" stroke="black" stroke-width="3"/>
<path d="M62.082 48.5059L64.405 53.1902C64.7218 53.8423 65.5665 54.4677 66.2792 54.5875L70.4895 55.2928C73.182 55.7453 73.8155 57.7148 71.8754 59.6577L68.6021 62.958C68.0478 63.5169 67.7442 64.5948 67.9158 65.3667L68.8529 69.4521C69.592 72.6859 67.8894 73.9368 65.0517 72.2467L61.1054 69.8913C60.3926 69.4654 59.218 69.4654 58.492 69.8913L54.5457 72.2467C51.7212 73.9368 50.0054 72.6725 50.7445 69.4521L51.6816 65.3667C51.8532 64.5948 51.5496 63.5169 50.9953 62.958L47.722 59.6577C45.795 57.7148 46.4154 55.7453 49.1079 55.2928L53.3182 54.5875C54.0177 54.4677 54.8624 53.8423 55.1792 53.1902L57.5021 48.5059C58.7692 45.9642 60.8282 45.9642 62.082 48.5059Z" stroke="black" stroke-width="3" stroke-linecap="round" stroke-linejoin="round"/>
</g>
</svg>
