<svg width="80" height="80" viewBox="0 0 80 80" fill="none" xmlns="http://www.w3.org/2000/svg">
<mask id="mask0_6960_27282" style="mask-type:alpha" maskUnits="userSpaceOnUse" x="-1" y="-1" width="82" height="82">
<rect width="80" height="80" fill="white" stroke="white" stroke-width="2"/>
</mask>
<g mask="url(#mask0_6960_27282)">
<path d="M7 40C7 24.4437 7 16.6655 11.8327 11.8327C16.6655 7 24.4437 7 40 7C55.5563 7 63.3345 7 68.1673 11.8327C73 16.6655 73 24.4437 73 40C73 55.5563 73 63.3345 68.1673 68.1673C63.3345 73 55.5563 73 40 73C24.4437 73 16.6655 73 11.8327 68.1673C7 63.3345 7 55.5563 7 40Z" stroke="black" stroke-width="3"/>
<path d="M7 29.5791H73" stroke="black" stroke-width="3" stroke-linejoin="round"/>
<path d="M22.6321 19.1577H22.6633" stroke="black" stroke-width="6" stroke-linecap="round" stroke-linejoin="round"/>
<path d="M36.5267 19.1577H36.5579" stroke="black" stroke-width="6" stroke-linecap="round" stroke-linejoin="round"/>
<path d="M57.3697 57.3684C57.3697 47.7761 49.5935 40 40.0012 40C30.4089 40 22.6328 47.7761 22.6328 57.3684" stroke="black" stroke-width="3" stroke-linecap="round"/>
<path d="M42.457 51.439L37.5445 56.3515" stroke="black" stroke-width="3" stroke-linecap="round" stroke-linejoin="round"/>
</g>
</svg>
