<svg width="77" height="66" viewBox="0 0 77 66" fill="none" xmlns="http://www.w3.org/2000/svg">
<path d="M25.1108 58.5601C24.8493 58.5605 24.5947 58.4765 24.3848 58.3206C24.1749 58.1647 24.0209 57.9452 23.9457 57.6947C23.8706 57.4443 23.8783 57.1763 23.9677 56.9305C24.0571 56.6848 24.2235 56.4745 24.442 56.3309L26.5507 54.9431C27.5956 54.2542 28.8164 53.8797 30.0679 53.864L53.9708 53.557C54.9015 53.5448 58.3564 52.1692 59.1561 51.4987L72.2599 38.9127L72.3024 38.8728C72.7231 38.5112 73.0669 38.0689 73.3135 37.572C73.5601 37.0751 73.7044 36.5337 73.738 35.98C73.7715 35.4263 73.6936 34.8715 73.5088 34.3484C73.324 33.8254 73.0362 33.3448 72.6622 32.935C72.2883 32.5252 71.8359 32.1947 71.3319 31.963C70.8279 31.7312 70.2825 31.603 69.7281 31.5859C69.1736 31.5688 68.6214 31.6632 68.104 31.8634C67.5867 32.0636 67.1148 32.3657 66.7163 32.7516L59.9992 39.2718L59.9767 39.2926L56.0352 42.9288C54.8489 44.0228 53.3006 44.6406 51.687 44.6636L35.1604 44.9056H35.1422C34.8202 44.9079 34.5104 44.7821 34.281 44.556C34.0516 44.3299 33.9215 44.0219 33.9192 43.6999C33.9169 43.3778 34.0426 43.068 34.2687 42.8387C34.4948 42.6093 34.8028 42.4792 35.1249 42.4769L51.6514 42.2357C52.6673 42.2202 53.6417 41.8304 54.388 41.1411L58.3182 37.5153L65.0249 31.0099C65.6556 30.4013 66.4017 29.925 67.2191 29.6091C68.0366 29.2931 68.909 29.1438 69.785 29.1699C70.6611 29.1961 71.523 29.3971 72.3202 29.7613C73.1174 30.1254 73.8337 30.6453 74.427 31.2904C75.0203 31.9355 75.4786 32.6927 75.7749 33.5175C76.0713 34.3423 76.1997 35.218 76.1526 36.0931C76.1056 36.9683 75.884 37.8252 75.5009 38.6134C75.1177 39.4017 74.5809 40.1054 73.9218 40.6831L60.8137 53.2725C60.7998 53.2864 60.7851 53.2994 60.7703 53.3124C59.6549 54.2856 55.6258 55.9631 54.0046 55.9848L30.1018 56.2945C29.3141 56.304 28.5457 56.5398 27.8882 56.9737L25.7787 58.3615C25.5804 58.4919 25.3481 58.561 25.1108 58.5601Z" fill="black"/>
<path d="M8.33418 41.5375C8.10019 41.5372 7.87126 41.4694 7.67492 41.3421C7.47858 41.2148 7.32318 41.0335 7.22743 40.82C7.13168 40.6066 7.09964 40.3699 7.13518 40.1387C7.17072 39.9074 7.27231 39.6913 7.42775 39.5164C7.52923 39.4019 9.97095 36.6844 14.3027 34.0067C16.7892 32.4607 19.4577 31.2288 22.2472 30.3394C25.6283 29.2646 29.166 28.7661 32.7124 28.8648C35.5641 28.9552 38.3921 29.4141 41.1261 30.2301C42.7037 30.6903 44.3282 30.9711 45.9688 31.0671L51.2851 31.3985C51.3978 31.4054 51.5037 31.4141 51.6052 31.4262C53.5623 31.6312 55.3695 32.5691 56.6636 34.0517C57.9577 35.5342 58.6429 37.4515 58.5816 39.4184C58.5721 39.7405 58.435 40.0456 58.2005 40.2665C57.966 40.4875 57.6533 40.6063 57.3313 40.5968C57.0092 40.5872 56.7041 40.4501 56.4831 40.2156C56.2622 39.9811 56.1434 39.6685 56.1529 39.3464C56.2397 36.5447 54.1267 34.1273 51.3519 33.8436H51.3363C51.2747 33.8367 51.2096 33.8315 51.1359 33.8263L45.8179 33.4958C43.9959 33.3869 42.192 33.0736 40.44 32.5616C37.907 31.8053 35.2869 31.3797 32.6447 31.2952C25.2788 31.0827 19.2998 33.7777 15.5813 36.0763C11.5479 38.5701 9.26663 41.1072 9.24408 41.135C9.12943 41.2625 8.98907 41.3643 8.83224 41.4337C8.67541 41.5031 8.50566 41.5384 8.33418 41.5375Z" fill="black"/>
<path d="M21.7753 66C21.0296 66.0017 20.291 65.8553 19.6024 65.5692C18.9137 65.2832 18.2887 64.8632 17.7636 64.3337L1.65434 48.1732C0.594699 47.1064 0 45.6638 0 44.1602C0 42.6566 0.594699 41.214 1.65434 40.1472C2.17927 39.6175 2.80424 39.1974 3.49294 38.9114C4.18163 38.6253 4.92031 38.479 5.66605 38.4809C6.41193 38.4789 7.15077 38.6252 7.83962 38.9112C8.52847 39.1973 9.15359 39.6174 9.67863 40.1472L25.7879 56.3068C26.8476 57.3737 27.4423 58.8165 27.4423 60.3202C27.4423 61.824 26.8476 63.2668 25.7879 64.3337C25.2628 64.8633 24.6376 65.2834 23.9488 65.5694C23.26 65.8555 22.5212 66.0018 21.7753 66ZM5.66605 40.9096C5.23989 40.9088 4.81782 40.9928 4.4244 41.1566C4.03098 41.3204 3.67405 41.5608 3.37438 41.8638C2.76758 42.4749 2.42703 43.3012 2.42703 44.1624C2.42703 45.0236 2.76758 45.8499 3.37438 46.461L19.4837 62.6206C19.7842 62.9224 20.1414 63.1619 20.5347 63.3254C20.9281 63.4888 21.3498 63.5729 21.7758 63.5729C22.2017 63.5729 22.6235 63.4888 23.0168 63.3254C23.4102 63.1619 23.7673 62.9224 24.0679 62.6206C24.6747 62.0095 25.0152 61.1832 25.0152 60.322C25.0152 59.4608 24.6747 58.6345 24.0679 58.0234L7.95858 41.862C7.65863 41.5593 7.3015 41.3192 6.90793 41.1557C6.51437 40.9922 6.09222 40.9085 5.66605 40.9096ZM38.0755 17.9982C36.5962 17.998 35.1502 17.5592 33.9203 16.7372C32.6904 15.9153 31.7319 14.7471 31.1659 13.3803C30.5999 12.0136 30.4519 10.5097 30.7406 9.05891C31.0293 7.60807 31.7417 6.27542 32.7878 5.22947C33.8339 4.18352 35.1666 3.47125 36.6175 3.18272C38.0683 2.89419 39.5722 3.04236 40.9389 3.6085C42.3055 4.17463 43.4736 5.13331 44.2954 6.3633C45.1173 7.59329 45.5559 9.03935 45.5559 10.5186C45.5536 12.5018 44.7647 14.403 43.3624 15.8053C41.96 17.2075 40.0586 17.9961 38.0755 17.9982ZM38.0755 5.46778C37.0765 5.46795 36.1001 5.76432 35.2696 6.31942C34.4391 6.87452 33.7919 7.66342 33.4097 8.58636C33.0276 9.50929 32.9277 10.5248 33.1226 11.5045C33.3176 12.4842 33.7987 13.3841 34.5052 14.0904C35.2116 14.7967 36.1115 15.2777 37.0913 15.4725C38.071 15.6673 39.0865 15.5672 40.0094 15.1849C40.9323 14.8026 41.7211 14.1552 42.276 13.3246C42.831 12.4941 43.1272 11.5176 43.1272 10.5186C43.1256 9.17941 42.5928 7.8955 41.6458 6.94861C40.6987 6.00171 39.4147 5.46916 38.0755 5.46778Z" fill="black"/>
<path d="M51.6426 33.8675C51.5413 33.8676 51.4405 33.8547 51.3424 33.8294C51.0306 33.75 50.763 33.5502 50.5985 33.2737C50.4339 32.9972 50.3857 32.6667 50.4646 32.3548C50.4923 32.2468 50.5063 32.1358 50.5063 32.0243V30.4413C50.5092 28.7181 50.1499 27.0135 49.4515 25.4382C48.4049 23.0906 46.6682 21.1174 44.4726 19.781L44.4449 19.7645C42.5274 18.6096 40.3314 17.999 38.0929 17.9985H38.0539C35.8157 17.9992 33.6201 18.6097 31.7028 19.7645L31.6733 19.781C29.4787 21.1181 27.7428 23.0911 26.6962 25.4382C25.9978 27.0135 25.6385 28.7181 25.6415 30.4413V30.9843C25.6415 31.3064 25.5135 31.6152 25.2858 31.843C25.058 32.0707 24.7492 32.1987 24.4271 32.1987C24.105 32.1987 23.7962 32.0707 23.5684 31.843C23.3407 31.6152 23.2127 31.3064 23.2127 30.9843V30.4413C23.2092 28.3799 23.6392 26.3407 24.4748 24.4563C25.729 21.6422 27.8138 19.279 30.4494 17.6836L30.4807 17.6654C32.7689 16.2945 35.3864 15.5702 38.0539 15.5698H38.0929C40.7607 15.5703 43.3784 16.2946 45.667 17.6654L45.6983 17.6836C48.3339 19.279 50.4187 21.6422 51.6729 24.4563C52.5081 26.3409 52.9381 28.3799 52.935 30.4413V32.0243C52.935 32.3373 52.896 32.6491 52.8187 32.9524C52.7522 33.214 52.6005 33.4459 52.3875 33.6116C52.1745 33.7773 51.9124 33.8674 51.6426 33.8675ZM20.8274 12.2268C19.6184 12.2267 18.4366 11.868 17.4315 11.1963C16.4263 10.5246 15.6429 9.56987 15.1802 8.45292C14.7175 7.33598 14.5965 6.10693 14.8322 4.92118C15.068 3.73542 15.6501 2.64619 16.5048 1.79119C17.3596 0.9362 18.4486 0.353835 19.6343 0.117724C20.82 -0.118387 22.0491 0.00235864 23.1662 0.464695C24.2832 0.927032 25.2382 1.7102 25.9102 2.71518C26.5822 3.72017 26.9412 4.90184 26.9417 6.11082C26.9405 7.73223 26.296 9.28694 25.1497 10.4336C24.0033 11.5803 22.4488 12.2252 20.8274 12.2268ZM20.8274 2.42525C20.0987 2.42542 19.3864 2.64165 18.7806 3.04659C18.1748 3.45154 17.7027 4.02702 17.4239 4.70027C17.1451 5.37353 17.0722 6.11433 17.2144 6.82901C17.3566 7.54369 17.7075 8.20016 18.2228 8.71543C18.738 9.23069 19.3945 9.58161 20.1092 9.72381C20.8239 9.86601 21.5647 9.79312 22.2379 9.51434C22.9112 9.23556 23.4867 8.76342 23.8916 8.1576C24.2966 7.55179 24.5128 6.83951 24.513 6.11082C24.5111 5.13423 24.1221 4.19821 23.4312 3.50798C22.7404 2.81775 21.804 2.42963 20.8274 2.42872V2.42525Z" fill="black"/>
<path d="M25.5863 26.1616H12.1729C11.3166 26.1602 10.4958 25.8191 9.89064 25.2132C9.28553 24.6073 8.94554 23.786 8.94531 22.9296V21.691C8.94531 15.1335 14.2703 9.79899 20.8156 9.79899H20.8451C26.0886 9.79899 30.7768 13.3293 32.2445 18.3862C32.3192 18.6434 32.3069 18.9181 32.2093 19.1676C32.1117 19.417 31.9344 19.6272 31.705 19.7654C29.4965 21.1015 27.7498 23.0814 26.6992 25.439C26.6038 25.6544 26.4478 25.8374 26.2502 25.9657C26.0526 26.094 25.8219 26.1621 25.5863 26.1616ZM20.8156 12.2277C15.6113 12.2277 11.374 16.4727 11.374 21.691V22.9296C11.3763 23.1412 11.461 23.3436 11.6102 23.4936C11.7594 23.6436 11.9613 23.7295 12.1729 23.7329H24.8213C25.9488 21.5313 27.5976 19.6389 29.6241 18.2205C28.2102 14.6521 24.7181 12.2277 20.8451 12.2277H20.8156ZM55.3233 12.2268C54.1143 12.2267 52.9326 11.868 51.9274 11.1963C50.9222 10.5246 50.1388 9.56987 49.6761 8.45292C49.2135 7.33598 49.0924 6.10693 49.3281 4.92118C49.5639 3.73542 50.146 2.64619 51.0007 1.79119C51.8555 0.9362 52.9445 0.353835 54.1302 0.117724C55.3159 -0.118387 56.545 0.00235864 57.6621 0.464695C58.7792 0.927032 59.7341 1.7102 60.4061 2.71518C61.0781 3.72017 61.4371 4.90184 61.4376 6.11082C61.4364 7.73223 60.7919 9.28694 59.6456 10.4336C58.4992 11.5803 56.9447 12.2252 55.3233 12.2268ZM55.3233 2.42525C54.5946 2.42542 53.8823 2.64165 53.2765 3.04659C52.6707 3.45154 52.1986 4.02702 51.9198 4.70027C51.641 5.37353 51.5681 6.11433 51.7103 6.82901C51.8525 7.54369 52.2034 8.20016 52.7187 8.71543C53.234 9.23069 53.8904 9.58161 54.6051 9.72381C55.3198 9.86601 56.0606 9.79312 56.7339 9.51434C57.4071 9.23556 57.9826 8.76342 58.3875 8.1576C58.7925 7.55179 59.0087 6.83951 59.0089 6.11082C59.007 5.13423 58.618 4.19821 57.9272 3.50798C57.2363 2.81775 56.2999 2.42963 55.3233 2.42872V2.42525Z" fill="black"/>
<path d="M63.9795 26.1609H50.567C50.2449 26.1609 49.936 26.033 49.7083 25.8052C49.4805 25.5775 49.3526 25.2686 49.3526 24.9466C49.3526 24.6245 49.4805 24.3156 49.7083 24.0879C49.936 23.8602 50.2449 23.7322 50.567 23.7322H63.9795C64.1912 23.7291 64.3934 23.6433 64.5428 23.4933C64.6922 23.3432 64.777 23.1407 64.7793 22.929V21.6904C64.7793 16.4721 60.5438 12.2271 55.3385 12.2271H55.3082C51.1377 12.2271 47.4096 15.0374 46.2404 19.0621C46.1591 19.3434 45.979 19.5858 45.7332 19.7448C45.4873 19.9038 45.1923 19.9686 44.9025 19.9273C44.6126 19.8861 44.3475 19.7415 44.1558 19.5202C43.9641 19.2989 43.8589 19.0158 43.8594 18.723C43.8592 18.5926 43.8803 18.4631 43.9218 18.3396C45.4042 13.3087 50.0803 9.79834 55.3082 9.79834H55.3376C61.8822 9.79834 67.2071 15.1328 67.2071 21.6904V22.929C67.2069 23.7853 66.8669 24.6066 66.2618 25.2125C65.6567 25.8185 64.8359 26.1595 63.9795 26.1609Z" fill="black"/>
</svg>
