<svg width="80" height="81" viewBox="0 0 80 81" fill="none" xmlns="http://www.w3.org/2000/svg">
<mask id="mask0_7380_55984" style="mask-type:alpha" maskUnits="userSpaceOnUse" x="-1" y="0" width="82" height="82">
<rect y="1" width="80" height="80" fill="white" stroke="white" stroke-width="2"/>
</mask>
<g mask="url(#mask0_7380_55984)">
<path d="M67.9787 56.8821C65.2626 56.8802 62.6274 57.8059 60.5091 59.5059L52.224 51.2208C54.4953 48.5352 55.8116 45.1721 55.9667 41.6583L72.2577 41.0489C72.6007 41.9303 73.2443 42.662 74.0748 43.1146C74.9053 43.5671 75.8691 43.7114 76.7957 43.5218C77.7222 43.3322 78.5519 42.8211 79.138 42.0787C79.724 41.3364 80.0286 40.4107 79.9979 39.4654C79.9671 38.5201 79.6031 37.6162 78.9701 36.9134C78.3371 36.2107 77.476 35.7545 76.539 35.6255C75.6021 35.4965 74.6497 35.703 73.8504 36.2086C73.051 36.7141 72.4562 37.486 72.1712 38.3878L55.8776 38.9906C55.6019 36.7 54.8326 34.4964 53.6228 32.532C52.4129 30.5675 50.7912 28.8889 48.8697 27.6119L52.7123 20.624C54.293 21.1166 56.0004 21.0046 57.5032 20.3096C59.006 19.6146 60.1971 18.3862 60.8455 16.8627C61.4938 15.3392 61.5532 13.6292 61.0121 12.0644C60.4709 10.4996 59.3679 9.19152 57.9169 8.39397C56.4659 7.59642 54.7704 7.36624 53.1593 7.74806C51.5482 8.12988 50.1364 9.0965 49.1976 10.4604C48.2589 11.8243 47.8602 13.4883 48.0789 15.1295C48.2976 16.7707 49.1181 18.2722 50.3812 19.3427L46.536 26.3346C43.7947 25.1067 40.7619 24.68 37.7883 25.1038C34.8146 25.5277 32.0218 26.7847 29.7328 28.7296L21.4476 20.4431C23.3609 18.0489 24.2848 15.0129 24.0296 11.9587C23.7743 8.90458 22.3593 6.06409 20.0751 4.0207C17.7909 1.97731 14.8109 0.886139 11.7473 0.971311C8.6837 1.05648 5.76898 2.31153 3.60184 4.47867C1.4347 6.64582 0.179651 9.56053 0.0944795 12.6242C0.00930788 15.6878 1.10048 18.6677 3.14387 20.9519C5.18726 23.2361 8.02774 24.6512 11.0819 24.9064C14.1361 25.1617 17.172 24.2377 19.5662 22.3244L27.8514 30.6109C25.4076 33.488 24.0676 37.141 24.0714 40.9158C24.0752 41.8714 24.1643 42.8247 24.3375 43.7645L10.0516 47.611C9.40722 46.5011 8.381 45.6635 7.16444 45.2545C5.94789 44.8456 4.62409 44.8932 3.44006 45.3885C2.25603 45.8838 1.29263 46.793 0.729631 47.9463C0.166629 49.0997 0.0424746 50.4185 0.380334 51.6567C0.718193 52.8949 1.49499 53.9679 2.56578 54.6755C3.63657 55.383 4.92822 55.6769 6.19973 55.5022C7.47123 55.3274 8.63574 54.6961 9.47598 53.7259C10.3162 52.7557 10.7748 51.5129 10.7661 50.2295V50.1763L25.04 46.3337C26.2775 49.7509 28.6422 52.6445 31.7445 54.5378L27.737 62.5515C25.8134 61.9559 23.7362 62.1049 21.9173 62.9689C20.0984 63.833 18.6706 65.349 17.9171 67.2164C17.1636 69.0838 17.1393 71.1662 17.8492 73.0507C18.559 74.9351 19.9511 76.484 21.7494 77.3902C23.5476 78.2964 25.6208 78.4937 27.5577 77.943C29.4947 77.3923 31.1539 76.1339 32.2065 74.4172C33.2591 72.7004 33.6281 70.6509 33.2404 68.6749C32.8527 66.6988 31.7365 64.9407 30.1133 63.749L34.1208 55.7352C36.8098 56.8162 39.7429 57.1423 42.6036 56.6782C45.4643 56.2142 48.1439 54.9777 50.3532 53.1021L58.6384 61.3873C56.9456 63.5084 56.0235 66.1416 56.0232 68.8554C56.0229 71.5692 56.9443 74.2026 58.6366 76.3242C60.3289 78.4457 62.6916 79.9295 65.3376 80.5323C67.9836 81.1352 70.7559 80.8215 73.2002 79.6425C75.6445 78.4635 77.6159 76.4892 78.7913 74.0432C79.9666 71.5971 80.2763 68.8244 79.6694 66.1793C79.0626 63.5342 77.5753 61.1737 75.4513 59.4845C73.3273 57.7954 70.6925 56.8778 67.9787 56.8821ZM18.7493 19.6274H5.44402C5.44402 17.8631 6.14492 16.1709 7.39253 14.9233C8.64014 13.6757 10.3323 12.9748 12.0967 12.9748C11.3072 12.9748 10.5355 12.7407 9.87905 12.3021C9.22264 11.8635 8.71103 11.2401 8.40891 10.5107C8.1068 9.78138 8.02775 8.97881 8.18177 8.20452C8.33579 7.43023 8.71595 6.719 9.27418 6.16076C9.83241 5.60253 10.5436 5.22237 11.3179 5.06836C12.0922 4.91434 12.8948 4.99339 13.6242 5.2955C14.3535 5.59761 14.9769 6.10922 15.4155 6.76563C15.8541 7.42205 16.0882 8.19378 16.0882 8.98324C16.0882 10.0419 15.6677 11.0571 14.9191 11.8057C14.1706 12.5543 13.1553 12.9748 12.0967 12.9748C13.861 12.9748 15.5532 13.6757 16.8008 14.9233C18.0484 16.1709 18.7493 17.8631 18.7493 19.6274ZM40.0377 30.2716C41.0903 30.2716 42.1193 30.5838 42.9945 31.1686C43.8697 31.7534 44.5518 32.5846 44.9547 33.5571C45.3575 34.5295 45.4629 35.5996 45.2575 36.632C45.0522 37.6644 44.5453 38.6127 43.801 39.357C43.0567 40.1013 42.1084 40.6082 41.076 40.8136C40.0436 41.0189 38.9735 40.9135 38.001 40.5107C37.0285 40.1079 36.1973 39.4258 35.6125 38.5505C35.0277 37.6753 34.7156 36.6464 34.7156 35.5937C34.7156 34.1822 35.2763 32.8285 36.2744 31.8305C37.2725 30.8324 38.6262 30.2716 40.0377 30.2716ZM32.0545 50.2295C32.0545 48.1123 32.8956 46.0817 34.3927 44.5846C35.8899 43.0874 37.9204 42.2464 40.0377 42.2464C42.1549 42.2464 44.1855 43.0874 45.6826 44.5846C47.1798 46.0817 48.0208 48.1123 48.0208 50.2295H32.0545ZM61.3261 75.5095C61.3261 73.7451 62.027 72.053 63.2746 70.8054C64.5222 69.5578 66.2143 68.8569 67.9787 68.8569C67.1893 68.8569 66.4175 68.6228 65.7611 68.1842C65.1047 67.7456 64.5931 67.1222 64.291 66.3928C63.9889 65.6634 63.9098 64.8609 64.0638 64.0866C64.2178 63.3123 64.598 62.6011 65.1562 62.0428C65.7145 61.4846 66.4257 61.1044 67.2 60.9504C67.9743 60.7964 68.7769 60.8755 69.5062 61.1776C70.2356 61.4797 70.859 61.9913 71.2976 62.6477C71.7362 63.3041 71.9703 64.0758 71.9703 64.8653C71.9703 65.9239 71.5498 66.9392 70.8012 67.6878C70.0526 68.4363 69.0373 68.8569 67.9787 68.8569C69.7431 68.8569 71.4352 69.5578 72.6828 70.8054C73.9304 72.053 74.6313 73.7451 74.6313 75.5095H61.3261Z" fill="black"/>
</g>
</svg>
