<svg width="93" height="92" viewBox="0 0 93 92" fill="none" xmlns="http://www.w3.org/2000/svg">
<mask id="mask0_7374_57705" style="mask-type:alpha" maskUnits="userSpaceOnUse" x="0" y="0" width="93" height="92">
<rect x="0.375" width="92" height="92" fill="black"/>
</mask>
<g mask="url(#mask0_7374_57705)">
<path d="M73.271 52.0696L73.2576 52.0535L69.7419 48.8268C69.953 46.9491 69.953 45.0536 69.7419 43.1759L73.2737 39.9304C73.987 39.2605 74.4543 38.37 74.6004 37.4024C74.7465 36.4347 74.5629 35.446 74.079 34.5953L69.9319 27.4194C69.4388 26.5641 68.6685 25.903 67.7483 25.5453C66.8282 25.1877 65.8135 25.1551 64.8723 25.4528L60.3158 26.8896C58.8099 25.7472 57.169 24.7947 55.4302 24.0535L54.376 19.3712C54.1582 18.4176 53.6244 17.5657 52.8614 16.9537C52.0983 16.3417 51.1508 16.0056 50.1727 16H41.857C39.861 16 38.0924 17.4181 37.6536 19.3686L36.5968 24.0508C34.859 24.7941 33.2183 25.7465 31.7111 26.887L27.1493 25.4502C25.2041 24.8428 23.0797 25.6696 22.1058 27.4007L17.9345 34.614C17.4561 35.4677 17.278 36.4572 17.4289 37.4241C17.5797 38.391 18.0508 39.2792 18.7667 39.9465L22.2824 43.1732C22.0713 45.0509 22.0713 46.9464 22.2824 48.8241L18.7506 52.0696C18.0372 52.7395 17.5699 53.63 17.4239 54.5976C17.2778 55.5653 17.4614 56.554 17.9452 57.4047L22.0924 64.5806C22.5858 65.4355 23.3562 66.0964 24.2762 66.454C25.1962 66.8116 26.2107 66.8444 27.1519 66.5472L31.7085 65.1104C33.2144 66.2528 34.8553 67.2053 36.5941 67.9465L37.6483 72.6288C38.0844 74.5819 39.8529 76 41.8516 76H50.1673C52.1633 76 53.9319 74.5819 54.3707 72.6314L55.4249 67.9465C57.1629 67.2038 58.8036 66.2514 60.3105 65.1104L64.8723 66.5498C65.8094 66.8485 66.8204 66.8179 67.7377 66.4631C68.655 66.1084 69.4235 65.4508 69.9158 64.5993L74.0871 57.386C74.5663 56.5365 74.7463 55.5507 74.5983 54.5866C74.4504 53.6226 73.9829 52.7362 73.271 52.0696Z" fill="black"/>
<path d="M44.0067 56.7017C43.7048 56.7021 43.4066 56.6344 43.1345 56.5036C42.8623 56.3727 42.6232 56.1822 42.435 55.9461C42.2467 55.71 42.1141 55.4345 42.0472 55.14C41.9802 54.8456 41.9806 54.5398 42.0482 54.2455L46.0616 36.8542C46.1954 36.3513 46.5193 35.92 46.965 35.6513C47.4108 35.3827 47.9434 35.2977 48.4506 35.4143C48.9578 35.531 49.3999 35.8401 49.6835 36.2765C49.967 36.7129 50.07 37.2424 49.9706 37.7532L45.9572 55.1445C45.8562 55.5864 45.6083 55.981 45.254 56.2638C44.8997 56.5467 44.4601 56.701 44.0067 56.7017ZM54.7064 54.0261C54.2995 54.028 53.9017 53.906 53.5658 53.6763C53.2299 53.4466 52.9719 53.1201 52.8261 52.7402C52.6803 52.3603 52.6536 51.945 52.7496 51.5496C52.8455 51.1541 53.0596 50.7973 53.3633 50.5265L58.396 45.9994L53.3633 41.4723C53.1672 41.2959 53.0078 41.0826 52.8942 40.8446C52.7805 40.6066 52.7149 40.3486 52.701 40.0852C52.6729 39.5534 52.8572 39.0321 53.2134 38.6362C53.3898 38.4401 53.6031 38.2807 53.8411 38.1671C54.0791 38.0534 54.3371 37.9878 54.6005 37.9739C55.1323 37.9458 55.6536 38.1301 56.0496 38.4863L62.7385 44.5064C62.947 44.6953 63.1135 44.9257 63.2275 45.1828C63.3415 45.4399 63.4004 45.7181 63.4004 45.9994C63.4004 46.2806 63.3415 46.5588 63.2275 46.8159C63.1135 47.0731 62.947 47.3035 62.7385 47.4923L56.0496 53.5124C55.6808 53.8439 55.2023 54.027 54.7064 54.0261ZM37.3151 54.0261C36.8193 54.027 36.3407 53.8439 35.972 53.5124L29.283 47.4923C29.0746 47.3035 28.908 47.0731 28.794 46.8159C28.68 46.5588 28.6211 46.2806 28.6211 45.9994C28.6211 45.7181 28.68 45.4399 28.794 45.1828C28.908 44.9257 29.0746 44.6953 29.283 44.5064L35.972 38.4863C36.3709 38.1509 36.8847 37.9836 37.4047 38.0198C37.9247 38.056 38.4102 38.2929 38.7589 38.6804C39.1075 39.0679 39.2919 39.5758 39.2731 40.0967C39.2543 40.6176 39.0339 41.1109 38.6582 41.4723L33.6255 45.9994L38.6582 50.5265C38.9605 50.7979 39.1732 51.1547 39.2683 51.5497C39.3635 51.9446 39.3364 52.3592 39.1909 52.7385C39.0453 53.1177 38.7881 53.4439 38.4531 53.6738C38.1182 53.9037 37.7214 54.0266 37.3151 54.0261Z" fill="white"/>
</g>
</svg>
