<svg width="80" height="81" viewBox="0 0 80 81" fill="none" xmlns="http://www.w3.org/2000/svg">
<mask id="mask0_7380_55951" style="mask-type:alpha" maskUnits="userSpaceOnUse" x="-1" y="-1" width="82" height="82">
<rect width="80" height="80" fill="white" stroke="white" stroke-width="2"/>
</mask>
<g mask="url(#mask0_7380_55951)">
<path d="M71.3751 11.293C62.6251 9.1094 54.1411 5.9649 46.0821 1.918L43.7071 0.75C41.6563 -0.25 39.2579 -0.25 37.2071 0.75L34.8321 1.918C26.7735 5.9649 18.2891 9.1094 9.53911 11.293C6.28521 12.0977 3.9961 15.0196 4 18.375V31.082C4.02735 41.707 7.28121 52.074 13.3281 60.809C19.3789 69.5434 27.9371 76.235 37.8751 80C39.5431 80.6133 41.3712 80.6133 43.0392 80C52.9767 76.2344 61.5352 69.543 67.5862 60.809C73.6331 52.0746 76.887 41.707 76.9143 31.082V18.582C77.0002 15.1562 74.6994 12.129 71.3751 11.293ZM56.7501 29.625L39.3751 50.457C38.8126 51.1328 38.0001 51.539 37.1251 51.582C36.297 51.582 35.5001 51.2539 34.9142 50.6679L24.3752 40.1249C23.7775 39.5429 23.4416 38.7499 23.4416 37.9179C23.4416 37.0859 23.7776 36.289 24.3752 35.707C24.9924 35.1563 25.8049 34.8711 26.633 34.918C27.4611 34.9649 28.2385 35.3399 28.7892 35.9571L36.7892 43.9571L51.9572 25.7501C53.0549 24.4376 55.0041 24.2501 56.3322 25.3321C57.5744 26.4337 57.754 28.3047 56.7501 29.625Z" fill="black"/>
</g>
</svg>
