<svg width="56" height="53" viewBox="0 0 56 53" fill="none" xmlns="http://www.w3.org/2000/svg">
<mask id="mask0_7200_56081" style="mask-type:alpha" maskUnits="userSpaceOnUse" x="0" y="0" width="56" height="53">
<rect width="56" height="53" fill="#D9D9D9"/>
</mask>
<g mask="url(#mask0_7200_56081)">
<path fill-rule="evenodd" clip-rule="evenodd" d="M55.5516 16.1558C55.5679 16.2178 55.5763 16.2817 55.5765 16.3459V26.3262C55.5765 26.4543 55.5434 26.5801 55.4806 26.6909C55.4177 26.8018 55.3273 26.8937 55.2186 26.9574L47.0194 31.7802V41.3393C47.0194 41.5994 46.884 41.8396 46.6632 41.9705L29.5481 52.0363C29.5089 52.059 29.4662 52.0736 29.4234 52.089C29.4074 52.0945 29.3923 52.1045 29.3753 52.109C29.2557 52.1412 29.1299 52.1412 29.0103 52.109C28.9907 52.1036 28.9729 52.0927 28.9542 52.0854C28.915 52.0708 28.8741 52.0581 28.8367 52.0363L11.7251 41.9705C11.6164 41.9067 11.5261 41.8148 11.4632 41.704C11.4004 41.5931 11.3673 41.4673 11.3672 41.3393V11.3986C11.3672 11.3331 11.3761 11.2694 11.3921 11.2075C11.3975 11.1866 11.4099 11.1675 11.417 11.1466C11.4304 11.1084 11.4429 11.0693 11.4625 11.0338C11.4758 11.0102 11.4954 10.9911 11.5114 10.9692C11.5319 10.9401 11.5506 10.9101 11.5746 10.8846C11.5951 10.8637 11.6218 10.8482 11.645 10.8301C11.6708 10.8082 11.6939 10.7846 11.7233 10.7673L20.2805 5.73442C20.3888 5.67073 20.5116 5.63721 20.6366 5.63721C20.7616 5.63721 20.8844 5.67073 20.9927 5.73442L29.549 10.7673H29.5507C29.5792 10.7855 29.6033 10.8082 29.6291 10.8291C29.6522 10.8473 29.6781 10.8637 29.6985 10.8837C29.7235 10.9101 29.7413 10.9401 29.7626 10.9692C29.7778 10.9911 29.7983 11.0102 29.8107 11.0338C29.8312 11.0702 29.8428 11.1084 29.857 11.1466C29.8642 11.1675 29.8766 11.1866 29.882 11.2084C29.8983 11.2704 29.9067 11.3343 29.9069 11.3986V30.0992L37.0368 25.905V16.345C37.0368 16.2813 37.0457 16.2168 37.0617 16.1558C37.0679 16.134 37.0795 16.1149 37.0866 16.094C37.1009 16.0558 37.1134 16.0166 37.1329 15.9812C37.1463 15.9575 37.1659 15.9384 37.181 15.9166C37.2024 15.8875 37.2202 15.8575 37.2451 15.832C37.2656 15.8111 37.2914 15.7956 37.3146 15.7774C37.3413 15.7556 37.3644 15.7319 37.3929 15.7147L45.9509 10.6818C46.0592 10.618 46.1821 10.5844 46.3071 10.5844C46.4321 10.5844 46.5549 10.618 46.6632 10.6818L55.2195 15.7147C55.2497 15.7328 55.2729 15.7556 55.2996 15.7765C55.3218 15.7947 55.3477 15.8111 55.3681 15.8311C55.3931 15.8575 55.4109 15.8875 55.4323 15.9166C55.4483 15.9384 55.4679 15.9575 55.4803 15.9812C55.5008 16.0166 55.5124 16.0558 55.5266 16.094C55.5346 16.1149 55.5462 16.134 55.5516 16.1558ZM54.1502 25.905V17.6057L51.1559 19.3667L47.0194 21.7999V30.0992L54.151 25.905H54.1502ZM45.5939 40.9181V32.6134L41.525 34.9875L29.906 41.7622V50.1452L45.5939 40.9181ZM12.7935 12.6584V40.9181L28.4797 50.1443V41.7631L20.2849 37.025L20.2822 37.0232L20.2787 37.0213C20.2511 37.005 20.2279 36.9813 20.2021 36.9613C20.1798 36.9431 20.154 36.9286 20.1344 36.9086L20.1327 36.9058C20.1095 36.8831 20.0935 36.8549 20.0739 36.8294C20.0561 36.8049 20.0347 36.7839 20.0205 36.7585L20.0196 36.7557C20.0036 36.7285 19.9938 36.6957 19.9822 36.6648C19.9706 36.6375 19.9555 36.612 19.9484 36.5829C19.9394 36.5484 19.9377 36.5111 19.9341 36.4756C19.9305 36.4483 19.9234 36.421 19.9234 36.3937V36.3919V16.8526L15.7878 14.4185L12.7935 12.6584ZM20.6375 7.20617L13.5085 11.3986L20.6357 15.5909L27.7638 11.3976L20.6357 7.20617H20.6375ZM24.3449 33.3702L28.4806 30.9379V12.6584L25.4863 14.4194L21.3498 16.8526V35.1321L24.3449 33.3702ZM46.3071 12.1535L39.179 16.3459L46.3071 20.5383L53.4343 16.345L46.3071 12.1535ZM45.5939 21.7999L41.4574 19.3667L38.4631 17.6057V25.905L42.5988 28.3373L45.5939 30.0992V21.7999ZM29.1919 40.5024L39.6473 34.4044L44.8736 31.3572L37.7508 27.1675L29.5499 31.9912L22.0754 36.3874L29.1919 40.5024Z" fill="black"/>
<circle cx="13.6829" cy="12.5931" r="11.0931" fill="black" stroke="black"/>
<path d="M10.5296 6.04229C10.4151 6.06101 10.3125 6.12663 10.2442 6.22472C10.176 6.32281 10.1476 6.44533 10.1655 6.56533C10.1833 6.68533 10.2459 6.79298 10.3394 6.86459C10.4329 6.93621 10.5497 6.96592 10.6641 6.9472C10.9695 6.9472 11.1939 7.07842 11.419 7.3146C11.6442 7.55078 11.8374 7.8856 11.985 8.24757C12.0393 8.38059 12.0773 8.51362 12.1196 8.64393C11.5139 9.36515 11.2853 10.4248 11.7693 11.2175C11.7589 11.2248 11.752 11.2383 11.7425 11.2456L9.61247 9.74702C9.56663 9.71103 9.51441 9.68497 9.45887 9.67037C9.40332 9.65576 9.34556 9.6529 9.28895 9.66196C9.20481 9.67842 9.12724 9.72076 9.06611 9.78359C9.00498 9.84643 8.96305 9.92692 8.94566 10.0148C8.92827 10.1027 8.93621 10.1941 8.96846 10.2772C9.0007 10.3604 9.05581 10.4316 9.12676 10.4818L11.0946 11.8672C10.8962 12.098 10.7133 12.3532 10.5554 12.631L7.45479 14.2427C7.39269 14.2597 7.33501 14.2911 7.28595 14.3346C7.23689 14.378 7.19769 14.4324 7.17121 14.4937C7.14474 14.555 7.13164 14.6218 7.13289 14.6891C7.13414 14.7565 7.14971 14.8226 7.17844 14.8829C7.20718 14.9431 7.24836 14.9958 7.299 15.0372C7.34963 15.0786 7.40844 15.1076 7.47112 15.1221C7.53381 15.1367 7.59879 15.1363 7.66134 15.1212C7.72389 15.106 7.78242 15.0764 7.83266 15.0345L10.0438 13.8753C9.89545 14.401 9.80141 14.9575 9.80141 15.5439C9.80141 15.5819 9.80055 15.619 9.80141 15.657L8.15705 17.9763C8.11941 18.0244 8.09137 18.08 8.07459 18.1396C8.05782 18.1993 8.05265 18.2619 8.05939 18.3237C8.06614 18.3855 8.08466 18.4453 8.11386 18.4994C8.14306 18.5536 8.18234 18.601 8.22936 18.639C8.27639 18.6769 8.3302 18.7045 8.3876 18.7202C8.445 18.7359 8.50482 18.7393 8.5635 18.7302C8.62219 18.7212 8.67854 18.6998 8.7292 18.6675C8.77987 18.6351 8.82382 18.5924 8.85845 18.5419L9.99121 16.9864C10.3432 18.4315 11.1964 19.6043 12.3102 20.1536C12.8279 19.7916 13.254 19.0731 13.254 18.2587V12.8292C13.254 12.5577 13.4266 12.3767 13.6854 12.3767C13.9442 12.3767 14.1168 12.5577 14.1168 12.8292V18.2587C14.1168 19.0731 14.543 19.7916 15.0606 20.1536C16.1744 19.6043 17.0276 18.4315 17.3796 16.9864L18.5124 18.5419C18.547 18.5924 18.591 18.6351 18.6416 18.6675C18.6923 18.6998 18.7486 18.7212 18.8073 18.7302C18.866 18.7393 18.9258 18.7359 18.9832 18.7202C19.0406 18.7045 19.0944 18.6769 19.1415 18.639C19.1885 18.601 19.2278 18.5536 19.257 18.4994C19.2862 18.4453 19.3047 18.3855 19.3114 18.3237C19.3182 18.2619 19.313 18.1993 19.2962 18.1396C19.2795 18.08 19.2514 18.0244 19.2138 17.9763L17.5694 15.657C17.5703 15.619 17.5694 15.5819 17.5694 15.5439C17.5694 14.9575 17.4745 14.4019 17.327 13.8753L19.5382 15.0345C19.5884 15.0764 19.6469 15.106 19.7095 15.1212C19.772 15.1363 19.837 15.1367 19.8997 15.1221C19.9624 15.1076 20.0212 15.0786 20.0718 15.0372C20.1225 14.9958 20.1636 14.9431 20.1924 14.8829C20.2211 14.8226 20.2367 14.7565 20.2379 14.6891C20.2392 14.6218 20.2261 14.555 20.1996 14.4937C20.1731 14.4324 20.1339 14.378 20.0849 14.3346C20.0358 14.2911 19.9781 14.2597 19.916 14.2427L16.8154 12.631C16.6575 12.3532 16.4746 12.098 16.2762 11.8672L18.2441 10.4818C18.3269 10.4236 18.388 10.3371 18.4169 10.237C18.4458 10.137 18.4408 10.0294 18.4026 9.93282C18.3645 9.83619 18.2956 9.75639 18.2077 9.70701C18.1199 9.65763 18.0184 9.64171 17.9205 9.66196C17.8613 9.67794 17.8061 9.70693 17.7584 9.74702L15.6283 11.2456C15.6179 11.2383 15.611 11.2248 15.6015 11.2175C16.164 10.2963 15.7706 9.01766 14.9277 8.33263C14.939 8.30458 14.9433 8.27653 14.9545 8.24757C15.1029 7.8847 15.2953 7.55078 15.5204 7.3146C15.7456 7.07842 15.9699 6.9472 16.2753 6.9472C16.3897 6.9472 16.4994 6.89953 16.5803 6.81468C16.6612 6.72983 16.7067 6.61475 16.7067 6.49475C16.7067 6.37475 16.6612 6.25966 16.5803 6.17481C16.4994 6.08996 16.3897 6.04229 16.2753 6.04229C15.718 6.04229 15.2418 6.30652 14.9001 6.66487C14.5594 7.02231 14.3204 7.4802 14.1452 7.90913C14.0003 7.87294 13.8433 7.85212 13.6871 7.85212C13.386 7.85212 13.1074 7.92452 12.8512 8.0503C12.8322 8.00143 12.8175 7.958 12.7968 7.90913C12.6217 7.4802 12.3827 7.02231 12.0419 6.66487C11.7011 6.30743 11.224 6.04229 10.6667 6.04229C10.6398 6.03962 10.6126 6.03962 10.5856 6.04229C10.5675 6.04109 10.5494 6.04109 10.5313 6.04229H10.5296Z" fill="white"/>
<path d="M5.34869 4.64643L21.8018 20.7988" stroke="black"/>
</g>
</svg>
