<svg width="76" height="76" viewBox="0 0 76 76" fill="none" xmlns="http://www.w3.org/2000/svg">
<mask id="mask0_7039_77660" style="mask-type:alpha" maskUnits="userSpaceOnUse" x="-1" y="-1" width="78" height="78">
<rect width="76" height="76" fill="white" stroke="white" stroke-width="2"/>
</mask>
<g mask="url(#mask0_7039_77660)">
<path d="M63.8387 35.4228C62.2996 35.4228 61.0215 36.5051 60.7432 37.9233H33.1772C32.8989 36.5051 31.6208 35.4228 30.0817 35.4228C28.3407 35.4228 26.9223 36.8051 26.9223 38.5017C26.9223 40.1982 28.3407 41.5805 30.0817 41.5805C31.6208 41.5805 32.8989 40.4982 33.1772 39.08H60.7451C61.0234 40.4982 62.3015 41.5805 63.8406 41.5805C65.5816 41.5805 67 40.1982 67 38.5017C66.9975 36.8051 65.5797 35.4228 63.8387 35.4228ZM30.0744 40.4238C28.9835 40.4238 28.1019 39.5648 28.1019 38.5017C28.1019 37.4386 28.9835 36.5795 30.0744 36.5795C31.1653 36.5795 32.0469 37.4386 32.0469 38.5017C32.0543 39.5648 31.1653 40.4238 30.0744 40.4238ZM63.8387 40.4238C62.7477 40.4238 61.8662 39.5648 61.8662 38.5017C61.8662 37.4386 62.7477 36.5795 63.8387 36.5795C64.9296 36.5795 65.8112 37.4386 65.8112 38.5017C65.8136 39.5648 64.9296 40.4238 63.8387 40.4238ZM57.5419 26.2151H51.3954C51.2501 26.2151 51.1122 26.2631 51.0038 26.3615L44.4854 32.02H38.6294C38.3511 30.6017 37.073 29.5195 35.534 29.5195C33.7929 29.5195 32.3745 30.9017 32.3745 32.5983C32.3745 34.2949 33.7929 35.6771 35.534 35.6771C37.073 35.6771 38.3511 34.5949 38.6294 33.1766H44.707C44.8523 33.1766 44.9902 33.1286 45.0985 33.0302L51.617 27.3717L57.5419 27.3693C57.8201 28.7876 59.0982 29.8698 60.6373 29.8698C62.3783 29.8698 63.7967 28.4876 63.7967 26.791C63.7967 25.0944 62.3783 23.7122 60.6373 23.7122C59.0982 23.7146 57.8202 24.7969 57.5419 26.2151ZM35.5266 34.5208C34.4357 34.5208 33.5541 33.6617 33.5541 32.5986C33.5541 31.5355 34.4357 30.6764 35.5266 30.6764C36.6176 30.6764 37.4991 31.5355 37.4991 32.5986C37.5016 33.6545 36.6176 34.5208 35.5266 34.5208ZM60.6372 24.8691C61.7282 24.8691 62.6097 25.7282 62.6097 26.7913C62.6097 27.8544 61.7282 28.7134 60.6372 28.7134C59.5463 28.7134 58.6647 27.8544 58.6647 26.7913C58.6647 25.7306 59.5537 24.8691 60.6372 24.8691ZM57.4335 58.8419C55.8944 58.8419 54.6163 59.9242 54.338 61.3424H49.3711L46.4652 56.2983L42.8527 50.0327C42.7763 49.8984 42.6458 49.8 42.4931 49.7616C42.3429 49.7184 42.1779 49.7376 42.045 49.8168C40.0651 50.9038 37.8093 51.475 35.5265 51.475C28.1878 51.475 22.2115 45.658 22.2115 38.4998C22.2115 31.3484 28.1808 25.5246 35.5265 25.5246C37.8093 25.5246 40.065 26.0957 42.045 27.1828C42.1829 27.2572 42.3405 27.274 42.4931 27.238C42.6434 27.1948 42.7714 27.0964 42.8527 26.9668L46.4652 20.7013L49.3711 15.6571H54.338C54.6163 17.0754 55.8944 18.1576 57.4335 18.1576C59.1745 18.1576 60.5929 16.7754 60.5929 15.0788C60.5929 13.3822 59.1745 12 57.4335 12C55.8944 12 54.6163 13.0823 54.338 14.5005H49.0288C48.8145 14.5005 48.62 14.6109 48.5116 14.7957L45.7191 19.6431C44.3573 18.9424 42.9192 18.3712 41.4391 17.9728C41.1042 17.8816 40.8777 17.6345 40.8161 17.3033L40.2547 14.2989C40.0774 13.3462 39.2278 12.6527 38.2305 12.6527L32.8301 12.6575C31.8353 12.6575 30.9832 13.351 30.8059 14.3037L30.2445 17.3081C30.1804 17.6393 29.9539 17.8865 29.6214 17.9776C27.9518 18.4312 26.3364 19.0887 24.817 19.919C24.5141 20.0846 24.1743 20.0726 23.891 19.8758L21.3128 18.1384C20.4927 17.5865 19.3895 17.6849 18.6828 18.3712L14.8683 22.0884C14.1615 22.7771 14.0606 23.8522 14.6294 24.6513L16.4123 27.1638C16.6068 27.4397 16.6265 27.7709 16.4566 28.0661C15.6045 29.5467 14.9298 31.1185 14.4644 32.7479C14.3708 33.0743 14.1171 33.2951 13.7773 33.355L10.6942 33.9022C9.71167 34.0726 9 34.9029 9 35.8723V41.1301C9 42.0996 9.71167 42.9299 10.6893 43.1026L13.7724 43.6498C14.1122 43.7121 14.3659 43.9329 14.4594 44.2569C14.9249 45.8839 15.5996 47.4581 16.4517 48.9387C16.6216 49.2339 16.6093 49.565 16.4073 49.841L14.6245 52.3535C14.0581 53.1526 14.1591 54.2277 14.8633 54.9164L18.6778 58.6336C19.3846 59.3223 20.4878 59.4207 21.3079 58.8664L23.8861 57.129C24.1693 56.9394 24.5091 56.9202 24.8121 57.0858C26.3315 57.9161 27.9445 58.5736 29.6165 59.0272C29.9514 59.1184 30.178 59.3655 30.2395 59.6967L30.801 62.7011C30.9783 63.6538 31.8279 64.3473 32.8252 64.3473H38.2206C39.2155 64.3473 40.0676 63.6538 40.2448 62.7011L40.8063 59.6967C40.8703 59.3655 41.0969 59.1183 41.4293 59.0272C42.9118 58.6216 44.3425 58.0577 45.7093 57.357L48.5018 62.2044C48.6101 62.3891 48.8047 62.4995 49.0189 62.4995H54.3282C54.6065 63.9177 55.8846 65 57.4237 65C59.1647 65 60.5831 63.6178 60.5831 61.9212C60.5929 60.2246 59.1819 58.8419 57.4335 58.8419ZM57.4335 13.1613C58.5244 13.1613 59.406 14.0204 59.406 15.0834C59.406 16.1465 58.5244 17.0056 57.4335 17.0056C56.3426 17.0056 55.461 16.1465 55.461 15.0834C55.461 14.0204 56.35 13.1613 57.4335 13.1613ZM41.119 57.9204C40.3433 58.1292 39.7942 58.7196 39.6514 59.4923L39.0899 62.4967C39.0136 62.9094 38.6614 63.1974 38.2256 63.1974H32.8301C32.4016 63.1974 32.0495 62.9094 31.9657 62.4967L31.4043 59.4923C31.259 58.7172 30.7098 58.1292 29.9366 57.9204C28.3532 57.4909 26.8289 56.8694 25.3908 56.0847C25.0682 55.9071 24.7234 55.8207 24.3762 55.8207C23.9723 55.8207 23.5685 55.9431 23.2089 56.183L20.6306 57.9204C20.2785 58.1604 19.818 58.1172 19.5151 57.822L15.7006 54.1049C15.3977 53.8097 15.3534 53.361 15.5997 53.0178L17.3899 50.5053C17.8504 49.8598 17.8873 49.0607 17.4909 48.3792C16.6832 46.9778 16.0478 45.4924 15.607 43.9494C15.3854 43.1934 14.787 42.6583 13.994 42.5192L10.9109 41.972C10.4874 41.8976 10.1919 41.5545 10.1919 41.1297V35.872C10.1919 35.4544 10.4874 35.1112 10.9109 35.0297L13.994 34.4825C14.7894 34.3409 15.3928 33.8058 15.607 33.0523C16.0478 31.5093 16.6856 30.0239 17.4909 28.6225C17.8873 27.9338 17.8504 27.1418 17.3899 26.4964L15.607 23.9839C15.3608 23.6407 15.4051 23.192 15.708 22.8968L19.5225 19.1797C19.8254 18.8845 20.2859 18.8413 20.638 19.0813L23.2163 20.8187C23.8787 21.2674 24.6988 21.3034 25.3981 20.9171C26.8362 20.13 28.3605 19.5108 29.9439 19.0813C30.7196 18.8725 31.2688 18.2821 31.4116 17.5094L31.973 14.505C32.0494 14.0923 32.4015 13.8043 32.8374 13.8043H38.2329C38.6613 13.8043 39.0135 14.0923 39.0972 14.505L39.6587 17.5094C39.804 18.2845 40.3531 18.8725 41.1263 19.0813C42.5201 19.4628 43.8696 19.9836 45.1477 20.6411L42.1163 25.9061C40.0871 24.8982 37.829 24.3702 35.5411 24.3702C27.5329 24.3726 21.034 30.7125 21.034 38.5022C21.034 46.2918 27.5399 52.6243 35.5259 52.6243C37.8136 52.6243 40.0768 52.0964 42.1011 51.0885L45.1325 56.3535C43.8619 57.0182 42.5054 57.5389 41.119 57.9204ZM57.4335 63.8429C56.3426 63.8429 55.461 62.9838 55.461 61.9207C55.461 60.8577 56.3426 59.9986 57.4335 59.9986C58.5244 59.9986 59.406 60.8577 59.406 61.9207C59.4134 62.9838 58.5244 63.8429 57.4335 63.8429ZM60.6372 47.1339C59.0981 47.1339 57.82 48.2161 57.5418 49.6344H51.6218L45.1034 43.9759C44.995 43.8847 44.8571 43.8295 44.7118 43.8295H38.6293C38.3511 42.4112 37.073 41.329 35.5339 41.329C33.7929 41.329 32.3745 42.7112 32.3745 44.4078C32.3745 46.1044 33.7929 47.4866 35.5339 47.4866C37.073 47.4866 38.3511 46.4044 38.6293 44.9861H44.4853L51.0038 50.6446C51.1121 50.7406 51.25 50.7886 51.3953 50.7886H57.5419C57.8201 52.2068 59.0982 53.2891 60.6373 53.2891C62.3783 53.2891 63.7967 51.9069 63.7967 50.2103C63.7967 48.5161 62.3783 47.1339 60.6372 47.1339ZM35.5266 46.3347C34.4357 46.3347 33.5541 45.4757 33.5541 44.4126C33.5541 43.3495 34.4357 42.4904 35.5266 42.4904C36.6176 42.4904 37.4991 43.3495 37.4991 44.4126C37.5016 45.4685 36.6176 46.3347 35.5266 46.3347ZM60.6372 52.1348C59.5463 52.1348 58.6647 51.2758 58.6647 50.2127C58.6647 49.1496 59.5463 48.2905 60.6372 48.2905C61.7282 48.2905 62.6097 49.1496 62.6097 50.2127C62.6097 51.2734 61.7282 52.1348 60.6372 52.1348Z" fill="black" stroke="black" stroke-width="0.765475"/>
</g>
</svg>
