<svg width="93" height="92" viewBox="0 0 93 92" fill="none" xmlns="http://www.w3.org/2000/svg">
<mask id="mask0_7374_57714" style="mask-type:alpha" maskUnits="userSpaceOnUse" x="0" y="0" width="93" height="92">
<rect x="0.375" width="92" height="92" fill="black"/>
</mask>
<g mask="url(#mask0_7374_57714)">
<path d="M50.4907 37.6522C50.3469 32.974 42.2562 32.9766 42.125 37.6522V40.4919H50.4907V37.6522Z" fill="black"/>
<path d="M36.9727 54.5079H55.6384V43.3184H36.9727V54.5079ZM46.3039 47.2598C48.8696 47.2889 48.8696 50.5366 46.3039 50.5658C43.7383 50.5366 43.7383 47.2889 46.3039 47.2598Z" fill="black"/>
<path fill-rule="evenodd" clip-rule="evenodd" d="M60.0746 20.3285C62.7246 20.9855 65.4496 21.5153 68.1746 21.9179C71.7747 22.4266 74.375 25.0544 74.375 28.1697V48.7259C74.375 54.1084 71.6499 59.2794 66.9249 62.9034L51.9 74.3682C50.4501 75.449 48.675 76 46.875 76C45.075 76 43.3 75.4491 41.85 74.3682L26.8251 62.9034C22.1 59.2793 19.375 54.1087 19.375 48.7259V28.1697C19.375 25.0544 21.975 22.4266 25.5751 21.9179C28.3 21.5153 31.0251 20.9855 33.6751 20.3285C37.8248 19.2901 41.8748 17.9126 45.7248 16.2384C46.4498 15.9205 47.2998 15.9205 48.0249 16.2384C51.8745 17.9126 55.9245 19.2901 60.0746 20.3285ZM55.7697 57.429C57.6197 57.429 59.1041 56.1575 59.1041 54.6024V43.4129C59.1041 41.8579 57.6197 40.5864 55.7697 40.5864H53.9541V37.7466C53.6325 29.3226 39.2258 29.3307 38.9196 37.7466V40.5864H37.104C35.2539 40.5864 33.7695 41.8579 33.7695 43.4129V54.6024C33.7695 56.1575 35.2539 57.429 37.104 57.429H55.7697Z" fill="black"/>
</g>
</svg>
