<svg width="80" height="80" viewBox="0 0 80 80" fill="none" xmlns="http://www.w3.org/2000/svg">
<mask id="mask0_7380_55944" style="mask-type:alpha" maskUnits="userSpaceOnUse" x="-1" y="-1" width="82" height="82">
<rect width="80" height="80" fill="white" stroke="white" stroke-width="2"/>
</mask>
<g mask="url(#mask0_7380_55944)">
<path d="M47.5717 34.5718L50.7258 37.2904C52.0518 38.4333 52.7148 39.0048 52.7148 39.7149C52.7148 40.4251 52.0518 40.9965 50.7258 42.1394L47.5717 44.8581" stroke="black" stroke-width="2.57158" stroke-linecap="round" stroke-linejoin="round"/>
<path d="M32.1432 34.5718L28.989 37.2904C27.663 38.4333 27 39.0048 27 39.7149C27 40.4251 27.663 40.9965 28.989 42.1394L32.1432 44.8581" stroke="black" stroke-width="2.57158" stroke-linecap="round" stroke-linejoin="round"/>
<path d="M42.4283 32L37.2852 47.4295" stroke="black" stroke-width="2.57158" stroke-linecap="round" stroke-linejoin="round"/>
<path fill-rule="evenodd" clip-rule="evenodd" d="M28.5714 2.85714C28.5714 1.2792 29.8506 0 31.4286 0H48.5714C50.1494 0 51.4286 1.2792 51.4286 2.85714V7.66603C52.5754 8.07143 53.6943 8.53603 54.7814 9.05614L58.1826 5.65477C59.2986 4.539 61.1074 4.539 62.2234 5.65477L74.3451 17.7766C74.8809 18.3124 75.182 19.0391 75.182 19.7969C75.182 20.5547 74.8809 21.2814 74.3451 21.8172L70.9437 25.2186C71.464 26.3057 71.9286 27.4246 72.334 28.5714H77.1429C78.7209 28.5714 80 29.8506 80 31.4286V48.5714C80 50.1494 78.7209 51.4286 77.1429 51.4286H72.334C71.9286 52.5754 71.464 53.6943 70.9437 54.7814L74.3451 58.1829C74.8811 58.7186 75.182 59.4454 75.182 60.2031C75.182 60.9609 74.8811 61.6874 74.3451 62.2234L62.2234 74.3451C61.1077 75.4609 59.2986 75.4609 58.1829 74.3451L54.7814 70.9437C53.6943 71.464 52.5754 71.9286 51.4286 72.334V77.1429C51.4286 78.7209 50.1494 80 48.5714 80H31.4286C29.8506 80 28.5714 78.7209 28.5714 77.1429V72.334C27.4246 71.9286 26.3057 71.464 25.2186 70.944L21.8173 74.3451C20.7015 75.4611 18.8925 75.4611 17.7767 74.3451L5.65486 62.2234C5.11903 61.6877 4.818 60.9609 4.818 60.2031C4.818 59.4454 5.11903 58.7186 5.65486 58.1829L9.0562 54.7814C8.53606 53.6943 8.07146 52.5754 7.66603 51.4286H2.85714C1.2792 51.4286 0 50.1494 0 48.5714V31.4286C0 29.8506 1.2792 28.5714 2.85714 28.5714H7.66603C8.07143 27.4246 8.53603 26.3057 9.05614 25.2186L5.65477 21.8173C4.539 20.7015 4.539 18.8925 5.65477 17.7767L17.7766 5.65486C18.8924 4.53906 20.7014 4.53906 21.8172 5.65486L25.2186 9.0562C26.3057 8.53606 27.4246 8.07143 28.5714 7.66603V2.85714ZM20 40C20 28.9543 28.9543 20 40 20C51.0457 20 60 28.9543 60 40C60 51.0457 51.0457 60 40 60C28.9543 60 20 51.0457 20 40Z" fill="black"/>
</g>
</svg>
