<svg width="56" height="53" viewBox="0 0 56 53" fill="none" xmlns="http://www.w3.org/2000/svg">
<mask id="mask0_7200_56058" style="mask-type:alpha" maskUnits="userSpaceOnUse" x="0" y="0" width="56" height="53">
<rect width="56" height="53" fill="#D9D9D9"/>
</mask>
<g mask="url(#mask0_7200_56058)">
<path d="M4 26.4885C4 19.9991 6.57129 13.7545 11.1629 9.16289C20.7134 -0.387629 36.2024 -0.387629 45.8141 9.16289C55.4259 18.7134 55.3647 34.2024 45.8141 43.8141C36.2636 53.4259 20.7746 53.3647 11.1629 43.8141C6.57129 39.2225 4 32.978 4 26.4885ZM24.8152 32.6106C23.4684 32.6106 22.3664 31.5087 22.3664 30.1618V28.9374C22.3664 28.2639 21.8154 27.7129 21.142 27.7129C20.4685 27.7129 19.9175 28.2639 19.9175 28.9374V30.1618C19.9175 31.5087 18.8155 32.6106 17.4687 32.6106H16.2443C15.5708 32.6106 15.0198 33.1616 15.0198 33.8351C15.0198 34.5085 15.5708 35.0595 16.2443 35.0595H17.4687C18.8155 35.0595 19.9175 36.1615 19.9175 37.5083V38.7328C19.9175 39.4062 20.4685 39.9572 21.142 39.9572C21.8154 39.9572 22.3664 39.4062 22.3664 38.7328V37.5083C22.3664 36.1615 23.4684 35.0595 24.8152 35.0595H26.0397C26.7131 35.0595 27.2641 34.5085 27.2641 33.8351C27.2641 33.1616 26.7131 32.6106 26.0397 32.6106H24.8152ZM39.5083 17.9175C37.488 17.9175 35.8351 16.2646 35.8351 14.2443V12.4076C35.8351 11.3669 35.0392 10.571 33.9984 10.571C32.9577 10.571 32.1618 11.3669 32.1618 12.4076V14.2443C32.1618 16.2646 30.5088 17.9175 28.4885 17.9175H26.6519C25.6111 17.9175 24.8152 18.7134 24.8152 19.7542C24.8152 20.7949 25.6111 21.5908 26.6519 21.5908H28.4885C30.5088 21.5908 32.1618 23.2438 32.1618 25.2641V27.1007C32.1618 28.1415 32.9577 28.9374 33.9984 28.9374C35.0392 28.9374 35.8351 28.1415 35.8351 27.1007V25.2641C35.8351 23.2438 37.488 21.5908 39.5083 21.5908H41.345C42.3857 21.5908 43.1816 20.7949 43.1816 19.7542C43.1816 18.7134 42.3857 17.9175 41.345 17.9175H39.5083ZM37.0595 39.9572C38.4064 39.9572 39.5083 38.8552 39.5083 37.5083C39.5083 36.1615 38.4064 35.0595 37.0595 35.0595C35.7126 35.0595 34.6106 36.1615 34.6106 37.5083C34.6106 38.8552 35.7126 39.9572 37.0595 39.9572ZM16.8565 19.142C17.8972 19.142 18.6931 18.3461 18.6931 17.3053C18.6931 16.2646 17.8972 15.4687 16.8565 15.4687C15.8157 15.4687 15.0198 16.2646 15.0198 17.3053C15.0198 18.3461 15.8157 19.142 16.8565 19.142Z" fill="black"/>
</g>
</svg>
