<svg width="93" height="92" viewBox="0 0 93 92" fill="none" xmlns="http://www.w3.org/2000/svg">
<mask id="mask0_7374_57670" style="mask-type:alpha" maskUnits="userSpaceOnUse" x="0" y="0" width="93" height="92">
<rect x="0.375" width="92" height="92" fill="black"/>
</mask>
<g mask="url(#mask0_7374_57670)">
<path fill-rule="evenodd" clip-rule="evenodd" d="M30.5735 59.0082L30.6184 57.3751C30.6187 57.3648 30.6188 57.3544 30.6188 57.3441C30.6188 57.352 30.6186 57.3598 30.6184 57.3677L30.5733 59.0083C30.5733 59.0083 30.5734 59.0082 30.5735 59.0082ZM20.375 74.2556C20.3745 74.3769 20.3965 74.4972 20.4398 74.6106C20.486 74.7314 20.5554 74.8419 20.6443 74.9358C20.7332 75.0297 20.8397 75.1052 20.9577 75.1579C21.0757 75.2107 21.203 75.2396 21.3322 75.2432L29.1364 75.458H29.1633C29.4197 75.4581 29.6661 75.3581 29.8499 75.1793C30.0337 75.0004 30.1405 74.757 30.1475 74.5006L30.17 73.6813L32.1974 72.5957C32.9929 72.1675 33.9238 72.0656 34.793 72.3117L46.9001 75.7097C46.9212 75.7159 46.9423 75.7207 46.9641 75.7257C47.8391 75.9086 48.7308 76.0006 49.6248 76C51.5182 76.0012 53.3895 75.5928 55.1103 74.803C55.1526 74.7837 55.1934 74.7611 55.2323 74.7356L72.7865 63.3812C72.9972 63.2449 73.1479 63.0333 73.2078 62.7896C73.2271 62.7108 73.2365 62.6307 73.2362 62.5508C73.2359 62.6282 73.2265 62.7058 73.2078 62.7821C73.1479 63.0258 72.9972 63.2374 72.7865 63.3737L55.2323 74.7281C55.1934 74.7537 55.1526 74.7762 55.1103 74.7956C53.3895 75.5854 51.5182 75.9937 49.6248 75.9926C48.7308 75.9931 47.8391 75.9012 46.9641 75.7182C46.9423 75.7133 46.9212 75.7085 46.9001 75.7022L34.793 72.3042C33.9238 72.0582 32.9929 72.1601 32.1974 72.5883L30.17 73.6738L30.1475 74.4932C30.1405 74.7495 30.0337 74.993 29.8499 75.1718C29.6661 75.3506 29.4197 75.4506 29.1633 75.4505H29.1364L21.3322 75.2357C21.203 75.2322 21.0757 75.2032 20.9577 75.1505C20.8397 75.0977 20.7332 75.0223 20.6443 74.9284C20.5554 74.8344 20.486 74.7239 20.4398 74.6032C20.3974 74.4921 20.3755 74.3744 20.375 74.2556ZM48.4046 16.9842V26.3338C48.4046 26.5948 48.3009 26.8452 48.1164 27.0297C47.9318 27.2143 47.6815 27.318 47.4205 27.318C47.1594 27.318 46.9091 27.2143 46.7245 27.0297C46.54 26.8452 46.4363 26.5948 46.4363 26.3338V16.9842C46.4363 16.7232 46.54 16.4728 46.7245 16.2883C46.9091 16.1037 47.1594 16 47.4205 16C47.6815 16 47.9318 16.1037 48.1164 16.2883C48.3009 16.4728 48.4046 16.7232 48.4046 16.9842ZM55.7859 21.905V26.3338C55.7859 26.5948 55.6822 26.8452 55.4977 27.0297C55.3131 27.2143 55.0628 27.318 54.8018 27.318C54.5407 27.318 54.2904 27.2143 54.1058 27.0297C53.9213 26.8452 53.8176 26.5948 53.8176 26.3338V21.905C53.8176 21.644 53.9213 21.3937 54.1058 21.2091C54.2904 21.0246 54.5407 20.9209 54.8018 20.9209C55.0628 20.9209 55.3131 21.0246 55.4977 21.2091C55.6822 21.3937 55.7859 21.644 55.7859 21.905ZM41.0233 21.905V26.3338C41.0233 26.5948 40.9196 26.8452 40.7351 27.0297C40.5505 27.2143 40.3002 27.318 40.0392 27.318C39.7781 27.318 39.5278 27.2143 39.3432 27.0297C39.1587 26.8452 39.055 26.5948 39.055 26.3338V21.905C39.055 21.644 39.1587 21.3937 39.3432 21.2091C39.5278 21.0246 39.7781 20.9209 40.0392 20.9209C40.3002 20.9209 40.5505 21.0246 40.7351 21.2091C40.9196 21.3937 41.0233 21.644 41.0233 21.905ZM22.7872 58.1366L22.3702 73.2952L28.2066 73.4562L28.6236 58.2971L22.7872 58.1366ZM47.3998 73.7993C49.698 74.2689 52.0857 74.0024 54.2237 73.0376L70.82 62.3016C70.3696 61.8847 69.8024 61.6155 69.1946 61.5304C68.5867 61.4452 67.9674 61.5481 67.4197 61.8253C67.4154 61.8274 67.4112 61.8296 67.407 61.8316C67.4035 61.8333 67.4001 61.8348 67.3966 61.8363L59.4891 65.5727C59.5645 65.9939 59.5963 66.4218 59.5842 66.8495C59.5772 67.1056 59.4706 67.349 59.287 67.5278C59.1034 67.7065 58.8573 67.8067 58.601 67.8068H58.5736L46.8741 67.4849C46.6132 67.4776 46.3658 67.367 46.1863 67.1774C46.0069 66.9878 45.9101 66.7347 45.9173 66.4738C45.9326 65.9307 46.3849 65.5021 46.9284 65.5169L57.5299 65.8096C57.1243 63.8508 55.4265 62.4274 53.4274 62.3699L46.3098 62.1743C44.8861 62.133 43.4899 61.7723 42.2243 61.1189L41.5 60.7437C39.7833 59.8491 37.8579 59.4316 35.9248 59.5347C33.9917 59.6378 32.1217 60.2578 30.5098 61.3298L30.2325 71.4085L31.2686 70.8534C32.5121 70.185 33.9668 70.0259 35.3255 70.41L47.3998 73.7993Z" fill="black"/>
<path fill-rule="evenodd" clip-rule="evenodd" d="M46.8965 58.0645C39.0145 58.0645 32.625 51.675 32.625 43.793C32.6342 35.9148 39.0183 29.5301 46.8965 29.5215C54.7785 29.5215 61.168 35.911 61.168 43.793C61.168 51.675 54.7785 58.0645 46.8965 58.0645ZM46.7075 49.2423C46.8197 49.2257 46.934 49.2296 47.0448 49.2538C48.2616 49.2095 49.2188 48.1985 49.1962 46.9812C49.1742 45.7641 48.1809 44.789 46.9631 44.789C44.8578 44.7894 43.0772 43.232 42.7976 41.1455C42.518 39.0589 43.8251 37.0871 45.8559 36.5326V35.5768C45.8559 35.3157 45.9596 35.0654 46.1442 34.8809C46.3287 34.6963 46.5791 34.5926 46.8401 34.5926C47.1011 34.5926 47.3514 34.6963 47.536 34.8809C47.7206 35.0654 47.8242 35.3157 47.8242 35.5768V36.4725C49.7701 36.8829 51.1632 38.5981 51.166 40.5866C51.166 40.8476 51.0623 41.0979 50.8777 41.2825C50.6932 41.4671 50.4429 41.5708 50.1818 41.5708C49.9208 41.5708 49.6705 41.4671 49.4859 41.2825C49.3013 41.0979 49.1977 40.8476 49.1977 40.5866C49.1977 39.3524 48.1971 38.352 46.9631 38.352C45.7291 38.352 44.7285 39.3526 44.7285 40.5866C44.7285 41.8206 45.7291 42.8211 46.9631 42.8211C49.1165 42.8216 50.9209 44.4492 51.143 46.591C51.3644 48.7328 49.932 50.6959 47.8242 51.137V52.0617C47.8242 52.3227 47.7206 52.573 47.536 52.7576C47.3514 52.9422 47.1011 53.0458 46.8401 53.0458C46.5791 53.0458 46.3287 52.9422 46.1442 52.7576C45.9596 52.573 45.8559 52.3227 45.8559 52.0617V51.0775C44.0298 50.5763 42.7631 48.9174 42.7602 47.0236C42.7602 46.7625 42.8639 46.5122 43.0484 46.3277C43.233 46.1431 43.4833 46.0394 43.7444 46.0394C44.0054 46.0394 44.2557 46.1431 44.4403 46.3277C44.6248 46.5122 44.7285 46.7625 44.7285 47.0236C44.7305 48.1577 45.5806 49.1111 46.7075 49.2423Z" fill="black"/>
</g>
</svg>
