<svg width="76" height="76" viewBox="0 0 76 76" fill="none" xmlns="http://www.w3.org/2000/svg">
<mask id="mask0_7039_77649" style="mask-type:alpha" maskUnits="userSpaceOnUse" x="-1" y="-1" width="78" height="78">
<rect width="76" height="76" fill="white" stroke="white" stroke-width="2"/>
</mask>
<g mask="url(#mask0_7039_77649)">
<path d="M41.5394 56.7483C40.765 57.4719 40.2317 58.3987 39.9778 59.4272L38.8605 63.8454C38.7589 64.239 38.4161 64.5056 38.0226 64.5056H26.4437C26.0501 64.5056 25.6946 64.239 25.6058 63.8454L24.4885 59.4272C24.1203 57.9544 23.2062 56.7356 21.8985 55.9738C20.5907 55.212 19.0672 55.0216 17.6072 55.4406L13.2144 56.7102C12.8335 56.8118 12.4272 56.6467 12.2368 56.3166L6.44732 46.2742C6.24418 45.9314 6.30766 45.4998 6.58698 45.2204L9.87532 42.0464C10.9545 41.0054 11.5639 39.5961 11.5639 38.0852C11.5639 36.5743 10.9672 35.1524 9.87532 34.0859L6.58698 30.9119C6.30767 30.6453 6.25688 30.2136 6.44732 29.8708L12.2368 19.8406C12.4399 19.4978 12.8462 19.3328 13.2144 19.4344L17.6072 20.6785C19.0545 21.0975 20.5781 20.9198 21.8858 20.158C23.1935 19.3962 24.1203 18.1774 24.4885 16.7046L25.6058 12.2864C25.7073 11.8928 26.0501 11.6262 26.4437 11.6262H38.0226C38.4162 11.6262 38.7717 11.8928 38.8605 12.2864L39.9778 16.7046C40.346 18.1774 41.2728 19.4089 42.5805 20.158C43.8881 20.9071 45.4117 21.0975 46.8591 20.6785L51.2519 19.4216C51.6328 19.32 52.0391 19.4851 52.2295 19.8152L58.0189 29.8576C58.2094 30.2004 58.1586 30.632 57.8793 30.8986L54.591 34.0854C53.6641 34.9995 53.0801 36.193 52.9405 37.4625C52.8643 38.1608 53.3722 38.7829 54.0704 38.8591C54.7687 38.9354 55.3908 38.4275 55.467 37.7292C55.5432 37.0436 55.8479 36.4088 56.3685 35.901L59.6568 32.7269C60.7868 31.6478 61.0153 29.9338 60.2281 28.588L54.4387 18.5456C53.6515 17.1998 52.0645 16.5523 50.5664 16.9712L46.1608 18.2282C45.3863 18.4567 44.561 18.3552 43.85 17.9489C43.139 17.5426 42.6439 16.8824 42.4407 16.0825L41.3235 11.6516C40.9426 10.1407 39.5841 9.07422 38.0225 9.07422H26.4435C24.8819 9.07422 23.5234 10.128 23.1425 11.6516L22.0253 16.0825C21.8221 16.8824 21.327 17.5426 20.616 17.9489C19.905 18.3552 19.0924 18.4567 18.3052 18.2282L13.8996 16.9712C12.4014 16.5396 10.8144 17.1871 10.0273 18.5456L4.23785 28.5758C3.45069 29.9343 3.67922 31.6355 4.80918 32.7148L8.09751 35.8888C8.69423 36.4601 9.01163 37.2345 9.01163 38.0598C9.01163 38.8724 8.68153 39.6342 8.09751 40.2055L4.80918 43.3795C3.69191 44.4714 3.46342 46.1853 4.25054 47.5185L10.04 57.5608C10.8272 58.9066 12.4142 59.5541 13.9123 59.1225L18.3052 57.8529C19.0923 57.6244 19.9176 57.7386 20.6159 58.1449C21.3269 58.5512 21.8221 59.2241 22.0252 60.0113L23.1425 64.4422C23.5234 65.9531 24.8818 67.0196 26.4435 67.0196H38.0224C39.584 67.0196 40.9426 65.9657 41.3234 64.4422L42.4407 60.0113C42.5803 59.4526 42.8596 58.9575 43.2786 58.5766C43.7864 58.0942 43.8245 57.2943 43.3421 56.7865C42.8596 56.2786 42.0598 56.2532 41.5519 56.723L41.5394 56.7483Z" fill="black"/>
<path d="M32.2403 24.0176C24.4829 24.0176 18.1855 30.3276 18.1855 38.0724C18.1855 45.8172 24.4955 52.1271 32.2403 52.1271C39.9851 52.1271 46.2951 45.8172 46.2951 38.0724C46.2951 30.3276 39.9851 24.0176 32.2403 24.0176ZM26.4001 47.988C26.4128 44.7885 29.0282 42.1858 32.2277 42.1858C35.4271 42.1858 38.0425 44.7885 38.0552 47.988C36.3412 49.0037 34.3479 49.5877 32.2277 49.5877C30.1074 49.5877 28.1141 48.991 26.4001 47.988ZM29.244 36.6504C29.244 34.9999 30.5898 33.6541 32.2403 33.6541C33.8909 33.6541 35.2366 34.9998 35.2366 36.6504C35.2366 38.3009 33.8909 39.6467 32.2403 39.6467C30.5898 39.6467 29.244 38.3009 29.244 36.6504ZM40.4037 46.1849C39.8577 43.7599 38.258 41.7159 36.0996 40.5986C37.128 39.5956 37.7629 38.199 37.7629 36.6501C37.7629 33.603 35.2744 31.1145 32.2273 31.1145C29.1802 31.1145 26.6918 33.603 26.6918 36.6501C26.6918 38.199 27.3266 39.5956 28.355 40.5986C26.1967 41.7285 24.5969 43.7599 24.051 46.1849C21.9815 44.1027 20.6992 41.2334 20.6992 38.072C20.6992 31.7239 25.8666 26.5565 32.2147 26.5565C38.5629 26.5565 43.7303 31.7239 43.7303 38.072C43.7303 41.2334 42.448 44.1027 40.3785 46.1849H40.4037Z" fill="black"/>
<path d="M68.4475 44.5862C63.2675 39.4062 54.8502 39.4062 49.6702 44.5862C44.4901 49.7662 44.4901 58.1835 49.6702 63.3636C52.2602 65.9536 55.6628 67.2486 59.065 67.2486C62.4671 67.2486 65.8701 65.9535 68.4597 63.3636C70.9736 60.8497 72.3447 57.5233 72.3447 53.9688C72.3447 50.4143 70.9609 47.0874 68.4597 44.574L68.4475 44.5862ZM66.6446 61.5735C62.4549 65.7632 55.637 65.7632 51.4596 61.5735C47.2699 57.3838 47.2699 50.5658 51.4596 46.3885C53.5545 44.2936 56.3096 43.2525 59.052 43.2525C61.7943 43.2525 64.5494 44.2935 66.6443 46.3885C68.7393 48.4834 69.793 51.1114 69.793 53.9808C69.793 56.8502 68.676 59.5421 66.6446 61.5735Z" fill="black"/>
<path d="M63.7401 50.1724L57.6967 55.0985L56.0462 53.448C55.5511 52.9529 54.7512 52.9529 54.2561 53.448C53.761 53.9432 53.761 54.7431 54.2561 55.2382L56.7191 57.7012C56.9604 57.9424 57.2904 58.0694 57.6206 58.0694C57.8999 58.0694 58.1919 57.9805 58.4204 57.79L65.3525 52.1403C65.8985 51.6959 65.9746 50.8961 65.5303 50.3501C65.0859 49.8042 64.2861 49.728 63.7401 50.1724Z" fill="black"/>
</g>
</svg>
