<svg width="76" height="76" viewBox="0 0 76 76" fill="none" xmlns="http://www.w3.org/2000/svg">
<mask id="mask0_7039_77657" style="mask-type:alpha" maskUnits="userSpaceOnUse" x="-1" y="-1" width="78" height="78">
<rect width="76" height="76" fill="white" stroke="white" stroke-width="2"/>
</mask>
<g mask="url(#mask0_7039_77657)">
<path fill-rule="evenodd" clip-rule="evenodd" d="M44.836 49.6012L63.0208 41.7768C63.8665 41.4124 64.7786 41.41 65.5849 41.7024C66.3912 41.9974 67.0918 42.5872 67.5122 43.4125L67.6106 43.6059C68.0482 44.4634 68.1047 45.4176 67.8417 46.2727C67.5786 47.1302 66.996 47.8862 66.1528 48.3422L45.3228 59.6588C43.8748 60.5461 42.4514 61.1088 41.0501 61.3714C39.6292 61.6366 38.2402 61.5945 36.8807 61.2723C36.8561 61.2673 36.8316 61.2599 36.807 61.25L30.1177 59.2697C29.9087 59.2078 29.7096 59.183 29.5129 59.1929C29.3187 59.2028 29.122 59.2474 28.9205 59.3317L28.4165 59.5374C28.4312 59.8868 28.3624 60.2314 28.2223 60.5436C28.2149 60.5585 28.2075 60.5758 28.2002 60.5882C27.9666 61.074 27.5561 61.4755 27.0177 61.6862L26.971 61.7036L25.7811 62.1373C25.968 62.7445 25.9139 63.3715 25.6705 63.9119C25.4099 64.4869 24.9354 64.9652 24.3036 65.2131L24.252 65.2329L19.8368 66.8464C19.1853 67.0843 18.4945 67.0372 17.9045 66.7646C17.3121 66.4945 16.8204 65.9988 16.5696 65.3469C16.4271 64.9751 16.6114 64.5563 16.9802 64.4125C17.3489 64.2688 17.7644 64.4546 17.907 64.8264C18.0152 65.1089 18.2315 65.3246 18.4921 65.4435C18.7552 65.565 19.06 65.5873 19.3452 65.4857L23.785 63.8648C24.0505 63.7607 24.2496 63.5599 24.3603 63.317C24.4709 63.0717 24.4906 62.7866 24.3922 62.5165V62.514C24.3898 62.5066 24.3922 62.5165 24.3848 62.4917L24.1906 61.9886C24.1857 61.9762 24.1808 61.9638 24.1759 61.9539L24.1734 61.9489L16.9851 43.2367C16.9728 43.207 16.963 43.1797 16.9482 43.1524C16.9433 43.1425 16.9359 43.1301 16.9335 43.1202C16.8154 42.8947 16.6237 42.7212 16.4 42.6196C16.1369 42.4981 15.8321 42.4758 15.5469 42.5774L11.1071 44.1983C10.8416 44.3024 10.6425 44.5032 10.5318 44.7436C10.4212 44.989 10.4015 45.274 10.4999 45.5441L10.5072 45.5689L17.1965 62.9728C17.3391 63.3446 17.1547 63.7635 16.786 63.9073C16.4172 64.051 16.0018 63.8651 15.8591 63.4934L9.15036 46.0374C8.91927 45.3955 8.96352 44.7238 9.22165 44.1488C9.48223 43.5738 9.95672 43.0954 10.5885 42.8476L10.6401 42.8278L15.0554 41.2143C15.7069 40.9763 16.3976 41.0259 16.9876 41.2961C17.3146 41.4448 17.6096 41.6629 17.8505 41.938L19.2149 41.4398C19.7902 41.2291 20.3974 41.2737 20.9161 41.5117C21.1792 41.6331 21.4201 41.8017 21.6217 42.0148L24.5373 40.8276C24.9773 40.6492 25.4149 40.5475 25.8599 40.5252C26.3073 40.5029 26.7523 40.5575 27.2046 40.6888L42.2522 45.0559C43.238 45.3434 44.0198 46.0101 44.482 46.8527C44.9318 47.6656 45.0818 48.6421 44.836 49.6012ZM26.9343 59.359L26.9319 59.3565C26.9269 59.3466 26.9245 59.3342 26.9196 59.3243L20.754 43.2813C20.749 43.2665 20.7417 43.2516 20.7343 43.2367C20.7294 43.2243 20.722 43.2144 20.7171 43.202C20.631 43.036 20.4909 42.9096 20.3262 42.8327C20.132 42.7435 19.9107 42.7262 19.7042 42.803L18.5193 43.2342L25.2652 60.7866L26.4797 60.343V60.3455L26.4821 60.343C26.4969 60.338 26.4748 60.3455 26.4969 60.338C26.6788 60.2662 26.8189 60.1323 26.8976 59.9687L26.9099 59.9415C26.9886 59.7655 27.0033 59.5598 26.9345 59.3665L26.9343 59.359ZM28.0061 58.142L28.3872 57.9859C28.7363 57.8446 29.0878 57.7628 29.4468 57.7455C29.8032 57.7281 30.1597 57.7728 30.5235 57.8793L37.2128 59.8571C38.383 60.1347 39.5753 60.1719 40.7922 59.9439C42.0189 59.7134 43.2825 59.2128 44.5805 58.4147C44.5952 58.4047 44.6125 58.3948 44.6297 58.3849L65.4741 47.0632C65.9707 46.793 66.3149 46.3469 66.4697 45.8413C66.6246 45.3332 66.5927 44.7681 66.3345 44.2625L66.2362 44.0692C65.9854 43.5809 65.5724 43.229 65.0955 43.0554C64.621 42.882 64.0826 42.8844 63.5812 43.1001L42.9998 51.9657C42.1713 52.4193 41.1733 52.5581 40.1997 52.2755L28.392 48.8478C28.011 48.7388 27.7897 48.3373 27.8979 47.9531C28.006 47.5689 28.4043 47.3459 28.7854 47.4549L40.5931 50.8826C41.1979 51.0586 41.8223 50.9694 42.3361 50.6818C42.8474 50.3968 43.253 49.9135 43.4276 49.3063C43.6021 48.6966 43.5136 48.0671 43.2285 47.5491C42.9457 47.0336 42.4664 46.6246 41.864 46.4486L26.8165 42.0816C26.5116 41.9924 26.2191 41.9552 25.9364 41.9701C25.6512 41.9849 25.366 42.0519 25.0735 42.1708L22.3005 43.2985L28.0061 58.142ZM15.026 44.7163C14.5023 44.5652 13.9664 44.642 13.5215 44.8874C13.0765 45.1352 12.725 45.5565 12.5725 46.0869C12.4226 46.6148 12.4988 47.1551 12.7422 47.6037C12.988 48.0523 13.4059 48.4067 13.932 48.5604C14.4556 48.7116 14.994 48.6347 15.4365 48.3894C15.8815 48.1415 16.233 47.7227 16.3854 47.1898C16.5354 46.6619 16.4592 46.1191 16.2158 45.673C15.97 45.2244 15.5545 44.87 15.026 44.7163ZM14.9571 46.372C14.8907 46.2505 14.7777 46.1539 14.6326 46.1117C14.4851 46.0696 14.3352 46.0894 14.2122 46.1588C14.0918 46.2257 13.9959 46.3398 13.9541 46.486C13.9123 46.6347 13.932 46.7859 14.0008 46.9098C14.0672 47.0312 14.1803 47.1279 14.3253 47.17C14.4728 47.2122 14.6228 47.1923 14.7457 47.1229C14.8662 47.056 14.962 46.942 15.0038 46.7958C15.0456 46.6446 15.026 46.4959 14.9571 46.372ZM45.5463 36.3167C45.5463 36.7182 45.2243 37.0428 44.826 37.0428C44.4278 37.0428 44.1058 36.7181 44.1058 36.3167V34.0935C43.356 34.0142 42.6553 33.8109 42.0309 33.511C41.1655 33.0971 40.4477 32.4899 39.9634 31.7588C39.7421 31.4267 39.8306 30.9781 40.16 30.755C40.4894 30.532 40.9344 30.6212 41.1556 30.9533C41.4949 31.4639 42.0136 31.8951 42.6479 32.1999C43.2797 32.5023 44.0246 32.6783 44.8235 32.6783C45.9913 32.6783 47.0409 32.309 47.7907 31.7117C48.4938 31.1516 48.929 30.3882 48.929 29.558C48.929 28.7277 48.4938 27.9643 47.7907 27.4042C47.0409 26.8069 45.9937 26.4376 44.8235 26.4376C43.3288 26.4376 41.9644 25.9469 40.9688 25.1513C39.9265 24.321 39.2799 23.1587 39.2799 21.8649C39.2799 20.5711 39.924 19.4112 40.9688 18.5785C41.8022 17.9142 42.8937 17.4607 44.1032 17.3318V15.1086C44.1032 14.7071 44.4253 14.3825 44.8235 14.3825C45.2217 14.3825 45.5438 14.7072 45.5438 15.1086V17.3318C46.21 17.4037 46.8394 17.5722 47.4097 17.8176C48.221 18.1695 48.9166 18.6851 49.428 19.3146C49.6787 19.6219 49.6345 20.0779 49.3296 20.3308C49.0223 20.5836 48.5725 20.5415 48.3217 20.2316C47.9578 19.7855 47.449 19.4113 46.8417 19.1486C46.2468 18.8908 45.5584 18.7446 44.8259 18.7446C43.6581 18.7446 42.6084 19.1139 41.8587 19.7112C41.1555 20.2713 40.7204 21.0322 40.7204 21.8649C40.7204 22.6952 41.1556 23.4561 41.8587 24.0187C42.6084 24.616 43.6557 24.9853 44.8259 24.9853C46.3206 24.9853 47.685 25.476 48.6806 26.2691C49.7229 27.0994 50.3695 28.2617 50.3695 29.5555C50.3695 30.8493 49.7254 32.0092 48.6806 32.842C47.8472 33.5062 46.7557 33.9597 45.5462 34.0886L45.5486 36.3167L45.5463 36.3167ZM44.8285 39.9773C48.7348 39.9773 52.2723 38.3812 54.8319 35.7987C57.391 33.2186 58.9767 29.6521 58.9767 25.7135C58.9767 21.7753 57.3935 18.2088 54.8319 15.6284C52.2727 13.0483 48.7351 11.4497 44.8285 11.4497C40.9222 11.4497 37.3846 13.0458 34.8251 15.6284C32.2659 18.2085 30.6803 21.775 30.6803 25.7135C30.6803 29.6518 32.2635 33.2182 34.8251 35.7987C37.3842 38.3812 40.9218 39.9773 44.8285 39.9773ZM55.8495 36.8247C58.6693 33.9819 60.4147 30.0509 60.4147 25.7136C60.4147 21.3738 58.6693 17.4456 55.8495 14.6025C53.0298 11.7597 49.1307 10 44.8285 10C40.5239 10 36.6275 11.7597 33.8074 14.6025C30.9877 17.4453 29.2423 21.3762 29.2423 25.7136C29.2423 30.0533 30.9877 33.9816 33.8074 36.8247C36.6272 39.6678 40.5263 41.4272 44.8285 41.4272C49.1331 41.4272 53.0294 39.67 55.8495 36.8247Z" fill="black" stroke="black" stroke-width="0.5"/>
</g>
</svg>
