<svg width="56" height="53" viewBox="0 0 56 53" fill="none" xmlns="http://www.w3.org/2000/svg">
<mask id="mask0_7200_56065" style="mask-type:alpha" maskUnits="userSpaceOnUse" x="0" y="0" width="56" height="53">
<rect width="56" height="53" fill="#D9D9D9"/>
</mask>
<g mask="url(#mask0_7200_56065)">
</g>
<g clip-path="url(#clip0_7200_56065)">
<path d="M44.5554 11.4462C35.9685 2.85242 22.0398 2.85242 13.4461 11.4393C9.31418 15.5643 6.99318 21.1647 7.00005 26.9947C6.9863 33.4407 9.79955 39.5553 14.6987 43.738H14.7207C23.4506 51.1864 36.4415 50.6708 44.5554 42.5569C53.1492 33.97 53.1492 20.0399 44.5554 11.4462ZM36.3329 30.659C29 30.659 29.0001 23.3262 21.6658 23.3262C17.0829 23.3262 15.3559 26.1985 12.9291 28.3532H12.9222C12.1701 19.4734 18.7659 11.6675 27.6457 10.9154C36.5254 10.1702 44.3244 16.7592 45.0765 25.6389C42.6414 27.7949 40.9158 30.659 36.3329 30.659Z" fill="black"/>
</g>
<defs>
<clipPath id="clip0_7200_56065">
<rect width="44" height="44" fill="white" transform="translate(7 5)"/>
</clipPath>
</defs>
</svg>
