<svg width="100" height="100" viewBox="0 0 100 100" fill="none" xmlns="http://www.w3.org/2000/svg">
<rect opacity="0.2" width="100" height="100" rx="20" fill="url(#paint0_linear_670_7392)"/>
<mask id="path-2-inside-1_670_7392" fill="white">
<path d="M74.5421 36.4773C74.5601 36.544 74.5694 36.6127 74.5695 36.6818V47.4141C74.5695 47.5519 74.5332 47.6872 74.4641 47.8064C74.3951 47.9256 74.2958 48.0244 74.1763 48.093L65.1684 53.2792V63.5586C65.1684 63.8384 65.0198 64.0966 64.7772 64.2375L45.974 75.0618C45.931 75.0863 45.884 75.1019 45.8371 75.1185C45.8195 75.1244 45.8028 75.1352 45.7843 75.1401C45.6528 75.1747 45.5146 75.1747 45.3832 75.1401C45.3617 75.1342 45.3421 75.1224 45.3216 75.1146C45.2785 75.099 45.2335 75.0853 45.1925 75.0618L26.3932 64.2375C26.2738 64.1689 26.1746 64.07 26.1055 63.9508C26.0365 63.8316 26.0001 63.6964 26 63.5586V31.3616C26 31.2911 26.0098 31.2227 26.0274 31.1561C26.0333 31.1336 26.047 31.1131 26.0548 31.0906C26.0694 31.0495 26.0831 31.0075 26.1047 30.9693C26.1193 30.9439 26.1409 30.9233 26.1585 30.8999C26.181 30.8686 26.2015 30.8363 26.2279 30.8089C26.2504 30.7864 26.2798 30.7698 26.3052 30.7502C26.3336 30.7267 26.359 30.7013 26.3913 30.6827L35.7924 25.2706C35.9114 25.2021 36.0463 25.166 36.1836 25.166C36.3209 25.166 36.4559 25.2021 36.5749 25.2706L45.975 30.6827H45.9769C46.0082 30.7023 46.0347 30.7267 46.063 30.7492C46.0885 30.7688 46.1168 30.7864 46.1393 30.8079C46.1667 30.8363 46.1863 30.8686 46.2097 30.8999C46.2264 30.9233 46.2489 30.9439 46.2626 30.9693C46.2851 31.0084 46.2978 31.0495 46.3134 31.0906C46.3213 31.1131 46.335 31.1336 46.3408 31.1571C46.3588 31.2238 46.368 31.2925 46.3682 31.3616V51.4715L54.2013 46.9612V36.6808C54.2013 36.6123 54.2111 36.5429 54.2287 36.4773C54.2355 36.4538 54.2483 36.4333 54.2561 36.4108C54.2717 36.3697 54.2854 36.3277 54.307 36.2895C54.3216 36.2641 54.3431 36.2435 54.3598 36.2201C54.3832 36.1888 54.4028 36.1565 54.4302 36.1291C54.4527 36.1066 54.4811 36.09 54.5065 36.0704C54.5358 36.0469 54.5613 36.0215 54.5926 36.0029L63.9946 30.5908C64.1136 30.5222 64.2486 30.4861 64.3859 30.4861C64.5233 30.4861 64.6582 30.5222 64.7772 30.5908L74.1773 36.0029C74.2105 36.0225 74.236 36.0469 74.2653 36.0694C74.2898 36.089 74.3181 36.1066 74.3406 36.1281C74.368 36.1565 74.3876 36.1888 74.4111 36.2201C74.4287 36.2435 74.4502 36.2641 74.4639 36.2895C74.4864 36.3277 74.4991 36.3697 74.5147 36.4108C74.5235 36.4333 74.5363 36.4538 74.5421 36.4773ZM73.0025 46.9612V38.0365L69.713 39.9302L65.1684 42.5468V51.4715L73.0035 46.9612H73.0025ZM63.6024 63.1058V54.1752L59.1322 56.7282L46.3672 64.0135V73.0282L63.6024 63.1058ZM27.567 32.7163V63.1058L44.8002 73.0272V64.0145L35.7972 58.9192L35.7943 58.9173L35.7904 58.9153C35.7601 58.8977 35.7346 58.8723 35.7063 58.8508C35.6818 58.8312 35.6535 58.8156 35.6319 58.794L35.63 58.7911C35.6045 58.7666 35.5869 58.7363 35.5654 58.7089C35.5459 58.6825 35.5224 58.66 35.5067 58.6326L35.5058 58.6297C35.4881 58.6004 35.4774 58.5651 35.4647 58.5319C35.452 58.5025 35.4353 58.4752 35.4275 58.4439C35.4177 58.4067 35.4158 58.3666 35.4118 58.3284C35.4079 58.2991 35.4001 58.2697 35.4001 58.2404V37.2266L30.8566 34.609L27.567 32.7163ZM36.1846 26.8532L28.3525 31.3616L36.1826 35.8699L44.0138 31.3606L36.1826 26.8532H36.1846ZM40.2577 54.989L44.8012 52.3734V32.7163L41.5117 34.61L36.9671 37.2266V56.8837L40.2577 54.989ZM64.3859 32.1734L56.5548 36.6818L64.3859 41.1901L72.2161 36.6808L64.3859 32.1734ZM63.6024 42.5468L59.0579 39.9302L55.7683 38.0365V46.9612L60.3119 49.5768L63.6024 51.4715V42.5468ZM45.5828 62.6587L57.0693 56.1012L62.8111 52.8243L54.9858 48.3189L45.976 53.5061L37.7643 58.2335L45.5828 62.6587Z"/>
</mask>
<path d="M74.5421 36.4773C74.5601 36.544 74.5694 36.6127 74.5695 36.6818V47.4141C74.5695 47.5519 74.5332 47.6872 74.4641 47.8064C74.3951 47.9256 74.2958 48.0244 74.1763 48.093L65.1684 53.2792V63.5586C65.1684 63.8384 65.0198 64.0966 64.7772 64.2375L45.974 75.0618C45.931 75.0863 45.884 75.1019 45.8371 75.1185C45.8195 75.1244 45.8028 75.1352 45.7843 75.1401C45.6528 75.1747 45.5146 75.1747 45.3832 75.1401C45.3617 75.1342 45.3421 75.1224 45.3216 75.1146C45.2785 75.099 45.2335 75.0853 45.1925 75.0618L26.3932 64.2375C26.2738 64.1689 26.1746 64.07 26.1055 63.9508C26.0365 63.8316 26.0001 63.6964 26 63.5586V31.3616C26 31.2911 26.0098 31.2227 26.0274 31.1561C26.0333 31.1336 26.047 31.1131 26.0548 31.0906C26.0694 31.0495 26.0831 31.0075 26.1047 30.9693C26.1193 30.9439 26.1409 30.9233 26.1585 30.8999C26.181 30.8686 26.2015 30.8363 26.2279 30.8089C26.2504 30.7864 26.2798 30.7698 26.3052 30.7502C26.3336 30.7267 26.359 30.7013 26.3913 30.6827L35.7924 25.2706C35.9114 25.2021 36.0463 25.166 36.1836 25.166C36.3209 25.166 36.4559 25.2021 36.5749 25.2706L45.975 30.6827H45.9769C46.0082 30.7023 46.0347 30.7267 46.063 30.7492C46.0885 30.7688 46.1168 30.7864 46.1393 30.8079C46.1667 30.8363 46.1863 30.8686 46.2097 30.8999C46.2264 30.9233 46.2489 30.9439 46.2626 30.9693C46.2851 31.0084 46.2978 31.0495 46.3134 31.0906C46.3213 31.1131 46.335 31.1336 46.3408 31.1571C46.3588 31.2238 46.368 31.2925 46.3682 31.3616V51.4715L54.2013 46.9612V36.6808C54.2013 36.6123 54.2111 36.5429 54.2287 36.4773C54.2355 36.4538 54.2483 36.4333 54.2561 36.4108C54.2717 36.3697 54.2854 36.3277 54.307 36.2895C54.3216 36.2641 54.3431 36.2435 54.3598 36.2201C54.3832 36.1888 54.4028 36.1565 54.4302 36.1291C54.4527 36.1066 54.4811 36.09 54.5065 36.0704C54.5358 36.0469 54.5613 36.0215 54.5926 36.0029L63.9946 30.5908C64.1136 30.5222 64.2486 30.4861 64.3859 30.4861C64.5233 30.4861 64.6582 30.5222 64.7772 30.5908L74.1773 36.0029C74.2105 36.0225 74.236 36.0469 74.2653 36.0694C74.2898 36.089 74.3181 36.1066 74.3406 36.1281C74.368 36.1565 74.3876 36.1888 74.4111 36.2201C74.4287 36.2435 74.4502 36.2641 74.4639 36.2895C74.4864 36.3277 74.4991 36.3697 74.5147 36.4108C74.5235 36.4333 74.5363 36.4538 74.5421 36.4773ZM73.0025 46.9612V38.0365L69.713 39.9302L65.1684 42.5468V51.4715L73.0035 46.9612H73.0025ZM63.6024 63.1058V54.1752L59.1322 56.7282L46.3672 64.0135V73.0282L63.6024 63.1058ZM27.567 32.7163V63.1058L44.8002 73.0272V64.0145L35.7972 58.9192L35.7943 58.9173L35.7904 58.9153C35.7601 58.8977 35.7346 58.8723 35.7063 58.8508C35.6818 58.8312 35.6535 58.8156 35.6319 58.794L35.63 58.7911C35.6045 58.7666 35.5869 58.7363 35.5654 58.7089C35.5459 58.6825 35.5224 58.66 35.5067 58.6326L35.5058 58.6297C35.4881 58.6004 35.4774 58.5651 35.4647 58.5319C35.452 58.5025 35.4353 58.4752 35.4275 58.4439C35.4177 58.4067 35.4158 58.3666 35.4118 58.3284C35.4079 58.2991 35.4001 58.2697 35.4001 58.2404V37.2266L30.8566 34.609L27.567 32.7163ZM36.1846 26.8532L28.3525 31.3616L36.1826 35.8699L44.0138 31.3606L36.1826 26.8532H36.1846ZM40.2577 54.989L44.8012 52.3734V32.7163L41.5117 34.61L36.9671 37.2266V56.8837L40.2577 54.989ZM64.3859 32.1734L56.5548 36.6818L64.3859 41.1901L72.2161 36.6808L64.3859 32.1734ZM63.6024 42.5468L59.0579 39.9302L55.7683 38.0365V46.9612L60.3119 49.5768L63.6024 51.4715V42.5468ZM45.5828 62.6587L57.0693 56.1012L62.8111 52.8243L54.9858 48.3189L45.976 53.5061L37.7643 58.2335L45.5828 62.6587Z" fill="black" stroke="black" stroke-width="3" mask="url(#path-2-inside-1_670_7392)"/>
<defs>
<linearGradient id="paint0_linear_670_7392" x1="11.809" y1="1.81213e-05" x2="100.05" y2="16.5617" gradientUnits="userSpaceOnUse">
<stop stop-color="#2EC4F3"/>
<stop offset="1" stop-color="#BFD633"/>
</linearGradient>
</defs>
</svg>
