<svg width="76" height="76" viewBox="0 0 76 76" fill="none" xmlns="http://www.w3.org/2000/svg">
<mask id="mask0_7039_77636" style="mask-type:alpha" maskUnits="userSpaceOnUse" x="-1" y="-1" width="78" height="78">
<rect width="76" height="76" fill="white" stroke="white" stroke-width="2"/>
</mask>
<g mask="url(#mask0_7039_77636)">
<path d="M44.588 66.4238H44.2263H44.191H44.1556H44.1203H44.085H44.0497H44.0144H43.9791H43.9438H43.9085H43.8732H43.8379H43.8026H43.7673H43.732H43.6967H43.6614H43.6261H43.5908H43.5555H43.5202H43.4849H43.4496H43.4143H43.379H43.3437H43.3084H43.2731H43.2378H43.2025H43.1672H43.1319H43.0966H43.0613H43.026H42.9907H42.9554H42.9201H42.8848H42.8495H42.8142H42.7789H42.7436H42.7083H42.673H42.6377H42.6024H42.5671H42.5318H42.4965H42.4611H42.4258H42.3905H42.3552H42.3199H42.2846H42.2493H42.214H42.1787H42.1434H42.1081H42.0728H42.0375H42.0022H41.9669H41.9316H41.8963H41.861H41.8257H41.7904H41.7551H41.7198H41.6845H41.6492H41.6139H41.5786H41.5433H41.508H41.4727H41.4374H41.4021H41.3668H41.3315H41.2962H41.2609H41.2256H41.1903H41.155H41.1197H41.0844H41.0491H41.0138H40.9785H40.9432H40.9079H40.8726H40.8373H40.802H40.7667H40.7314H40.6961H40.6607H40.6254H40.5901H40.5548H40.5195H40.4842H40.4489H40.4136H40.3783H40.343H40.3077H40.2724H40.2371H40.2018H40.1665H40.1312H40.0959H40.0606H40.0253H39.99H39.9547H39.9194H39.8841H39.8488H39.8135H39.7782H39.7429H39.7076H39.6723H39.637H39.6017H39.5664H39.5311H39.4958H39.4605H39.4252H39.3899H39.3546H39.3193H39.284H39.2487H39.2134H39.1781H39.1428H39.1075H39.0722H39.0369H39.0016H38.9663H38.931H38.8957H38.8604H38.8251H38.7898H38.7545H38.7192H38.6839H38.6486H38.6133H38.578H38.5427H38.5074H38.4721H38.4368H38.4015H38.3662H38.3309H38.2956H38.2603H38.225H38.1897H38.1544H38.119H38.0837H38.0484H38.0131H37.9778H37.9425H37.9072H37.8719H37.8366H37.8013H37.766H37.7307H37.6954H37.6601H37.6248H37.5895H37.5542H37.5189H37.4836H37.4483H37.413H37.3777H37.3424H37.3071H37.2718H37.2365H37.2012H37.1659H37.1306H37.0953H37.06H37.0247H36.9894H36.9541H36.9188H36.8835H36.8482H36.8129H36.7776H36.7423H36.707H36.6717H36.6364H36.6011H36.5658H36.5305H36.4952H36.4599H36.4246H36.3893H36.354H36.3187H36.2834H36.2481H36.2128H36.1775H36.1422H36.1069H36.0716H36.0363H36.001H35.9657H35.9304H35.8951H35.8598H35.8245H35.7892H35.7539H35.7186H35.6833H35.648H35.6127H35.5774H35.5421H35.5068H35.4715H35.4362H35.4009H35.3656H35.3303H35.295H35.2597H35.2244H35.1891H35.1538H35.1185H35.0832H35.0479H35.0126H34.9773H34.942H34.9067H34.8714H34.8361H34.8008H34.7655H34.7302H34.6949H34.6596H34.6243H34.589H34.5537H34.5184H34.4831H34.4478H34.4125H34.3772H34.3419H34.3066H34.2713H34.236H34.2007H34.1654H34.1301H34.0948H34.0595H34.0242H33.9889H33.9536H33.9184H33.8831H33.8478H33.8125H33.7772H33.7419H33.7066H33.6713H33.636H33.6007H33.5654H33.5301H33.4948H33.4595H33.4242H33.3889H33.3536H33.3183H33.283H33.2477H33.2124H33.1771H33.1418H33.1065H33.0712H33.0359H33.0006H32.9653H32.93H32.8947H32.8594H32.8241H32.7888H32.7535H32.7182H32.6829H32.6476H32.6123H32.577H32.5417H32.5064H32.4711H32.4358H32.4005H32.3652H32.3299H32.2946H32.2593H32.224H32.1887H32.1534H32.1181H32.0828H32.0475H32.0122H31.977H31.9417H31.9064H31.8711H31.8358H31.8005H31.7652H31.7299H31.6946H31.6593H31.624H31.5887H31.5534H31.5181H31.4828H31.4475H31.4122H31.3769H31.3416H31.3063H31.271H31.2357H31.2004H31.1651H31.1298H31.0945H31.0592H31.0239H30.9886H30.9533H30.918H30.8827H30.8474H30.8122H30.7769H30.7416H30.7063H30.671H30.6357H30.6004H30.5651H30.5298H30.4945H30.4592H30.4239H30.3886H30.3533H30.318H30.2827H30.2474H30.2121H30.1768H30.1415H30.1062H30.0709H30.0356H30.0003H29.965H29.9297H29.8945H29.8592H29.8239H29.7886H29.7533H29.718H29.6827H29.6474H29.6121H29.5768H29.5415H29.5062H29.4709H29.4356H29.4003H29.365H29.3297H29.2944H29.2591H29.2238H29.1885H29.1533H29.118H29.0827H29.0474H29.0121H28.9768H28.9415H28.9062H28.8709H28.8356H28.8003H28.765H28.7297H28.6944H28.6591H28.6238H28.5885H28.5532H28.5179H28.4827H28.4474H28.4121H28.3768H28.3415H28.3062H28.2709H28.2356H28.2003H28.165H28.1297H28.0944H28.0591H28.0238H27.9885H27.9532H27.9179H27.8827H27.8474H27.8121H27.7768H27.7415H27.7062H27.6709H27.6356H27.6003H27.565H27.5297H27.4944H27.4591H27.4238H27.3885H27.3533H27.318H27.2827H27.2474H27.2121H27.1768H27.1415H27.1062H27.0709H27.0356H27.0003H26.965H26.9297H26.8944H26.8591H26.8239H26.7886H26.7533H26.718H26.6827H26.6474H26.6121H26.5768H26.5415H26.5062H26.4709H26.4356H26.4003H26.3651H26.3298H26.2945H26.2592H26.2239H26.1886H26.1533C24.545 66.4238 23.2345 65.934 22.3255 65.0255C21.4166 64.117 20.9259 62.8065 20.925 61.1973C20.9238 57.2834 20.9242 53.3688 20.9246 49.4544C20.9248 47.4974 20.925 45.5404 20.925 43.5836C20.925 42.9592 20.9938 42.5116 21.2728 42.2334C21.5516 41.9554 22.0002 41.8866 22.6262 41.8857C22.9017 41.8854 23.1773 41.8848 23.4531 41.8842C24.5574 41.882 25.6635 41.8797 26.7683 41.891C26.9503 41.8927 27.0555 41.8763 27.1288 41.8323C27.1953 41.7925 27.2609 41.7136 27.317 41.5222C28.127 38.7446 30.4373 36.967 33.1965 36.9634H33.1966C35.9557 36.9616 38.2802 38.7479 39.0903 41.5097M44.588 66.4238L38.9464 41.5519M44.588 66.4238L44.5862 66.422M44.588 66.4238L44.5862 66.422M39.0903 41.5097L38.9464 41.5519M39.0903 41.5097C39.0903 41.5096 39.0902 41.5095 39.0902 41.5093L38.9464 41.5519M39.0903 41.5097C39.1401 41.6779 39.1863 41.7678 39.2445 41.8195C39.2964 41.8656 39.3803 41.9001 39.557 41.8946L39.5574 41.8945C40.6107 41.8646 41.6668 41.8699 42.7182 41.891L42.7184 41.891C42.9123 41.8951 42.9861 41.8581 43.0198 41.8213C43.0571 41.7806 43.0866 41.697 43.0841 41.5068M38.9464 41.5519C39.048 41.8955 39.169 42.0567 39.5616 42.0445C40.6117 42.0147 41.6652 42.0199 42.7152 42.041C43.1254 42.0497 43.2393 41.8955 43.2341 41.5046M43.0841 41.5068C43.0841 41.5068 43.0841 41.5069 43.0841 41.507L43.2341 41.5046M43.0841 41.5068C43.0841 41.5067 43.0841 41.5067 43.0841 41.5066L43.2341 41.5046M43.0841 41.5068L43.2288 37.89C43.2218 39.0943 43.2148 40.3003 43.2341 41.5046M44.5862 66.422H44.6142H44.6496H44.685H44.7205H44.7559H44.7913H44.8267H44.8622H44.8976H44.933H44.9684H45.0039H45.0393H45.0747H45.1101H45.1456H45.181H45.2164H45.2519H45.2873H45.3227H45.3581H45.3936H45.429H45.4644H45.4998H45.5353H45.5707H45.6061H45.6415H45.677H45.7124H45.7478H45.7833H45.8187H45.8541H45.8895H45.925H45.9604H45.9958H46.0312H46.0667H46.1021H46.1375H46.173H46.2084H46.2438H46.2792H46.3147H46.3501H46.3855H46.4209H46.4564H46.4918H46.5272H46.5627H46.5981H46.6335H46.6689H46.7044H46.7398H46.7752H46.8107H46.8461H46.8815H46.9169H46.9524H46.9878H47.0232H47.0586H47.0941H47.1295H47.1649H47.2004H47.2358H47.2712H47.3066H47.3421H47.3775H47.4129H47.4484H47.4838H47.5192H47.5546H47.5901H47.6255H47.6609H47.6964H47.7318H47.7672H47.8026H47.8381H47.8735H47.9089H47.9444H47.9798H48.0152H48.0506H48.0861H48.1215H48.1569H48.1924H48.2278H48.2632H48.2986H48.3341H48.3695H48.4049H48.4404H48.4758H48.5112H48.5467H48.5821H48.6175H48.6529H48.6884H48.7238H48.7592H48.7947H48.8301H48.8655H48.9009H48.9364H48.9718H49.0072H49.0427H49.0781H49.1135H49.149H49.1844H49.2198H49.2552H49.2907H49.3261H49.3615H49.397H49.4324H49.4678H49.5032H49.5387H49.5741H49.6095H49.645H49.6804H49.7158H49.7513H49.7867H49.8221H49.8575H49.893H49.9284H49.9638H49.9993H50.0347H50.0701H50.1056H50.141H50.1764H50.2118H50.2473H50.2827H50.3181H50.3536H50.389H50.4244H50.4599H50.4953H50.5307H50.5661H50.6016H50.637H50.6724H50.7079H50.7433H50.7787H50.8142H50.8496H50.885H50.9204H50.9559H50.9913H51.0267H51.0622H51.0976H51.133H51.1685H51.2039H51.2393H51.2747H51.3102H51.3456H51.381H51.4165H51.4519H51.4873H51.5228H51.5582H51.5936H51.629H51.6645H51.6999H51.7353H51.7708H51.8062H51.8416H51.8771H51.9125H51.9479H51.9834H52.0188H52.0542H52.0896H52.1251H52.1605H52.1959H52.2314H52.2668H52.3022H52.3377H52.3731H52.4085H52.4439H52.4794H52.5148H52.5502H52.5857H52.6211H52.6565H52.692H52.7274H52.7628H52.7983H52.8337H52.8691H52.9045H52.94H52.9754H53.0108H53.0463H53.0817H53.1171H53.1526H53.188H53.2234H53.2589H53.2943H53.3297H53.3651H53.4006H53.436H53.4714H53.5069H53.5423H53.5777H53.6132H53.6486H53.684H53.7194H53.7549H53.7903H53.8257H53.8612H53.8966H53.932H53.9675H54.0029H54.0383H54.0738H54.1092H54.1446H54.18H54.2155H54.2509H54.2863H54.3218H54.3572H54.3926H54.4281H54.4635H54.4989H54.5344H54.5698H54.6052H54.6406H54.6761H54.7115H54.7469H54.7824H54.8178H54.8532H54.8887H54.9241H54.9595H54.9949H55.0304H55.0658H55.1012H55.1367H55.1721H55.2075H55.243H55.2784H55.3138H55.3492H55.3847H55.4201H55.4555H55.491H55.5264H55.5618H55.5973H55.6327H55.6681H55.7036H55.739H55.7744H55.8098H55.8453H55.8807H55.9161H55.9516H55.987H56.0224H56.0579H56.0933H56.1287H56.1641H56.1996H56.235H56.2704H56.3059H56.3413H56.3767H56.4122H56.4476H56.483H56.5184H56.5539H56.5893H56.6247H56.6602H56.6956H56.731H56.7664H56.8019H56.8373H56.8727H56.9082H56.9436H56.979H57.0145H57.0499H57.0853H57.1207H57.1562H57.1916H57.227H57.2625H57.2979H57.3333H57.3688H57.4042H57.4396H57.475H57.5105H57.5459H57.5813H57.6168H57.6522H57.6876H57.723H57.7585H57.7939H57.8293H57.8648H57.9002H57.9356H57.9711H58.0065H58.0419H58.0773H58.1128H58.1482H58.1836H58.2191H58.2545H58.2899H58.3253H58.3608H58.3962H58.4316H58.4671H58.5025H58.5379H58.5733H58.6088H58.6442H58.6796H58.7151H58.7505H58.7859H58.8213H58.8568H58.8922H58.9276H58.9631H58.9985H59.0339H59.0693H59.1048H59.1402H59.1756H59.2111H59.2465H59.2819H59.3173H59.3528H59.3882H59.4236H59.4591H59.4945H59.5299H59.5653H59.6008H59.6362H59.6716H59.7071H59.7425H59.7779H59.8133H59.8488H59.8842H59.9196H59.9551H59.9905H60.0259H60.0613H60.0968H60.1322H60.1676H60.203H60.2385H60.2739H60.3093H60.3448H60.3802H60.4156H60.451H60.4865H60.5219H60.5573H60.5927H60.6282H60.6636H60.699H60.7345H60.7699H60.8053H60.8407H60.8762H60.9116H60.947H60.9824H61.0179H61.0533H61.0887H61.1241H61.1596H61.195H61.2304H61.2659H61.3013H61.3367H61.3721H61.4076H61.443H61.4784H61.5138H61.5493H61.5847H61.6201H61.6555H61.691H61.7264H61.7618H61.7973H61.8327H61.8681H61.9035H61.939H61.9744H62.0098H62.0452H62.0807H62.1161H62.1515H62.1869H62.2224H62.2578H62.2932H62.3286H62.3641H62.3641C63.9806 66.4212 65.2938 65.9356 66.2032 65.0317C67.1127 64.1277 67.6011 62.8221 67.6011 61.2148V61.1453V61.0759V61.0064V60.937V60.8676V60.7981V60.7287V60.6592V60.5898V60.5203V60.4509V60.3814V60.312V60.2426V60.1731V60.1037V60.0342V59.9648V59.8953V59.8259V59.7565V59.687V59.6176V59.5481V59.4787V59.4092V59.3398V59.2703V59.2009V59.1315V59.062V58.9926V58.9231V58.8537V58.7842V58.7148V58.6454V58.5759V58.5065V58.437V58.3676V58.2981V58.2287V58.1593V58.0898V58.0204V57.9509V57.8815V57.812V57.7426V57.6731V57.6037V57.5343V57.4648V57.3954V57.3259V57.2565V57.187V57.1176V57.0482V56.9787V56.9093V56.8398V56.7704V56.7009V56.6315V56.562V56.4926V56.4232V56.3537V56.2843V56.2148V56.1454V56.0759V56.0065V55.9371V55.8676V55.7982V55.7287V55.6593V55.5898V55.5204V55.4509V55.3815V55.3121V55.2426V55.1732V55.1037V55.0343V54.9648V54.8954V54.826V54.7565V54.6871V54.6176V54.5482V54.4787V54.4093V54.3399V54.2704V54.201V54.1315V54.0621V53.9926V53.9232V53.8537V53.7843V53.7149V53.6454V53.576V53.5065V53.4371V53.3676V53.2982V53.2288V53.1593V53.0899V53.0204V52.951V52.8815V52.8121V52.7426V52.6732V52.6038V52.5343V52.4649V52.3954V52.326V52.2565V52.1871V52.1177V52.0482V51.9788V51.9093V51.8399V51.7704V51.701V51.6315V51.5621V51.4927V51.4232V51.3538V51.2843V51.2149V51.1454V51.076V51.0066V50.9371V50.8677V50.7982V50.7288V50.6593V50.5899V50.5204V50.451V50.3816V50.3121V50.2427V50.1732V50.1038V50.0343V49.9649V49.8955V49.826V49.7566V49.6871V49.6177V49.5482V49.4788V49.4094V49.3399V49.2705V49.201V49.1316V49.0621V48.9927V48.9232V48.8538V48.7844V48.7149V48.6455V48.576V48.5066V48.4371V48.3677V48.2983V48.2288V48.1594V48.0899V48.0205V47.951V47.8816V47.8121V47.7427V47.6733V47.6038V47.5344V47.4649V47.3955V47.326V47.2566V47.1872V47.1177V47.0483V46.9788V46.9094V46.8399V46.7705V46.701V46.6316V46.5622V46.4927V46.4233V46.3538V46.2844V46.2149V46.1455V46.0761V46.0066V45.9372V45.8677V45.7983V45.7288V45.6594V45.59V45.5205V45.4511V45.3816V45.3122V45.2427V45.1733V45.1038V45.0344V44.965V44.8955V44.8261V44.7566V44.6872V44.6177V44.5483V44.4789V44.4094V44.34V44.2705V44.2011V44.1316V44.0622V43.9927V43.9233V43.8539V43.7844V43.715V43.6455V43.5761V43.5066V43.4372V43.3678V43.2983V43.2289V43.1594V43.09V43.0205V42.9511V42.8816V42.8122V42.7428V42.6733V42.6039V42.5344V42.465V42.3955V42.3261V42.2567V42.1872V42.1178V42.0483V41.9789V41.9094V41.84V41.7705V41.7011V41.6317V41.5622V41.4928V41.4233V41.3539V41.2844V41.215V41.1456V41.0761V41.0067V40.9372V40.8678V40.7983V40.7289V40.6595V40.59V40.5206V40.4511V40.3817V40.3122V40.2428V40.1733V40.1039V40.0345V39.965V39.8956V39.8261V39.7567V39.6872V39.6178V39.5484V39.4789V39.4095V39.34V39.2706V39.2011V39.1317V39.0622V38.9928V38.9234V38.8539V38.7845V38.715V38.6456V38.5761V38.5067V38.4373V38.3678V38.2984V38.2289V38.1595V38.09V38.0206V37.9511V37.8817V37.8123V37.7428V37.6734V37.6039V37.5345V37.465V37.3956V37.3262V37.2567V37.1873V37.1178V37.0484V36.9789V36.9095V36.8401V36.7706V36.7012V36.6317V36.5623V36.4928V36.4234V36.3539V36.2845V36.2151V36.1456V36.0762V36.0067V35.9373V35.8678V35.7984V35.729V35.6595V35.5901V35.5206V35.4512V35.3817V35.3123V35.2428V35.1734V35.104V35.0345V34.9651V34.8956V34.8262V34.7567V34.6873V34.6179V34.5484V34.479V34.4095V34.3401V34.2706V34.2012V34.1317V34.0623V33.9929V33.9234V33.854V33.7845V33.7151V33.6456V33.5762V33.5068V33.4373V33.3679V33.2984V33.229V33.1595V33.0901V33.0207V32.9512V32.8818V32.8123V32.7429V32.6734V32.604V32.5345V32.4651V32.3957V32.3262V32.2568V32.1873V32.1179V32.0484V31.979V31.9096V31.8401V31.7707V31.7012V31.6318V31.5623V31.4929V31.4234V31.354V31.2846V31.2151V31.1457V31.0762V31.0068V30.9373V30.8679V30.7985V30.729V30.6596V30.5901V30.5207V30.4512V30.3818V30.3123V30.2429V30.1735V30.104V30.0346V29.9651V29.8957V29.8262V29.7568V29.6874V29.6179V29.5485V29.479V29.4096V29.3401V29.2707V29.2013V29.1318V29.0624V28.9929V28.9235V28.854V28.7846V28.7151V28.6457V28.5763V28.5068V28.4374V28.3679V28.2985V28.229V28.1596V28.0902V28.0207V27.9513V27.8818V27.8124V27.7429V27.6735V27.604V27.5346V27.4652V27.3957V27.3263V27.2568V27.1874V27.1179V27.0485V26.9791V26.9096V26.8402V26.7707V26.7013V26.6318V26.5624V26.4929V26.4235V26.3541V26.2846V26.2152V26.1457V26.0763V26.0068V25.9374V25.868V25.7985V25.7291V25.6596C67.6011 24.0303 67.1158 22.7132 66.2043 21.8028C65.2929 20.8925 63.9732 20.4068 62.3397 20.405L62.3396 20.405C60.0175 20.4039 57.6953 20.4042 55.3732 20.4046C54.2122 20.4048 53.0512 20.405 51.8902 20.405C51.1892 20.405 50.4883 20.4045 49.7874 20.4039C48.0349 20.4024 46.2822 20.401 44.5289 20.4085L44.5862 66.422ZM38.2281 53.3878C38.4139 52.0769 38.886 50.989 39.6338 50.1319C40.3814 49.2751 41.3973 48.6573 42.6576 48.2747L42.6577 48.2747C42.8598 48.2134 42.9587 48.1508 43.0122 48.0791C43.0647 48.0089 43.0934 47.9033 43.0877 47.7056C43.0595 46.7407 43.056 45.7717 43.0877 44.8057L43.0877 44.8053C43.0964 44.5586 43.0664 44.4385 43.0121 44.3753C42.9633 44.3186 42.859 44.2693 42.5951 44.2769L42.5948 44.2769C41.5261 44.3059 40.4557 44.2991 39.3881 44.2923C39.0973 44.2905 38.8066 44.2886 38.5163 44.2875C37.9732 44.2857 37.5803 44.2273 37.3182 43.991C37.0557 43.7544 36.9608 43.3722 36.9074 42.8413C36.7026 40.8173 35.0988 39.3438 33.1553 39.3757L33.1552 39.3757C31.223 39.406 29.6707 40.8827 29.4948 42.8711C29.4508 43.3711 29.3555 43.7405 29.1066 43.9764C28.8564 44.2135 28.4859 44.2831 27.9877 44.2857M38.2281 53.3878L27.9869 44.1357M38.2281 53.3878C37.8092 56.3301 39.6256 59.1327 42.4906 59.9721C42.7678 60.0535 42.915 60.1427 42.9958 60.2543C43.0757 60.3645 43.1116 60.5255 43.0932 60.8034L43.0932 60.8037C43.0367 61.6827 43.0331 62.5711 43.0932 63.4495C43.1145 63.7591 43.0593 63.8796 42.9906 63.9371C42.9104 64.0042 42.7605 64.0352 42.4696 64.0325C40.4231 64.0119 38.3772 64.015 36.332 64.018C35.5959 64.0191 34.8599 64.0203 34.124 64.0203H34.1222C33.2239 64.0203 32.3259 64.0206 31.428 64.021C29.6325 64.0218 27.8374 64.0226 26.0414 64.0203M38.2281 53.3878L26.0411 64.1703M27.9877 44.2857L27.9869 44.1357M27.9877 44.2857C27.9877 44.2857 27.9878 44.2857 27.9879 44.2857L27.9869 44.1357M27.9877 44.2857C27.7939 44.287 27.6 44.2884 27.4061 44.2899C26.2418 44.2984 25.0748 44.3071 23.9092 44.2769M27.9869 44.1357C27.7928 44.137 27.5986 44.1384 27.4045 44.1399C26.2401 44.1484 25.0759 44.157 23.913 44.127C23.3644 44.113 23.1575 44.2269 23.161 44.8404C23.1788 48.5591 23.1781 52.2779 23.1775 55.9966C23.1772 57.7751 23.1768 59.5537 23.1785 61.3322C23.1785 63.1518 24.211 64.1667 26.0411 64.1703M23.9092 44.2769L23.913 44.1273L23.9092 44.2769C23.9092 44.2769 23.9092 44.2769 23.9092 44.2769ZM23.9092 44.2769C23.6322 44.2699 23.4995 44.3002 23.4279 44.3619C23.3622 44.4187 23.3093 44.5385 23.311 44.8396L23.311 44.8397C23.3288 48.5588 23.3281 52.2782 23.3275 55.9972C23.3272 57.7756 23.3268 59.5539 23.3285 61.3321L23.3285 61.3322C23.3285 62.214 23.5782 62.8797 24.029 63.3256C24.4802 63.7719 25.1533 64.0186 26.0414 64.0203M26.0414 64.0203C26.0414 64.0203 26.0413 64.0203 26.0413 64.0203L26.0411 64.1703M26.0414 64.0203L26.0411 64.1703M45.47 23.2612L45.47 23.2612C45.5087 24.293 45.4964 25.3272 45.4736 26.3568C45.4704 26.5153 45.4981 26.5947 45.5379 26.6448C45.58 26.6978 45.6563 26.7449 45.8109 26.7923C48.6136 27.6478 50.3676 29.9037 50.3784 32.6603C50.3892 35.4524 48.6369 37.7247 45.8021 38.5874C45.6478 38.6345 45.5737 38.685 45.5337 38.7395C45.4942 38.7933 45.4695 38.8764 45.4736 39.0325C45.4964 39.8435 45.507 40.6592 45.4717 41.4725L45.4717 41.4726C45.4617 41.701 45.5057 41.7861 45.5509 41.8249C45.6038 41.8704 45.708 41.8989 45.9271 41.8945L45.9276 41.8945C46.998 41.8762 48.0687 41.8805 49.1375 41.8847C49.4043 41.8857 49.671 41.8868 49.9376 41.8875C49.9376 41.8875 49.9377 41.8875 49.9378 41.8875L49.9374 42.0375C51.1504 42.0392 51.3748 42.2426 51.5133 43.4538L45.47 23.2612ZM45.47 23.2612C45.4606 23.0144 45.5034 22.9213 45.5517 22.8781C45.6063 22.8291 45.7151 22.798 45.9553 22.7998C48.0582 22.8156 50.1613 22.8136 52.2637 22.8116C52.9436 22.811 53.6235 22.8104 54.3032 22.8103L54.305 22.8121H54.3671C55.2577 22.8121 56.1483 22.8117 57.0388 22.8113C58.8197 22.8105 60.6005 22.8097 62.3814 22.8121H62.3815C63.3593 22.8129 64.0561 23.0524 64.5099 23.5097C64.964 23.9671 65.2011 24.6691 65.2011 25.6526C65.2011 26.842 65.2006 28.0315 65.2002 29.2211C65.1986 33.2647 65.1971 37.3092 65.2134 41.3527C65.2142 41.6232 65.1804 41.7453 65.1236 41.8074C65.0718 41.864 64.9638 41.9084 64.6879 41.8998L64.6876 41.8998C63.5349 41.8661 62.382 41.8752 61.2323 41.8842C61.0026 41.886 60.773 41.8878 60.5435 41.8892H60.5434C60.0479 41.8928 59.6737 41.9715 59.4189 42.2102C59.1641 42.4489 59.0624 42.8159 59.0259 43.3041C58.8809 45.2325 57.3384 46.6978 55.4029 46.7467M45.47 23.2612L55.4029 46.7467M55.4029 46.7467C53.5036 46.7938 51.8833 45.3637 51.6623 43.4368L55.4029 46.7467ZM43.3712 36.7909C43.1465 37.0389 43.0815 37.4021 43.0788 37.8891L43.2306 21.8242L43.0806 21.8233C43.0806 21.8234 43.0806 21.8235 43.0806 21.8236C43.0701 23.7505 43.0701 25.6793 43.0806 27.608V27.6081C43.0833 28.0332 43.1685 28.3657 43.3891 28.5993C43.6089 28.8321 43.9361 28.9377 44.3532 28.9749L44.3532 28.9749C46.4532 29.1615 47.9364 30.707 47.9398 32.6822C47.9431 34.6273 46.479 36.1878 44.4267 36.3962L44.4267 36.3962C43.9493 36.4449 43.596 36.5429 43.3712 36.7909ZM43.2376 44.8106C43.2551 44.3163 43.1377 44.1112 42.5907 44.127L42.7012 48.4182C43.1236 48.2902 43.2499 48.1202 43.2376 47.7013C43.2095 46.7389 43.206 45.773 43.2376 44.8106ZM54.339 64.0203L54.3386 64.022L45.4886 63.8471C45.4854 63.7726 45.4861 63.6831 45.4869 63.5692C45.4875 63.487 45.4882 63.3921 45.4876 63.2807C45.4841 62.6344 45.485 61.9886 45.4859 61.3423V61.3408C45.4867 60.6952 45.4876 60.0492 45.4841 59.4032C45.4815 58.8898 45.4042 58.5053 45.1607 58.2455C44.9172 57.9856 44.5398 57.8849 44.0337 57.8485L44.0336 57.8485C42.1156 57.712 40.6291 56.1671 40.56 54.2379C40.4944 52.4078 41.8725 50.7766 43.7315 50.4965L43.7316 50.4965C43.88 50.4741 44.0306 50.455 44.182 50.4376C44.6157 50.3881 44.9496 50.278 45.1713 50.0389C45.3939 49.7989 45.4761 49.4587 45.4806 49.0177C45.4946 47.813 45.5017 46.6067 45.4753 45.3999L45.4753 45.3996C45.4701 45.1775 45.5001 45.0776 45.5444 45.028C45.5838 44.9839 45.6702 44.9424 45.8989 44.95L45.899 44.95C46.9302 44.9835 47.9642 44.9711 48.9931 44.9554H48.9931C49.1495 44.9529 49.2319 44.9766 49.2855 45.0159C49.3392 45.0553 49.3903 45.1297 49.4376 45.291L49.4376 45.2911C50.2544 48.0747 52.5447 49.8546 55.3026 49.8654C58.0938 49.8762 60.404 48.1071 61.2405 45.2916L61.2407 45.2908C61.2888 45.1257 61.3374 45.0513 61.3881 45.0126C61.4372 44.9751 61.5143 44.9512 61.6709 44.9536C62.7239 44.9712 63.7757 44.9747 64.8297 44.9536C65.0211 44.9501 65.0995 44.9745 65.1373 45.0074C65.1699 45.0359 65.2081 45.104 65.2081 45.3081C65.2017 47.8149 65.2015 50.3203 65.2014 52.8256C65.2012 55.7729 65.201 58.7198 65.1906 61.6683C65.1857 63.0365 64.1368 64.0117 62.6826 64.0168C60.6972 64.0243 58.7112 64.0228 56.7246 64.0214C55.9295 64.0208 55.1343 64.0203 54.339 64.0203Z" fill="black" stroke="black" stroke-width="0.3"/>
<path d="M8.40527 14.3722L8.40527 14.3722C8.40796 12.8903 8.91438 11.6337 9.80093 10.7469C10.6875 9.86014 11.9437 9.35368 13.4266 9.35278L8.40527 14.3722ZM8.40527 14.3722C8.40176 16.3287 8.40293 18.2853 8.4041 20.2417C8.40468 21.2117 8.40526 22.1816 8.40527 23.1515L8.40351 23.1567M8.40527 14.3722L8.40351 23.1567M31.3629 9.35278V9.50278M31.3629 9.35278V9.50278M31.3629 9.35278C30.3662 9.35249 29.3695 9.35214 28.3728 9.3518C23.3907 9.3501 18.4093 9.3484 13.4266 9.35278L31.3629 9.35278ZM31.3629 9.50278C32.441 9.50278 32.7741 9.83409 32.7776 10.9104L32.9276 10.9099L31.3629 9.50278ZM31.3629 9.50278L31.363 9.35278L31.3629 9.50278ZM8.40351 23.1567V23.1811M8.40351 23.1567V23.1811M8.40351 23.1811C8.40351 24.203 8.40332 25.2249 8.40312 26.2469M8.40351 23.1811L8.40312 26.2469M14.9465 31.1132C15.7284 28.4732 18.0387 26.7501 20.6962 26.7676C23.38 26.7869 25.6308 28.496 26.4179 31.1553C26.5265 31.5251 26.6773 31.6478 27.0454 31.6408C28.0744 31.6233 29.1051 31.6163 30.1324 31.6426M14.9465 31.1132L14.8028 31.0704C14.8028 31.0704 14.8027 31.0705 14.8027 31.0706M14.9465 31.1132L14.8027 31.0706M14.9465 31.1132L10.8036 31.1519M14.8027 31.0706C15.603 28.3683 17.9711 26.5996 20.6972 26.6176H20.6973C23.449 26.6374 25.7564 28.392 26.5617 31.1127L26.5618 31.113C26.6134 31.2885 26.6669 31.3745 26.7267 31.4212C26.7843 31.4662 26.8726 31.4941 27.0426 31.4909L27.0429 31.4908C28.0727 31.4733 29.1059 31.4663 30.1362 31.4926M14.8027 31.0706C14.7422 31.2734 14.6771 31.3692 14.6046 31.4203C14.5315 31.4718 14.423 31.4976 14.2264 31.4926L14.2261 31.4926C13.1962 31.468 12.1633 31.4715 11.1328 31.4908L11.1328 31.4909C10.9553 31.4942 10.8913 31.4627 10.8633 31.4336C10.8329 31.402 10.8036 31.3318 10.8036 31.1519M30.1362 31.4926C30.1361 31.4926 30.1361 31.4926 30.136 31.4926L30.1324 31.6426M30.1362 31.4926L30.1324 31.6426M30.1362 31.4926C30.3449 31.4976 30.4276 31.4607 30.4661 31.4202C30.5067 31.3776 30.5389 31.2891 30.5346 31.083L30.5346 31.0825C30.518 30.1453 30.5209 29.2074 30.5237 28.2713C30.5247 27.9153 30.5258 27.5595 30.5258 27.2041C30.5258 26.8526 30.5344 26.5681 30.571 26.3391C30.6078 26.1085 30.6751 25.9199 30.8031 25.7704C30.9312 25.6206 31.1062 25.5262 31.3266 25.4568C31.5451 25.3878 31.8215 25.3395 32.1638 25.2904C34.1168 25.0102 35.4423 23.4384 35.3833 21.4766M30.1324 31.6426C30.5671 31.6531 30.6933 31.5023 30.6846 31.0799C30.668 30.1443 30.6709 29.2088 30.6737 28.2732C30.6747 27.9169 30.6758 27.5605 30.6758 27.2041C30.6758 25.7982 30.816 25.6352 32.1851 25.4389L29.9135 11.7353C29.9135 11.7353 29.9136 11.7353 29.9136 11.7353C30.2411 11.7309 30.3785 11.7831 30.4452 11.8567C30.5151 11.9338 30.5505 12.0793 30.5399 12.3883L30.5399 12.3883C30.5038 13.4437 30.5126 14.5019 30.5214 15.5561C30.5237 15.8382 30.5261 16.12 30.5275 16.4014C30.5302 16.8947 30.6111 17.269 30.85 17.5253C31.089 17.7817 31.4552 17.887 31.9404 17.9245C33.8591 18.073 35.3244 19.5882 35.3833 21.4766M35.3833 21.4766L35.5328 21.472L35.3833 21.4765C35.3833 21.4765 35.3833 21.4766 35.3833 21.4766ZM10.8036 31.1519C10.8079 28.8069 10.8081 26.462 10.8082 24.1173C10.8085 20.768 10.8087 17.4189 10.8211 14.0698C10.826 12.7369 11.878 11.763 13.2924 11.7563L10.8036 31.1519ZM8.40312 26.2469C8.40273 28.2908 8.40234 30.3348 8.40351 32.3788L8.40312 26.2469ZM32.9205 15.2493L32.9206 15.2492L32.7741 32.4349L32.9241 32.4358C32.9241 32.4358 32.9241 32.4358 32.9241 32.4357C32.9328 30.9683 32.9363 29.5001 32.9206 28.0316C32.9189 27.8606 32.9365 27.7629 32.9775 27.696C33.015 27.6349 33.0879 27.5749 33.2619 27.5232C36.0819 26.6906 37.8695 24.3774 37.8551 21.6044C37.8407 18.8473 36.0581 16.539 33.2878 15.7273C33.1131 15.6757 33.0313 15.6233 32.9874 15.5657C32.9445 15.5093 32.9181 15.4217 32.9205 15.2493ZM18.5944 29.672C20.9238 28.0973 24.0218 29.5433 24.3441 32.3467L8.40351 32.3789C8.40352 32.8867 8.48997 33.2765 8.7419 33.5351C8.99464 33.7944 9.37938 33.8864 9.8832 33.8891L9.8833 33.8891C11.7454 33.8979 13.6075 33.8979 15.4696 33.8891L15.4697 33.8891C15.9639 33.8864 16.336 33.8072 16.5892 33.5665C16.8415 33.3265 16.9423 32.9577 16.9805 32.4676C17.0734 31.2764 17.6127 30.3366 18.5944 29.672ZM19.1808 11.7513C19.9983 11.7521 20.8161 11.7528 21.6341 11.7528L13.2925 11.7563C15.2557 11.7477 17.2178 11.7495 19.1808 11.7513Z" fill="black" stroke="black" stroke-width="0.3"/>
</g>
</svg>
