<svg width="80" height="80" viewBox="0 0 80 80" fill="none" xmlns="http://www.w3.org/2000/svg">
<mask id="mask0_7380_55954" style="mask-type:alpha" maskUnits="userSpaceOnUse" x="-1" y="-1" width="82" height="82">
<rect width="80" height="80" fill="white" stroke="white" stroke-width="2"/>
</mask>
<g mask="url(#mask0_7380_55954)">
</g>
<g clip-path="url(#clip0_7380_55954)">
<path d="M26.1538 61.0297V56.3398C25.4365 56.819 24.6789 57.2258 23.8908 57.555C20.9788 58.7968 17.1384 59.4807 13.0769 59.4807C9.01545 59.4807 5.17501 58.7968 2.26303 57.555C1.47492 57.2258 0.717299 56.819 0 56.3398V61.0297C0 62.9243 5.09419 65.6767 13.0769 65.6767C21.0597 65.6767 26.1538 62.9243 26.1538 61.0297ZM4.35897 62.5787C4.0716 62.5787 3.79068 62.4878 3.55174 62.3176C3.31279 62.1474 3.12656 61.9055 3.01659 61.6225C2.90661 61.3394 2.87784 61.028 2.9339 60.7275C2.98997 60.427 3.12835 60.151 3.33155 59.9344C3.53476 59.7177 3.79366 59.5702 4.07551 59.5104C4.35736 59.4507 4.64951 59.4813 4.91501 59.5986C5.18051 59.7158 5.40744 59.9144 5.56709 60.1691C5.72675 60.4238 5.81197 60.7233 5.81197 61.0297C5.81197 61.4405 5.65888 61.8345 5.38639 62.125C5.11391 62.4155 4.74433 62.5787 4.35897 62.5787Z" fill="black"/>
<path d="M13.0769 47.0022C21.0597 47.0022 26.1538 44.2497 26.1538 42.3551V37.6653C25.4365 38.1444 24.6789 38.5512 23.8908 38.8805C20.9788 40.1222 17.1384 40.8061 13.0769 40.8061C9.01545 40.8061 5.17501 40.1222 2.26303 38.8805C1.47492 38.5512 0.717299 38.1444 0 37.6653V42.3551C0 44.2497 5.09419 47.0022 13.0769 47.0022ZM4.35897 40.8061C4.64635 40.8061 4.92727 40.8969 5.16621 41.0672C5.40516 41.2374 5.59139 41.4793 5.70136 41.7623C5.81134 42.0454 5.84011 42.3568 5.78405 42.6573C5.72798 42.9578 5.5896 43.2338 5.38639 43.4504C5.18319 43.6671 4.92429 43.8146 4.64244 43.8744C4.36059 43.9341 4.06844 43.9035 3.80294 43.7862C3.53744 43.669 3.31051 43.4704 3.15086 43.2157C2.9912 42.961 2.90598 42.6615 2.90598 42.3551C2.90598 41.9443 3.05907 41.5503 3.33155 41.2598C3.60404 40.9693 3.97362 40.8061 4.35897 40.8061Z" fill="black"/>
<path d="M13.0769 56.3394C21.0597 56.3394 26.1538 53.587 26.1538 51.6924V47.0026C25.4365 47.4817 24.6789 47.8885 23.8908 48.2178C20.9788 49.4595 17.1384 50.1434 13.0769 50.1434C9.01545 50.1434 5.17501 49.4595 2.26303 48.2178C1.47492 47.8885 0.717299 47.4817 0 47.0026V51.6924C0 53.587 5.09419 56.3394 13.0769 56.3394ZM4.35897 50.1434C4.64635 50.1434 4.92727 50.2342 5.16621 50.4044C5.40516 50.5746 5.59139 50.8166 5.70136 51.0996C5.81134 51.3827 5.84011 51.6941 5.78405 51.9946C5.72798 52.2951 5.5896 52.5711 5.38639 52.7877C5.18319 53.0043 4.92429 53.1519 4.64244 53.2116C4.36059 53.2714 4.06844 53.2407 3.80294 53.1235C3.53744 53.0063 3.31051 52.8077 3.15086 52.553C2.9912 52.2982 2.90598 51.9988 2.90598 51.6924C2.90598 51.2816 3.05907 50.8876 3.33155 50.5971C3.60404 50.3066 3.97362 50.1434 4.35897 50.1434Z" fill="black"/>
<path d="M13.0769 37.6666C20.2991 37.6666 26.1538 35.5765 26.1538 32.9981C26.1538 30.4198 20.2991 28.3297 13.0769 28.3297C5.85474 28.3297 0 30.4198 0 32.9981C0 35.5765 5.85474 37.6666 13.0769 37.6666Z" fill="black"/>
<path d="M55.0548 23.7621C56.9167 23.7621 58.4261 22.2445 58.4261 20.3724C58.4261 18.5004 56.9167 16.9828 55.0548 16.9828C53.1929 16.9828 51.6836 18.5004 51.6836 20.3724C51.6836 22.2445 53.1929 23.7621 55.0548 23.7621Z" fill="black"/>
<path d="M72.6765 58.7079C67.1645 54.0392 61.0875 51.672 54.6137 51.672C48.14 51.672 42.063 54.0392 36.551 58.7079C34.3929 60.5378 32.4521 62.6155 30.7676 64.8992C32.4522 67.1829 34.3931 69.2606 36.5512 71.0905C42.063 75.7593 48.14 78.1265 54.6137 78.1265C61.0875 78.1265 67.1645 75.7593 72.6765 71.0905C74.8346 69.2606 76.7754 67.1829 78.4599 64.8992C76.7754 62.6155 74.8346 60.5378 72.6765 58.7079ZM54.6137 74.3473C52.7687 74.3473 50.9652 73.7931 49.4311 72.755C47.897 71.7168 46.7014 70.2412 45.9953 68.5148C45.2893 66.7884 45.1046 64.8887 45.4645 63.056C45.8244 61.2233 46.7129 59.5398 48.0175 58.2185C49.3221 56.8971 50.9843 55.9973 52.7938 55.6327C54.6034 55.2682 56.479 55.4553 58.1836 56.1704C59.8881 56.8855 61.3451 58.0965 62.3701 59.6502C63.3951 61.2039 63.9422 63.0306 63.9422 64.8992C63.9394 67.4041 62.9557 69.8056 61.2069 71.5769C59.4581 73.3481 57.0869 74.3444 54.6137 74.3473Z" fill="black"/>
<path d="M69.5249 15.7961C69.2313 14.8546 68.8468 13.9442 68.3768 13.078C68.2024 12.7567 68.1361 12.3872 68.188 12.0248C68.2398 11.6624 68.407 11.3266 68.6644 11.0677L71.2078 8.51004L66.849 4.12742L64.3052 6.68555C64.0477 6.94441 63.7138 7.11248 63.3534 7.16461C62.993 7.21674 62.6255 7.15012 62.3059 6.97473C61.4443 6.50223 60.5389 6.11559 59.6025 5.82034C59.26 5.71242 58.9606 5.49734 58.7481 5.20644C58.5355 4.91554 58.4209 4.56401 58.4209 4.20305V0.0358887H51.6785V4.20305C51.6785 4.56401 51.5638 4.91554 51.3513 5.20644C51.1388 5.49734 50.8394 5.71242 50.4968 5.82034C49.5604 6.11559 48.655 6.50223 47.7935 6.97473C47.4739 7.15012 47.1064 7.21674 46.746 7.16461C46.3856 7.11248 46.0517 6.94441 45.7942 6.68555L43.2504 4.12742L38.8916 8.51004L41.4358 11.0677C41.6932 11.3266 41.8604 11.6624 41.9122 12.0248C41.9641 12.3872 41.8978 12.7567 41.7234 13.078C41.2535 13.9442 40.8689 14.8546 40.5753 15.7961C40.4679 16.1406 40.254 16.4415 39.9647 16.6552C39.6754 16.8689 39.3258 16.9842 38.9668 16.9842H34.8223V23.7635H38.9668C39.3258 23.7635 39.6754 23.8788 39.9647 24.0925C40.254 24.3061 40.4679 24.6071 40.5753 24.9516C40.8689 25.8931 41.2535 26.8034 41.7234 27.6697C41.8978 27.991 41.9641 28.3605 41.9122 28.7229C41.8604 29.0853 41.6932 29.4211 41.4358 29.6799L38.8916 32.2377L43.2504 36.6203L45.7942 34.0621C46.0517 33.8033 46.3856 33.6352 46.746 33.5831C47.1064 33.531 47.4739 33.5976 47.7935 33.773C48.655 34.2455 49.5604 34.6321 50.4968 34.9274C50.8394 35.0353 51.1388 35.2504 51.3513 35.5413C51.5638 35.8322 51.6785 36.1837 51.6785 36.5446V40.7118H58.4209V36.5446C58.4209 36.1837 58.5355 35.8322 58.7481 35.5413C58.9606 35.2504 59.26 35.0353 59.6025 34.9274C60.5389 34.6321 61.4443 34.2455 62.3059 33.773C62.6255 33.5976 62.993 33.531 63.3534 33.5831C63.7138 33.6352 64.0477 33.8033 64.3052 34.0621L66.849 36.6203L71.2078 32.2377L68.6636 29.6799C68.4061 29.4211 68.239 29.0853 68.1871 28.7229C68.1353 28.3605 68.2015 27.991 68.376 27.6697C68.8459 26.8034 69.2305 25.8931 69.5241 24.9516C69.6314 24.6071 69.8454 24.3061 70.1347 24.0925C70.424 23.8788 70.7736 23.7635 71.1326 23.7635H75.2771V16.9842H71.1326C70.7738 16.984 70.4243 16.8687 70.1352 16.655C69.846 16.4413 69.6322 16.1404 69.5249 15.7961ZM55.0497 33.9325C52.3826 33.9325 49.7754 33.1373 47.5579 31.6474C45.3403 30.1576 43.6119 28.04 42.5912 25.5625C41.5706 23.085 41.3035 20.3588 41.8238 17.7287C42.3442 15.0986 43.6285 12.6827 45.5144 10.7864C47.4003 8.89023 49.8031 7.5989 52.4189 7.07573C55.0347 6.55257 57.7461 6.82108 60.2102 7.8473C62.6742 8.87352 64.7803 10.6114 66.262 12.8411C67.7438 15.0708 68.5346 17.6922 68.5346 20.3738C68.5306 23.9686 67.1086 27.4149 64.5806 29.9568C62.0525 32.4987 58.6249 33.9285 55.0497 33.9325Z" fill="black"/>
<path d="M55.0493 10.2047C53.049 10.2047 51.0936 10.8011 49.4304 11.9185C47.7672 13.0359 46.4709 14.6241 45.7054 16.4822C44.9399 18.3403 44.7396 20.385 45.1299 22.3576C45.5201 24.3301 46.4834 26.1421 47.8978 27.5642C49.3122 28.9864 51.1143 29.9549 53.0762 30.3473C55.038 30.7396 57.0716 30.5383 58.9196 29.7686C60.7677 28.9989 62.3472 27.6956 63.4585 26.0233C64.5698 24.351 65.163 22.3849 65.163 20.3737C65.16 17.6776 64.0935 15.0928 62.1975 13.1864C60.3014 11.28 57.7307 10.2077 55.0493 10.2047ZM55.0493 27.153C53.7157 27.153 52.4121 26.7554 51.3033 26.0105C50.1945 25.2656 49.3304 24.2068 48.82 22.968C48.3097 21.7293 48.1762 20.3662 48.4363 19.0511C48.6965 17.7361 49.3387 16.5281 50.2816 15.58C51.2246 14.6319 52.426 13.9862 53.7339 13.7246C55.0418 13.4631 56.3975 13.5973 57.6295 14.1104C58.8615 14.6235 59.9146 15.4924 60.6554 16.6073C61.3963 17.7222 61.7917 19.0329 61.7917 20.3737C61.7897 22.1711 61.0787 23.8942 59.8147 25.1652C58.5507 26.4361 56.8369 27.151 55.0493 27.153Z" fill="black"/>
<path d="M54.617 59.4523C53.5521 59.4523 52.511 59.7717 51.6255 60.3702C50.74 60.9686 50.0499 61.8193 49.6423 62.8145C49.2348 63.8097 49.1281 64.9048 49.3359 65.9613C49.5437 67.0179 50.0565 67.9883 50.8095 68.75C51.5626 69.5117 52.522 70.0305 53.5666 70.2406C54.6111 70.4508 55.6937 70.3429 56.6776 69.9307C57.6615 69.5185 58.5025 68.8204 59.0942 67.9247C59.6858 67.029 60.0017 65.976 60.0017 64.8988C60 63.4548 59.4321 62.0704 58.4227 61.0494C57.4132 60.0283 56.0446 59.454 54.617 59.4523ZM54.617 66.7143C54.262 66.7143 53.915 66.6078 53.6199 66.4083C53.3247 66.2088 53.0946 65.9253 52.9588 65.5935C52.8229 65.2618 52.7874 64.8968 52.8567 64.5446C52.9259 64.1924 53.0969 63.8689 53.3479 63.615C53.5989 63.3611 53.9187 63.1882 54.2669 63.1182C54.615 63.0481 54.9759 63.0841 55.3039 63.2215C55.6319 63.3589 55.9122 63.5916 56.1094 63.8901C56.3066 64.1887 56.4119 64.5397 56.4119 64.8988C56.4119 65.3803 56.2228 65.8421 55.8862 66.1825C55.5496 66.523 55.0931 66.7143 54.617 66.7143Z" fill="black"/>
<path d="M33.2208 14.502C31.7869 15.1388 30.328 15.9878 28.999 16.8368C29.0689 16.8015 28.999 15.9878 28.999 15.8817C28.999 15.7755 28.8941 14.9972 28.999 14.9265C29.4886 14.6081 29.9783 14.3251 30.4679 14.0421C28.0197 14.0774 25.5365 14.5373 23.333 15.6694C22.1789 16.2708 21.1296 17.0137 20.2203 17.9335C19.241 18.9241 18.2967 20.1623 18.1917 21.5774C18.2267 20.9406 18.1568 20.3038 18.1917 19.7024C18.2967 18.3227 19.206 17.1199 20.1503 16.1293C21.0597 15.1741 22.1789 14.3958 23.333 13.7944C25.4315 12.7331 27.7049 12.2732 30.0133 12.2025C29.5936 11.8487 29.1389 11.4949 28.7192 11.1058C28.6143 10.9997 28.7192 10.2921 28.7192 10.1506C28.7192 10.0091 28.8241 9.30157 28.7192 9.19543C30.0482 10.4336 31.5172 11.4949 33.091 12.4147C33.161 12.4501 34.0952 13.0869 34.0952 13.0869L34.445 13.2638C34.6198 13.4407 34.6198 13.4407 34.6198 13.4407C34.7947 13.4407 33.6304 14.219 33.2208 14.502Z" fill="black"/>
<path d="M19.3693 68.3625C20.8019 69.0024 22.4061 69.5176 23.9226 69.9359C23.8496 69.9076 23.3035 70.5092 23.2261 70.5808C23.1487 70.6525 22.652 71.2563 22.5295 71.2258C21.9667 71.0754 21.4297 70.9012 20.8927 70.727C22.5716 72.5297 24.5837 74.0719 26.897 74.9515C28.1149 75.4065 29.3652 75.6877 30.6499 75.7451C32.0335 75.8069 33.5741 75.6754 34.6768 74.7982C34.1888 75.2021 33.7717 75.6843 33.3095 76.0643C32.2326 76.9176 30.7414 77.0513 29.3814 77.0156C28.0709 76.982 26.7476 76.6725 25.5297 76.2175C23.3389 75.3684 21.4685 73.9828 19.8582 72.3083C19.8836 72.8603 19.9327 73.4384 19.9323 74.0143C19.9257 74.1643 19.3389 74.5637 19.2357 74.6593C19.1325 74.7548 18.5457 75.1543 18.5392 75.3042C18.5447 73.4766 18.3268 71.664 17.9348 69.8687C17.9134 69.7926 17.747 68.6656 17.747 68.6656L17.6398 68.2852C17.6507 68.0353 17.6507 68.0353 17.6507 68.0353C17.5326 67.9048 18.8863 68.248 19.3693 68.3625Z" fill="black"/>
<path d="M72.2996 51.6971C72.4144 50.1173 72.3554 48.4159 72.2357 46.8305C72.2338 46.9096 72.9775 47.2279 73.0702 47.2776C73.1629 47.3272 73.892 47.5977 73.9047 47.7246C73.9537 48.3113 73.9718 48.8815 73.9899 49.4516C75.1048 47.2466 75.8652 44.8117 75.9075 42.3123C75.9222 40.9992 75.7643 39.7136 75.3863 38.4702C74.9792 37.1312 74.3394 35.7076 73.1522 34.9515C73.6922 35.2808 74.2812 35.5164 74.7903 35.8291C75.9466 36.5686 76.5718 37.9444 76.9953 39.2521C77.4042 40.512 77.5603 41.8767 77.5456 43.1899C77.4906 45.5624 76.8284 47.8097 75.8099 49.9062C76.3154 49.6966 76.8373 49.4558 77.3737 49.2627C77.5155 49.2186 78.0845 49.6436 78.2082 49.7098C78.3318 49.776 78.9009 50.201 79.0427 50.1568C77.3389 50.7653 75.7241 51.5816 74.1839 52.558C74.1203 52.6039 73.1267 53.141 73.1267 53.141L72.8084 53.3708C72.5721 53.4443 72.5721 53.4443 72.5721 53.4443C72.4902 53.6007 72.3552 52.1957 72.2996 51.6971Z" fill="black"/>
</g>
<defs>
<clipPath id="clip0_7380_55954">
<rect width="80" height="80" fill="white"/>
</clipPath>
</defs>
</svg>
