<svg width="56" height="53" viewBox="0 0 56 53" fill="none" xmlns="http://www.w3.org/2000/svg">
<mask id="mask0_7200_56038" style="mask-type:alpha" maskUnits="userSpaceOnUse" x="0" y="0" width="56" height="53">
<rect width="56" height="53" fill="#D9D9D9"/>
</mask>
<g mask="url(#mask0_7200_56038)">
</g>
<g clip-path="url(#clip0_7200_56038)">
<path fill-rule="evenodd" clip-rule="evenodd" d="M51.641 13.3415C51.6586 13.4083 51.6677 13.4772 51.6678 13.5465V24.3075C51.6678 24.4456 51.6322 24.5813 51.5644 24.7008C51.4966 24.8203 51.3992 24.9194 51.2819 24.9881L42.4413 30.1882V40.4951C42.4413 40.7756 42.2954 41.0345 42.0573 41.1757L23.6032 52.0289C23.561 52.0534 23.5149 52.0691 23.4688 52.0858C23.4515 52.0917 23.4352 52.1025 23.417 52.1074C23.288 52.1421 23.1524 52.1421 23.0234 52.1074C23.0022 52.1015 22.983 52.0897 22.9629 52.0819C22.9206 52.0662 22.8765 52.0524 22.8362 52.0289L4.38592 41.1757C4.26871 41.1069 4.17132 41.0078 4.10357 40.8883C4.03582 40.7688 4.00009 40.6332 4 40.4951V8.21207C4 8.14145 4.0096 8.0728 4.02688 8.0061C4.03264 7.98355 4.04608 7.96295 4.05376 7.94039C4.06816 7.8992 4.0816 7.85703 4.10272 7.81878C4.11712 7.79328 4.13824 7.77268 4.15552 7.74914C4.1776 7.71776 4.19776 7.68539 4.22368 7.65793C4.24576 7.63537 4.27456 7.6187 4.29952 7.59909C4.32736 7.57555 4.35232 7.55005 4.384 7.53141L13.6106 2.10482C13.7274 2.03614 13.8598 2 13.9946 2C14.1293 2 14.2617 2.03614 14.3786 2.10482L23.6042 7.53141H23.6061C23.6368 7.55103 23.6627 7.57555 23.6906 7.5981C23.7155 7.61772 23.7434 7.63537 23.7654 7.65695C23.7923 7.68539 23.8115 7.71776 23.8346 7.74914C23.8509 7.77268 23.873 7.79328 23.8864 7.81878C23.9085 7.85801 23.921 7.8992 23.9363 7.94039C23.944 7.96295 23.9574 7.98355 23.9632 8.00709C23.9809 8.07392 23.9899 8.14283 23.9901 8.21207V28.3757L31.6778 23.8534V13.5455C31.6778 13.4768 31.6874 13.4072 31.7046 13.3415C31.7114 13.318 31.7238 13.2974 31.7315 13.2748C31.7469 13.2336 31.7603 13.1914 31.7814 13.1532C31.7958 13.1277 31.817 13.1071 31.8333 13.0835C31.8563 13.0522 31.8755 13.0198 31.9024 12.9923C31.9245 12.9698 31.9523 12.9531 31.9773 12.9335C32.0061 12.91 32.031 12.8845 32.0618 12.8658L41.2893 7.43922C41.4061 7.37045 41.5385 7.33425 41.6733 7.33425C41.8081 7.33425 41.9405 7.37045 42.0573 7.43922L51.2829 12.8658C51.3155 12.8854 51.3405 12.91 51.3693 12.9325C51.3933 12.9521 51.4211 12.9698 51.4432 12.9914C51.4701 13.0198 51.4893 13.0522 51.5123 13.0835C51.5296 13.1071 51.5507 13.1277 51.5642 13.1532C51.5862 13.1914 51.5987 13.2336 51.6141 13.2748C51.6227 13.2974 51.6352 13.318 51.641 13.3415ZM50.1299 23.8534V14.9048L46.9014 16.8036L42.4413 19.4272V28.3757L50.1309 23.8534H50.1299ZM40.9043 40.041V31.0865L36.5171 33.6464L23.9891 40.9511V49.9899L40.9043 40.041ZM5.53792 9.57043V40.041L22.4512 49.9889V40.9521L13.6154 35.8433L13.6125 35.8413L13.6086 35.8394C13.5789 35.8217 13.5539 35.7962 13.5261 35.7746C13.5021 35.755 13.4742 35.7393 13.4531 35.7177L13.4512 35.7148C13.4262 35.6903 13.409 35.6599 13.3878 35.6324C13.3686 35.6059 13.3456 35.5834 13.3302 35.5559L13.3293 35.553C13.312 35.5235 13.3014 35.4882 13.289 35.4549C13.2765 35.4255 13.2602 35.398 13.2525 35.3666C13.2429 35.3294 13.241 35.2891 13.2371 35.2509C13.2333 35.2215 13.2256 35.192 13.2256 35.1626V35.1607V14.0928L8.7664 11.4682L5.53792 9.57043ZM13.9955 3.6917L6.3088 8.21207L13.9936 12.7324L21.6794 8.21109L13.9936 3.6917H13.9955ZM17.993 31.9025L22.4522 29.28V9.57043L19.2237 11.4692L14.7635 14.0928V33.8023L17.993 31.9025ZM41.6733 9.0261L33.9875 13.5465L41.6733 18.0668L49.3581 13.5455L41.6733 9.0261ZM40.9043 19.4272L36.4442 16.8036L33.2157 14.9048V23.8534L37.6749 26.4759L40.9043 28.3757V19.4272ZM23.2192 39.5928L34.4925 33.0177L40.1277 29.7321L32.4477 25.2147L23.6051 30.4157L15.5459 35.1558L23.2192 39.5928Z" fill="black"/>
</g>
<defs>
<clipPath id="clip0_7200_56038">
<rect width="48" height="51" fill="white" transform="translate(4 2)"/>
</clipPath>
</defs>
</svg>
