<svg width="76" height="76" viewBox="0 0 76 76" fill="none" xmlns="http://www.w3.org/2000/svg">
<mask id="mask0_7039_77625" style="mask-type:alpha" maskUnits="userSpaceOnUse" x="-1" y="-1" width="78" height="78">
<rect width="76" height="76" fill="white" stroke="white" stroke-width="2"/>
</mask>
<g mask="url(#mask0_7039_77625)">
<path d="M41.8348 12.9206L41.3742 15.6842C41.3573 15.7701 41.3652 15.859 41.397 15.9406C41.4288 16.0222 41.4832 16.093 41.5538 16.1448C41.6235 16.1962 41.7063 16.2269 41.7927 16.2334C41.879 16.24 41.9655 16.222 42.0421 16.1816L44.5017 14.8597L46.9797 16.1632C47.0563 16.2036 47.1428 16.2215 47.2291 16.215C47.3155 16.2085 47.3982 16.1778 47.4679 16.1263C47.5386 16.0746 47.593 16.0038 47.6248 15.9222C47.6566 15.8406 47.6645 15.7517 47.6476 15.6658L47.187 12.9022L49.1906 10.9492C49.2506 10.8906 49.2934 10.8168 49.3145 10.7356C49.3357 10.6544 49.3342 10.569 49.3103 10.4886C49.2836 10.4068 49.2345 10.334 49.1686 10.2787C49.1026 10.2233 49.0225 10.1875 48.9372 10.1754L46.1737 9.77009L44.9162 7.25983C44.8785 7.18195 44.8196 7.11628 44.7463 7.07033C44.673 7.02437 44.5882 7 44.5017 7C44.4152 7 44.3304 7.02437 44.2571 7.07033C44.1837 7.11628 44.1249 7.18195 44.0871 7.25983L42.8481 9.76548L40.0845 10.1708C39.9993 10.1829 39.9191 10.2187 39.8532 10.2741C39.7873 10.3294 39.7381 10.4022 39.7115 10.484C39.6876 10.5644 39.6861 10.6498 39.7072 10.731C39.7283 10.8122 39.7712 10.886 39.8312 10.9446L41.8348 12.9206ZM43.2166 10.6544C43.2904 10.6434 43.3604 10.6145 43.4206 10.5704C43.4808 10.5263 43.5293 10.4682 43.5621 10.4011L44.4833 8.50805L45.4045 10.4011C45.4372 10.4682 45.4858 10.5263 45.5459 10.5704C45.6061 10.6145 45.6761 10.6434 45.7499 10.6544L47.841 10.9584L46.3441 12.4277C46.2916 12.48 46.2524 12.5441 46.23 12.6146C46.2075 12.6852 46.2024 12.7601 46.2151 12.8331L46.5698 14.915L44.7182 13.9109C44.6509 13.8776 44.5768 13.8603 44.5017 13.8603C44.4266 13.8603 44.3525 13.8776 44.2852 13.9109L42.4198 14.8966L42.7744 12.8146C42.7871 12.7417 42.782 12.6668 42.7595 12.5962C42.7371 12.5256 42.698 12.4615 42.6455 12.4093L41.1301 10.9354L43.2166 10.6544ZM53.6215 15.7533L53.1609 18.5169C53.1445 18.6032 53.1531 18.6925 53.1857 18.7741C53.2184 18.8557 53.2737 18.9263 53.3452 18.9775C53.4119 19.0236 53.4896 19.0513 53.5705 19.0578C53.6514 19.0643 53.7326 19.0493 53.8058 19.0143L56.2884 17.7108L58.7802 18.9775C58.8479 19.0099 58.9217 19.0272 58.9967 19.0281C59.0644 19.0291 59.1315 19.0152 59.1931 18.9873C59.2548 18.9594 59.3096 18.9183 59.3536 18.8668C59.3975 18.8154 59.4296 18.7549 59.4476 18.6896C59.4655 18.6243 59.4688 18.5559 59.4573 18.4892L58.9967 15.7256L61.0003 13.7681C61.0603 13.7095 61.1032 13.6356 61.1243 13.5545C61.1454 13.4733 61.1439 13.3879 61.1201 13.3075C61.0941 13.2248 61.0453 13.1511 60.9793 13.0948C60.9133 13.0386 60.8328 13.0022 60.747 12.9897L57.9834 12.589L56.7444 10.0787C56.7067 10.0008 56.6478 9.93514 56.5745 9.88919C56.5012 9.84324 56.4164 9.81886 56.3298 9.81886C56.2433 9.81886 56.1585 9.84324 56.0852 9.88919C56.0119 9.93514 55.953 10.0008 55.9153 10.0787L54.6348 12.6028L51.8713 12.9897C51.7855 13.0022 51.7049 13.0386 51.6389 13.0948C51.5729 13.1511 51.5241 13.2248 51.4982 13.3075C51.4743 13.3879 51.4728 13.4733 51.494 13.5545C51.5151 13.6356 51.5579 13.7095 51.6179 13.7681L53.6215 15.7533ZM55.0033 13.4825C55.0767 13.4719 55.1464 13.4438 55.2065 13.4005C55.2666 13.3572 55.3155 13.3 55.3488 13.2338L56.27 11.3407L57.1912 13.2338C57.2245 13.3 57.2733 13.3572 57.3334 13.4005C57.3936 13.4438 57.4633 13.4719 57.5366 13.4825L59.6277 13.7865L58.1124 15.2604C58.0592 15.3131 58.0196 15.378 57.9971 15.4494C57.9747 15.5209 57.97 15.5967 57.9834 15.6704L58.3381 17.7477L56.468 16.7666C56.403 16.7315 56.33 16.7141 56.2562 16.7159C56.1809 16.7149 56.1066 16.7323 56.0397 16.7666L54.1973 17.7477L54.5519 15.6704C54.5654 15.5967 54.5607 15.5209 54.5382 15.4494C54.5157 15.378 54.4762 15.3131 54.423 15.2604L52.9076 13.7865L55.0033 13.4825ZM30.0297 15.7533L29.5691 18.5169C29.5536 18.6041 29.5636 18.694 29.5979 18.7757C29.6322 18.8574 29.6894 18.9274 29.7625 18.9775C29.8325 19.0179 29.912 19.0392 29.9928 19.0392C30.0737 19.0392 30.1531 19.0179 30.2231 18.9775L32.7011 17.674L35.1884 18.9775C35.2539 19.011 35.3266 19.0284 35.4003 19.0281C35.4978 19.0285 35.593 18.9978 35.672 18.9406C35.7435 18.8894 35.7988 18.8188 35.8314 18.7372C35.8641 18.6556 35.8727 18.5664 35.8562 18.48L35.3956 15.7164L37.3992 13.7589C37.4593 13.7003 37.5021 13.6264 37.5232 13.5452C37.5443 13.4641 37.5429 13.3787 37.519 13.2983C37.4906 13.2153 37.4391 13.1423 37.3705 13.0876C37.302 13.0329 37.2193 12.999 37.1321 12.9897L34.3685 12.589L33.1295 10.0787C33.0918 10.0008 33.0329 9.93514 32.9596 9.88919C32.8863 9.84324 32.8015 9.81886 32.715 9.81886C32.6284 9.81886 32.5437 9.84324 32.4703 9.88919C32.397 9.93514 32.3381 10.0008 32.3004 10.0787L31.0522 12.6028L28.2886 13.0035C28.2028 13.016 28.1223 13.0524 28.0563 13.1087C27.9903 13.1649 27.9415 13.2386 27.9155 13.3213C27.8917 13.4017 27.8902 13.4871 27.9113 13.5683C27.9324 13.6494 27.9753 13.7233 28.0353 13.7819L30.0297 15.7533ZM31.4115 13.4825C31.4848 13.4719 31.5545 13.4438 31.6146 13.4005C31.6748 13.3572 31.7236 13.3 31.7569 13.2338L32.6781 11.3407L33.5993 13.2338C33.6326 13.3 33.6814 13.3572 33.7416 13.4005C33.8017 13.4438 33.8714 13.4719 33.9448 13.4825L36.0359 13.7865L34.5205 15.2604C34.4673 15.3131 34.4278 15.378 34.4053 15.4494C34.3828 15.5209 34.3781 15.5967 34.3915 15.6704L34.7462 17.7477L32.8808 16.7666C32.8138 16.7323 32.7395 16.7149 32.6643 16.7159C32.5905 16.7141 32.5174 16.7315 32.4524 16.7666L30.5824 17.7477L30.9371 15.6704C30.9505 15.5967 30.9458 15.5209 30.9233 15.4494C30.9008 15.378 30.8613 15.3131 30.8081 15.2604L29.2927 13.7865L31.4115 13.4825Z" fill="black" stroke="black"/>
<path d="M41.0816 48.554H16.9288C15.8636 48.554 15 49.4176 15 50.4827V67.2946C15 67.6832 15.3095 67.9926 15.6981 67.9926H42.3193C42.7007 67.9926 43.0174 67.6832 43.0174 67.2946V50.4827C43.0174 49.4176 42.1396 48.554 41.0816 48.554ZM41.6214 66.5965H16.3963V50.4829C16.3963 50.1879 16.6338 49.9504 16.9288 49.9504H41.0817C41.3767 49.9504 41.6214 50.1879 41.6214 50.4829L41.6214 66.5965Z" fill="black" stroke="black"/>
<path d="M23.7871 64.1928C23.5856 64.1928 23.3769 64.1065 23.2401 63.9338L19.0515 58.7087C18.85 58.4568 18.85 58.0898 19.0515 57.8379L23.2401 52.6129C23.4848 52.3106 23.9238 52.2674 24.2189 52.5049C24.5212 52.7496 24.5643 53.1886 24.3268 53.4837L20.4909 58.2698L24.3341 63.0559C24.5716 63.3581 24.5284 63.7972 24.2261 64.0346C24.0966 64.1426 23.9454 64.1928 23.7871 64.1928Z" fill="black" stroke="black"/>
<path d="M34.215 64.1927C34.0638 64.1927 33.9055 64.1423 33.776 64.0416C33.4737 63.7969 33.4305 63.3579 33.668 63.0628L37.5112 58.2767L33.668 53.4906C33.4305 53.1884 33.4737 52.7493 33.776 52.5119C34.0782 52.2672 34.5173 52.3175 34.7547 52.6198L38.9433 57.8448C39.1448 58.0967 39.1448 58.4638 38.9433 58.7157L34.7547 63.9407C34.6252 64.1062 34.4237 64.1927 34.215 64.1927Z" fill="black" stroke="black"/>
<path d="M26.7883 64.1923C26.6948 64.1923 26.6084 64.1708 26.5148 64.1348C26.1622 63.9836 25.9967 63.5734 26.1478 63.2208L30.5811 52.7707C30.7322 52.4181 31.1424 52.2525 31.4951 52.4037C31.8477 52.5548 32.0132 52.965 31.8621 53.3177L27.4289 63.7677C27.3137 64.034 27.0546 64.1923 26.7883 64.1923Z" fill="black" stroke="black"/>
<path d="M44.485 39.1691C40.1309 39.1691 36.5898 35.6283 36.5898 31.274C36.5898 26.9198 40.1307 23.3789 44.485 23.3789C48.8392 23.3789 52.3801 26.9198 52.3801 31.274C52.3801 35.6283 48.8392 39.1691 44.485 39.1691ZM44.485 24.7754C40.901 24.7754 37.9864 27.6902 37.9864 31.274C37.9864 34.8579 40.9011 37.7726 44.485 37.7726C48.0688 37.7726 50.9835 34.8579 50.9835 31.274C50.9835 27.6902 48.0688 24.7754 44.485 24.7754Z" fill="black" stroke="black"/>
<path d="M44.4777 43.53C39.8789 43.53 35.719 45.4588 32.7758 48.5533C32.3511 48.9923 31.9481 49.4601 31.5811 49.9495H33.4378C33.8768 49.4529 34.3518 48.9851 34.8556 48.5533C37.4393 46.3223 40.8074 44.9693 44.478 44.9693C52.6177 44.9693 59.2314 51.5904 59.2314 59.7227V66.5599H41.6209V66.5958H28.2852V67.2796C28.2852 67.6538 28.573 67.9561 28.9329 67.9921C28.9616 67.9993 28.9904 67.9993 29.0048 67.9993H59.9515C60.3545 67.9993 60.6712 67.6754 60.6712 67.2796V59.723C60.6712 50.7915 53.4168 43.5302 44.4784 43.5302L44.4777 43.53Z" fill="black" stroke="black"/>
</g>
</svg>
