<svg width="93" height="92" viewBox="0 0 93 92" fill="none" xmlns="http://www.w3.org/2000/svg">
<mask id="mask0_7374_57742" style="mask-type:alpha" maskUnits="userSpaceOnUse" x="0" y="0" width="93" height="92">
<rect x="0.375" width="92" height="92" fill="black"/>
</mask>
<g mask="url(#mask0_7374_57742)">
<path d="M21.2758 54.352L16.375 57.155L25.6119 73L30.5128 70.1969L21.2758 54.352ZM23.9658 55.7071L30.7168 67.285L33.6078 65.6325H60.7632L74.7444 54.9873C76.1018 53.9511 76.892 52.206 75.9889 50.6627C75.1244 49.1739 73.175 48.6613 71.6828 49.5175L60.3116 56.0181H56.1926C55.317 57.5505 53.6761 58.5376 51.8617 58.5376H40.9783L40.9755 56.9015H51.859C54.4553 56.9015 56.0935 54.0411 54.6233 51.8134C54.0065 50.8808 53.0098 50.3327 51.859 50.3327H33.3597L23.9658 55.7071ZM33.1781 24.1638C31.3169 22.3205 28.2992 22.3205 26.438 24.1638C24.5768 26.007 24.5768 28.9956 26.438 30.8389C28.2992 32.6821 31.3169 32.6821 33.1781 30.8389C35.0393 28.9929 35.0393 26.007 33.1781 24.1638ZM66.011 24.1638C64.1498 22.3205 61.1321 22.3205 59.2709 24.1638C57.4097 26.007 57.4097 28.9956 59.2709 30.8389C61.1321 32.6821 64.1498 32.6821 66.011 30.8389C67.8749 28.9929 67.8749 26.007 66.011 24.1638ZM50.6475 21.816C48.2054 19.3947 44.2434 19.3947 41.8011 21.816C39.3561 24.2346 39.3561 28.1611 41.8011 30.5828C44.2432 33.0042 48.2052 33.0042 50.6475 30.5828C53.0952 28.1642 53.0952 24.2377 50.6475 21.816ZM34.5877 41.9561V36.7944L34.775 36.5653C35.1825 36.0745 35.6285 35.6191 36.1213 35.2102C35.0916 34.5639 33.9077 34.2176 32.6604 34.2176H26.9556C25.9561 34.2176 25.0118 34.4412 24.1748 34.8393C23.3818 35.2156 22.6797 35.7446 22.1043 36.3853V41.9588L34.5877 41.9561ZM57.8637 37.0834V41.9588H70.3528V36.3853C69.7746 35.7418 69.0725 35.2128 68.2823 34.8393C67.4453 34.4412 66.4982 34.2176 65.5015 34.2176H59.7967C58.5577 34.2176 57.36 34.5694 56.3358 35.2102C56.8258 35.6192 57.2801 36.0773 57.6821 36.5653C57.9107 36.8517 57.8637 36.7234 57.8637 37.0834ZM56.2117 44.7319V37.378C55.4518 36.5108 54.5157 35.8019 53.4556 35.3029C52.3626 34.7848 51.1318 34.4958 49.8378 34.4958H42.6076C41.3135 34.4958 40.0828 34.7848 38.9898 35.3029C37.9325 35.8019 36.9964 36.5108 36.2337 37.378V44.7319H56.2117Z" fill="black"/>
</g>
</svg>
