<svg width="56" height="53" viewBox="0 0 56 53" fill="none" xmlns="http://www.w3.org/2000/svg">
<mask id="mask0_7200_56078" style="mask-type:alpha" maskUnits="userSpaceOnUse" x="0" y="0" width="56" height="53">
<rect width="56" height="53" fill="#D9D9D9"/>
</mask>
<g mask="url(#mask0_7200_56078)">
<path d="M16.342 13.8693C19.1078 10.7584 22.8483 8.67942 26.9505 7.97299C31.0527 7.26657 35.2732 7.97466 38.9202 9.98121C42.5673 11.9878 45.4245 15.1737 47.0235 19.0169C48.6226 22.8601 48.8687 27.1325 47.7214 31.1338C46.5741 35.1352 44.1016 38.6281 40.709 41.0401C37.3165 43.4521 33.2052 44.64 29.049 44.4092C24.8928 44.1784 20.9383 42.5426 17.8337 39.7698C14.7291 36.997 12.6585 33.2518 11.9613 29.148L19.5368 27.861C19.9423 30.2478 21.1466 32.426 22.9522 34.0386C24.7579 35.6513 27.0578 36.6027 29.475 36.7369C31.8923 36.8712 34.2834 36.1802 36.2565 34.7774C38.2296 33.3746 39.6676 31.3432 40.3349 29.016C41.0022 26.6888 40.859 24.204 39.929 21.9688C38.999 19.7336 37.3373 17.8806 35.2162 16.7136C33.095 15.5466 30.6404 15.1348 28.2546 15.5456C25.8687 15.9565 23.6932 17.1656 22.0847 18.9749L16.342 13.8693Z" fill="black"/>
<path d="M16.3042 13.8244C18.8155 10.9996 22.1372 9.01845 25.816 8.15121C29.4948 7.28398 33.3516 7.57292 36.8602 8.97862C40.3687 10.3843 43.3581 12.8383 45.4205 16.0057C47.4828 19.1732 48.5177 22.8998 48.3838 26.6771L40.7045 26.405C40.7824 24.2081 40.1805 22.0407 38.981 20.1985C37.7816 18.3563 36.043 16.9291 34.0024 16.1115C31.9618 15.294 29.7187 15.1259 27.5791 15.6303C25.4395 16.1347 23.5076 17.2869 22.047 18.9298L16.3042 13.8244Z" fill="#1F1F1F"/>
<path d="M11.52 25.4862L11.0543 8.50853L28.1709 22.1387L11.52 25.4862Z" fill="url(#paint0_linear_7200_56078)"/>
</g>
<defs>
<linearGradient id="paint0_linear_7200_56078" x1="11.058" y1="13.5439" x2="24.8818" y2="25.1246" gradientUnits="userSpaceOnUse">
<stop stop-color="#1F1F1F"/>
<stop offset="1"/>
</linearGradient>
</defs>
</svg>
