<svg width="76" height="76" viewBox="0 0 76 76" fill="none" xmlns="http://www.w3.org/2000/svg">
<mask id="mask0_7039_77641" style="mask-type:alpha" maskUnits="userSpaceOnUse" x="-1" y="-1" width="78" height="78">
<rect width="76" height="76" fill="white" stroke="white" stroke-width="2"/>
</mask>
<g mask="url(#mask0_7039_77641)">
<path d="M68.0012 46.8904C66.7576 45.5647 64.8452 45.1423 63.1439 45.7993C61.1845 46.5502 58.9553 47.8526 56.5383 49.6711C55.4941 50.4572 54.1684 51.0321 52.7134 51.4544C52.9833 50.0582 52.6782 48.2045 51.3407 47.1837C50.8245 46.7966 50.2144 46.5736 49.4869 46.5032C45.8615 46.1865 40.6286 44.7082 34.7386 42.3499C27.0187 39.2642 18.1604 46.5267 17.7849 46.8318C17.7145 46.8905 17.6676 46.9726 17.6207 47.043L16.9754 45.9284C16.8228 45.6585 16.5647 45.4591 16.2597 45.377C15.9546 45.2948 15.6378 45.3418 15.368 45.4943L6.43911 50.6567C5.87594 50.9852 5.68822 51.7009 6.005 52.264L15.3446 68.4315C15.4971 68.7014 15.7553 68.9008 16.0603 68.983C16.1542 69.0064 16.2598 69.0182 16.3654 69.0182C16.5648 69.0182 16.776 68.9595 16.952 68.8656L25.8809 63.7033C26.444 63.3747 26.6318 62.6591 26.315 62.0959L25.5876 60.8288C28.4738 59.679 31.9467 60.2539 36.2292 60.9695C39.2562 61.4741 42.5649 62.0372 46.1906 62.0372C47.4929 62.0372 48.8304 61.9668 50.2149 61.7909C57.8996 60.8405 64.0006 56.605 67.7791 53.2021C68.6943 52.3574 69.2222 51.1724 69.2222 49.9287C69.2222 48.7789 68.7881 47.6994 68.002 46.8782L68.0012 46.8904ZM16.7993 66.238L8.63333 52.1001L15.5322 48.111L22.912 60.8882V60.9234L22.9355 60.9469L23.6864 62.2492L16.7876 66.2384L16.7993 66.238ZM66.2059 51.4784C63.3314 54.0596 57.3949 58.5415 49.9325 59.4687C45.0517 60.0788 40.5696 59.3279 36.6274 58.6591C32.0165 57.8848 27.9688 57.216 24.4134 58.7764L18.6995 48.8737C18.9224 48.8502 19.1336 48.7798 19.3096 48.6273C19.3917 48.5569 27.4403 41.9397 33.8815 44.5208C39.9708 46.9612 45.4497 48.4864 49.2981 48.8267C49.4036 48.8267 49.697 48.8619 49.9316 49.0379C50.3775 49.3782 50.5887 50.2698 50.4127 51.0559C50.4127 51.0677 50.4127 51.0911 50.4009 51.1029C50.2836 51.537 49.9434 51.9124 49.4975 52.1236C44.2882 52.8862 38.8326 52.2996 38.7507 52.2996C38.1054 52.2292 37.5305 52.6985 37.4601 53.3321C37.3897 53.9774 37.8473 54.5523 38.4926 54.6227C38.7859 54.6579 42.5756 55.0568 46.9754 54.7401H46.9872C50.8355 54.4585 55.1299 53.6372 57.9457 51.5253C60.7381 49.4252 62.7679 48.4279 63.9881 47.9703C64.7976 47.6535 65.701 47.853 66.2994 48.4865C66.6748 48.8737 66.8743 49.3899 66.8743 49.9297C66.8743 50.5163 66.6279 51.0677 66.2055 51.4667L66.2059 51.4784Z" fill="black"/>
<path d="M37.5534 20.1497C41.4486 20.1497 44.6282 16.9818 44.6282 13.0748C44.6282 9.16787 41.4603 6 37.5534 6C33.6464 6 30.4785 9.16787 30.4785 13.0748C30.4785 16.9818 33.6464 20.1497 37.5534 20.1497ZM37.5534 8.35841C40.1581 8.35841 42.2817 10.482 42.2817 13.0867C42.2817 15.6914 40.1581 17.815 37.5534 17.815C34.9487 17.815 32.8251 15.6914 32.8251 13.0867C32.8251 10.482 34.9487 8.35841 37.5534 8.35841Z" fill="black"/>
<path d="M24.4687 38.849C25.114 38.9663 25.7124 38.544 25.8297 37.8987L27.3315 29.5217C27.7773 26.1075 30.7105 23.5263 34.16 23.5263H40.965C44.4144 23.5263 47.3476 26.1075 47.8052 29.5803L49.3069 37.9108C49.4125 38.4739 49.9053 38.8728 50.4567 38.8728C50.5271 38.8728 50.5975 38.8728 50.6679 38.8493C51.3015 38.732 51.7238 38.1219 51.6182 37.4883L50.1282 29.2165C49.5298 24.629 45.5994 21.1797 40.9763 21.1797H34.1713C29.5486 21.1797 25.6179 24.6409 25.0194 29.1579L23.5176 37.4883C23.4003 38.1219 23.8227 38.732 24.4679 38.8493L24.4687 38.849Z" fill="black"/>
<path d="M29.7986 29.6662L28.3321 37.4687C28.2147 38.1023 28.6371 38.7241 29.2707 38.8414C29.3411 38.8531 29.4115 38.8649 29.4936 38.8649C30.0451 38.8649 30.5378 38.4777 30.6434 37.9028L32.11 30.1003C32.2273 29.4667 31.8049 28.8449 31.1713 28.7276C30.5378 28.6103 29.9159 29.0326 29.7986 29.6662Z" fill="black"/>
<path d="M43.9074 28.7276C43.2738 28.8449 42.8515 29.455 42.9688 30.1003L44.4354 37.9029C44.5409 38.466 45.0337 38.8649 45.5851 38.8649C45.6555 38.8649 45.7259 38.8649 45.808 38.8414C46.4416 38.7241 46.864 38.114 46.7467 37.4687L45.2801 29.6662C45.1628 29.0326 44.5409 28.6103 43.9074 28.7276Z" fill="black"/>
</g>
</svg>
