<svg width="80" height="81" viewBox="0 0 80 81" fill="none" xmlns="http://www.w3.org/2000/svg">
<mask id="mask0_7380_55969" style="mask-type:alpha" maskUnits="userSpaceOnUse" x="-1" y="-1" width="82" height="82">
<rect width="80" height="80" fill="white" stroke="white" stroke-width="2"/>
</mask>
<g mask="url(#mask0_7380_55969)">
<path d="M31.4533 68.5812H32.9726L33.3859 70.2373H33.3887C34.0387 72.8369 36.3761 74.6613 39.0555 74.6613C41.735 74.6613 44.0724 72.8369 44.7223 70.2373L45.1356 68.5812H46.6578C48.3368 68.5812 49.6965 67.2186 49.6965 65.5396V62.4981C51.3754 62.4981 52.738 61.1384 52.738 59.4595V57.9373C52.738 57.5354 52.5783 57.1478 52.2933 56.8626C52.0082 56.5775 51.6206 56.418 51.2186 56.418H26.8923C26.0543 56.418 25.373 57.0992 25.373 57.9373V59.4594C25.373 61.1384 26.7356 62.4981 28.4146 62.4981V65.5396C28.4146 67.2186 29.7743 68.5812 31.4533 68.5812Z" fill="black"/>
<path d="M17.832 33.5536C17.8263 40.4433 21.17 46.9084 26.7997 50.8847V54.1371H51.3084V50.8847C54.0534 48.9435 56.2967 46.3809 57.8589 43.405H56.0203C55.1339 43.405 54.2844 43.0487 53.6629 42.4158C53.0615 41.8115 52.7337 40.9877 52.7508 40.1354C52.7707 39.2518 52.2804 38.4337 51.4908 38.0374C50.8438 37.6868 50.0684 37.6868 49.4214 38.0374C48.6318 38.4337 48.1415 39.2518 48.1614 40.1354C48.1785 40.9877 47.8507 41.8115 47.2493 42.4158C46.6279 43.0486 45.7784 43.405 44.8919 43.405H40.9696C40.0061 43.405 39.0826 43.0202 38.4013 42.3389C37.72 41.6576 37.3352 40.7341 37.3352 39.7706V36.3186C34.2025 36.7975 31.2237 34.7965 30.4798 31.7122C30.3715 31.2447 30.3145 30.7658 30.3116 30.2841C30.3088 28.8988 30.7762 27.5533 31.6342 26.4673C33.0082 24.7713 35.1746 23.9218 37.3353 24.2325V12.4058C32.0219 12.8362 27.065 15.2477 23.4507 19.1671C19.8363 23.0866 17.8292 28.2229 17.832 33.5536Z" fill="black"/>
<path d="M44.3786 39.6026C44.5554 37.5245 45.7754 35.6774 47.6168 34.694C49.3955 33.7362 51.5363 33.7362 53.3178 34.694C55.1507 35.6831 56.3622 37.5274 56.5389 39.6026H59.398C59.9881 37.6414 60.2845 35.6033 60.2788 33.5538C60.2816 28.2832 58.3233 23.2033 54.7859 19.2985C51.2484 15.3961 46.3823 12.9505 41.1407 12.4374V27.1692C41.1321 27.9188 40.6874 28.5972 40.0005 28.9023C39.3163 29.2101 38.5125 29.079 37.9623 28.5659C37.2041 27.8875 36.0896 27.7849 35.2202 28.3122C34.3508 28.8424 33.9261 29.8771 34.1769 30.8634C34.3792 31.6444 34.975 32.2659 35.7503 32.4968C36.5256 32.7277 37.3665 32.5338 37.9623 31.9865C38.5153 31.482 39.3134 31.3509 40.0004 31.653C40.6902 31.9609 41.1378 32.645 41.1406 33.4004V39.6031L44.3786 39.6026Z" fill="black"/>
<path d="M5.3639 10.1967C5.44379 10.5689 5.651 10.9015 5.94987 11.1375C6.24874 11.3734 6.62056 11.4978 7.00134 11.4894H7.34521C7.55617 11.4447 7.75623 11.3588 7.93389 11.2367C8.11155 11.1145 8.26332 10.9585 8.38047 10.7776C8.49762 10.5966 8.57786 10.3944 8.61657 10.1824C8.65528 9.97038 8.6517 9.75282 8.60604 9.54221C8.30878 8.26071 8.10629 6.95909 8.00019 5.64789L15.0248 12.6511C15.1771 12.8045 15.3582 12.9262 15.5577 13.0093C15.7572 13.0924 15.9713 13.1351 16.1874 13.1351C16.4036 13.1351 16.6176 13.0924 16.8171 13.0093C17.0167 12.9262 17.1978 12.8045 17.35 12.6511C17.5035 12.499 17.6253 12.318 17.7084 12.1186C17.7916 11.9193 17.8344 11.7054 17.8344 11.4894C17.8344 11.2734 17.7916 11.0595 17.7084 10.8601C17.6253 10.6607 17.5035 10.4797 17.35 10.3276L10.3417 3.30802C11.6409 3.38868 12.9324 3.56368 14.2061 3.83162C14.4221 3.89482 14.6488 3.91284 14.8721 3.88457C15.0953 3.85631 15.3104 3.78235 15.5038 3.66732C15.6971 3.55229 15.8647 3.39866 15.996 3.21603C16.1274 3.03339 16.2196 2.82566 16.267 2.60581C16.3144 2.38596 16.3159 2.15871 16.2714 1.93824C16.227 1.71778 16.1376 1.50883 16.0087 1.32445C15.8799 1.14007 15.7144 0.984206 15.5226 0.866596C15.3307 0.748986 15.1167 0.672154 14.8938 0.640894C12.2412 0.0681988 7.52533 -0.635398 5.80601 1.08269C4.08669 2.80077 4.72529 7.54596 5.3639 10.1967Z" fill="black"/>
<path d="M72.6283 10.1967C72.5484 10.5689 72.3412 10.9015 72.0423 11.1375C71.7435 11.3734 71.3716 11.4978 70.9908 11.4894H70.647C70.436 11.4447 70.236 11.3588 70.0583 11.2367C69.8806 11.1145 69.7289 10.9585 69.6117 10.7776C69.4946 10.5966 69.4143 10.3944 69.3756 10.1824C69.3369 9.97038 69.3405 9.75282 69.3861 9.54221C69.6834 8.26071 69.8859 6.95909 69.992 5.64789L62.9674 12.6511C62.8151 12.8045 62.634 12.9262 62.4345 13.0093C62.235 13.0924 62.0209 13.1351 61.8048 13.1351C61.5886 13.1351 61.3746 13.0924 61.175 13.0093C60.9755 12.9262 60.7944 12.8045 60.6422 12.6511C60.4887 12.499 60.3669 12.318 60.2838 12.1186C60.2006 11.9193 60.1578 11.7054 60.1578 11.4894C60.1578 11.2734 60.2006 11.0595 60.2838 10.8601C60.3669 10.6607 60.4887 10.4797 60.6422 10.3276L67.6505 3.30802C66.3513 3.38868 65.0598 3.56368 63.7861 3.83162C63.5701 3.89482 63.3434 3.91284 63.1201 3.88457C62.8969 3.85631 62.6818 3.78235 62.4884 3.66732C62.295 3.55229 62.1275 3.39866 61.9962 3.21603C61.8648 3.03339 61.7726 2.82566 61.7252 2.60581C61.6778 2.38596 61.6763 2.15871 61.7207 1.93824C61.7652 1.71778 61.8546 1.50883 61.9835 1.32445C62.1123 1.14007 62.2778 0.984206 62.4696 0.866596C62.6615 0.748986 62.8755 0.672154 63.0984 0.640894C65.751 0.0681988 70.4669 -0.635398 72.1862 1.08269C73.9055 2.80077 73.2669 7.54596 72.6283 10.1967Z" fill="black"/>
<path d="M72.6283 70.8033C72.5484 70.4311 72.3412 70.0985 72.0423 69.8625C71.7435 69.6266 71.3716 69.5022 70.9908 69.5106H70.647C70.436 69.5553 70.236 69.6412 70.0583 69.7633C69.8806 69.8855 69.7289 70.0415 69.6117 70.2224C69.4946 70.4034 69.4143 70.6056 69.3756 70.8176C69.3369 71.0296 69.3405 71.2472 69.3861 71.4578C69.6834 72.7393 69.8859 74.0409 69.992 75.3521L62.9674 68.3489C62.8151 68.1955 62.634 68.0738 62.4345 67.9907C62.235 67.9076 62.0209 67.8649 61.8048 67.8649C61.5886 67.8649 61.3746 67.9076 61.175 67.9907C60.9755 68.0738 60.7944 68.1955 60.6422 68.3489C60.4887 68.501 60.3669 68.682 60.2838 68.8814C60.2006 69.0807 60.1578 69.2946 60.1578 69.5106C60.1578 69.7266 60.2006 69.9405 60.2838 70.1399C60.3669 70.3393 60.4887 70.5203 60.6422 70.6724L67.6505 77.692C66.3513 77.6113 65.0598 77.4363 63.7861 77.1684C63.5701 77.1052 63.3434 77.0872 63.1201 77.1154C62.8969 77.1437 62.6818 77.2177 62.4884 77.3327C62.295 77.4477 62.1275 77.6013 61.9962 77.784C61.8648 77.9666 61.7726 78.1743 61.7252 78.3942C61.6778 78.614 61.6763 78.8413 61.7207 79.0618C61.7652 79.2822 61.8546 79.4912 61.9835 79.6755C62.1123 79.8599 62.2778 80.0158 62.4696 80.1334C62.6615 80.251 62.8755 80.3278 63.0984 80.3591C65.751 80.9318 70.4669 81.6354 72.1862 79.9173C73.9055 78.1992 73.2669 73.454 72.6283 70.8033Z" fill="black"/>
<path d="M5.3639 70.8033C5.44379 70.4311 5.651 70.0985 5.94987 69.8625C6.24874 69.6266 6.62056 69.5022 7.00134 69.5106H7.34521C7.55617 69.5553 7.75623 69.6412 7.93389 69.7633C8.11155 69.8855 8.26332 70.0415 8.38047 70.2224C8.49762 70.4034 8.57786 70.6056 8.61657 70.8176C8.65528 71.0296 8.6517 71.2472 8.60604 71.4578C8.30878 72.7393 8.10629 74.0409 8.00019 75.3521L15.0248 68.3489C15.1771 68.1955 15.3582 68.0738 15.5577 67.9907C15.7572 67.9076 15.9713 67.8649 16.1874 67.8649C16.4036 67.8649 16.6176 67.9076 16.8171 67.9907C17.0167 68.0738 17.1978 68.1955 17.35 68.3489C17.5035 68.501 17.6253 68.682 17.7084 68.8814C17.7916 69.0807 17.8344 69.2946 17.8344 69.5106C17.8344 69.7266 17.7916 69.9405 17.7084 70.1399C17.6253 70.3393 17.5035 70.5203 17.35 70.6724L10.3417 77.692C11.6409 77.6113 12.9324 77.4363 14.2061 77.1684C14.4221 77.1052 14.6488 77.0872 14.8721 77.1154C15.0953 77.1437 15.3104 77.2177 15.5038 77.3327C15.6971 77.4477 15.8647 77.6013 15.996 77.784C16.1274 77.9666 16.2196 78.1743 16.267 78.3942C16.3144 78.614 16.3159 78.8413 16.2714 79.0618C16.227 79.2822 16.1376 79.4912 16.0087 79.6755C15.8799 79.8599 15.7144 80.0158 15.5226 80.1334C15.3307 80.251 15.1167 80.3278 14.8938 80.3591C12.2412 80.9318 7.52533 81.6354 5.80601 79.9173C4.08669 78.1992 4.72529 73.454 5.3639 70.8033Z" fill="black"/>
</g>
</svg>
