<svg width="192" height="60" viewBox="0 0 192 60" fill="none" xmlns="http://www.w3.org/2000/svg">
<path d="M0.25819 48.5954C0.172314 48.5124 0.106481 48.4125 0.0616342 48.3022C0.0177417 48.1918 -0.00229278 48.0735 0.00247815 47.9549V23.6317C-0.0070637 23.5125 0.0110588 23.3927 0.0549513 23.2815C0.099798 23.1705 0.168497 23.0711 0.25819 22.9911C0.434714 22.8365 0.66277 22.7542 0.898453 22.7601H4.35641C4.47282 22.7525 4.59019 22.7691 4.69992 22.8089C4.81061 22.8487 4.9108 22.9107 4.99668 22.9911C5.15507 23.1658 5.23809 23.3961 5.22759 23.6317V44.4176H17.0366C17.1597 44.4104 17.2828 44.4295 17.3973 44.4736C17.5127 44.5177 17.6177 44.5859 17.7045 44.6734C17.7894 44.7617 17.8562 44.8665 17.9001 44.9813C17.944 45.0962 17.965 45.2189 17.9602 45.3418V47.9557C17.9688 48.075 17.9507 48.1948 17.9068 48.3059C17.8619 48.417 17.7932 48.5164 17.7045 48.5964C17.5165 48.7518 17.2789 48.8339 17.0366 48.8275H0.847887C0.738156 48.8377 0.627459 48.822 0.525361 48.7819C0.423263 48.7418 0.331669 48.6782 0.259151 48.5964" fill="black"/>
<path d="M21.8779 48.5955C21.7929 48.5125 21.7261 48.4126 21.6823 48.3023C21.6384 48.192 21.6183 48.0737 21.6221 47.9549V23.6825C21.6107 23.4384 21.6937 23.1991 21.853 23.0142C21.9351 22.9272 22.0343 22.8592 22.145 22.815C22.2557 22.7707 22.375 22.7515 22.4933 22.7583H38.8881C39.0112 22.7511 39.1343 22.7702 39.2497 22.8143C39.3652 22.8584 39.4692 22.9266 39.556 23.0142C39.6419 23.1024 39.7087 23.2072 39.7526 23.3221C39.7965 23.4369 39.8165 23.5595 39.8118 23.6825V26.1428C39.8213 26.262 39.8032 26.3818 39.7593 26.493C39.7144 26.604 39.6448 26.7034 39.556 26.7834C39.369 26.9389 39.1314 27.021 38.8881 27.0144H26.6173V33.6266H38.0675C38.3118 33.6153 38.5513 33.698 38.7354 33.8577C38.8223 33.9392 38.891 34.0389 38.9349 34.1496C38.9787 34.2603 38.9978 34.3793 38.9912 34.4984V36.8049C39.0007 36.9242 38.9826 37.044 38.9387 37.155C38.8938 37.2661 38.8242 37.3655 38.7354 37.4454C38.5484 37.601 38.3108 37.6831 38.0675 37.6766H26.6173V44.4941H39.1696C39.2927 44.4869 39.4158 44.5059 39.5312 44.55C39.6467 44.5941 39.7507 44.6623 39.8375 44.7499C39.9234 44.8382 39.9902 44.9429 40.0341 45.0579C40.078 45.1727 40.098 45.2953 40.0933 45.4183V47.8786C40.1028 47.9978 40.0847 48.1176 40.0408 48.2287C39.9959 48.3398 39.9263 48.4392 39.8375 48.5192C39.6505 48.6747 39.4129 48.7568 39.1696 48.7502H22.5191C22.4103 48.7972 22.2891 48.8076 22.1737 48.7799C22.0582 48.7522 21.9551 48.6879 21.8788 48.5965" fill="black"/>
<path d="M45.0852 48.6205C44.9983 48.539 44.9306 48.4393 44.8857 48.3286C44.8418 48.2179 44.8227 48.0988 44.8294 47.9799V23.7074C44.8227 23.5847 44.8428 23.462 44.8867 23.3473C44.9306 23.2327 44.9983 23.1285 45.0852 23.0416C45.172 22.9547 45.2769 22.887 45.3914 22.8429C45.5059 22.7987 45.6281 22.779 45.7512 22.7852H48.6967C48.9353 22.7746 49.1719 22.8379 49.3732 22.9663C49.5746 23.0947 49.732 23.2821 49.8236 23.5031L57.022 36.9339L64.2967 23.5031C64.395 23.2875 64.5543 23.1049 64.7537 22.9776C64.9541 22.8502 65.186 22.7834 65.4236 22.7852H68.3434C68.4665 22.7779 68.5896 22.7969 68.705 22.841C68.8195 22.8853 68.9245 22.9533 69.0113 23.0411C69.0972 23.1293 69.164 23.234 69.2079 23.3489C69.2518 23.4637 69.2718 23.5864 69.267 23.7094V47.9589C69.2766 48.0781 69.2585 48.1979 69.2136 48.3091C69.1697 48.4201 69.1001 48.5195 69.0113 48.5995C68.8243 48.7549 68.5867 48.837 68.3434 48.8305H65.2204C65.102 48.8334 64.9837 48.8121 64.874 48.768C64.7633 48.724 64.6631 48.6579 64.5791 48.574C64.4961 48.4901 64.4293 48.39 64.3854 48.2799C64.3415 48.1697 64.3206 48.0517 64.3234 47.9331V31.7814L59.0974 41.7514C58.9819 41.9885 58.8035 42.1901 58.583 42.3344C58.3617 42.4788 58.106 42.5607 57.8426 42.5715H56.3054C56.0382 42.5614 55.7787 42.4799 55.5535 42.3358C55.3283 42.1916 55.1461 41.9899 55.0249 41.7514L49.7769 31.8072V47.9541C49.7826 48.1891 49.7005 48.4176 49.546 48.5947C49.4639 48.6817 49.3647 48.7497 49.254 48.7939C49.1433 48.8381 49.025 48.8575 48.9057 48.8506H45.7807C45.6557 48.8601 45.5298 48.8447 45.4115 48.8049C45.2922 48.7653 45.1825 48.7022 45.089 48.6195" fill="black"/>
<path d="M117.993 48.5954C117.908 48.5124 117.841 48.4125 117.797 48.3022C117.753 48.1919 117.732 48.0735 117.737 47.9549V23.6317C117.727 23.5125 117.745 23.3927 117.79 23.2815C117.834 23.1705 117.904 23.0711 117.993 22.9911C118.17 22.8365 118.398 22.7542 118.633 22.7601H122.091C122.208 22.7525 122.325 22.7691 122.435 22.8089C122.545 22.8487 122.646 22.9107 122.731 22.9911C122.889 23.1658 122.972 23.3961 122.962 23.6317V44.4176H134.771C134.894 44.4104 135.017 44.4295 135.133 44.4736C135.248 44.5177 135.352 44.5859 135.439 44.6734C135.525 44.7617 135.592 44.8665 135.635 44.9813C135.679 45.0962 135.699 45.2189 135.695 45.3418V47.9557C135.704 48.075 135.686 48.1948 135.642 48.3059C135.597 48.417 135.528 48.5164 135.439 48.5964C135.252 48.7518 135.014 48.8339 134.771 48.8275H118.581C118.473 48.8377 118.362 48.822 118.26 48.7819C118.158 48.7418 118.066 48.6782 117.993 48.5964" fill="black"/>
<path d="M139.609 48.5954C139.524 48.5123 139.459 48.4125 139.414 48.3021C139.37 48.1918 139.35 48.0735 139.354 47.9548V23.6316C139.345 23.5124 139.363 23.3926 139.407 23.2815C139.452 23.1704 139.521 23.071 139.609 22.9911C139.787 22.8364 140.015 22.754 140.25 22.7601H143.759C143.876 22.7525 143.994 22.7691 144.104 22.8089C144.214 22.8487 144.314 22.9107 144.399 22.9911C144.559 23.1657 144.642 23.396 144.63 23.6316V47.9548C144.637 48.1897 144.554 48.4183 144.399 48.5954C144.318 48.6823 144.219 48.7503 144.108 48.7945C143.998 48.8387 143.878 48.8581 143.759 48.8512H140.251C140.132 48.8557 140.014 48.8353 139.904 48.7913C139.794 48.7472 139.693 48.6804 139.61 48.5954" fill="black"/>
<path d="M156.494 48.5954C156.409 48.5124 156.342 48.4125 156.298 48.3022C156.255 48.1918 156.234 48.0735 156.238 47.9548V27.3226H149.347C149.229 27.3256 149.111 27.3043 149.001 27.2602C148.891 27.216 148.791 27.1501 148.707 27.0662C148.623 26.9822 148.557 26.8822 148.513 26.772C148.468 26.6618 148.447 26.5438 148.45 26.4252V23.6565C148.439 23.4124 148.522 23.1732 148.681 22.9883C148.763 22.9013 148.862 22.8333 148.973 22.7891C149.084 22.7449 149.203 22.7255 149.321 22.7325H168.329C168.452 22.7252 168.575 22.7442 168.69 22.7883C168.806 22.8324 168.91 22.9007 168.997 22.9883C169.083 23.0764 169.149 23.1812 169.194 23.296C169.238 23.4109 169.258 23.5336 169.253 23.6565V26.4252C169.258 26.544 169.237 26.6624 169.193 26.7728C169.149 26.883 169.083 26.983 168.997 27.0659C168.909 27.1515 168.804 27.2184 168.689 27.2624C168.574 27.3064 168.452 27.3266 168.329 27.3217H161.463V47.9538C161.468 48.0726 161.447 48.1909 161.403 48.3012C161.359 48.4116 161.293 48.5114 161.208 48.5945C161.12 48.6801 161.015 48.7471 160.9 48.791C160.785 48.835 160.663 48.8551 160.54 48.8504H157.105C156.99 48.8523 156.877 48.8305 156.771 48.7865C156.666 48.7425 156.569 48.6771 156.49 48.5945" fill="black"/>
<path d="M173.323 48.5955C173.238 48.5126 173.171 48.4127 173.128 48.3024C173.084 48.192 173.063 48.0737 173.067 47.9549V23.6825C173.056 23.4384 173.139 23.1991 173.298 23.0142C173.379 22.9272 173.48 22.8592 173.59 22.815C173.701 22.7707 173.819 22.7515 173.939 22.7583H190.333C190.456 22.7511 190.58 22.7702 190.695 22.8143C190.811 22.8584 190.915 22.9266 191.001 23.0142C191.087 23.1024 191.154 23.2072 191.198 23.3221C191.242 23.4369 191.262 23.5595 191.257 23.6825V26.1428C191.267 26.262 191.248 26.3818 191.204 26.493C191.16 26.604 191.09 26.7034 191.001 26.7834C190.814 26.9389 190.577 27.021 190.333 27.0144H178.063V33.6266H189.539C189.783 33.6153 190.021 33.698 190.206 33.8577C190.293 33.9392 190.361 34.0389 190.406 34.1496C190.45 34.2603 190.469 34.3793 190.462 34.4984V36.8049C190.472 36.9242 190.454 37.044 190.409 37.155C190.365 37.2661 190.295 37.3655 190.206 37.4454C190.019 37.601 189.782 37.6831 189.539 37.6766H178.088V44.4941H190.641C190.764 44.4869 190.887 44.5059 191.002 44.55C191.118 44.5941 191.222 44.6623 191.309 44.7499C191.394 44.8382 191.461 44.9429 191.505 45.0579C191.549 45.1727 191.569 45.2953 191.564 45.4183V47.8786C191.574 47.9978 191.556 48.1176 191.511 48.2287C191.467 48.3398 191.397 48.4392 191.309 48.5192C191.122 48.6747 190.884 48.7568 190.641 48.7502H173.942C173.837 48.7955 173.72 48.805 173.609 48.7772C173.498 48.7494 173.399 48.686 173.328 48.5965" fill="black"/>
<mask id="mask0_8825_40585" style="mask-type:luminance" maskUnits="userSpaceOnUse" x="76" y="19" width="33" height="33">
<path d="M108.924 19.6079H76.9297V51.7996H108.924V19.6079Z" fill="white"/>
</mask>
<g mask="url(#mask0_8825_40585)">
<path d="M103.342 47.6734C101.786 49.1344 99.9394 50.2521 97.9232 50.9541C95.907 51.6562 93.7658 51.9271 91.6379 51.7491C87.4348 51.5611 83.4482 49.8273 80.4435 46.88C79.1248 45.5602 78.1305 43.9517 77.5389 42.1813C76.9473 40.4109 76.7756 38.5273 77.036 36.679C77.6734 32.7058 79.6219 29.0603 82.5703 26.3243C89.1285 19.942 99.8363 16.9175 105.369 22.5818C110.876 28.2461 109.826 41.3686 103.345 47.6744M83.2115 26.9906C77.0093 33.0397 76.1172 41.1385 81.1133 46.2653C86.2659 51.5448 96.6102 53.0064 102.732 47.0337C105.55 44.2909 107.497 39.7781 107.934 34.9874C108.369 30.0658 107.215 25.8117 104.73 23.2445C102.345 20.7842 98.634 19.964 94.3039 20.912C90.1246 21.8917 86.2897 23.9918 83.2115 26.9869" fill="#2EC4F3"/>
</g>
<mask id="mask1_8825_40585" style="mask-type:luminance" maskUnits="userSpaceOnUse" x="78" y="19" width="33" height="32">
<path d="M110.461 19.095H78.1836V50.5945H110.461V19.095Z" fill="white"/>
</mask>
<g mask="url(#mask1_8825_40585)">
<path d="M106.851 45.6482C100.959 51.4146 88.6886 52.3636 82.5408 47.3142C81.2689 46.2159 80.2336 44.8701 79.4979 43.3588C78.7632 41.8475 78.3424 40.2022 78.2632 38.5232C77.8901 33.378 79.5247 28.2885 82.8233 24.3239C84.0532 22.8028 85.5856 21.553 87.3223 20.6531C89.0598 19.7531 90.9634 19.2227 92.9157 19.095C96.7477 18.9532 100.494 20.2514 103.418 22.7342C107.322 25.9628 109.834 30.5696 110.437 35.6009C110.623 37.2381 110.473 38.896 109.997 40.4734C109.521 42.0509 108.729 43.515 107.67 44.7766C107.384 45.084 107.132 45.3656 106.851 45.6482ZM84.5131 23.837C84.1525 24.1768 83.8099 24.5359 83.4883 24.913C80.3443 28.6919 78.7833 33.5415 79.1334 38.4459C79.206 40.0006 79.5934 41.5245 80.2708 42.9254C80.9492 44.3262 81.9035 45.575 83.0781 46.5962C85.87 48.9028 90.4043 50.0055 95.1962 49.5692C100.14 49.1081 104.393 47.1595 106.933 44.2123C107.91 43.0395 108.641 41.6814 109.081 40.2192C109.521 38.757 109.662 37.2209 109.495 35.703C108.928 30.9073 106.53 26.5163 102.803 23.4484C96.9624 18.63 89.6104 18.8353 84.5131 23.8303" fill="#BFD634"/>
</g>
<mask id="mask2_8825_40585" style="mask-type:luminance" maskUnits="userSpaceOnUse" x="78" y="16" width="32" height="37">
<path d="M109.974 16.0706H78.875V52.7227H109.974V16.0706Z" fill="white"/>
</mask>
<g mask="url(#mask2_8825_40585)">
<path d="M102.595 48.9039C101.488 50.0983 100.149 51.0533 98.6609 51.71C97.1714 52.3669 95.5636 52.7115 93.9367 52.7227C90.5017 52.6205 87.0199 50.7236 84.1516 47.3917C80.4112 43.0602 78.4131 37.2421 78.977 32.2185C79.6058 27.6045 82.0266 23.4241 85.7145 20.5826C89.1315 17.6729 93.4721 16.0739 97.9596 16.0715C99.5741 16.084 101.167 16.4401 102.633 17.1161C104.1 17.7921 105.405 18.7727 106.464 19.9925C109.206 23.143 110.435 27.9633 109.846 33.2181C109.206 39.0876 106.49 45.1108 102.594 48.9039M93.9616 51.7957C97.5226 51.8978 101.083 49.7965 103.981 45.9004C106.687 42.1248 108.388 37.7223 108.924 33.1073C109.488 28.1094 108.335 23.5469 105.775 20.5739C104.792 19.4528 103.583 18.5516 102.228 17.9289C100.873 17.3063 99.4014 16.9763 97.9109 16.9605C90.2259 16.7294 80.8759 23.2395 79.8768 32.2872C79.3387 37.0798 81.2347 42.6162 84.8205 46.7682C87.5619 49.9187 90.8147 51.6887 93.9654 51.7919" fill="#2EC4F3"/>
</g>
<mask id="mask3_8825_40585" style="mask-type:luminance" maskUnits="userSpaceOnUse" x="76" y="18" width="34" height="36">
<path d="M109.282 18.6331H76.6211V53.5161H109.282V18.6331Z" fill="white"/>
</mask>
<g mask="url(#mask3_8825_40585)">
<path d="M103.645 48.4151C101.011 50.9204 97.6957 52.5883 94.1156 53.2077C89.8723 54.0824 85.4563 53.3032 81.7684 51.029C80.4822 50.1878 79.383 49.0921 78.5366 47.8094C77.6912 46.5267 77.1168 45.0843 76.8496 43.5709C76.0557 39.2652 77.4641 34.1642 80.7179 29.6026C86.4811 21.5038 97.0869 15.788 103.696 20.1959C106.308 21.9392 108.153 25.168 108.922 29.2952C109.998 35.1905 108.691 41.8285 105.566 46.2116C104.974 46.9876 104.332 47.7231 103.645 48.4151ZM84.7407 26.2964C83.5308 27.4643 82.4335 28.7429 81.4621 30.1153C78.3372 34.4983 76.9775 39.3425 77.7475 43.3914C77.9937 44.7857 78.5232 46.1147 79.3028 47.2961C80.0824 48.4776 81.0967 49.4865 82.2818 50.2605C88.4553 54.3867 99.3931 53.285 104.824 45.6474C107.796 41.4467 109.051 35.0874 108.027 29.4231C107.309 25.5269 105.593 22.5024 103.185 20.9138C100.316 19.0168 96.3713 19.0941 92.0164 21.1191C89.3275 22.4397 86.8695 24.1882 84.7407 26.2964Z" fill="#BFD634"/>
</g>
<mask id="mask4_8825_40585" style="mask-type:luminance" maskUnits="userSpaceOnUse" x="75" y="20" width="33" height="31">
<path d="M107.85 20.2988H75.6758V50.0561H107.85V20.2988Z" fill="white"/>
</mask>
<g mask="url(#mask4_8825_40585)">
<path d="M103.393 46.5448C101.303 48.5757 98.5629 49.8013 95.6565 50.0045C91.792 50.2158 87.9705 49.1047 84.8208 46.8541C80.2102 43.7274 76.7006 38.7038 75.881 34.0391C75.5995 32.6867 75.5967 31.291 75.8743 29.9377C76.152 28.5844 76.7035 27.3023 77.4945 26.1704C82.0288 19.8913 94.8111 18.2759 101.907 23.0953C103.422 24.165 104.705 25.5286 105.682 27.105C106.658 28.6814 107.308 30.4382 107.591 32.2709C108.373 36.6315 107.406 41.1243 104.902 44.7776C104.46 45.4169 103.953 46.0093 103.39 46.5457M78.2092 26.7079C77.4821 27.7373 76.9764 28.9071 76.7255 30.1425C76.4736 31.378 76.4821 32.6523 76.7493 33.8843C77.5432 38.318 80.8991 43.1116 85.3055 46.1104C91.4275 50.2624 98.4732 50.0571 102.801 45.824C103.294 45.3382 103.748 44.8154 104.159 44.2602C105.338 42.554 106.168 40.6323 106.603 38.605C107.038 36.5775 107.069 34.4843 106.695 32.4446C106.438 30.7293 105.835 29.0841 104.924 27.6083C104.011 26.1325 102.811 24.8568 101.393 23.8581C98.2938 21.7577 93.6565 20.8335 88.9686 21.3758C84.2044 21.9142 80.2588 23.858 78.2092 26.7068" fill="#2EC4F3"/>
</g>
<mask id="mask5_8825_40585" style="mask-type:luminance" maskUnits="userSpaceOnUse" x="75" y="17" width="37" height="36">
<path d="M111.843 17.0701H75.8008V52.8505H111.843V17.0701Z" fill="white"/>
</mask>
<g mask="url(#mask5_8825_40585)">
<path d="M107.463 48.4674C104.302 51.4159 100.101 52.9919 95.7818 52.8505C91.0338 52.7644 86.4204 51.2556 82.5378 48.519C78.3107 45.4687 75.9033 41.3167 75.8003 36.8573C75.6982 32.2947 77.8995 27.3484 81.846 23.3243C85.7143 19.3775 90.6064 17.0452 94.9364 17.07C99.2398 17.0958 103.415 19.3766 106.72 23.478C109.847 27.3331 111.636 32.101 111.818 37.0625C111.927 39.114 111.615 41.166 110.901 43.0923C110.187 45.0186 109.087 46.7783 107.668 48.2631L107.463 48.4674ZM76.723 36.8334C76.8251 41.0112 79.0798 44.9073 83.0759 47.7772C86.8087 50.4056 91.2437 51.8521 95.8076 51.9292C97.8763 51.9986 99.9383 51.6508 101.871 50.9067C103.803 50.1626 105.565 49.0372 107.054 47.5977C108.389 46.2026 109.421 44.5468 110.087 42.734C110.753 40.9212 111.038 38.9905 110.924 37.0625C110.743 32.3071 109.026 27.7386 106.031 24.0422C102.906 20.1461 98.9602 17.9932 94.9383 17.9674C90.8649 17.9417 86.2028 20.1719 82.5139 23.9391C78.7229 27.8095 76.6218 32.5 76.7249 36.8277" fill="#BFD634"/>
</g>
<path d="M92.4024 0C90.5551 0.323454 88.849 1.19911 87.5094 2.51183C86.4159 3.58626 85.5762 4.89077 85.0504 6.33066C84.413 8.02134 84.2632 9.85686 84.6163 11.6288C84.9693 13.4007 85.8119 15.0381 87.0485 16.3551C88.8958 16.0316 90.6019 15.156 91.9415 13.8432C93.0341 12.7687 93.8738 11.4642 94.4005 10.0244C95.036 8.33353 95.1858 6.49821 94.8327 4.72656C94.4797 2.95491 93.6371 1.31759 92.4024 0Z" fill="#BFD633"/>
<mask id="mask6_8825_40585" style="mask-type:luminance" maskUnits="userSpaceOnUse" x="84" y="10" width="4" height="7">
<path d="M87.0985 10.6621H84.5117V16.3522H87.0985V10.6621Z" fill="white"/>
</mask>
<g mask="url(#mask6_8825_40585)">
<path d="M84.5117 10.6621C84.6768 12.7996 85.5833 14.8123 87.0737 16.3522C87.1185 15.2697 86.9096 14.1919 86.4649 13.2041C86.0203 12.2164 85.3514 11.3461 84.5117 10.6621Z" fill="#2EC4F3"/>
</g>
<path d="M83.3326 9.84219C82.2382 9.21762 80.9968 8.8957 79.7363 8.90935C78.4758 8.92291 77.2421 9.27147 76.16 9.91952C76.119 11.1747 76.4138 12.4181 77.0121 13.5218C77.6113 14.6255 78.493 15.5494 79.5674 16.1986C80.5159 16.8079 81.5931 17.1876 82.7133 17.3078C83.8345 17.4279 84.9671 17.2852 86.0225 16.8908C84.2782 14.9597 83.3183 12.4453 83.3326 9.84219Z" fill="#2EC4F3"/>
<path d="M117.582 54.0029V53.3623H121.092V54.0029H119.681V59.7952H119.013V54.0029H117.582Z" fill="black"/>
<path d="M122.707 53.3623H126.396V54.0029H123.347V56.0021H126.37V56.6428H123.347V59.1545H126.37V59.7952H122.707V53.3623Z" fill="black"/>
<path d="M134.154 54.571L133.641 54.9529C133.378 54.6044 133.036 54.3235 132.642 54.1328C132.242 53.9447 131.805 53.847 131.362 53.8464C130.863 53.8503 130.372 53.9733 129.931 54.2054C129.507 54.4419 129.153 54.7868 128.906 55.2049C128.664 55.6352 128.541 56.1216 128.547 56.615C128.536 56.981 128.601 57.3453 128.737 57.685C128.874 58.0247 129.08 58.3323 129.341 58.5884C129.609 58.848 129.926 59.0519 130.273 59.1883C130.621 59.3246 130.992 59.3907 131.365 59.3826C131.795 59.3856 132.22 59.2929 132.61 59.1112C132.999 58.9296 133.345 58.6637 133.619 58.3326L134.131 58.7144C133.814 59.1247 133.4 59.4502 132.927 59.6625C132.421 59.8929 131.87 60.0067 131.313 59.9957C130.856 60.0191 130.399 59.9474 129.971 59.7853C129.543 59.6233 129.153 59.3743 128.826 59.0541C128.498 58.7338 128.241 58.3492 128.07 57.9245C127.898 57.4998 127.816 57.0442 127.83 56.5864C127.819 56.1407 127.903 55.6978 128.075 55.2865C128.247 54.8753 128.504 54.505 128.829 54.1996C129.157 53.8804 129.545 53.6298 129.971 53.4626C130.397 53.2954 130.852 53.2149 131.309 53.2258C131.868 53.2202 132.42 53.3431 132.923 53.5847C133.42 53.7815 133.848 54.1201 134.153 54.5586" fill="black"/>
<path d="M136.102 53.3623H136.742V56.0537H139.996V53.3623H140.636V59.7952H139.996V56.6943H136.742V59.7952H136.102V53.3623Z" fill="black"/>
<path d="M142.891 59.7952V53.3623H143.018L147.296 58.2839V53.3623H147.936V59.7952H147.783L143.556 54.9261V59.7952H142.891Z" fill="black"/>
<path d="M153.215 53.2086C153.665 53.1973 154.114 53.2778 154.532 53.4452C154.951 53.6126 155.33 53.8634 155.648 54.1824C155.97 54.4939 156.223 54.8692 156.39 55.2842C156.557 55.6991 156.637 56.1447 156.621 56.5921C156.626 57.0342 156.542 57.4728 156.375 57.8821C156.208 58.2914 155.961 58.6633 155.648 58.976C155.336 59.2886 154.964 59.5358 154.556 59.703C154.146 59.8702 153.707 59.9541 153.266 59.9498C152.82 59.9587 152.376 59.877 151.962 59.7097C151.548 59.5423 151.172 59.2927 150.857 58.976C150.539 58.6731 150.288 58.3067 150.121 57.9005C149.953 57.4942 149.872 57.0572 149.884 56.6179C149.882 56.0141 150.041 55.4208 150.345 54.8994C150.631 54.3817 151.058 53.9553 151.575 53.6688C152.067 53.3623 152.635 53.2024 153.214 53.2076M153.266 53.8225C152.79 53.826 152.324 53.9494 151.908 54.1814C151.492 54.4189 151.146 54.7641 150.909 55.181C150.671 55.6126 150.547 56.0981 150.55 56.5911C150.539 56.9494 150.604 57.306 150.741 57.6373C150.878 57.9686 151.083 58.267 151.344 58.5129C151.593 58.7699 151.892 58.9728 152.223 59.1094C152.553 59.2461 152.908 59.3135 153.265 59.3073C153.748 59.3037 154.224 59.1804 154.648 58.9483C155.071 58.7181 155.417 58.3711 155.647 57.9487C155.886 57.5172 156.01 57.0316 156.006 56.5386C156.01 56.0537 155.886 55.5766 155.647 55.1543C155.411 54.7375 155.065 54.3921 154.648 54.1547C154.216 53.9479 153.745 53.8344 153.265 53.8215" fill="black"/>
<path d="M158.621 53.3623H159.261V59.1803H161.72V59.7952H158.621V53.3623Z" fill="black"/>
<path d="M166.457 53.2086C166.908 53.1973 167.356 53.2778 167.774 53.4452C168.192 53.6126 168.573 53.8634 168.89 54.1824C169.212 54.4938 169.465 54.8691 169.632 55.2841C169.8 55.6991 169.879 56.1447 169.864 56.5921C169.868 57.0342 169.784 57.4727 169.616 57.8819C169.449 58.2912 169.202 58.663 168.89 58.9757C168.577 59.2882 168.206 59.5354 167.797 59.7027C167.388 59.87 166.949 59.9539 166.508 59.9497C166.061 59.9586 165.618 59.877 165.204 59.7097C164.79 59.5423 164.414 59.2926 164.099 58.976C163.782 58.6731 163.53 58.3067 163.363 57.9005C163.195 57.4942 163.115 57.0572 163.126 56.6177C163.124 56.0141 163.283 55.4207 163.587 54.8994C163.873 54.3817 164.3 53.9553 164.817 53.6687C165.309 53.3626 165.877 53.2027 166.456 53.2076M166.482 53.8225C166.007 53.826 165.539 53.9494 165.124 54.1813C164.708 54.4189 164.363 54.7641 164.125 55.1809C163.888 55.6125 163.763 56.0981 163.766 56.5911C163.756 56.9494 163.821 57.306 163.957 57.6373C164.095 57.9686 164.3 58.267 164.56 58.5129C164.809 58.7699 165.108 58.973 165.439 59.1097C165.769 59.2463 166.125 59.3135 166.482 59.3072C166.966 59.3037 167.441 59.1805 167.865 58.9483C168.288 58.7181 168.635 58.3711 168.865 57.9487C169.103 57.5172 169.226 57.0315 169.223 56.5385C169.226 56.0537 169.103 55.5765 168.865 55.1543C168.628 54.7375 168.282 54.3921 167.865 54.1547C167.435 53.9423 166.963 53.8293 166.482 53.8225Z" fill="black"/>
<path d="M178.037 54.4394L177.55 54.9004C177.214 54.5589 176.814 54.2887 176.372 54.1062C175.976 53.9288 175.55 53.8315 175.117 53.8197C174.618 53.8237 174.128 53.9467 173.686 54.1786C173.25 54.4074 172.886 54.7536 172.636 55.1782C172.389 55.5804 172.256 56.0428 172.254 56.5149C172.254 57.0024 172.385 57.481 172.636 57.8992C172.895 58.3327 173.267 58.6873 173.712 58.9246C174.174 59.1822 174.695 59.314 175.224 59.3064C175.83 59.3327 176.423 59.1314 176.889 58.7422C177.337 58.3772 177.63 57.8549 177.709 57.2814H175.659V56.6667H178.426C178.454 57.098 178.389 57.5303 178.236 57.9347C178.085 58.3391 177.848 58.7065 177.542 59.0121C177.236 59.3177 176.87 59.5547 176.465 59.7071C176.061 59.8596 175.629 59.9241 175.198 59.8965C174.669 59.9177 174.141 59.8207 173.653 59.6123C173.166 59.4038 172.731 59.0893 172.38 58.6915C171.855 58.099 171.571 57.3306 171.587 56.5387C171.581 55.943 171.74 55.3575 172.047 54.847C172.351 54.3339 172.784 53.9095 173.303 53.6164C173.859 53.3109 174.487 53.1605 175.122 53.1811C175.647 53.1843 176.168 53.2813 176.659 53.4675C177.169 53.7151 177.637 54.044 178.043 54.4413" fill="black"/>
<path d="M180.879 53.3623H180.238V59.7951H180.879V53.3623Z" fill="black"/>
<path d="M183.008 53.3623H186.697V54.0029H183.648V56.0021H186.671V56.6428H183.648V59.1545H186.671V59.7952H183.008V53.3623Z" fill="black"/>
<path d="M187.824 58.5913L188.362 58.2581C188.744 58.9761 189.182 59.3082 189.698 59.3082C189.912 59.3059 190.123 59.2533 190.313 59.1546C190.497 59.0673 190.65 58.924 190.748 58.745C190.845 58.5823 190.899 58.3965 190.901 58.2066C190.895 57.9738 190.814 57.7494 190.671 57.566C190.359 57.1693 189.987 56.8234 189.569 56.5406C189.204 56.2896 188.868 55.9971 188.57 55.669C188.355 55.3899 188.238 55.0476 188.237 54.6952C188.238 54.4256 188.309 54.1608 188.443 53.9266C188.576 53.6982 188.772 53.5116 189.006 53.3882C189.25 53.2545 189.523 53.184 189.8 53.1829C190.098 53.1803 190.39 53.2603 190.646 53.414C190.971 53.638 191.257 53.9152 191.491 54.234L190.979 54.6446C190.821 54.3897 190.612 54.1712 190.364 54.004C190.193 53.9027 189.999 53.8495 189.8 53.8503C189.566 53.8442 189.337 53.9267 189.16 54.0813C189.081 54.1578 189.017 54.2491 188.973 54.3502C188.929 54.4513 188.906 54.5601 188.904 54.6704C188.904 54.8107 188.93 54.9497 188.981 55.0809C189.053 55.2447 189.158 55.3926 189.288 55.5162C189.548 55.745 189.822 55.9588 190.108 56.1568C190.556 56.4502 190.947 56.824 191.26 57.2595C191.454 57.5479 191.56 57.886 191.567 58.2333C191.568 58.4608 191.521 58.686 191.428 58.8939C191.336 59.1016 191.199 59.2872 191.029 59.4382C190.685 59.7682 190.226 59.952 189.749 59.9508C189.376 59.9553 189.01 59.8482 188.699 59.6434C188.321 59.3765 188.021 59.0142 187.828 58.5932" fill="black"/>
</svg>
