<svg width="50" height="50" viewBox="0 0 50 50" fill="none" xmlns="http://www.w3.org/2000/svg">
<mask id="mask0_9023_56613" style="mask-type:luminance" maskUnits="userSpaceOnUse" x="0" y="0" width="50" height="50">
<path d="M0 0H50V50H0V0Z" fill="white"/>
</mask>
<g mask="url(#mask0_9023_56613)">
<path d="M37.3479 0H12.6521C5.66463 0 0 5.66463 0 12.6521V37.3479C0 44.3354 5.6645 50 12.6521 50H37.3479C44.3354 50 50 44.3354 50 37.3479V12.6521C50 5.66463 44.3354 0 37.3479 0Z" fill="black"/>
<path d="M38.005 11.1992C29.3861 11.1992 26.2072 17.344 23.6443 22.2821L21.9586 25.4381C19.2411 30.6755 17.2131 33.8568 11.986 33.8568C11.6611 33.8564 11.3394 33.92 11.0392 34.0441C10.7391 34.1681 10.4663 34.3502 10.2366 34.5798C9.89047 34.9255 9.65474 35.3662 9.55925 35.8459C9.46377 36.3257 9.51282 36.823 9.7002 37.2748C9.82448 37.5749 10.0067 37.8475 10.2365 38.0771C10.4663 38.3067 10.7391 38.4886 11.0393 38.6126C11.3395 38.7367 11.6612 38.8004 11.986 38.8C20.6048 38.8 23.7837 32.6552 26.3466 27.7171L28.0222 24.5611C30.7397 19.3237 32.7677 16.1423 37.9948 16.1423C38.484 16.143 38.9624 15.9984 39.3693 15.7269C39.7762 15.4554 40.0934 15.0692 40.2806 14.6172C40.4679 14.1654 40.517 13.6681 40.4215 13.1883C40.326 12.7085 40.0903 12.2679 39.7442 11.9222C39.5145 11.6926 39.2417 11.5106 38.9415 11.3865C38.6413 11.2625 38.3196 11.1988 37.9948 11.1992H38.005Z" fill="white"/>
</g>
</svg>
