<svg width="92" height="92" viewBox="0 0 92 92" fill="none" xmlns="http://www.w3.org/2000/svg">
<mask id="mask0_9015_58874" style="mask-type:alpha" maskUnits="userSpaceOnUse" x="0" y="0" width="92" height="92">
<rect width="92" height="92" fill="black"/>
</mask>
<g mask="url(#mask0_9015_58874)">
<path d="M45.9993 30.7676C37.7459 30.7676 31.0312 37.6008 31.0312 45.9994C31.0312 54.3979 37.7459 61.2311 45.9993 61.2311C54.2527 61.2311 60.9674 54.3984 60.9674 45.9994C60.9674 37.6003 54.2527 30.7676 45.9993 30.7676ZM49.9095 51.7376C49.2746 52.3802 48.2919 52.7823 46.9632 52.9448V54.9244C46.9632 55.4102 46.5693 55.8035 46.084 55.8035H46.0037C45.5179 55.8035 45.1245 55.4097 45.1245 54.9244V53.0116C44.0904 52.9826 43.2485 52.8674 42.5982 52.6681C42.3471 52.5911 42.1201 52.5156 41.9174 52.4421C41.4712 52.28 41.2404 51.7894 41.3909 51.3394L41.3953 51.3263C41.5496 50.8637 42.0495 50.6106 42.5096 50.7723C42.7506 50.8569 43.009 50.9387 43.2853 51.0176C43.9056 51.1952 44.6735 51.2837 45.5895 51.2837C46.7261 51.2837 47.524 51.1032 47.9822 50.7408C48.44 50.3794 48.6693 49.9177 48.6693 49.356C48.6693 48.9432 48.5692 48.5881 48.3698 48.2929C48.1704 47.9973 47.9048 47.7384 47.5719 47.5168C47.24 47.2961 46.8562 47.0958 46.4208 46.9192C45.9843 46.7416 45.5372 46.5723 45.08 46.4097C44.6362 46.2466 44.1964 46.0661 43.7609 45.8663C43.3254 45.6669 42.9379 45.4235 42.5977 45.1352C42.258 44.8477 41.9812 44.5003 41.7674 44.0939C41.553 43.6884 41.4456 43.1895 41.4456 42.5982C41.4456 41.5497 41.7592 40.6898 42.3877 40.0173C43.0153 39.3456 43.9274 38.9208 45.124 38.7432V37.0748C45.124 36.589 45.5179 36.1956 46.0032 36.1956H46.0835C46.5693 36.1956 46.9627 36.5895 46.9627 37.0748V38.6774C47.6116 38.7069 48.2179 38.7873 48.7792 38.9208C48.9592 38.9634 49.1275 39.0055 49.2833 39.0466C49.7469 39.169 50.0246 39.6389 49.9114 40.1053C49.7924 40.5935 49.293 40.88 48.8101 40.7406C48.6674 40.6995 48.5169 40.6579 48.3582 40.6158C47.8264 40.475 47.1621 40.4048 46.3642 40.4048C45.4782 40.4048 44.7945 40.5752 44.315 40.9153C43.8345 41.255 43.5945 41.735 43.5945 42.3548C43.5945 42.6945 43.6646 42.9834 43.8054 43.2195C43.9453 43.4556 44.148 43.6656 44.4142 43.8505C44.6803 44.0353 44.9938 44.2013 45.3562 44.3489C45.7177 44.4969 46.1208 44.6518 46.5635 44.8139C47.1398 45.0355 47.6861 45.2648 48.2033 45.501C48.7201 45.7371 49.1745 46.0211 49.5654 46.354C49.9569 46.6869 50.2714 47.0818 50.5075 47.5395C50.7437 47.9973 50.8617 48.5508 50.8617 49.2011C50.8627 50.2502 50.5443 51.095 49.9095 51.7376Z" fill="black"/>
<path d="M72.8948 40.1277H69.3664C68.7054 37.4766 67.6099 34.9779 66.1022 32.6819L68.3623 30.4363C68.9851 29.8174 69.3281 28.9944 69.3281 28.1181C69.3281 27.2418 68.9856 26.4187 68.3623 25.7994L65.493 22.9484C64.2112 21.6744 62.1257 21.6748 60.8444 22.9484L58.5156 25.2627C56.1175 23.7666 53.5065 22.706 50.7335 22.1026V19.2753C50.7335 17.4695 49.2577 16 47.4431 16H43.3849C41.5704 16 40.0946 17.4695 40.0946 19.2753V22.1021C37.2102 22.7302 34.5006 23.8547 32.0198 25.4529L30.3257 23.7695C29.0449 22.496 26.959 22.496 25.6772 23.7695L22.8078 26.6205C22.1851 27.2394 21.842 28.0624 21.842 28.9387C21.842 29.815 22.1846 30.6381 22.8078 31.2574L24.5328 32.9713C22.9056 35.5281 21.7878 38.319 21.2014 41.289H19.1028C17.2883 41.289 15.8125 42.7585 15.8125 44.5644V48.5965C15.8125 50.4027 17.2883 51.8723 19.1028 51.8723H21.4322C22.1517 54.821 23.3981 57.5689 25.1473 60.0608L23.6352 61.5637C23.0125 62.1826 22.6694 63.0056 22.6694 63.8819C22.6694 64.7582 23.012 65.5813 23.6352 66.2006L26.5046 69.0516C27.7869 70.3256 29.8719 70.3256 31.1531 69.0516L32.9749 67.2415C35.5457 68.7376 38.3275 69.7421 41.2641 70.2347V72.7247C41.2641 74.5305 42.7399 76 44.5544 76H48.6127C50.4272 76 51.903 74.5305 51.903 72.7247V69.7237C54.663 68.98 57.2381 67.78 59.5762 66.1479L61.6719 68.23C62.9531 69.504 65.0386 69.5035 66.3204 68.23L69.1898 65.379C69.8125 64.7602 70.1556 63.9371 70.1556 63.0608C70.1556 62.1845 69.813 61.3615 69.1898 60.7421L66.7762 58.3435C68.1664 55.9644 69.1312 53.4032 69.6509 50.71H72.8952C74.7098 50.71 76.1856 49.2405 76.1856 47.4347V43.4026C76.1851 41.5968 74.7088 40.1277 72.8948 40.1277ZM45.9988 63.1673C36.678 63.1673 29.0952 55.466 29.0952 46C29.0952 36.534 36.678 28.8327 45.9988 28.8327C55.3196 28.8327 62.9023 36.534 62.9023 46C62.9023 55.466 55.3196 63.1673 45.9988 63.1673Z" fill="black"/>
</g>
</svg>
