<svg width="80" height="80" viewBox="0 0 80 80" fill="none" xmlns="http://www.w3.org/2000/svg">
<mask id="mask0_7380_56289" style="mask-type:alpha" maskUnits="userSpaceOnUse" x="-1" y="-1" width="82" height="82">
<rect width="80" height="80" fill="white" stroke="white" stroke-width="2"/>
</mask>
<g mask="url(#mask0_7380_56289)">
<path fill-rule="evenodd" clip-rule="evenodd" d="M68.7944 9H11.2056C9.03013 9.00261 6.94448 9.87127 5.40619 11.4154C3.8679 12.9596 3.00256 15.0532 3 17.2369L3 28.0198H77V17.2369C76.997 15.0533 76.1315 12.96 74.5933 11.416C73.0551 9.87198 70.9697 9.00296 68.7944 9ZM3 31.9136V62.7632C3.0026 64.9469 3.86795 67.0405 5.40624 68.5846C6.94453 70.1287 9.03015 70.9974 11.2056 71H68.7944C70.9697 70.997 73.0551 70.1282 74.5933 68.5842C76.1315 67.0401 76.997 64.9468 77 62.7632V31.9136H3ZM57.2304 44.5884L52.3285 49.5098L57.23 54.4312C57.4101 54.6119 57.553 54.8265 57.6505 55.0626C57.7481 55.2988 57.7983 55.5519 57.7984 55.8075C57.7984 56.0632 57.7483 56.3163 57.6509 56.5525C57.5535 56.7887 57.4108 57.0033 57.2307 57.1841C57.0507 57.3649 56.837 57.5084 56.6017 57.6063C56.3665 57.7042 56.1143 57.7546 55.8596 57.7546C55.605 57.7547 55.3528 57.7044 55.1175 57.6067C54.8822 57.5089 54.6684 57.3656 54.4882 57.1849L49.5855 52.2634L44.6814 57.1847C44.3177 57.5499 43.8243 57.7551 43.3099 57.7551C42.7955 57.7552 42.3021 57.5501 41.9383 57.185C41.5745 56.8199 41.3701 56.3247 41.3701 55.8083C41.37 55.2919 41.5743 54.7967 41.938 54.4315L46.8424 49.5098L41.938 44.5881C41.7579 44.4073 41.6151 44.1926 41.5176 43.9564C41.4202 43.7202 41.37 43.467 41.3701 43.2113C41.3701 42.9556 41.4203 42.7024 41.5178 42.4662C41.6153 42.23 41.7582 42.0154 41.9383 41.8346C42.1184 41.6538 42.3323 41.5104 42.5676 41.4126C42.803 41.3148 43.0552 41.2645 43.3099 41.2645C43.5646 41.2645 43.8168 41.3149 44.0522 41.4128C44.2875 41.5107 44.5013 41.6541 44.6814 41.8349L49.5855 46.7562L54.4882 41.8348C54.6684 41.654 54.8822 41.5107 55.1175 41.413C55.3528 41.3152 55.605 41.2649 55.8596 41.265C56.1143 41.265 56.3665 41.3155 56.6017 41.4133C56.837 41.5112 57.0507 41.6547 57.2307 41.8355C57.4108 42.0163 57.5535 42.2309 57.6509 42.4671C57.7483 42.7033 57.7984 42.9565 57.7984 43.2121C57.7983 43.4677 57.7481 43.7208 57.6505 43.957C57.553 44.1931 57.4106 44.4077 57.2304 44.5884ZM36.956 43.2046V50.354C36.9603 51.3294 36.7727 52.2959 36.4038 53.1983C36.035 54.1006 35.4922 54.9209 34.8067 55.6121C34.1211 56.3033 33.3063 56.8517 32.4091 57.226C31.5118 57.6002 30.5497 57.7929 29.5781 57.7929C28.6064 57.7929 27.6443 57.6002 26.7471 57.226C25.8498 56.8517 25.035 56.3033 24.3495 55.6121C23.6639 54.9209 23.1212 54.1006 22.7523 53.1983C22.3835 52.2959 22.1958 51.3294 22.2001 50.354V43.2046C22.2001 42.6884 22.4044 42.1932 22.7681 41.8282C23.1317 41.4631 23.625 41.2581 24.1393 41.2581C24.6536 41.2581 25.1468 41.4631 25.5105 41.8282C25.8742 42.1932 26.0785 42.6884 26.0785 43.2046V50.354C26.0785 51.2856 26.4471 52.179 27.1033 52.8377C27.7595 53.4964 28.6495 53.8664 29.5776 53.8664C30.5056 53.8664 31.3956 53.4964 32.0518 52.8377C32.708 52.179 33.0767 51.2856 33.0767 50.354V43.2046C33.0811 42.6911 33.2874 42.2002 33.6507 41.8387C34.0139 41.4771 34.5048 41.2743 35.0163 41.2743C35.5279 41.2743 36.0187 41.4771 36.382 41.8387C36.7453 42.2002 36.9516 42.6911 36.956 43.2046ZM44.307 20.4563C44.307 20.2006 44.3571 19.9475 44.4546 19.7113C44.552 19.4751 44.6948 19.2605 44.8749 19.0798C45.055 18.899 45.2688 18.7556 45.5041 18.6578C45.7394 18.56 45.9915 18.5097 46.2462 18.5097H65.2012C65.7127 18.5142 66.2018 18.7213 66.562 19.0859C66.9221 19.4506 67.1242 19.9433 67.1242 20.4568C67.1242 20.9703 66.9221 21.463 66.562 21.8277C66.2018 22.1923 65.7127 22.3994 65.2012 22.4038H46.2462C45.9915 22.4038 45.7392 22.3535 45.5039 22.2556C45.2685 22.1577 45.0547 22.0142 44.8746 21.8334C44.6946 21.6525 44.5517 21.4378 44.4544 21.2015C44.357 20.9652 44.3069 20.712 44.307 20.4563ZM12.8606 20.4563C12.8603 20.2007 12.9102 19.9475 13.0075 19.7112C13.1048 19.475 13.2475 19.2603 13.4275 19.0795C13.6076 18.8987 13.8213 18.7553 14.0566 18.6575C14.2919 18.5598 14.5441 18.5095 14.7988 18.5097H14.801C15.1846 18.5099 15.5596 18.6242 15.8785 18.8382C16.1975 19.0523 16.446 19.3564 16.5927 19.7123C16.7394 20.0681 16.7777 20.4596 16.7028 20.8373C16.6278 21.215 16.443 21.5619 16.1716 21.8341C15.9002 22.1063 15.5546 22.2917 15.1783 22.3667C14.802 22.4417 14.412 22.403 14.0576 22.2555C13.7032 22.1081 13.4003 21.8584 13.1872 21.5381C12.9742 21.2179 12.8605 20.8414 12.8606 20.4563ZM21.2569 20.4563C21.2566 20.2007 21.3065 19.9475 21.4037 19.7113C21.501 19.475 21.6437 19.2604 21.8237 19.0796C22.0037 18.8987 22.2175 18.7554 22.4528 18.6576C22.6881 18.5598 22.9403 18.5096 23.1949 18.5097H23.1981C23.5817 18.51 23.9566 18.6245 24.2754 18.8386C24.5942 19.0528 24.8426 19.357 24.9892 19.7129C25.1358 20.0687 25.174 20.4602 25.0989 20.8378C25.0239 21.2155 24.8389 21.5623 24.5676 21.8344C24.2962 22.1065 23.9505 22.2918 23.5742 22.3667C23.1979 22.4417 22.808 22.403 22.4536 22.2555C22.0993 22.108 21.7964 21.8583 21.5834 21.5381C21.3704 21.2178 21.2568 20.8413 21.2569 20.4563ZM29.6518 20.4563C29.6517 19.9402 29.8559 19.4451 30.2193 19.0801C30.5828 18.7151 31.0759 18.5099 31.59 18.5097H31.5942C31.9778 18.5103 32.3525 18.625 32.6711 18.8393C32.9898 19.0537 33.2379 19.358 33.3843 19.7139C33.5307 20.0697 33.5686 20.4612 33.4934 20.8387C33.4182 21.2162 33.2332 21.5629 32.9617 21.8349C32.6903 22.1069 32.3446 22.292 31.9683 22.3669C31.5921 22.4417 31.2022 22.4029 30.8479 22.2553C30.4937 22.1078 30.1909 21.8581 29.978 21.5379C29.765 21.2177 29.6517 20.8413 29.6518 20.4563Z" fill="black"/>
</g>
</svg>
