<svg width="80" height="80" viewBox="0 0 80 80" fill="none" xmlns="http://www.w3.org/2000/svg">
<mask id="mask0_7380_56283" style="mask-type:alpha" maskUnits="userSpaceOnUse" x="-1" y="-1" width="82" height="82">
<rect width="80" height="80" fill="white" stroke="white" stroke-width="2"/>
</mask>
<g mask="url(#mask0_7380_56283)">
<path fill-rule="evenodd" clip-rule="evenodd" d="M77.3727 46.6269C69.4955 46.6269 65.5432 56.1697 71.1128 61.7394C72.1392 62.7657 72.1392 64.4295 71.1128 65.4558L65.4558 71.1128C64.4295 72.1391 62.7657 72.1391 61.7394 71.1128C56.1698 65.5432 46.6269 69.4955 46.6269 77.3727C46.6269 78.8243 45.4503 80 43.9996 80H36.0004C34.5497 80 33.3731 78.8243 33.3731 77.3727C33.3731 69.4864 23.8375 65.5368 18.2606 71.1128C17.2343 72.1391 15.5705 72.1391 14.5442 71.1128L8.88717 65.4558C7.86085 64.4304 7.86085 62.7657 8.88717 61.7394C14.4568 56.1697 10.5045 46.6269 2.62727 46.6269C1.17567 46.6269 0 45.4503 0 43.9996V36.0004C0 34.5497 1.17567 33.3731 2.62727 33.3731C10.5045 33.3731 14.4568 23.8302 8.88717 18.2606C7.86085 17.2343 7.86085 15.5705 8.88717 14.5442L14.5442 8.88717C15.5705 7.86085 17.2343 7.86085 18.2606 8.88717C23.8303 14.4568 33.3731 10.5045 33.3731 2.62726C33.3731 1.17567 34.5497 0 36.0004 0H43.9996C45.4503 0 46.6269 1.17567 46.6269 2.62726C46.6269 10.5045 56.1698 14.4568 61.7394 8.88717C62.7657 7.86085 64.4295 7.86085 65.4558 8.88717L71.1128 14.5442C72.1392 15.5705 72.1392 17.2343 71.1128 18.2606C65.5432 23.8302 69.4955 33.3731 77.3727 33.3731C78.8243 33.3731 80 34.5497 80 36.0004V43.9996C80.0009 45.4503 78.8243 46.6269 77.3727 46.6269ZM40.0009 17.0831C27.3445 17.0831 17.085 27.3436 17.085 40C17.085 52.6564 27.3445 62.9169 40.0009 62.9169C52.6573 62.9169 62.9178 52.6564 62.9178 40C62.9178 27.3436 52.6573 17.0831 40.0009 17.0831ZM40.0009 19.4163C28.6322 19.4163 19.4181 28.6313 19.4181 39.9991C19.4181 51.3678 28.6322 60.5828 40.0009 60.5828C51.3696 60.5828 60.5837 51.3678 60.5837 39.9991C60.5837 28.6313 51.3687 19.4163 40.0009 19.4163ZM40.4526 33.4933L37.289 45.933C37.1305 46.5568 37.5075 47.1915 38.1322 47.35C38.756 47.5084 39.3908 47.1314 39.5492 46.5067L42.7129 34.067C42.8713 33.4432 42.4943 32.8085 41.8696 32.65C41.2458 32.4916 40.6111 32.8686 40.4526 33.4933ZM46.8482 47.3026L53.3257 40.8251C53.7811 40.3697 53.7811 39.6312 53.3257 39.1749L46.8482 32.6974C46.3929 32.2421 45.6543 32.2421 45.1981 32.6974C44.7427 33.1527 44.7427 33.8913 45.1981 34.3475L50.8515 40L45.199 45.6525C44.7436 46.1078 44.7436 46.8464 45.199 47.3026C45.6543 47.7579 46.3929 47.7579 46.8482 47.3026ZM34.8038 45.6525L29.1504 40L34.8028 34.3475C35.2582 33.8922 35.2582 33.1536 34.8028 32.6974C34.3475 32.2421 33.609 32.2421 33.1527 32.6974L26.6752 39.1749C26.2198 39.6303 26.2198 40.3688 26.6752 40.8251L33.1527 47.3026C33.6081 47.7579 34.3466 47.7579 34.8028 47.3026C35.2591 46.8464 35.2591 46.1078 34.8038 45.6525Z" fill="black"/>
</g>
</svg>
