<svg width="80" height="80" viewBox="0 0 80 80" fill="none" xmlns="http://www.w3.org/2000/svg">
<mask id="mask0_7380_56286" style="mask-type:alpha" maskUnits="userSpaceOnUse" x="-1" y="-1" width="82" height="82">
<rect width="80" height="80" fill="white" stroke="white" stroke-width="2"/>
</mask>
<g mask="url(#mask0_7380_56286)">
<path d="M40.3234 49.1406C39.8749 62.0082 19.7058 62.5953 19.4022 48.6285C19.5162 43.1645 23.8381 38.6944 29.3461 38.3561C31.9764 42.8523 35.7662 46.5757 40.3234 49.1406ZM56.5621 56.6719L53.9774 55.0452C54.1599 54.3523 54.3119 53.6594 54.4336 52.9666C51.6056 52.9628 48.7965 52.526 46.1016 51.6712C45.4668 55.4556 43.4712 58.8824 40.4912 61.3305C37.5074 63.7744 33.7367 65.0735 29.8632 64.987C10.6255 65.0999 6.46752 37.1397 26.8527 32.6021C25.5528 28.3281 25.2829 23.8093 26.0621 19.4068C24.6976 19.4257 23.58 20.4951 23.5078 21.8469L23.3557 24.8895C19.1593 26.008 15.3316 28.1995 12.2568 31.246L9.6112 29.8301C8.39865 29.1786 6.88201 29.589 6.17507 30.7639L2.34357 37.3614C1.65558 38.5287 2.03188 40.0275 3.19501 40.7354L5.84062 42.3622C4.65463 46.5082 4.65463 50.8989 5.84062 55.0446L3.19501 56.6714C2.03189 57.3944 1.6556 58.9007 2.34357 60.0755L6.17507 66.6428C7.72596 69.1733 10.4019 67.1248 12.2568 66.1909C15.3319 69.2298 19.1596 71.4139 23.3557 72.5172L23.5078 75.59C23.5914 76.9343 24.7051 77.985 26.0621 78H33.6643C35.0288 77.9962 36.1464 76.938 36.2186 75.59L36.3707 72.5172C40.5746 71.4289 44.4061 69.2449 47.4696 66.1909C49.2941 67.0646 52.0309 69.1734 53.5513 66.6428L57.3828 60.0755C58.0708 58.9082 57.71 57.41 56.5621 56.6719ZM78 23.9555C77.9696 29.4873 75.9322 34.8198 72.2566 38.9844C68.581 43.1454 63.5141 45.8567 57.9874 46.6211C52.4568 47.3855 46.8349 46.1542 42.1486 43.1454C23.1434 31.0047 31.8398 1.02988 54.8288 1C60.9751 1.00377 66.8667 3.42505 71.2115 7.72925C75.5561 12.0333 77.9962 17.8707 78 23.9555ZM52.8216 18.8945C52.7798 18.3522 52.9736 17.8137 53.3576 17.4221C53.7415 17.0267 54.2774 16.8196 54.8286 16.846H59.9372C61.6021 16.8234 62.94 15.4828 62.94 13.8335C62.94 12.1879 61.6021 10.8435 59.9372 10.8209H57.8694C57.8352 9.9925 57.4627 9.21674 56.8317 8.67073C56.2046 8.12095 55.3759 7.85735 54.5434 7.9289C53.711 8.00421 52.9432 8.41467 52.4224 9.06238C51.9017 9.71008 51.6736 10.5423 51.7877 11.3632C48.207 12.8355 46.1582 16.5937 46.8804 20.3668C47.5988 24.14 50.8944 26.8964 54.7677 26.968C55.3379 26.9304 55.8967 27.1337 56.2957 27.5329C56.6986 27.932 56.9077 28.4856 56.8659 29.0467C56.9115 29.5964 56.71 30.1387 56.3185 30.5304C55.9308 30.9258 55.3873 31.1291 54.8286 31.0952H49.7199C48.0589 31.1216 46.7247 32.4622 46.7247 34.1077C46.7247 35.757 48.0589 37.0977 49.7199 37.1202H51.7877C51.8257 37.9524 52.202 38.732 52.8368 39.278C53.4678 39.824 54.3002 40.0914 55.1364 40.0123C55.9689 39.9332 56.7367 39.519 57.2537 38.8638C57.7706 38.2085 57.9949 37.3725 57.8694 36.5479C61.4577 35.0944 63.5217 31.3438 62.807 27.5706C62.0924 23.7974 58.7969 21.041 54.9198 20.9732C54.3534 21.0146 53.7947 20.8075 53.3917 20.4083C52.9926 20.0092 52.7836 19.4593 52.8216 18.8945Z" fill="black"/>
</g>
</svg>
