<svg width="93" height="92" viewBox="0 0 93 92" fill="none" xmlns="http://www.w3.org/2000/svg">
<mask id="mask0_7374_80996" style="mask-type:alpha" maskUnits="userSpaceOnUse" x="0" y="0" width="93" height="92">
<rect x="0.25" width="92" height="92" fill="black"/>
</mask>
<g mask="url(#mask0_7374_80996)">
<path d="M16.25 64C16.25 58.342 16.25 55.516 18.008 53.758C19.766 52 22.592 52 28.25 52C33.908 52 36.734 52 38.492 53.758C40.25 55.516 40.25 58.342 40.25 64C40.25 69.658 40.25 72.484 38.492 74.242C36.734 76 33.908 76 28.25 76C22.592 76 19.766 76 18.008 74.242C16.25 72.484 16.25 69.658 16.25 64Z" fill="black"/>
<path fill-rule="evenodd" clip-rule="evenodd" d="M20.642 20.392C16.25 24.79 16.25 31.858 16.25 46V49.414C17.777 48.415 19.457 47.974 21.068 47.761C23.003 47.5 25.385 47.5 27.983 47.5H28.52C31.115 47.5 33.497 47.5 35.432 47.761C37.565 48.046 39.821 48.721 41.672 50.575C43.529 52.429 44.204 54.685 44.492 56.815C44.75 58.753 44.75 61.135 44.75 63.73V64.27C44.75 66.865 44.75 69.247 44.489 71.182C44.273 72.793 43.835 74.473 42.839 75.997L46.25 76C60.392 76 67.463 76 71.858 71.608C76.25 67.21 76.25 60.139 76.25 46C76.25 31.858 76.25 24.787 71.858 20.392C67.46 16 60.389 16 46.25 16C32.108 16 25.037 16 20.642 20.392ZM50 28.75C49.4033 28.75 48.831 28.9871 48.409 29.409C47.9871 29.831 47.75 30.4033 47.75 31C47.75 31.5967 47.9871 32.169 48.409 32.591C48.831 33.0129 49.4033 33.25 50 33.25H55.82L44.66 44.41C44.4389 44.616 44.2616 44.8644 44.1387 45.1404C44.0157 45.4164 43.9496 45.7143 43.9442 46.0164C43.9389 46.3185 43.9945 46.6186 44.1076 46.8988C44.2208 47.179 44.3892 47.4335 44.6029 47.6471C44.8165 47.8608 45.071 48.0292 45.3512 48.1424C45.6314 48.2555 45.9315 48.3111 46.2336 48.3058C46.5357 48.3004 46.8336 48.2343 47.1096 48.1113C47.3856 47.9884 47.634 47.8111 47.84 47.59L59 36.43V42.25C59 42.8467 59.2371 43.419 59.659 43.841C60.081 44.2629 60.6533 44.5 61.25 44.5C61.8467 44.5 62.419 44.2629 62.841 43.841C63.2629 43.419 63.5 42.8467 63.5 42.25V31C63.5 30.4033 63.2629 29.831 62.841 29.409C62.419 28.9871 61.8467 28.75 61.25 28.75H50Z" fill="black"/>
</g>
</svg>
