<svg width="76" height="76" viewBox="0 0 76 76" fill="none" xmlns="http://www.w3.org/2000/svg">
<mask id="mask0_7039_56011" style="mask-type:alpha" maskUnits="userSpaceOnUse" x="-1" y="-1" width="78" height="78">
<rect width="76" height="76" fill="white" stroke="white" stroke-width="2"/>
</mask>
<g mask="url(#mask0_7039_56011)">
<path d="M11.9912 29.1886H24.3969C25.03 29.1871 25.6366 28.9349 26.0842 28.4873C26.5319 28.0397 26.784 27.433 26.7855 26.8V16.6514V14.3657C26.781 13.7357 26.5271 13.1332 26.0795 12.6898C25.6319 12.2465 25.0269 11.9985 24.3969 12H11.9912C11.3587 12 10.752 12.2509 10.3043 12.6976C9.85648 13.1443 9.60416 13.7504 9.60265 14.3829V26.8C9.60265 27.4335 9.8543 28.041 10.3022 28.489C10.7502 28.9369 11.3577 29.1886 11.9912 29.1886ZM10.7455 14.3829C10.7455 14.2195 10.7778 14.0578 10.8404 13.907C10.9031 13.7562 10.995 13.6192 11.1107 13.504C11.2265 13.3888 11.3638 13.2976 11.5149 13.2356C11.666 13.1736 11.8279 13.1421 11.9912 13.1429H24.3969C24.5598 13.1429 24.721 13.1749 24.8715 13.2373C25.0219 13.2996 25.1586 13.3909 25.2737 13.5061C25.3889 13.6212 25.4802 13.7579 25.5425 13.9083C25.6049 14.0588 25.6369 14.22 25.6369 14.3829V16.0971H10.7455V14.3829ZM10.7455 17.24H25.6426V26.8C25.6411 27.1299 25.5094 27.4459 25.2761 27.6792C25.0428 27.9125 24.7269 28.0442 24.3969 28.0457H11.9912C11.6613 28.0442 11.3453 27.9125 11.112 27.6792C10.8787 27.4459 10.747 27.1299 10.7455 26.8V17.24ZM13.7741 14.6286C13.7741 14.7801 13.7139 14.9255 13.6067 15.0326C13.4995 15.1398 13.3542 15.2 13.2026 15.2H12.6312C12.4797 15.2 12.3343 15.1398 12.2272 15.0326C12.12 14.9255 12.0598 14.7801 12.0598 14.6286C12.0598 14.477 12.12 14.3317 12.2272 14.2245C12.3343 14.1174 12.4797 14.0571 12.6312 14.0571H13.2026C13.3513 14.0571 13.4941 14.1149 13.6008 14.2184C13.7075 14.3219 13.7696 14.4629 13.7741 14.6114V14.6286ZM16.0598 14.6286C16.0598 14.7801 15.9996 14.9255 15.8924 15.0326C15.7853 15.1398 15.6399 15.2 15.4884 15.2H14.9169C14.7654 15.2 14.62 15.1398 14.5129 15.0326C14.4057 14.9255 14.3455 14.7801 14.3455 14.6286C14.3455 14.477 14.4057 14.3317 14.5129 14.2245C14.62 14.1174 14.7654 14.0571 14.9169 14.0571H15.4884C15.5639 14.0541 15.6393 14.0661 15.7101 14.0923C15.781 14.1186 15.8459 14.1587 15.9012 14.2102C15.9565 14.2618 16.001 14.3238 16.0321 14.3927C16.0633 14.4615 16.0804 14.5359 16.0826 14.6114L16.0598 14.6286ZM18.3455 14.6286C18.3455 14.7801 18.2853 14.9255 18.1781 15.0326C18.071 15.1398 17.9256 15.2 17.7741 15.2H17.2026C17.0511 15.2 16.9058 15.1398 16.7986 15.0326C16.6914 14.9255 16.6312 14.7801 16.6312 14.6286C16.6312 14.477 16.6914 14.3317 16.7986 14.2245C16.9058 14.1174 17.0511 14.0571 17.2026 14.0571H17.7741C17.8514 14.0509 17.9293 14.0605 18.0028 14.0853C18.0764 14.1102 18.1441 14.1497 18.2018 14.2016C18.2596 14.2535 18.3062 14.3166 18.3387 14.387C18.3713 14.4575 18.3891 14.5338 18.3912 14.6114L18.3455 14.6286ZM24.5798 14.6286C24.5798 14.7801 24.5196 14.9255 24.4124 15.0326C24.3053 15.1398 24.1599 15.2 24.0084 15.2H20.4026C20.2511 15.2 20.1058 15.1398 19.9986 15.0326C19.8914 14.9255 19.8312 14.7801 19.8312 14.6286C19.8312 14.477 19.8914 14.3317 19.9986 14.2245C20.1058 14.1174 20.2511 14.0571 20.4026 14.0571H24.0541C24.2027 14.0571 24.3455 14.1149 24.4522 14.2184C24.5589 14.3219 24.621 14.4629 24.6255 14.6114L24.5798 14.6286ZM43.8026 12H31.3969C30.7684 12.006 30.1676 12.2595 29.7247 12.7056C29.2819 13.1517 29.0327 13.7543 29.0312 14.3829V26.8C29.0312 27.4335 29.2829 28.041 29.7308 28.489C30.1788 28.9369 30.7863 29.1886 31.4198 29.1886H43.8026C44.4327 29.1826 45.035 28.9284 45.4789 28.4813C45.9228 28.0342 46.1726 27.4301 46.1741 26.8V16.6514V14.3657C46.1681 13.7392 45.9162 13.14 45.4725 12.6975C45.0289 12.255 44.4292 12.0045 43.8026 12ZM30.1741 14.3829C30.1755 14.0574 30.3043 13.7454 30.5328 13.5137C30.7614 13.2819 31.0715 13.1488 31.3969 13.1429H43.8026C44.1291 13.1474 44.4407 13.2798 44.6704 13.5117C44.9002 13.7436 45.0297 14.0564 45.0312 14.3829V16.0971H30.1741V14.3829ZM45.0312 26.8C45.0297 27.1299 44.898 27.4459 44.6647 27.6792C44.4314 27.9125 44.1154 28.0442 43.7855 28.0457H31.3969C31.071 28.0383 30.7608 27.9039 30.5324 27.6713C30.3041 27.4386 30.1755 27.126 30.1741 26.8V17.2229H45.0312V26.8ZM33.1798 14.6114C33.1798 14.763 33.1196 14.9083 33.0124 15.0155C32.9053 15.1227 32.7599 15.1829 32.6084 15.1829H32.0369C31.8854 15.1829 31.74 15.1227 31.6329 15.0155C31.5257 14.9083 31.4655 14.763 31.4655 14.6114C31.4655 14.4599 31.5257 14.3145 31.6329 14.2074C31.74 14.1002 31.8854 14.04 32.0369 14.04H32.6084C32.7599 14.04 32.9053 14.1002 33.0124 14.2074C33.1196 14.3145 33.1798 14.4599 33.1798 14.6114ZM35.4655 14.6114C35.4655 14.763 35.4053 14.9083 35.2981 15.0155C35.191 15.1227 35.0456 15.1829 34.8941 15.1829H34.3226C34.1711 15.1829 34.0257 15.1227 33.9186 15.0155C33.8114 14.9083 33.7512 14.763 33.7512 14.6114C33.7512 14.4599 33.8114 14.3145 33.9186 14.2074C34.0257 14.1002 34.1711 14.04 34.3226 14.04H34.8941C34.971 14.0369 35.0478 14.0494 35.1198 14.0768C35.1918 14.1041 35.2575 14.1457 35.313 14.1991C35.3685 14.2524 35.4126 14.3165 35.4428 14.3873C35.4729 14.4582 35.4884 14.5344 35.4884 14.6114H35.4655ZM37.7512 14.6114C37.7512 14.763 37.691 14.9083 37.5839 15.0155C37.4767 15.1227 37.3313 15.1829 37.1798 15.1829H36.6084C36.4568 15.1829 36.3115 15.1227 36.2043 15.0155C36.0971 14.9083 36.0369 14.763 36.0369 14.6114C36.0369 14.4599 36.0971 14.3145 36.2043 14.2074C36.3115 14.1002 36.4568 14.04 36.6084 14.04H37.1798C37.2586 14.0337 37.3378 14.0438 37.4125 14.0696C37.4872 14.0955 37.5557 14.1366 37.6137 14.1903C37.6717 14.244 37.718 14.3092 37.7495 14.3817C37.781 14.4541 37.7972 14.5324 37.7969 14.6114H37.7512ZM43.9855 14.6114C43.9855 14.763 43.9253 14.9083 43.8181 15.0155C43.711 15.1227 43.5656 15.1829 43.4141 15.1829H39.8084C39.6568 15.1829 39.5115 15.1227 39.4043 15.0155C39.2971 14.9083 39.2369 14.763 39.2369 14.6114C39.2369 14.4599 39.2971 14.3145 39.4043 14.2074C39.5115 14.1002 39.6568 14.04 39.8084 14.04H43.4598C43.6113 14.04 43.7567 14.1002 43.8638 14.2074C43.971 14.3145 44.0312 14.4599 44.0312 14.6114H43.9855ZM63.2084 12H50.8026C50.1701 12 49.5635 12.2509 49.1157 12.6976C48.6679 13.1443 48.4156 13.7504 48.4141 14.3829V26.8C48.4156 27.433 48.6677 28.0397 49.1153 28.4873C49.563 28.9349 50.1696 29.1871 50.8026 29.1886H63.2084C63.5225 29.1893 63.8337 29.1281 64.1242 29.0084C64.4146 28.8887 64.6786 28.7129 64.901 28.491C65.1234 28.2691 65.2999 28.0056 65.4203 27.7154C65.5407 27.4252 65.6026 27.1142 65.6026 26.8V16.6514V14.3657C65.5966 13.7352 65.3415 13.1327 64.893 12.6895C64.4445 12.2463 63.8389 11.9985 63.2084 12ZM49.5569 14.3829C49.5584 14.0535 49.6904 13.7381 49.9238 13.5057C50.1573 13.2733 50.4732 13.1429 50.8026 13.1429H63.2084C63.3719 13.1421 63.5341 13.1736 63.6855 13.2355C63.8369 13.2974 63.9747 13.3885 64.0909 13.5037C64.2071 13.6188 64.2995 13.7557 64.3628 13.9066C64.4261 14.0574 64.459 14.2193 64.4598 14.3829V16.0971H49.5569V14.3829ZM64.4598 26.8C64.4583 27.1299 64.3266 27.4459 64.0933 27.6792C63.86 27.9125 63.544 28.0442 63.2141 28.0457H50.8026C50.4727 28.0442 50.1567 27.9125 49.9235 27.6792C49.6902 27.4459 49.5584 27.1299 49.5569 26.8V17.2229H64.4598V26.8ZM52.5855 14.6114C52.5855 14.763 52.5253 14.9083 52.4181 15.0155C52.311 15.1227 52.1656 15.1829 52.0141 15.1829H51.4426C51.2911 15.1829 51.1458 15.1227 51.0386 15.0155C50.9314 14.9083 50.8712 14.763 50.8712 14.6114C50.8712 14.4599 50.9314 14.3145 51.0386 14.2074C51.1458 14.1002 51.2911 14.04 51.4426 14.04H52.0141C52.1656 14.04 52.311 14.1002 52.4181 14.2074C52.5253 14.3145 52.5855 14.4599 52.5855 14.6114ZM54.8712 14.6114C54.8712 14.763 54.811 14.9083 54.7039 15.0155C54.5967 15.1227 54.4513 15.1829 54.2998 15.1829H53.7284C53.5768 15.1829 53.4315 15.1227 53.3243 15.0155C53.2171 14.9083 53.1569 14.763 53.1569 14.6114C53.1569 14.4599 53.2171 14.3145 53.3243 14.2074C53.4315 14.1002 53.5768 14.04 53.7284 14.04H54.2998C54.3767 14.0369 54.4535 14.0494 54.5255 14.0768C54.5975 14.1041 54.6632 14.1457 54.7187 14.1991C54.7742 14.2524 54.8184 14.3165 54.8485 14.3873C54.8786 14.4582 54.8941 14.5344 54.8941 14.6114H54.8712ZM57.1569 14.6114C57.1569 14.763 57.0967 14.9083 56.9896 15.0155C56.8824 15.1227 56.7371 15.1829 56.5855 15.1829H56.0141C55.8625 15.1829 55.7172 15.1227 55.61 15.0155C55.5029 14.9083 55.4426 14.763 55.4426 14.6114C55.4426 14.4599 55.5029 14.3145 55.61 14.2074C55.7172 14.1002 55.8625 14.04 56.0141 14.04H56.5855C56.6648 14.0328 56.7446 14.0423 56.82 14.0678C56.8954 14.0933 56.9646 14.1343 57.0232 14.188C57.0819 14.2418 57.1286 14.3073 57.1605 14.3802C57.1924 14.4531 57.2087 14.5319 57.2084 14.6114H57.1569ZM63.3855 14.6114C63.3855 14.763 63.3253 14.9083 63.2181 15.0155C63.111 15.1227 62.9656 15.1829 62.8141 15.1829H59.2141C59.0625 15.1829 58.9172 15.1227 58.81 15.0155C58.7028 14.9083 58.6426 14.763 58.6426 14.6114C58.6426 14.4599 58.7028 14.3145 58.81 14.2074C58.9172 14.1002 59.0625 14.04 59.2141 14.04H62.8655C63.0171 14.04 63.1624 14.1002 63.2696 14.2074C63.3767 14.3145 63.4369 14.4599 63.4369 14.6114H63.3855ZM11.9912 48.5714H24.3969C24.7106 48.5714 25.0212 48.5096 25.311 48.3896C25.6008 48.2696 25.8641 48.0936 26.0859 47.8718C26.3077 47.65 26.4836 47.3867 26.6037 47.0969C26.7237 46.8071 26.7855 46.4965 26.7855 46.1829V36.0571V33.7714C26.7735 33.1459 26.5166 32.55 26.07 32.1119C25.6233 31.6738 25.0226 31.4285 24.3969 31.4286H11.9912C11.3617 31.4285 10.7576 31.6771 10.3103 32.1201C9.86298 32.5631 9.60867 33.1648 9.60265 33.7943V46.2057C9.60867 46.8352 9.86298 47.4369 10.3103 47.8799C10.7576 48.3229 11.3617 48.5715 11.9912 48.5714ZM10.7455 33.7943C10.7515 33.4679 10.8854 33.1569 11.1184 32.9282C11.3513 32.6995 11.6648 32.5714 11.9912 32.5714H24.3969C24.7263 32.5729 25.0417 32.7049 25.2741 32.9383C25.5065 33.1718 25.6369 33.4878 25.6369 33.8171V35.5314H10.7455V33.7943ZM10.7455 36.6514H25.6426V46.2057C25.6352 46.5317 25.5009 46.8418 25.2682 47.0702C25.0356 47.2986 24.723 47.4272 24.3969 47.4286H11.9912C11.6652 47.4272 11.3526 47.2986 11.1199 47.0702C10.8873 46.8418 10.7529 46.5317 10.7455 46.2057V36.6514ZM13.7741 34.04C13.7741 34.1916 13.7139 34.3369 13.6067 34.4441C13.4995 34.5512 13.3542 34.6114 13.2026 34.6114H12.6312C12.4797 34.6114 12.3343 34.5512 12.2272 34.4441C12.12 34.3369 12.0598 34.1916 12.0598 34.04C12.0598 33.8885 12.12 33.7431 12.2272 33.6359C12.3343 33.5288 12.4797 33.4686 12.6312 33.4686H13.2026C13.3503 33.4685 13.4923 33.5255 13.5988 33.6278C13.7054 33.7301 13.7682 33.8696 13.7741 34.0171V34.04ZM16.0598 34.04C16.0598 34.1916 15.9996 34.3369 15.8924 34.4441C15.7853 34.5512 15.6399 34.6114 15.4884 34.6114H14.9169C14.7654 34.6114 14.62 34.5512 14.5129 34.4441C14.4057 34.3369 14.3455 34.1916 14.3455 34.04C14.3455 33.8885 14.4057 33.7431 14.5129 33.6359C14.62 33.5288 14.7654 33.4686 14.9169 33.4686H15.4884C15.5634 33.4655 15.6383 33.4773 15.7088 33.5032C15.7793 33.5291 15.844 33.5687 15.8992 33.6196C15.9544 33.6706 15.9991 33.7319 16.0305 33.8001C16.062 33.8683 16.0797 33.9421 16.0826 34.0171L16.0598 34.04ZM18.3455 34.04C18.3455 34.1916 18.2853 34.3369 18.1781 34.4441C18.071 34.5512 17.9256 34.6114 17.7741 34.6114H17.2026C17.0511 34.6114 16.9058 34.5512 16.7986 34.4441C16.6914 34.3369 16.6312 34.1916 16.6312 34.04C16.6312 33.8885 16.6914 33.7431 16.7986 33.6359C16.9058 33.5288 17.0511 33.4686 17.2026 33.4686H17.7741C17.851 33.4623 17.9284 33.4718 18.0015 33.4963C18.0747 33.5207 18.1421 33.5598 18.1998 33.611C18.2575 33.6623 18.3042 33.7247 18.3371 33.7945C18.37 33.8643 18.3884 33.94 18.3912 34.0171L18.3455 34.04ZM24.5798 34.04C24.5798 34.1916 24.5196 34.3369 24.4124 34.4441C24.3053 34.5512 24.1599 34.6114 24.0084 34.6114H20.4026C20.2511 34.6114 20.1058 34.5512 19.9986 34.4441C19.8914 34.3369 19.8312 34.1916 19.8312 34.04C19.8312 33.8885 19.8914 33.7431 19.9986 33.6359C20.1058 33.5288 20.2511 33.4686 20.4026 33.4686H24.0541C24.2018 33.4685 24.3437 33.5255 24.4503 33.6278C24.5568 33.7301 24.6196 33.8696 24.6255 34.0171L24.5798 34.04ZM63.2084 31.4286H50.8026C50.1696 31.4301 49.563 31.6822 49.1153 32.1298C48.6677 32.5775 48.4156 33.1841 48.4141 33.8171V46.2057C48.4201 46.8352 48.6744 47.4369 49.1217 47.8799C49.569 48.3229 50.1731 48.5715 50.8026 48.5714H63.2084C63.8389 48.573 64.4445 48.3251 64.893 47.8819C65.3415 47.4388 65.5966 46.8362 65.6026 46.2057V36.0571V33.7714C65.5892 33.1454 65.331 32.5495 64.8835 32.1116C64.4359 31.6736 63.8346 31.4284 63.2084 31.4286ZM49.5569 33.7943C49.5644 33.4684 49.6987 33.1582 49.9314 32.9298C50.164 32.7014 50.4766 32.5728 50.8026 32.5714H63.2084C63.5354 32.5713 63.8494 32.6993 64.0833 32.9278C64.3172 33.1564 64.4523 33.4674 64.4598 33.7943V35.5086H49.5569V33.7943ZM64.4598 46.2057C64.4523 46.5326 64.3172 46.8437 64.0833 47.0722C63.8494 47.3007 63.5354 47.4287 63.2084 47.4286H50.8026C50.4727 47.4271 50.1567 47.2953 49.9235 47.062C49.6902 46.8288 49.5584 46.5128 49.5569 46.1829V36.6286H64.4598V46.2057ZM52.5855 34.0171C52.5855 34.1687 52.5253 34.314 52.4181 34.4212C52.311 34.5284 52.1656 34.5886 52.0141 34.5886H51.4426C51.2911 34.5886 51.1458 34.5284 51.0386 34.4212C50.9314 34.314 50.8712 34.1687 50.8712 34.0171C50.8712 33.8656 50.9314 33.7203 51.0386 33.6131C51.1458 33.5059 51.2911 33.4457 51.4426 33.4457H52.0141C52.1656 33.4457 52.311 33.5059 52.4181 33.6131C52.5253 33.7203 52.5855 33.8656 52.5855 34.0171ZM54.8712 34.0171C54.8712 34.1687 54.811 34.314 54.7039 34.4212C54.5967 34.5284 54.4513 34.5886 54.2998 34.5886H53.7284C53.5768 34.5886 53.4315 34.5284 53.3243 34.4212C53.2171 34.314 53.1569 34.1687 53.1569 34.0171C53.1569 33.8656 53.2171 33.7203 53.3243 33.6131C53.4315 33.5059 53.5768 33.4457 53.7284 33.4457H54.2998C54.3767 33.4426 54.4535 33.4551 54.5255 33.4825C54.5975 33.5098 54.6632 33.5514 54.7187 33.6048C54.7742 33.6582 54.8184 33.7222 54.8485 33.7931C54.8786 33.8639 54.8941 33.9401 54.8941 34.0171H54.8712ZM57.1569 34.0171C57.1569 34.1687 57.0967 34.314 56.9896 34.4212C56.8824 34.5284 56.7371 34.5886 56.5855 34.5886H56.0141C55.8625 34.5886 55.7172 34.5284 55.61 34.4212C55.5029 34.314 55.4426 34.1687 55.4426 34.0171C55.4426 33.8656 55.5029 33.7203 55.61 33.6131C55.7172 33.5059 55.8625 33.4457 56.0141 33.4457H56.5855C56.6648 33.4386 56.7446 33.448 56.82 33.4735C56.8954 33.499 56.9646 33.54 57.0232 33.5938C57.0819 33.6475 57.1286 33.713 57.1605 33.7859C57.1924 33.8588 57.2087 33.9376 57.2084 34.0171H57.1569ZM63.3855 34.0171C63.3855 34.1687 63.3253 34.314 63.2181 34.4212C63.111 34.5284 62.9656 34.5886 62.8141 34.5886H59.2141C59.0625 34.5886 58.9172 34.5284 58.81 34.4212C58.7028 34.314 58.6426 34.1687 58.6426 34.0171C58.6426 33.8656 58.7028 33.7203 58.81 33.6131C58.9172 33.5059 59.0625 33.4457 59.2141 33.4457H62.8655C63.0171 33.4457 63.1624 33.5059 63.2696 33.6131C63.3767 33.7203 63.4369 33.8656 63.4369 34.0171H63.3855ZM11.9912 68H24.3969C24.7106 68 25.0212 67.9382 25.311 67.8182C25.6008 67.6981 25.8641 67.5222 26.0859 67.3004C26.3077 67.0786 26.4836 66.8153 26.6037 66.5255C26.7237 66.2357 26.7855 65.9251 26.7855 65.6114V55.4629V53.1771C26.7855 52.5446 26.5346 51.938 26.0879 51.4902C25.6412 51.0424 25.0351 50.7901 24.4026 50.7886H11.9912C11.6756 50.7886 11.3631 50.8511 11.0718 50.9726C10.7805 51.094 10.5162 51.272 10.2941 51.4962C10.072 51.7205 9.89655 51.9865 9.77787 52.2789C9.65918 52.5714 9.59963 52.8844 9.60265 53.2V65.6114C9.60265 65.9251 9.66443 66.2357 9.78447 66.5255C9.9045 66.8153 10.0804 67.0786 10.3022 67.3004C10.524 67.5222 10.7874 67.6981 11.0772 67.8182C11.3669 67.9382 11.6775 68 11.9912 68ZM10.7455 53.2C10.7455 52.8696 10.8767 52.5528 11.1104 52.3191C11.344 52.0855 11.6608 51.9543 11.9912 51.9543H24.3969C24.7263 51.9558 25.0417 52.0877 25.2741 52.3212C25.5065 52.5546 25.6369 52.8706 25.6369 53.2V54.9143H10.7455V53.2ZM10.7455 56.0571H25.6426V65.6114C25.6426 65.9418 25.5114 66.2587 25.2778 66.4923C25.0442 66.7259 24.7273 66.8571 24.3969 66.8571H11.9912C11.6608 66.8571 11.344 66.7259 11.1104 66.4923C10.8767 66.2587 10.7455 65.9418 10.7455 65.6114V56.0571ZM13.7741 53.4457C13.7741 53.5973 13.7139 53.7426 13.6067 53.8498C13.4995 53.9569 13.3542 54.0171 13.2026 54.0171H12.6312C12.4797 54.0171 12.3343 53.9569 12.2272 53.8498C12.12 53.7426 12.0598 53.5973 12.0598 53.4457C12.0598 53.2942 12.12 53.1488 12.2272 53.0417C12.3343 52.9345 12.4797 52.8743 12.6312 52.8743H13.2026C13.3503 52.8742 13.4923 52.9312 13.5988 53.0335C13.7054 53.1358 13.7682 53.2753 13.7741 53.4229V53.4457ZM16.0598 53.4457C16.0598 53.5973 15.9996 53.7426 15.8924 53.8498C15.7853 53.9569 15.6399 54.0171 15.4884 54.0171H14.9169C14.7654 54.0171 14.62 53.9569 14.5129 53.8498C14.4057 53.7426 14.3455 53.5973 14.3455 53.4457C14.3455 53.2942 14.4057 53.1488 14.5129 53.0417C14.62 52.9345 14.7654 52.8743 14.9169 52.8743H15.4884C15.5634 52.8712 15.6383 52.883 15.7088 52.9089C15.7793 52.9348 15.844 52.9744 15.8992 53.0254C15.9544 53.0763 15.9991 53.1376 16.0305 53.2058C16.062 53.2741 16.0797 53.3478 16.0826 53.4229L16.0598 53.4457ZM18.3455 53.4457C18.3455 53.5973 18.2853 53.7426 18.1781 53.8498C18.071 53.9569 17.9256 54.0171 17.7741 54.0171H17.2026C17.0511 54.0171 16.9058 53.9569 16.7986 53.8498C16.6914 53.7426 16.6312 53.5973 16.6312 53.4457C16.6312 53.2942 16.6914 53.1488 16.7986 53.0417C16.9058 52.9345 17.0511 52.8743 17.2026 52.8743H17.7741C17.851 52.8681 17.9284 52.8775 18.0015 52.902C18.0747 52.9264 18.1421 52.9655 18.1998 53.0168C18.2575 53.068 18.3042 53.1304 18.3371 53.2002C18.37 53.27 18.3884 53.3458 18.3912 53.4229L18.3455 53.4457ZM24.5798 53.4457C24.5798 53.5973 24.5196 53.7426 24.4124 53.8498C24.3053 53.9569 24.1599 54.0171 24.0084 54.0171H20.4026C20.2511 54.0171 20.1058 53.9569 19.9986 53.8498C19.8914 53.7426 19.8312 53.5973 19.8312 53.4457C19.8312 53.2942 19.8914 53.1488 19.9986 53.0417C20.1058 52.9345 20.2511 52.8743 20.4026 52.8743H24.0541C24.2018 52.8742 24.3437 52.9312 24.4503 53.0335C24.5568 53.1358 24.6196 53.2753 24.6255 53.4229L24.5798 53.4457ZM43.7569 50.8343H31.3969C30.7714 50.8402 30.1731 51.0914 29.7307 51.5338C29.2883 51.9761 29.0372 52.5744 29.0312 53.2V65.6114C29.0312 66.241 29.2797 66.8451 29.7227 67.2924C30.1657 67.7397 30.7674 67.994 31.3969 68H43.8026C44.4332 67.9955 45.0363 67.7418 45.4805 67.2944C45.9248 66.8469 46.1741 66.242 46.1741 65.6114V55.4629V53.1771C46.1666 52.551 45.9142 51.9528 45.4709 51.5106C45.0276 51.0683 44.4288 50.8174 43.8026 50.8114L43.7569 50.8343ZM30.1741 53.2C30.1756 52.8701 30.3073 52.5541 30.5406 52.3208C30.7739 52.0875 31.0899 51.9558 31.4198 51.9543H43.8026C44.1296 51.9603 44.4412 52.094 44.6708 52.3268C44.9004 52.5596 45.0298 52.873 45.0312 53.2V54.9143H30.1741V53.2ZM45.0312 65.6114C45.0312 65.9389 44.9024 66.2531 44.6724 66.4863C44.4425 66.7194 44.1301 66.8526 43.8026 66.8571H31.3969C31.0705 66.8512 30.7595 66.7173 30.5308 66.4843C30.3021 66.2513 30.174 65.9379 30.1741 65.6114V56.0343H45.0312V65.6114ZM33.1798 53.4229C33.1798 53.5744 33.1196 53.7198 33.0124 53.8269C32.9053 53.9341 32.7599 53.9943 32.6084 53.9943H32.0369C31.8854 53.9943 31.74 53.9341 31.6329 53.8269C31.5257 53.7198 31.4655 53.5744 31.4655 53.4229C31.4655 53.2713 31.5257 53.126 31.6329 53.0188C31.74 52.9116 31.8854 52.8514 32.0369 52.8514H32.6084C32.7599 52.8514 32.9053 52.9116 33.0124 53.0188C33.1196 53.126 33.1798 53.2713 33.1798 53.4229ZM35.4655 53.4229C35.4655 53.5744 35.4053 53.7198 35.2981 53.8269C35.191 53.9341 35.0456 53.9943 34.8941 53.9943H34.3226C34.1711 53.9943 34.0257 53.9341 33.9186 53.8269C33.8114 53.7198 33.7512 53.5744 33.7512 53.4229C33.7512 53.2713 33.8114 53.126 33.9186 53.0188C34.0257 52.9116 34.1711 52.8514 34.3226 52.8514H34.8941C34.971 52.8483 35.0478 52.8609 35.1198 52.8882C35.1918 52.9155 35.2575 52.9571 35.313 53.0105C35.3685 53.0639 35.4126 53.1279 35.4428 53.1988C35.4729 53.2696 35.4884 53.3459 35.4884 53.4229H35.4655ZM37.7512 53.4229C37.7512 53.5744 37.691 53.7198 37.5839 53.8269C37.4767 53.9341 37.3313 53.9943 37.1798 53.9943H36.6084C36.4568 53.9943 36.3115 53.9341 36.2043 53.8269C36.0971 53.7198 36.0369 53.5744 36.0369 53.4229C36.0369 53.2713 36.0971 53.126 36.2043 53.0188C36.3115 52.9116 36.4568 52.8514 36.6084 52.8514H37.1798C37.2586 52.8451 37.3378 52.8552 37.4125 52.8811C37.4872 52.9069 37.5557 52.948 37.6137 53.0017C37.6717 53.0554 37.718 53.1206 37.7495 53.1931C37.781 53.2656 37.7972 53.3438 37.7969 53.4229H37.7512ZM43.9855 53.4229C43.9855 53.5744 43.9253 53.7198 43.8181 53.8269C43.711 53.9341 43.5656 53.9943 43.4141 53.9943H39.8084C39.6568 53.9943 39.5115 53.9341 39.4043 53.8269C39.2971 53.7198 39.2369 53.5744 39.2369 53.4229C39.2369 53.2713 39.2971 53.126 39.4043 53.0188C39.5115 52.9116 39.6568 52.8514 39.8084 52.8514H43.4598C43.6113 52.8514 43.7567 52.9116 43.8638 53.0188C43.971 53.126 44.0312 53.2713 44.0312 53.4229H43.9855ZM46.1741 38.6343C46.174 38.5087 46.1349 38.3863 46.0622 38.2839C45.9896 38.1816 45.8869 38.1043 45.7684 38.0629L43.8312 37.4171L44.7626 35.5543C44.8102 35.4433 44.8242 35.3208 44.8029 35.202C44.7816 35.0832 44.7259 34.9732 44.6426 34.8857L42.7455 32.9771C42.657 32.8842 42.5414 32.8216 42.4153 32.798C42.2891 32.7744 42.1588 32.7911 42.0426 32.8457L40.1798 33.7714L39.5226 31.8C39.4793 31.6836 39.4012 31.5834 39.299 31.5129C39.1968 31.4423 39.0754 31.4049 38.9512 31.4057H36.2312C36.1059 31.4066 35.9838 31.446 35.8816 31.5186C35.7794 31.5912 35.702 31.6934 35.6598 31.8114L35.0198 33.7714L33.1398 32.8286C33.0307 32.7839 32.911 32.772 32.7953 32.7943C32.6796 32.8166 32.5729 32.8722 32.4884 32.9543L30.5398 34.9086C30.4604 34.9975 30.4094 35.108 30.3931 35.2261C30.3768 35.3441 30.3961 35.4644 30.4484 35.5714L31.3684 37.4171L29.3969 38.0743C29.281 38.1183 29.1812 38.1966 29.1108 38.2986C29.0404 38.4007 29.0027 38.5217 29.0026 38.6457V41.3771C29.0035 41.5025 29.0429 41.6245 29.1155 41.7268C29.1881 41.829 29.2903 41.9064 29.4084 41.9486L31.3741 42.6L30.4484 44.4514C30.3887 44.5618 30.367 44.6887 30.3866 44.8127C30.4062 44.9366 30.4661 45.0506 30.5569 45.1371L32.4598 47.0229C32.5483 47.1158 32.6639 47.1784 32.79 47.202C32.9162 47.2256 33.0465 47.2089 33.1626 47.1543L35.0141 46.2286L35.6712 48.2C35.7146 48.3164 35.7926 48.4166 35.8948 48.4871C35.997 48.5577 36.1185 48.5951 36.2426 48.5943H38.9798C39.1066 48.5997 39.2315 48.5628 39.335 48.4893C39.4385 48.4159 39.5145 48.31 39.5512 48.1886L40.2084 46.2286L42.0769 47.16C42.1863 47.2086 42.3077 47.2237 42.4257 47.2033C42.5437 47.183 42.653 47.1281 42.7398 47.0457L44.6426 45.1429C44.7281 45.053 44.7843 44.9394 44.8037 44.8169C44.8231 44.6944 44.8048 44.569 44.7512 44.4571L43.8255 42.6057L45.7684 41.96C45.8911 41.9225 45.9988 41.8469 46.0758 41.7442C46.1529 41.6415 46.1953 41.5169 46.1969 41.3886L46.1741 38.6343ZM45.0312 40.9657L42.8541 41.7143C42.776 41.7433 42.7045 41.7875 42.6437 41.8444C42.5828 41.9013 42.5339 41.9698 42.4998 42.0457C42.4658 42.1232 42.4482 42.2068 42.4482 42.2914C42.4482 42.376 42.4658 42.4597 42.4998 42.5371L43.5512 44.5714L42.1741 45.9543L40.1112 44.92C40.0361 44.879 39.9528 44.8554 39.8673 44.8509C39.7819 44.8464 39.6965 44.8611 39.6175 44.894C39.5386 44.9269 39.468 44.9772 39.411 45.041C39.354 45.1048 39.3121 45.1807 39.2884 45.2629L38.5684 47.4286H36.6312L35.8884 45.2571C35.8593 45.1791 35.8151 45.1076 35.7582 45.0467C35.7013 44.9859 35.6329 44.937 35.5569 44.9029C35.4795 44.8689 35.3958 44.8513 35.3112 44.8513C35.2266 44.8513 35.143 44.8689 35.0655 44.9029L33.0312 45.9543L31.6484 44.5714L32.6712 42.5143C32.7106 42.4402 32.7339 42.3587 32.7398 42.2751C32.7458 42.1914 32.7341 42.1074 32.7055 42.0286C32.6729 41.9478 32.6234 41.8749 32.5603 41.8147C32.4973 41.7546 32.4221 41.7087 32.3398 41.68L30.1741 40.9657V39.0286L32.3169 38.2857C32.3993 38.2627 32.4754 38.2214 32.5397 38.1651C32.6039 38.1087 32.6548 38.0386 32.6884 37.96C32.7237 37.8809 32.7419 37.7952 32.7419 37.7086C32.7419 37.6219 32.7237 37.5363 32.6884 37.4571L31.6484 35.4286L33.0312 34.0457L35.0884 35.0857C35.1629 35.1224 35.2445 35.1425 35.3275 35.1444C35.4106 35.1464 35.4931 35.1302 35.5692 35.097C35.6454 35.0638 35.7134 35.0144 35.7685 34.9523C35.8236 34.8901 35.8645 34.8167 35.8884 34.7371L36.6312 32.5714H38.5684L39.3169 34.72C39.3406 34.8029 39.3827 34.8794 39.4401 34.9437C39.4975 35.008 39.5687 35.0585 39.6484 35.0914C39.7265 35.1266 39.8112 35.1448 39.8969 35.1448C39.9826 35.1448 40.0674 35.1266 40.1455 35.0914L42.1741 34.0457L43.5512 35.4286L42.5341 37.4686C42.4903 37.5442 42.4644 37.6288 42.4585 37.716C42.4526 37.8032 42.4667 37.8906 42.4998 37.9714C42.5337 38.0501 42.5838 38.1208 42.6468 38.1789C42.7098 38.237 42.7843 38.2811 42.8655 38.3086L45.0312 39.0286V40.9657ZM37.6026 36.1771C36.8466 36.1771 36.1074 36.4014 35.4788 36.8214C34.8501 37.2415 34.3601 37.8385 34.0708 38.5371C33.7814 39.2356 33.7057 40.0042 33.8532 40.7458C34.0007 41.4874 34.3648 42.1685 34.8995 42.7032C35.4341 43.2378 36.1153 43.6019 36.8568 43.7494C37.5984 43.8969 38.3671 43.8212 39.0656 43.5319C39.7641 43.2425 40.3612 42.7525 40.7812 42.1239C41.2013 41.4952 41.4255 40.7561 41.4255 40C41.424 38.9866 41.0207 38.0151 40.3041 37.2985C39.5875 36.5819 38.6161 36.1787 37.6026 36.1771ZM37.6026 42.68C37.0726 42.68 36.5544 42.5228 36.1137 42.2283C35.673 41.9339 35.3295 41.5153 35.1266 41.0256C34.9238 40.5359 34.8707 39.997 34.9741 39.4772C35.0775 38.9573 35.3328 38.4798 35.7076 38.105C36.0824 37.7302 36.5599 37.4749 37.0798 37.3715C37.5997 37.2681 38.1385 37.3212 38.6282 37.524C39.1179 37.7268 39.5365 38.0704 39.831 38.5111C40.1255 38.9518 40.2826 39.4699 40.2826 40C40.2811 40.7103 39.9983 41.3911 39.496 41.8934C38.9938 42.3956 38.313 42.6785 37.6026 42.68ZM57.0312 68C58.7265 68 60.3837 67.4973 61.7932 66.5555C63.2028 65.6136 64.3014 64.2749 64.9502 62.7087C65.5989 61.1425 65.7687 59.4191 65.4379 57.7564C65.1072 56.0937 64.2909 54.5664 63.0921 53.3677C61.8934 52.1689 60.3661 51.3526 58.7034 51.0218C57.0407 50.6911 55.3173 50.8609 53.7511 51.5096C52.1848 52.1584 50.8462 53.257 49.9043 54.6665C48.9625 56.0761 48.4598 57.7333 48.4598 59.4286C48.4598 61.7019 49.3628 63.882 50.9703 65.4895C52.5778 67.0969 54.7579 68 57.0312 68ZM57.0312 51.9543C58.5005 51.9543 59.9367 52.39 61.1583 53.2062C62.3799 54.0225 63.3321 55.1827 63.8943 56.5401C64.4566 57.8975 64.6037 59.3911 64.317 60.8321C64.0304 62.2731 63.3229 63.5967 62.284 64.6357C61.2451 65.6746 59.9215 66.3821 58.4805 66.6687C57.0395 66.9553 55.5458 66.8082 54.1884 66.246C52.831 65.6837 51.6708 64.7316 50.8546 63.5099C50.0383 62.2883 49.6026 60.8521 49.6026 59.3829C49.6117 57.4155 50.3972 55.5312 51.7884 54.14C53.1796 52.7489 55.0638 51.9633 57.0312 51.9543ZM53.4369 60.1543C53.3293 60.0474 53.2686 59.9022 53.268 59.7506C53.2675 59.599 53.3272 59.4533 53.4341 59.3457C53.5409 59.2381 53.6861 59.1774 53.8378 59.1768C53.9894 59.1763 54.135 59.236 54.2426 59.3429L55.8884 60.9943L59.9912 56.8971C60.0996 56.7895 60.2462 56.7294 60.399 56.7299C60.5517 56.7305 60.6979 56.7916 60.8055 56.9C60.9131 57.0084 60.9733 57.155 60.9727 57.3077C60.9722 57.4604 60.911 57.6067 60.8026 57.7143L56.2998 62.2229C56.1903 62.3273 56.0454 62.3865 55.8941 62.3886C55.8189 62.389 55.7443 62.3746 55.6747 62.3462C55.6051 62.3177 55.5418 62.2758 55.4884 62.2229L53.4369 60.1543Z" fill="black"/>
</g>
</svg>
