<svg width="76" height="76" viewBox="0 0 76 76" fill="none" xmlns="http://www.w3.org/2000/svg">
<mask id="mask0_7039_56014" style="mask-type:alpha" maskUnits="userSpaceOnUse" x="-1" y="-1" width="78" height="78">
<rect width="76" height="76" fill="white" stroke="white" stroke-width="2"/>
</mask>
<g mask="url(#mask0_7039_56014)">
<path fill-rule="evenodd" clip-rule="evenodd" d="M14.0813 49.3131C5.1933 40.0633 5.48603 25.3645 14.7383 16.4765C23.9882 7.59112 38.6922 7.88385 47.5775 17.1361C55.4413 25.3213 56.2289 37.9782 49.4901 47.0572L53.2973 50.8644L53.6462 50.5155C54.013 50.1488 54.6064 50.1488 54.9731 50.5155L67.3294 62.8719C67.6962 63.2386 67.6962 63.832 67.3294 64.1961L61.8006 69.725C61.4339 70.0917 60.8405 70.0917 60.4764 69.725L48.12 57.3686C47.7533 57.0019 47.7533 56.4085 48.12 56.0444L48.4689 55.6955L44.6617 51.8882C35.2899 58.8406 22.1845 57.7481 14.084 49.3161L14.0813 49.3131ZM26.9064 31.219C25.768 34.9065 27.8894 38.6121 31.4497 39.7093C32.9522 40.1728 34.6687 40.1346 36.3927 39.3935C36.6169 39.2967 36.8588 39.2967 37.0702 39.3706L39.0387 39.9156L38.7 38.2806C38.6313 37.947 38.751 37.616 38.9853 37.402C42.9861 33.75 41.5472 27.1006 36.3826 25.9219C32.5804 25.056 28.0931 27.3811 26.9091 31.2189L26.9064 31.219ZM26.0685 26.5968C19.0451 26.4287 16.1622 34.5656 20.6619 39.2615L20.2137 41.4262C20.0533 42.1444 20.7052 42.7276 21.3724 42.5442L24.0719 41.7955C25.2255 42.2411 26.3766 42.399 27.4768 42.3252C28.6024 42.2488 29.6695 41.9253 30.6219 41.4058C31.284 41.635 31.9793 41.7878 32.6898 41.8515C34.0167 41.9711 35.4198 41.7903 36.8256 41.2428L40.0166 42.1265C40.6838 42.3124 41.3357 41.7267 41.1753 41.0086L40.6354 38.4084C43.8595 35.1028 44.0098 29.8288 40.9818 26.5104C37.4623 22.6547 31.213 23.2787 27.5686 26.765C27.0745 26.6683 26.5729 26.6122 26.0711 26.5995L26.0685 26.5968ZM25.1186 30.6689C25.3631 29.8795 25.712 29.1435 26.15 28.4686C20.5652 28.2318 18.5124 34.792 22.3096 38.2583C22.5439 38.4722 22.6636 38.8032 22.5949 39.1369L22.3478 40.3313L23.8224 39.9212C24.0363 39.8474 24.2757 39.8499 24.4998 39.9442C25.7986 40.5019 27.1458 40.6114 28.4242 40.2778C27.1025 39.3482 26.0431 38.0673 25.4038 36.58C24.6449 34.8177 24.4667 32.7676 25.1161 30.6641L25.1186 30.6689ZM49.7909 54.3659L51.9709 52.1859L48.3393 48.5544L46.1594 50.7344L49.7909 54.3659ZM46.2307 18.4299C38.0611 9.92659 24.5456 9.64625 16.0351 17.8213C7.52916 25.9908 7.25143 39.5037 15.4265 48.0143C20.1327 52.914 26.9907 55.3539 33.8824 54.3682C41.4867 53.2808 48.0473 48.0601 50.8024 40.7921C53.7285 33.0782 51.9459 24.3786 46.2286 18.427L46.2307 18.4299ZM52.4012 54.407L50.1067 56.7015L61.139 67.7338L65.341 63.5318L54.3087 52.4995L52.4012 54.407ZM30.8283 16.4617C21.5713 16.4617 14.0661 23.9669 14.0661 33.2265C14.0661 42.4835 21.5713 49.9913 30.8283 49.9913C40.0853 49.9913 47.5905 42.4861 47.5905 33.2265C47.5905 23.9695 40.0853 16.4617 30.8283 16.4617ZM17.6492 20.0449C10.3709 27.3232 10.3709 39.1248 17.6492 46.4057C24.9275 53.684 36.7291 53.684 44.0074 46.4057C51.2858 39.1274 51.2858 27.3258 44.0074 20.0449C36.7291 12.7665 24.9275 12.7665 17.6492 20.0449Z" fill="black"/>
</g>
</svg>
