<svg width="76" height="76" viewBox="0 0 76 76" fill="none" xmlns="http://www.w3.org/2000/svg">
<mask id="mask0_7039_56020" style="mask-type:alpha" maskUnits="userSpaceOnUse" x="-1" y="-1" width="78" height="78">
<rect width="76" height="76" fill="white" stroke="white" stroke-width="2"/>
</mask>
<g mask="url(#mask0_7039_56020)">
<path d="M37.5342 46C31.7014 46.0066 26.1095 48.3266 21.9851 52.4509C17.8607 56.5753 15.5408 62.1673 15.5342 68C15.534 68.2627 15.5857 68.5228 15.6861 68.7655C15.7866 69.0083 15.9339 69.2288 16.1196 69.4145C16.3054 69.6003 16.5259 69.7476 16.7686 69.8481C17.0114 69.9485 17.2715 70.0002 17.5342 70H57.5342C57.7969 70.0002 58.057 69.9485 58.2997 69.8481C58.5425 69.7476 58.763 69.6003 58.9487 69.4145C59.1345 69.2288 59.2818 69.0083 59.3823 68.7655C59.4827 68.5228 59.5343 68.2627 59.5342 68C59.5276 62.1673 57.2076 56.5753 53.0833 52.4509C48.9589 48.3266 43.3669 46.0066 37.5342 46ZM19.6455 66C20.1375 61.5998 22.234 57.5353 25.5342 54.5836C28.8343 51.6319 33.1066 50.0001 37.5342 50.0001C41.9618 50.0001 46.2341 51.6319 49.5342 54.5836C52.8344 57.5353 54.9309 61.5998 55.4229 66H19.6455ZM49.5342 30C49.5342 27.6266 48.8304 25.3065 47.5118 23.3331C46.1932 21.3598 44.3191 19.8217 42.1264 18.9134C39.9337 18.0052 37.5209 17.7675 35.1931 18.2306C32.8653 18.6936 30.7271 19.8365 29.0489 21.5147C27.3707 23.1929 26.2278 25.3311 25.7648 27.6589C25.3017 29.9867 25.5394 32.3995 26.4476 34.5922C27.3559 36.7849 28.894 38.659 30.8673 39.9776C32.8407 41.2962 35.1608 42 37.5342 42C40.7157 41.9965 43.7659 40.7311 46.0156 38.4814C48.2653 36.2317 49.5307 33.1815 49.5342 30ZM29.5342 30C29.5342 28.4177 30.0034 26.871 30.8824 25.5554C31.7615 24.2398 33.0109 23.2145 34.4727 22.609C35.9345 22.0034 37.5431 21.845 39.0949 22.1537C40.6468 22.4624 42.0722 23.2243 43.191 24.3431C44.3099 25.462 45.0718 26.8874 45.3805 28.4393C45.6892 29.9911 45.5307 31.5996 44.9252 33.0615C44.3197 34.5233 43.2943 35.7727 41.9788 36.6517C40.6632 37.5308 39.1164 38 37.5342 38C35.4131 37.9979 33.3795 37.1543 31.8797 35.6545C30.3798 34.1547 29.5363 32.1211 29.5342 30ZM59.5342 28V32C59.5315 32.7286 59.3293 33.4426 58.9495 34.0644C58.5697 34.6862 58.0268 35.1921 57.3798 35.5272C57.0183 37.8814 55.8276 40.0289 54.0223 41.5825C52.217 43.1361 49.9159 43.9934 47.5342 44C47.0038 44 46.495 43.7893 46.12 43.4142C45.7449 43.0391 45.5342 42.5304 45.5342 42C45.5342 41.4696 45.7449 40.9608 46.12 40.5858C46.495 40.2107 47.0038 40 47.5342 40C48.8882 39.997 50.2013 39.5361 51.2603 38.6924C52.3192 37.8487 53.0617 36.6716 53.3671 35.3525C52.8058 34.9913 52.344 34.4953 52.0238 33.9096C51.7036 33.324 51.5353 32.6674 51.5342 32V28C51.5348 27.462 51.6444 26.9297 51.8565 26.4352C52.0685 25.9407 52.3786 25.4943 52.768 25.123C51.7355 21.8937 49.7035 19.076 46.9654 17.0767C44.2272 15.0774 40.9246 14 37.5342 14C34.1438 14 30.8412 15.0774 28.103 17.0767C25.3648 19.076 23.3329 21.8937 22.3004 25.123C22.6898 25.4943 22.9998 25.9407 23.2119 26.4352C23.4239 26.9297 23.5336 27.462 23.5342 28V32C23.5342 33.0609 23.1128 34.0783 22.3626 34.8284C21.6125 35.5786 20.595 36 19.5342 36C18.4733 36 17.4559 35.5786 16.7058 34.8284C15.9556 34.0783 15.5342 33.0609 15.5342 32V28C15.5373 27.1396 15.8183 26.3032 16.3352 25.6154C16.8522 24.9276 17.5775 24.4251 18.4031 24.1828C19.6495 20.0798 22.1819 16.4862 25.6267 13.9324C29.0715 11.3786 33.246 10 37.5342 10C41.8223 10 45.9969 11.3786 49.4417 13.9324C52.8864 16.4862 55.4189 20.0798 56.6653 24.1828C57.4909 24.4251 58.2162 24.9276 58.7331 25.6154C59.2501 26.3032 59.5311 27.1396 59.5342 28Z" fill="black"/>
</g>
</svg>
