<svg width="115" height="115" viewBox="0 0 115 115" fill="none" xmlns="http://www.w3.org/2000/svg">
<mask id="mask0_7606_86788" style="mask-type:alpha" maskUnits="userSpaceOnUse" x="0" y="0" width="115" height="115">
<rect width="115" height="115" fill="#D9D9D9"/>
</mask>
<g mask="url(#mask0_7606_86788)">
<mask id="mask1_7606_86788" style="mask-type:alpha" maskUnits="userSpaceOnUse" x="-1" y="17" width="82" height="82">
<rect y="18" width="80" height="80" fill="white" stroke="white" stroke-width="2"/>
</mask>
<g mask="url(#mask1_7606_86788)">
<path d="M74.1455 57.5456C74.1455 53.0137 68.4702 48.7188 59.7689 46.0555C61.7769 37.1868 60.8844 30.131 56.9521 27.872C56.0457 27.3421 54.9859 27.0911 53.8285 27.0911V30.2007C54.47 30.2007 54.9859 30.3262 55.4182 30.5632C57.3146 31.6509 58.1374 35.7924 57.4959 41.1191C57.3425 42.4299 57.0915 43.8104 56.7848 45.2188C54.0517 44.5495 51.0676 44.0335 47.9301 43.6989C46.0476 41.1191 44.0954 38.7765 42.1292 36.7267C46.6751 32.5015 50.9421 30.1867 53.8425 30.1867V27.0771C50.0078 27.0771 44.9878 29.8102 39.9121 34.5513C34.8363 29.8381 29.8163 27.1329 25.9816 27.1329V30.2425C28.8681 30.2425 33.149 32.5433 37.6949 36.7406C35.7427 38.7904 33.7905 41.1191 31.9359 43.6989C28.7844 44.0335 25.8003 44.5495 23.0672 45.2327C22.7465 43.8383 22.5095 42.4857 22.3421 41.1889C21.6867 35.8621 22.4955 31.7206 24.378 30.619C24.7963 30.368 25.3402 30.2565 25.9816 30.2565V27.1469C24.8103 27.1469 23.7505 27.3979 22.8302 27.9278C18.9118 30.1867 18.0333 37.2287 20.0553 46.0694C11.3818 48.7467 5.73438 53.0276 5.73438 57.5456C5.73438 62.0775 11.4097 66.3724 20.111 69.0358C18.103 77.9044 18.9955 84.9603 22.9278 87.2193C23.8342 87.7491 24.894 88.0002 26.0653 88.0002C29.9 88.0002 34.92 85.2671 39.9957 80.526C45.0715 85.2392 50.0915 87.9444 53.9262 87.9444C55.0975 87.9444 56.1573 87.6934 57.0776 87.1635C60.996 84.9045 61.8745 77.8626 59.8525 69.0218C68.498 66.3585 74.1455 62.0636 74.1455 57.5456ZM55.9899 48.2447C55.474 50.0435 54.8325 51.8981 54.1074 53.7527C53.5357 52.6372 52.9361 51.5217 52.2807 50.4061C51.6393 49.2905 50.956 48.2029 50.2727 47.1431C52.2528 47.4359 54.1632 47.7985 55.9899 48.2447ZM49.6034 63.0955C48.5157 64.978 47.4002 66.7629 46.2428 68.4222C44.1651 68.6035 42.0595 68.7011 39.9399 68.7011C37.8343 68.7011 35.7287 68.6035 33.665 68.4362C32.5076 66.7768 31.3781 65.0059 30.2904 63.1373C29.2307 61.3106 28.2685 59.456 27.39 57.5875C28.2546 55.7189 29.2307 53.8504 30.2765 52.0236C31.3642 50.1412 32.4797 48.3563 33.6371 46.6969C35.7148 46.5156 37.8204 46.418 39.9399 46.418C42.0455 46.418 44.1511 46.5156 46.2149 46.6829C47.3723 48.3423 48.5018 50.1133 49.5895 51.9818C50.6492 53.8085 51.6114 55.6631 52.4899 57.5317C51.6114 59.4002 50.6492 61.2688 49.6034 63.0955ZM54.1074 61.2827C54.8604 63.1513 55.5019 65.0198 56.0318 66.8326C54.2051 67.2788 52.2807 67.6553 50.2867 67.9481C50.97 66.8744 51.6532 65.7728 52.2947 64.6433C52.9361 63.5278 53.5357 62.3983 54.1074 61.2827ZM39.9678 76.1614C38.671 74.8227 37.3742 73.3307 36.0913 71.6992C37.3463 71.7549 38.6292 71.7968 39.926 71.7968C41.2368 71.7968 42.5336 71.7689 43.8025 71.6992C42.5475 73.3307 41.2507 74.8227 39.9678 76.1614ZM29.5932 67.9481C27.6131 67.6553 25.7027 67.2927 23.876 66.8465C24.392 65.0477 25.0334 63.1931 25.7585 61.3385C26.3302 62.454 26.9298 63.5696 27.5852 64.6851C28.2406 65.8007 28.9099 66.8884 29.5932 67.9481ZM39.8981 38.9299C41.1949 40.2685 42.4918 41.7606 43.7747 43.3921C42.5197 43.3363 41.2368 43.2945 39.9399 43.2945C38.6292 43.2945 37.3323 43.3224 36.0634 43.3921C37.3184 41.7606 38.6152 40.2685 39.8981 38.9299ZM29.5793 47.1431C28.896 48.2168 28.2127 49.3184 27.5713 50.4479C26.9298 51.5635 26.3302 52.679 25.7585 53.7946C25.0055 51.926 24.3641 50.0575 23.8342 48.2447C25.6609 47.8124 27.5852 47.4359 29.5793 47.1431ZM16.9596 64.6015C12.0233 62.4959 8.83003 59.7349 8.83003 57.5456C8.83003 55.3564 12.0233 52.5814 16.9596 50.4898C18.1588 49.9738 19.4696 49.5137 20.8222 49.0814C21.617 51.8145 22.6629 54.6591 23.9597 57.5735C22.6768 60.4739 21.6449 63.3046 20.864 66.0238C19.4835 65.5915 18.1728 65.1174 16.9596 64.6015ZM24.4617 84.528C22.5652 83.4403 21.7425 79.2989 22.384 73.9721C22.5374 72.6613 22.7884 71.2808 23.0951 69.8725C25.8282 70.5418 28.8123 71.0577 31.9498 71.3924C33.8323 73.9721 35.7845 76.3148 37.7507 78.3646C33.2048 82.5897 28.9378 84.9045 26.0374 84.9045C25.4099 84.8906 24.88 84.7651 24.4617 84.528ZM57.5378 73.9024C58.1931 79.2291 57.3844 83.3706 55.5019 84.4722C55.0835 84.7232 54.5397 84.8348 53.8983 84.8348C51.0118 84.8348 46.7309 82.534 42.185 78.3367C44.1372 76.2869 46.0894 73.9582 47.944 71.3784C51.0955 71.0438 54.0795 70.5278 56.8126 69.8446C57.1334 71.253 57.3844 72.6056 57.5378 73.9024ZM62.9063 64.6015C61.7071 65.1174 60.3964 65.5776 59.0438 66.0099C58.2489 63.2768 57.2031 60.4321 55.9063 57.5177C57.1891 54.6173 58.221 51.7866 59.0019 49.0674C60.3824 49.4997 61.6932 49.9738 62.9203 50.4898C67.8566 52.5954 71.0499 55.3564 71.0499 57.5456C71.0359 59.7349 67.8427 62.5098 62.9063 64.6015Z" fill="black"/>
<path d="M39.9273 63.9185C43.4467 63.9185 46.2999 61.0654 46.2999 57.5459C46.2999 54.0264 43.4467 51.1733 39.9273 51.1733C36.4078 51.1733 33.5547 54.0264 33.5547 57.5459C33.5547 61.0654 36.4078 63.9185 39.9273 63.9185Z" fill="black"/>
</g>
</g>
</svg>
