<svg width="76" height="76" viewBox="0 0 76 76" fill="none" xmlns="http://www.w3.org/2000/svg">
<mask id="mask0_7039_56008" style="mask-type:alpha" maskUnits="userSpaceOnUse" x="-1" y="-1" width="78" height="78">
<rect width="76" height="76" fill="white" stroke="white" stroke-width="2"/>
</mask>
<g mask="url(#mask0_7039_56008)">
<path d="M21 53C18.794 53 17 54.794 17 57C17 59.206 18.794 61 21 61C23.206 61 25 59.206 25 57C25 54.794 23.206 53 21 53ZM21 59C19.897 59 19 58.103 19 57C19 55.897 19.897 55 21 55C22.103 55 23 55.897 23 57C23 58.103 22.103 59 21 59Z" fill="black"/>
<path d="M21 49C16.589 49 13 52.589 13 57C13 61.411 16.589 65 21 65C25.411 65 29 61.411 29 57C29 52.589 25.411 49 21 49ZM21 63C17.691 63 15 60.309 15 57C15 53.691 17.691 51 21 51C24.309 51 27 53.691 27 57C27 60.309 24.309 63 21 63Z" fill="black"/>
<path d="M69.603 53.935L67 52.026V35.612L63.916 36.64C63.2 36.879 62.455 37 61.702 37C60.212 37 59 35.788 59 34.299V31.701C59 30.212 60.212 29 61.701 29C62.456 29 63.201 29.121 63.917 29.359L67 30.389V20C67 18.346 65.654 17 64 17H56.388L56.728 15.979C56.908 15.438 57 14.874 57 14.301C57 11.378 54.622 9 51.698 9H50.302C47.378 9 45 11.379 45 14.303C45 14.874 45.092 15.439 45.272 15.979L45.612 17H40C39.229 17 38.532 17.301 38 17.78C37.468 17.301 36.771 17 36 17H28.388L28.728 15.979C28.908 15.438 29 14.874 29 14.301C29 11.378 26.622 9 23.698 9H22.302C19.378 9 17 11.379 17 14.303C17 14.874 17.092 15.439 17.272 15.979L17.612 17H12C10.346 17 9 18.346 9 20V49.2L8.272 49.928L9.635 51.293C10.073 51.731 9.912 52.237 9.853 52.383C9.793 52.527 9.549 53 8.929 53H7V61H8.929C9.549 61 9.793 61.473 9.854 61.617C9.914 61.763 10.075 62.268 9.635 62.707L8.273 64.072L13.928 69.727L15.293 68.364C15.733 67.925 16.237 68.088 16.383 68.146C16.527 68.207 17 68.451 17 69.071V71H25V69.071C25 68.451 25.473 68.207 25.617 68.146C25.762 68.087 26.267 67.922 26.707 68.365L28.072 69.727L33.727 64.072L32.364 62.707C31.926 62.269 32.087 61.763 32.146 61.617C32.207 61.473 32.451 61 33.071 61H34H35H52V69.19L69.603 53.935ZM40 19H48.388L47.169 15.346C47.057 15.009 47 14.658 47 14.303C47 12.481 48.481 11 50.302 11H51.698C53.519 11 55 12.481 55 14.302C55 14.658 54.943 15.009 54.831 15.346L53.612 19H64C64.552 19 65 19.448 65 20V27.613L64.55 27.463C63.63 27.155 62.672 27 61.701 27C59.109 27 57 29.109 57 31.701V34.299C57 36.891 59.109 39 61.702 39C62.671 39 63.628 38.845 64.547 38.539L65 38.388V50.56L52 41.027V49H39V38.388L39.451 38.538C40.371 38.846 41.329 39.001 42.299 39.001C44.892 39 47 36.891 47 34.299V31.702C47 30.446 46.511 29.264 45.623 28.377C44.735 27.49 43.555 27.001 42.3 27.001C42.3 27.001 42.299 27.001 42.298 27.001C41.329 27.001 40.372 27.156 39.452 27.463L39 27.613V20C39 19.448 39.448 19 40 19ZM11 20C11 19.448 11.448 19 12 19H20.388L19.169 15.346C19.057 15.009 19 14.658 19 14.303C19 12.481 20.481 11 22.302 11H23.698C25.519 11 27 12.481 27 14.302C27 14.658 26.943 15.009 26.831 15.346L25.612 19H36C36.552 19 37 19.448 37 20V30.389L40.084 29.361C40.8 29.123 41.545 29.002 42.298 29.002C42.299 29.002 42.299 29.002 42.3 29.002C43.021 29.002 43.699 29.282 44.209 29.793C44.719 30.303 45 30.981 45 31.703V34.3C45 35.789 43.788 37.001 42.299 37.002C41.545 37.002 40.8 36.881 40.084 36.642L37 35.614V49H32.8L28.072 44.272L26.707 45.635C26.268 46.074 25.762 45.91 25.617 45.853C25.473 45.793 25 45.549 25 44.929V43H17V44.929C17 45.549 16.527 45.793 16.383 45.854C16.237 45.912 15.734 46.077 15.293 45.635L13.928 44.273L11 47.2V20ZM33 59.001C31.794 59.027 30.763 59.731 30.299 60.853C29.835 61.973 30.067 63.2 30.901 64.071L28.071 66.901C27.199 66.066 25.974 65.836 24.853 66.299C23.732 66.762 23.027 67.794 23.001 69H18.999C18.973 67.794 18.269 66.763 17.147 66.299C16.026 65.836 14.8 66.068 13.929 66.901L11.1 64.07C11.934 63.199 12.165 61.972 11.702 60.852C11.237 59.731 10.206 59.027 9 59.001V54.999C10.206 54.973 11.237 54.269 11.701 53.147C12.165 52.027 11.933 50.8 11.099 49.929L13.929 47.099C14.801 47.933 16.025 48.164 17.147 47.701C18.268 47.237 18.972 46.206 18.999 45H23.001C23.027 46.206 23.731 47.237 24.853 47.701C25.976 48.166 27.202 47.932 28.071 47.099L30.901 49.929C30.067 50.8 29.836 52.027 30.299 53.147C30.763 54.268 31.794 54.972 33 54.999V59.001ZM35 59V53H33.071C32.451 53 32.207 52.527 32.146 52.383C32.086 52.237 31.925 51.732 32.365 51.293L32.658 51H54V44.974L66.397 54.066L54 64.81V59H35Z" fill="black"/>
<path d="M19 32C19 30.346 17.654 29 16 29C14.346 29 13 30.346 13 32C13 33.654 14.346 35 16 35C17.654 35 19 33.654 19 32ZM15 32C15 31.448 15.448 31 16 31C16.552 31 17 31.448 17 32C17 32.552 16.552 33 16 33C15.448 33 15 32.552 15 32Z" fill="black"/>
<path d="M24 35C25.654 35 27 33.654 27 32C27 30.346 25.654 29 24 29C22.346 29 21 30.346 21 32C21 33.654 22.346 35 24 35ZM24 31C24.552 31 25 31.448 25 32C25 32.552 24.552 33 24 33C23.448 33 23 32.552 23 32C23 31.448 23.448 31 24 31Z" fill="black"/>
<path d="M32 35C33.654 35 35 33.654 35 32C35 30.346 33.654 29 32 29C30.346 29 29 30.346 29 32C29 33.654 30.346 35 32 35ZM32 31C32.552 31 33 31.448 33 32C33 32.552 32.552 33 32 33C31.448 33 31 32.552 31 32C31 31.448 31.448 31 32 31Z" fill="black"/>
</g>
</svg>
