<svg width="76" height="76" viewBox="0 0 76 76" fill="none" xmlns="http://www.w3.org/2000/svg">
<mask id="mask0_7039_56017" style="mask-type:alpha" maskUnits="userSpaceOnUse" x="-1" y="-1" width="78" height="78">
<rect width="76" height="76" fill="white" stroke="white" stroke-width="2"/>
</mask>
<g mask="url(#mask0_7039_56017)">
<path d="M55.0274 34.416H58.6699C59.3984 34.416 59.9884 33.826 59.9884 33.0975C59.9884 32.369 59.3984 31.7789 58.6699 31.7789H57.3513V30.4604C57.3513 29.7319 56.7613 29.1418 56.0328 29.1418C55.3043 29.1418 54.7142 29.7319 54.7142 30.4604V31.8119C53.2375 31.9702 52.0771 33.2096 52.0771 34.7292C52.0771 35.8532 52.7002 36.8652 53.7089 37.3663L57.18 39.1035C57.2854 39.1529 57.3514 39.2617 57.3514 39.3804C57.3514 39.5518 57.2096 39.6902 57.0382 39.6902H53.3957C52.6672 39.6902 52.0772 40.2803 52.0772 41.0088C52.0772 41.7373 52.6672 42.3273 53.3957 42.3273H54.7143V43.6459C54.7143 44.3744 55.3043 44.9644 56.0328 44.9644C56.7613 44.9644 57.3514 44.3744 57.3514 43.6459V42.2943C58.8281 42.1361 59.9885 40.8967 59.9885 39.3771C59.9885 38.253 59.3655 37.2411 58.3568 36.74L54.8857 35.0028C54.7802 34.9533 54.7143 34.8446 54.7143 34.7259C54.7143 34.5545 54.856 34.416 55.0274 34.416Z" fill="black"/>
<path d="M64.8641 24.2433C65.1113 23.7258 65.2596 23.1588 65.2596 22.549C65.2596 21.0096 64.3663 19.6845 63.0775 19.0317L65.1674 13.8103C65.352 13.3521 65.263 12.8279 64.9367 12.4522C64.6103 12.0797 64.0994 11.9214 63.6247 12.0401L58.8219 13.24L56.6199 12.139C56.2507 11.9544 55.8123 11.9544 55.4398 12.139L53.2378 13.24L48.435 12.0401C47.957 11.9181 47.4461 12.0797 47.1231 12.4522C46.7967 12.8246 46.7077 13.3488 46.8923 13.8103L48.9822 19.0317C47.6934 19.6844 46.8001 21.0096 46.8001 22.549C46.8001 23.1588 46.9484 23.7258 47.1956 24.2433C44.1136 26.62 42.1654 30.0186 41.6643 33.7959C39.2612 32.5104 36.5219 31.7786 33.6146 31.7786C29.3622 31.7786 25.4758 33.3444 22.4763 35.9155L20.4853 33.9244L22.0906 29.1052C22.2488 28.6305 22.1268 28.1097 21.7741 27.7569L14.3178 20.2973C13.9947 19.9742 13.5299 19.8424 13.0817 19.9479C12.6367 20.0534 12.2774 20.3797 12.1323 20.8148L10.4743 25.7824L5.50666 27.4371C5.07154 27.5822 4.7452 27.9415 4.63975 28.3865C4.53426 28.8315 4.66942 29.2996 4.99246 29.6226L12.4521 37.0822C12.7026 37.3328 13.0422 37.4679 13.385 37.4679C13.5235 37.4679 13.6652 37.4448 13.8036 37.3987L18.6229 35.7934L20.6139 37.7844C18.0395 40.7808 16.4737 44.6672 16.4737 48.9193C16.4737 58.3698 24.1642 66.06 33.6144 66.06C36.2021 66.06 38.7864 65.4667 41.0906 64.3426C41.7433 64.0228 42.0169 63.235 41.6972 62.579C41.3774 61.9264 40.5929 61.6527 39.9336 61.9725C37.9888 62.9219 35.8033 63.4229 33.6145 63.4229C25.6175 63.4229 19.11 56.9159 19.11 48.9185C19.11 45.3947 20.3758 42.161 22.4756 39.6427L26.2335 43.4005C25.0765 44.9432 24.3842 46.8485 24.3842 48.9187C24.3842 54.0082 28.5244 58.1489 33.6145 58.1489C38.7045 58.1489 42.8447 54.0087 42.8447 48.9187C42.8447 43.8286 38.7045 39.6884 33.6145 39.6884C31.5444 39.6884 29.6391 40.3806 28.0963 41.5377L24.3385 37.7798C26.8569 35.68 30.0906 34.4142 33.6143 34.4142C41.6113 34.4142 48.1188 40.9212 48.1188 48.9187C48.1188 51.1404 47.6309 53.2665 46.6717 55.2378C46.3519 55.8938 46.6255 56.6816 47.2782 57.0013C47.9375 57.3244 48.722 57.0475 49.0417 56.3948C50.1229 54.1797 50.6965 51.7041 50.7426 49.2153C52.4205 49.8746 54.2137 50.2372 56.03 50.2372C64.027 50.2372 70.5345 43.7302 70.5345 35.7327C70.5345 31.1936 68.4644 27.0172 64.8647 24.2417L64.8641 24.2433ZM13.9618 23.6697L19.3349 29.0428L18.402 31.8382L13.0289 26.4651L13.9618 23.6697ZM13.7409 34.6401L8.36785 29.267L11.1632 28.3341L16.5363 33.7072L13.7409 34.6401ZM33.6149 42.3272C37.2508 42.3272 40.2077 45.284 40.2077 48.92C40.2077 52.5559 37.2508 55.5127 33.6149 55.5127C29.979 55.5127 27.0222 52.5559 27.0222 48.92C27.0222 47.5784 27.431 46.3323 28.1199 45.2906C28.1199 45.2906 32.6788 49.8495 32.682 49.8528C33.1732 50.3439 34.0303 50.367 34.5478 49.8528C35.062 49.3385 35.062 48.5045 34.5478 47.9871L29.9856 43.4249C31.0273 42.736 32.2733 42.3272 33.6149 42.3272ZM49.4375 22.5486C49.4375 21.8201 50.0276 21.23 50.7561 21.23H61.3044C62.0329 21.23 62.623 21.8201 62.623 22.5486C62.623 23.2771 62.0329 23.8671 61.3044 23.8671H50.7561C50.0276 23.8671 49.4375 23.2771 49.4375 22.5486ZM53.0734 15.9163C53.3734 15.9921 53.703 15.9558 53.9832 15.8174L56.0303 14.7922L58.0773 15.8174C58.3575 15.9558 58.6839 15.9921 58.9871 15.9163L61.7594 15.224L60.4111 18.5929H51.6458L50.2976 15.224L53.0734 15.9163ZM56.0303 47.6011C54.1085 47.6011 52.223 47.1066 50.5221 46.2133C49.8265 41.8622 47.5026 38.0614 44.1799 35.4506C44.2656 31.8411 45.9335 28.5282 48.8179 26.3132C48.9102 26.2571 48.9926 26.1879 49.0684 26.1121C49.5826 26.356 50.1496 26.5043 50.7561 26.5043H61.3045C61.9144 26.5043 62.4846 26.3527 63.0021 26.1055C63.0615 26.1648 63.1208 26.2241 63.1933 26.2703C66.1832 28.5481 67.8972 31.9928 67.8972 35.7343C67.8972 42.2776 62.5731 47.6011 56.0303 47.6011Z" fill="black"/>
<path d="M43.8691 59.1752C43.3548 59.6895 43.3548 60.5235 43.8691 61.0409C44.3833 61.5552 45.2173 61.5552 45.7348 61.0409C46.249 60.5267 46.249 59.6927 45.7348 59.1752C45.2206 58.661 44.3832 58.661 43.8691 59.1752Z" fill="black"/>
</g>
</svg>
