<svg width="93" height="92" viewBox="0 0 93 92" fill="none" xmlns="http://www.w3.org/2000/svg">
<mask id="mask0_7374_80939" style="mask-type:alpha" maskUnits="userSpaceOnUse" x="0" y="0" width="93" height="92">
<rect x="0.25" width="92" height="92" fill="black"/>
</mask>
<g mask="url(#mask0_7374_80939)">
<path fill-rule="evenodd" clip-rule="evenodd" d="M58.9877 48.8966C63.3394 50.6905 64.8065 52.614 65.1665 54.9034L65.0719 54.7633C65.4056 56.6939 64.9987 57.9657 64.9243 58.1984C64.9226 58.2038 64.921 58.2087 64.9196 58.213C64.8748 58.3687 64.8243 58.5202 64.7683 58.6676C62.8176 63.8028 54.2625 63.8811 50.7822 60.3121C50.6343 60.1368 50.4962 59.979 50.3664 59.8307C50.0436 59.4619 49.7726 59.1522 49.5308 58.7781C49.3833 58.5499 49.2466 58.2978 49.1156 57.9935L52.8809 55.7961C53.8994 57.3642 54.8233 58.213 56.4919 58.5894C58.747 58.8716 61.0309 58.0876 60.5371 55.6414C60.2324 54.4748 58.72 53.8276 56.9553 53.0725C55.6808 52.5272 54.2747 51.9256 53.097 51.0313C50.2576 49.0869 49.5806 44.3827 51.9262 41.6836C52.7287 40.68 54.0537 39.9273 55.4446 39.5824L56.8952 39.3963C57.0337 39.3931 57.1695 39.3919 57.3028 39.3926C59.8729 39.4074 61.4939 40.1568 62.7263 41.5581C63.1008 41.9324 63.3765 42.3108 63.932 43.1889C63.3277 43.5713 62.9696 43.7979 62.6135 44.0278C62.1847 44.3046 61.759 44.586 60.91 45.1498C60.7333 45.2671 60.5382 45.3967 60.321 45.541C59.856 44.5374 59.1153 43.9102 58.3128 43.6593C57.0783 43.283 55.5043 43.6886 55.1957 45.0392C55.0743 45.4469 55.1031 45.8232 55.2903 46.5132C55.6905 47.4419 56.8486 47.9488 58.0715 48.484C58.3764 48.6174 58.6854 48.7527 58.9877 48.8966ZM40.1582 58.7023C39.5464 58.7965 38.9245 58.6888 38.5337 58.5643C38.367 58.4805 38.2172 58.3902 38.0801 58.2926C37.547 57.9132 37.2073 57.4236 36.8259 56.7767C36.7927 56.7205 36.7617 56.6662 36.7333 56.6165C36.6508 56.4722 36.5906 56.3669 36.5646 56.3669L32.8096 58.719C32.8358 58.7741 32.8626 58.8289 32.8898 58.8833C33.5142 60.1303 34.4021 61.1995 35.5338 61.8907C36.7038 62.5999 38.1415 62.99 39.7015 63.0056C40.065 63.0093 40.4351 62.9926 40.8101 62.9549C40.8122 62.9547 40.8144 62.9544 40.8166 62.9542C41.2497 62.9104 41.6892 62.8385 42.1323 62.7374C43.7434 62.2649 45.1322 61.2927 45.8585 59.7874C46.0303 59.4691 46.168 59.1391 46.2781 58.7981C46.3512 58.5715 46.4122 58.34 46.463 58.1038C46.6379 57.2897 46.6909 56.4199 46.7003 55.5025C46.7054 54.9965 46.6972 54.476 46.6888 53.9424C46.6829 53.5652 46.6769 53.1815 46.6754 52.7917C46.6795 52.077 46.6822 51.3623 46.6839 50.6474C46.6891 48.5008 46.685 46.3524 46.6809 44.1987C46.6781 42.7595 46.6754 41.318 46.6754 39.873L46.6836 39.7559H42.0582C42.0582 41.781 42.0536 43.7999 42.049 45.8196C42.0444 47.8408 42.0397 49.8628 42.0397 51.8927C42.0397 52.1789 42.0413 52.4626 42.0436 52.7416C42.0454 52.9654 42.0477 53.1862 42.0499 53.4031C42.0699 55.3498 42.0865 56.9788 41.7558 57.5607C41.4926 58.119 41.0688 58.4333 40.602 58.5941C40.4571 58.6441 40.308 58.6792 40.1582 58.7023ZM45.6095 71.2102C45.6919 71.5975 45.8161 71.8557 45.9917 71.9556C46.0262 71.9756 45.8891 71.7112 45.6095 71.2102ZM28.1083 66.3148C26.7584 65.6374 25.4469 64.8841 24.1352 64.1307C23.3405 63.6742 22.5459 63.2178 21.7425 62.7782C20.2629 62.0082 19.2398 60.3993 19.2502 58.7131V33.2904C19.2347 31.6364 20.2076 30.0429 21.6501 29.2623C27.2394 26.0913 32.828 22.9185 38.4165 19.7457C40.24 18.7105 42.0634 17.6753 43.8869 16.6401C45.3668 15.7886 47.2943 15.7847 48.773 16.6401C51.8551 18.3909 54.9376 20.1405 58.02 21.8901C62.3773 24.3632 66.7345 26.8364 71.0905 29.3127C72.4895 30.1049 73.4252 31.6699 73.4109 33.2904V58.7129C73.4214 60.4004 72.3932 62.0029 70.9173 62.7771C67.0166 64.9879 63.1169 67.2001 59.2174 69.4123C55.7048 71.4049 52.1923 73.3975 48.6792 75.389C47.1687 76.2572 45.2025 76.1903 43.7391 75.2509C42.5293 74.5459 41.3184 73.8428 40.1076 73.1397C39.0936 72.5509 38.0797 71.9622 37.0666 71.3724C36.9581 71.3074 36.409 71.0103 35.6314 70.5897C33.1526 69.2487 28.3525 66.6518 28.1083 66.3148ZM23.396 58.9923C23.3704 58.9945 23.358 58.9967 23.3592 58.9988C23.3667 59.012 23.3793 59.0087 23.396 58.9923Z" fill="black"/>
</g>
</svg>
