<svg width="93" height="92" viewBox="0 0 93 92" fill="none" xmlns="http://www.w3.org/2000/svg">
<mask id="mask0_7374_80985" style="mask-type:alpha" maskUnits="userSpaceOnUse" x="0" y="0" width="93" height="92">
<rect x="0.25" width="92" height="92" fill="black"/>
</mask>
<g mask="url(#mask0_7374_80985)">
<path fill-rule="evenodd" clip-rule="evenodd" d="M26.3109 36.0961C25.0155 38.687 24.2168 41.5659 24.0264 44.6073H26.6638C27.4346 44.6073 28.0568 45.2248 28.0568 46.0003C28.0568 46.7711 27.4393 47.3933 26.6638 47.3933H24.0264C24.2167 50.4347 25.0107 53.3228 26.3109 55.9184L28.5954 54.5997C29.2594 54.219 30.1045 54.4465 30.4852 55.1105C30.8659 55.7745 30.6384 56.6195 29.9744 57.0002L27.6899 58.319C29.329 60.7892 31.4603 62.9066 33.9305 64.5596L35.2492 62.275C35.63 61.611 36.475 61.3835 37.139 61.7643C37.803 62.145 38.0305 62.99 37.6498 63.654L36.331 65.9386C38.922 67.234 41.8009 68.0419 44.8561 68.2231V65.5857C44.8561 64.8149 45.4737 64.1926 46.2492 64.1926C47.0107 64.1926 47.6422 64.8102 47.6422 65.5857V68.2231C50.6836 68.0327 53.5624 67.2387 56.1534 65.9386L54.8347 63.654C54.4539 62.9901 54.6814 62.145 55.3454 61.7643C56.0094 61.3835 56.8545 61.611 57.2352 62.275L58.5539 64.5596C61.0241 62.9205 63.1415 60.7892 64.7806 58.319L62.4961 57.0002C61.8321 56.6195 61.6046 55.7651 61.9853 55.1105C62.3661 54.4465 63.2111 54.219 63.8751 54.5997L66.1689 55.9184C67.4643 53.3275 68.263 50.4393 68.4534 47.3933H65.816C65.0545 47.3933 64.4229 46.7758 64.4229 46.0003C64.4229 45.2388 65.0405 44.6073 65.816 44.6073H68.4534C68.263 41.5659 67.469 38.687 66.1689 36.0961L63.8751 37.4148C63.6615 37.5355 63.4247 37.6052 63.1879 37.6052C62.7143 37.6052 62.236 37.3544 61.9853 36.918C61.6045 36.254 61.8321 35.4089 62.4961 35.0282L64.7806 33.7095C63.1415 31.2393 61.0102 29.1219 58.5539 27.4828L57.2352 29.7673C56.9752 30.2084 56.5108 30.4545 56.0326 30.4545C55.7958 30.4545 55.559 30.3942 55.3454 30.2641C54.6814 29.8834 54.4539 29.0384 54.8346 28.3744L56.1533 26.0806C53.5624 24.7851 50.6835 23.9865 47.6421 23.796V26.4335C47.6421 27.195 47.0246 27.8265 46.2491 27.8265C45.4783 27.8265 44.8561 27.2089 44.8561 26.4335V23.796C41.8147 23.9864 38.9359 24.7804 36.331 26.0806L37.6497 28.3744C38.0305 29.0384 37.8029 29.8834 37.1389 30.2641C36.9253 30.3942 36.6885 30.4545 36.4517 30.4545C35.9781 30.4545 35.5138 30.2038 35.2491 29.7673L33.9304 27.4828C31.4602 29.1219 29.3428 31.2532 27.6898 33.7095L29.9744 35.0282C30.6384 35.4089 30.8659 36.254 30.4851 36.918C30.2251 37.3684 29.7608 37.6052 29.2825 37.6052C29.0457 37.6052 28.8089 37.5448 28.5953 37.4148L26.3109 36.0961ZM46.2452 20.9639C60.0447 20.9639 71.2777 32.1961 71.2777 45.9964C71.2777 59.7959 60.0456 71.0289 46.2452 71.0289C32.4449 71.0289 21.2128 59.7968 21.2128 45.9964C21.2128 32.1875 32.4449 20.9639 46.2452 20.9639ZM76.25 46C76.25 62.5489 62.7941 76 46.25 76C29.7011 76 16.25 62.5441 16.25 46C16.25 29.4512 29.7059 16 46.25 16C62.7941 15.9954 76.25 29.4512 76.25 46ZM46.2452 47.3791C45.4745 47.3791 44.8522 46.7616 44.8522 45.9861L44.8569 33.7926C44.8569 33.0311 45.4744 32.3996 46.2499 32.3996C47.0114 32.3996 47.6429 33.0171 47.6429 33.7926V44.6115H54.4778C55.2393 44.6115 55.8709 45.2291 55.8709 46.0045C55.8709 46.7753 55.2533 47.3975 54.4778 47.3975L46.2452 47.3883L46.2452 47.3791Z" fill="black"/>
</g>
</svg>
