<svg width="93" height="92" viewBox="0 0 93 92" fill="none" xmlns="http://www.w3.org/2000/svg">
<mask id="mask0_7374_80947" style="mask-type:alpha" maskUnits="userSpaceOnUse" x="0" y="0" width="93" height="92">
<rect x="0.25" width="92" height="92" fill="black"/>
</mask>
<g mask="url(#mask0_7374_80947)">
<mask id="mask1_7374_80947" style="mask-type:alpha" maskUnits="userSpaceOnUse" x="15" y="15" width="63" height="62">
<rect x="16.25" y="16" width="60" height="60" fill="white" stroke="white" stroke-width="2"/>
</mask>
<g mask="url(#mask1_7374_80947)">
<path d="M46.4925 52.8555C46.1561 62.5061 31.0294 62.9465 30.8017 52.4714C30.8872 48.3734 34.1286 45.0208 38.2596 44.767C40.2323 48.1392 43.0746 50.9318 46.4925 52.8555ZM58.6716 58.504L56.7331 57.2839C56.8699 56.7642 56.9839 56.2446 57.0752 55.7249C54.9542 55.7221 52.8474 55.3945 50.8262 54.7534C50.3501 57.5917 48.8534 60.1618 46.6184 61.9979C44.3805 63.8308 41.5525 64.8052 38.6474 64.7402C24.2191 64.825 21.1006 43.8548 36.3895 40.4516C35.4146 37.2461 35.2121 33.857 35.7966 30.5551C34.7732 30.5692 33.935 31.3713 33.8808 32.3852L33.7668 34.6671C30.6195 35.506 27.7487 37.1496 25.4426 39.4345L23.4584 38.3725C22.549 37.8839 21.4115 38.1918 20.8813 39.0729L18.0077 44.021C17.4917 44.8965 17.7739 46.0206 18.6463 46.5516L20.6305 47.7716C19.741 50.8811 19.741 54.1742 20.6305 57.2835L18.6463 58.5036C17.7739 59.0458 17.4917 60.1755 18.0077 61.0566L20.8813 65.9821C22.0445 67.88 24.0514 66.3436 25.4426 65.6432C27.7489 67.9223 30.6197 69.5604 33.7668 70.3879L33.8808 72.6925C33.9435 73.7007 34.7789 74.4887 35.7966 74.5H41.4982C42.5216 74.4972 43.3598 73.7035 43.414 72.6925L43.528 70.3879C46.681 69.5717 49.5546 67.9337 51.8522 65.6432C53.2206 66.2984 55.2732 67.88 56.4135 65.9821L59.2871 61.0566C59.8031 60.1811 59.5325 59.0575 58.6716 58.504ZM74.75 33.9666C74.7272 38.1154 73.1992 42.1149 70.4425 45.2383C67.6857 48.359 63.8856 50.3925 59.7405 50.9658C55.5926 51.5392 51.3762 50.6156 47.8614 48.359C33.6076 39.2535 40.1299 16.7724 57.3716 16.75C61.9813 16.7528 66.4 18.5688 69.6586 21.7969C72.9171 25.025 74.7472 29.403 74.75 33.9666ZM55.8662 30.1708C55.8348 29.7642 55.9802 29.3603 56.2682 29.0666C56.5561 28.7701 56.9581 28.6147 57.3714 28.6345H61.2029C62.4515 28.6175 63.455 27.6121 63.455 26.3751C63.455 25.1409 62.4515 24.1326 61.2029 24.1157H59.6521C59.6264 23.4944 59.347 22.9126 58.8738 22.503C58.4034 22.0907 57.7819 21.893 57.1576 21.9467C56.5333 22.0032 55.9574 22.311 55.5668 22.7968C55.1763 23.2826 55.0052 23.9067 55.0907 24.5224C52.4053 25.6266 50.8686 28.4453 51.4103 31.2751C51.9491 34.105 54.4208 36.1723 57.3258 36.226C57.7534 36.1978 58.1725 36.3503 58.4718 36.6497C58.774 36.949 58.9308 37.3642 58.8994 37.785C58.9336 38.1973 58.7825 38.604 58.4889 38.8978C58.1981 39.1943 57.7905 39.3468 57.3714 39.3214H53.5399C52.2941 39.3412 51.2935 40.3466 51.2935 41.5808C51.2935 42.8178 52.2941 43.8233 53.5399 43.8402H55.0908C55.1193 44.4643 55.4015 45.049 55.8776 45.4585C56.3508 45.868 56.9751 46.0685 57.6023 46.0092C58.2267 45.9499 58.8025 45.6392 59.1902 45.1478C59.578 44.6564 59.7462 44.0294 59.6521 43.4109C62.3432 42.3208 63.8912 39.5079 63.3553 36.678C62.8193 33.8481 60.3477 31.7808 57.4398 31.7299C57.015 31.7609 56.596 31.6056 56.2938 31.3062C55.9944 31.0069 55.8377 30.5945 55.8662 30.1708Z" fill="black"/>
</g>
</g>
</svg>
