<svg width="93" height="92" viewBox="0 0 93 92" fill="none" xmlns="http://www.w3.org/2000/svg">
<mask id="mask0_7374_80962" style="mask-type:alpha" maskUnits="userSpaceOnUse" x="0" y="0" width="93" height="92">
<rect x="0.25" width="92" height="92" fill="black"/>
</mask>
<g mask="url(#mask0_7374_80962)">
<path d="M67.2528 58.0075C65.2123 58.0061 63.2325 58.7015 61.6411 59.9787L55.4167 53.7543C57.1231 51.7368 58.112 49.2101 58.2285 46.5703L70.4674 46.1125C70.7251 46.7747 71.2087 47.3244 71.8326 47.6644C72.4565 48.0044 73.1805 48.1127 73.8767 47.9703C74.5728 47.8279 75.1961 47.4439 75.6364 46.8862C76.0766 46.3285 76.3054 45.633 76.2824 44.9229C76.2593 44.2127 75.9858 43.5336 75.5102 43.0057C75.0347 42.4777 74.3878 42.135 73.6839 42.0381C72.98 41.9412 72.2645 42.0963 71.6639 42.4761C71.0634 42.8559 70.6166 43.4358 70.4024 44.1133L58.1616 44.5662C57.9545 42.8453 57.3765 41.1898 56.4676 39.714C55.5586 38.2382 54.3404 36.9771 52.8968 36.0177L55.7836 30.7679C56.9711 31.138 58.2538 31.0539 59.3828 30.5317C60.5119 30.0096 61.4067 29.0868 61.8938 27.9422C62.3809 26.7976 62.4255 25.5129 62.0189 24.3374C61.6124 23.1618 60.7837 22.1791 59.6937 21.5799C58.6036 20.9807 57.3298 20.8078 56.1194 21.0946C54.9091 21.3815 53.8484 22.1077 53.1431 23.1323C52.4379 24.157 52.1384 25.4071 52.3027 26.6401C52.4669 27.8731 53.0834 29.0011 54.0323 29.8053L51.1435 35.0581C49.0841 34.1357 46.8056 33.8151 44.5716 34.1335C42.3376 34.4519 40.2395 35.3963 38.5198 36.8574L32.2954 30.632C33.7328 28.8333 34.4269 26.5525 34.2352 24.258C34.0434 21.9635 32.9803 19.8295 31.2643 18.2944C29.5482 16.7593 27.3095 15.9395 25.0079 16.0035C22.7063 16.0675 20.5166 17.0103 18.8885 18.6385C17.2603 20.2666 16.3175 22.4563 16.2535 24.7579C16.1895 27.0595 17.0093 29.2982 18.5444 31.0143C20.0795 32.7303 22.2135 33.7934 24.508 33.9852C26.8025 34.1769 29.0833 33.4828 30.882 32.0454L37.1064 38.2708C35.2704 40.4322 34.2637 43.1766 34.2666 46.0125C34.2695 46.7304 34.3364 47.4466 34.4665 48.1527L23.734 51.0424C23.2499 50.2086 22.4789 49.5793 21.5649 49.2721C20.651 48.9648 19.6564 49.0006 18.7669 49.3727C17.8774 49.7448 17.1536 50.4278 16.7307 51.2943C16.3077 52.1608 16.2144 53.1516 16.4682 54.0818C16.7221 55.0121 17.3056 55.8181 18.1101 56.3497C18.9145 56.8813 19.8849 57.1021 20.8402 56.9708C21.7954 56.8395 22.6703 56.3652 23.3015 55.6363C23.9327 54.9075 24.2773 53.9738 24.2708 53.0096V52.9696L34.9943 50.0828C35.9239 52.6501 37.7005 54.824 40.0312 56.2463L37.0204 62.2667C35.5753 61.8193 34.0148 61.9312 32.6483 62.5803C31.2818 63.2295 30.2092 64.3684 29.6431 65.7714C29.077 67.1743 29.0587 68.7387 29.592 70.1544C30.1253 71.5702 31.1711 72.7338 32.5221 73.4146C33.8731 74.0954 35.4306 74.2436 36.8858 73.8299C38.3409 73.4162 39.5875 72.4707 40.3782 71.181C41.169 69.8913 41.4462 68.3515 41.155 66.867C40.8637 65.3825 40.0252 64.0616 38.8057 63.1664L41.8164 57.1459C43.8365 57.958 46.0401 58.2029 48.1892 57.8543C50.3384 57.5057 52.3515 56.5767 54.0113 55.1677L60.2357 61.3921C58.964 62.9856 58.2712 64.9639 58.2709 67.0027C58.2707 69.0415 58.963 71.0199 60.2343 72.6137C61.5057 74.2075 63.2808 75.3222 65.2686 75.7752C67.2564 76.2281 69.3392 75.9924 71.1755 75.1067C73.0119 74.2209 74.4929 72.7377 75.3759 70.9001C76.2589 69.0624 76.4915 66.9793 76.0356 64.9922C75.5798 63.005 74.4624 61.2316 72.8667 59.9626C71.271 58.6936 69.2915 58.0043 67.2528 58.0075ZM30.2682 30.0192H20.2724C20.2724 28.6937 20.799 27.4225 21.7363 26.4852C22.6736 25.5479 23.9448 25.0213 25.2703 25.0213C24.6772 25.0213 24.0975 24.8455 23.6043 24.516C23.1112 24.1864 22.7268 23.7181 22.4999 23.1702C22.2729 22.6222 22.2135 22.0193 22.3292 21.4376C22.4449 20.8559 22.7305 20.3215 23.1499 19.9022C23.5693 19.4828 24.1036 19.1972 24.6853 19.0815C25.267 18.9658 25.87 19.0251 26.4179 19.2521C26.9659 19.4791 27.4342 19.8634 27.7637 20.3566C28.0932 20.8497 28.2691 21.4295 28.2691 22.0226C28.2691 22.8179 27.9531 23.5806 27.3908 24.143C26.8284 24.7054 26.0657 25.0213 25.2703 25.0213C26.5959 25.0213 27.8671 25.5479 28.8044 26.4852C29.7417 27.4225 30.2682 28.6937 30.2682 30.0192ZM46.2615 38.0159C47.0523 38.0159 47.8254 38.2504 48.4829 38.6897C49.1404 39.1291 49.6529 39.7535 49.9555 40.4841C50.2581 41.2147 50.3373 42.0187 50.183 42.7943C50.0288 43.5699 49.648 44.2823 49.0888 44.8415C48.5296 45.4006 47.8172 45.7814 47.0416 45.9357C46.266 46.09 45.4621 46.0108 44.7315 45.7082C44.0009 45.4056 43.3764 44.8931 42.9371 44.2356C42.4977 43.5781 42.2632 42.805 42.2632 42.0142C42.2632 40.9538 42.6845 39.9368 43.4343 39.187C44.1841 38.4371 45.2011 38.0159 46.2615 38.0159ZM40.2641 53.0096C40.2641 51.419 40.8959 49.8935 42.0207 48.7688C43.1454 47.644 44.6709 47.0121 46.2615 47.0121C47.8522 47.0121 49.3777 47.644 50.5024 48.7688C51.6272 49.8935 52.259 51.419 52.259 53.0096H40.2641ZM62.2549 72.0017C62.2549 70.6761 62.7814 69.4049 63.7187 68.4676C64.656 67.5303 65.9272 67.0038 67.2528 67.0038C66.6597 67.0038 66.0799 66.8279 65.5868 66.4984C65.0936 66.1689 64.7093 65.7005 64.4823 65.1526C64.2553 64.6046 64.1959 64.0017 64.3116 63.42C64.4273 62.8383 64.713 62.304 65.1323 61.8846C65.5517 61.4652 66.086 61.1796 66.6677 61.0639C67.2494 60.9482 67.8524 61.0076 68.4003 61.2345C68.9483 61.4615 69.4166 61.8459 69.7461 62.339C70.0756 62.8321 70.2515 63.4119 70.2515 64.005C70.2515 64.8003 69.9356 65.5631 69.3732 66.1255C68.8108 66.6878 68.0481 67.0038 67.2528 67.0038C68.5783 67.0038 69.8495 67.5303 70.7868 68.4676C71.7241 69.4049 72.2507 70.6761 72.2507 72.0017H62.2549Z" fill="black"/>
</g>
</svg>
