<svg width="76" height="76" viewBox="0 0 76 76" fill="none" xmlns="http://www.w3.org/2000/svg">
<mask id="mask0_7039_56003" style="mask-type:alpha" maskUnits="userSpaceOnUse" x="-1" y="-1" width="78" height="78">
<rect width="76" height="76" fill="white" stroke="white" stroke-width="2"/>
</mask>
<g mask="url(#mask0_7039_56003)">
<path d="M27.4247 36.1346L26.8912 37.1705C26.7509 37.4294 26.6765 37.7196 26.6749 38.0147C26.6733 38.3099 26.7444 38.6009 26.8819 38.8613C27.0194 39.1218 27.2189 39.3436 27.4624 39.5066C27.7059 39.6697 27.9858 39.769 28.2768 39.7954V40.4324C28.3692 43.5364 29.486 46.5201 31.4497 48.909V51.6389C31.4548 52.392 31.2347 53.1291 30.8181 53.7536C30.4015 54.3781 29.8079 54.8609 29.1151 55.1387L20.1851 58.7226C18.8459 59.2599 17.698 60.1924 16.8911 61.3985C16.0841 62.6046 15.6555 64.0284 15.6612 65.4843V70.3C15.6612 70.4857 15.7342 70.6637 15.8641 70.795C15.994 70.9263 16.1703 71 16.354 71H45.7141C45.8979 71 46.0741 70.9263 46.204 70.795C46.3339 70.6637 46.4069 70.4857 46.4069 70.3C46.4069 70.1144 46.3339 69.9364 46.204 69.8051C46.0741 69.6738 45.8979 69.6001 45.7141 69.6001H17.0468V65.4843C17.0429 64.3082 17.3898 63.1583 18.0423 62.1843C18.6948 61.2104 19.6226 60.4578 20.7047 60.0245L28.3253 56.9516C28.9915 58.7043 30.0439 60.2807 31.4026 61.5614C32.7614 62.8421 34.3909 63.7934 36.1676 64.3433C35.8938 64.7238 35.7459 65.1819 35.745 65.6522V68.8021C35.745 68.9877 35.818 69.1658 35.9479 69.2971C36.0778 69.4283 36.254 69.5021 36.4378 69.5021C36.6215 69.5021 36.7977 69.4283 36.9276 69.2971C37.0576 69.1658 37.1306 68.9877 37.1306 68.8021V65.6522C37.1306 65.4833 37.1801 65.3182 37.273 65.1778C37.3659 65.0374 37.4979 64.9279 37.6523 64.8633C37.8067 64.7987 37.9767 64.7817 38.1406 64.8147C38.3046 64.8476 38.4552 64.929 38.5734 65.0484C38.6916 65.1678 38.7721 65.32 38.8047 65.4856C38.8373 65.6513 38.8206 65.823 38.7566 65.979C38.6926 66.1351 38.5843 66.2685 38.4453 66.3623C38.3063 66.4561 38.1429 66.5062 37.9758 66.5062C37.792 66.5062 37.6158 66.58 37.4859 66.7112C37.356 66.8425 37.283 67.0205 37.283 67.2062C37.283 67.3918 37.356 67.5699 37.4859 67.7011C37.6158 67.8324 37.792 67.9061 37.9758 67.9061C38.3775 67.903 38.7709 67.79 39.1141 67.5792C39.4574 67.3683 39.7377 67.0674 39.9253 66.7084C40.1129 66.3495 40.2007 65.9459 40.1795 65.5405C40.1583 65.1352 40.0287 64.7432 39.8047 64.4063C41.5995 63.8656 43.248 62.9171 44.6241 61.6335C46.0003 60.3499 47.0674 58.7652 47.744 57.0006L49.2543 57.6096C49.3359 57.6422 49.4228 57.6588 49.5106 57.6586C49.6493 57.6587 49.7849 57.6168 49.8998 57.5382C50.0147 57.4595 50.1035 57.3479 50.1549 57.2176C50.1893 57.1309 50.2063 57.0381 50.2046 56.9446C50.203 56.8512 50.1829 56.759 50.1454 56.6735C50.108 56.588 50.054 56.511 49.9866 56.447C49.9192 56.3829 49.8398 56.3332 49.7531 56.3007L46.8572 55.1317C46.1644 54.8539 45.5708 54.3711 45.1542 53.7466C44.7376 53.1221 44.5174 52.385 44.5226 51.6319V48.902C46.4863 46.5131 47.6031 43.5294 47.6955 40.4254V39.7674C48.1289 39.6978 48.5213 39.4684 48.797 39.1235C49.0131 38.8497 49.1437 38.5171 49.1721 38.168C49.2005 37.819 49.1254 37.4693 48.9564 37.1635L48.4991 36.3096V34.4477C48.2289 27.182 42.8252 23.8712 37.9758 23.8712C33.1263 23.8712 27.7087 27.182 27.4247 34.4757V36.1346ZM44.3563 54.9567L40.8924 59.4365L38.9872 56.2027L43.8367 54.1028C43.9833 54.4031 44.1572 54.689 44.3563 54.9567ZM37.9758 55.1107L32.6552 52.8008C32.7457 52.4177 32.7945 52.0257 32.8007 51.6319V50.3509C34.2122 51.6744 36.051 52.4354 37.9758 52.4928C39.9005 52.4354 41.7393 51.6744 43.1508 50.3509V51.6389C43.1575 52.0304 43.2063 52.42 43.2963 52.8008L37.9758 55.1107ZM32.1633 54.1168L37.0128 56.2167L35.1076 59.4505L31.6437 54.9707C31.8428 54.703 32.0167 54.4171 32.1633 54.1168ZM46.4554 56.4617C45.7676 58.2563 44.6279 59.8383 43.1492 61.0513C41.6704 62.2642 39.9039 63.066 38.0242 63.3774C36.1386 63.0644 34.3669 62.2581 32.8853 61.0387C31.4037 59.8193 30.2639 58.2292 29.5792 56.4267C29.9178 56.2868 30.2406 56.1108 30.5422 55.9017L34.595 61.1165C34.6595 61.1989 34.7416 61.2657 34.8351 61.3117C34.9287 61.3578 35.0313 61.382 35.1353 61.3824H35.2046C35.3165 61.3743 35.4248 61.3389 35.5201 61.2791C35.6154 61.2194 35.695 61.1371 35.7519 61.0395L37.283 58.4006V61.9004C37.283 62.0861 37.356 62.2641 37.4859 62.3954C37.6158 62.5266 37.792 62.6004 37.9758 62.6004C38.1595 62.6004 38.3357 62.5266 38.4656 62.3954C38.5955 62.2641 38.6685 62.0861 38.6685 61.9004V58.4006L40.2065 61.0115C40.2634 61.1091 40.343 61.1914 40.4383 61.2511C40.5337 61.3109 40.6419 61.3463 40.7538 61.3544H40.8023C40.9064 61.354 41.009 61.3298 41.1025 61.2837C41.1961 61.2377 41.2782 61.1709 41.3427 61.0885L45.3955 55.8737C45.697 56.0828 46.0199 56.2588 46.3584 56.3987L46.4554 56.4617ZM37.9758 51.0929C33.4796 51.0929 29.6624 45.2342 29.6624 40.4324V39.5014L30.7362 39.1655C31.3805 38.9625 32.0663 38.7455 32.8145 38.5425C36.1907 37.5555 39.7746 37.5555 43.1508 38.5425C43.8436 38.7455 44.5364 38.9625 45.1945 39.1655L46.3861 39.5364V40.4184C46.3238 45.2342 42.4719 51.0929 37.9758 51.0929ZM47.7232 38.2625C47.6776 38.3212 47.6155 38.3646 47.545 38.3871C47.4746 38.4096 47.399 38.4101 47.3283 38.3885C46.7949 38.2415 46.1922 38.0455 45.5479 37.8425C44.9036 37.6395 44.1623 37.4155 43.4695 37.2055C39.8472 36.1595 36.0073 36.1595 32.385 37.2055C31.6922 37.4155 30.9579 37.6395 30.3066 37.8425C29.6554 38.0455 29.0596 38.2415 28.5262 38.3885C28.4555 38.4101 28.3799 38.4096 28.3095 38.3871C28.239 38.3646 28.1769 38.3212 28.1313 38.2625C28.0919 38.1997 28.0709 38.1269 28.0709 38.0525C28.0709 37.9781 28.0919 37.9053 28.1313 37.8425L28.6925 36.8066C29.4753 36.3166 33.6805 33.7967 38.0242 33.7967C42.1324 33.7967 46.1229 36.0576 47.2036 36.7156L47.8133 37.8425C47.8443 37.9131 47.8523 37.9919 47.8361 38.0674C47.8199 38.1429 47.7804 38.2112 47.7232 38.2625ZM28.8102 34.5037C29.0596 28.162 33.729 25.2711 37.9688 25.2711C42.2087 25.2711 46.878 28.162 47.1274 34.4757V35.0776C45.3885 34.1117 41.7861 32.3968 37.9758 32.3968C34.1654 32.3968 30.5491 34.1117 28.8102 35.0846V34.5037ZM50.1479 70.027C50.1867 70.1101 50.2057 70.2012 50.2034 70.293C50.2039 70.3852 50.1864 70.4765 50.1519 70.5618C50.1175 70.647 50.0667 70.7246 50.0025 70.79C49.9372 70.8562 49.8595 70.9086 49.7738 70.944C49.6901 70.9775 49.6007 70.9941 49.5106 70.993C49.4194 70.9935 49.329 70.9759 49.2446 70.941C49.1602 70.9062 49.0834 70.8549 49.0187 70.79C48.9545 70.7246 48.9037 70.647 48.8692 70.5618C48.8348 70.4765 48.8173 70.3852 48.8178 70.293C48.8186 70.1094 48.8907 69.9334 49.0187 69.8031C49.0831 69.7375 49.1597 69.6854 49.2442 69.6498C49.3286 69.6143 49.4191 69.596 49.5106 69.596C49.602 69.596 49.6926 69.6143 49.777 69.6498C49.8614 69.6854 49.9381 69.7375 50.0025 69.8031C50.0648 69.8676 50.1142 69.9436 50.1479 70.027ZM58.9047 69.6001V65.4843C58.9086 64.3082 58.5617 63.1583 57.9092 62.1843C57.2567 61.2104 56.3289 60.4578 55.2468 60.0245L52.7528 59.0096C52.6682 58.9756 52.5909 58.9251 52.5256 58.861C52.4603 58.7969 52.4081 58.7204 52.3721 58.6359C52.336 58.5513 52.3168 58.4605 52.3156 58.3684C52.3144 58.2764 52.3311 58.1851 52.3649 58.0996C52.3984 58.0141 52.4484 57.936 52.5119 57.87C52.5753 57.804 52.6511 57.7513 52.7347 57.7149C52.8184 57.6785 52.9083 57.6591 52.9994 57.6579C53.0904 57.6566 53.1809 57.6735 53.2655 57.7076L55.7664 58.7226C57.1056 59.2599 58.2535 60.1924 59.0604 61.3985C59.8674 62.6046 60.296 64.0284 60.2903 65.4843V70.3C60.2903 70.4857 60.2173 70.6637 60.0874 70.795C59.9575 70.9263 59.7812 71 59.5975 71H53.4733C53.2896 71 53.1134 70.9263 52.9834 70.795C52.8535 70.6637 52.7805 70.4857 52.7805 70.3C52.7805 70.1144 52.8535 69.9364 52.9834 69.8051C53.1134 69.6738 53.2896 69.6001 53.4733 69.6001H58.9047ZM33.9645 16.9975L33.2718 21.1973C33.2463 21.3278 33.2582 21.463 33.306 21.587C33.3539 21.711 33.4357 21.8186 33.5419 21.8972C33.6468 21.9754 33.7713 22.0221 33.9011 22.032C34.031 22.0419 34.1611 22.0146 34.2763 21.9532L37.9758 19.9443L41.7029 21.9252C41.8182 21.9866 41.9482 22.0139 42.0781 22.004C42.208 21.9941 42.3325 21.9474 42.4373 21.8692C42.5435 21.7906 42.6253 21.683 42.6732 21.559C42.721 21.435 42.7329 21.2998 42.7075 21.1693L42.0147 16.9695L45.0283 14.0016C45.1185 13.9126 45.183 13.8003 45.2148 13.6769C45.2465 13.5536 45.2443 13.4238 45.2084 13.3016C45.1683 13.1772 45.0944 13.0667 44.9952 12.9826C44.896 12.8984 44.7755 12.8441 44.6473 12.8257L40.4906 12.2097L38.5993 8.39486C38.5425 8.27651 38.454 8.17671 38.3437 8.10687C38.2334 8.03704 38.1059 8 37.9758 8C37.8456 8 37.7181 8.03704 37.6078 8.10687C37.4975 8.17671 37.409 8.27651 37.3522 8.39486L35.4887 12.2027L31.332 12.8187C31.2037 12.8371 31.0832 12.8914 30.984 12.9756C30.8848 13.0597 30.811 13.1702 30.7708 13.2946C30.7349 13.4168 30.7327 13.5466 30.7645 13.6699C30.7962 13.7933 30.8607 13.9056 30.9509 13.9946L33.9645 16.9975ZM36.0429 13.5536C36.1539 13.5368 36.2592 13.4929 36.3497 13.4259C36.4402 13.3588 36.5132 13.2705 36.5625 13.1686L37.948 10.2918L39.3336 13.1686C39.3829 13.2705 39.4559 13.3588 39.5464 13.4259C39.6369 13.4929 39.7422 13.5368 39.8532 13.5536L42.9984 14.0156L40.7469 16.2485C40.6679 16.3279 40.6091 16.4253 40.5753 16.5325C40.5415 16.6397 40.5339 16.7536 40.5529 16.8645L41.0863 20.0283L38.3014 18.5024C38.2001 18.4518 38.0887 18.4255 37.9758 18.4255C37.8628 18.4255 37.7514 18.4518 37.6501 18.5024L34.8444 20.0003L35.3778 16.8365C35.3969 16.7256 35.3892 16.6117 35.3554 16.5045C35.3216 16.3973 35.2628 16.2999 35.1838 16.2205L32.9046 13.9806L36.0429 13.5536ZM51.6929 21.3023L51.0001 25.5021C50.9753 25.6333 50.9883 25.7689 51.0374 25.893C51.0865 26.017 51.1697 26.1243 51.2772 26.202C51.3775 26.2722 51.4945 26.3143 51.6161 26.3242C51.7378 26.334 51.8598 26.3112 51.97 26.258L55.7041 24.2771L59.452 26.202C59.5537 26.2513 59.6648 26.2776 59.7776 26.279C59.8794 26.2805 59.9803 26.2594 60.0731 26.217C60.1658 26.1746 60.2482 26.1121 60.3144 26.0339C60.3805 25.9557 60.4288 25.8638 60.4558 25.7646C60.4827 25.6654 60.4877 25.5614 60.4704 25.4601L59.7776 21.2603L62.7912 18.2854C62.8815 18.1964 62.946 18.0841 62.9777 17.9607C63.0094 17.8374 63.0073 17.7076 62.9714 17.5854C62.9323 17.4597 62.8589 17.3477 62.7596 17.2623C62.6604 17.1768 62.5392 17.1214 62.4102 17.1025L58.2535 16.4935L56.3899 12.6787C56.3332 12.5603 56.2446 12.4605 56.1343 12.3907C56.0241 12.3208 55.8966 12.2838 55.7664 12.2838C55.6363 12.2838 55.5088 12.3208 55.3985 12.3907C55.2882 12.4605 55.1996 12.5603 55.1429 12.6787L53.217 16.5145L49.0603 17.1025C48.9312 17.1214 48.8101 17.1768 48.7108 17.2623C48.6116 17.3477 48.5382 17.4597 48.4991 17.5854C48.4632 17.7076 48.461 17.8374 48.4928 17.9607C48.5245 18.0841 48.589 18.1964 48.6792 18.2854L51.6929 21.3023ZM53.7712 17.8514C53.8815 17.8353 53.9864 17.7925 54.0768 17.7267C54.1673 17.6609 54.2407 17.574 54.2908 17.4734L55.6764 14.5966L57.0619 17.4734C57.112 17.574 57.1855 17.6609 57.2759 17.7267C57.3664 17.7925 57.4712 17.8353 57.5815 17.8514L60.7267 18.3134L58.4475 20.5533C58.3675 20.6334 58.308 20.732 58.2742 20.8405C58.2404 20.9491 58.2333 21.0643 58.2535 21.1763L58.787 24.3331L55.9743 22.8422C55.8765 22.7889 55.7666 22.7624 55.6556 22.7652C55.5424 22.7636 55.4307 22.7901 55.33 22.8422L52.5588 24.3331L53.0923 21.1763C53.1125 21.0643 53.1054 20.9491 53.0716 20.8405C53.0378 20.732 52.9783 20.6334 52.8983 20.5533L50.619 18.3134L53.7712 17.8514ZM16.2085 21.3023L15.5157 25.5021C15.4925 25.6347 15.5075 25.7712 15.5591 25.8954C15.6107 26.0195 15.6967 26.126 15.8067 26.202C15.912 26.2635 16.0315 26.2958 16.1531 26.2958C16.2747 26.2958 16.3942 26.2635 16.4995 26.202L20.2267 24.2211L23.9677 26.202C24.0663 26.2531 24.1756 26.2795 24.2864 26.279C24.4331 26.2796 24.5762 26.233 24.6951 26.146C24.8026 26.0683 24.8858 25.961 24.9349 25.837C24.984 25.7129 24.9969 25.5773 24.9722 25.4461L24.2794 21.2463L27.293 18.2714C27.3833 18.1824 27.4478 18.0701 27.4795 17.9468C27.5113 17.8234 27.5091 17.6936 27.4732 17.5714C27.4304 17.4454 27.3529 17.3343 27.2498 17.2513C27.1467 17.1682 27.0223 17.1166 26.8912 17.1025L22.7345 16.4935L20.8709 12.6787C20.8142 12.5603 20.7256 12.4605 20.6154 12.3907C20.5051 12.3208 20.3776 12.2838 20.2474 12.2838C20.1173 12.2838 19.9898 12.3208 19.8795 12.3907C19.7692 12.4605 19.6807 12.5603 19.6239 12.6787L17.7465 16.5145L13.5898 17.1235C13.4607 17.1424 13.3396 17.1978 13.2404 17.2833C13.1411 17.3687 13.0677 17.4807 13.0286 17.6064C12.9927 17.7286 12.9905 17.8584 13.0223 17.9817C13.054 18.1051 13.1185 18.2174 13.2088 18.3064L16.2085 21.3023ZM18.2869 17.8514C18.3972 17.8353 18.502 17.7925 18.5925 17.7267C18.6829 17.6609 18.7563 17.574 18.8064 17.4734L20.192 14.5966L21.5776 17.4734C21.6277 17.574 21.7011 17.6609 21.7916 17.7267C21.882 17.7925 21.9869 17.8353 22.0972 17.8514L25.2424 18.3134L22.9631 20.5533C22.8831 20.6334 22.8236 20.732 22.7898 20.8405C22.756 20.9491 22.7489 21.0643 22.7692 21.1763L23.3026 24.3331L20.4968 22.8422C20.3962 22.7901 20.2844 22.7636 20.1712 22.7652C20.0602 22.7624 19.9503 22.7889 19.8526 22.8422L17.0399 24.3331L17.5733 21.1763C17.5935 21.0643 17.5864 20.9491 17.5526 20.8405C17.5188 20.732 17.4593 20.6334 17.3793 20.5533L15.1001 18.3134L18.2869 17.8514Z" fill="black"/>
</g>
</svg>
