<svg width="56" height="53" viewBox="0 0 56 53" fill="none" xmlns="http://www.w3.org/2000/svg">
<mask id="mask0_7196_17819" style="mask-type:alpha" maskUnits="userSpaceOnUse" x="0" y="0" width="56" height="53">
<rect width="56" height="53" fill="#D9D9D9"/>
</mask>
<g mask="url(#mask0_7196_17819)">
</g>
<g clip-path="url(#clip0_7196_17819)">
<path fill-rule="evenodd" clip-rule="evenodd" d="M27.5686 40.3031C27.1335 39.4316 26.5768 38.2503 26.005 36.8564C25.4333 37.5709 24.8104 38.2895 24.1384 39.0165L23.0741 40.1895L21.7259 39.6381C17.7858 38.0294 6.36029 32.6518 5.18272 23.9658C4.34015 14.9164 9.80968 10.1625 7.83222 5.1318C15.8083 6.97805 22.097 9.96838 26.1202 13.7951C32.4324 5.99506 40.5174 5.68941 42.6739 0C57.6513 20.2651 55.262 38.7894 30.297 41.7755C28.1852 45.5362 25.8322 49.0282 23.2745 52L19.7739 49.8956C22.7754 47.1056 25.3438 43.8489 27.5686 40.3031ZM29.9771 30.2067C30.4976 31.5635 31.0309 32.6621 31.3744 33.3291C35.0094 25.6882 37.4903 17.3326 39.4891 9.63795C37.3346 11.8063 33.1833 12.6531 29.9323 17.0126C29.7276 17.3099 29.5483 17.6176 29.3884 17.9315C31.4192 21.5724 31.7306 25.7254 29.9771 30.2067ZM19.2107 33.2052C17.8284 25.7563 15.9619 18.834 12.6959 12.7088C16.1816 17.4194 20.2304 24.2488 22.3764 31.9785C29.9067 23.338 24.9811 14.2845 11.0939 11.0732C12.3845 14.3589 8.81137 17.4648 9.36171 23.3773C10.1723 29.3434 17.0669 32.3668 19.2107 33.2052ZM34.2968 33.7195C47.975 31.4396 49.5151 20.9776 41.5562 9.30545C40.5407 16.3682 38.0065 25.2689 34.2968 33.7195Z" fill="black"/>
</g>
<defs>
<clipPath id="clip0_7196_17819">
<rect width="47" height="52" fill="white" transform="translate(5)"/>
</clipPath>
</defs>
</svg>
