<svg width="100" height="100" viewBox="0 0 100 100" fill="none" xmlns="http://www.w3.org/2000/svg">
<rect opacity="0.2" width="100" height="100" rx="20" fill="url(#paint0_linear_7351_55879)"/>
<path d="M33 68.5742V74.4239C33 79.2762 36.9336 83.2097 41.7858 83.2097H56.9688H72.1517C77.0039 83.2097 80.9375 79.2762 80.9375 74.4239V24.7858C80.9375 19.9336 77.0039 16 72.1517 16H41.7858C36.9336 16 33 19.9336 33 24.7858V28V38.5" stroke="black" stroke-width="1.5"/>
<path d="M70.8203 49.1165L64.8203 44.1165C64.7703 44.0716 64.7118 44.0373 64.6482 44.0155C64.5846 43.9937 64.5173 43.985 64.4502 43.9898C64.3832 43.9947 64.3178 44.013 64.258 44.0436C64.1982 44.0743 64.1452 44.1167 64.1022 44.1683C64.0592 44.22 64.027 44.2797 64.0076 44.344C63.9881 44.4084 63.9819 44.476 63.9892 44.5428C63.9965 44.6096 64.0171 44.6742 64.05 44.7329C64.0828 44.7915 64.1271 44.8429 64.1803 44.884L69.719 49.5003L64.1803 54.1165C64.1271 54.1577 64.0828 54.2091 64.05 54.2677C64.0171 54.3263 63.9965 54.391 63.9892 54.4578C63.9819 54.5246 63.9881 54.5922 64.0076 54.6565C64.027 54.7209 64.0592 54.7806 64.1022 54.8322C64.1452 54.8839 64.1982 54.9263 64.258 54.9569C64.3178 54.9876 64.3832 55.0059 64.4502 55.0107C64.5173 55.0156 64.5846 55.0068 64.6482 54.9851C64.7118 54.9633 64.7703 54.9289 64.8203 54.884L70.8203 49.884C70.8765 49.8371 70.9217 49.7784 70.9527 49.7121C70.9837 49.6458 70.9998 49.5735 70.9998 49.5003C70.9998 49.4271 70.9837 49.3548 70.9527 49.2885C70.9217 49.2222 70.8765 49.1635 70.8203 49.1165ZM60.6715 38.0303C60.6098 38.0078 60.5443 37.9976 60.4786 38.0005C60.413 38.0033 60.3486 38.019 60.289 38.0468C60.2294 38.0745 60.1759 38.1137 60.1316 38.1622C60.0872 38.2106 60.0528 38.2673 60.0303 38.329L52.0303 60.329C52.0078 60.3908 51.9976 60.4563 52.0005 60.5219C52.0033 60.5876 52.019 60.652 52.0468 60.7116C52.0745 60.7711 52.1137 60.8246 52.1622 60.869C52.2106 60.9134 52.2673 60.9478 52.329 60.9703C52.384 60.9899 52.4419 61.0001 52.5003 61.0003C52.6029 61.0003 52.703 60.9688 52.7871 60.91C52.8712 60.8512 52.9351 60.7679 52.9703 60.6715L60.9703 38.6715C60.9928 38.6098 61.0029 38.5443 61.0001 38.4786C60.9973 38.413 60.9816 38.3486 60.9538 38.289C60.9261 38.2294 60.8869 38.1759 60.8384 38.1316C60.79 38.0872 60.7333 38.0528 60.6715 38.0303Z" fill="black" stroke="black" stroke-width="0.8"/>
<path d="M47 23L66.5301 23" stroke="black" stroke-width="1.5" stroke-linecap="round"/>
<mask id="path-5-inside-1_7351_55879" fill="white">
<path d="M44.0817 48.7562C44.0817 47.3603 43.7877 45.9781 43.2165 44.6885C42.6452 43.3989 41.8079 42.2272 40.7524 41.2402C39.6969 40.2532 38.4438 39.4702 37.0647 38.9361C35.6856 38.4019 34.2074 38.127 32.7147 38.127C31.222 38.127 29.7438 38.4019 28.3647 38.9361C26.9856 39.4702 25.7325 40.2532 24.677 41.2402C23.6215 42.2272 22.7842 43.3989 22.2129 44.6885C21.6417 45.9781 21.3477 47.3603 21.3477 48.7562L32.7147 48.7562H44.0817Z"/>
</mask>
<path d="M44.0817 48.7562C44.0817 47.3603 43.7877 45.9781 43.2165 44.6885C42.6452 43.3989 41.8079 42.2272 40.7524 41.2402C39.6969 40.2532 38.4438 39.4702 37.0647 38.9361C35.6856 38.4019 34.2074 38.127 32.7147 38.127C31.222 38.127 29.7438 38.4019 28.3647 38.9361C26.9856 39.4702 25.7325 40.2532 24.677 41.2402C23.6215 42.2272 22.7842 43.3989 22.2129 44.6885C21.6417 45.9781 21.3477 47.3603 21.3477 48.7562L32.7147 48.7562H44.0817Z" stroke="black" stroke-width="2.6" mask="url(#path-5-inside-1_7351_55879)"/>
<path d="M26.6851 68.763C26.5711 68.763 26.4547 68.763 26.3362 68.763C23.5748 68.763 21.3359 66.5245 21.3359 63.763V51.6309C21.3359 51.0786 21.7837 50.6309 22.3359 50.6309H43.07C43.6223 50.6309 44.07 51.0786 44.07 51.6309V64.2389C44.07 66.7375 42.0445 68.763 39.5458 68.763V68.763H39.3806M34.0403 68.763C33.9289 68.763 32.1458 68.763 32.0343 68.763H34.0403Z" stroke="black" stroke-width="1.5"/>
<path d="M26 68V72.6672C26 74.1443 27.1975 75.3418 28.6746 75.3418V75.3418C30.1517 75.3418 31.3492 74.1443 31.3492 72.6672V68" stroke="black" stroke-width="1.5"/>
<path d="M34.8008 68V72.6743C34.8008 74.1514 35.9982 75.3489 37.4754 75.3489V75.3489C38.9525 75.3489 40.15 74.1514 40.15 72.6743V68.0878" stroke="black" stroke-width="1.5"/>
<path d="M47 51V65V51Z" stroke="black" stroke-width="1.8"/>
<path d="M18.7031 51V65V51Z" stroke="black" stroke-width="1.8"/>
<line y1="-0.75" x2="4.85217" y2="-0.75" transform="matrix(0.542204 0.840247 -0.870928 0.491411 25.7188 35)" stroke="black" stroke-width="1.5"/>
<line y1="-0.75" x2="4.85217" y2="-0.75" transform="matrix(-0.542204 0.840247 0.870928 0.491411 39.3516 35)" stroke="black" stroke-width="1.5"/>
<rect x="27.3672" y="43.1289" width="2.34027" height="2.18837" rx="1" stroke="black" stroke-width="1.2"/>
<rect x="36.0586" y="43.1289" width="2.34027" height="2.18837" rx="1" stroke="black" stroke-width="1.2"/>
<path d="M49.6797 42.6152L43.6797 47.6152" stroke="black" stroke-width="1.5" stroke-linecap="round"/>
<path d="M47 53L49.6797 55" stroke="black" stroke-width="1.5" stroke-linecap="round"/>
<defs>
<linearGradient id="paint0_linear_7351_55879" x1="11.809" y1="1.81213e-05" x2="100.05" y2="16.5617" gradientUnits="userSpaceOnUse">
<stop stop-color="#2EC4F3"/>
<stop offset="1" stop-color="#BFD633"/>
</linearGradient>
</defs>
</svg>
