<svg width="100" height="100" viewBox="0 0 100 100" fill="none" xmlns="http://www.w3.org/2000/svg">
<rect opacity="0.2" width="100" height="100" rx="20" fill="url(#paint0_linear_7351_55932)"/>
<path d="M32.0511 45.4813L32.0511 45.4813L32.0488 45.484C31.4077 46.2207 30.63 46.8641 29.4607 46.943C29.5176 45.7709 30.032 44.9051 30.674 44.1769L30.6749 44.1758C31.2349 43.5375 32.231 42.9373 33.2454 42.6872C33.1844 43.8634 32.6735 44.7747 32.0511 45.4813Z" stroke="black" stroke-width="1.2"/>
<path d="M30.5513 64.8608L30.5518 64.8608C31.4092 64.8755 32.1134 65.1494 32.7119 65.3822L32.7491 65.3967C33.3744 65.6398 33.8871 65.8318 34.4945 65.8318C35.155 65.8318 35.6816 65.5588 36.155 65.1323C36.5991 64.7322 36.9619 64.2306 37.3269 63.726C37.3646 63.674 37.4023 63.6219 37.4401 63.5698C38.1747 62.5532 38.7854 61.4736 39.2403 60.2452C37.6089 59.339 36.3034 57.8532 36.1106 55.4659C35.995 54.0626 36.2754 52.9149 36.8243 51.9742C37.2532 51.2391 37.8323 50.6537 38.4697 50.1768C37.7505 49.3247 36.6934 48.748 35.2255 48.526L30.5513 64.8608ZM30.5513 64.8608C29.6405 64.8461 28.9382 65.0755 28.315 65.3105C28.2209 65.3461 28.1296 65.3812 28.0402 65.4156C27.5407 65.6078 27.1023 65.7764 26.5709 65.8565M30.5513 64.8608L26.5709 65.8565M26.5709 65.8565H26.5705H26.5695H26.5685H26.5675H26.5666H26.5656H26.5646H26.5636H26.5627H26.5617H26.5607H26.5597H26.5587H26.5578H26.5568H26.5558H26.5548H26.5539H26.5529H26.5519H26.5509H26.55H26.549H26.548H26.547H26.5461H26.5451H26.5441H26.5431H26.5421H26.5412H26.5402H26.5392H26.5382H26.5373H26.5363H26.5353H26.5343H26.5334H26.5324H26.5314H26.5304H26.5295H26.5285H26.5275H26.5265H26.5256H26.5246H26.5236H26.5226H26.5216H26.5207H26.5197H26.5187H26.5177H26.5168H26.5158H26.5148H26.5138H26.5129H26.5119H26.5109H26.5099H26.509H26.508H26.507H26.506H26.5051H26.5041H26.5031H26.5021H26.5012H26.5002H26.4992H26.4982H26.4973H26.4963H26.4953H26.4943H26.4934H26.4924H26.4914H26.4904H26.4895H26.4885H26.4875H26.4865H26.4855H26.4846H26.4836H26.4826H26.4816H26.4807H26.4797H26.4787H26.4777H26.4768H26.4758H26.4748H26.4738H26.4729H26.4719H26.4709H26.4699H26.469H26.468H26.467H26.466H26.4651H26.4641H26.4631H26.4621H26.4612H26.4602H26.4592H26.4582H26.4573H26.4563H26.4553H26.4543H26.4534H26.4524H26.4514H26.4504H26.4495H26.4485H26.4475H26.4466H26.4456H26.4446H26.4436H26.4427H26.4417H26.4407H26.4397H26.4388H26.4378H26.4368H26.4358H26.4349H26.4339H26.4329H26.4319H26.431H26.43H26.429H26.428H26.4271H26.4261H26.4251H26.4241H26.4232H26.4222H26.4212H26.4202H26.4193H26.4183H26.4173H26.4164H26.4154H26.4144H26.4134H26.4125H26.4115H26.4105H26.4095H26.4086H26.4076H26.4066H26.4056H26.4047H26.4037H26.4027H26.4018H26.4008H26.3998H26.3988H26.3979H26.3969H26.3959H26.3949H26.394H26.393H26.392H26.391H26.3901H26.3891H26.3881H26.3872H26.3862H26.3852H26.3842H26.3833H26.3823H26.3813H26.3804H26.3794H26.3784H26.3774H26.3765H26.3755H26.3745H26.3735H26.3726H26.3716H26.3706H26.3697H26.3687H26.3677H26.3667H26.3658H26.3648H26.3638H26.3629H26.3619H26.3609H26.3599H26.359H26.358H26.357H26.356H26.3551H26.3541H26.3531H26.3522H26.3512H26.3502H26.3492H26.3483H26.3473H26.3463H26.3454H26.3444H26.3434H26.3425H26.3415H26.3405H26.3395H26.3386H26.3376H26.3366H26.3357H26.3347H26.3337H26.3327H26.3318H26.3308H26.3298H26.3289H26.3279H26.3269H26.326H26.325H26.324H26.323H26.3221H26.3211H26.3201H26.3192H26.3182H26.3172H26.3162H26.3153H26.3143H26.3133H26.3124H26.3114H26.3104H26.3095H26.3085H26.3075H26.3066H26.3056H26.3046H26.3036H26.3027H26.3017H26.3007H26.2998H26.2988H26.2978H26.2969H26.2959H26.2949H26.294H26.293H26.292H26.291H26.2901H26.2891H26.2881H26.2872H26.2862H26.2852H26.2843H26.2833H26.2823H26.2814H26.2804H26.2794H26.2785H26.2775H26.2765H26.2756H26.2746H26.2736H26.2727H26.2717H26.2707H26.2697H26.2688H26.2678H26.2668H26.2659H26.2649H26.2639H26.263H26.262H26.261H26.2601H26.2591H26.2581H26.2572H26.2562H26.2552H26.2543H26.2533H26.2523H26.2514H26.2504H26.2494H26.2485H26.2475H26.2465H26.2456H26.2446H26.2436H26.2427H26.2417H26.2407H26.2398H26.2388H26.2378H26.2369H26.2359H26.235H26.234H26.233H26.2321H26.2311H26.2301H26.2292H26.2282H26.2272H26.2263H26.2253H26.2243H26.2234H26.2224H26.2214H26.2205H26.2195H26.2185H26.2176H26.2166H26.2156H26.2147H26.2137H26.2128H26.2118H26.2108H26.2099H26.2089H26.2079H26.207H26.206H26.205H26.2041H26.2031H26.2022H26.2012H26.2002H26.1993H26.1983H26.1973H26.1964H26.1954H26.1944H26.1935H26.1925H26.1916H26.1906H26.1896H26.1887H26.1877H26.1867H26.1858H26.1848H26.1839H26.1829H26.1819H26.181H26.18H26.179H26.1781H26.1771H26.1762H26.1752H26.1742H26.1733H26.1723H26.1713H26.1704H26.1694H26.1685H26.1675H26.1665H26.1656H26.1646H26.1638C25.3541 65.7214 24.6315 65.0536 24.0182 64.3094C22.235 62.1405 20.8605 59.3485 20.6 55.7697V55.7677V55.7656V55.7635V55.7613V55.7592V55.757V55.7549V55.7527V55.7506V55.7485V55.7463V55.7442V55.742V55.7399V55.7378V55.7356V55.7335V55.7313V55.7292V55.727V55.7249V55.7228V55.7206V55.7185V55.7163V55.7142V55.7121V55.7099V55.7078V55.7056V55.7035V55.7013V55.6992V55.6971V55.6949V55.6928V55.6906V55.6885V55.6864V55.6842V55.6821V55.6799V55.6778V55.6757V55.6735V55.6714V55.6692V55.6671V55.6649V55.6628V55.6607V55.6585V55.6564V55.6542V55.6521V55.65V55.6478V55.6457V55.6435V55.6414V55.6393V55.6371V55.635V55.6328V55.6307V55.6286V55.6264V55.6243V55.6221V55.62V55.6179V55.6157V55.6136V55.6114V55.6093V55.6071V55.605V55.6029V55.6007V55.5986V55.5964V55.5943V55.5922V55.59V55.5879V55.5857V55.5836V55.5815V55.5793V55.5772V55.575V55.5729V55.5708V55.5686V55.5665V55.5643V55.5622V55.5601V55.5579V55.5558V55.5536V55.5515V55.5494V55.5472V55.5451V55.5429V55.5408V55.5387V55.5365V55.5344V55.5322V55.5301V55.528V55.5258V55.5237V55.5215V55.5194V55.5173V55.5151V55.513V55.5108V55.5087V55.5066V55.5044V55.5023V55.5001V55.498V55.4959V55.4937V55.4916V55.4894V55.4873V55.4852V55.483V55.4809V55.4787V55.4766V55.4745V55.4723V55.4702V55.468V55.4659V55.4638V55.4616V55.4595V55.4573V55.4552V55.4531V55.4509V55.4488V55.4467V55.4445V55.4424V55.4402V55.4381V55.436V55.4338V55.4317V55.4295V55.4274V55.4253V55.4231V55.421V55.4188V55.4167V55.4146V55.4124V55.4103V55.4081V55.406V55.4039V55.4017V55.3996V55.3974V55.3953V55.3932V55.391V55.3889V55.3867V55.3846V55.3825V55.3803V55.3782V55.376V55.3739V55.3718V55.3696V55.3675V55.3654V55.3632V55.3611V55.3589V55.3568V55.3547V55.3525V55.3504V55.3482V55.3461V55.344V55.3418V55.3397V55.3375V55.3354V55.3333V55.3311V55.329V55.3268V55.3247V55.3226V55.3204V55.3183V55.3162V55.314V55.3119V55.3097V55.3076V55.3055V55.3033V55.3012V55.299V55.2969V55.2948V55.2926V55.2905V55.2883V55.2862V55.2841V55.2819V55.2798V55.2776V55.2755V55.2734V55.2712V55.2691V55.267V55.2648V55.2627V55.2605V55.2584V55.2563V55.2541V55.252V55.2498V55.2477V55.2456V55.2434V55.2413V55.2391V55.237V55.2349V55.2327V55.2306V55.2284V55.2263V55.2242V55.222V55.2199V55.2178V55.2156V55.2135V55.2113V55.2092V55.2071V55.2049V55.2028V55.2006V55.1985V55.1964V55.1942V55.1921V55.1899V55.1878V55.1857V55.1835V55.1814V55.1792V55.1771V55.175V55.1728V55.1707V55.1686V55.1664V55.1643V55.1621V55.16V55.1579V55.1557V55.1536V55.1514V55.1493V55.1472V55.145V55.1429V55.1407V55.1386V55.1365V55.1343V55.1322V55.13V55.1279V55.1258V55.1236V55.1215V55.1193V55.1172V55.1151V55.1129V55.1108V55.1087V55.1065V55.1044V55.1022V55.1001V55.098V55.0958V55.0937V55.0915V55.0894V55.0873V55.0851V55.083V55.0808V55.0787V55.0766V55.0744V55.0723V55.0701V55.068V55.0659V55.0637V55.0616V55.0594V55.0573V55.0552V55.053V55.0509V55.0487V55.0466V55.0445V55.0423V55.0402V55.038V55.0359V55.0338V55.0316V55.0295V55.0274V55.0252V55.0231V55.0209V55.0188V55.0167V55.0145V55.0124V55.0102V55.0081V55.006V55.0038V55.0017V54.9995V54.9974V54.9953V54.9931V54.991V54.9888V54.9867V54.9846V54.9824V54.9803V54.9781V54.976V54.9739V54.9717V54.9696V54.9674V54.9653V54.9632V54.961V54.9589V54.9567V54.9546V54.9525V54.9503V54.9482V54.946V54.9439V54.9418V54.9396V54.9375V54.9353V54.9332V54.9311V54.9289V54.9268V54.9246V54.9225V54.9204V54.9182V54.9161V54.9139V54.9118V54.9097V54.9075V54.9054V54.9032V54.9011V54.899V54.8968V54.8947V54.8925V54.8904V54.8883V54.8861V54.884V54.8818V54.8797V54.8775V54.8754V54.8733V54.8711V54.869V54.8668V54.8647V54.8626V54.8604V54.8583V54.8561V54.854V54.8519V54.8497V54.8476V54.8454V54.8433V54.8412V54.839V54.8369V54.8347V54.8326V54.8305V54.8283V54.8262V54.824V54.8219V54.8197V54.8176V54.8155V54.8133V54.8112V54.809V54.8069V54.8048V54.8026V54.8005V54.7983V54.7962V54.7941V54.7919V54.7898V54.7876V54.7855V54.7833V54.7812V54.7791V54.7769V54.7748V54.7726V54.7705V54.7684V54.7662V54.7641V54.7619V54.7598V54.7577V54.7555V54.7534V54.7512V54.7491V54.7469V54.7448V54.7427V54.7405V54.7384V54.7362V54.7341V54.732V54.7298V54.7277V54.7255V54.7234V54.7212V54.7191V54.717V54.7148V54.7127V54.7105V54.7084C20.7091 52.2173 21.9183 50.2491 23.446 49.317L23.446 49.317L23.4477 49.316C24.2871 48.8 25.3927 48.3916 26.5952 48.5752C27.1281 48.6579 27.69 48.8437 28.2137 49.0418C28.3122 49.0797 28.4165 49.1241 28.5368 49.1753C28.5555 49.1832 28.5746 49.1913 28.594 49.1996C28.7347 49.2593 28.8924 49.3254 29.0565 49.3854C29.3783 49.5029 29.7716 49.615 30.1853 49.6024M26.5709 65.8565L35.2253 48.526C33.9507 48.3343 32.9743 48.6902 31.8535 49.0987C31.7674 49.1301 31.6805 49.1618 31.5926 49.1935C31.5028 49.2263 31.4118 49.263 31.3098 49.3041L31.3058 49.3057C31.2052 49.3463 31.0934 49.3913 30.9796 49.4323C30.7547 49.5132 30.4822 49.5937 30.1853 49.6024M30.1853 49.6024C30.1851 49.6024 30.1849 49.6024 30.1848 49.6024L30.1673 49.0027L30.1856 49.6024C30.1855 49.6024 30.1854 49.6024 30.1853 49.6024Z" stroke="black" stroke-width="1.2"/>
<path d="M31.2969 69.5742V75.4239C31.2969 80.2762 35.2304 84.2097 40.0827 84.2097H55.2656H70.4485C75.3008 84.2097 79.2344 80.2762 79.2344 75.4239V25.7858C79.2344 20.9336 75.3008 17 70.4485 17H40.0827C35.2304 17 31.2969 20.9336 31.2969 25.7858V29V39.5" stroke="black" stroke-width="1.5"/>
<path d="M60.5 45L63.2597 47.7751C64.4199 48.9418 65 49.5251 65 50.25C65 50.9749 64.4199 51.5582 63.2597 52.7249L60.5 55.5M48.5 45L45.7403 47.7751C44.5801 48.9418 44 49.5251 44 50.25C44 50.9749 44.5801 51.5582 45.7403 52.7249L48.5 55.5M57.75 39L50.25 63" stroke="black" stroke-width="1.7"/>
<path d="M45.2969 24L64.827 24" stroke="black" stroke-width="1.5" stroke-linecap="round"/>
<defs>
<linearGradient id="paint0_linear_7351_55932" x1="11.809" y1="1.81213e-05" x2="100.05" y2="16.5617" gradientUnits="userSpaceOnUse">
<stop stop-color="#2EC4F3"/>
<stop offset="1" stop-color="#BFD633"/>
</linearGradient>
</defs>
</svg>
