<svg width="100" height="100" viewBox="0 0 100 100" fill="none" xmlns="http://www.w3.org/2000/svg">
<rect opacity="0.2" width="100" height="100" rx="20" fill="url(#paint0_linear_7351_55965)"/>
<path d="M70 62.9655C67.1074 65 63.0268 65 54.8654 65H44.9103C36.749 65 32.6683 65 29.7757 62.9655C28.7056 62.2127 27.7748 61.2777 27.0254 60.2027C25 57.2971 25 53.1981 25 45C25 36.8019 25 32.7029 27.0254 29.7973C27.7748 28.7223 28.7056 27.7873 29.7757 27.0345C32.6683 25 36.749 25 44.9103 25" stroke="black" stroke-width="1.3" stroke-linecap="round"/>
<path d="M50 65V75" stroke="black" stroke-width="1.3"/>
<path d="M40 75H60" stroke="black" stroke-width="1.3" stroke-linecap="round"/>
<path d="M65 25C69.714 25 72.0711 25 73.5355 26.4645C75 27.9289 75 30.286 75 35V45C75 49.714 75 52.0711 73.5355 53.5355C72.0711 55 69.714 55 65 55H62.5C57.786 55 55.4289 55 53.9645 53.5355C52.5 52.0711 52.5 49.714 52.5 45L52.5 35C52.5 30.286 52.5 27.9289 53.9645 26.4645C55.4289 25 57.786 25 62.5 25L65 25Z" stroke="black" stroke-width="1.3" stroke-linecap="round"/>
<path d="M63.7539 48.75H63.7764" stroke="black" stroke-width="2" stroke-linecap="round" stroke-linejoin="round"/>
<defs>
<linearGradient id="paint0_linear_7351_55965" x1="11.809" y1="1.81213e-05" x2="100.05" y2="16.5617" gradientUnits="userSpaceOnUse">
<stop stop-color="#2EC4F3"/>
<stop offset="1" stop-color="#BFD633"/>
</linearGradient>
</defs>
</svg>
