<svg width="115" height="115" viewBox="0 0 115 115" fill="none" xmlns="http://www.w3.org/2000/svg">
<mask id="mask0_7606_86738" style="mask-type:alpha" maskUnits="userSpaceOnUse" x="0" y="0" width="115" height="115">
<rect width="115" height="115" fill="#D9D9D9"/>
</mask>
<g mask="url(#mask0_7606_86738)">
</g>
<g clip-path="url(#clip0_7606_86738)">
<path d="M0 57.97C0 49.78 0 41.6 0 33.41C0 30.08 2.08 28 5.42 28C14.45 28 23.49 28 32.53 28C35.92 28 37.99 30.05 37.99 33.43C37.99 49.84 37.99 66.26 37.99 82.67C37.99 84.9 37.07 86.58 35.03 87.52C34.41 87.81 33.67 87.96 32.98 87.97C23.65 88 14.32 88 4.99 87.98C2.14 87.98 0 85.75 0 82.84C0 74.55 0 66.26 0 57.97ZM35.96 36.04H2.05V76.96H35.96V36.04ZM2 79.02C2 80.33 2 81.59 2 82.85C2.01 84.72 3.27 85.98 5.14 85.99C6.74 85.99 8.34 85.99 9.95 85.99C17.57 85.99 25.18 85.99 32.8 85.99C34.45 85.99 35.79 84.99 35.93 83.45C36.06 81.99 35.96 80.51 35.96 79.02H2ZM35.96 33.97C36.28 31.32 34.65 29.95 32.3 29.97C23.35 30.05 14.41 30.04 5.46 29.97C3.46 29.96 1.61 31.34 2.07 33.97H35.96Z" fill="black"/>
<path d="M19 46C25.62 46 30.99 51.38 30.99 58C30.99 64.62 25.61 70 18.99 69.99C12.37 69.99 7 64.61 7 57.99C7 51.37 12.38 46 19 46ZM28.99 57.99C28.99 52.47 24.5 47.99 18.97 48C13.48 48 9.01 52.48 9 57.98C9 63.51 13.47 68 18.99 68C24.51 68 29 63.51 28.99 57.99Z" fill="black"/>
<path d="M30.93 39.0001C30.31 39.0001 29.68 39.0101 29.06 39.0001C28.42 38.9801 28 38.5701 28 38.0101C28 37.4401 28.42 37.0201 29.05 37.0101C30.34 36.9901 31.63 36.9901 32.92 37.0101C33.56 37.0101 33.98 37.4301 33.98 38.0001C33.98 38.5701 33.56 38.9801 32.92 39.0001C32.25 39.0201 31.59 39.0001 30.92 39.0001H30.93Z" fill="black"/>
<path d="M5.44939 38.9901C5.25939 38.9901 5.06939 39.0201 4.88939 38.9901C4.34939 38.9001 4.03939 38.5701 4.00939 38.0201C3.97939 37.5001 4.37939 37.0701 4.91939 37.0201C5.28939 36.9901 5.66939 36.9901 6.03939 37.0201C6.59939 37.0601 6.97939 37.4701 6.98939 38.0001C6.98939 38.5401 6.59939 38.9601 6.00939 39.0101C5.81939 39.0301 5.63939 39.0101 5.44939 39.0101V38.9901Z" fill="black"/>
<path d="M9.46162 38.99C9.27162 38.99 9.08162 39.01 8.90162 38.99C8.36162 38.92 7.97162 38.48 8.00162 37.97C8.04162 37.42 8.35162 37.09 8.90162 37.02C9.23162 36.98 9.57162 37 9.90162 37.01C10.5516 37.03 10.9716 37.41 10.9916 37.98C11.0116 38.56 10.5716 38.98 9.90162 39.01C9.75162 39.01 9.61162 39.01 9.46162 39.01V38.99Z" fill="black"/>
<path d="M18.9372 84.9999C18.3172 84.9999 17.6872 85.0099 17.0672 84.9999C16.3972 84.9799 16.0172 84.6099 16.0072 83.9499C15.9872 82.9899 15.9872 82.0299 16.0072 81.0799C16.0172 80.4099 16.3972 80.0299 17.0572 80.0199C18.3472 79.9999 19.6372 79.9999 20.9272 80.0199C21.5972 80.0199 21.9772 80.4099 21.9872 81.0699C22.0072 82.0299 22.0072 82.9899 21.9872 83.9399C21.9772 84.6299 21.5872 84.9899 20.8772 85.0099C20.2272 85.0199 19.5872 85.0099 18.9372 85.0099V84.9999ZM19.9572 82.0399H18.0372V82.9699H19.9572V82.0399Z" fill="black"/>
<path d="M18.9956 31.0001C19.6456 31.0001 20.2856 30.9901 20.9356 31.0001C21.5756 31.0201 21.9956 31.4201 21.9956 31.9901C21.9956 32.5601 21.5756 32.9801 20.9456 32.9901C19.6556 33.0101 18.3656 33.0101 17.0756 32.9901C16.4356 32.9901 16.0156 32.5701 16.0156 32.0001C16.0156 31.4301 16.4356 31.0201 17.0656 31.0001C17.7056 30.9801 18.3556 31.0001 19.0056 31.0001H18.9956Z" fill="black"/>
<path d="M12.8638 58C13.7638 58.83 14.6138 59.59 15.4438 60.38C16.0138 60.91 16.0738 61.51 15.6438 61.96C15.2238 62.39 14.6538 62.37 14.1038 61.85C13.0238 60.84 11.9438 59.83 10.8838 58.81C10.3238 58.27 10.3338 57.66 10.8938 57.13C11.9738 56.12 13.0538 55.11 14.1438 54.12C14.6838 53.62 15.2938 53.61 15.6838 54.04C16.0838 54.49 16.0138 55.06 15.4738 55.58C15.0538 55.98 14.6238 56.37 14.1938 56.77C13.7638 57.16 13.3438 57.56 12.8638 58.01V58Z" fill="black"/>
<path d="M25.1262 58.0001C24.2162 57.1601 23.3662 56.3901 22.5262 55.6101C21.9862 55.1001 21.9062 54.5201 22.3062 54.0801C22.7262 53.6101 23.3162 53.6301 23.8962 54.1601C24.9662 55.1501 26.0262 56.1501 27.0762 57.1601C27.6662 57.7201 27.6662 58.3401 27.0762 58.8901C26.0362 59.8801 24.9762 60.8501 23.9162 61.8201C23.4162 62.2801 22.8162 62.2801 22.4162 61.8601C22.0062 61.4101 22.0462 60.8601 22.5562 60.3801C23.3862 59.6001 24.2262 58.8301 25.1162 58.0001H25.1262Z" fill="black"/>
<path d="M17.611 63.2399C16.821 63.2599 16.351 62.5999 16.611 61.8499C17.091 60.4299 17.601 59.0299 18.101 57.6199C18.561 56.3099 19.031 54.9999 19.491 53.6899C19.771 52.9199 20.241 52.6199 20.831 52.8299C21.441 53.0399 21.651 53.5799 21.381 54.3199C20.431 56.9999 19.471 59.6799 18.531 62.3599C18.361 62.8499 18.091 63.1999 17.611 63.2399Z" fill="black"/>
</g>
<defs>
<clipPath id="clip0_7606_86738">
<rect width="37.99" height="60" fill="white" transform="translate(0 28)"/>
</clipPath>
</defs>
</svg>
