<svg width="175" height="120" viewBox="0 0 175 120" fill="none" xmlns="http://www.w3.org/2000/svg">
<mask id="mask0_6857_57004" style="mask-type:alpha" maskUnits="userSpaceOnUse" x="0" y="0" width="175" height="120">
<rect width="175" height="120" fill="#D9D9D9"/>
</mask>
<g mask="url(#mask0_6857_57004)">
<path d="M87.5162 34.1426L88.9038 36.7489C89.2158 37.2299 89.5538 37.6556 89.9519 38.0521C91.119 39.2046 92.2069 40.4348 93.2081 41.734C95.5593 44.8213 97.1452 48.2498 98.2778 51.9578C98.957 54.2229 99.3258 56.5465 99.3534 58.8961C99.4672 65.9204 97.0591 71.952 92.204 76.9648C91.4142 77.7597 90.561 78.489 89.6529 79.1454C89.1719 79.1454 88.9444 78.7765 88.7462 78.4369C88.3852 77.8072 88.1449 77.1156 88.0378 76.3977C87.8671 75.5479 87.755 74.6981 87.8103 73.8206V73.4242C87.7713 73.3397 87.3472 34.3424 87.5162 34.1426Z" fill="#599636"/>
<path d="M87.5157 34.0559C87.4588 33.9422 87.4019 34.0283 87.3451 34.0835C87.3727 34.6522 87.1745 35.1592 86.8641 35.6434C86.5229 36.1244 86.0712 36.4932 85.6178 36.8897C83.0992 39.0703 81.1169 41.7042 79.5294 44.6501C77.417 48.6149 76.3284 52.8639 76.0196 57.3372C75.8783 58.9508 76.5298 64.6444 77.0384 66.2871C78.4261 70.6483 80.9187 74.3027 84.1473 77.4744C84.9402 78.2381 85.7884 78.9466 86.6659 79.6274C86.921 79.6274 86.9486 79.3999 87.0071 79.2309C87.1189 78.8693 87.2042 78.5001 87.2622 78.126L87.8309 73.8786L87.5157 34.0559Z" fill="#6CAC48"/>
<path d="M88.9054 80.8704C88.9623 80.2205 89.2743 79.681 89.6139 79.1432C89.2727 79.0018 89.0192 78.7207 88.8209 78.4071C88.65 78.1102 88.5085 77.7973 88.3985 77.4728C88.002 76.2834 87.9175 75.0355 87.8038 73.8201V73.084C87.6624 73.1977 87.6332 74.1597 87.6332 74.3026C87.5505 75.5872 87.38 76.8647 87.1229 78.126C87.0384 78.6362 86.9816 79.1448 86.668 79.5981C86.668 79.655 86.668 79.7119 86.6956 79.7964C87.2058 81.2978 87.3455 82.8268 87.4317 84.3851V84.9538C87.4317 85.633 87.404 85.49 87.9679 85.7175C88.1954 85.802 88.4488 85.8312 88.6763 86.0002C88.8469 86.0002 88.8746 85.8588 88.8746 85.7451L88.7901 84.8108V82.2045C88.7624 81.7495 88.8469 81.2978 88.9038 80.8721L88.9054 80.8704Z" fill="#C2BFBF"/>
</g>
</svg>
