<svg width="56" height="53" viewBox="0 0 56 53" fill="none" xmlns="http://www.w3.org/2000/svg">
<mask id="mask0_7200_55718" style="mask-type:alpha" maskUnits="userSpaceOnUse" x="0" y="0" width="56" height="53">
<rect width="56" height="53" fill="#D9D9D9"/>
</mask>
<g mask="url(#mask0_7200_55718)">
<path d="M31.2371 16.9433C30.5581 16.9717 29.4109 17.154 29.4109 17.231C29.4109 17.263 30.2194 17.6681 30.2814 17.6681C30.3381 17.6681 31.2768 18.1364 31.4854 18.266C31.7576 18.4402 31.9525 18.5982 31.8953 18.5982C31.8589 18.5982 30.8951 18.2251 30.5297 18.0683C30.2324 17.9431 28.9964 17.5745 28.3949 17.4323C28.0692 17.3561 27.9314 17.3278 27.3777 17.2265C26.561 17.0774 25.6005 17.0685 25.1828 17.2059C24.5845 17.4003 24.45 17.6393 24.45 18.5208C24.45 19.0069 24.4739 19.2123 24.5796 19.649C24.6258 19.839 24.7554 20.2567 24.8158 20.3976C24.8332 20.4422 24.8899 20.5799 24.9373 20.7015C24.9863 20.8218 25.1338 21.1333 25.2634 21.3881C25.9914 22.8331 27.0815 24.0375 28.6181 25.0972C29.1026 25.4294 30.4192 26.0593 30.9474 26.21C31.0819 26.2465 31.1265 26.3223 31.0171 26.3223C30.8956 26.3223 29.7815 26.0152 29.5534 25.9188C29.4667 25.8803 29.3786 25.8449 29.2893 25.8126C28.4965 25.493 27.4838 24.8347 26.6464 24.0861C25.7288 23.2698 24.9953 22.2677 24.4945 21.1463C24.1733 20.4211 23.955 19.5765 23.9011 18.8404C23.8695 18.4195 23.8363 18.3183 23.7269 18.3231C23.6904 18.3231 23.3441 18.3106 22.9625 18.2899C21.9246 18.2453 20.5067 18.3596 19.103 18.6018C16.4193 19.0588 13.5236 20.1145 10.5437 21.7235C10.0481 21.9919 9.55847 22.271 9.07517 22.5609C9.01845 22.5941 8.8394 22.7031 8.67655 22.8044C8.51491 22.9056 8.3237 23.0182 8.25402 23.0624C8.10009 23.1527 6.39623 24.3093 6.19206 24.4628C6.1159 24.5183 5.90403 24.6763 5.72538 24.8064C4.91639 25.4043 3.15542 26.8412 3.05414 26.987C3.00512 27.0599 3.0825 27.0964 3.18701 27.0599C3.24089 27.0389 3.37863 27.0105 3.48922 26.9951C3.60305 26.9773 3.89594 26.9016 4.13941 26.8209C4.38652 26.7432 4.65227 26.6625 4.72843 26.6419C5.33122 26.5009 5.57509 26.4519 5.92753 26.3996C6.08754 26.3794 6.32331 26.3429 6.45618 26.3223C8.10819 26.08 8.89652 26.0201 9.63218 26.0751C11.2303 26.2048 12.7592 26.4774 13.6342 26.7873C14.2892 27.0231 15.6216 27.7434 16.2074 28.1752C16.546 28.4304 17.6346 29.5141 17.8752 29.8414C18.0615 30.101 18.2689 30.3275 18.318 30.3275C18.3342 30.3275 18.3544 29.5011 18.3593 28.4948L18.3702 26.667L20.51 26.6548C22.1936 26.6467 22.6602 26.6593 22.689 26.6954C22.7299 26.748 22.828 26.9222 23.1492 27.5153C23.4546 28.0865 23.6049 28.3619 23.6985 28.5264C23.7471 28.6168 23.8598 28.8258 23.9549 28.9919C24.0433 29.158 24.2094 29.465 24.3236 29.6753C24.4374 29.8859 24.5306 30.0646 24.5306 30.0723C24.5306 30.1087 24.6983 30.3275 24.7271 30.3275C24.7429 30.3275 24.7838 30.2655 24.8121 30.1979C24.8441 30.1249 24.9296 29.9633 24.9993 29.8414C25.0722 29.7198 25.2019 29.4825 25.2918 29.3164C25.3821 29.1503 25.5041 28.9194 25.5689 28.81C25.7475 28.49 25.9343 28.1436 26.0894 27.8604C26.254 27.5475 26.4233 27.2372 26.5974 26.9295C26.6497 26.8282 26.7149 26.7221 26.7352 26.6954C26.7684 26.6589 27.2476 26.6463 28.9806 26.654L31.1803 26.6666L31.1925 30.2384C31.2006 33.0518 31.2119 33.8053 31.2533 33.8053C31.2768 33.8004 31.4396 33.7069 31.6073 33.5898C31.8431 33.4253 31.9444 33.324 32.0537 33.1373C32.3021 32.7131 33.0061 32.0455 33.4777 31.7859C34.0507 31.469 34.6671 31.2378 35.3071 31.0996C35.9573 30.9619 36.1489 30.9416 37.6255 30.889C40.3202 30.7958 40.7189 30.7796 40.7395 30.7593C40.7521 30.7484 40.716 30.6423 40.6621 30.5203C40.6054 30.4032 40.5082 30.1849 40.4389 30.0395C40.1825 29.4857 40.1825 29.3002 40.4515 29.0283C40.6338 28.8379 41.1049 28.6718 41.9151 28.5106C42.0484 28.4823 42.2161 28.4458 42.2838 28.4223C42.3538 28.4016 42.4389 28.3858 42.4754 28.3858C42.5783 28.3858 43.3869 28.1877 43.5578 28.1229C43.6753 28.0743 44.3097 27.9366 45.066 27.7908C45.3949 27.7259 46.2497 27.5566 46.957 27.414C47.4047 27.3257 47.8717 27.2321 47.9933 27.2082C48.1152 27.1847 48.291 27.1483 48.3797 27.1325C48.4697 27.1122 48.5867 27.0867 48.6439 27.0786C48.7006 27.0676 48.9858 27.0105 49.275 26.9506C49.4919 26.903 49.7099 26.8607 49.9288 26.8238C50.133 26.8047 51.6663 26.4361 52.0192 26.3223C52.581 26.14 52.7471 26.0674 53.1016 25.8301C53.4828 25.5708 53.5889 25.4298 53.9669 24.6763C54.3866 23.8394 54.4465 23.6984 54.5652 23.3456C54.7475 22.7841 54.7362 22.5702 54.5037 22.3344C54.3404 22.1732 53.9908 22.0071 53.736 21.9707C53.5448 21.9468 53.5193 21.9545 53.4261 22.0557C53.369 22.1165 53.3199 22.189 53.3199 22.2141C53.3199 22.2506 53.2551 22.428 53.0728 22.8647C53.0554 22.9093 53.0194 23.0182 52.9906 23.1066C52.9671 23.1969 52.9177 23.3221 52.8893 23.3901C52.8371 23.5036 52.8326 23.4833 52.8529 23.1685C52.8735 22.8566 52.9258 22.5941 53.0445 22.1967C53.0651 22.1209 53.0935 21.9913 53.1048 21.9103L53.1251 21.7645L52.7026 21.5955C52.263 21.4132 51.8843 21.2552 51.6663 21.1572C51.5918 21.1305 51.4099 21.0576 51.2596 21.0004C51.1044 20.9437 50.9177 20.8708 50.8403 20.8343C50.6993 20.7719 50.5568 20.7129 50.4129 20.6573C50.1407 20.5512 49.1895 20.2283 48.3793 19.9735C47.8385 19.8076 47.2968 19.6442 46.7545 19.4833C46.5636 19.4348 46.3737 19.3824 46.1849 19.3262C46.1201 19.3087 45.9601 19.2646 45.8381 19.233C45.1227 19.0353 44.9364 18.9859 44.6795 18.913C44.538 18.8722 44.3957 18.8344 44.2526 18.7995C44.1752 18.7805 43.9649 18.7315 43.7859 18.6869C43.4723 18.6095 42.159 18.3073 41.4468 18.1441L40.9388 18.027C40.8489 18.0067 40.6877 17.9747 40.5734 17.9541C40.4628 17.9338 40.2315 17.8893 40.0638 17.8528C39.8977 17.8216 39.54 17.7515 39.271 17.7074C39.0037 17.66 38.6824 17.6033 38.5605 17.5826C37.4371 17.38 37.3614 17.3687 35.348 17.1459C34.1076 17.0049 32.4394 16.8862 32.0331 16.9069C31.9683 16.9069 31.6077 16.9227 31.2371 16.9433ZM26.5359 18.9369C27.6102 19.2852 28.6545 19.7584 29.3699 20.2202C29.9395 20.5876 30.6468 21.1746 30.8384 21.4371L30.919 21.5465L30.7655 21.4862C30.6804 21.4497 30.5014 21.3727 30.3669 21.3075C29.6515 20.9753 29.5741 20.9482 29.5741 21.0211C29.5741 21.0401 29.7402 21.3075 29.9395 21.6065C30.1437 21.9103 30.3049 22.1777 30.3049 22.202C30.3049 22.2222 30.2292 22.189 30.134 22.1242C29.7686 21.8738 28.9106 21.5133 28.8619 21.5862C28.8494 21.6065 29.1131 21.9419 29.4522 22.3344C29.7844 22.727 30.0614 23.0624 30.0614 23.0879C30.0614 23.1479 29.9966 23.1398 29.6879 23.0259C29.3699 22.9137 29.2893 22.9012 29.2893 22.9785C29.2893 23.0308 29.976 23.9565 30.2482 24.2761C30.3256 24.3648 30.3872 24.4503 30.3872 24.4705C30.3872 24.5674 29.4348 23.9488 28.7607 23.4152C27.7965 22.6464 26.8648 21.6146 26.3746 20.7618C25.9707 20.0651 25.833 19.6903 25.833 19.2771C25.833 19.0353 25.8443 18.9863 25.9343 18.9004C25.9869 18.8453 26.053 18.7991 26.0769 18.7991C26.1004 18.7991 26.3045 18.8611 26.5359 18.9369ZM39.3739 20.377C39.7632 20.4467 40.2963 20.5386 40.5528 20.5844C40.8092 20.629 41.1223 20.6808 41.2443 20.7015C41.3662 20.7254 41.54 20.757 41.6303 20.7772C41.7195 20.7979 41.8949 20.8343 42.0168 20.8627C42.4187 20.9518 42.5167 20.9721 43.175 21.1256C43.8823 21.2917 44.0375 21.3233 44.2526 21.3675C44.4361 21.4039 44.618 21.4736 44.618 21.5052C44.618 21.5182 44.4851 21.5955 44.3222 21.6794C43.9884 21.8455 43.9188 21.858 42.5451 21.9103C41.6101 21.95 41.1098 21.9387 40.654 21.8657C39.7345 21.724 39.2601 21.4659 38.8898 20.9073C38.7602 20.7173 38.6747 20.6602 38.377 20.5844C38.2676 20.5512 38.1003 20.5066 38.0116 20.4783C37.9212 20.4499 37.7677 20.4053 37.6697 20.377C37.3768 20.3012 37.5433 20.2567 38.1335 20.2567C38.5398 20.2567 38.825 20.2838 39.3739 20.377ZM44.2651 26.0282C44.2318 26.0361 44.1971 26.0361 44.1638 26.0282C44.1355 26.0152 44.1557 26.0075 44.2129 26.0075C44.2684 26.0075 44.289 26.0156 44.2655 26.0277L44.2651 26.0282ZM44.0897 26.0755C44.0897 26.0958 44.0423 26.1242 43.9803 26.1371C43.8539 26.1687 43.3585 26.3113 43.1956 26.3632C43.1385 26.3838 42.955 26.441 42.7889 26.4888C42.3696 26.6103 41.3537 26.9408 41.0814 27.047C40.5686 27.2414 39.3646 27.8795 39.1953 28.0504C38.9421 28.2971 38.8643 28.5629 38.9024 29.0725C38.9133 29.2876 38.9421 29.5586 38.9672 29.6753C39.0162 29.9305 38.9875 29.9998 38.8898 29.8734C38.7918 29.7482 38.5844 29.2957 38.524 29.0725C38.4908 28.9728 38.4547 28.8383 38.4341 28.7735C38.3612 28.5438 38.3895 28.2716 38.5038 28.1071C38.6573 27.8714 39.2111 27.4962 39.8613 27.1847C40.1699 27.0344 41.0685 26.727 41.8949 26.4851C42.061 26.4365 42.2445 26.3794 42.3016 26.3636C42.887 26.1655 44.0897 25.9755 44.0897 26.0755ZM31.2294 26.3474C31.2164 26.3587 31.1803 26.3636 31.1516 26.3506C31.1184 26.3397 31.1313 26.3271 31.1755 26.3271C31.2213 26.3223 31.2452 26.3352 31.2294 26.3474Z" fill="black"/>
<path d="M22.6992 34.1691V37H24.7247C26.2455 37 26.7612 36.9878 26.7976 36.9514C26.8592 36.8906 26.8722 31.3383 26.8102 31.3383C26.7899 31.3383 26.7616 31.3699 26.7486 31.4064C26.7324 31.4428 26.2896 32.1343 25.761 32.9429C24.924 34.2214 24.6915 34.5329 24.6915 34.3749C24.6915 34.3466 23.3053 32.1833 22.9508 31.6608C22.9033 31.5931 22.8614 31.5217 22.8256 31.4473C22.7924 31.3857 22.7527 31.3379 22.7324 31.3379C22.715 31.3379 22.6992 32.6119 22.6992 34.1691Z" fill="black"/>
</g>
</svg>
