<svg width="56" height="53" viewBox="0 0 56 53" fill="none" xmlns="http://www.w3.org/2000/svg">
<mask id="mask0_7200_56869" style="mask-type:alpha" maskUnits="userSpaceOnUse" x="0" y="0" width="56" height="53">
<rect width="56" height="53" fill="#D9D9D9"/>
</mask>
<g mask="url(#mask0_7200_56869)">
<path d="M0 30.8026V20.2988H1.40873L5.59089 27.1121H4.7838L8.95129 20.2988H10.36V30.8026H8.37899V23.7801L8.76052 23.8997L5.85502 28.651H4.50499L1.59949 23.8997L1.9957 23.7801V30.8026H0Z" fill="black"/>
<path d="M15.593 30.952C14.8788 30.952 14.2332 30.7876 13.656 30.4589C13.0886 30.1202 12.6337 29.667 12.2913 29.0993C11.9587 28.5215 11.7924 27.879 11.7924 27.1718C11.7924 26.4646 11.9587 25.8321 12.2913 25.2743C12.6239 24.7065 13.0788 24.2583 13.656 23.9296C14.2332 23.5909 14.8739 23.4216 15.5783 23.4216C16.3022 23.4216 16.9479 23.5909 17.5153 23.9296C18.0925 24.2583 18.5474 24.7065 18.88 25.2743C19.2126 25.8321 19.3789 26.4646 19.3789 27.1718C19.3789 27.879 19.2126 28.5215 18.88 29.0993C18.5474 29.667 18.0925 30.1202 17.5153 30.4589C16.9479 30.7876 16.3071 30.952 15.593 30.952ZM15.5783 29.1291C15.9403 29.1291 16.2582 29.0494 16.5321 28.8901C16.8158 28.7207 17.0311 28.4916 17.1778 28.2028C17.3343 27.9039 17.4126 27.5653 17.4126 27.1868C17.4126 26.8083 17.3343 26.4746 17.1778 26.1857C17.0213 25.8968 16.8061 25.6727 16.5321 25.5133C16.2582 25.344 15.9403 25.2593 15.5783 25.2593C15.2261 25.2593 14.9131 25.344 14.6392 25.5133C14.3652 25.6727 14.15 25.8968 13.9935 26.1857C13.837 26.4746 13.7587 26.8083 13.7587 27.1868C13.7587 27.5653 13.837 27.9039 13.9935 28.2028C14.15 28.4916 14.3652 28.7207 14.6392 28.8901C14.9131 29.0494 15.2261 29.1291 15.5783 29.1291Z" fill="black"/>
<path d="M25.3856 30.8026V26.6638C25.3856 26.2355 25.2536 25.8869 24.9894 25.6179C24.7253 25.349 24.3829 25.2145 23.9622 25.2145C23.6883 25.2145 23.4437 25.2743 23.2285 25.3938C23.0133 25.5133 22.8421 25.6827 22.7149 25.9018C22.5975 26.121 22.5388 26.375 22.5388 26.6638L21.7904 26.2753C21.7904 25.7076 21.9078 25.2145 22.1426 24.7962C22.3872 24.3678 22.7198 24.0342 23.1405 23.7951C23.5709 23.556 24.0552 23.4365 24.5932 23.4365C25.1117 23.4365 25.5764 23.571 25.9873 23.8399C26.3982 24.0989 26.721 24.4425 26.9558 24.8709C27.1906 25.2892 27.308 25.7424 27.308 26.2305V30.8026H25.3856ZM20.6165 30.8026V23.5859H22.5388V30.8026H20.6165Z" fill="black"/>
<path d="M32.1875 30.952C31.4733 30.952 30.8277 30.7876 30.2505 30.4589C29.6831 30.1202 29.2282 29.667 28.8858 29.0993C28.5532 28.5215 28.3869 27.879 28.3869 27.1718C28.3869 26.4646 28.5532 25.8321 28.8858 25.2743C29.2184 24.7065 29.6733 24.2583 30.2505 23.9296C30.8277 23.5909 31.4684 23.4216 32.1728 23.4216C32.8967 23.4216 33.5424 23.5909 34.1098 23.9296C34.687 24.2583 35.1419 24.7065 35.4745 25.2743C35.8071 25.8321 35.9734 26.4646 35.9734 27.1718C35.9734 27.879 35.8071 28.5215 35.4745 29.0993C35.1419 29.667 34.687 30.1202 34.1098 30.4589C33.5424 30.7876 32.9016 30.952 32.1875 30.952ZM32.1728 29.1291C32.5348 29.1291 32.8527 29.0494 33.1266 28.8901C33.4103 28.7207 33.6256 28.4916 33.7723 28.2028C33.9288 27.9039 34.0071 27.5653 34.0071 27.1868C34.0071 26.8083 33.9288 26.4746 33.7723 26.1857C33.6158 25.8968 33.4006 25.6727 33.1266 25.5133C32.8527 25.344 32.5348 25.2593 32.1728 25.2593C31.8206 25.2593 31.5076 25.344 31.2337 25.5133C30.9597 25.6727 30.7445 25.8968 30.588 26.1857C30.4315 26.4746 30.3532 26.8083 30.3532 27.1868C30.3532 27.5653 30.4315 27.9039 30.588 28.2028C30.7445 28.4916 30.9597 28.7207 31.2337 28.8901C31.5076 29.0494 31.8206 29.1291 32.1728 29.1291Z" fill="black"/>
<path d="M37.211 30.8026V20H39.1333V30.8026H37.211Z" fill="black"/>
<path d="M44.1676 30.952C43.4535 30.952 42.8078 30.7876 42.2306 30.4589C41.6632 30.1202 41.2083 29.667 40.8659 29.0993C40.5333 28.5215 40.367 27.879 40.367 27.1718C40.367 26.4646 40.5333 25.8321 40.8659 25.2743C41.1985 24.7065 41.6534 24.2583 42.2306 23.9296C42.8078 23.5909 43.4486 23.4216 44.153 23.4216C44.8769 23.4216 45.5226 23.5909 46.09 23.9296C46.6671 24.2583 47.122 24.7065 47.4547 25.2743C47.7873 25.8321 47.9536 26.4646 47.9536 27.1718C47.9536 27.879 47.7873 28.5215 47.4547 29.0993C47.122 29.667 46.6671 30.1202 46.09 30.4589C45.5226 30.7876 44.8818 30.952 44.1676 30.952ZM44.153 29.1291C44.5149 29.1291 44.8329 29.0494 45.1068 28.8901C45.3905 28.7207 45.6057 28.4916 45.7525 28.2028C45.909 27.9039 45.9872 27.5653 45.9872 27.1868C45.9872 26.8083 45.909 26.4746 45.7525 26.1857C45.5959 25.8968 45.3807 25.6727 45.1068 25.5133C44.8329 25.344 44.5149 25.2593 44.153 25.2593C43.8008 25.2593 43.4877 25.344 43.2138 25.5133C42.9399 25.6727 42.7247 25.8968 42.5681 26.1857C42.4116 26.4746 42.3334 26.8083 42.3334 27.1868C42.3334 27.5653 42.4116 27.9039 42.5681 28.2028C42.7247 28.4916 42.9399 28.7207 43.2138 28.8901C43.4877 29.0494 43.8008 29.1291 44.153 29.1291Z" fill="black"/>
<path d="M52.1553 34C51.4021 34 50.7368 33.8605 50.1597 33.5816C49.5825 33.3127 49.1227 32.9292 48.7803 32.4312L49.9982 31.191C50.2722 31.5197 50.5754 31.7688 50.908 31.9381C51.2504 32.1174 51.6613 32.207 52.1407 32.207C52.7374 32.207 53.207 32.0527 53.5494 31.7439C53.9016 31.4351 54.0777 31.0068 54.0777 30.4589V28.651L54.4005 27.0672L54.0923 25.4835V23.5859H56V30.429C56 31.1462 55.8337 31.7688 55.5011 32.2967C55.1782 32.8346 54.7282 33.2529 54.151 33.5518C53.5739 33.8506 52.9086 34 52.1553 34ZM52.0673 30.6083C51.4314 30.6083 50.8591 30.4539 50.3504 30.1451C49.8417 29.8264 49.4406 29.3931 49.1471 28.8453C48.8634 28.2974 48.7216 27.6848 48.7216 27.0075C48.7216 26.3301 48.8634 25.7225 49.1471 25.1846C49.4406 24.6467 49.8417 24.2234 50.3504 23.9146C50.8591 23.5959 51.4314 23.4365 52.0673 23.4365C52.5956 23.4365 53.0603 23.5411 53.4614 23.7503C53.8722 23.9594 54.1951 24.2483 54.4299 24.6169C54.6646 24.9755 54.7918 25.3988 54.8114 25.8869V28.158C54.7918 28.6361 54.6598 29.0644 54.4152 29.4429C54.1804 29.8115 53.8576 30.1003 53.4467 30.3095C53.0456 30.5087 52.5858 30.6083 52.0673 30.6083ZM52.4488 28.8303C52.801 28.8303 53.1043 28.7556 53.3586 28.6062C53.6228 28.4468 53.8282 28.2327 53.975 27.9637C54.1217 27.6848 54.1951 27.371 54.1951 27.0224C54.1951 26.6638 54.1217 26.3501 53.975 26.0811C53.8282 25.8122 53.6228 25.603 53.3586 25.4536C53.1043 25.2942 52.801 25.2145 52.4488 25.2145C52.0967 25.2145 51.7885 25.2942 51.5244 25.4536C51.2602 25.603 51.0548 25.8171 50.908 26.0961C50.7613 26.365 50.6879 26.6738 50.6879 27.0224C50.6879 27.3611 50.7613 27.6699 50.908 27.9488C51.0548 28.2177 51.2602 28.4319 51.5244 28.5912C51.7885 28.7506 52.0967 28.8303 52.4488 28.8303Z" fill="black"/>
</g>
</svg>
