<svg width="100" height="100" viewBox="0 0 100 100" fill="none" xmlns="http://www.w3.org/2000/svg">
<rect width="100" height="100" fill="white"/>
<path d="M50.32 72.8104C46.2967 72.8104 43.0352 69.549 43.0352 65.5257V53.4541C43.0352 49.4309 46.2966 46.1694 50.3198 46.1694C54.3431 46.1694 57.6045 49.4309 57.6045 53.4541V65.5257C57.6046 69.549 54.3432 72.8104 50.32 72.8104Z" stroke="black" stroke-width="3" stroke-miterlimit="10" stroke-linecap="round" stroke-linejoin="round"/>
<path d="M43.1309 55.79H57.5074" stroke="black" stroke-width="3" stroke-miterlimit="10" stroke-linecap="round" stroke-linejoin="round"/>
<path d="M43.1309 58.7754H57.5074" stroke="black" stroke-width="3" stroke-miterlimit="10" stroke-linecap="round" stroke-linejoin="round"/>
<path d="M44.375 83.9995H56.2618" stroke="black" stroke-width="3" stroke-miterlimit="10" stroke-linecap="round" stroke-linejoin="round"/>
<path d="M50.3203 72.835V83.4557" stroke="black" stroke-width="3" stroke-miterlimit="10" stroke-linecap="round" stroke-linejoin="round"/>
<path d="M54.9152 66.8435C55.1596 66.8435 55.3577 66.6454 55.3577 66.401C55.3577 66.1566 55.1596 65.9585 54.9152 65.9585C54.6708 65.9585 54.4727 66.1566 54.4727 66.401C54.4727 66.6454 54.6708 66.8435 54.9152 66.8435Z" fill="black"/>
<path d="M54.9152 64.6663C55.1596 64.6663 55.3577 64.4682 55.3577 64.2238C55.3577 63.9794 55.1596 63.7812 54.9152 63.7812C54.6708 63.7812 54.4727 63.9794 54.4727 64.2238C54.4727 64.4682 54.6708 64.6663 54.9152 64.6663Z" fill="black"/>
<path d="M54.9152 62.4866C55.1596 62.4866 55.3577 62.2885 55.3577 62.0441C55.3577 61.7997 55.1596 61.6016 54.9152 61.6016C54.6708 61.6016 54.4727 61.7997 54.4727 62.0441C54.4727 62.2885 54.6708 62.4866 54.9152 62.4866Z" fill="black"/>
<path d="M53.5538 69.0227C53.7982 69.0227 53.9964 68.8246 53.9964 68.5802C53.9964 68.3358 53.7982 68.1377 53.5538 68.1377C53.3095 68.1377 53.1113 68.3358 53.1113 68.5802C53.1113 68.8246 53.3095 69.0227 53.5538 69.0227Z" fill="black"/>
<path d="M51.2394 70.384C51.4838 70.384 51.6819 70.1859 51.6819 69.9415C51.6819 69.6971 51.4838 69.499 51.2394 69.499C50.995 69.499 50.7969 69.6971 50.7969 69.9415C50.7969 70.1859 50.995 70.384 51.2394 70.384Z" fill="black"/>
<path d="M51.5128 68.3425C51.7572 68.3425 51.9553 68.1444 51.9553 67.9C51.9553 67.6556 51.7572 67.4575 51.5128 67.4575C51.2684 67.4575 51.0703 67.6556 51.0703 67.9C51.0703 68.1444 51.2684 68.3425 51.5128 68.3425Z" fill="black"/>
<path d="M52.7374 66.8435C52.9818 66.8435 53.1799 66.6454 53.1799 66.401C53.1799 66.1566 52.9818 65.9585 52.7374 65.9585C52.493 65.9585 52.2949 66.1566 52.2949 66.401C52.2949 66.6454 52.493 66.8435 52.7374 66.8435Z" fill="black"/>
<path d="M52.7374 64.6663C52.9818 64.6663 53.1799 64.4682 53.1799 64.2238C53.1799 63.9794 52.9818 63.7812 52.7374 63.7812C52.493 63.7812 52.2949 63.9794 52.2949 64.2238C52.2949 64.4682 52.493 64.6663 52.7374 64.6663Z" fill="black"/>
<path d="M52.7374 62.4866C52.9818 62.4866 53.1799 62.2885 53.1799 62.0441C53.1799 61.7997 52.9818 61.6016 52.7374 61.6016C52.493 61.6016 52.2949 61.7997 52.2949 62.0441C52.2949 62.2885 52.493 62.4866 52.7374 62.4866Z" fill="black"/>
<path d="M64.3962 16C57.6191 16 52.125 21.4939 52.125 28.2712C52.125 32.0641 53.8461 35.4548 56.5497 37.7057L54.5129 42.7976L60.4309 39.887C61.6748 40.3115 63.0086 40.5423 64.3962 40.5423C71.1734 40.5423 76.6675 35.0482 76.6675 28.2711C76.6673 21.4939 71.1734 16 64.3962 16Z" fill="black" stroke="black" stroke-width="3" stroke-miterlimit="10" stroke-linecap="round" stroke-linejoin="round"/>
<path d="M36.2087 16C42.9859 16 48.48 21.4939 48.48 28.2712C48.48 32.0641 46.7588 35.4548 44.0553 37.7057L46.092 42.7976L40.174 39.887C38.9301 40.3115 37.5964 40.5423 36.2087 40.5423C29.4316 40.5423 23.9375 35.0482 23.9375 28.2711C23.9375 21.4939 29.4314 16 36.2087 16Z" fill="black" stroke="black" stroke-width="3" stroke-miterlimit="10" stroke-linecap="round" stroke-linejoin="round"/>
<path d="M77.7377 37.7244C71.146 35.5497 63.7868 39.7722 62.2594 46.4613C61.4327 50.0819 62.3368 53.6935 64.427 56.4315L61.373 60.8482L67.6564 59.3596C68.7512 60.036 69.9742 60.5468 71.2989 60.8492C77.7681 62.3261 84.2099 58.2791 85.6868 51.8099C87.0789 45.7122 83.7359 39.7033 77.7377 37.7244Z" fill="black" stroke="black" stroke-width="3" stroke-miterlimit="10" stroke-linecap="round" stroke-linejoin="round"/>
<path d="M22.2623 37.7244C28.854 35.5497 36.2132 39.7722 37.7406 46.4613C38.5673 50.0819 37.6632 53.6935 35.573 56.4315L38.627 60.8482L32.3436 59.3596C31.2488 60.036 30.0258 60.5468 28.7011 60.8492C22.2319 62.3261 15.7901 58.2791 14.3132 51.8099C12.9211 45.7122 16.2641 39.7033 22.2623 37.7244Z" fill="black" stroke="black" stroke-width="3" stroke-miterlimit="10" stroke-linecap="round" stroke-linejoin="round"/>
<path d="M59.8164 33.3824L64.5295 21.7808L69.2426 33.3824" stroke="white" stroke-miterlimit="10" stroke-linecap="round" stroke-linejoin="round"/>
<path d="M61.3457 29.6143H67.5921" stroke="white" stroke-miterlimit="10" stroke-linecap="round" stroke-linejoin="round"/>
<path d="M24.0547 46.9733V54.1391L24.113 48.5382C24.1311 46.8119 25.5356 45.4219 27.2619 45.4219C29.0011 45.4219 30.411 46.8317 30.411 48.571V54.1391" stroke="white" stroke-miterlimit="10" stroke-linecap="round" stroke-linejoin="round"/>
<path d="M22.4866 48.4864C23.3141 48.4864 23.9849 47.8156 23.9849 46.9881C23.9849 46.1606 23.3141 45.4897 22.4866 45.4897C21.6591 45.4897 20.9883 46.1606 20.9883 46.9881C20.9883 47.8156 21.6591 48.4864 22.4866 48.4864Z" stroke="white" stroke-miterlimit="10" stroke-linecap="round" stroke-linejoin="round"/>
<path d="M69.5391 43.2783H73.6761V47.4153H69.5391V43.2783Z" stroke="white" stroke-miterlimit="10" stroke-linecap="round" stroke-linejoin="round"/>
<path d="M70.8691 50.5181H77.0746V53.0298H70.8691V55.5416H77.0746" stroke="white" stroke-miterlimit="10" stroke-linecap="round" stroke-linejoin="round"/>
<path d="M77.0742 48.0059V42.9824" stroke="white" stroke-miterlimit="10" stroke-linecap="round" stroke-linejoin="round"/>
<path d="M78.6995 45.4951H77.0742" stroke="white" stroke-miterlimit="10" stroke-linecap="round" stroke-linejoin="round"/>
<path d="M30.416 24.1055H42.1279" stroke="white" stroke-miterlimit="10" stroke-linecap="round" stroke-linejoin="round"/>
<path d="M36.2715 21.854V24.1063" stroke="white" stroke-miterlimit="10" stroke-linecap="round" stroke-linejoin="round"/>
<path d="M39.6502 24.3315C39.6502 24.3315 38.7493 30.638 30.9414 33.641" stroke="white" stroke-miterlimit="10" stroke-linecap="round" stroke-linejoin="round"/>
<path d="M33.7949 27.4858C34.9961 29.4378 37.5487 32.1406 41.4527 33.6421" stroke="white" stroke-miterlimit="10" stroke-linecap="round" stroke-linejoin="round"/>
</svg>
