<svg width="175" height="120" viewBox="0 0 175 120" fill="none" xmlns="http://www.w3.org/2000/svg">
<mask id="mask0_6857_55537" style="mask-type:alpha" maskUnits="userSpaceOnUse" x="0" y="0" width="175" height="120">
<rect width="175" height="120" fill="#D9D9D9"/>
</mask>
<g mask="url(#mask0_6857_55537)">
<path fill-rule="evenodd" clip-rule="evenodd" d="M37 81.3752H40.3299V68.2591L45.4645 79.6975C46.0741 81.0693 46.8882 81.5524 48.5147 81.5524C50.1417 81.5524 50.9552 81.0693 51.5648 79.6975L56.6995 68.2591V81.3752H60.0037V68.2842C60.0037 67.0138 59.495 66.4025 58.453 66.0721C55.9367 65.2842 54.2333 65.9707 53.471 67.674L48.4383 78.9346L43.5583 67.674C42.8211 65.9707 41.0927 65.2842 38.5763 66.0721C37.5087 66.4025 37.0006 67.0132 37.0006 68.2842V81.3752H37ZM62.7741 70.6986H66.0784V77.9177C66.0533 78.3239 66.2054 79.2394 68.0358 79.2651C68.9508 79.2896 75.1781 79.2651 75.2288 79.2651V70.6729H78.5587C78.5838 70.6729 78.5587 82.3904 78.5587 82.4417C78.5838 85.3392 74.9747 85.9487 73.3226 86H62.8505V83.7634C62.8505 83.7634 73.2976 83.789 73.3226 83.7634C75.4578 83.56 75.2038 82.493 75.2038 82.1369V81.2721H68.1629C64.8837 81.222 62.7992 79.7977 62.7741 78.1456C62.7741 77.9935 62.8505 70.7755 62.7741 70.6986ZM134.174 62.3867C132.141 62.336 130.59 62.5137 129.243 63.0983C128.862 63.2509 128.277 63.2509 128.201 63.734C128.405 63.9363 128.455 64.2673 128.608 64.5476C128.938 65.0563 129.472 65.7416 129.955 66.0977C130.464 66.505 130.997 66.9112 131.556 67.2673C132.573 67.8769 133.691 68.2073 134.631 68.8186C135.217 69.1735 135.775 69.6321 136.335 70.0383C136.588 70.2417 136.792 70.547 137.123 70.6735V70.6234C136.945 70.3943 136.894 70.0639 136.741 69.8087L135.979 69.0464C135.242 68.0808 134.301 67.216 133.309 66.505C132.521 65.9456 130.742 65.1577 130.412 64.2428C130.386 64.2171 130.36 64.2171 130.36 64.1915C130.92 64.1146 131.581 63.9124 132.09 63.7842C132.954 63.5563 133.742 63.6064 134.631 63.378C135.038 63.2504 135.444 63.149 135.852 63.0219V62.7929C135.394 62.3354 135.09 61.7002 134.581 61.2935C133.285 60.1751 131.861 59.0819 130.412 58.167C129.599 57.6332 128.608 57.3027 127.744 56.8709C127.464 56.7439 126.955 56.6675 126.753 56.4135C126.294 55.854 126.066 55.1168 125.71 54.456C124.964 53.0062 124.269 51.5309 123.626 50.0329C123.194 49.0416 122.888 48.0503 122.356 47.1348C119.712 42.8137 116.89 40.1959 112.493 37.6283C111.553 37.0945 110.435 36.8661 109.24 36.5864C108.604 36.5351 107.969 36.51 107.333 36.4587C106.952 36.3061 106.546 35.8235 106.164 35.5945C104.715 34.6796 100.978 32.6714 99.9103 35.3148C99.2238 36.9669 100.927 38.594 101.537 39.4331C101.97 40.0176 102.502 40.679 102.808 41.3393C103.011 41.7712 103.036 42.2036 103.215 42.661C103.646 43.805 104.002 45.0503 104.536 46.0923C104.815 46.6261 105.12 47.1855 105.476 47.6686C105.68 47.9484 106.061 48.0754 106.111 48.5329C105.755 49.041 105.731 49.8039 105.527 50.4391C104.638 53.3115 104.968 56.8447 106.29 58.9794C106.697 59.6146 107.637 61.0126 108.959 60.4794C110.103 59.9963 109.849 58.5726 110.179 57.2765C110.256 56.9968 110.205 56.7934 110.357 56.5901V56.6408C110.687 57.3523 111.043 58.0388 111.399 58.7247C112.162 59.9706 113.535 61.2923 114.704 62.156C115.288 62.6134 115.771 63.4019 116.559 63.6554V63.6041H116.483C116.331 63.3763 116.102 63.2743 115.924 63.096C115.466 62.6385 114.958 62.0791 114.577 61.5709C113.535 60.1472 112.595 58.5715 111.73 56.9444C111.323 56.1565 110.967 55.2923 110.638 54.5044C110.509 54.1996 110.509 53.7422 110.23 53.5638C109.849 54.1483 109.316 54.6314 109.009 55.3179C108.552 56.4112 108.476 57.7579 108.324 59.1309C108.222 59.1816 108.247 59.156 108.196 59.2072C107.384 59.0039 107.103 58.1647 106.798 57.4531C106.062 55.6484 105.909 52.7509 106.569 50.6664C106.747 50.1326 107.536 48.4548 107.206 47.9466C107.052 47.4635 106.569 47.1588 106.29 46.7776C105.934 46.3202 105.604 45.71 105.35 45.1762C104.741 43.7526 104.46 42.1768 103.799 40.7537C103.469 40.0672 102.961 39.3807 102.529 38.7962C102.046 38.1097 101.512 37.6272 101.131 36.8137C101.004 36.5339 100.826 36.0765 101.004 35.7711C101.08 35.5677 101.157 35.4914 101.359 35.4151C101.689 35.161 102.631 35.517 102.986 35.6435C103.901 36.0503 104.689 36.4063 105.477 36.9401C105.858 37.1942 106.24 37.6768 106.698 37.8044H107.206C108.02 37.9821 108.934 37.8551 109.697 38.0841C111.044 38.4903 112.264 39.1261 113.357 39.8382C116.712 41.9478 119.433 44.9472 121.313 48.5312C121.618 49.1157 121.745 49.6495 122 50.2596C122.534 51.5055 123.219 52.776 123.753 53.9706C124.262 55.1909 124.796 56.4112 125.532 57.4019C125.94 57.9357 127.464 58.2154 128.151 58.4946C128.634 58.6979 129.421 58.9264 129.88 59.2067C130.769 59.7148 131.608 60.3506 132.447 60.9351C132.852 61.2177 134.123 61.8529 134.174 62.3867Z" fill="#00678C"/>
<path fill-rule="evenodd" clip-rule="evenodd" d="M108.252 40.2988C107.901 40.2989 107.552 40.3418 107.211 40.4264V40.4771H107.287C107.49 40.8839 107.846 41.1636 108.1 41.5191C108.278 41.9259 108.482 42.3326 108.66 42.7394L108.735 42.6631C109.091 42.4346 109.244 42.0279 109.244 41.3926C109.117 41.24 109.091 41.0622 108.965 40.8839C108.787 40.6293 108.482 40.5022 108.252 40.2988Z" fill="#00678C"/>
<path fill-rule="evenodd" clip-rule="evenodd" d="M81.1289 81.3765H90.6605C91.7788 81.3765 92.8715 81.1475 93.7357 80.7401C95.1588 80.0804 95.8709 79.19 95.8709 78.021V75.581C95.8709 74.641 95.0574 73.726 93.5078 73.141C92.6687 72.8105 91.6517 72.6579 90.6605 72.6579H86.6447C85.2974 72.6579 84.6622 72.2505 84.5095 71.3618C84.4838 71.2604 84.4838 71.1584 84.4838 71.057V69.557C84.4838 69.4556 84.4838 69.3793 84.5095 69.2779C84.6622 68.5914 85.0176 68.388 86.1872 68.2866C86.2886 68.2866 86.4157 68.261 86.5177 68.261H95.9985V66.05H86.6703C85.323 66.05 84.6365 66.1514 84.0013 66.3291C82.0188 66.9643 81.1545 67.9305 81.1545 69.6339V71.5658C81.1545 73.0658 82.8574 74.3362 85.6791 74.641C86.0095 74.641 86.3143 74.6666 86.6447 74.6666H90.0765C90.2036 74.6666 90.3301 74.6666 90.4315 74.6922C91.4996 74.7937 91.9315 74.9714 92.2619 75.352C92.4396 75.5553 92.5165 75.7336 92.5165 75.9627V77.8945C92.5165 78.1235 92.3639 78.4289 92.0334 78.6824C91.7531 78.937 91.2701 79.0897 90.6348 79.1399C90.5078 79.1399 90.407 79.1655 90.2788 79.1655H81.1289V81.3765ZM116.562 77.5117C116.562 79.7996 118.239 81.07 121.671 81.3246C121.976 81.3503 122.306 81.3759 122.611 81.3759H131.254V79.1638H122.56C120.603 79.1638 119.866 78.6807 119.866 77.5117V66.0488H116.561V77.5117H116.562ZM97.9811 77.6387V69.7598C97.9811 67.7516 99.3785 66.5319 102.175 66.1502C102.455 66.099 102.785 66.099 103.064 66.099H109.368C109.672 66.099 109.953 66.099 110.283 66.1502C113.053 66.5319 114.477 67.7516 114.477 69.7598V77.6387C114.477 79.2663 113.867 80.13 112.494 80.6894L115.773 83.6382H111.91L109.266 81.2739L106.597 81.4266H103.064C102.454 81.4266 101.819 81.3508 101.106 81.1475C98.998 80.5874 97.9811 79.4691 97.9811 77.6387ZM101.565 77.4365C101.565 77.5635 101.591 77.6643 101.616 77.7925C101.82 78.7069 102.683 79.2156 103.979 79.2156H107.005L104.235 76.7243H108.098L110.512 78.8852C110.945 78.6562 111.25 78.3001 111.351 77.8427C111.377 77.7156 111.377 77.6148 111.377 77.5122V69.9381C111.377 69.8612 111.377 69.7604 111.351 69.6578C111.148 68.7942 110.284 68.3117 109.013 68.3117H103.98C102.506 68.3117 101.566 68.9469 101.566 69.9381L101.565 77.4365ZM132.779 81.3765H133.262V79.546H133.923V79.1644H132.118V79.546H132.779V81.3765ZM136.49 81.3765H136.922V79.1644H136.261L135.677 80.69L135.093 79.1644H134.407V81.3765H134.864V79.6987L135.499 81.3765H135.83L136.465 79.6987H136.491V81.3765H136.49Z" fill="#CE8B2C"/>
</g>
</svg>
