<svg width="92" height="92" viewBox="0 0 92 92" fill="none" xmlns="http://www.w3.org/2000/svg">
<mask id="mask0_9015_58797" style="mask-type:alpha" maskUnits="userSpaceOnUse" x="0" y="0" width="92" height="92">
<rect width="92" height="92" fill="black"/>
</mask>
<g mask="url(#mask0_9015_58797)">
<path d="M17.2223 76H74.778C79.851 69.6357 82.8949 61.6572 82.8949 52.8947C82.8949 32.5565 66.3845 16 46.0002 16C25.6158 16 9.10547 32.5565 9.10547 52.8947C9.10547 61.6572 12.1493 69.6357 17.2223 76ZM41.3883 25.2237C41.3883 22.6872 43.4637 20.6118 46.0002 20.6118C48.5367 20.6118 50.612 22.6872 50.612 25.2237C50.612 27.8063 48.5367 29.8355 46.0002 29.8355C43.4637 29.8355 41.3883 27.8063 41.3883 25.2237ZM18.3291 34.4473C18.3291 31.9108 20.4045 29.8355 22.941 29.8355C25.4775 29.8355 27.5528 31.9108 27.5528 34.4473C27.5528 37.03 25.4775 39.0592 22.941 39.0592C20.4045 39.0592 18.3291 37.03 18.3291 34.4473ZM39.1746 50.1276C43.0486 46.2998 69.1977 33.9862 69.1977 33.9862C69.1977 33.9862 56.9302 60.1814 53.1024 64.0092C49.2285 67.8832 43.0486 67.8832 39.1746 64.0092C35.3468 60.1814 35.3468 53.9554 39.1746 50.1276ZM13.7173 57.5065C13.7173 54.97 15.7926 52.8947 18.3291 52.8947C20.8657 52.8947 22.941 54.97 22.941 57.5065C22.941 60.0892 20.8657 62.1184 18.3291 62.1184C15.7926 62.1184 13.7173 60.0892 13.7173 57.5065ZM41.3883 57.5065C41.3883 54.97 43.4637 52.8947 46.0002 52.8947C48.5367 52.8947 50.612 54.97 50.612 57.5065C50.612 60.0892 48.5367 62.1184 46.0002 62.1184C43.4637 62.1184 41.3883 60.0892 41.3883 57.5065ZM69.0593 57.5065C69.0593 54.97 71.1347 52.8947 73.6712 52.8947C76.2077 52.8947 78.283 54.97 78.283 57.5065C78.283 60.0892 76.2077 62.1184 73.6712 62.1184C71.1347 62.1184 69.0593 60.0892 69.0593 57.5065Z" fill="black"/>
</g>
</svg>
