<svg width="100" height="100" viewBox="0 0 100 100" fill="none" xmlns="http://www.w3.org/2000/svg">
<path d="M0 40C0 21.1438 0 11.7157 5.85786 5.85786C11.7157 0 21.1438 0 40 0H60C78.8562 0 88.2843 0 94.1421 5.85786C100 11.7157 100 21.1438 100 40V60C100 78.8562 100 88.2843 94.1421 94.1421C88.2843 100 78.8562 100 60 100H40C21.1438 100 11.7157 100 5.85786 94.1421C0 88.2843 0 78.8562 0 60V40Z" fill="white" fill-opacity="0.5"/>
<line x1="22.0508" y1="72.4565" x2="22.0508" y2="70.422" stroke="black" stroke-width="3" stroke-linecap="round"/>
<line x1="76.5898" y1="72.4565" x2="76.5898" y2="70.422" stroke="black" stroke-width="3" stroke-linecap="round"/>
<line x1="18.5" y1="68.832" x2="81.5" y2="68.832" stroke="black" stroke-width="3" stroke-linecap="round"/>
<rect x="28.7773" y="49.0796" width="17.1383" height="17.1383" rx="2.5" stroke="black" stroke-width="3"/>
<line x1="37.2109" y1="52.1606" x2="37.2109" y2="50.1261" stroke="black" stroke-width="3" stroke-linecap="round"/>
<rect x="28.7773" y="27.5435" width="17.1383" height="17.1383" rx="2.5" stroke="black" stroke-width="3"/>
<line x1="37.2109" y1="29.5781" x2="37.2109" y2="27.5436" stroke="black" stroke-width="3" stroke-linecap="round"/>
<rect x="51.207" y="49.0796" width="17.1383" height="17.1383" rx="2.5" stroke="black" stroke-width="3"/>
<line x1="59.7188" y1="52.1606" x2="59.7188" y2="50.1261" stroke="black" stroke-width="3" stroke-linecap="round"/>
<path d="M65.9286 30.0886L57.3441 38.6731L53.6252 34.9542C53.3191 34.6598 52.9097 34.4972 52.485 34.5014C52.0603 34.5056 51.6542 34.6761 51.3539 34.9764C51.0536 35.2767 50.8831 35.6828 50.879 36.1075C50.8748 36.5322 51.0374 36.9415 51.3318 37.2476L56.1974 42.1133C56.3479 42.2639 56.5267 42.3834 56.7234 42.4649C56.9202 42.5465 57.1311 42.5884 57.3441 42.5884C57.5571 42.5884 57.768 42.5465 57.9647 42.4649C58.1615 42.3834 58.3402 42.2639 58.4908 42.1133L68.2221 32.382C68.5164 32.0759 68.679 31.6665 68.6748 31.2419C68.6706 30.8172 68.5001 30.4111 68.1998 30.1108C67.8995 29.8105 67.4934 29.64 67.0688 29.6358C66.6441 29.6317 66.2347 29.7942 65.9286 30.0886Z" fill="black"/>
</svg>
