<svg width="100" height="100" viewBox="0 0 100 100" fill="none" xmlns="http://www.w3.org/2000/svg">
<path d="M0 40C0 21.1438 0 11.7157 5.85786 5.85786C11.7157 0 21.1438 0 40 0H60C78.8562 0 88.2843 0 94.1421 5.85786C100 11.7157 100 21.1438 100 40V60C100 78.8562 100 88.2843 94.1421 94.1421C88.2843 100 78.8562 100 60 100H40C21.1438 100 11.7157 100 5.85786 94.1421C0 88.2843 0 78.8562 0 60V40Z" fill="white" fill-opacity="0.5"/>
<path d="M43.33 60.7299V78.9399C43.33 81.1799 41.51 82.9999 39.27 82.9999H22.14C19.3 82.9999 17 80.6999 17 77.8599V60.7299C17 58.4899 18.82 56.6699 21.06 56.6699H39.27C41.51 56.6699 43.33 58.4899 43.33 60.7299Z" stroke="black" stroke-width="3" stroke-miterlimit="10" stroke-linecap="round"/>
<path d="M43.33 60.7299V78.9399C43.33 81.1799 41.51 82.9999 39.27 82.9999H22.14C19.3 82.9999 17 80.6999 17 77.8599V60.7299C17 58.4899 18.82 56.6699 21.06 56.6699H39.27C41.51 56.6699 43.33 58.4899 43.33 60.7299Z" stroke="black" stroke-width="3" stroke-miterlimit="10" stroke-linecap="round"/>
<path d="M43.33 60.7299V78.9399C43.33 81.1799 41.51 82.9999 39.27 82.9999H22.14C19.3 82.9999 17 80.6999 17 77.8599V60.7299C17 58.4899 18.82 56.6699 21.06 56.6699H39.27C41.51 56.6699 43.33 58.4899 43.33 60.7299Z" stroke="black" stroke-width="3" stroke-miterlimit="10" stroke-linecap="round"/>
<path d="M17 49.57V22.14C17 19.3 19.3 17 22.14 17H77.86C80.7 17 83 19.3 83 22.14V77.86C83 80.7 80.7 83 77.86 83H50.43" stroke="black" stroke-width="3" stroke-miterlimit="10" stroke-linecap="round"/>
<path d="M48.4116 48.929C47.8196 49.5086 47.8096 50.4583 48.3891 51.0502C48.9687 51.6422 49.9184 51.6522 50.5103 51.0727L48.4116 48.929ZM67.6809 33.6467C67.6896 32.8183 67.0252 32.1397 66.1968 32.1309L52.6976 31.9882C51.8692 31.9794 51.1905 32.6438 51.1818 33.4722C51.173 34.3006 51.8375 34.9792 52.6658 34.988L64.6652 35.1149L64.5382 47.1142C64.5295 47.9426 65.1939 48.6213 66.0223 48.63C66.8507 48.6388 67.5293 47.9743 67.5381 47.146L67.6809 33.6467ZM50.5103 51.0727L67.2303 34.7027L65.1316 32.559L48.4116 48.929L50.5103 51.0727Z" fill="black"/>
</svg>
