<svg width="100" height="100" viewBox="0 0 100 100" fill="none" xmlns="http://www.w3.org/2000/svg">
<path d="M0 40C0 21.1438 0 11.7157 5.85786 5.85786C11.7157 0 21.1438 0 40 0H60C78.8562 0 88.2843 0 94.1421 5.85786C100 11.7157 100 21.1438 100 40V60C100 78.8562 100 88.2843 94.1421 94.1421C88.2843 100 78.8562 100 60 100H40C21.1438 100 11.7157 100 5.85786 94.1421C0 88.2843 0 78.8562 0 60V40Z" fill="white" fill-opacity="0.5"/>
<path d="M75.9138 47.0388L75.915 47.0377C79.0018 43.9915 80.6875 39.9103 80.6875 35.5625C80.6875 26.6049 73.3951 19.3125 64.4375 19.3125H35.5625C31.2148 19.3125 27.1328 20.9982 24.0655 24.0655C20.9982 27.1328 19.3125 31.2148 19.3125 35.5625C19.3125 44.5201 26.6049 51.8125 35.5625 51.8125H46.2256C47.2219 51.8125 48.0381 50.9963 48.0381 50C48.0381 49.0037 47.2219 48.1875 46.2256 48.1875H35.5625C28.5976 48.1875 22.9375 42.5274 22.9375 35.5625C22.9375 32.1967 24.2423 29.0181 26.6415 26.6399C29.0385 24.2639 32.1951 22.9375 35.5625 22.9375H64.4375C71.4024 22.9375 77.0625 28.5976 77.0625 35.5625C77.0625 38.928 75.758 42.1063 73.3591 44.4844M75.9138 47.0388L73.1825 44.3075M75.9138 47.0388C74.6733 48.2794 73.2929 49.2939 71.7728 50.0438M75.9138 47.0388L71.7728 50.0438M73.3591 44.4844C73.3589 44.4846 73.3587 44.4848 73.3585 44.4851L73.1825 44.3075M73.3591 44.4844C73.3592 44.4844 73.3592 44.4843 73.3593 44.4843L73.1825 44.3075M73.3591 44.4844C72.3929 45.4506 71.3195 46.23 70.1595 46.7998M73.1825 44.3075C72.2337 45.2563 71.1819 46.0194 70.0475 46.5763M70.1595 46.7998C70.16 46.7995 70.1606 46.7992 70.1611 46.7989L70.0475 46.5763M70.1595 46.7998C69.271 47.2542 68.9095 48.3432 69.3439 49.23C69.7764 50.1131 70.8827 50.4795 71.7728 50.0438M70.1595 46.7998C70.1589 46.8001 70.1583 46.8004 70.1577 46.8007L70.0475 46.5763M70.0475 46.5763L71.7728 50.0438M34.767 34.2955L34.7677 34.2962L37.4489 36.9568L37.6257 37.1322L37.8018 36.9562L44.5874 30.1705L44.5874 30.1705L44.5896 30.1683C45.2963 29.4435 46.4562 29.4435 47.1626 30.1499C47.8693 30.8566 47.8693 31.9977 47.1626 32.7045L38.9126 40.9545C38.5464 41.3206 38.0942 41.5 37.625 41.5C37.1559 41.5 36.7023 41.3206 36.3351 40.9728L32.2124 36.8501C31.5057 36.1434 31.5057 35.0023 32.2124 34.2955C32.9191 33.5888 34.0602 33.5888 34.767 34.2955ZM80.5653 64.5543L80.5653 64.5543L78.9567 79.0727C78.9567 79.0729 78.9567 79.0731 78.9566 79.0733C78.8471 80.0018 78.0852 80.6875 77.1631 80.6875H54.4756C54.1492 80.6875 53.8224 80.5964 53.5524 80.4344L53.5517 80.434L43.2392 74.2877L43.2393 74.2877L43.2356 74.2856C41.7534 73.4358 40.704 71.9523 40.3871 70.2292C40.0705 68.5076 40.5253 66.7468 41.654 65.3805L41.6544 65.3799C43.4687 63.1712 46.7767 62.6272 49.4016 64.1183C49.4018 64.1184 49.402 64.1185 49.4021 64.1186L52.3092 65.7887L52.6838 66.0038V65.5719V43.8125C52.6838 42.613 53.0819 41.123 54.0218 39.9383C54.9545 38.7625 56.4296 37.875 58.6213 37.875C60.8129 37.875 62.288 38.7625 63.2207 39.9383C64.1606 41.123 64.5588 42.613 64.5588 43.8125V56.435V56.6555L64.7776 56.683L75.4407 58.0237L75.4409 58.0237C78.6046 58.4192 80.9215 61.3483 80.5653 64.5543ZM76.9784 64.156L76.9785 64.1557C77.117 62.909 76.2187 61.7514 74.9651 61.6111C74.9645 61.611 74.9638 61.611 74.9632 61.6109L62.5093 60.0438L62.5079 60.0437C61.6023 59.935 60.9131 59.1547 60.9131 58.25L60.9132 43.8331L60.9131 43.8277C60.9022 43.3277 60.7939 42.7459 60.4417 42.2842C60.0797 41.8096 59.4895 41.5 58.6006 41.5C57.7024 41.5 57.1113 41.809 56.7512 42.285C56.4014 42.7475 56.299 43.3298 56.2882 43.8277L56.2881 43.8277V43.8331V69.14C56.2881 69.7936 55.9435 70.3918 55.3813 70.7182C54.8196 71.0444 54.1317 71.0444 53.5699 70.7182L53.5694 70.7179L47.5675 67.2529L47.567 67.2526C46.5155 66.6485 45.1557 66.7839 44.4433 67.6625L44.4415 67.6648C44.0088 68.2113 43.8213 68.8804 43.9374 69.5537C44.0536 70.2277 44.4708 70.8042 45.0451 71.1488L45.0457 71.1491L54.9045 77.0272L54.9636 77.0625H55.0325H75.3069H75.5304L75.5553 76.8404L76.9784 64.156Z" fill="black" stroke="#EAF8F0" stroke-width="0.5"/>
</svg>
