<svg width="100" height="100" viewBox="0 0 100 100" fill="none" xmlns="http://www.w3.org/2000/svg">
<path d="M0 40C0 21.1438 0 11.7157 5.85786 5.85786C11.7157 0 21.1438 0 40 0H60C78.8562 0 88.2843 0 94.1421 5.85786C100 11.7157 100 21.1438 100 40V60C100 78.8562 100 88.2843 94.1421 94.1421C88.2843 100 78.8562 100 60 100H40C21.1438 100 11.7157 100 5.85786 94.1421C0 88.2843 0 78.8562 0 60V40Z" fill="white" fill-opacity="0.5"/>
<path d="M40.2951 81.3636C40.2951 82.2364 41.0587 83 41.9314 83H57.9678C58.8405 83 59.6042 82.2364 59.6042 81.3636V75.3636C62.3314 74.2727 64.8405 72.8545 67.1314 71L72.3678 73.9455C73.1314 74.3818 74.1133 74.1636 74.5496 73.4L82.6223 59.5455C82.8405 59.2182 82.9496 58.6727 82.8405 58.3455C82.7314 57.9091 82.4042 57.5818 82.0769 57.3636L76.8405 54.4182C77.0587 53 77.1678 51.4727 77.1678 50.0545C77.1678 48.6364 77.0587 47.1091 76.8405 45.6909L81.9678 42.7455C82.2951 42.5273 82.6223 42.2 82.7314 41.7636C82.8405 41.3273 82.7314 40.8909 82.5133 40.5636L74.4405 26.7091C74.0042 25.9455 73.0223 25.6182 72.2587 26.1636L67.2405 29C64.9496 27.1455 62.4405 25.7273 59.7133 24.6364V18.6364C59.7133 17.7636 58.9496 17 58.0769 17H41.9314C41.0587 17 40.2951 17.7636 40.2951 18.6364V24.6364C37.5678 25.7273 35.0587 27.1455 32.7678 29L27.6405 25.9455C26.8769 25.5091 25.8951 25.7273 25.4587 26.4909L17.386 40.4545C17.1678 40.7818 17.0587 41.3273 17.1678 41.6545C17.2769 42.0909 17.6042 42.4182 17.9314 42.6364L23.0587 45.5818C22.8405 47 22.7314 48.5273 22.7314 49.9455C22.7314 51.3636 22.8405 52.8909 23.0587 54.3091L17.9314 57.3636C17.6042 57.5818 17.2769 57.9091 17.1678 58.3455C17.0587 58.7818 17.1678 59.2182 17.386 59.5455L25.4587 73.4C25.8951 74.1636 26.8769 74.4909 27.6405 73.9455L32.8769 71C35.1678 72.8545 37.6769 74.2727 40.4042 75.3636V81.3636H40.2951ZM34.0769 67.8364C33.5314 67.4 32.7678 67.2909 32.2223 67.6182L27.4223 70.3455L20.986 59.3273L25.786 56.6C26.4405 56.2727 26.7678 55.5091 26.5496 54.8545C26.2223 53.2182 26.0042 51.5818 26.0042 50.0545C26.0042 48.4182 26.2223 46.7818 26.5496 45.1455C26.6587 44.4909 26.3314 43.7273 25.786 43.4L20.986 40.6727L27.4223 29.6545L32.2223 32.3818C32.8769 32.7091 33.6405 32.6 34.0769 32.1636C36.586 29.9818 39.4223 28.3455 42.4769 27.2545C43.1314 27.0364 43.5678 26.3818 43.5678 25.7273V20.2727H56.3314V25.7273C56.3314 26.3818 56.7678 27.0364 57.4223 27.2545C60.586 28.2364 63.4223 29.8727 65.8223 32.1636C66.3678 32.6 67.1314 32.7091 67.6769 32.3818L72.4769 29.6545L78.9132 40.6727L74.1133 43.4C73.4587 43.7273 73.1314 44.4909 73.3496 45.1455C73.6769 46.7818 73.8951 48.4182 73.8951 50.0545C73.8951 51.6909 73.6769 53.3273 73.3496 54.8545C73.2405 55.5091 73.5678 56.2727 74.1133 56.6L78.9132 59.3273L72.4769 70.3455L67.6769 67.6182C67.0223 67.2909 66.2587 67.2909 65.8223 67.8364C63.3133 70.0182 60.4769 71.6545 57.4223 72.7455C56.7678 72.9636 56.3314 73.6182 56.3314 74.2727V79.7273H43.5678V74.2727C43.5678 73.6182 43.1314 72.9636 42.4769 72.7455C39.3133 71.6545 36.4769 70.0182 34.0769 67.8364Z" fill="black"/>
<path d="M35.7093 44.8176H39.8548C40.7275 44.8176 41.4911 44.054 41.4911 43.1813C41.4911 42.3086 40.7275 41.5449 39.8548 41.5449H35.7093C32.982 41.5449 30.6911 43.8358 30.6911 46.5631C30.6911 49.2904 32.982 51.5813 35.7093 51.5813H36.3638C37.3457 51.5813 38.1093 52.3449 38.1093 53.3267C38.1093 54.3086 37.3457 55.0722 36.3638 55.0722H32.2184C31.3457 55.0722 30.582 55.8358 30.582 56.7086C30.582 57.5813 31.3457 58.3449 32.2184 58.3449H36.3638C39.0911 58.3449 41.382 56.054 41.382 53.3267C41.382 50.5995 39.0911 48.3086 36.3638 48.3086H35.6002C34.6184 48.3086 33.8548 47.5449 33.8548 46.5631C33.9638 45.6904 34.7275 44.8176 35.7093 44.8176Z" fill="black"/>
<path d="M46.2962 58.4548H53.8235C54.6962 58.4548 55.4599 57.6912 55.4599 56.8184C55.4599 55.9457 54.6962 55.1821 53.7144 55.1821H47.8235V51.6911H53.7144C54.5871 51.6911 55.3508 50.9275 55.3508 50.0548C55.3508 49.1821 54.5871 48.4184 53.7144 48.4184H47.8235V44.9275H53.7144C54.5871 44.9275 55.3508 44.1639 55.3508 43.2911C55.3508 42.4184 54.5871 41.6548 53.7144 41.6548H46.1871C45.3144 41.6548 44.5508 42.4184 44.5508 43.2911V56.8184C44.6599 57.6912 45.3144 58.4548 46.2962 58.4548Z" fill="black"/>
<path d="M63.9622 58.4551C66.9076 58.4551 69.3076 56.0551 69.3076 53.1096V47.1096C69.3076 44.1642 66.9076 41.7642 63.9622 41.7642C61.0167 41.7642 58.6167 44.1642 58.6167 47.1096V53.0005C58.5076 55.946 61.0167 58.4551 63.9622 58.4551ZM61.7803 47.0005C61.7803 45.8005 62.7622 44.9278 63.8531 44.9278C65.0531 44.9278 65.9258 45.9096 65.9258 47.0005V53.0005C65.9258 54.2005 64.944 55.0733 63.8531 55.0733C62.6531 55.0733 61.7803 54.0914 61.7803 53.0005V47.0005Z" fill="black"/>
</svg>
