<svg width="100" height="100" viewBox="0 0 100 100" fill="none" xmlns="http://www.w3.org/2000/svg">
<path d="M0 40C0 21.1438 0 11.7157 5.85786 5.85786C11.7157 0 21.1438 0 40 0H60C78.8562 0 88.2843 0 94.1421 5.85786C100 11.7157 100 21.1438 100 40V60C100 78.8562 100 88.2843 94.1421 94.1421C88.2843 100 78.8562 100 60 100H40C21.1438 100 11.7157 100 5.85786 94.1421C0 88.2843 0 78.8562 0 60V40Z" fill="white" fill-opacity="0.5"/>
<path d="M35.9297 66.9132V61.2207" stroke="black" stroke-width="3" stroke-linecap="round"/>
<path d="M50 66.9123V55.5273" stroke="black" stroke-width="3" stroke-linecap="round"/>
<path d="M64.0703 66.9116V49.8066" stroke="black" stroke-width="3" stroke-linecap="round"/>
<path d="M64.0897 33.0859L62.8247 34.5709C55.8122 42.7659 46.4072 48.5684 35.9297 51.1809" stroke="black" stroke-width="3" stroke-linecap="round"/>
<path d="M56.0156 33.0859H64.0731V41.1159" stroke="black" stroke-width="3" stroke-linecap="round" stroke-linejoin="round"/>
<path d="M41.75 77.5H58.25C72 77.5 77.5 72 77.5 58.25V41.75C77.5 28 72 22.5 58.25 22.5H41.75C28 22.5 22.5 28 22.5 41.75V58.25C22.5 72 28 77.5 41.75 77.5Z" stroke="black" stroke-width="3" stroke-linecap="round" stroke-linejoin="round"/>
</svg>
