<svg width="100" height="100" viewBox="0 0 100 100" fill="none" xmlns="http://www.w3.org/2000/svg">
<path d="M0 40C0 21.1438 0 11.7157 5.85786 5.85786C11.7157 0 21.1438 0 40 0H60C78.8562 0 88.2843 0 94.1421 5.85786C100 11.7157 100 21.1438 100 40V60C100 78.8562 100 88.2843 94.1421 94.1421C88.2843 100 78.8562 100 60 100H40C21.1438 100 11.7157 100 5.85786 94.1421C0 88.2843 0 78.8562 0 60V40Z" fill="white" fill-opacity="0.5"/>
<path d="M35.5625 19.3625H64.4375C68.734 19.3625 72.8545 21.0693 75.8926 24.1074C78.9307 27.1455 80.6375 31.266 80.6375 35.5625V64.4375C80.6375 64.9049 80.4518 65.3532 80.1213 65.6838C79.7907 66.0143 79.3424 66.2 78.875 66.2C78.4076 66.2 77.9593 66.0143 77.6287 65.6838C77.2982 65.3532 77.1125 64.9049 77.1125 64.4375V35.5625C77.1125 32.2009 75.7771 28.9769 73.4001 26.5999C71.0231 24.2229 67.7991 22.8875 64.4375 22.8875H35.5625C32.2009 22.8875 28.9769 24.2229 26.5999 26.5999C24.2229 28.9769 22.8875 32.2009 22.8875 35.5625V64.4375C22.8875 67.7991 24.2229 71.0231 26.5999 73.4001C28.9769 75.7771 32.2009 77.1125 35.5625 77.1125H64.4375C64.9049 77.1125 65.3532 77.2982 65.6838 77.6287C66.0143 77.9593 66.2 78.4076 66.2 78.875C66.2 79.3424 66.0143 79.7907 65.6838 80.1213C65.3532 80.4518 64.9049 80.6375 64.4375 80.6375H35.5625C31.266 80.6375 27.1455 78.9307 24.1074 75.8926C21.0693 72.8545 19.3625 68.734 19.3625 64.4375V35.5625C19.3625 31.266 21.0693 27.1455 24.1074 24.1074C27.1455 21.0693 31.266 19.3625 35.5625 19.3625Z" fill="black" stroke="#EAF8F0" stroke-width="0.6"/>
<path d="M62.1079 59.2338L61.9396 59.4435L62.1297 59.6336L80.123 77.6289L80.123 77.629L80.1267 77.6326C80.2951 77.7952 80.4293 77.9897 80.5217 78.2047C80.6141 78.4197 80.6627 78.651 80.6647 78.885C80.6668 79.119 80.6222 79.3511 80.5335 79.5677C80.4449 79.7843 80.3141 79.9811 80.1486 80.1466C79.9831 80.3121 79.7863 80.443 79.5697 80.5316C79.3531 80.6202 79.121 80.6648 78.887 80.6628C78.653 80.6607 78.4217 80.6121 78.2066 80.5197C77.9916 80.4274 77.7971 80.2931 77.6345 80.1248L77.6346 80.1247L77.6309 80.121L59.6356 62.1278L59.4454 61.9377L59.2357 62.1059C55.5224 65.0847 50.8089 66.5275 46.0644 66.1375C41.3199 65.7476 36.9052 63.5547 33.728 60.0097C30.5508 56.4646 28.8526 51.837 28.9827 47.0783C29.1128 42.3196 31.0613 37.7916 34.4274 34.4255C37.7936 31.0593 42.3216 29.1109 47.0802 28.9808C51.8389 28.8507 56.4666 30.5488 60.0116 33.726C63.5566 36.9032 65.7496 41.318 66.1395 46.0624C66.5294 50.8069 65.0866 55.5204 62.1079 59.2338ZM47.595 62.675H47.5951C51.5946 62.6733 55.4297 61.0838 58.2577 58.2558C61.0858 55.4278 62.6753 51.5926 62.6769 47.5932V47.5931C62.6769 44.6101 61.7924 41.6942 60.1352 39.214C58.478 36.7338 56.1225 34.8007 53.3666 33.6592C50.6108 32.5176 47.5783 32.219 44.6527 32.8009C41.7271 33.3829 39.0397 34.8193 36.9305 36.9285C34.8212 39.0378 33.3848 41.7251 32.8029 44.6507C32.2209 47.5763 32.5196 50.6088 33.6611 53.3647C34.8026 56.1205 36.7357 58.476 39.2159 60.1332C41.6961 61.7905 44.6121 62.675 47.595 62.675Z" fill="black" stroke="#EAF8F0" stroke-width="0.6"/>
</svg>
