<svg width="100" height="100" viewBox="0 0 100 100" fill="none" xmlns="http://www.w3.org/2000/svg">
<path d="M0 40C0 21.1438 0 11.7157 5.85786 5.85786C11.7157 0 21.1438 0 40 0H60C78.8562 0 88.2843 0 94.1421 5.85786C100 11.7157 100 21.1438 100 40V60C100 78.8562 100 88.2843 94.1421 94.1421C88.2843 100 78.8562 100 60 100H40C21.1438 100 11.7157 100 5.85786 94.1421C0 88.2843 0 78.8562 0 60V40Z" fill="white" fill-opacity="0.5"/>
<path d="M41.9743 82.6074C41.9514 82.609 41.9283 82.6098 41.9052 82.6098C41.7657 82.6098 41.6226 82.5833 41.4868 82.5254C41.4868 82.5254 41.4867 82.5254 41.4867 82.5253L17.4037 72.331L17.4037 72.331C17.007 72.163 16.75 71.7737 16.75 71.3436V44.8116C16.75 44.4524 16.9304 44.1166 17.2305 43.9183L17.2328 43.9168L17.2328 43.9169C17.2394 43.9126 17.2459 43.9085 17.2525 43.9044V43.8901L17.4051 43.8255L41.372 33.681C48.2967 28.5296 54.2022 26.1675 60.083 26.1675C67.084 26.1675 74.1201 29.5146 82.874 36.9349C83.1115 37.1351 83.2495 37.43 83.2499 37.7402M41.9743 82.6074L66.8091 48.2349C71.7825 46.7067 76.9736 43.4724 82.7233 38.3662L82.889 38.5534C82.8891 38.5533 82.8892 38.5532 82.8893 38.5531C83.1213 38.3477 83.2531 38.0503 83.2499 37.7402M41.9743 82.6074V82.6713L42.3217 82.5243L66.4054 72.3297L66.3079 72.0994L66.4054 72.3297C66.8021 72.1617 67.0591 71.7723 67.0591 71.3422V48.4189L41.9743 82.6074ZM83.2499 37.7402C83.2499 37.7407 83.2499 37.7413 83.2499 37.7418H82.9999L83.2499 37.7389C83.2499 37.7393 83.2499 37.7398 83.2499 37.7402ZM36.9224 37.891C36.956 38.1452 37.0802 38.3803 37.2734 38.5527L37.2739 38.5531C43.3362 43.9368 48.7998 47.2626 54.0602 48.6995L41.908 53.8433L20.5717 44.8116L36.9224 37.891ZM64.9214 48.9902V70.6337L42.9796 79.9216V55.7168L57.8716 49.413C58.6111 49.4877 59.3475 49.5269 60.0843 49.5269C61.6866 49.5269 63.2952 49.3478 64.9214 48.9902ZM43.6797 21.444L43.6794 21.4444C43.262 21.8635 43.2615 22.5418 43.6797 22.9601L48.0082 27.2885C48.2168 27.4971 48.4905 27.6027 48.7655 27.6027C49.039 27.6027 49.3141 27.4973 49.5229 27.2885L49.5233 27.2881C49.9406 26.869 49.9412 26.1907 49.5229 25.7724L45.1945 21.444C44.7764 21.0259 44.0978 21.0259 43.6797 21.444ZM70.6417 25.7724L70.6413 25.7728C70.224 26.1919 70.2234 26.8703 70.6417 27.2885C70.8504 27.4973 71.1256 27.6027 71.399 27.6027C71.6725 27.6027 71.9477 27.4973 72.1564 27.2885L76.4848 22.9601L76.4852 22.9597C76.9026 22.5406 76.9031 21.8622 76.4848 21.444C76.0668 21.0259 75.3882 21.0259 74.9701 21.444L70.6417 25.7724ZM60.083 47.3002C54.8711 47.3002 50.63 43.0591 50.63 37.8472C50.63 32.6354 54.8711 28.3942 60.083 28.3942C65.2948 28.3942 69.536 32.6354 69.536 37.8472C69.536 43.0591 65.2948 47.3002 60.083 47.3002ZM48.4868 37.8486C48.4868 40.7756 49.5788 43.4519 51.3746 45.4946C47.6997 43.9355 43.8357 41.3897 39.6331 37.7706C43.9413 34.2171 47.7755 31.7379 51.367 30.2117C49.5762 32.2527 48.4868 34.9259 48.4868 37.8486ZM40.835 55.7168V79.9216L18.8946 70.6343V46.4295L40.835 55.7168ZM80.5328 37.7706C76.3294 41.3893 72.4657 43.935 68.7921 45.4941C70.5875 43.4521 71.6792 40.7751 71.6792 37.8486C71.6792 34.925 70.5911 32.253 68.7998 30.2122C72.3903 31.7385 76.2251 34.2175 80.5328 37.7706ZM60.083 31.9227C56.816 31.9227 54.1585 34.5802 54.1585 37.8472C54.1585 41.1142 56.816 43.7717 60.083 43.7717C63.3499 43.7717 66.0074 41.1142 66.0074 37.8472C66.0074 34.5802 63.3499 31.9227 60.083 31.9227ZM60.083 41.6299C57.9986 41.6299 56.3017 39.9329 56.3017 37.8486C56.3017 35.7642 57.9986 34.0673 60.083 34.0673C62.1673 34.0673 63.8643 35.7642 63.8643 37.8486C63.8643 39.9329 62.1673 41.6299 60.083 41.6299ZM59.0114 18.4617V21.844C59.0114 22.4353 59.4917 22.9155 60.083 22.9155C60.6743 22.9155 61.1546 22.4353 61.1546 21.844V18.4617C61.1546 17.8704 60.6743 17.3901 60.083 17.3901C59.4917 17.3901 59.0114 17.8704 59.0114 18.4617Z" fill="black" stroke="black" stroke-width="0.5"/>
</svg>
