<svg width="100" height="100" viewBox="0 0 100 100" fill="none" xmlns="http://www.w3.org/2000/svg">
<path d="M0 40C0 21.1438 0 11.7157 5.85786 5.85786C11.7157 0 21.1438 0 40 0H60C78.8562 0 88.2843 0 94.1421 5.85786C100 11.7157 100 21.1438 100 40V60C100 78.8562 100 88.2843 94.1421 94.1421C88.2843 100 78.8562 100 60 100H40C21.1438 100 11.7157 100 5.85786 94.1421C0 88.2843 0 78.8562 0 60V40Z" fill="white" fill-opacity="0.5"/>
<path d="M52.5083 70.1437L52.508 70.1439L52.5116 70.151C52.6671 70.4621 52.8284 70.7079 53.0374 70.8751C53.2499 71.0451 53.5033 71.1272 53.829 71.1272C54.1732 71.1272 54.4269 70.9533 54.6605 70.7587C54.7122 70.7155 54.7629 70.6716 54.8136 70.6276C54.9967 70.4687 55.1789 70.3106 55.4087 70.1957L55.4422 70.1789L55.4565 70.1442L71.4187 31.1617C71.75 30.4946 71.4134 29.8369 71.0913 29.5148C70.7691 29.1927 70.1115 28.8561 69.4444 29.1873L30.1529 45.1486L30.1528 45.1483L30.1458 45.1518C29.8347 45.3073 29.5889 45.4687 29.4217 45.6776C29.2517 45.8901 29.1695 46.1435 29.1695 46.4692C29.1695 46.7948 29.2517 47.0482 29.4217 47.2607C29.5889 47.4696 29.8347 47.631 30.1458 47.7865L30.1456 47.7868L30.1531 47.7898L46.0773 54.2204L52.5083 70.1437ZM48.7026 52.2638L48.695 52.2452L48.6808 52.231L48.6777 52.2278C48.5264 52.0766 48.3688 51.919 48.2096 51.7996C48.0562 51.6846 47.8881 51.5946 47.7097 51.5881L34.4497 46.1639L67.4618 33.1415L54.1362 65.5451L48.7026 52.2638Z" fill="black" stroke="black" stroke-width="0.2"/>
<path d="M19.7551 51.4813H19.8551V51.3813V49.8464C19.8551 41.8911 22.9148 34.2423 28.7286 28.4288C33.5583 23.5994 39.5764 20.5583 46.1959 19.8889L42.0949 23.9897L42.0242 24.0604L42.0949 24.1312L44.2439 26.28L44.3146 26.3507L44.3853 26.28L53.5951 17.0707L53.7658 16.9H53.5243H49.8404C40.9095 16.9 32.5957 20.5954 26.4383 26.7525C20.2791 32.9113 16.8922 41.2254 16.8922 50.1534V51.3813V51.4813H16.9922H19.7551Z" fill="black" stroke="black" stroke-width="0.2"/>
<path d="M46.6988 82.9287L46.5281 83.0994H46.7695H50.1465C68.3131 83.0994 83.4023 68.3208 83.0947 49.8451V48.6182V48.5182H82.9947H80.2318H80.1318V48.6182V49.8461C80.1318 65.3492 68.6546 77.8326 53.8009 79.7936L57.892 75.7027L57.9627 75.632L57.892 75.5613L56.05 73.7195L55.9793 73.6488L55.9086 73.7195L46.6988 82.9287Z" fill="black" stroke="black" stroke-width="0.2"/>
</svg>
