<svg width="100" height="100" viewBox="0 0 100 100" fill="none" xmlns="http://www.w3.org/2000/svg">
<path d="M0 40C0 21.1438 0 11.7157 5.85786 5.85786C11.7157 0 21.1438 0 40 0H60C78.8562 0 88.2843 0 94.1421 5.85786C100 11.7157 100 21.1438 100 40V60C100 78.8562 100 88.2843 94.1421 94.1421C88.2843 100 78.8562 100 60 100H40C21.1438 100 11.7157 100 5.85786 94.1421C0 88.2843 0 78.8562 0 60V40Z" fill="white" fill-opacity="0.5"/>
<path d="M30.9819 80.2858C30.8378 80.3268 30.6925 80.3465 30.5501 80.3465C29.8663 80.3465 29.2372 79.8962 29.0403 79.2062L27.4544 73.6482L27.3582 73.6756L27.4544 73.6482C27.3219 73.1838 27.4104 72.6843 27.6944 72.2937L27.6135 72.2349L27.6944 72.2937C27.9783 71.9029 28.4262 71.6645 28.9089 71.6473L28.9053 71.5473L28.9089 71.6473L34.6849 71.4397L34.6853 71.4396C35.5548 71.4049 36.2801 72.0856 36.3112 72.9532C36.3422 73.8203 35.6647 74.5482 34.7976 74.5795L33.6125 74.6221L33.3011 74.6333L33.5609 74.8054C38.409 78.017 44.1365 79.7582 50 79.7582C66.4088 79.7582 79.7582 66.4088 79.7582 50C79.7582 44.7375 78.3657 39.5661 75.7312 35.0445L75.6448 35.0949L75.7312 35.0445C75.2943 34.2948 75.548 33.333 76.2977 32.8963L76.2473 32.8099L76.2977 32.8963C77.0474 32.4594 78.0089 32.7133 78.4456 33.4628C81.3597 38.4637 82.9 44.1822 82.9 50C82.9 68.1411 68.1409 82.9 50 82.9C43.595 82.9 37.3368 81.0193 32.017 77.5487L31.7927 77.4024L31.8662 77.6599L32.0615 78.3442C32.2995 79.1785 31.8161 80.0476 30.9819 80.2858ZM30.9819 80.2858L31.0093 80.3819L30.9819 80.2858C30.9819 80.2858 30.9819 80.2858 30.9819 80.2858ZM24.2688 64.9578L24.3552 64.9074L24.2688 64.9578C24.7057 65.7073 24.4521 66.669 23.7023 67.1058C23.4534 67.2508 23.1816 67.3196 22.9131 67.3196C22.372 67.3196 21.8459 67.0401 21.5541 66.5393L21.4677 66.5896L21.5541 66.5393C18.6403 61.5384 17.1 55.819 17.1 50C17.1 31.8589 31.8591 17.1 50 17.1C56.4052 17.1 62.6636 18.9813 67.9836 22.4531L68.2079 22.5995L68.1344 22.342L67.9385 21.6554C67.7005 20.8211 68.184 19.9518 69.0183 19.7138L69.0184 19.7138C69.852 19.4754 70.7219 19.9592 70.9599 20.7934L72.5456 26.3514L72.6418 26.324L72.5456 26.3514C72.6781 26.8158 72.5896 27.3153 72.3056 27.7059L72.3865 27.7647L72.3056 27.7059C72.0217 28.0967 71.5738 28.335 71.0911 28.3523L65.3153 28.5599L65.3148 28.5599C65.2963 28.5607 65.2776 28.5609 65.2579 28.5609C64.4164 28.5609 63.7195 27.8942 63.689 27.0464C63.658 26.1794 64.3355 25.4513 65.2026 25.4201L66.3854 25.3777L66.6969 25.3665L66.437 25.1944C61.5889 21.9828 55.8622 20.2418 50 20.2418C33.5912 20.2418 20.2418 33.5912 20.2418 50C20.2418 55.2637 21.6343 60.436 24.2688 64.9578ZM46.466 56.7357L46.3423 56.7055L46.3423 56.8329L46.3421 67.6748C46.3421 68.5424 45.6387 69.2457 44.7712 69.2457H43.4119C40.4044 69.2457 37.9573 66.7986 37.9575 63.7911V56.4486V56.3486H37.8575H37.3453C32.5824 56.3486 28.707 52.4734 28.707 47.7105C28.707 42.9475 32.5824 39.0724 37.3453 39.0724H44.5987H44.6092L44.6195 39.0702C49.6551 37.9949 54.599 35.1401 58.9518 32.6267L58.9602 32.6219L58.9102 32.5353L58.9602 32.6219C59.7972 32.1383 60.5877 31.682 61.3745 31.2396C62.5386 30.5851 63.9202 30.5969 65.0731 31.2711C66.2254 31.9451 66.9132 33.1439 66.9132 34.4793V42.1433V42.2206L66.988 42.2401C69.463 42.8825 71.2932 45.1331 71.2932 47.8028C71.2932 50.4735 69.4615 52.725 66.9881 53.3663L66.9132 53.3857V53.4631V60.664C66.9132 62.0403 66.1941 63.2567 64.9881 63.9203L64.9881 63.9203C64.4193 64.2335 63.8049 64.3889 63.1929 64.3889C62.5068 64.3889 61.8225 64.1935 61.2073 63.8039C56.4967 60.82 51.7974 58.037 46.466 56.7357ZM66.913 49.83V50.0262L67.0717 49.9109C67.7234 49.4376 68.1512 48.6703 68.1512 47.8028C68.1512 46.9359 67.7239 46.169 67.0717 45.6955L66.913 45.5802V45.7764V49.83ZM41.199 56.3486H41.099V56.4486V63.7911C41.099 64.9559 41.9646 65.9221 43.0863 66.081L43.2003 66.0972L43.2003 65.982L43.2005 56.4486L43.2005 56.3486H43.1005H41.199ZM57.852 58.1072L58.001 58.191V58.02V36.9623V36.7913L57.852 36.8751C54.3062 38.8684 50.4627 40.8191 46.4174 41.8681L46.3425 41.8875L46.3425 41.9649L46.3423 53.4L46.3423 53.4806L46.421 53.4978C50.5428 54.395 54.311 56.1158 57.852 58.1072ZM62.9142 33.978L62.9632 34.0652L62.9141 33.978C62.3514 34.2945 61.7815 34.6214 61.1928 34.9606L61.1428 34.9895V35.0472V60.0011V60.0568L61.1902 60.0862C61.7612 60.4391 62.3273 60.7946 62.8883 61.1499L62.9418 61.0654L62.8884 61.1499C62.9815 61.2089 63.0768 61.2438 63.1779 61.2469C63.2789 61.25 63.3764 61.2211 63.4731 61.1679C63.5699 61.1146 63.6466 61.0478 63.698 60.9607C63.7495 60.8737 63.7712 60.7744 63.7712 60.664V34.4793C63.7712 34.3715 63.7513 34.2748 63.7023 34.1892C63.6532 34.1037 63.5799 34.0377 63.4867 33.9833C63.3934 33.9287 63.2998 33.8969 63.2011 33.896C63.1024 33.8951 63.0082 33.9251 62.9142 33.978ZM43.2007 42.3141L43.2007 42.2141H43.1007H37.3451C34.3143 42.2141 31.8486 44.6796 31.8486 47.7105C31.8486 50.7411 34.3143 53.2068 37.3451 53.2068H43.1005H43.2005L43.2005 53.1068L43.2007 42.3141Z" fill="black" stroke="#ECF8EE" stroke-width="0.2"/>
</svg>
