<svg width="100" height="100" viewBox="0 0 100 100" fill="none" xmlns="http://www.w3.org/2000/svg">
<path d="M0 40C0 21.1438 0 11.7157 5.85786 5.85786C11.7157 0 21.1438 0 40 0H60C78.8562 0 88.2843 0 94.1421 5.85786C100 11.7157 100 21.1438 100 40V60C100 78.8562 100 88.2843 94.1421 94.1421C88.2843 100 78.8562 100 60 100H40C21.1438 100 11.7157 100 5.85786 94.1421C0 88.2843 0 78.8562 0 60V40Z" fill="white" fill-opacity="0.5"/>
<mask id="path-2-outside-1_7486_56539" maskUnits="userSpaceOnUse" x="16" y="21.8911" width="68" height="56" fill="black">
<rect fill="white" x="16" y="21.8911" width="68" height="56"/>
<path d="M76.6211 62.8363L82.9795 35.7189C83.0061 35.6054 83.0067 35.4873 82.9813 35.3735C82.9559 35.2598 82.9051 35.1532 82.8326 35.0619C82.7602 34.9705 82.6681 34.8967 82.5632 34.8459C82.4582 34.7952 82.3431 34.7688 82.2266 34.7688H73.6246C72.4852 31.3296 70.291 28.3369 67.3538 26.2158C64.4165 24.0947 60.8856 22.953 57.2626 22.953C53.6395 22.953 50.1086 24.0947 47.1714 26.2158C44.2341 28.3369 42.04 31.3296 40.9005 34.7688H32.5042L30.3736 25.6827C30.1898 24.8872 29.7411 24.1777 29.1013 23.6706C28.4614 23.1634 27.6683 22.8886 26.8518 22.8911H17.7734C17.5683 22.8911 17.3716 22.9726 17.2265 23.1177C17.0815 23.2627 17 23.4594 17 23.6646C17 23.8697 17.0815 24.0664 17.2265 24.2115C17.3716 24.3565 17.5683 24.438 17.7734 24.438H26.8518C27.3204 24.4318 27.7768 24.5875 28.144 24.8787C28.5112 25.1698 28.7668 25.5788 28.8676 26.0364L31.1381 35.7195L33.2073 44.5442L38.4295 66.8156C38.6134 67.611 39.062 68.3205 39.7019 68.8277C40.3417 69.3348 41.1349 69.6096 41.9514 69.607H46.3674C45.726 70.1949 45.2772 70.9629 45.0797 71.8103C44.8822 72.6577 44.9453 73.5449 45.2607 74.3558C45.5761 75.1667 46.1291 75.8635 46.8473 76.3547C47.5655 76.8459 48.4153 77.1088 49.2853 77.1088C50.1554 77.1088 51.0052 76.8459 51.7234 76.3547C52.4415 75.8635 52.9946 75.1667 53.31 74.3558C53.6254 73.5449 53.6885 72.6577 53.491 71.8103C53.2935 70.9629 52.8447 70.1949 52.2033 69.607H66.0825C65.441 70.1949 64.9922 70.9629 64.7947 71.8103C64.5972 72.6577 64.6603 73.5449 64.9757 74.3559C65.2911 75.1668 65.8441 75.8635 66.5623 76.3547C67.2804 76.846 68.1302 77.1088 69.0003 77.1088C69.8704 77.1088 70.7202 76.846 71.4384 76.3547C72.1565 75.8635 72.7096 75.1668 73.025 74.3559C73.3404 73.5449 73.4035 72.6577 73.206 71.8103C73.0085 70.9629 72.5596 70.1949 71.9182 69.607H75.2494C75.4545 69.607 75.6512 69.5255 75.7963 69.3805C75.9413 69.2354 76.0228 69.0387 76.0228 68.8336C76.0228 68.6285 75.9413 68.4317 75.7963 68.2867C75.6512 68.1416 75.4545 68.0601 75.2494 68.0601H41.9514C41.4828 68.0663 41.0265 67.9108 40.6593 67.6197C40.2921 67.3287 40.0365 66.9199 39.9355 66.4623L39.2254 63.4338H75.868C76.0425 63.4338 76.2119 63.3748 76.3486 63.2663C76.4854 63.1578 76.5814 63.0063 76.6211 62.8363ZM49.2853 75.558C48.7372 75.558 48.2014 75.3954 47.7456 75.0909C47.2898 74.7864 46.9346 74.3535 46.7248 73.8471C46.5151 73.3407 46.4602 72.7834 46.5671 72.2458C46.674 71.7082 46.938 71.2144 47.3256 70.8268C47.7132 70.4392 48.207 70.1752 48.7447 70.0683C49.2823 69.9613 49.8395 70.0162 50.3459 70.226C50.8524 70.4357 51.2852 70.791 51.5898 71.2467C51.8943 71.7025 52.0568 72.2383 52.0568 72.7865C52.056 73.5213 51.7638 74.2257 51.2442 74.7453C50.7246 75.2649 50.0201 75.5572 49.2853 75.558ZM69.0004 75.558C68.4522 75.558 67.9164 75.3954 67.4606 75.0909C67.0049 74.7864 66.6496 74.3535 66.4399 73.8471C66.2301 73.3407 66.1752 72.7834 66.2822 72.2458C66.3891 71.7082 66.6531 71.2144 67.0407 70.8268C67.4283 70.4392 67.9221 70.1752 68.4597 70.0683C68.9973 69.9613 69.5546 70.0162 70.061 70.226C70.5674 70.4357 71.0003 70.791 71.3048 71.2467C71.6093 71.7025 71.7719 72.2383 71.7719 72.7865C71.7711 73.5212 71.4789 74.2256 70.9594 74.7452C70.4399 75.2647 69.7351 75.5571 69.0004 75.558ZM57.2626 24.5004C60.421 24.4988 63.5064 25.4511 66.1146 27.2325C68.7228 29.0138 70.7323 31.5413 71.8799 34.4839C73.0276 37.4265 73.2599 40.647 72.5465 43.7239C71.833 46.8007 70.2071 49.5904 67.8816 51.7277C67.8895 51.5601 67.8945 51.3926 67.8945 51.2238C67.8911 48.8241 67.0773 46.4959 65.5849 44.6166C64.0925 42.7374 62.0091 41.4174 59.6725 40.8706C60.891 40.3196 61.8839 39.3678 62.4859 38.1736C63.0878 36.9795 63.2624 35.6152 62.9806 34.3079C62.6988 33.0007 61.9776 31.8295 60.9371 30.9894C59.8966 30.1493 58.5997 29.6911 57.2624 29.6911C55.9252 29.6911 54.6283 30.1493 53.5878 30.9894C52.5473 31.8295 51.8261 33.0007 51.5443 34.3079C51.2625 35.6152 51.4371 36.9795 52.039 38.1736C52.641 39.3678 53.6339 40.3196 54.8524 40.8706C52.5158 41.4174 50.4324 42.7374 48.94 44.6166C47.4476 46.4958 46.6337 48.8241 46.6303 51.2238C46.6303 51.392 46.6354 51.56 46.6432 51.7277C44.3176 49.5904 42.6917 46.8007 41.9783 43.7238C41.2649 40.6469 41.4972 37.4263 42.6449 34.4837C43.7926 31.5411 45.8022 29.0136 48.4104 27.2323C51.0187 25.451 54.1041 24.4988 57.2626 24.5004ZM48.3736 53.1096C48.0939 51.7863 48.1132 50.4172 48.43 49.1023C48.7469 47.7874 49.3534 46.5598 50.2052 45.5092C51.0569 44.4585 52.1326 43.6113 53.3535 43.0294C54.5745 42.4475 55.91 42.1455 57.2625 42.1455C58.6151 42.1455 59.9505 42.4475 61.1715 43.0294C62.3925 43.6113 63.4681 44.4585 64.3199 45.5092C65.1717 46.5598 65.7781 47.7874 66.095 49.1023C66.4119 50.4172 66.4311 51.7863 66.1514 53.1096C63.5378 54.9126 60.4377 55.8781 57.2625 55.8781C54.0873 55.8781 50.9872 54.9126 48.3736 53.1096ZM52.9599 35.5422C52.9599 34.6913 53.2123 33.8594 53.6851 33.1518C54.1578 32.4443 54.8298 31.8928 55.616 31.5671C56.4022 31.2415 57.2673 31.1563 58.102 31.3223C58.9366 31.4883 59.7033 31.8981 60.305 32.4998C60.9067 33.1016 61.3165 33.8682 61.4825 34.7028C61.6486 35.5375 61.5634 36.4026 61.2377 37.1888C60.912 37.975 60.3606 38.647 59.653 39.1198C58.9454 39.5925 58.1136 39.8449 57.2626 39.8449C56.1218 39.8436 55.0282 39.3899 54.2216 38.5832C53.415 37.7766 52.9612 36.683 52.9599 35.5422ZM40.4478 61.8863C39.5191 61.8863 38.7126 61.247 38.5006 60.3429L37.1491 54.5786L33.4428 38.7723C33.1486 37.5172 34.101 36.3157 35.39 36.3157H40.4656C40.1732 37.586 40.0259 38.8855 40.0265 40.1891C40.0265 49.6929 47.7586 57.425 57.2626 57.425C66.7666 57.425 74.4985 49.6929 74.4985 40.1891C74.4994 38.8855 74.3524 37.5861 74.0602 36.3157H78.7275C80.0166 36.3157 80.969 37.5172 80.6747 38.7723L75.6168 60.3429C75.4048 61.247 74.5983 61.8863 73.6696 61.8863H40.4478Z"/>
</mask>
<path d="M76.6211 62.8363L82.9795 35.7189C83.0061 35.6054 83.0067 35.4873 82.9813 35.3735C82.9559 35.2598 82.9051 35.1532 82.8326 35.0619C82.7602 34.9705 82.6681 34.8967 82.5632 34.8459C82.4582 34.7952 82.3431 34.7688 82.2266 34.7688H73.6246C72.4852 31.3296 70.291 28.3369 67.3538 26.2158C64.4165 24.0947 60.8856 22.953 57.2626 22.953C53.6395 22.953 50.1086 24.0947 47.1714 26.2158C44.2341 28.3369 42.04 31.3296 40.9005 34.7688H32.5042L30.3736 25.6827C30.1898 24.8872 29.7411 24.1777 29.1013 23.6706C28.4614 23.1634 27.6683 22.8886 26.8518 22.8911H17.7734C17.5683 22.8911 17.3716 22.9726 17.2265 23.1177C17.0815 23.2627 17 23.4594 17 23.6646C17 23.8697 17.0815 24.0664 17.2265 24.2115C17.3716 24.3565 17.5683 24.438 17.7734 24.438H26.8518C27.3204 24.4318 27.7768 24.5875 28.144 24.8787C28.5112 25.1698 28.7668 25.5788 28.8676 26.0364L31.1381 35.7195L33.2073 44.5442L38.4295 66.8156C38.6134 67.611 39.062 68.3205 39.7019 68.8277C40.3417 69.3348 41.1349 69.6096 41.9514 69.607H46.3674C45.726 70.1949 45.2772 70.9629 45.0797 71.8103C44.8822 72.6577 44.9453 73.5449 45.2607 74.3558C45.5761 75.1667 46.1291 75.8635 46.8473 76.3547C47.5655 76.8459 48.4153 77.1088 49.2853 77.1088C50.1554 77.1088 51.0052 76.8459 51.7234 76.3547C52.4415 75.8635 52.9946 75.1667 53.31 74.3558C53.6254 73.5449 53.6885 72.6577 53.491 71.8103C53.2935 70.9629 52.8447 70.1949 52.2033 69.607H66.0825C65.441 70.1949 64.9922 70.9629 64.7947 71.8103C64.5972 72.6577 64.6603 73.5449 64.9757 74.3559C65.2911 75.1668 65.8441 75.8635 66.5623 76.3547C67.2804 76.846 68.1302 77.1088 69.0003 77.1088C69.8704 77.1088 70.7202 76.846 71.4384 76.3547C72.1565 75.8635 72.7096 75.1668 73.025 74.3559C73.3404 73.5449 73.4035 72.6577 73.206 71.8103C73.0085 70.9629 72.5596 70.1949 71.9182 69.607H75.2494C75.4545 69.607 75.6512 69.5255 75.7963 69.3805C75.9413 69.2354 76.0228 69.0387 76.0228 68.8336C76.0228 68.6285 75.9413 68.4317 75.7963 68.2867C75.6512 68.1416 75.4545 68.0601 75.2494 68.0601H41.9514C41.4828 68.0663 41.0265 67.9108 40.6593 67.6197C40.2921 67.3287 40.0365 66.9199 39.9355 66.4623L39.2254 63.4338H75.868C76.0425 63.4338 76.2119 63.3748 76.3486 63.2663C76.4854 63.1578 76.5814 63.0063 76.6211 62.8363ZM49.2853 75.558C48.7372 75.558 48.2014 75.3954 47.7456 75.0909C47.2898 74.7864 46.9346 74.3535 46.7248 73.8471C46.5151 73.3407 46.4602 72.7834 46.5671 72.2458C46.674 71.7082 46.938 71.2144 47.3256 70.8268C47.7132 70.4392 48.207 70.1752 48.7447 70.0683C49.2823 69.9613 49.8395 70.0162 50.3459 70.226C50.8524 70.4357 51.2852 70.791 51.5898 71.2467C51.8943 71.7025 52.0568 72.2383 52.0568 72.7865C52.056 73.5213 51.7638 74.2257 51.2442 74.7453C50.7246 75.2649 50.0201 75.5572 49.2853 75.558ZM69.0004 75.558C68.4522 75.558 67.9164 75.3954 67.4606 75.0909C67.0049 74.7864 66.6496 74.3535 66.4399 73.8471C66.2301 73.3407 66.1752 72.7834 66.2822 72.2458C66.3891 71.7082 66.6531 71.2144 67.0407 70.8268C67.4283 70.4392 67.9221 70.1752 68.4597 70.0683C68.9973 69.9613 69.5546 70.0162 70.061 70.226C70.5674 70.4357 71.0003 70.791 71.3048 71.2467C71.6093 71.7025 71.7719 72.2383 71.7719 72.7865C71.7711 73.5212 71.4789 74.2256 70.9594 74.7452C70.4399 75.2647 69.7351 75.5571 69.0004 75.558ZM57.2626 24.5004C60.421 24.4988 63.5064 25.4511 66.1146 27.2325C68.7228 29.0138 70.7323 31.5413 71.8799 34.4839C73.0276 37.4265 73.2599 40.647 72.5465 43.7239C71.833 46.8007 70.2071 49.5904 67.8816 51.7277C67.8895 51.5601 67.8945 51.3926 67.8945 51.2238C67.8911 48.8241 67.0773 46.4959 65.5849 44.6166C64.0925 42.7374 62.0091 41.4174 59.6725 40.8706C60.891 40.3196 61.8839 39.3678 62.4859 38.1736C63.0878 36.9795 63.2624 35.6152 62.9806 34.3079C62.6988 33.0007 61.9776 31.8295 60.9371 30.9894C59.8966 30.1493 58.5997 29.6911 57.2624 29.6911C55.9252 29.6911 54.6283 30.1493 53.5878 30.9894C52.5473 31.8295 51.8261 33.0007 51.5443 34.3079C51.2625 35.6152 51.4371 36.9795 52.039 38.1736C52.641 39.3678 53.6339 40.3196 54.8524 40.8706C52.5158 41.4174 50.4324 42.7374 48.94 44.6166C47.4476 46.4958 46.6337 48.8241 46.6303 51.2238C46.6303 51.392 46.6354 51.56 46.6432 51.7277C44.3176 49.5904 42.6917 46.8007 41.9783 43.7238C41.2649 40.6469 41.4972 37.4263 42.6449 34.4837C43.7926 31.5411 45.8022 29.0136 48.4104 27.2323C51.0187 25.451 54.1041 24.4988 57.2626 24.5004ZM48.3736 53.1096C48.0939 51.7863 48.1132 50.4172 48.43 49.1023C48.7469 47.7874 49.3534 46.5598 50.2052 45.5092C51.0569 44.4585 52.1326 43.6113 53.3535 43.0294C54.5745 42.4475 55.91 42.1455 57.2625 42.1455C58.6151 42.1455 59.9505 42.4475 61.1715 43.0294C62.3925 43.6113 63.4681 44.4585 64.3199 45.5092C65.1717 46.5598 65.7781 47.7874 66.095 49.1023C66.4119 50.4172 66.4311 51.7863 66.1514 53.1096C63.5378 54.9126 60.4377 55.8781 57.2625 55.8781C54.0873 55.8781 50.9872 54.9126 48.3736 53.1096ZM52.9599 35.5422C52.9599 34.6913 53.2123 33.8594 53.6851 33.1518C54.1578 32.4443 54.8298 31.8928 55.616 31.5671C56.4022 31.2415 57.2673 31.1563 58.102 31.3223C58.9366 31.4883 59.7033 31.8981 60.305 32.4998C60.9067 33.1016 61.3165 33.8682 61.4825 34.7028C61.6486 35.5375 61.5634 36.4026 61.2377 37.1888C60.912 37.975 60.3606 38.647 59.653 39.1198C58.9454 39.5925 58.1136 39.8449 57.2626 39.8449C56.1218 39.8436 55.0282 39.3899 54.2216 38.5832C53.415 37.7766 52.9612 36.683 52.9599 35.5422ZM40.4478 61.8863C39.5191 61.8863 38.7126 61.247 38.5006 60.3429L37.1491 54.5786L33.4428 38.7723C33.1486 37.5172 34.101 36.3157 35.39 36.3157H40.4656C40.1732 37.586 40.0259 38.8855 40.0265 40.1891C40.0265 49.6929 47.7586 57.425 57.2626 57.425C66.7666 57.425 74.4985 49.6929 74.4985 40.1891C74.4994 38.8855 74.3524 37.5861 74.0602 36.3157H78.7275C80.0166 36.3157 80.969 37.5172 80.6747 38.7723L75.6168 60.3429C75.4048 61.247 74.5983 61.8863 73.6696 61.8863H40.4478Z" fill="black"/>
<path d="M76.6211 62.8363L82.9795 35.7189C83.0061 35.6054 83.0067 35.4873 82.9813 35.3735C82.9559 35.2598 82.9051 35.1532 82.8326 35.0619C82.7602 34.9705 82.6681 34.8967 82.5632 34.8459C82.4582 34.7952 82.3431 34.7688 82.2266 34.7688H73.6246C72.4852 31.3296 70.291 28.3369 67.3538 26.2158C64.4165 24.0947 60.8856 22.953 57.2626 22.953C53.6395 22.953 50.1086 24.0947 47.1714 26.2158C44.2341 28.3369 42.04 31.3296 40.9005 34.7688H32.5042L30.3736 25.6827C30.1898 24.8872 29.7411 24.1777 29.1013 23.6706C28.4614 23.1634 27.6683 22.8886 26.8518 22.8911H17.7734C17.5683 22.8911 17.3716 22.9726 17.2265 23.1177C17.0815 23.2627 17 23.4594 17 23.6646C17 23.8697 17.0815 24.0664 17.2265 24.2115C17.3716 24.3565 17.5683 24.438 17.7734 24.438H26.8518C27.3204 24.4318 27.7768 24.5875 28.144 24.8787C28.5112 25.1698 28.7668 25.5788 28.8676 26.0364L31.1381 35.7195L33.2073 44.5442L38.4295 66.8156C38.6134 67.611 39.062 68.3205 39.7019 68.8277C40.3417 69.3348 41.1349 69.6096 41.9514 69.607H46.3674C45.726 70.1949 45.2772 70.9629 45.0797 71.8103C44.8822 72.6577 44.9453 73.5449 45.2607 74.3558C45.5761 75.1667 46.1291 75.8635 46.8473 76.3547C47.5655 76.8459 48.4153 77.1088 49.2853 77.1088C50.1554 77.1088 51.0052 76.8459 51.7234 76.3547C52.4415 75.8635 52.9946 75.1667 53.31 74.3558C53.6254 73.5449 53.6885 72.6577 53.491 71.8103C53.2935 70.9629 52.8447 70.1949 52.2033 69.607H66.0825C65.441 70.1949 64.9922 70.9629 64.7947 71.8103C64.5972 72.6577 64.6603 73.5449 64.9757 74.3559C65.2911 75.1668 65.8441 75.8635 66.5623 76.3547C67.2804 76.846 68.1302 77.1088 69.0003 77.1088C69.8704 77.1088 70.7202 76.846 71.4384 76.3547C72.1565 75.8635 72.7096 75.1668 73.025 74.3559C73.3404 73.5449 73.4035 72.6577 73.206 71.8103C73.0085 70.9629 72.5596 70.1949 71.9182 69.607H75.2494C75.4545 69.607 75.6512 69.5255 75.7963 69.3805C75.9413 69.2354 76.0228 69.0387 76.0228 68.8336C76.0228 68.6285 75.9413 68.4317 75.7963 68.2867C75.6512 68.1416 75.4545 68.0601 75.2494 68.0601H41.9514C41.4828 68.0663 41.0265 67.9108 40.6593 67.6197C40.2921 67.3287 40.0365 66.9199 39.9355 66.4623L39.2254 63.4338H75.868C76.0425 63.4338 76.2119 63.3748 76.3486 63.2663C76.4854 63.1578 76.5814 63.0063 76.6211 62.8363ZM49.2853 75.558C48.7372 75.558 48.2014 75.3954 47.7456 75.0909C47.2898 74.7864 46.9346 74.3535 46.7248 73.8471C46.5151 73.3407 46.4602 72.7834 46.5671 72.2458C46.674 71.7082 46.938 71.2144 47.3256 70.8268C47.7132 70.4392 48.207 70.1752 48.7447 70.0683C49.2823 69.9613 49.8395 70.0162 50.3459 70.226C50.8524 70.4357 51.2852 70.791 51.5898 71.2467C51.8943 71.7025 52.0568 72.2383 52.0568 72.7865C52.056 73.5213 51.7638 74.2257 51.2442 74.7453C50.7246 75.2649 50.0201 75.5572 49.2853 75.558ZM69.0004 75.558C68.4522 75.558 67.9164 75.3954 67.4606 75.0909C67.0049 74.7864 66.6496 74.3535 66.4399 73.8471C66.2301 73.3407 66.1752 72.7834 66.2822 72.2458C66.3891 71.7082 66.6531 71.2144 67.0407 70.8268C67.4283 70.4392 67.9221 70.1752 68.4597 70.0683C68.9973 69.9613 69.5546 70.0162 70.061 70.226C70.5674 70.4357 71.0003 70.791 71.3048 71.2467C71.6093 71.7025 71.7719 72.2383 71.7719 72.7865C71.7711 73.5212 71.4789 74.2256 70.9594 74.7452C70.4399 75.2647 69.7351 75.5571 69.0004 75.558ZM57.2626 24.5004C60.421 24.4988 63.5064 25.4511 66.1146 27.2325C68.7228 29.0138 70.7323 31.5413 71.8799 34.4839C73.0276 37.4265 73.2599 40.647 72.5465 43.7239C71.833 46.8007 70.2071 49.5904 67.8816 51.7277C67.8895 51.5601 67.8945 51.3926 67.8945 51.2238C67.8911 48.8241 67.0773 46.4959 65.5849 44.6166C64.0925 42.7374 62.0091 41.4174 59.6725 40.8706C60.891 40.3196 61.8839 39.3678 62.4859 38.1736C63.0878 36.9795 63.2624 35.6152 62.9806 34.3079C62.6988 33.0007 61.9776 31.8295 60.9371 30.9894C59.8966 30.1493 58.5997 29.6911 57.2624 29.6911C55.9252 29.6911 54.6283 30.1493 53.5878 30.9894C52.5473 31.8295 51.8261 33.0007 51.5443 34.3079C51.2625 35.6152 51.4371 36.9795 52.039 38.1736C52.641 39.3678 53.6339 40.3196 54.8524 40.8706C52.5158 41.4174 50.4324 42.7374 48.94 44.6166C47.4476 46.4958 46.6337 48.8241 46.6303 51.2238C46.6303 51.392 46.6354 51.56 46.6432 51.7277C44.3176 49.5904 42.6917 46.8007 41.9783 43.7238C41.2649 40.6469 41.4972 37.4263 42.6449 34.4837C43.7926 31.5411 45.8022 29.0136 48.4104 27.2323C51.0187 25.451 54.1041 24.4988 57.2626 24.5004ZM48.3736 53.1096C48.0939 51.7863 48.1132 50.4172 48.43 49.1023C48.7469 47.7874 49.3534 46.5598 50.2052 45.5092C51.0569 44.4585 52.1326 43.6113 53.3535 43.0294C54.5745 42.4475 55.91 42.1455 57.2625 42.1455C58.6151 42.1455 59.9505 42.4475 61.1715 43.0294C62.3925 43.6113 63.4681 44.4585 64.3199 45.5092C65.1717 46.5598 65.7781 47.7874 66.095 49.1023C66.4119 50.4172 66.4311 51.7863 66.1514 53.1096C63.5378 54.9126 60.4377 55.8781 57.2625 55.8781C54.0873 55.8781 50.9872 54.9126 48.3736 53.1096ZM52.9599 35.5422C52.9599 34.6913 53.2123 33.8594 53.6851 33.1518C54.1578 32.4443 54.8298 31.8928 55.616 31.5671C56.4022 31.2415 57.2673 31.1563 58.102 31.3223C58.9366 31.4883 59.7033 31.8981 60.305 32.4998C60.9067 33.1016 61.3165 33.8682 61.4825 34.7028C61.6486 35.5375 61.5634 36.4026 61.2377 37.1888C60.912 37.975 60.3606 38.647 59.653 39.1198C58.9454 39.5925 58.1136 39.8449 57.2626 39.8449C56.1218 39.8436 55.0282 39.3899 54.2216 38.5832C53.415 37.7766 52.9612 36.683 52.9599 35.5422ZM40.4478 61.8863C39.5191 61.8863 38.7126 61.247 38.5006 60.3429L37.1491 54.5786L33.4428 38.7723C33.1486 37.5172 34.101 36.3157 35.39 36.3157H40.4656C40.1732 37.586 40.0259 38.8855 40.0265 40.1891C40.0265 49.6929 47.7586 57.425 57.2626 57.425C66.7666 57.425 74.4985 49.6929 74.4985 40.1891C74.4994 38.8855 74.3524 37.5861 74.0602 36.3157H78.7275C80.0166 36.3157 80.969 37.5172 80.6747 38.7723L75.6168 60.3429C75.4048 61.247 74.5983 61.8863 73.6696 61.8863H40.4478Z" stroke="black" mask="url(#path-2-outside-1_7486_56539)"/>
</svg>
