<svg width="100" height="100" viewBox="0 0 100 100" fill="none" xmlns="http://www.w3.org/2000/svg">
<path d="M0 40C0 21.1438 0 11.7157 5.85786 5.85786C11.7157 0 21.1438 0 40 0H60C78.8562 0 88.2843 0 94.1421 5.85786C100 11.7157 100 21.1438 100 40V60C100 78.8562 100 88.2843 94.1421 94.1421C88.2843 100 78.8562 100 60 100H40C21.1438 100 11.7157 100 5.85786 94.1421C0 88.2843 0 78.8562 0 60V40Z" fill="white" fill-opacity="0.5"/>
<path d="M33.8687 83.25H66.1302C68.617 83.25 70.5419 80.6822 70.5419 77.6633V22.3367C70.5419 19.3178 68.617 16.75 66.1302 16.75H33.8687C31.3819 16.75 29.457 19.3178 29.457 22.3367V77.6633C29.457 80.6822 31.3819 83.25 33.8687 83.25ZM68.3263 67.5906H31.6726V29.4187H68.3263V67.5906ZM66.1302 80.55H33.8687C32.7124 80.55 31.6726 79.3161 31.6726 77.6633V70.2906H68.3263V77.6633C68.3263 79.3161 67.2865 80.55 66.1302 80.55ZM33.8687 19.45H66.1302C67.2865 19.45 68.3263 20.6839 68.3263 22.3367V26.7188H31.6726V22.3367C31.6726 20.6839 32.7124 19.45 33.8687 19.45Z" fill="black" stroke="black" stroke-width="0.5"/>
<path d="M57.3104 47.8792L57.3104 47.8792L54.4566 50.6608L55.1305 54.5882C55.202 55.0037 55.031 55.4235 54.6902 55.6712L54.5432 55.469M57.3104 47.8792L47.4052 45.6453M57.3104 47.8792C57.6124 47.5848 57.7205 47.1446 57.5907 46.7443L57.5905 46.744C57.4598 46.343 57.1137 46.0508 56.696 45.9902C56.696 45.9902 56.696 45.9902 56.696 45.9902L52.7532 45.4169L50.9896 41.8442C50.7935 41.4453 50.3792 41.2646 49.9962 41.2646C49.6132 41.2646 49.1989 41.4453 49.0028 41.8441L49.003 41.8438L49.2272 41.9544L49.0028 41.8442M57.3104 47.8792L49.0028 41.8442M54.5432 55.469L54.6907 55.6709C54.4976 55.8119 54.2681 55.8832 54.0389 55.8832C53.8627 55.8832 53.6851 55.8411 53.5233 55.7554C53.5233 55.7554 53.5232 55.7553 53.5231 55.7553L49.9962 53.9018L46.4696 55.7551C46.4695 55.7552 46.4693 55.7553 46.4691 55.7554C46.0976 55.9528 45.6434 55.9196 45.3021 55.6712C44.9614 55.4235 44.7904 55.0037 44.8618 54.5882L45.5357 50.6608L42.682 47.8792L42.682 47.8792C42.38 47.5848 42.2719 47.1446 42.4017 46.7443L42.4018 46.744C42.5326 46.343 42.8787 46.0508 43.2964 45.9902M54.5432 55.469C54.3941 55.5779 54.2165 55.6332 54.0389 55.6332C53.9024 55.6332 53.765 55.6006 53.6402 55.5344L54.8841 54.6305C54.9394 54.9522 54.8071 55.2772 54.5432 55.469ZM43.2964 45.9902L43.3323 46.2376L43.2963 45.9902L43.2964 45.9902ZM43.2964 45.9902L47.2392 45.4169M47.2392 45.4169L47.181 45.5347L47.4052 45.6453M47.2392 45.4169L49.0028 41.8442M47.2392 45.4169L47.3692 45.3979L47.4052 45.6453M47.4052 45.6453L49.0028 41.8442M54.156 47.8596L51.8588 47.5255C51.8588 47.5255 51.8587 47.5255 51.8586 47.5254L51.8584 47.5254L51.8944 47.278C51.6146 47.2378 51.3734 47.0619 51.2485 46.8089L54.156 47.8596ZM54.156 47.8596L52.4931 49.4806L52.4931 49.4806C52.2322 49.735 52.1133 50.1017 52.1749 50.4608C52.1749 50.4608 52.1749 50.4608 52.1749 50.4609L52.5676 52.7504L50.512 51.6703C50.5119 51.6703 50.5117 51.6702 50.5116 51.6701C50.3499 51.5845 50.1732 51.5424 49.9962 51.5424C49.8191 51.5424 49.6425 51.5845 49.4809 51.6701C49.4807 51.6702 49.4805 51.6703 49.4803 51.6703L47.4247 52.7504L47.8174 50.4609C47.8174 50.4608 47.8174 50.4608 47.8174 50.4608C47.8791 50.1017 47.7601 49.735 47.4993 49.4806L47.4993 49.4806L45.8364 47.8596L48.1335 47.5255C48.1336 47.5255 48.1336 47.5255 48.1337 47.5254C48.4954 47.4734 48.8069 47.246 48.968 46.9195L49.9962 44.8371L51.0243 46.9195M54.156 47.8596L51.0243 46.9195M51.0243 46.9195C51.0243 46.9195 51.0244 46.9196 51.0244 46.9196L51.0243 46.9195Z" fill="black" stroke="black" stroke-width="0.5"/>
<path d="M50.0032 71.5703C47.946 71.5703 46.2734 73.2429 46.2734 75.3001C46.2734 77.3574 47.946 79.0299 50.0032 79.0299C52.0605 79.0299 53.733 77.3574 53.733 75.3001C53.733 73.2429 52.0605 71.5703 50.0032 71.5703ZM50.0032 76.8143C49.1687 76.8143 48.489 76.1346 48.489 75.3001C48.489 74.4656 49.1687 73.7859 50.0032 73.7859C50.8377 73.7859 51.5174 74.4656 51.5174 75.3001C51.5174 76.1346 50.8377 76.8143 50.0032 76.8143Z" fill="black" stroke="black" stroke-width="0.5"/>
</svg>
