<svg width="100" height="100" viewBox="0 0 100 100" fill="none" xmlns="http://www.w3.org/2000/svg">
<path d="M0 40C0 21.1438 0 11.7157 5.85786 5.85786C11.7157 0 21.1438 0 40 0H60C78.8562 0 88.2843 0 94.1421 5.85786C100 11.7157 100 21.1438 100 40V60C100 78.8562 100 88.2843 94.1421 94.1421C88.2843 100 78.8562 100 60 100H40C21.1438 100 11.7157 100 5.85786 94.1421C0 88.2843 0 78.8562 0 60V40Z" fill="white" fill-opacity="0.5"/>
<path d="M84.0116 69.5003C84.0776 71.9752 83.4176 74.318 82.2297 76.3309C81.5697 77.5189 80.6788 78.6079 79.6888 79.4988C77.412 81.6107 74.4091 82.8976 71.0763 82.9966C66.2586 83.0956 62.0019 80.6207 59.659 76.826C58.4051 74.8791 57.6462 72.5363 57.6132 70.0614C57.5142 65.9037 59.362 62.1418 62.3319 59.667C64.5757 57.8191 67.4136 56.6642 70.5154 56.5982C77.808 56.4332 83.8466 62.2077 84.0116 69.5003Z" stroke="black" stroke-width="3" stroke-miterlimit="10" stroke-linecap="round" stroke-linejoin="round"/>
<path d="M65.6523 69.8959L68.9852 73.0636L75.8817 66.3979" stroke="black" stroke-width="3" stroke-linecap="round" stroke-linejoin="round"/>
<path d="M18.582 34.9521L47.7192 51.8141L76.6585 35.051" stroke="black" stroke-width="3" stroke-linecap="round" stroke-linejoin="round"/>
<path d="M47.7188 81.7085V51.7793" stroke="black" stroke-width="3" stroke-linecap="round" stroke-linejoin="round"/>
<path d="M79.4143 40.6596V59.3366C79.4143 59.5016 79.4143 59.6334 79.3813 59.7984C77.0715 57.7855 74.1016 56.5977 70.8018 56.5977C67.7 56.5977 64.8292 57.6866 62.5523 59.5015C59.5165 61.9104 57.6026 65.6391 57.6026 69.7969C57.6026 72.2717 58.2956 74.6146 59.5165 76.5945C59.8135 77.1224 60.1765 77.6175 60.5724 78.0794L54.5338 81.4123C50.7721 83.5241 44.6344 83.5241 40.8726 81.4123L23.2517 71.6448C19.2589 69.4339 15.9922 63.8903 15.9922 59.3366V40.6596C15.9922 36.1059 19.2589 30.5623 23.2517 28.3514L40.8726 18.5839C44.6344 16.472 50.7721 16.472 54.5338 18.5839L72.1548 28.3514C76.1475 30.5623 79.4143 36.1059 79.4143 40.6596Z" stroke="black" stroke-width="3" stroke-linecap="round" stroke-linejoin="round"/>
</svg>
