<svg width="100" height="100" viewBox="0 0 100 100" fill="none" xmlns="http://www.w3.org/2000/svg">
<path d="M0 40C0 21.1438 0 11.7157 5.85786 5.85786C11.7157 0 21.1438 0 40 0H60C78.8562 0 88.2843 0 94.1421 5.85786C100 11.7157 100 21.1438 100 40V60C100 78.8562 100 88.2843 94.1421 94.1421C88.2843 100 78.8562 100 60 100H40C21.1438 100 11.7157 100 5.85786 94.1421C0 88.2843 0 78.8562 0 60V40Z" fill="white" fill-opacity="0.5"/>
<mask id="path-2-outside-1_7486_56607" maskUnits="userSpaceOnUse" x="17.418" y="17.4189" width="65" height="65" fill="black">
<rect fill="white" x="17.418" y="17.4189" width="65" height="65"/>
<path d="M80.3084 46.9138C79.4834 46.0836 78.3826 45.626 77.2082 45.626C75.0155 45.626 73.1941 47.2477 72.8821 49.3553H65.0214C64.8668 45.6944 63.3959 42.3686 61.073 39.8381L66.6366 34.2745C68.3472 35.543 70.7823 35.4025 72.333 33.8517C74.0217 32.1631 74.0359 29.4019 72.3614 27.6965C71.5312 26.8547 70.4278 26.3894 69.2521 26.3855C69.247 26.3855 69.2418 26.3855 69.2367 26.3855C68.0701 26.3855 66.9744 26.8405 66.1468 27.6668C64.5961 29.2176 64.4555 31.6513 65.724 33.3619L60.1604 38.9255C57.63 36.6013 54.3042 35.1318 50.6432 34.9771V27.1177C52.7509 26.8057 54.3725 24.9843 54.3725 22.7916C54.3725 20.4029 52.4299 18.441 50.0413 18.4191C48.8618 18.4101 47.7519 18.8612 46.9179 19.6888C46.0851 20.5151 45.6262 21.6172 45.6262 22.7916C45.6262 24.9843 47.2479 26.8057 49.3555 27.1177V34.9784C45.6945 35.1331 42.3687 36.6039 39.8383 38.9268L34.2747 33.3632C35.5432 31.6526 35.4027 29.2176 33.8519 27.6668C33.0256 26.8405 31.9273 26.3855 30.7595 26.3855C29.5916 26.3855 28.4933 26.8405 27.667 27.6668C25.9616 29.3722 25.9616 32.1463 27.667 33.8517C29.2203 35.4051 31.6141 35.5456 33.3582 34.2694L38.9257 39.8369C36.6015 42.3673 35.132 45.6931 34.9773 49.354H27.1179C26.8059 47.2464 24.9845 45.6247 22.7918 45.6247C21.6239 45.6247 20.5256 46.0798 19.6993 46.9061C18.873 47.7336 18.418 48.8319 18.418 49.9998C18.418 51.1677 18.873 52.266 19.6993 53.0923C20.5256 53.9186 21.6239 54.3736 22.7918 54.3736C24.9909 54.3736 26.7814 52.7803 27.1114 50.6444H34.9786C35.1332 54.3053 36.6041 57.6311 38.927 60.1615L33.3646 65.7238C32.6157 65.1669 31.7121 64.8653 30.7607 64.8653C29.5929 64.8653 28.4946 65.3203 27.6683 66.1466C26.842 66.9729 26.387 68.0712 26.387 69.2391C26.387 70.407 26.842 71.5052 27.6683 72.3315C28.4946 73.1578 29.5929 73.6129 30.7607 73.6129C31.9286 73.6129 33.0269 73.1578 33.8532 72.3315C35.4065 70.7782 35.547 68.3844 34.2709 66.6403L39.8383 61.0729C42.3687 63.397 45.6945 64.8666 49.3555 65.0213V72.882C47.2479 73.1939 45.6262 75.0154 45.6262 77.2081C45.6262 79.6199 47.5882 81.5819 50 81.5819C52.4118 81.5819 54.3738 79.6199 54.3738 77.2081C54.3738 75.0089 52.7805 73.2171 50.6445 72.8884V65.0213C54.3055 64.8666 57.6312 63.3958 60.1617 61.0729L65.7253 66.6365C64.4581 68.3483 64.5986 70.7834 66.1468 72.3315C66.9963 73.181 68.1178 73.6064 69.2393 73.6064C70.3466 73.6064 71.4539 73.1913 72.3008 72.3612C72.3021 72.3599 72.3098 72.3535 72.3098 72.3522L72.3279 72.3354L72.3317 72.3315C74.0371 70.6261 74.0371 67.852 72.3317 66.1466C71.5054 65.3203 70.4072 64.8653 69.2393 64.8653C68.2892 64.8653 67.3843 65.1656 66.6353 65.7238L61.073 60.1615C63.3972 57.6311 64.8668 54.3053 65.0214 50.6444H72.8821C73.1941 52.752 75.0155 54.3736 77.2082 54.3736C79.5969 54.3736 81.5588 52.431 81.5807 50.0411C81.5898 48.8577 81.1373 47.7478 80.3084 46.9138ZM67.0582 28.5795C67.6408 27.9968 68.4143 27.6758 69.2367 27.6758H69.247C70.0759 27.6784 70.8557 28.0084 71.441 28.6014C72.6205 29.8041 72.6114 31.7506 71.4204 32.9417C70.2177 34.1444 68.2609 34.1444 67.0582 32.9417C65.8555 31.739 65.8555 29.7822 67.0582 28.5795ZM32.9457 32.9378C31.6966 34.1405 29.7798 34.1418 28.5796 32.9417C27.377 31.739 27.377 29.7822 28.5796 28.5795C29.1623 27.9968 29.937 27.6758 30.7607 27.6758C31.5845 27.6758 32.3592 27.9968 32.9418 28.5795C34.1432 29.7809 34.1445 31.7338 32.9457 32.9378ZM22.7918 53.0845C21.968 53.0845 21.1933 52.7636 20.6107 52.1809C20.028 51.5983 19.707 50.8235 19.707 49.9998C19.707 49.1761 20.028 48.4014 20.6107 47.8187C21.1933 47.2361 21.968 46.9151 22.7918 46.9151C24.4907 46.9151 25.8739 48.2957 25.8765 49.9947C25.8443 51.7272 24.4907 53.0845 22.7918 53.0845ZM32.9418 71.4202C32.3592 72.0028 31.5845 72.3238 30.7607 72.3238C29.937 72.3238 29.1623 72.0028 28.5796 71.4202C27.997 70.8375 27.676 70.0628 27.676 69.2391C27.676 68.4154 27.997 67.6406 28.5796 67.058C29.1623 66.4753 29.937 66.1544 30.7607 66.1544C31.5832 66.1544 32.3553 66.474 32.938 67.0541C34.1394 68.3032 34.142 70.2201 32.9418 71.4202ZM67.0582 67.058C67.6408 66.4753 68.4155 66.1544 69.2393 66.1544C70.063 66.1544 70.8377 66.4753 71.4204 67.058C72.623 68.2607 72.623 70.2175 71.4204 71.4202L71.8767 71.8765L71.4178 71.424L71.3984 71.4421C70.1957 72.6216 68.2493 72.6113 67.0582 71.4215C65.858 70.2188 65.858 68.262 67.0582 67.058ZM46.9153 22.7916C46.9153 21.9627 47.2388 21.1854 47.8254 20.6028C48.408 20.024 49.1814 19.7069 50.0052 19.7069H50.0296C51.7132 19.7223 53.0834 21.1068 53.0834 22.7903C53.0834 24.4906 51.7003 25.875 49.9987 25.875C48.2997 25.875 46.9153 24.4919 46.9153 22.7916ZM53.0847 77.2081C53.0847 78.9083 51.7016 80.2928 50 80.2928C48.2984 80.2928 46.9153 78.9096 46.9153 77.2081C46.9153 75.5091 48.2959 74.1272 49.9936 74.1233C51.7273 74.1556 53.0847 75.5091 53.0847 77.2081ZM50 63.7477C42.419 63.7477 36.2521 57.5808 36.2521 49.9998C36.2521 42.4188 42.4203 36.252 50 36.252C57.5797 36.252 63.7479 42.4188 63.7479 49.9998C63.7479 57.5808 57.581 63.7477 50 63.7477ZM77.2082 53.0845C75.508 53.0845 74.1235 51.7014 74.1235 49.9998C74.1235 48.2995 75.5067 46.9151 77.2082 46.9151C78.0358 46.9151 78.8118 47.2374 79.3945 47.8226C79.9784 48.4104 80.2981 49.1954 80.293 50.0295C80.2762 51.7143 78.893 53.0845 77.2082 53.0845ZM56.4853 41.4031H43.5147C42.3507 41.4031 41.4032 42.3505 41.4032 43.5145V56.4851C41.4032 57.6491 42.3507 58.5966 43.5147 58.5966H56.4853C57.6493 58.5966 58.5968 57.6491 58.5968 56.4851V43.5145C58.5968 42.3505 57.6493 41.4031 56.4853 41.4031ZM48.7818 42.6921H51.2195V46.2525H48.7818V42.6921ZM57.3077 56.4851C57.3077 56.9388 56.939 57.3075 56.4853 57.3075H43.5147C43.061 57.3075 42.6923 56.9388 42.6923 56.4851V43.5145C42.6923 43.0608 43.061 42.6921 43.5147 42.6921H47.4928V46.326C47.4928 46.9963 48.038 47.5403 48.7084 47.5403H51.2942C51.9645 47.5403 52.5098 46.995 52.5098 46.326V42.6921H56.4879C56.9416 42.6921 57.3103 43.0608 57.3103 43.5145V56.4851H57.3077Z"/>
</mask>
<path d="M80.3084 46.9138C79.4834 46.0836 78.3826 45.626 77.2082 45.626C75.0155 45.626 73.1941 47.2477 72.8821 49.3553H65.0214C64.8668 45.6944 63.3959 42.3686 61.073 39.8381L66.6366 34.2745C68.3472 35.543 70.7823 35.4025 72.333 33.8517C74.0217 32.1631 74.0359 29.4019 72.3614 27.6965C71.5312 26.8547 70.4278 26.3894 69.2521 26.3855C69.247 26.3855 69.2418 26.3855 69.2367 26.3855C68.0701 26.3855 66.9744 26.8405 66.1468 27.6668C64.5961 29.2176 64.4555 31.6513 65.724 33.3619L60.1604 38.9255C57.63 36.6013 54.3042 35.1318 50.6432 34.9771V27.1177C52.7509 26.8057 54.3725 24.9843 54.3725 22.7916C54.3725 20.4029 52.4299 18.441 50.0413 18.4191C48.8618 18.4101 47.7519 18.8612 46.9179 19.6888C46.0851 20.5151 45.6262 21.6172 45.6262 22.7916C45.6262 24.9843 47.2479 26.8057 49.3555 27.1177V34.9784C45.6945 35.1331 42.3687 36.6039 39.8383 38.9268L34.2747 33.3632C35.5432 31.6526 35.4027 29.2176 33.8519 27.6668C33.0256 26.8405 31.9273 26.3855 30.7595 26.3855C29.5916 26.3855 28.4933 26.8405 27.667 27.6668C25.9616 29.3722 25.9616 32.1463 27.667 33.8517C29.2203 35.4051 31.6141 35.5456 33.3582 34.2694L38.9257 39.8369C36.6015 42.3673 35.132 45.6931 34.9773 49.354H27.1179C26.8059 47.2464 24.9845 45.6247 22.7918 45.6247C21.6239 45.6247 20.5256 46.0798 19.6993 46.9061C18.873 47.7336 18.418 48.8319 18.418 49.9998C18.418 51.1677 18.873 52.266 19.6993 53.0923C20.5256 53.9186 21.6239 54.3736 22.7918 54.3736C24.9909 54.3736 26.7814 52.7803 27.1114 50.6444H34.9786C35.1332 54.3053 36.6041 57.6311 38.927 60.1615L33.3646 65.7238C32.6157 65.1669 31.7121 64.8653 30.7607 64.8653C29.5929 64.8653 28.4946 65.3203 27.6683 66.1466C26.842 66.9729 26.387 68.0712 26.387 69.2391C26.387 70.407 26.842 71.5052 27.6683 72.3315C28.4946 73.1578 29.5929 73.6129 30.7607 73.6129C31.9286 73.6129 33.0269 73.1578 33.8532 72.3315C35.4065 70.7782 35.547 68.3844 34.2709 66.6403L39.8383 61.0729C42.3687 63.397 45.6945 64.8666 49.3555 65.0213V72.882C47.2479 73.1939 45.6262 75.0154 45.6262 77.2081C45.6262 79.6199 47.5882 81.5819 50 81.5819C52.4118 81.5819 54.3738 79.6199 54.3738 77.2081C54.3738 75.0089 52.7805 73.2171 50.6445 72.8884V65.0213C54.3055 64.8666 57.6312 63.3958 60.1617 61.0729L65.7253 66.6365C64.4581 68.3483 64.5986 70.7834 66.1468 72.3315C66.9963 73.181 68.1178 73.6064 69.2393 73.6064C70.3466 73.6064 71.4539 73.1913 72.3008 72.3612C72.3021 72.3599 72.3098 72.3535 72.3098 72.3522L72.3279 72.3354L72.3317 72.3315C74.0371 70.6261 74.0371 67.852 72.3317 66.1466C71.5054 65.3203 70.4072 64.8653 69.2393 64.8653C68.2892 64.8653 67.3843 65.1656 66.6353 65.7238L61.073 60.1615C63.3972 57.6311 64.8668 54.3053 65.0214 50.6444H72.8821C73.1941 52.752 75.0155 54.3736 77.2082 54.3736C79.5969 54.3736 81.5588 52.431 81.5807 50.0411C81.5898 48.8577 81.1373 47.7478 80.3084 46.9138ZM67.0582 28.5795C67.6408 27.9968 68.4143 27.6758 69.2367 27.6758H69.247C70.0759 27.6784 70.8557 28.0084 71.441 28.6014C72.6205 29.8041 72.6114 31.7506 71.4204 32.9417C70.2177 34.1444 68.2609 34.1444 67.0582 32.9417C65.8555 31.739 65.8555 29.7822 67.0582 28.5795ZM32.9457 32.9378C31.6966 34.1405 29.7798 34.1418 28.5796 32.9417C27.377 31.739 27.377 29.7822 28.5796 28.5795C29.1623 27.9968 29.937 27.6758 30.7607 27.6758C31.5845 27.6758 32.3592 27.9968 32.9418 28.5795C34.1432 29.7809 34.1445 31.7338 32.9457 32.9378ZM22.7918 53.0845C21.968 53.0845 21.1933 52.7636 20.6107 52.1809C20.028 51.5983 19.707 50.8235 19.707 49.9998C19.707 49.1761 20.028 48.4014 20.6107 47.8187C21.1933 47.2361 21.968 46.9151 22.7918 46.9151C24.4907 46.9151 25.8739 48.2957 25.8765 49.9947C25.8443 51.7272 24.4907 53.0845 22.7918 53.0845ZM32.9418 71.4202C32.3592 72.0028 31.5845 72.3238 30.7607 72.3238C29.937 72.3238 29.1623 72.0028 28.5796 71.4202C27.997 70.8375 27.676 70.0628 27.676 69.2391C27.676 68.4154 27.997 67.6406 28.5796 67.058C29.1623 66.4753 29.937 66.1544 30.7607 66.1544C31.5832 66.1544 32.3553 66.474 32.938 67.0541C34.1394 68.3032 34.142 70.2201 32.9418 71.4202ZM67.0582 67.058C67.6408 66.4753 68.4155 66.1544 69.2393 66.1544C70.063 66.1544 70.8377 66.4753 71.4204 67.058C72.623 68.2607 72.623 70.2175 71.4204 71.4202L71.8767 71.8765L71.4178 71.424L71.3984 71.4421C70.1957 72.6216 68.2493 72.6113 67.0582 71.4215C65.858 70.2188 65.858 68.262 67.0582 67.058ZM46.9153 22.7916C46.9153 21.9627 47.2388 21.1854 47.8254 20.6028C48.408 20.024 49.1814 19.7069 50.0052 19.7069H50.0296C51.7132 19.7223 53.0834 21.1068 53.0834 22.7903C53.0834 24.4906 51.7003 25.875 49.9987 25.875C48.2997 25.875 46.9153 24.4919 46.9153 22.7916ZM53.0847 77.2081C53.0847 78.9083 51.7016 80.2928 50 80.2928C48.2984 80.2928 46.9153 78.9096 46.9153 77.2081C46.9153 75.5091 48.2959 74.1272 49.9936 74.1233C51.7273 74.1556 53.0847 75.5091 53.0847 77.2081ZM50 63.7477C42.419 63.7477 36.2521 57.5808 36.2521 49.9998C36.2521 42.4188 42.4203 36.252 50 36.252C57.5797 36.252 63.7479 42.4188 63.7479 49.9998C63.7479 57.5808 57.581 63.7477 50 63.7477ZM77.2082 53.0845C75.508 53.0845 74.1235 51.7014 74.1235 49.9998C74.1235 48.2995 75.5067 46.9151 77.2082 46.9151C78.0358 46.9151 78.8118 47.2374 79.3945 47.8226C79.9784 48.4104 80.2981 49.1954 80.293 50.0295C80.2762 51.7143 78.893 53.0845 77.2082 53.0845ZM56.4853 41.4031H43.5147C42.3507 41.4031 41.4032 42.3505 41.4032 43.5145V56.4851C41.4032 57.6491 42.3507 58.5966 43.5147 58.5966H56.4853C57.6493 58.5966 58.5968 57.6491 58.5968 56.4851V43.5145C58.5968 42.3505 57.6493 41.4031 56.4853 41.4031ZM48.7818 42.6921H51.2195V46.2525H48.7818V42.6921ZM57.3077 56.4851C57.3077 56.9388 56.939 57.3075 56.4853 57.3075H43.5147C43.061 57.3075 42.6923 56.9388 42.6923 56.4851V43.5145C42.6923 43.0608 43.061 42.6921 43.5147 42.6921H47.4928V46.326C47.4928 46.9963 48.038 47.5403 48.7084 47.5403H51.2942C51.9645 47.5403 52.5098 46.995 52.5098 46.326V42.6921H56.4879C56.9416 42.6921 57.3103 43.0608 57.3103 43.5145V56.4851H57.3077Z" fill="black"/>
<path d="M80.3084 46.9138C79.4834 46.0836 78.3826 45.626 77.2082 45.626C75.0155 45.626 73.1941 47.2477 72.8821 49.3553H65.0214C64.8668 45.6944 63.3959 42.3686 61.073 39.8381L66.6366 34.2745C68.3472 35.543 70.7823 35.4025 72.333 33.8517C74.0217 32.1631 74.0359 29.4019 72.3614 27.6965C71.5312 26.8547 70.4278 26.3894 69.2521 26.3855C69.247 26.3855 69.2418 26.3855 69.2367 26.3855C68.0701 26.3855 66.9744 26.8405 66.1468 27.6668C64.5961 29.2176 64.4555 31.6513 65.724 33.3619L60.1604 38.9255C57.63 36.6013 54.3042 35.1318 50.6432 34.9771V27.1177C52.7509 26.8057 54.3725 24.9843 54.3725 22.7916C54.3725 20.4029 52.4299 18.441 50.0413 18.4191C48.8618 18.4101 47.7519 18.8612 46.9179 19.6888C46.0851 20.5151 45.6262 21.6172 45.6262 22.7916C45.6262 24.9843 47.2479 26.8057 49.3555 27.1177V34.9784C45.6945 35.1331 42.3687 36.6039 39.8383 38.9268L34.2747 33.3632C35.5432 31.6526 35.4027 29.2176 33.8519 27.6668C33.0256 26.8405 31.9273 26.3855 30.7595 26.3855C29.5916 26.3855 28.4933 26.8405 27.667 27.6668C25.9616 29.3722 25.9616 32.1463 27.667 33.8517C29.2203 35.4051 31.6141 35.5456 33.3582 34.2694L38.9257 39.8369C36.6015 42.3673 35.132 45.6931 34.9773 49.354H27.1179C26.8059 47.2464 24.9845 45.6247 22.7918 45.6247C21.6239 45.6247 20.5256 46.0798 19.6993 46.9061C18.873 47.7336 18.418 48.8319 18.418 49.9998C18.418 51.1677 18.873 52.266 19.6993 53.0923C20.5256 53.9186 21.6239 54.3736 22.7918 54.3736C24.9909 54.3736 26.7814 52.7803 27.1114 50.6444H34.9786C35.1332 54.3053 36.6041 57.6311 38.927 60.1615L33.3646 65.7238C32.6157 65.1669 31.7121 64.8653 30.7607 64.8653C29.5929 64.8653 28.4946 65.3203 27.6683 66.1466C26.842 66.9729 26.387 68.0712 26.387 69.2391C26.387 70.407 26.842 71.5052 27.6683 72.3315C28.4946 73.1578 29.5929 73.6129 30.7607 73.6129C31.9286 73.6129 33.0269 73.1578 33.8532 72.3315C35.4065 70.7782 35.547 68.3844 34.2709 66.6403L39.8383 61.0729C42.3687 63.397 45.6945 64.8666 49.3555 65.0213V72.882C47.2479 73.1939 45.6262 75.0154 45.6262 77.2081C45.6262 79.6199 47.5882 81.5819 50 81.5819C52.4118 81.5819 54.3738 79.6199 54.3738 77.2081C54.3738 75.0089 52.7805 73.2171 50.6445 72.8884V65.0213C54.3055 64.8666 57.6312 63.3958 60.1617 61.0729L65.7253 66.6365C64.4581 68.3483 64.5986 70.7834 66.1468 72.3315C66.9963 73.181 68.1178 73.6064 69.2393 73.6064C70.3466 73.6064 71.4539 73.1913 72.3008 72.3612C72.3021 72.3599 72.3098 72.3535 72.3098 72.3522L72.3279 72.3354L72.3317 72.3315C74.0371 70.6261 74.0371 67.852 72.3317 66.1466C71.5054 65.3203 70.4072 64.8653 69.2393 64.8653C68.2892 64.8653 67.3843 65.1656 66.6353 65.7238L61.073 60.1615C63.3972 57.6311 64.8668 54.3053 65.0214 50.6444H72.8821C73.1941 52.752 75.0155 54.3736 77.2082 54.3736C79.5969 54.3736 81.5588 52.431 81.5807 50.0411C81.5898 48.8577 81.1373 47.7478 80.3084 46.9138ZM67.0582 28.5795C67.6408 27.9968 68.4143 27.6758 69.2367 27.6758H69.247C70.0759 27.6784 70.8557 28.0084 71.441 28.6014C72.6205 29.8041 72.6114 31.7506 71.4204 32.9417C70.2177 34.1444 68.2609 34.1444 67.0582 32.9417C65.8555 31.739 65.8555 29.7822 67.0582 28.5795ZM32.9457 32.9378C31.6966 34.1405 29.7798 34.1418 28.5796 32.9417C27.377 31.739 27.377 29.7822 28.5796 28.5795C29.1623 27.9968 29.937 27.6758 30.7607 27.6758C31.5845 27.6758 32.3592 27.9968 32.9418 28.5795C34.1432 29.7809 34.1445 31.7338 32.9457 32.9378ZM22.7918 53.0845C21.968 53.0845 21.1933 52.7636 20.6107 52.1809C20.028 51.5983 19.707 50.8235 19.707 49.9998C19.707 49.1761 20.028 48.4014 20.6107 47.8187C21.1933 47.2361 21.968 46.9151 22.7918 46.9151C24.4907 46.9151 25.8739 48.2957 25.8765 49.9947C25.8443 51.7272 24.4907 53.0845 22.7918 53.0845ZM32.9418 71.4202C32.3592 72.0028 31.5845 72.3238 30.7607 72.3238C29.937 72.3238 29.1623 72.0028 28.5796 71.4202C27.997 70.8375 27.676 70.0628 27.676 69.2391C27.676 68.4154 27.997 67.6406 28.5796 67.058C29.1623 66.4753 29.937 66.1544 30.7607 66.1544C31.5832 66.1544 32.3553 66.474 32.938 67.0541C34.1394 68.3032 34.142 70.2201 32.9418 71.4202ZM67.0582 67.058C67.6408 66.4753 68.4155 66.1544 69.2393 66.1544C70.063 66.1544 70.8377 66.4753 71.4204 67.058C72.623 68.2607 72.623 70.2175 71.4204 71.4202L71.8767 71.8765L71.4178 71.424L71.3984 71.4421C70.1957 72.6216 68.2493 72.6113 67.0582 71.4215C65.858 70.2188 65.858 68.262 67.0582 67.058ZM46.9153 22.7916C46.9153 21.9627 47.2388 21.1854 47.8254 20.6028C48.408 20.024 49.1814 19.7069 50.0052 19.7069H50.0296C51.7132 19.7223 53.0834 21.1068 53.0834 22.7903C53.0834 24.4906 51.7003 25.875 49.9987 25.875C48.2997 25.875 46.9153 24.4919 46.9153 22.7916ZM53.0847 77.2081C53.0847 78.9083 51.7016 80.2928 50 80.2928C48.2984 80.2928 46.9153 78.9096 46.9153 77.2081C46.9153 75.5091 48.2959 74.1272 49.9936 74.1233C51.7273 74.1556 53.0847 75.5091 53.0847 77.2081ZM50 63.7477C42.419 63.7477 36.2521 57.5808 36.2521 49.9998C36.2521 42.4188 42.4203 36.252 50 36.252C57.5797 36.252 63.7479 42.4188 63.7479 49.9998C63.7479 57.5808 57.581 63.7477 50 63.7477ZM77.2082 53.0845C75.508 53.0845 74.1235 51.7014 74.1235 49.9998C74.1235 48.2995 75.5067 46.9151 77.2082 46.9151C78.0358 46.9151 78.8118 47.2374 79.3945 47.8226C79.9784 48.4104 80.2981 49.1954 80.293 50.0295C80.2762 51.7143 78.893 53.0845 77.2082 53.0845ZM56.4853 41.4031H43.5147C42.3507 41.4031 41.4032 42.3505 41.4032 43.5145V56.4851C41.4032 57.6491 42.3507 58.5966 43.5147 58.5966H56.4853C57.6493 58.5966 58.5968 57.6491 58.5968 56.4851V43.5145C58.5968 42.3505 57.6493 41.4031 56.4853 41.4031ZM48.7818 42.6921H51.2195V46.2525H48.7818V42.6921ZM57.3077 56.4851C57.3077 56.9388 56.939 57.3075 56.4853 57.3075H43.5147C43.061 57.3075 42.6923 56.9388 42.6923 56.4851V43.5145C42.6923 43.0608 43.061 42.6921 43.5147 42.6921H47.4928V46.326C47.4928 46.9963 48.038 47.5403 48.7084 47.5403H51.2942C51.9645 47.5403 52.5098 46.995 52.5098 46.326V42.6921H56.4879C56.9416 42.6921 57.3103 43.0608 57.3103 43.5145V56.4851H57.3077Z" stroke="black" mask="url(#path-2-outside-1_7486_56607)"/>
</svg>
