<svg width="56" height="53" viewBox="0 0 56 53" fill="none" xmlns="http://www.w3.org/2000/svg">
<mask id="mask0_7197_55600" style="mask-type:alpha" maskUnits="userSpaceOnUse" x="0" y="0" width="56" height="53">
<rect width="56" height="53" fill="#D9D9D9"/>
</mask>
<g mask="url(#mask0_7197_55600)">
<path d="M50.9685 8.32289C50.9956 8.1138 50.946 7.90189 50.8293 7.72787C50.7197 7.54648 50.5499 7.41133 50.3509 7.34706L28.7796 0.0557135C28.675 0.0145583 28.5633 -0.00414585 28.4513 0.000768114C28.3393 0.00568208 28.2295 0.0341089 28.1287 0.0842745L6.62917 7.35658C6.42905 7.42166 6.25767 7.55644 6.14494 7.73739C6.0316 7.91291 5.9823 8.12353 6.00567 8.33241L9.42209 40.1605C9.43774 40.2953 9.48145 40.4252 9.55028 40.5413C9.62497 40.6565 9.71908 40.7572 9.82823 40.8388L27.9836 52.9689C28.0837 53.0355 28.1956 53.0814 28.3129 53.1038C28.4303 53.1263 28.5509 53.1249 28.6677 53.0998C28.7609 53.0783 28.8507 53.0438 28.9346 52.9974C28.9549 52.9855 28.9744 52.9722 28.9929 52.9576L47.1483 40.8275C47.2604 40.752 47.355 40.6524 47.4255 40.5357C47.496 40.4189 47.5406 40.2878 47.5562 40.1516L50.9726 8.32349M49.0864 8.86912L45.7982 39.5125L28.4889 51.0856L11.1824 39.5238L7.89423 8.88042L28.5011 1.91395L49.0823 8.86793M38.8115 24.3676C38.8069 23.1401 38.3568 21.958 37.5482 21.0497C38.5644 24.7845 37.3256 28.0571 33.8317 30.8675C34.4847 30.9715 35.1522 30.9288 35.7874 30.7424C36.4226 30.556 37.0104 30.2303 37.5097 29.7882C35.492 31.8906 33.348 32.9681 31.0778 33.0209C31.5125 33.5315 32.0589 33.9304 32.6727 34.1851C33.2865 34.4398 33.9505 34.5433 34.6108 34.487C31.2501 35.2939 28.2567 34.1038 25.6307 30.9169C25.4489 31.7956 25.9886 32.8694 27.25 34.1383C24.6535 32.8924 23.3552 30.8981 23.3552 28.1554C23.3031 25.1633 24.8277 23.2184 27.9289 22.3207C33.8601 24.8091 36.963 24.8697 37.2376 22.5028C37.0045 20.7074 35.6136 19.037 33.0648 17.4915C31.47 16.5073 29.6307 16.0141 27.768 16.0712C27.4685 15.7336 27.0999 15.4675 26.6883 15.2917C26.2767 15.116 25.8322 15.0349 25.3865 15.0543C25.1171 15.0367 24.847 15.0771 24.5939 15.1731C24.3408 15.269 24.1104 15.4183 23.9175 15.6113C23.7322 15.8271 23.5801 15.9994 23.4613 16.1283C23.2619 16.3479 23.0478 16.5529 22.8203 16.7418C22.2726 17.1999 21.6025 17.4789 20.8973 17.5427C19.8252 17.63 19.293 18.1641 19.3007 19.1451C19.3601 19.7114 19.3244 20.2839 19.1953 20.8379C18.9313 21.2372 18.6019 21.587 18.2215 21.872C18.0043 22.0149 17.8202 22.2043 17.6819 22.4272C17.5436 22.6501 17.4546 22.9011 17.4209 23.1626C17.4088 23.8135 17.5745 24.4548 17.8993 25.0149C17.9641 25.2463 17.9832 25.4884 17.9555 25.7274C17.9278 25.9663 17.8538 26.1972 17.7379 26.4067C17.5079 26.755 17.3873 26.9406 17.376 26.9636C17.3001 27.1448 17.2863 27.347 17.337 27.5372C17.3864 27.769 17.4709 27.9914 17.5876 28.1965C17.8907 28.6272 18.2255 29.0335 18.5892 29.4121C19.2706 31.6462 20.6164 33.6082 22.4398 35.0255L22.9741 35.4575C23.4506 35.8203 23.9549 36.1432 24.4822 36.4232C26.1632 37.3353 28.0367 37.8151 29.9404 37.8209C34.644 37.5785 37.8766 35.2964 39.6384 30.9746C37.9912 32.2285 36.667 32.9047 35.6655 33.003C38.7923 31.1926 40.1704 28.5507 39.7998 25.0774C38.9428 26.793 38.1843 27.9123 37.5243 28.4351C38.332 27.236 38.7788 25.822 38.8098 24.367M30.8366 19.7139C30.9341 19.6192 31.0635 19.5663 31.1981 19.5663C31.3328 19.5663 31.4622 19.6192 31.5597 19.7139C31.6099 19.7618 31.6497 19.8199 31.6765 19.8845C31.7033 19.9491 31.7165 20.0187 31.7153 20.0888C31.7169 20.1582 31.7038 20.2271 31.677 20.2908C31.6501 20.3546 31.6101 20.4117 31.5597 20.4583C31.4622 20.5531 31.3328 20.6059 31.1981 20.6059C31.0635 20.6059 30.9341 20.5531 30.8366 20.4583C30.7875 20.4109 30.7488 20.3535 30.7229 20.2899C30.697 20.2262 30.6845 20.1577 30.6862 20.0888C30.6851 20.019 30.698 19.9497 30.7242 19.8852C30.7504 19.8208 30.7892 19.7624 30.8383 19.7139H30.8366Z" fill="black"/>
</g>
</svg>
