<svg width="56" height="53" viewBox="0 0 56 53" fill="none" xmlns="http://www.w3.org/2000/svg">
<mask id="mask0_7197_55616" style="mask-type:alpha" maskUnits="userSpaceOnUse" x="0" y="0" width="56" height="53">
<rect width="56" height="53" fill="#D9D9D9"/>
</mask>
<g mask="url(#mask0_7197_55616)">
<path d="M9.26516 41.0899L5.65179 9.07851L28.4193 0.515557L51.3399 8.92737L47.7281 40.9348L28.4162 52.3546L9.26516 41.0899Z" stroke="black" stroke-width="1.11189"/>
<mask id="mask1_7197_55616" style="mask-type:luminance" maskUnits="userSpaceOnUse" x="5" y="-1" width="47" height="54">
<path d="M28.4169 -0.0776367L5.05078 8.71046L8.74388 41.4281L28.4169 52.9999L48.2495 41.2723L51.9413 8.55575L28.4169 -0.0776367Z" fill="white"/>
</mask>
<g mask="url(#mask1_7197_55616)">
<path fill-rule="evenodd" clip-rule="evenodd" d="M23.5889 22.5637H31.2681C32.3974 22.5637 33.3385 22.2273 34.0914 21.5547C34.8442 20.8821 35.2206 19.9127 35.2206 18.6466C35.2206 17.2222 34.8819 16.2198 34.2043 15.6395C33.5267 15.0592 32.548 14.769 31.2681 14.769H23.5889V22.5637ZM18.5 10.6862H31.5187C33.9198 10.6862 35.8457 11.258 37.2964 12.4017C38.7471 13.5453 39.4725 15.2738 39.4725 17.5871C39.4725 18.9907 39.1411 20.1929 38.4782 21.1936C37.8154 22.1943 36.8712 22.9676 35.6456 23.5134V23.5914C37.2964 23.9553 38.547 24.7675 39.3974 26.0282C40.2478 27.2888 40.673 28.8678 40.673 30.7653C40.673 31.857 40.4854 32.8772 40.1103 33.8259C39.7351 34.7746 39.1473 35.5934 38.3469 36.2822C37.5465 36.971 36.5211 37.5168 35.2705 37.9197C34.0199 38.3226 32.5317 38.524 30.8058 38.524H18.5V10.6862ZM23.5889 34.4411H31.8341C33.2518 34.4411 34.3524 34.0647 35.1359 33.3118C35.9194 32.5589 36.3111 31.4934 36.3111 30.1152C36.3111 28.7626 35.9194 27.7226 35.1359 26.9952C34.3524 26.2679 33.2518 25.9042 31.8341 25.9042H23.5889V34.4411Z" fill="black"/>
</g>
</g>
</svg>
