<svg width="56" height="53" viewBox="0 0 56 53" fill="none" xmlns="http://www.w3.org/2000/svg">
<mask id="mask0_7197_55644" style="mask-type:alpha" maskUnits="userSpaceOnUse" x="0" y="0" width="56" height="53">
<rect width="56" height="53" fill="#D9D9D9"/>
</mask>
<g mask="url(#mask0_7197_55644)">
<path fill-rule="evenodd" clip-rule="evenodd" d="M37.0399 15.5885C36.4537 15.1075 35.6193 15.1075 35.0331 15.5885L27.9396 21.408C27.1399 22.0638 27.1399 23.3081 27.9396 23.9642L35.2843 29.9896C35.3163 30.0158 35.3623 30.0158 35.3944 29.9896L44.9085 22.1842C44.9526 22.1482 44.9526 22.0799 44.9085 22.0439L37.0399 15.5885Z" fill="black"/>
<path fill-rule="evenodd" clip-rule="evenodd" d="M27.9427 51.9426L44.6207 38.2602C44.8601 38.0639 44.9993 37.7672 44.9993 37.4532V22.1084L26.6757 37.141C26.4363 37.3371 26.2969 37.634 26.2969 37.9478V51.1358C26.2969 52.0043 27.2804 52.486 27.9427 51.9426Z" fill="black"/>
<path fill-rule="evenodd" clip-rule="evenodd" d="M44.9994 22.1046L35.3391 30.0335L32.6914 27.861L44.9994 22.1046Z" fill="black"/>
<path fill-rule="evenodd" clip-rule="evenodd" d="M19.8275 37.3365C20.4137 37.8175 21.248 37.8175 21.8342 37.3365L28.9278 31.517C29.7275 30.8612 29.7275 29.6168 28.9278 28.9611L21.5831 22.9356C21.551 22.9091 21.5051 22.9091 21.473 22.9356L11.9588 30.741C11.9148 30.7768 11.9148 30.8451 11.9588 30.8811L19.8275 37.3365Z" fill="black"/>
<path fill-rule="evenodd" clip-rule="evenodd" d="M28.9277 0.979578L12.2497 14.6618C12.0103 14.8582 11.8711 15.1551 11.8711 15.4689V30.8135L30.1946 15.7814C30.434 15.585 30.5735 15.2881 30.5735 14.9743V1.78666C30.5735 0.918125 29.59 0.436056 28.9277 0.979578Z" fill="black"/>
<path fill-rule="evenodd" clip-rule="evenodd" d="M11.8711 30.8158L21.5314 22.8872L24.1791 25.0594L11.8711 30.8158Z" fill="black"/>
</g>
</svg>
