<svg width="56" height="53" viewBox="0 0 56 53" fill="none" xmlns="http://www.w3.org/2000/svg">
<mask id="mask0_7197_55611" style="mask-type:alpha" maskUnits="userSpaceOnUse" x="0" y="0" width="56" height="53">
<rect width="56" height="53" fill="#D9D9D9"/>
</mask>
<g mask="url(#mask0_7197_55611)">
<path d="M30.5632 47.6244H45.2222C45.4619 47.6244 45.6564 47.4296 45.6564 47.1889V41.6356C45.6564 41.3949 45.4622 41.2001 45.2222 41.2001H34.798C32.8787 41.2001 31.3232 39.64 31.3232 37.7158V31.618C31.3232 29.6935 32.8787 28.1334 34.798 28.1334H50M50 31.618H34.9065C34.6668 31.618 34.4723 31.8128 34.4723 32.0535V37.389C34.4723 37.6296 34.6665 37.8245 34.9065 37.8245H45.5482C47.467 37.8245 49.0228 39.3845 49.0228 41.309V47.5157C49.0228 49.4402 47.467 51 45.5479 51H30.4544M26.5456 25.6291V5.26689C26.5456 3.46276 25.0871 2.00024 23.2879 2.00024H11.7778C9.97864 2.00024 8.52044 3.46276 8.52044 5.26689V25.6291M23.1792 25.6291V5.92027C23.1792 5.67959 22.985 5.48477 22.745 5.48477H12.2123C11.9723 5.48477 11.7778 5.67959 11.7778 5.92027V25.6291M40.5531 12.0181H48.4798C48.7196 12.0181 48.914 12.2129 48.914 12.4536V24.2134C48.914 24.4541 48.7198 24.6489 48.4798 24.6489H34.1466C32.7072 24.6489 31.5404 23.479 31.5404 22.0359V4.61327C31.5404 3.16992 32.7072 2 34.1463 2H49.8913M49.8913 5.48452H35.2323C34.9925 5.48452 34.798 5.67935 34.798 5.92003V21.0555C34.798 21.2961 34.9923 21.491 35.2323 21.491H45.3307C45.5707 21.491 45.7651 21.2961 45.7651 21.0555V15.5024C45.7651 15.2619 45.5707 15.0668 45.3307 15.0668H40.5531M28.3915 28.1334H22.6365C20.7174 28.1334 19.1616 29.6935 19.1616 31.618V37.389C19.1616 37.6296 18.9671 37.8245 18.7273 37.8245H16.5554C16.3157 37.8245 16.1209 37.6296 16.1209 37.389V31.618C16.1209 29.6935 14.5654 28.1334 12.6463 28.1334H7M7 47.6244H12.4293C12.6691 47.6244 12.8638 47.4296 12.8638 47.1889V32.0535C12.8638 31.8128 12.6693 31.618 12.4293 31.618H7M28.3915 51H22.6365C20.7174 51 19.1616 49.4399 19.1616 47.5157V41.6353C19.1616 41.3946 18.9671 41.1998 18.7273 41.1998H16.5554C16.3157 41.1998 16.1209 41.3946 16.1209 41.6353V47.5155C16.1209 49.4399 14.5654 50.9998 12.6463 50.9998H7M28.3915 47.6242H22.9622C22.7224 47.6242 22.5277 47.4293 22.5277 47.1887V32.0532C22.5277 31.8126 22.7222 31.6177 22.9622 31.6177H28.3915" stroke="black" stroke-width="2.09942"/>
</g>
</svg>
