<svg width="56" height="53" viewBox="0 0 56 53" fill="none" xmlns="http://www.w3.org/2000/svg">
<mask id="mask0_7197_55633" style="mask-type:alpha" maskUnits="userSpaceOnUse" x="0" y="0" width="56" height="53">
<rect width="56" height="53" fill="#D9D9D9"/>
</mask>
<g mask="url(#mask0_7197_55633)">
<path d="M48.7024 11.7827C61.2224 29.7785 47.6214 53.422 26.1012 51.9331C14.5115 51.1116 4.405 40.7916 3.60051 28.957C1.84068 2.64365 34.0707 -9.24229 48.7024 11.7827ZM46.4901 38.2244C54.6104 24.8496 46.9426 7.54692 31.8081 5.0311C14.1092 2.07887 0.659078 22.1027 10.1873 37.8907C18.3831 51.5223 38.1937 51.9074 46.4901 38.2244Z" fill="black"/>
<path d="M23.2114 24.9772V44.4876L14.186 39.456C12.0742 37.9413 10.8675 37.1969 10.6412 34.3473C10.415 31.4978 10.2892 22.6154 10.6412 18.662C10.9932 14.7086 11.0937 16.6596 11.5463 15.7098L33.5442 28.0321V8.52173C35.4548 9.18919 37.0135 10.5498 38.7482 11.551C40.4829 12.5522 45.0585 14.5289 45.7875 16.4286C46.768 18.9444 46.1395 20.8698 46.1144 23.2829C46.0892 26.8512 46.8434 32.9097 46.0138 36.016C45.1842 39.1222 45.5864 37.7616 44.8574 37.4536L23.2366 24.9772H23.2114Z" fill="black"/>
<path d="M25.9766 29.5988L42.5692 39.6107C42.2424 39.6107 41.9156 39.662 41.6391 39.816C38.7479 41.3563 32.312 46.2596 29.7476 46.9271C28.9934 47.1324 25.9766 47.1838 25.9766 46.1569V29.5988Z" fill="black"/>
<path d="M30.7514 6.49445V23.4377L14.4102 13.5541C16.522 12.4502 18.7092 11.2694 20.7707 10.0371C23.7624 8.24011 27.1312 4.72311 30.7514 6.49445Z" fill="black"/>
</g>
</svg>
