<svg width="76" height="76" viewBox="0 0 76 76" fill="none" xmlns="http://www.w3.org/2000/svg">
<mask id="mask0_7039_78697" style="mask-type:alpha" maskUnits="userSpaceOnUse" x="-1" y="-1" width="78" height="78">
<rect width="76" height="76" fill="white" stroke="white" stroke-width="2"/>
</mask>
<g mask="url(#mask0_7039_78697)">
<path d="M38.5313 64.7607H13.1016V39.0576H22.7891C22.9844 39.0186 23.1016 38.8623 23.1016 38.667C23.1016 38.5107 23.0234 38.3936 22.9453 38.3545C21.8125 37.4561 21.1484 36.0889 21.1484 34.6045C21.1484 31.9873 23.2578 29.8779 25.8359 29.8779C28.4141 29.8779 30.5234 31.9873 30.5234 34.6045C30.5234 36.0889 29.8594 37.4561 28.6875 38.3545C28.6484 38.3936 28.5313 38.5107 28.5313 38.667C28.5313 38.8623 28.6484 39.0186 28.8438 39.0576H38.5313V48.667C38.6484 48.9014 38.8438 49.0967 38.9609 49.1748C39.0781 49.1748 39.1563 49.0576 39.1953 49.0186C40.0938 47.8467 41.4609 47.1826 42.9063 47.1826C45.4844 47.1826 47.5938 49.292 47.5938 51.9092C47.5938 54.5264 45.4844 56.6357 42.9063 56.6357C41.4219 56.6357 40.0938 55.9717 39.1953 54.7998C39.1563 54.7607 39.0781 54.6826 38.9609 54.6826C38.8438 54.7607 38.6875 54.9561 38.5313 55.1904V64.7607ZM14.6641 63.1982H36.9688V54.7607L37.0469 54.6045C37.2422 54.2529 37.8672 53.0811 38.9219 53.0811C39.5078 53.0811 40.0547 53.3545 40.4453 53.8232C41.0703 54.6045 41.9688 55.0732 42.9453 55.0732C44.6641 55.0732 46.0703 53.6279 46.0703 51.9092C46.0703 50.1514 44.6641 48.7451 42.9453 48.7451C41.9688 48.7451 41.0703 49.2139 40.4844 49.9951C40.0938 50.4639 39.5469 50.7373 38.9609 50.7373C37.9453 50.7373 37.2813 49.5654 37.0859 49.2139L37.0078 49.0576V40.6201H28.7656C27.7891 40.5029 27.0469 39.6826 27.0469 38.667C27.0469 38.0811 27.3203 37.5342 27.7891 37.1436C28.5703 36.5186 29.0391 35.6201 29.0391 34.6045C29.0391 32.8467 27.6328 31.4404 25.9141 31.4404C24.1953 31.4404 22.7891 32.8857 22.7891 34.6045C22.7891 35.5811 23.2188 36.5186 24 37.1045C24.4688 37.4951 24.7422 38.042 24.7422 38.6279C24.7422 39.6436 24 40.4639 22.9844 40.5811H22.9063H14.6641V63.1982Z" fill="black"/>
<path d="M23.2969 40.542H13.1016V14.7998H38.5313V24.6045C38.5703 24.7998 38.7266 24.917 38.8828 24.917C39.0391 24.917 39.1172 24.8389 39.1563 24.7607C40.0547 23.5889 41.4219 22.9248 42.8672 22.9248C44.1172 22.9248 45.2891 23.4326 46.1875 24.3311C47.0859 25.2295 47.5547 26.4014 47.5547 27.6904C47.5547 30.3076 45.4453 32.417 42.8672 32.417C41.4219 32.417 40.0547 31.7529 39.1563 30.5811C39.1172 30.542 39.0391 30.4248 38.8828 30.4248C38.6875 30.4248 38.5313 30.542 38.5313 30.7373V40.542H28.3359L28.1797 40.4639C28.1016 40.4248 28.0625 40.4248 28.0234 40.3857L27.9063 40.3076C27.8672 40.3076 27.8672 40.2686 27.8281 40.2686L27.75 40.2295L27.6328 40.1123C27.5156 40.0342 27.4375 39.917 27.3594 39.7998H27.3203C27.2813 39.7607 27.2422 39.6826 27.2031 39.6436C27.1641 39.5654 27.125 39.5264 27.125 39.4482C27.125 39.4092 27.0859 39.3701 27.0859 39.3311C27.0469 39.2529 27.0469 39.2139 27.0469 39.1357C27.0469 39.0967 27.0469 39.0576 27.0078 39.0186C26.9688 38.9014 26.9688 38.7842 26.9688 38.667C26.9688 38.0811 27.2422 37.5342 27.7109 37.1436C28.4922 36.5186 28.9609 35.6201 28.9609 34.6045C28.9609 32.8467 27.5547 31.4404 25.8359 31.4404C24.1172 31.4404 22.7109 32.8857 22.7109 34.6045C22.7109 35.5811 23.1406 36.5186 23.9219 37.1045C24.3906 37.4951 24.6641 38.042 24.6641 38.6279C24.6641 38.7451 24.6641 38.8623 24.625 38.9404L24.5859 39.0967C24.5859 39.1357 24.5469 39.1748 24.5469 39.2529C24.5078 39.3311 24.5078 39.3701 24.4688 39.4092C24.4297 39.4482 24.4297 39.5264 24.3906 39.5654C24.3906 39.6045 24.3516 39.6436 24.3125 39.6826L24.2344 39.7998C24.1563 39.8779 24.0781 39.9951 23.9609 40.0732L23.8828 40.1514L23.8047 40.1904C23.7656 40.1904 23.7656 40.2295 23.7266 40.2295L23.5703 40.3076C23.5313 40.3076 23.4922 40.3467 23.4531 40.3467L23.2969 40.542ZM14.6641 38.9795H22.9453L23.0625 38.8232V38.7842V38.7451C23.0625 38.7451 23.0625 38.7451 23.0625 38.7061C23.0625 38.5498 22.9453 38.4326 22.9063 38.3936C21.7734 37.4951 21.1094 36.1279 21.1094 34.6436C21.1094 32.0264 23.2188 29.917 25.7969 29.917C28.375 29.917 30.4844 32.0264 30.4844 34.6436C30.4844 36.1279 29.8203 37.4951 28.6484 38.3936C28.6094 38.4326 28.4922 38.5498 28.4922 38.7061C28.4922 38.7451 28.4922 38.7451 28.4922 38.7842L28.5703 38.9404L28.6484 39.0186H36.9297V30.6592C37.0469 29.6436 37.8672 28.9014 38.8438 28.9014C39.4297 28.9014 39.9766 29.1748 40.3672 29.6436C40.9922 30.4248 41.8906 30.8936 42.8672 30.8936C44.5859 30.8936 45.9922 29.4482 45.9922 27.7295C45.9922 26.8701 45.6797 26.0889 45.0547 25.4639C44.4688 24.8779 43.6875 24.5264 42.8281 24.5264C41.8516 24.5264 40.9531 24.9951 40.3672 25.7764C39.9766 26.2451 39.4297 26.5186 38.8438 26.5186C37.8672 26.5186 37.0078 25.7764 36.9297 24.7607V24.6826V16.3623H14.6641V38.9795Z" fill="black"/>
<path d="M62.5547 64.7998L37.0859 64.7607V54.8389C37.2031 53.8623 38.0234 53.0811 39 53.0811C39.5859 53.0811 40.1719 53.3545 40.5234 53.8232C41.1484 54.6045 42.0469 55.0732 43.0234 55.0732C44.7422 55.0732 46.1484 53.6279 46.1484 51.9092C46.1484 50.1514 44.7422 48.7061 43.0234 48.7061C42.0469 48.7061 41.1484 49.1357 40.5625 49.9561C40.1719 50.4248 39.625 50.6982 39.0391 50.6982C38.0234 50.6982 37.2031 49.9561 37.125 48.9404V48.8623V39.0186H47.1641L47.2812 39.0576C48.1016 39.292 48.6875 40.0732 48.6875 40.9326C48.6875 41.5186 48.4141 42.0654 47.9453 42.4561C47.1641 43.0811 46.6953 43.9795 46.6953 44.9951C46.6953 46.7529 48.1016 48.1982 49.8203 48.1982C51.5391 48.1982 52.9453 46.7529 52.9453 45.0342C52.9453 44.0576 52.5156 43.1201 51.7344 42.4951C51.2656 42.1045 50.9922 41.5576 50.9922 40.9717C50.9922 40.0732 51.5781 39.3311 52.3984 39.0967L52.5156 39.0576H62.5547V64.7998ZM38.6484 63.1982L60.9922 63.2373L61.0313 40.6201H52.7891C52.6719 40.6982 52.5938 40.8154 52.5938 40.9717C52.5938 41.1279 52.6719 41.2451 52.75 41.2842C53.8828 42.1826 54.5469 43.5498 54.5469 45.0342C54.5469 47.6514 52.4375 49.7607 49.8594 49.7607C47.2813 49.7607 45.1719 47.6123 45.1719 44.9951C45.1719 43.5107 45.8359 42.1436 47.0078 41.2451C47.0469 41.2061 47.1641 41.0889 47.1641 40.9326C47.1641 40.7764 47.0859 40.6592 46.9688 40.5811H38.7266V48.8232C38.7656 49.0186 38.9219 49.1357 39.0781 49.1357C39.2344 49.1357 39.3125 49.0576 39.3516 48.9795C40.25 47.8076 41.5781 47.1436 43.0625 47.1436C45.6406 47.1436 47.75 49.292 47.75 51.9092C47.75 54.5264 45.6406 56.6357 43.0625 56.6357C41.6172 56.6357 40.25 55.9717 39.3516 54.7607C39.3125 54.7217 39.2344 54.6045 39.0781 54.6045C38.8828 54.6045 38.7656 54.7217 38.7266 54.917L38.6484 63.1982Z" fill="black"/>
<path d="M38.2578 14.7998H37.5156V16.3623H38.2578V14.7998Z" fill="black"/>
<path d="M60.0547 16.3623H58.4922V14.7998H60.0547V16.3623ZM56.9297 16.3623H55.3672V14.7998H56.9297V16.3623ZM53.8047 16.3623H52.2422V14.7998H53.8047V16.3623ZM50.6797 16.3623H49.1172V14.7998H50.6797V16.3623ZM47.5547 16.3623H45.9922V14.7998H47.5547V16.3623ZM44.4688 16.3623H42.9063V14.7998H44.4688V16.3623ZM41.3438 16.3623H39.7812V14.7998H41.3438V16.3623Z" fill="black"/>
<path d="M61.7734 16.3623H61.0312V16.3232H60.9922V15.5811H61.0312V14.7998H62.5547V16.3232H61.7734V16.3623Z" fill="black"/>
<path d="M62.5547 38.3936H60.9922V36.8311H62.5547V38.3936ZM62.5547 35.2295H60.9922V33.667H62.5547V35.2295ZM62.5547 32.1045H60.9922V30.542H62.5547V32.1045ZM62.5547 28.9404H60.9922V27.3779H62.5547V28.9404ZM62.5547 25.7764H60.9922V24.2139H62.5547V25.7764ZM62.5547 22.6123H60.9922V21.0498H62.5547V22.6123ZM62.5547 19.4482H60.9922V17.8857H62.5547V19.4482Z" fill="black"/>
<path d="M62.5547 39.4092H60.9922V40.1514H62.5547V39.4092Z" fill="black"/>
</g>
</svg>
