<svg width="80" height="80" viewBox="0 0 80 80" fill="none" xmlns="http://www.w3.org/2000/svg">
<mask id="mask0_7380_56085" style="mask-type:alpha" maskUnits="userSpaceOnUse" x="-1" y="-1" width="82" height="82">
<rect width="80" height="80" fill="white" stroke="white" stroke-width="2"/>
</mask>
<g mask="url(#mask0_7380_56085)">
<path d="M53.6271 59.3573L59.3556 53.6288C60.2456 52.7002 59.5456 51.7531 58.9128 50.9431C57.4585 49.0788 58.7128 45.9473 61.0985 45.6431L62.1271 45.4716C62.4627 45.4172 62.7679 45.245 62.9878 44.9857C63.2078 44.7265 63.3281 44.3973 63.3271 44.0573V35.9431C63.3281 35.6031 63.2078 35.2739 62.9878 35.0147C62.7679 34.7555 62.4627 34.5832 62.1271 34.5288L61.0985 34.3573C58.7414 34.0602 57.4328 30.9559 58.9128 29.0574L59.5128 28.2145C59.9128 27.6431 59.8556 26.8716 59.3556 26.3716L53.6271 20.6431C52.6928 19.7431 51.7585 20.4502 50.9414 21.0859C49.0628 22.5388 45.9499 21.2888 45.6414 18.9002L45.4699 17.8716C45.4155 17.536 45.2432 17.2309 44.984 17.0109C44.7248 16.791 44.3956 16.6707 44.0556 16.6716H35.9414C35.6014 16.6707 35.2722 16.791 35.013 17.0109C34.7538 17.2309 34.5815 17.536 34.5271 17.8716L34.3556 18.9002C34.1699 20.0431 33.4128 20.9859 32.2842 21.4574C31.2128 21.9002 30.0128 21.7716 29.0556 21.0859C28.2628 20.4731 27.2985 19.7288 26.3699 20.6431L20.6414 26.3716C19.7514 27.3002 20.4514 28.2473 21.0842 29.0574C22.5385 30.9216 21.2842 34.0531 18.8985 34.3573L17.8699 34.5288C17.5343 34.5832 17.2291 34.7555 17.0092 35.0147C16.7892 35.2739 16.6689 35.6031 16.6699 35.9431V44.0573C16.6689 44.3973 16.7892 44.7265 17.0092 44.9857C17.2291 45.245 17.5343 45.4172 17.8699 45.4716L18.8985 45.6431C21.2556 45.9402 22.5642 49.0445 21.0842 50.9431C20.4742 51.7288 19.7371 52.7073 20.6414 53.6288L26.3699 59.3573C27.3042 60.2573 28.2385 59.5502 29.0556 58.9145C30.9199 57.4588 34.0514 58.7145 34.3556 61.1002L34.5271 62.1288C34.5815 62.4644 34.7538 62.7696 35.013 62.9895C35.2722 63.2095 35.6014 63.3298 35.9414 63.3288H44.0556C44.3956 63.3298 44.7248 63.2095 44.984 62.9895C45.2432 62.7696 45.4155 62.4644 45.4699 62.1288L45.6414 61.1002C45.9371 58.7559 49.0371 57.4316 50.9414 58.9145C51.7342 59.5274 52.6985 60.2716 53.6271 59.3573ZM39.9985 50.5573C34.1842 50.5573 29.4414 45.8145 29.4414 40.0002C30.0056 26.0073 49.9942 26.0102 50.5556 40.0002C50.5556 45.8145 45.8128 50.5573 39.9985 50.5573Z" fill="black"/>
<path d="M40 32.3C35.7571 32.3 32.3 35.7571 32.3 40C32.6657 50.19 47.3357 50.1871 47.7 40C47.7 35.7571 44.2429 32.3 40 32.3ZM27.3857 64.0714C26.6 64.0714 25.9571 64.7143 25.9571 65.5V69.8C25.9571 71.4571 24.6 72.8143 22.9286 72.8143H11.3C9.60714 66.3514 0.0857143 67.5171 0 74.2429C0.1 80.9786 9.59143 82.1286 11.3143 75.6714H22.9286C26.1714 75.6714 28.8143 73.0429 28.8143 69.8V65.5C28.8143 64.7143 28.1714 64.0714 27.3857 64.0714ZM52.6143 15.9286C53.4 15.9286 54.0429 15.2857 54.0429 14.5V10.2C54.0429 8.54286 55.4 7.18571 57.0714 7.18571H68.7C70.3929 13.6486 79.9143 12.4829 80 5.75714C79.9 -0.978572 70.4086 -2.12857 68.6857 4.32857H57.0714C53.8286 4.32857 51.1857 6.95714 51.1857 10.2V14.5C51.1857 15.2857 51.8286 15.9286 52.6143 15.9286ZM5.75714 11.5143C7.03077 11.5116 8.26718 11.0846 9.27099 10.3007C10.2748 9.51679 10.9887 8.42072 11.3 7.18571H22.9286C24.6 7.18571 25.9571 8.54286 25.9571 10.2V14.5C25.9571 15.2857 26.6 15.9286 27.3857 15.9286C28.1714 15.9286 28.8143 15.2857 28.8143 14.5V10.2C28.8143 6.95714 26.1714 4.32857 22.9286 4.32857H11.3143C10.6714 1.84286 8.42857 0 5.75714 0C-1.84286 0.242857 -1.85429 11.2671 5.75714 11.5143ZM74.2429 68.4857C72.9692 68.4884 71.7328 68.9154 70.729 69.6993C69.7252 70.4832 69.0113 71.5793 68.7 72.8143H57.0714C55.4 72.8143 54.0429 71.4571 54.0429 69.8V65.5C54.0429 64.7143 53.4 64.0714 52.6143 64.0714C51.8286 64.0714 51.1857 64.7143 51.1857 65.5V69.8C51.1857 73.0429 53.8286 75.6714 57.0714 75.6714H68.6857C69.3286 78.1572 71.5714 80 74.2429 80C81.8429 79.7571 81.8543 68.7329 74.2429 68.4857Z" fill="black"/>
</g>
</svg>
