<svg width="76" height="76" viewBox="0 0 76 76" fill="none" xmlns="http://www.w3.org/2000/svg">
<mask id="mask0_7039_78725" style="mask-type:alpha" maskUnits="userSpaceOnUse" x="-1" y="-1" width="78" height="78">
<rect width="76" height="76" fill="white" stroke="white" stroke-width="2"/>
</mask>
<g mask="url(#mask0_7039_78725)">
<path fill-rule="evenodd" clip-rule="evenodd" d="M37.7562 53.4964C37.6884 53.4964 37.6342 53.4829 37.5663 53.4693C35.9797 53.076 34.4744 52.4115 33.1183 51.503C31.7893 50.6215 30.623 49.523 29.6331 48.2483C28.6567 46.9735 27.8837 45.5496 27.3684 44.0308C26.8259 42.4712 26.5547 40.8303 26.5547 39.1623V30.5103C26.5547 30.117 26.853 29.7915 27.2463 29.7509C31.2604 29.344 34.8948 27.8116 37.2138 25.5333C37.5121 25.235 37.9867 25.235 38.2851 25.5333C40.604 27.8116 44.2384 29.344 48.2525 29.7509C48.6458 29.7915 48.9442 30.117 48.9442 30.5103V39.1623C48.9442 39.2437 48.9442 39.325 48.9442 39.4064C48.8357 46.0785 44.3062 51.8691 37.9325 53.4693C37.8783 53.4829 37.8105 53.4964 37.7562 53.4964ZM28.0871 31.1883V39.1623C28.0871 45.1835 32.047 50.4045 37.7562 51.9233C43.357 50.4316 47.3304 45.2919 47.4253 39.3793C47.4253 39.3115 47.4253 39.2301 47.4253 39.1623V31.1883C45.4861 30.9307 43.6417 30.4425 41.9602 29.7102C40.3464 29.0185 38.936 28.1506 37.7698 27.12C36.5899 28.1506 35.1931 29.0185 33.5794 29.7102C31.8571 30.4425 30.0263 30.9442 28.0871 31.1883Z" fill="black" stroke="black" stroke-width="0.8"/>
<path fill-rule="evenodd" clip-rule="evenodd" d="M42.1121 45.2785H33.4058C32.9854 45.2785 32.6328 44.9395 32.6328 44.5056V38.064C32.6328 37.6436 32.9718 37.291 33.4058 37.291H42.1121C42.5325 37.291 42.885 37.63 42.885 38.064V44.5056C42.8715 44.9395 42.5325 45.2785 42.1121 45.2785ZM34.1652 43.7461H41.3391V38.837H34.1652V43.7461Z" fill="black" stroke="black" stroke-width="0.8"/>
<path fill-rule="evenodd" clip-rule="evenodd" d="M40.39 38.8371C39.9696 38.8371 39.617 38.498 39.617 38.0641V35.2569C39.617 34.7416 39.4136 34.2534 39.061 33.8872C38.7084 33.5211 38.2337 33.3312 37.7455 33.3312C36.7149 33.3312 35.8741 34.1992 35.8741 35.2569V38.0505C35.8741 38.4709 35.5351 38.8235 35.1011 38.8235C34.6807 38.8235 34.3281 38.4845 34.3281 38.0505V35.2569C34.3281 33.3448 35.8605 31.7988 37.732 31.7988C38.6406 31.7988 39.5085 32.165 40.1459 32.8159C40.7832 33.4669 41.1358 34.3348 41.1358 35.2569V38.0505C41.163 38.498 40.8239 38.8371 40.39 38.8371Z" fill="black" stroke="black" stroke-width="0.8"/>
<path fill-rule="evenodd" clip-rule="evenodd" d="M16.2912 20.6652C14.5825 20.6652 13.1992 19.2548 13.1992 17.5325C13.1992 15.8103 14.5825 14.3999 16.2912 14.3999C17.9999 14.3999 19.3831 15.8103 19.3831 17.5325C19.3831 19.2548 17.9863 20.6652 16.2912 20.6652ZM16.2912 15.9323C15.4368 15.9323 14.7316 16.6511 14.7316 17.5325C14.7316 18.414 15.4232 19.1327 16.2912 19.1327C17.1591 19.1327 17.8371 18.414 17.8371 17.5325C17.8371 16.6511 17.1455 15.9323 16.2912 15.9323Z" fill="black" stroke="black" stroke-width="0.8"/>
<path fill-rule="evenodd" clip-rule="evenodd" d="M59.2285 40.1662H48.1897C47.7693 40.1662 47.4167 39.8272 47.4167 39.3932C47.4167 38.9728 47.7558 38.6202 48.1897 38.6202H58.4555V29.6156C58.4555 23.3775 53.4786 18.2921 47.3489 18.2921H18.6128C18.1924 18.2921 17.8398 17.953 17.8398 17.5191C17.8398 17.0987 18.1789 16.7461 18.6128 16.7461H47.3489C49.0576 16.7461 50.7121 17.0851 52.2716 17.7632C53.7769 18.4141 55.133 19.3363 56.2857 20.5161C57.452 21.6959 58.3606 23.0656 58.998 24.598C59.6625 26.1847 59.9879 27.8662 59.9879 29.6021V39.3661C59.9879 39.8272 59.6489 40.1662 59.2285 40.1662Z" fill="black" stroke="black" stroke-width="0.8"/>
<path fill-rule="evenodd" clip-rule="evenodd" d="M59.2248 64.4C57.5161 64.4 56.1328 62.9897 56.1328 61.2674C56.1328 59.5451 57.5161 58.1348 59.2248 58.1348C60.9335 58.1348 62.3167 59.5451 62.3167 61.2674C62.3167 62.9897 60.9199 64.4 59.2248 64.4ZM59.2248 59.6672C58.3704 59.6672 57.6652 60.3859 57.6652 61.2674C57.6652 62.1489 58.3568 62.8676 59.2248 62.8676C60.0927 62.8676 60.7707 62.1489 60.7707 61.2674C60.7707 60.3859 60.0791 59.6672 59.2248 59.6672Z" fill="black" stroke="black" stroke-width="0.8"/>
<path fill-rule="evenodd" clip-rule="evenodd" d="M56.8907 62.0268H28.1546C26.4459 62.0268 24.7915 61.6878 23.2319 61.0097C21.7266 60.3588 20.3705 59.4366 19.2178 58.2568C18.0516 57.077 17.143 55.7073 16.5056 54.1749C15.8411 52.5882 15.5156 50.9066 15.5156 49.1708V39.4068C15.5156 38.9864 15.8547 38.6338 16.2886 38.6338H27.3274C27.7478 38.6338 28.1004 38.9728 28.1004 39.4068C28.1004 39.8272 27.7614 40.1798 27.3274 40.1798H17.048V49.1844C17.048 55.4225 22.025 60.5079 28.1546 60.5079H56.8907C57.3111 60.5079 57.6637 60.847 57.6637 61.2809C57.6637 61.7149 57.3247 62.0268 56.8907 62.0268Z" fill="black" stroke="black" stroke-width="0.8"/>
</g>
</svg>
