<svg width="80" height="80" viewBox="0 0 80 80" fill="none" xmlns="http://www.w3.org/2000/svg">
<mask id="mask0_7380_56054" style="mask-type:alpha" maskUnits="userSpaceOnUse" x="-1" y="-1" width="82" height="82">
<rect width="80" height="80" fill="white" stroke="white" stroke-width="2"/>
</mask>
<g mask="url(#mask0_7380_56054)">
<path fill-rule="evenodd" clip-rule="evenodd" d="M56.6807 43.7141C62.4635 46.0979 64.4129 48.654 64.8914 51.6962L64.7656 51.5101C65.2091 54.0756 64.6684 55.7656 64.5695 56.0748C64.5672 56.0821 64.5651 56.0885 64.5633 56.0943C64.5037 56.3014 64.4364 56.503 64.3619 56.6991C61.7691 63.5223 50.4014 63.6261 45.7768 58.8837C45.5802 58.6506 45.3966 58.4409 45.2242 58.2439C44.7955 57.754 44.4355 57.3427 44.1143 56.8459C43.9181 56.5425 43.7363 56.2072 43.5621 55.8025L48.5656 52.8825C49.919 54.9663 51.1467 56.0943 53.3641 56.5944C56.3608 56.9694 59.3957 55.9276 58.7395 52.6769C58.3347 51.1266 56.3249 50.2667 53.9798 49.2633C52.2862 48.5386 50.4178 47.7392 48.8527 46.5508C45.0795 43.967 44.18 37.7158 47.297 34.129C48.3633 32.7954 50.1241 31.7952 51.9724 31.3368L53.9 31.0895C54.0839 31.0853 54.2642 31.0837 54.4412 31.0847C57.8568 31.1043 60.011 32.1001 61.6487 33.9623C62.1463 34.4596 62.5127 34.9625 63.2509 36.1294C62.4479 36.6375 61.9719 36.9387 61.4988 37.2441C60.929 37.612 60.3631 37.986 59.2347 38.7353C59 38.8912 58.7409 39.0633 58.4524 39.255C57.8345 37.9214 56.8502 37.0879 55.7839 36.7545C54.1434 36.2544 52.0517 36.7934 51.6416 38.5882C51.4803 39.1299 51.5185 39.63 51.7673 40.5469C52.2991 41.781 53.8381 42.4546 55.4631 43.1657C55.8684 43.3431 56.279 43.5228 56.6807 43.7141ZM31.6592 56.7444C30.846 56.8697 30.0195 56.7264 29.5002 56.561C29.2784 56.4495 29.079 56.3293 28.8967 56.1995C28.1887 55.6953 27.7374 55.045 27.2308 54.1856C27.1867 54.1109 27.1455 54.0387 27.1077 53.9727C26.9981 53.7809 26.9182 53.641 26.8836 53.641L21.8937 56.7666C21.9287 56.8401 21.9644 56.9131 22.0007 56.9857C22.8304 58.6424 24.0102 60.063 25.5138 60.9813C27.0686 61.9237 28.9791 62.4421 31.0522 62.4629C31.5351 62.4678 32.0269 62.4456 32.5251 62.3955C32.5279 62.3952 32.5306 62.3949 32.5334 62.3947C33.1091 62.3364 33.6933 62.2408 34.2823 62.1065C36.4231 61.4786 38.2687 60.1867 39.2339 58.1863C39.462 57.7637 39.6449 57.3254 39.7912 56.8724C39.8886 56.5708 39.9697 56.2627 40.0373 55.9484C40.2695 54.8671 40.34 53.7118 40.3524 52.4933C40.3592 51.8206 40.3484 51.1286 40.3372 50.4192C40.3294 49.918 40.3213 49.4081 40.3193 48.8901C40.3248 47.9407 40.3284 46.9911 40.3307 46.0413C40.3376 43.1885 40.3321 40.3334 40.3267 37.4712C40.323 35.5588 40.3193 33.6432 40.3193 31.723L40.3303 31.5674H34.1838C34.1838 34.2585 34.1777 36.9413 34.1716 39.6252C34.1654 42.3111 34.1592 44.9981 34.1592 47.6955C34.1592 48.0761 34.1614 48.4532 34.1644 48.8243C34.1668 49.1214 34.1698 49.4146 34.1728 49.7025C34.1993 52.2894 34.2215 54.4542 33.7819 55.2274C33.4322 55.9693 32.869 56.387 32.2488 56.6007C32.0562 56.6671 31.8581 56.7138 31.6592 56.7444ZM38.9029 73.3664C39.0124 73.881 39.1775 74.2241 39.4109 74.3569C39.4567 74.3835 39.2745 74.0321 38.9029 73.3664ZM15.6464 66.861C13.8526 65.9609 12.1097 64.9599 10.3667 63.9587C9.31075 63.3522 8.25472 62.7456 7.18724 62.1614C5.22094 61.1383 3.8614 59.0003 3.87524 56.7595V22.9764C3.85462 20.7785 5.1475 18.661 7.06436 17.6236C14.4921 13.4097 21.9189 9.19328 29.3454 4.97703C31.7682 3.60151 34.191 2.22602 36.6138 0.850621C38.5804 -0.280983 41.1419 -0.286094 43.1068 0.850621C47.2032 3.17755 51.3001 5.50296 55.397 7.82835C61.1865 11.1144 66.9758 14.4004 72.7636 17.6906C74.6225 18.7433 75.866 20.8231 75.847 22.9764V56.7592C75.8609 59.0017 74.4946 61.1312 72.5333 62.16C67.3506 65.0974 62.1694 68.0367 56.9883 70.9758C52.3197 73.6242 47.6513 76.2726 42.9822 78.9193C40.9749 80.0731 38.3621 79.9842 36.4175 78.7359C34.8094 77.7988 33.1999 76.8642 31.5904 75.9296C30.2434 75.1475 28.8966 74.3654 27.5507 73.5819C27.4066 73.4956 26.6769 73.1008 25.6436 72.5418C22.3497 70.7598 15.9709 67.3089 15.6464 66.861ZM9.38448 57.1306C9.35045 57.1335 9.33394 57.1363 9.33558 57.1392C9.3455 57.1567 9.36224 57.1523 9.38448 57.1306Z" fill="black"/>
</g>
</svg>
