<svg width="76" height="76" viewBox="0 0 76 76" fill="none" xmlns="http://www.w3.org/2000/svg">
<mask id="mask0_7039_78718" style="mask-type:alpha" maskUnits="userSpaceOnUse" x="-1" y="-1" width="78" height="78">
<rect width="76" height="76" fill="white" stroke="white" stroke-width="2"/>
</mask>
<g mask="url(#mask0_7039_78718)">
<path d="M62.6026 34.1544C60.4061 24.6158 52.8397 16.9594 43.3258 14.6502C42.9082 14.5515 42.4906 14.8052 42.3893 15.2208C42.288 15.6368 42.5439 16.056 42.9599 16.1573C51.9089 18.3295 59.0256 25.5305 61.0919 34.5028C61.1746 34.8609 61.4935 35.1038 61.8465 35.1038C61.9039 35.1038 61.9628 35.0976 62.0212 35.0842C62.4383 34.9881 62.6988 34.572 62.6026 34.1544Z" fill="black" stroke="black" stroke-width="0.4"/>
<path d="M28.6932 63.126C22.0912 60.7093 16.8298 55.5674 14.2586 49.0186C14.102 48.6196 13.6529 48.4237 13.2539 48.5798C12.8554 48.7364 12.659 49.1865 12.8156 49.5845C15.5491 56.5468 21.1418 62.0128 28.1603 64.5814C28.2482 64.614 28.3381 64.629 28.427 64.629C28.7428 64.629 29.04 64.4341 29.1553 64.1204C29.302 63.7178 29.0953 63.2728 28.6932 63.126Z" fill="black" stroke="black" stroke-width="0.4"/>
<path d="M59.1494 39.2659H51.5209C51.1307 31.9424 45.2425 26.0541 37.9195 25.6639V18.0365C37.9195 17.6085 37.5727 17.2612 37.1442 17.2612C36.7158 17.2612 36.369 17.6085 36.369 18.0365V25.6639C29.0455 26.0541 23.1577 31.9419 22.767 39.2654H15.1385C14.7101 39.2654 14.3633 39.6127 14.3633 40.0406C14.3633 40.4685 14.7101 40.8159 15.1385 40.8159H22.767C23.1577 48.1394 29.0455 54.0276 36.369 54.4173V62.0453C36.369 62.4732 36.7158 62.8205 37.1442 62.8205C37.5727 62.8205 37.9195 62.4732 37.9195 62.0453V54.4178C45.2425 54.0276 51.1307 48.1399 51.5209 40.8164H59.1489C59.5773 40.8164 59.9241 40.4691 59.9241 40.0411C59.9241 39.6132 59.5773 39.2659 59.1494 39.2659ZM37.9195 52.8632V49.8403C37.9195 49.4123 37.5727 49.065 37.1442 49.065C36.7158 49.065 36.369 49.4123 36.369 49.8403V52.8632C29.9008 52.4761 24.7087 47.284 24.3216 40.8159H27.344C27.7725 40.8159 28.1193 40.4685 28.1193 40.0406C28.1193 39.6127 27.7725 39.2654 27.344 39.2654H24.3216C24.7087 32.7972 29.9008 27.6051 36.369 27.218V30.241C36.369 30.6689 36.7158 31.0162 37.1442 31.0162C37.5727 31.0162 37.9195 30.6689 37.9195 30.241V27.218C44.3876 27.6051 49.5797 32.7972 49.9668 39.2654H46.9439C46.5154 39.2654 46.1686 39.6127 46.1686 40.0406C46.1686 40.4685 46.5154 40.8159 46.9439 40.8159H49.9668C49.5797 47.2845 44.3871 52.4761 37.9195 52.8632Z" fill="black" stroke="black" stroke-width="0.4"/>
<path d="M37.1447 35.29C34.5254 35.29 32.3945 37.4209 32.3945 40.0402C32.3945 42.6595 34.5254 44.7904 37.1447 44.7904C39.764 44.7904 41.8949 42.6595 41.8949 40.0402C41.8949 37.4209 39.764 35.29 37.1447 35.29ZM37.1447 43.2405C35.3803 43.2405 33.945 41.8052 33.945 40.0408C33.945 38.2763 35.3803 36.8411 37.1447 36.8411C38.9092 36.8411 40.3444 38.2763 40.3444 40.0408C40.3444 41.8052 38.9092 43.2405 37.1447 43.2405Z" fill="black" stroke="black" stroke-width="0.4"/>
</g>
</svg>
