<svg width="93" height="92" viewBox="0 0 93 92" fill="none" xmlns="http://www.w3.org/2000/svg">
<mask id="mask0_7374_57299" style="mask-type:alpha" maskUnits="userSpaceOnUse" x="0" y="0" width="93" height="92">
<rect x="0.5" width="92" height="92" fill="black"/>
</mask>
<g mask="url(#mask0_7374_57299)">
<path d="M46.5 21C32.725 21 21.5 32.225 21.5 46C21.5 59.775 32.725 71 46.5 71C60.275 71 71.5 59.775 71.5 46C71.5 32.225 60.275 21 46.5 21ZM57.375 54.925C57.025 55.525 56.4 55.85 55.75 55.85C55.425 55.85 55.1 55.775 54.8 55.575L47.05 50.95C45.125 49.8 43.7 47.275 43.7 45.05V34.8C43.7 33.775 44.55 32.925 45.575 32.925C46.6 32.925 47.45 33.775 47.45 34.8V45.05C47.45 45.95 48.2 47.275 48.975 47.725L56.725 52.35C57.625 52.875 57.925 54.025 57.375 54.925Z" fill="black"/>
</g>
</svg>
