<svg width="93" height="92" viewBox="0 0 93 92" fill="none" xmlns="http://www.w3.org/2000/svg">
<mask id="mask0_7374_57351" style="mask-type:alpha" maskUnits="userSpaceOnUse" x="0" y="0" width="93" height="92">
<rect x="0.5" width="92" height="92" fill="black"/>
</mask>
<g mask="url(#mask0_7374_57351)">
</g>
<path d="M47.8661 32.4531C54.3207 33.0895 59.4116 38.1804 60.0479 44.6349H47.8661V32.4531ZM46.5025 59.544C39.0479 59.544 32.957 53.4531 32.957 45.9986C32.957 38.9077 38.3207 33.1804 45.2298 32.4531V45.9986C45.2298 46.7259 45.7752 47.2713 46.5025 47.2713H60.0479C59.4116 54.1804 53.5934 59.544 46.5025 59.544Z" fill="black"/>
<path d="M70.4102 41.5446C69.7738 37.9082 68.2283 34.5446 66.1374 31.6355L69.1374 27.5446L64.3192 22.7264L60.2283 25.9082C57.5011 23.9991 54.3192 22.6355 50.8647 22.09L50.3192 16.9082H42.7738L42.1374 22.09C38.6829 22.7264 35.592 23.9991 32.7738 25.9082L28.6829 22.7264L23.3192 28.09L26.5011 32.1809C24.592 34.9082 23.2283 38.09 22.6829 41.5446L17.4102 42.1809V49.7264L22.592 50.3627C23.2283 53.8173 24.5011 56.9082 26.4102 59.7264L23.2283 63.8173L28.592 69.1809L32.6829 65.9991C35.4102 67.9082 38.592 69.2718 42.0465 69.8173L42.6829 74.9991H50.2283L50.8647 69.8173C54.3192 69.1809 57.4102 67.9082 60.2283 65.9991L64.3192 69.1809L69.6829 63.8173L66.5011 59.7264C68.5011 56.8173 69.8647 53.4537 70.5011 49.7264L75.5011 48.9082V42.09L70.4102 41.5446ZM46.5011 65.5446C35.7738 65.5446 26.9556 56.8173 26.9556 45.9991C26.9556 35.1809 35.7738 26.4537 46.5011 26.4537C57.2283 26.4537 66.0465 35.2718 66.0465 45.9991C66.0465 56.7264 57.2283 65.5446 46.5011 65.5446Z" fill="black"/>
</svg>
