<svg width="100" height="100" viewBox="0 0 100 100" fill="none" xmlns="http://www.w3.org/2000/svg">
<rect opacity="0.2" width="100" height="100" rx="20" fill="url(#paint0_linear_481_6481)"/>
<path d="M79.5601 47.1758C79.3895 47.1758 79.2227 47.2112 79.0753 47.2946L74.4076 49.9901C74.1056 50.1641 73.9219 50.4933 73.9219 50.8428V56.2236C73.9219 56.5737 74.1056 56.9014 74.4076 57.0764L75.6269 57.7794C76.2189 58.0717 76.4375 58.0669 76.7071 58.0669C77.5841 58.0669 78.0844 57.5346 78.0844 56.61V51.2981C78.0844 51.2234 78.0189 51.1696 77.9462 51.1696H77.3606C77.2864 51.1696 77.2229 51.2229 77.2229 51.2981V56.6096C77.2229 57.0202 76.7958 57.4318 76.1025 57.0851L74.8338 56.3419C74.7892 56.3182 74.7548 56.275 74.7548 56.2232V50.8423C74.7548 50.7919 74.7887 50.7391 74.8338 50.7134L79.4918 48.0276C79.5349 48.0029 79.5873 48.0029 79.6304 48.0276L84.2879 50.7134C84.332 50.74 84.3665 50.7895 84.3665 50.8423V56.2236C84.3665 56.275 84.3412 56.3279 84.2971 56.3526L79.6299 59.0379C79.5897 59.0617 79.5349 59.0617 79.4913 59.0379L78.2919 58.3243C78.2541 58.3039 78.2095 58.3039 78.1731 58.3243C77.8415 58.5124 77.7794 58.5342 77.4692 58.6414C77.3931 58.668 77.2767 58.7092 77.5089 58.8396L79.0748 59.7603C79.2222 59.8461 79.3895 59.8907 79.5596 59.8897C79.7308 59.8907 79.898 59.8461 80.0459 59.7608L84.7131 57.0754C85.0151 56.8999 85.1989 56.5732 85.1989 56.2232V50.8419C85.1989 50.4923 85.0151 50.1641 84.7131 49.9896L80.0459 47.2941C79.9 47.2112 79.7322 47.1758 79.5601 47.1758Z" fill="black"/>
<path d="M80.8103 51.0201C79.4819 51.0201 78.6898 51.5864 78.6898 52.5264C78.6898 53.5469 79.4756 53.8271 80.7512 53.9532C82.2768 54.1025 82.3956 54.3265 82.3956 54.6271C82.3956 55.1482 81.9811 55.3703 80.9994 55.3703C79.7651 55.3703 79.4946 55.0619 79.4039 54.4491C79.3923 54.3827 79.3418 54.3304 79.2745 54.3304H78.6699C78.5957 54.3304 78.5312 54.3939 78.5312 54.469C78.5312 55.2539 78.9584 56.1828 80.9994 56.1828C82.4761 56.1828 83.3279 55.6035 83.3279 54.5878C83.3279 53.5804 82.6395 53.3103 81.2074 53.1213C79.7597 52.9298 79.6216 52.8357 79.6216 52.4964C79.6216 52.2171 79.7389 51.8429 80.8108 51.8429C81.7693 51.8429 82.1222 52.0494 82.2681 52.6951C82.2797 52.7557 82.334 52.8042 82.3961 52.8042H83.0011C83.0385 52.8042 83.0743 52.7814 83.1 52.7543C83.1257 52.7257 83.1437 52.6942 83.1398 52.6554C83.0453 51.5442 82.304 51.0201 80.8103 51.0201Z" fill="black"/>
<path d="M52.1209 40.1198C52.0695 40.1198 52.0176 40.1333 51.9725 40.1595C51.8809 40.2128 51.8242 40.3112 51.8232 40.4169V47.9983C51.8232 48.0729 51.7888 48.1394 51.7243 48.1767C51.6598 48.2145 51.5803 48.2145 51.5158 48.1767L50.2767 47.4631C50.0939 47.3564 49.867 47.3564 49.6823 47.4631L44.7373 50.3171C44.5526 50.4237 44.4401 50.6283 44.4401 50.8421V56.5497C44.4401 56.7625 44.5526 56.9584 44.7373 57.065L49.6823 59.9196C49.8656 60.0267 50.0934 60.0267 50.2767 59.9196L55.2221 57.065C55.4064 56.9589 55.5193 56.763 55.5193 56.5497V42.3193C55.5193 42.1016 55.402 41.9014 55.212 41.7943L52.2692 40.1488C52.2232 40.1231 52.1718 40.1188 52.1209 40.1198ZM20.3106 47.2449C20.216 47.2488 20.1273 47.2653 20.0429 47.3137L15.098 50.1682C14.9137 50.2744 14.8003 50.4708 14.8008 50.6836L14.811 58.344C14.811 58.4501 14.8662 58.5495 14.9598 58.6014C15.0509 58.6562 15.1658 58.6562 15.257 58.6014L18.1905 56.9167C18.3762 56.8062 18.4974 56.6142 18.4974 56.4014V52.824C18.4974 52.6112 18.6094 52.4143 18.7946 52.3087L20.0434 51.5853C20.1341 51.533 20.2364 51.5053 20.3411 51.5058C20.4429 51.5058 20.5476 51.531 20.6383 51.5853L21.8871 52.3087C22.0714 52.4143 22.1853 52.6112 22.1848 52.824V56.4014C22.1848 56.6142 22.307 56.8076 22.4917 56.9167L25.4252 58.6019C25.5169 58.6567 25.6313 58.6567 25.7224 58.6019C25.8145 58.5485 25.8712 58.4501 25.8712 58.3444L25.8809 50.6841C25.8824 50.4713 25.7685 50.2744 25.5838 50.1687L20.6388 47.3142C20.5554 47.2657 20.4662 47.2493 20.3712 47.2454L20.3106 47.2449ZM64.7466 47.3137C64.6428 47.3137 64.5415 47.3404 64.4494 47.3937L59.5039 50.2478C59.3192 50.3534 59.2067 50.5503 59.2067 50.7631V56.4707C59.2067 56.6854 59.3279 56.8803 59.5146 56.9865L64.4198 59.7809C64.6006 59.8842 64.8222 59.8919 65.0045 59.7911L67.9773 58.136C68.0713 58.0841 68.1353 57.9857 68.1358 57.8785C68.1368 57.7714 68.0801 57.673 67.987 57.6206L63.0124 54.7666C62.9193 54.7138 62.8534 54.6056 62.8534 54.4985V52.7154C62.8534 52.6083 62.9203 52.5103 63.0124 52.4575L64.558 51.5659C64.6491 51.5126 64.7631 51.5126 64.8547 51.5659L66.4002 52.4575C66.4923 52.5103 66.55 52.6087 66.5495 52.7154V54.1223C66.5495 54.2285 66.6058 54.3269 66.6984 54.3797C66.791 54.4331 66.903 54.4331 66.9956 54.3797L69.9587 52.6553C70.1424 52.5486 70.2559 52.3523 70.2559 52.1399V50.7626C70.2559 50.5498 70.1429 50.3539 69.9587 50.2473L65.0428 47.3932C64.9536 47.3414 64.8508 47.3137 64.7466 47.3137ZM49.9606 51.5756C49.9863 51.5756 50.0173 51.5819 50.0401 51.595L51.7354 52.5763C51.781 52.6024 51.814 52.6514 51.814 52.7052V54.6672C51.814 54.7205 51.781 54.7695 51.7354 54.7962L50.0401 55.7769C49.994 55.8036 49.9378 55.8036 49.8917 55.7769L48.1969 54.7962C48.1503 54.7695 48.1179 54.721 48.1179 54.6672V52.7052C48.1179 52.6519 48.1508 52.6029 48.1969 52.5763L49.8917 51.5955C49.9121 51.5824 49.9363 51.5756 49.9606 51.5756Z" fill="black"/>
<path d="M35.1658 47.2843C35.0626 47.2843 34.9612 47.3104 34.8686 47.3638L29.9232 50.2081C29.7385 50.3143 29.626 50.5203 29.626 50.7336V56.4412C29.626 56.6545 29.738 56.8495 29.9232 56.9566L34.8686 59.8106C35.0519 59.9177 35.2793 59.9177 35.463 59.8106L40.4085 56.9566C40.5922 56.8509 40.7061 56.6535 40.7057 56.4412V50.7336C40.7057 50.5198 40.5932 50.3143 40.4085 50.2081L35.463 47.3638C35.3728 47.3119 35.27 47.2843 35.1658 47.2843ZM64.7368 52.3776C64.7169 52.3776 64.6951 52.3776 64.6777 52.3878L63.7265 52.9429C63.6901 52.9632 63.6673 53.0011 63.6669 53.0418V54.1326C63.6669 54.1738 63.6906 54.2106 63.7265 54.2315L64.6777 54.7764C64.7126 54.7973 64.7514 54.7973 64.7868 54.7764L65.7379 54.231C65.7743 54.2112 65.7971 54.1738 65.7976 54.1326V53.0418C65.7971 53.0011 65.7743 52.9632 65.7379 52.9429L64.7868 52.3878C64.7688 52.3771 64.7567 52.3781 64.7368 52.3776Z" fill="black"/>
<defs>
<linearGradient id="paint0_linear_481_6481" x1="11.809" y1="1.81213e-05" x2="100.05" y2="16.5617" gradientUnits="userSpaceOnUse">
<stop stop-color="#2EC4F3"/>
<stop offset="1" stop-color="#BFD633"/>
</linearGradient>
</defs>
</svg>
