<svg width="76" height="76" viewBox="0 0 76 76" fill="none" xmlns="http://www.w3.org/2000/svg">
<mask id="mask0_7039_89852" style="mask-type:alpha" maskUnits="userSpaceOnUse" x="-1" y="-1" width="78" height="78">
<rect width="76" height="76" fill="white" stroke="white" stroke-width="2"/>
</mask>
<g mask="url(#mask0_7039_89852)">
<path d="M38.1707 15.3281C42.8159 15.3281 47.0213 17.2129 50.0633 20.2553C53.1058 23.2978 54.9906 27.5051 54.9906 32.1479C54.9906 36.7932 53.1057 40.9986 50.0633 44.0406C47.0208 47.083 42.8135 48.9678 38.1707 48.9678C33.5254 48.9678 29.3201 47.083 26.278 44.0406C23.2356 40.9981 21.3508 36.7908 21.3508 32.1479C21.3508 27.5076 23.2356 23.2999 26.2806 20.2553C29.323 17.2079 33.5278 15.3255 38.1732 15.3255L38.1707 15.3281ZM39.1502 22.1181L42.3188 28.0027L48.2133 31.1763C48.75 31.4657 48.9529 32.136 48.6634 32.6728C48.5546 32.8731 48.3913 33.029 48.2034 33.1279L42.3188 36.2965L39.1452 42.191C38.8558 42.7277 38.1855 42.9306 37.6487 42.6411C37.4484 42.5323 37.2926 42.369 37.1936 42.1811L34.025 36.2965L28.1306 33.1229C27.5938 32.8335 27.3909 32.1632 27.6804 31.6264C27.7892 31.4261 27.9525 31.2703 28.1404 31.1713L34.025 28.0027L37.1986 22.1083C37.488 21.5715 38.1583 21.3686 38.6951 21.6581C38.8954 21.7669 39.0513 21.9302 39.1502 22.1181ZM40.5304 29.3433L38.1731 24.9651L35.8208 29.3333C35.7219 29.5238 35.5685 29.6846 35.3657 29.7934L30.9875 32.1507L35.3557 34.5056C35.5462 34.6045 35.707 34.7579 35.8158 34.9607L38.1731 39.3389L40.528 34.9706C40.6269 34.7802 40.7803 34.6194 40.9831 34.5105L45.3613 32.1532L40.9931 29.8009C40.8026 29.702 40.6418 29.5486 40.533 29.3458L40.5304 29.3433ZM39.6425 54.2519L45.4404 67.5369L53.3209 64.9942L51.9926 62.6567C51.6933 62.1273 51.8788 61.4496 52.4082 61.1503C52.9375 60.851 53.6152 61.0365 53.9145 61.5658L55.9131 65.0832L56.0047 65.291C56.1902 65.8723 55.8711 66.4931 55.2898 66.6787L45.1905 69.9388C44.6512 70.1267 44.0477 69.8695 43.8152 69.3377L38.1705 56.4034L32.5283 69.3377C32.2958 69.8695 31.6923 70.1267 31.153 69.9388L21.0537 66.6787C20.4724 66.4931 20.1533 65.8698 20.3389 65.291C20.3636 65.2168 20.3933 65.1475 20.4304 65.0832L27.967 51.8127C25.2709 50.4102 22.8988 48.471 20.994 46.1334C20.6106 45.661 20.6798 44.9634 21.1547 44.5801C21.6272 44.1967 22.3248 44.2659 22.7081 44.7408C24.5707 47.0239 26.9305 48.889 29.6191 50.1678C32.2064 51.3971 35.1079 52.0872 38.1728 52.0872C43.6789 52.0872 48.6628 49.8561 52.2697 46.2496C55.8761 42.6432 58.1072 37.6593 58.1072 32.1527C58.1072 26.6462 55.8761 21.6627 52.2697 18.0558C48.6632 14.4494 43.6793 12.2183 38.1728 12.2183C32.6667 12.2183 27.6827 14.4494 24.0759 18.0558C20.4695 21.6623 18.2383 26.6462 18.2383 32.1527C18.2383 33.2683 18.3249 34.3493 18.4955 35.3832C18.6712 36.4592 18.9334 37.508 19.2698 38.5147C19.4627 39.091 19.1511 39.7193 18.5722 39.9122C17.9959 40.1052 17.3676 39.7935 17.1747 39.2147C16.7987 38.0917 16.5068 36.9266 16.3114 35.7344C16.1185 34.552 16.0195 33.3549 16.0195 32.1477C16.0195 26.0332 18.5005 20.4926 22.5076 16.488C26.5147 12.4809 32.0528 10 38.1673 10C44.2817 10 49.8199 12.481 53.827 16.488C57.8341 20.4952 60.315 26.0358 60.315 32.1477C60.315 38.2623 57.834 43.8004 53.827 47.8074C52.2315 49.4028 50.3912 50.7584 48.3703 51.8071L50.2032 55.0351C50.5025 55.5645 50.317 56.2422 49.7876 56.5415C49.2583 56.8408 48.5806 56.6553 48.2813 56.126L46.3519 52.7322C44.2518 53.5683 41.9935 54.0927 39.634 54.2485L39.6425 54.2519ZM52.1386 58.4322C52.4379 58.9615 52.2523 59.6392 51.723 59.9385C51.1937 60.2378 50.5159 60.0523 50.2166 59.523L50.0682 59.2633C49.7689 58.7339 49.9544 58.0562 50.4838 57.7569C51.0131 57.4576 51.6908 57.6431 51.9901 58.1724L52.1386 58.4322ZM29.9858 52.7356L23.0228 64.9942L30.9033 67.537L36.7013 54.2519C34.3439 54.0986 32.088 53.5716 29.9858 52.7356ZM20.7894 41.9188C21.0838 42.4531 20.8884 43.1259 20.3516 43.4203C19.8173 43.7146 19.1445 43.5192 18.8502 42.9824L18.7067 42.7203C18.4123 42.186 18.6077 41.5132 19.1445 41.2188C19.6788 40.9245 20.3516 41.1199 20.646 41.6566L20.7894 41.9188ZM48.5032 21.824C45.8615 19.1823 42.2105 17.5448 38.174 17.5448C34.1397 17.5448 30.4885 19.1798 27.8448 21.824C25.2006 24.4633 23.5656 28.1167 23.5656 32.1532C23.5656 36.1876 25.2006 39.8387 27.8448 42.4824C30.4866 45.1242 34.1375 46.7616 38.174 46.7616C42.2084 46.7616 45.8595 45.1266 48.5032 42.4824C51.145 39.8406 52.7824 36.1897 52.7824 32.1532C52.7824 28.1189 51.1474 24.4677 48.5032 21.824Z" fill="black"/>
</g>
</svg>
