<svg width="80" height="80" viewBox="0 0 80 80" fill="none" xmlns="http://www.w3.org/2000/svg">
<mask id="mask0_7380_56051" style="mask-type:alpha" maskUnits="userSpaceOnUse" x="-1" y="-1" width="82" height="82">
<rect width="80" height="80" fill="white" stroke="white" stroke-width="2"/>
</mask>
<g mask="url(#mask0_7380_56051)">
<path d="M80 76.2303V78.2694H0V76.2303H80ZM67.254 11.9683C67.6173 11.3668 68.3985 11.1675 69.0079 11.523L72.6485 13.648L70.3673 2L59.0973 5.7344L62.734 7.8594C63.3473 8.21878 63.5543 9.0039 63.2028 9.6172C54.0191 25.5272 34.1677 37.4842 16.5147 42.8012C34.3428 41.3168 55.1947 31.9032 67.2527 11.9732L67.254 11.9683ZM68.7892 14.3902L73.172 16.9527V73.8747H60.762V24.6047C63.7737 21.4836 66.4612 18.0656 68.7854 14.3857L68.7892 14.3902ZM19.2382 73.3162H6.8282V45.4022C8.2735 45.5194 9.7501 45.578 11.254 45.578C13.8595 45.578 16.5352 45.4022 19.2384 45.0585L19.2382 73.3162ZM37.2852 40.4142V73.3162H24.8752V44.1912C29.0979 43.3201 33.2619 42.0506 37.2852 40.4178V40.4142ZM55.1482 29.8442V73.3172H42.7382V37.9302C43.6054 37.4888 44.4648 37.0279 45.3124 36.5513C48.8358 34.5708 52.117 32.3285 55.1482 29.8442Z" fill="black"/>
</g>
</svg>
