<svg width="76" height="76" viewBox="0 0 76 76" fill="none" xmlns="http://www.w3.org/2000/svg">
<mask id="mask0_7039_78689" style="mask-type:alpha" maskUnits="userSpaceOnUse" x="-1" y="-1" width="78" height="78">
<rect width="76" height="76" fill="white" stroke="white" stroke-width="2"/>
</mask>
<g mask="url(#mask0_7039_78689)">
<path d="M27.1667 58.3333C26.275 58.3333 25.4583 58.6917 24.8583 59.2667C18.4667 54.9167 14.6667 47.7667 14.6667 40C14.6667 27.1333 25.1333 16.6667 38 16.6667C39.6417 16.6667 41.2667 16.8333 42.825 17.1667L43.1667 15.5333C41.4917 15.175 39.75 15 37.9917 15C24.2167 15 13 26.2167 13 40C13 48.3583 17.1 56.0333 23.9917 60.6917C23.9 61 23.8333 61.325 23.8333 61.6667C23.8333 63.5083 25.325 65 27.1667 65C29.0083 65 30.5 63.5083 30.5 61.6667C30.5 59.825 29.0083 58.3333 27.1667 58.3333ZM27.1667 63.3333C26.25 63.3333 25.5 62.5833 25.5 61.6667C25.5 60.75 26.25 60 27.1667 60C28.0833 60 28.8333 60.75 28.8333 61.6667C28.8333 62.5833 28.0833 63.3333 27.1667 63.3333Z" fill="black" stroke="black" stroke-width="0.6"/>
<path d="M52.0109 19.3083C52.1026 19 52.1693 18.675 52.1693 18.3333C52.1693 16.4917 50.6776 15 48.8359 15C46.9943 15 45.5026 16.4917 45.5026 18.3333C45.5026 20.175 46.9943 21.6667 48.8359 21.6667C49.7276 21.6667 50.5443 21.3083 51.1443 20.7333C57.5359 25.0833 61.3359 32.2333 61.3359 40C61.3359 52.8667 50.8693 63.3333 38.0026 63.3333C36.3609 63.3333 34.7359 63.1667 33.1776 62.8333L32.8359 64.4667C34.5109 64.825 36.2526 65 38.0109 65C51.7943 65 63.0109 53.7833 63.0109 40C63.0109 31.6417 58.9109 23.9667 52.0193 19.3083H52.0109ZM48.8359 20C47.9193 20 47.1693 19.25 47.1693 18.3333C47.1693 17.4167 47.9193 16.6667 48.8359 16.6667C49.7526 16.6667 50.5026 17.4167 50.5026 18.3333C50.5026 19.25 49.7526 20 48.8359 20Z" fill="black" stroke="black" stroke-width="0.6"/>
<path d="M33.5762 51.5333L33.0512 48.3333L35.2596 46.075C35.4762 45.85 35.5512 45.525 35.4512 45.225C35.3512 44.925 35.0929 44.7167 34.7846 44.6667L31.7679 44.2083L30.5096 41.5167C30.5929 40.2083 31.6679 39.1667 32.9929 39.1667H42.9929C43.4512 39.1667 43.9012 39.2917 44.2929 39.5333C45.0429 39.9917 45.4929 40.7833 45.4929 41.6667V50.8333H40.4929V52.5H46.3262C46.7846 52.5 47.1596 52.125 47.1596 51.6667V41.6667C47.1596 40.2083 46.4096 38.875 45.1679 38.1167C44.5179 37.7083 43.7679 37.5 42.9929 37.5H32.9929C30.7762 37.5 28.9762 39.2417 28.8512 41.4333L27.5512 44.2083L24.5346 44.6667C24.2262 44.7167 23.9679 44.9333 23.8679 45.225C23.7679 45.5167 23.8429 45.85 24.0596 46.075L26.2679 48.3333L25.7429 51.5333C25.6929 51.85 25.8262 52.1667 26.0846 52.35C26.3429 52.5333 26.6846 52.55 26.9679 52.4L29.6512 50.9167L32.3346 52.4C32.4596 52.4667 32.6012 52.5 32.7346 52.5C32.9012 52.5 33.0679 52.45 33.2179 52.35C33.4762 52.1667 33.6096 51.85 33.5596 51.5333H33.5762ZM31.5679 47.4667C31.3846 47.6583 31.3012 47.925 31.3429 48.1833L31.6596 50.1083L30.0679 49.2333C29.9429 49.1667 29.8012 49.1333 29.6679 49.1333C29.5346 49.1333 29.3929 49.1667 29.2679 49.2333L27.6762 50.1083L27.9929 48.1833C28.0346 47.925 27.9512 47.6583 27.7679 47.4667L26.4012 46.0667L28.2512 45.7833C28.5262 45.7417 28.7596 45.5667 28.8762 45.3167L29.6679 43.6333L30.4596 45.3167C30.5762 45.5667 30.8096 45.7417 31.0846 45.7833L32.9346 46.0667L31.5679 47.4667Z" fill="black" stroke="black" stroke-width="0.6"/>
<path d="M43 32.5C43 29.7417 40.7583 27.5 38 27.5C35.2417 27.5 33 29.7417 33 32.5C33 35.2583 35.2417 37.5 38 37.5C40.7583 37.5 43 35.2583 43 32.5ZM38 35.8333C36.1583 35.8333 34.6667 34.3417 34.6667 32.5C34.6667 30.6583 36.1583 29.1667 38 29.1667C39.8417 29.1667 41.3333 30.6583 41.3333 32.5C41.3333 34.3417 39.8417 35.8333 38 35.8333Z" fill="black" stroke="black" stroke-width="0.6"/>
<path d="M38.8346 50.8335H37.168V52.5002H38.8346V50.8335Z" fill="black" stroke="black" stroke-width="0.6"/>
</g>
</svg>
