<svg width="80" height="80" viewBox="0 0 80 80" fill="none" xmlns="http://www.w3.org/2000/svg">
<mask id="mask0_7380_56078" style="mask-type:alpha" maskUnits="userSpaceOnUse" x="-1" y="-1" width="82" height="82">
<rect width="80" height="80" fill="white" stroke="white" stroke-width="2"/>
</mask>
<g mask="url(#mask0_7380_56078)">
<path fill-rule="evenodd" clip-rule="evenodd" d="M13.4145 26.7948C11.6873 30.2494 10.6224 34.0879 10.3685 38.143H13.8851C14.9128 38.143 15.7425 38.9664 15.7425 40.0004C15.7425 41.0281 14.919 41.8577 13.8851 41.8577H10.3685C10.6223 45.9129 11.681 49.7638 13.4145 53.2246L16.4606 51.4663C17.3459 50.9586 18.4726 51.262 18.9803 52.1473C19.4879 53.0326 19.1846 54.1593 18.2992 54.667L15.2532 56.4253C17.4386 59.7189 20.2804 62.5421 23.574 64.7461L25.3323 61.7C25.84 60.8147 26.9667 60.5113 27.852 61.019C28.7373 61.5267 29.0407 62.6534 28.533 63.5387L26.7747 66.5847C30.2293 68.312 34.0678 69.3893 38.1415 69.6308V66.1142C38.1415 65.0865 38.9649 64.2568 39.9989 64.2568C41.0142 64.2568 41.8562 65.0803 41.8562 66.1142V69.6308C45.9114 69.377 49.7499 68.3183 53.2045 66.5847L51.4462 63.5387C50.9386 62.6534 51.2419 61.5267 52.1273 61.019C53.0126 60.5113 54.1393 60.8147 54.6469 61.7L56.4052 64.7461C59.6988 62.5606 62.5221 59.7189 64.7075 56.4253L61.6614 54.667C60.7761 54.1593 60.4728 53.0201 60.9804 52.1473C61.4881 51.262 62.6148 50.9586 63.5001 51.4663L66.5585 53.2246C68.2858 49.7699 69.3507 45.9191 69.6046 41.8577H66.088C65.0726 41.8577 64.2306 41.0343 64.2306 40.0004C64.2306 38.9851 65.054 38.143 66.088 38.143H69.6046C69.3507 34.0879 68.2921 30.2494 66.5585 26.7948L63.5001 28.553C63.2153 28.714 62.8996 28.8069 62.5839 28.8069C61.9524 28.8069 61.3147 28.4726 60.9804 27.8906C60.4727 27.0053 60.7761 25.8786 61.6614 25.3709L64.7075 23.6126C62.522 20.319 59.6803 17.4958 56.4052 15.3104L54.6469 18.3564C54.3002 18.9446 53.6811 19.2727 53.0435 19.2727C52.7277 19.2727 52.412 19.1922 52.1272 19.0189C51.2419 18.5112 50.9385 17.3845 51.4462 16.4992L53.2045 13.4408C49.7498 11.7135 45.9113 10.6486 41.8562 10.3947V13.9113C41.8562 14.9266 41.0328 15.7687 39.9988 15.7687C38.9711 15.7687 38.1415 14.9453 38.1415 13.9113V10.3947C34.0863 10.6485 30.2478 11.7072 26.7746 13.4408L28.5329 16.4992C29.0406 17.3845 28.7373 18.5112 27.8519 19.0189C27.5671 19.1922 27.2514 19.2727 26.9357 19.2727C26.3042 19.2727 25.6851 18.9384 25.3322 18.3564L23.5739 15.3104C20.2803 17.4958 17.4571 20.3376 15.2531 23.6126L18.2992 25.3709C19.1845 25.8786 19.4878 27.0053 18.9802 27.8906C18.6335 28.4912 18.0144 28.8069 17.3767 28.8069C17.061 28.8069 16.7452 28.7264 16.4604 28.553L13.4145 26.7948ZM39.9937 6.6186C58.3929 6.6186 73.3703 21.5947 73.3703 39.9953C73.3703 58.3945 58.3942 73.3719 39.9937 73.3719C21.5932 73.3719 6.61701 58.3958 6.61701 39.9953C6.61701 21.5833 21.5932 6.6186 39.9937 6.6186ZM80 40C80 62.0652 62.0588 80 40 80C17.9349 80 0 62.0588 0 40C0 17.9349 17.9412 1.60161e-06 40 1.60161e-06C62.0588 -0.00618906 80 17.9349 80 40ZM39.9937 41.8388C38.9659 41.8388 38.1363 41.0154 38.1363 39.9815L38.1425 23.7234C38.1425 22.7081 38.9659 21.8661 39.9998 21.8661C41.0152 21.8661 41.8572 22.6895 41.8572 23.7234V38.1487H50.9704C51.9858 38.1487 52.8278 38.9721 52.8278 40.006C52.8278 41.0337 52.0044 41.8634 50.9704 41.8634L39.9937 41.851L39.9937 41.8388Z" fill="black"/>
</g>
</svg>
