<svg width="82" height="80" viewBox="0 0 82 80" fill="none" xmlns="http://www.w3.org/2000/svg">
<mask id="mask0_7380_56081" style="mask-type:alpha" maskUnits="userSpaceOnUse" x="0" y="-1" width="82" height="82">
<rect x="1" width="80" height="80" fill="white" stroke="white" stroke-width="2"/>
</mask>
<g mask="url(#mask0_7380_56081)">
<path d="M30.2617 49.4877L24.0754 59.0764C23.6816 59.6758 23.0659 60.0969 22.3617 60.2486C21.6575 60.4002 20.9215 60.2702 20.3131 59.8866L20.2706 59.8584L20.2511 59.8479C19.6679 59.4482 19.2632 58.8396 19.122 58.1499C18.9808 57.4602 19.1141 56.743 19.4939 56.1488L20.3795 54.78C20.4098 54.7408 20.4374 54.6997 20.4619 54.6568L25.6811 46.5636C26.0746 45.9632 26.6906 45.5412 27.3954 45.389C28.1002 45.2368 28.837 45.3668 29.446 45.7507L29.4894 45.7789L29.508 45.7895C30.0901 46.1889 30.4942 46.7966 30.6357 47.4852C30.7771 48.1738 30.645 48.8901 30.267 49.4842L30.2617 49.4877ZM22.4033 19.7522L23.0764 18.7089C23.2166 18.4897 23.2634 18.2243 23.2066 17.9708C23.18 17.8465 23.129 17.7286 23.0565 17.6238C22.984 17.5191 22.8914 17.4295 22.7841 17.3603L16.1736 13.1527C15.9541 13.0151 15.6891 12.9683 15.4353 13.0224C15.1815 13.0765 14.9592 13.2272 14.8159 13.4421L0.156537 36.1585C0.0868469 36.2671 0.0393979 36.3882 0.016906 36.515C-0.00558596 36.6418 -0.00267921 36.7718 0.0254599 36.8975C0.0520566 37.0218 0.103055 37.1397 0.175541 37.2445C0.248028 37.3492 0.340582 37.4388 0.447917 37.508L6.98404 41.6681L7.01592 41.6857L7.0602 41.7138C7.27148 41.8473 7.5257 41.8966 7.772 41.8519C8.01831 41.8072 8.23855 41.6718 8.38868 41.4728V41.4657C8.39843 41.4517 8.40905 41.4376 8.41791 41.4235L8.97233 40.5649C9.03627 40.3518 9.15899 40.1608 9.32659 40.0134L22.3395 19.8428C22.3581 19.812 22.3776 19.7812 22.4033 19.7522ZM35.2231 56.2596L37.5701 52.6221C37.9485 52.0282 38.081 51.312 37.9399 50.6234C37.7987 49.9347 37.3949 49.3269 36.8128 48.9273L36.7934 48.9168L36.7508 48.8869C36.142 48.5028 35.4052 48.3729 34.7004 48.5252C33.9957 48.6776 33.3799 49.0999 32.9868 49.7006L32.2942 50.7729L26.1124 60.3563L25.5721 61.1938C25.1935 61.7876 25.0608 62.5038 25.202 63.1926C25.3431 63.8813 25.7471 64.4891 26.3294 64.8885L26.348 64.8991L26.3905 64.9272C26.9993 65.3111 27.7359 65.4411 28.4406 65.2889C29.1453 65.1368 29.7611 64.7147 30.1545 64.1144L31.8071 61.5527L35.2231 56.2578V56.2596ZM22.5379 45.5273C22.3894 44.8533 21.987 44.2613 21.4131 43.8726L21.3936 43.8629L21.3502 43.8348C20.7415 43.4504 20.0047 43.3202 19.2999 43.4724C18.5951 43.6246 17.9793 44.0469 17.5862 44.6476L13.8169 50.4897C13.4371 51.0839 13.3038 51.8011 13.445 52.4908C13.5862 53.1805 13.9908 53.7891 14.5741 54.1888L14.5927 54.1994L14.6361 54.2275C15.2339 54.6034 15.955 54.735 16.6483 54.5948C17.3416 54.4546 17.9535 54.0535 18.3558 53.4754L18.3665 53.4569L18.3948 53.4147L22.1641 47.5726C22.3579 47.2733 22.4903 46.939 22.5537 46.5887C22.6171 46.2385 22.6102 45.8793 22.5335 45.5317L22.5379 45.5273ZM41.0711 56.7725L41.0525 56.7619L41.0091 56.7338C40.4005 56.35 39.6642 56.2199 38.9598 56.3717C38.2554 56.5235 37.6396 56.945 37.2459 57.5448L33.8282 62.8432C33.4499 63.4373 33.3177 64.1536 33.4592 64.8423C33.6006 65.531 34.0049 66.1386 34.5872 66.538L34.6067 66.5485L34.6501 66.5767C35.2589 66.9606 35.9955 67.0905 36.7002 66.9384C37.4049 66.7862 38.0207 66.3642 38.4141 65.7638L41.8301 60.4689C42.2099 59.8747 42.3432 59.1575 42.202 58.4678C42.0608 57.7781 41.6561 57.1695 41.0728 56.7698L41.0711 56.7725ZM81.8935 37.669L69.4146 13.7043C69.2932 13.4766 69.0866 13.3053 68.8393 13.2273C68.592 13.1494 68.3238 13.1709 68.0923 13.2873L61.1187 16.8659C60.8897 16.9871 60.7176 17.1925 60.6393 17.4382C60.561 17.6838 60.5827 17.9502 60.6998 18.1802L61.1692 19.0828C61.2888 19.2085 61.3794 19.3586 61.4349 19.5226C61.4499 19.5675 61.462 19.6134 61.4712 19.6598L73.1778 42.1484C73.2994 42.3762 73.5061 42.5474 73.7536 42.6254C74.001 42.7034 74.2693 42.6818 74.5009 42.5654L81.4763 38.9824C81.7053 38.8614 81.8774 38.6561 81.9557 38.4106C82.034 38.1651 82.0123 37.8988 81.8953 37.669H81.8935ZM58.429 21.7773C57.4945 22.087 56.5122 22.2299 55.5276 22.1995L47.3131 21.9734C46.5468 21.9398 45.7814 22.0571 45.0609 22.3186C44.3404 22.5801 43.6791 22.9806 43.1152 23.4971L33.6263 31.8859C33.7439 32.3929 33.9625 32.8715 34.2692 33.2934C34.5815 33.7226 34.9776 34.0849 35.434 34.3585C35.8904 34.6322 36.3977 34.8117 36.9255 34.8861C37.4533 34.9606 37.9908 34.9286 38.5059 34.792C39.021 34.6555 39.503 34.4171 39.9233 34.0913C41.4209 32.6785 42.7644 31.5146 43.8804 30.5997C44.9672 29.6699 46.1217 28.821 47.3344 28.0601C47.4751 27.9896 47.6285 27.9473 47.7856 27.9357C47.9428 27.9241 48.1007 27.9433 48.2504 27.9924C48.4001 28.0414 48.5386 28.1192 48.658 28.2214C48.7774 28.3235 48.8754 28.4481 48.9463 28.5879C49.007 28.708 49.0471 28.8373 49.065 28.9705C49.1996 30.2047 49.6597 31.3818 50.3988 32.3829C51.0582 33.2392 51.9762 33.8634 53.0185 34.1643C53.4002 34.2745 53.7734 34.4118 54.1353 34.5751C54.4955 34.7396 54.8436 34.9292 55.1769 35.1425L67.6973 43.1117L69.9939 41.2335L59.6521 21.3752L58.429 21.7773ZM67.4184 45.7719L53.8865 37.1588C53.6461 37.0042 53.3952 36.8666 53.1354 36.7471C52.8753 36.6298 52.6072 36.531 52.333 36.4515C50.8068 36.0113 49.4624 35.0976 48.4964 33.8441C47.8688 33.0243 47.3915 32.1012 47.0864 31.117C46.6321 31.4592 46.0697 31.8991 45.4108 32.4365C44.3427 33.3162 43.0372 34.4449 41.5502 35.8489C41.5263 35.8709 41.5015 35.8929 41.4758 35.914C40.5778 36.6309 39.5009 37.0925 38.3597 37.2497C37.2186 37.407 36.0558 37.2539 34.9953 36.8069C33.9347 36.3598 33.0161 35.6355 32.3371 34.711C31.6581 33.7865 31.2441 32.6965 31.1393 31.5569C31.1173 31.3665 31.1416 31.1737 31.2102 30.9946C31.2788 30.8155 31.3896 30.6553 31.5335 30.5276L36.1389 26.4599L23.8726 21.8969L11.6302 40.8702L14.6981 44.6916L15.5545 43.3641C16.2842 42.2354 17.4321 41.4375 18.7497 41.1431C20.0672 40.8487 21.4485 41.0816 22.5946 41.7912C22.6418 41.8178 22.6873 41.8472 22.731 41.8792C23.5725 42.4394 24.2273 43.2356 24.6121 44.1664C25.4426 43.4573 26.4793 43.03 27.5713 42.9467C28.6633 42.8635 29.7535 43.1287 30.6832 43.7037C30.7311 43.7297 30.777 43.7591 30.8205 43.7917C31.831 44.4655 32.5664 45.4752 32.8947 46.6392C33.3022 46.4329 33.7351 46.2806 34.1825 46.1862C35.4912 45.899 36.8611 46.134 37.997 46.8407C38.0446 46.867 38.0905 46.8964 38.1342 46.9287C39.2446 47.6725 40.0186 48.8177 40.2913 50.1201C40.5639 51.4226 40.3137 52.7793 39.5938 53.9011L39.5867 53.9126C40.5319 53.9192 41.4566 54.1872 42.257 54.6867C42.3043 54.713 42.3499 54.7424 42.3933 54.7747C43.5047 55.5181 44.2795 56.6634 44.5527 57.9664C44.8259 59.2693 44.5757 60.6266 43.8556 61.7489L42.3128 64.147L45.9138 66.4456H45.9182C46.52 66.8225 47.2454 66.9533 47.9422 66.8106C48.639 66.668 49.2531 66.2629 49.6557 65.6803L49.6646 65.6644L49.692 65.6222V65.6178C50.0721 65.0202 50.2047 64.2997 50.0623 63.6072C49.9198 62.9146 49.5133 62.3036 48.9277 61.902L48.9091 61.8914L48.8657 61.8641L46.2087 60.1716C46.0756 60.0875 45.9604 59.9781 45.8698 59.8497C45.7792 59.7213 45.7149 59.5765 45.6807 59.4234C45.6464 59.2704 45.6428 59.1121 45.6702 58.9577C45.6975 58.8033 45.7551 58.6558 45.8399 58.5235C45.9246 58.3912 46.0347 58.2768 46.164 58.1868C46.2932 58.0968 46.439 58.033 46.5931 57.999C46.7472 57.9649 46.9065 57.9614 47.062 57.9885C47.2174 58.0157 47.366 58.0729 47.4991 58.1571L50.1154 59.8215C50.1588 59.846 50.2005 59.8733 50.2402 59.9033L51.4616 60.681L51.4934 60.6985L51.5368 60.7258C52.1385 61.105 52.8646 61.2379 53.5628 61.0967C54.261 60.9555 54.8769 60.5511 55.2814 59.9684L55.292 59.9499L55.3203 59.9068C55.5131 59.6076 55.6444 59.2735 55.7066 58.9237C55.7687 58.5738 55.7606 58.2152 55.6826 57.8686C55.5274 57.1585 55.0973 56.5376 54.4852 56.14L49.6105 52.9687C49.4782 52.8829 49.3642 52.7721 49.2751 52.6425C49.1859 52.513 49.1233 52.3673 49.0908 52.2137C49.0583 52.0601 49.0566 51.9017 49.0857 51.7475C49.1149 51.5933 49.1743 51.4462 49.2607 51.3148C49.3471 51.1834 49.4586 51.0702 49.589 50.9816C49.7195 50.893 49.8661 50.8308 50.0208 50.7986C50.1754 50.7663 50.3349 50.7646 50.4901 50.7936C50.6454 50.8225 50.7934 50.8816 50.9257 50.9673L55.8057 54.1422L55.8384 54.1642L57.9986 55.5391C58.6088 55.9004 59.3364 56.012 60.028 55.8505C60.7195 55.6891 61.3208 55.267 61.705 54.6736C62.0893 54.0801 62.2264 53.3616 62.0874 52.6696C61.9484 51.9776 61.5443 51.3663 60.9602 50.9647L53.7554 46.3762C53.4923 46.2035 53.308 45.935 53.2423 45.6286C53.1766 45.3223 53.2346 45.0025 53.4039 44.7382C53.5733 44.474 53.8403 44.2863 54.1476 44.2157C54.4548 44.1451 54.7777 44.1972 55.0467 44.3608L62.2506 48.9467L64.455 50.3498C65.0653 50.7134 65.794 50.8268 66.487 50.6661C67.18 50.5053 67.7829 50.083 68.1679 49.4885C68.5529 48.894 68.6898 48.174 68.5498 47.481C68.4097 46.7879 68.0036 46.1762 67.4175 45.7754L67.4184 45.7719Z" fill="black"/>
</g>
</svg>
