<svg width="117" height="81" viewBox="0 0 117 81" fill="none" xmlns="http://www.w3.org/2000/svg">
<mask id="mask0_6572_17373" style="mask-type:alpha" maskUnits="userSpaceOnUse" x="0" y="0" width="118" height="81">
<rect x="0.335938" y="0.333008" width="116.667" height="80" fill="#D9D9D9"/>
</mask>
<g mask="url(#mask0_6572_17373)">
<path d="M55.3066 29.6166L49.8143 26.8374L43.793 29.8811L49.4175 32.7265L55.3066 29.6166Z" fill="#4BAACF"/>
<path d="M58.6901 31.4551L64.4469 34.3665L58.4917 37.3441L52.8672 34.4988L58.6901 31.4551Z" fill="#4BAACF"/>
<path d="M67.2743 26.9033L73.164 29.8809L67.8701 32.5279L62.1133 29.6164L67.2743 26.9033Z" fill="#4BAACF"/>
<path d="M63.8453 25.6464L58.5509 22.9995L53.3242 25.6464L58.8176 28.4256L63.8453 25.6464Z" fill="#4BAACF"/>
<path d="M60.0039 50.4533V57.6661L66.4226 54.4901V47.2773L60.0039 50.4533Z" fill="#4BAACF"/>
<path d="M66.4226 43.8312V36.6846L60.0039 39.8606V47.0072L66.4226 43.8312Z" fill="#4BAACF"/>
<path d="M74.6886 43.3735V50.6525L69.1953 53.365V46.1527L74.6886 43.3735Z" fill="#4BAACF"/>
<path d="M74.6886 39.5712V32.4912L69.1953 35.2043V42.3509L74.6886 39.5712Z" fill="#4BAACF"/>
<path d="M56.4965 40.7268L52.1957 38.5433V47.939C52.1957 47.939 46.9018 36.69 46.4383 35.6974C46.3722 35.5652 46.1077 35.4308 46.0415 35.3668C45.1151 34.8372 42.3359 33.4468 42.3359 33.4468V50.0564L46.1759 52.1076V43.4393C46.1759 43.4393 51.4026 53.4969 51.4698 53.6297C51.7352 54.2096 52.1183 54.7278 52.5946 55.1518C53.3226 55.6148 56.5647 57.6004 56.5647 57.6004L56.4965 40.7268Z" fill="#5073B7"/>
</g>
</svg>
