<svg width="56" height="53" viewBox="0 0 56 53" fill="none" xmlns="http://www.w3.org/2000/svg">
<mask id="mask0_7200_56633" style="mask-type:alpha" maskUnits="userSpaceOnUse" x="0" y="0" width="56" height="53">
<rect width="56" height="53" fill="#D9D9D9"/>
</mask>
<g mask="url(#mask0_7200_56633)">
<path d="M39.2808 36.0979L39.2917 47.1574L29.4777 52.0547V41.0001L39.2808 36.0979ZM51.059 30.1871V41.2852L42.6886 45.4625L42.6826 34.4152L51.059 30.1871ZM39.2663 21.2948L39.2772 32.2383L29.4777 37.1078V26.1608L39.2663 21.2948ZM51.059 15.4323V26.3069L42.6802 30.5664L42.6729 19.6012L51.059 15.4323ZM27.9858 14.1458L36.7452 18.5671L27.6572 23.131L19.0634 18.8148L27.9858 14.1458ZM15.8017 7.99574L24.1564 12.2129L15.2134 16.8807L6.63281 12.5717L15.8017 7.99574ZM39.6843 8.05976L48.6828 12.5717L40.635 16.6138L31.8575 12.1864L39.6843 8.05976ZM27.7104 2.05469L35.8114 6.11606L28.0438 10.2632L19.6964 6.05324L27.7104 2.05469Z" fill="black"/>
<path d="M26.0133 26.1606L19.403 22.8373V37.2019C19.403 37.2019 11.3189 20.0009 10.5699 18.4558C10.4733 18.2565 10.0758 18.0378 9.97437 17.9847C8.52475 17.2236 4.27734 15.0721 4.27734 15.0721V40.4503L10.1532 43.5911V30.3258C10.1532 30.3258 18.1515 45.6955 18.2324 45.8634C18.3133 46.0313 19.1167 47.6513 19.9744 48.2202C21.1172 48.9765 26.0145 51.9216 26.0145 51.9216L26.0133 26.1606Z" fill="black"/>
</g>
</svg>
