<svg width="175" height="120" viewBox="0 0 175 120" fill="none" xmlns="http://www.w3.org/2000/svg">
<mask id="mask0_6857_55412" style="mask-type:alpha" maskUnits="userSpaceOnUse" x="0" y="0" width="175" height="120">
<rect width="175" height="120" fill="#D9D9D9"/>
</mask>
<g mask="url(#mask0_6857_55412)">
<path d="M86.9231 87.9986C71.8761 87.9986 59.1191 75.2899 59.0007 60.149C58.9749 56.4963 59.6742 52.8748 61.0582 49.4944C62.4422 46.1139 64.4833 43.0418 67.0633 40.4559C69.6602 37.7968 72.7596 35.68 76.1813 34.2284C79.603 32.7768 83.279 32.0194 86.9958 32C90.6459 31.9969 94.2605 32.716 97.6315 34.1159C101.002 35.5157 104.063 37.5687 106.637 40.1565C109.254 42.7078 111.34 45.7517 112.776 49.1128C114.211 52.474 114.967 56.0859 115 59.7405C115.069 75.2171 102.627 87.8443 87.1501 88.0018H86.9231V87.9986ZM87.0106 33.4655C83.4877 33.4864 80.0041 34.2066 76.7619 35.5844C73.5196 36.9622 70.5832 38.9701 68.123 41.4917C65.6762 43.9382 63.7393 46.8461 62.4246 50.0467C61.1099 53.2472 60.4434 56.677 60.4639 60.137C60.5726 74.4876 72.6664 86.5206 86.9138 86.5206H87.1045C101.779 86.3871 113.589 74.4236 113.534 59.7492C113.501 56.2873 112.784 52.866 111.423 49.6827C110.062 46.4993 108.084 43.6167 105.604 41.2011C103.171 38.7452 100.275 36.7968 97.0833 35.4689C93.8916 34.141 90.4675 33.46 87.0106 33.4655Z" fill="#F1592A" stroke="#F1592A"/>
<path d="M67.0004 67.9704V52.0444H70.6649V53.4716H68.7211V66.5728H70.6653V68L67.0004 67.9704ZM79.4372 59.8496C79.4372 62.7543 77.7691 64.4084 75.5097 64.4084C73.2504 64.4084 71.7447 62.5449 71.7447 60.0002C71.7447 57.3372 73.3233 55.462 75.6327 55.462C77.9421 55.462 79.4372 57.417 79.4372 59.8496ZM73.3233 59.9796C73.3233 61.7427 74.1601 63.1408 75.5967 63.1408C77.0332 63.1408 77.8585 61.7135 77.8585 59.9146C77.8585 58.2811 77.0968 56.7386 75.5962 56.7386C74.0957 56.7386 73.3093 58.2309 73.3093 60.015L73.3233 59.9796ZM80.7061 55.7629C81.4229 55.6329 82.1511 55.5683 82.879 55.571C83.6969 55.4869 84.519 55.6789 85.2274 56.1194C85.4931 56.2841 85.7122 56.5212 85.8619 56.8059C86.0115 57.0906 86.0862 57.4125 86.0782 57.7381C86.0687 58.1612 85.9331 58.5704 85.6907 58.9072C85.4483 59.244 85.1114 59.4913 84.7282 59.6137C85.6905 59.82 86.3823 60.7168 86.3823 61.7548C86.3873 62.0959 86.3188 62.4338 86.1821 62.7428C86.0453 63.0519 85.8439 63.3239 85.593 63.5385C85.0127 64.081 84.0479 64.3438 82.5553 64.3438C81.9419 64.3467 81.3289 64.3083 80.7201 64.2286L80.7061 55.7629ZM82.1902 59.1806H82.9515C83.9834 59.1806 84.5636 58.6672 84.5636 57.9331C84.5636 57.1987 83.9834 56.7476 83.0325 56.7476C82.7475 56.7383 82.4624 56.7601 82.1817 56.8126L82.1902 59.1806ZM82.1902 63.1614C82.4523 63.1905 82.7174 63.2026 82.979 63.1964C83.9389 63.1964 84.7867 62.8103 84.7867 61.7696C84.7867 60.7289 83.9639 60.3424 82.932 60.3424H82.1897L82.1902 63.1614ZM89.3308 55.6477H90.8225V61.2768C90.8225 63.6685 89.7295 64.4676 88.1229 64.4676C87.6937 64.4647 87.2678 64.3879 86.8619 64.2402L87.0435 62.9695C87.3416 63.0699 87.6542 63.1197 87.9693 63.126C88.8201 63.126 89.3193 62.713 89.3193 61.2149L89.3308 55.6477ZM95.068 60.3361V61.4275H91.9634V60.3361H95.068ZM102.317 64.0456C101.645 64.329 100.925 64.4586 100.205 64.4321C97.606 64.4321 96.0274 62.713 96.0274 60.0796C95.9073 57.6793 97.6505 55.6302 99.9209 55.5033C100.08 55.4943 100.242 55.4943 100.401 55.506C101.094 55.4755 101.786 55.6075 102.426 55.8925L102.094 57.1484C101.586 56.921 101.039 56.8065 100.487 56.8122C98.8194 56.8122 97.62 57.9183 97.62 60.0029C97.62 61.9019 98.6799 63.1287 100.476 63.1287C101.033 63.1377 101.586 63.0284 102.102 62.8072L102.317 64.0456ZM107 52V67.9673H103.335V66.5405H105.279V53.4272H103.335V52H107Z" fill="#F1592A" stroke="#F1592A" stroke-width="0.7"/>
</g>
</svg>
