<svg width="650" height="650" viewBox="0 0 650 650" fill="none" xmlns="http://www.w3.org/2000/svg">
<path d="M650 497.12H0V497.445H650V497.12Z" fill="#EBEBEB"/>
<path d="M584.87 518.037H541.814V518.362H584.87V518.037Z" fill="#EBEBEB"/>
<path d="M430.586 521.573H419.289V521.898H430.586V521.573Z" fill="#EBEBEB"/>
<path d="M540.514 505.973H515.567V506.298H540.514V505.973Z" fill="#EBEBEB"/>
<path d="M124.345 508.157H68.198V508.482H124.345V508.157Z" fill="#EBEBEB"/>
<path d="M144.157 508.157H135.928V508.482H144.157V508.157Z" fill="#EBEBEB"/>
<path d="M292.695 513.643H170.911V513.968H292.695V513.643Z" fill="#EBEBEB"/>
<path d="M308.1 439.14H57.0831C55.1166 439.137 53.2319 438.353 51.8426 436.961C50.4534 435.57 49.6731 433.683 49.6731 431.717V78.858C49.6902 76.9028 50.478 75.0334 51.8655 73.6557C53.2529 72.278 55.1279 71.5033 57.0831 71.5H308.1C310.069 71.5 311.957 72.2821 313.349 73.6741C314.741 75.0662 315.523 76.9543 315.523 78.923V431.717C315.523 433.686 314.741 435.574 313.349 436.966C311.957 438.358 310.069 439.14 308.1 439.14ZM57.0831 71.76C55.2028 71.7634 53.4008 72.5128 52.0725 73.8435C50.7441 75.1743 49.9981 76.9777 49.9981 78.858V431.717C49.9981 433.597 50.7441 435.401 52.0725 436.731C53.4008 438.062 55.2028 438.812 57.0831 438.815H308.1C309.982 438.812 311.785 438.063 313.115 436.732C314.446 435.402 315.195 433.598 315.198 431.717V78.858C315.195 76.9765 314.446 75.1731 313.115 73.8428C311.785 72.5124 309.982 71.7634 308.1 71.76H57.0831Z" fill="#EBEBEB"/>
<path d="M589.303 439.14H338.273C336.305 439.137 334.419 438.353 333.028 436.962C331.637 435.571 330.854 433.685 330.85 431.717V78.858C330.871 76.9016 331.661 75.0322 333.051 73.6549C334.44 72.2775 336.317 71.5033 338.273 71.5H589.303C591.256 71.5068 593.128 72.2829 594.512 73.6602C595.897 75.0376 596.683 76.9051 596.7 78.858V431.717C596.7 433.681 595.922 435.565 594.535 436.957C593.149 438.348 591.267 439.133 589.303 439.14ZM338.273 71.76C336.392 71.7634 334.588 72.5124 333.258 73.8428C331.927 75.1731 331.179 76.9765 331.175 78.858V431.717C331.179 433.598 331.927 435.402 333.258 436.732C334.588 438.063 336.392 438.812 338.273 438.815H589.303C591.185 438.812 592.988 438.063 594.318 436.732C595.649 435.402 596.398 433.598 596.401 431.717V78.858C596.398 76.9765 595.649 75.1731 594.318 73.8428C592.988 72.5124 591.185 71.7634 589.303 71.76H338.273Z" fill="#EBEBEB"/>
<path d="M232.882 315.497L534.079 315.497V115.206L232.882 115.206V315.497Z" fill="#E6E6E6"/>
<path d="M228.215 315.497L529.412 315.497V115.206L228.215 115.206V315.497Z" fill="#F5F5F5"/>
<path d="M521.04 306.085V124.592L236.574 124.592V306.085H521.04Z" fill="white"/>
<path d="M240.11 306.098V124.605H236.587V306.098H240.11Z" fill="#E6E6E6"/>
<path d="M231.673 262.288L525.954 262.288V249.665L231.673 249.665V262.288Z" fill="#F5F5F5"/>
<g opacity="0.4">
<path d="M247.299 105.313H218.868V274.755H247.299V105.313Z" fill="#E6E6E6"/>
<path d="M247.312 261.144H261.404V105.313H247.312L247.312 261.144Z" fill="#F5F5F5"/>
<path d="M289.835 105.313H261.404V274.755H289.835V105.313Z" fill="#E6E6E6"/>
<path d="M289.848 261.144H303.94V105.313H289.848V261.144Z" fill="#F5F5F5"/>
<path d="M332.371 105.313H303.94V274.755H332.371V105.313Z" fill="#E6E6E6"/>
<path d="M332.384 261.144H346.476V105.313H332.384V261.144Z" fill="#F5F5F5"/>
<path d="M374.907 105.313H346.476V274.755H374.907V105.313Z" fill="#E6E6E6"/>
<path d="M374.92 261.144H389.012V105.313H374.92V261.144Z" fill="#F5F5F5"/>
<path d="M417.443 105.313H389.012V274.755H417.443V105.313Z" fill="#E6E6E6"/>
<path d="M417.443 261.144H431.535V105.313H417.443V261.144Z" fill="#F5F5F5"/>
<path d="M459.966 105.313H431.535V274.755H459.966V105.313Z" fill="#E6E6E6"/>
<path d="M459.979 261.144H474.071V105.313H459.979V261.144Z" fill="#F5F5F5"/>
<path d="M502.502 105.313H474.071V274.755H502.502V105.313Z" fill="#E6E6E6"/>
<path d="M502.515 261.144H516.607V105.313H502.515V261.144Z" fill="#F5F5F5"/>
<path d="M545.038 105.313H516.607V274.755H545.038V105.313Z" fill="#E6E6E6"/>
</g>
<path d="M107.627 497.12H174.304L174.304 360.1H107.627L107.627 497.12Z" fill="#EBEBEB"/>
<path d="M120.289 497.12H107.627V469.209H133.575L120.289 497.12Z" fill="#F5F5F5"/>
<path d="M488.059 497.12H554.736V360.1H488.059V497.12Z" fill="#EBEBEB"/>
<path d="M107.627 479.999L499.109 479.999V360.1L107.627 360.1V479.999Z" fill="#F5F5F5"/>
<path d="M486.096 446.173H370.045C369.762 446.173 369.491 446.061 369.291 445.861C369.091 445.661 368.979 445.39 368.979 445.107V369.2C368.979 368.917 369.091 368.646 369.291 368.446C369.491 368.246 369.762 368.134 370.045 368.134H391.469C391.699 368.129 391.923 368.203 392.106 368.342C395.291 370.67 398.822 372.482 402.571 373.711C407.091 375.208 411.824 375.963 416.585 375.947H439.543C448.325 376.101 456.928 373.451 464.1 368.381C464.279 368.243 464.499 368.17 464.724 368.173H486.161C486.444 368.173 486.715 368.285 486.915 368.485C487.115 368.685 487.227 368.956 487.227 369.239V445.107C487.227 445.253 487.198 445.397 487.14 445.531C487.083 445.664 486.998 445.785 486.892 445.885C486.786 445.985 486.661 446.062 486.524 446.111C486.387 446.161 486.241 446.182 486.096 446.173ZM371.111 444.041H485.03V370.305H465.01C457.547 375.506 448.639 378.235 439.543 378.105H416.585C411.593 378.121 406.632 377.326 401.895 375.752C398.05 374.49 394.42 372.649 391.131 370.292H371.111V444.041Z" fill="#E6E6E6"/>
<path d="M361.4 446.173H245.336C245.053 446.173 244.782 446.061 244.582 445.861C244.382 445.661 244.27 445.39 244.27 445.107V369.2C244.27 368.917 244.382 368.646 244.582 368.446C244.782 368.246 245.053 368.134 245.336 368.134H265.603C265.833 368.129 266.057 368.203 266.24 368.342C269.402 370.669 272.912 372.481 276.64 373.711C281.16 375.208 285.893 375.963 290.654 375.947H313.612C322.364 376.076 330.93 373.412 338.065 368.342C338.249 368.206 338.473 368.133 338.702 368.134H361.4C361.54 368.132 361.68 368.159 361.81 368.212C361.94 368.265 362.058 368.343 362.158 368.442C362.257 368.542 362.335 368.66 362.388 368.79C362.441 368.92 362.468 369.06 362.466 369.2V445.068C362.471 445.211 362.448 445.354 362.396 445.488C362.345 445.622 362.267 445.744 362.168 445.847C362.068 445.95 361.949 446.032 361.817 446.088C361.685 446.144 361.543 446.173 361.4 446.173ZM246.415 444.041H360.334V370.305H339.118C331.663 375.504 322.765 378.233 313.677 378.105H290.719C285.727 378.121 280.766 377.326 276.029 375.752C272.177 374.498 268.541 372.657 265.252 370.292H246.402L246.415 444.041Z" fill="#E6E6E6"/>
<path d="M236.691 446.173H120.64C120.357 446.173 120.086 446.061 119.886 445.861C119.686 445.661 119.574 445.39 119.574 445.107V369.2C119.572 369.06 119.599 368.92 119.652 368.79C119.705 368.66 119.783 368.542 119.882 368.442C119.982 368.343 120.1 368.265 120.23 368.212C120.36 368.159 120.5 368.132 120.64 368.134H140.907C141.133 368.131 141.352 368.204 141.531 368.342C144.696 370.664 148.205 372.476 151.931 373.711C156.456 375.208 161.192 375.963 165.958 375.947H188.916C197.676 376.074 206.249 373.411 213.395 368.342C213.578 368.203 213.802 368.129 214.032 368.134H236.626C236.909 368.134 237.18 368.246 237.38 368.446C237.58 368.646 237.692 368.917 237.692 369.2V445.068C237.703 445.346 237.604 445.618 237.417 445.825C237.23 446.031 236.969 446.156 236.691 446.173ZM121.706 444.041H235.625V370.305H214.5C207.041 375.505 198.138 378.233 189.046 378.105H166.023C161.031 378.123 156.07 377.328 151.333 375.752C147.481 374.499 143.845 372.657 140.556 370.292H121.706V444.041Z" fill="#E6E6E6"/>
<path d="M486.447 497.12H499.109V469.209H473.174L486.447 497.12Z" fill="#F5F5F5"/>
<path d="M187.122 337.142H176.605C176.683 329.862 176.605 311.376 175.864 269.035C174.564 192.335 172.133 187.603 172.133 187.603L184.6 225.485C187.56 234.394 189.284 243.667 189.722 253.045C191.1 282.581 185.9 306.163 187.122 337.142Z" fill="#E6E6E6"/>
<path d="M195.117 214.058C209.144 192.829 237.146 181.753 265.772 171.327C277.004 167.232 245.466 218.023 222.534 241.059C204.724 258.947 187.434 258.544 182.325 276.159C181.337 255.697 183.027 232.349 195.117 214.058Z" fill="#E6E6E6"/>
<path d="M179.049 200.434C168.051 175.604 140.27 143.403 109.044 120.718C96.7851 111.813 127.036 188.318 148.369 219.596C164.983 243.984 180.479 258.83 182.897 276.224C193.375 254.462 190.034 225.251 179.049 200.434Z" fill="#E6E6E6"/>
<path d="M180.089 360.1C186.034 360.1 191.754 357.825 196.076 353.742C200.398 349.66 202.994 344.079 203.333 338.143L205.4 317.096H154.778L156.832 338.143C157.174 344.08 159.773 349.661 164.097 353.743C168.421 357.826 174.142 360.1 180.089 360.1Z" fill="#F0F0F0"/>
<path d="M151.502 317.213H208.676L210.314 309.738H149.864L151.502 317.213Z" fill="#F0F0F0"/>
<path d="M154.323 330.031H205.855L207.337 322.556H152.841L154.323 330.031Z" fill="#F0F0F0"/>
<path d="M325 555.828C464.207 555.828 577.057 549.239 577.057 541.112C577.057 532.985 464.207 526.396 325 526.396C185.793 526.396 72.9431 532.985 72.9431 541.112C72.9431 549.239 185.793 555.828 325 555.828Z" fill="#F5F5F5"/>
<path d="M526.864 413.829H123.123V459.537H526.864V413.829Z" fill="#BFD633"/>
<path opacity="0.3" d="M526.877 413.829H440.271V459.537H526.877V413.829Z" fill="black"/>
<path d="M167.7 459.537H123.123V541.112H167.7V459.537Z" fill="#BFD633"/>
<path opacity="0.3" d="M123.136 459.537V464.1L154.7 473.629V541.112H167.7V459.537H123.136Z" fill="black"/>
<path d="M526.877 459.537H482.3V541.112H526.877V459.537Z" fill="#BFD633"/>
<path opacity="0.2" d="M526.877 459.537H482.3V541.112H526.877V459.537Z" fill="black"/>
<path opacity="0.3" d="M482.3 459.537V464.1L513.877 473.629V541.112H526.877V459.537H482.3Z" fill="black"/>
<path d="M440.271 459.537H395.694V541.112H440.271V459.537Z" fill="#BFD633"/>
<path opacity="0.3" d="M395.694 459.537V464.1L427.271 473.629V541.112H440.271V459.537H395.694Z" fill="black"/>
<path d="M254.306 459.537H209.729V541.112H254.306V459.537Z" fill="#BFD633"/>
<path opacity="0.2" d="M254.306 459.537H209.729V541.112H254.306V459.537Z" fill="black"/>
<path opacity="0.3" d="M209.729 459.537V464.1L241.306 473.629V541.112H254.306V459.537H209.729Z" fill="black"/>
<path d="M471.224 404.846H224.38C223.611 404.852 222.849 404.698 222.142 404.394C221.435 404.091 220.799 403.644 220.274 403.082C219.748 402.52 219.345 401.855 219.09 401.129C218.835 400.404 218.732 399.633 218.79 398.866L228.956 237.549C229.085 235.941 229.807 234.439 230.982 233.333C232.156 232.228 233.7 231.599 235.313 231.569H482.144C482.913 231.563 483.675 231.717 484.382 232.021C485.089 232.324 485.725 232.771 486.25 233.333C486.776 233.895 487.179 234.56 487.434 235.286C487.689 236.011 487.792 236.782 487.734 237.549L477.568 398.866C477.439 400.472 476.719 401.972 475.547 403.077C474.375 404.182 472.834 404.812 471.224 404.846Z" fill="#263238"/>
<path opacity="0.6" d="M471.224 404.846H224.38C223.611 404.852 222.849 404.698 222.142 404.394C221.435 404.091 220.799 403.644 220.274 403.082C219.748 402.52 219.345 401.855 219.09 401.129C218.835 400.404 218.732 399.633 218.79 398.866L228.956 237.549C229.085 235.941 229.807 234.439 230.982 233.333C232.156 232.228 233.7 231.599 235.313 231.569H482.144C482.913 231.563 483.675 231.717 484.382 232.021C485.089 232.324 485.725 232.771 486.25 233.333C486.776 233.895 487.179 234.56 487.434 235.286C487.689 236.011 487.792 236.782 487.734 237.549L477.568 398.866C477.439 400.472 476.719 401.972 475.547 403.077C474.375 404.182 472.834 404.812 471.224 404.846Z" fill="black"/>
<path d="M469.378 404.846H222.547C221.777 404.853 221.013 404.701 220.305 404.398C219.597 404.095 218.959 403.649 218.432 403.086C217.905 402.524 217.501 401.859 217.245 401.132C216.989 400.406 216.886 399.634 216.944 398.866L227.11 237.549C227.239 235.941 227.961 234.438 229.136 233.333C230.311 232.228 231.854 231.599 233.467 231.569H480.298C481.068 231.561 481.831 231.714 482.539 232.017C483.246 232.32 483.883 232.767 484.409 233.329C484.935 233.891 485.338 234.557 485.592 235.283C485.847 236.01 485.948 236.781 485.888 237.549L475.722 398.866C475.594 400.472 474.873 401.972 473.701 403.077C472.529 404.182 470.989 404.812 469.378 404.846Z" fill="#263238"/>
<path d="M469.066 406.9H175.357C174.005 406.888 172.677 407.259 171.527 407.969C170.376 408.68 169.451 409.702 168.857 410.917C168.707 411.232 168.639 411.581 168.661 411.93C168.683 412.279 168.793 412.616 168.982 412.91C169.171 413.205 169.432 413.446 169.74 413.611C170.048 413.776 170.393 413.86 170.742 413.855H473.616C473.966 413.86 474.311 413.776 474.619 413.611C474.926 413.446 475.187 413.205 475.376 412.91C475.565 412.616 475.675 412.279 475.697 411.93C475.719 411.581 475.651 411.232 475.501 410.917C474.914 409.71 474 408.693 472.861 407.983C471.723 407.272 470.408 406.897 469.066 406.9Z" fill="#263238"/>
<path opacity="0.6" d="M469.066 406.9H427.297C425.955 406.895 424.639 407.27 423.5 407.981C422.362 408.691 421.447 409.709 420.862 410.917C420.712 411.231 420.645 411.579 420.666 411.927C420.687 412.274 420.797 412.611 420.984 412.905C421.171 413.199 421.43 413.44 421.736 413.606C422.042 413.772 422.386 413.858 422.734 413.855H473.616C473.966 413.86 474.311 413.776 474.619 413.611C474.927 413.446 475.187 413.205 475.376 412.91C475.565 412.616 475.675 412.279 475.697 411.93C475.719 411.581 475.652 411.232 475.501 410.917C474.915 409.71 474 408.693 472.862 407.983C471.723 407.272 470.408 406.897 469.066 406.9Z" fill="black"/>
<path d="M443.17 411.97H432.38C432.131 411.967 431.893 411.865 431.717 411.688C431.542 411.51 431.444 411.27 431.444 411.021C431.444 410.772 431.542 410.532 431.717 410.355C431.893 410.177 432.131 410.075 432.38 410.072H443.17C443.295 410.072 443.418 410.097 443.533 410.144C443.648 410.192 443.753 410.262 443.841 410.35C443.929 410.438 443.999 410.543 444.047 410.658C444.095 410.773 444.119 410.896 444.119 411.021C444.119 411.146 444.095 411.269 444.047 411.384C443.999 411.499 443.929 411.604 443.841 411.692C443.753 411.78 443.648 411.85 443.533 411.898C443.418 411.945 443.295 411.97 443.17 411.97Z" fill="#2EC4F3"/>
<path opacity="0.7" d="M304.421 411.97H293.644C293.392 411.97 293.151 411.87 292.973 411.692C292.795 411.514 292.695 411.273 292.695 411.021C292.695 410.896 292.72 410.773 292.767 410.658C292.815 410.543 292.885 410.438 292.973 410.35C293.061 410.262 293.166 410.192 293.281 410.144C293.396 410.097 293.519 410.072 293.644 410.072H304.421C304.546 410.072 304.669 410.097 304.784 410.144C304.899 410.192 305.004 410.262 305.092 410.35C305.18 410.438 305.25 410.543 305.298 410.658C305.346 410.773 305.37 410.896 305.37 411.021C305.37 411.273 305.27 411.514 305.092 411.692C304.914 411.87 304.673 411.97 304.421 411.97Z" fill="white"/>
<path d="M454.337 410.072H447.278C446.847 410.072 446.498 410.421 446.498 410.852V411.19C446.498 411.621 446.847 411.97 447.278 411.97H454.337C454.768 411.97 455.117 411.621 455.117 411.19V410.852C455.117 410.421 454.768 410.072 454.337 410.072Z" fill="#2EC4F3"/>
<path d="M222.508 393.042L231.946 243.373C231.995 242.748 232.275 242.165 232.732 241.737C233.189 241.308 233.79 241.067 234.416 241.059H478.153C478.452 241.054 478.748 241.112 479.023 241.229C479.298 241.345 479.546 241.518 479.75 241.736C479.955 241.954 480.111 242.212 480.21 242.494C480.309 242.776 480.348 243.075 480.324 243.373L470.899 393.042C470.847 393.667 470.564 394.251 470.105 394.679C469.646 395.107 469.044 395.348 468.416 395.356H224.692C224.393 395.358 224.098 395.299 223.823 395.182C223.548 395.065 223.301 394.892 223.096 394.675C222.891 394.458 222.733 394.201 222.632 393.92C222.53 393.639 222.488 393.34 222.508 393.042Z" fill="white"/>
<path opacity="0.1" d="M361.166 236.444L279.981 390.754H220.09C219.79 390.759 219.492 390.7 219.215 390.583C218.939 390.466 218.689 390.292 218.484 390.073C218.278 389.854 218.121 389.595 218.021 389.311C217.922 389.028 217.883 388.727 217.906 388.427L227.344 238.771C227.392 238.145 227.672 237.56 228.129 237.13C228.586 236.7 229.187 236.455 229.814 236.444H361.166Z" fill="#2EC4F3"/>
<path opacity="0.1" d="M432.263 236.444L351.078 390.754H332.15L413.335 236.444H432.263Z" fill="#2EC4F3"/>
<path opacity="0.1" d="M475.722 238.771L466.284 388.427C466.239 389.054 465.96 389.64 465.502 390.071C465.045 390.502 464.442 390.746 463.814 390.754H371.514L452.699 236.444H473.499C473.802 236.436 474.104 236.491 474.384 236.607C474.664 236.722 474.917 236.895 475.127 237.114C475.336 237.334 475.497 237.594 475.6 237.88C475.702 238.165 475.744 238.468 475.722 238.771Z" fill="#2EC4F3"/>
<path opacity="0.4" d="M358.319 236.6C358.284 237.072 358.073 237.513 357.729 237.838C357.386 238.162 356.933 238.347 356.46 238.355C356.234 238.358 356.01 238.313 355.803 238.224C355.595 238.135 355.408 238.004 355.254 237.839C355.1 237.674 354.982 237.478 354.907 237.265C354.833 237.052 354.804 236.825 354.822 236.6C354.855 236.127 355.064 235.684 355.409 235.359C355.753 235.034 356.207 234.85 356.681 234.845C356.907 234.843 357.131 234.887 357.339 234.976C357.546 235.065 357.733 235.196 357.887 235.361C358.041 235.526 358.159 235.722 358.234 235.935C358.308 236.148 358.337 236.375 358.319 236.6Z" fill="white"/>
<path d="M318.045 200.707C310.934 208.845 306.826 233.792 312.091 246.064C317.356 258.336 256.269 270.621 306.67 290.563C357.071 310.505 397.384 287.378 382.798 266.721C368.212 246.064 384.371 211.666 367.484 203.021C352.222 195.143 332.293 184.392 318.045 200.707Z" fill="#263238"/>
<path d="M302.978 301.158C300.313 310.258 297.479 319.358 294.541 328.458C291.603 337.558 288.548 346.554 285.311 355.589L284.076 358.995L283.452 360.698L283.257 361.205L282.945 361.972C282.75 362.466 282.451 362.999 282.191 363.506C280.92 365.827 279.024 367.746 276.718 369.044C274.624 370.181 272.288 370.796 269.906 370.838C266.566 370.854 263.255 370.204 260.169 368.927C257.642 367.902 255.196 366.689 252.85 365.3C244.326 360.059 236.514 353.741 229.606 346.502L235.209 339.898C237.094 341.107 239.109 342.394 241.059 343.603C243.009 344.812 245.05 345.982 247.026 347.139C250.898 349.405 254.895 351.449 258.999 353.262C260.869 354.086 262.798 354.769 264.771 355.303C266.135 355.755 267.577 355.924 269.009 355.797C269.373 355.797 269.308 355.589 269.009 355.706C268.71 355.823 268.385 356.161 268.372 356.122C268.359 356.083 268.372 356.122 268.372 356.044C268.378 356.018 268.378 355.992 268.372 355.966L268.476 355.641L268.97 353.964L269.971 350.584L277.914 323.284C280.618 314.184 283.4 305.084 286.26 295.984L302.978 301.158Z" fill="#B65B52"/>
<path d="M234.806 339.69L219.7 334.1L225.693 350.064C225.693 350.064 236.353 351.598 240.487 345.995L237.12 341.484C236.536 340.677 235.733 340.054 234.806 339.69Z" fill="#B55B52"/>
<path d="M206.375 338.741L212.121 351.832L225.758 350.038L219.752 334.074L206.375 338.741Z" fill="#B55B52"/>
<path d="M291.954 277.615C285.038 279.37 280.254 307.801 280.254 307.801L299.299 320.801C299.299 320.801 317.499 292.123 312.234 284.531C306.644 276.562 302.029 275.054 291.954 277.615Z" fill="#2EC4F3"/>
<path opacity="0.5" d="M291.954 277.615C285.038 279.37 280.254 307.801 280.254 307.801L299.299 320.801C299.299 320.801 317.499 292.123 312.234 284.531C306.644 276.562 302.029 275.054 291.954 277.615Z" fill="white"/>
<path opacity="0.2" d="M291.33 287.95L306.111 291.369L307.528 305.838C305.024 310.946 302.26 315.923 299.247 320.749L287.69 312.949C288.197 306.254 289.445 292.5 291.33 287.95Z" fill="black"/>
<path d="M291.954 277.615C291.954 277.615 283.959 280.423 299.962 378.781H368.03C366.886 351.078 366.86 333.983 380.094 277.134C370.567 275.164 360.908 273.891 351.195 273.325C339.742 272.766 330.395 272.402 320.281 273.325C307.008 274.534 291.954 277.615 291.954 277.615Z" fill="#2EC4F3"/>
<path opacity="0.5" d="M291.954 277.615C291.954 277.615 283.959 280.423 299.962 378.781H368.03C366.886 351.078 366.86 333.983 380.094 277.134C370.567 275.164 360.908 273.891 351.195 273.325C339.742 272.766 330.395 272.402 320.281 273.325C307.008 274.534 291.954 277.615 291.954 277.615Z" fill="white"/>
<path opacity="0.2" d="M364.078 303.524L372.866 311.012C370.994 320.957 369.733 329.212 368.966 336.609C367.289 329.225 363.103 309.179 364.078 303.524Z" fill="black"/>
<path d="M348.127 238.511C346.177 248.456 344.227 266.682 351.195 273.325C351.195 273.325 344.695 288.223 327.47 288.223C310.245 288.223 320.281 273.325 320.281 273.325C331.37 270.725 331.084 262.444 329.16 254.722L348.127 238.511Z" fill="#B55B52"/>
<path d="M348.985 269.607C347.347 272.922 342.069 280.501 327.327 283.205C326.917 283.28 326.494 283.197 326.144 282.971C323.388 281.047 321.672 276.978 322.881 272.259C322.961 271.969 322.959 271.662 322.874 271.374C322.789 271.085 322.625 270.826 322.4 270.626C322.176 270.426 321.899 270.293 321.603 270.241C321.307 270.19 321.002 270.222 320.723 270.335C319.591 270.809 318.503 271.383 317.473 272.051C317.247 272.201 317.063 272.407 316.94 272.649C315.861 274.677 311.493 284.609 324.675 290.732C324.885 290.822 325.11 290.875 325.338 290.888C333.138 291.044 346.775 289.51 355.394 273.988C355.548 273.708 355.616 273.388 355.591 273.07C355.566 272.751 355.447 272.446 355.251 272.194C354.093 270.926 352.747 269.843 351.26 268.983C351.073 268.863 350.862 268.783 350.642 268.75C350.423 268.716 350.198 268.729 349.983 268.788C349.769 268.847 349.569 268.95 349.397 269.091C349.225 269.232 349.085 269.408 348.985 269.607Z" fill="#FAFAFA"/>
<path d="M352.599 310.531L335.049 310.024C334.866 310.025 334.684 309.987 334.516 309.913C334.348 309.839 334.198 309.73 334.075 309.594C333.953 309.458 333.86 309.297 333.804 309.122C333.748 308.948 333.729 308.763 333.749 308.581L333.918 306.41C333.969 306.045 334.152 305.711 334.432 305.471C334.712 305.232 335.07 305.103 335.439 305.11L352.989 305.617C353.174 305.616 353.357 305.654 353.525 305.728C353.694 305.803 353.845 305.913 353.968 306.051C354.091 306.189 354.183 306.351 354.239 306.527C354.294 306.704 354.311 306.89 354.289 307.073L354.12 309.231C354.069 309.596 353.886 309.93 353.606 310.169C353.326 310.409 352.968 310.538 352.599 310.531Z" fill="#FAFAFA"/>
<path opacity="0.2" d="M340.392 245.128L329.16 254.709C329.642 256.506 329.964 258.341 330.122 260.195C334.347 259.584 340.171 254.93 340.626 250.497C340.875 248.708 340.796 246.889 340.392 245.128Z" fill="black"/>
<path d="M361.231 219.7C358.098 236.041 357.123 243.022 347.711 250.393C333.554 261.495 314.171 254.059 312.377 237.12C310.752 221.871 316.147 197.717 333.177 193.245C336.909 192.253 340.832 192.231 344.575 193.179C348.318 194.128 351.757 196.016 354.567 198.665C357.376 201.314 359.463 204.637 360.629 208.318C361.795 211.999 362.002 215.916 361.231 219.7Z" fill="#B55B52"/>
<path d="M351.936 207.61C349.908 217.841 349.427 231.4 358.8 231.4C368.173 231.4 375.518 215.449 367.432 202.956C359.346 190.463 353.119 201.578 351.936 207.61Z" fill="#263238"/>
<path d="M368.134 208.871C368.134 219.999 354.12 214.5 347.919 209.703C341.718 204.906 341.419 205.426 329.927 205.413C318.435 205.4 316.134 204.607 312.741 199.121C309.348 193.635 309.66 190.021 317.304 191.178C324.948 192.335 318.526 184.535 324.22 180.206C329.914 175.877 336.661 176.969 344.448 186.849C352.235 196.729 368.134 189.592 368.134 208.871Z" fill="#263238"/>
<path d="M364.02 234.239C365.494 229.21 364.048 224.358 360.789 223.403C357.53 222.447 353.693 225.75 352.218 230.78C350.744 235.809 352.19 240.661 355.449 241.616C358.708 242.572 362.545 239.269 364.02 234.239Z" fill="white"/>
<path d="M338 246.818C334.983 246.817 331.997 246.203 329.225 245.011C329.166 244.987 329.112 244.951 329.066 244.906C329.021 244.86 328.985 244.807 328.961 244.747C328.937 244.688 328.925 244.624 328.925 244.56C328.926 244.496 328.94 244.433 328.965 244.374C329.019 244.255 329.117 244.162 329.238 244.114C329.359 244.065 329.494 244.065 329.615 244.114C332.227 245.235 335.038 245.821 337.88 245.836C340.723 245.852 343.54 245.297 346.164 244.205C348.717 243.161 351.034 241.616 352.981 239.663C354.928 237.709 356.464 235.386 357.5 232.83C361.4 221.663 365.378 207.727 360.776 199.03C359.85 197.337 358.569 195.865 357.021 194.714C355.473 193.563 353.694 192.76 351.806 192.361C351.681 192.327 351.574 192.246 351.508 192.134C351.442 192.022 351.423 191.889 351.455 191.763C351.489 191.638 351.57 191.531 351.682 191.465C351.794 191.399 351.927 191.38 352.053 191.412C354.07 191.846 355.969 192.709 357.623 193.943C359.276 195.177 360.644 196.752 361.634 198.562C366.418 207.545 362.427 221.754 358.41 233.129C357.32 235.813 355.704 238.252 353.657 240.302C351.609 242.352 349.172 243.97 346.489 245.063C343.8 246.193 340.917 246.789 338 246.818Z" fill="white"/>
<path opacity="0.6" d="M363.545 234.286C362.388 238.186 359.736 240.929 357.617 240.318C355.498 239.707 354.718 235.989 355.875 232.037C357.032 228.085 359.684 225.381 361.803 226.005C363.922 226.629 364.702 230.334 363.545 234.286Z" fill="#2EC4F3"/>
<path d="M330.575 242.86L325.482 241.877C324.586 241.704 323.721 242.29 323.548 243.186L323.491 243.479C323.318 244.374 323.904 245.24 324.8 245.413L329.893 246.396C330.788 246.568 331.654 245.983 331.826 245.087L331.883 244.794C332.056 243.898 331.47 243.033 330.575 242.86Z" fill="white"/>
<path d="M323.921 221.065C323.921 221.065 320.905 226.538 318.045 228.995C319.592 230.88 322.712 230.516 322.712 230.516L323.921 221.065Z" fill="#A02724"/>
<path d="M326.794 237.51H326.911C329.858 237.743 332.784 236.851 335.101 235.014C335.149 234.965 335.175 234.9 335.175 234.832C335.175 234.764 335.149 234.699 335.101 234.65C335.078 234.627 335.051 234.609 335.021 234.596C334.99 234.583 334.958 234.577 334.926 234.577C334.893 234.577 334.861 234.583 334.83 234.596C334.8 234.609 334.773 234.627 334.75 234.65C332.538 236.389 329.756 237.237 326.95 237.029C326.917 237.024 326.882 237.025 326.849 237.033C326.817 237.042 326.786 237.057 326.759 237.077C326.732 237.098 326.71 237.124 326.694 237.154C326.677 237.184 326.667 237.216 326.664 237.25C326.657 237.301 326.666 237.354 326.689 237.4C326.712 237.446 326.749 237.485 326.794 237.51Z" fill="#263238"/>
<path d="M341.666 214.63C341.74 214.671 341.823 214.693 341.907 214.693C341.991 214.693 342.074 214.671 342.147 214.63C342.259 214.556 342.337 214.441 342.366 214.31C342.395 214.18 342.373 214.043 342.303 213.928C341.681 212.887 340.821 212.009 339.792 211.367C338.763 210.725 337.597 210.337 336.388 210.236C336.253 210.236 336.122 210.289 336.025 210.384C335.928 210.478 335.872 210.607 335.868 210.743C335.868 210.875 335.92 211.002 336.012 211.097C336.104 211.192 336.23 211.247 336.362 211.25C337.403 211.349 338.407 211.693 339.29 212.253C340.173 212.814 340.912 213.574 341.445 214.474C341.503 214.545 341.58 214.599 341.666 214.63Z" fill="#263238"/>
<path d="M334.217 221.286C333.996 222.586 333.099 223.587 332.215 223.444C331.331 223.301 330.824 222.144 331.045 220.74C331.266 219.336 332.176 218.439 333.047 218.582C333.918 218.725 334.451 219.947 334.217 221.286Z" fill="#263238"/>
<path d="M319.059 218.712C318.838 220.012 317.941 221.013 317.057 220.87C316.173 220.727 315.666 219.505 315.887 218.166C316.108 216.827 317.018 215.852 317.889 216.008C318.76 216.164 319.293 217.36 319.059 218.712Z" fill="#263238"/>
<path d="M318.266 216.151L315.198 214.669C315.198 214.669 316.42 217.464 318.266 216.151Z" fill="#263238"/>
<path d="M333.424 218.725L330.356 217.256C330.356 217.256 331.578 220.051 333.424 218.725Z" fill="#263238"/>
<path d="M313.911 209.651C313.99 209.698 314.08 209.723 314.171 209.723C314.263 209.723 314.353 209.698 314.431 209.651C315.233 208.977 316.187 208.506 317.21 208.28C318.233 208.054 319.296 208.078 320.307 208.351C320.435 208.396 320.575 208.388 320.697 208.33C320.819 208.271 320.912 208.166 320.957 208.039C321.002 207.911 320.994 207.771 320.936 207.649C320.877 207.527 320.773 207.434 320.645 207.389C319.479 207.057 318.249 207.011 317.061 207.255C315.873 207.5 314.761 208.027 313.82 208.793C313.766 208.831 313.72 208.881 313.686 208.938C313.651 208.995 313.629 209.058 313.621 209.124C313.612 209.19 313.617 209.257 313.636 209.321C313.655 209.385 313.686 209.444 313.729 209.495C313.773 209.564 313.836 209.619 313.911 209.651Z" fill="#263238"/>
<path d="M297.375 395.356C297.375 395.356 297.193 386.048 299.975 378.781H368.03C368.03 378.781 374.153 388.661 375.739 395.356H297.375Z" fill="#2EC4F3"/>
<path d="M369.057 374.79L369.59 380.874C369.837 381.355 369.278 381.836 368.485 381.836H299.585C298.974 381.836 298.467 381.537 298.428 381.147L297.804 375.05C297.804 374.634 298.298 374.27 298.974 374.27H367.874C368.099 374.246 368.327 374.281 368.535 374.373C368.742 374.464 368.922 374.608 369.057 374.79Z" fill="#2EC4F3"/>
<path opacity="0.3" d="M369.057 374.79L369.59 380.874C369.837 381.355 369.278 381.836 368.485 381.836H299.585C298.974 381.836 298.467 381.537 298.428 381.147L297.804 375.05C297.804 374.634 298.298 374.27 298.974 374.27H367.874C368.099 374.246 368.327 374.281 368.535 374.373C368.742 374.464 368.922 374.608 369.057 374.79Z" fill="#FAFAFA"/>
<path d="M359.788 382.486H361.634C362.011 382.486 362.284 382.304 362.258 382.07L361.4 374.153C361.4 373.919 361.049 373.737 360.685 373.737H358.8C358.423 373.737 358.15 373.919 358.176 374.153L359.034 382.07C359.099 382.304 359.424 382.486 359.788 382.486Z" fill="#2EC4F3"/>
<path d="M304.811 382.486H306.657C307.021 382.486 307.307 382.304 307.281 382.07L306.41 374.153C306.41 373.919 306.072 373.737 305.695 373.737H303.849C303.485 373.737 303.199 373.919 303.225 374.153L304.096 382.07C304.122 382.304 304.447 382.486 304.811 382.486Z" fill="#2EC4F3"/>
<path d="M332.306 382.486H334.1C334.464 382.486 334.75 382.304 334.724 382.07L333.853 374.153C333.853 373.919 333.502 373.737 333.138 373.737H331.292C330.928 373.737 330.642 373.919 330.668 374.153L331.539 382.07C331.617 382.304 331.929 382.486 332.306 382.486Z" fill="#2EC4F3"/>
<path d="M385.918 296.4C388.908 306.107 391.781 315.865 394.537 325.676L398.684 340.314L400.751 347.594L401.271 349.388L401.531 350.285L401.596 350.493L401.388 350.168C401.06 349.697 400.655 349.284 400.192 348.946C399.175 348.206 397.964 347.777 396.708 347.711C395.759 347.666 394.813 347.853 393.952 348.257C393.016 348.764 393.107 348.881 393.185 348.79C393.405 348.598 393.606 348.385 393.783 348.153C394.396 347.387 394.96 346.584 395.473 345.748C396.617 343.876 397.748 341.77 398.814 339.612C401.024 335.296 403.013 330.72 405.028 326.118C407.043 321.516 408.928 316.862 410.878 312.169C412.828 307.476 414.687 302.757 416.611 298.103L424.918 300.573C422.76 310.713 420.238 320.671 417.118 330.59C415.584 335.569 413.881 340.496 411.918 345.488C410.904 347.984 409.825 350.48 408.486 353.067C407.772 354.466 406.973 355.821 406.094 357.123C405.548 357.94 404.939 358.713 404.274 359.437C403.219 360.634 401.938 361.61 400.504 362.31C399.073 363.006 397.492 363.336 395.902 363.272C394.017 363.167 392.206 362.502 390.702 361.361C389.743 360.638 388.913 359.759 388.245 358.761C387.823 358.12 387.453 357.446 387.14 356.746C387.023 356.46 386.893 356.161 386.802 355.901L386.555 355.264L386.217 354.341L385.541 352.508C384.657 350.077 383.76 347.646 382.941 345.215C381.277 340.353 379.613 335.504 378.053 330.629C374.864 320.888 371.891 311.099 369.135 301.262L385.918 296.4Z" fill="#B65B52"/>
<path d="M380.094 277.134C386.919 279.201 397.358 305.968 397.358 305.968L370.903 324.883C370.903 324.883 359.008 302.003 361.868 293.189C364.858 284.011 372.32 274.768 380.094 277.134Z" fill="#2EC4F3"/>
<path opacity="0.5" d="M380.094 277.134C386.919 279.201 397.358 305.968 397.358 305.968L370.903 324.883C370.903 324.883 359.008 302.003 361.868 293.189C364.858 284.011 372.32 274.768 380.094 277.134Z" fill="white"/>
<path d="M416.91 301.665L413.283 285.675L428.363 293.631C428.363 293.631 428.545 304.395 422.461 307.788L416.91 301.665Z" fill="#B55B52"/>
<path d="M419.601 272.987L429.221 279.812L428.363 293.631L413.283 285.675L419.601 272.987Z" fill="#B55B52"/>
<path d="M149.5 192.517H254.8C256.81 192.497 258.803 192.895 260.652 193.684C262.501 194.474 264.166 195.639 265.542 197.105C266.918 198.571 267.974 200.307 268.645 202.202C269.315 204.098 269.586 206.112 269.438 208.117L266.5 255.775C266.177 259.97 264.3 263.894 261.237 266.779C258.174 269.664 254.145 271.303 249.938 271.375H237.744L242.723 287.742L218.907 271.375H144.677C142.666 271.395 140.674 270.997 138.825 270.207C136.976 269.418 135.311 268.253 133.935 266.787C132.559 265.32 131.503 263.585 130.832 261.689C130.161 259.794 129.891 257.78 130.039 255.775L132.951 208.117C133.274 203.924 135.149 200.001 138.209 197.117C141.269 194.232 145.295 192.592 149.5 192.517Z" fill="#BFD633"/>
<path d="M245.154 217.477H156.104C155.726 217.475 155.352 217.394 155.007 217.24C154.662 217.086 154.352 216.862 154.098 216.583C153.844 216.303 153.65 215.973 153.53 215.615C153.41 215.256 153.366 214.877 153.4 214.5C153.458 213.711 153.809 212.972 154.384 212.429C154.959 211.885 155.716 211.576 156.507 211.562H245.57C245.946 211.563 246.318 211.641 246.663 211.792C247.007 211.942 247.317 212.162 247.573 212.438C247.829 212.713 248.026 213.039 248.151 213.393C248.276 213.748 248.327 214.125 248.3 214.5C248.253 215.304 247.902 216.059 247.317 216.613C246.733 217.166 245.959 217.475 245.154 217.477Z" fill="white"/>
<path d="M192.4 234.884H155.038C154.66 234.887 154.285 234.811 153.937 234.662C153.589 234.513 153.276 234.294 153.017 234.018C152.758 233.742 152.56 233.415 152.433 233.059C152.306 232.702 152.255 232.323 152.282 231.946C152.34 231.155 152.693 230.414 153.271 229.87C153.848 229.327 154.609 229.019 155.402 229.008H192.803C193.182 229.003 193.558 229.078 193.908 229.226C194.257 229.374 194.572 229.593 194.832 229.869C195.092 230.146 195.292 230.473 195.42 230.83C195.547 231.188 195.599 231.568 195.572 231.946C195.51 232.745 195.149 233.491 194.561 234.036C193.973 234.58 193.201 234.883 192.4 234.884Z" fill="white"/>
<path d="M224.419 252.291H153.972C153.594 252.294 153.219 252.218 152.871 252.069C152.523 251.92 152.21 251.701 151.951 251.425C151.693 251.149 151.494 250.822 151.367 250.466C151.24 250.109 151.189 249.73 151.216 249.353C151.271 248.561 151.623 247.818 152.202 247.274C152.78 246.73 153.542 246.423 154.336 246.415H224.783C225.162 246.41 225.538 246.484 225.886 246.633C226.235 246.781 226.549 247.001 226.808 247.277C227.067 247.553 227.266 247.881 227.392 248.238C227.518 248.595 227.568 248.975 227.539 249.353C227.48 250.144 227.128 250.885 226.55 251.429C225.973 251.972 225.212 252.28 224.419 252.291Z" fill="white"/>
<path d="M219.843 234.884H205.114C204.736 234.887 204.361 234.811 204.013 234.662C203.665 234.513 203.352 234.294 203.093 234.018C202.835 233.742 202.636 233.415 202.509 233.059C202.383 232.702 202.331 232.323 202.358 231.946C202.419 231.156 202.773 230.417 203.35 229.874C203.927 229.331 204.686 229.022 205.478 229.008H220.194C220.573 229.003 220.949 229.078 221.297 229.226C221.646 229.374 221.96 229.594 222.219 229.87C222.478 230.146 222.677 230.474 222.803 230.831C222.929 231.189 222.979 231.568 222.95 231.946C222.892 232.735 222.541 233.474 221.966 234.017C221.391 234.561 220.634 234.87 219.843 234.884Z" fill="white"/>
<path d="M296.127 106.847H238.719C235.445 106.896 232.308 108.168 229.924 110.412C227.541 112.656 226.082 115.711 225.836 118.976L223.6 156.078C223.489 157.638 223.702 159.204 224.225 160.677C224.749 162.151 225.573 163.5 226.644 164.64C227.715 165.779 229.011 166.684 230.449 167.298C231.887 167.912 233.437 168.222 235.001 168.207H244.4L238.966 180.947L259.064 168.207H292.37C295.644 168.158 298.781 166.886 301.165 164.642C303.548 162.397 305.007 159.343 305.253 156.078L307.528 118.976C307.639 117.416 307.426 115.85 306.903 114.376C306.379 112.903 305.555 111.554 304.484 110.414C303.413 109.275 302.117 108.37 300.679 107.756C299.241 107.142 297.691 106.832 296.127 106.847Z" fill="#2EC4F3"/>
<g opacity="0.5">
<path d="M296.127 106.847H238.719C235.445 106.896 232.308 108.168 229.924 110.412C227.541 112.656 226.082 115.711 225.836 118.976L223.6 156.078C223.489 157.638 223.702 159.204 224.225 160.677C224.749 162.151 225.573 163.5 226.644 164.64C227.715 165.779 229.011 166.684 230.449 167.298C231.887 167.912 233.437 168.222 235.001 168.207H244.4L238.966 180.947L259.064 168.207H292.37C295.644 168.158 298.781 166.886 301.165 164.642C303.548 162.397 305.007 159.343 305.253 156.078L307.528 118.976C307.639 117.416 307.426 115.85 306.903 114.376C306.379 112.903 305.555 111.554 304.484 110.414C303.413 109.275 302.117 108.37 300.679 107.756C299.241 107.142 297.691 106.832 296.127 106.847Z" fill="#FAFAFA"/>
</g>
<path d="M268.45 143.598C268.252 144.415 267.786 145.142 267.126 145.663C266.466 146.184 265.651 146.468 264.81 146.471H261.417C261.417 145.509 261.495 144.924 261.508 144.716C261.557 142.842 262.038 141.005 262.912 139.347C264.14 137.499 265.701 135.894 267.514 134.615C268.96 133.567 270.325 132.411 271.596 131.157C272.27 130.359 272.671 129.366 272.74 128.323C272.791 127.632 272.683 126.939 272.424 126.297C272.164 125.654 271.761 125.08 271.245 124.618C269.984 123.538 268.353 122.988 266.695 123.084C264.952 123.036 263.248 123.607 261.885 124.696C261.075 125.364 260.411 126.192 259.935 127.127C259.584 127.81 259.039 128.375 258.368 128.749C257.697 129.124 256.931 129.292 256.165 129.233C255.614 129.165 255.089 128.959 254.638 128.634C254.188 128.309 253.827 127.875 253.588 127.374C253.35 126.872 253.242 126.319 253.274 125.764C253.306 125.21 253.478 124.673 253.773 124.202C254.557 122.886 255.565 121.715 256.75 120.744C259.567 118.479 263.109 117.311 266.721 117.455C270.972 117.455 274.274 118.56 276.653 120.783C277.767 121.741 278.643 122.943 279.214 124.297C279.785 125.65 280.034 127.117 279.942 128.583C279.823 130.249 279.247 131.85 278.278 133.211C276.452 135.459 274.341 137.461 271.999 139.165C270.785 140.012 269.737 141.074 268.905 142.298C268.693 142.708 268.54 143.146 268.45 143.598ZM261.027 152.932V152.516C261.095 151.577 261.514 150.697 262.2 150.052C262.887 149.407 263.79 149.043 264.732 149.032H265.2C265.65 149.025 266.097 149.113 266.512 149.288C266.927 149.463 267.301 149.723 267.611 150.051C267.92 150.378 268.158 150.767 268.309 151.191C268.46 151.615 268.521 152.067 268.489 152.516V152.932C268.421 153.873 268.002 154.754 267.317 155.401C266.631 156.048 265.727 156.415 264.784 156.429H264.368C263.912 156.443 263.458 156.361 263.036 156.188C262.614 156.015 262.233 155.756 261.918 155.426C261.602 155.096 261.36 154.703 261.207 154.274C261.053 153.844 260.992 153.387 261.027 152.932Z" fill="white"/>
</svg>
