<svg width="56" height="53" viewBox="0 0 56 53" fill="none" xmlns="http://www.w3.org/2000/svg">
<mask id="mask0_7196_12276" style="mask-type:alpha" maskUnits="userSpaceOnUse" x="0" y="0" width="56" height="53">
<rect width="56" height="53" fill="#D9D9D9"/>
</mask>
<g mask="url(#mask0_7196_12276)">
<path d="M46.0053 30.9626C45.5156 31.0349 45.398 32.1141 45.8424 32.4567C46.359 32.8855 46.7434 33.3283 46.9767 33.7296C47.9703 35.7953 49.5456 37.7937 47.4209 40.0126C44.4394 42.2416 43.824 42.1169 42.0212 42.7759C38.4156 44.0937 33.3897 44.9187 27.8382 44.9187C22.287 44.9187 17.1054 44.9497 13.4996 43.6319C8.403 40.6556 7.73418 40.737 7.83725 34.7323C7.83725 34.4481 7.91533 34.1308 8.148 33.7296C8.38067 33.3285 8.7632 32.8853 9.27937 32.4567C9.74443 32.0778 9.56361 30.9335 9.04405 30.9675C9.00423 30.9694 8.96471 30.9793 8.92638 30.997C6.88954 31.9477 5.23675 33.0511 4.0571 34.3194C2.87745 35.5876 2.11719 37.0943 2.11719 38.841C2.11719 40.7082 2.97755 42.2927 4.30753 43.6231C5.63749 44.9535 7.50181 46.1005 9.78928 47.0684C14.3643 49.0043 20.6348 50.1893 27.5617 50.1893C34.489 50.1893 40.759 49.0043 45.3341 47.0684C47.6216 46.1004 49.486 44.9535 50.8158 43.6231C52.1458 42.2927 53.0062 40.7082 53.0062 38.841C53.0062 37.0939 52.2435 35.5875 51.0633 34.3194C49.8831 33.0513 48.2315 31.9477 46.1939 30.997C46.1326 30.965 46.068 30.9533 46.0038 30.9626L46.0053 30.9626Z" fill="black"/>
<path d="M18.325 8.30755C18.3008 8.30841 18.2766 8.31042 18.2526 8.31358C17.6522 8.41292 17.3041 8.88322 17.1303 9.18547C16.9565 9.48774 16.8339 9.70528 16.8286 9.71042C16.7804 9.758 16.7389 9.81177 16.7049 9.87031C15.4013 12.0822 13.8091 14.5492 13.7422 17.4851C13.7419 17.5193 13.7439 17.5536 13.7482 17.5876C14.0188 19.978 15.4389 22.0633 16.913 23.6004C16.914 23.6004 16.915 23.6004 16.916 23.6004C18.4719 25.2208 19.5037 26.9656 18.9645 28.9042C18.9599 28.9221 18.9558 28.9402 18.9525 28.9585C18.5808 30.7858 17.8945 32.579 17.1966 34.386C17.1415 34.5294 17.131 34.686 17.1664 34.8355C17.2679 35.2634 17.5562 35.7417 18.0564 35.8643C18.5566 35.9868 18.9161 35.766 19.1696 35.5746C19.6429 35.2173 19.9519 34.7789 20.141 34.2954C21.4355 32.0994 22.9991 29.6531 23.0644 26.744C23.0648 26.7087 23.0628 26.6735 23.0584 26.6384C22.7832 24.2645 21.3892 22.1743 19.9237 20.6316C19.9232 20.6311 19.9241 20.6291 19.9237 20.6286H19.9267C19.1845 19.8423 18.523 19.0225 18.1256 18.1939C17.7282 17.3653 17.5771 16.5575 17.8088 15.6385C17.8149 15.6175 17.82 15.5962 17.8243 15.5748C18.1409 13.6399 18.8939 11.7415 19.6073 9.80042C19.6387 9.71644 19.655 9.6276 19.6556 9.53795C19.6548 8.79752 19.0303 8.26022 18.3251 8.30704L18.325 8.30755Z" fill="black"/>
<path d="M38.3719 8.16158C38.3476 8.16245 38.3235 8.16446 38.2995 8.16762C37.6991 8.26696 37.351 8.73725 37.1772 9.03951C37.0033 9.34177 36.8807 9.55931 36.8755 9.56445C36.8273 9.61203 36.7857 9.6658 36.7518 9.72435C35.4482 11.9362 33.856 14.4033 33.7891 17.3391C33.7888 17.3734 33.7908 17.4077 33.7951 17.4417C34.0656 19.832 35.4858 21.9174 36.9599 23.4544C36.9609 23.4544 36.9619 23.4544 36.9629 23.4544C38.5188 25.0749 39.5506 26.8197 39.0114 28.7582C39.0067 28.7762 39.0027 28.7943 38.9993 28.8125C38.6277 30.6399 37.9413 32.433 37.2434 34.24C37.1884 34.3834 37.1779 34.5401 37.2133 34.6895C37.3148 35.1174 37.603 35.5957 38.1033 35.7183C38.6035 35.8409 38.963 35.6201 39.2165 35.4287C39.6898 35.0714 39.9988 34.6329 40.1879 34.1495C41.4823 31.9534 43.046 29.5072 43.1113 26.5981C43.1117 26.5628 43.1097 26.5275 43.1053 26.4925C42.8306 24.1188 41.4361 22.0291 39.9706 20.4857C39.9702 20.4852 39.9711 20.4832 39.9706 20.4827H39.9737C39.2314 19.6964 38.5699 18.8766 38.1726 18.048C37.7751 17.2194 37.6241 16.4116 37.8558 15.4926C37.8617 15.4717 37.8667 15.4506 37.8709 15.4293C38.1875 13.4944 38.9405 11.596 39.6539 9.65492C39.6853 9.57094 39.7016 9.48209 39.7022 9.39244C39.7014 8.65201 39.0769 8.11471 38.3717 8.16153L38.3719 8.16158Z" fill="black"/>
<path d="M28.3334 3.49684C28.3052 3.49784 28.2771 3.50018 28.2491 3.50386C27.5505 3.61948 27.1453 4.1668 26.943 4.51861C26.7407 4.87039 26.598 5.12356 26.5919 5.12954C26.5359 5.18492 26.4875 5.2475 26.4479 5.31564C24.9309 7.88983 23.0778 10.761 23 14.1777C22.9997 14.2176 23.002 14.2575 23.0071 14.2971C23.3219 17.0789 24.9746 19.5059 26.6902 21.2947C26.6914 21.2947 26.6926 21.2947 26.6937 21.2947C28.5045 23.1806 29.7054 25.2113 29.0778 27.4673C29.0724 27.4882 29.0677 27.5093 29.0638 27.5305C28.6313 29.6573 27.8325 31.7441 27.0203 33.8471C26.9562 34.014 26.944 34.1963 26.9852 34.3702C27.1034 34.8682 27.4388 35.4249 28.021 35.5676C28.6031 35.7102 29.0215 35.4532 29.3166 35.2305C29.8674 34.8147 30.2271 34.3044 30.4472 33.7418C31.9536 31.1861 33.7735 28.339 33.8495 24.9535C33.85 24.9124 33.8477 24.8714 33.8425 24.8306C33.5229 22.0681 31.9 19.6362 30.1945 17.8399C30.1939 17.8393 30.195 17.837 30.1945 17.8364H30.198C29.3342 16.9213 28.5644 15.9673 28.1019 15.0029C27.6393 14.0386 27.4635 13.0984 27.7332 12.029C27.7401 12.0047 27.7459 11.9801 27.7507 11.9553C28.1192 9.70345 28.9956 7.49408 29.8258 5.235C29.8623 5.13727 29.8813 5.03387 29.882 4.92954C29.8811 4.06782 29.1542 3.4425 28.3336 3.49695L28.3334 3.49684Z" fill="black"/>
</g>
</svg>
