<svg width="56" height="53" viewBox="0 0 56 53" fill="none" xmlns="http://www.w3.org/2000/svg">
<mask id="mask0_7200_56657" style="mask-type:alpha" maskUnits="userSpaceOnUse" x="0" y="0" width="56" height="53">
<rect width="56" height="53" fill="#D9D9D9"/>
</mask>
<g mask="url(#mask0_7200_56657)">
<path d="M38.2542 3H43.7188V40.7167H38.2542V3ZM29.6583 29.9583H35.1229V35.3125H29.6583V29.9583ZM29.6583 15.2979H35.1229V26.6437H29.6583V15.2979ZM29.6583 38.625H35.1229V49.9708H29.6583V38.625ZM12.2833 15.2833H17.7458V53H12.2812L12.2833 15.2833ZM21.0604 20.6146H26.525V25.9687H21.0625L21.0604 20.6146ZM21.0604 29.2625H26.525V40.6104H21.0625L21.0604 29.2625ZM21.0604 5.95625H26.525V17.3021H21.0625L21.0604 5.95625Z" fill="black"/>
</g>
</svg>
