<svg width="100" height="100" viewBox="0 0 100 100" fill="none" xmlns="http://www.w3.org/2000/svg">
<rect opacity="0.2" width="100" height="100" rx="20" fill="url(#paint0_linear_485_6559)"/>
<path d="M49.9999 34C33.431 34 20 40.9918 20 49.6163C20 58.2412 33.431 65.2325 49.9999 65.2325C66.5681 65.2325 80 58.2412 80 49.6163C79.9995 40.9918 66.5681 34 49.9999 34Z" fill="black"/>
<path d="M37.6712 44.9875H34.9999L33.7974 51.4725V51.4679H36.4385C38.2877 51.4679 39.9319 50.4875 40.137 46.9941C40.1365 45.7624 39.1094 44.9875 37.6712 44.9875Z" fill="black"/>
<path d="M65.2057 44.9875H62.5343L62.0327 51.4725V51.4679H63.9724C65.8218 51.4679 67.4648 50.4875 67.6707 46.9941C67.6711 45.7624 66.6433 44.9875 65.2057 44.9875Z" fill="black"/>
<path d="M39.3131 42.219H31.7107L28.4224 58.8633H32.3268L33.1484 54.5479H36.8469C40.3402 54.7538 44.2441 51.8766 44.2441 46.9459C44.2446 44.0682 42.6005 42.4245 39.3131 42.219ZM36.4362 51.466H33.971L34.9981 45.3009H37.6694C39.1076 45.3009 40.1352 45.9174 40.1352 47.1501C39.9296 50.6444 38.2855 51.2605 36.4362 51.466Z" fill="white"/>
<path d="M52.1099 54.5473H56.22L57.6577 46.1233C58.0684 44.0681 56.8366 42.4239 53.5481 42.2184H49.8496L50.6722 37.9034H46.7678L43.4795 54.5473H47.3844L49.2331 45.3008H52.3155C53.7531 45.3008 53.7531 45.9173 53.5486 46.9454L52.1099 54.5473Z" fill="white"/>
<path d="M66.8467 42.219H59.244L55.9561 58.8633H59.8601L60.6826 54.5479H64.3808C67.8736 54.7538 71.7777 51.8766 71.7777 46.9459C71.7786 44.0682 70.1347 42.4245 66.8467 42.219ZM63.971 51.466H61.505L62.5329 45.3009H65.2042C66.6418 45.3009 67.6697 45.9174 67.6697 47.1501C67.4629 50.6444 65.8208 51.2605 63.971 51.466Z" fill="white"/>
<defs>
<linearGradient id="paint0_linear_485_6559" x1="11.809" y1="1.81213e-05" x2="100.05" y2="16.5617" gradientUnits="userSpaceOnUse">
<stop stop-color="#2EC4F3"/>
<stop offset="1" stop-color="#BFD633"/>
</linearGradient>
</defs>
</svg>
