<svg width="80" height="80" viewBox="0 0 80 80" fill="none" xmlns="http://www.w3.org/2000/svg">
<mask id="mask0_7380_55788" style="mask-type:alpha" maskUnits="userSpaceOnUse" x="-1" y="-1" width="82" height="82">
<rect width="80" height="80" fill="white" stroke="white" stroke-width="2"/>
</mask>
<g mask="url(#mask0_7380_55788)">
<path fill-rule="evenodd" clip-rule="evenodd" d="M19.2936 57.0525L19.3522 54.9242C19.3526 54.9107 19.3527 54.8972 19.3527 54.8837C19.3526 54.894 19.3525 54.9042 19.3522 54.9145L19.2933 57.0527C19.2934 57.0526 19.2935 57.0526 19.2936 57.0525ZM6.00196 76.9245C6.00136 77.0825 6.02997 77.2394 6.08643 77.3872C6.14656 77.5446 6.23713 77.6886 6.35294 77.811C6.46875 77.9333 6.60754 78.0317 6.76138 78.1005C6.91522 78.1692 7.08109 78.2069 7.24953 78.2116L17.4206 78.4915H17.4557C17.79 78.4916 18.111 78.3613 18.3506 78.1283C18.5902 77.8952 18.7293 77.5779 18.7384 77.2438L18.7678 76.176L21.4101 74.7612C22.4468 74.2031 23.66 74.0703 24.793 74.391L40.5721 78.8195C40.5996 78.8277 40.6271 78.834 40.6554 78.8404C41.7959 79.0789 42.958 79.1987 44.1231 79.1979C46.5908 79.1994 49.0297 78.6673 51.2724 77.6379C51.3276 77.6127 51.3808 77.5833 51.4315 77.55L74.3099 62.7518C74.5844 62.5742 74.7808 62.2984 74.8588 61.9808C74.8841 61.8782 74.8963 61.7737 74.896 61.6696C74.8956 61.7705 74.8833 61.8717 74.8588 61.9711C74.7808 62.2887 74.5844 62.5644 74.3099 62.7421L51.4315 77.5403C51.3808 77.5736 51.3276 77.603 51.2724 77.6282C49.0297 78.6575 46.5908 79.1897 44.1231 79.1882C42.958 79.189 41.7959 79.0691 40.6554 78.8307C40.6271 78.8243 40.5996 78.818 40.5721 78.8098L24.793 74.3812C23.66 74.0606 22.4468 74.1933 21.4101 74.7515L18.7678 76.1662L18.7384 77.2341C18.7293 77.5682 18.5902 77.8855 18.3506 78.1185C18.111 78.3516 17.79 78.4819 17.4557 78.4818H17.4206L7.24953 78.2018C7.08109 78.1972 6.91522 78.1595 6.76138 78.0907C6.60754 78.022 6.46875 77.9236 6.35294 77.8012C6.23713 77.6788 6.14656 77.5348 6.08643 77.3774C6.03113 77.2327 6.00255 77.0792 6.00196 76.9245ZM42.5329 2.28267V14.4681C42.5329 14.8082 42.3978 15.1345 42.1573 15.375C41.9167 15.6156 41.5905 15.7507 41.2503 15.7507C40.9101 15.7507 40.5838 15.6156 40.3433 15.375C40.1027 15.1345 39.9676 14.8082 39.9676 14.4681V2.28267C39.9676 1.94249 40.1027 1.61623 40.3433 1.37569C40.5838 1.13514 40.9101 1 41.2503 1C41.5905 1 41.9167 1.13514 42.1573 1.37569C42.3978 1.61623 42.5329 1.94249 42.5329 2.28267ZM52.153 8.69603V14.4681C52.153 14.8082 52.0178 15.1345 51.7773 15.375C51.5368 15.6156 51.2105 15.7507 50.8703 15.7507C50.5301 15.7507 50.2039 15.6156 49.9633 15.375C49.7228 15.1345 49.5876 14.8082 49.5876 14.4681V8.69603C49.5876 8.35585 49.7228 8.02959 49.9633 7.78905C50.2039 7.5485 50.5301 7.41336 50.8703 7.41336C51.2105 7.41336 51.5368 7.5485 51.7773 7.78905C52.0178 8.02959 52.153 8.35585 52.153 8.69603ZM32.9129 8.69603V14.4681C32.9129 14.8082 32.7778 15.1345 32.5372 15.375C32.2967 15.6156 31.9704 15.7507 31.6302 15.7507C31.2901 15.7507 30.9638 15.6156 30.7233 15.375C30.4827 15.1345 30.3476 14.8082 30.3476 14.4681V8.69603C30.3476 8.35585 30.4827 8.02959 30.7233 7.78905C30.9638 7.5485 31.2901 7.41336 31.6302 7.41336C31.9704 7.41336 32.2967 7.5485 32.5372 7.78905C32.7778 8.02959 32.9129 8.35585 32.9129 8.69603ZM9.1458 55.9165L8.60227 75.6727L16.2088 75.8826L16.7524 56.1258L9.1458 55.9165ZM41.2233 76.3298C44.2185 76.9418 47.3304 76.5945 50.1169 75.337L71.7469 61.3448C71.1599 60.8014 70.4206 60.4507 69.6284 60.3397C68.8362 60.2287 68.029 60.3628 67.3153 60.724C67.3052 60.7291 67.2953 60.7341 67.2852 60.7384L56.9794 65.6081C57.0776 66.157 57.1191 66.7146 57.1033 67.272C57.0942 67.6059 56.9552 67.9231 56.7159 68.1561C56.4766 68.3891 56.1559 68.5195 55.8219 68.5198H55.7862L40.5382 68.1002C40.1981 68.0907 39.8757 67.9466 39.6418 67.6995C39.408 67.4524 39.2818 67.1225 39.2912 66.7824C39.3112 66.0747 39.9006 65.5161 40.6089 65.5353L54.4259 65.9167C53.8973 63.3639 51.6845 61.5088 49.0791 61.4338L39.8028 61.1789C37.9472 61.1251 36.1275 60.655 34.4781 59.8034L33.5342 59.3143C31.2967 58.1485 28.7874 57.6044 26.268 57.7387C23.7486 57.8731 21.3114 58.6811 19.2106 60.0783L18.8492 73.2139L20.1995 72.4904C21.8203 71.6192 23.7162 71.4119 25.4869 71.9124L41.2233 76.3298Z" fill="black"/>
<path fill-rule="evenodd" clip-rule="evenodd" d="M40.5709 55.8214C30.2983 55.8214 21.9708 47.494 21.9708 37.2214C21.9829 26.9537 30.3032 18.6326 40.5709 18.6213C50.8435 18.6213 59.1709 26.9488 59.1709 37.2214C59.1709 47.494 50.8435 55.8214 40.5709 55.8214ZM40.3284 44.3242C40.4747 44.3026 40.6236 44.3077 40.7681 44.3393C42.3539 44.2816 43.6015 42.9639 43.572 41.3774C43.5433 39.7911 42.2488 38.5203 40.6616 38.5203C37.9178 38.5208 35.5971 36.4911 35.2327 33.7717C34.8683 31.0522 36.5718 28.4824 39.2186 27.7598V26.514C39.2186 26.1738 39.3537 25.8476 39.5943 25.607C39.8348 25.3665 40.1611 25.2313 40.5013 25.2313C40.8415 25.2313 41.1677 25.3665 41.4083 25.607C41.6488 25.8476 41.7839 26.1738 41.7839 26.514V27.6814C44.3199 28.2163 46.1356 30.4516 46.1393 33.0433C46.1393 33.3835 46.0041 33.7097 45.7636 33.9503C45.523 34.1908 45.1968 34.326 44.8566 34.326C44.5164 34.326 44.1901 34.1908 43.9496 33.9503C43.7091 33.7097 43.5739 33.3835 43.5739 33.0433C43.5739 31.4348 42.2699 30.131 40.6616 30.131C39.0533 30.131 37.7493 31.435 37.7493 33.0433C37.7493 34.6516 39.0533 35.9556 40.6616 35.9556C43.4681 35.9562 45.8199 38.0774 46.1093 40.8689C46.3979 43.6603 44.5309 46.2187 41.7839 46.7937V47.9988C41.7839 48.3389 41.6488 48.6652 41.4083 48.9057C41.1677 49.1463 40.8415 49.2814 40.5013 49.2814C40.1611 49.2814 39.8348 49.1463 39.5943 48.9057C39.3537 48.6652 39.2186 48.3389 39.2186 47.9988V46.7161C36.8386 46.0629 35.1878 43.9008 35.184 41.4326C35.184 41.0924 35.3191 40.7662 35.5596 40.5256C35.8002 40.2851 36.1264 40.1499 36.4666 40.1499C36.8068 40.1499 37.1331 40.2851 37.3736 40.5256C37.6142 40.7662 37.7493 41.0924 37.7493 41.4326C37.7519 42.9107 38.8598 44.1533 40.3284 44.3242Z" fill="black"/>
</g>
</svg>
