<svg width="80" height="80" viewBox="0 0 80 80" fill="none" xmlns="http://www.w3.org/2000/svg">
<mask id="mask0_7380_55798" style="mask-type:alpha" maskUnits="userSpaceOnUse" x="-1" y="-1" width="82" height="82">
<rect width="80" height="80" fill="white" stroke="white" stroke-width="2"/>
</mask>
<g mask="url(#mask0_7380_55798)">
<path d="M36.3484 26.0766H32.7183C31.6977 26.0766 30.7983 25.4829 30.3198 24.6057L30.3134 24.594L30.3074 24.582C29.8751 23.7174 29.9719 22.6239 30.6326 21.798L30.635 21.795L30.635 21.795L37.4727 13.3378C37.4732 13.3373 37.4736 13.3367 37.474 13.3362C38.4948 12.0625 40.5643 12.0631 41.5841 13.3378M36.3484 26.0766L40.9984 13.8064M36.3484 26.0766V36.1268V36.5128L36.6624 36.7371C37.4733 37.3163 38.2302 37.9562 39.014 38.6194L39.5182 39.0461L40.0052 38.5997C40.6969 37.9657 41.5116 37.3248 42.3344 36.7371L42.6485 36.5128V36.1268V26.0766M36.3484 26.0766H41.8985M41.5841 13.3378L40.9984 13.8064M41.5841 13.3378L41.5837 13.3373L40.9984 13.8064M41.5841 13.3378L48.353 21.7839M40.9984 13.8064L47.7786 22.2665M48.353 21.7839C48.3484 21.7787 48.3438 21.7735 48.3391 21.7683L47.7786 22.2665M48.353 21.7839C49.0489 22.5804 49.1002 23.6795 48.7014 24.5569L48.6901 24.5818L48.677 24.6057C48.1985 25.4829 47.2991 26.0766 46.2785 26.0766H42.6485M48.353 21.7839L48.3638 21.7975L47.7786 22.2665M47.7786 22.2665L42.6485 26.0766M42.6485 26.0766V25.3266H46.2785C46.9986 25.3266 47.6586 24.9066 48.0186 24.2466L42.6485 26.0766ZM42.6485 26.0766H41.8985M41.8985 26.0766V36.1268C41.0584 36.7268 40.2184 37.3868 39.4984 38.0469L41.8985 26.0766Z" fill="black" stroke="black" stroke-width="1.5"/>
<path d="M24.0482 46.0271V42.397H24.4383C30.9819 42.397 36.3485 47.759 36.3485 54.3672V63.6074C36.3485 65.3417 37.7643 66.7575 39.4986 66.7575C41.2328 66.7575 42.6486 65.3417 42.6486 63.6074V54.3672C42.6486 44.2895 34.4493 36.1569 24.3783 36.1569H23.9882V32.5268C23.9882 31.5062 23.3945 30.6068 22.5173 30.1283L22.4934 30.1153L22.4686 30.104C21.5916 29.7054 20.4933 29.7564 19.6969 30.4512L11.2515 37.1596L11.2405 37.1683L11.2299 37.1775C10.6718 37.6558 10.248 38.3934 10.248 39.2469C10.248 40.0517 10.575 40.8219 11.2576 41.3391L19.7041 48.1083C20.2177 48.5337 20.8132 48.6971 21.3782 48.6971C21.8004 48.6971 22.137 48.6074 22.4968 48.4635L22.5128 48.457L22.5286 48.4499C23.4708 48.0216 24.0482 47.085 24.0482 46.0271Z" fill="black" stroke="black" stroke-width="1.5"/>
<path d="M55.0093 32.5267V36.1568H54.6193C49.7418 36.1568 45.3593 38.0342 42.1047 41.101L41.6342 41.5444L42.0034 42.0752C42.9315 43.4094 43.687 44.8033 44.3284 46.3192L44.8042 47.4439L45.5921 46.5108C47.7344 43.9739 51.0074 42.3369 54.6193 42.3369H55.0093V45.967C55.0093 46.9875 55.6031 47.887 56.4802 48.3654L56.492 48.3718L56.504 48.3778C56.8693 48.5605 57.2892 48.637 57.6794 48.637C58.2444 48.637 58.8398 48.4736 59.3533 48.0483L67.7481 41.3325L67.758 41.3246L67.7677 41.3163C68.3257 40.8379 68.7496 40.1003 68.7496 39.2468C68.7496 38.5143 68.4313 37.6783 67.7387 37.1536L59.2879 30.441C59.2876 30.4407 59.2872 30.4404 59.2869 30.4402C58.4651 29.7834 57.3787 29.6847 56.5165 30.1096C55.5817 30.5405 55.0093 31.4735 55.0093 32.5267Z" fill="black" stroke="black" stroke-width="1.5"/>
</g>
</svg>
