<svg width="80" height="80" viewBox="0 0 80 80" fill="none" xmlns="http://www.w3.org/2000/svg">
<mask id="mask0_7380_55811" style="mask-type:alpha" maskUnits="userSpaceOnUse" x="-1" y="-1" width="82" height="82">
<rect width="80" height="80" fill="white" stroke="white" stroke-width="2"/>
</mask>
<g mask="url(#mask0_7380_55811)">
<path d="M66.896 46.0696L66.8826 46.0535L63.3669 42.8268C63.578 40.9491 63.578 39.0536 63.3669 37.1759L66.8987 33.9304C67.612 33.2605 68.0793 32.37 68.2254 31.4024C68.3715 30.4347 68.1879 29.446 67.704 28.5953L63.5569 21.4194C63.0638 20.5641 62.2935 19.903 61.3733 19.5453C60.4532 19.1877 59.4385 19.1551 58.4973 19.4528L53.9408 20.8896C52.4349 19.7472 50.794 18.7947 49.0552 18.0535L48.001 13.3712C47.7832 12.4176 47.2494 11.5657 46.4864 10.9537C45.7233 10.3417 44.7758 10.0056 43.7977 10H35.482C33.486 10 31.7174 11.4181 31.2786 13.3686L30.2218 18.0508C28.484 18.7941 26.8433 19.7465 25.3361 20.887L20.7743 19.4502C18.8291 18.8428 16.7047 19.6696 15.7308 21.4007L11.5595 28.614C11.0811 29.4677 10.903 30.4572 11.0539 31.4241C11.2047 32.391 11.6758 33.2792 12.3917 33.9465L15.9074 37.1732C15.6963 39.0509 15.6963 40.9464 15.9074 42.8241L12.3756 46.0696C11.6622 46.7395 11.1949 47.63 11.0489 48.5976C10.9028 49.5653 11.0864 50.554 11.5702 51.4047L15.7174 58.5806C16.2108 59.4355 16.9812 60.0964 17.9012 60.454C18.8212 60.8116 19.8357 60.8444 20.7769 60.5472L25.3335 59.1104C26.8394 60.2528 28.4803 61.2053 30.2191 61.9465L31.2733 66.6288C31.7094 68.5819 33.4779 70 35.4766 70H43.7923C45.7883 70 47.5569 68.5819 47.9957 66.6314L49.0499 61.9465C50.7879 61.2038 52.4286 60.2514 53.9355 59.1104L58.4973 60.5498C59.4344 60.8485 60.4454 60.8179 61.3627 60.4631C62.28 60.1084 63.0485 59.4508 63.5408 58.5993L67.7121 51.386C68.1913 50.5365 68.3713 49.5507 68.2233 48.5866C68.0754 47.6226 67.6079 46.7362 66.896 46.0696Z" fill="black"/>
<path d="M37.6336 50.701C37.3316 50.7014 37.0334 50.6337 36.7613 50.5028C36.4892 50.372 36.25 50.1814 36.0618 49.9454C35.8735 49.7093 35.741 49.4337 35.674 49.1393C35.6071 48.8448 35.6074 48.5391 35.675 48.2448L39.6884 30.8535C39.8222 30.3505 40.1461 29.9192 40.5919 29.6506C41.0376 29.3819 41.5703 29.297 42.0775 29.4136C42.5847 29.5302 43.0267 29.8394 43.3103 30.2758C43.5939 30.7121 43.6968 31.2416 43.5975 31.7525L39.5841 49.1438C39.483 49.5857 39.2351 49.9803 38.8808 50.2631C38.5266 50.5459 38.0869 50.7003 37.6336 50.701ZM48.3332 48.0254C47.9263 48.0273 47.5285 47.9053 47.1926 47.6756C46.8567 47.4459 46.5987 47.1194 46.4529 46.7395C46.3071 46.3596 46.2804 45.9443 46.3764 45.5489C46.4724 45.1534 46.6864 44.7966 46.9901 44.5257L52.0229 39.9986L46.9901 35.4715C46.794 35.2952 46.6346 35.0819 46.521 34.8439C46.4074 34.6059 46.3417 34.3479 46.3278 34.0845C46.2997 33.5526 46.484 33.0314 46.8403 32.6354C47.0167 32.4394 47.2299 32.28 47.4679 32.1663C47.7059 32.0527 47.9639 31.987 48.2273 31.9731C48.7592 31.945 49.2804 32.1294 49.6764 32.4856L56.3653 38.5057C56.5738 38.6945 56.7404 38.9249 56.8544 39.1821C56.9684 39.4392 57.0272 39.7174 57.0272 39.9986C57.0272 40.2799 56.9684 40.5581 56.8544 40.8152C56.7404 41.0723 56.5738 41.3027 56.3653 41.4916L49.6764 47.5117C49.3076 47.8432 48.8291 48.0262 48.3332 48.0254ZM30.9419 48.0254C30.4461 48.0262 29.9675 47.8432 29.5988 47.5117L22.9098 41.4916C22.7014 41.3027 22.5348 41.0723 22.4208 40.8152C22.3068 40.5581 22.2479 40.2799 22.2479 39.9986C22.2479 39.7174 22.3068 39.4392 22.4208 39.1821C22.5348 38.9249 22.7014 38.6945 22.9098 38.5057L29.5988 32.4856C29.9978 32.1501 30.5115 31.9829 31.0315 32.0191C31.5515 32.0553 32.0371 32.2922 32.3857 32.6797C32.7343 33.0672 32.9187 33.575 32.9 34.096C32.8812 34.6169 32.6607 35.1101 32.2851 35.4715L27.2523 39.9986L32.2851 44.5257C32.5873 44.7972 32.8001 45.154 32.8952 45.5489C32.9903 45.9439 32.9633 46.3584 32.8177 46.7377C32.6721 47.117 32.4149 47.4432 32.08 47.6731C31.745 47.903 31.3482 48.0259 30.9419 48.0254Z" fill="white"/>
</g>
</svg>
