<svg width="80" height="80" viewBox="0 0 80 80" fill="none" xmlns="http://www.w3.org/2000/svg">
<mask id="mask0_7380_55816" style="mask-type:alpha" maskUnits="userSpaceOnUse" x="-1" y="-1" width="82" height="82">
<rect width="80" height="80" fill="white" stroke="white" stroke-width="2"/>
</mask>
<g mask="url(#mask0_7380_55816)">
<path d="M8.2894 50.0742L2 53.6706L13.8541 74L20.1435 70.4036L8.2894 50.0742ZM11.7415 51.8129L20.4053 66.6675L24.1154 64.5474H58.9649L76.9075 50.8894C78.6494 49.5599 79.6635 47.3209 78.5045 45.3408C77.395 43.4307 74.8934 42.7729 72.9783 43.8715L58.3852 52.2118H53.0993C51.9756 54.178 49.8698 55.4444 47.5413 55.4444H33.5742L33.5706 53.3453H47.5377C50.8697 53.3453 52.9721 49.6754 51.0853 46.8171C50.2938 45.6207 49.0147 44.9175 47.5377 44.9175H23.797L11.7415 51.8129ZM23.5639 11.3422C21.1754 8.97727 17.3027 8.97727 14.9142 11.3422C12.5257 13.7072 12.5257 17.5415 14.9142 19.9065C17.3027 22.2714 21.1754 22.2714 23.5639 19.9065C25.9525 17.538 25.9525 13.7072 23.5639 11.3422ZM65.6995 11.3422C63.311 8.97727 59.4383 8.97727 57.0498 11.3422C54.6612 13.7072 54.6612 17.5415 57.0498 19.9065C59.4383 22.2714 63.311 22.2714 65.6995 19.9065C68.0916 17.538 68.0916 13.7072 65.6995 11.3422ZM45.9831 8.33001C42.849 5.22333 37.7645 5.22333 34.6301 8.33001C31.4925 11.4331 31.4925 16.4709 34.6301 19.578C37.7642 22.6846 42.8488 22.6846 45.9831 19.578C49.1243 16.4748 49.1243 11.4371 45.9831 8.33001ZM25.373 34.1701V27.5475L25.6133 27.2536C26.1362 26.6239 26.7086 26.0397 27.3412 25.5149C26.0197 24.6858 24.5003 24.2415 22.8996 24.2415H15.5784C14.2958 24.2415 13.0839 24.5283 12.0097 25.0391C10.9921 25.5219 10.0911 26.2006 9.35262 27.0227V34.1736L25.373 34.1701ZM55.2438 27.9183V34.1736H71.2715V27.0227C70.5295 26.197 69.6285 25.5183 68.6144 25.0391C67.5403 24.5283 66.3248 24.2415 65.0457 24.2415H57.7245C56.1345 24.2415 54.5975 24.6928 53.283 25.5149C53.9119 26.0397 54.4949 26.6274 55.0108 27.2536C55.3041 27.621 55.2438 27.4565 55.2438 27.9183ZM53.1238 37.7315V28.2962C52.1486 27.1837 50.9473 26.2741 49.5868 25.6339C48.184 24.9692 46.6046 24.5984 44.944 24.5984H35.6651C34.0045 24.5984 32.425 24.9692 31.0223 25.6339C29.6655 26.2741 28.4641 27.1837 27.4853 28.2962V37.7315H53.1238Z" fill="black"/>
</g>
</svg>
