<svg width="80" height="80" viewBox="0 0 80 80" fill="none" xmlns="http://www.w3.org/2000/svg">
<mask id="mask0_7380_55806" style="mask-type:alpha" maskUnits="userSpaceOnUse" x="-1" y="-1" width="82" height="82">
<rect width="80" height="80" fill="white" stroke="white" stroke-width="2"/>
</mask>
<g mask="url(#mask0_7380_55806)">
</g>
<path d="M62.5 40H55C52.9375 40 51.25 41.6875 51.25 43.75V58.75C51.25 60.8125 52.9375 62.5 55 62.5H62.5C64.5625 62.5 66.25 60.8125 66.25 58.75V43.75C66.25 41.6875 64.5625 40 62.5 40ZM60.625 45.625C60.625 46.6562 59.7812 47.5 58.75 47.5C57.7188 47.5 56.875 46.6562 56.875 45.625V43.75H60.625V45.625ZM58.75 36.25V23.125C58.75 20.0312 56.2188 17.5 53.125 17.5H19.375C16.2812 17.5 13.75 20.0312 13.75 23.125V43.75H47.5C47.5 39.6063 50.8563 36.25 55 36.25H58.75ZM13.75 49.375C13.75 52.4688 16.2812 55 19.375 55H29.4625L27.5875 58.75H26.875C25.8438 58.75 25 59.5938 25 60.625C25 61.6562 25.8438 62.5 26.875 62.5H45.625C46.6562 62.5 47.5 61.6562 47.5 60.625C47.5 59.5938 46.6562 58.75 45.625 58.75H44.9312L43.1125 55H47.5V47.5H13.75V49.375Z" fill="black"/>
</svg>
