<svg width="80" height="80" viewBox="0 0 80 80" fill="none" xmlns="http://www.w3.org/2000/svg">
<mask id="mask0_7380_55819" style="mask-type:alpha" maskUnits="userSpaceOnUse" x="-1" y="-1" width="82" height="82">
<rect width="80" height="80" fill="white" stroke="white" stroke-width="2"/>
</mask>
<g mask="url(#mask0_7380_55819)">
<path d="M43.2868 31.6525C43.1561 26.9744 35.8009 26.977 35.6816 31.6525V34.4923H43.2868V31.6525Z" fill="black"/>
<path d="M31 48.5086H47.9689V37.3191H31V48.5086ZM39.483 41.2605C41.8154 41.2897 41.8154 44.5374 39.483 44.5665C37.1506 44.5374 37.1506 41.2897 39.483 41.2605Z" fill="black"/>
<path fill-rule="evenodd" clip-rule="evenodd" d="M51.9996 14.3285C54.4087 14.9855 56.886 15.5153 59.3633 15.9179C62.6361 16.4266 65 19.0544 65 22.1697V42.7259C65 48.1084 62.5227 53.2794 58.2272 56.9034L44.5682 68.3682C43.2501 69.449 41.6364 70 40 70C38.3636 70 36.75 69.4491 35.4318 68.3682L21.7728 56.9034C17.4773 53.2793 15 48.1087 15 42.7259V22.1697C15 19.0544 17.3637 16.4266 20.6364 15.9179C23.1137 15.5153 25.591 14.9855 28.0001 14.3285C31.7725 13.2901 35.4544 11.9126 38.9544 10.2384C39.6135 9.92053 40.3862 9.92053 41.0453 10.2384C44.545 11.9126 48.2268 13.2901 51.9996 14.3285ZM48.0861 51.4293C49.7679 51.4293 51.1174 50.1578 51.1174 48.6028V37.4132C51.1174 35.8582 49.7679 34.5867 48.0861 34.5867H46.4356V31.7469C46.1432 23.3229 33.0462 23.331 32.7678 31.7469V34.5867H31.1172C29.4354 34.5867 28.0859 35.8582 28.0859 37.4132V48.6028C28.0859 50.1578 29.4354 51.4293 31.1172 51.4293H48.0861Z" fill="black"/>
</g>
</svg>
