<svg width="92" height="92" viewBox="0 0 92 92" fill="none" xmlns="http://www.w3.org/2000/svg">
<mask id="mask0_7383_81550" style="mask-type:alpha" maskUnits="userSpaceOnUse" x="0" y="0" width="92" height="92">
<rect width="92" height="92" fill="black"/>
</mask>
<g mask="url(#mask0_7383_81550)">
<path d="M43 12.7321C44.8564 11.6603 47.1436 11.6603 49 12.7321L73.3109 26.7679C75.1673 27.8397 76.3109 29.8205 76.3109 31.9641V60.0359C76.3109 62.1795 75.1673 64.1603 73.3109 65.2321L49 79.268C47.1436 80.3397 44.8564 80.3397 43 79.268L18.6891 65.2321C16.8327 64.1603 15.6891 62.1795 15.6891 60.0359V31.9641C15.6891 29.8205 16.8327 27.8397 18.6891 26.7679L43 12.7321Z" fill="black"/>
<path fill-rule="evenodd" clip-rule="evenodd" d="M36.9971 42.3029C41.5627 42.3029 45.2638 38.6018 45.2638 34.0362C45.2638 29.4706 41.5627 25.7695 36.9971 25.7695C32.4316 25.7695 28.7305 29.4706 28.7305 34.0362C28.7305 38.6018 32.4316 42.3029 36.9971 42.3029ZM33.9258 31.2109V37.2291H34.8543V34.7616C34.8543 34.2057 34.84 33.7271 34.8113 33.3259C34.8008 33.1398 34.7862 32.9562 34.7673 32.775L36.4964 35.501H37.0638L38.8282 32.7736C38.8063 32.9713 38.7885 33.1698 38.7747 33.3689C38.7518 33.7815 38.7403 34.2458 38.7403 34.7616V37.2291H39.6688V31.2109H38.8091L36.8091 34.4202L34.8371 31.2109H33.9258Z" fill="white"/>
<path fill-rule="evenodd" clip-rule="evenodd" d="M55.9737 52.6447C60.5393 52.6447 64.2404 48.9436 64.2404 44.378C64.2404 39.8124 60.5393 36.1113 55.9737 36.1113C51.4081 36.1113 47.707 39.8124 47.707 44.378C47.707 48.9436 51.4081 52.6447 55.9737 52.6447ZM52.9616 41.5527L55.3688 47.5709H56.2716L58.696 41.5527H57.6128L56.2802 45.2066C56.1942 45.4301 56.1197 45.6307 56.0566 45.8084C55.9993 45.9861 55.9477 46.1494 55.9019 46.2985C55.8945 46.3225 55.8871 46.3464 55.8799 46.3702C55.8493 46.279 55.8165 46.1834 55.7815 46.0835C55.7414 45.9632 55.6927 45.8313 55.6354 45.6881C55.5838 45.5448 55.5236 45.3843 55.4548 45.2066L54.0191 41.5527H52.9616Z" fill="white"/>
<path fill-rule="evenodd" clip-rule="evenodd" d="M36.9971 66.1662C41.5627 66.1662 45.2638 62.4651 45.2638 57.8995C45.2638 53.3339 41.5627 49.6328 36.9971 49.6328C32.4316 49.6328 28.7305 53.3339 28.7305 57.8995C28.7305 62.4651 32.4316 66.1662 36.9971 66.1662ZM36.0828 60.9563C36.4324 61.1053 36.8164 61.1798 37.2348 61.1798C37.5156 61.1798 37.7936 61.1454 38.0687 61.0766C38.3496 61.0021 38.6018 60.9018 38.8253 60.7757C39.0546 60.6496 39.2351 60.5092 39.3669 60.3544L38.9027 59.5979C38.7709 59.7297 38.6247 59.8443 38.4642 59.9418C38.3037 60.0392 38.1318 60.1137 37.9484 60.1653C37.765 60.2169 37.5787 60.2427 37.3895 60.2427C37.08 60.2427 36.7963 60.194 36.5384 60.0965C36.2862 59.9934 36.0684 59.8472 35.885 59.6581C35.7016 59.4689 35.5583 59.2425 35.4551 58.9789C35.3577 58.7095 35.309 58.4114 35.309 58.0847C35.309 57.7752 35.3606 57.4915 35.4637 57.2336C35.5669 56.97 35.7073 56.7436 35.885 56.5544C36.0684 56.3653 36.2805 56.2191 36.5212 56.116C36.7677 56.0071 37.0313 55.9526 37.3122 55.9526C37.4899 55.9526 37.6647 55.9813 37.8366 56.0386C38.0143 56.0959 38.1862 56.1819 38.3525 56.2965C38.5244 56.4054 38.6935 56.543 38.8597 56.7092L39.4787 56.0644C39.3354 55.8638 39.1491 55.6861 38.9199 55.5313C38.6963 55.3708 38.4442 55.2476 38.1633 55.1616C37.8882 55.0699 37.6045 55.0241 37.3122 55.0241C36.8995 55.0241 36.5155 55.1015 36.1601 55.2562C35.8048 55.411 35.4924 55.6288 35.223 55.9096C34.9536 56.1905 34.7416 56.5172 34.5868 56.8897C34.4378 57.2565 34.3633 57.6549 34.3633 58.0847C34.3633 58.5375 34.4321 58.9531 34.5696 59.3314C34.7129 59.7096 34.9135 60.0392 35.1714 60.3201C35.4294 60.5952 35.7331 60.8072 36.0828 60.9563Z" fill="white"/>
</g>
</svg>
