<svg width="92" height="92" viewBox="0 0 92 92" fill="none" xmlns="http://www.w3.org/2000/svg">
<mask id="mask0_7383_81559" style="mask-type:alpha" maskUnits="userSpaceOnUse" x="0" y="0" width="92" height="92">
<rect width="92" height="92" fill="black"/>
</mask>
<g mask="url(#mask0_7383_81559)">
<path d="M26.5882 53.0572C28.5376 53.0572 30.1176 51.4772 30.1176 49.5278H40.1176V39.5278C38.1682 39.5278 36.5882 37.9478 36.5882 35.9984C36.5882 34.049 38.1682 32.469 40.1176 32.469V26.5866C40.1176 25.9369 39.5909 25.4102 38.9412 25.4102H18.3529C17.0534 25.4102 16 26.4636 16 27.7631V49.5278H23.0588C23.0588 51.4772 24.6388 53.0572 26.5882 53.0572Z" fill="black"/>
<path d="M43.647 65.4122C43.647 63.4628 42.067 61.8828 40.1176 61.8828V51.8828H31.9788C31.0706 53.9581 28.9953 55.4122 26.5882 55.4122C24.1812 55.4122 22.1059 53.9581 21.1976 51.8828H16V73.6475C16 74.9475 17.0529 76.0004 18.3529 76.0004H40.1176V68.9416C42.067 68.9416 43.647 67.3616 43.647 65.4122Z" fill="black"/>
<path d="M65.4099 51.8823H59.5276C59.5276 49.9329 57.9476 48.3529 55.9982 48.3529C54.0487 48.3529 52.4687 49.9329 52.4687 51.8823H42.4688V60.0206C44.5446 60.93 45.9982 63.0042 45.9982 65.4117C45.9982 67.8193 44.5446 69.8935 42.4688 70.8029V76H64.2334C65.533 76 66.5864 74.9466 66.5864 73.647V53.0588C66.5864 52.409 66.0597 51.8823 65.4099 51.8823ZM73.6452 16H53.057C52.4072 16 51.8805 16.5267 51.8805 17.1765V23.0588C49.9311 23.0588 48.3511 24.6388 48.3511 26.5882C48.3511 28.5376 49.9311 30.1176 51.8805 30.1176V40.1176H61.8805C61.8805 38.1682 63.4605 36.5882 65.4099 36.5882C67.3593 36.5882 68.9393 38.1682 68.9393 40.1176H74.8217C75.4714 40.1176 75.9981 39.5909 75.9981 38.9412V18.3529C75.9981 17.0534 74.9447 16 73.6452 16Z" fill="black"/>
</g>
</svg>
