<svg width="92" height="92" viewBox="0 0 92 92" fill="none" xmlns="http://www.w3.org/2000/svg">
<mask id="mask0_7383_81570" style="mask-type:alpha" maskUnits="userSpaceOnUse" x="0" y="0" width="92" height="92">
<rect width="92" height="92" fill="black"/>
</mask>
<g mask="url(#mask0_7383_81570)">
<path fill-rule="evenodd" clip-rule="evenodd" d="M56.3957 52.2523C55.5959 51.6076 55.4214 50.4636 55.9886 49.6154C64.6603 35.7086 53.9576 16.7117 37.5302 17.0033C30.7198 17.0082 24.3122 20.2316 20.2495 25.6944C16.1875 31.1621 14.9514 38.225 16.9145 44.7484C18.8728 51.268 23.8025 56.4788 30.2058 58.7954C36.6091 61.112 43.7341 60.269 49.4149 56.5172C50.1468 55.9889 51.1453 56.0276 51.8385 56.6142C51.8488 56.6373 57.1592 61.2845 62.1598 65.6606L62.1648 65.6649C66.6112 69.5561 70.8112 73.2315 70.8205 73.2496C72.1244 74.3645 74.0827 74.2239 75.217 72.9346C76.3513 71.65 76.2398 69.6869 74.9698 68.5381L56.3957 52.2523ZM22.6495 42.6398C23.1722 43.2585 23.7535 43.7225 24.3935 44.0318C25.0442 44.3412 25.8229 44.4958 26.7295 44.4958C28.0095 44.4958 29.0175 44.1972 29.7535 43.5998C30.4895 43.0025 30.8575 42.1812 30.8575 41.1358C30.8575 40.5492 30.7615 40.0585 30.5695 39.6638C30.3775 39.2585 30.1215 38.9278 29.8015 38.6718C29.4922 38.4158 29.1455 38.2078 28.7615 38.0478C28.3882 37.8878 28.0095 37.7438 27.6255 37.6158C27.2522 37.4878 26.9055 37.3545 26.5855 37.2158C26.2762 37.0772 26.0255 36.9118 25.8335 36.7198C25.6415 36.5278 25.5455 36.2772 25.5455 35.9678C25.5455 35.6052 25.6895 35.3278 25.9775 35.1358C26.2655 34.9438 26.6602 34.8478 27.1615 34.8478C27.5989 34.8478 27.9882 34.9332 28.3295 35.1038C28.6815 35.2745 29.0229 35.5412 29.3535 35.9038L30.7935 34.4638C30.3989 34.0052 29.8922 33.6318 29.2735 33.3438C28.6549 33.0558 27.9615 32.9118 27.1935 32.9118C26.4682 32.9118 25.8175 33.0398 25.2415 33.2958C24.6655 33.5518 24.2122 33.9198 23.8815 34.3998C23.5509 34.8798 23.3855 35.4612 23.3855 36.1438C23.3855 36.7198 23.4815 37.1998 23.6735 37.5838C23.8655 37.9572 24.1162 38.2665 24.4255 38.5118C24.7455 38.7465 25.0922 38.9438 25.4655 39.1038C25.8495 39.2638 26.2282 39.4078 26.6015 39.5358C26.9855 39.6532 27.3322 39.7865 27.6415 39.9358C27.9615 40.0852 28.2175 40.2665 28.4095 40.4798C28.6015 40.6932 28.6975 40.9705 28.6975 41.3118C28.6975 41.7065 28.5269 42.0158 28.1855 42.2398C27.8549 42.4638 27.4069 42.5758 26.8415 42.5758C26.2122 42.5758 25.6789 42.4585 25.2415 42.2238C24.8042 41.9785 24.4202 41.6372 24.0895 41.1998L22.6495 42.6398ZM32.5749 33.0878V44.3358H34.1749H34.7509H40.3989V42.4158H34.7509V39.5198H39.8389V37.6638H34.7509V35.0078H40.3189V33.0878H34.7509H34.1749H32.5749ZM44.9568 44.0638C45.6714 44.3625 46.4394 44.5118 47.2608 44.5118C48.0821 44.5118 48.8394 44.3625 49.5328 44.0638C50.2368 43.7652 50.8501 43.3545 51.3728 42.8318C51.9061 42.2985 52.3221 41.6798 52.6208 40.9758C52.9194 40.2718 53.0688 39.5145 53.0688 38.7038C53.0688 37.8932 52.9194 37.1358 52.6208 36.4318C52.3221 35.7278 51.9061 35.1145 51.3728 34.5918C50.8501 34.0585 50.2368 33.6478 49.5328 33.3598C48.8288 33.0612 48.0608 32.9118 47.2288 32.9118C46.4074 32.9118 45.6448 33.0612 44.9408 33.3598C44.2368 33.6478 43.6181 34.0585 43.0848 34.5918C42.5621 35.1145 42.1514 35.7278 41.8528 36.4318C41.5648 37.1252 41.4208 37.8772 41.4208 38.6878C41.4208 39.4985 41.5701 40.2612 41.8688 40.9758C42.1674 41.6798 42.5781 42.2985 43.1008 42.8318C43.6341 43.3545 44.2528 43.7652 44.9568 44.0638ZM49.1168 41.9998C48.5834 42.3198 47.9541 42.4798 47.2288 42.4798C46.7061 42.4798 46.2208 42.3892 45.7728 42.2078C45.3354 42.0265 44.9568 41.7705 44.6368 41.4398C44.3274 41.1092 44.0821 40.7092 43.9008 40.2398C43.7301 39.7705 43.6448 39.2532 43.6448 38.6878C43.6448 37.9412 43.7941 37.2852 44.0928 36.7198C44.4021 36.1545 44.8234 35.7172 45.3568 35.4078C45.9008 35.0878 46.5248 34.9278 47.2288 34.9278C47.7728 34.9278 48.2634 35.0185 48.7008 35.1998C49.1381 35.3812 49.5168 35.6425 49.8368 35.9838C50.1568 36.3145 50.4021 36.7092 50.5728 37.1678C50.7434 37.6265 50.8288 38.1332 50.8288 38.6878C50.8288 39.4452 50.6741 40.1065 50.3648 40.6718C50.0661 41.2372 49.6501 41.6798 49.1168 41.9998Z" fill="black"/>
</g>
</svg>
