<svg width="115" height="115" viewBox="0 0 115 115" fill="none" xmlns="http://www.w3.org/2000/svg">
<mask id="mask0_7606_86801" style="mask-type:alpha" maskUnits="userSpaceOnUse" x="0" y="0" width="115" height="115">
<rect width="115" height="115" fill="#D9D9D9"/>
</mask>
<g mask="url(#mask0_7606_86801)">
</g>
<g clip-path="url(#clip0_7606_86801)">
<path d="M57.04 29.99C87.59 29.99 111.09 42.86 111.09 57C111.09 71.14 87.58 84.01 57.04 84.01C26.5 84.01 2.99 71.14 2.99 57C2.99 42.86 26.51 29.99 57.04 29.99ZM57.04 27C25.54 27 0 40.42 0 57C0 73.58 25.54 87 57.04 87C88.54 87 114.08 73.58 114.08 57C114.08 40.42 88.54 27 57.04 27ZM38.89 54.59C37.48 61.81 32.51 61.06 26.39 61.06L28.83 48.48C35.6 48.48 40.2 47.75 38.88 54.59H38.89ZM17.36 73.81H23.9L25.45 65.82C32.78 65.82 37.32 66.35 41.53 62.42C46.18 58.14 47.39 50.53 44.08 46.72C42.35 44.72 39.57 43.74 35.79 43.74H23.19L17.36 73.81ZM50.46 35.73H56.97L55.42 43.72C61.03 43.72 66.24 43.31 68.75 45.63C71.39 48.05 70.12 51.16 67.27 65.79H60.67C63.42 51.64 63.93 50.46 62.93 49.39C61.97 48.36 59.77 48.57 54.48 48.57L51.13 65.79H44.62L50.45 35.74L50.46 35.73ZM90.02 54.59C88.59 61.92 83.48 61.06 77.52 61.06L79.96 48.48C86.77 48.48 91.33 47.75 90.01 54.59H90.02ZM68.48 73.81H75.04L76.59 65.82C84.29 65.82 88.55 66.27 92.67 62.42C97.32 58.14 98.53 50.53 95.22 46.72C93.49 44.72 90.71 43.74 86.93 43.74H74.33L68.48 73.81Z" fill="black"/>
</g>
<defs>
<clipPath id="clip0_7606_86801">
<rect width="114.08" height="60" fill="white" transform="translate(0 27)"/>
</clipPath>
</defs>
</svg>
