<svg width="92" height="92" viewBox="0 0 92 92" fill="none" xmlns="http://www.w3.org/2000/svg">
<mask id="mask0_7383_81587" style="mask-type:alpha" maskUnits="userSpaceOnUse" x="0" y="0" width="92" height="92">
<rect width="92" height="92" fill="black"/>
</mask>
<g mask="url(#mask0_7383_81587)">
<path d="M42.8676 30.5881H38.6474C37.5298 30.5881 36.5415 29.9378 36.0145 28.9717L36.0081 28.96L36.0021 28.948C35.5294 28.0026 35.6342 26.804 36.3596 25.8973L36.362 25.8943L36.362 25.8943L44.1213 16.2974C44.1218 16.2969 44.1222 16.2963 44.1226 16.2958C45.2404 14.9009 47.512 14.9014 48.6288 16.2974M42.8676 30.5881L44.707 16.7659C45.524 15.7447 47.2261 15.7447 48.0431 16.7659L55.7367 26.3658M42.8676 30.5881V42.0933V42.4792L43.1817 42.7036C44.1057 43.3636 44.9677 44.0924 45.8566 44.8445L46.3608 45.2712L46.8478 44.8249C47.6365 44.1019 48.5644 43.3721 49.5003 42.7036L49.8144 42.4792V42.0933V30.5881M42.8676 30.5881H49.0644M48.6288 16.2974L48.0432 16.7659L48.6284 16.2969L48.6288 16.2974ZM48.6288 16.2974L56.311 25.8831M56.311 25.8831C56.3064 25.8779 56.3019 25.8727 56.2973 25.8675L55.7367 26.3658M56.311 25.8831L56.322 25.8968L55.7367 26.3658M56.311 25.8831C57.0718 26.7523 57.1311 27.9566 56.6919 28.923L56.6806 28.9478L56.6675 28.9717C56.1406 29.9378 55.1522 30.5881 54.0346 30.5881H49.8144M55.7367 26.3658C56.2814 26.9786 56.3495 27.8637 56.0091 28.6126C55.6006 29.3615 54.8516 29.8381 54.0346 29.8381H49.8144V30.5881M49.8144 30.5881H49.0644M49.0644 30.5881V42.0933C48.1112 42.7741 47.158 43.5231 46.341 44.272L49.0644 30.5881Z" fill="black" stroke="black" stroke-width="1.5"/>
<path d="M28.7074 53.3276V49.1075H29.2511C36.7324 49.1075 42.867 55.2374 42.867 62.7914V73.2763C42.867 75.1884 44.4283 76.7497 46.3404 76.7497C48.2525 76.7497 49.8138 75.1884 49.8138 73.2763V62.7914C49.8138 51.4122 40.5555 42.2288 29.183 42.2288H28.6394V38.0087C28.6394 36.8911 27.989 35.9028 27.023 35.3758L26.999 35.3628L26.9742 35.3515C26.0083 34.9124 24.8048 34.9715 23.9356 35.7312L14.3505 43.3447L14.3396 43.3535L14.3289 43.3626C13.7143 43.8894 13.25 44.6998 13.25 45.6341C13.25 46.5197 13.6094 47.3628 14.3567 47.9284L23.9428 55.6109C24.505 56.0768 25.1571 56.2563 25.7787 56.2563C26.2414 56.2563 26.6103 56.1585 27.0105 55.9984L27.0265 55.992L27.0423 55.9849C28.0734 55.5162 28.7074 54.4906 28.7074 53.3276Z" fill="black" stroke="black" stroke-width="1.5"/>
<path d="M64.0434 38.0087V42.2288H63.4998C57.9917 42.2288 53.0434 44.3487 49.3685 47.8117L48.8979 48.255L49.2671 48.7858C50.3246 50.3059 51.1852 51.8938 51.9155 53.6199L52.3913 54.7446L53.1792 53.8115C55.6287 50.9109 59.3705 49.0394 63.4998 49.0394H64.0434V53.2596C64.0434 54.3771 64.6938 55.3655 65.6598 55.8924L65.6716 55.8988L65.6836 55.9048C66.0813 56.1037 66.5416 56.1883 66.9722 56.1883C67.5937 56.1883 68.2457 56.0087 68.8078 55.543L78.3343 47.9219L78.3442 47.9139L78.3539 47.9057C78.9685 47.3788 79.4328 46.5685 79.4328 45.6341C79.4328 44.8288 79.0822 43.912 78.3248 43.3388L68.7343 35.7209C68.734 35.7207 68.7336 35.7204 68.7333 35.7201C67.8307 34.9987 66.6392 34.8918 65.6961 35.3572C64.6724 35.8285 64.0434 36.8504 64.0434 38.0087Z" fill="black" stroke="black" stroke-width="1.5"/>
</g>
</svg>
