<svg width="92" height="92" viewBox="0 0 92 92" fill="none" xmlns="http://www.w3.org/2000/svg">
<mask id="mask0_7383_81596" style="mask-type:alpha" maskUnits="userSpaceOnUse" x="0" y="0" width="92" height="92">
<rect width="92" height="92" fill="black"/>
</mask>
<g mask="url(#mask0_7383_81596)">
</g>
<g clip-path="url(#clip0_7383_81596)">
<path d="M29.1836 31.1172H30.9414L30.0625 29.0078L29.1836 31.1172Z" fill="black"/>
<path d="M38.5 44.0078C41.537 44.0078 44.0078 41.537 44.0078 38.5V21.5078C44.0078 18.4708 41.537 16 38.5 16H21.5078C18.4708 16 16 18.4708 16 21.5078V38.5C16 41.537 18.4708 44.0078 21.5078 44.0078H26.5219L28.8196 46.3054C29.1627 46.6486 29.6126 46.8203 30.0625 46.8203C30.5124 46.8203 30.9623 46.6486 31.3054 46.3054L33.6031 44.0078H38.5ZM33.1274 36.3637L32.4062 34.6328H27.7188L26.9976 36.3637C26.6242 37.2596 25.5948 37.6837 24.6989 37.3101C23.8028 36.9367 23.3791 35.9076 23.7524 35.0114L28.4399 23.7614C28.7129 23.1064 29.3528 22.6798 30.0625 22.6798C30.7722 22.6798 31.4121 23.1065 31.6851 23.7614L36.3726 35.0114C36.7459 35.9076 36.3222 36.9368 35.4261 37.3101C35.2052 37.4022 34.9761 37.4458 34.7507 37.4458C34.0622 37.4458 33.4087 37.0387 33.1274 36.3637Z" fill="black"/>
<path d="M70.4922 16H53.5C50.463 16 47.9922 18.4708 47.9922 21.5078V38.5C47.9922 41.537 50.463 44.0078 53.5 44.0078H58.3969L60.6946 46.3054C61.0377 46.6486 61.4876 46.8203 61.9375 46.8203C62.3874 46.8203 62.8373 46.6486 63.1804 46.3054L65.4781 44.0078H70.4922C73.5292 44.0078 76 41.537 76 38.5V21.5078C76 18.4708 73.5292 16 70.4922 16ZM67.3034 34.0582C67.4638 34.1379 67.6836 34.247 67.9061 34.484C68.5708 35.1914 68.5361 36.3039 67.8285 36.9687C67.2489 37.513 66.3975 37.5883 65.7432 37.2087L65.7396 37.207C64.1541 36.4195 62.8717 35.3232 61.9401 33.9947C61.7036 34.3322 61.4439 34.6558 61.1616 34.9635C60.2963 35.9069 59.2625 36.6704 58.0887 37.233L58.0831 37.2357C57.8215 37.3769 57.5355 37.4454 57.2515 37.4454C56.7106 37.4454 56.177 37.1966 55.8326 36.727C55.2585 35.944 55.4277 34.8441 56.2107 34.2699C56.3501 34.1677 56.4665 34.1118 56.5691 34.0626C57.6752 33.5325 59.3949 32.3445 59.9779 29.9452H57.25C56.2792 29.9452 55.4922 29.1582 55.4922 28.1874C55.4922 27.2166 56.2792 26.4296 57.25 26.4296H60.1797V24.4375C60.1797 23.4667 60.9667 22.6797 61.9375 22.6797C62.9083 22.6797 63.6953 23.4667 63.6953 24.4375V26.4297H66.625C67.5958 26.4297 68.3828 27.2167 68.3828 28.1875C68.3828 29.1583 67.5958 29.9453 66.625 29.9453H63.9024C64.4904 32.3061 66.2017 33.5111 67.3034 34.0582Z" fill="black"/>
<path d="M54.4375 47.992H49.5406L47.2429 45.6945C46.5565 45.0081 45.4435 45.0081 44.757 45.6945L42.4594 47.992H37.5625C34.5255 47.992 32.0547 50.4628 32.0547 53.4999V70.492C32.0547 73.5291 34.5255 75.9999 37.5625 75.9999H54.4375C57.4745 75.9999 59.9453 73.5291 59.9453 70.492V53.4999C59.9453 50.4628 57.4745 47.992 54.4375 47.992ZM46.9375 60.1795H48.8125C49.7833 60.1795 50.5703 60.9666 50.5703 61.9374C50.5703 62.9081 49.7833 63.6952 48.8125 63.6952H45.0625C44.481 63.6952 44.0078 64.1683 44.0078 64.7499C44.0078 65.3315 44.481 65.8045 45.0625 65.8045H48.8125C49.7833 65.8045 50.5703 66.5916 50.5703 67.5624C50.5703 68.5331 49.7833 69.3202 48.8125 69.3202H45.0625C42.5424 69.3202 40.4922 67.27 40.4922 64.7499C40.4922 63.0931 41.3784 61.6396 42.7016 60.838C42.4867 60.3086 42.3672 59.7305 42.3672 59.1249C42.3672 56.6047 44.4174 54.5545 46.9375 54.5545H48.8125C49.7833 54.5545 50.5703 55.3416 50.5703 56.3124C50.5703 57.2831 49.7833 58.0702 48.8125 58.0702H46.9375C46.356 58.0702 45.8828 58.5433 45.8828 59.1249C45.8828 59.7065 46.356 60.1795 46.9375 60.1795Z" fill="black"/>
</g>
<defs>
<clipPath id="clip0_7383_81596">
<rect width="60" height="60" fill="white" transform="translate(16 16)"/>
</clipPath>
</defs>
</svg>
