<svg width="56" height="53" viewBox="0 0 56 53" fill="none" xmlns="http://www.w3.org/2000/svg">
<mask id="mask0_7200_56884" style="mask-type:alpha" maskUnits="userSpaceOnUse" x="0" y="0" width="56" height="53">
<rect width="56" height="53" fill="#D9D9D9"/>
</mask>
<g mask="url(#mask0_7200_56884)">
<path d="M4.63721 39.29C3.94121 39.29 3.37088 39.058 2.92621 38.594C2.48155 38.13 2.25921 37.5597 2.25921 36.883C2.25921 36.2063 2.48155 35.636 2.92621 35.172C3.37088 34.708 3.94121 34.476 4.63721 34.476C5.31388 34.476 5.87455 34.708 6.31922 35.172C6.76388 35.636 6.98622 36.2063 6.98622 36.883C6.98622 37.5597 6.76388 38.13 6.31922 38.594C5.87455 39.058 5.31388 39.29 4.63721 39.29ZM16.8825 39.29C15.4131 39.29 14.1081 38.9807 12.9675 38.362C11.8268 37.724 10.9181 36.854 10.2415 35.752C9.58413 34.65 9.25546 33.3933 9.25546 31.982C9.25546 30.59 9.57446 29.3527 10.2125 28.27C10.8698 27.168 11.7591 26.298 12.8805 25.66C14.0018 25.0027 15.2488 24.674 16.6215 24.674C17.9748 24.674 19.1638 24.9833 20.1885 25.602C21.2325 26.2013 22.0445 27.0327 22.6245 28.096C23.2238 29.14 23.5235 30.329 23.5235 31.663C23.5235 31.9143 23.5041 32.1753 23.4655 32.446C23.4461 32.6973 23.3978 32.9873 23.3205 33.316L11.5465 33.345V30.503L21.5515 30.474L20.0145 31.663C19.9758 30.8317 19.8211 30.1357 19.5505 29.575C19.2991 29.0143 18.9221 28.589 18.4195 28.299C17.9361 27.9897 17.3368 27.835 16.6215 27.835C15.8675 27.835 15.2101 28.009 14.6495 28.357C14.0888 28.6857 13.6538 29.1593 13.3445 29.778C13.0545 30.3773 12.9095 31.0927 12.9095 31.924C12.9095 32.7747 13.0641 33.519 13.3735 34.157C13.7021 34.7757 14.1661 35.259 14.7655 35.607C15.3648 35.9357 16.0608 36.1 16.8535 36.1C17.5688 36.1 18.2165 35.984 18.7965 35.752C19.3765 35.5007 19.8791 35.1333 20.3045 34.65L22.5375 36.883C21.8608 37.6757 21.0295 38.275 20.0435 38.681C19.0768 39.087 18.0231 39.29 16.8825 39.29ZM35.2979 39V30.967C35.2979 30.1357 35.0369 29.459 34.5149 28.937C33.9929 28.415 33.3163 28.154 32.4849 28.154C31.9436 28.154 31.4603 28.27 31.0349 28.502C30.6096 28.734 30.2713 29.0627 30.0199 29.488C29.7879 29.9133 29.6719 30.4063 29.6719 30.967L28.1929 30.213C28.1929 29.111 28.4249 28.154 28.8889 27.342C29.3723 26.5107 30.0296 25.863 30.8609 25.399C31.7116 24.935 32.6686 24.703 33.7319 24.703C34.7566 24.703 35.6749 24.964 36.4869 25.486C37.2989 25.9887 37.9369 26.6557 38.4009 27.487C38.8649 28.299 39.0969 29.1787 39.0969 30.126V39H35.2979ZM25.8729 39V24.993H29.6719V39H25.8729ZM46.7101 39L40.5331 24.993H44.7091L49.1461 36.535H47.0871L51.5531 24.993H55.5841L49.4361 39H46.7101Z" fill="black"/>
</g>
</svg>
