<svg width="56" height="53" viewBox="0 0 56 53" fill="none" xmlns="http://www.w3.org/2000/svg">
<mask id="mask0_7200_56908" style="mask-type:alpha" maskUnits="userSpaceOnUse" x="0" y="0" width="56" height="53">
<rect width="56" height="53" fill="#D9D9D9"/>
</mask>
<g mask="url(#mask0_7200_56908)">
<path fill-rule="evenodd" clip-rule="evenodd" d="M14.7007 6H1V48H7.26871V32.8567H13.5374C18.7936 32.8567 22.7574 32.1017 25.4286 30.5917C28.1429 29.0385 29.5 26.5146 29.5 23.02V14.2835C29.5 12.7735 29.22 11.5223 28.6599 10.53C28.0567 9.49461 27.3243 8.67488 26.4626 8.07088C25.644 7.46687 24.5454 7.01387 23.1667 6.71187C21.8311 6.40986 20.5601 6.21572 19.3537 6.12943C18.1905 6.04314 16.6395 6 14.7007 6ZM20.9048 27.4206C19.2676 28.4129 17.0918 28.9091 14.3776 28.9091H7.20408V9.94762H14.2483C15.4546 9.94762 16.424 9.99076 17.1565 10.077C17.8889 10.1633 18.7936 10.3359 19.8707 10.5948C20.9909 10.8968 21.8526 11.4361 22.4558 12.2126C23.059 12.9461 23.3605 13.8952 23.3605 15.0601V22.6965C23.3605 24.8536 22.5419 26.4284 20.9048 27.4206ZM33.1443 33.8184C36.9438 34.2728 40.2148 34.5 42.9571 34.5C45.7985 34.5 48.0947 34.2586 49.8458 33.7758C51.5969 33.293 52.8855 32.4836 53.7115 31.3475C54.5705 30.2115 55 28.6637 55 26.704V24.7018C55 23.1398 54.7357 21.9043 54.2071 20.9955C53.7115 20.0583 52.8359 19.3625 51.5804 18.9081C50.3579 18.4537 48.6399 18.2265 46.4262 18.2265H42.5606C40.5782 18.2265 39.174 18.0135 38.348 17.5874C37.5551 17.133 37.1586 16.423 37.1586 15.4574V12.3049C37.1586 11.0553 37.6707 10.1607 38.6949 9.62108C39.6861 9.10987 41.7181 8.85426 44.7907 8.85426C46.7731 8.85426 49.6476 9.09567 53.4141 9.57847V6.46861C50.0441 6.1562 47.2852 6 45.1377 6C41.9328 6 39.4053 6.22721 37.5551 6.68162C35.7379 7.13602 34.4328 7.83184 33.6399 8.76906C32.88 9.70628 32.5 10.9275 32.5 12.4327V14.648C32.5 16.92 33.1608 18.5957 34.4824 19.6749C35.804 20.7541 38.0341 21.2937 41.1729 21.2937H44.9394C46.9218 21.2937 48.3095 21.5351 49.1024 22.0179C49.8954 22.5007 50.2919 23.3386 50.2919 24.5314V28.1099C50.2919 29.3879 49.7302 30.2683 48.6068 30.7511C47.4835 31.2055 45.6993 31.4327 43.2544 31.4327C40.3469 31.4327 36.9769 31.0777 33.1443 30.3677V33.8184Z" fill="black"/>
</g>
</svg>
