<svg width="76" height="76" viewBox="0 0 76 76" fill="none" xmlns="http://www.w3.org/2000/svg">
<mask id="mask0_7039_55553" style="mask-type:alpha" maskUnits="userSpaceOnUse" x="-1" y="-1" width="78" height="78">
<rect width="76" height="76" fill="white" stroke="white" stroke-width="2"/>
</mask>
<g mask="url(#mask0_7039_55553)">
<path d="M3.26242 27.8402C3.26242 27.5693 3.303 27.2848 3.38417 27.0274C3.65471 26.2011 3.8441 25.3341 4.22286 24.589C5.95437 21.2295 9.22799 19.631 13.1374 20.0374C13.8949 20.1187 14.4225 20.7418 14.4496 21.5411C14.4766 22.3809 14.4496 23.2073 14.4496 24.1284C14.7742 24.1284 15.0177 24.1284 15.2612 24.1284C18.0478 24.1284 20.848 24.1284 23.6346 24.1284C23.8105 24.1284 23.9999 24.1284 24.1757 24.1284C24.7574 24.1826 25.0821 24.5213 25.1362 25.0903C25.1903 25.6186 24.7709 26.0927 24.2028 26.1469C23.8376 26.1875 23.4723 26.1604 23.1206 26.1604C20.5098 26.1604 17.899 26.1604 15.2883 26.1604C15.0448 26.1604 14.8013 26.1604 14.4631 26.1604C14.4631 26.919 14.4631 27.6099 14.4631 28.3008C14.4631 29.2761 14.4631 37.5395 14.4631 38.5149C14.4496 39.111 14.0302 39.5309 13.5026 39.5444C12.9751 39.5715 12.5287 39.1651 12.4475 38.5826C12.4205 38.3794 12.434 38.1762 12.434 37.973C12.434 35.3586 12.434 25.456 12.434 22.8415C12.434 22.5977 12.434 22.3538 12.434 22.1236C9.80967 21.5681 6.75248 23.3969 5.76498 26.1198C5.50796 26.8378 5.34564 27.6235 5.33211 28.3821C5.30505 38.4336 5.31858 48.4852 5.31858 58.5367C5.31858 58.6045 5.31858 58.6722 5.34564 58.8754C7.29358 56.8434 9.62028 55.8816 12.434 55.9764C12.434 55.6378 12.434 55.3668 12.434 55.1095C12.434 48.8103 12.434 42.5111 12.434 36.212C12.434 35.9681 12.4204 35.7108 12.461 35.4669C12.5693 34.9115 12.921 34.5729 13.5162 34.6135C14.0978 34.6406 14.4225 34.9928 14.4631 35.5753C14.4766 35.8056 14.4631 36.0359 14.4631 36.2526C14.4631 42.7279 14.4631 49.2167 14.4631 55.692C14.4631 57.5885 14.0437 58.022 12.1499 58.022C8.90333 58.0355 6.40077 59.8101 5.56207 62.682C4.39872 66.6782 7.42885 70.7016 11.5953 70.7557C14.8824 70.8099 18.1696 70.7557 21.4567 70.7557C35.8769 70.7557 50.2836 70.7557 64.7037 70.7557H65.6371C65.6371 70.4848 65.6371 70.241 65.6371 70.0107C65.6371 68.8457 65.6371 67.6942 65.6371 66.5292C65.6371 65.9061 66.0429 65.5268 66.6111 65.5132C67.1657 65.4997 67.6392 65.8654 67.6527 66.4615C67.6798 68.0058 67.7068 69.5501 67.6256 71.0944C67.5715 72.1104 66.7599 72.7471 65.7453 72.8013C65.5424 72.8013 65.3395 72.8013 65.1366 72.8013C47.4969 72.8013 29.8572 72.7606 12.2175 72.8284C7.28005 72.8555 3.83057 69.3604 3.37064 65.5945C3.37064 65.5268 3.303 65.4726 3.27595 65.4184C3.27595 52.8743 2.7078 40.3301 3.27595 27.7996L3.26242 27.8402Z" fill="black"/>
<path d="M34.4159 13.8728C35.5522 12.6536 36.7155 12.7078 37.8518 13.8728C38.0412 13.7103 38.1629 13.6019 38.2982 13.4935C38.9881 12.911 39.7862 12.911 40.4491 13.5206C41.0443 14.076 41.626 14.6585 42.1941 15.2546C43.0057 16.0945 43.0193 16.9343 42.1941 17.7607C40.679 19.2779 39.164 20.768 37.6354 22.2581C37.2972 22.5833 37.1484 22.9084 37.1484 23.3825C37.1754 25.6041 37.1484 27.8393 37.1484 30.061C37.1484 30.2777 37.1619 30.508 37.1754 30.7654H40.0297C40.0297 30.7654 40.1109 30.657 40.1109 30.6299C39.9215 29.1804 40.5708 28.0019 41.2742 26.8098C42.2482 25.1707 43.1545 23.4909 44.115 21.8382C44.8996 20.4835 45.4136 19.0476 45.5759 17.4897C45.6571 16.6363 46.09 16.2435 46.7664 16.3383C47.3886 16.4331 47.6592 16.9208 47.5915 17.7471C47.4292 19.4946 46.8746 21.1067 46.0088 22.6239C44.8184 24.7101 43.601 26.7962 42.4647 28.9095C42.0047 29.7765 41.883 30.7247 42.627 31.6053C43.2763 32.3774 43.3169 35.439 42.627 36.1569C42.1806 36.6311 41.5042 36.902 40.8008 37.3355C40.5167 39.6113 38.5823 41.5078 35.9039 41.4265C33.6178 41.3588 31.9809 39.7739 31.4263 37.1052C31.2505 37.0645 31.0611 37.0374 30.8582 36.9833C29.8707 36.7665 29.2078 36.035 29.1537 35.0326C29.1131 34.2875 29.0861 33.5289 29.1672 32.7838C29.2078 32.3503 29.3972 31.9033 29.6542 31.5511C30.1142 30.8873 30.2494 29.7494 29.8571 29.0314C28.6126 26.8098 27.3411 24.6152 26.1101 22.3936C22.2683 15.4578 26.0965 7.0318 33.8342 5.36557C39.1504 4.22766 44.7914 7.27564 46.8069 12.3827C47.0775 13.0736 46.9152 13.629 46.3605 13.8864C45.7789 14.1573 45.2513 13.8864 44.9266 13.1548C43.5063 9.93076 41.0849 7.89878 37.5948 7.31628C31.778 6.35447 26.5565 10.9197 26.6512 16.826C26.6782 18.5057 27.1246 20.0501 27.9498 21.4995C28.8291 23.0574 29.7354 24.6152 30.6011 26.1866C31.3857 27.5955 32.5085 28.896 32.0756 30.7383H35.0787C35.0787 30.508 35.1193 30.2913 35.1193 30.0745C35.1193 27.8258 35.1328 25.5771 35.1058 23.3283C35.1058 22.9897 34.9164 22.5833 34.6864 22.3394C33.1984 20.8087 31.6563 19.3321 30.1547 17.8149C29.2349 16.9072 29.2349 16.0809 30.1277 15.1733C30.52 14.7669 30.9258 14.374 31.3316 13.9676C32.522 12.7755 33.0496 12.7484 34.4429 13.8593L34.4159 13.8728ZM31.9268 16.3654C33.3337 17.842 34.7405 19.3321 36.1474 20.7951C37.5677 19.3321 38.9746 17.8691 40.3273 16.4738C40.0297 16.1622 39.678 15.7964 39.2857 15.39C38.1765 16.677 37.1349 15.9319 36.1203 15.1056C35.0922 15.9454 34.0506 16.677 32.8737 15.2952C32.495 15.7287 32.1568 16.108 31.9404 16.3654H31.9268ZM41.0037 32.8922H31.2505V34.9513H41.0037V32.8922ZM33.5366 37.0916C33.8207 38.6359 35.0652 39.5842 36.4585 39.381C37.6895 39.2049 38.6905 38.1483 38.5958 37.0916H33.5366Z" fill="black"/>
<path d="M58.5619 61.4482V54.8916H27.5301V61.4482C28.937 61.4482 30.3168 61.4482 31.6966 61.4482C32.0077 61.4482 32.3324 61.4482 32.6435 61.4888C33.1575 61.5701 33.4551 61.9088 33.4822 62.4235C33.5092 62.9654 33.2252 63.3311 32.6841 63.4531C32.4812 63.4937 32.2782 63.4937 32.0753 63.4937C30.3438 63.4937 28.6259 63.5208 26.8944 63.4937C26.4615 63.4937 25.988 63.3718 25.6093 63.1686C23.4449 62.0171 21.3075 60.8115 19.1567 59.6465C18.5615 59.3214 18.1151 58.915 18.1016 58.1834C18.1016 57.4519 18.5209 57.032 19.1296 56.7069C21.3075 55.5283 23.4584 54.3227 25.6363 53.1577C26.0015 52.968 26.4479 52.8461 26.8538 52.8461C40.9087 52.8326 54.9501 52.8326 69.0051 52.8461C71.4535 52.8461 72.9821 54.4039 72.9956 56.8694C72.9956 57.8448 73.0092 58.8201 72.9956 59.7955C72.955 61.7597 71.5482 63.2905 69.5867 63.4802C69.2891 63.5072 68.9915 63.5072 68.7075 63.5072C58.2914 63.5072 42.4102 63.5072 31.9942 63.5072C31.6966 63.5072 31.399 63.5072 31.1149 63.4531C30.6144 63.3311 30.3438 62.9789 30.3574 62.4642C30.3709 61.9494 30.655 61.6107 31.169 61.5159C31.4395 61.4617 31.7101 61.4753 31.9806 61.4753C38.7173 61.4753 50.919 61.4753 57.6556 61.4753C57.9397 61.4753 58.2373 61.4753 58.5619 61.4753V61.4482ZM65.0821 61.4075C66.5972 61.4075 68.0446 61.4482 69.4785 61.394C70.3307 61.3533 70.9124 60.676 70.9395 59.7955C70.9665 58.7118 70.9665 57.6145 70.9395 56.5308C70.9259 55.7044 70.4119 55 69.6273 54.9458C68.1258 54.8645 66.6107 54.9187 65.0821 54.9187V61.4075ZM60.7128 54.8916V61.3804H62.9583V54.8916H60.7128ZM20.7259 58.1564C22.3492 59.0504 23.8507 59.8632 25.4063 60.7167V55.596C23.8372 56.463 22.3356 57.2758 20.7259 58.1564Z" fill="black"/>
<path d="M39.5424 45.3958C44.8045 45.3958 50.0667 45.3958 55.3424 45.3958C56.8168 45.3958 57.9396 44.7455 58.5619 43.3909C59.1571 42.1039 58.9948 40.8577 58.1155 39.7468C57.385 38.8392 56.3975 38.4599 55.2341 38.4599C52.1499 38.4599 49.0657 38.4599 45.9679 38.4599C45.765 38.4599 45.4944 38.5276 45.3727 38.4328C45.0616 38.189 44.6287 37.8774 44.6016 37.5523C44.5746 37.2272 44.9263 36.8343 45.1833 36.5363C45.3051 36.4008 45.6027 36.4279 45.8326 36.4144C49.0116 36.4144 52.1905 36.3873 55.3694 36.4144C57.9667 36.4415 60.0905 38.0671 60.7398 40.4377C61.6867 43.9056 59.1841 47.3194 55.5723 47.4277C54.1384 47.4684 52.718 47.4277 51.2841 47.4277C42.3155 47.4277 33.3604 47.4277 24.3917 47.4277C21.6322 47.4277 20.1577 48.9043 20.1577 51.6814C20.1577 52.7651 19.806 53.2799 19.1025 53.2663C18.4262 53.2528 18.1556 52.7515 18.1015 51.6949C17.9392 48.227 20.3471 45.8563 23.0119 45.4499C23.4584 45.3822 23.9183 45.3822 24.3647 45.3822C29.4239 45.3822 34.4832 45.3822 39.5424 45.3822V45.3958Z" fill="black"/>
<path d="M65.6239 26.1601H60.3347C56.4253 26.1601 52.5294 26.1601 48.62 26.1601C48.3901 26.1601 48.1601 26.1872 47.9437 26.133C47.389 26.0111 47.0644 25.6589 47.105 25.0628C47.132 24.5074 47.4702 24.2094 47.9978 24.1146C48.1736 24.0875 48.363 24.1146 48.5389 24.1146C54.1257 24.1146 59.699 24.1146 65.2858 24.1146C66.9361 24.1146 67.653 24.8325 67.653 26.4717C67.653 34.0849 67.653 41.698 67.653 49.3112C67.653 49.555 67.653 49.8124 67.5719 50.0563C67.4231 50.5575 67.0443 50.7878 66.5303 50.7471C66.0162 50.7065 65.7051 50.3949 65.6239 49.8802C65.5834 49.6363 65.6104 49.3789 65.6104 49.1351C65.6104 41.7658 65.6104 34.41 65.6104 27.0406C65.6104 26.7697 65.6104 26.5123 65.6104 26.1601H65.6239Z" fill="black"/>
<path d="M52.7591 18.4789C52.7591 19.3594 52.1504 19.8742 51.5281 19.671C50.9465 19.4949 50.3919 19.2375 49.8508 18.953C49.3502 18.6821 49.1744 18.235 49.4044 17.6796C49.6208 17.1649 50.1348 16.921 50.6895 17.1242C51.2035 17.3139 51.7175 17.49 52.1775 17.7745C52.4751 17.9506 52.6509 18.3163 52.7727 18.4518L52.7591 18.4789Z" fill="black"/>
<path d="M20.5305 19.8884C20.2194 19.5768 19.773 19.333 19.6918 19.0079C19.6106 18.6827 19.7865 18.1002 20.057 17.9106C20.5711 17.5313 21.2069 17.2604 21.8426 17.1384C22.1673 17.0707 22.7219 17.3416 22.8842 17.6261C23.0466 17.9106 22.9789 18.6015 22.749 18.764C22.1267 19.2246 21.3692 19.4955 20.5305 19.9019V19.8884Z" fill="black"/>
<path d="M51.6132 8.33281C51.5861 9.19979 49.6517 10.2971 48.8942 9.86357C48.3531 9.552 48.1637 8.75275 48.6372 8.3599C49.1782 7.92641 49.8005 7.56066 50.4498 7.33036C51.045 7.11362 51.6267 7.69612 51.6132 8.31926V8.33281Z" fill="black"/>
<path d="M23.9833 8.87362C23.9562 9.7406 23.2528 10.2147 22.5764 9.90316C22.0759 9.68642 21.6025 9.40194 21.1696 9.09037C20.7502 8.79234 20.6691 8.33176 20.872 7.87118C21.0749 7.39705 21.5213 7.15321 21.9812 7.34286C22.6035 7.60024 23.1852 7.966 23.7398 8.34531C23.9021 8.46722 23.9427 8.7788 23.9833 8.87362Z" fill="black"/>
</g>
</svg>
