<svg width="76" height="76" viewBox="0 0 76 76" fill="none" xmlns="http://www.w3.org/2000/svg">
<mask id="mask0_7039_55729" style="mask-type:alpha" maskUnits="userSpaceOnUse" x="-1" y="-1" width="78" height="78">
<rect width="76" height="76" fill="white" stroke="white" stroke-width="2"/>
</mask>
<g mask="url(#mask0_7039_55729)">
<path fill-rule="evenodd" clip-rule="evenodd" d="M28.1893 20.4056C27.9294 20.4056 27.6802 20.3045 27.4964 20.1244C27.3127 19.9444 27.2094 19.7002 27.2094 19.4456C27.2094 19.191 27.3127 18.9468 27.4964 18.7668C27.6802 18.5867 27.9294 18.4856 28.1893 18.4856H29.9858C30.1577 18.4856 30.3267 18.53 30.4756 18.6143C30.6245 18.6985 30.7482 18.8197 30.8342 18.9656L30.8456 18.9856L30.857 19.0064L30.8677 19.0272L30.8775 19.048L30.8873 19.0696L30.8962 19.0912L30.9044 19.1128L30.9126 19.1352L30.9199 19.1576L30.9273 19.18L30.933 19.2032L30.9387 19.2256L30.9444 19.2488L30.9485 19.272L30.9526 19.296V19.3192V19.3432V19.3672V19.3912V19.416V19.4408V27.2064H31.7912C32.0511 27.2064 32.3003 27.3075 32.4841 27.4876C32.6678 27.6676 32.7711 27.9118 32.7711 28.1664C32.7711 28.421 32.6678 28.6652 32.4841 28.8452C32.3003 29.0253 32.0511 29.1264 31.7912 29.1264H28.1893C27.9294 29.1264 27.6802 29.0253 27.4964 28.8452C27.3127 28.6652 27.2094 28.421 27.2094 28.1664C27.2094 27.9118 27.3127 27.6676 27.4964 27.4876C27.6802 27.3075 27.9294 27.2064 28.1893 27.2064H29.0149V20.4056H28.1893ZM29.0149 16.3864C29.0062 16.2554 29.0251 16.124 29.0703 16.0004C29.1155 15.8769 29.1862 15.7637 29.2778 15.6679C29.3695 15.5721 29.4802 15.4958 29.6032 15.4436C29.7261 15.3914 29.8587 15.3645 29.9927 15.3645C30.1267 15.3645 30.2593 15.3914 30.3822 15.4436C30.5052 15.4958 30.6159 15.5721 30.7076 15.6679C30.7992 15.7637 30.8699 15.8769 30.9151 16.0004C30.9603 16.124 30.9792 16.2554 30.9705 16.3864V16.4664C30.9792 16.5974 30.9603 16.7288 30.9151 16.8524C30.8699 16.9759 30.7992 17.0891 30.7076 17.1849C30.6159 17.2807 30.5052 17.357 30.3822 17.4092C30.2593 17.4614 30.1267 17.4883 29.9927 17.4883C29.8587 17.4883 29.7261 17.4614 29.6032 17.4092C29.4802 17.357 29.3695 17.2807 29.2778 17.1849C29.1862 17.0891 29.1155 16.9759 29.0703 16.8524C29.0251 16.7288 29.0062 16.5974 29.0149 16.4664V16.3864ZM48.829 46.7544C48.8291 44.8481 49.5038 43.0008 50.7383 41.5273C51.9727 40.0537 53.6904 39.0451 55.5988 38.6732C57.5072 38.3013 59.4882 38.5892 61.2042 39.4878C62.9203 40.3863 64.2652 41.84 65.0099 43.6012C65.7547 45.3623 65.8531 47.3219 65.2884 49.1462C64.7237 50.9704 63.5309 52.5464 61.9131 53.6057C60.2954 54.6649 58.3528 55.1419 56.4164 54.9553C54.48 54.7687 52.6695 53.9301 51.2934 52.5824C50.5109 51.818 49.8903 50.9096 49.4674 49.9094C49.0444 48.9092 48.8275 47.837 48.829 46.7544ZM52.6766 42.2808C51.6202 43.3157 50.9627 44.6775 50.8163 46.1342C50.6698 47.5908 51.0434 49.0521 51.8734 50.2691C52.7034 51.4861 53.9385 52.3835 55.3681 52.8084C56.7978 53.2333 58.3336 53.1593 59.7139 52.5992C61.0941 52.039 62.2334 51.0273 62.9377 49.7365C63.6419 48.4456 63.8674 46.9554 63.5759 45.5199C63.2844 44.0843 62.4938 42.7923 61.3388 41.8638C60.1839 40.9353 58.7361 40.4279 57.2421 40.428C56.3941 40.427 55.5542 40.5902 54.7707 40.9082C53.9872 41.2261 53.2756 41.6926 52.6766 42.2808ZM52.7142 47.6672L55.9176 50.1352C56.1214 50.2912 56.38 50.3619 56.6368 50.332C56.8936 50.302 57.1279 50.1737 57.2886 49.9752L57.2952 49.9672L61.9039 44.7512C61.9974 44.6582 62.0704 44.5475 62.1185 44.4257C62.1666 44.304 62.1888 44.174 62.1836 44.0435C62.1783 43.9131 62.1459 43.7851 62.0883 43.6675C62.0306 43.5498 61.9489 43.445 61.8483 43.3594C61.7477 43.2739 61.6303 43.2095 61.5033 43.1701C61.3762 43.1308 61.2423 43.1174 61.1098 43.1307C60.9773 43.144 60.8489 43.1838 60.7327 43.2476C60.6165 43.3114 60.5149 43.3978 60.4341 43.5016L56.3978 48.068L53.9203 46.16C53.821 46.07 53.7037 46.001 53.5758 45.9576C53.4479 45.9142 53.3123 45.8972 53.1774 45.9076C53.0425 45.9181 52.9112 45.9559 52.792 46.0185C52.6727 46.0811 52.5679 46.1673 52.4843 46.2715C52.4007 46.3758 52.34 46.4959 52.3061 46.6242C52.2722 46.7526 52.2659 46.8864 52.2874 47.0173C52.3089 47.1482 52.3579 47.2733 52.4312 47.3848C52.5045 47.4962 52.6006 47.5915 52.7134 47.6648L52.7142 47.6672ZM7.04255 11.2928H11.0633C11.3272 11.2915 11.5798 11.1883 11.7664 11.0055C11.9529 10.8228 12.0583 10.5753 12.0596 10.3168V5.3384L7.04255 11.2928ZM12.1314 53.4848C11.9977 53.4933 11.8636 53.4748 11.7375 53.4305C11.6113 53.3862 11.4958 53.317 11.398 53.2272C11.3003 53.1374 11.2223 53.0289 11.1691 52.9084C11.1158 52.788 11.0883 52.6581 11.0883 52.5268C11.0883 52.3955 11.1158 52.2656 11.1691 52.1452C11.2223 52.0247 11.3003 51.9162 11.398 51.8264C11.4958 51.7366 11.6113 51.6674 11.7375 51.6231C11.8636 51.5788 11.9977 51.5603 12.1314 51.5688H40.9368C41.0705 51.5603 41.2046 51.5788 41.3307 51.6231C41.4569 51.6674 41.5724 51.7366 41.6702 51.8264C41.7679 51.9162 41.8459 52.0247 41.8991 52.1452C41.9524 52.2656 41.9799 52.3955 41.9799 52.5268C41.9799 52.6581 41.9524 52.788 41.8991 52.9084C41.8459 53.0289 41.7679 53.1374 41.6702 53.2272C41.5724 53.317 41.4569 53.3862 41.3307 53.4305C41.2046 53.4748 41.0705 53.4933 40.9368 53.4848H12.1314ZM12.1314 59.5424C11.9977 59.5509 11.8636 59.5324 11.7375 59.4881C11.6113 59.4438 11.4958 59.3746 11.398 59.2848C11.3003 59.195 11.2223 59.0865 11.1691 58.966C11.1158 58.8456 11.0883 58.7157 11.0883 58.5844C11.0883 58.4531 11.1158 58.3232 11.1691 58.2028C11.2223 58.0823 11.3003 57.9738 11.398 57.884C11.4958 57.7942 11.6113 57.725 11.7375 57.6807C11.8636 57.6364 11.9977 57.6179 12.1314 57.6264H44.5297C44.6634 57.6179 44.7975 57.6364 44.9237 57.6807C45.0498 57.725 45.1653 57.7942 45.2631 57.884C45.3609 57.9738 45.4388 58.0823 45.4921 58.2028C45.5453 58.3232 45.5728 58.4531 45.5728 58.5844C45.5728 58.7157 45.5453 58.8456 45.4921 58.966C45.4388 59.0865 45.3609 59.195 45.2631 59.2848C45.1653 59.3746 45.0498 59.4438 44.9237 59.4881C44.7975 59.5324 44.6634 59.5509 44.5297 59.5424H12.1314ZM12.1314 41.3712C11.8715 41.3712 11.6223 41.2701 11.4385 41.09C11.2548 40.91 11.1515 40.6658 11.1515 40.4112C11.1515 40.1566 11.2548 39.9124 11.4385 39.7324C11.6223 39.5523 11.8715 39.4512 12.1314 39.4512H39.1983C39.4582 39.4512 39.7074 39.5523 39.8912 39.7324C40.075 39.9124 40.1782 40.1566 40.1782 40.4112C40.1782 40.6658 40.075 40.91 39.8912 41.09C39.7074 41.2701 39.4582 41.3712 39.1983 41.3712H12.1314ZM12.1314 47.428C11.9977 47.4365 11.8636 47.418 11.7375 47.3737C11.6113 47.3294 11.4958 47.2602 11.398 47.1704C11.3003 47.0806 11.2223 46.9721 11.1691 46.8516C11.1158 46.7312 11.0883 46.6013 11.0883 46.47C11.0883 46.3387 11.1158 46.2088 11.1691 46.0884C11.2223 45.9679 11.3003 45.8594 11.398 45.7696C11.4958 45.6798 11.6113 45.6106 11.7375 45.5663C11.8636 45.522 11.9977 45.5035 12.1314 45.512H39.3649C39.6133 45.5277 39.8463 45.6355 40.0166 45.8134C40.1868 45.9914 40.2816 46.2261 40.2816 46.47C40.2816 46.7139 40.1868 46.9486 40.0166 47.1266C39.8463 47.3045 39.6133 47.4123 39.3649 47.428H12.1314ZM48.1104 54.9736C50.4012 57.9065 53.6062 60.0272 57.2388 61.0136C59.2522 60.4683 61.1478 59.5691 62.8332 58.36C62.8691 58.3309 62.907 58.3041 62.9467 58.28C64.2367 57.3379 65.3877 56.2258 66.3673 54.9752C68.7402 51.9537 70.0316 48.2507 70.0419 44.4384V36.1184L63.2888 34.212C63.2256 34.2009 63.1638 34.1835 63.1043 34.16L57.2364 32.5032L44.4342 36.1128V44.4368C44.4444 48.2492 45.7358 51.9521 48.1087 54.9736H48.1104ZM62.4943 60.872V71.1072C62.493 71.3657 62.3876 71.6132 62.2011 71.7959C62.0145 71.9787 61.7619 72.0819 61.4981 72.0832H13.1734C12.9097 72.0817 12.6573 71.9784 12.4709 71.7957C12.2845 71.6129 12.1793 71.3655 12.178 71.1072V68.696H55.2652C56.0475 68.6943 56.7974 68.3891 57.3506 67.8471C57.9038 67.3051 58.2154 66.5705 58.2171 65.804V62.724C59.7144 62.2794 61.1507 61.6575 62.4943 60.872ZM64.4541 32.552V10.1968C64.4526 9.43018 64.1411 8.69536 63.5879 8.1532C63.0346 7.61104 62.2847 7.30569 61.5022 7.304H58.2171V4.8928C58.2156 4.12617 57.9041 3.39136 57.3509 2.8492C56.7976 2.30704 56.0477 2.00169 55.2652 2H12.8035C12.6595 1.99997 12.5174 2.03115 12.3872 2.09132C12.257 2.15149 12.1421 2.23915 12.0506 2.348L4.27273 11.58L4.26539 11.588C4.25477 11.5984 4.24497 11.6096 4.23517 11.62C4.19928 11.6606 4.16678 11.7039 4.138 11.7496C4.12161 11.7755 4.10661 11.8022 4.09309 11.8296C4.04737 11.9218 4.01757 12.0207 4.0049 12.1224L4 12.1688V12.1928V12.216V12.24V65.804C4.00173 66.5705 4.31328 67.3051 4.8665 67.8471C5.41972 68.3891 6.16954 68.6943 6.95191 68.696H10.2296V71.1072C10.2311 71.8724 10.5415 72.6061 11.0929 73.148C11.6444 73.6899 12.3923 73.9962 13.1734 74H61.4948C62.2772 73.9983 63.027 73.6931 63.5802 73.1511C64.1334 72.6091 64.445 71.8745 64.4467 71.108V59.5608C66.7911 57.7645 68.689 55.4704 69.9973 52.8514C71.3057 50.2324 71.9904 47.3567 72 44.4408V35.4008H71.9959C71.9959 35.1935 71.9269 34.9919 71.7995 34.8265C71.672 34.6611 71.493 34.5409 71.2896 34.484L64.4467 32.552H64.4541ZM58.2244 30.792V9.2208H61.5022C61.7653 9.22311 62.0169 9.32681 62.2025 9.50946C62.3882 9.69211 62.493 9.93903 62.4943 10.1968V32L58.2204 30.7928L58.2244 30.792ZM56.2614 62.724C52.4084 61.5761 49.0195 59.2741 46.5711 56.1416C43.9329 52.7859 42.4961 48.6725 42.4826 44.4368V35.3968C42.4829 35.1728 42.5632 34.956 42.7095 34.7839C42.8558 34.6118 43.0589 34.4953 43.2836 34.4544L56.2671 30.7888V4.8928C56.2656 4.6344 56.1602 4.38701 55.9737 4.20429C55.7872 4.02157 55.5346 3.91827 55.2709 3.9168H14.0153V10.3168C14.0135 11.0833 13.702 11.8179 13.1488 12.3599C12.5955 12.9019 11.8457 13.2071 11.0633 13.2088H5.94997V65.804C5.95169 66.0623 6.05722 66.3095 6.2437 66.492C6.43018 66.6745 6.68258 66.7777 6.94619 66.7792H55.2652C55.5288 66.7777 55.7812 66.6745 55.9677 66.492C56.1542 66.3095 56.2597 66.0623 56.2614 65.804V62.724ZM36.7045 15.6992C35.1508 14.1773 33.1065 13.2302 30.92 13.0194C28.7335 12.8086 26.54 13.347 24.7132 14.543C22.8865 15.739 21.5395 17.5185 20.9019 19.5784C20.2642 21.6382 20.3753 23.851 21.2162 25.8396C22.0571 27.8282 23.5758 29.4696 25.5135 30.4842C27.4512 31.4988 29.6881 31.8238 31.8429 31.4038C33.9978 30.9838 35.9373 29.8448 37.3311 28.1808C38.7249 26.5168 39.4866 24.4309 39.4866 22.2784C39.4881 21.0563 39.2431 19.8459 38.7657 18.7168C38.2882 17.5877 37.5878 16.5622 36.7045 15.6992ZM29.989 11.0592C27.3391 11.059 24.771 11.959 22.7224 13.6058C20.6738 15.2527 19.2715 17.5445 18.7543 20.0907C18.2371 22.637 18.6371 25.2802 19.8861 27.5699C21.1351 29.8596 23.1559 31.6542 25.604 32.6479C28.0522 33.6416 30.7763 33.7729 33.3123 33.0194C35.8482 32.266 38.039 30.6744 39.5113 28.5158C40.9837 26.3572 41.6466 23.7653 41.387 21.1816C41.1275 18.5979 39.9615 16.1823 38.0878 14.3464C37.0256 13.3025 35.7633 12.4745 34.3734 11.9101C32.9836 11.3457 31.4936 11.056 29.989 11.0576V11.0592Z" fill="black"/>
</g>
</svg>
