<svg width="76" height="76" viewBox="0 0 76 76" fill="none" xmlns="http://www.w3.org/2000/svg">
<mask id="mask0_7039_55550" style="mask-type:alpha" maskUnits="userSpaceOnUse" x="-1" y="-1" width="78" height="78">
<rect width="76" height="76" fill="white" stroke="white" stroke-width="2"/>
</mask>
<g mask="url(#mask0_7039_55550)">
<path fill-rule="evenodd" clip-rule="evenodd" d="M63.701 42.9773L70.1168 36.6253L54.0038 20.6724L47.5881 27.0244L48.0632 27.4948C48.2963 27.5708 48.4823 27.752 48.559 27.9857L63.701 42.9773ZM43.7427 10.5397L44.5365 9.56675L43.3118 8.31328L42.3409 9.06126V9.06418C42.09 9.25995 41.7418 9.2804 41.4674 9.1197C41.2047 8.96484 40.9303 8.83921 40.644 8.73987C40.3342 8.63176 40.0184 8.53826 39.6967 8.46522C39.3721 8.3834 39.136 8.10584 39.1095 7.77567L38.9708 6.53978H37.2237L37.088 7.73191C37.0525 8.05039 36.8194 8.31335 36.5036 8.39224C36.1997 8.47113 35.9046 8.57339 35.6212 8.70487C35.3202 8.84512 35.0251 8.99997 34.7418 9.16943C34.4555 9.33889 34.0925 9.30968 33.8387 9.09639L32.8678 8.31916L31.5959 9.57846L32.3927 10.5514C32.6022 10.8027 32.6258 11.1592 32.4517 11.4367C32.2923 11.7026 32.1536 11.9802 32.0385 12.2665C31.9205 12.5616 31.8202 12.8626 31.7434 13.1694C31.6637 13.4908 31.3834 13.7245 31.0499 13.7508L29.7987 13.8881V15.5886L31.044 15.6791C31.3864 15.7054 31.6726 15.948 31.7464 16.2781C31.8231 16.5791 31.9235 16.8742 32.0445 17.1605C32.1684 17.4556 32.313 17.7419 32.4783 18.0166C32.6524 18.3029 32.617 18.6681 32.3927 18.9194L31.5959 19.9186L32.859 21.1282L33.8535 20.3306V20.3277C34.1102 20.1231 34.4703 20.1027 34.7506 20.2751C35.0192 20.4329 35.2995 20.5702 35.5888 20.6841C35.8868 20.801 36.1937 20.8974 36.5036 20.9763C36.8311 21.0552 37.0702 21.3386 37.0938 21.6717L37.2296 22.9017H38.9678L39.1065 21.6424L39.1035 21.6395C39.1389 21.3181 39.3721 21.0552 39.6878 20.9763C39.9977 20.8974 40.3046 20.798 40.5997 20.6753L40.6381 20.6607C40.9214 20.5439 41.1958 20.4036 41.4614 20.2488C41.7418 20.0822 42.0988 20.1085 42.3526 20.316L43.3295 21.1136L44.5217 19.9332L43.7249 18.9602V18.9632C43.5154 18.709 43.4918 18.3525 43.6659 18.0749C43.843 17.7798 44.0023 17.473 44.1381 17.1545C44.265 16.8682 44.3682 16.5702 44.445 16.2663C44.5276 15.9449 44.808 15.7083 45.1414 15.6849L46.316 15.5972L46.3189 13.8939L45.0441 13.7536C44.7194 13.7186 44.4538 13.4877 44.3742 13.1751C44.2974 12.8654 44.2 12.5644 44.0791 12.2694C43.964 11.9801 43.8223 11.7025 43.66 11.4337C43.4888 11.1503 43.5213 10.7909 43.7367 10.5397L43.7427 10.5397ZM46.1744 10.008L45.2684 11.1212C45.3658 11.3111 45.4514 11.501 45.5311 11.6968C45.6108 11.8925 45.6816 12.0824 45.7436 12.2782L47.1454 12.433V12.436C47.5585 12.4564 47.8831 12.7954 47.8831 13.2044V16.3102C47.8831 16.7134 47.5703 17.0465 47.1631 17.0786L45.8026 17.1809C45.7347 17.3737 45.6609 17.5665 45.5754 17.7565C45.4809 17.9727 45.3776 18.1889 45.2684 18.3963L46.139 19.4599C46.4282 19.7638 46.4223 20.24 46.1242 20.5351L43.9345 22.7001C43.6512 22.9806 43.1968 23.0011 42.8899 22.7498L41.7743 21.8352C41.6002 21.9229 41.4202 22.0047 41.2402 22.0807L41.1988 22.0982C41.0011 22.18 40.7975 22.256 40.5939 22.3232L40.4434 23.7081H40.4463C40.4286 24.1201 40.0863 24.4444 39.6673 24.4444H36.5303C36.1319 24.4444 35.7984 24.1493 35.7571 23.7578L35.5977 22.3261C35.4 22.2618 35.2023 22.1946 35.0075 22.1157C34.8127 22.0398 34.618 21.9521 34.4232 21.8557L33.3166 22.7439C33.0126 22.9981 32.5581 22.9835 32.2719 22.7089L30.0113 20.5438C29.728 20.2692 29.6985 19.8251 29.9464 19.5154L30.8849 18.3408C30.7845 18.148 30.693 17.9522 30.6104 17.7565C30.5307 17.5695 30.4599 17.3766 30.395 17.1838L29.0109 17.0786C28.586 17.0728 28.2437 16.7309 28.2437 16.3102V13.2073C28.2437 12.8128 28.5417 12.4856 28.9342 12.4389L30.3832 12.2782C30.4482 12.0824 30.516 11.8867 30.5957 11.6968C30.6754 11.5039 30.7639 11.3111 30.8584 11.1212L29.9908 10.0547C29.7016 9.75083 29.7075 9.27455 30.0055 8.97948L32.2661 6.74137C32.5464 6.4638 32.995 6.44043 33.3049 6.68878L34.4234 7.58576C34.6034 7.48933 34.7893 7.39584 34.9811 7.31111C35.1847 7.21761 35.3943 7.13288 35.6038 7.05983L35.7543 5.73045C35.775 5.32139 36.1173 5 36.5304 5H39.6615C40.057 5.00292 40.3904 5.29802 40.4347 5.68662L40.594 7.11242C40.78 7.16501 40.9718 7.22637 41.1607 7.29357C41.3702 7.36954 41.5768 7.45135 41.7774 7.54777L42.8752 6.69754L42.8782 6.70046C43.1881 6.44042 43.6514 6.46088 43.9347 6.75013L46.1244 8.98823H46.1273C46.4018 9.26873 46.4195 9.707 46.1716 10.008L46.1744 10.008ZM13.3373 37.0459C13.3373 36.6281 13.172 36.2278 12.874 35.9327C12.2513 35.3513 11.2715 35.3659 10.6665 35.9677C10.0586 36.5667 10.0438 37.5368 10.6311 38.1533L10.6636 38.1854V38.1883C11.2892 38.7698 12.269 38.7552 12.874 38.1533L12.9094 38.1211C13.1868 37.8319 13.3402 37.4462 13.3402 37.0459L13.3373 37.0459ZM13.9747 34.8487C15.1847 36.0438 15.2024 37.978 14.019 39.1963L13.9747 39.246C12.7648 40.444 10.8111 40.4644 9.58054 39.2898L9.53037 39.246C8.94015 38.6617 8.60959 37.8728 8.60959 37.0459C8.60959 36.2219 8.94011 35.4331 9.53037 34.8487C10.1176 34.2644 10.9174 33.9371 11.7496 33.9371C12.5848 33.9371 13.3816 34.2643 13.9718 34.8487L13.9747 34.8487ZM65.8319 37.0459C65.8319 37.4637 65.6667 37.8611 65.3686 38.1562C64.7489 38.7698 63.7426 38.7698 63.1228 38.1562C62.503 37.5426 62.503 36.5492 63.1228 35.9327C63.5772 35.4856 64.2589 35.3513 64.8521 35.5967C65.4424 35.8392 65.829 36.4118 65.829 37.0488L65.8319 37.0459ZM66.4694 34.8487C67.0596 35.4301 67.3901 36.2219 67.3901 37.0459C67.3901 37.8728 67.0596 38.6646 66.4694 39.246C65.2446 40.4615 63.2556 40.4615 62.0279 39.2489C60.8003 38.0364 60.7973 36.0671 62.025 34.8516L62.0309 34.8458H62.0279C62.6182 34.2614 63.4149 33.9342 64.2472 33.9342C65.0794 33.9342 65.8792 34.2614 66.4664 34.8458L66.4694 34.8487ZM22.8462 14.0108C23.2653 14.0224 23.6017 14.3643 23.6017 14.7792C23.6017 15.197 23.2653 15.5388 22.8462 15.5505H9.19762V22.3436C9.18582 22.7585 8.84054 23.0887 8.41857 23.0887C7.99951 23.0887 7.65425 22.7585 7.63951 22.3436V14.7793C7.64246 14.3556 7.99069 14.0109 8.41857 14.0109L22.8462 14.0108ZM53.154 15.5535V15.5505C52.7349 15.5389 52.3985 15.197 52.3985 14.7792C52.3985 14.3643 52.7349 14.0225 53.154 14.0108H67.5852C68.0131 14.0108 68.3613 14.3556 68.3613 14.7792V22.3435C68.3495 22.7584 68.0042 23.0886 67.5852 23.0886C67.1632 23.0886 66.8179 22.7584 66.8061 22.3435V15.5533L53.154 15.5535ZM22.0726 49.8932C22.2762 50.2672 22.1346 50.7347 21.7568 50.9362C21.3791 51.1378 20.9069 50.9976 20.7033 50.6236C20.24 49.7851 19.7264 48.9757 19.1628 48.2014C18.608 47.4271 18.0178 46.6733 17.4246 45.9108L14.4794 42.9948L12.8474 44.6106C12.5434 44.9116 12.0506 44.9116 11.7466 44.6106L4.23019 37.1717C4.08263 37.0256 4 36.8299 4 36.6254C4 36.4208 4.08263 36.2251 4.23019 36.0819L4.2715 36.0439L21.3258 19.0394C21.6268 18.7413 22.1167 18.7384 22.4206 19.0335L30.0578 26.4753C30.3618 26.7733 30.3677 27.2613 30.0667 27.5622L30.0608 27.568L29.3466 28.278L33.9326 32.7133C34.0949 32.8536 34.1894 33.0523 34.1982 33.2626C34.2071 33.473 34.1274 33.6775 33.9799 33.8295C33.8293 33.9814 33.6257 34.0661 33.4103 34.0603C33.1978 34.0574 32.9942 33.9697 32.8496 33.8119L28.2488 29.362L15.5794 41.9079L18.5452 44.8443C18.5688 44.8677 18.5895 44.8911 18.6102 44.9174C19.2328 45.715 19.8496 46.501 20.428 47.3103H20.431C21.03 48.1372 21.5789 49.002 22.0718 49.8931L22.0726 49.8932ZM27.4436 27.9826H27.4407C27.5174 27.7518 27.7033 27.5677 27.9394 27.4918L28.4116 27.0243L21.8838 20.6665L5.87958 36.6224L12.3012 42.9802L13.9272 41.3674L13.9331 41.3615L27.4404 27.9854L27.4436 27.9826ZM39.9945 68.0197C39.8469 67.8736 39.7643 67.6779 39.7613 67.4704C39.7613 67.2659 39.844 67.0672 39.9915 66.9241C40.1391 66.778 40.3368 66.6962 40.5463 66.6991C40.7529 66.6991 40.9506 66.7809 41.0982 66.9299L43.1817 68.9927H43.1787C43.5092 69.2878 43.9401 69.4514 44.3887 69.4485C44.8343 69.4514 45.2652 69.2732 45.5809 68.9605C45.879 68.6567 46.0325 68.2476 46.0088 67.8269C45.9852 67.3565 45.7875 66.9094 45.4511 66.5764L43.3912 64.5369H43.3882C43.2377 64.3937 43.1492 64.1951 43.1462 63.9876C43.1433 63.7802 43.2259 63.5786 43.3735 63.4325C43.524 63.2835 43.7247 63.2017 43.9371 63.2046C44.1467 63.2075 44.3473 63.2951 44.492 63.4471L46.5519 65.4865C46.8706 65.7758 47.2955 65.9277 47.7264 65.9043C48.1986 65.8839 48.6472 65.6881 48.9776 65.355C49.2846 65.057 49.4616 64.6509 49.4646 64.2243C49.4557 63.7948 49.2787 63.3887 48.9688 63.0907L46.9089 61.0512H46.9059C46.7525 60.9081 46.6669 60.7094 46.6639 60.5019C46.661 60.2945 46.7436 60.0929 46.8912 59.9468C47.0417 59.7978 47.2424 59.716 47.4519 59.7189C47.6644 59.7218 47.865 59.8095 48.0067 59.9614L50.0666 62.0125C50.3853 62.3018 50.8103 62.4537 51.2441 62.4303C51.7163 62.4099 52.1649 62.2141 52.4953 61.881C52.8023 61.583 52.9793 61.1769 52.9823 60.7503C52.9734 60.3237 52.7964 59.9176 52.4894 59.6225L50.3174 57.5919C50.0046 57.2997 49.9898 56.8117 50.285 56.5021C50.5771 56.1924 51.07 56.1778 51.3827 56.4699L53.5548 58.5006L53.5695 58.5122C53.8882 58.8103 54.3162 58.9651 54.7559 58.9418C55.228 58.9213 55.6736 58.7255 56.0071 58.3924C56.2963 58.112 56.4498 57.7204 56.435 57.3201C56.4055 56.8848 56.2196 56.4728 55.9068 56.1602L53.8115 54.0887V54.0916C53.5105 53.7877 53.5134 53.3027 53.8144 53.0047C54.1184 52.7037 54.6083 52.7037 54.9122 52.9988L56.9721 55.0383L57.0194 55.088V55.0909C57.5978 55.6723 57.9401 56.4437 57.9843 57.2588C58.0227 58.0857 57.7069 58.8921 57.1138 59.4764C56.5029 60.0871 55.6796 60.4494 54.809 60.4816C54.7116 60.4845 54.6142 60.4816 54.5168 60.4816C54.5257 60.5692 54.5286 60.6539 54.5286 60.7416C54.5286 61.5743 54.1922 62.372 53.599 62.9563C52.9852 63.5699 52.1618 63.9293 51.2942 63.9643H51.002C51.0108 64.052 51.0138 64.1367 51.0138 64.2244C51.0138 65.0542 50.6803 65.8518 50.0871 66.4362C49.4762 67.0497 48.6529 67.4091 47.7823 67.4442H47.5344C47.6702 68.3909 47.3573 69.3492 46.6874 70.0388C46.0825 70.6465 45.2562 70.9854 44.3944 70.9884C43.5533 70.9913 42.7388 70.6816 42.1191 70.1176C42.0984 70.1001 42.0778 70.0826 42.0571 70.0621L39.9972 68.0198L39.9945 68.0197ZM29.4177 65.396C29.4325 65.3814 29.4472 65.3697 29.462 65.358L33.5817 61.4544C33.5994 61.4369 33.6171 61.4194 33.6348 61.4048L34.9628 60.1484V60.1455C35.1576 59.8211 35.2373 59.4442 35.19 59.0702C35.1487 58.6495 34.9657 58.2551 34.6706 57.9483C34.3962 57.6707 34.0362 57.4983 33.6495 57.4574C33.2806 57.4194 32.9118 57.5012 32.596 57.6882L27.1129 63.0147C26.7853 63.3361 26.5935 63.7685 26.5758 64.2272C26.561 64.6479 26.7233 65.057 27.0214 65.3579C27.6765 66.0212 28.7448 66.0358 29.4206 65.3959L29.4177 65.396ZM30.5332 66.4653L34.6235 62.591C34.9422 62.4011 35.3141 62.3193 35.6829 62.3631C36.0813 62.407 36.4502 62.5852 36.7306 62.8657C37.2883 63.4267 37.3828 64.2945 36.9578 64.9577L32.9325 69.0014H32.9295C32.2567 69.6384 31.1884 69.6179 30.5362 68.9605C30.2086 68.6245 30.0286 68.1775 30.0286 67.71C30.0197 67.2571 30.1909 66.8188 30.5096 66.4916L30.5332 66.4653ZM36.3115 60.9168C36.6686 60.3091 36.8161 59.605 36.7335 58.9066C36.6538 58.1412 36.3174 57.4224 35.7774 56.8672C35.2845 56.3705 34.6441 56.0461 33.9506 55.941C34.1011 55.5027 34.1601 55.0382 34.1277 54.5765C34.0834 53.8169 33.7647 53.0951 33.2305 52.5459C32.6757 51.9995 31.9498 51.6577 31.1706 51.5729C30.4004 51.4794 29.6183 51.6547 28.9632 52.0667C28.9189 52.0959 28.8776 52.1281 28.8422 52.1631L28.2579 52.7417C28.1221 52.169 27.827 51.646 27.4109 51.2253C26.8797 50.6935 26.1744 50.3692 25.4189 50.3136C24.6752 50.2552 23.9345 50.4393 23.3059 50.8366C23.2469 50.8688 23.1937 50.9097 23.1465 50.9535C21.7684 52.28 20.3784 53.5978 19.009 54.9301V54.933C18.0883 55.8505 17.808 57.2266 18.3037 58.4275C18.7966 59.6254 19.9681 60.4173 21.2755 60.4348C21.3758 60.4348 21.4732 60.4318 21.5706 60.426C21.5647 60.5136 21.5618 60.6013 21.5618 60.6919C21.5765 62.4567 23.0078 63.8883 24.7902 63.9175C24.8699 63.9175 24.9525 63.9175 25.0322 63.9117C25.0204 64.0023 25.0145 64.0899 25.0116 64.1805H25.0145C24.988 65.022 25.3126 65.8401 25.9117 66.4361C26.5137 67.0438 27.3341 67.3915 28.1928 67.4003C28.2932 67.4003 28.3935 67.4003 28.4909 67.3916C28.4821 67.4997 28.4761 67.6078 28.4761 67.7159C28.4791 68.5837 28.8185 69.4134 29.4264 70.0358C30.6807 71.2951 32.7228 71.3244 34.0124 70.103L38.1174 65.9775C38.1499 65.9453 38.1794 65.9103 38.2059 65.8723C39.0825 64.5984 38.929 62.8891 37.8371 61.7876C37.418 61.364 36.8898 61.063 36.3114 60.914L36.3115 60.9168ZM26.0271 61.9161C25.3513 62.5559 24.28 62.5384 23.6278 61.8781C23.3062 61.5625 23.1261 61.1359 23.1202 60.6889C23.1173 60.2536 23.2914 59.8358 23.6013 59.529L29.8842 53.3085L29.8812 53.3114C30.2206 53.1273 30.6131 53.0543 30.9968 53.104C31.4217 53.1478 31.8201 53.3319 32.127 53.627C32.3986 53.9162 32.5609 54.2902 32.5786 54.6847C32.611 55.085 32.5136 55.4823 32.3012 55.8241L26.0242 61.919L26.0271 61.9161ZM22.5123 58.4303L22.5064 58.4362C21.8306 59.076 20.7623 59.0585 20.1072 58.3982C19.452 57.7379 19.455 56.6802 20.1131 56.0228L24.1797 52.1134C24.5161 51.9118 24.9086 51.8183 25.3011 51.8504C25.6789 51.8767 26.036 52.0374 26.3045 52.3033C26.88 52.8789 26.9596 53.7788 26.4963 54.445C26.4757 54.4771 26.455 54.5093 26.4373 54.5443L22.5094 58.4332L22.5123 58.4303ZM26.0241 61.916C26.334 61.6355 26.8121 61.6472 27.1043 61.9423C27.3994 62.2374 27.4023 62.7107 27.1131 63.0117L26.0241 61.916ZM47.7503 29.364L60.3579 41.8463L57.3359 44.844C57.2946 44.8849 57.2592 44.9288 57.2297 44.9755L54.1015 49.8549L54.072 49.9016C53.7622 50.4772 53.1926 50.8717 52.5404 50.9593C52.1686 51.0149 51.7879 50.9973 51.4249 50.9038C51.1445 50.8337 50.8878 50.6905 50.6812 50.4919L38.5519 38.2437C38.2479 37.9457 37.7551 37.9457 37.4512 38.2437L30.8436 44.7564C30.0646 45.4196 28.9018 45.3699 28.1818 44.6453C27.8394 44.3064 27.6388 43.8535 27.6269 43.3744C27.624 42.9098 27.7952 42.4627 28.1021 42.1151L36.2621 34.0361H42.6099C42.8105 34.0361 43.0053 33.9573 43.1499 33.8199L47.7507 29.3701L47.7503 29.364ZM61.4586 42.9383L58.4898 45.8777L55.4147 50.6724L55.4177 50.6694C54.8629 51.6512 53.8801 52.3232 52.7558 52.4839C52.1715 52.5686 51.5783 52.5336 51.0088 52.3846C50.4658 52.2414 49.97 51.9609 49.5716 51.5694L37.9946 39.8762L31.9301 45.8542L31.8976 45.8835C30.5017 47.1077 28.3829 47.0347 27.0755 45.7198C25.7947 44.4576 25.7387 42.4211 26.9457 41.0917C26.9693 41.0596 26.9929 41.0304 27.0224 41.0011L35.3886 32.718C35.5362 32.5749 35.7339 32.493 35.9405 32.496H42.2942L46.653 28.2769L45.9359 27.5669C45.6319 27.266 45.6319 26.778 45.9359 26.4771L53.4523 19.0353C53.7563 18.7344 54.2492 18.7344 54.5531 19.0353L71.7698 36.081C71.9174 36.2242 72 36.4199 72 36.6245C72 36.829 71.9174 37.0248 71.7698 37.1708L64.2534 44.6126C63.9494 44.9136 63.4565 44.9136 63.1526 44.6126L61.4616 42.9384L61.4586 42.9383ZM40.9102 14.7193C40.9131 15.4527 40.6298 16.1569 40.1163 16.6828L40.078 16.7178C39.5438 17.2467 38.8208 17.5447 38.0623 17.5447C37.3069 17.5447 36.5839 17.2467 36.0467 16.7178C35.3739 16.0517 35.0817 15.0962 35.2677 14.1701C35.4536 13.2468 36.091 12.4725 36.9734 12.1131C37.8528 11.7508 38.8562 11.8502 39.6471 12.3732C40.438 12.8962 40.9161 13.7785 40.9161 14.7193L40.9102 14.7193ZM41.1758 11.6339C42.8815 13.3198 42.8992 16.0487 41.2201 17.758L41.1758 17.8047C39.4553 19.5081 36.6665 19.5081 34.9431 17.8047C33.2432 16.0984 33.255 13.3519 34.9667 11.6572C36.6812 9.96262 39.4523 9.95387 41.1758 11.6368L41.1758 11.6339Z" fill="black"/>
</g>
</svg>
