<svg width="76" height="76" viewBox="0 0 76 76" fill="none" xmlns="http://www.w3.org/2000/svg">
<mask id="mask0_7039_55732" style="mask-type:alpha" maskUnits="userSpaceOnUse" x="-1" y="-1" width="78" height="78">
<rect width="76" height="76" fill="white" stroke="white" stroke-width="2"/>
</mask>
<g mask="url(#mask0_7039_55732)">
<path d="M32.9323 47.4368V62.6161C32.9323 64.4833 31.4152 66.0004 29.548 66.0004H15.2689C12.9016 66.0004 10.9844 64.0832 10.9844 61.7158V47.4368C10.9844 45.5696 12.5015 44.0525 14.3687 44.0525H29.548C31.4152 44.0525 32.9323 45.5696 32.9323 47.4368Z" stroke="black" stroke-width="2.50071" stroke-miterlimit="10" stroke-linecap="round"/>
<path d="M32.9323 47.4368V62.6161C32.9323 64.4833 31.4152 66.0004 29.548 66.0004H15.2689C12.9016 66.0004 10.9844 64.0832 10.9844 61.7158V47.4368C10.9844 45.5696 12.5015 44.0525 14.3687 44.0525H29.548C31.4152 44.0525 32.9323 45.5696 32.9323 47.4368Z" stroke="black" stroke-width="2.50071" stroke-miterlimit="10" stroke-linecap="round"/>
<path d="M32.9323 47.4368V62.6161C32.9323 64.4833 31.4152 66.0004 29.548 66.0004H15.2689C12.9016 66.0004 10.9844 64.0832 10.9844 61.7158V47.4368C10.9844 45.5696 12.5015 44.0525 14.3687 44.0525H29.548C31.4152 44.0525 32.9323 45.5696 32.9323 47.4368Z" stroke="black" stroke-width="2.50071" stroke-miterlimit="10" stroke-linecap="round"/>
<path d="M10.9844 38.1342V15.2694C10.9844 12.9021 12.9016 10.9849 15.2689 10.9849H61.7154C64.0828 10.9849 66 12.9021 66 15.2694V61.7159C66 64.0833 64.0828 66.0005 61.7154 66.0005H38.8506" stroke="black" stroke-width="2.50071" stroke-miterlimit="10" stroke-linecap="round"/>
<path d="M37.1682 37.599C36.6748 38.0821 36.6664 38.8738 37.1495 39.3672C37.6326 39.8606 38.4243 39.869 38.9177 39.3859L37.1682 37.599ZM53.2305 24.8601C53.2379 24.1696 52.684 23.6039 51.9935 23.5966L40.7409 23.4776C40.0504 23.4703 39.4847 24.0242 39.4774 24.7147C39.4701 25.4052 40.024 25.9709 40.7145 25.9782L50.7168 26.084L50.611 36.0863C50.6037 36.7768 51.1575 37.3425 51.848 37.3498C52.5385 37.3571 53.1042 36.8032 53.1115 36.1127L53.2305 24.8601ZM38.9177 39.3859L52.855 25.7404L51.1055 23.9535L37.1682 37.599L38.9177 39.3859Z" fill="black"/>
</g>
</svg>
