<svg width="76" height="76" viewBox="0 0 76 76" fill="none" xmlns="http://www.w3.org/2000/svg">
<mask id="mask0_7039_55800" style="mask-type:alpha" maskUnits="userSpaceOnUse" x="-1" y="-1" width="78" height="78">
<rect width="76" height="76" fill="white" stroke="white" stroke-width="2"/>
</mask>
<g mask="url(#mask0_7039_55800)">
<path d="M20.7941 32.1154C20.4121 32.2688 20.0791 32.5232 19.8309 32.8515C19.5826 33.1798 19.4285 33.5695 19.385 33.9788C19.3311 34.5288 19.3047 35.125 19.3047 35.785C19.3047 36.4449 19.3311 37.0411 19.3839 37.579C19.426 37.991 19.5799 38.3836 19.829 38.7143C20.0782 39.0451 20.413 39.3014 20.7974 39.4556L23.4714 40.5237C23.8393 41.827 24.3599 43.0824 25.0224 44.2636L23.8916 46.9101C23.7226 47.2888 23.6632 47.7073 23.7204 48.1181C23.7776 48.5288 23.949 48.9152 24.215 49.2333C24.5527 49.6436 24.9355 50.0627 25.4338 50.572C25.9266 51.0538 26.3456 51.4366 26.7427 51.7632C27.0617 52.0315 27.4497 52.2048 27.8625 52.2631C28.2752 52.3215 28.696 52.2626 29.0769 52.0932L31.7344 50.9647C32.9157 51.6271 34.171 52.1477 35.4744 52.5156L36.5435 55.193C36.6969 55.5749 36.9514 55.9079 37.2796 56.1562C37.6079 56.4044 37.9976 56.5586 38.4069 56.602C38.9569 56.6559 39.5476 56.6823 40.2131 56.6823C40.8786 56.6823 41.4692 56.6559 42.0071 56.6031C42.4191 56.5611 42.8117 56.4071 43.1425 56.158C43.4732 55.9089 43.7296 55.574 43.8837 55.1897L44.9518 52.5156C46.2551 52.1477 47.5105 51.6271 48.6917 50.9647L51.3415 52.0954C51.7203 52.2641 52.1387 52.3232 52.5494 52.266C52.96 52.2089 53.3464 52.0377 53.6647 51.772C54.075 51.4344 54.4941 51.0516 55.0034 50.5533C55.4852 50.0605 55.868 49.6414 56.1947 49.2443C56.4633 48.9255 56.6367 48.5375 56.6951 48.1246C56.7535 47.7118 56.6944 47.2909 56.5246 46.9101L55.384 44.2603C56.0464 43.0791 56.567 41.8237 56.9349 40.5204L59.6123 39.4512C59.9942 39.2978 60.3272 39.0434 60.5755 38.7151C60.8237 38.3868 60.9779 37.9971 61.0214 37.5878C61.0753 37.0378 61.1017 36.4471 61.1017 35.7817C61.1017 35.1162 61.0753 34.5255 61.0225 33.9876C60.9804 33.5756 60.8265 33.183 60.5773 32.8523C60.3282 32.5215 59.9933 32.2652 59.609 32.111L56.9349 31.043C56.567 29.7396 56.0464 28.4843 55.384 27.303L56.5147 24.6532C56.6838 24.2745 56.7431 23.856 56.6859 23.4453C56.6287 23.0345 56.4574 22.6481 56.1914 22.33C55.8537 21.9197 55.4709 21.5006 54.9726 20.9914C54.4798 20.5096 54.0607 20.1268 53.6636 19.8001C53.3449 19.5313 52.9568 19.3578 52.544 19.2994C52.1311 19.2411 51.7102 19.3002 51.3294 19.4701L48.6796 20.6053C47.4984 19.9428 46.243 19.4222 44.9397 19.0543L43.8705 16.3769C43.7172 15.995 43.4627 15.662 43.1344 15.4138C42.8061 15.1655 42.4164 15.0114 42.0071 14.9679C40.8094 14.8623 39.6047 14.8623 38.4069 14.9679C37.995 15.0099 37.6023 15.1639 37.2716 15.413C36.9408 15.6621 36.6845 15.997 36.5303 16.3813L35.4623 19.0554C34.1589 19.4233 32.9036 19.9439 31.7223 20.6064L29.0791 19.4723C28.7004 19.3034 28.2819 19.2441 27.8712 19.3013C27.4605 19.3585 27.0741 19.5298 26.7559 19.7957C26.3456 20.1334 25.9266 20.5162 25.4173 21.0145C24.9355 21.5072 24.5527 21.9263 24.226 22.3234C23.9573 22.6422 23.7839 23.0303 23.7255 23.4431C23.6672 23.8559 23.7262 24.2768 23.896 24.6576L25.0246 27.3151C24.3621 28.4964 23.8415 29.7517 23.4736 31.0551L20.7941 32.1154ZM25.4613 32.1264C25.8248 30.656 26.4085 29.249 27.1926 27.9531C27.2826 27.8039 27.3357 27.6354 27.3478 27.4615C27.3598 27.2877 27.3304 27.1135 27.2619 26.9532L25.9101 23.738C26.2477 23.3288 26.6151 22.9361 26.9726 22.5698C27.3581 22.1804 27.7729 21.8211 28.2134 21.4951L31.3725 22.8426C31.5329 22.9106 31.707 22.9397 31.8808 22.9277C32.0545 22.9156 32.223 22.8627 32.3724 22.7733C33.6685 21.9904 35.0755 21.4078 36.5457 21.0453C36.7154 21.0034 36.8727 20.9216 37.0045 20.8069C37.1363 20.6921 37.2388 20.5476 37.3036 20.3853L38.6159 17.1579C39.6852 17.0377 40.7653 17.0514 41.8311 17.1986L43.1049 20.3853C43.1697 20.5476 43.2723 20.6921 43.4041 20.8069C43.5359 20.9216 43.6931 21.0034 43.8628 21.0453C45.3332 21.4088 46.7402 21.9925 48.0361 22.7766C48.1856 22.866 48.354 22.9189 48.5278 22.931C48.7015 22.943 48.8756 22.9139 49.036 22.8459L52.2512 21.494C52.6604 21.8328 53.0531 22.1991 53.4194 22.5566C53.8091 22.9418 54.1684 23.3567 54.4941 23.7974L53.1466 26.9565C53.0781 27.1168 53.0487 27.291 53.0608 27.4648C53.0728 27.6387 53.126 27.8072 53.2159 27.9564C53.9986 29.2515 54.5812 30.6574 54.944 32.1264C54.9859 32.2961 55.0676 32.4534 55.1824 32.5852C55.2971 32.717 55.4417 32.8195 55.604 32.8843L58.8313 34.1966C58.8775 34.6718 58.9006 35.1866 58.9006 35.785C58.91 36.3294 58.8732 36.8736 58.7906 37.4118L55.604 38.6856C55.4417 38.7504 55.2971 38.853 55.1824 38.9848C55.0676 39.1166 54.9859 39.2738 54.944 39.4435C54.5804 40.9139 53.9967 42.3209 53.2126 43.6168C53.1227 43.7661 53.0695 43.9346 53.0575 44.1084C53.0454 44.2822 53.0748 44.4564 53.1433 44.6167L54.504 47.8319C54.1663 48.2411 53.7989 48.6338 53.4414 49.0001C53.0562 49.3898 52.6414 49.7491 52.2006 50.0748L49.0415 48.7273C48.8813 48.6588 48.707 48.6294 48.5332 48.6415C48.3594 48.6535 48.1909 48.7067 48.0416 48.7966C46.7438 49.5801 45.3349 50.1627 43.8628 50.5247C43.6931 50.5666 43.5359 50.6483 43.4041 50.763C43.2723 50.8778 43.1697 51.0223 43.1049 51.1847L41.7926 54.412C40.7234 54.5322 39.6433 54.5185 38.5774 54.3713L37.3036 51.1847C37.2388 51.0223 37.1363 50.8778 37.0045 50.763C36.8727 50.6483 36.7154 50.5666 36.5457 50.5247C35.0753 50.1611 33.6683 49.5774 32.3724 48.7933C32.2007 48.6901 32.0041 48.6357 31.8037 48.636C31.6555 48.6358 31.5088 48.6657 31.3725 48.724L28.1573 50.0847C27.7481 49.747 27.3554 49.3796 26.9891 49.0221C26.5994 48.6369 26.2401 48.2221 25.9145 47.7813L27.2619 44.6222C27.3304 44.4619 27.3598 44.2877 27.3478 44.1139C27.3357 43.9401 27.2826 43.7716 27.1926 43.6223C26.4092 42.3245 25.8265 40.9156 25.4646 39.4435C25.4227 39.2738 25.341 39.1166 25.2262 38.9848C25.1114 38.853 24.9669 38.7504 24.8046 38.6856L21.5772 37.3733C21.5277 36.8981 21.5046 36.3778 21.5046 35.785C21.4953 35.2405 21.5321 34.6963 21.6146 34.1581L24.8046 32.8843C24.9669 32.8195 25.1114 32.717 25.2262 32.5852C25.341 32.4534 25.4227 32.2961 25.4646 32.1264H25.4613Z" fill="black"/>
<path d="M40.1685 48.9844C42.7792 48.9844 45.3312 48.2103 47.5019 46.7599C49.6726 45.3095 51.3644 43.248 52.3635 40.836C53.3625 38.4241 53.6239 35.7701 53.1146 33.2096C52.6053 30.6491 51.3481 28.2971 49.5021 26.4511C47.6561 24.6051 45.3041 23.3479 42.7436 22.8386C40.1831 22.3293 37.5291 22.5907 35.1172 23.5897C32.7052 24.5888 30.6437 26.2806 29.1933 28.4513C27.7429 30.622 26.9688 33.174 26.9688 35.7847C26.9725 39.2843 28.3644 42.6395 30.839 45.1141C33.3137 47.5888 36.6689 48.9807 40.1685 48.9844ZM40.1685 24.7849C42.344 24.7849 44.4707 25.43 46.2796 26.6387C48.0885 27.8474 49.4984 29.5653 50.331 31.5753C51.1635 33.5852 51.3813 35.7969 50.9569 37.9307C50.5325 40.0644 49.4849 42.0244 47.9465 43.5627C46.4082 45.1011 44.4482 46.1487 42.3144 46.5731C40.1807 46.9976 37.969 46.7797 35.9591 45.9472C33.9491 45.1146 32.2312 43.7048 31.0225 41.8959C29.8138 40.087 29.1687 37.9603 29.1687 35.7847C29.1722 32.8685 30.3322 30.0726 32.3943 28.0105C34.4564 25.9484 37.2522 24.7884 40.1685 24.7849Z" fill="black"/>
<path d="M40.1686 43.4849C41.6915 43.4849 43.1802 43.0333 44.4464 42.1872C45.7126 41.3412 46.6995 40.1386 47.2823 38.7317C47.8651 37.3247 48.0176 35.7765 47.7205 34.2829C47.4234 32.7893 46.6901 31.4173 45.6132 30.3404C44.5364 29.2636 43.1644 28.5303 41.6708 28.2332C40.1771 27.9361 38.629 28.0885 37.222 28.6713C35.815 29.2541 34.6125 30.241 33.7664 31.5072C32.9203 32.7735 32.4687 34.2622 32.4688 35.7851C32.4714 37.8264 33.2834 39.7833 34.7269 41.2268C36.1703 42.6702 38.1273 43.4823 40.1686 43.4849ZM40.1686 30.2852C41.2564 30.2852 42.3197 30.6077 43.2242 31.2121C44.1286 31.8164 44.8336 32.6754 45.2498 33.6803C45.6661 34.6853 45.775 35.7912 45.5628 36.858C45.3506 37.9249 44.8268 38.9049 44.0576 39.6741C43.2884 40.4432 42.3084 40.9671 41.2416 41.1793C40.1747 41.3915 39.0689 41.2826 38.0639 40.8663C37.0589 40.45 36.1999 39.7451 35.5956 38.8406C34.9913 37.9362 34.6687 36.8728 34.6687 35.7851C34.6705 34.3269 35.2505 32.929 36.2815 31.898C37.3126 30.8669 38.7105 30.2869 40.1686 30.2852Z" fill="black"/>
<path d="M71.0012 35.7852C70.9176 27.7105 67.6662 19.9916 61.947 14.2907C56.2278 8.58987 48.4985 5.36316 40.4235 5.30547C32.3486 5.24779 24.5739 8.36373 18.7739 13.9823C12.9739 19.6008 9.61242 27.2725 9.41346 35.3452L6.88351 32.8153C6.78418 32.7034 6.66306 32.613 6.52757 32.5495C6.39208 32.486 6.24507 32.4508 6.09552 32.4461C5.94597 32.4414 5.79704 32.4673 5.65782 32.5221C5.51861 32.5769 5.39205 32.6596 5.28587 32.765C5.1797 32.8704 5.09615 32.9964 5.04034 33.1352C4.98452 33.2741 4.95762 33.4228 4.96126 33.5724C4.96491 33.722 4.99904 33.8692 5.06155 34.0052C5.12407 34.1411 5.21366 34.2628 5.32484 34.363L9.72475 38.7629C9.93103 38.9691 10.2108 39.0849 10.5024 39.0849C10.7941 39.0849 11.0738 38.9691 11.2801 38.7629L15.68 34.363C15.8804 34.1555 15.9913 33.8777 15.9888 33.5892C15.9863 33.3008 15.8706 33.0249 15.6666 32.821C15.4627 32.6171 15.1868 32.5014 14.8984 32.4989C14.61 32.4964 14.3321 32.6072 14.1247 32.8076L11.6145 35.3177C11.7451 28.1887 14.5391 21.3666 19.4468 16.194C24.3544 11.0214 31.0202 7.8728 38.1326 7.36782C45.245 6.86284 52.2888 9.03804 57.878 13.4654C63.4672 17.8927 67.1971 24.2516 68.3336 31.2907C69.4702 38.3298 67.9311 45.5394 64.0192 51.5008C60.1074 57.4622 54.1061 61.7437 47.1962 63.5027C40.2863 65.2618 32.9683 64.3711 26.6821 61.0058C20.3959 57.6405 15.5969 52.0445 13.2293 45.3187C13.1263 45.0516 12.9232 44.8351 12.6631 44.7154C12.403 44.5956 12.1065 44.5819 11.8365 44.6773C11.5665 44.7727 11.3444 44.9696 11.2173 45.2262C11.0902 45.4827 11.0681 45.7788 11.1558 46.0513C12.6236 50.1875 14.9575 53.9627 18.0015 57.1243C21.0456 60.286 24.7296 62.7613 28.8072 64.3847H6.10253C5.81079 64.3847 5.53101 64.5006 5.32472 64.7068C5.11844 64.9131 5.00255 65.1929 5.00255 65.4846C5.00255 65.7764 5.11844 66.0562 5.32472 66.2625C5.53101 66.4687 5.81079 66.5846 6.10253 66.5846H67.2459L64.7237 69.1069C64.6186 69.2083 64.5348 69.3297 64.4772 69.4639C64.4195 69.5981 64.3892 69.7425 64.3879 69.8885C64.3866 70.0346 64.4145 70.1794 64.4698 70.3146C64.5251 70.4498 64.6067 70.5726 64.71 70.6759C64.8133 70.7792 64.9361 70.8608 65.0713 70.9161C65.2065 70.9715 65.3513 70.9993 65.4974 70.998C65.6434 70.9967 65.7878 70.9664 65.922 70.9088C66.0562 70.8511 66.1776 70.7673 66.279 70.6622L70.6789 66.2623C70.8852 66.0561 71.001 65.7763 71.001 65.4846C71.001 65.193 70.8852 64.9132 70.6789 64.707L66.279 60.3071C66.0716 60.1067 65.7937 59.9958 65.5053 59.9983C65.2169 60.0008 64.941 60.1165 64.7371 60.3204C64.5331 60.5244 64.4174 60.8003 64.4149 61.0887C64.4124 61.3771 64.5233 61.655 64.7237 61.8624L67.2459 64.3847H51.6108C57.3288 62.0983 62.2314 58.1524 65.6872 53.0554C69.143 47.9583 70.9938 41.9434 71.0012 35.7852Z" fill="black"/>
</g>
</svg>
