<svg width="76" height="76" viewBox="0 0 76 76" fill="none" xmlns="http://www.w3.org/2000/svg">
<mask id="mask0_7039_55547" style="mask-type:alpha" maskUnits="userSpaceOnUse" x="-1" y="-1" width="78" height="78">
<rect width="76" height="76" fill="white" stroke="white" stroke-width="2"/>
</mask>
<g mask="url(#mask0_7039_55547)">
<path d="M19.1639 12.7662C19.4281 13.1246 19.9658 13.1246 20.2299 12.7662L22.5506 10.4462C22.8148 10.1821 23.3525 10.3613 23.3525 10.7102L22.3714 22.7536C22.2865 23.1968 22.2865 23.376 21.8337 23.376L9.71133 24.3568C9.25851 24.4511 9.0887 23.9136 9.43775 23.5552L11.7584 21.2352C12.1169 20.9711 12.1169 20.4336 11.7584 20.1695L7.91892 16.2462C7.47553 15.8878 7.47553 15.1805 7.83401 14.7278L13.6358 8.92778C14.0791 8.48453 14.7961 8.48453 15.2395 8.92778L19.1639 12.7662ZM11.7584 57.8933C12.0226 57.5349 12.0226 57.0917 11.7584 56.7333L9.43775 54.4133C9.1736 54.1492 9.25851 53.6117 9.70189 53.6117L21.7488 54.5925C22.1922 54.6774 22.2865 54.7717 22.3714 55.2149L23.3525 67.2583C23.3525 67.7015 22.9091 67.8807 22.5506 67.5223L20.2299 65.2023C19.9658 64.9382 19.4281 64.9382 19.1639 65.2023L15.2395 69.1256C14.7961 69.484 14.1735 69.5688 13.7207 69.1256L7.92835 63.335C7.48496 62.8917 7.48496 62.175 7.92835 61.7317L11.7584 57.8933ZM51.8141 57.6293C47.7953 60.6566 42.9841 62.175 37.9842 62.175C32.9844 62.175 28.1732 60.6566 24.1544 57.6293L23.8902 55.0357C23.8902 53.8757 22.994 53.159 21.928 53.0741L19.3432 52.8949C16.3998 48.8773 14.7961 43.9732 14.7961 38.9843C14.7961 33.9953 16.3998 29.1761 19.3432 25.1585L21.928 24.9793C23.0884 24.8944 23.8053 24.0833 23.8902 22.9328L24.1544 20.3487C28.1732 17.4062 32.9844 15.803 37.9842 15.803C42.9841 15.803 47.7953 17.4062 51.8141 20.3487L52.0783 22.9328C52.1632 24.0928 52.9745 24.8944 54.0405 24.9793L56.6253 25.1585C59.5686 29.1761 61.1724 33.9858 61.1724 38.9843C61.1724 43.9827 59.5686 48.8868 56.6253 52.8949L54.0405 53.0741C52.8801 53.159 52.1632 53.97 52.0783 55.1206L51.8141 57.6293ZM56.8989 65.2023C56.5404 64.9382 56.097 64.9382 55.7385 65.2023L53.4178 67.5223C53.1537 67.7864 52.616 67.7015 52.616 67.3431L53.5971 55.2149C53.682 54.8566 53.682 54.6774 54.2197 54.6774L66.2666 53.6117C66.71 53.6117 66.8892 54.0549 66.5307 54.4133L64.21 56.7333C63.9459 57.0917 63.9459 57.5349 64.21 57.8933L68.0496 61.7317C68.493 62.175 68.493 62.8917 68.1345 63.335L62.3327 69.135C61.8893 69.5783 61.1724 69.5783 60.729 69.135L56.8989 65.2023ZM51.3707 14.907L51.7292 18.387C47.6255 15.6238 42.8992 14.1997 37.9937 14.1997C33.0881 14.1997 28.3618 15.6238 24.3431 18.387L24.6072 14.907C28.7109 12.587 33.3523 11.427 37.9842 11.427C42.6256 11.427 47.267 12.587 51.3707 14.907ZM24.6072 63.1558L24.3431 59.6758C28.3618 62.3542 33.0881 63.7782 37.9937 63.7782C42.8992 63.7782 47.6255 62.3542 51.6443 59.6758L51.3802 63.1558C47.2765 65.4758 42.6351 66.6358 38.0031 66.6358C33.3523 66.6358 28.7109 65.4758 24.6072 63.1558ZM62.1629 52.3668L58.6819 52.7252C61.3611 48.6227 62.7855 43.8978 62.7855 38.9937C62.7855 34.0896 61.3611 29.3647 58.6819 25.3471L62.1629 25.6111C64.3893 29.7136 65.5496 34.3536 65.5496 38.9843C65.5496 43.6243 64.3893 48.2643 62.1629 52.3668ZM13.815 52.3668C11.5886 48.2643 10.4283 43.6243 10.4283 38.9937C10.4283 34.3537 11.5886 29.723 13.815 25.6206L17.2961 25.3565C14.6169 29.3741 13.1924 34.099 13.1924 39.0031C13.1924 43.9072 14.6169 48.6321 17.2961 52.7346L13.815 52.3668ZM12.032 25.7903C9.89057 29.8928 8.82456 34.4385 8.82456 38.9843C8.82456 43.53 9.89057 48.0757 12.032 52.2725L9.79623 52.0933C8.01325 51.9141 7.03215 54.2341 8.37174 55.5733L10.0698 57.3558L6.768 60.6566C5.78689 61.6374 5.78689 63.4199 6.768 64.4007L12.5698 70.2007C13.6358 71.1815 15.2489 71.2664 16.3149 70.2007L19.7017 66.8999L21.4846 68.6823C22.7299 69.9272 25.0506 69.0407 24.9657 67.164L24.7864 65.0231C28.8901 67.0696 33.4372 68.1448 37.9842 68.1448C42.5313 68.1448 47.0878 67.0791 51.182 65.0231L51.0028 67.164C50.9179 69.0407 53.2292 69.9272 54.4839 68.6823L56.2668 66.8999L59.6535 70.2007C60.6347 71.2664 62.4176 71.2664 63.3987 70.2007L69.2005 64.4007C70.1816 63.335 70.2665 61.7223 69.2005 60.6566L65.8987 57.3558L67.6817 55.5733C68.9269 54.2341 68.0401 51.9141 66.1628 52.0933L64.0214 52.2725C66.0685 48.0851 67.1439 43.53 67.1439 38.9843C67.1439 34.4385 66.0779 29.8834 64.0214 25.7903L66.1628 25.9695C68.0401 26.1487 68.9269 23.7438 67.6817 22.4895L65.8987 20.7071L69.2005 17.4062C70.2665 16.3405 70.2665 14.6429 69.2005 13.5678L63.3987 7.76777C62.3327 6.78695 60.7196 6.70208 59.6535 7.76777L56.2668 11.1535L54.5688 9.37104C53.2292 8.03184 50.9085 9.01266 51.0877 10.8894L51.267 13.0302C47.0784 10.8894 42.5219 9.82372 37.9748 9.82372C33.4277 9.82372 28.8713 10.8894 24.777 13.0302L24.9563 10.8045C25.0412 9.02209 22.7299 8.04127 21.4752 9.38047L19.7017 11.1629L16.3998 7.7772C15.3338 6.79639 13.5414 6.79639 12.5603 7.7772L6.768 13.5678C5.78689 14.7278 5.70199 16.2462 6.768 17.4062L10.0698 20.7071L8.37174 22.4895C7.03215 23.7344 7.92835 26.1487 9.79623 25.9695L12.032 25.7903ZM37.9842 27.1295C40.4842 27.1295 42.5313 29.1761 42.5313 31.6753C42.5313 34.1745 40.4842 36.221 37.9842 36.221C35.4843 36.221 33.4372 34.1745 33.4372 31.6753C33.4372 29.1761 35.4843 27.1295 37.9842 27.1295ZM37.9842 25.5168C34.5975 25.5168 31.8334 28.2801 31.8334 31.6658C31.8334 35.0515 34.5975 37.8148 37.9842 37.8148C41.371 37.8148 44.0501 35.0515 44.0501 31.6658C44.0501 28.2895 41.3804 25.5168 37.9842 25.5168ZM28.6165 43.0867C26.2109 47.01 28.975 50.5749 33.5221 50.5749H42.4464C46.9086 50.5749 49.7576 47.0949 47.3519 43.0867C43.8709 37.4659 32.1919 37.4659 28.6165 43.0867ZM37.9842 23.2063C46.7293 23.2063 53.7763 30.2512 53.7763 38.9937C53.7763 47.7362 46.7293 54.866 37.9842 54.866C29.2392 54.866 22.1922 47.7362 22.1922 38.9937C22.1922 30.2512 29.2486 23.2063 37.9842 23.2063ZM37.9842 21.5936C28.3524 21.5936 20.5884 29.4401 20.5884 38.9843C20.5884 48.6133 28.3524 56.3749 37.9842 56.3749C47.6161 56.3749 55.3801 48.6133 55.3801 38.9843C55.3801 29.4401 47.6161 21.5936 37.9842 21.5936ZM29.9561 43.8883C32.8995 39.2483 43.1539 39.2483 46.0124 43.8883C47.7953 46.8308 45.6539 48.9716 42.4464 48.9716H33.5221C30.3146 48.9716 28.1732 46.8308 29.9561 43.8883ZM64.21 20.1695C63.9459 20.4336 63.9459 20.9711 64.21 21.2352L66.5307 23.5552C66.7949 23.8193 66.71 24.4511 66.2666 24.3568L54.2197 23.376C53.7763 23.376 53.682 23.2911 53.5971 22.8384L52.616 10.7197C52.616 10.3613 53.0594 10.1821 53.4178 10.4556L55.7385 12.7756C56.097 13.134 56.5404 13.134 56.8989 12.7756L60.7384 8.93721C61.1818 8.49396 61.8988 8.49396 62.2573 8.85233L68.1439 14.7373C68.5024 15.0956 68.5024 15.803 68.1439 16.2556L64.21 20.1695Z" fill="black"/>
</g>
</svg>
