<svg width="56" height="54" viewBox="0 0 56 54" fill="none" xmlns="http://www.w3.org/2000/svg">
<mask id="mask0_7200_56899" style="mask-type:alpha" maskUnits="userSpaceOnUse" x="0" y="0" width="56" height="53">
<rect width="56" height="53" fill="#D9D9D9"/>
</mask>
<g mask="url(#mask0_7200_56899)">
</g>
<path d="M36.886 50.625C36.3743 50.6248 35.8666 50.5352 35.3858 50.3601L7.29734 40.1625C6.75135 39.9645 6.24977 39.6607 5.82134 39.2686C5.3929 38.8765 5.04601 38.4037 4.80054 37.8774C4.55508 37.351 4.41584 36.7814 4.39082 36.2011C4.3658 35.6209 4.45547 35.0414 4.65472 34.4959L14.962 6.27581C15.3648 5.17828 16.1858 4.28489 17.2454 3.79095C18.3051 3.29702 19.5172 3.24272 20.6168 3.63994L48.7069 13.8375C49.2529 14.0355 49.7545 14.3393 50.1829 14.7314C50.6113 15.1235 50.9582 15.5963 51.2037 16.1226C51.4492 16.649 51.5884 17.2186 51.6134 17.7988C51.6384 18.3791 51.5488 18.9586 51.3495 19.5041L50.4636 21.9291C50.3472 22.2528 50.1473 22.5401 49.8841 22.7618C49.621 22.9834 49.3039 23.1316 48.9651 23.1913C48.6327 23.2543 48.2895 23.2283 47.9704 23.1159C47.6512 23.0036 47.3674 22.809 47.1476 22.5517C46.5874 21.9102 45.8952 21.3972 45.1185 21.0477C44.3418 20.6982 43.4988 20.5205 42.6471 20.5267H42.6251C41.1113 20.5014 39.6492 21.0773 38.5592 22.1281C37.4692 23.1789 36.8402 24.6189 36.81 26.1326C36.8494 27.643 37.4848 29.0764 38.5775 30.1198C39.6703 31.1632 41.1315 31.7318 42.642 31.7014H42.664C43.0446 31.7002 43.4242 31.6635 43.798 31.5917C44.1337 31.5249 44.4813 31.5499 44.8041 31.6639C45.1268 31.7779 45.4129 31.9768 45.6323 32.2397C45.8587 32.5057 46.0107 32.827 46.0726 33.1709C46.1346 33.5147 46.1043 33.8688 45.985 34.1972L41.0372 47.7444C40.7218 48.5908 40.155 49.3203 39.413 49.8352C38.671 50.3502 37.7892 50.6257 36.886 50.625ZM19.1149 4.8465C18.5109 4.84676 17.9215 5.03233 17.4263 5.37815C16.9311 5.72398 16.554 6.21341 16.3457 6.78037L6.03678 35.0089C5.9042 35.3725 5.84461 35.7587 5.86141 36.1454C5.87822 36.5321 5.97109 36.9117 6.13471 37.2624C6.29834 37.6132 6.52951 37.9282 6.815 38.1896C7.1005 38.4509 7.43471 38.6534 7.79853 38.7855L35.8887 48.9746C36.6218 49.2395 37.4301 49.2032 38.1366 48.8737C38.8431 48.5442 39.3903 47.9482 39.6585 47.2162L44.6063 33.669C44.6361 33.5853 44.6434 33.4953 44.6274 33.4079C44.6114 33.3205 44.5727 33.2389 44.5151 33.1712C44.4639 33.1077 44.3962 33.0594 44.3194 33.0317C44.2427 33.0041 44.1598 32.998 44.0798 33.0142C43.6154 33.1036 43.1436 33.1493 42.6707 33.1509H42.6437C40.7445 33.1808 38.9106 32.4582 37.5423 31.1408C36.1739 29.8233 35.3823 28.0181 35.3402 26.1191C35.3682 24.2144 36.1506 22.3985 37.5156 21.0699C38.8807 19.7412 40.717 19.0082 42.6218 19.0316H42.6488C43.7129 19.0264 44.7656 19.2511 45.7349 19.6903C46.7041 20.1295 47.5671 20.7729 48.2648 21.5764C48.3179 21.6383 48.3865 21.6849 48.4636 21.7116C48.5407 21.7383 48.6235 21.744 48.7035 21.7282C48.7894 21.7136 48.8699 21.6763 48.9366 21.6202C49.0033 21.5642 49.0539 21.4914 49.0832 21.4093L49.9691 18.9861C50.102 18.6223 50.1618 18.236 50.1451 17.8491C50.1284 17.4622 50.0356 17.0824 49.872 16.7315C49.7083 16.3805 49.4771 16.0653 49.1914 15.8038C48.9058 15.5424 48.5714 15.3398 48.2074 15.2077L20.1156 5.02369C19.7949 4.90674 19.4562 4.84678 19.1149 4.8465Z" fill="black"/>
<path d="M42.6439 29.5313C41.7329 29.5328 40.8586 29.1724 40.2134 28.5294C39.5681 27.8863 39.2047 27.0133 39.2031 26.1023C39.2016 25.1913 39.562 24.317 40.205 23.6717C40.8481 23.0264 41.7211 22.663 42.6321 22.6614C43.0836 22.6566 43.5314 22.7424 43.949 22.9137C44.3667 23.085 44.7458 23.3383 45.0638 23.6588C45.5455 24.1376 45.8745 24.7485 46.0092 25.4142C46.1439 26.0799 46.0783 26.7706 45.8206 27.3991C45.5629 28.0275 45.1247 28.5655 44.5614 28.945C43.9981 29.3245 43.335 29.5285 42.6558 29.5313H42.6439ZM42.6439 24.3793C42.1979 24.3933 41.7748 24.5803 41.4642 24.9008C41.1536 25.2213 40.9799 25.6501 40.9799 26.0964C40.9799 26.5426 41.1536 26.9714 41.4642 27.2919C41.7748 27.6124 42.1979 27.7994 42.6439 27.8134C43.09 27.7994 43.5131 27.6124 43.8237 27.2919C44.1343 26.9714 44.308 26.5426 44.308 26.0964C44.308 25.6501 44.1343 25.2213 43.8237 24.9008C43.5131 24.5803 43.09 24.3933 42.6439 24.3793Z" fill="black"/>
<path d="M36.9269 49.3155C36.5781 49.3155 36.232 49.2544 35.9043 49.1349L7.68251 38.8834C6.93435 38.6093 6.32565 38.0493 5.99022 37.3266C5.6548 36.6038 5.6201 35.7774 5.89376 35.0291L16.2331 6.65381C16.507 5.90647 17.0657 5.29802 17.7871 4.96154C18.5084 4.62507 19.3336 4.58795 20.0823 4.85831L48.304 15.1099C48.6757 15.2443 49.0172 15.4506 49.309 15.7172C49.6008 15.9837 49.8372 16.3052 50.0046 16.6632C50.172 17.0212 50.2671 17.4087 50.2846 17.8035C50.302 18.1983 50.2414 18.5927 50.1063 18.9641L49.2035 21.4312C49.1705 21.5215 49.1145 21.6015 49.0409 21.6634C48.9674 21.7253 48.879 21.7668 48.7844 21.7839C48.6899 21.801 48.5925 21.793 48.502 21.7607C48.4115 21.7284 48.331 21.673 48.2686 21.6C47.5715 20.7932 46.708 20.1469 45.7373 19.7056C44.7667 19.2643 43.7121 19.0384 42.6458 19.0434C40.7434 19.0136 38.9067 19.7394 37.5386 21.0617C36.1704 22.384 35.3824 24.1948 35.3474 26.0972C35.3824 27.9995 36.1704 29.8104 37.5386 31.1327C38.9067 32.4549 40.7434 33.1807 42.6458 33.1509C43.1306 33.1511 43.6144 33.1048 44.0903 33.0126C44.1861 32.9937 44.2851 33.0007 44.3773 33.0328C44.4694 33.0648 44.5514 33.1209 44.6147 33.195C44.6781 33.2692 44.7206 33.359 44.7379 33.455C44.7552 33.551 44.7466 33.6499 44.713 33.7416L39.7535 47.3428C39.5407 47.9213 39.1557 48.4206 38.6502 48.7734C38.1448 49.1262 37.5433 49.3154 36.9269 49.3155ZM19.0563 5.29031C18.5654 5.29049 18.0864 5.44143 17.6841 5.72271C17.2817 6.004 16.9755 6.40206 16.8068 6.86306L6.46245 35.2401C6.35484 35.5352 6.30646 35.8487 6.32006 36.1626C6.33367 36.4765 6.40899 36.7846 6.54173 37.0693C6.67447 37.3541 6.86202 37.6099 7.09366 37.8221C7.32531 38.0344 7.59651 38.1989 7.89176 38.3062L36.1135 48.5578C36.7095 48.7737 37.3667 48.7444 37.9412 48.4765C38.5156 48.2086 38.9604 47.7238 39.178 47.1285L44.1005 33.6285C43.621 33.7149 43.1347 33.7584 42.6475 33.7584C40.5824 33.7882 38.5898 32.9979 37.1065 31.5608C35.6233 30.1237 34.7703 28.1571 34.7348 26.0921C34.7708 24.0274 35.6239 22.0612 37.1071 20.6245C38.5904 19.1878 40.5827 18.3977 42.6475 18.4275C43.7841 18.4227 44.9086 18.6601 45.9462 19.1239C46.9838 19.5877 47.9107 20.2673 48.6651 21.1174L49.5258 18.7549C49.7414 18.1592 49.7119 17.5022 49.4436 16.9283C49.1753 16.3543 48.6902 15.9103 48.0948 15.6937L19.873 5.43375C19.6112 5.33853 19.3348 5.28998 19.0563 5.29031Z" fill="#282828"/>
<path d="M35.0428 26.0939C35.0752 24.109 35.8947 22.2183 37.3209 20.8376C38.7472 19.4569 40.6635 18.6993 42.6484 18.7313C43.7589 18.7263 44.8574 18.9618 45.8682 19.4218C46.879 19.8818 47.7783 20.5552 48.504 21.3958C48.5318 21.4282 48.5676 21.4526 48.6078 21.4667C48.648 21.4808 48.6912 21.4841 48.7331 21.4763C48.775 21.4684 48.8141 21.4497 48.8464 21.4219C48.8788 21.3942 48.9033 21.3584 48.9174 21.3182L49.8152 18.8562C49.9365 18.523 49.9911 18.1692 49.9757 17.8149C49.9603 17.4606 49.8752 17.1129 49.7254 16.7915C49.5756 16.4701 49.364 16.1814 49.1026 15.9418C48.8412 15.7022 48.5351 15.5164 48.2019 15.3951L19.9802 5.14691C19.3094 4.90342 18.5695 4.93536 17.9223 5.23576C17.275 5.53616 16.7729 6.08058 16.5259 6.75004L6.17474 35.1338C6.0534 35.467 5.99887 35.8208 6.01427 36.175C6.02967 36.5293 6.1147 36.8771 6.26451 37.1985C6.41431 37.5199 6.62596 37.8086 6.88736 38.0482C7.14876 38.2878 7.4548 38.4735 7.78799 38.5948L36.0097 48.8464C36.682 49.0905 37.4237 49.0579 38.0719 48.7558C38.7202 48.4537 39.2221 47.9067 39.4674 47.2348L44.427 33.6336C44.4417 33.593 44.4455 33.5493 44.4378 33.5068C44.4302 33.4643 44.4115 33.4246 44.3835 33.3917C44.3556 33.3588 44.3195 33.3339 44.2788 33.3195C44.2381 33.3051 44.1943 33.3017 44.1519 33.3096C43.6566 33.4061 43.153 33.4547 42.6484 33.4547C40.6638 33.4868 38.7478 32.7293 37.3215 31.349C35.8953 29.9686 35.0757 28.0784 35.0428 26.0939Z" fill="black"/>
<path d="M47.9306 27.2367L47.0703 29.0006L49.5714 30.2205L50.4317 28.4565L47.9306 27.2367Z" fill="black"/>
</svg>
