<svg width="80" height="80" viewBox="0 0 80 80" fill="none" xmlns="http://www.w3.org/2000/svg">
<mask id="mask0_7380_55933" style="mask-type:alpha" maskUnits="userSpaceOnUse" x="-1" y="-1" width="82" height="82">
<rect width="80" height="80" fill="white" stroke="white" stroke-width="2"/>
</mask>
<g mask="url(#mask0_7380_55933)">
<path d="M17.5068 46.3672C21.3992 47.6457 26.5931 48.3499 32.1318 48.3499C35.0297 48.3499 37.9112 48.1486 40.542 47.7652L40.1015 46.5689C40.0363 46.3919 40.0232 46.1999 40.0636 46.0157C40.1041 45.8315 40.1965 45.6627 40.3299 45.5293L43.1147 42.7445C43.2481 42.6111 43.4169 42.5187 43.6012 42.4782C43.7854 42.4377 43.9774 42.4508 44.1544 42.5159L46.9692 43.5525L49.1335 42.6558L50.3884 39.9342C50.4675 39.7628 50.5939 39.6177 50.7529 39.5159C50.9118 39.4142 51.0966 39.3601 51.2853 39.3601H52.2676V32.6047C48.5473 35.5422 40.1515 37.0965 32.1319 37.0965C24.1124 37.0965 15.7199 35.5423 12.0001 32.605V42.3999C12.0001 43.7313 14.1101 45.2514 17.5068 46.3672ZM29.7433 41.7337H34.5203C34.7823 41.7337 35.0335 41.8378 35.2187 42.023C35.4039 42.2082 35.508 42.4594 35.508 42.7214C35.508 42.9833 35.4039 43.2345 35.2187 43.4198C35.0335 43.605 34.7823 43.709 34.5203 43.709H29.7433C29.4813 43.709 29.2301 43.605 29.0449 43.4198C28.8597 43.2345 28.7556 42.9833 28.7556 42.7214C28.7556 42.4594 28.8597 42.2082 29.0449 42.023C29.2301 41.8378 29.4813 41.7337 29.7433 41.7337ZM37.5195 58.5366C37.3481 58.4576 37.203 58.3311 37.1012 58.1722C36.9995 58.0132 36.9454 57.8284 36.9454 57.6397V53.6998C36.9454 53.5112 36.9994 53.3266 37.101 53.1677C37.2026 53.0088 37.3476 52.8824 37.5187 52.8033L40.2414 51.5447L41.0098 49.6923C38.2181 50.1116 35.238 50.3252 32.1318 50.3252C24.1139 50.3252 15.7198 48.7703 12 45.8316V55.6287C12 56.9597 14.11 58.4791 17.5067 59.594C21.3984 60.8714 26.5925 61.5749 32.1319 61.5749C35.1115 61.5749 38.056 61.3652 40.728 60.966L40.2415 59.7914L37.5197 58.5366H37.5195ZM34.5203 56.9377H29.7433C29.4813 56.9377 29.2301 56.8337 29.0449 56.6484C28.8597 56.4632 28.7556 56.212 28.7556 55.9501C28.7556 55.6881 28.8597 55.4369 29.0449 55.2517C29.2301 55.0665 29.4813 54.9624 29.7433 54.9624H34.5203C34.7823 54.9624 35.0335 55.0665 35.2187 55.2517C35.4039 55.4369 35.508 55.6881 35.508 55.9501C35.508 56.212 35.4039 56.4632 35.2187 56.6484C35.0335 56.8337 34.7823 56.9377 34.5203 56.9377ZM12 15.9463C12 14.6166 14.1101 13.0977 17.5067 11.9824C21.3997 10.7041 26.5936 10 32.1318 10C37.67 10 42.8667 10.704 46.7601 11.9824C50.1572 13.0977 52.2673 14.6166 52.2673 15.9463C52.2673 17.2761 50.1571 18.7978 46.76 19.9136C42.8672 21.1921 37.6721 21.8963 32.1318 21.8963C26.5915 21.8963 21.3992 21.1921 17.5068 19.9136C14.11 18.7978 12 17.2777 12 15.9463ZM57.9119 55.6697C57.9119 58.2374 55.8229 60.3264 53.2551 60.3264C50.6873 60.3264 48.5984 58.2374 48.5984 55.6697C48.5984 53.102 50.6874 51.013 53.2551 51.013C55.8228 51.013 57.9119 53.1019 57.9119 55.6697ZM17.5067 33.139C21.3997 34.4173 26.5936 35.1212 32.1318 35.1212C37.67 35.1212 42.8667 34.4173 46.7601 33.1389C50.1572 32.0235 52.2673 30.5047 52.2673 29.1749V19.3776C48.5471 22.3165 40.1512 23.8715 32.1317 23.8715C24.1121 23.8715 15.7199 22.3167 12 19.3779V29.1749C12 30.5047 14.1101 32.0235 17.5067 33.1389V33.139ZM29.7433 28.5088H34.5203C34.7823 28.5088 35.0335 28.6129 35.2187 28.7981C35.4039 28.9833 35.508 29.2346 35.508 29.4965C35.508 29.7584 35.4039 30.0097 35.2187 30.1949C35.0335 30.3801 34.7823 30.4842 34.5203 30.4842H29.7433C29.4813 30.4842 29.2301 30.3801 29.0449 30.1949C28.8597 30.0097 28.7556 29.7584 28.7556 29.4965C28.7556 29.2346 28.8597 28.9833 29.0449 28.7981C29.2301 28.6129 29.4813 28.5088 29.7433 28.5088ZM64.5921 52.6578L63.3996 49.7833C63.3044 49.5537 63.2992 49.2967 63.3851 49.0635L64.3369 46.4792L62.4456 44.5879L59.8613 45.5395C59.6283 45.6253 59.3715 45.6201 59.142 45.5251L56.2638 44.3326C56.0342 44.2375 55.8489 44.0594 55.7449 43.8337L54.5929 41.3353H51.9174L50.7653 43.8337C50.6613 44.0594 50.476 44.2375 50.2465 44.3326L47.3683 45.5251C47.1389 45.6201 46.8821 45.6253 46.649 45.5395L44.0647 44.5879L42.1735 46.4792L43.1251 49.0635C43.211 49.2966 43.2058 49.5536 43.1106 49.7831L41.9183 52.6577C41.8233 52.8868 41.6455 53.0717 41.4204 53.1757L38.921 54.3312V57.0072L41.4195 58.1592C41.6452 58.2633 41.8233 58.4485 41.9184 58.6781L43.1107 61.5563C43.2059 61.7858 43.211 62.0428 43.1249 62.2759L42.1735 64.8568L44.0652 66.751L46.649 65.7994C46.8821 65.7136 47.1389 65.7187 47.3683 65.8138L50.2465 67.0063C50.4759 67.1014 50.6611 67.2793 50.7652 67.5048L51.9171 70H54.5933L55.745 67.5048C55.8491 67.2793 56.0343 67.1014 56.2638 67.0063L59.142 65.8138C59.3715 65.7188 59.6283 65.7137 59.8613 65.7995L62.4451 66.7511L64.3368 64.8569L63.3853 62.276C63.2993 62.0428 63.3044 61.7859 63.3995 61.5563L64.5919 58.6781C64.6871 58.4486 64.8652 58.2633 65.0908 58.1592L67.5892 57.0072V54.331L65.0898 53.1756C64.8648 53.0715 64.6871 52.8866 64.5921 52.6576V52.6578ZM53.255 62.3017C49.5981 62.3017 46.623 59.3266 46.623 55.6697C46.623 52.0128 49.5981 49.0377 53.255 49.0377C56.9119 49.0377 59.8871 52.0128 59.8871 55.6697C59.8871 59.3266 56.9119 62.3017 53.255 62.3017Z" fill="black"/>
</g>
</svg>
