<svg width="76" height="76" viewBox="0 0 76 76" fill="none" xmlns="http://www.w3.org/2000/svg">
<mask id="mask0_7039_91123" style="mask-type:alpha" maskUnits="userSpaceOnUse" x="-1" y="-1" width="78" height="78">
<rect width="76" height="76" fill="white" stroke="white" stroke-width="2"/>
</mask>
<g mask="url(#mask0_7039_91123)">
<path d="M55.3565 35.6028H58.999C59.7275 35.6028 60.3175 35.0128 60.3175 34.2843C60.3175 33.5558 59.7275 32.9657 58.999 32.9657H57.6804V31.6472C57.6804 30.9187 57.0904 30.3286 56.3619 30.3286C55.6334 30.3286 55.0433 30.9187 55.0433 31.6472V32.9987C53.5666 33.1569 52.4062 34.3963 52.4062 35.916C52.4062 37.04 53.0293 38.052 54.038 38.5531L57.5091 40.2903C57.6145 40.3397 57.6805 40.4485 57.6805 40.5671C57.6805 40.7386 57.5387 40.877 57.3673 40.877H53.7248C52.9963 40.877 52.4063 41.4671 52.4063 42.1956C52.4063 42.9241 52.9963 43.5141 53.7248 43.5141H55.0434V44.8327C55.0434 45.5611 55.6334 46.1512 56.3619 46.1512C57.0904 46.1512 57.6805 45.5611 57.6805 44.8327V43.4811C59.1572 43.3229 60.3176 42.0835 60.3176 40.5638C60.3176 39.4398 59.6946 38.4278 58.6859 37.9268L55.2148 36.1896C55.1093 36.1401 55.0434 36.0313 55.0434 35.9127C55.0434 35.7413 55.1851 35.6028 55.3565 35.6028Z" fill="black"/>
<path d="M65.1932 25.4298C65.4404 24.9123 65.5888 24.3453 65.5888 23.7355C65.5888 22.1961 64.6954 20.871 63.4066 20.2183L65.4965 14.9968C65.6811 14.5386 65.5921 14.0145 65.2658 13.6387C64.9394 13.2662 64.4285 13.108 63.9538 13.2266L59.151 14.4265L56.949 13.3255C56.5798 13.1409 56.1414 13.1409 55.7689 13.3255L53.5669 14.4265L48.7641 13.2266C48.2862 13.1047 47.7752 13.2662 47.4522 13.6387C47.1258 14.0112 47.0368 14.5353 47.2214 14.9968L49.3113 20.2183C48.0225 20.8709 47.1292 22.1961 47.1292 23.7355C47.1292 24.3453 47.2775 24.9123 47.5247 25.4298C44.4427 27.8065 42.4945 31.2051 41.9934 34.9824C39.5903 33.6969 36.851 32.9651 33.9437 32.9651C29.6913 32.9651 25.8049 34.5309 22.8054 37.102L20.8144 35.111L22.4197 30.2917C22.5779 29.817 22.4559 29.2962 22.1032 28.9435L14.6469 21.4838C14.3238 21.1608 13.859 21.0289 13.4108 21.1344C12.9658 21.2399 12.6065 21.5662 12.4614 22.0013L10.8034 26.9689L5.83576 28.6237C5.40064 28.7687 5.0743 29.128 4.96885 29.573C4.86337 30.018 4.99852 30.4861 5.32156 30.8091L12.7812 38.2688C13.0317 38.5193 13.3713 38.6544 13.7141 38.6544C13.8526 38.6544 13.9943 38.6314 14.1327 38.5852L18.952 36.9799L20.943 38.971C18.3686 41.9674 16.8028 45.8537 16.8028 50.1058C16.8028 59.5563 24.4933 67.2465 33.9435 67.2465C36.5312 67.2465 39.1155 66.6532 41.4197 65.5291C42.0724 65.2093 42.346 64.4215 42.0263 63.7656C41.7065 63.1129 40.922 62.8392 40.2627 63.159C38.3179 64.1084 36.1324 64.6095 33.9436 64.6095C25.9466 64.6095 19.4391 58.1025 19.4391 50.105C19.4391 46.5812 20.7049 43.3475 22.8047 40.8292L26.5626 44.587C25.4056 46.1297 24.7133 48.035 24.7133 50.1052C24.7133 55.1947 28.8535 59.3354 33.9436 59.3354C39.0336 59.3354 43.1738 55.1952 43.1738 50.1052C43.1738 45.0151 39.0336 40.8749 33.9436 40.8749C31.8735 40.8749 29.9682 41.5672 28.4254 42.7242L24.6676 38.9664C27.186 36.8665 30.4197 35.6007 33.9434 35.6007C41.9404 35.6007 48.4479 42.1077 48.4479 50.1052C48.4479 52.3269 47.96 54.4531 47.0008 56.4243C46.681 57.0803 46.9546 57.8681 47.6073 58.1879C48.2666 58.5109 49.0511 58.234 49.3708 57.5813C50.452 55.3662 51.0256 52.8906 51.0718 50.4019C52.7496 51.0611 54.5428 51.4237 56.3591 51.4237C64.3561 51.4237 70.8636 44.9167 70.8636 36.9192C70.8636 32.3802 68.7935 28.2037 65.1938 25.4283L65.1932 25.4298ZM14.2909 24.8563L19.664 30.2294L18.7311 33.0247L13.358 27.6516L14.2909 24.8563ZM14.07 35.8266L8.69695 30.4535L11.4923 29.5206L16.8654 34.8937L14.07 35.8266ZM33.944 43.5137C37.5799 43.5137 40.5368 46.4706 40.5368 50.1065C40.5368 53.7424 37.5799 56.6992 33.944 56.6992C30.3081 56.6992 27.3513 53.7424 27.3513 50.1065C27.3513 48.7649 27.7601 47.5188 28.449 46.4772C28.449 46.4772 33.0079 51.036 33.0111 51.0393C33.5023 51.5304 34.3594 51.5535 34.8769 51.0393C35.3911 50.5251 35.3911 49.691 34.8769 49.1736L30.3147 44.6114C31.3564 43.9225 32.6024 43.5137 33.944 43.5137ZM49.7666 23.7351C49.7666 23.0066 50.3567 22.4165 51.0852 22.4165H61.6336C62.362 22.4165 62.9521 23.0066 62.9521 23.7351C62.9521 24.4636 62.362 25.0536 61.6336 25.0536H51.0852C50.3567 25.0536 49.7666 24.4636 49.7666 23.7351ZM53.4025 17.1028C53.7025 17.1786 54.0321 17.1423 54.3123 17.0039L56.3594 15.9787L58.4064 17.0039C58.6866 17.1423 59.013 17.1786 59.3162 17.1028L62.0885 16.4105L60.7402 19.7794H51.9749L50.6267 16.4105L53.4025 17.1028ZM56.3594 48.7876C54.4376 48.7876 52.5521 48.2931 50.8512 47.3998C50.1556 43.0487 47.8317 39.2479 44.509 36.6371C44.5947 33.0276 46.2626 29.7148 49.147 27.4997C49.2393 27.4436 49.3217 27.3744 49.3975 27.2986C49.9117 27.5425 50.4787 27.6909 51.0852 27.6909H61.6336C62.2435 27.6909 62.8137 27.5392 63.3312 27.292C63.3906 27.3513 63.4499 27.4107 63.5224 27.4568C66.5123 29.7346 68.2263 33.1793 68.2263 36.9208C68.2263 43.4641 62.9022 48.7876 56.3594 48.7876Z" fill="black"/>
<path d="M44.1982 60.3618C43.6839 60.876 43.6839 61.71 44.1982 62.2275C44.7124 62.7417 45.5464 62.7417 46.0639 62.2275C46.5781 61.7132 46.5781 60.8792 46.0639 60.3618C45.5497 59.8475 44.7123 59.8475 44.1982 60.3618Z" fill="black"/>
</g>
</svg>
