<svg width="80" height="80" viewBox="0 0 80 80" fill="none" xmlns="http://www.w3.org/2000/svg">
<mask id="mask0_7380_55937" style="mask-type:alpha" maskUnits="userSpaceOnUse" x="-1" y="-1" width="82" height="82">
<rect width="80" height="80" fill="white" stroke="white" stroke-width="2"/>
</mask>
<g mask="url(#mask0_7380_55937)">
<path d="M10 58C10 52.342 10 49.516 11.758 47.758C13.516 46 16.342 46 22 46C27.658 46 30.484 46 32.242 47.758C34 49.516 34 52.342 34 58C34 63.658 34 66.484 32.242 68.242C30.484 70 27.658 70 22 70C16.342 70 13.516 70 11.758 68.242C10 66.484 10 63.658 10 58Z" fill="black"/>
<path fill-rule="evenodd" clip-rule="evenodd" d="M14.392 14.392C10 18.79 10 25.858 10 40V43.414C11.527 42.415 13.207 41.974 14.818 41.761C16.753 41.5 19.135 41.5 21.733 41.5H22.27C24.865 41.5 27.247 41.5 29.182 41.761C31.315 42.046 33.571 42.721 35.422 44.575C37.279 46.429 37.954 48.685 38.242 50.815C38.5 52.753 38.5 55.135 38.5 57.73V58.27C38.5 60.865 38.5 63.247 38.239 65.182C38.023 66.793 37.585 68.473 36.589 69.997L40 70C54.142 70 61.213 70 65.608 65.608C70 61.21 70 54.139 70 40C70 25.858 70 18.787 65.608 14.392C61.21 10 54.139 10 40 10C25.858 10 18.787 10 14.392 14.392ZM43.75 22.75C43.1533 22.75 42.581 22.9871 42.159 23.409C41.7371 23.831 41.5 24.4033 41.5 25C41.5 25.5967 41.7371 26.169 42.159 26.591C42.581 27.0129 43.1533 27.25 43.75 27.25H49.57L38.41 38.41C38.1889 38.616 38.0116 38.8644 37.8887 39.1404C37.7657 39.4164 37.6996 39.7143 37.6942 40.0164C37.6889 40.3185 37.7445 40.6186 37.8576 40.8988C37.9708 41.179 38.1392 41.4335 38.3529 41.6471C38.5665 41.8608 38.821 42.0292 39.1012 42.1424C39.3814 42.2555 39.6815 42.3111 39.9836 42.3058C40.2857 42.3004 40.5836 42.2343 40.8596 42.1113C41.1356 41.9884 41.384 41.8111 41.59 41.59L52.75 30.43V36.25C52.75 36.8467 52.9871 37.419 53.409 37.841C53.831 38.2629 54.4033 38.5 55 38.5C55.5967 38.5 56.169 38.2629 56.591 37.841C57.0129 37.419 57.25 36.8467 57.25 36.25V25C57.25 24.4033 57.0129 23.831 56.591 23.409C56.169 22.9871 55.5967 22.75 55 22.75H43.75Z" fill="black"/>
</g>
</svg>
