<svg width="80" height="80" viewBox="0 0 80 80" fill="none" xmlns="http://www.w3.org/2000/svg">
<mask id="mask0_7380_55911" style="mask-type:alpha" maskUnits="userSpaceOnUse" x="-1" y="-1" width="82" height="82">
<rect width="80" height="80" fill="white" stroke="white" stroke-width="2"/>
</mask>
<g mask="url(#mask0_7380_55911)">
<path d="M41.1164 13.0001H30.4109C21.6345 13.0001 17.2463 13.0001 14.1357 15.1782C12.9849 15.984 11.9839 16.985 11.1781 18.1358C9 21.2464 9 25.6346 9 34.411C9 43.1874 9 47.5757 11.1781 50.6863C11.9839 51.8371 12.9849 52.8381 14.1357 53.6439C17.2463 55.8219 21.6345 55.8219 30.4109 55.8219H41.1164C49.8928 55.8219 54.281 55.8219 57.3916 53.6439C58.5424 52.8381 59.5434 51.8371 60.3492 50.6863C62.5273 47.5757 62.5273 43.1874 62.5273 34.411C62.5273 25.6346 62.5273 21.2464 60.3492 18.1358C59.5434 16.985 58.5424 15.984 57.3916 15.1782C54.281 13.0001 49.8928 13.0001 41.1164 13.0001Z" stroke="black" stroke-width="4.01455" stroke-linecap="round"/>
<path d="M42.8696 66.5276L41.7486 65.4066C39.2214 62.8794 38.5949 59.0187 40.1932 55.8221" stroke="black" stroke-width="4.01455" stroke-linecap="round"/>
<path d="M27.7359 66.5276L28.8569 65.4066C31.384 62.8794 32.0106 59.0187 30.4123 55.8221" stroke="black" stroke-width="4.01455" stroke-linecap="round"/>
<path d="M22.3828 66.5275H49.1465" stroke="black" stroke-width="4.01455" stroke-linecap="round"/>
<path d="M38 29.0001C38 25.1341 40.9741 22.0001 44.6429 22.0001H53.4292H62.2155C65.8842 22.0001 69 25.1341 69 29.0001V57.0001C69 60.8661 66.0259 64.0001 62.3571 64.0001H44.6429C40.9741 64.0001 38 60.8661 38 57.0001V29.0001Z" fill="black"/>
<path d="M39 29.6668C39 25.9849 41.7822 23.0001 45.2143 23.0001H53.4337H61.6532C65.0852 23.0001 68 25.9849 68 29.6668V56.3335C68 60.0154 65.2178 63.0001 61.7857 63.0001H45.2143C41.7822 63.0001 39 60.0154 39 56.3335V29.6668Z" fill="black"/>
<path d="M58.3811 38.6727L60.4328 40.4411C61.2953 41.1846 61.7266 41.5563 61.7266 42.0182C61.7266 42.4801 61.2953 42.8518 60.4328 43.5952L58.3811 45.3636" stroke="white" stroke-width="1.67273" stroke-linecap="round" stroke-linejoin="round"/>
<path d="M48.3455 38.6729L46.2938 40.4412C45.4313 41.1847 45 41.5564 45 42.0183C45 42.4802 45.4313 42.8519 46.2938 43.5954L48.3455 45.3638" stroke="white" stroke-width="1.67273" stroke-linecap="round" stroke-linejoin="round"/>
<path d="M55.0369 37.0001L51.6914 47.0365" stroke="white" stroke-width="1.67273" stroke-linecap="round" stroke-linejoin="round"/>
<circle cx="50" cy="25.0001" r="0.5" fill="white" stroke="white"/>
<path d="M52 25.0001H58" stroke="white" stroke-linecap="round"/>
</g>
</svg>
