<svg width="92" height="92" viewBox="0 0 92 92" fill="none" xmlns="http://www.w3.org/2000/svg">
<mask id="mask0_7401_56018" style="mask-type:alpha" maskUnits="userSpaceOnUse" x="0" y="0" width="92" height="92">
<rect width="92" height="92" fill="black"/>
</mask>
<g mask="url(#mask0_7401_56018)">
<path d="M68.475 40.275C67.625 39.925 66.5 39.75 65.1 39.75H51.9C47.55 39.75 46 41.3 46 45.7V65.05C46 66.5 46.175 67.625 46.55 68.5C47.325 70.3 48.975 71 51.9 71H65.1C69.45 71 71 69.425 71 65.05V45.7C71 42.725 70.3 41.05 68.475 40.275ZM61 65.375H56C55.95 65.375 55.875 65.375 55.825 65.35C55.45 65.325 55.125 65.2 54.85 64.95C54.4 64.625 54.125 64.1 54.125 63.5C54.125 62.475 54.975 61.625 56 61.625H61C62.025 61.625 62.875 62.475 62.875 63.5C62.875 64.525 62.025 65.375 61 65.375Z" fill="black"/>
<path d="M68.4812 31.475V33.5C68.4812 34.875 67.3563 36 65.9812 36H51.9062C45.5062 36 42.2562 39.275 42.2562 45.7V68.5C42.2562 69.875 41.1313 71 39.7562 71H34.8813C33.8812 71 33.0812 70.2 33.0812 69.225C33.0812 68.225 33.8812 67.45 34.8813 67.45H39.7562V57.875H31.0063C25.4563 57.6 21.0312 53.025 21.0312 47.4V31.475C21.0312 25.7 25.7312 21 31.5312 21H58.0062C63.7812 21 68.4812 25.7 68.4812 31.475Z" fill="black"/>
</g>
</svg>
