<svg width="80" height="80" viewBox="0 0 80 80" fill="none" xmlns="http://www.w3.org/2000/svg">
<mask id="mask0_7380_56194" style="mask-type:alpha" maskUnits="userSpaceOnUse" x="-1" y="-1" width="82" height="82">
<rect width="80" height="80" fill="white" stroke="white" stroke-width="2"/>
</mask>
<g mask="url(#mask0_7380_56194)">
<path d="M39.8803 7C23.1384 7 24.1066 14.3336 24.1066 14.3336V21.9463H40.1574V24.1605H17.7418C17.7418 24.1605 6.94946 22.9119 6.94946 39.9309C6.94946 56.9499 16.3584 56.3983 16.3584 56.3983H22.028V48.5098C22.028 48.5098 21.7516 39.1009 31.2987 39.1009H47.2106C47.2106 39.1009 56.2044 39.2391 56.2044 30.3838V15.8554C56.2044 15.8554 57.5914 7 39.8803 7ZM31.0223 12.1195C31.4068 12.1095 31.7893 12.1778 32.1466 12.3202C32.5039 12.4627 32.8285 12.6763 33.1007 12.9481C33.3729 13.2199 33.5869 13.5442 33.7299 13.9013C33.8728 14.2584 33.9416 14.6409 33.9322 15.0254C33.938 15.4107 33.8671 15.7932 33.7237 16.1508C33.5803 16.5085 33.3672 16.834 33.0968 17.1085C32.8264 17.383 32.5042 17.601 32.1487 17.7498C31.7933 17.8985 31.4119 17.9752 31.0266 17.9752C30.6413 17.9752 30.2598 17.8985 29.9044 17.7498C29.549 17.601 29.2267 17.383 28.9563 17.1085C28.6859 16.834 28.4728 16.5085 28.3294 16.1508C28.186 15.7932 28.1151 15.4107 28.121 15.0254C28.1253 14.2568 28.4322 13.5209 28.9752 12.977C29.5183 12.4331 30.2537 12.125 31.0223 12.1195Z" fill="black"/>
<path d="M40.4312 73.0005C57.3117 73.0005 56.2047 65.6669 56.2047 65.6669V58.0575H40.1567V55.8433H62.5717C62.5717 55.8433 73.3657 57.0886 73.3657 40.0696C73.3657 23.0507 63.9547 23.7405 63.9547 23.7405H58.2817V31.6296C58.2817 31.6296 58.5587 41.0385 49.0114 41.0385H33.0995C33.0995 41.0385 24.1054 40.9003 24.1054 49.7556V64.2807C24.1054 64.2807 22.8606 73.0005 40.4312 73.0005ZM49.2865 68.0193C48.9026 68.0283 48.5209 67.9594 48.1644 67.8165C47.8079 67.6737 47.4842 67.46 47.2127 67.1884C46.9413 66.9168 46.7278 66.5928 46.5852 66.2363C46.4426 65.8797 46.3739 65.4979 46.3832 65.114C46.3774 64.7287 46.4483 64.3462 46.5917 63.9885C46.7351 63.6309 46.9482 63.3054 47.2186 63.0309C47.489 62.7564 47.8113 62.5384 48.1667 62.3896C48.5221 62.2408 48.9035 62.1642 49.2889 62.1642C49.6742 62.1642 50.0556 62.2408 50.411 62.3896C50.7664 62.5384 51.0887 62.7564 51.3591 63.0309C51.6295 63.3054 51.8426 63.6309 51.9857 63.9885C52.1297 64.3462 52.2007 64.7287 52.1947 65.114C52.1897 65.8832 51.8823 66.6197 51.3383 67.1636C50.7943 67.7075 50.0578 68.0149 49.2885 68.0193H49.2865Z" fill="black"/>
</g>
</svg>
