<svg width="80" height="80" viewBox="0 0 80 80" fill="none" xmlns="http://www.w3.org/2000/svg">
<mask id="mask0_7380_55908" style="mask-type:alpha" maskUnits="userSpaceOnUse" x="-1" y="-1" width="82" height="82">
<rect width="80" height="80" fill="white" stroke="white" stroke-width="2"/>
</mask>
<g mask="url(#mask0_7380_55908)">
<path d="M69.2581 5.00591L45.7651 5.00015V13.4595C49.1187 13.5113 51.8075 16.2388 51.8075 19.5775C51.8075 22.922 49.1187 25.6495 45.7651 25.7014V34.1607H54.2419C54.2419 30.7758 56.9885 28.0368 60.3825 28.0368C63.771 28.0368 66.5232 30.7759 66.5232 34.1607H75V10.7202C74.9942 7.56606 72.4327 5.01151 69.264 5L69.2581 5.00591ZM6.00026 44.8394H13.2165L13.257 44.8452H13.2859L13.3263 44.8567C13.3321 44.8567 13.3495 44.8625 13.3553 44.8625H13.3842C13.4015 44.8625 13.4073 44.8683 13.4246 44.8683L13.4535 44.874H13.4882L13.5172 44.8913L13.5461 44.8971L13.5808 44.9144L13.6097 44.9259L13.6386 44.9432L13.6733 44.9605L13.7022 44.9778L13.7369 44.9951L13.76 45.0124L13.7889 45.0297L13.8236 45.047L13.8467 45.0701L13.8756 45.0874L13.8988 45.1047L13.9219 45.1278L13.9508 45.1508L13.9739 45.1681L14.1127 45.3065L14.1359 45.3353L14.1532 45.3584L14.1763 45.3815L14.1937 45.4103L14.2168 45.4334L14.2342 45.468L14.2515 45.491L14.2688 45.5199L14.292 45.5545L14.3093 45.5833L14.3151 45.6064L14.3324 45.641L14.3498 45.6698L14.3671 45.7044L14.3729 45.7332L14.3903 45.7621L14.3961 45.7966V45.837L14.4018 45.8659L14.4134 45.9005L14.4192 45.9293V45.9696L14.425 45.9985V46.0273L14.4307 46.0677V46.3272L14.4539 46.4194L14.4597 46.4828V46.6558L14.4654 46.7193L14.4712 46.7769V46.8404L14.4828 46.8923L14.4886 46.9557L14.4943 47.0134V47.0768L14.5117 47.1345V47.1921L14.529 47.2555L14.5348 47.3132L14.5522 47.3709L14.5695 47.4228L14.5869 47.4804L14.6042 47.5323L14.6216 47.59L14.6389 47.6534L14.6562 47.7111L14.6736 47.7572L14.6967 47.8149L14.7141 47.8668L14.7372 47.9244L14.7545 47.9821L14.7777 48.034L14.8008 48.0801L14.8239 48.132L14.8471 48.1897L14.8702 48.2358L14.8933 48.2877L14.9165 48.3339L14.9396 48.3915L14.9685 48.4376L14.9916 48.4953L15.0148 48.5414L15.0437 48.5876L15.0784 48.6337L15.1015 48.6914L15.1304 48.7375L15.1651 48.7836L15.2229 48.8759L15.2576 48.922L15.3154 49.0143L15.3559 49.0546L15.3848 49.1008L15.4195 49.1469L15.46 49.1873L15.4889 49.2334L15.5294 49.2738L15.5698 49.3199L15.6045 49.3603L15.645 49.4064L15.8127 49.5736C16.6974 50.4616 17.9001 50.9576 19.1606 50.9576H19.5306L19.5942 50.9518L19.6463 50.946H19.7099L19.7677 50.9403H19.8313L19.8833 50.9345L19.947 50.9287L20.0048 50.9172H20.0568L20.1204 50.8999H20.1782L20.2303 50.8826L20.2881 50.8653L20.3517 50.848L20.4037 50.8422L20.5194 50.8076L20.5714 50.7846L20.6293 50.7673L20.6813 50.75L20.7391 50.7327L20.7969 50.7096L20.849 50.6865L20.8952 50.6692L20.9531 50.6462L21.0051 50.6231L21.0629 50.6L21.1092 50.5827L21.167 50.5481L21.2133 50.5251L21.2653 50.502L21.3116 50.4789L21.3636 50.4559L21.4099 50.427L21.4561 50.404L21.5082 50.3751L21.5544 50.3521L21.6007 50.3175L21.6932 50.2598L21.7394 50.2252L21.832 50.1676L21.8782 50.133L21.9707 50.0753L22.017 50.0349L22.0575 50.0061L22.1037 49.9657L22.1442 49.9369L22.1905 49.8965L22.2309 49.8677L22.2772 49.8273L22.3581 49.7466L22.4044 49.7062L22.6473 49.4641L22.6819 49.4179L22.8034 49.3314L22.8438 49.2853L22.8728 49.2449L22.9132 49.1988L22.9421 49.1584L22.9826 49.1123L23.0173 49.0662L23.0462 49.0258L23.0867 48.9797L23.1445 48.8874L23.1792 48.8413L23.2081 48.7952L23.2313 48.749L23.2659 48.7029L23.2949 48.6452L23.3238 48.5991L23.3469 48.553L23.3758 48.5068L23.3989 48.4492L23.4741 48.2993L23.4972 48.2474L23.5204 48.2012L23.5435 48.1436L23.5666 48.0917L23.5898 48.0455L23.6071 47.9936L23.6534 47.8783L23.6707 47.8264L23.688 47.7688L23.7112 47.7226L23.7285 47.665L23.7459 47.6015L23.7632 47.5439L23.7806 47.492L23.7979 47.4343L23.8153 47.3824V47.3247L23.8326 47.2671L23.85 47.2037L23.8557 47.146V47.0883L23.8731 47.0249V46.9672L23.8789 46.9038L23.8846 46.8519V46.7885L23.8904 46.7308V46.6674L23.902 46.6155V46.4944L23.9136 46.4194L23.9193 46.356V46.2349L23.9251 46.2003V46.1311L23.9309 46.1023V46.0331L23.9367 46.0042V45.9524L23.9425 45.9235V45.8889L23.9482 45.8601L23.9656 45.8197L23.9772 45.7851L23.9829 45.7563L24.0003 45.7275L24.0176 45.6929L24.0234 45.664L24.0408 45.6294L24.0581 45.6064L24.0755 45.5775L24.0928 45.5429L24.1101 45.5141L24.1333 45.491L24.1506 45.4564L24.168 45.4334L24.1911 45.4045L24.2085 45.3815L24.2316 45.3584L24.2547 45.3296L24.2778 45.3065L24.2952 45.2835L24.3588 45.2489L24.3819 45.2258L24.4108 45.2027L24.434 45.1797L24.4571 45.1624L24.4802 45.1393L24.5091 45.1162L24.5323 45.0989L24.5669 45.0816L24.5901 45.0586L24.6248 45.0413L24.6479 45.024L24.6768 45.0067L24.7115 44.9894L24.7693 44.9548L24.7925 44.9375L24.8214 44.9259L24.8503 44.9086L24.8907 44.9029L24.9197 44.8856H24.9486L24.9833 44.8798L25.0122 44.874H25.0527L25.0816 44.8683L25.1105 44.8567H25.151L25.1799 44.851H32.4019L32.4308 37.793C32.4308 37.0203 33.061 36.3918 33.8358 36.3918C36.4494 36.3918 38.5714 34.2755 38.5714 31.6634C38.5714 29.057 36.4494 26.9408 33.8358 26.9408C33.061 26.9408 32.4308 26.3122 32.4308 25.5395V18.4816H10.3366C7.9427 18.4931 6.01142 20.4248 6.00565 22.8121L6.00026 44.8394ZM32.4249 47.6419L26.6253 47.6361L26.608 47.7053L26.6022 47.7745L26.5328 48.0513L26.5097 48.1147L26.475 48.2531L26.4518 48.3223L26.4345 48.3857L26.4114 48.455L26.3882 48.5184L26.3651 48.5876L26.3478 48.651L26.3246 48.7202L26.3015 48.7836L26.2784 48.8528L26.2437 48.9163L26.2206 48.9797L26.1974 49.0489L26.1627 49.1123L26.1396 49.1757L26.1107 49.2392L26.0876 49.3026L26.0587 49.3718L26.0297 49.4352L25.9951 49.5275L25.9719 49.5909L25.943 49.6486L25.9025 49.712L25.8736 49.7754L25.8389 49.8389L25.81 49.9023L25.7811 49.96L25.7406 50.0234L25.7117 50.0868L25.6712 50.1445L25.6308 50.2079L25.6019 50.2656L25.5614 50.329L25.5209 50.3809L25.4804 50.4386L25.44 50.502L25.3995 50.5539L25.3185 50.6692L25.2781 50.7211L25.2376 50.7788L25.1913 50.8365L25.1508 50.8884L25.1046 50.946L25.0641 51.0037L25.0179 51.0556L24.9774 51.1132L24.9311 51.1594L24.8849 51.217L24.8386 51.2632L24.7981 51.3151L24.7519 51.3612L24.7056 51.4131L24.4281 51.6899L24.3587 51.736L24.2893 51.7994L24.2257 51.8629L24.1563 51.9148L24.0869 51.9782L24.0233 52.0359L23.9539 52.0878L23.8151 52.2031L23.7458 52.255L23.6764 52.3127L23.5954 52.3703L23.526 52.4164L23.4567 52.4741L23.2947 52.5664L23.2254 52.6125L22.9016 52.797L22.8033 52.8432L22.7223 52.8893L22.6471 52.9296L22.5662 52.97L22.4795 53.0104L22.3985 53.0507L22.3118 53.0911L22.2308 53.1315L22.1441 53.1661L22.0573 53.2064L21.9764 53.241L21.8029 53.2987L21.7162 53.3333L21.6295 53.3621L21.5427 53.3967L21.456 53.4198L21.3693 53.4486L21.2767 53.4717L21.1033 53.5178L21.0108 53.5409L20.924 53.5639L20.8257 53.5813L20.739 53.6043C20.7101 53.6101 20.6754 53.6101 20.6465 53.6216L20.554 53.6389L20.4672 53.6562L20.2822 53.6908L20.1897 53.6966L20.0972 53.7139L20.0046 53.7196L19.9815 53.7139C19.9179 53.7196 19.8543 53.7254 19.7907 53.7312C19.756 53.7369 19.7271 53.7427 19.6924 53.7427C19.6635 53.7427 19.6288 53.7485 19.5999 53.7485H19.2183C17.2176 53.7542 15.298 52.9585 13.887 51.5457L13.8407 51.4996L13.7945 51.4419L13.7482 51.3958L13.702 51.3439L13.6557 51.2978L13.6095 51.2459L13.5632 51.1997L13.5227 51.1421L13.4533 51.0959L13.4071 51.0383L13.3666 50.9864L13.3203 50.9287L13.2799 50.871L13.2336 50.8191L13.1527 50.7038L13.1064 50.6519L13.0255 50.5366L12.985 50.4905L12.9445 50.427L12.904 50.3694L12.8751 50.3175L12.8346 50.254L12.7942 50.1964L12.7537 50.1329L12.7248 50.0753L12.6843 50.0119L12.6554 49.9484L12.6265 49.8908L12.586 49.8273L12.5571 49.7639L12.5224 49.7005L12.4935 49.637L12.4646 49.5794L12.4299 49.5275L12.401 49.4641L12.3778 49.4006L12.3431 49.3314L12.3142 49.268L12.2911 49.2046L12.2564 49.1411L12.2333 49.0777L12.2044 49.0085L12.1581 48.8816L12.135 48.8124L12.1119 48.749L12.0887 48.6798L12.0656 48.6164L12.0425 48.5472L12.0251 48.4838L12.002 48.4146L11.9789 48.3511L11.9442 48.2127L11.921 48.1435L11.9037 48.0801L11.7996 47.6649L6 47.6361V69.6697C6.00578 72.057 7.94283 73.9888 10.3367 73.9945H32.4309V66.9366C32.4309 66.1639 33.0612 65.5411 33.836 65.5411C36.4495 65.5411 38.5716 63.4248 38.5716 60.8127C38.5716 58.2006 36.4495 56.0843 33.836 56.0843C33.4601 56.0901 33.1016 55.9402 32.8414 55.6807C32.5754 55.4154 32.4309 55.0579 32.4309 54.6889L32.4249 47.6419ZM35.2293 47.6419V53.4314V53.4256C38.791 54.1003 41.3699 57.2026 41.3699 60.8181C41.3699 64.4336 38.791 67.5359 35.2293 68.2048V74H57.3294C59.7175 73.9885 61.6545 72.0567 61.6603 69.6694V47.6299H54.5887C53.8139 47.6299 53.1894 47.0071 53.1894 46.2345C53.2125 44.9659 52.721 43.7376 51.8306 42.8323C50.9401 41.927 49.72 41.4195 48.4479 41.4195C47.1758 41.4195 45.9558 41.927 45.0653 42.8323C44.1748 43.7376 43.6833 44.9658 43.7064 46.2345C43.7064 47.0072 43.0762 47.6299 42.3013 47.6299L35.2293 47.6419Z" fill="black"/>
</g>
</svg>
