<svg width="76" height="76" viewBox="0 0 76 76" fill="none" xmlns="http://www.w3.org/2000/svg">
<mask id="mask0_7039_91134" style="mask-type:alpha" maskUnits="userSpaceOnUse" x="-1" y="-1" width="78" height="78">
<rect width="76" height="76" fill="white" stroke="white" stroke-width="2"/>
</mask>
<g mask="url(#mask0_7039_91134)">
<path d="M56.5802 18.1835H20.8808C20.3855 18.1835 19.9844 17.7802 19.9844 17.2849C19.9844 16.7895 20.3855 16.3862 20.8808 16.3862H56.5802C57.0755 16.3862 57.4766 16.7895 57.4766 17.2849C57.4766 17.7802 57.0755 18.1835 56.5802 18.1835Z" fill="black"/>
<path d="M56.5802 63.0707H20.8808C20.3855 63.0707 19.9844 62.6674 19.9844 62.1721C19.9844 61.6767 20.3855 61.2734 20.8808 61.2734H56.5802C57.0755 61.2734 57.4766 61.6767 57.4766 62.1721C57.4766 62.6674 57.0755 63.0707 56.5802 63.0707Z" fill="black"/>
<path d="M16.2854 58.4747C15.79 58.4747 15.3867 58.0736 15.3867 57.5782V21.8789C15.3867 21.3835 15.79 20.9824 16.2854 20.9824C16.7807 20.9824 17.184 21.3835 17.184 21.8789V57.5782C17.184 57.8171 17.0876 58.0451 16.921 58.2138C16.7522 58.3804 16.5243 58.4747 16.2854 58.4747Z" fill="black"/>
<path d="M61.1721 58.4747C60.6767 58.4747 60.2734 58.0736 60.2734 57.5782V21.8789C60.2734 21.3835 60.6767 20.9824 61.1721 20.9824C61.6674 20.9824 62.0707 21.3835 62.0707 21.8789V57.5782C62.0707 57.8171 61.9743 58.0451 61.8077 58.2138C61.6389 58.3804 61.411 58.4747 61.1721 58.4747Z" fill="black"/>
<path d="M38.7268 27.0949C38.2314 27.0949 37.8281 26.6938 37.8281 26.1984V17.2844C37.8281 16.789 38.2314 16.3857 38.7268 16.3857C39.2221 16.3857 39.6254 16.789 39.6254 17.2844V26.1984C39.6254 26.4351 39.529 26.6631 39.3624 26.8318C39.1936 27.0006 38.9657 27.0949 38.7268 27.0949Z" fill="black"/>
<path d="M38.7296 33.6051C37.0507 33.6051 35.5362 32.5925 34.8941 31.0408C34.2519 29.489 34.6069 27.7027 35.7927 26.517C36.9806 25.329 38.7669 24.974 40.3187 25.6162C41.8704 26.2583 42.8808 27.7729 42.8808 29.4517C42.8787 31.7443 41.0222 33.6007 38.7296 33.6051ZM38.7296 27.0954C37.7762 27.0954 36.917 27.6696 36.5532 28.5507C36.1872 29.4296 36.3888 30.4444 37.0639 31.1172C37.7368 31.7923 38.7515 31.994 39.6304 31.6279C40.5115 31.2641 41.0858 30.4049 41.0858 29.4515C41.0858 28.1496 40.0315 27.0954 38.7296 27.0954Z" fill="black"/>
<path d="M61.1738 40.6274H52.2597C51.7644 40.6274 51.3633 40.2241 51.3633 39.7287C51.3633 39.2334 51.7644 38.8301 52.2597 38.8301H61.1738C61.6691 38.8301 62.0724 39.2334 62.0724 39.7287C62.0724 40.2241 61.6691 40.6274 61.1738 40.6274Z" fill="black"/>
<path d="M49.004 43.8799C47.3251 43.8799 45.8106 42.8695 45.1685 41.3177C44.5241 39.766 44.8814 37.9797 46.0671 36.7917C47.2551 35.606 49.0413 35.2509 50.5931 35.8931C52.1448 36.5353 53.1553 38.0498 53.1553 39.7286C53.1531 42.0212 51.2966 43.8777 49.004 43.8799ZM49.004 37.3723C48.0506 37.3723 47.1914 37.9465 46.8276 38.8276C46.4616 39.7065 46.6632 40.7213 47.3383 41.3942C48.0112 42.0692 49.026 42.2709 49.9048 41.9049C50.7859 41.541 51.3602 40.6819 51.3602 39.7285C51.3602 38.4266 50.3059 37.3723 49.004 37.3723Z" fill="black"/>
<path d="M38.7268 63.0709C38.2314 63.0709 37.8281 62.6677 37.8281 62.1723V53.2583C37.8281 52.7629 38.2314 52.3618 38.7268 52.3618C39.2221 52.3618 39.6254 52.7629 39.6254 53.2583V62.1723C39.6254 62.4112 39.529 62.6392 39.3624 62.8079C39.1936 62.9745 38.9657 63.0709 38.7268 63.0709Z" fill="black"/>
<path d="M38.7296 54.1574C37.0507 54.1574 35.5362 53.1448 34.8941 51.5952C34.2519 50.0435 34.6069 48.2572 35.7927 47.0692C36.9806 45.8813 38.7669 45.5262 40.3187 46.1684C41.8704 46.8128 42.8808 48.3251 42.8808 50.0061C42.8787 52.2965 41.0222 54.1552 38.7296 54.1574ZM38.7296 47.6476C37.7762 47.6476 36.917 48.2218 36.5532 49.103C36.1872 49.984 36.3888 50.9966 37.0639 51.6717C37.7368 52.3445 38.7515 52.5462 39.6304 52.1824C40.5115 51.8185 41.0858 50.9594 41.0858 50.006C41.0858 48.7041 40.0316 47.6498 38.7297 47.6498L38.7296 47.6476Z" fill="black"/>
<path d="M25.1994 40.6274H16.2854C15.79 40.6274 15.3867 40.2241 15.3867 39.7287C15.3867 39.2334 15.79 38.8301 16.2854 38.8301H25.1994C25.6947 38.8301 26.0959 39.2334 26.0959 39.7287C26.0959 40.2241 25.6948 40.6274 25.1994 40.6274Z" fill="black"/>
<path d="M28.4522 43.8799C26.7733 43.8799 25.2588 42.8695 24.6166 41.3177C23.9745 39.766 24.3295 37.9797 25.5175 36.7917C26.7032 35.606 28.4895 35.2509 30.0413 35.8931C31.593 36.5353 32.6056 38.0498 32.6056 39.7286C32.6034 42.0212 30.7448 43.8777 28.4522 43.8799ZM28.4522 37.3723C27.4988 37.3723 26.6396 37.9465 26.2758 38.8276C25.9098 39.7065 26.1114 40.7213 26.7865 41.3942C27.4593 42.0692 28.4741 42.2709 29.3552 41.9049C30.2341 41.541 30.8083 40.6819 30.8083 39.7285C30.8083 38.4266 29.7541 37.3723 28.4522 37.3723Z" fill="black"/>
<path d="M23.5004 34.6635H16.2854C15.79 34.6635 15.3867 34.2624 15.3867 33.7671C15.3867 33.2717 15.79 32.8684 16.2854 32.8684H22.6044V24.8532C22.6044 24.3579 23.0054 23.9568 23.5008 23.9568H29.8899V17.2849C29.8899 16.7895 30.291 16.3862 30.7864 16.3862C31.2839 16.3862 31.685 16.7895 31.685 17.2849V24.8529C31.685 25.0918 31.5908 25.3197 31.422 25.4885C31.2533 25.6572 31.0253 25.7515 30.7864 25.7515H24.3995V33.7666C24.3995 34.0034 24.3053 34.2335 24.1365 34.4001C23.9678 34.5688 23.7398 34.6631 23.5009 34.6631L23.5004 34.6635Z" fill="black"/>
<path d="M61.1715 34.1702H55.2952C54.7998 34.1702 54.3987 33.7669 54.3987 33.2716V29.7845H52.7176C52.2223 29.7845 51.8212 29.3812 51.8212 28.8859V23.275H49.4629C48.9675 23.275 48.5664 22.8739 48.5664 22.3763V17.2849C48.5664 16.7895 48.9675 16.3862 49.4629 16.3862C49.9604 16.3862 50.3615 16.7895 50.3615 17.2849V21.4799H52.7176C52.9565 21.4799 53.1845 21.5742 53.3532 21.7429C53.522 21.9117 53.6162 22.1396 53.6162 22.3785V27.9894H55.2973H55.2951C55.534 27.9894 55.762 28.0837 55.9307 28.2524C56.0995 28.419 56.1937 28.6492 56.1937 28.8859V32.3729L61.1712 32.3751C61.6666 32.3751 62.0699 32.7762 62.0699 33.2716C62.0699 33.7669 61.6668 34.1702 61.1715 34.1702Z" fill="black"/>
<path d="M32.3419 63.0711C31.8466 63.0711 31.4455 62.6678 31.4455 62.1725V56.2328L29.1529 54.1309V54.1287C28.9666 53.9599 28.8614 53.7188 28.8614 53.4668V49.7321H25.9442C25.7184 49.7321 25.5036 49.6466 25.3371 49.4953L23.0313 47.3825H16.2854C15.79 47.3825 15.3867 46.9792 15.3867 46.4839C15.3867 45.9885 15.79 45.5874 16.2854 45.5874H23.3803C23.6061 45.5874 23.8231 45.6707 23.9874 45.8219L26.291 47.9348H29.7584L29.7606 47.937C29.9973 47.937 30.2252 48.0312 30.394 48.2C30.5627 48.3687 30.657 48.5967 30.657 48.8334V53.0722L32.9495 55.1763C33.1358 55.3473 33.241 55.5862 33.241 55.8383V62.1724C33.241 62.4113 33.1468 62.6392 32.978 62.808C32.8093 62.9746 32.5808 63.0711 32.3419 63.0711Z" fill="black"/>
<path d="M45.2307 63.071C44.7331 63.071 44.332 62.6677 44.332 62.1723V55.5969C44.332 55.1016 44.7331 54.7005 45.2307 54.7005H48.1983V50.8101C48.1983 50.3148 48.5994 49.9136 49.097 49.9136H54.4273V46.8496C54.4273 46.3542 54.8284 45.9531 55.3238 45.9531H61.1715C61.6668 45.9531 62.0701 46.3542 62.0701 46.8496C62.0701 47.3449 61.6668 47.7482 61.1715 47.7482H56.2203V50.8123V50.8101C56.2203 51.049 56.1239 51.2769 55.9573 51.4457C55.7885 51.6145 55.5606 51.7087 55.3217 51.7087H49.9913V55.5969C49.9913 55.8358 49.8971 56.0637 49.7283 56.2325C49.5596 56.4013 49.3316 56.4955 49.0927 56.4955H46.1272V62.172C46.1272 62.4109 46.033 62.6389 45.8642 62.8076C45.6955 62.9742 45.4674 63.071 45.2307 63.071Z" fill="black"/>
<path d="M38.7305 43.3629C37.262 43.3629 35.936 42.4775 35.3749 41.1186C34.8116 39.7619 35.1228 38.1992 36.1617 37.1602C37.2006 36.1213 38.7633 35.8102 40.12 36.3734C41.4789 36.9345 42.3644 38.2605 42.3644 39.729C42.36 41.7345 40.736 43.3586 38.7305 43.3629ZM38.7305 37.8923C37.9875 37.8923 37.3168 38.3394 37.0319 39.0254C36.7492 39.7115 36.9048 40.5027 37.4308 41.0287C37.9568 41.5547 38.7481 41.7103 39.4341 41.4276C40.1201 41.1427 40.5672 40.472 40.5672 39.729C40.5672 38.7142 39.7453 37.8923 38.7305 37.8923Z" fill="black"/>
<path d="M61.1721 22.7776C60.9332 22.7776 60.7052 22.6834 60.5365 22.5146L55.9426 17.9207C55.7672 17.7519 55.6664 17.5218 55.6642 17.2807C55.6598 17.0374 55.7563 16.8051 55.9272 16.6341C56.0982 16.4632 56.3305 16.3689 56.5738 16.3711C56.8149 16.3733 57.045 16.4741 57.2116 16.6495L61.8077 21.2456C62.0641 21.502 62.1408 21.8878 62.0005 22.2231C61.8625 22.5585 61.5359 22.7776 61.1721 22.7776Z" fill="black"/>
<path d="M16.2845 22.7776C15.9207 22.7776 15.5941 22.5584 15.456 22.2231C15.3158 21.8877 15.3925 21.502 15.6489 21.2456L20.245 16.6494C20.5979 16.3141 21.1524 16.3229 21.4965 16.667C21.8406 17.0111 21.8494 17.5656 21.5141 17.9207L16.9202 22.5146C16.7514 22.6834 16.5234 22.7776 16.2845 22.7776Z" fill="black"/>
<path d="M56.5775 63.0712C56.2137 63.0712 55.8871 62.852 55.749 62.5167C55.6087 62.1814 55.6855 61.7956 55.9419 61.537L60.5358 56.943C60.7046 56.7677 60.9347 56.6669 61.1758 56.6647C61.4191 56.6603 61.6514 56.7567 61.8223 56.9277C61.9933 57.0987 62.0875 57.331 62.0853 57.5742C62.0832 57.8153 61.9823 58.0455 61.807 58.212L57.2109 62.8082C57.0443 62.9769 56.8164 63.0712 56.5775 63.0712Z" fill="black"/>
<path d="M20.879 63.0712C20.6401 63.0712 20.4122 62.9769 20.2456 62.8082L15.6495 58.212C15.4741 58.0455 15.3733 57.8153 15.3711 57.5743C15.3689 57.331 15.4632 57.0986 15.6341 56.9277C15.8051 56.7567 16.0374 56.6603 16.2807 56.6647C16.5218 56.6669 16.7519 56.7677 16.9207 56.943L21.5146 61.537C21.771 61.7956 21.8477 62.1813 21.7075 62.5167C21.5694 62.852 21.2429 63.0712 20.879 63.0712Z" fill="black"/>
</g>
</svg>
