<svg width="92" height="92" viewBox="0 0 92 92" fill="none" xmlns="http://www.w3.org/2000/svg">
<mask id="mask0_7401_56040" style="mask-type:alpha" maskUnits="userSpaceOnUse" x="0" y="0" width="92" height="92">
<rect width="92" height="92" fill="black"/>
</mask>
<g mask="url(#mask0_7401_56040)">
</g>
<path d="M33.3234 58.6754C32.5922 57.9441 31.4109 57.9441 30.6797 58.6754L18.6422 70.7129C17.9109 71.4441 17.9109 72.6254 18.6422 73.3566C19.0172 73.7316 19.4859 73.9004 19.9734 73.9004C20.4609 73.9004 20.9297 73.7129 21.3047 73.3566L33.3234 61.3379C34.0547 60.6066 34.0547 59.4254 33.3234 58.6941V58.6754Z" fill="black"/>
<path d="M35.2937 63.3062L27.6812 70.9188C26.95 71.65 26.95 72.8313 27.6812 73.5625C28.0562 73.9375 28.525 74.1063 29.0125 74.1063C29.5 74.1063 29.9688 73.9188 30.3438 73.5625L37.9563 65.95C38.6875 65.2187 38.6875 64.0375 37.9563 63.3062C37.225 62.575 36.0438 62.575 35.3125 63.3062H35.2937Z" fill="black"/>
<path d="M19.7508 64.8621C20.2383 64.8621 20.707 64.6746 21.082 64.3184L28.6945 56.7059C29.4258 55.9746 29.4258 54.7934 28.6945 54.0621C27.9633 53.3309 26.782 53.3309 26.0508 54.0621L18.4195 61.6559C17.6883 62.3871 17.6883 63.5684 18.4195 64.2996C18.7945 64.6746 19.2633 64.8434 19.7508 64.8434V64.8621Z" fill="black"/>
<path d="M61.9367 56.5742C57.6805 60.1555 52.2992 63.3242 45.493 65.6867C45.3805 65.7242 45.2492 65.743 45.1367 65.7805L46.168 72.5492C46.2805 73.2242 46.7492 73.8055 47.3867 74.0305C47.593 74.1055 47.7992 74.143 48.0242 74.143C48.4742 74.143 48.9242 73.9742 49.2805 73.6742L60.3242 63.8117C62.1805 62.143 62.893 59.5367 62.1242 57.1555L61.9555 56.6117L61.9367 56.5742Z" fill="black"/>
<path d="M19.4706 45.8308L26.2206 46.862C26.2581 46.7495 26.2768 46.6183 26.3143 46.5058C28.6768 39.6995 31.8456 34.3183 35.4081 30.062L34.8643 29.8933C32.4831 29.1245 29.8768 29.837 28.2081 31.6933L18.3456 42.7183C17.8956 43.2245 17.7456 43.9558 17.9706 44.5933C18.1956 45.2495 18.7768 45.7183 19.4518 45.812L19.4706 45.8308Z" fill="black"/>
<path d="M74.049 19.6194C73.9552 18.7382 73.2615 18.0257 72.3615 17.9319C72.0615 17.9132 41.1052 15.1944 29.8365 47.7257C29.5927 48.4007 29.7802 49.1507 30.2865 49.6569L42.3052 61.6757C42.6615 62.0319 43.149 62.2194 43.6365 62.2194C43.8427 62.2194 44.049 62.1819 44.2552 62.1257C76.7865 50.8757 74.0865 19.9382 74.049 19.6194ZM50.3865 49.4507H50.349L44.4802 49.3569C43.4677 49.3569 42.6615 48.5319 42.6427 47.5194L42.549 41.6507C42.549 40.6194 43.3552 39.7569 44.3865 39.7382C45.3427 39.6819 46.2802 40.5444 46.299 41.5757L46.374 45.6257L50.424 45.7007C51.4552 45.7007 52.2802 46.5632 52.2615 47.6132C52.2615 48.6444 51.399 49.4507 50.3865 49.4507ZM57.924 46.1882C57.624 46.3757 57.2865 46.4694 56.949 46.4694C56.3115 46.4694 55.6927 46.1507 55.3552 45.5694L48.1177 33.7194C47.574 32.8382 47.8552 31.6757 48.7365 31.1507C49.6177 30.6069 50.7802 30.8882 51.3052 31.7694L58.5427 43.6194C59.0865 44.5007 58.8052 45.6632 57.924 46.1882ZM62.274 37.6007H62.2365C61.224 37.6007 60.3802 36.7757 60.3615 35.7632L60.2865 31.7132L56.2365 31.6382C55.2052 31.6382 54.3802 30.7757 54.399 29.7257C54.399 28.6944 55.2615 27.8882 56.274 27.8882H56.3115L62.1802 27.9819C63.1927 27.9819 63.999 28.8069 64.0177 29.8194L64.1115 35.6882C64.1115 36.7194 63.3052 37.5819 62.274 37.6007Z" fill="black"/>
</svg>
