<svg width="92" height="92" viewBox="0 0 92 92" fill="none" xmlns="http://www.w3.org/2000/svg">
<mask id="mask0_7401_55993" style="mask-type:alpha" maskUnits="userSpaceOnUse" x="0" y="0" width="92" height="92">
<rect width="92" height="92" fill="black"/>
</mask>
<g mask="url(#mask0_7401_55993)">
<path d="M39.2998 49.1997H47.0248V67.1997C47.0248 69.8497 50.3248 71.0997 52.0748 69.0997L70.9998 47.5997C72.6498 45.7247 71.3248 42.7997 68.8248 42.7997H61.0998V24.7997C61.0998 22.1497 57.7998 20.8997 56.0498 22.8997L37.1248 44.3997C35.4998 46.2747 36.8248 49.1997 39.2998 49.1997Z" fill="black"/>
<path d="M37.25 27.875H19.75C18.725 27.875 17.875 27.025 17.875 26C17.875 24.975 18.725 24.125 19.75 24.125H37.25C38.275 24.125 39.125 24.975 39.125 26C39.125 27.025 38.275 27.875 37.25 27.875Z" fill="black"/>
<path d="M34.75 67.875H19.75C18.725 67.875 17.875 67.025 17.875 66C17.875 64.975 18.725 64.125 19.75 64.125H34.75C35.775 64.125 36.625 64.975 36.625 66C36.625 67.025 35.775 67.875 34.75 67.875Z" fill="black"/>
<path d="M27.25 47.875H19.75C18.725 47.875 17.875 47.025 17.875 46C17.875 44.975 18.725 44.125 19.75 44.125H27.25C28.275 44.125 29.125 44.975 29.125 46C29.125 47.025 28.275 47.875 27.25 47.875Z" fill="black"/>
</g>
</svg>
