<svg width="76" height="76" viewBox="0 0 76 76" fill="none" xmlns="http://www.w3.org/2000/svg">
<mask id="mask0_7039_91158" style="mask-type:alpha" maskUnits="userSpaceOnUse" x="-1" y="-1" width="78" height="78">
<rect width="76" height="76" fill="white" stroke="white" stroke-width="2"/>
</mask>
<g mask="url(#mask0_7039_91158)">
<path fill-rule="evenodd" clip-rule="evenodd" d="M27.2741 40.452C27.4524 40.452 27.6279 40.5161 27.7644 40.6414C29.4635 42.1733 31.4188 43.3043 33.5803 44.0062C33.8839 44.1037 34.0872 44.385 34.0872 44.7026V46.2679C34.0872 47.2317 34.8727 48.0172 35.8364 48.0172H41.2958C42.2596 48.0172 43.045 47.2344 43.045 46.2679V44.7026C43.045 44.385 43.2483 44.1037 43.5519 44.0062C45.7134 43.3043 47.6715 42.1734 49.3707 40.6414C49.6074 40.4297 49.9528 40.3907 50.2258 40.5523L51.585 41.3378C51.9861 41.569 52.4569 41.6302 52.9109 41.5105C53.3649 41.3907 53.741 41.101 53.9722 40.6999L56.7018 35.9731C57.1837 35.1375 56.8968 34.0651 56.0612 33.5832L54.7047 32.8005C54.429 32.6417 54.2897 32.3242 54.3538 32.015C54.5877 30.9147 54.7047 29.7838 54.7047 28.653C54.7047 27.5222 54.5878 26.3912 54.3538 25.291C54.2869 24.9819 54.429 24.6615 54.7047 24.5055L56.0612 23.7228C56.4623 23.4916 56.752 23.1128 56.8717 22.6616C56.9915 22.2075 56.9302 21.7368 56.699 21.3357L53.9694 16.6088C53.4875 15.7732 52.4151 15.4863 51.5822 15.9682L50.2201 16.7537C49.9444 16.9125 49.599 16.8763 49.365 16.6646C47.6659 15.1326 45.7106 14.0017 43.5491 13.2998C43.2455 13.2023 43.0422 12.921 43.0422 12.6034V11.038C43.0422 10.0743 42.2567 9.28882 41.293 9.28882H35.8336C34.8698 9.28882 34.0844 10.0716 34.0844 11.038V12.6034C34.0844 12.921 33.8811 13.2023 33.5775 13.2998C31.416 14.0017 29.4579 15.1326 27.7616 16.6646C27.5276 16.8763 27.1794 16.9125 26.9037 16.7537L25.5444 15.9682C24.7088 15.4863 23.6392 15.7732 23.1573 16.6088L20.4276 21.3385C19.9458 22.1741 20.2326 23.2437 21.0683 23.7256L22.4247 24.5083C22.7005 24.6671 22.8425 24.9846 22.7757 25.2938C22.5445 26.3941 22.4247 27.5249 22.4247 28.6558C22.4247 29.7866 22.5417 30.9175 22.7757 32.0177C22.8425 32.3269 22.7005 32.6472 22.4247 32.8032L21.0683 33.586C20.2326 34.0679 19.9458 35.1402 20.4276 35.9759L23.1573 40.7027C23.3885 41.1038 23.7673 41.3935 24.2186 41.5133C24.6726 41.633 25.1433 41.5717 25.5444 41.3406L26.9065 40.555C27.0207 40.4882 27.1461 40.4548 27.2714 40.4548L27.2741 40.452ZM41.2958 49.4822H35.8365C34.0649 49.4822 32.6221 48.0394 32.6221 46.2679V45.2262C30.6305 44.5131 28.8061 43.4574 27.1878 42.0814L26.2798 42.6051C25.5388 43.0312 24.6726 43.1454 23.8425 42.9226C23.0097 42.6998 22.3161 42.1678 21.8899 41.4268L19.1602 36.7C18.2745 35.1653 18.8037 33.1959 20.3357 32.3074L21.2381 31.7865C21.0515 30.7559 20.9568 29.7002 20.9568 28.6474C20.9568 27.5945 21.0515 26.5388 21.2353 25.5083L20.3329 24.9874C18.7981 24.1016 18.2717 22.1323 19.1547 20.5976L21.8844 15.868C22.7701 14.3333 24.7394 13.8068 26.2741 14.6926L27.1821 15.2163C28.8004 13.8403 30.6249 12.7846 32.6165 12.0715V11.0298C32.6165 9.25824 34.0593 7.81543 35.8308 7.81543H41.2902C43.0617 7.81543 44.5045 9.25824 44.5045 11.0298V12.0715C46.4961 12.7846 48.3206 13.8375 49.9389 15.2163L50.8469 14.6926C52.3816 13.8068 54.3509 14.3361 55.2366 15.8708L57.9663 20.5976C58.3925 21.3386 58.5067 22.2048 58.2839 23.0376C58.061 23.8677 57.529 24.5613 56.7881 24.9902L55.8856 25.5111C56.0722 26.5445 56.1642 27.5974 56.1642 28.6502C56.1642 29.7031 56.0694 30.756 55.8856 31.7893L56.7881 32.3102C58.3228 33.196 58.8492 35.1653 57.9635 36.7L55.2338 41.4296C54.8076 42.1705 54.1141 42.7026 53.2812 42.9254C52.4511 43.1482 51.5849 43.034 50.844 42.6079L49.9387 42.0842C48.3204 43.4602 46.4932 44.513 44.5016 45.229V46.2707C44.5016 48.0422 43.0588 49.485 41.2873 49.485L41.2958 49.4822Z" fill="black"/>
<path fill-rule="evenodd" clip-rule="evenodd" d="M38.5672 17.7778C32.573 17.7778 27.6958 22.6551 27.6958 28.6492C27.6958 34.6434 32.573 39.5206 38.5672 39.5206C44.5613 39.5206 49.4386 34.6434 49.4386 28.6492C49.4386 22.6551 44.5613 17.7778 38.5672 17.7778ZM38.5672 40.9859C31.7652 40.9859 26.2305 35.4514 26.2305 28.6492C26.2305 21.8472 31.7651 16.3125 38.5672 16.3125C45.3693 16.3125 50.9039 21.8471 50.9039 28.6492C50.9039 35.4512 45.3693 40.9859 38.5672 40.9859Z" fill="black"/>
<path fill-rule="evenodd" clip-rule="evenodd" d="M27.2741 57.8104H17.4552C17.0513 57.8104 16.7227 57.4845 16.7227 57.0779C16.7227 56.674 17.0513 56.3454 17.4552 56.3454H26.5411V41.1842C26.5411 40.7803 26.8669 40.4517 27.2736 40.4517C27.6775 40.4517 28.0061 40.7803 28.0061 41.1842V57.0777C28.0061 57.4843 27.6779 57.8104 27.2741 57.8104Z" fill="black"/>
<path fill-rule="evenodd" clip-rule="evenodd" d="M59.6803 57.8126H49.8614C49.4575 57.8126 49.1289 57.484 49.1289 57.0801V41.1866C49.1289 40.7827 49.4576 40.4541 49.8614 40.4541C50.2653 40.4541 50.594 40.7828 50.594 41.1866V56.3478H59.6798C60.0837 56.3478 60.4124 56.6765 60.4124 57.0803C60.4124 57.4842 60.0842 57.8126 59.6803 57.8126Z" fill="black"/>
<path fill-rule="evenodd" clip-rule="evenodd" d="M38.5685 62.7663C38.1646 62.7663 37.8359 62.4376 37.8359 62.0338V48.7501C37.8359 48.3462 38.1646 48.0176 38.5685 48.0176C38.9751 48.0176 39.301 48.3463 39.301 48.7501V62.0338C39.301 62.4377 38.9751 62.7663 38.5685 62.7663Z" fill="black"/>
<path fill-rule="evenodd" clip-rule="evenodd" d="M12.9307 53.2881C10.8389 53.2881 9.13701 54.99 9.13701 57.0818C9.13701 59.1737 10.8389 60.8755 12.9307 60.8755C15.0226 60.8755 16.7244 59.1737 16.7244 57.0818C16.7244 54.9928 15.0226 53.2881 12.9307 53.2881ZM12.9307 62.3404C10.0311 62.3404 7.67188 59.9812 7.67188 57.0816C7.67188 54.182 10.0311 51.8228 12.9307 51.8228C15.8303 51.8228 18.1896 54.182 18.1896 57.0816C18.1896 59.9812 15.8303 62.3404 12.9307 62.3404Z" fill="black"/>
<path fill-rule="evenodd" clip-rule="evenodd" d="M64.2042 53.2875C62.1151 53.2875 60.4104 54.9894 60.4104 57.0813C60.4104 59.1731 62.1123 60.875 64.2042 60.875C66.296 60.875 67.9979 59.1731 67.9979 57.0813C67.9979 54.9894 66.296 53.2875 64.2042 53.2875ZM64.2042 62.337C61.3046 62.337 58.9453 59.9778 58.9453 57.0782C58.9453 54.1786 61.3046 51.8193 64.2042 51.8193C67.1038 51.8193 69.463 54.1786 69.463 57.0782C69.463 59.9778 67.1038 62.337 64.2042 62.337Z" fill="black"/>
<path fill-rule="evenodd" clip-rule="evenodd" d="M38.5635 62.7665C36.4745 62.7665 34.7698 64.4684 34.7698 66.5603C34.7698 68.6521 36.4717 70.354 38.5635 70.354C40.6554 70.354 42.3572 68.6521 42.3572 66.5603C42.3572 64.4684 40.6554 62.7665 38.5635 62.7665ZM38.5635 71.816C35.6639 71.816 33.3047 69.4568 33.3047 66.5572C33.3047 63.6576 35.6639 61.2983 38.5635 61.2983C41.4631 61.2983 43.8224 63.6576 43.8224 66.5572C43.8224 69.4568 41.4631 71.816 38.5635 71.816Z" fill="black"/>
</g>
</svg>
