<svg width="92" height="92" viewBox="0 0 92 92" fill="none" xmlns="http://www.w3.org/2000/svg">
<mask id="mask0_7401_56002" style="mask-type:alpha" maskUnits="userSpaceOnUse" x="0" y="0" width="92" height="92">
<rect width="92" height="92" fill="black"/>
</mask>
<g mask="url(#mask0_7401_56002)">
<path d="M46.0128 23C39.9685 23 35.0547 27.9139 35.0547 33.9581C35.0547 39.8871 39.6917 44.6856 45.736 44.8932C45.9205 44.8701 46.1051 44.8701 46.2435 44.8932C46.2897 44.8932 46.3127 44.8932 46.3589 44.8932C46.3819 44.8932 46.3819 44.8932 46.405 44.8932C52.3109 44.6856 56.9479 39.8871 56.9709 33.9581C56.9709 27.9139 52.0571 23 46.0128 23Z" fill="black"/>
<path d="M57.7301 51.0307C51.2936 46.7398 40.7969 46.7398 34.3143 51.0307C31.3844 52.9917 29.7695 55.6447 29.7695 58.4823C29.7695 61.3198 31.3844 63.9498 34.2912 65.8876C37.521 68.0562 41.7658 69.1405 46.0106 69.1405C50.2555 69.1405 54.5003 68.0562 57.7301 65.8876C60.6369 63.9267 62.2517 61.2968 62.2517 58.4361C62.2287 55.5985 60.6369 52.9686 57.7301 51.0307Z" fill="black"/>
<path d="M71.3619 35.317C71.731 39.7926 68.5474 43.7144 64.1411 44.245C64.118 44.245 64.118 44.245 64.0949 44.245H64.0257C63.8873 44.245 63.7489 44.245 63.6335 44.2912C61.3958 44.4065 59.3425 43.6914 57.7969 42.3764C60.1731 40.254 61.5342 37.0703 61.2573 33.6099C61.0958 31.7412 60.4499 30.0341 59.481 28.5807C60.3576 28.1424 61.3727 27.8655 62.4108 27.7732C66.9325 27.3811 70.9697 30.7492 71.3619 35.317Z" fill="black"/>
<path d="M75.9753 56.6591C75.7908 58.8969 74.3604 60.8347 71.9612 62.1497C69.6542 63.4185 66.7474 64.0183 63.8637 63.9491C65.5247 62.4496 66.4937 60.581 66.6782 58.597C66.9089 55.7363 65.5478 52.991 62.8256 50.7994C61.2799 49.5767 59.4805 48.6078 57.5195 47.8926C62.6179 46.4161 69.0313 47.4081 72.9763 50.5918C75.0987 52.2989 76.183 54.4444 75.9753 56.6591Z" fill="black"/>
<path d="M20.6342 35.317C20.2651 39.7926 23.4487 43.7144 27.855 44.245C27.8781 44.245 27.8781 44.245 27.9012 44.245H27.9704C28.1088 44.245 28.2472 44.245 28.3626 44.2912C30.6003 44.4065 32.6535 43.6914 34.1992 42.3764C31.823 40.254 30.4619 37.0703 30.7388 33.6099C30.9002 31.7412 31.5462 30.0341 32.5151 28.5807C31.6385 28.1424 30.6234 27.8655 29.5853 27.7732C25.0636 27.3811 21.0264 30.7492 20.6342 35.317Z" fill="black"/>
<path d="M16.0247 56.6591C16.2092 58.8969 17.6396 60.8347 20.0388 62.1497C22.3458 63.4185 25.2526 64.0183 28.1363 63.9491C26.4753 62.4496 25.5063 60.581 25.3218 58.597C25.0911 55.7363 26.4522 52.991 29.1744 50.7994C30.7201 49.5767 32.5195 48.6078 34.4805 47.8926C29.3821 46.4161 22.9687 47.4081 19.0237 50.5918C16.9013 52.2989 15.817 54.4444 16.0247 56.6591Z" fill="black"/>
</g>
</svg>
