<svg width="92" height="92" viewBox="0 0 92 92" fill="none" xmlns="http://www.w3.org/2000/svg">
<mask id="mask0_7401_56027" style="mask-type:alpha" maskUnits="userSpaceOnUse" x="0" y="0" width="92" height="92">
<rect width="92" height="92" fill="black"/>
</mask>
<g mask="url(#mask0_7401_56027)">
<path fill-rule="evenodd" clip-rule="evenodd" d="M16 26C16 20.4771 20.4771 16 26 16H58C63.5228 16 68 20.4771 68 26V59.65C68 59.709 67.9974 59.7673 67.9924 59.825C67.9974 59.8827 68 59.941 68 60C68 61.1046 67.1046 62 66 62H25C22.2386 62 20 64.2386 20 67C20 69.7614 22.2386 72 25 72H68C70.2091 72 72 70.2091 72 68V29.5C72 28.3954 72.8954 27.5 74 27.5C75.1046 27.5 76 28.3954 76 29.5V68C76 72.4183 72.4183 76 68 76H25C20.0294 76 16 71.9706 16 67V26ZM39.5364 31.7196C38.8293 30.8711 37.5682 30.7564 36.7196 31.4636L32.5634 34.9271C30.6443 36.5263 30.6443 39.4737 32.5634 41.0729L36.7196 44.5364C37.5682 45.2436 38.8293 45.1289 39.5364 44.2804C40.2436 43.4318 40.1289 42.1707 39.2804 41.4636L35.1241 38L39.2804 34.5364C40.1289 33.8293 40.2436 32.5682 39.5364 31.7196ZM47.2804 31.4636C46.4318 30.7564 45.1707 30.8711 44.4636 31.7196C43.7564 32.5682 43.8711 33.8293 44.7196 34.5364L48.8759 38L44.7196 41.4636C43.8711 42.1707 43.7564 43.4318 44.4636 44.2804C45.1707 45.1289 46.4318 45.2436 47.2804 44.5364L51.4366 41.0729C53.3557 39.4737 53.3557 36.5263 51.4366 34.9271L47.2804 31.4636Z" fill="black"/>
<path d="M24 67C24 65.8954 24.8954 65 26 65H66C67.1046 65 68 65.8954 68 67C68 68.1046 67.1046 69 66 69H26C24.8954 69 24 68.1046 24 67Z" fill="black"/>
</g>
</svg>
