<svg width="92" height="92" viewBox="0 0 92 92" fill="none" xmlns="http://www.w3.org/2000/svg">
<mask id="mask0_7401_56054" style="mask-type:alpha" maskUnits="userSpaceOnUse" x="0" y="0" width="92" height="92">
<rect width="92" height="92" fill="black"/>
</mask>
<g mask="url(#mask0_7401_56054)">
</g>
<path d="M61 29.125H51.625C51.1277 29.125 50.6508 29.3226 50.2992 29.6742C49.9475 30.0258 49.75 30.5028 49.75 31C49.75 31.4973 49.9475 31.9742 50.2992 32.3259C50.6508 32.6775 51.1277 32.875 51.625 32.875H56.4813L46.5438 42.8125C45.7895 42.4472 44.9631 42.255 44.125 42.25H25.375C23.8832 42.25 22.4524 42.8427 21.3975 43.8976C20.3426 44.9524 19.75 46.3832 19.75 47.875V66.625C19.75 68.1169 20.3426 69.5476 21.3975 70.6025C22.4524 71.6574 23.8832 72.25 25.375 72.25H44.125C45.6168 72.25 47.0476 71.6574 48.1025 70.6025C49.1574 69.5476 49.75 68.1169 49.75 66.625V47.875C49.7487 47.0425 49.5563 46.2214 49.1875 45.475L59.125 35.5188V40.375C59.125 40.8723 59.3225 41.3492 59.6742 41.7009C60.0258 42.0525 60.5027 42.25 61 42.25C61.4973 42.25 61.9742 42.0525 62.3258 41.7009C62.6775 41.3492 62.875 40.8723 62.875 40.375V31C62.8681 30.5036 62.6739 30.0281 62.3312 29.6688C62.156 29.495 61.9483 29.3575 61.7198 29.2642C61.4914 29.1709 61.2468 29.1236 61 29.125Z" fill="black"/>
<path d="M21.625 38.5C22.1223 38.5 22.5992 38.3025 22.9508 37.9508C23.3025 37.5992 23.5 37.1223 23.5 36.625V32.875C23.5 32.3777 23.3025 31.9008 22.9508 31.5492C22.5992 31.1975 22.1223 31 21.625 31C21.1277 31 20.6508 31.1975 20.2992 31.5492C19.9475 31.9008 19.75 32.3777 19.75 32.875V36.625C19.75 37.1223 19.9475 37.5992 20.2992 37.9508C20.6508 38.3025 21.1277 38.5 21.625 38.5Z" fill="black"/>
<path d="M70.375 31C69.8777 31 69.4008 31.1975 69.0492 31.5492C68.6975 31.9008 68.5 32.3777 68.5 32.875V36.625C68.5 37.1223 68.6975 37.5992 69.0492 37.9508C69.4008 38.3025 69.8777 38.5 70.375 38.5C70.8723 38.5 71.3492 38.3025 71.7008 37.9508C72.0525 37.5992 72.25 37.1223 72.25 36.625V32.875C72.25 32.3777 72.0525 31.9008 71.7008 31.5492C71.3492 31.1975 70.8723 31 70.375 31Z" fill="black"/>
<path d="M70.375 53.5C69.8777 53.5 69.4008 53.6975 69.0492 54.0492C68.6975 54.4008 68.5 54.8777 68.5 55.375V59.125C68.5 59.6223 68.6975 60.0992 69.0492 60.4508C69.4008 60.8025 69.8777 61 70.375 61C70.8723 61 71.3492 60.8025 71.7008 60.4508C72.0525 60.0992 72.25 59.6223 72.25 59.125V55.375C72.25 54.8777 72.0525 54.4008 71.7008 54.0492C71.3492 53.6975 70.8723 53.5 70.375 53.5Z" fill="black"/>
<path d="M70.375 42.25C69.8777 42.25 69.4008 42.4475 69.0492 42.7992C68.6975 43.1508 68.5 43.6277 68.5 44.125V47.875C68.5 48.3723 68.6975 48.8492 69.0492 49.2008C69.4008 49.5525 69.8777 49.75 70.375 49.75C70.8723 49.75 71.3492 49.5525 71.7008 49.2008C72.0525 48.8492 72.25 48.3723 72.25 47.875V44.125C72.25 43.6277 72.0525 43.1508 71.7008 42.7992C71.3492 42.4475 70.8723 42.25 70.375 42.25Z" fill="black"/>
<path d="M55.375 23.5H59.125C59.6223 23.5 60.0992 23.3025 60.4508 22.9508C60.8025 22.5992 61 22.1223 61 21.625C61 21.1277 60.8025 20.6508 60.4508 20.2992C60.0992 19.9475 59.6223 19.75 59.125 19.75H55.375C54.8777 19.75 54.4008 19.9475 54.0492 20.2992C53.6975 20.6508 53.5 21.1277 53.5 21.625C53.5 22.1223 53.6975 22.5992 54.0492 22.9508C54.4008 23.3025 54.8777 23.5 55.375 23.5Z" fill="black"/>
<path d="M32.875 23.5H36.625C37.1223 23.5 37.5992 23.3025 37.9508 22.9508C38.3025 22.5992 38.5 22.1223 38.5 21.625C38.5 21.1277 38.3025 20.6508 37.9508 20.2992C37.5992 19.9475 37.1223 19.75 36.625 19.75H32.875C32.3777 19.75 31.9008 19.9475 31.5492 20.2992C31.1975 20.6508 31 21.1277 31 21.625C31 22.1223 31.1975 22.5992 31.5492 22.9508C31.9008 23.3025 32.3777 23.5 32.875 23.5Z" fill="black"/>
<path d="M44.125 23.5H47.875C48.3723 23.5 48.8492 23.3025 49.2008 22.9508C49.5525 22.5992 49.75 22.1223 49.75 21.625C49.75 21.1277 49.5525 20.6508 49.2008 20.2992C48.8492 19.9475 48.3723 19.75 47.875 19.75H44.125C43.6277 19.75 43.1508 19.9475 42.7992 20.2992C42.4475 20.6508 42.25 21.1277 42.25 21.625C42.25 22.1223 42.4475 22.5992 42.7992 22.9508C43.1508 23.3025 43.6277 23.5 44.125 23.5Z" fill="black"/>
<path d="M59.125 68.5H55.375C54.8777 68.5 54.4008 68.6975 54.0492 69.0492C53.6975 69.4008 53.5 69.8777 53.5 70.375C53.5 70.8723 53.6975 71.3492 54.0492 71.7008C54.4008 72.0525 54.8777 72.25 55.375 72.25H59.125C59.6223 72.25 60.0992 72.0525 60.4508 71.7008C60.8025 71.3492 61 70.8723 61 70.375C61 69.8777 60.8025 69.4008 60.4508 69.0492C60.0992 68.6975 59.6223 68.5 59.125 68.5Z" fill="black"/>
<path d="M70.375 64.75C69.8777 64.75 69.4008 64.9475 69.0492 65.2992C68.6975 65.6508 68.5 66.1277 68.5 66.625C68.5 67.1223 68.3025 67.5992 67.9508 67.9508C67.5992 68.3025 67.1223 68.5 66.625 68.5C66.1277 68.5 65.6508 68.6975 65.2992 69.0492C64.9475 69.4008 64.75 69.8777 64.75 70.375C64.75 70.8723 64.9475 71.3492 65.2992 71.7008C65.6508 72.0525 66.1277 72.25 66.625 72.25C68.1168 72.25 69.5476 71.6574 70.6025 70.6025C71.6574 69.5476 72.25 68.1168 72.25 66.625C72.25 66.1277 72.0525 65.6508 71.7008 65.2992C71.3492 64.9475 70.8723 64.75 70.375 64.75Z" fill="black"/>
<path d="M66.625 23.5C67.1223 23.5 67.5992 23.6975 67.9508 24.0492C68.3025 24.4008 68.5 24.8777 68.5 25.375C68.5 25.8723 68.6975 26.3492 69.0492 26.7008C69.4008 27.0525 69.8777 27.25 70.375 27.25C70.8723 27.25 71.3492 27.0525 71.7008 26.7008C72.0525 26.3492 72.25 25.8723 72.25 25.375C72.25 23.8832 71.6574 22.4524 70.6025 21.3975C69.5476 20.3426 68.1168 19.75 66.625 19.75C66.1277 19.75 65.6508 19.9475 65.2992 20.2992C64.9475 20.6508 64.75 21.1277 64.75 21.625C64.75 22.1223 64.9475 22.5992 65.2992 22.9508C65.6508 23.3025 66.1277 23.5 66.625 23.5Z" fill="black"/>
<path d="M21.625 27.25C22.1223 27.25 22.5992 27.0525 22.9508 26.7008C23.3025 26.3492 23.5 25.8723 23.5 25.375C23.5 24.8777 23.6975 24.4008 24.0492 24.0492C24.4008 23.6975 24.8777 23.5 25.375 23.5C25.8723 23.5 26.3492 23.3025 26.7008 22.9508C27.0525 22.5992 27.25 22.1223 27.25 21.625C27.25 21.1277 27.0525 20.6508 26.7008 20.2992C26.3492 19.9475 25.8723 19.75 25.375 19.75C23.8832 19.75 22.4524 20.3426 21.3975 21.3975C20.3426 22.4524 19.75 23.8832 19.75 25.375C19.75 25.8723 19.9475 26.3492 20.2992 26.7008C20.6508 27.0525 21.1277 27.25 21.625 27.25Z" fill="black"/>
</svg>
