<svg width="80" height="80" viewBox="0 0 80 80" fill="none" xmlns="http://www.w3.org/2000/svg">
<mask id="mask0_7380_55930" style="mask-type:alpha" maskUnits="userSpaceOnUse" x="-1" y="-1" width="82" height="82">
<rect width="80" height="80" fill="white" stroke="white" stroke-width="2"/>
</mask>
<g mask="url(#mask0_7380_55930)">
<path d="M64.2522 10H50.0335C46.8642 10 44.2857 12.5784 44.2857 15.7476V30.8163H43.4567C40.5379 30.8163 38.1633 33.191 38.1633 36.1097V46.3391C38.1633 47.7733 37.0961 48.9623 35.7143 49.1555V34.115C35.7143 30.9458 33.1359 28.3673 29.9665 28.3673H15.7478C12.5784 28.3673 10 30.9458 10 34.115V64.2521C10 67.4215 12.5784 70 15.7478 70H29.9665C33.1359 70 35.7143 67.4215 35.7143 64.2522V51.6164C38.4489 51.4132 40.6122 49.1248 40.6122 46.3392V36.1098C40.6122 34.5413 41.8883 33.2653 43.4567 33.2653H44.2857V45.8849C44.2857 49.0542 46.8642 51.6327 50.0335 51.6327H64.2522C67.4216 51.6327 70 49.0541 70 45.8849V15.7476C70 12.5784 67.4215 10 64.2522 10ZM26.9878 49.1837C26.4427 47.0736 24.5229 45.5102 22.2449 45.5102C19.5442 45.5102 17.3469 47.7074 17.3469 50.4082C17.3469 53.1089 19.5442 55.3061 22.2449 55.3061C24.5229 55.3061 26.4427 53.7427 26.9878 51.6327H33.2653V60.2041H12.449V38.1633H33.2653V49.1837H26.9878ZM55.6648 35.3556C55.7784 35.4695 55.9133 35.5598 56.0619 35.6214C56.2105 35.6829 56.3698 35.7145 56.5306 35.7143C56.6914 35.7145 56.8507 35.6829 56.9993 35.6214C57.1479 35.5598 57.2829 35.4695 57.3965 35.3556L59.8454 32.9067C59.8508 32.9013 59.8553 32.8953 59.8606 32.8898C59.8834 32.8665 59.9053 32.8424 59.9261 32.8174C59.9395 32.8012 59.9511 32.7842 59.9635 32.7674C59.9749 32.7521 59.9867 32.7371 59.9975 32.7213C60.0102 32.7023 60.0213 32.6827 60.0328 32.6631C60.0416 32.6482 60.0509 32.6337 60.0591 32.6185C60.0695 32.5991 60.0784 32.5791 60.0878 32.5591C60.0955 32.5427 60.1037 32.5266 60.1107 32.5098C60.1186 32.4907 60.125 32.4712 60.132 32.4518C60.1385 32.4334 60.1455 32.4154 60.1512 32.3967C60.1571 32.3772 60.1615 32.3573 60.1664 32.3378C60.1711 32.3187 60.1765 32.2999 60.1803 32.2804C60.1849 32.2576 60.1877 32.2345 60.1909 32.2115C60.1932 32.195 60.1964 32.1787 60.198 32.162C60.2059 32.0815 60.2059 32.0003 60.198 31.9197C60.1964 31.9029 60.1932 31.8868 60.1909 31.8702C60.1877 31.8472 60.1849 31.8241 60.1803 31.8013C60.1765 31.7818 60.1711 31.7631 60.1664 31.744C60.1615 31.7243 60.1571 31.7046 60.1512 31.6851C60.1455 31.6664 60.1385 31.6484 60.132 31.6301C60.125 31.6107 60.1186 31.5911 60.1107 31.5718C60.1037 31.5551 60.0955 31.539 60.0879 31.5227C60.0786 31.5028 60.0696 31.4827 60.0592 31.4632C60.051 31.4479 60.0417 31.4335 60.0329 31.4187C60.0214 31.3992 60.0102 31.3795 59.9976 31.3605C59.987 31.3446 59.975 31.3296 59.9636 31.3143C59.9512 31.2977 59.9396 31.2807 59.9262 31.2644C59.9055 31.2391 59.8834 31.2154 59.8607 31.192C59.8555 31.1865 59.8509 31.1805 59.8456 31.1751L57.3966 28.7261C56.9183 28.2481 56.1432 28.2481 55.6648 28.7261C55.1866 29.2043 55.1866 29.9796 55.6648 30.4579L56.0234 30.8166H46.7347V19.7959H67.551V41.8367H46.7347V33.2653H56.0233L55.6647 33.624C55.1865 34.1021 55.1865 34.8775 55.6648 35.3556Z" fill="black"/>
</g>
</svg>
