<svg width="76" height="76" viewBox="0 0 76 76" fill="none" xmlns="http://www.w3.org/2000/svg">
<mask id="mask0_7039_91129" style="mask-type:alpha" maskUnits="userSpaceOnUse" x="-1" y="-1" width="78" height="78">
<rect width="76" height="76" fill="white" stroke="white" stroke-width="2"/>
</mask>
<g mask="url(#mask0_7039_91129)">
<path fill-rule="evenodd" clip-rule="evenodd" d="M29.4655 13.8073C29.6176 13.8113 29.7691 13.8416 29.9108 13.8969C30.0526 13.9521 30.1847 14.0321 30.2994 14.1322C30.414 14.2323 30.5111 14.3524 30.5849 14.4855C30.6588 14.6186 30.7093 14.7645 30.7336 14.9147C30.7579 15.065 30.7559 15.2194 30.7278 15.369C30.6997 15.5185 30.6454 15.6631 30.5681 15.7942C30.4137 16.0565 30.1656 16.2622 29.8793 16.3654C22.5454 19.1287 17.32 26.21 17.32 34.5291C17.32 40.1652 19.7192 45.2231 23.5484 48.7744C23.706 48.9206 23.827 49.1058 23.8975 49.3088C23.968 49.5118 23.9877 49.7323 23.9546 49.9445L22.2801 60.6633L42.834 66.0286L43.8202 58.4747C43.8439 58.2933 43.9059 58.117 44.0009 57.9607C44.0959 57.8044 44.2239 57.6682 44.374 57.5637C44.5241 57.4592 44.6962 57.3863 44.8758 57.3515C45.0553 57.3165 45.2422 57.3199 45.4205 57.3601L51.5664 58.7616L52.6187 52.3293C52.6436 52.1766 52.6958 52.0284 52.7719 51.8936C52.848 51.7589 52.9481 51.6377 53.0661 51.5375C53.184 51.4373 53.3197 51.3582 53.4649 51.3048C53.6101 51.2514 53.7648 51.2238 53.9196 51.2238H58.2931L55.8198 39.4733C55.7979 39.3697 55.7887 39.2634 55.7922 39.1574L56.0196 32.4054C55.2448 25.2762 50.607 19.3093 44.2465 16.6299C44.0849 16.5647 43.9365 16.4671 43.8127 16.3446C43.6888 16.222 43.5896 16.0747 43.5227 15.9138C43.4558 15.7529 43.4212 15.5787 43.4216 15.4045C43.4222 15.2303 43.4573 15.0562 43.5249 14.8956C43.5926 14.7351 43.6925 14.5881 43.8168 14.4662C43.9412 14.3442 44.09 14.2472 44.2519 14.1827C44.4138 14.1183 44.5885 14.0862 44.7627 14.0893C44.9369 14.0926 45.1104 14.1303 45.2699 14.2003C52.5274 17.2576 57.8034 24.0798 58.6514 32.2171C58.6577 32.2772 58.6599 32.3378 58.6578 32.3982L58.4325 39.087L61.2073 52.2706C61.2475 52.4617 61.2446 52.6618 61.1986 52.8517C61.1528 53.0415 61.064 53.2209 60.9409 53.3726C60.8178 53.5243 60.6606 53.648 60.4842 53.732C60.3079 53.816 60.1127 53.8602 59.9174 53.8602H55.0396L53.9418 60.5717C53.9129 60.7487 53.8473 60.9196 53.7504 61.0706C53.6536 61.2215 53.5255 61.3524 53.3767 61.4525C53.2279 61.5527 53.0584 61.622 52.8821 61.6548C52.7058 61.6878 52.5227 61.6838 52.3478 61.6443L46.2469 60.2527L45.2547 67.8521C45.2306 68.0369 45.1667 68.2164 45.0687 68.3748C44.9706 68.5333 44.8386 68.6706 44.684 68.7747C44.5295 68.8788 44.3526 68.9497 44.1689 68.981C43.9852 69.0126 43.7949 69.004 43.6146 68.9572L20.4606 62.9133C20.3043 62.8724 20.1556 62.8026 20.0244 62.7085C19.8933 62.6142 19.7797 62.4956 19.6911 62.3605C19.6026 62.2254 19.5391 62.074 19.505 61.9161C19.4709 61.7582 19.4661 61.5941 19.491 61.4344L21.2436 50.2166C17.199 46.2178 14.6836 40.6601 14.6836 34.5293C14.6836 25.1055 20.6103 17.0408 28.9497 13.8986C29.1133 13.8343 29.2898 13.8029 29.4655 13.8073Z" fill="black"/>
<path fill-rule="evenodd" clip-rule="evenodd" d="M40.5024 11.0002C40.675 11.0002 40.8474 11.0345 41.0068 11.1005C41.1663 11.1666 41.3124 11.2643 41.4345 11.3863C41.5565 11.5083 41.6542 11.6545 41.7202 11.8139C41.7863 11.9733 41.8206 12.1458 41.8206 12.3184V31.7497C44.5205 33.2627 46.3552 36.1515 46.3552 39.4534C46.3552 42.2398 45.0514 44.731 43.0249 46.3516L46.0994 51.6726C46.1882 51.8221 46.2471 51.9894 46.2714 52.1615C46.2958 52.3337 46.2856 52.5108 46.2417 52.6791C46.1977 52.8473 46.1201 53.0067 46.0147 53.145C45.9093 53.2834 45.7762 53.4006 45.6256 53.4876C45.475 53.5746 45.3071 53.6314 45.1346 53.6536C44.9621 53.676 44.7852 53.6635 44.6175 53.6173C44.4498 53.5712 44.2914 53.4918 44.1543 53.3847C44.0173 53.2776 43.9018 53.1431 43.8166 52.9915L40.7444 47.6744C39.7452 48.0684 38.6585 48.2851 37.5233 48.2851C32.6596 48.2851 28.6914 44.317 28.6914 39.4532C28.6914 36.1514 30.5247 33.2617 33.226 31.7488V12.3182C33.226 12.1456 33.2603 11.9732 33.3264 11.8138C33.3924 11.6544 33.4901 11.5082 33.6121 11.3861C33.7342 11.2641 33.8803 11.1665 34.0398 11.1004C34.1991 11.0344 34.3716 11 34.5442 11L40.5024 11.0002ZM39.1842 13.6365H35.8624V30.7858C36.4007 30.6826 36.9557 30.628 37.5233 30.628C38.0907 30.628 38.6459 30.6827 39.1842 30.786V13.6365ZM37.5233 33.2644C34.0824 33.2644 31.3278 36.0202 31.3278 39.4534C31.3278 42.8942 34.0824 45.6488 37.5233 45.6488C40.9565 45.6488 43.7188 42.8929 43.7188 39.4534C43.7188 36.0216 40.9565 33.2644 37.5233 33.2644Z" fill="black"/>
</g>
</svg>
