<svg width="175" height="120" viewBox="0 0 175 120" fill="none" xmlns="http://www.w3.org/2000/svg">
<mask id="mask0_6857_55515" style="mask-type:alpha" maskUnits="userSpaceOnUse" x="0" y="0" width="175" height="120">
<rect width="175" height="120" fill="#D9D9D9"/>
</mask>
<g mask="url(#mask0_6857_55515)">
</g>
<g clip-path="url(#clip0_6857_55515)">
<path d="M112.224 65.1355C111.922 64.2199 111.13 63.5822 110.105 63.4291C109.623 63.3571 109.07 63.3878 108.415 63.5227C107.274 63.7581 106.428 63.8477 105.81 63.865C108.142 59.9289 110.037 55.4405 111.129 51.2153C112.893 44.3833 111.95 41.2709 110.848 39.8631C107.932 36.1368 103.677 34.135 98.5445 34.0737C95.8063 34.0403 93.4025 34.5809 92.1486 34.9697C90.981 34.7637 89.7257 34.6486 88.4085 34.6274C85.9393 34.588 83.7577 35.1262 81.8936 36.2325C80.8616 35.8835 79.2052 35.3915 77.2924 35.0776C72.7937 34.339 69.1678 34.9145 66.5157 36.7881C63.3043 39.0566 61.8155 42.9979 62.0908 48.5027C62.1783 50.2504 63.1559 55.5681 64.6953 60.6112C65.58 63.5099 66.5234 65.917 67.4993 67.7664C68.8833 70.3888 70.3641 71.9331 72.0266 72.4877C72.9583 72.7981 74.6513 73.0155 76.432 71.5325C76.6577 71.8058 76.9588 72.0774 77.3584 72.3297C77.8659 72.6498 78.4865 72.9113 79.1063 73.0663C81.3399 73.6247 83.4321 73.485 85.2171 72.7023C85.2281 73.0198 85.2366 73.3231 85.2437 73.5851C85.2555 74.0099 85.2673 74.4264 85.2829 74.816C85.3887 77.45 85.5679 79.4981 86.0989 80.9311C86.128 81.0099 86.1672 81.13 86.2086 81.2575C86.4734 82.0685 86.9164 83.4263 88.0433 84.4896C89.2103 85.5911 90.6218 85.9289 91.9146 85.9289C92.5629 85.9289 93.1816 85.8438 93.7242 85.7276C95.6582 85.313 97.8548 84.6816 99.4438 82.4191C100.946 80.2802 101.676 77.0587 101.809 71.9827C101.826 71.8391 101.841 71.702 101.857 71.5715L101.888 71.3032L102.242 71.3343L102.333 71.3404C104.303 71.4302 106.712 71.0125 108.191 70.3254C109.36 69.783 113.106 67.8054 112.224 65.1355Z" fill="black"/>
<path d="M108.855 65.6533C102.998 66.8616 102.595 64.8785 102.595 64.8785C108.779 55.7021 111.364 44.0538 109.133 41.203C103.047 33.4264 92.5111 37.1043 92.3352 37.1996L92.2787 37.2098C91.1214 36.9695 89.8265 36.8266 88.3708 36.8027C85.7207 36.7594 83.7102 37.4976 82.1846 38.6545C82.1846 38.6545 63.3897 30.9116 64.264 48.3925C64.4499 52.1113 69.5942 76.5313 75.73 69.1553C77.9727 66.4581 80.1397 64.1776 80.1397 64.1776C81.2158 64.8925 82.5043 65.2573 83.855 65.1263L83.9599 65.0373C83.9272 65.3721 83.9422 65.6996 84.0019 66.0874C82.4212 67.8535 82.8858 68.1635 79.7259 68.814C76.5284 69.473 78.4067 70.646 79.6331 70.9529C81.1199 71.3245 84.5595 71.8512 86.8835 68.5977L86.7909 68.969C87.4101 69.4651 87.845 72.1956 87.7721 74.6711C87.6992 77.1464 87.6506 78.8458 88.1384 80.1733C88.6267 81.5007 89.1129 84.4875 93.267 83.5975C96.7379 82.8536 98.5366 80.926 98.7869 77.7106C98.9644 75.4248 99.3663 75.7628 99.3916 73.719L99.714 72.7516C100.086 69.653 99.7731 68.6533 101.911 69.1183L102.431 69.164C104.005 69.2355 106.065 68.9107 107.274 68.3488C109.877 67.1407 111.421 65.1234 108.854 65.6533H108.855Z" fill="#336791"/>
<path d="M83.2848 50.0561C82.757 49.9827 82.279 50.0506 82.0371 50.2338C81.9012 50.3368 81.8591 50.4562 81.8477 50.5383C81.8173 50.7559 81.9698 50.9966 82.0635 51.1207C82.3286 51.472 82.7158 51.7135 83.0991 51.7667C83.1546 51.7745 83.21 51.7781 83.2649 51.7781C83.904 51.7781 84.4852 51.2804 84.5364 50.9131C84.6004 50.453 83.9326 50.1462 83.2848 50.0561ZM100.771 50.0707C100.72 49.7101 100.079 49.6073 99.4698 49.692C98.8616 49.7767 98.2719 50.0512 98.3212 50.4126C98.3606 50.6937 98.8681 51.1734 99.4688 51.1734C99.5196 51.1734 99.5708 51.1701 99.6224 51.1628C100.023 51.1073 100.318 50.8526 100.457 50.7059C100.67 50.4822 100.793 50.2328 100.771 50.0707Z" fill="white"/>
<path d="M110.805 65.5171C110.582 64.8418 109.863 64.6246 108.669 64.8711C105.123 65.603 103.853 65.0961 103.436 64.789C106.192 60.59 108.46 55.5142 109.683 50.7786C110.262 48.5353 110.583 46.452 110.609 44.7539C110.638 42.8901 110.32 41.5206 109.666 40.6839C107.026 37.3111 103.152 35.502 98.4626 35.4523C95.2387 35.4161 92.5149 36.2411 91.9869 36.4731C90.8749 36.1966 89.6627 36.0268 88.3429 36.0052C85.9228 35.966 83.8308 36.5454 82.0988 37.7265C81.3465 37.4464 79.4022 36.779 77.0244 36.3959C72.9136 35.7342 69.647 36.2356 67.3159 37.887C64.5344 39.8577 63.2503 43.3804 63.499 48.3569C63.5827 50.0312 64.5368 55.1818 66.0423 60.1144C68.024 66.6067 70.1782 70.2819 72.4447 71.038C72.71 71.1265 73.0159 71.1883 73.3532 71.1883C74.18 71.1883 75.1937 70.8157 76.2484 69.5477C77.5348 68.0045 78.8655 66.4988 80.2388 65.0324C81.1298 65.5106 82.1087 65.7777 83.1097 65.8045C83.1117 65.8307 83.1143 65.8569 83.1166 65.8829C82.9443 66.0884 82.7756 66.2968 82.6105 66.5082C81.9168 67.3888 81.7725 67.5721 79.5396 68.0318C78.9045 68.163 77.2176 68.5106 77.1928 69.6931C77.166 70.9851 79.1869 71.5277 79.4171 71.5852C80.2195 71.7861 80.9925 71.8851 81.7297 71.8851C83.5226 71.8851 85.1003 71.2958 86.3612 70.1557C86.3224 74.7616 86.5144 79.3001 87.0675 80.6829C87.5204 81.8149 88.6269 84.5815 92.122 84.5813C92.6348 84.5813 93.1993 84.5216 93.8203 84.3885C97.468 83.6066 99.0521 81.9944 99.6648 78.44C99.9927 76.5404 100.555 72.0045 100.82 69.5714C101.379 69.7457 102.098 69.8254 102.875 69.8252C104.496 69.8252 106.367 69.4808 107.54 68.9362C108.858 68.3241 111.237 66.8221 110.805 65.5171ZM102.119 49.0758C102.107 49.794 102.008 50.4461 101.903 51.1268C101.79 51.8589 101.674 52.6157 101.644 53.5345C101.615 54.4287 101.727 55.3583 101.835 56.2573C102.053 58.0732 102.277 59.9427 101.41 61.7873C101.266 61.5322 101.138 61.2685 101.026 60.9977C100.919 60.7366 100.685 60.3171 100.361 59.7365C99.1003 57.4763 96.149 52.1834 97.6598 50.0237C98.1099 49.3808 99.252 48.7199 102.119 49.0758ZM98.6438 36.9068C102.846 36.9996 106.169 38.5714 108.522 41.5785C110.327 43.8849 108.34 54.3798 102.586 63.4338C102.528 63.3602 102.47 63.2869 102.412 63.2138L102.339 63.1228C103.826 60.6674 103.535 58.2381 103.276 56.0842C103.17 55.2003 103.069 54.3654 103.095 53.5812C103.121 52.75 103.231 52.0371 103.338 51.3478C103.468 50.4983 103.601 49.6193 103.565 48.5832C103.592 48.4745 103.603 48.3461 103.589 48.1936C103.495 47.2 102.361 44.2263 100.048 41.5347C98.7836 40.0625 96.9392 38.415 94.4208 37.3039C95.504 37.0793 96.9853 36.87 98.6438 36.9068ZM75.1323 68.6197C73.9703 70.0169 73.1679 69.749 72.904 69.6612C71.1846 69.0876 69.1895 65.4535 67.4306 59.6908C65.9085 54.7044 65.0191 49.6902 64.9486 48.2842C64.7264 43.8375 65.8043 40.7385 68.1526 39.0731C71.9742 36.363 78.2573 37.9851 80.782 38.8078C80.7458 38.8436 80.7079 38.8771 80.6721 38.9135C76.5291 43.0975 76.6273 50.246 76.6376 50.6831C76.6372 50.8517 76.6514 51.0904 76.6707 51.4187C76.742 52.621 76.8747 54.8588 76.5202 57.393C76.1909 59.7479 76.9169 62.0528 78.5116 63.7168C78.6752 63.8873 78.8472 64.0495 79.027 64.2029C78.3172 64.9631 76.7745 66.6443 75.1323 68.6197ZM79.5595 62.7126C78.2742 61.3713 77.6905 59.5058 77.9577 57.5938C78.3319 54.9169 78.1939 52.5854 78.1196 51.3328C78.1092 51.1575 78.0999 51.0039 78.0946 50.8828C78.6998 50.3461 81.5046 48.8434 83.5048 49.3017C84.4175 49.5106 84.9737 50.1322 85.2049 51.2012C86.4016 56.7361 85.3633 59.043 84.529 60.8969C84.357 61.2788 84.1945 61.6398 84.0559 62.0132L83.9484 62.3019C83.6762 63.0318 83.4229 63.7105 83.2659 64.3549C81.8995 64.351 80.5703 63.7672 79.5595 62.7124V62.7126ZM79.7693 70.177C79.3703 70.0773 79.0114 69.9042 78.8009 69.7606C78.9768 69.6779 79.2897 69.5652 79.8325 69.4534C82.4592 68.9128 82.8649 68.5311 83.7508 67.4063C83.9539 67.1483 84.1841 66.856 84.503 66.4999L84.5034 66.4995C84.9782 65.9678 85.1954 66.058 85.5893 66.2214C85.9086 66.3534 86.2196 66.7536 86.3456 67.194C86.4053 67.4019 86.4723 67.7966 86.2531 68.1039C84.4025 70.695 81.7059 70.6617 79.7693 70.177ZM93.5162 82.9693C90.3028 83.6578 89.165 82.0182 88.4152 80.1438C87.9313 78.9338 87.6934 73.4771 87.8622 67.451C87.8643 67.3708 87.8529 67.2934 87.8308 67.2206C87.8111 67.0767 87.7811 66.9344 87.741 66.7947C87.4901 65.9179 86.8786 65.1845 86.1449 64.8804C85.8535 64.7597 85.3185 64.5381 84.6757 64.7026C84.8128 64.1377 85.0505 63.4998 85.3083 62.8091L85.4164 62.5186C85.5381 62.191 85.691 61.8517 85.8525 61.4925C86.7256 59.5529 87.9212 56.8962 86.6235 50.8946C86.1375 48.6466 84.5142 47.5488 82.0535 47.8038C80.5784 47.9565 79.2287 48.5517 78.5555 48.893C78.4107 48.9662 78.2784 49.0371 78.1547 49.1061C78.3426 46.8412 79.0524 42.6083 81.7077 39.9302C83.3796 38.2443 85.6061 37.4116 88.3189 37.4565C93.6641 37.5439 97.0918 40.2871 99.0263 42.5731C100.693 44.5428 101.596 46.527 101.956 47.5972C99.247 47.3217 97.4046 47.8564 96.4706 49.1918C94.4387 52.0964 97.5822 57.7339 99.093 60.4433C99.3701 60.9398 99.6092 61.369 99.6845 61.5514C100.176 62.7437 100.813 63.5398 101.278 64.1208C101.421 64.2988 101.559 64.4715 101.664 64.6224C100.844 64.8589 99.3701 65.4055 99.5045 68.1374C99.3961 69.5081 98.6259 75.9259 98.2345 78.1934C97.7179 81.189 96.6156 82.3048 93.5162 82.9695V82.9693ZM106.929 67.6198C106.09 68.0091 104.686 68.3012 103.352 68.364C101.879 68.433 101.129 68.199 100.953 68.055C100.87 66.3526 101.504 66.1748 102.174 65.9865C102.28 65.9569 102.382 65.928 102.482 65.8933C102.543 65.9435 102.611 65.9934 102.685 66.0422C103.869 66.8237 105.981 66.908 108.963 66.2925L108.995 66.286C108.593 66.662 107.905 67.1666 106.929 67.6198Z" fill="white"/>
</g>
<defs>
<clipPath id="clip0_6857_55515">
<rect width="50.4192" height="52" fill="white" transform="translate(62 34)"/>
</clipPath>
</defs>
</svg>
