<svg width="56" height="53" viewBox="0 0 56 53" fill="none" xmlns="http://www.w3.org/2000/svg">
<mask id="mask0_7197_55638" style="mask-type:alpha" maskUnits="userSpaceOnUse" x="0" y="0" width="56" height="53">
<rect width="56" height="53" fill="#D9D9D9"/>
</mask>
<g mask="url(#mask0_7197_55638)">
<path fill-rule="evenodd" clip-rule="evenodd" d="M28.8453 0.922363L5.46875 9.40124L9.03424 40.8395L28.8453 51.9999L48.6563 40.8395L52.2218 9.40124L28.8453 0.922363ZM35.6968 25.147L33.4543 24.6383L35.1985 27.1817V35.0663L41.1784 29.9795V21.3319L38.4376 22.3492L35.6968 25.147ZM23.9875 24.6383L21.745 25.147L19.0042 22.3492L16.2633 21.3319V29.9795L22.2434 35.0663V27.1817L23.9875 24.6383ZM22.9657 27.6596L24.9533 24.6014L26.1955 25.366H31.1645L32.4067 24.6014L34.3943 27.6596V39.1281L32.9036 41.4218L31.1645 43.2058H26.1955L24.4564 41.4218L22.9657 39.1281V27.6596ZM38.4373 36.5909L35.1981 39.8974V36.0822L38.4373 33.2844V36.5909ZM22.2417 39.8974L19.0025 36.5909V33.2844L22.2417 36.0822V39.8974ZM16.0145 20.3138L26.7241 24.3815L26.7247 24.3833H28.2197V9.88582H25.4789L23.4939 14.698L14.5195 13.9552L16.0145 20.3138ZM29.2164 24.3833V9.88582H31.9572L33.9426 14.6991L43.1735 13.9552L41.6785 20.3138L30.9643 24.3832H30.9606L30.9606 24.3833H29.2164ZM34.4538 13.9553L39.6862 13.4466L36.1979 9.88582H32.7096L34.4538 13.9553ZM17.7564 13.4466L22.9889 13.9553L24.7331 9.88582H21.2448L17.7564 13.4466Z" fill="black"/>
</g>
</svg>
