<svg width="100" height="100" viewBox="0 0 100 100" fill="none" xmlns="http://www.w3.org/2000/svg">
<rect width="100" height="100" fill="white"/>
<g clip-path="url(#clip0_7481_47515)">
<path d="M34.2501 36.9298C35.73 36.9298 36.9298 35.73 36.9298 34.2501C36.9298 32.7701 35.73 31.5703 34.2501 31.5703C32.7701 31.5703 31.5703 32.7701 31.5703 34.2501C31.5703 35.73 32.7701 36.9298 34.2501 36.9298Z" fill="black"/>
<path d="M52.9419 29.2005L49.289 28.0206L51.037 24.6038C51.4821 23.7348 51.3149 22.6778 50.6251 21.9879L46.513 17.8747C45.8231 17.1826 44.7672 17.0123 43.8971 17.4627L40.4793 19.2108L39.2994 15.5579C38.9995 14.6295 38.1337 14 37.1581 14H31.3419C30.3663 14 29.5005 14.6295 29.2005 15.5579L28.0206 19.2108L24.6038 17.4627C23.7326 17.0134 22.6769 17.1826 21.9879 17.8747L17.8747 21.9879C17.1849 22.6778 17.0177 23.7348 17.4627 24.6038L19.2108 28.0206L15.5579 29.2005C14.6295 29.5005 14 30.3663 14 31.3419V37.1581C14 38.1337 14.6295 38.9995 15.5579 39.2994L19.2108 40.4793L17.4627 43.8962C17.0177 44.7652 17.1849 45.8222 17.8747 46.5121L21.9879 50.6253C22.6769 51.3162 23.7326 51.48 24.6038 51.0373L28.0206 49.2892L29.2005 52.9421C29.5005 53.8704 30.3663 54.5 31.3419 54.5H37.1581C38.1337 54.5 38.9995 53.8704 39.2994 52.9421L40.4793 49.2892L43.8971 51.0373C44.7672 51.4832 45.8231 51.3162 46.513 50.6253L50.6251 46.5121C51.3149 45.8222 51.4821 44.7652 51.037 43.8962L49.289 40.4793L52.9419 39.2994C53.8702 38.9995 54.4998 38.1337 54.4998 37.1581V31.3419C54.4998 30.3663 53.8702 29.5005 52.9419 29.2005ZM34.2498 41.4304C30.2902 41.4304 27.0691 38.2093 27.0691 34.2498C27.0691 30.2902 30.2902 27.0691 34.2498 27.0691C38.2093 27.0691 41.4304 30.2902 41.4304 34.2498C41.4304 38.2093 38.2093 41.4304 34.2498 41.4304Z" fill="black"/>
<path d="M65.7501 68.4298C67.23 68.4298 68.4298 67.23 68.4298 65.7501C68.4298 64.2701 67.23 63.0703 65.7501 63.0703C64.2701 63.0703 63.0703 64.2701 63.0703 65.7501C63.0703 67.23 64.2701 68.4298 65.7501 68.4298Z" fill="black"/>
<path d="M84.4419 60.7005L80.789 59.5207L82.537 56.1038C82.9821 55.2348 82.8149 54.1778 82.1251 53.488L78.013 49.3747C77.3231 48.6826 76.2661 48.5134 75.3971 48.9627L71.9793 50.7108L70.7995 47.0579C70.4995 46.1295 69.6337 45.5 68.6581 45.5H62.8419C61.8663 45.5 61.0005 46.1295 60.7005 47.0579L59.5207 50.7108L56.1038 48.9627C55.2326 48.5134 54.1769 48.6826 53.488 49.3747L49.3747 53.488C48.6849 54.1778 48.5177 55.2348 48.9627 56.1038L50.7108 59.5207L47.0579 60.7005C46.1295 61.0005 45.5 61.8663 45.5 62.8419V68.6581C45.5 69.6337 46.1295 70.4995 47.0579 70.7995L50.7108 71.9793L48.9627 75.3962C48.5177 76.2652 48.6849 77.3222 49.3747 78.0121L53.488 82.1253C54.1758 82.8151 55.2304 82.9812 56.1038 82.5372L59.5207 80.7892L60.7005 84.4421C61.0005 85.3704 61.8663 86 62.8419 86H68.6581C69.6337 86 70.4995 85.3704 70.7995 84.4421L71.9793 80.7892L75.3971 82.5372C76.2661 82.9843 77.3231 82.8151 78.013 82.1253L82.1251 78.0121C82.8149 77.3222 82.9821 76.2652 82.537 75.3962L80.789 71.9793L84.4419 70.7995C85.3702 70.4995 85.9998 69.6337 85.9998 68.6581V62.8419C85.9998 61.8663 85.3702 61.0005 84.4419 60.7005ZM65.7498 72.9304C61.7902 72.9304 58.5691 69.7093 58.5691 65.7498C58.5691 61.7902 61.7902 58.5691 65.7498 58.5691C69.7093 58.5691 72.9304 61.7902 72.9304 65.7498C72.9304 69.7093 69.7093 72.9304 65.7498 72.9304Z" fill="black"/>
<path d="M74.75 41C73.5075 41 72.5 39.9925 72.5 38.75V32C72.5 27.0374 68.4626 23 63.5 23H56.75C55.5076 23 54.5 21.9924 54.5 20.75C54.5 19.5076 55.5076 18.5 56.75 18.5H63.5C70.9443 18.5 77 24.5557 77 32V38.75C77 39.9925 75.9925 41 74.75 41Z" fill="black"/>
<path d="M74.7499 43.2502C74.1741 43.2502 73.5986 43.0304 73.1591 42.5909L68.6591 38.0909C67.7803 37.2121 67.7803 35.7883 68.6591 34.9092C69.538 34.0301 70.9618 34.0304 71.8409 34.9092L74.7501 37.8185L77.6594 34.9092C78.5382 34.0304 79.962 34.0304 80.8411 34.9092C81.7202 35.7881 81.7199 37.2119 80.8411 38.0909L76.3411 42.5909C75.9017 43.0304 75.3254 43.2502 74.7499 43.2502Z" fill="black"/>
<path d="M43.25 81.5H36.5C29.0557 81.5 23 75.4443 23 68V61.25C23 60.0076 24.0076 59 25.25 59C26.4924 59 27.5 60.0076 27.5 61.25V68C27.5 72.9626 31.5374 77 36.5 77H43.25C44.4925 77 45.5 78.0075 45.5 79.25C45.5 80.4925 44.4925 81.5 43.25 81.5Z" fill="black"/>
<path d="M29.7502 65.7501C29.1744 65.7501 28.5989 65.5303 28.1594 65.0909L25.2502 62.1816L22.3409 65.0909C21.4621 65.9697 20.0383 65.9697 19.1592 65.0909C18.2801 64.212 18.2804 62.7882 19.1592 61.9091L23.6592 57.4091C24.5381 56.5303 25.9619 56.5303 26.8409 57.4091L31.3409 61.9091C32.2198 62.788 32.2198 64.2118 31.3409 65.0909C30.9015 65.5303 30.3257 65.7501 29.7502 65.7501Z" fill="black"/>
</g>
<defs>
<clipPath id="clip0_7481_47515">
<rect width="72" height="72" fill="white" transform="translate(14 14)"/>
</clipPath>
</defs>
</svg>
