<svg width="100" height="100" viewBox="0 0 100 100" fill="none" xmlns="http://www.w3.org/2000/svg">
<rect opacity="0.2" width="100" height="100" rx="20" fill="url(#paint0_linear_6744_54856)"/>
<path d="M49.9497 26C37.7738 26 38.478 31.3335 38.478 31.3335V36.87H50.1512V38.4804H33.849C33.849 38.4804 26 37.5723 26 49.9497C26 62.3272 32.8428 61.926 32.8428 61.926H36.9662V56.1889C36.9662 56.1889 36.7652 49.3461 43.7086 49.3461H55.2808C55.2808 49.3461 61.8218 49.4466 61.8218 43.0064V32.4403C61.8218 32.4403 62.8305 26 49.9497 26ZM43.5075 29.7233C43.7872 29.716 44.0654 29.7657 44.3252 29.8692C44.5851 29.9729 44.8211 30.1282 45.0191 30.3259C45.2171 30.5236 45.3727 30.7594 45.4767 31.0191C45.5806 31.2788 45.6307 31.557 45.6238 31.8366C45.6281 32.1169 45.5765 32.395 45.4722 32.6551C45.3679 32.9153 45.2129 33.152 45.0163 33.3516C44.8196 33.5513 44.5853 33.7098 44.3267 33.818C44.0683 33.9262 43.7909 33.982 43.5107 33.982C43.2305 33.982 42.953 33.9262 42.6945 33.818C42.4361 33.7098 42.2017 33.5513 42.005 33.3516C41.8083 33.152 41.6534 32.9153 41.5491 32.6551C41.4448 32.395 41.3932 32.1169 41.3975 31.8366C41.4006 31.2777 41.6238 30.7425 42.0188 30.3469C42.4137 29.9513 42.9486 29.7273 43.5075 29.7233Z" fill="black"/>
<path d="M50.3512 74C62.6279 74 61.8228 68.6665 61.8228 68.6665V63.1324H50.1515V61.5221H66.4533C66.4533 61.5221 74.3035 62.4277 74.3035 50.0503C74.3035 37.6728 67.4592 38.1745 67.4592 38.1745H63.3333V43.9121C63.3333 43.9121 63.5348 50.7549 56.5913 50.7549H45.019C45.019 50.7549 38.4778 50.6544 38.4778 57.0946V67.6583C38.4778 67.6583 37.5726 74 50.3512 74ZM56.7914 70.3773C56.5122 70.3839 56.2346 70.3338 55.9753 70.2298C55.716 70.126 55.4806 69.9706 55.2832 69.773C55.0858 69.5755 54.9305 69.3399 54.8268 69.0806C54.7231 68.8212 54.6731 68.5436 54.6799 68.2644C54.6757 67.9842 54.7272 67.706 54.8315 67.4458C54.9358 67.1858 55.0908 66.949 55.2875 66.7494C55.4841 66.5498 55.7185 66.3912 55.977 66.283C56.2355 66.1748 56.5128 66.1191 56.7931 66.1191C57.0734 66.1191 57.3507 66.1748 57.6092 66.283C57.8677 66.3912 58.1021 66.5498 58.2987 66.7494C58.4954 66.949 58.6504 67.1858 58.7544 67.4458C58.8592 67.706 58.9108 67.9842 58.9064 68.2644C58.9028 68.8238 58.6792 69.3594 58.2836 69.755C57.888 70.1506 57.3523 70.3741 56.7928 70.3773H56.7914Z" fill="black"/>
<defs>
<linearGradient id="paint0_linear_6744_54856" x1="11.809" y1="1.81213e-05" x2="100.05" y2="16.5617" gradientUnits="userSpaceOnUse">
<stop stop-color="#2EC4F3"/>
<stop offset="1" stop-color="#BFD633"/>
</linearGradient>
</defs>
</svg>
