<svg width="115" height="115" viewBox="0 0 115 115" fill="none" xmlns="http://www.w3.org/2000/svg">
<mask id="mask0_7606_86795" style="mask-type:alpha" maskUnits="userSpaceOnUse" x="0" y="0" width="115" height="115">
<rect width="115" height="115" fill="#D9D9D9"/>
</mask>
<g mask="url(#mask0_7606_86795)">
</g>
<g clip-path="url(#clip0_7606_86795)">
<path d="M16 76.01C15.68 76.01 15.47 76.01 15.25 76.01C12.28 76.01 9.31 76.01 6.35 76.01C2.54 76 0 73.45 0 69.64C0 63.2 0 56.75 0 50.31C0 46.57 2.53 44.02 6.28 44.01C9.27 44 12.26 44.01 15.24 44.01C15.47 44.01 15.7 44.01 16 44.01C16 43.71 16 43.48 16 43.26C16 40.25 15.99 37.25 16 34.24C16.02 31.21 17.77 28.89 20.56 28.21C21.1 28.08 21.68 28.03 22.24 28.02C27.4 28 32.55 28 37.71 28C41.42 28 43.96 30.53 43.99 34.24C44 35.92 43.99 37.6 43.99 39.28C43.99 39.49 43.99 39.7 43.99 39.99C44.28 39.99 44.51 39.99 44.73 39.99C47.68 39.99 50.63 39.99 53.58 39.99C57.47 39.99 59.99 42.52 59.99 46.41C59.99 52.89 59.99 59.38 59.99 65.86C59.99 68.89 58.03 71.31 55.11 71.88C54.6 71.98 54.06 71.99 53.54 71.99C50.61 71.99 47.68 71.99 44.75 71.99C44.52 71.99 44.29 71.99 43.99 71.99C43.99 72.29 43.99 72.51 43.99 72.74C43.99 75.75 44 78.75 43.99 81.76C43.97 84.79 42.23 87.11 39.43 87.79C38.89 87.92 38.31 87.98 37.75 87.98C32.58 87.99 27.4 87.99 22.23 87.98C18.63 87.98 16.07 85.46 16.01 81.85C15.98 80.13 16.01 78.41 16.01 76.69C16.01 76.48 16.01 76.27 16.01 75.98L16 76.01ZM28.04 67.99H28.82C37.02 67.99 45.22 67.99 53.42 67.99C55.34 67.99 56 67.33 56 65.44C56 59.09 56 52.75 56 46.4C56 44.75 55.26 44.01 53.61 44.01C50.64 44.01 47.67 44.01 44.71 44.01H44C44 44.3 44 44.53 44 44.76C44 47.69 44 50.62 44 53.55C44 54.08 44 54.61 43.89 55.12C43.33 58.02 40.93 59.99 37.94 60C32.73 60.01 27.51 60 22.3 60C20.79 60 20.02 60.76 20.02 62.26C20.02 68.74 20.02 75.22 20.02 81.71C20.02 83.25 20.79 84.01 22.33 84.01C27.45 84.01 32.56 84.01 37.68 84.01C39.25 84.01 40 83.25 40 81.67C40 78.66 40 75.66 40 72.65C40 72.46 40 72.27 40 72.01H28.05V68L28.04 67.99ZM20.01 44.03H31.97V48.01H31.2C22.9 48.01 14.6 48.01 6.3 48.01C4.76 48.01 4 48.77 4 50.31C4 56.75 4 63.2 4 69.64C4 71.22 4.75 71.99 6.32 71.99C9.35 71.99 12.37 71.99 15.4 71.99C15.59 71.99 15.77 71.97 16.01 71.95C16.01 71.68 16.01 71.47 16.01 71.26C16.01 68.31 16.01 65.36 16.01 62.41C16.01 61.89 16.02 61.35 16.13 60.84C16.71 57.96 19.09 56.01 22.06 56C27.25 55.98 32.45 56 37.64 56C39.23 56 39.99 55.26 39.99 53.69C39.99 47.23 39.99 40.76 39.99 34.3C39.99 32.76 39.23 31.99 37.69 31.99C32.57 31.99 27.46 31.99 22.34 31.99C20.76 31.99 20.01 32.74 20.01 34.32C20.01 37.33 20.01 40.33 20.01 43.34C20.01 43.53 20.01 43.73 20.01 44.02V44.03Z" fill="black"/>
<path d="M35.9491 79.9798H32.0391V76.0498H35.9491V79.9798Z" fill="black"/>
<path d="M27.9708 39.9598H24.0508V36.0298H27.9708V39.9598Z" fill="black"/>
</g>
<defs>
<clipPath id="clip0_7606_86795">
<rect width="60" height="60" fill="white" transform="translate(0 28)"/>
</clipPath>
</defs>
</svg>
