<svg width="117" height="80" viewBox="0 0 117 80" fill="none" xmlns="http://www.w3.org/2000/svg">
<mask id="mask0_6572_17365" style="mask-type:alpha" maskUnits="userSpaceOnUse" x="0" y="0" width="118" height="80">
<rect x="0.335938" width="116.667" height="80" fill="#D9D9D9"/>
</mask>
<g mask="url(#mask0_6572_17365)">
<path d="M68.782 32.7876L66.2335 35.336C67.7313 36.8336 68.7519 38.7417 69.1652 40.8191C69.579 42.8965 69.3669 45.0498 68.5562 47.0068C67.7461 48.9638 66.3735 50.6364 64.6123 51.8133C62.8512 52.9902 60.7806 53.6183 58.6625 53.6183C56.5443 53.6183 54.4738 52.9902 52.7126 51.8133C50.9515 50.6364 49.5789 48.9638 48.7685 47.0068C47.9581 45.0498 47.7462 42.8965 48.1597 40.8191C48.5732 38.7417 49.5935 36.8336 51.0914 35.336L57.7878 28.6375L58.7346 27.6907V22.667L48.5408 32.7876C45.8484 35.4821 44.3359 39.1354 44.3359 42.9445C44.3359 46.7537 45.8484 50.407 48.5408 53.1015C49.8561 54.4416 51.4254 55.5061 53.1569 56.2327C54.8883 56.9594 56.7473 57.3337 58.625 57.3337C60.5028 57.3337 62.3617 56.9594 64.0932 56.2327C65.8246 55.5061 67.394 54.4416 68.7093 53.1015C70.0551 51.7765 71.1249 50.1981 71.8574 48.4574C72.5905 46.7167 72.9709 44.8482 72.9775 42.9597C72.9846 41.0711 72.6172 39.2 71.8968 37.4541C71.1768 35.7082 70.118 34.1222 68.782 32.7876Z" fill="#E84D2F"/>
<path d="M65.5785 30.2393C65.5698 30.7386 65.3675 31.2149 65.0143 31.5681C64.6612 31.9212 64.1848 32.1235 63.6855 32.1323C63.4402 32.1325 63.1974 32.0831 62.9717 31.9871C62.7459 31.8911 62.542 31.7505 62.3719 31.5737C62.2019 31.3969 62.0694 31.1875 61.9823 30.9582C61.8953 30.7289 61.8554 30.4844 61.8652 30.2393C61.8538 29.9884 61.8934 29.7377 61.9816 29.5026C62.0697 29.2673 62.2047 29.0525 62.3782 28.8709C62.5517 28.6893 62.7602 28.5448 62.9912 28.446C63.2221 28.3473 63.4707 28.2964 63.7219 28.2964C63.9731 28.2964 64.2216 28.3473 64.4526 28.446C64.6835 28.5448 64.892 28.6893 65.0656 28.8709C65.2391 29.0525 65.3741 29.2673 65.4621 29.5026C65.5501 29.7377 65.59 29.9884 65.5785 30.2393Z" fill="#E84D2F"/>
</g>
</svg>
