<svg width="56" height="53" viewBox="0 0 56 53" fill="none" xmlns="http://www.w3.org/2000/svg">
<mask id="mask0_7200_56672" style="mask-type:alpha" maskUnits="userSpaceOnUse" x="0" y="0" width="56" height="53">
<rect width="56" height="53" fill="#D9D9D9"/>
</mask>
<g mask="url(#mask0_7200_56672)">
<path d="M42.9265 16.6238L39.2202 20.3301C45.3034 26.4133 45.3034 36.2028 39.2202 42.2055C33.137 48.2886 23.3475 48.2886 17.3449 42.2055C11.2617 36.1223 11.2617 26.3328 17.3449 20.3301L27.0135 10.6615L28.3832 9.29177V2L13.7997 16.5835C5.70219 24.681 5.70219 37.774 13.7997 45.9118C21.8972 54.0495 34.9901 54.0093 42.9668 45.9118C51.0643 37.774 51.0643 24.7616 42.9265 16.6238Z" fill="black"/>
<path d="M38.3613 13.0761C38.3889 11.5857 37.203 10.3551 35.7126 10.3275C34.2222 10.2999 32.9916 11.4858 32.964 12.9762C32.9364 14.4666 34.1223 15.6972 35.6127 15.7248C37.1031 15.7524 38.3337 14.5665 38.3613 13.0761Z" fill="black"/>
</g>
</svg>
