<svg width="92" height="92" viewBox="0 0 92 92" fill="none" xmlns="http://www.w3.org/2000/svg">
<mask id="mask0_9016_58992" style="mask-type:alpha" maskUnits="userSpaceOnUse" x="0" y="0" width="92" height="92">
<rect width="92" height="92" fill="black"/>
</mask>
<g mask="url(#mask0_9016_58992)">
<path d="M44.632 53.3308C44.0732 53.3308 43.5144 53.1181 43.089 52.6928L37.4974 47.1018C36.6467 46.2512 36.6467 44.8666 37.4974 44.0152L39.1474 42.3652C39.998 41.5146 41.3818 41.5146 42.2332 42.3652L44.632 44.764L49.7719 39.6241C50.5954 38.8005 52.0335 38.7991 52.8585 39.6241L54.5077 41.2741C55.3584 42.1247 55.3584 43.5092 54.5077 44.3599L46.1749 52.6928C45.7496 53.1181 45.1908 53.3308 44.632 53.3308Z" fill="black"/>
<path d="M68.5237 22.5225C60.6485 21.0896 53.7764 18.1276 48.0982 13.7188C46.8633 12.7604 45.1392 12.7604 43.9043 13.7188C38.2269 18.1276 31.3556 21.0896 23.4796 22.5225C21.8435 22.8195 20.6562 24.2473 20.6562 25.9163V49.7694C20.6562 62.5873 29.9461 73.9547 44.3223 78.7301C44.8635 78.9098 45.4326 79 46.0016 79C46.5707 79 47.1398 78.9098 47.681 78.7301C62.0572 73.9554 71.3463 62.5873 71.3463 49.7694V25.9163C71.347 24.2466 70.159 22.8195 68.5237 22.5225ZM46.0016 61.0341C37.308 61.0341 30.235 53.9611 30.235 45.2675C30.235 36.5739 37.308 29.5009 46.0016 29.5009C54.6953 29.5009 61.7683 36.5739 61.7683 45.2675C61.7683 53.9611 54.6953 61.0341 46.0016 61.0341Z" fill="black"/>
</g>
</svg>
