<svg width="56" height="53" viewBox="0 0 56 53" fill="none" xmlns="http://www.w3.org/2000/svg">
<mask id="mask0_7196_20901" style="mask-type:alpha" maskUnits="userSpaceOnUse" x="0" y="0" width="56" height="53">
<rect width="56" height="53" fill="#D9D9D9"/>
</mask>
<g mask="url(#mask0_7196_20901)">
<path d="M31.63 25.9996C31.6299 26.4763 31.536 26.9483 31.3536 27.3886C31.1712 27.829 30.9038 28.2291 30.5667 28.5662C29.886 29.2468 28.9627 29.6292 28 29.6292C27.0373 29.6291 26.1141 29.2466 25.4335 28.5659C24.7528 27.8851 24.3704 26.9619 24.3705 25.9992C24.3705 25.0366 24.753 24.1133 25.4337 23.4327C26.1145 22.752 27.0377 22.3696 28.0004 22.3697C28.9631 22.3697 29.8863 22.7522 30.567 23.4329C31.2476 24.1137 31.63 25.0369 31.63 25.9996ZM44.1118 16.6951C43.3241 15.3353 42.3653 14.082 41.2589 12.966L37.0605 15.3879C35.7667 14.2833 34.2832 13.4228 32.682 12.8481C31.2818 14.2539 30.1352 15.891 29.2926 17.6873C33.9646 17.3691 38.7881 19.0615 43.2648 22.5593L45.9067 21.0337C45.4951 19.517 44.892 18.0593 44.1118 16.6951ZM28.0006 44.5996C29.5707 44.5946 31.1339 44.3913 32.6531 43.9945V39.1511C34.258 38.5839 35.7457 37.7278 37.0425 36.6251C36.5242 34.7095 35.6801 32.8974 34.5474 31.2681C32.4863 35.4708 28.612 38.8024 23.3439 40.9303V43.9793C24.8625 44.3877 26.428 44.5965 28.0006 44.5996ZM11.8895 16.6994C11.1078 18.0619 10.503 19.5186 10.0898 21.0341L14.2867 23.4556C13.9763 25.128 13.9736 26.845 14.2777 28.5194C16.1953 29.0295 18.1866 29.2048 20.1638 29.0376C17.5505 25.1526 16.6061 20.1288 17.3932 14.5025L14.7513 12.9769C13.6427 14.0908 12.681 15.3418 11.8895 16.6994Z" fill="black"/>
<path d="M28 1C14.193 1 3 12.193 3 26C3 39.807 14.193 51 28 51C41.807 51 53 39.807 53 26C53 12.193 41.807 1 28 1ZM28 4.2C40.0196 4.2 49.8004 13.98 49.8004 26C49.8004 38.0196 40.0196 47.8004 28 47.8004C15.9804 47.8004 6.19961 38.0196 6.19961 26C6.19961 13.9804 15.9804 4.2 28 4.2ZM28 7.39374C26.4299 7.40005 24.8668 7.60386 23.3476 8.00039V12.8442C21.7427 13.4107 20.255 14.2662 18.9581 15.3683C19.4758 17.284 20.3199 19.0962 21.4532 20.7252C23.5143 16.5241 27.3883 13.191 32.6568 11.063V8.01566C31.1373 7.61105 29.5724 7.40192 28 7.39335V7.39374ZM37.82 22.908C37.1606 22.8884 36.5007 22.9063 35.8434 22.9616C38.454 26.8466 39.3992 31.8705 38.6117 37.4967L41.2536 39.0223C42.3584 37.9062 43.3185 36.6555 44.1112 35.2998C44.8939 33.9405 45.4947 32.4818 45.9108 30.9652L41.7182 28.544C42.0313 26.8517 42.0313 25.1389 41.7272 23.4802C40.4509 23.1405 39.1397 22.9488 37.8196 22.9088L37.82 22.908ZM12.7358 29.4341L10.0939 30.9616C10.5091 32.4771 11.1121 33.9347 11.8888 35.3006C12.677 36.66 13.6357 37.9131 14.7417 39.0294L18.9401 36.6078C20.2336 37.7123 21.7173 38.5722 23.3186 39.1456C24.7187 37.7404 25.8654 36.1038 26.708 34.308C22.036 34.6262 17.2125 32.9323 12.7358 29.4341Z" fill="#2D2D2D"/>
</g>
</svg>
