<svg width="61" height="61" viewBox="0 0 61 61" fill="none" xmlns="http://www.w3.org/2000/svg">
<mask id="mask0_7039_90273" style="mask-type:alpha" maskUnits="userSpaceOnUse" x="-1" y="-1" width="63" height="63">
<rect width="61" height="61" fill="black" stroke="black" stroke-width="2"/>
</mask>
<g mask="url(#mask0_7039_90273)">
<path d="M27.9362 51.8497H13.0674C9.17884 51.8497 6.08591 49.9576 3.30886 47.3118C-2.3761 41.8957 6.95778 37.5675 10.5177 35.4478C16.1778 32.0775 22.8698 30.9923 29.1944 32.1923" stroke="black" stroke-width="3" stroke-linecap="round" stroke-linejoin="round"/>
<path d="M35.4822 12.848C35.4822 19.1016 30.4127 24.1712 24.1591 24.1712C17.9055 24.1712 12.8359 19.1016 12.8359 12.848C12.8359 6.59444 17.9055 1.5249 24.1591 1.5249C30.4127 1.5249 35.4822 6.59444 35.4822 12.848Z" stroke="black" stroke-width="3"/>
<path d="M43.5148 33.1733L45.286 36.7451C45.5276 37.2423 46.1717 37.7192 46.7151 37.8105L49.9255 38.3483C51.9785 38.6933 52.4616 40.1951 50.9822 41.6765L48.4864 44.193C48.0637 44.6192 47.8322 45.4411 47.963 46.0296L48.6776 49.1448C49.2412 51.6105 47.9429 52.5643 45.7792 51.2756L42.7701 49.4796C42.2266 49.1549 41.3309 49.1549 40.7774 49.4796L37.7683 51.2756C35.6147 52.5643 34.3063 51.6003 34.8699 49.1448L35.5845 46.0296C35.7153 45.4411 35.4838 44.6192 35.0611 44.193L32.5653 41.6765C31.096 40.1951 31.569 38.6933 33.622 38.3483L36.8324 37.8105C37.3658 37.7192 38.0099 37.2423 38.2514 36.7451L40.0226 33.1733C40.9888 31.2352 42.5587 31.2352 43.5148 33.1733Z" stroke="black" stroke-width="3" stroke-linecap="round" stroke-linejoin="round"/>
</g>
</svg>
