<svg width="175" height="120" viewBox="0 0 175 120" fill="none" xmlns="http://www.w3.org/2000/svg">
<path d="M110.635 60.3247C110.635 57.3016 106.849 54.4366 101.045 52.6599C102.384 46.7439 101.789 42.0371 99.1659 40.5302C98.5613 40.1767 97.8544 40.0093 97.0823 40.0093V42.0836C97.5102 42.0836 97.8544 42.1673 98.1427 42.3255C99.4078 43.051 99.9566 45.8137 99.5287 49.367C99.4264 50.2414 99.259 51.1623 99.0543 52.1018C97.2311 51.6553 95.2405 51.3111 93.1476 51.0879C91.8918 49.367 90.5896 47.8043 89.278 46.4369C92.3104 43.6184 95.1568 42.0743 97.0916 42.0743V40C94.5336 40 91.1849 41.8232 87.799 44.9858C84.4131 41.8418 81.0644 40.0372 78.5064 40.0372V42.1115C80.4319 42.1115 83.2876 43.6464 86.32 46.4462C85.0177 47.8136 83.7155 49.367 82.4783 51.0879C80.3761 51.3111 78.3855 51.6553 76.5623 52.1111C76.3483 51.1809 76.1902 50.2786 76.0786 49.4135C75.6414 45.8602 76.1809 43.0975 77.4367 42.3627C77.7157 42.1953 78.0785 42.1208 78.5064 42.1208V40.0465C77.725 40.0465 77.0181 40.2139 76.4041 40.5674C73.7903 42.0743 73.2043 46.7718 74.5531 52.6692C68.7673 54.4552 65 57.3109 65 60.3247C65 63.3478 68.7859 66.2128 74.5903 67.9895C73.2508 73.9055 73.8461 78.6123 76.4693 80.1192C77.0739 80.4726 77.7808 80.6401 78.5622 80.6401C81.1202 80.6401 84.4689 78.8169 87.8548 75.6542C91.2407 78.7983 94.5894 80.6029 97.1474 80.6029C97.9288 80.6029 98.6357 80.4354 99.2497 80.082C101.863 78.575 102.45 73.8776 101.101 67.9802C106.868 66.2035 110.635 63.3385 110.635 60.3247ZM98.5241 54.1203C98.1799 55.3203 97.752 56.5574 97.2683 57.7946C96.887 57.0504 96.487 56.3063 96.0498 55.5621C95.6219 54.818 95.1661 54.0924 94.7103 53.3855C96.0312 53.5808 97.3055 53.8226 98.5241 54.1203ZM94.2638 64.0268C93.5383 65.2826 92.7941 66.4733 92.0221 67.5802C90.6361 67.7011 89.2315 67.7662 87.8176 67.7662C86.413 67.7662 85.0084 67.7011 83.6317 67.5895C82.8597 66.4826 82.1062 65.3012 81.3807 64.0548C80.6737 62.8362 80.0319 61.599 79.4459 60.3526C80.0226 59.1061 80.6737 57.8597 81.3714 56.6411C82.0969 55.3854 82.8411 54.1947 83.6131 53.0878C84.9991 52.9669 86.4037 52.9018 87.8176 52.9018C89.2222 52.9018 90.6268 52.9669 92.0035 53.0785C92.7755 54.1854 93.529 55.3668 94.2545 56.6132C94.9615 57.8318 95.6033 59.0689 96.1893 60.3154C95.6033 61.5618 94.9615 62.8083 94.2638 64.0268ZM97.2683 62.8176C97.7706 64.0641 98.1985 65.3105 98.552 66.5198C97.3335 66.8174 96.0498 67.0686 94.7196 67.2639C95.1754 66.5477 95.6312 65.8128 96.0591 65.0594C96.487 64.3152 96.887 63.5618 97.2683 62.8176ZM87.8362 72.7427C86.9711 71.8498 86.106 70.8545 85.2503 69.7661C86.0874 69.8033 86.9432 69.8312 87.8083 69.8312C88.6827 69.8312 89.5478 69.8126 90.3942 69.7661C89.5571 70.8545 88.692 71.8498 87.8362 72.7427ZM80.9156 67.2639C79.5947 67.0686 78.3203 66.8267 77.1018 66.5291C77.446 65.3291 77.8739 64.092 78.3576 62.8548C78.7389 63.599 79.1389 64.3431 79.5761 65.0873C80.0133 65.8314 80.4598 66.557 80.9156 67.2639ZM87.7897 47.9066C88.6548 48.7996 89.5198 49.7949 90.3756 50.8832C89.5385 50.846 88.6827 50.8181 87.8176 50.8181C86.9432 50.8181 86.0781 50.8367 85.2317 50.8832C86.0688 49.7949 86.9339 48.7996 87.7897 47.9066ZM80.9063 53.3855C80.4505 54.1017 79.9947 54.8366 79.5668 55.59C79.1389 56.3342 78.7389 57.0783 78.3576 57.8225C77.8552 56.576 77.4274 55.3296 77.0739 54.1203C78.2924 53.8319 79.5761 53.5808 80.9063 53.3855ZM72.488 65.0315C69.1952 63.6269 67.065 61.7851 67.065 60.3247C67.065 58.8643 69.1952 57.0132 72.488 55.6179C73.288 55.2737 74.1624 54.9668 75.0647 54.6784C75.5949 56.5016 76.2925 58.3992 77.1576 60.3433C76.3018 62.2781 75.6135 64.1664 75.0926 65.9802C74.1717 65.6919 73.2973 65.3756 72.488 65.0315ZM77.4925 78.3239C76.2274 77.5983 75.6786 74.8357 76.1065 71.2823C76.2088 70.408 76.3762 69.4871 76.5809 68.5476C78.4041 68.9941 80.3947 69.3382 82.4876 69.5615C83.7434 71.2823 85.0456 72.8451 86.3572 74.2124C83.3248 77.0309 80.4784 78.575 78.5436 78.575C78.125 78.5657 77.7715 78.482 77.4925 78.3239ZM99.5566 71.2358C99.9938 74.7892 99.4543 77.5518 98.1985 78.2867C97.9195 78.4541 97.5567 78.5285 97.1288 78.5285C95.2033 78.5285 92.3476 76.9937 89.3152 74.1938C90.6175 72.8265 91.9197 71.273 93.1569 69.5522C95.2591 69.3289 97.2497 68.9848 99.0729 68.529C99.2869 69.4685 99.4543 70.3708 99.5566 71.2358ZM103.138 65.0315C102.338 65.3756 101.464 65.6826 100.561 65.9709C100.031 64.1478 99.3334 62.2502 98.4683 60.3061C99.3241 58.3713 100.012 56.483 100.533 54.6691C101.454 54.9575 102.329 55.2737 103.147 55.6179C106.44 57.0225 108.57 58.8643 108.57 60.3247C108.561 61.7851 106.431 63.6362 103.138 65.0315Z" fill="#61DAFB"/>
<path d="M87.8096 64.5752C90.1573 64.5752 92.0605 62.672 92.0605 60.3242C92.0605 57.9765 90.1573 56.0732 87.8096 56.0732C85.4618 56.0732 83.5586 57.9765 83.5586 60.3242C83.5586 62.672 85.4618 64.5752 87.8096 64.5752Z" fill="#61DAFB"/>
</svg>
