<svg width="93" height="92" viewBox="0 0 93 92" fill="none" xmlns="http://www.w3.org/2000/svg">
<mask id="mask0_7374_56138" style="mask-type:alpha" maskUnits="userSpaceOnUse" x="0" y="0" width="93" height="92">
<rect x="0.875" width="92" height="92" fill="black"/>
</mask>
<g mask="url(#mask0_7374_56138)">
</g>
<g clip-path="url(#clip0_7374_56138)">
<path fill-rule="evenodd" clip-rule="evenodd" d="M67.4801 70.3227L26.2203 70.3371C24.7287 70.3386 23.2986 69.7459 22.2434 68.6907C21.1882 67.6355 20.5954 66.2053 20.597 64.7138L20.6103 27.2065C20.6105 25.7136 21.2041 24.2823 22.2595 23.2269C23.3149 22.1714 24.7462 21.5779 26.2391 21.5776L67.496 21.5636C68.9889 21.5633 70.4206 22.1545 71.4745 23.2084C72.5297 24.2636 73.1209 25.6953 73.1206 27.1882L73.1074 64.6954C73.1058 66.187 72.5139 67.6168 71.4569 68.6738C70.4014 69.7292 68.9717 70.3211 67.4801 70.3227ZM39.363 28.1366C38.3287 28.137 37.4881 28.9775 37.4878 30.0119C37.4858 31.0478 38.3263 31.8883 39.3622 31.8863C40.3979 31.8873 41.2384 31.0467 41.2374 30.0111C41.2378 28.9767 40.3974 28.1363 39.363 28.1366ZM48.7268 66.5776L67.4796 66.5717C67.9787 66.571 68.4538 66.3743 68.8056 66.0225C69.1574 65.6707 69.3557 65.1941 69.3564 64.6949L69.3654 38.4412L24.3559 38.4563L24.3482 64.7114C24.3462 65.2092 24.5458 65.6857 24.897 66.037C25.2483 66.3883 25.7249 66.5878 26.2227 66.5858L44.9755 66.58L44.9785 59.461C43.9206 59.4823 42.5452 59.4313 41.1019 59.1724C38.8857 58.7773 36.5356 57.8822 34.7937 56.1403C33.0519 54.3984 32.1568 52.0484 31.7616 49.8321C31.2063 46.7234 31.6152 43.939 31.6152 43.939C31.7351 43.1165 32.3814 42.4702 33.2039 42.3503C33.2039 42.3503 35.9883 41.9414 39.097 42.4967C41.3133 42.8919 43.6633 43.787 45.4052 45.5289C45.9765 46.1002 46.4566 46.7363 46.8579 47.4114C47.2594 46.7368 47.74 46.0999 48.3114 45.5284C50.0561 43.7837 52.406 42.8893 54.6239 42.4902C57.7314 41.9332 60.5166 42.3401 60.5166 42.3401C61.339 42.4589 61.9846 43.1045 62.1034 43.9269C62.1034 43.9269 62.5116 46.7134 61.9546 49.8209C61.5542 52.0375 60.6611 54.3887 58.9164 56.1334C57.1733 57.8765 54.8221 58.7695 52.6055 59.17C51.1613 59.4291 49.787 59.4778 48.7298 59.4586L48.7268 66.5776ZM31.8621 28.1398C30.8264 28.1389 29.9859 28.9794 29.9869 30.015C29.9849 31.051 30.8253 31.8914 31.8613 31.8895C32.8956 31.8891 33.7362 31.0486 33.7365 30.0142C33.7369 28.9799 32.8964 28.1394 31.8621 28.1398Z" fill="black"/>
</g>
<defs>
<clipPath id="clip0_7374_56138">
<rect width="60" height="60" fill="white" transform="translate(16.875 16)"/>
</clipPath>
</defs>
</svg>
