<svg width="56" height="53" viewBox="0 0 56 53" fill="none" xmlns="http://www.w3.org/2000/svg">
<mask id="mask0_7187_5820" style="mask-type:alpha" maskUnits="userSpaceOnUse" x="0" y="0" width="56" height="53">
<rect width="56" height="53" fill="#D9D9D9"/>
</mask>
<g mask="url(#mask0_7187_5820)">
</g>
<g clip-path="url(#clip0_7187_5820)">
<path d="M20.365 26.4332C20.7706 25.6063 21.1975 24.776 21.6369 23.9653L21.6407 23.9584L22.1069 23.0539L22.7954 21.9131L22.7997 21.9057C23.0568 21.4682 23.3235 21.0265 23.5925 20.593L24.0663 19.8104C24.697 18.7662 25.2041 18.0047 26.0039 16.9011C26.4349 16.3071 26.8435 15.7857 27.491 14.9764L27.4925 14.9749L27.5245 14.9346L27.5369 14.9186C27.7998 14.5835 28.0652 14.2532 28.3256 13.9368L28.3342 13.9261L28.3393 13.9198C28.9434 13.1717 29.5592 12.4208 30.1694 11.6889L30.412 11.3979V7.09954H29.9731C29.7392 6.87949 29.5001 6.66097 29.2613 6.44827C27.3265 4.73148 25.397 3.38456 23.525 2.44809C21.6057 1.48676 19.8331 0.999512 18.257 0.999512C17.1317 0.999512 16.126 1.2515 15.2679 1.74814C14.4427 2.22575 13.7493 2.93737 13.2066 3.86345C12.698 4.73122 12.3233 5.78736 12.0924 7.0022C11.6477 9.3439 11.744 12.2753 12.3712 15.4782C12.4503 15.8812 12.5375 16.2894 12.6311 16.695C12.1306 16.8471 11.6447 17.0038 11.1828 17.1648C8.15936 18.2189 5.63082 19.5962 3.87093 21.1485C2.95829 21.9524 2.2525 22.8021 1.76956 23.674C1.25645 24.6011 0.996094 25.552 0.996094 26.5004C0.996094 28.4017 2.04944 30.3284 4.04205 32.0762C5.91805 33.7222 8.57106 35.1594 11.7121 36.2338C12.0039 36.3329 12.3007 36.4292 12.5994 36.5213C12.4949 36.9758 12.3984 37.4339 12.3114 37.8902C11.7141 41.0358 11.6444 43.9142 12.1086 46.2143C12.3497 47.4058 12.7325 48.4425 13.2466 49.2963C13.7932 50.2039 14.487 50.9046 15.3087 51.3784C16.1744 51.8776 17.1933 52.1306 18.3369 52.1306C19.894 52.1306 21.6348 51.6689 23.5114 50.7583C25.3508 49.8657 27.2286 48.5872 29.0919 46.9584C29.3792 46.7074 29.675 46.4389 29.9706 46.1591H30.412V41.7381L30.2513 41.5403L30.1752 41.4473L28.1517 38.9489L27.0273 37.5609C26.4597 36.8602 25.5506 35.5635 24.4668 33.9103C23.6049 32.5961 22.9772 31.5407 22.6796 31.0297L22.6471 30.9736C22.1277 30.078 21.7418 29.3565 21.432 28.7772C21.0442 28.0514 20.6616 27.3101 20.2935 26.5716L20.3609 26.4406L20.365 26.4332ZM18.3151 22.0502C17.9721 21.1705 17.658 20.2977 17.3771 19.4439C18.2535 19.2631 19.1646 19.1009 20.0978 18.9594C19.7865 19.4692 19.4807 19.9838 19.1852 20.4967C18.8896 21.0096 18.599 21.5282 18.3151 22.0502ZM17.3454 33.7651C17.6357 32.8813 17.9617 31.9763 18.3186 31.0629C18.6049 31.5876 18.8984 32.1099 19.1953 32.6227C19.5064 33.1599 19.8291 33.6997 20.1574 34.2346C19.1824 34.0997 18.2403 33.9423 17.3454 33.7653V33.7651ZM15.781 8.12931C16.0091 6.56412 16.5197 5.44537 17.1847 5.06028C17.4608 4.90032 17.8271 4.81945 18.273 4.81945C19.2483 4.81945 20.51 5.20225 21.9213 5.92654C23.451 6.71243 25.1098 7.88138 26.7183 9.30967C26.818 9.39823 26.92 9.49026 27.0243 9.58575C25.6094 11.1502 24.2151 12.8885 22.8748 14.76C20.5911 14.983 18.3957 15.3162 16.3402 15.7514C16.2659 15.4259 16.1962 15.0986 16.1323 14.7754L16.1263 14.742C15.6362 12.2383 15.5168 9.95055 15.781 8.12931ZM16.0677 26.5597C15.1018 28.6892 14.2809 30.7974 13.6246 32.8332C13.3964 32.7622 13.1711 32.6881 12.949 32.6126C10.3378 31.72 8.16291 30.5678 6.65983 29.2807C5.50964 28.2958 4.82313 27.2569 4.82313 26.5014C4.82313 25.7259 5.50989 24.7268 6.70774 23.7584C8.10207 22.631 10.0863 21.6007 12.442 20.7796C12.8423 20.6407 13.2499 20.5076 13.6588 20.3831C14.306 22.3892 15.116 24.4644 16.0674 26.5595L16.0677 26.5597ZM16.0707 38.5996C16.1432 38.2193 16.2229 37.8367 16.3098 37.4565C18.3379 37.8715 20.5584 38.1843 22.9202 38.3871C24.2734 40.2717 25.6794 42.0217 27.1044 43.5953C26.9285 43.7573 26.751 43.9167 26.5746 44.0716C24.5117 45.8749 22.44 47.1784 20.5845 47.8416L20.546 47.8553C19.7145 48.1489 18.9719 48.2977 18.3404 48.2977C17.8745 48.2977 17.4983 48.2171 17.2222 48.0579C16.5501 47.6703 16.0271 46.5758 15.7873 45.055C15.5069 43.2827 15.605 41.0503 16.0705 38.5993L16.0707 38.5996Z" fill="black"/>
<path d="M53.5032 28.6119C52.5523 26.8635 51.1535 25.7292 49.3065 25.209C49.2923 25.2033 49.2802 25.1933 49.272 25.1803C49.2639 25.1673 49.2601 25.152 49.2611 25.1367C49.2604 25.1233 49.2633 25.11 49.2694 25.0981C49.2755 25.0862 49.2846 25.076 49.2959 25.0688C50.6709 24.3042 51.7278 23.2153 52.4686 21.8264C53.2148 20.4254 53.5879 18.7397 53.5881 16.769C53.5881 13.5177 52.7655 11.0992 51.1275 9.49041C49.4896 7.88161 47.3091 7.08203 44.5945 7.08203H29.9325C29.9009 7.08203 29.875 7.11524 29.875 7.15631V46.084C29.875 46.1251 29.9004 46.1583 29.9325 46.1583H43.7888C45.7395 46.1583 47.4221 45.8736 48.8365 45.3042C50.2539 44.7358 51.4071 43.9687 52.315 43.0053C53.2228 42.042 53.8847 40.8928 54.3091 39.5576C54.7335 38.2335 54.9454 36.7993 54.9454 35.2671C54.9464 32.5958 54.4617 30.3852 53.5032 28.6119ZM35.1914 12.6913C35.1914 12.6502 35.2168 12.617 35.249 12.617H43.8547C45.2985 12.617 46.4028 13.0226 47.1669 13.8224C47.931 14.6223 48.3128 16.0128 48.3128 17.9846C48.3128 19.7384 47.8884 21.0754 47.0388 22.0175C46.1893 22.9596 45.1281 23.4199 43.854 23.4199H35.2485C35.2168 23.4199 35.1909 23.3867 35.1909 23.3457L35.1914 12.6913ZM48.3275 38.9501C47.4437 40.0342 46.1876 40.5726 44.5737 40.5726H35.2485C35.2168 40.5726 35.1909 40.5394 35.1909 40.4983V28.421C35.1909 28.3799 35.2163 28.3467 35.2485 28.3467H44.5732C46.187 28.3467 47.427 28.8509 48.3269 29.902C49.2269 30.9531 49.6688 32.4326 49.6688 34.3714C49.6693 36.343 49.2186 37.8768 48.3275 38.9501Z" fill="black"/>
</g>
<defs>
<clipPath id="clip0_7187_5820">
<rect width="53.9471" height="51.1303" fill="white" transform="translate(1 1)"/>
</clipPath>
</defs>
</svg>
