<svg width="93" height="92" viewBox="0 0 93 92" fill="none" xmlns="http://www.w3.org/2000/svg">
<mask id="mask0_7374_56105" style="mask-type:alpha" maskUnits="userSpaceOnUse" x="0" y="0" width="93" height="92">
<rect x="0.875" width="92" height="92" fill="black"/>
</mask>
<g mask="url(#mask0_7374_56105)">
<path d="M37.8516 62.2248V36.8248C37.8516 35.8248 38.1516 34.8498 38.7016 34.0248L45.5266 23.8748C46.6016 22.2498 49.2766 21.0998 51.5516 21.9498C54.0016 22.7748 55.6266 25.5248 55.1016 27.9748L53.8016 36.1498C53.7016 36.8998 53.9016 37.5748 54.3266 38.0998C54.7516 38.5748 55.3766 38.8748 56.0516 38.8748H66.3266C68.3016 38.8748 70.0016 39.6748 71.0016 41.0748C71.9516 42.4248 72.1266 44.1748 71.5016 45.9498L65.3516 64.6748C64.5766 67.7748 61.2016 70.2998 57.8516 70.2998H48.1016C46.4266 70.2998 44.0766 69.7248 43.0016 68.6498L39.8016 66.1748C38.5766 65.2498 37.8516 63.7748 37.8516 62.2248Z" fill="black"/>
<path d="M29.9 31.9492H27.325C23.45 31.9492 21.875 33.4492 21.875 37.1492V62.2992C21.875 65.9992 23.45 67.4992 27.325 67.4992H29.9C33.775 67.4992 35.35 65.9992 35.35 62.2992V37.1492C35.35 33.4492 33.775 31.9492 29.9 31.9492Z" fill="black"/>
</g>
</svg>
