<svg width="76" height="76" viewBox="0 0 76 76" fill="none" xmlns="http://www.w3.org/2000/svg">
<mask id="mask0_7039_90284" style="mask-type:alpha" maskUnits="userSpaceOnUse" x="-1" y="-1" width="78" height="78">
<rect width="76" height="76" fill="white" stroke="white" stroke-width="2"/>
</mask>
<g mask="url(#mask0_7039_90284)">
<path d="M39.6984 44.9996C40.5984 44.1996 40.8984 43.3996 40.9984 42.6996L40.2984 42.4996C36.5984 41.4996 36.2984 39.8996 36.4984 38.4996V38.3996L36.8984 37.5996C36.9984 37.4996 36.9984 37.4996 36.9984 37.3996C37.1984 37.0996 37.3984 36.7996 37.5984 36.5996C37.8984 35.9996 38.2984 35.3996 38.5984 34.6996C38.6984 34.3996 38.7984 34.0996 38.7984 33.8996C38.8984 33.5996 38.8984 33.3996 38.9984 33.2996C39.0984 33.0996 39.2984 32.9996 39.4984 32.7996L39.6984 32.5996H39.7984L40.4984 31.6996C40.8984 31.0996 41.0984 30.3996 41.1984 29.4996C41.1984 29.2996 41.1984 29.1996 41.2984 28.9996C41.3984 28.5996 41.3984 28.1996 41.3984 27.8996C41.3984 27.5996 41.3984 27.2996 41.3984 26.9996C41.3984 26.0996 40.9984 24.8996 39.9984 24.3996H39.8984V24.1996C39.8984 23.8996 39.9984 23.5996 39.9984 23.2996C40.1984 22.2996 40.3984 21.2996 40.3984 20.3996C40.4984 18.7996 40.0984 17.2996 39.3984 16.0996C38.5984 14.6996 37.3984 13.6996 35.8984 12.9996C35.4984 12.7996 35.1984 12.6996 34.9984 12.5996C33.2984 11.9996 31.3984 11.5996 29.4984 11.5996C28.9984 11.5996 28.6984 11.5996 28.2984 11.5996C27.0984 11.6996 25.5984 11.7996 24.1984 12.3996C23.9984 12.4996 23.8984 12.5996 23.7984 12.5996C23.2984 12.8996 22.7984 13.3996 22.3984 13.8996L22.1984 14.2996C22.0984 14.4996 21.9984 14.5996 21.8984 14.6996C21.5984 14.8996 21.3984 15.0996 21.0984 15.1996C20.4984 15.4996 19.9984 15.8996 19.5984 16.4996C19.1984 17.2996 18.8984 18.1996 18.8984 19.3996C18.8984 20.2996 18.8984 21.2996 18.9984 22.4996C18.9984 22.8996 19.0984 23.2996 19.1984 23.6996C19.1984 23.8996 19.2984 23.9996 19.2984 24.0996V24.1996H19.1984C18.0984 24.5996 17.5984 25.7996 17.5984 26.7996V26.9996C17.5984 27.2996 17.5984 27.4996 17.5984 27.7996C17.5984 28.1996 17.6984 28.4996 17.6984 28.8996L17.7984 29.3996C17.8984 30.0996 18.0984 30.8996 18.4984 31.4996C18.6984 31.7996 18.8984 32.0996 19.0984 32.2996C19.3984 32.5996 19.6984 32.7996 19.9984 32.9996C20.3984 34.3996 20.8984 35.5996 21.5984 36.6996V36.7996L21.6984 36.8996L21.8984 37.1996L22.0984 37.2996C22.1984 37.3996 22.2984 37.5996 22.3984 37.6996L22.4984 37.7996C22.5984 37.9996 22.5984 38.0996 22.6984 38.0996C22.8984 39.1996 23.1984 41.0996 18.9984 42.1996C14.9984 43.2996 9.79844 45.4996 7.99844 49.5996C7.49844 50.7996 7.39844 52.0996 7.39844 53.0996C7.39844 53.2996 7.39844 64.6996 7.39844 64.9996C7.39844 65.6996 7.99844 66.2996 8.69844 66.2996C8.99844 66.2996 9.39844 66.0996 9.59844 65.8996C9.79844 65.5996 9.99844 65.2996 9.99844 64.9996C9.99844 64.7996 9.99844 53.4996 9.99844 53.1996C9.99844 52.0996 10.0984 51.3996 10.3984 50.7996C11.7984 47.5996 16.2984 45.7996 19.7984 44.7996C24.0984 43.5996 25.9984 41.1996 25.3984 37.6996C25.2984 37.1996 25.0984 36.7996 24.7984 36.2996V36.1996C24.5984 35.8996 24.3984 35.6996 24.1984 35.4996C23.5984 34.5996 23.0984 33.4996 22.7984 32.2996C22.5984 31.5996 22.1984 31.1996 21.7984 30.8996L21.5984 30.7996C21.3984 30.6996 21.2984 30.5996 21.1984 30.4996C21.0984 30.3996 20.9984 30.2996 20.9984 30.1996C20.7984 29.8996 20.6984 29.4996 20.6984 29.0996C20.6984 28.8996 20.6984 28.7996 20.5984 28.5996C20.5984 28.2996 20.4984 27.9996 20.4984 27.7996C20.4984 27.5996 20.4984 27.3996 20.4984 27.1996V26.9996V26.7996H20.5984C20.6984 26.7996 20.6984 26.7996 20.8984 26.7996L21.1984 26.6996L21.4984 26.5996C21.9984 26.2996 22.2984 25.7996 22.2984 25.1996C22.2984 24.4996 22.1984 23.7996 22.0984 23.2996C21.9984 22.9996 21.9984 22.6996 21.9984 22.3996C21.8984 21.2996 21.8984 20.3996 21.8984 19.5996C21.8984 18.7996 22.0984 18.2996 22.2984 17.8996C22.2984 17.7996 22.4984 17.7996 22.4984 17.6996C23.0984 17.4996 23.4984 17.0996 23.8984 16.7996C24.3984 16.3996 24.5984 16.0996 24.7984 15.7996L24.9984 15.4996C25.1984 15.1996 25.3984 14.9996 25.6984 14.7996C25.6984 14.7996 25.7984 14.7996 25.7984 14.6996C26.6984 14.2996 27.8984 14.1996 28.8984 14.0996C29.1984 14.0996 29.4984 14.0996 29.8984 14.0996C31.4984 14.0996 33.0984 14.3996 34.4984 14.8996C34.4984 14.9996 34.6984 15.0996 34.9984 15.2996C35.9984 15.7996 36.7984 16.3996 37.2984 17.2996C37.7984 18.0996 37.9984 19.0996 37.9984 20.1996C37.9984 20.9996 37.8984 21.7996 37.6984 22.5996C37.5984 22.9996 37.4984 23.4996 37.4984 23.8996V24.1996V24.4996C37.3984 24.7996 37.3984 25.2996 37.5984 25.7996C37.7984 26.3996 38.2984 26.6996 38.8984 26.7996H38.9984V26.8996V27.0996C38.9984 27.2996 38.9984 27.4996 38.9984 27.6996C38.9984 27.9996 38.9984 28.1996 38.8984 28.4996C38.8984 28.6996 38.7984 28.8996 38.7984 29.0996C38.6984 29.5996 38.5984 29.8996 38.3984 30.1996C38.3984 30.1996 38.3984 30.2996 38.2984 30.2996L38.1984 30.3996C38.0984 30.4996 37.9984 30.5996 37.8984 30.6996C37.5984 30.8996 37.2984 31.1996 36.9984 31.5996C36.5984 32.0996 36.3984 32.6996 36.2984 33.1996C36.2984 33.3996 36.1984 33.4996 36.1984 33.5996C35.9984 34.1996 35.6984 34.6996 35.4984 35.0996C34.8984 35.9996 34.2984 36.5996 34.0984 37.7996C33.4984 41.2996 35.3984 43.6996 39.6984 44.8996C39.5984 44.8996 39.6984 44.8996 39.6984 44.9996Z" fill="black"/>
<path d="M67.2 48.2998C65.8 47.7998 64.7 46.8998 64 45.4998C63.2 43.9998 63 42.7998 63.3 41.4998C63.5 40.4998 63.1 39.6998 62.3 39.1998L60.9 38.2998C60.5 38.0998 60.1 37.7998 59.7 37.5998C59.1 37.1998 58.1 37.1998 57.5 37.4998C57.4 37.5998 57.2 37.6998 57.1 37.7998L57 37.8998C56.7 38.0998 56.4 38.2998 56.2 38.4998C56.1 38.4998 56 38.5998 56 38.5998C54.8 38.9998 53.8 39.1998 52.8 39.0998C51.5 38.9998 50.4 38.4998 49.4 37.5998C48.6 36.8998 47.7 36.7998 46.8 37.2998C45.9 37.7998 45 38.2998 44.1 38.7998C43.2 39.2998 42.8 40.0998 43 41.0998C43.4 43.4998 42.5 45.3998 40.3 47.1998C40.2 47.2998 40.2 47.2998 40.1 47.3998C39.8 47.4998 39.5 47.6998 39.1 47.7998C38.9 47.8998 38.7 47.8998 38.6 47.9998C37.9 48.3998 37.5 49.0998 37.5 49.8998C37.5 50.4998 37.5 51.0998 37.5 51.6998V52.9998C37.5 53.9998 38 54.7998 39 55.0998C40.2 55.4998 41.2 56.3998 42 57.7998C42.8 59.1998 43 60.4998 42.7 61.9998C42.5 62.8998 42.9 63.6998 43.7 64.1998C44.6 64.6998 45.5 65.2998 46.5 65.8998C46.8 66.0998 47.1 66.1998 47.5 66.1998H47.6C47.9 66.1998 48.2 66.0998 48.5 65.9998C48.7 65.8998 48.9 65.7998 49 65.5998C49.2 65.3998 49.4 65.1998 49.7 64.9998C50.5 64.5998 51.5 64.2998 52.7 64.2998C52.9 64.2998 53.2 64.2998 53.4 64.2998C54.7 64.3998 55.9 64.8998 56.5 65.5998C56.9 66.0998 57.4 66.2998 58 66.2998H58.1C58.5 66.2998 58.9 66.1998 59.3 65.9998C59.8 65.6998 60.2 65.4998 60.6 65.2998C60.9 65.0998 61.4 64.8998 61.9 64.5998C62.9 63.9998 63.3 63.0998 63 61.9998C62.8 61.0998 63 59.8998 63.6 58.6998C64.2 57.4998 65.1 56.4998 66.1 55.8998C66.4 55.6998 66.7 55.5998 67 55.5998C67.7 55.3998 68.2 55.0998 68.4 54.4998C68.5 54.1998 68.6 53.8998 68.6 53.5998C68.6 52.4998 68.6 51.3998 68.7 50.2998C68.6 49.3998 68 48.5998 67.2 48.2998ZM66 50.6998C66 51.4998 66 52.2998 66 53.0998V53.1998H65.9C65.5 53.2998 65.1 53.4998 64.8 53.6998C63.4 54.4998 62.1 55.8998 61.3 57.5998C60.5 59.1998 60.2 60.8998 60.5 62.3998V62.4998H60.4C60 62.6998 59.6 62.8998 59.3 63.0998C59.1 63.1998 58.7 63.3998 58.4 63.5998L58.3 63.6998L58.2 63.5998C57.1 62.5998 55.5 61.8998 53.7 61.6998C51.8 61.4998 49.9 61.8998 48.5 62.5998C48.1 62.7998 47.8 62.9998 47.5 63.2998L47.4 63.3998H47.3C46.6 62.9998 46 62.5998 45.2 62.1998H45.1V62.0998C45.4 60.0998 45.1 58.2998 44 56.4998C42.9 54.5998 41.6 53.4998 39.9 52.7998H39.8V51.6998C39.8 51.1998 39.8 50.6998 39.8 50.1998V50.0998H39.9C40.3 49.9998 40.7 49.7998 41.1 49.5998C41.3 49.4998 41.5 49.3998 41.7 49.1998C44.6 46.8998 45.8 44.1998 45.4 40.9998V40.8998H45.5C46.2 40.4998 47 40.0998 47.6 39.6998H47.7L47.8 39.7998C49.2 40.9998 50.7 41.5998 52.5 41.6998C53.8 41.7998 55.2 41.5998 56.7 40.9998C56.9 40.8998 57.1 40.7998 57.3 40.6998C57.7 40.4998 58.1 40.1998 58.4 39.8998L58.5 39.7998H58.6C59 39.9998 59.4 40.2998 59.8 40.4998L60.8 41.0998V41.1998C60.5 42.9998 60.8 44.6998 61.8 46.5998C62.8 48.4998 64.1 49.7998 66 50.4998V50.6998Z" fill="black"/>
<path d="M58.5011 48.7998C57.7011 47.2998 56.4011 46.1998 54.8011 45.6998C54.3011 45.5998 53.8011 45.4998 53.4011 45.3998C52.2011 45.2998 51.1011 45.5998 50.0011 46.1998C48.5011 46.9998 47.4011 48.3998 47.0011 49.9998C46.6011 51.5998 46.8011 53.2998 47.7011 54.7998C48.7011 56.5998 50.6011 57.6998 52.6011 57.7998C52.7011 57.7998 52.9011 57.7998 53.0011 57.7998C54.0011 57.7998 55.1011 57.4998 56.1011 56.9998C58.9011 55.3998 60.0011 51.7998 58.5011 48.7998ZM52.9011 47.6998C53.0011 47.6998 53.1011 47.6998 53.1011 47.6998C53.4011 47.6998 53.7011 47.7998 54.0011 47.8998C55.0011 48.1998 55.9011 48.8998 56.4011 49.8998C57.4011 51.7998 56.7011 54.0998 54.8011 55.0998C54.1011 55.4998 53.4011 55.6998 52.6011 55.5998C51.3011 55.4998 50.1011 54.7998 49.5011 53.6998C48.9011 52.7998 48.8011 51.6998 49.1011 50.5998C49.4011 49.5998 50.1011 48.6998 51.0011 48.1998C51.6011 47.8998 52.3011 47.6998 52.9011 47.6998Z" fill="black"/>
<path d="M34.4974 54.6998L34.1974 52.5998C34.0974 51.9998 33.9974 51.4998 33.8974 50.8998C33.6974 49.8998 33.4974 48.7998 33.4974 47.6998V47.4998C33.4974 46.8998 32.8974 46.2998 32.1974 46.2998C31.8974 46.2998 31.5974 46.4998 31.3974 46.6998C31.1974 46.8998 31.0974 47.2998 31.0974 47.5998V47.9998C31.0974 48.9998 31.2974 49.9998 31.4974 50.9998L31.5974 51.2998C31.6974 51.7998 31.7974 52.3998 31.8974 52.8998L32.1974 55.0998C32.3974 56.5998 32.6974 58.0998 32.8974 59.5998C32.2974 60.1998 31.4974 60.9998 30.7974 61.6998L30.3974 61.9998C29.5974 61.2998 28.6974 60.2998 27.9974 59.6998C28.1974 58.3998 28.3974 57.0998 28.5974 55.8998L29.0974 52.9998C29.1974 52.5998 29.1974 52.1998 29.2974 51.7998L29.4974 50.7998C29.6974 49.9998 29.7974 49.0998 29.7974 48.2998C29.7974 48.0998 29.7974 47.8998 29.7974 47.7998V47.6998C29.7974 47.0998 29.1974 46.4998 28.4974 46.4998C28.1974 46.4998 27.8974 46.5998 27.6974 46.8998C27.4974 47.0998 27.3974 47.4998 27.3974 47.7998V47.8998C27.3974 48.8998 27.1974 49.8998 26.9974 50.8998V51.0998C26.8974 51.5998 26.7974 52.1998 26.6974 52.7998L26.3974 54.8998C26.0974 56.5998 25.8974 58.2998 25.6974 59.8998C25.5974 60.4998 25.7974 60.9998 26.1974 61.3998C26.8974 62.0998 27.9974 63.1998 28.7974 63.9998L29.3974 64.4998C29.6974 64.7998 30.0974 64.8998 30.4974 64.9998H30.5974C30.9974 64.9998 31.3974 64.7998 31.7974 64.4998L32.2974 63.9998C33.0974 63.1998 34.1974 62.0998 34.9974 61.3998C35.3974 60.9998 35.5974 60.4998 35.4974 59.8998C34.9974 57.9998 34.6974 56.2998 34.4974 54.6998Z" fill="black"/>
</g>
</svg>
