<svg width="80" height="80" viewBox="0 0 80 80" fill="none" xmlns="http://www.w3.org/2000/svg">
<mask id="mask0_7380_56332" style="mask-type:alpha" maskUnits="userSpaceOnUse" x="-1" y="-1" width="82" height="82">
<rect width="80" height="80" fill="white" stroke="white" stroke-width="2"/>
</mask>
<g mask="url(#mask0_7380_56332)">
<path d="M73.1933 43.8464C71.1009 43.8464 69.3304 45.0535 68.6866 46.9045H58.2246L54.2007 40.2249L58.1441 33.8672H68.6061C69.3304 35.6377 71.1009 36.9253 73.1128 36.9253C76.0904 36.9253 78.5852 34.1086 77.9414 30.97C77.539 29.1191 76.0904 27.5095 74.159 27.1876C71.7447 26.7048 69.4108 28.0729 68.6061 30.2458H57.0979C56.5345 30.2458 55.8907 30.5677 55.5688 31.131L51.1426 38.213C51.2231 38.9373 51.3035 39.6616 51.3035 40.3054C51.3035 41.0297 51.2231 41.754 51.1426 42.4782L55.5688 49.7212C55.8907 50.204 56.5345 50.6064 57.0979 50.6064H68.6061C69.3304 52.4574 71.1009 53.6645 73.1128 53.6645C75.849 53.6645 78.0219 51.4917 78.0219 48.7555C78.0219 46.0192 75.9295 43.8464 73.1933 43.8464Z" fill="black"/>
<path d="M14.5232 40.386C14.5232 30.2459 22.7318 22.0373 32.8719 22.0373C35.1253 22.0373 37.3786 22.4396 39.3906 23.2444V13.1043C39.3906 12.541 39.3906 12.1386 39.3101 11.6557C39.0687 10.1267 37.781 9 36.252 9H29.5724C27.9628 9 26.6752 10.1267 26.5143 11.6557L25.7095 17.3696C23.939 18.0939 23.5366 18.2548 21.7661 18.9791L17.1789 15.5186C15.9718 14.6334 14.2013 14.7139 13.1551 15.7601L8.48742 20.5082C7.36075 21.6349 7.28027 23.3249 8.24599 24.532L11.7065 29.1997C10.9822 30.9702 10.8213 31.3726 10.0165 33.1431L4.22215 33.9479C2.77356 34.1893 1.56641 35.4769 1.56641 37.006V43.6051C1.56641 45.1341 2.69308 46.5023 4.22215 46.6632L9.93601 47.468C10.6603 49.2385 10.8213 49.6409 11.626 51.4113L8.08504 56.24C7.11932 57.4471 7.28027 59.2176 8.32647 60.2638L13.0746 65.0119C14.1208 66.0581 15.8913 66.2191 17.0985 65.2534L21.7661 61.7124C23.5366 62.4367 23.939 62.5976 25.7095 63.4024L26.5143 69.1163C26.7557 70.5649 28.0433 71.772 29.5724 71.772H36.252C37.8615 71.772 39.1491 70.6453 39.3101 69.1163C39.3906 68.7139 39.3906 68.1506 39.3906 67.6677V57.6081C37.3786 58.4128 35.2058 58.8152 32.9524 58.8152C22.7318 58.7347 14.5232 50.5261 14.5232 40.386Z" fill="black"/>
<path d="M59.9888 55.5966C57.494 55.0333 55.2407 56.4819 54.4359 58.5743H49.6878L46.2272 53.0214C45.342 53.9871 44.3763 54.7919 43.3301 55.5162L47.032 61.4714C47.3539 62.0348 47.9977 62.3567 48.6416 62.3567H54.4359C55.2407 64.1272 57.0112 65.4148 58.9426 65.4148C62.0007 65.4148 64.4955 62.5981 63.7712 59.379C63.2884 57.5281 61.8398 55.9185 59.9888 55.5966Z" fill="black"/>
<path d="M49.7737 22.117H54.5218C55.3266 24.2094 57.6604 25.5775 60.0747 25.0947C61.9257 24.6923 63.4548 23.1632 63.8572 21.3123C64.5815 18.0932 62.0867 15.2765 59.0285 15.2765C57.0166 15.2765 55.1656 16.5641 54.5218 18.3346H48.7275C48.0837 18.3346 47.5203 18.6565 47.1984 19.2199L43.416 25.3361C44.4622 26.0604 45.4279 26.8652 46.2327 27.8309L49.7737 22.117Z" fill="black"/>
<path d="M32.8749 25.8193C24.8272 25.8193 18.3086 32.338 18.3086 40.3857C18.3086 48.4334 24.8272 54.952 32.8749 54.952C40.9226 54.952 47.4412 48.4334 47.4412 40.3857C47.4412 32.338 40.9226 25.8193 32.8749 25.8193Z" fill="black"/>
</g>
</svg>
