<svg width="80" height="80" viewBox="0 0 80 80" fill="none" xmlns="http://www.w3.org/2000/svg">
<mask id="mask0_7380_56321" style="mask-type:alpha" maskUnits="userSpaceOnUse" x="-1" y="-1" width="82" height="82">
<rect width="80" height="80" fill="white" stroke="white" stroke-width="2"/>
</mask>
<g mask="url(#mask0_7380_56321)">
<path d="M68.68 44.29C68.7371 43.8819 68.7059 43.4662 68.5886 43.0712C68.4713 42.6761 68.2706 42.3108 68 42C67.7397 41.6877 67.414 41.4363 67.046 41.2635C66.678 41.0907 66.2766 41.0008 65.87 41H65.53C64.8391 41.0087 64.1746 41.2663 63.6584 41.7256C63.1422 42.1848 62.809 42.8148 62.72 43.5C62.08 47.6415 60.3207 51.5294 57.632 54.7439C54.9434 57.9583 51.4276 60.3771 47.4644 61.739C43.5013 63.1009 39.2413 63.3541 35.1447 62.4713C31.0481 61.5885 27.2705 59.6033 24.22 56.73L22.4 55H30.83C31.5981 55.0193 32.3464 54.7544 32.9313 54.2562C33.5163 53.758 33.8968 53.0614 34 52.3C34.0421 51.8816 33.9957 51.459 33.8639 51.0596C33.732 50.6603 33.5177 50.2931 33.2349 49.9819C32.952 49.6708 32.6068 49.4225 32.2218 49.2534C31.8368 49.0842 31.4205 48.9979 31 49H19C17.1435 49 15.363 49.7375 14.0503 51.0503C12.7375 52.363 12 54.1435 12 56V68C12.0023 68.4194 12.0924 68.8336 12.2647 69.216C12.4369 69.5984 12.6874 69.9404 13 70.22C13.3078 70.5032 13.6714 70.7188 14.0675 70.8531C14.4636 70.9875 14.8834 71.0375 15.3 71C16.0614 70.8968 16.758 70.5163 17.2562 69.9313C17.7544 69.3464 18.0193 68.5981 18 67.83V59L19.7 60.67C25.1054 66.012 32.4003 69.0054 40 69C46.9387 68.967 53.6382 66.4609 58.895 61.9318C64.1517 57.4027 67.6212 51.1475 68.68 44.29Z" fill="black"/>
<path d="M64.7007 9.00012C63.9393 9.10331 63.2428 9.48384 62.7445 10.0688C62.2463 10.6538 61.9815 11.402 62.0007 12.1701V21.0001L60.3007 19.3001C54.8905 13.9691 47.5962 10.9867 40.0007 11.0001C33.0621 11.0331 26.3625 13.5392 21.1058 18.0683C15.849 22.5974 12.3796 28.8526 11.3207 35.7101C11.2636 36.1183 11.2948 36.5339 11.4121 36.9289C11.5294 37.324 11.7302 37.6893 12.0007 38.0001C12.2611 38.3124 12.5867 38.5638 12.9547 38.7366C13.3227 38.9094 13.7242 38.9993 14.1307 39.0001H14.4707C15.1616 38.9914 15.8261 38.7338 16.3423 38.2746C16.8585 37.8153 17.1917 37.1853 17.2807 36.5001C17.9207 32.3586 19.6801 28.4707 22.3687 25.2563C25.0574 22.0418 28.5731 19.623 32.5363 18.2611C36.4995 16.8992 40.7594 16.646 44.856 17.5288C48.9526 18.4116 52.7302 20.3968 55.7807 23.2701L57.6007 25.0001H49.1707C48.4026 24.9808 47.6544 25.2457 47.0694 25.7439C46.4845 26.2421 46.1039 26.9387 46.0007 27.7001C45.9587 28.1185 46.0051 28.5411 46.1369 28.9405C46.2687 29.3398 46.483 29.707 46.7659 30.0182C47.0488 30.3293 47.3939 30.5776 47.7789 30.7467C48.1639 30.9159 48.5802 31.0022 49.0007 31.0001H61.0007C62.8573 31.0001 64.6377 30.2626 65.9505 28.9499C67.2632 27.6371 68.0007 25.8566 68.0007 24.0001V12.0001C67.9985 11.5807 67.9083 11.1665 67.7361 10.7841C67.5638 10.4017 67.3133 10.0597 67.0007 9.78012C66.6929 9.49696 66.3293 9.28129 65.9332 9.14697C65.5371 9.01264 65.1173 8.96262 64.7007 9.00012Z" fill="black"/>
</g>
</svg>
