<svg width="93" height="92" viewBox="0 0 93 92" fill="none" xmlns="http://www.w3.org/2000/svg">
<mask id="mask0_7374_56151" style="mask-type:alpha" maskUnits="userSpaceOnUse" x="0" y="0" width="93" height="92">
<rect x="0.875" width="92" height="92" fill="black"/>
</mask>
<g mask="url(#mask0_7374_56151)">
</g>
<path d="M67.8206 25.375H25.9294C24.523 25.3765 23.1747 25.9358 22.1803 26.9303C21.1858 27.9247 20.6265 29.273 20.625 30.6794V32.875H73.125V30.6794C73.123 29.2732 72.5635 27.9251 71.5692 26.9308C70.5749 25.9365 69.2268 25.377 67.8206 25.375ZM27.1875 31C27.0021 31 26.8208 30.945 26.6667 30.842C26.5125 30.739 26.3923 30.5926 26.3214 30.4213C26.2504 30.25 26.2318 30.0615 26.268 29.8796C26.3042 29.6977 26.3935 29.5307 26.5246 29.3996C26.6557 29.2685 26.8227 29.1792 27.0046 29.143C27.1865 29.1068 27.375 29.1254 27.5463 29.1964C27.7176 29.2673 27.864 29.3875 27.967 29.5417C28.07 29.6958 28.125 29.8771 28.125 30.0625C28.125 30.3111 28.0262 30.5496 27.8504 30.7254C27.6746 30.9012 27.4361 31 27.1875 31ZM30.9375 31C30.7521 31 30.5708 30.945 30.4167 30.842C30.2625 30.739 30.1423 30.5926 30.0714 30.4213C30.0004 30.25 29.9818 30.0615 30.018 29.8796C30.0542 29.6977 30.1435 29.5307 30.2746 29.3996C30.4057 29.2685 30.5727 29.1792 30.7546 29.143C30.9365 29.1068 31.125 29.1254 31.2963 29.1964C31.4676 29.2673 31.614 29.3875 31.717 29.5417C31.82 29.6958 31.875 29.8771 31.875 30.0625C31.875 30.3111 31.7762 30.5496 31.6004 30.7254C31.4246 30.9012 31.1861 31 30.9375 31ZM34.6875 31C34.5021 31 34.3208 30.945 34.1667 30.842C34.0125 30.739 33.8923 30.5926 33.8214 30.4213C33.7504 30.25 33.7318 30.0615 33.768 29.8796C33.8042 29.6977 33.8935 29.5307 34.0246 29.3996C34.1557 29.2685 34.3227 29.1792 34.5046 29.143C34.6865 29.1068 34.875 29.1254 35.0463 29.1964C35.2176 29.2673 35.364 29.3875 35.467 29.5417C35.57 29.6958 35.625 29.8771 35.625 30.0625C35.625 30.3111 35.5262 30.5496 35.3504 30.7254C35.1746 30.9012 34.9361 31 34.6875 31Z" fill="black"/>
<path d="M20.625 61.3206C20.627 62.7268 21.1865 64.0749 22.1808 65.0692C23.1751 66.0635 24.5232 66.623 25.9294 66.625H67.8206C69.2268 66.623 70.5749 66.0635 71.5692 65.0692C72.5635 64.0749 73.123 62.7268 73.125 61.3206V34.75H20.625V61.3206ZM53.8125 47.8338L48.915 56.9987C49.3217 57.4752 49.5462 58.0805 49.5488 58.7069C49.5648 59.2734 49.4052 59.831 49.0917 60.3032C48.7782 60.7753 48.3262 61.1388 47.7979 61.3439C47.2695 61.5489 46.6906 61.5853 46.1407 61.4482C45.5908 61.3111 45.0968 61.0071 44.7266 60.578C44.3563 60.1489 44.128 59.6158 44.0729 59.0517C44.0178 58.4876 44.1386 57.9203 44.4188 57.4277C44.699 56.9351 45.1248 56.5412 45.6377 56.3003C46.1507 56.0593 46.7257 55.983 47.2838 56.0819L52.1588 46.9581C52.2167 46.8494 52.2956 46.7532 52.3907 46.6749C52.4859 46.5967 52.5956 46.538 52.7134 46.5021C52.8313 46.4662 52.9551 46.4539 53.0777 46.4659C53.2003 46.4779 53.3194 46.5139 53.4281 46.5719C53.5368 46.6299 53.6331 46.7087 53.7113 46.8039C53.7895 46.899 53.8483 47.0087 53.8841 47.1266C53.92 47.2444 53.9323 47.3682 53.9203 47.4908C53.9084 47.6135 53.8724 47.7325 53.8144 47.8413L53.8125 47.8338ZM31.6744 46.21C31.6744 46.1987 31.6856 46.1856 31.695 46.1744C31.7044 46.1631 31.7156 46.1612 31.7231 46.1519C33.549 43.9411 35.8369 42.1569 38.426 40.9247C41.0151 39.6926 43.8426 39.0423 46.7098 39.0196C49.577 38.9969 52.4145 39.6024 55.0227 40.7934C57.631 41.9844 59.9468 43.7321 61.8075 45.9138C61.8238 45.9226 61.8395 45.9327 61.8544 45.9438C61.8759 45.9704 61.8953 45.9986 61.9125 46.0281C64.9163 49.5696 66.5642 54.0631 66.5625 58.7069C66.5625 58.9555 66.4637 59.194 66.2879 59.3698C66.1121 59.5456 65.8736 59.6444 65.625 59.6444H61.92C61.6714 59.6444 61.4329 59.5456 61.2571 59.3698C61.0813 59.194 60.9825 58.9555 60.9825 58.7069C60.9825 58.4582 61.0813 58.2198 61.2571 58.044C61.4329 57.8681 61.6714 57.7694 61.92 57.7694H64.6631C64.479 54.2474 63.247 50.8607 61.125 48.0438L60.375 48.8219C60.201 48.9999 59.9633 49.1015 59.7144 49.1043C59.4654 49.1071 59.2255 49.0109 59.0475 48.8369C58.8695 48.6628 58.7679 48.4252 58.7651 48.1762C58.7623 47.9273 58.8585 47.6874 59.0325 47.5094L59.9212 46.5963C56.7771 43.2034 52.4322 41.1729 47.8125 40.9375V42.0362C47.8125 42.2849 47.7137 42.5233 47.5379 42.6992C47.3621 42.875 47.1236 42.9737 46.875 42.9737C46.6264 42.9737 46.3879 42.875 46.2121 42.6992C46.0363 42.5233 45.9375 42.2849 45.9375 42.0362V40.9375C41.2645 41.1805 36.8763 43.2586 33.7275 46.72L34.5487 47.4494C34.7347 47.6145 34.8475 47.8467 34.8623 48.0949C34.8771 48.3432 34.7926 48.5871 34.6275 48.7731C34.4624 48.9591 34.2302 49.0719 33.9819 49.0867C33.7337 49.1014 33.4897 49.017 33.3038 48.8519L32.5313 48.1656C30.4667 50.9587 29.2689 54.2971 29.0869 57.7656H31.8225C32.0711 57.7656 32.3096 57.8644 32.4854 58.0402C32.6612 58.216 32.76 58.4545 32.76 58.7031C32.76 58.9518 32.6612 59.1902 32.4854 59.366C32.3096 59.5419 32.0711 59.6406 31.8225 59.6406H28.125C27.8764 59.6406 27.6379 59.5419 27.4621 59.366C27.2863 59.1902 27.1875 58.9518 27.1875 58.7031C27.1847 54.1437 28.7714 49.7259 31.6744 46.21Z" fill="black"/>
<path d="M46.8748 57.9082C46.7164 57.9082 46.5615 57.9552 46.4298 58.0433C46.2981 58.1313 46.1955 58.2565 46.135 58.4029C46.0744 58.5493 46.0587 58.7104 46.0897 58.8657C46.1208 59.0211 46.1972 59.1637 46.3094 59.2756C46.4215 59.3875 46.5644 59.4636 46.7198 59.4943C46.8752 59.525 47.0363 59.5089 47.1825 59.448C47.3288 59.3871 47.4537 59.2842 47.5414 59.1523C47.6292 59.0204 47.6758 58.8654 47.6755 58.707C47.675 58.4949 47.5904 58.2918 47.4403 58.142C47.2902 57.9923 47.0869 57.9082 46.8748 57.9082Z" fill="black"/>
</svg>
