<svg width="100" height="100" viewBox="0 0 100 100" fill="none" xmlns="http://www.w3.org/2000/svg">
<rect opacity="0.2" width="100" height="100" rx="20" fill="url(#paint0_linear_481_6520)"/>
<path d="M75 50.2687C75 46.9564 70.852 43.8174 64.4925 41.8708C65.96 35.3889 65.3078 30.232 62.4338 28.5809C61.7713 28.1936 60.9967 28.0102 60.1508 28.0102V30.2829C60.6196 30.2829 60.9967 30.3746 61.3127 30.5479C62.6987 31.3428 63.3 34.3698 62.8312 38.2629C62.7191 39.221 62.5357 40.2299 62.3115 41.2593C60.3139 40.7701 58.1329 40.393 55.8398 40.1484C54.4639 38.2629 53.0371 36.5508 51.6001 35.0526C54.9225 31.9645 58.0412 30.2727 60.161 30.2727V28C57.3583 28 53.6894 29.9976 49.9796 33.4627C46.2699 30.0179 42.6009 28.0408 39.7982 28.0408V30.3135C41.9079 30.3135 45.0367 31.9951 48.3592 35.0628C46.9323 36.5609 45.5055 38.2629 44.15 40.1484C41.8467 40.393 39.6657 40.7701 37.6682 41.2695C37.4338 40.2503 37.2605 39.2617 37.1382 38.3139C36.6592 34.4207 37.2503 31.3938 38.6262 30.5887C38.9319 30.4052 39.3294 30.3237 39.7982 30.3237V28.051C38.9421 28.051 38.1675 28.2344 37.4949 28.6217C34.6311 30.2727 33.989 35.4195 35.4668 41.881C29.1276 43.8377 25 46.9666 25 50.2687C25 53.5809 29.148 56.7199 35.5075 58.6665C34.04 65.1484 34.6922 70.3053 37.5662 71.9564C38.2287 72.3437 39.0033 72.5271 39.8594 72.5271C42.662 72.5271 46.331 70.5296 50.0408 67.0644C53.7505 70.5092 57.4195 72.4863 60.2222 72.4863C61.0783 72.4863 61.8528 72.3029 62.5255 71.9156C65.3893 70.2646 66.0314 65.1178 64.5536 58.6563C70.8724 56.7097 75 53.5707 75 50.2687ZM61.7305 43.4709C61.3534 44.7856 60.8846 46.1411 60.3547 47.4965C59.9368 46.6812 59.4986 45.8659 59.0196 45.0506C58.5508 44.2352 58.0514 43.4403 57.552 42.6657C58.9992 42.8797 60.3954 43.1447 61.7305 43.4709ZM57.0628 54.3249C56.2678 55.7008 55.4525 57.0053 54.6066 58.2181C53.0881 58.3506 51.5491 58.4219 50 58.4219C48.4611 58.4219 46.9221 58.3506 45.4138 58.2283C44.5679 57.0155 43.7424 55.7212 42.9474 54.3555C42.1728 53.0204 41.4696 51.6649 40.8276 50.2992C41.4594 48.9335 42.1729 47.5679 42.9372 46.2328C43.7322 44.8569 44.5475 43.5524 45.3934 42.3396C46.9119 42.2071 48.4509 42.1358 50 42.1358C51.5389 42.1358 53.0779 42.2071 54.5862 42.3294C55.4321 43.5422 56.2576 44.8365 57.0526 46.2022C57.8272 47.5373 58.5304 48.8928 59.1724 50.2585C58.5304 51.6241 57.8271 52.9898 57.0628 54.3249ZM60.3547 53C60.905 54.3657 61.3738 55.7313 61.7611 57.0563C60.426 57.3824 59.0196 57.6576 57.5622 57.8716C58.0616 57.0868 58.5609 56.2817 59.0298 55.4562C59.4986 54.6408 59.9368 53.8153 60.3547 53ZM50.0204 63.8744C49.0726 62.896 48.1247 61.8055 47.1871 60.6131C48.1044 60.6539 49.042 60.6845 49.9898 60.6845C50.9478 60.6845 51.8956 60.6641 52.8231 60.6131C51.9058 61.8055 50.958 62.896 50.0204 63.8744ZM42.4378 57.8716C40.9906 57.6576 39.5944 57.3926 38.2593 57.0664C38.6364 55.7517 39.1052 54.3962 39.6351 53.0408C40.053 53.8561 40.4912 54.6714 40.9702 55.4867C41.4492 56.3021 41.9384 57.097 42.4378 57.8716ZM49.9694 36.6629C50.9172 37.6413 51.8651 38.7318 52.8027 39.9242C51.8854 39.8834 50.9478 39.8528 50 39.8528C49.042 39.8528 48.0942 39.8732 47.1667 39.9242C48.084 38.7318 49.0318 37.6413 49.9694 36.6629ZM42.4276 42.6657C41.9283 43.4505 41.4289 44.2556 40.96 45.0811C40.4912 45.8965 40.053 46.7118 39.6351 47.5271C39.0848 46.1614 38.616 44.7958 38.2287 43.4709C39.5638 43.1549 40.9702 42.8797 42.4276 42.6657ZM33.2042 55.4256C29.5964 53.8867 27.2625 51.8687 27.2625 50.2687C27.2625 48.6686 29.5964 46.6404 33.2042 45.1117C34.0807 44.7346 35.0387 44.3983 36.0273 44.0823C36.6082 46.0799 37.3726 48.159 38.3204 50.289C37.3828 52.4089 36.6286 54.4778 36.0579 56.4651C35.0489 56.1492 34.0909 55.8027 33.2042 55.4256ZM38.6873 69.9894C37.3013 69.1945 36.7 66.1675 37.1688 62.2744C37.2809 61.3163 37.4643 60.3074 37.6885 59.278C39.6861 59.7672 41.8671 60.1443 44.1602 60.3889C45.5361 62.2744 46.9629 63.9865 48.3999 65.4847C45.0775 68.5728 41.9588 70.2646 39.839 70.2646C39.3804 70.2544 38.9931 70.1627 38.6873 69.9894ZM62.8618 62.2234C63.3408 66.1166 62.7497 69.1435 61.3738 69.9486C61.0681 70.1321 60.6706 70.2136 60.2018 70.2136C58.0921 70.2136 54.9633 68.532 51.6409 65.4643C53.0677 63.9662 54.4945 62.2642 55.85 60.3787C58.1533 60.1341 60.3343 59.757 62.3318 59.2576C62.5662 60.287 62.7497 61.2756 62.8618 62.2234ZM66.7856 55.4256C65.9091 55.8027 64.9511 56.139 63.9625 56.455C63.3816 54.4574 62.6172 52.3783 61.6694 50.2483C62.607 48.1284 63.3612 46.0595 63.9319 44.0722C64.9409 44.3881 65.8989 44.7346 66.7958 45.1117C70.4036 46.6506 72.7375 48.6686 72.7375 50.2687C72.7273 51.8687 70.3934 53.8969 66.7856 55.4256Z" fill="black"/>
<path d="M49.9896 54.9262C52.5619 54.9262 54.6472 52.8409 54.6472 50.2686C54.6472 47.6963 52.5619 45.6111 49.9896 45.6111C47.4173 45.6111 45.332 47.6963 45.332 50.2686C45.332 52.8409 47.4173 54.9262 49.9896 54.9262Z" fill="black"/>
<defs>
<linearGradient id="paint0_linear_481_6520" x1="11.809" y1="1.81213e-05" x2="100.05" y2="16.5617" gradientUnits="userSpaceOnUse">
<stop stop-color="#2EC4F3"/>
<stop offset="1" stop-color="#BFD633"/>
</linearGradient>
</defs>
</svg>
