<?xml version="1.0" standalone="no"?>
<!DOCTYPE svg PUBLIC "-//W3C//DTD SVG 20010904//EN"
 "http://www.w3.org/TR/2001/REC-SVG-20010904/DTD/svg10.dtd">
<svg version="1.0" xmlns="http://www.w3.org/2000/svg"
 width="80.000000pt" height="80.000000pt" viewBox="0 0 80.000000 80.000000"
 preserveAspectRatio="xMidYMid meet">

<g  transform="translate(0.000000,80.000000) scale(0.100000,-0.100000)"
fill="#000000" stroke="none">
<path d="M238 620 c-24 -24 -29 -37 -26 -61 3 -16 1 -32 -4 -35 -15 -9 -8 -45
17 -90 14 -25 25 -50 25 -58 0 -7 -25 -23 -55 -35 -81 -34 -95 -57 -95 -153 0
-59 3 -79 13 -76 8 3 13 30 15 78 2 41 8 81 15 89 7 8 37 25 67 39 80 35 87
55 44 124 -22 35 -25 45 -15 61 7 10 9 31 6 47 -13 58 78 103 131 65 16 -11
22 -29 27 -75 4 -50 1 -68 -19 -110 -19 -39 -22 -55 -14 -70 12 -22 44 -42 54
-33 11 11 6 23 -9 23 -9 0 -18 7 -21 15 -7 16 20 80 37 91 13 7 3 118 -13 150
-14 29 -49 44 -104 44 -37 0 -51 -5 -76 -30z"/>
<path d="M473 385 c-13 -9 -20 -22 -17 -30 4 -8 -7 -28 -25 -46 -38 -37 -39
-68 -6 -99 14 -13 25 -33 25 -45 0 -12 9 -30 21 -40 17 -16 24 -17 52 -7 24 9
39 9 64 0 27 -10 35 -9 50 5 10 9 19 26 20 39 1 13 14 32 28 43 32 26 32 61 0
91 -14 13 -25 34 -25 48 0 39 -37 59 -78 44 -26 -10 -37 -10 -52 0 -25 15 -31
15 -57 -3z m87 -28 c14 0 34 2 44 4 14 3 21 -4 27 -27 5 -17 18 -39 29 -49 26
-24 25 -39 -5 -69 -14 -14 -25 -36 -25 -48 0 -23 -3 -24 -74 -23 l-75 0 -6 32
c-3 18 -17 41 -30 52 -14 10 -25 21 -25 24 0 3 14 19 30 35 17 17 30 39 30 50
0 26 10 33 34 25 12 -4 32 -7 46 -6z"/>
<path d="M515 296 c-31 -31 -32 -50 0 -81 31 -31 49 -31 80 0 30 29 31 46 8
73 -30 34 -59 37 -88 8z m73 -35 c5 -32 -23 -54 -49 -40 -19 10 -26 49 -12 63
4 4 19 6 33 4 18 -2 26 -10 28 -27z"/>
<path d="M290 233 c-11 -65 -11 -67 14 -92 l25 -25 26 24 c19 17 24 31 21 50
-3 14 -8 44 -11 68 -11 67 -27 50 -23 -25 3 -59 1 -68 -16 -71 -17 -4 -18 1
-11 67 9 92 -9 95 -25 4z"/>
</g>
</svg>
