<svg width="76" height="76" viewBox="0 0 76 76" fill="none" xmlns="http://www.w3.org/2000/svg">
<mask id="mask0_7039_90299" style="mask-type:alpha" maskUnits="userSpaceOnUse" x="-1" y="-1" width="78" height="78">
<rect width="76" height="76" fill="white" stroke="white" stroke-width="2"/>
</mask>
<g mask="url(#mask0_7039_90299)">
<path d="M43.391 55.9154C42.3564 55.9154 41.3605 55.3095 40.4709 54.7681C39.7586 54.333 39.0205 53.8817 38.5016 53.8817C37.9859 53.8817 37.2479 54.333 36.5323 54.7681C35.6428 55.3128 34.6468 55.9154 33.6122 55.9154C33.4285 55.9154 33.2384 55.8961 33.0482 55.8542C31.7654 55.5641 30.9919 54.3651 30.3118 53.308C29.8928 52.6602 29.4159 51.9221 28.9904 51.7158C28.5423 51.4967 27.6915 51.5837 26.876 51.6643C25.6384 51.7867 24.2332 51.9253 23.2275 51.1196C22.2122 50.3106 22.0382 48.9085 21.8803 47.6709C21.7804 46.8587 21.6708 46.0143 21.3646 45.6339C21.0616 45.2536 20.2688 44.9699 19.4985 44.6863C18.3221 44.2609 16.9877 43.7774 16.4205 42.5979C15.8661 41.4408 16.3076 40.1097 16.7041 38.93C16.9652 38.1436 17.2391 37.3314 17.1263 36.8382C17.0232 36.3838 16.4172 35.7617 15.8822 35.2138C14.9991 34.3113 14 33.2864 14 31.9585C14 30.6306 14.9991 29.6089 15.8822 28.7033C16.4172 28.1553 17.0264 27.5301 17.1263 27.0788C17.2391 26.5889 16.9652 25.7735 16.7041 24.987C16.3076 23.8106 15.8661 22.4795 16.4205 21.3192C16.9877 20.1428 18.3221 19.6593 19.4985 19.2307C20.2688 18.9535 21.0616 18.6634 21.3646 18.2832C21.6708 17.8996 21.7739 17.0584 21.8803 16.2462C22.0382 15.0085 22.2091 13.6065 23.2275 12.7975C24.2332 11.9917 25.6416 12.1271 26.876 12.2528C27.6979 12.3334 28.5455 12.4172 28.9904 12.2012C29.4222 11.9949 29.8928 11.2601 30.3118 10.609C30.9919 9.5519 31.7654 8.35287 33.0482 8.06285C34.2891 7.77922 35.4816 8.51085 36.5323 9.15223C37.2446 9.58733 37.9827 10.0385 38.4984 10.0385C39.0141 10.0385 39.7521 9.58732 40.4677 9.15223C41.5183 8.51084 42.7109 7.7824 43.9518 8.06285C45.2346 8.35292 46.0081 9.5519 46.6882 10.609C47.1072 11.2569 47.5841 11.9949 48.0096 12.2012C48.4576 12.4204 49.3021 12.3334 50.124 12.2528C51.3616 12.1303 52.7668 11.9917 53.7725 12.7975C54.7878 13.6065 54.9618 15.0085 55.1197 16.2462C55.2196 17.0584 55.3292 17.9028 55.6354 18.2832C55.9384 18.6635 56.7312 18.9471 57.5015 19.2307C58.6779 19.6561 60.0123 20.1396 60.5795 21.3192C61.1339 22.4762 60.6923 23.8074 60.2959 24.9806C60.0348 25.767 59.7609 26.5792 59.8737 27.0724C59.9768 27.5268 60.5828 28.1489 61.1178 28.6968C62.0009 29.5993 63 30.6242 63 31.9521C63 33.2768 62.0009 34.3017 61.1178 35.2074C60.5828 35.7553 59.9736 36.3806 59.8737 36.8318C59.7609 37.3217 60.0348 38.1371 60.2959 38.9236C60.6923 40.1 61.1339 41.4312 60.5795 42.585C60.0123 43.7614 58.6779 44.2448 57.5015 44.6735C56.7312 44.9507 55.9384 45.2407 55.6354 45.621C55.3292 46.0046 55.2261 46.8458 55.1197 47.658C54.9618 48.8957 54.7909 50.2977 53.7725 51.1067C52.7668 51.9125 51.3584 51.7771 50.124 51.6514C49.3021 51.5708 48.4545 51.487 48.0096 51.703C47.5778 51.9092 47.1072 52.6441 46.6882 53.2952C46.0081 54.3523 45.2346 55.5513 43.9518 55.8413C43.7584 55.8961 43.5747 55.9154 43.391 55.9154ZM38.4984 51.8834C39.5749 51.8834 40.5579 52.4829 41.5087 53.0631C42.2371 53.5079 43.059 54.0106 43.5102 53.9075C43.9969 53.7947 44.5384 52.9599 45.0121 52.2282C45.5987 51.3129 46.2111 50.3718 47.1458 49.9205C48.0965 49.4628 49.2278 49.5724 50.3237 49.6788C51.1811 49.7626 52.1577 49.8593 52.5315 49.5563C52.9118 49.2533 53.0343 48.28 53.1439 47.4162C53.2793 46.3268 53.4211 45.1987 54.0786 44.3768C54.7296 43.5582 55.7932 43.1714 56.8214 42.8007C57.64 42.5042 58.5683 42.169 58.7842 41.721C58.9905 41.2956 58.6811 40.3706 58.4039 39.5583C58.0526 38.5109 57.6916 37.4311 57.9269 36.3933C58.1557 35.391 58.9325 34.5884 59.6931 33.8149C60.3087 33.1832 61.0081 32.4677 61.0081 31.9584C61.0081 31.446 60.3119 30.7304 59.6931 30.1019C58.9389 29.3284 58.1589 28.5258 57.9269 27.5235C57.6884 26.4857 58.0526 25.4028 58.4039 24.3585C58.6778 23.5463 58.984 22.6213 58.7842 22.1958C58.5715 21.7511 57.6432 21.4159 56.8214 21.1161C55.7932 20.7422 54.7296 20.3587 54.0786 19.54C53.4211 18.7181 53.2793 17.5933 53.1439 16.5007C53.0343 15.6369 52.9151 14.6635 52.5315 14.3605C52.1576 14.064 51.1811 14.1543 50.3237 14.238C49.2279 14.3476 48.0966 14.4572 47.1458 13.9963C46.2111 13.5451 45.6019 12.604 45.0121 11.6886C44.5351 10.9505 44.0001 10.1158 43.5102 10.0094C43.059 9.90944 42.2371 10.4122 41.5087 10.8538C40.5579 11.4339 39.5781 12.0334 38.4984 12.0334C37.4219 12.0334 36.4388 11.4339 35.4881 10.8538C34.7597 10.409 33.9378 9.90622 33.4866 10.0094C32.9999 10.1222 32.4584 10.9569 31.9846 11.6886C31.398 12.604 30.7857 13.5451 29.851 13.9963C28.9002 14.454 27.769 14.3444 26.6731 14.238C25.8157 14.1543 24.8391 14.0576 24.4653 14.3605C24.0849 14.6635 23.9625 15.6369 23.8529 16.5007C23.7175 17.59 23.5757 18.7117 22.9182 19.54C22.2671 20.3587 21.2036 20.7454 20.1754 21.1161C19.3567 21.4126 18.4285 21.7478 18.2126 22.1958C18.0063 22.6181 18.3157 23.5463 18.5929 24.3585C18.9442 25.406 19.3052 26.4857 19.0699 27.5235C18.8411 28.5258 18.0643 29.3284 17.3037 30.1019C16.6881 30.7337 15.9886 31.4492 15.9886 31.9649C15.9886 32.4773 16.6848 33.1929 17.3037 33.8278C18.0579 34.6013 18.8379 35.4039 19.0699 36.4062C19.3084 37.444 18.9442 38.527 18.5929 39.5712C18.3189 40.3834 18.0127 41.3084 18.2126 41.7339C18.4253 42.1786 19.3535 42.5138 20.1754 42.8136C21.2036 43.1875 22.2672 43.571 22.9182 44.3897C23.5757 45.2116 23.7175 46.3364 23.8529 47.429C23.9625 48.2928 24.0817 49.2662 24.4653 49.5692C24.8391 49.8657 25.8157 49.7755 26.6731 49.6917C27.7689 49.5821 28.9002 49.4725 29.851 49.9334C30.7857 50.3846 31.3949 51.3257 31.9846 52.2411C32.4616 52.9792 32.9967 53.8139 33.4866 53.9204C33.9378 54.0203 34.7597 53.5175 35.4881 53.0759C36.4388 52.4797 37.422 51.8834 38.4984 51.8834Z" fill="black"/>
<path d="M38.492 49.9241C36.0682 49.9241 33.7154 49.4471 31.4979 48.5092C29.3578 47.6035 27.4369 46.311 25.7899 44.6576C24.1429 43.0074 22.844 41.0865 21.9383 38.9496C21.0004 36.7321 20.5234 34.3793 20.5234 31.9555C20.5234 29.5318 21.0037 27.1822 21.9383 24.9647C22.844 22.8246 24.1365 20.9037 25.7899 19.2567C27.4369 17.6097 29.361 16.3108 31.4979 15.4051C33.7154 14.4672 36.0682 13.9902 38.492 13.9902C40.9157 13.9902 43.2685 14.4672 45.486 15.4051C47.6261 16.3108 49.5471 17.6033 51.194 19.2567C52.841 20.9037 54.1399 22.8278 55.0456 24.9647C55.9835 27.1822 56.4605 29.535 56.4605 31.9588C56.4605 34.3857 55.9835 36.7353 55.0456 38.9528C54.1399 41.0929 52.8475 43.0139 51.194 44.6608C49.5471 46.3078 47.6229 47.6067 45.486 48.5124C43.2685 49.4503 40.9157 49.9241 38.492 49.9241ZM38.492 15.9918C29.6865 15.9918 22.5222 23.1535 22.5222 31.9616C22.5222 40.7671 29.687 47.9315 38.492 47.9315C47.3007 47.9315 54.4618 40.7698 54.4618 31.9616C54.4618 23.1529 47.2969 15.9918 38.492 15.9918Z" fill="black"/>
<path d="M32.0007 42.9398C31.7944 42.9398 31.5913 42.8754 31.4141 42.7497C31.1079 42.5273 30.9499 42.1502 31.0144 41.7763L32.1618 35.0724L27.295 30.3152C27.0211 30.0509 26.9244 29.6545 27.0404 29.2902C27.1564 28.9293 27.4723 28.665 27.8462 28.6102L34.5791 27.6304L37.5894 21.5324C37.757 21.1908 38.1051 20.978 38.4854 20.978C38.8657 20.978 39.2106 21.1972 39.3814 21.5324L42.3917 27.6304L49.1247 28.6102C49.4985 28.6682 49.8144 28.9293 49.9304 29.2902C50.0464 29.6512 49.9498 30.0477 49.6758 30.3152L44.8058 35.0659L45.9532 41.7699C46.0177 42.1438 45.8629 42.5241 45.5535 42.7433C45.2473 42.9656 44.8412 42.9979 44.5029 42.8206L38.479 39.6556L32.4551 42.8206C32.3165 42.9044 32.1618 42.9398 32.0007 42.9398ZM38.4854 37.5316C38.6466 37.5316 38.8045 37.567 38.9496 37.6444L43.6488 40.1132L42.7496 34.8823C42.6915 34.56 42.8011 34.2312 43.0364 33.9992L46.8364 30.2959L41.5861 29.5352C41.2605 29.4869 40.9801 29.2838 40.8319 28.9873L38.4854 24.2333L36.1358 28.9905C35.9908 29.2838 35.7104 29.4901 35.3816 29.5384L30.1313 30.2991L33.9313 34.0024C34.1633 34.2312 34.2729 34.5632 34.2181 34.8855L33.3254 40.1132L38.0245 37.6444C38.1664 37.5735 38.3243 37.5316 38.4854 37.5316Z" fill="black"/>
<path d="M49.0457 69.8875C48.6557 69.8875 48.3044 69.6619 48.14 69.3073L41.6069 55.1519C41.378 54.6523 41.594 54.0593 42.0936 53.8272C42.5931 53.5984 43.1862 53.8143 43.4183 54.3139L49.0425 66.5006L51.9722 60.1061C52.1785 59.6581 52.6781 59.4293 53.1519 59.5614L59.917 61.4791L53.3291 47.204C53.1003 46.7045 53.3162 46.1114 53.8158 45.8793C54.3154 45.6505 54.9084 45.8664 55.1405 46.366L62.6373 62.6131C62.8016 62.9676 62.7404 63.3834 62.489 63.6799C62.2344 63.9764 61.8315 64.0989 61.4576 63.9893L53.429 61.7139L49.9514 69.3009C49.7934 69.6587 49.439 69.8875 49.0457 69.8875Z" fill="black"/>
<path d="M27.9561 69.8877C27.5661 69.8877 27.2116 69.6589 27.0504 69.3043L23.5728 61.7173L15.5441 63.9927C15.1703 64.0959 14.7674 63.9766 14.5128 63.6833C14.2581 63.3868 14.2033 62.971 14.3645 62.6165L21.8613 46.3694C22.0901 45.8699 22.6864 45.6539 23.186 45.8828C23.6856 46.1116 23.9015 46.7079 23.6726 47.2075L17.0815 61.4858L23.8466 59.5681C24.3237 59.436 24.82 59.6648 25.0263 60.1128L27.9561 66.5073L33.5803 54.3206C33.8091 53.821 34.4054 53.6051 34.905 53.8339C35.4045 54.0628 35.6205 54.659 35.3916 55.1586L28.8585 69.314C28.7006 69.6621 28.3461 69.8877 27.9561 69.8877Z" fill="black"/>
</g>
</svg>
