<svg width="56" height="53" viewBox="0 0 56 53" fill="none" xmlns="http://www.w3.org/2000/svg">
<mask id="mask0_7200_56266" style="mask-type:alpha" maskUnits="userSpaceOnUse" x="0" y="0" width="56" height="53">
<rect width="56" height="53" fill="#D9D9D9"/>
</mask>
<g mask="url(#mask0_7200_56266)">
<path d="M18.3256 31.842C21.0395 31.842 23.2396 29.6419 23.2396 26.9278C23.2396 24.2141 21.0395 22.014 18.3254 22.014C15.6117 22.014 13.4116 24.2139 13.4116 26.928C13.4116 29.6419 15.6117 31.842 18.3256 31.842ZM6.71086 41.6698C9.42479 41.6698 11.6248 39.4699 11.6248 36.7558C11.6248 34.0421 9.42479 31.842 6.71065 31.842C3.99715 31.842 1.79688 34.0419 1.79688 36.7558C1.79688 39.4697 3.99672 41.6698 6.71086 41.6698ZM51.0852 41.6698C53.7991 41.6698 55.9991 39.4699 55.9991 36.7558C55.9991 34.0421 53.7993 31.842 51.0852 31.842C48.3712 31.842 46.1712 34.0419 46.1712 36.7558C46.1712 39.4697 48.3712 41.67 51.0854 41.67L51.0852 41.6698Z" fill="black"/>
<path d="M34.9451 27.1352C34.788 25.4934 34.7079 24.1269 33.4503 23.1665C31.8577 21.9504 30.0533 22.7395 27.831 21.9373C25.6471 21.409 24.0273 19.4702 24.0273 17.1592C24.0273 14.4417 26.267 12.2386 29.0296 12.2386C31.076 12.2386 32.8352 13.447 33.6101 15.1781C34.796 17.4308 34.0251 19.7232 35.5153 20.878C37.2796 22.2453 39.6583 21.2441 42.3126 22.5396C43.1597 22.9284 43.8814 23.5462 44.396 24.3234C44.9214 25.1171 45.2011 26.0481 45.2001 26.9999C45.2001 29.3109 43.5804 31.2499 41.3966 31.7781C39.1741 32.5804 37.3698 31.7913 35.7772 33.0074C33.986 34.3752 34.9449 36.6633 33.485 39.0802C32.6565 40.672 30.9724 41.7613 29.0296 41.7613C26.267 41.7613 24.0273 39.5583 24.0273 36.8408C24.0273 34.8668 25.2092 33.1643 26.9149 32.3805C29.5691 31.0847 31.9477 32.0862 33.7122 30.7189C34.73 29.93 34.9451 28.7132 34.9451 27.1352Z" fill="black"/>
</g>
</svg>
