<svg width="56" height="53" viewBox="0 0 56 53" fill="none" xmlns="http://www.w3.org/2000/svg">
<mask id="mask0_7200_56273" style="mask-type:alpha" maskUnits="userSpaceOnUse" x="0" y="0" width="56" height="53">
<rect width="56" height="53" fill="#D9D9D9"/>
</mask>
<g mask="url(#mask0_7200_56273)">
<path d="M0.850647 26.9263V26.2033H2.2372C2.52075 26.2033 2.73908 26.1464 2.8922 26.0327C3.05099 25.9145 3.13038 25.7531 3.13038 25.5484C3.13038 25.362 3.05099 25.2074 2.8922 25.0846C2.73908 24.9573 2.52075 24.8936 2.2372 24.8936H0.850647V24.1364H2.33928C2.72491 24.1364 3.06233 24.1978 3.35155 24.3206C3.64644 24.4388 3.87328 24.6025 4.03207 24.8117C4.19652 25.0209 4.27875 25.2619 4.27875 25.5348C4.27875 25.8167 4.19652 26.0623 4.03207 26.2715C3.87328 26.4761 3.64644 26.6376 3.35155 26.7558C3.05666 26.8695 2.71356 26.9263 2.32227 26.9263H0.850647ZM0 28.9318V24.1364H1.15688V28.9318H0ZM3.26648 28.9318L1.29298 26.8581L2.35629 26.5921L4.67005 28.9318H3.26648Z" fill="black"/>
<path d="M7.05445 29C6.62346 29 6.24067 28.9272 5.90608 28.7817C5.57149 28.6317 5.30496 28.427 5.10647 28.1678C4.91366 27.9086 4.81725 27.613 4.81725 27.281C4.81725 26.9536 4.91082 26.6626 5.09797 26.4079C5.29078 26.1487 5.55164 25.9441 5.88056 25.794C6.20948 25.6394 6.57526 25.5621 6.97789 25.5621C7.37486 25.5621 7.72363 25.6348 8.02419 25.7804C8.33042 25.9213 8.5686 26.1169 8.73873 26.367C8.91453 26.6126 9.00243 26.8922 9.00243 27.206C9.00243 27.2651 8.99676 27.3265 8.98542 27.3902C8.97975 27.4493 8.96557 27.5175 8.94289 27.5948L5.48926 27.6016V26.9332L8.42399 26.9263L7.97315 27.206C7.96181 27.0105 7.91644 26.8467 7.83705 26.7149C7.76333 26.583 7.65274 26.4829 7.5053 26.4147C7.36352 26.342 7.18772 26.3056 6.97789 26.3056C6.75673 26.3056 6.56391 26.3465 6.39946 26.4284C6.235 26.5057 6.1074 26.6171 6.01666 26.7626C5.9316 26.9036 5.88907 27.0719 5.88907 27.2674C5.88907 27.4675 5.93444 27.6426 6.02517 27.7926C6.12158 27.9382 6.25768 28.0518 6.43348 28.1337C6.60928 28.211 6.81344 28.2497 7.04595 28.2497C7.25577 28.2497 7.44575 28.2224 7.61588 28.1678C7.78601 28.1087 7.93346 28.0223 8.05822 27.9086L8.71321 28.4338C8.51473 28.6203 8.27088 28.7613 7.98166 28.8568C7.69811 28.9523 7.38904 29 7.05445 29Z" fill="black"/>
<path d="M11.4099 29C11.0356 29 10.6982 28.925 10.3976 28.7749C10.0971 28.6248 9.86172 28.4202 9.69159 28.161C9.52146 27.9018 9.4364 27.6107 9.4364 27.2879C9.4364 26.9604 9.52146 26.6671 9.69159 26.4079C9.86172 26.1487 10.0971 25.9441 10.3976 25.794C10.6982 25.6439 11.0356 25.5689 11.4099 25.5689C11.7048 25.5689 11.9685 25.6166 12.201 25.7121C12.4335 25.8076 12.6178 25.9418 12.7539 26.1146C12.8957 26.2829 12.9723 26.4739 12.9836 26.6876V27.8745C12.9723 28.0928 12.8957 28.286 12.7539 28.4543C12.6178 28.6226 12.4335 28.7567 12.201 28.8568C11.9685 28.9523 11.7048 29 11.4099 29ZM11.6141 28.1746C11.926 28.1746 12.1783 28.0928 12.3711 27.9291C12.5639 27.7608 12.6603 27.5448 12.6603 27.281C12.6603 27.1082 12.615 26.9559 12.5242 26.824C12.4392 26.6876 12.3173 26.583 12.1585 26.5102C12.0054 26.4329 11.8239 26.3943 11.6141 26.3943C11.4099 26.3943 11.2284 26.4329 11.0696 26.5102C10.9165 26.583 10.7946 26.6876 10.7039 26.824C10.6188 26.9559 10.5763 27.1082 10.5763 27.281C10.5763 27.4584 10.6188 27.6153 10.7039 27.7517C10.7946 27.8836 10.9165 27.9882 11.0696 28.0655C11.2284 28.1382 11.4099 28.1746 11.6141 28.1746ZM12.6008 28.9318V28.045L12.7794 27.2401L12.6008 26.4488V25.6371H13.7066V28.9318H12.6008Z" fill="black"/>
<path d="M16.6319 29C16.2123 29 15.8352 28.925 15.5006 28.7749C15.166 28.6248 14.9023 28.4202 14.7095 28.161C14.5167 27.9018 14.4203 27.6107 14.4203 27.2879C14.4203 26.9604 14.5167 26.6671 14.7095 26.4079C14.9023 26.1487 15.166 25.9441 15.5006 25.794C15.8408 25.6394 16.218 25.5621 16.6319 25.5621C16.9552 25.5621 17.2529 25.6098 17.5251 25.7053C17.7973 25.8008 18.0327 25.9372 18.2312 26.1146L17.5166 26.6944C17.4089 26.5989 17.2784 26.5261 17.1253 26.4761C16.9779 26.4261 16.8134 26.4011 16.6319 26.4011C16.4278 26.4011 16.2435 26.4397 16.079 26.5171C15.9202 26.5898 15.7926 26.6921 15.6962 26.824C15.6055 26.9513 15.5601 27.1037 15.5601 27.281C15.5601 27.4538 15.6055 27.6085 15.6962 27.7449C15.7926 27.8768 15.9202 27.9814 16.079 28.0587C16.2435 28.1314 16.4278 28.1678 16.6319 28.1678C16.8191 28.1678 16.9864 28.1428 17.1338 28.0928C17.2869 28.0382 17.4174 27.9609 17.5251 27.8608L18.2482 28.4407C18.0383 28.6226 17.7973 28.7613 17.5251 28.8568C17.2529 28.9523 16.9552 29 16.6319 29Z" fill="black"/>
<path d="M19.4167 28.9318V24.266H20.5311V28.9318H19.4167ZM18.4555 26.4216V25.6371H21.4923V26.4216H18.4555Z" fill="black"/>
<path d="M23.8995 28.9318V24.1364H25.0564V28.9318H23.8995ZM27.6509 28.9318V24.1364H28.8078V28.9318H27.6509ZM24.6311 26.8649V26.0464H27.9741V26.8649H24.6311Z" fill="black"/>
<path d="M31.8761 29C31.4451 29 31.0623 28.9272 30.7277 28.7817C30.3931 28.6317 30.1266 28.427 29.9281 28.1678C29.7353 27.9086 29.6389 27.613 29.6389 27.281C29.6389 26.9536 29.7324 26.6626 29.9196 26.4079C30.1124 26.1487 30.3732 25.9441 30.7022 25.794C31.0311 25.6394 31.3969 25.5621 31.7995 25.5621C32.1965 25.5621 32.5452 25.6348 32.8458 25.7804C33.152 25.9213 33.3902 26.1169 33.5603 26.367C33.7361 26.6126 33.824 26.8922 33.824 27.206C33.824 27.2651 33.8184 27.3265 33.807 27.3902C33.8014 27.4493 33.7872 27.5175 33.7645 27.5948L30.3109 27.6016V26.9332L33.2456 26.9263L32.7948 27.206C32.7834 27.0105 32.738 26.8467 32.6587 26.7149C32.5849 26.583 32.4743 26.4829 32.3269 26.4147C32.1851 26.342 32.0093 26.3056 31.7995 26.3056C31.5783 26.3056 31.3855 26.3465 31.2211 26.4284C31.0566 26.5057 30.929 26.6171 30.8383 26.7626C30.7532 26.9036 30.7107 27.0719 30.7107 27.2674C30.7107 27.4675 30.756 27.6426 30.8468 27.7926C30.9432 27.9382 31.0793 28.0518 31.2551 28.1337C31.4309 28.211 31.635 28.2497 31.8676 28.2497C32.0774 28.2497 32.2674 28.2224 32.4375 28.1678C32.6076 28.1087 32.7551 28.0223 32.8798 27.9086L33.5348 28.4338C33.3363 28.6203 33.0925 28.7613 32.8033 28.8568C32.5197 28.9523 32.2106 29 31.8761 29Z" fill="black"/>
<path d="M34.5132 28.9318V24H35.6275V28.9318H34.5132Z" fill="black"/>
<path d="M36.6149 28.9318V25.6371H37.7292V28.9318H36.6149ZM39.2944 28.9318V26.9877C39.2944 26.7967 39.2179 26.6489 39.0648 26.5443C38.9173 26.4352 38.733 26.3806 38.5118 26.3806C38.3644 26.3806 38.2311 26.4056 38.112 26.4557C37.9929 26.5011 37.8994 26.5693 37.8313 26.6603C37.7633 26.7513 37.7292 26.8604 37.7292 26.9877L37.2954 26.8172C37.2954 26.5625 37.3635 26.342 37.4996 26.1555C37.6413 25.9691 37.8313 25.8258 38.0695 25.7258C38.3077 25.6212 38.577 25.5689 38.8776 25.5689C39.1612 25.5689 39.4192 25.6212 39.6517 25.7258C39.8842 25.8258 40.0685 25.9691 40.2046 26.1555C40.3407 26.3374 40.4088 26.558 40.4088 26.8172V28.9318H39.2944ZM41.974 28.9318V26.9877C41.974 26.7967 41.8974 26.6489 41.7443 26.5443C41.5968 26.4352 41.4125 26.3806 41.1914 26.3806C41.0496 26.3806 40.9163 26.4056 40.7916 26.4557C40.6725 26.5011 40.5789 26.5693 40.5109 26.6603C40.4428 26.7513 40.4088 26.8604 40.4088 26.9877L39.7708 26.8649C39.7935 26.6012 39.8814 26.3738 40.0345 26.1828C40.1876 25.9873 40.3889 25.8372 40.6385 25.7326C40.888 25.6235 41.1659 25.5689 41.4721 25.5689C41.7783 25.5689 42.0534 25.6212 42.2972 25.7258C42.5411 25.8258 42.7339 25.9714 42.8757 26.1623C43.0174 26.3533 43.0883 26.5807 43.0883 26.8445V28.9318H41.974Z" fill="black"/>
<path d="M45.9566 29C45.5256 29 45.1428 28.9272 44.8082 28.7817C44.4736 28.6317 44.2071 28.427 44.0086 28.1678C43.8158 27.9086 43.7194 27.613 43.7194 27.281C43.7194 26.9536 43.813 26.6626 44.0001 26.4079C44.1929 26.1487 44.4538 25.9441 44.7827 25.794C45.1116 25.6394 45.4774 25.5621 45.88 25.5621C46.277 25.5621 46.6258 25.6348 46.9263 25.7804C47.2326 25.9213 47.4707 26.1169 47.6409 26.367C47.8167 26.6126 47.9046 26.8922 47.9046 27.206C47.9046 27.2651 47.8989 27.3265 47.8876 27.3902C47.8819 27.4493 47.8677 27.5175 47.845 27.5948L44.3914 27.6016V26.9332L47.3261 26.9263L46.8753 27.206C46.8639 27.0105 46.8186 26.8467 46.7392 26.7149C46.6655 26.583 46.5549 26.4829 46.4074 26.4147C46.2657 26.342 46.0899 26.3056 45.88 26.3056C45.6589 26.3056 45.466 26.3465 45.3016 26.4284C45.1371 26.5057 45.0095 26.6171 44.9188 26.7626C44.8337 26.9036 44.7912 27.0719 44.7912 27.2674C44.7912 27.4675 44.8366 27.6426 44.9273 27.7926C45.0237 27.9382 45.1598 28.0518 45.3356 28.1337C45.5114 28.211 45.7156 28.2497 45.9481 28.2497C46.1579 28.2497 46.3479 28.2224 46.518 28.1678C46.6881 28.1087 46.8356 28.0223 46.9604 27.9086L47.6154 28.4338C47.4169 28.6203 47.173 28.7613 46.8838 28.8568C46.6002 28.9523 46.2912 29 45.9566 29Z" fill="black"/>
<path d="M51.3583 28.9318V27.0423C51.3583 26.8467 51.2818 26.6876 51.1287 26.5648C50.9755 26.442 50.7771 26.3806 50.5332 26.3806C50.3744 26.3806 50.2326 26.4079 50.1079 26.4625C49.9831 26.5171 49.8839 26.5944 49.8101 26.6944C49.7421 26.7945 49.7081 26.9104 49.7081 27.0423L49.2742 26.8649C49.2742 26.6057 49.3423 26.3806 49.4784 26.1896C49.6202 25.9941 49.813 25.8417 50.0568 25.7326C50.3064 25.6235 50.5871 25.5689 50.899 25.5689C51.1995 25.5689 51.4689 25.6303 51.7071 25.7531C51.9453 25.8713 52.1324 26.0282 52.2685 26.2237C52.4046 26.4147 52.4727 26.6216 52.4727 26.8445V28.9318H51.3583ZM48.5937 28.9318V25.6371H49.7081V28.9318H48.5937Z" fill="black"/>
<path d="M53.9244 28.9318V24.266H55.0388V28.9318H53.9244ZM52.9632 26.4216V25.6371H56V26.4216H52.9632Z" fill="black"/>
</g>
</svg>
