<svg width="56" height="53" viewBox="0 0 56 53" fill="none" xmlns="http://www.w3.org/2000/svg">
<mask id="mask0_7200_56263" style="mask-type:alpha" maskUnits="userSpaceOnUse" x="0" y="0" width="56" height="53">
<rect width="56" height="53" fill="#D9D9D9"/>
</mask>
<g mask="url(#mask0_7200_56263)">
<path d="M8.07311 11.6165C7.86202 11.6623 7.69122 11.7728 7.54487 11.9726C7.39335 12.1888 7.33997 12.5452 7.41746 12.7804C7.48323 12.986 7.84102 13.403 8.23358 13.6861C7.71944 14.3635 7.21808 15.0505 6.72977 15.7467C4.09302 19.5663 2.5472 23.0609 2.35092 25.5802C2.24486 26.9421 2.50932 27.8943 3.13606 28.6347C3.59991 29.1805 4.14296 29.4907 5.01728 29.6767C5.73458 29.8292 6.83273 29.822 7.94088 29.6526C7.24424 30.6519 6.24939 32.1843 5.73665 33.0562C4.89021 34.5049 4.02312 36.3559 3.69736 37.4154C3.12331 39.2619 3.04997 40.7784 3.4322 42.2251C3.66568 43.1142 4.04172 43.8277 4.55343 44.3756C5.0741 44.9335 5.7363 45.3233 6.54623 45.543C7.8727 45.9015 9.82004 45.7995 12.2791 45.2203C12.7974 45.0998 13.5928 44.8777 14.1862 44.7017C13.6572 46.5519 13.7161 48.2414 14.3098 49.4535C14.5016 49.8433 15.0381 50.5003 15.359 50.7424C17.2771 52.1743 21.3095 52.1205 26.7201 50.4239C27.1536 50.2886 28.3768 49.8657 28.986 49.6443C29.4026 50.2004 29.7907 50.4194 30.6905 50.5275C31.2763 50.5913 31.7567 50.4972 32.2119 50.2352C32.4196 50.1147 32.5425 49.9962 32.612 49.8857C32.7253 49.7056 32.7463 49.5203 32.6678 49.2985C32.5924 49.0909 32.4839 48.9673 32.289 48.8798C32.1771 48.8295 32.0132 48.7937 31.747 48.7734C31.5394 48.7596 31.466 48.7514 31.3555 48.6728L31.3899 48.6439C32.3369 48.2434 34.3824 47.2217 35.6445 46.5182C40.2606 43.9431 45.1928 40.3139 48.4776 37.0735C51.4543 34.1406 54.3386 30.4804 54.9343 28.9122C55.1151 28.4422 55.1647 27.9539 55.0883 27.5734C55.0239 27.2765 54.9884 27.1956 54.7019 26.8536C54.3989 26.4928 54.3352 26.4587 54.0555 26.3481C53.1251 25.9817 51.6871 26.3853 48.854 28.1157C45.2293 30.3286 39.8504 34.4374 36.0608 37.8938C32.328 41.2946 29.8754 44.2668 28.966 46.4476C28.8565 46.7103 28.8596 46.8333 28.8028 46.8643C28.7442 46.8966 28.2401 47.0929 27.6857 47.3112C24.6302 48.4972 21.9676 49.1773 19.9789 49.2644C19.4304 49.2896 18.5547 49.2304 18.1218 49.137C17.7592 49.0596 17.3136 48.8839 17.1445 48.7238C16.9345 48.5279 16.8518 48.1997 16.8377 47.7865C16.8195 47.2654 16.9245 46.615 17.1442 45.8587C17.2947 45.3477 17.8233 44.0268 18.0867 43.5133L18.7052 43.18C22.0385 41.9193 25.8106 40.0939 29.3434 38.0332C34.1155 35.2487 39.6077 31.3885 44.5258 27.3519C47.4563 24.9466 49.0317 23.4297 50.5252 21.5839C51.6915 20.1435 52.6361 18.5205 52.8513 17.6162C53.007 16.9733 52.9863 16.3979 52.8159 15.9124C52.6368 15.401 52.2924 14.9819 51.7876 14.6861C50.4728 13.9154 48.0906 14.2192 44.8708 15.671C41.826 17.0443 38.0195 19.4107 33.7195 22.6542C31.1499 24.5874 27.5527 27.5796 25.6519 29.3606C20.8002 33.9109 17.4768 37.8683 15.6338 41.2753L15.5088 41.5081C13.8783 42.1211 11.3604 42.8332 10.099 43.0474C9.04799 43.2234 8.03317 43.2706 7.43708 43.1531C7.06828 43.0815 6.78728 42.9637 6.58135 42.752C6.36716 42.5323 6.237 42.2203 6.14195 41.805C5.99698 41.1538 6.04002 40.0832 6.23424 39.2912C6.83411 36.8486 8.8121 33.3413 11.8318 29.3175L12.4867 28.447L13.1631 28.1853C17.637 26.4673 23.1918 23.377 28.1178 19.8601C30.8486 17.9093 33.7842 15.4878 35.7791 13.5373C37.3642 11.9881 38.6311 10.5604 39.6101 9.22563C40.4724 8.04448 41.0147 7.04653 41.2589 6.19941C41.5309 5.25484 41.4459 4.48003 41.055 3.82506C40.7565 3.32437 40.3029 2.98827 39.7279 2.83125C39.2024 2.68765 38.5674 2.69764 37.8559 2.88807C35.7912 3.4473 32.7136 5.29444 28.3148 8.64745C27.2211 9.48596 23.6136 12.5129 22.5365 13.496C18.0426 17.6173 14.0611 21.8281 10.6889 26.021L10.0514 26.8151L9.694 26.9211C8.65577 27.2273 7.4636 27.4532 6.61958 27.5041C6.12577 27.5338 5.47218 27.4649 5.18739 27.3354C5.03726 27.2693 5.01315 27.251 4.92568 27.1319C4.77141 26.9191 4.73525 26.7152 4.72251 26.3082C4.65915 24.5296 5.89092 21.5216 7.93537 18.3318C8.74977 17.0694 9.62858 15.8496 10.5683 14.6775L11.0305 14.099C12.496 13.6444 13.9506 12.7215 16.1407 10.8837C18.6566 8.76763 21.116 6.10402 21.7992 5.18631C22.5971 4.11501 22.9025 3.04957 22.7693 2.6298C22.6813 2.36913 22.5115 2.14387 22.2851 1.98757C22.0558 1.82917 21.7823 1.75237 21.5206 1.77992C21.1343 1.81918 20.2489 2.29233 19.0722 3.14771C18.2399 3.75034 15.9289 5.65705 14.9172 6.57545C13.0722 8.24558 11.8545 9.46978 10.3331 11.1771L9.85275 11.7143C9.4765 11.7933 9.08649 11.7771 8.71809 11.6671C8.44984 11.5896 8.24254 11.58 8.07311 11.6165ZM26.4494 13.8882C27.7294 12.7773 28.269 12.3297 30.027 10.913C32.1499 9.20462 34.486 7.58373 36.1982 6.62917C37.0374 6.15981 37.8232 5.78894 38.4351 5.66669C38.294 5.96284 38.077 6.33474 37.8428 6.68874C36.7023 8.39779 34.9671 10.3424 32.3641 12.8297C31.579 13.5835 27.6574 16.868 26.6795 17.5997C23.3819 20.0564 20.3409 22.0144 17.2141 23.6862C16.816 23.8987 16.3394 24.1442 15.8804 24.376C19.1225 20.7086 22.7851 17.0739 26.4494 13.8882ZM42.8278 20.0705C46.1315 18.0746 48.9525 16.9065 50.2903 16.8435C50.26 16.9561 50.2125 17.0949 50.1595 17.2175C49.6378 18.4517 48.1708 20.2496 46.0788 22.2527C45.2173 23.075 41.8529 25.8815 40.2857 27.0864C32.7787 32.8396 26.6175 36.715 20.6263 39.4313C21.6763 38.0112 23.1512 36.2646 24.5462 34.8004C27.1674 32.049 30.3813 29.1364 33.5938 26.604C37.1665 23.7851 40.0223 21.7668 42.8278 20.0705ZM44.8216 34.519C47.2745 32.5999 49.467 31.0624 51.0855 30.1168C50.9346 30.3205 50.7808 30.522 50.624 30.7211C48.0413 33.9946 44.9535 36.9302 41.0987 39.7664C38.8363 41.4296 36.4926 42.9482 34.2143 44.222C35.5263 42.7127 37.1879 41.0608 39.45 39.0105C40.0388 38.474 44.0409 35.1268 44.8219 34.519H44.8216Z" fill="black"/>
<path d="M26.6795 41.7891C34.5818 41.7891 40.9879 35.3707 40.9879 27.4531C40.9879 19.5356 34.5818 13.1172 26.6795 13.1172C18.7772 13.1172 12.3711 19.5356 12.3711 27.4531C12.3711 35.3707 18.7772 41.7891 26.6795 41.7891Z" fill="#282828"/>
<path d="M54.0557 26.3619C54.3353 26.4727 54.3986 26.5065 54.702 26.8681C54.9885 27.2093 55.024 27.2902 55.0884 27.5874C55.1648 27.9676 55.1152 28.4562 54.9348 28.9263C54.3391 30.4941 51.4544 34.1547 48.4777 37.0876C45.1929 40.328 40.2607 43.9572 35.6446 46.5323C34.3825 47.2354 32.3374 48.2575 31.39 48.658L31.3556 48.6869L28.9864 49.658C28.7478 49.7448 28.4155 49.8622 28.0732 49.9813L27.8442 50.0606C27.3876 50.2183 26.9464 50.367 26.7202 50.4376C21.3093 52.1346 17.2769 52.188 15.3591 50.7565L17.1446 48.7375C17.3134 48.8977 17.7593 49.0736 18.1219 49.1508C18.5548 49.2444 19.4305 49.3037 19.979 49.2785C21.9677 49.1914 24.6303 48.5109 27.6858 47.325C28.2402 47.107 28.7443 46.9104 28.8029 46.878L34.2145 44.2357C36.4927 42.9623 38.8364 41.4437 41.0985 39.7804C44.9536 36.9443 48.0415 34.0087 50.6241 30.7348C50.7809 30.5358 50.9347 30.3344 51.0856 30.1308L54.0557 26.3619ZM51.7877 14.6998C52.2925 14.996 52.6366 15.4151 52.816 15.9264C52.9864 16.412 53.0071 16.9874 52.8514 17.63C52.6362 18.5346 51.6916 20.1576 50.5253 21.598C49.0318 23.4438 47.456 24.9607 44.5259 27.366C39.6078 31.4026 34.1156 35.2628 29.3435 38.0469C25.8104 40.1079 22.0386 41.933 18.7053 43.1941L18.0868 43.5274L14.1863 44.7154C13.5929 44.8917 12.7975 45.1135 12.2792 45.2344C9.82015 45.8136 7.8728 45.9155 6.54634 45.5567C5.73641 45.337 5.07421 44.9472 4.55354 44.3893C4.04217 43.8418 3.66544 43.1279 3.43231 42.2392L6.14241 41.8187C6.23745 42.2343 6.36727 42.546 6.58146 42.766C6.78739 42.9778 7.06838 43.0952 7.43719 43.1672C8.03327 43.2843 9.04775 43.2374 10.0991 43.0615C11.3605 42.8469 13.8784 42.1352 15.5089 41.5222L20.6261 39.4454C26.6176 36.7291 32.7792 32.8537 40.2855 27.1002C41.853 25.8956 45.2174 23.0891 46.0786 22.2664C48.1709 20.2633 49.6379 18.4657 50.1592 17.2319C50.2113 17.1101 50.2552 16.9849 50.2905 16.8572L51.7877 14.6998ZM39.7283 2.84497C40.0042 2.91466 40.2636 3.03842 40.4914 3.20907C40.7191 3.37973 40.9107 3.59388 41.0551 3.83913C41.446 4.4941 41.5314 5.26891 41.259 6.21348C41.0145 7.0606 40.4725 8.0582 39.6102 9.23935C38.6312 10.5744 37.3639 12.0021 35.7792 13.5514C33.7843 15.5018 30.8487 17.923 28.1179 19.8738C23.1919 23.3907 17.6371 26.4813 13.1632 28.1993L12.4869 28.4611L10.1046 29.1804L7.94099 29.667C6.83284 29.8357 5.73469 29.843 5.01739 29.6908C4.14272 29.5048 3.60001 29.1945 3.13651 28.6487C2.50943 27.9084 2.24462 26.9562 2.35103 25.5943L4.72296 26.3223C4.73536 26.7293 4.77117 26.9331 4.92579 27.1456C5.01326 27.2651 5.03736 27.2833 5.1875 27.3498C5.47229 27.4789 6.12588 27.5478 6.61969 27.5182C6.95027 27.4982 7.49263 27.4046 8.03052 27.2978L8.20959 27.262C8.92206 27.1174 9.58392 26.961 9.68171 26.9383L9.69377 26.9349L15.8805 24.3901L15.8943 24.3832C16.0114 24.3233 16.8447 23.8976 17.2142 23.7003C20.341 22.0285 23.3816 20.0704 26.6796 17.6134C27.6575 16.882 31.5787 13.5975 32.3642 12.8437C34.9672 10.3564 36.7024 8.41186 37.843 6.70247C38.0771 6.34847 38.2173 5.98138 38.4352 5.68041L39.7283 2.84497Z" fill="black"/>
</g>
</svg>
