<svg width="80" height="80" viewBox="0 0 80 80" fill="none" xmlns="http://www.w3.org/2000/svg">
<mask id="mask0_7380_56315" style="mask-type:alpha" maskUnits="userSpaceOnUse" x="-1" y="-1" width="82" height="82">
<rect width="80" height="80" fill="white" stroke="white" stroke-width="2"/>
</mask>
<g mask="url(#mask0_7380_56315)">
<path d="M22.5 35C23.163 35 23.7989 35.2634 24.2678 35.7322C24.7366 36.2011 25 36.837 25 37.5V52.5C25 54.4891 25.7902 56.3968 27.1967 57.8033C28.6032 59.2098 30.5109 60 32.5 60C34.4891 60 36.3968 59.2098 37.8033 57.8033C39.2098 56.3968 40 54.4891 40 52.5V37.5C40 36.837 40.2634 36.2011 40.7322 35.7322C41.2011 35.2634 41.837 35 42.5 35C43.163 35 43.7989 35.2634 44.2678 35.7322C44.7366 36.2011 45 36.837 45 37.5V52.5C45 55.8152 43.683 58.9946 41.3388 61.3388C38.9946 63.683 35.8152 65 32.5 65C29.1848 65 26.0054 63.683 23.6612 61.3388C21.317 58.9946 20 55.8152 20 52.5V37.5C20 36.837 20.2634 36.2011 20.7322 35.7322C21.2011 35.2634 21.837 35 22.5 35ZM57.5 40C58.163 40 58.7989 39.7366 59.2678 39.2678C59.7366 38.7989 60 38.163 60 37.5C60 36.837 59.7366 36.2011 59.2678 35.7322C58.7989 35.2634 58.163 35 57.5 35H52.5C51.837 35 51.2011 35.2634 50.7322 35.7322C50.2634 36.2011 50 36.837 50 37.5C50 38.163 50.2634 38.7989 50.7322 39.2678C51.2011 39.7366 51.837 40 52.5 40V60C51.837 60 51.2011 60.2634 50.7322 60.7322C50.2634 61.2011 50 61.837 50 62.5C50 63.163 50.2634 63.7989 50.7322 64.2678C51.2011 64.7366 51.837 65 52.5 65H57.5C58.163 65 58.7989 64.7366 59.2678 64.2678C59.7366 63.7989 60 63.163 60 62.5C60 61.837 59.7366 61.2011 59.2678 60.7322C58.7989 60.2634 58.163 60 57.5 60V40Z" fill="black"/>
<path fill-rule="evenodd" clip-rule="evenodd" d="M0 9.95C0.0132033 7.96955 0.809205 6.07472 2.2143 4.67899C3.61939 3.28326 5.51951 2.49996 7.5 2.5H72.5C74.4891 2.5 76.3968 3.29018 77.8033 4.6967C79.2098 6.10322 80 8.01088 80 10V70C80 71.9891 79.2098 73.8968 77.8033 75.3033C76.3968 76.7098 74.4891 77.5 72.5 77.5H7.5C5.51088 77.5 3.60322 76.7098 2.1967 75.3033C0.790176 73.8968 0 71.9891 0 70L0 10V9.95ZM5 27.5V70C5 70.663 5.26339 71.2989 5.73223 71.7678C6.20107 72.2366 6.83696 72.5 7.5 72.5H72.5C73.163 72.5 73.7989 72.2366 74.2678 71.7678C74.7366 71.2989 75 70.663 75 70V27.5H5ZM15 15C15 15.663 14.7366 16.2989 14.2678 16.7678C13.7989 17.2366 13.163 17.5 12.5 17.5C11.837 17.5 11.2011 17.2366 10.7322 16.7678C10.2634 16.2989 10 15.663 10 15C10 14.337 10.2634 13.7011 10.7322 13.2322C11.2011 12.7634 11.837 12.5 12.5 12.5C13.163 12.5 13.7989 12.7634 14.2678 13.2322C14.7366 13.7011 15 14.337 15 15ZM20 17.5C20.663 17.5 21.2989 17.2366 21.7678 16.7678C22.2366 16.2989 22.5 15.663 22.5 15C22.5 14.337 22.2366 13.7011 21.7678 13.2322C21.2989 12.7634 20.663 12.5 20 12.5C19.337 12.5 18.7011 12.7634 18.2322 13.2322C17.7634 13.7011 17.5 14.337 17.5 15C17.5 15.663 17.7634 16.2989 18.2322 16.7678C18.7011 17.2366 19.337 17.5 20 17.5ZM30 15C30 15.663 29.7366 16.2989 29.2678 16.7678C28.7989 17.2366 28.163 17.5 27.5 17.5C26.837 17.5 26.2011 17.2366 25.7322 16.7678C25.2634 16.2989 25 15.663 25 15C25 14.337 25.2634 13.7011 25.7322 13.2322C26.2011 12.7634 26.837 12.5 27.5 12.5C28.163 12.5 28.7989 12.7634 29.2678 13.2322C29.7366 13.7011 30 14.337 30 15Z" fill="black"/>
</g>
</svg>
