<svg width="80" height="80" viewBox="0 0 80 80" fill="none" xmlns="http://www.w3.org/2000/svg">
<mask id="mask0_7380_56347" style="mask-type:alpha" maskUnits="userSpaceOnUse" x="-1" y="-1" width="82" height="82">
<rect width="80" height="80" fill="white" stroke="white" stroke-width="2"/>
</mask>
<g mask="url(#mask0_7380_56347)">
<path fill-rule="evenodd" clip-rule="evenodd" d="M52.2845 48.2661C51.3483 47.5115 51.144 46.1724 51.8079 45.1794C61.9589 28.9004 49.4305 6.66302 30.2009 7.00437C22.2288 7.01004 14.7281 10.7834 9.97238 17.178C5.21753 23.5784 3.77063 31.8461 6.0686 39.4823C8.3609 47.114 14.1315 53.2136 21.6271 55.9254C29.1227 58.6372 37.463 57.6503 44.1129 53.2586C44.9697 52.6402 46.1385 52.6855 46.9499 53.3721C46.9619 53.3991 53.1785 58.8394 59.0323 63.9621C64.2392 68.5187 69.159 72.8241 69.1699 72.8453C70.6963 74.1503 72.9886 73.9858 74.3164 72.4765C75.6441 70.9728 75.5136 68.6748 74.027 67.33L52.2845 48.2661ZM14.4814 37.9386C15.3112 38.3012 16.3039 38.4826 17.4596 38.4826C18.5845 38.4826 19.5495 38.3135 20.3548 37.9755C21.1662 37.6312 21.7901 37.1425 22.2265 36.5094C22.663 35.8701 22.8812 35.114 22.8812 34.2412C22.8812 33.7125 22.7921 33.2392 22.6138 32.8212C22.4417 32.4032 22.1774 32.0344 21.8208 31.7148C21.4705 31.3951 21.031 31.1216 20.5023 30.8942C19.9798 30.6667 19.3713 30.4792 18.6767 30.3317L17.3766 30.0367C16.8541 29.9199 16.4177 29.7877 16.0673 29.6402C15.7231 29.4865 15.4649 29.3052 15.2928 29.0962C15.1268 28.8872 15.0438 28.6352 15.0438 28.3401C15.0438 28.0082 15.1422 27.7162 15.3389 27.4642C15.5356 27.2121 15.8122 27.0154 16.1687 26.8741C16.5252 26.7327 16.9371 26.662 17.4043 26.662C18.1357 26.662 18.7228 26.8403 19.1654 27.1968C19.6141 27.5533 19.863 28.0481 19.9122 28.6813H22.5769C22.5523 27.7838 22.328 27.0093 21.9038 26.3577C21.4797 25.7061 20.8834 25.2052 20.1151 24.8548C19.3528 24.4983 18.4462 24.32 17.395 24.32C16.3685 24.32 15.4618 24.4952 14.675 24.8456C13.8943 25.1898 13.2858 25.6754 12.8494 26.3024C12.4129 26.9232 12.1947 27.6516 12.1947 28.4876C12.1947 29.4711 12.5266 30.2764 13.1905 30.9034C13.8544 31.5304 14.844 31.9914 16.1595 32.2864L17.6163 32.6092C18.1818 32.7383 18.6429 32.8827 18.9994 33.0425C19.3621 33.2023 19.6294 33.3929 19.8016 33.6142C19.9737 33.8293 20.0597 34.0875 20.0597 34.3887C20.0597 34.7391 19.9522 35.0464 19.737 35.3108C19.5219 35.5751 19.2207 35.781 18.8334 35.9285C18.4462 36.076 17.9913 36.1498 17.4688 36.1498C16.9033 36.1498 16.4115 36.0576 15.9935 35.8732C15.5755 35.6888 15.2497 35.4245 15.0162 35.0802C14.7826 34.7299 14.6596 34.3088 14.6473 33.817H11.9089C11.915 34.8067 12.1394 35.6519 12.582 36.3527C13.0245 37.0473 13.6577 37.5759 14.4814 37.9386ZM24.6331 24.5321V38.2705H34.3514V35.864H27.4637V32.5077H33.8258V30.1565H27.4637V26.9386H34.3514V24.5321H24.6331ZM38.851 37.6251C39.8283 38.1967 40.9317 38.4826 42.1611 38.4826C43.3905 38.4826 44.4908 38.1998 45.462 37.6343C46.4332 37.0626 47.2016 36.2482 47.7671 35.1909C48.3326 34.1336 48.6154 32.8735 48.6154 31.4105C48.6154 29.9414 48.3326 28.6782 47.7671 27.6209C47.2016 26.5575 46.4332 25.743 45.462 25.1775C44.4908 24.6058 43.3905 24.32 42.1611 24.32C40.9317 24.32 39.8283 24.6058 38.851 25.1775C37.8736 25.743 37.1022 26.5575 36.5366 27.6209C35.9773 28.6782 35.6976 29.9414 35.6976 31.4105C35.6976 32.8673 35.9773 34.1244 36.5366 35.1817C37.1022 36.2389 37.8736 37.0534 38.851 37.6251ZM44.0328 35.4491C43.4919 35.8056 42.868 35.9838 42.1611 35.9838C41.4542 35.9838 40.8272 35.8056 40.2801 35.4491C39.7392 35.0925 39.3151 34.5731 39.0077 33.8908C38.7004 33.2085 38.5467 32.3817 38.5467 31.4105C38.5467 30.4331 38.7004 29.6033 39.0077 28.921C39.3151 28.2325 39.7392 27.71 40.2801 27.3535C40.8272 26.997 41.4542 26.8187 42.1611 26.8187C42.868 26.8187 43.4919 26.997 44.0328 27.3535C44.5738 27.71 44.9979 28.2325 45.3053 28.921C45.6126 29.6033 45.7663 30.4331 45.7663 31.4105C45.7663 32.3817 45.6126 33.2085 45.3053 33.8908C44.9979 34.5731 44.5738 35.0925 44.0328 35.4491Z" fill="black"/>
</g>
</svg>
