<svg width="76" height="76" viewBox="0 0 76 76" fill="none" xmlns="http://www.w3.org/2000/svg">
<mask id="mask0_7039_90265" style="mask-type:alpha" maskUnits="userSpaceOnUse" x="-1" y="-1" width="78" height="78">
<rect width="76" height="76" fill="white" stroke="white" stroke-width="2"/>
</mask>
<g mask="url(#mask0_7039_90265)">
<path d="M18.2031 31.5836C21.1429 23.1142 28.858 17.0703 37.9071 17.0703C47.7325 17.0703 55.9801 24.1893 58.2613 33.8027" stroke="black" stroke-width="3" stroke-miterlimit="10" stroke-linecap="round"/>
<path d="M56.0664 35.4178L58.9948 37.2681L60.8033 34.2722" stroke="black" stroke-width="3" stroke-linecap="round" stroke-linejoin="round"/>
<path d="M20.2827 40.9037L17.5522 38.7601L15.4569 41.5537" stroke="black" stroke-width="3" stroke-linecap="round" stroke-linejoin="round"/>
<path d="M58.1469 44.8837C55.2043 53.3531 47.492 59.397 38.4401 59.397C28.6147 59.397 20.3671 52.2779 18.0859 42.6646" stroke="black" stroke-width="3" stroke-miterlimit="10" stroke-linecap="round"/>
<path d="M36.4894 31.4011L41.3545 26.2735C41.9738 25.6398 43.0163 26.2391 42.8118 27.1078L40.6595 36.2539C40.5614 36.6667 40.766 37.0939 41.1443 37.2688L44.7511 38.9489C45.3059 39.207 45.4349 39.9553 44.9977 40.3911L35.2087 50.1966C34.5698 50.8388 33.5161 50.1851 33.7711 49.3078L36.4894 40.004C36.6352 39.5051 36.3325 38.9891 35.8365 38.883L31.7757 38.0143C31.1003 37.8709 30.8537 37.0165 31.3414 36.5176L36.4894 31.4011Z" stroke="black" stroke-width="3" stroke-miterlimit="10"/>
</g>
</svg>
