<svg width="56" height="53" viewBox="0 0 56 53" fill="none" xmlns="http://www.w3.org/2000/svg">
<mask id="mask0_7200_56252" style="mask-type:alpha" maskUnits="userSpaceOnUse" x="0" y="0" width="56" height="53">
<rect width="56" height="53" fill="#D9D9D9"/>
</mask>
<g mask="url(#mask0_7200_56252)">
<path d="M16.135 31.561C16.2267 31.5094 16.3277 31.4764 16.4321 31.4639C16.5366 31.4514 16.6425 31.4597 16.7437 31.4882C16.845 31.5168 16.9396 31.5651 17.0221 31.6303C17.1047 31.6955 17.1735 31.7764 17.2247 31.8683L17.3714 32.1152C18.489 34.0966 19.6532 35.9802 20.8639 37.7637C22.37 39.9683 23.9815 42.0989 25.6929 44.1481C25.8293 44.31 25.8963 44.5192 25.8793 44.7302C25.8623 44.9413 25.7627 45.137 25.6021 45.275L25.4298 45.4287C19.5088 50.6046 15.6717 51.6337 13.8975 48.5324C12.1605 45.4939 12.7869 39.9827 15.7788 31.9778C15.8443 31.8004 15.9705 31.6543 16.135 31.561ZM41.3278 37.6427C41.533 37.6051 41.7447 37.6501 41.9169 37.7678C42.0892 37.8856 42.208 38.0665 42.2475 38.2713L42.2941 38.5042C43.7563 46.1551 42.7295 49.9829 39.209 49.9829C35.763 49.9829 31.3857 46.7186 26.0561 40.1969C25.9369 40.0517 25.8755 39.8676 25.8838 39.68C25.8838 39.2422 26.2471 38.8883 26.6848 38.8883H26.9665C29.1489 38.9052 31.331 38.8291 33.5069 38.6602C35.9982 38.4599 38.6083 38.1246 41.3278 37.6427ZM43.3558 21.3978C43.4309 21.1974 43.5811 21.0343 43.7746 20.943C43.9681 20.8517 44.1895 20.8394 44.3919 20.9088L44.6294 20.988C52.2245 23.5724 55.1163 26.4177 53.2885 29.519C51.505 32.5575 46.3198 34.7672 37.7258 36.1502C37.534 36.1785 37.3383 36.1399 37.1717 36.0408C37.0786 35.9882 36.9971 35.9176 36.9318 35.833C36.8666 35.7483 36.819 35.6515 36.7919 35.5481C36.7647 35.4448 36.7586 35.3371 36.7738 35.2313C36.7891 35.1255 36.8254 35.0239 36.8806 34.9325L37.025 34.6857C38.168 32.7731 39.2299 30.8132 40.2079 28.8112C41.3185 26.5085 42.3732 24.0358 43.3558 21.3978ZM18.1537 19.109C18.3455 19.0806 18.5412 19.1193 18.7079 19.2184C18.8009 19.2709 18.8825 19.3416 18.9477 19.4262C19.013 19.5108 19.0606 19.6077 19.0877 19.711C19.1148 19.8144 19.121 19.9221 19.1057 20.0279C19.0905 20.1336 19.0541 20.2352 18.9989 20.3267L18.8545 20.5735C17.7116 22.4861 16.6497 24.446 15.6717 26.4479C14.5611 28.7484 13.5063 31.2234 12.5238 33.8614C12.4487 34.0617 12.2984 34.2249 12.1049 34.3162C11.9115 34.4075 11.69 34.4197 11.4876 34.3504L11.2501 34.2712C3.65506 31.6867 0.763249 28.8415 2.59101 25.7401C4.37685 22.7016 9.55976 20.492 18.1537 19.109ZM30.4497 9.83283C36.3707 4.6569 40.2102 3.6301 41.9821 6.73146C43.719 9.76763 43.0927 15.2788 40.1008 23.2837C40.0352 23.4611 39.909 23.6096 39.7445 23.7028C39.6527 23.7544 39.5516 23.7872 39.4471 23.7996C39.3425 23.8119 39.2365 23.8034 39.1353 23.7746C39.034 23.7458 38.9394 23.6973 38.857 23.6319C38.7745 23.5664 38.7058 23.4853 38.6549 23.3932L38.5082 23.1463C37.422 21.2163 36.2569 19.3319 35.0156 17.4978C33.5096 15.2932 31.898 13.1626 30.1866 11.1134C30.0502 10.9515 29.9832 10.7423 30.0002 10.5313C30.0172 10.3202 30.1168 10.1245 30.2774 9.9865L30.4497 9.83283ZM16.9616 4.9852C20.4076 4.9852 24.7942 8.24955 30.1145 14.7713C30.231 14.9149 30.295 15.0939 30.2961 15.2788C30.2936 15.4921 30.2072 15.6958 30.0555 15.8458C29.9038 15.9957 29.6991 16.0798 29.4858 16.0798L29.2134 16.0705C27.031 16.061 24.849 16.1402 22.673 16.308C20.0483 16.5223 17.4352 16.8619 14.8428 17.3255C14.6372 17.3603 14.4261 17.3133 14.2546 17.1945C14.0832 17.0757 13.9651 16.8946 13.9254 16.6898L13.8789 16.4616C12.4143 8.81301 13.4411 4.9852 16.9616 4.9852ZM23.6463 18.5176H32.2333C32.4923 18.5179 32.7468 18.586 32.9715 18.715C33.1961 18.8441 33.3831 19.0297 33.5138 19.2533L37.8166 26.7506C37.9414 26.9741 38.007 27.2258 38.007 27.4817C38.007 27.7377 37.9414 27.9894 37.8166 28.2128L33.5162 35.7171C33.3852 35.9411 33.1979 36.1269 32.9728 36.256C32.7477 36.3851 32.4927 36.453 32.2333 36.4529H23.6463C23.3879 36.4539 23.1338 36.3864 22.9101 36.2571C22.6863 36.1278 22.5009 35.9415 22.3727 35.7171L18.0629 28.2128C17.9377 27.9891 17.8719 27.737 17.8719 27.4806C17.8719 27.2242 17.9377 26.9721 18.0629 26.7483L22.375 19.2533C22.503 19.0293 22.6881 18.8432 22.9114 18.7139C23.1347 18.5847 23.3883 18.5169 23.6463 18.5176ZM31.1669 20.364C31.4267 20.3635 31.6822 20.4312 31.9077 20.5603C32.1332 20.6894 32.321 20.8754 32.4521 21.0997L35.6885 26.7483C35.8137 26.9721 35.8795 27.2242 35.8795 27.4806C35.8795 27.737 35.8137 27.9891 35.6885 28.2128L32.4521 33.8707C32.3212 34.0947 32.1338 34.2805 31.9087 34.4096C31.6836 34.5387 31.4287 34.6066 31.1692 34.6065H24.7103C24.4523 34.6071 24.1988 34.5394 23.9754 34.4101C23.7521 34.2809 23.567 34.0948 23.4391 33.8707L20.191 28.2128C20.0658 27.9891 20.0001 27.737 20.0001 27.4806C20.0001 27.2242 20.0658 26.9721 20.191 26.7483L23.4391 21.0997C23.567 20.8757 23.7521 20.6896 23.9754 20.5603C24.1988 20.4311 24.4523 20.3633 24.7103 20.364H31.1669ZM30.0236 22.3826H25.8559C25.5977 22.3813 25.3439 22.4487 25.1204 22.578C24.897 22.7074 24.712 22.8939 24.5846 23.1184L22.4914 26.7506C22.3666 26.9741 22.3011 27.2258 22.3011 27.4817C22.3011 27.7377 22.3666 27.9894 22.4914 28.2128L24.5846 31.8521C24.7137 32.0756 24.8993 32.2613 25.1229 32.3905C25.3465 32.5196 25.6 32.5877 25.8582 32.5878H30.0236C30.2818 32.5877 30.5354 32.5196 30.759 32.3905C30.9825 32.2613 31.1682 32.0756 31.2973 31.8521L33.3881 28.2128C33.5133 27.9891 33.5791 27.737 33.5791 27.4806C33.5791 27.2242 33.5133 26.9721 33.3881 26.7483L31.2973 23.1207C31.1699 22.8954 30.9848 22.7082 30.7608 22.5785C30.5369 22.4487 30.2824 22.3811 30.0236 22.3826ZM28.913 24.3105C29.4416 24.3105 29.9328 24.5922 30.1866 25.0486L31.1692 26.7483C31.2987 26.9706 31.3669 27.2233 31.3669 27.4806C31.3669 27.7378 31.2987 27.9905 31.1692 28.2128L30.1866 29.9218C30.0588 30.1467 29.8734 30.3335 29.6497 30.4632C29.4259 30.5929 29.1717 30.6608 28.913 30.6599H26.9665C26.7081 30.6596 26.4544 30.5912 26.2308 30.4616C26.0072 30.332 25.8217 30.1459 25.6929 29.9218L24.7103 28.2128C24.5809 27.9905 24.5127 27.7378 24.5127 27.4806C24.5127 27.2233 24.5809 26.9706 24.7103 26.7483L25.6929 25.0486C25.8217 24.8246 26.0072 24.6384 26.2308 24.5089C26.4544 24.3793 26.7081 24.3109 26.9665 24.3105H28.913ZM27.9398 26.2128C27.7167 26.2132 27.4975 26.2721 27.3043 26.3836C27.111 26.4952 26.9504 26.6554 26.8385 26.8484C26.7267 27.042 26.6678 27.2617 26.6678 27.4852C26.6678 27.7088 26.7267 27.9284 26.8385 28.122C26.9506 28.3144 27.1114 28.4737 27.3048 28.5841C27.4981 28.6945 27.7171 28.7519 27.9398 28.7507C28.1624 28.7519 28.3814 28.6945 28.5748 28.5841C28.7681 28.4737 28.929 28.3144 29.0411 28.122C29.1529 27.9284 29.2117 27.7088 29.2117 27.4852C29.2117 27.2617 29.1529 27.042 29.0411 26.8484C28.9291 26.6554 28.7685 26.4952 28.5753 26.3836C28.382 26.2721 28.1629 26.2132 27.9398 26.2128ZM17.6438 27.4841H19.9256H17.6438ZM44.1917 17.7353C45.1021 13.323 45.3023 9.94925 44.7109 7.49516C44.3663 6.0283 43.7283 4.84783 42.7551 3.98401C41.7283 3.07595 40.4267 2.62891 38.9715 2.62891C36.5617 2.62891 34.0354 3.72789 31.3322 5.81176C30.1224 6.75615 28.9767 7.77977 27.9025 8.87587C27.8063 8.75562 27.7004 8.64348 27.5859 8.54059C24.2191 5.54866 21.3924 3.69296 18.971 2.97583C17.5344 2.54741 16.1886 2.51016 14.9615 2.91995C13.66 3.35535 12.6239 4.25642 11.8951 5.52072C10.696 7.60227 10.377 10.3497 10.8241 13.7328C11.0057 15.1065 11.3223 16.6083 11.7601 18.2358C11.59 18.2558 11.4223 18.2924 11.2595 18.3453C7.00323 19.7609 3.98103 21.272 2.1556 23.009C1.07292 24.0381 0.362773 25.193 0.0996689 26.4573C-0.163435 27.803 0.0996688 29.1488 0.826115 30.4155C2.02754 32.497 4.23715 34.1338 7.38508 35.4331C8.78452 35.9975 10.2186 36.4719 11.6786 36.8534C11.6041 37.0219 11.5494 37.1984 11.5156 37.3796C10.6052 41.7825 10.405 45.1656 10.9964 47.6127C11.341 49.0772 11.9859 50.267 12.9522 51.1238C13.9766 52.0319 15.2805 52.4789 16.7357 52.4789C19.1456 52.4789 21.6719 51.3776 24.3727 49.3031C25.4834 48.4416 26.6382 47.4031 27.8397 46.1924C27.9683 46.3868 28.1209 46.5644 28.2937 46.7209C31.6605 49.7128 34.4871 51.5685 36.9086 52.2857C38.3452 52.7141 39.691 52.7513 40.918 52.3416C42.2196 51.9062 43.2557 51.0051 43.9845 49.7408C45.1836 47.6592 45.5025 44.9118 45.0555 41.5287C44.8336 39.9463 44.503 38.381 44.0659 36.844C44.2538 36.826 44.4394 36.7893 44.6201 36.7346C48.8763 35.3143 51.8962 33.8055 53.7239 32.0686C54.8066 31.0418 55.5168 29.8869 55.7799 28.6226C56.043 27.2768 55.7799 25.9287 55.0511 24.6644C53.852 22.5829 51.6424 20.9461 48.4945 19.6445C47.0504 19.0581 45.5676 18.5719 44.0566 18.1893C44.1201 18.0439 44.1663 17.8915 44.194 17.7353H44.1917Z" fill="black"/>
</g>
</svg>
