<svg width="74" height="74" viewBox="0 0 74 74" fill="none" xmlns="http://www.w3.org/2000/svg">
<mask id="mask0_7039_90279" style="mask-type:alpha" maskUnits="userSpaceOnUse" x="-1" y="-1" width="76" height="76">
<rect width="74" height="74" fill="white" stroke="white" stroke-width="2"/>
</mask>
<g mask="url(#mask0_7039_90279)">
<path d="M43.4123 64.6801H43.0506H43.0162H42.9818H42.9475H42.9131H42.8787H42.8443H42.81H42.7756H42.7412H42.7069H42.6725H42.6381H42.6037H42.5694H42.535H42.5006H42.4662H42.4319H42.3975H42.3631H42.3287H42.2944H42.26H42.2256H42.1913H42.1569H42.1225H42.0881H42.0538H42.0194H41.985H41.9506H41.9163H41.8819H41.8475H41.8132H41.7788H41.7444H41.71H41.6757H41.6413H41.6069H41.5725H41.5382H41.5038H41.4694H41.435H41.4007H41.3663H41.3319H41.2976H41.2632H41.2288H41.1944H41.1601H41.1257H41.0913H41.0569H41.0226H40.9882H40.9538H40.9195H40.8851H40.8507H40.8163H40.782H40.7476H40.7132H40.6788H40.6445H40.6101H40.5757H40.5413H40.507H40.4726H40.4382H40.4039H40.3695H40.3351H40.3007H40.2664H40.232H40.1976H40.1632H40.1289H40.0945H40.0601H40.0258H39.9914H39.957H39.9226H39.8883H39.8539H39.8195H39.7851H39.7508H39.7164H39.682H39.6477H39.6133H39.5789H39.5445H39.5102H39.4758H39.4414H39.407H39.3727H39.3383H39.3039H39.2696H39.2352H39.2008H39.1664H39.1321H39.0977H39.0633H39.0289H38.9946H38.9602H38.9258H38.8915H38.8571H38.8227H38.7883H38.754H38.7196H38.6852H38.6508H38.6165H38.5821H38.5477H38.5134H38.479H38.4446H38.4102H38.3759H38.3415H38.3071H38.2728H38.2384H38.204H38.1696H38.1353H38.1009H38.0665H38.0321H37.9978H37.9634H37.929H37.8947H37.8603H37.8259H37.7915H37.7572H37.7228H37.6884H37.654H37.6197H37.5853H37.5509H37.5166H37.4822H37.4478H37.4134H37.3791H37.3447H37.3103H37.276H37.2416H37.2072H37.1728H37.1385H37.1041H37.0697H37.0354H37.001H36.9666H36.9322H36.8979H36.8635H36.8291H36.7947H36.7604H36.726H36.6916H36.6573H36.6229H36.5885H36.5541H36.5198H36.4854H36.451H36.4167H36.3823H36.3479H36.3135H36.2792H36.2448H36.2104H36.1761H36.1417H36.1073H36.0729H36.0386H36.0042H35.9698H35.9355H35.9011H35.8667H35.8323H35.798H35.7636H35.7292H35.6949H35.6605H35.6261H35.5917H35.5574H35.523H35.4886H35.4543H35.4199H35.3855H35.3511H35.3168H35.2824H35.248H35.2137H35.1793H35.1449H35.1105H35.0762H35.0418H35.0074H34.9731H34.9387H34.9043H34.8699H34.8356H34.8012H34.7668H34.7325H34.6981H34.6637H34.6293H34.595H34.5606H34.5262H34.4919H34.4575H34.4231H34.3888H34.3544H34.32H34.2856H34.2513H34.2169H34.1825H34.1482H34.1138H34.0794H34.045H34.0107H33.9763H33.9419H33.9076H33.8732H33.8388H33.8045H33.7701H33.7357H33.7013H33.667H33.6326H33.5982H33.5639H33.5295H33.4951H33.4608H33.4264H33.392H33.3576H33.3233H33.2889H33.2545H33.2202H33.1858H33.1514H33.1171H33.0827H33.0483H33.0139H32.9796H32.9452H32.9108H32.8765H32.8421H32.8077H32.7734H32.739H32.7046H32.6702H32.6359H32.6015H32.5671H32.5328H32.4984H32.464H32.4297H32.3953H32.3609H32.3265H32.2922H32.2578H32.2234H32.1891H32.1547H32.1203H32.086H32.0516H32.0172H31.9829H31.9485H31.9141H31.8797H31.8454H31.811H31.7766H31.7423H31.7079H31.6735H31.6392H31.6048H31.5704H31.5361H31.5017H31.4673H31.433H31.3986H31.3642H31.3298H31.2955H31.2611H31.2267H31.1924H31.158H31.1236H31.0893H31.0549H31.0205H30.9862H30.9518H30.9174H30.8831H30.8487H30.8143H30.7799H30.7456H30.7112H30.6768H30.6425H30.6081H30.5737H30.5394H30.505H30.4706H30.4363H30.4019H30.3675H30.3332H30.2988H30.2644H30.2301H30.1957H30.1613H30.127H30.0926H30.0582H30.0239H29.9895H29.9551H29.9207H29.8864H29.852H29.8176H29.7833H29.7489H29.7145H29.6802H29.6458H29.6114H29.5771H29.5427H29.5083H29.474H29.4396H29.4052H29.3709H29.3365H29.3021H29.2678H29.2334H29.199H29.1647H29.1303H29.0959H29.0616H29.0272H28.9928H28.9585H28.9241H28.8897H28.8554H28.821H28.7866H28.7523H28.7179H28.6835H28.6492H28.6148H28.5804H28.5461H28.5117H28.4773H28.443H28.4086H28.3742H28.3399H28.3055H28.2711H28.2368H28.2024H28.168H28.1337H28.0993H28.0649H28.0306H27.9962H27.9618H27.9275H27.8931H27.8587H27.8244H27.79H27.7557H27.7213H27.6869H27.6526H27.6182H27.5838H27.5495H27.5151H27.4807H27.4464H27.412H27.3776H27.3433H27.3089H27.2745H27.2402H27.2058H27.1714H27.1371H27.1027H27.0683H27.034H26.9996H26.9653H26.9309H26.8965H26.8622H26.8278H26.7934H26.7591H26.7247H26.6903H26.656H26.6216H26.5872H26.5529H26.5185H26.4841H26.4498H26.4154H26.3811H26.3467H26.3123H26.278H26.2436H26.2092H26.1749H26.1405H26.1061H26.0718H26.0374H26.0031H25.9687H25.9343H25.9H25.8656H25.8312H25.7969H25.7625H25.7281H25.6938H25.6594H25.6251H25.5907H25.5563H25.522H25.4876H25.4532C23.8865 64.6801 22.6093 64.2029 21.7234 63.3174C20.8375 62.432 20.3594 61.1548 20.3586 59.5872L20.3586 59.5872C20.3574 55.7763 20.3578 51.9647 20.3582 48.1533C20.3584 46.2478 20.3586 44.3423 20.3586 42.437C20.3586 41.8291 20.4254 41.3917 20.6984 41.1195C20.9711 40.8476 21.4095 40.7807 22.0189 40.7798C22.2872 40.7795 22.5555 40.779 22.824 40.7784C23.8993 40.7762 24.9764 40.774 26.0521 40.785C26.2293 40.7867 26.3307 40.7706 26.401 40.7284C26.4646 40.6903 26.5281 40.6146 26.5826 40.4285C27.3717 37.7226 29.6227 35.9906 32.3111 35.9871H32.3112C34.9995 35.9853 37.2642 37.7257 38.0535 40.4163C38.102 40.5802 38.1468 40.6668 38.2025 40.7163C38.2521 40.7603 38.3326 40.7938 38.504 40.7885L38.5045 40.7884C39.5301 40.7593 40.5585 40.7645 41.5823 40.785L41.5825 40.785C41.771 40.789 41.8414 40.7529 41.873 40.7184C41.9082 40.68 41.937 40.6 41.9345 40.4149L43.4123 64.6801ZM43.4123 64.6801L43.4106 64.6784M43.4123 64.6801L43.4106 64.6784M43.4106 64.6784H43.4283H43.4628H43.4973H43.5318H43.5663H43.6008H43.6353H43.6698H43.7043H43.7387H43.7732H43.8077H43.8422H43.8767H43.9112H43.9457H43.9802H44.0147H44.0492H44.0837H44.1182H44.1527H44.1872H44.2217H44.2562H44.2907H44.3252H44.3596H44.3941H44.4286H44.4631H44.4976H44.5321H44.5666H44.6011H44.6356H44.6701H44.7046H44.7391H44.7736H44.8081H44.8426H44.8771H44.9116H44.9461H44.9806H45.015H45.0495H45.084H45.1185H45.153H45.1875H45.222H45.2565H45.291H45.3255H45.36H45.3945H45.429H45.4635H45.498H45.5325H45.567H45.6015H45.636H45.6705H45.705H45.7395H45.7739H45.8084H45.8429H45.8774H45.9119H45.9464H45.9809H46.0154H46.0499H46.0844H46.1189H46.1534H46.1879H46.2224H46.2569H46.2914H46.3259H46.3604H46.3949H46.4294H46.4639H46.4984H46.5329H46.5674H46.6019H46.6364H46.6708H46.7053H46.7398H46.7743H46.8088H46.8433H46.8778H46.9123H46.9468H46.9813H47.0158H47.0503H47.0848H47.1193H47.1538H47.1883H47.2228H47.2573H47.2918H47.3263H47.3608H47.3953H47.4298H47.4643H47.4988H47.5333H47.5678H47.6023H47.6368H47.6713H47.7057H47.7402H47.7747H47.8092H47.8437H47.8782H47.9127H47.9472H47.9817H48.0162H48.0507H48.0852H48.1197H48.1542H48.1887H48.2232H48.2577H48.2922H48.3267H48.3612H48.3957H48.4302H48.4647H48.4992H48.5337H48.5682H48.6027H48.6372H48.6717H48.7062H48.7407H48.7752H48.8097H48.8442H48.8787H48.9132H48.9477H48.9822H49.0166H49.0511H49.0856H49.1201H49.1546H49.1891H49.2236H49.2581H49.2926H49.3271H49.3616H49.3961H49.4306H49.4651H49.4996H49.5341H49.5686H49.6031H49.6376H49.6721H49.7066H49.7411H49.7756H49.8101H49.8446H49.8791H49.9136H49.9481H49.9826H50.0171H50.0516H50.0861H50.1206H50.1551H50.1896H50.2241H50.2586H50.2931H50.3276H50.3621H50.3966H50.4311H50.4656H50.5001H50.5346H50.5691H50.6035H50.638H50.6725H50.707H50.7415H50.776H50.8105H50.845H50.8795H50.914H50.9485H50.983H51.0175H51.052H51.0865H51.121H51.1555H51.19H51.2245H51.259H51.2935H51.328H51.3625H51.397H51.4315H51.466H51.5005H51.535H51.5695H51.604H51.6385H51.673H51.7075H51.742H51.7765H51.811H51.8455H51.88H51.9145H51.949H51.9835H52.018H52.0525H52.087H52.1215H52.156H52.1905H52.225H52.2595H52.294H52.3285H52.363H52.3975H52.432H52.4664H52.5009H52.5354H52.5699H52.6044H52.6389H52.6734H52.7079H52.7424H52.7769H52.8114H52.8459H52.8804H52.9149H52.9494H52.9839H53.0184H53.0529H53.0874H53.1219H53.1564H53.1909H53.2254H53.2599H53.2944H53.3289H53.3634H53.3979H53.4324H53.4669H53.5014H53.5359H53.5704H53.6049H53.6394H53.6739H53.7084H53.7429H53.7774H53.8119H53.8464H53.8809H53.9154H53.9499H53.9844H54.0189H54.0534H54.0879H54.1224H54.1569H54.1913H54.2258H54.2603H54.2948H54.3293H54.3638H54.3983H54.4328H54.4673H54.5018H54.5363H54.5708H54.6053H54.6398H54.6743H54.7088H54.7433H54.7778H54.8123H54.8468H54.8813H54.9158H54.9503H54.9848H55.0193H55.0538H55.0883H55.1228H55.1573H55.1918H55.2263H55.2608H55.2953H55.3298H55.3643H55.3988H55.4333H55.4678H55.5023H55.5368H55.5713H55.6058H55.6402H55.6747H55.7092H55.7437H55.7782H55.8127H55.8472H55.8817H55.9162H55.9507H55.9852H56.0197H56.0542H56.0887H56.1232H56.1577H56.1922H56.2267H56.2612H56.2957H56.3302H56.3647H56.3992H56.4337H56.4682H56.5027H56.5372H56.5717H56.6062H56.6407H56.6752H56.7097H56.7442H56.7786H56.8131H56.8476H56.8821H56.9166H56.9511H56.9856H57.0201H57.0546H57.0891H57.1236H57.1581H57.1926H57.2271H57.2616H57.2961H57.3306H57.3651H57.3996H57.4341H57.4686H57.5031H57.5376H57.5721H57.6066H57.6411H57.6756H57.71H57.7445H57.779H57.8135H57.848H57.8825H57.917H57.9515H57.986H58.0205H58.055H58.0895H58.124H58.1585H58.193H58.2275H58.262H58.2965H58.331H58.3655H58.4H58.4345H58.469H58.5034H58.5379H58.5724H58.6069H58.6414H58.6759H58.7104H58.7449H58.7794H58.8139H58.8484H58.8829H58.9174H58.9519H58.9864H59.0209H59.0554H59.0899H59.1244H59.1589H59.1933H59.2278H59.2623H59.2968H59.3313H59.3658H59.4003H59.4348H59.4693H59.5038H59.5383H59.5728H59.6073H59.6418H59.6763H59.7108H59.7453H59.7798H59.8142H59.8487H59.8832H59.9177H59.9522H59.9867H60.0212H60.0557H60.0902H60.1247H60.1592H60.1937H60.2282H60.2627H60.2972H60.3317H60.3661H60.4006H60.4351H60.4696H60.5041H60.5386H60.5731H60.6076H60.6421H60.6766H60.7111H60.7112C62.2858 64.6775 63.5656 64.2045 64.4519 63.3235C65.3384 62.4423 65.8143 61.17 65.8143 59.6042V59.5366V59.469V59.4013V59.3337V59.2661V59.1985V59.1309V59.0633V58.9956V58.928V58.8604V58.7928V58.7252V58.6576V58.5899V58.5223V58.4547V58.3871V58.3195V58.2519V58.1842V58.1166V58.049V57.9814V57.9138V57.8462V57.7786V57.7109V57.6433V57.5757V57.5081V57.4405V57.3729V57.3052V57.2376V57.17V57.1024V57.0348V56.9672V56.8995V56.8319V56.7643V56.6967V56.6291V56.5615V56.4938V56.4262V56.3586V56.291V56.2234V56.1558V56.0881V56.0205V55.9529V55.8853V55.8177V55.7501V55.6824V55.6148V55.5472V55.4796V55.412V55.3444V55.2768V55.2091V55.1415V55.0739V55.0063V54.9387V54.8711V54.8034V54.7358V54.6682V54.6006V54.533V54.4654V54.3977V54.3301V54.2625V54.1949V54.1273V54.0597V53.992V53.9244V53.8568V53.7892V53.7216V53.654V53.5863V53.5187V53.4511V53.3835V53.3159V53.2483V53.1807V53.113V53.0454V52.9778V52.9102V52.8426V52.775V52.7073V52.6397V52.5721V52.5045V52.4369V52.3693V52.3016V52.234V52.1664V52.0988V52.0312V51.9636V51.8959V51.8283V51.7607V51.6931V51.6255V51.5579V51.4902V51.4226V51.355V51.2874V51.2198V51.1522V51.0845V51.0169V50.9493V50.8817V50.8141V50.7465V50.6789V50.6112V50.5436V50.476V50.4084V50.3408V50.2732V50.2055V50.1379V50.0703V50.0027V49.9351V49.8675V49.7998V49.7322V49.6646V49.597V49.5294V49.4618V49.3941V49.3265V49.2589V49.1913V49.1237V49.0561V48.9884V48.9208V48.8532V48.7856V48.718V48.6504V48.5828V48.5151V48.4475V48.3799V48.3123V48.2447V48.1771V48.1094V48.0418V47.9742V47.9066V47.839V47.7714V47.7037V47.6361V47.5685V47.5009V47.4333V47.3657V47.298V47.2304V47.1628V47.0952V47.0276V46.96V46.8923V46.8247V46.7571V46.6895V46.6219V46.5543V46.4866V46.419V46.3514V46.2838V46.2162V46.1486V46.081V46.0133V45.9457V45.8781V45.8105V45.7429V45.6753V45.6076V45.54V45.4724V45.4048V45.3372V45.2696V45.2019V45.1343V45.0667V44.9991V44.9315V44.8639V44.7962V44.7286V44.661V44.5934V44.5258V44.4582V44.3905V44.3229V44.2553V44.1877V44.1201V44.0525V43.9848V43.9172V43.8496V43.782V43.7144V43.6468V43.5792V43.5115V43.4439V43.3763V43.3087V43.2411V43.1735V43.1058V43.0382V42.9706V42.903V42.8354V42.7678V42.7001V42.6325V42.5649V42.4973V42.4297V42.3621V42.2944V42.2268V42.1592V42.0916V42.024V41.9564V41.8888V41.8211V41.7535V41.6859V41.6183V41.5507V41.4831V41.4154V41.3478V41.2802V41.2126V41.145V41.0774V41.0097V40.9421V40.8745V40.8069V40.7393V40.6717V40.604V40.5364V40.4688V40.4012V40.3336V40.266V40.1983V40.1307V40.0631V39.9955V39.9279V39.8603V39.7926V39.725V39.6574V39.5898V39.5222V39.4546V39.387V39.3193V39.2517V39.1841V39.1165V39.0489V38.9813V38.9136V38.846V38.7784V38.7108V38.6432V38.5756V38.5079V38.4403V38.3727V38.3051V38.2375V38.1699V38.1022V38.0346V37.967V37.8994V37.8318V37.7642V37.6965V37.6289V37.5613V37.4937V37.4261V37.3585V37.2908V37.2232V37.1556V37.088V37.0204V36.9528V36.8852V36.8175V36.7499V36.6823V36.6147V36.5471V36.4795V36.4118V36.3442V36.2766V36.209V36.1414V36.0738V36.0061V35.9385V35.8709V35.8033V35.7357V35.6681V35.6004V35.5328V35.4652V35.3976V35.33V35.2624V35.1947V35.1271V35.0595V34.9919V34.9243V34.8567V34.7891V34.7214V34.6538V34.5862V34.5186V34.451V34.3834V34.3157V34.2481V34.1805V34.1129V34.0453V33.9777V33.91V33.8424V33.7748V33.7072V33.6396V33.572V33.5043V33.4367V33.3691V33.3015V33.2339V33.1663V33.0986V33.031V32.9634V32.8958V32.8282V32.7606V32.6929V32.6253V32.5577V32.4901V32.4225V32.3549V32.2873V32.2196V32.152V32.0844V32.0168V31.9492V31.8816V31.8139V31.7463V31.6787V31.6111V31.5435V31.4759V31.4082V31.3406V31.273V31.2054V31.1378V31.0702V31.0025V30.9349V30.8673V30.7997V30.7321V30.6645V30.5968V30.5292V30.4616V30.394V30.3264V30.2588V30.1912V30.1235V30.0559V29.9883V29.9207V29.8531V29.7855V29.7178V29.6502V29.5826V29.515V29.4474V29.3798V29.3121V29.2445V29.1769V29.1093V29.0417V28.9741V28.9064V28.8388V28.7712V28.7036V28.636V28.5684V28.5007V28.4331V28.3655V28.2979V28.2303V28.1627V28.095V28.0274V27.9598V27.8922V27.8246V27.757V27.6894V27.6217V27.5541V27.4865V27.4189V27.3513V27.2837V27.216V27.1484V27.0808V27.0132V26.9456V26.878V26.8103V26.7427V26.6751V26.6075V26.5399V26.4723V26.4046V26.337V26.2694V26.2018V26.1342V26.0666V25.9989V25.9313V25.8637V25.7961V25.7285V25.6609V25.5932V25.5256V25.458V25.3904V25.3228V25.2552V25.1876V25.1199V25.0523V24.9847C65.8143 23.3975 65.3414 22.1139 64.453 21.2266C63.5647 20.3394 62.2787 19.8662 60.6873 19.8644L60.6873 19.8644C58.4262 19.8633 56.1652 19.8637 53.9042 19.8641C52.7737 19.8642 51.6432 19.8644 50.5128 19.8644C49.8303 19.8644 49.1479 19.8639 48.4654 19.8633C46.759 19.8619 45.0525 19.8605 43.3453 19.8679L43.4106 64.6784ZM41.9434 59.2037L41.9434 59.2034C41.9613 58.9331 41.9263 58.7775 41.8493 58.6713C41.7714 58.5637 41.6292 58.4772 41.3595 58.398C38.568 57.5801 36.7982 54.8494 37.2064 51.9827C37.3873 50.7056 37.8473 49.6456 38.576 48.8104C39.3045 47.9755 40.2944 47.3736 41.5221 47.0009L41.5222 47.0008C41.7187 46.9413 41.814 46.8806 41.8654 46.8118C41.9156 46.7445 41.9436 46.6428 41.938 46.4507C41.9106 45.5111 41.9072 44.5675 41.938 43.6268L41.938 43.6264C41.9465 43.3862 41.9172 43.2707 41.8654 43.2105C41.8191 43.1567 41.7192 43.1086 41.4624 43.116L41.4622 43.116C40.4215 43.1443 39.3792 43.1376 38.3396 43.131C38.0565 43.1292 37.7735 43.1274 37.4909 43.1263C36.9622 43.1246 36.5781 43.0677 36.3217 42.8366C36.0649 42.6051 35.9724 42.2316 35.9204 41.7147C35.7213 39.7459 34.1613 38.3127 32.271 38.3438L32.2709 38.3438C30.3917 38.3733 28.8818 39.8094 28.7108 41.7435C28.7108 41.7435 28.7108 41.7435 28.7108 41.7436L28.5614 41.7303L41.9434 59.2037ZM41.9434 59.2037C41.8884 60.0597 41.8849 60.9249 41.9434 61.7804C41.9641 62.0816 41.9103 62.1971 41.8449 62.2519C41.7681 62.3161 41.6235 62.3464 41.3402 62.3438C39.3475 62.3238 37.3555 62.3268 35.364 62.3297C34.6473 62.3308 33.9307 62.3319 33.2142 62.3319H33.2125C32.3378 62.3319 31.4634 62.3323 30.5891 62.3327C28.8409 62.3334 27.093 62.3342 25.3443 62.3319C24.4803 62.3302 23.826 62.0903 23.3876 61.6567C22.9496 61.2234 22.7068 60.5764 22.7068 59.7185V59.7184C22.7051 57.987 22.7054 56.2555 22.7057 54.5238C22.7064 50.9028 22.707 47.2813 22.6897 43.66L22.6897 43.6599C22.688 43.3669 22.7396 43.2519 22.8022 43.1978C22.8705 43.1389 22.9983 43.1091 23.268 43.116L41.9434 59.2037ZM53.9367 45.6629C55.8961 45.6134 57.4596 44.1284 57.6064 42.1758C57.6763 41.2405 57.9904 40.9401 58.9394 40.9333C59.1632 40.9318 59.3871 40.9301 59.6109 40.9283C60.7304 40.9196 61.8498 40.9108 62.9692 40.9435C63.5154 40.9606 63.6332 40.7865 63.6315 40.2642M53.9367 45.6629L53.933 45.5129M53.9367 45.6629L53.9329 45.5129C53.9329 45.5129 53.933 45.5129 53.933 45.5129M53.9367 45.6629C52.0097 45.7107 50.3694 44.2599 50.1458 42.3107M53.933 45.5129C55.8156 45.4653 57.3158 44.0402 57.4568 42.1646C57.4924 41.689 57.5915 41.3303 57.8407 41.0969C58.0899 40.8634 58.4556 40.7867 58.9383 40.7833L58.9384 40.7833C59.1619 40.7818 59.3854 40.7801 59.6091 40.7783C60.7285 40.7696 61.8512 40.7608 62.9736 40.7936L62.9739 40.7936C63.2424 40.802 63.346 40.7586 63.3951 40.7049C63.4492 40.6457 63.4823 40.5282 63.4815 40.2648M53.933 45.5129C52.0858 45.5587 50.5099 44.1678 50.2949 42.2936M63.4815 40.2648L63.6315 40.2642M63.4815 40.2648C63.4656 36.3279 63.4671 32.3899 63.4686 28.4528C63.4691 27.2944 63.4695 26.1361 63.4695 24.9779C63.4695 24.0208 63.2387 23.3385 62.7977 22.8941C62.3568 22.4499 61.6795 22.2169 60.728 22.216H60.728C58.994 22.2138 57.2601 22.2145 55.526 22.2153C54.6589 22.2157 53.7918 22.216 52.9246 22.216H52.8625L52.8608 22.2143M63.4815 40.2648C63.4815 40.2647 63.4815 40.2647 63.4815 40.2647L63.6315 40.2642M63.6315 40.2642C63.6156 36.3275 63.6171 32.3897 63.6186 28.4525C63.6191 27.2942 63.6195 26.136 63.6195 24.9779L52.8608 22.2143M52.8608 22.2143C52.8815 22.2143 52.9021 22.2143 52.9228 22.2143V22.0677V22.0643L52.8168 22.1704L52.8185 22.1721L52.8608 22.2143ZM52.8608 22.2143C52.1994 22.2144 51.538 22.215 50.8765 22.2156C48.8295 22.2175 46.7817 22.2195 44.7341 22.2041C44.5002 22.2024 44.3957 22.2327 44.3438 22.2793C44.2982 22.3201 44.2564 22.4092 44.2655 22.6492L44.2655 22.6493C44.3033 23.6541 44.2912 24.6613 44.269 25.6639M52.8608 22.2143L44.269 25.6639M44.5509 26.2273C47.2238 27.0431 48.8845 29.1869 48.8947 31.8018C48.905 34.4507 47.246 36.6099 44.5423 37.4326C44.2181 37.5316 44.1105 37.6783 44.1191 38.0095C44.1412 38.798 44.1515 39.5883 44.1173 40.3751C44.0969 40.8428 44.2812 40.9469 44.7096 40.9384C45.7501 40.9206 46.7907 40.9247 47.8312 40.9288C48.0913 40.9298 48.3513 40.9309 48.6114 40.9315C49.7925 40.9333 50.011 41.1312 50.1458 42.3107M44.5509 26.2273L44.5948 26.0839M44.5509 26.2273L44.5947 26.0838C44.5947 26.0838 44.5948 26.0838 44.5948 26.0839M44.5509 26.2273C44.2334 26.13 44.1122 26.0003 44.1191 25.6606M44.5948 26.0839C47.3252 26.9173 49.0342 29.1152 49.0447 31.8012C49.0553 34.5216 47.3479 36.7356 44.5861 37.576M44.5948 26.0839C44.4445 26.0378 44.3711 25.9922 44.3308 25.9415C44.2929 25.8938 44.266 25.8177 44.269 25.6639M44.5861 37.576L44.5424 37.4329L44.586 37.5761C44.5861 37.5761 44.5861 37.576 44.5861 37.576ZM44.5861 37.576C44.4361 37.6218 44.365 37.6706 44.3268 37.7227C44.2892 37.7741 44.2651 37.8539 44.269 38.0054M44.269 38.0054C44.269 38.0054 44.269 38.0053 44.269 38.0053L44.1195 38.0095L44.269 38.0056C44.269 38.0056 44.269 38.0055 44.269 38.0054ZM44.269 38.0054C44.2912 38.7951 44.3016 39.5895 44.2672 40.3816L44.2672 40.3817C44.2575 40.6038 44.3004 40.685 44.3429 40.7216C44.3933 40.7648 44.4933 40.7927 44.7066 40.7884L44.7071 40.7884C45.7493 40.7706 46.7918 40.7747 47.8325 40.7788C48.0924 40.7798 48.3522 40.7809 48.6118 40.7815M48.6118 40.7815C48.6117 40.7815 48.6117 40.7815 48.6116 40.7815L48.6114 40.9307L48.6118 40.7815ZM48.6118 40.7815C48.9092 40.782 49.1561 40.7946 49.3595 40.8347C49.5648 40.8752 49.7353 40.9456 49.8713 41.068C50.0073 41.1903 50.0955 41.3526 50.1584 41.5529C50.2208 41.7515 50.2609 41.9967 50.2949 42.2936M50.2949 42.2936L50.1458 42.3107M50.2949 42.2936C50.2949 42.2936 50.2949 42.2936 50.2949 42.2936L50.1458 42.3107M44.269 25.6639L44.1191 25.6606M44.269 25.6639C44.269 25.6638 44.269 25.6637 44.269 25.6636L44.1191 25.6606M44.269 25.6639L44.1191 25.6606M43.0079 49.1146C43.4305 49.0664 43.7568 48.959 43.9737 48.7251C44.1914 48.4903 44.2714 48.1579 44.2759 47.7282C44.2895 46.5552 44.2964 45.3806 44.2707 44.2054L44.2707 44.2051C44.2656 43.9889 44.2949 43.8931 44.3369 43.8461C44.3741 43.8045 44.4566 43.764 44.679 43.7714L44.6792 43.7714C45.6833 43.804 46.6902 43.792 47.692 43.7766L47.6921 43.7766C47.844 43.7742 47.9232 43.7973 47.9744 43.8348C48.0256 43.8724 48.0751 43.9439 48.121 44.1006L48.121 44.1007C48.9168 46.8126 51.1483 48.5469 53.8354 48.5574C56.5551 48.5679 58.806 46.8442 59.6208 44.1012L59.6211 44.1004C59.6679 43.9398 59.7149 43.8685 59.7632 43.8315C59.8099 43.7958 59.8839 43.7725 60.0361 43.7749C61.0615 43.792 62.0858 43.7954 63.1122 43.7749C63.2983 43.7715 63.3732 43.7954 63.4088 43.8263C63.4392 43.8528 63.4763 43.9176 63.4763 44.1161C63.4701 46.5571 63.4699 48.9968 63.4698 51.4362C63.4696 54.3058 63.4694 57.175 63.4593 60.0457C63.4545 61.3755 62.4353 62.3236 61.0212 62.3285C59.0881 62.3358 57.1543 62.3344 55.2198 62.333C54.4457 62.3325 53.6715 62.3319 52.8972 62.3319L52.8968 62.3336C52.1429 62.3336 51.3889 62.3339 50.6349 62.3342C48.7456 62.3349 46.8562 62.3356 44.9676 62.3319C44.8448 62.3317 44.7461 62.3336 44.6628 62.3352C44.5778 62.3369 44.5089 62.3382 44.4468 62.3367C44.3298 62.3337 44.3085 62.3185 44.3072 62.3175C44.3062 62.3162 44.289 62.2937 44.2836 62.1671C44.2805 62.0946 44.2812 62.0077 44.282 61.8968C44.2826 61.8168 44.2833 61.7243 44.2827 61.6158C44.2793 60.9865 44.2801 60.3576 44.281 59.7284V59.7269C44.2819 59.0983 44.2827 58.4693 44.2793 57.8403C44.2767 57.3402 44.2015 56.9645 43.9633 56.7103C43.7252 56.4562 43.3563 56.358 42.8634 56.3226L42.8632 56.3226C40.9978 56.1898 39.552 54.6872 39.4847 52.8108C39.421 51.0309 40.7612 49.4443 42.5694 49.1719L42.5695 49.1719C42.7139 49.1501 42.8605 49.1315 43.0079 49.1146ZM43.0079 49.1146L42.9908 48.9656L43.008 49.1146C43.0079 49.1146 43.0079 49.1146 43.0079 49.1146ZM42.2151 35.8204C41.9953 36.063 41.932 36.418 41.9294 36.8923L41.9311 21.2496C41.9209 23.1259 41.9209 25.0038 41.9311 26.8818L41.9311 26.8819C41.9338 27.2963 42.0168 27.6213 42.2326 27.8498C42.4476 28.0775 42.7674 28.1804 43.1738 28.2166L43.1739 28.2166C45.2167 28.3982 46.6592 29.9015 46.6624 31.8225C46.6657 33.7142 45.2418 35.2321 43.2454 35.4348L43.2453 35.4348C42.7804 35.4822 42.4351 35.5777 42.2151 35.8204ZM42.0879 43.6317C42.105 43.1504 41.9906 42.9507 41.4581 42.9661L42.0879 43.6317ZM36.0697 41.6996C35.8632 39.6583 34.2417 38.1614 32.2686 38.1938L37.4915 42.9763C36.4315 42.9729 36.1738 42.7357 36.0697 41.6996Z" fill="black" stroke="black" stroke-width="0.3"/>
<path d="M15.0545 32.8512C16.0001 32.8461 16.3073 32.5423 16.3807 31.6018C16.4746 30.3985 17.0225 29.4427 18.0158 28.7702C20.3764 27.1743 23.5152 28.6422 23.8412 31.479M15.0545 32.8512L8.17107 31.5268C8.17108 32.0215 8.25526 32.4025 8.50167 32.6553C8.7489 32.909 9.12489 32.9986 9.61575 33.0012H9.61584C11.429 33.0098 13.2421 33.0098 15.0552 33.0012H15.0553C15.5367 32.9986 15.9004 32.9215 16.148 32.686C16.3948 32.4513 16.493 32.0909 16.5302 31.6135C16.6206 30.4549 17.1451 29.5408 18.0999 28.8944M15.0545 32.8512C13.2418 32.8598 11.4292 32.8598 9.61655 32.8512H15.0545ZM23.8412 31.479L23.6922 31.496M23.8412 31.479L23.6922 31.4961C23.6922 31.496 23.6922 31.496 23.6922 31.496M23.8412 31.479C23.9743 32.6464 24.2014 32.8529 25.3808 32.8529M23.6922 31.496C23.3787 28.7692 20.3655 27.3628 18.0999 28.8944M23.6922 31.496C23.7257 31.7901 23.7661 32.0338 23.8291 32.2317C23.8927 32.4313 23.982 32.5933 24.1186 32.7155C24.3878 32.9564 24.798 33.0029 25.3806 33.0029M18.0999 28.8944L18.0162 28.7708L18.0998 28.8945C18.0999 28.8945 18.0999 28.8945 18.0999 28.8944ZM25.3806 33.0029L25.3808 32.8529M25.3806 33.0029C25.7298 33.0033 26.0791 33.0038 26.4284 33.0042C27.8274 33.0062 29.2276 33.0081 30.6266 33.0012H30.6267C31.1069 32.9986 31.4763 32.9125 31.721 32.6689C31.9659 32.425 32.0516 32.0576 32.0542 31.5823M25.3806 33.0029C25.3807 33.0029 25.3807 33.0029 25.3808 33.0029V32.8529M25.3808 32.8529C25.7301 32.8533 26.0795 32.8538 26.429 32.8542L32.0542 31.5823M32.0542 31.5823C32.0628 30.1534 32.0662 28.7238 32.0508 27.2939M32.0542 31.5823L30.5303 9.1027C31.0608 9.10271 31.459 9.18184 31.7171 9.43867C31.9753 9.69557 32.0559 10.093 32.0577 10.6227M32.0542 31.5823L31.9042 31.5814M32.0542 31.5823L31.9042 31.5814M32.0508 27.2939C32.0492 27.1275 32.0664 27.0333 32.1057 26.9692C32.1415 26.9109 32.2115 26.8528 32.3805 26.8027M32.0508 27.2939L31.9008 27.2955M32.0508 27.2939C32.0508 27.294 32.0508 27.294 32.0508 27.294L31.9008 27.2955M32.3805 26.8027C35.1278 25.9915 36.8696 23.7377 36.8555 21.0358C36.8415 18.3495 35.1046 16.1006 32.4059 15.3097M32.3805 26.8027L32.3378 26.6589M32.3805 26.8027C32.3804 26.8027 32.3803 26.8027 32.3803 26.8027L32.3378 26.6589M32.4059 15.3097C32.2358 15.2595 32.1571 15.2088 32.1151 15.1536C32.0741 15.0998 32.0484 15.0156 32.0508 14.8481L32.0508 14.848C32.0684 13.527 32.0635 12.2077 32.0586 10.8885C32.0583 10.7999 32.058 10.7113 32.0577 10.6227M32.4059 15.3097C32.4058 15.3097 32.4057 15.3097 32.4056 15.3096L32.3634 15.4536L32.4059 15.3097ZM32.0577 10.6227L31.9077 10.6233L32.0577 10.6228C32.0577 10.6228 32.0577 10.6228 32.0577 10.6227ZM32.3378 26.6589C31.964 26.7698 31.8974 26.9542 31.9008 27.2955M32.3378 26.6589L32.0542 31.5822L31.9042 31.5814M31.9008 27.2955C31.9162 28.7241 31.9128 30.1528 31.9042 31.5814M12.9353 11.4509C14.8468 11.4425 16.7573 11.4442 18.6686 11.446C19.4647 11.4467 20.2609 11.4475 21.0574 11.4475L12.9353 11.4509ZM12.9353 11.4509C11.56 11.4574 10.5377 12.4042 10.5329 13.6995C10.5209 16.9605 10.5206 20.2214 10.5204 23.4826C10.5202 25.7656 10.5201 28.0488 10.5158 30.3321M12.9353 11.4509L10.5158 30.3321M10.5158 30.3321C10.5159 30.5072 10.5445 30.5741 10.5729 30.6036C10.599 30.6308 10.6598 30.6615 10.8324 30.6582C11.8358 30.6394 12.8416 30.636 13.8445 30.6599L13.8448 30.6599C14.0359 30.6648 14.1405 30.6396 14.2107 30.5902C14.2801 30.5412 14.3432 30.449 14.402 30.2518C15.1817 27.619 17.4891 25.8957 20.1452 25.9132H20.1453C22.8264 25.9325 25.0746 27.6421 25.8591 30.2928L25.8592 30.2931C25.9094 30.4638 25.9612 30.5465 26.0185 30.5912C26.0735 30.6342 26.1584 30.6613 26.3235 30.6582L26.3238 30.6582C27.3266 30.6411 28.3326 30.6342 29.3359 30.6599C29.5389 30.6648 29.6179 30.6287 29.6541 30.5907C29.6925 30.5503 29.7239 30.4657 29.7197 30.2651L29.7197 30.2646C29.7036 29.3521 29.7064 28.4388 29.7091 27.5274C29.7101 27.1807 29.7112 26.8342 29.7112 26.4882C29.7112 26.1459 29.7195 25.8687 29.7552 25.6454C29.7912 25.4205 29.8569 25.236 29.9821 25.0897C30.1075 24.9431 30.2787 24.8509 30.4936 24.7831C30.7068 24.7159 30.9762 24.6687 31.3095 24.621C33.2092 24.3484 34.4983 22.8196 34.4409 20.9114C34.3835 19.0749 32.9584 17.6012 31.0922 17.4568C30.6196 17.4202 30.2617 17.3175 30.028 17.0668C29.7942 16.8161 29.7155 16.4504 29.7129 15.9698C29.7114 15.6958 29.7092 15.4214 29.7069 15.1466C29.6984 14.1203 29.6898 13.0898 29.7249 12.0621L29.7249 12.0621C29.7352 11.7613 29.7006 11.6211 29.6338 11.5473C29.5701 11.4771 29.4379 11.4262 29.1191 11.4304C29.1191 11.4304 29.119 11.4304 29.119 11.4304L29.117 11.2804C27.1538 11.3103 25.1905 11.3056 23.2273 11.3009L10.5158 30.3321ZM27.6188 9.10176C28.5893 9.10209 29.5597 9.10242 30.5303 9.1027L27.6188 9.10176ZM27.6188 9.10176C22.7678 9.1001 17.9175 9.09844 13.0659 9.1027L27.6188 9.10176ZM8.17069 25.5562C8.17031 27.5463 8.16993 29.5366 8.17107 31.5267L13.0659 9.1027C11.6212 9.10359 10.3969 9.59705 9.53287 10.4613C8.66883 11.3256 8.1754 12.5502 8.17278 13.994C8.16936 15.899 8.1705 17.8041 8.17164 19.709C8.1722 20.6533 8.17277 21.5975 8.17278 22.5416L8.17107 22.5467V22.571C8.17107 23.5661 8.17088 24.5611 8.17069 25.5562Z" fill="black" stroke="black" stroke-width="0.3"/>
</g>
</svg>
