<svg width="56" height="53" viewBox="0 0 56 53" fill="none" xmlns="http://www.w3.org/2000/svg">
<mask id="mask0_7187_15648" style="mask-type:alpha" maskUnits="userSpaceOnUse" x="0" y="0" width="56" height="53">
<rect width="56" height="53" fill="#D9D9D9"/>
</mask>
<g mask="url(#mask0_7187_15648)">
<path d="M18.7608 27.3058V26.8228H19.1843C19.2799 26.8228 19.3523 26.7995 19.4013 26.7528C19.4526 26.7061 19.4783 26.6443 19.4783 26.5673C19.4783 26.4903 19.4526 26.4285 19.4013 26.3818C19.3523 26.3351 19.2799 26.3118 19.1843 26.3118H18.7608V25.8078H19.2963C19.4689 25.8078 19.6206 25.8393 19.7513 25.9023C19.8819 25.9653 19.9846 26.0528 20.0593 26.1648C20.1339 26.2768 20.1713 26.4075 20.1713 26.5568C20.1713 26.7061 20.1328 26.8368 20.0558 26.9488C19.9811 27.0608 19.8761 27.1483 19.7408 27.2113C19.6054 27.2743 19.4456 27.3058 19.2613 27.3058H18.7608ZM18.1938 28.2998V25.8078H18.8938V28.2998H18.1938ZM19.5378 28.2998L18.8588 27.2358L19.4888 27.0993L20.3323 28.2998H19.5378ZM21.8377 28.2998V25.8078H22.5377V28.2998H21.8377ZM22.4047 28.2998V27.7188H23.7417V28.2998H22.4047ZM22.4047 27.3128V26.7458H23.6122V27.3128H22.4047ZM22.4047 26.3888V25.8078H23.7207V26.3888H22.4047ZM25.9701 28.2998V27.7958H26.4286C26.5172 27.7958 26.5884 27.7725 26.6421 27.7258C26.6957 27.6768 26.7226 27.6103 26.7226 27.5263C26.7226 27.4703 26.7097 27.4225 26.6841 27.3828C26.6607 27.3408 26.6269 27.3093 26.5826 27.2883C26.5406 27.2673 26.4892 27.2568 26.4286 27.2568H25.9701V26.7738H26.3971C26.4717 26.7738 26.5336 26.7551 26.5826 26.7178C26.6316 26.6805 26.6561 26.6221 26.6561 26.5428C26.6561 26.4635 26.6316 26.4051 26.5826 26.3678C26.5336 26.3305 26.4717 26.3118 26.3971 26.3118H25.9701V25.8078H26.5931C26.7447 25.8078 26.8766 25.837 26.9886 25.8953C27.1029 25.9513 27.1916 26.0295 27.2546 26.1298C27.3176 26.2278 27.3491 26.341 27.3491 26.4693C27.3491 26.6466 27.2861 26.7913 27.1601 26.9033C27.0341 27.0153 26.8497 27.0795 26.6071 27.0958L26.6001 26.8543C26.8637 26.8706 27.0656 26.943 27.2056 27.0713C27.3456 27.1996 27.4156 27.3641 27.4156 27.5648C27.4156 27.7095 27.3794 27.8378 27.3071 27.9498C27.2347 28.0595 27.1332 28.1458 27.0026 28.2088C26.8742 28.2695 26.7237 28.2998 26.5511 28.2998H25.9701ZM25.4031 28.2998V25.8078H26.0891V28.2998H25.4031ZM28.8547 28.2998L29.8032 25.8078H30.5172L31.4552 28.2998H30.7272L30.0307 26.1823H30.2827L29.5687 28.2998H28.8547ZM29.4707 27.8798V27.3338H30.8637V27.8798H29.4707ZM33.7558 28.3418C33.5434 28.3418 33.3579 28.3115 33.1993 28.2508C33.0429 28.1878 32.8983 28.0886 32.7653 27.9533L33.2028 27.5158C33.2938 27.6021 33.3894 27.6686 33.4898 27.7153C33.5901 27.7596 33.6974 27.7818 33.8118 27.7818C33.9074 27.7818 33.9798 27.7678 34.0288 27.7398C34.0778 27.7095 34.1023 27.6686 34.1023 27.6173C34.1023 27.566 34.0813 27.524 34.0393 27.4913C33.9973 27.4563 33.9413 27.426 33.8713 27.4003C33.8036 27.3723 33.7278 27.3443 33.6438 27.3163C33.5621 27.2883 33.4804 27.2545 33.3988 27.2148C33.3171 27.1751 33.2413 27.1273 33.1713 27.0713C33.1036 27.013 33.0488 26.9418 33.0068 26.8578C32.9648 26.7715 32.9438 26.6665 32.9438 26.5428C32.9438 26.3818 32.9823 26.243 33.0593 26.1263C33.1363 26.0096 33.2448 25.921 33.3848 25.8603C33.5248 25.7973 33.6893 25.7658 33.8783 25.7658C34.0649 25.7658 34.2376 25.7961 34.3963 25.8568C34.5573 25.9151 34.6903 25.9991 34.7953 26.1088L34.3543 26.5463C34.2773 26.4716 34.2003 26.4168 34.1233 26.3818C34.0463 26.3445 33.9623 26.3258 33.8713 26.3258C33.7989 26.3258 33.7406 26.3375 33.6963 26.3608C33.6543 26.3841 33.6333 26.4191 33.6333 26.4658C33.6333 26.5148 33.6543 26.5556 33.6963 26.5883C33.7383 26.6186 33.7931 26.6466 33.8608 26.6723C33.9308 26.698 34.0066 26.7248 34.0883 26.7528C34.1723 26.7808 34.2551 26.8146 34.3368 26.8543C34.4184 26.8916 34.4931 26.9406 34.5608 27.0013C34.6308 27.0596 34.6868 27.1331 34.7288 27.2218C34.7708 27.3105 34.7918 27.4178 34.7918 27.5438C34.7918 27.7981 34.7008 27.9953 34.5188 28.1353C34.3391 28.273 34.0848 28.3418 33.7558 28.3418ZM37.1571 28.3418C36.9447 28.3418 36.7592 28.3115 36.6006 28.2508C36.4442 28.1878 36.2996 28.0886 36.1666 27.9533L36.6041 27.5158C36.6951 27.6021 36.7907 27.6686 36.8911 27.7153C36.9914 27.7596 37.0987 27.7818 37.2131 27.7818C37.3087 27.7818 37.3811 27.7678 37.4301 27.7398C37.4791 27.7095 37.5036 27.6686 37.5036 27.6173C37.5036 27.566 37.4826 27.524 37.4406 27.4913C37.3986 27.4563 37.3426 27.426 37.2726 27.4003C37.2049 27.3723 37.1291 27.3443 37.0451 27.3163C36.9634 27.2883 36.8817 27.2545 36.8001 27.2148C36.7184 27.1751 36.6426 27.1273 36.5726 27.0713C36.5049 27.013 36.4501 26.9418 36.4081 26.8578C36.3661 26.7715 36.3451 26.6665 36.3451 26.5428C36.3451 26.3818 36.3836 26.243 36.4606 26.1263C36.5376 26.0096 36.6461 25.921 36.7861 25.8603C36.9261 25.7973 37.0906 25.7658 37.2796 25.7658C37.4662 25.7658 37.6389 25.7961 37.7976 25.8568C37.9586 25.9151 38.0916 25.9991 38.1966 26.1088L37.7556 26.5463C37.6786 26.4716 37.6016 26.4168 37.5246 26.3818C37.4476 26.3445 37.3636 26.3258 37.2726 26.3258C37.2002 26.3258 37.1419 26.3375 37.0976 26.3608C37.0556 26.3841 37.0346 26.4191 37.0346 26.4658C37.0346 26.5148 37.0556 26.5556 37.0976 26.5883C37.1396 26.6186 37.1944 26.6466 37.2621 26.6723C37.3321 26.698 37.4079 26.7248 37.4896 26.7528C37.5736 26.7808 37.6564 26.8146 37.7381 26.8543C37.8197 26.8916 37.8944 26.9406 37.9621 27.0013C38.0321 27.0596 38.0881 27.1331 38.1301 27.2218C38.1721 27.3105 38.1931 27.4178 38.1931 27.5438C38.1931 27.7981 38.1021 27.9953 37.9201 28.1353C37.7404 28.273 37.4861 28.3418 37.1571 28.3418Z" fill="black"/>
<path d="M52.5297 26.5147C52.5458 40.3298 41.3657 51.5418 27.5589 51.5579C13.752 51.574 2.54585 40.3881 2.52974 26.573C2.51364 12.7579 13.6937 1.54594 27.5006 1.52984C41.3074 1.51375 52.5136 12.6996 52.5297 26.5147Z" stroke="black"/>
<path d="M39.3162 28.9423C38.1203 34.3573 35.7352 38.9472 32.8716 41.9944C29.9996 45.0506 26.719 46.4899 23.6927 45.8216C20.6665 45.1533 18.2971 42.4662 16.9793 38.4847C15.6653 34.5149 15.435 29.3475 16.6309 23.9324C17.8267 18.5174 20.2118 13.9275 23.0754 10.8803C25.9474 7.82412 29.2281 6.3848 32.2543 7.05311C35.2806 7.72142 37.65 10.4085 38.9678 14.39C40.2817 18.3598 40.512 23.5272 39.3162 28.9423Z" stroke="black"/>
<path d="M25.6181 38.1609C20.0407 37.0857 15.269 34.8017 12.06 32.004C8.83994 29.1967 7.26715 25.9481 7.85237 22.9126C8.43758 19.877 11.1053 17.446 15.1382 16.037C19.1574 14.6327 24.4362 14.2863 30.0135 15.3616C35.5908 16.4368 40.3625 18.7208 43.5716 21.5186C46.7916 24.3258 48.3644 27.5744 47.7792 30.61C47.194 33.6455 44.5262 36.0766 40.4933 37.4856C36.4742 38.8898 31.1954 39.2362 25.6181 38.1609Z" stroke="black"/>
</g>
</svg>
