<svg width="175" height="120" viewBox="0 0 175 120" fill="none" xmlns="http://www.w3.org/2000/svg">
<mask id="mask0_6857_57010" style="mask-type:alpha" maskUnits="userSpaceOnUse" x="0" y="0" width="175" height="120">
<rect width="175" height="120" fill="#D9D9D9"/>
</mask>
<g mask="url(#mask0_6857_57010)">
</g>
<g clip-path="url(#clip0_6857_57010)">
<path d="M115.138 73.9327C111.909 75.6158 95.1812 82.4938 91.6199 84.3504C88.0587 86.2073 86.0803 86.1893 83.2669 84.8444C80.4537 83.4995 62.6522 76.3088 59.4454 74.776C57.8429 74.0102 57 73.3635 57 72.7528V66.6366C57 66.6366 80.1755 61.5914 83.9169 60.2491C87.658 58.9068 88.9561 58.8584 92.1399 60.0246C95.3242 61.1913 114.362 64.6261 117.509 65.7786L117.508 71.8082C117.508 72.4129 116.782 73.0761 115.138 73.9327Z" fill="#912626"/>
<path d="M115.137 67.8518C111.908 69.5342 95.1807 76.4124 91.6194 78.2688C88.0584 80.1259 86.08 80.1077 83.2668 78.7628C80.4534 77.4188 62.6526 70.227 59.4461 68.6951C56.2396 67.1623 56.1724 66.1074 59.3222 64.8741C62.472 63.6402 80.1752 56.6947 83.917 55.3524C87.6582 54.0106 88.9561 53.9616 92.1399 55.1283C95.3239 56.2945 111.952 62.913 115.098 64.0652C118.245 65.2189 118.366 66.1689 115.137 67.8518Z" fill="#C6302B"/>
<path d="M115.138 64.0361C111.909 65.7194 95.1812 72.5971 91.6199 74.4545C88.0587 76.3107 86.0803 76.2927 83.2669 74.9478C80.4534 73.6036 62.6522 66.4122 59.4454 64.8794C57.8429 64.1136 57 63.4678 57 62.8568V56.74C57 56.74 80.1755 51.695 83.9169 50.3527C87.658 49.0104 88.9561 48.9617 92.1399 50.1282C95.3245 51.2946 114.363 54.7288 117.509 55.8815L117.508 61.9119C117.508 62.5162 116.782 63.1795 115.138 64.0361Z" fill="#912626"/>
<path d="M115.137 57.9552C111.908 59.6381 95.1807 66.5158 91.6194 68.3729C88.0584 70.2293 86.08 70.2111 83.2668 68.8662C80.4534 67.5222 62.6526 60.3306 59.4461 58.7985C56.2396 57.2662 56.1724 56.211 59.3222 54.9772C62.472 53.7441 80.1754 46.7981 83.917 45.456C87.6582 44.114 88.9561 44.0653 92.1399 45.2317C95.3239 46.3979 111.952 53.0159 115.098 54.1686C118.245 55.3221 118.366 56.2723 115.137 57.9552Z" fill="#C6302B"/>
<path d="M115.138 53.7719C111.909 55.4548 95.1812 62.333 91.6199 64.1903C88.0587 66.0467 86.0803 66.0285 83.2669 64.6836C80.4534 63.3394 62.6522 56.1478 59.4454 54.6157C57.8429 53.8492 57 53.2032 57 52.5929V46.4758C57 46.4758 80.1755 41.4311 83.9169 40.089C87.658 38.7465 88.9561 38.6983 92.1399 39.8645C95.3245 41.031 114.363 44.4651 117.509 45.6178L117.508 51.6479C117.508 52.2518 116.782 52.9151 115.138 53.7719Z" fill="#912626"/>
<path d="M115.137 47.6932C111.908 49.3761 95.1806 56.2543 91.6193 58.1107C88.0582 59.9671 86.0799 59.9489 83.2667 58.6047C80.4535 57.2598 62.6525 50.0686 59.4462 48.5363C56.2394 47.0042 56.1726 45.9488 59.3221 44.7152C62.4719 43.4819 80.1753 36.5368 83.9169 35.1943C87.6581 33.852 88.956 33.8037 92.1398 34.9702C95.3238 36.1366 111.952 42.7546 115.098 43.9073C118.245 45.0598 118.366 46.0103 115.137 47.6932Z" fill="#C6302B"/>
<path d="M94.6486 41.7427L89.4463 42.2828L88.2817 45.0851L86.4007 41.958L80.3935 41.4181L84.8759 39.8017L83.531 37.3203L87.7277 38.9616L91.6839 37.6663L90.6146 40.2321L94.6486 41.7427ZM87.9711 55.3378L78.262 51.3109L92.1744 49.1754L87.9711 55.3378ZM74.5102 43.3003C78.617 43.3003 81.9462 44.5909 81.9462 46.1825C81.9462 47.7747 78.617 49.065 74.5102 49.065C70.4034 49.065 67.0742 47.7744 67.0742 46.1825C67.0742 44.5909 70.4034 43.3003 74.5102 43.3003Z" fill="white"/>
<path d="M100.797 42.508L109.031 45.7618L100.804 49.0125L100.797 42.508Z" fill="#621B1C"/>
<path d="M91.6875 46.1112L100.797 42.5078L100.804 49.0123L99.9108 49.3616L91.6875 46.1112Z" fill="#9A2928"/>
</g>
<defs>
<clipPath id="clip0_6857_57010">
<rect width="60.5214" height="52" fill="white" transform="translate(57 34)"/>
</clipPath>
</defs>
</svg>
