<svg width="56" height="53" viewBox="0 0 56 53" fill="none" xmlns="http://www.w3.org/2000/svg">
<mask id="mask0_7187_15529" style="mask-type:alpha" maskUnits="userSpaceOnUse" x="0" y="0" width="56" height="53">
<rect width="56" height="53" fill="#D9D9D9"/>
</mask>
<g mask="url(#mask0_7187_15529)">
<path d="M38.4644 36.7759C40.4217 36.607 41.9399 34.8839 41.8408 32.8251C41.7372 30.7664 40.0501 29.1131 37.9936 29.1131H37.8562C35.7321 29.1829 34.0766 30.9691 34.1442 33.0977C34.2117 34.1766 34.6532 35.0551 35.2569 35.6948C32.8963 40.2853 29.3532 43.6594 23.9856 46.4953C20.3749 48.3828 16.5615 49.0946 12.8495 48.5878C9.74559 48.1508 7.31745 46.7633 5.83083 44.5379C3.60541 41.1615 3.40269 37.5193 5.25646 33.8748C6.61018 31.2417 8.63288 29.3181 9.98436 28.372C9.64649 27.4958 9.24105 26.0115 9.03833 24.8988C-0.953553 32.0548 0.0623024 41.8395 3.09861 46.4637C5.36007 49.8379 9.98435 51.9958 15.0456 51.9958C16.3948 51.9958 17.8139 51.8967 19.1969 51.5588C27.9724 49.8717 34.6194 44.6077 38.4328 36.8458L38.4644 36.7759ZM50.5105 28.3383C45.2825 22.1958 37.5859 18.8216 28.8104 18.8216H27.6616C27.0917 17.5738 25.7763 16.7967 24.2897 16.7967H24.1883C22.0643 16.7967 20.4087 18.6212 20.4785 20.7452C20.5461 22.7679 22.267 24.4573 24.3257 24.4573H24.4924C26.0128 24.3897 27.3282 23.4437 27.8666 22.0945H29.1167C34.3176 22.0945 39.2415 23.6126 43.7306 26.5813C47.1701 28.8428 49.6365 31.8115 51.0195 35.3569C52.2314 38.2581 52.166 41.0939 50.9182 43.459C48.9946 47.1688 45.7533 49.1284 41.4691 49.1284C38.7684 49.1284 36.1376 48.2837 34.7861 47.6778C33.9775 48.349 32.626 49.464 31.6462 50.1397C34.6149 51.4867 37.6197 52.2638 40.5209 52.2638C47.1025 52.2638 51.9926 48.554 53.8509 44.9749C55.8736 40.925 55.7069 34.109 50.542 28.2707L50.5105 28.3383ZM15.6177 37.9878C15.6831 40.0127 17.4039 41.6998 19.4649 41.6998H19.6001C21.7602 41.6322 23.4135 39.846 23.3121 37.7175C23.3121 35.6925 21.5575 34.0077 19.4987 34.0077H19.3613C19.2262 34.0077 19.0257 34.0077 18.8545 34.073C16.0547 29.3474 14.8722 24.2838 15.3137 18.8216C15.5817 14.7042 16.9332 11.125 19.3613 8.15629C21.3863 5.62453 25.1997 4.37442 27.799 4.3091C35.0879 4.1717 38.1265 13.2536 38.3607 16.8643L41.7349 17.8756C40.9578 6.80707 34.0766 1.00024 27.4949 1.00024C21.3187 1.00024 15.6177 5.48938 13.3202 12.071C10.1826 20.8466 12.2413 29.282 16.0885 36.0326C15.7529 36.4719 15.5502 37.2467 15.6177 37.9878Z" fill="black"/>
</g>
</svg>
