<svg width="56" height="53" viewBox="0 0 56 53" fill="none" xmlns="http://www.w3.org/2000/svg">
<mask id="mask0_7200_56246" style="mask-type:alpha" maskUnits="userSpaceOnUse" x="0" y="0" width="56" height="53">
<rect width="56" height="53" fill="#D9D9D9"/>
</mask>
<g mask="url(#mask0_7200_56246)">
<path d="M38.493 36.9196C40.4366 36.7184 41.9111 35.0429 41.844 33.0321C41.7771 31.0215 40.1015 29.4128 38.0908 29.4128H37.9569C35.879 29.4799 34.2706 31.2225 34.3377 33.3001C34.4047 34.3056 34.8067 35.1768 35.4099 35.78C33.1312 40.2708 29.6461 43.5549 24.4185 46.3029C20.8663 48.1795 17.1802 48.8498 13.4941 48.3808C10.478 47.9785 8.13227 46.6382 6.65758 44.4262C4.51302 41.1421 4.31202 37.5897 6.12164 34.0375C7.39513 31.4905 9.40555 29.6138 10.679 28.6755C10.411 27.8042 10.0088 26.3297 9.80775 25.2574C0.089565 32.2949 1.09498 41.8123 4.04395 46.3029C6.25557 49.6542 10.7461 51.7319 15.7057 51.7319C17.046 51.7319 18.3864 51.5978 19.7269 51.2629C28.3058 49.5872 34.8069 44.4932 38.493 36.9196ZM50.2889 28.6086C45.1952 22.6434 37.6888 19.3593 29.11 19.3593H28.0377C27.4345 18.1529 26.161 17.3485 24.7536 17.3485H24.6195C22.542 17.4155 20.9336 19.1581 21.0004 21.236C21.0675 23.2466 22.743 24.8552 24.7536 24.8552H24.8875C26.362 24.7882 27.6355 23.8498 28.1716 22.5763H29.3781C34.4718 22.5763 39.2972 24.0508 43.6538 26.9329C47.0048 29.1448 49.4176 32.0269 50.758 35.512C51.8973 38.327 51.8303 41.075 50.6239 43.421C48.7474 46.9731 45.5974 48.9169 41.442 48.9169C38.7611 48.9169 36.2143 48.1125 34.8738 47.5093C34.1367 48.1795 32.7961 49.2518 31.8578 49.9223C34.7399 51.2627 37.6888 52 40.5037 52C46.9377 52 51.6963 48.4476 53.506 44.8954C55.4495 41.0079 55.3154 34.3056 50.2889 28.6086ZM16.2418 38.0587C16.3089 40.0696 17.9844 41.678 19.995 41.678H20.1291C22.2068 41.6111 23.8153 39.8684 23.7482 37.7907C23.6813 35.7798 22.0056 34.1714 19.995 34.1714H19.8611C19.7269 34.1714 19.5257 34.1714 19.392 34.2383C16.644 29.6807 15.5047 24.7211 15.9069 19.3591C16.1748 15.3376 17.5153 11.8523 19.8611 8.97022C21.8046 6.49032 25.5578 5.2839 28.1048 5.21704C35.2089 5.0829 38.2248 13.93 38.426 17.4824C39.2972 17.6834 40.7717 18.1527 41.7771 18.4878C40.9727 7.63008 34.2706 2 27.8367 2C21.8046 2 16.2418 6.35659 14.03 12.7909C10.9471 21.3699 12.9577 29.6138 16.7109 36.1152C16.376 36.5843 16.1748 37.3214 16.2418 38.0587Z" fill="black"/>
</g>
</svg>
