<svg width="300" height="100" viewBox="0 0 300 100" fill="none" xmlns="http://www.w3.org/2000/svg">
<path d="M20.1045 19.0742H280.629C281.9 19.0747 283.119 19.5798 284.018 20.4785C284.916 21.3772 285.421 22.5962 285.422 23.8672V76.1543L285.416 76.3906C285.357 77.5698 284.862 78.6885 284.023 79.5273C283.129 80.422 281.916 80.9252 280.65 80.9258H20.1045C18.8393 80.9252 17.6261 80.422 16.7314 79.5273C15.8368 78.6326 15.3335 77.4196 15.333 76.1543V23.8457C15.3336 22.5805 15.8368 21.3673 16.7314 20.4727C17.6261 19.578 18.8393 19.0748 20.1045 19.0742Z" fill="#193055" stroke="white" stroke-width="1.15671"/>
<path d="M103.106 51.0909H96.3788V64.4504H90.3428V29.7178H102.557C106.564 29.7178 109.657 30.617 111.837 32.4153C114.017 34.2136 115.106 36.816 115.106 40.2224C115.106 42.5468 114.545 44.4925 113.423 46.0595C112.232 47.6816 110.607 48.9352 108.736 49.6769L116.536 64.1403V64.4504H110.071L103.106 51.0909ZM96.3785 46.2248H102.581C104.616 46.2248 106.207 45.7118 107.351 44.6858C108.496 43.6599 109.069 42.2564 109.069 40.4754C109.069 38.6935 108.54 37.1757 107.483 36.1571C106.427 35.1384 104.848 34.6142 102.748 34.5833H96.38V46.2239L96.3785 46.2248Z" fill="white"/>
<path d="M131.636 64.9286C127.962 64.9286 124.984 63.7716 122.703 61.4575C120.421 59.1434 119.28 56.0621 119.281 52.2135V51.4976C119.239 49.1119 119.749 46.7488 120.771 44.5927C121.69 42.6493 123.141 41.007 124.957 39.857C126.757 38.7272 128.844 38.1394 130.969 38.1638C134.483 38.1638 137.199 39.2851 139.116 41.5277C141.033 43.7702 141.991 46.9428 141.991 51.0454V53.3833H125.126C125.3 55.5143 126.012 57.2 127.261 58.4404C127.878 59.0547 128.615 59.5365 129.425 59.8566C130.235 60.1766 131.102 60.328 131.973 60.3017C134.629 60.3017 136.791 59.2284 138.461 57.0817L141.586 60.064C140.551 61.608 139.122 62.8475 137.447 63.6545C135.636 64.524 133.647 64.9607 131.638 64.9301L131.636 64.9286ZM130.945 42.8139C130.219 42.7881 129.496 42.9246 128.83 43.2137C128.163 43.5027 127.57 43.9369 127.092 44.4846C126.115 45.5977 125.49 47.1481 125.219 49.1359H136.264V48.7063C136.136 46.766 135.619 45.2988 134.713 44.3046C133.806 43.3104 132.55 42.8136 130.944 42.8142L130.945 42.8139Z" fill="white"/>
<path d="M152.652 64.4514H146.856V27.8096H152.652V64.4514Z" fill="white"/>
<path d="M167.991 56.149L173.239 38.6389H179.417L169.159 68.3624C167.584 72.7035 164.912 74.8744 161.144 74.875C160.198 74.8596 159.259 74.7146 158.352 74.4439V69.9371L159.449 70.0083C160.912 70.0083 162.013 69.7419 162.753 69.2093C163.493 68.6767 164.077 67.7828 164.506 66.5277L165.342 64.3108L156.276 38.6377H162.526L167.988 56.1477L167.991 56.149Z" fill="white"/>
<path d="M183.308 64.4494V29.7168H195.212C199.139 29.7168 202.129 30.5041 204.181 32.0788C206.234 33.6535 207.259 35.9993 207.259 39.1163C207.277 40.6454 206.828 42.1436 205.971 43.4105C205.034 44.7465 203.722 45.7756 202.202 46.3686C203.945 46.7887 205.485 47.8059 206.555 49.2436C207.604 50.7221 208.144 52.5009 208.094 54.3126C208.094 57.573 207.049 60.0778 204.958 61.827C202.866 63.5763 199.872 64.4509 195.975 64.4509H183.309L183.308 64.4494ZM189.342 44.3396H195.258C197.134 44.3396 198.601 43.9143 199.66 43.0637C200.719 42.2131 201.247 41.0086 201.246 39.4503C201.246 37.7328 200.757 36.4926 199.779 35.7296C198.801 34.9666 197.279 34.5847 195.211 34.5841H189.343V44.3408L189.342 44.3396ZM189.342 48.7777V59.6315H196.045C197.937 59.6315 199.416 59.1624 200.482 58.2243C201.548 57.2861 202.08 55.9825 202.08 54.3135C202.08 50.704 200.235 48.8591 196.546 48.7786L189.342 48.7777Z" fill="white"/>
<path d="M219.733 64.4514H213.937V27.8096H219.733V64.4514Z" fill="white"/>
<path d="M241.68 61.9213C239.977 63.9248 237.56 64.9265 234.427 64.9265C231.628 64.9265 229.509 64.1074 228.07 62.4692C226.632 60.8309 225.912 58.4613 225.911 55.3602V38.6387H231.708V55.2899C231.708 58.5661 233.068 60.2044 235.788 60.2046C238.507 60.2046 240.502 59.1948 241.489 57.1753V38.6387H247.286V64.4496H241.824L241.682 61.921L241.68 61.9213Z" fill="white"/>
<path d="M264.557 64.9286C260.883 64.9286 257.905 63.7716 255.623 61.4575C253.342 59.1434 252.201 56.0621 252.202 52.2135V51.4976C252.16 49.1119 252.67 46.7488 253.692 44.5927C254.61 42.6494 256.062 41.0071 257.878 39.857C259.677 38.7271 261.765 38.1393 263.889 38.1638C267.403 38.1638 270.119 39.2851 272.036 41.5277C273.953 43.7702 274.912 46.9428 274.911 51.0454V53.3833H258.046C258.221 55.5143 258.933 57.2 260.181 58.4404C260.799 59.0547 261.535 59.5365 262.345 59.8565C263.156 60.1765 264.023 60.328 264.893 60.3017C267.549 60.3017 269.712 59.2284 271.382 57.0817L274.506 60.064C273.471 61.6079 272.043 62.8474 270.368 63.6545C268.557 64.524 266.568 64.9607 264.559 64.9301L264.557 64.9286ZM263.866 42.8139C263.14 42.7881 262.417 42.9246 261.751 43.2137C261.084 43.5027 260.491 43.9369 260.014 44.4846C259.036 45.5977 258.411 47.1481 258.14 49.1359H269.185V48.7063C269.057 46.766 268.54 45.2988 267.634 44.3046C266.728 43.3104 265.471 42.8136 263.865 42.8142L263.866 42.8139Z" fill="white"/>
<path d="M72.5847 18.5501H19.3561C16.6709 18.5501 14.4941 22.2391 14.4941 23.4121V76.6406C14.4941 78.3394 16.6709 81.5026 19.3561 81.5026H72.5847H77.4466V18.5498C74.2811 18.5498 75.2698 18.5501 72.5847 18.5501Z" fill="white"/>
<path d="M42.2842 67.9715C42.2453 68.6765 41.5112 68.6716 41.1368 68.7203C39.051 68.9974 33.6153 68.9002 31.4178 68.7203C31.0337 68.6862 30.5815 68.7494 30.319 68.4529C30.0807 68.1222 30.0807 67.7382 30.0515 67.3541C29.4389 60.0563 29.5119 51.4701 37.2959 48.2223C40.2519 46.9874 46.9225 46.2095 49.0083 49.2385C49.3049 49.6712 49.5771 51.2999 50.3502 49.8851C51.5948 47.6146 50.5447 44.2744 48.5124 42.7769C47.6956 42.1741 45.9404 41.7413 45.4493 41.2017C44.9583 40.662 44.8027 39.359 44.438 38.6248C42.8239 35.3673 37.8161 34.4047 34.5683 33.9428C33.6348 33.8115 31.4372 33.9185 30.6982 33.5976C29.6091 33.126 29.9203 31.1861 31.2087 31.1666C39.6393 31.1569 53.666 30.7631 57.8862 35.9265C61.343 40.1612 60.7985 49.2385 55.7275 52.2334C55.1149 52.5932 52.5575 53.1961 53.0729 54.0129L61.9216 67.5485C61.9216 67.5485 62.7141 68.7251 61.168 68.7251C57.9299 68.7251 48.9645 68.5161 48.9645 68.5161L43.2371 58.165C43.0475 57.7663 42.2891 58.0094 42.2891 58.2719V67.9715H42.2842Z" fill="#193055"/>
<path d="M30.4748 52.4711C30.1831 52.792 30.0907 52.4468 30.0567 52.16C29.1815 45.3046 37.4177 42.9563 42.4935 45.6206L37.7677 46.3742C34.6658 47.1716 31.4326 49.3108 30.4748 52.4711Z" fill="#193055"/>
<path d="M42.7073 40.8803C43.1935 41.6047 41.1855 42.266 40.6459 42.3097C39.0512 42.4361 37.5245 41.2984 37.6509 39.6113L42.7073 40.8803Z" fill="#193055"/>
</svg>
