<svg width="2022" height="470" viewBox="0 0 2022 470" fill="none" xmlns="http://www.w3.org/2000/svg">
<path d="M41.7998 1.5H1981.96C2003.21 1.5 2020.46 18.7484 2020.46 40V429.39C2020.46 450.551 2003.28 467.729 1982.12 467.729H41.7998C20.6383 467.729 3.45996 450.551 3.45996 429.39V39.8398C3.46003 18.6784 20.6383 1.50008 41.7998 1.5Z" fill="#193055" stroke="white" stroke-width="3"/>
<path d="M659.92 242.75H609.82V342.24H564.87V83.5801H655.83C685.67 83.5801 708.71 90.2801 724.94 103.67C741.16 117.07 749.28 136.45 749.28 161.81C749.28 179.12 745.1 193.61 736.75 205.28C728.4 216.95 716.76 225.93 701.84 232.22L759.93 339.93V342.24H711.79L659.92 242.75ZM609.82 206.51H656.01C671.17 206.51 683.01 202.69 691.54 195.05C700.07 187.41 704.33 176.96 704.33 163.69C704.33 150.42 700.39 139.12 692.52 131.53C684.64 123.95 672.89 120.04 657.26 119.81H609.83V206.5L609.82 206.51Z" fill="white"/>
<path d="M872.39 345.789C845.03 345.789 822.85 337.169 805.86 319.939C788.86 302.709 780.37 279.759 780.37 251.099V245.769C780.37 226.579 784.07 209.439 791.47 194.339C798.87 179.239 809.26 167.489 822.65 159.079C836.03 150.669 850.96 146.469 867.42 146.469C893.59 146.469 913.81 154.819 928.09 171.519C942.36 188.219 949.5 211.849 949.5 242.399V259.809H823.9C825.2 275.679 830.5 288.229 839.8 297.469C849.09 306.709 860.79 311.329 874.89 311.329C894.67 311.329 910.78 303.329 923.21 287.349L946.48 309.559C938.78 321.049 928.51 329.959 915.66 336.299C902.81 342.629 888.39 345.799 872.4 345.799L872.39 345.789ZM867.24 181.099C855.39 181.099 845.83 185.249 838.55 193.539C831.27 201.829 826.62 213.379 824.6 228.179H906.85V224.979C905.9 210.529 902.06 199.609 895.3 192.199C888.55 184.799 879.19 181.099 867.23 181.099H867.24Z" fill="white"/>
<path d="M1028.9 342.229H985.73V69.3594H1028.9V342.229Z" fill="white"/>
<path d="M1143.13 280.41L1182.21 150.01H1228.22L1151.83 371.36C1140.1 403.69 1120.21 419.86 1092.14 419.86C1085.86 419.86 1078.93 418.79 1071.35 416.65V383.09L1079.52 383.62C1090.41 383.62 1098.62 381.64 1104.12 377.67C1109.63 373.7 1113.98 367.05 1117.18 357.7L1123.4 341.19L1055.89 150H1102.43L1143.11 280.4L1143.13 280.41Z" fill="white"/>
<path d="M1257.19 342.23V83.5703H1345.84C1375.09 83.5703 1397.36 89.4303 1412.64 101.16C1427.92 112.88 1435.56 130.36 1435.56 153.57C1435.56 165.41 1432.36 176.07 1425.97 185.55C1419.58 195.03 1410.22 202.37 1397.9 207.58C1411.87 211.37 1422.68 218.51 1430.32 228.99C1437.96 239.47 1441.78 252.06 1441.78 266.74C1441.78 291.02 1433.99 309.67 1418.42 322.7C1402.84 335.73 1380.55 342.24 1351.53 342.24H1257.2L1257.19 342.23ZM1302.13 192.47H1346.19C1360.16 192.47 1371.09 189.3 1378.97 182.97C1386.85 176.64 1390.78 167.66 1390.78 156.06C1390.78 143.27 1387.14 134.03 1379.85 128.35C1372.56 122.66 1361.22 119.82 1345.83 119.82H1302.13V192.48V192.47ZM1302.13 225.52V306.35H1352.05C1366.14 306.35 1377.16 302.86 1385.09 295.87C1393.02 288.88 1396.99 279.17 1396.99 266.74C1396.99 239.86 1383.25 226.12 1355.78 225.52H1302.13Z" fill="white"/>
<path d="M1528.46 342.229H1485.29V69.3594H1528.46V342.229Z" fill="white"/>
<path d="M1691.9 323.4C1679.22 338.32 1661.22 345.78 1637.89 345.78C1617.04 345.78 1601.26 339.68 1590.55 327.48C1579.83 315.28 1574.47 297.63 1574.47 274.54V150.01H1617.64V274.01C1617.64 298.41 1627.77 310.61 1648.02 310.61C1668.27 310.61 1683.13 303.09 1690.48 288.05V150.01H1733.65V342.23H1692.97L1691.91 323.4H1691.9Z" fill="white"/>
<path d="M1862.27 345.789C1834.91 345.789 1812.73 337.169 1795.74 319.939C1778.74 302.709 1770.25 279.759 1770.25 251.099V245.769C1770.25 226.579 1773.95 209.439 1781.35 194.339C1788.75 179.239 1799.14 167.489 1812.53 159.079C1825.91 150.669 1840.84 146.469 1857.3 146.469C1883.47 146.469 1903.69 154.819 1917.97 171.519C1932.24 188.219 1939.38 211.849 1939.38 242.399V259.809H1813.78C1815.08 275.679 1820.38 288.229 1829.68 297.469C1838.97 306.709 1850.67 311.329 1864.77 311.329C1884.55 311.329 1900.66 303.329 1913.09 287.349L1936.36 309.559C1928.66 321.049 1918.39 329.959 1905.54 336.299C1892.69 342.629 1878.27 345.799 1862.28 345.799L1862.27 345.789ZM1857.12 181.099C1845.27 181.099 1835.71 185.249 1828.43 193.539C1821.15 201.829 1816.5 213.379 1814.48 228.179H1896.73V224.979C1895.78 210.529 1891.94 199.609 1885.18 192.199C1878.43 184.799 1869.07 181.099 1857.11 181.099H1857.12Z" fill="white"/>
<path d="M39.84 0.390625H468.84V469.231H39.84C17.85 469.231 0 451.381 0 429.391V40.2307C0 18.2407 17.85 0.390625 39.84 0.390625Z" fill="white"/>
<path d="M220.1 373.111C219.8 378.541 214.15 378.501 211.27 378.881C195.21 381.021 152.04 380.271 135.12 378.881C132.16 378.611 128.68 379.111 126.66 376.821C124.83 374.271 124.83 371.321 124.6 368.361C124.6 311.811 124.56 94.3808 124.56 89.4608C189.49 89.3908 307.77 86.5508 340.27 126.311C366.89 158.931 362.7 228.831 323.64 251.901C318.92 254.681 299.23 259.311 303.2 265.611L371.34 369.861C371.34 369.861 377.45 378.921 365.54 378.921C340.6 378.921 271.56 377.321 271.56 377.321L227.45 297.601C225.99 294.531 220.15 296.411 220.15 298.421V373.121H220.1V373.111Z" fill="#193055"/>
<path d="M284.239 145.681C277.889 146.091 275.809 146.861 268.299 145.401C260.379 144.391 252.889 141.521 244.499 141.061C236.219 140.601 225.519 140.671 218.209 144.911C222.809 145.881 227.649 147.091 231.599 149.791C237.249 153.641 237.079 159.741 243.889 163.071C252.829 167.451 274.029 165.001 276.809 153.141C277.069 152.001 276.879 150.601 277.109 149.821C277.559 148.421 285.939 148.251 287.539 148.341C298.209 148.891 308.679 153.351 314.599 162.681C322.399 174.991 318.089 188.811 310.629 200.021L309.499 193.311C306.369 181.441 293.939 179.561 283.579 179.021C264.689 178.051 243.109 183.021 231.209 199.021C231.209 199.021 242.639 184.711 262.349 183.441C253.449 187.141 248.939 199.891 246.729 208.011C242.249 224.521 245.769 242.151 257.229 256.471C275.039 278.031 276.009 305.051 276.639 320.391C277.269 335.841 277.149 351.201 276.979 350.891C262.719 323.771 241.519 292.811 223.129 281.291C205.559 270.281 194.059 250.831 192.099 227.281C191.929 225.251 192.219 223.071 192.099 221.031C184.699 231.801 182.769 246.991 185.389 259.771C184.709 259.951 184.599 259.491 184.199 259.171C179.469 255.341 174.379 247.491 171.879 241.881C162.389 220.581 165.629 196.681 178.669 177.851C178.319 177.511 174.329 180.621 173.739 181.091C168.629 185.191 164.539 190.421 161.079 196.001C162.559 167.551 175.569 137.581 202.099 125.301C223.649 115.341 260.899 116.231 281.649 128.131C287.139 131.281 292.859 137.901 291.469 146.021C291.469 146.021 286.049 145.581 284.229 145.691L284.239 145.681Z" fill="white"/>
<path d="M248.989 149.611C248.599 154.771 253.889 158.691 258.329 156.021C258.799 156.781 256.639 158.711 255.889 159.181C248.809 163.681 239.559 155.971 241.959 147.971L248.979 149.611H248.989Z" fill="white"/>
</svg>
