<svg width="100" height="100" viewBox="0 0 100 100" fill="none" xmlns="http://www.w3.org/2000/svg">
<rect width="100" height="100" fill="white"/>
<g clip-path="url(#clip0_7481_47585)">
<path d="M68 86H32C22.073 86 14 77.927 14 68C14 59.729 20.729 53 29 53C30.659 53 32 54.341 32 56C32 57.659 30.659 59 29 59C24.038 59 20 63.038 20 68C20 74.618 25.382 80 32 80H68C74.618 80 80 74.618 80 68C80 63.038 75.962 59 71 59C69.341 59 68 57.659 68 56C68 54.341 69.341 53 71 53C79.271 53 86 59.729 86 68C86 77.927 77.927 86 68 86Z" fill="black"/>
<path d="M54.5 37.9998C54.473 37.9998 54.443 37.9998 54.419 37.9998C53.312 37.9698 52.313 37.3308 51.818 36.3438L45.5 23.7078L42.185 30.3408C41.675 31.3578 40.637 31.9998 39.5 31.9998H32C30.341 31.9998 29 30.6558 29 28.9998C29 27.3438 30.341 25.9998 32 25.9998H37.646L42.818 15.6588C43.838 13.6248 47.165 13.6248 48.185 15.6588L54.677 28.6458L57.896 23.0148C58.43 22.0758 59.426 21.4998 60.5 21.4998H68C69.659 21.4998 71 22.8438 71 24.4998C71 26.1558 69.659 27.4998 68 27.4998H62.24L57.104 36.4878C56.567 37.4238 55.574 37.9998 54.5 37.9998Z" fill="black"/>
<path d="M62 44H38C31.382 44 26 49.382 26 56C26 62.618 31.382 68 38 68H62C68.618 68 74 62.618 74 56C74 49.382 68.618 44 62 44ZM39.5 60.5C37.016 60.5 35 58.484 35 56C35 53.516 37.016 51.5 39.5 51.5C41.984 51.5 44 53.516 44 56C44 58.484 41.984 60.5 39.5 60.5ZM60.5 60.5C58.016 60.5 56 58.484 56 56C56 53.516 58.016 51.5 60.5 51.5C62.984 51.5 65 53.516 65 56C65 58.484 62.984 60.5 60.5 60.5Z" fill="black"/>
</g>
<defs>
<clipPath id="clip0_7481_47585">
<rect width="72" height="72" fill="white" transform="translate(14 14)"/>
</clipPath>
</defs>
</svg>
