<svg width="56" height="53" viewBox="0 0 56 53" fill="none" xmlns="http://www.w3.org/2000/svg">
<path fill-rule="evenodd" clip-rule="evenodd" d="M5.15625 5.81943C5.15835 6.21129 5.23761 6.59891 5.38951 6.96014C5.5414 7.32138 5.76297 7.64915 6.04154 7.92476C6.32012 8.20037 6.65026 8.4184 7.0131 8.56642C7.37594 8.71443 7.76438 8.78953 8.15625 8.78743H33.0202C41.2282 8.23143 46.2603 18.6994 40.0202 24.2474C38.1882 25.8154 35.8549 26.5981 33.0202 26.5954H22.2203C21.8211 26.5808 21.423 26.6467 21.0499 26.7894C20.6768 26.9321 20.3362 27.1485 20.0486 27.4257C19.761 27.7029 19.5323 28.0353 19.376 28.403C19.2198 28.7706 19.1392 29.166 19.1392 29.5654C19.1392 29.9649 19.2198 30.3603 19.376 30.7279C19.5323 31.0955 19.761 31.4279 20.0486 31.7051C20.3362 31.9824 20.6768 32.1988 21.0499 32.3414C21.423 32.4841 21.8211 32.5501 22.2203 32.5354C22.5963 32.5354 34.2482 32.5354 34.1523 32.5354L44.9002 49.5994C45.1876 50.0827 45.5984 50.4808 46.0905 50.7529C46.5825 51.0249 47.1382 51.1611 47.7003 51.1474C50.4403 51.2394 51.7002 48.3954 50.2002 46.1994L40.6403 30.9994C55.5602 23.9954 49.2563 2.22343 33.0123 2.86343H8.15625C7.36722 2.86021 6.60895 3.16922 6.04691 3.72302C5.48487 4.27681 5.16469 5.03044 5.15625 5.81943Z" fill="black"/>
</svg>
