<svg width="45" height="44" viewBox="0 0 45 44" fill="none" xmlns="http://www.w3.org/2000/svg">
<path d="M0.0218642 19.0856C0.427486 8.88632 8.76942 0.394948 19.0167 0H44.0051V11.4001C39.4579 11.7897 34.8413 12.2327 30.3848 13.2094C28.7783 13.5616 22.9075 14.8479 25.4906 17.4577C26.0297 18.0021 27.5508 18.7333 27.7909 19.283C28.0952 19.9822 27.0277 20.5319 26.526 20.7828C24.055 21.9996 20.3723 22.7202 17.6557 23.3072C13.6102 24.1772 9.39386 24.7109 5.4177 25.789C4.68118 25.9865 3.93398 26.2693 3.20813 26.4561C1.6657 26.8458 0.288721 25.9011 0.0218642 24.3587C0.0752355 22.6134 -0.0475185 20.8308 0.0218642 19.0909V19.0856Z" fill="black"/>
<path d="M27.104 43.5779C25.8764 43.4711 23.368 42.1368 22.2312 41.5071C18.5592 39.4629 13.7184 35.5722 17.6306 31.1797C21.468 26.8673 28.134 26.6378 33.295 25.026C35.5953 24.3055 39.9878 22.7631 37.3032 19.7156C37.0577 19.4327 36.7268 19.1872 36.492 18.899C34.9282 17.0417 37.2605 15.7928 38.7442 15.1577C40.4148 14.4425 42.224 14.0315 43.9906 13.6152L44.012 24.7538C43.7398 33.1972 38.0131 40.6264 29.9753 43.1029C29.4416 43.2683 28.6197 43.5298 28.0807 43.5779C27.8245 43.5992 27.3655 43.5992 27.1093 43.5779H27.104Z" fill="black"/>
</svg>
