<svg width="1254" height="400" viewBox="0 0 1254 400" fill="none" xmlns="http://www.w3.org/2000/svg">
<path d="M216.378 211.559C216.378 223.537 213.444 234.915 207.6 245.737C201.444 256.87 192.822 266.537 181.756 274.715C171.8 282.026 160.533 287.603 147.933 291.403C135.044 295.492 121.733 297.559 107.956 297.559C94.1778 297.559 81.0222 295.515 68.4222 291.403C55.5333 287.603 44.1333 282.026 34.2444 274.715C20.2 264.47 10.5334 252.159 5.26669 237.826L49.1111 212.87C49.4 217.27 50.8667 221.337 53.5111 225.092C56.1556 228.892 59.5111 232.115 63.6222 234.759C69.4889 238.848 76.3556 242.07 84.2667 244.426C91.8889 246.759 99.7778 247.937 107.978 247.937C116.178 247.937 124.222 246.759 132.133 244.426C139.756 242.092 146.489 238.87 152.333 234.759C162 227.137 166.822 219.426 166.822 211.559C166.822 206.292 164.911 201.159 161.111 196.181C157.311 191.203 152.178 186.959 145.733 183.448C139.578 179.937 125.822 176.87 104.444 174.226C80.4444 171.581 61.4 166.915 47.3556 160.181C33.3333 153.737 21.9556 143.937 13.1778 130.759C4.40002 117.581 0 103.381 0 88.1589C0 76.2033 3.06669 64.6701 9.22225 53.5368C15.0889 42.6923 23.4222 33.1811 34.2667 24.9811C44.1778 17.67 55.5778 11.9589 68.4444 7.84783C81.0444 4.04783 94.2222 2.13672 107.978 2.13672C121.733 2.13672 135.067 4.04783 147.956 7.84783C160.556 11.9367 171.822 17.6478 181.778 24.9811C195.489 34.9367 205.267 47.3811 211.133 62.3144L166.844 87.7144C166.556 80.4033 163.044 73.8478 156.311 68.0256C149.289 62.47 141.222 58.2256 132.156 55.2922C123.667 52.9589 115.622 51.7812 108 51.7812C99.8 51.7812 91.8889 52.9589 84.2889 55.2922C76.3778 57.6256 69.5111 60.8478 63.6444 64.959C53.9778 72.2478 49.1556 79.9589 49.1556 88.1589C49.1556 93.7144 51.3556 99.1367 55.7333 104.403C59.8222 109.959 65.4 114.203 72.4222 117.137C79.7333 120.359 92.7778 123.137 111.511 125.492C137.578 128.715 156.889 133.537 169.489 139.981C184.067 148.181 195.622 158.581 204.111 171.159C212.311 183.759 216.4 197.226 216.4 211.559H216.378Z" fill="white"/>
<path d="M418.378 254.956H301.555L283.111 294.489H228.711L362.6 5.64453L489.889 294.489H435.866L418.378 254.956ZM396.4 205.4L361.267 125.467L324.378 205.4H396.4Z" fill="white"/>
<path d="M654.083 294.489L557.016 167.2V294.489H507.905L507.461 5.64453H613.239C627.283 5.64453 640.617 7.84453 653.217 12.2224C665.505 16.9112 676.35 23.489 685.728 31.978C695.039 40.178 702.194 49.5557 707.172 60.0891C712.15 70.8891 714.639 82.1336 714.639 93.8447C714.639 111.111 709.505 126.778 699.261 140.845C688.75 154.889 675.905 164.711 660.683 170.267C655.416 172.311 649.416 174.067 642.683 175.533C635.661 177 630.528 177.733 627.305 177.733L715.083 294.489H654.105H654.083ZM557.016 55.2668V132.933H600.061C617.928 132.933 631.683 130.6 641.35 125.911C648.083 123.267 653.794 118.889 658.483 112.733C662.883 106.867 665.061 100.578 665.061 93.8447C665.061 83.6002 660.372 74.5558 651.016 66.6891C641.639 59.0669 629.061 55.2668 613.239 55.2668H557.016Z" fill="white"/>
<path d="M775.264 5.64453L852.486 179.067L929.286 5.64453H983.308L852.486 301.089L721.664 5.64453H775.242H775.264Z" fill="white"/>
<path d="M1174.32 254.956H1057.49L1039.05 294.489H984.648L1118.54 5.64453L1245.83 294.489H1191.8L1174.32 254.956ZM1152.36 205.4L1117.23 125.467L1080.34 205.4H1152.36Z" fill="white"/>
<path d="M960.778 342.336H0V397.558H960.778V342.336Z" fill="url(#paint0_linear_3641_3227)"/>
<mask id="mask0_3641_3227" style="mask-type:luminance" maskUnits="userSpaceOnUse" x="0" y="342" width="961" height="56">
<path d="M960.778 342.336H0V397.558H960.778V342.336Z" fill="white"/>
</mask>
<g mask="url(#mask0_3641_3227)">
<path d="M0 342.336H960.711V397.558H0V342.336Z" fill="url(#paint1_linear_3641_3227)"/>
</g>
<path d="M983.75 398.246V342.312H1005.86C1011.75 342.312 1016.91 343.49 1021.31 345.824C1025.73 348.157 1029.17 351.468 1031.62 355.712C1034.06 359.912 1035.28 364.779 1035.28 370.29C1035.28 375.801 1034.06 380.824 1031.62 385.001C1029.17 389.157 1025.73 392.401 1021.31 394.735C1016.91 397.068 1011.75 398.246 1005.86 398.246H983.75ZM996.394 386.602H1005.62C1008.88 386.602 1011.77 385.935 1014.26 384.557C1016.79 383.201 1018.77 381.29 1020.19 378.846C1021.59 376.401 1022.33 373.557 1022.33 370.29C1022.33 367.024 1021.62 364.179 1020.19 361.735C1018.77 359.29 1016.79 357.424 1014.26 356.09C1011.73 354.735 1008.77 354.046 1005.39 354.046H996.394V386.624V386.602Z" fill="white"/>
<path d="M1064.77 398.246V342.312H1101.53V353.001H1077.37V364.646H1099.33V375.268H1077.37V387.49H1102.42V398.246H1064.8H1064.77Z" fill="white"/>
<path d="M1152.02 399.356C1147.34 399.356 1143.27 398.578 1139.87 397.089C1136.49 395.534 1133.89 393.334 1132.05 390.511C1130.22 387.645 1129.34 384.289 1129.34 380.489H1141.78C1141.78 383.134 1142.67 385.2 1144.49 386.711C1146.34 388.178 1148.82 388.911 1151.96 388.911C1154.6 388.911 1156.67 388.4 1158.25 387.378C1159.8 386.356 1160.58 384.934 1160.58 383.067C1160.58 381.067 1159.62 379.467 1157.74 378.245C1155.87 377.045 1152.98 376.022 1149.02 375.178C1142.47 373.778 1137.65 371.667 1134.54 368.889C1131.4 366.067 1129.85 362.378 1129.85 357.845C1129.85 352.711 1131.69 348.689 1135.4 345.756C1139.09 342.8 1144.18 341.289 1150.62 341.289C1155.05 341.289 1158.89 342.067 1162.11 343.556C1165.38 345.067 1167.89 347.222 1169.65 350C1171.45 352.756 1172.36 355.978 1172.36 359.734H1160.14C1160.14 357.245 1159.29 355.311 1157.65 353.867C1155.98 352.4 1153.69 351.667 1150.76 351.667C1148.11 351.667 1146.02 352.178 1144.47 353.2C1142.96 354.222 1142.2 355.689 1142.2 357.6C1142.2 359.311 1143.02 360.756 1144.69 361.911C1146.4 363.089 1149.4 364.156 1153.69 365.134C1160.67 366.8 1165.69 369.022 1168.78 371.8C1171.87 374.578 1173.4 378.178 1173.4 382.556C1173.4 387.822 1171.49 391.956 1167.69 394.934C1163.89 397.911 1158.65 399.4 1152.02 399.4V399.356Z" fill="white"/>
<path d="M1203.1 398.245V342.311H1215.77V363.822H1220.59C1223.7 363.822 1226.01 363.311 1227.48 362.289C1228.95 361.267 1230.15 359.467 1231.15 356.867L1236.41 342.289H1250.1L1242.35 362.2C1241.66 364.022 1240.88 365.645 1240.01 367.111C1239.12 368.533 1238.12 369.778 1237.01 370.845L1252.17 398.222H1237.39L1225.39 375.533C1224.9 375.578 1224.43 375.6 1223.99 375.6H1215.79V398.222H1203.12L1203.1 398.245Z" fill="white"/>
<defs>
<linearGradient id="paint0_linear_3641_3227" x1="966.296" y1="367.243" x2="0.913629" y2="372.62" gradientUnits="userSpaceOnUse">
<stop stop-color="#BED532"/>
<stop offset="1" stop-color="#35C5F2"/>
</linearGradient>
<linearGradient id="paint1_linear_3641_3227" x1="966.227" y1="367.243" x2="0.913629" y2="372.618" gradientUnits="userSpaceOnUse">
<stop stop-color="#BED532"/>
<stop offset="1" stop-color="#35C5F2"/>
</linearGradient>
</defs>
</svg>
