<svg width="56" height="53" viewBox="0 0 56 53" fill="none" xmlns="http://www.w3.org/2000/svg">
<mask id="mask0_7200_56663" style="mask-type:alpha" maskUnits="userSpaceOnUse" x="0" y="0" width="56" height="53">
<rect width="56" height="53" fill="#D9D9D9"/>
</mask>
<g mask="url(#mask0_7200_56663)">
<path d="M43.134 36.9194C49.8825 30.1751 51.0051 20.3567 45.6382 14.9942C40.2713 9.63159 30.4529 10.7542 23.7044 17.4984C16.9558 24.2426 18.9074 37.1352 21.2001 39.4236C23.0524 41.2759 36.3854 43.6636 43.134 36.9194Z" fill="#696969"/>
<path d="M15.442 27.1743C11.5259 23.2625 5.82656 22.6105 2.71351 25.7193C-0.399538 28.8323 0.252433 34.5273 4.16857 38.4392C8.08471 42.3553 15.5673 41.2197 16.8971 39.8942C17.9722 38.8191 19.3625 31.0861 15.442 27.1743Z" fill="#696969"/>
<path d="M54.2078 35.8613C53.9573 35.8613 53.8321 35.7102 53.8321 35.4036C53.8321 35.1748 53.9832 34.6739 54.2812 33.9097C54.7172 32.7914 54.9375 31.9883 54.9375 31.5005C54.9375 31.2068 54.8511 30.9607 54.6784 30.7664C54.5057 30.5721 54.2898 30.4728 54.0307 30.4728C53.6508 30.4728 53.2147 30.6499 52.7225 31.0082C52.2303 31.3666 51.5697 32.0099 50.7363 32.9426C50.8572 32.3381 51.1163 31.5091 51.5049 30.4556L49.644 30.8139C49.2208 31.7293 48.9143 32.554 48.7243 33.288C48.6293 33.6463 48.5602 34.0177 48.5127 34.3933C47.9298 34.9589 47.5499 35.3 47.3858 35.4252C47.2174 35.5504 47.0404 35.6109 46.8591 35.6109C46.6907 35.6109 46.5568 35.5461 46.4575 35.4209C46.3582 35.2957 46.3107 35.123 46.3107 34.9114C46.3107 34.6826 46.3539 34.4192 46.4403 34.1213C46.5266 33.8234 46.7166 33.2621 47.0145 32.4374L47.7226 30.4858L47.0275 30.516C46.3971 31.7163 45.6587 32.364 44.8125 32.4547C45.0413 31.8588 45.1579 31.4011 45.1579 31.0816C45.1579 30.6758 44.9593 30.4728 44.5621 30.4728C44.0914 30.4728 43.7244 30.693 43.461 31.1378C43.1934 31.5825 43.0595 32.0013 43.0595 32.3942C43.0595 32.7871 43.2797 33.0635 43.7158 33.2577C43.4308 33.6766 43.1113 34.0695 42.7659 34.4408C42.3557 34.8467 42.0362 35.1575 41.8031 35.3605C41.5656 35.572 41.3454 35.6757 41.1468 35.6757C40.8359 35.6757 40.6805 35.4555 40.6805 35.0194C40.6805 34.5833 40.8532 33.832 41.1986 32.7094L41.8721 30.4728H41.4447L39.886 31.3364C39.6313 30.7535 39.1865 30.4599 38.5518 30.4599C38.0467 30.4599 37.4681 30.6758 36.8118 31.1032C36.1555 31.5307 35.6158 32.0877 35.197 32.7828C34.8732 33.3182 34.6746 33.8795 34.6012 34.4581C34.014 35.0453 33.5735 35.4252 33.2799 35.6023C32.9734 35.7836 32.6539 35.8743 32.3171 35.8743C31.4579 35.8743 30.9268 35.3777 30.7239 34.3847C32.9648 33.7284 34.083 32.8735 34.083 31.82C34.083 31.4227 33.9406 31.1032 33.6556 30.8571C33.3706 30.611 32.9907 30.4901 32.52 30.4901C31.609 30.4901 30.78 30.9262 30.033 31.7984C29.3552 32.5885 28.9882 33.465 28.9234 34.4278C28.306 35.0366 27.8397 35.4382 27.5374 35.6325C27.2266 35.8311 26.933 35.9304 26.6609 35.9304C26.3889 35.9304 26.173 35.8009 26.0133 35.5418C25.8492 35.2827 25.7672 34.933 25.7672 34.4883C25.7672 34.2897 25.7888 33.927 25.8276 33.3959C26.8466 32.2906 27.5936 31.2543 28.0728 30.2829C28.5521 29.3114 28.7896 28.3054 28.7896 27.2691C28.7896 26.9021 28.7421 26.6128 28.6471 26.3969C28.5521 26.1811 28.4312 26.0731 28.2844 26.0731C28.2542 26.0731 28.2067 26.0818 28.1462 26.1033L26.2076 26.8201C25.547 28.0808 24.9814 29.4582 24.5194 30.9564C24.0574 32.4503 23.8242 33.7327 23.8242 34.7992C23.8242 35.5116 23.9883 36.0772 24.3251 36.5003C24.6575 36.9235 25.0979 37.135 25.642 37.135C26.1169 37.135 26.6134 36.9839 27.1359 36.6817C27.6583 36.3794 28.2628 35.9088 28.9579 35.2741C29.6531 34.6394 28.9579 35.2655 28.9579 35.2655C29.04 35.7447 29.2386 36.1463 29.5495 36.4744C29.9769 36.9148 30.5339 37.1393 31.2247 37.1393C31.8465 37.1393 32.4121 36.9882 32.9259 36.686C33.4224 36.3967 33.9794 35.9433 34.6012 35.3432C34.653 35.7922 34.7998 36.1808 35.0459 36.5133C35.3611 36.9321 35.741 37.1437 36.1857 37.1437C36.6305 37.1437 37.0881 36.971 37.5199 36.6255C37.9517 36.2801 38.418 35.7404 38.9275 35.015C38.88 36.4356 39.2599 37.1437 40.063 37.1437C40.3825 37.1437 40.7193 37.0271 41.069 36.7939C41.4188 36.5608 42.0017 36.0556 42.8177 35.2827C43.5258 34.5833 44.0439 33.927 44.3764 33.3139C44.8254 33.2362 45.2356 33.1023 45.6113 32.908C44.8427 34.1126 44.4584 35.0755 44.4584 35.7922C44.4584 36.1808 44.5664 36.5046 44.7779 36.7637C44.9895 37.0228 45.2529 37.1566 45.5638 37.1566C46.2416 37.1566 47.2045 36.5478 48.448 35.3432C48.448 35.4382 48.4393 35.5288 48.4393 35.6238C48.4393 35.9606 48.4696 36.4701 48.5214 37.1566L50.2096 36.7594C50.2096 36.3017 50.2182 35.939 50.2312 35.667C50.2571 35.3043 50.3089 34.9071 50.3823 34.4753C50.4298 34.2206 50.5464 33.9788 50.732 33.75L51.1595 33.2534C51.3149 33.0721 51.466 32.908 51.5999 32.7655C51.7596 32.5971 51.9021 32.4547 52.0273 32.3381C52.1698 32.2129 52.295 32.1092 52.403 32.0402C52.5196 31.9711 52.6145 31.9322 52.6836 31.9322C52.8088 31.9322 52.8736 32.0143 52.8736 32.1783C52.8736 32.3424 52.7527 32.7224 52.5152 33.3225C52.0662 34.4408 51.8417 35.2741 51.8417 35.8181C51.8417 36.2197 51.9453 36.5392 52.1569 36.781C52.3641 37.0184 52.6404 37.1393 52.9815 37.1393C53.8192 37.1393 54.8295 36.5176 56.0039 35.2784V34.4019C55.1706 35.382 54.5705 35.8743 54.1991 35.8743L54.2078 35.8613ZM26.0306 32.282C26.376 30.5937 26.73 29.2855 27.0884 28.3485C27.4468 27.4116 27.7231 26.941 27.9087 26.941C27.9951 26.941 28.0685 26.9971 28.1246 27.1137C28.1808 27.2259 28.2067 27.3814 28.2067 27.567C28.2067 28.2104 28.0081 28.9746 27.6022 29.8684C27.2006 30.7578 26.6739 31.5652 26.0306 32.282ZM31.1211 31.8588C31.4277 31.345 31.7472 31.0903 32.0839 31.0903C32.438 31.0903 32.6193 31.3364 32.6193 31.8243C32.6193 32.813 31.9674 33.4866 30.6634 33.8536C30.6634 33.0332 30.8145 32.3683 31.1211 31.8588ZM38.6684 34.3847C38.2194 35.2525 37.7358 35.6843 37.2306 35.6843C37.0234 35.6843 36.8507 35.5979 36.7168 35.4295C36.583 35.2612 36.5139 35.0366 36.5139 34.7603C36.5139 34.0349 36.7427 33.2362 37.1961 32.3726C37.6494 31.5091 38.133 31.0773 38.6425 31.0773C38.8541 31.0773 39.0268 31.155 39.152 31.3191C39.2772 31.4789 39.342 31.7034 39.342 31.9883C39.342 32.7224 39.1175 33.5211 38.6684 34.389V34.3847Z" fill="#010101"/>
<path d="M33.3278 26.8807C33.3926 26.9714 33.4228 27.088 33.4228 27.2262C33.4228 27.3643 33.384 27.4895 33.3062 27.6061C33.2285 27.7227 33.1163 27.8177 32.9651 27.8824C32.8183 27.9472 32.6499 27.9817 32.4643 27.9817C32.1534 27.9817 31.9203 27.917 31.7562 27.7875C31.5921 27.6579 31.4885 27.4679 31.4453 27.2132L31.8469 27.1484C31.8684 27.3082 31.9332 27.4334 32.0325 27.5154C32.1361 27.6018 32.2786 27.645 32.4643 27.645C32.6499 27.645 32.7881 27.6061 32.8788 27.5327C32.9695 27.4593 33.0126 27.3686 33.0126 27.265C33.0126 27.1743 32.9738 27.1009 32.8917 27.0491C32.8356 27.0146 32.6974 26.9671 32.4772 26.911C32.1793 26.8376 31.9764 26.7728 31.8598 26.7167C31.7432 26.6605 31.6569 26.5871 31.6007 26.4878C31.5446 26.3885 31.5101 26.2849 31.5101 26.1683C31.5101 26.0604 31.536 25.9654 31.5835 25.8747C31.631 25.784 31.7001 25.7106 31.7821 25.6502C31.8469 25.6027 31.9289 25.5638 32.0368 25.5336C32.1448 25.5034 32.2614 25.4861 32.3866 25.4861C32.5722 25.4861 32.7363 25.512 32.8788 25.5682C33.0213 25.62 33.1249 25.6934 33.194 25.7884C33.2631 25.879 33.3062 26.0042 33.3321 26.1597L32.9349 26.2115C32.9176 26.0906 32.8658 25.9913 32.7795 25.9222C32.6931 25.8531 32.5722 25.8186 32.4125 25.8186C32.2268 25.8186 32.093 25.8488 32.0152 25.9093C31.9375 25.9697 31.8944 26.0431 31.8944 26.1251C31.8944 26.177 31.9116 26.2245 31.9418 26.2676C31.9764 26.3108 32.0282 26.3453 32.0973 26.3756C32.1361 26.3885 32.257 26.4231 32.4557 26.4792C32.7406 26.5569 32.9392 26.6174 33.0558 26.6649C33.1681 26.7123 33.2587 26.7858 33.3235 26.8764L33.3278 26.8807ZM35.2578 27.5025C35.1499 27.6018 35.0204 27.6493 34.8606 27.6493C34.662 27.6493 34.5022 27.5759 34.3813 27.4334C34.2604 27.2909 34.1957 27.0534 34.1957 26.7339C34.1957 26.4144 34.2604 26.1856 34.3857 26.0431C34.5109 25.9006 34.6793 25.8229 34.8822 25.8229C35.016 25.8229 35.1326 25.8618 35.2276 25.9438C35.3226 26.0258 35.3874 26.1467 35.4262 26.3065L35.8191 26.246C35.7716 26.0042 35.668 25.8186 35.5039 25.6891C35.3399 25.5595 35.1283 25.4948 34.8692 25.4948C34.662 25.4948 34.4763 25.5423 34.2993 25.6416C34.1266 25.7366 33.9927 25.8834 33.9107 26.0777C33.8244 26.2719 33.7812 26.4965 33.7812 26.7555C33.7812 27.1528 33.8805 27.4593 34.0791 27.6709C34.2777 27.8824 34.5411 27.9904 34.8649 27.9904C35.124 27.9904 35.3442 27.9127 35.5255 27.7572C35.7026 27.6018 35.8148 27.3859 35.858 27.1139L35.4608 27.0621C35.4305 27.265 35.3658 27.4118 35.2578 27.5111V27.5025ZM36.2034 27.9256H36.6093V25.5423H36.2034V27.9256ZM36.2034 25.0975H36.6093V24.6312H36.2034V25.0975ZM39.1092 25.5379H38.5868L37.6282 26.5094V24.6312H37.2224V27.9213H37.6282V26.9757L37.9132 26.7037L38.7033 27.9213H39.2042L38.1982 26.4231L39.1092 25.5379ZM39.5237 25.0975H39.9296V24.6312H39.5237V25.0975ZM39.5237 27.9256H39.9296V25.5423H39.5237V27.9256ZM41.4278 27.5629C41.3544 27.5716 41.294 27.5802 41.2508 27.5802C41.1903 27.5802 41.1428 27.5716 41.1126 27.55C41.0824 27.5284 41.0565 27.5025 41.0435 27.4723C41.0306 27.4377 41.0219 27.3643 41.0219 27.2521V25.8574H41.4278V25.5423H41.0219V24.7089L40.6204 24.9507V25.5423H40.3225V25.8574H40.6204V27.2305C40.6204 27.4723 40.6377 27.632 40.6679 27.7054C40.7024 27.7831 40.7586 27.8436 40.8363 27.8868C40.9183 27.9343 41.0306 27.9558 41.1774 27.9558C41.268 27.9558 41.3674 27.9429 41.4839 27.9213L41.4235 27.5629H41.4278Z" fill="white"/>
</g>
</svg>
