<svg width="117" height="81" viewBox="0 0 117 81" fill="none" xmlns="http://www.w3.org/2000/svg">
<mask id="mask0_6571_17288" style="mask-type:alpha" maskUnits="userSpaceOnUse" x="0" y="0" width="118" height="81">
<rect x="0.335938" y="0.333008" width="116.667" height="80" fill="#D9D9D9"/>
</mask>
<g mask="url(#mask0_6571_17288)">
</g>
<g clip-path="url(#clip0_6571_17288)">
<path d="M69.6829 47.9974C74.5681 43.1125 75.38 36.0046 71.4962 32.1211C67.6131 28.2381 60.5054 29.0499 55.6205 33.9345C50.7356 38.8192 52.1487 48.1517 53.8075 49.8108C55.1479 51.1512 64.7983 52.882 69.6829 47.9974Z" fill="#F89939"/>
<path d="M49.6402 40.939C46.8062 38.105 42.6819 37.6332 40.4282 39.8868C38.175 42.1401 38.6461 46.265 41.4807 49.0985C44.3152 51.9334 49.7304 51.1134 50.6921 50.1508C51.4705 49.3737 52.4751 43.7733 49.6402 40.939Z" fill="#3499CD"/>
<path d="M59.4191 46.7998C58.9185 47.2607 58.4793 47.6008 58.1018 47.8193C57.7243 48.0386 57.3643 48.148 57.0218 48.148C56.6277 48.148 56.3098 47.9953 56.0688 47.6897C55.8273 47.3837 55.707 46.9735 55.707 46.4574C55.707 45.6842 55.8746 44.7559 56.2098 43.6735C56.5445 42.5903 56.952 41.5921 57.4305 40.679L58.8338 40.1594C58.8778 40.1447 58.9113 40.1372 58.9335 40.1372C59.0399 40.1372 59.1279 40.2157 59.1954 40.3719C59.2637 40.5288 59.298 40.7397 59.298 41.0048C59.298 41.7561 59.125 42.4835 58.7784 43.187C58.432 43.8907 57.8908 44.6418 57.1543 45.441C57.1247 45.8241 57.11 46.0872 57.11 46.231C57.11 46.5516 57.1689 46.8053 57.2867 46.9933C57.4047 47.1815 57.5611 47.275 57.7564 47.275C57.9556 47.275 58.1672 47.2037 58.3919 47.0601C58.6162 46.9161 58.9587 46.6181 59.419 46.1648V46.7998H59.4191ZM57.3035 44.6402C57.7711 44.1202 58.1509 43.537 58.4416 42.8919C58.7324 42.2464 58.8777 41.6912 58.8777 41.2261C58.8777 41.0905 58.8576 40.9803 58.8174 40.8975C58.7769 40.8145 58.7249 40.7729 58.6625 40.7729C58.5267 40.7729 58.3284 41.1121 58.0686 41.7908C57.8089 42.4692 57.5539 43.4192 57.3035 44.6402Z" fill="#010101"/>
<path d="M63.552 46.8002C63.0844 47.261 62.6647 47.6011 62.2925 47.8196C61.9204 48.0389 61.5102 48.1484 61.0606 48.1484C60.5597 48.1484 60.1555 47.9881 59.8476 47.668C59.5402 47.3471 59.3867 46.9258 59.3867 46.4026C59.3867 45.622 59.6572 44.9157 60.1992 44.2841C60.7401 43.6522 61.3407 43.3364 61.9999 43.3364C62.3424 43.3364 62.6165 43.4251 62.823 43.6018C63.0293 43.7788 63.1324 44.0106 63.1324 44.2979C63.1324 45.0605 62.3223 45.6789 60.7017 46.1541C60.8489 46.872 61.2337 47.2314 61.8562 47.2314C62.0994 47.2314 62.3312 47.1661 62.552 47.0357C62.7734 46.9047 63.1065 46.6142 63.5522 46.1652L63.552 46.8002ZM60.6572 45.7784C61.5998 45.513 62.0714 45.0234 62.0714 44.3089C62.0714 43.9554 61.9423 43.7787 61.6849 43.7787C61.4417 43.7787 61.2099 43.9634 60.9891 44.334C60.7675 44.7039 60.6572 45.1851 60.6572 45.7784Z" fill="#010101"/>
<path d="M69.4508 46.8001C68.8614 47.3599 68.4397 47.725 68.1858 47.8946C67.9317 48.0639 67.6886 48.1484 67.4564 48.1484C66.8744 48.1484 66.6002 47.6348 66.6332 46.6071C66.265 47.1336 65.925 47.5222 65.6138 47.7731C65.3028 48.0235 64.9816 48.1484 64.6497 48.1484C64.326 48.1484 64.0508 47.9969 63.8239 47.6929C63.597 47.389 63.4844 47.0163 63.4844 46.5739C63.4844 46.0218 63.636 45.495 63.9396 44.9938C64.2438 44.4929 64.6332 44.0881 65.1082 43.7788C65.5832 43.4694 66.0035 43.3145 66.3677 43.3145C66.8282 43.3145 67.1506 43.5263 67.3348 43.9497L68.4639 43.3257H68.7737L68.2861 44.9442C68.0357 45.7584 67.91 46.3165 67.91 46.6184C67.91 46.935 68.0221 47.0933 68.247 47.0933C68.3901 47.0933 68.5484 47.017 68.7217 46.864C68.8949 46.711 69.1375 46.478 69.4505 46.165V46.8001H69.4508ZM65.4068 47.1043C65.775 47.1043 66.1221 46.7904 66.4486 46.1626C66.7746 45.5344 66.9374 44.9549 66.9374 44.4247C66.9374 44.2187 66.891 44.0573 66.7994 43.9415C66.7069 43.8251 66.5836 43.7674 66.4293 43.7674C66.0608 43.7674 65.7114 44.0804 65.3824 44.7066C65.0528 45.3329 64.8877 45.9093 64.8877 46.4355C64.8877 46.6347 64.9367 46.7958 65.0342 46.9192C65.1317 47.0427 65.2555 47.1043 65.4068 47.1043Z" fill="#010101"/>
<path d="M73.5779 46.8002C72.6534 47.7062 71.9406 48.1595 71.4398 48.1595C71.2149 48.1595 71.0251 48.0646 70.8707 47.8755C70.7164 47.6857 70.6387 47.4507 70.6387 47.1706C70.6387 46.6514 70.917 45.9556 71.4731 45.0825C71.2003 45.2226 70.9023 45.3198 70.5781 45.3752C70.3386 45.8171 69.9628 46.2924 69.451 46.8001H69.3242V46.3035C69.6113 46.0052 69.871 45.6846 70.1031 45.342C69.7859 45.2019 69.6278 44.9938 69.6278 44.718C69.6278 44.434 69.7242 44.1313 69.918 43.8086C70.1113 43.4867 70.3773 43.3257 70.7164 43.3257C71.0037 43.3257 71.1471 43.4725 71.1471 43.7673C71.1471 43.9994 71.0643 44.3307 70.8983 44.7619C71.5096 44.6954 72.0437 44.228 72.5006 43.3586L73.0032 43.3364L72.4894 44.7506C72.2759 45.3473 72.1377 45.7538 72.0753 45.969C72.0128 46.1842 71.9812 46.3752 71.9812 46.5406C71.9812 46.6955 72.0173 46.8193 72.0888 46.9107C72.1607 47.0035 72.2576 47.049 72.379 47.049C72.5114 47.049 72.6388 47.0038 72.7603 46.914C72.8817 46.823 73.1543 46.5738 73.5781 46.165V46.8002H73.5779Z" fill="#010101"/>
<path d="M79.0043 46.8C78.1536 47.6991 77.4239 48.1483 76.8165 48.1483C76.5697 48.1483 76.3708 48.0618 76.2198 47.8885C76.0685 47.7156 75.9931 47.4837 75.9931 47.1927C75.9931 46.7987 76.1554 46.1963 76.4796 45.3864C76.6525 44.9517 76.7394 44.6751 76.7394 44.5576C76.7394 44.4397 76.6929 44.3807 76.6013 44.3807C76.5498 44.3807 76.4813 44.4066 76.3968 44.4578C76.3191 44.5093 76.2289 44.5817 76.1258 44.6736C76.0339 44.7581 75.9305 44.8613 75.8164 44.9824C75.7167 45.0864 75.6098 45.2041 75.4963 45.3362L75.1865 45.6957C75.0505 45.8613 74.9657 46.0359 74.9326 46.2203C74.8771 46.5333 74.8405 46.8209 74.8219 47.0827C74.8106 47.2774 74.8053 47.5405 74.8053 47.8727L73.5843 48.1594C73.5441 47.6622 73.5234 47.292 73.5234 47.0492C73.5234 46.4562 73.5925 45.8944 73.7309 45.3642C73.8689 44.8334 74.0906 44.2371 74.3965 43.5739L75.7443 43.3145C75.4608 44.077 75.2749 44.6771 75.1865 45.1151C75.7906 44.4412 76.2694 43.9748 76.6244 43.7147C76.9788 43.4549 77.2944 43.3257 77.5702 43.3257C77.7575 43.3257 77.9142 43.3964 78.039 43.5379C78.1643 43.6795 78.2266 43.8574 78.2266 44.07C78.2266 44.4232 78.0682 45.0052 77.7519 45.8158C77.5344 46.3717 77.4257 46.7325 77.4257 46.8991C77.4257 47.1208 77.5161 47.2315 77.697 47.2315C77.9663 47.2315 78.4024 46.876 79.0043 46.1652V46.8Z" fill="#010101"/>
<path d="M62.3054 39.7975L62.0043 39.8828C61.9853 39.8326 61.9574 39.7838 61.9205 39.7365C61.8845 39.6882 61.8352 39.6484 61.7727 39.6171C61.7102 39.5859 61.6302 39.5703 61.5327 39.5703C61.3991 39.5703 61.2879 39.601 61.1989 39.6626C61.1108 39.7232 61.0668 39.8004 61.0668 39.8941C61.0668 39.9775 61.0971 40.0433 61.1577 40.0916C61.2183 40.1399 61.313 40.1801 61.4418 40.2123L61.7656 40.2919C61.9607 40.3392 62.1061 40.4117 62.2017 40.5092C62.2973 40.6058 62.3452 40.7303 62.3452 40.8828C62.3452 41.0078 62.3092 41.1195 62.2372 41.218C62.1662 41.3165 62.0668 41.3941 61.9389 41.4509C61.8111 41.5078 61.6624 41.5362 61.4929 41.5362C61.2704 41.5362 61.0862 41.4879 60.9403 41.3913C60.7945 41.2947 60.7022 41.1536 60.6634 40.968L60.9815 40.8884C61.0118 41.0059 61.0691 41.0939 61.1534 41.1527C61.2386 41.2114 61.3499 41.2407 61.4872 41.2407C61.6435 41.2407 61.7675 41.2076 61.8594 41.1413C61.9522 41.0741 61.9986 40.9936 61.9986 40.8998C61.9986 40.8241 61.9721 40.7606 61.919 40.7095C61.866 40.6574 61.7846 40.6186 61.6747 40.593L61.3111 40.5078C61.1113 40.4604 60.9645 40.387 60.8707 40.2876C60.7779 40.1872 60.7315 40.0617 60.7315 39.9112C60.7315 39.7881 60.7661 39.6792 60.8352 39.5845C60.9053 39.4898 61.0005 39.4154 61.1207 39.3615C61.242 39.3075 61.3793 39.2805 61.5327 39.2805C61.7486 39.2805 61.9181 39.3278 62.0412 39.4225C62.1652 39.5172 62.2533 39.6422 62.3054 39.7975ZM63.7362 41.5362C63.5316 41.5362 63.3555 41.4879 63.2077 41.3913C63.06 41.2947 62.9464 41.1617 62.8668 40.9921C62.7873 40.8226 62.7475 40.629 62.7475 40.4112C62.7475 40.1896 62.7882 39.994 62.8697 39.8245C62.9521 39.6541 63.0666 39.521 63.2134 39.4254C63.3612 39.3288 63.5335 39.2805 63.7305 39.2805C63.8839 39.2805 64.0221 39.3089 64.1452 39.3657C64.2683 39.4225 64.3692 39.5021 64.4478 39.6044C64.5264 39.7066 64.5752 39.8259 64.5941 39.9623H64.2589C64.2333 39.8629 64.1765 39.7748 64.0884 39.6981C64.0013 39.6205 63.8839 39.5816 63.7362 39.5816C63.6055 39.5816 63.4909 39.6157 63.3924 39.6839C63.2949 39.7511 63.2186 39.8463 63.1637 39.9694C63.1097 40.0916 63.0827 40.235 63.0827 40.3998C63.0827 40.5684 63.1093 40.7152 63.1623 40.8402C63.2163 40.9652 63.292 41.0622 63.3896 41.1313C63.488 41.2005 63.6036 41.235 63.7362 41.235C63.8233 41.235 63.9023 41.2199 63.9734 41.1896C64.0444 41.1593 64.1045 41.1157 64.1538 41.0589C64.203 41.0021 64.238 40.9339 64.2589 40.8544H64.5941C64.5752 40.9831 64.5283 41.0992 64.4535 41.2024C64.3796 41.3046 64.2816 41.3861 64.1594 41.4467C64.0382 41.5063 63.8971 41.5362 63.7362 41.5362ZM65.0842 41.4907V39.3089H65.4194V41.4907H65.0842ZM65.2546 38.9453C65.1893 38.9453 65.1329 38.923 65.0856 38.8785C65.0392 38.834 65.016 38.7805 65.016 38.718C65.016 38.6555 65.0392 38.602 65.0856 38.5575C65.1329 38.513 65.1893 38.4907 65.2546 38.4907C65.32 38.4907 65.3758 38.513 65.4222 38.5575C65.4696 38.602 65.4933 38.6555 65.4933 38.718C65.4933 38.7805 65.4696 38.834 65.4222 38.8785C65.3758 38.923 65.32 38.9453 65.2546 38.9453ZM66.3459 40.6953L66.3402 40.2805H66.4084L67.3629 39.3089H67.7777L66.7607 40.3373H66.7322L66.3459 40.6953ZM66.0334 41.4907V38.5816H66.3686V41.4907H66.0334ZM67.4197 41.4907L66.5675 40.4112L66.8061 40.1782L67.8459 41.4907H67.4197ZM68.2092 41.4907V39.3089H68.5444V41.4907H68.2092ZM68.3796 38.9453C68.3143 38.9453 68.2579 38.923 68.2106 38.8785C68.1642 38.834 68.141 38.7805 68.141 38.718C68.141 38.6555 68.1642 38.602 68.2106 38.5575C68.2579 38.513 68.3143 38.4907 68.3796 38.4907C68.445 38.4907 68.5008 38.513 68.5472 38.5575C68.5946 38.602 68.6183 38.6555 68.6183 38.718C68.6183 38.7805 68.5946 38.834 68.5472 38.8785C68.5008 38.923 68.445 38.9453 68.3796 38.9453ZM70.1072 39.3089V39.593H68.9766V39.3089H70.1072ZM69.3061 38.7862H69.6413V40.8657C69.6413 40.9604 69.6551 41.0314 69.6825 41.0788C69.7109 41.1252 69.7469 41.1564 69.7905 41.1725C69.835 41.1877 69.8819 41.1953 69.9311 41.1953C69.968 41.1953 69.9983 41.1934 70.022 41.1896C70.0457 41.1849 70.0646 41.1811 70.0788 41.1782L70.147 41.4794C70.1243 41.4879 70.0926 41.4964 70.0518 41.5049C70.0111 41.5144 69.9595 41.5191 69.897 41.5191C69.8023 41.5191 69.7095 41.4988 69.6186 41.4581C69.5286 41.4173 69.4538 41.3553 69.3942 41.272C69.3355 41.1886 69.3061 41.0835 69.3061 40.9566V38.7862Z" fill="white"/>
</g>
<defs>
<clipPath id="clip0_6571_17288">
<rect width="40" height="21.5721" fill="white" transform="translate(39.0039 29.6665)"/>
</clipPath>
</defs>
</svg>
