<svg width="117" height="81" viewBox="0 0 117 81" fill="none" xmlns="http://www.w3.org/2000/svg">
<mask id="mask0_6572_17388" style="mask-type:alpha" maskUnits="userSpaceOnUse" x="0" y="0" width="118" height="81">
<rect x="0.335938" y="0.333008" width="116.667" height="80" fill="#D9D9D9"/>
</mask>
<g mask="url(#mask0_6572_17388)">
<path d="M59.1252 23.3237C54.6465 23.3238 50.3513 25.103 47.1844 28.2699C44.0175 31.4368 42.2384 35.732 42.2383 40.2107C42.2384 44.6893 44.0176 48.9844 47.1845 52.1513C50.3514 55.3181 54.6466 57.0972 59.1252 57.0973C63.5666 57.0971 67.8294 55.3473 70.9895 52.2267C74.1501 49.1061 75.954 44.8661 76.0106 40.425L76.012 40.2105L76.0106 39.996C75.954 35.5549 74.1501 31.3149 70.9895 28.1943C67.8294 25.0737 63.5666 23.3239 59.1252 23.3237Z" fill="white"/>
<path d="M55.2684 33.0179C55.3538 33.0179 55.4384 33.001 55.5173 32.9684C55.5962 32.9357 55.6679 32.8878 55.7283 32.8274C55.7887 32.767 55.8366 32.6953 55.8693 32.6164C55.902 32.5374 55.9188 32.4529 55.9188 32.3675C55.9188 32.2821 55.902 32.1974 55.8693 32.1185C55.8366 32.0396 55.7887 31.9679 55.7283 31.9076C55.6679 31.8471 55.5962 31.7992 55.5173 31.7666C55.4384 31.7339 55.3538 31.717 55.2684 31.717C55.0959 31.717 54.9304 31.7856 54.8084 31.9076C54.6864 32.0295 54.6179 32.195 54.6179 32.3675C54.6179 32.54 54.6864 32.7055 54.8084 32.8275C54.9304 32.9495 55.0959 33.0179 55.2684 33.0179ZM53.8677 33.9986C54.0348 33.9986 54.195 33.9322 54.3132 33.8141C54.4313 33.6959 54.4977 33.5357 54.4977 33.3686C54.4977 33.2016 54.4313 33.0413 54.3132 32.9232C54.195 32.805 54.0348 32.7386 53.8677 32.7386C53.7007 32.7386 53.5404 32.805 53.4223 32.9232C53.3042 33.0413 53.2378 33.2016 53.2378 33.3686C53.2378 33.5357 53.3042 33.6959 53.4223 33.8141C53.5404 33.9322 53.7007 33.9986 53.8677 33.9986ZM52.5204 34.6226C52.5991 34.6238 52.6772 34.6094 52.7501 34.5801C52.8232 34.5508 52.8896 34.5073 52.9456 34.4521C53.0017 34.3969 53.0462 34.3312 53.0765 34.2586C53.1069 34.1861 53.1225 34.1082 53.1225 34.0295C53.1225 33.9509 53.1069 33.873 53.0765 33.8005C53.0462 33.7279 53.0017 33.6621 52.9456 33.607C52.8896 33.5518 52.8232 33.5083 52.7501 33.479C52.6772 33.4497 52.5991 33.4353 52.5204 33.4365C52.3632 33.4365 52.2123 33.499 52.101 33.6102C51.9898 33.7214 51.9273 33.8723 51.9273 34.0296C51.9273 34.1869 51.9898 34.3378 52.101 34.449C52.2123 34.5602 52.3632 34.6226 52.5204 34.6226ZM56.4499 32.2431C56.5387 32.2444 56.6268 32.228 56.7092 32.1949C56.7915 32.1618 56.8665 32.1127 56.9297 32.0504C56.9929 31.9881 57.0431 31.9138 57.0773 31.8319C57.1116 31.7501 57.1292 31.6622 57.1292 31.5734C57.1292 31.4846 57.1116 31.3968 57.0773 31.3149C57.0431 31.233 56.9929 31.1588 56.9297 31.0965C56.8665 31.0342 56.7915 30.985 56.7092 30.9519C56.6268 30.9188 56.5387 30.9024 56.4499 30.9037C56.2746 30.9072 56.1078 30.9793 55.985 31.1045C55.8623 31.2297 55.7936 31.398 55.7936 31.5734C55.7936 31.7487 55.8623 31.917 55.985 32.0422C56.1078 32.1674 56.2746 32.2396 56.4499 32.2431ZM51.5095 33.2163C51.6289 33.2163 51.7434 33.1689 51.8278 33.0844C51.9122 33.0001 51.9596 32.8856 51.9596 32.7662C51.9596 32.6469 51.9122 32.5324 51.8278 32.4479C51.7434 32.3636 51.6289 32.3161 51.5095 32.3161C51.3901 32.3161 51.2757 32.3636 51.1913 32.4479C51.1069 32.5324 51.0595 32.6469 51.0595 32.7662C51.0595 32.8856 51.1069 33.0001 51.1913 33.0844C51.2757 33.1689 51.3901 33.2163 51.5095 33.2163ZM50.3984 35.6815C50.5402 35.6815 50.6762 35.6251 50.7765 35.5249C50.8767 35.4246 50.9331 35.2886 50.9331 35.1468C50.9331 35.005 50.8767 34.869 50.7765 34.7688C50.6762 34.6685 50.5402 34.6122 50.3984 34.6122C50.2566 34.6122 50.1206 34.6685 50.0203 34.7688C49.9201 34.869 49.8637 35.005 49.8637 35.1468C49.8637 35.2886 49.9201 35.4246 50.0203 35.5249C50.1206 35.6251 50.2566 35.6815 50.3984 35.6815ZM51.0785 31.4481C51.2493 31.4481 51.4132 31.3802 51.534 31.2594C51.6548 31.1386 51.7227 30.9748 51.7227 30.8039C51.7227 30.6331 51.6548 30.4692 51.534 30.3484C51.4132 30.2276 51.2493 30.1597 51.0785 30.1597C50.9076 30.1597 50.7438 30.2276 50.623 30.3484C50.5022 30.4692 50.4343 30.6331 50.4343 30.8039C50.4343 30.9748 50.5022 31.1386 50.623 31.2594C50.7438 31.3802 50.9076 31.4481 51.0785 31.4481ZM52.8169 32.6537C52.8833 32.6553 52.9493 32.6436 53.0111 32.6192C53.0729 32.5949 53.1292 32.5584 53.1767 32.512C53.2243 32.4656 53.262 32.4101 53.2878 32.3489C53.3136 32.2877 53.3268 32.222 53.3268 32.1555C53.3268 32.0891 53.3136 32.0234 53.2878 31.9621C53.262 31.9009 53.2243 31.8455 53.1767 31.799C53.1292 31.7527 53.0729 31.7162 53.0111 31.6919C52.9493 31.6675 52.8833 31.6557 52.8169 31.6573C52.6867 31.6604 52.563 31.7142 52.472 31.8073C52.3811 31.9004 52.3302 32.0254 52.3302 32.1555C52.3302 32.2857 52.3811 32.4107 52.472 32.5038C52.563 32.5969 52.6867 32.6507 52.8169 32.6537ZM61.4085 31.1667C61.563 31.1667 61.7112 31.1053 61.8205 30.996C61.9297 30.8868 61.9911 30.7386 61.9911 30.584C61.9911 30.4295 61.9297 30.2813 61.8205 30.1721C61.7112 30.0628 61.563 30.0014 61.4085 30.0014C61.254 30.0014 61.1058 30.0628 60.9965 30.1721C60.8872 30.2813 60.8258 30.4295 60.8258 30.584C60.8258 30.7386 60.8872 30.8868 60.9965 30.996C61.1058 31.1053 61.254 31.1667 61.4085 31.1667ZM49.1891 34.2551C49.2355 34.2551 49.2814 34.2459 49.3243 34.2282C49.3671 34.2104 49.406 34.1844 49.4388 34.1517C49.4716 34.1189 49.4976 34.0799 49.5154 34.0371C49.5331 33.9942 49.5423 33.9483 49.5423 33.9019C49.5423 33.8555 49.5331 33.8096 49.5154 33.7667C49.4976 33.7239 49.4716 33.685 49.4388 33.6522C49.406 33.6194 49.3671 33.5934 49.3243 33.5756C49.2814 33.5579 49.2355 33.5487 49.1891 33.5487C49.0954 33.5487 49.0056 33.5859 48.9393 33.6522C48.8731 33.7184 48.8359 33.8082 48.8359 33.9019C48.8359 33.9956 48.8731 34.0854 48.9393 34.1517C49.0056 34.2179 49.0954 34.2551 49.1891 34.2551ZM50.3625 33.9225C50.4184 33.9239 50.4741 33.9141 50.5262 33.8937C50.5782 33.8733 50.6257 33.8427 50.6657 33.8036C50.7058 33.7646 50.7376 33.7179 50.7594 33.6663C50.7811 33.6148 50.7923 33.5594 50.7923 33.5035C50.7923 33.4476 50.7811 33.3922 50.7594 33.3407C50.7376 33.2891 50.7058 33.2424 50.6657 33.2034C50.6257 33.1643 50.5782 33.1337 50.5262 33.1133C50.4741 33.0929 50.4184 33.0831 50.3625 33.0845C50.2527 33.0865 50.148 33.1315 50.071 33.2099C49.994 33.2883 49.9509 33.3937 49.9509 33.5036C49.9509 33.6134 49.994 33.7189 50.071 33.7972C50.148 33.8756 50.2527 33.9205 50.3625 33.9225ZM48.2227 32.5947C48.2964 32.5959 48.3696 32.5823 48.438 32.5549C48.5064 32.5275 48.5687 32.4868 48.6212 32.4351C48.6737 32.3834 48.7154 32.3218 48.7439 32.2538C48.7724 32.1858 48.787 32.1128 48.787 32.0391C48.787 31.9654 48.7724 31.8925 48.7439 31.8245C48.7154 31.7565 48.6737 31.6949 48.6212 31.6432C48.5687 31.5915 48.5064 31.5507 48.438 31.5233C48.3696 31.496 48.2964 31.4824 48.2227 31.4836C48.0769 31.4859 47.9378 31.5454 47.8355 31.6493C47.7331 31.7533 47.6758 31.8933 47.6758 32.0391C47.6758 32.185 47.7331 32.325 47.8355 32.4289C47.9378 32.5329 48.0769 32.5924 48.2227 32.5947ZM50.4086 32.3497C50.4471 32.3506 50.4854 32.3437 50.5213 32.3295C50.5572 32.3153 50.5898 32.2941 50.6174 32.2672C50.645 32.2402 50.6669 32.208 50.6818 32.1724C50.6968 32.1369 50.7045 32.0987 50.7045 32.0601C50.7045 32.0215 50.6968 31.9834 50.6818 31.9478C50.6669 31.9123 50.645 31.8801 50.6174 31.8531C50.5898 31.8261 50.5572 31.8049 50.5213 31.7908C50.4854 31.7766 50.4471 31.7697 50.4086 31.7705C50.3329 31.7722 50.2608 31.8034 50.2078 31.8575C50.1548 31.9117 50.1252 31.9844 50.1252 32.0601C50.1252 32.1358 50.1548 32.2086 50.2078 32.2627C50.2608 32.3168 50.3329 32.3481 50.4086 32.3497ZM54.2863 31.8982C54.3573 31.8982 54.4276 31.8842 54.4932 31.8571C54.5588 31.8299 54.6184 31.7901 54.6686 31.7399C54.7188 31.6897 54.7587 31.6301 54.7858 31.5644C54.813 31.4989 54.827 31.4285 54.827 31.3576C54.827 31.2866 54.813 31.2162 54.7858 31.1507C54.7587 31.0851 54.7188 31.0255 54.6686 30.9753C54.6184 30.925 54.5588 30.8852 54.4932 30.858C54.4276 30.8309 54.3573 30.8169 54.2863 30.8169C54.1429 30.8169 54.0054 30.8738 53.904 30.9753C53.8026 31.0767 53.7456 31.2142 53.7456 31.3576C53.7456 31.501 53.8026 31.6385 53.904 31.7399C54.0054 31.8413 54.1429 31.8982 54.2863 31.8982ZM58.3936 32.2112C58.4556 32.2123 58.5171 32.2009 58.5746 32.178C58.6322 32.155 58.6845 32.1208 58.7287 32.0774C58.7729 32.0339 58.808 31.9821 58.8319 31.925C58.8559 31.8679 58.8682 31.8065 58.8682 31.7446C58.8682 31.6827 58.8559 31.6213 58.8319 31.5642C58.808 31.507 58.7729 31.4552 58.7287 31.4118C58.6845 31.3684 58.6322 31.3342 58.5746 31.3112C58.5171 31.2882 58.4556 31.277 58.3936 31.278C58.2718 31.2809 58.156 31.3314 58.0709 31.4186C57.9858 31.5057 57.9382 31.6227 57.9382 31.7445C57.9382 31.8664 57.9858 31.9834 58.0709 32.0705C58.156 32.1577 58.2718 32.2082 58.3936 32.2112ZM59.2477 29.3002C59.2878 29.3002 59.3275 29.2923 59.3646 29.2769C59.4016 29.2616 59.4353 29.2391 59.4637 29.2107C59.492 29.1824 59.5145 29.1487 59.5298 29.1117C59.5452 29.0746 59.5531 29.0349 59.5531 28.9948C59.5531 28.9547 59.5452 28.915 59.5298 28.878C59.5145 28.8409 59.492 28.8072 59.4637 28.7789C59.4353 28.7505 59.4016 28.728 59.3646 28.7127C59.3275 28.6973 59.2878 28.6895 59.2477 28.6895C59.1667 28.6895 59.0891 28.7216 59.0318 28.7789C58.9745 28.8361 58.9423 28.9138 58.9423 28.9948C58.9423 29.0758 58.9745 29.1535 59.0318 29.2107C59.0891 29.268 59.1667 29.3002 59.2477 29.3002ZM60.2405 31.0581C60.3758 31.0581 60.5056 31.0043 60.6013 30.9086C60.697 30.8129 60.7507 30.6832 60.7507 30.5478C60.7507 30.4125 60.697 30.2827 60.6013 30.187C60.5056 30.0913 60.3758 30.0375 60.2405 30.0375C60.1052 30.0375 59.9754 30.0913 59.8797 30.187C59.784 30.2827 59.7302 30.4125 59.7302 30.5478C59.7302 30.6832 59.784 30.8129 59.8797 30.9086C59.9754 31.0043 60.1052 31.0581 60.2405 31.0581ZM55.1429 30.7604C55.2819 30.7604 55.4153 30.7052 55.5136 30.6069C55.6119 30.5085 55.6672 30.3751 55.6672 30.2361C55.6672 30.097 55.6119 29.9637 55.5136 29.8653C55.4153 29.767 55.2819 29.7117 55.1429 29.7117C55.0038 29.7117 54.8704 29.767 54.7721 29.8653C54.6738 29.9637 54.6185 30.097 54.6185 30.2361C54.6185 30.3751 54.6738 30.5085 54.7721 30.6069C54.8704 30.7052 55.0038 30.7604 55.1429 30.7604ZM48.5747 35.7995C48.6875 35.7995 48.7958 35.7547 48.8756 35.6749C48.9554 35.5951 49.0002 35.4869 49.0002 35.3741C49.0002 35.2612 48.9554 35.153 48.8756 35.0732C48.7958 34.9934 48.6875 34.9486 48.5747 34.9486C48.4618 34.9486 48.3536 34.9934 48.2738 35.0732C48.1941 35.153 48.1492 35.2612 48.1492 35.3741C48.1492 35.4869 48.1941 35.5951 48.2738 35.6749C48.3536 35.7547 48.4618 35.7995 48.5747 35.7995Z" fill="#AFDAD2" stroke="white" stroke-width="1.57505"/>
<path d="M62.5885 31.2778C62.7603 31.2778 62.9252 31.2096 63.0467 31.0881C63.1682 30.9666 63.2365 30.8017 63.2365 30.6299C63.2365 30.458 63.1682 30.2932 63.0467 30.1717C62.9252 30.0502 62.7603 29.9819 62.5885 29.9819C62.4166 29.9819 62.2518 30.0502 62.1303 30.1717C62.0088 30.2932 61.9405 30.458 61.9405 30.6299C61.9405 30.8017 62.0088 30.9666 62.1303 31.0881C62.2518 31.2096 62.4166 31.2778 62.5885 31.2778ZM56.336 30.839C56.4141 30.839 56.4915 30.8236 56.5636 30.7937C56.6357 30.7638 56.7013 30.72 56.7566 30.6648C56.8118 30.6095 56.8556 30.544 56.8855 30.4718C56.9154 30.3996 56.9308 30.3223 56.9308 30.2442C56.9308 30.1661 56.9154 30.0888 56.8855 30.0166C56.8556 29.9444 56.8118 29.8789 56.7566 29.8236C56.7013 29.7684 56.6357 29.7246 56.5636 29.6947C56.4915 29.6648 56.4141 29.6494 56.336 29.6494C56.1782 29.6494 56.027 29.7121 55.9154 29.8236C55.8039 29.9352 55.7412 30.0865 55.7412 30.2442C55.7412 30.4019 55.8039 30.5532 55.9154 30.6648C56.027 30.7763 56.1782 30.839 56.336 30.839ZM49.4256 31.3183C49.5719 31.3183 49.7121 31.2603 49.8156 31.1568C49.919 31.0534 49.9771 30.9132 49.9771 30.7669C49.9771 30.6207 49.919 30.4804 49.8156 30.377C49.7121 30.2736 49.5719 30.2155 49.4256 30.2155C49.2794 30.2155 49.1391 30.2736 49.0357 30.377C48.9323 30.4804 48.8742 30.6207 48.8742 30.7669C48.8742 30.9132 48.9323 31.0534 49.0357 31.1568C49.1391 31.2603 49.2794 31.3183 49.4256 31.3183ZM52.4945 29.8947C52.6636 29.8947 52.8258 29.8275 52.9453 29.7079C53.0649 29.5884 53.1321 29.4262 53.1321 29.2571C53.1321 29.088 53.0649 28.9258 52.9453 28.8063C52.8258 28.6867 52.6636 28.6195 52.4945 28.6195C52.3254 28.6195 52.1633 28.6867 52.0437 28.8063C51.9241 28.9258 51.857 29.088 51.857 29.2571C51.857 29.4262 51.9241 29.5884 52.0437 29.7079C52.1633 29.8275 52.3254 29.8947 52.4945 29.8947ZM64.4555 30.7533C64.56 30.7533 64.6601 30.7117 64.734 30.6379C64.8079 30.5641 64.8494 30.4639 64.8494 30.3594C64.8494 30.255 64.8079 30.1549 64.734 30.081C64.6601 30.0071 64.56 29.9656 64.4555 29.9656C64.3511 29.9656 64.2509 30.0071 64.1771 30.081C64.1032 30.1549 64.0617 30.255 64.0617 30.3594C64.0617 30.4639 64.1032 30.5641 64.1771 30.6379C64.2509 30.7117 64.3511 30.7533 64.4555 30.7533ZM50.7388 29.1451C50.8053 29.1462 50.8713 29.1341 50.933 29.1094C50.9948 29.0847 51.051 29.048 51.0984 29.0014C51.1458 28.9547 51.1835 28.8991 51.2092 28.8378C51.2349 28.7765 51.2481 28.7106 51.2481 28.6442C51.2481 28.5776 51.2349 28.5118 51.2092 28.4505C51.1835 28.3891 51.1458 28.3336 51.0984 28.2869C51.051 28.2403 50.9948 28.2036 50.933 28.1789C50.8713 28.1542 50.8053 28.142 50.7388 28.1431C50.6074 28.1453 50.482 28.199 50.3898 28.2927C50.2976 28.3865 50.246 28.5127 50.246 28.6442C50.246 28.7756 50.2976 28.9018 50.3898 28.9955C50.482 29.0892 50.6074 29.143 50.7388 29.1451ZM52.9977 31.3886C53.1108 31.3886 53.2192 31.3437 53.2992 31.2638C53.3791 31.1838 53.4241 31.0754 53.4241 30.9623C53.4241 30.8493 53.3791 30.7408 53.2992 30.6609C53.2192 30.5809 53.1108 30.536 52.9977 30.536C52.8847 30.536 52.7762 30.5809 52.6963 30.6609C52.6163 30.7409 52.5714 30.8493 52.5714 30.9624C52.5714 31.0755 52.6163 31.1839 52.6963 31.2639C52.7762 31.3438 52.8847 31.3886 52.9977 31.3886ZM54.019 30.4635C54.0765 30.4645 54.1336 30.454 54.1871 30.4327C54.2405 30.4114 54.2892 30.3797 54.3302 30.3393C54.3713 30.299 54.4038 30.2509 54.4261 30.1978C54.4483 30.1448 54.4598 30.0878 54.4598 30.0303C54.4598 29.9728 54.4483 29.9158 54.4261 29.8627C54.4038 29.8097 54.3713 29.7616 54.3302 29.7213C54.2892 29.6809 54.2405 29.6492 54.1871 29.6279C54.1336 29.6066 54.0765 29.5961 54.019 29.5972C53.9054 29.5992 53.7972 29.6457 53.7176 29.7267C53.638 29.8077 53.5934 29.9167 53.5934 30.0303C53.5934 30.1439 53.638 30.2529 53.7176 30.3339C53.7972 30.4149 53.9054 30.4614 54.019 30.4635ZM47.3296 31.5637C47.4452 31.5637 47.5561 31.5178 47.6379 31.436C47.7197 31.3543 47.7657 31.2433 47.7657 31.1277C47.7657 31.012 47.7197 30.9011 47.6379 30.8193C47.5561 30.7376 47.4452 30.6916 47.3296 30.6916C47.2139 30.6916 47.103 30.7376 47.0213 30.8193C46.9395 30.9011 46.8935 31.012 46.8935 31.1277C46.8935 31.2433 46.9395 31.3543 47.0213 31.436C47.103 31.5178 47.2139 31.5637 47.3296 31.5637ZM48.5305 29.8681C48.6366 29.8681 48.7383 29.826 48.8134 29.751C48.8884 29.6759 48.9305 29.5742 48.9305 29.4681C48.9305 29.362 48.8884 29.2602 48.8134 29.1852C48.7383 29.1102 48.6366 29.0681 48.5305 29.0681C48.4244 29.0681 48.3226 29.1102 48.2476 29.1852C48.1726 29.2602 48.1304 29.362 48.1304 29.4681C48.1304 29.5742 48.1726 29.6759 48.2476 29.751C48.3226 29.826 48.4244 29.8681 48.5305 29.8681ZM57.7599 31.1101C57.8489 31.1101 57.9341 31.0747 57.997 31.0119C58.0599 30.949 58.0953 30.8637 58.0953 30.7748C58.0953 30.6859 58.0599 30.6006 57.997 30.5377C57.9341 30.4748 57.8489 30.4395 57.7599 30.4395C57.671 30.4395 57.5857 30.4748 57.5229 30.5377C57.46 30.6006 57.4246 30.6859 57.4246 30.7748C57.4246 30.8637 57.46 30.949 57.5229 31.0119C57.5857 31.0747 57.671 31.1101 57.7599 31.1101ZM47.0219 33.7712C47.1689 33.7712 47.3098 33.7128 47.4138 33.6089C47.5177 33.5049 47.5761 33.364 47.5761 33.217C47.5761 33.07 47.5177 32.9291 47.4138 32.8251C47.3098 32.7212 47.1689 32.6628 47.0219 32.6628C46.8749 32.6628 46.734 32.7212 46.63 32.8251C46.5261 32.9291 46.4677 33.07 46.4677 33.217C46.4677 33.364 46.5261 33.5049 46.63 33.6089C46.734 33.7128 46.8749 33.7712 47.0219 33.7712ZM45.7842 32.8368C45.8395 32.8378 45.8945 32.8278 45.9459 32.8073C45.9974 32.7868 46.0442 32.7563 46.0837 32.7175C46.1232 32.6787 46.1545 32.6324 46.1759 32.5814C46.1974 32.5303 46.2084 32.4756 46.2084 32.4202C46.2084 32.3648 46.1974 32.3101 46.1759 32.259C46.1545 32.208 46.1232 32.1617 46.0837 32.1229C46.0442 32.0841 45.9974 32.0536 45.9459 32.0331C45.8945 32.0126 45.8395 32.0026 45.7842 32.0036C45.675 32.0056 45.5709 32.0503 45.4944 32.1282C45.4178 32.2061 45.375 32.311 45.375 32.4202C45.375 32.5294 45.4178 32.6343 45.4944 32.7122C45.5709 32.7901 45.675 32.8348 45.7842 32.8368ZM58.9036 31.0127C59.0147 31.0127 59.1213 30.9685 59.1999 30.89C59.2785 30.8113 59.3227 30.7048 59.3227 30.5936C59.3227 30.4824 59.2785 30.3758 59.1999 30.2972C59.1213 30.2186 59.0147 30.1745 58.9036 30.1745C58.7924 30.1745 58.6858 30.2186 58.6072 30.2972C58.5286 30.3758 58.4844 30.4824 58.4844 30.5936C58.4844 30.7048 58.5286 30.8113 58.6072 30.89C58.6858 30.9685 58.7924 31.0127 58.9036 31.0127ZM49.3761 33.1888C49.5474 33.1888 49.7118 33.1207 49.8329 32.9995C49.9541 32.8784 50.0222 32.714 50.0222 32.5427C50.0222 32.3713 49.9541 32.207 49.8329 32.0858C49.7118 31.9647 49.5474 31.8966 49.3761 31.8966C49.2047 31.8966 49.0404 31.9647 48.9192 32.0858C48.7981 32.207 48.73 32.3713 48.73 32.5427C48.73 32.714 48.7981 32.8784 48.9192 32.9995C49.0404 33.1207 49.2047 33.1888 49.3761 33.1888Z" fill="#AFDAD2" stroke="white" stroke-width="1.57505"/>
<path d="M63.6069 30.2518C63.6928 30.253 63.778 30.2372 63.8577 30.2052C63.9374 30.1732 64.0099 30.1257 64.071 30.0654C64.1321 30.0052 64.1807 29.9333 64.2138 29.8542C64.247 29.775 64.264 29.69 64.264 29.6041C64.264 29.5183 64.247 29.4333 64.2138 29.3541C64.1807 29.2749 64.1321 29.2031 64.071 29.1428C64.0099 29.0826 63.9374 29.0351 63.8577 29.003C63.778 28.9711 63.6928 28.9553 63.6069 28.9565C63.4368 28.9589 63.2745 29.0283 63.155 29.1495C63.0356 29.2706 62.9686 29.434 62.9686 29.6041C62.9686 29.7743 63.0356 29.9376 63.155 30.0588C63.2745 30.18 63.4368 30.2493 63.6069 30.2518ZM47.3642 36.3545C47.4639 36.3545 47.5595 36.3149 47.6301 36.2444C47.7005 36.1739 47.7401 36.0783 47.7401 35.9786C47.7401 35.8789 47.7005 35.7833 47.6301 35.7127C47.5595 35.6423 47.4639 35.6026 47.3642 35.6026C47.2645 35.6026 47.1689 35.6423 47.0984 35.7127C47.0279 35.7833 46.9883 35.8789 46.9883 35.9786C46.9883 36.0783 47.0279 36.1739 47.0984 36.2444C47.1689 36.3149 47.2645 36.3545 47.3642 36.3545ZM56.7543 29.0219C56.8228 29.023 56.891 29.0105 56.9546 28.985C57.0183 28.9595 57.0763 28.9216 57.1252 28.8735C57.1741 28.8254 57.2129 28.7681 57.2394 28.7048C57.2659 28.6416 57.2795 28.5736 57.2795 28.505C57.2795 28.4365 57.2659 28.3686 57.2394 28.3053C57.2129 28.2421 57.1741 28.1847 57.1252 28.1366C57.0763 28.0885 57.0183 28.0506 56.9546 28.0251C56.891 27.9997 56.8228 27.9871 56.7543 27.9882C56.6186 27.9904 56.4893 28.0458 56.3942 28.1425C56.2991 28.2392 56.2457 28.3694 56.2457 28.505C56.2457 28.6407 56.2991 28.7709 56.3942 28.8676C56.4893 28.9643 56.6186 29.0197 56.7543 29.0219ZM67.4921 29.7337C67.6325 29.7337 67.7664 29.6781 67.8659 29.579C67.9649 29.48 68.0205 29.3457 68.0205 29.2056C68.0205 29.0656 67.9649 28.9313 67.8659 28.8323C67.7664 28.7333 67.6325 28.6777 67.4921 28.6777C67.3521 28.6777 67.2177 28.7333 67.1187 28.8323C67.0198 28.9313 66.9641 29.0656 66.9641 29.2056C66.9641 29.3457 67.0198 29.48 67.1187 29.579C67.2177 29.6781 67.3521 29.7337 67.4921 29.7337ZM60.4689 29.4647C60.5804 29.4647 60.6873 29.4204 60.7662 29.3416C60.845 29.2627 60.8893 29.1558 60.8893 29.0442C60.8893 28.9327 60.845 28.8258 60.7662 28.7469C60.6873 28.668 60.5804 28.6238 60.4689 28.6238C60.3573 28.6238 60.2504 28.668 60.1715 28.7469C60.0927 28.8258 60.0483 28.9327 60.0483 29.0442C60.0483 29.1558 60.0927 29.2627 60.1715 29.3416C60.2504 29.4204 60.3573 29.4647 60.4689 29.4647ZM51.3037 35.0106C51.4491 35.0106 51.5885 34.9528 51.6913 34.8501C51.794 34.7473 51.8518 34.6079 51.8518 34.4625C51.8518 34.3172 51.794 34.1778 51.6913 34.075C51.5885 33.9723 51.4491 33.9145 51.3037 33.9145C51.1584 33.9145 51.019 33.9723 50.9162 34.075C50.8134 34.1778 50.7557 34.3172 50.7557 34.4625C50.7557 34.6079 50.8134 34.7473 50.9162 34.8501C51.019 34.9528 51.1584 35.0106 51.3037 35.0106ZM61.8947 29.6456C62.0339 29.6456 62.1674 29.5904 62.2657 29.492C62.3642 29.3935 62.4194 29.26 62.4194 29.1209C62.4194 28.9817 62.3642 28.8483 62.2657 28.7498C62.1674 28.6514 62.0339 28.5961 61.8947 28.5961C61.7555 28.5961 61.622 28.6514 61.5236 28.7498C61.4252 28.8483 61.3699 28.9817 61.3699 29.1209C61.3699 29.26 61.4252 29.3935 61.5236 29.492C61.622 29.5904 61.7555 29.6456 61.8947 29.6456ZM65.6103 30.1571C65.7258 30.1571 65.8361 30.1113 65.9177 30.0297C65.9992 29.9482 66.0454 29.8376 66.0454 29.7222C66.0454 29.6069 65.9992 29.4962 65.9177 29.4147C65.8361 29.3332 65.7258 29.2873 65.6103 29.2873C65.4949 29.2873 65.3846 29.3332 65.303 29.4147C65.2215 29.4962 65.1753 29.6069 65.1753 29.7222C65.1753 29.8376 65.2215 29.9482 65.303 30.0297C65.3846 30.1113 65.4949 30.1571 65.6103 30.1571ZM69.7155 31.0997C69.8192 31.0997 69.9192 31.0583 69.9927 30.9848C70.0662 30.9113 70.1077 30.8116 70.1077 30.7076C70.1077 30.6036 70.0662 30.5039 69.9927 30.4304C69.9192 30.3569 69.8192 30.3156 69.7155 30.3156C69.6114 30.3156 69.5119 30.3569 69.4384 30.4304C69.3648 30.5039 69.3233 30.6036 69.3233 30.7076C69.3233 30.8116 69.3648 30.9113 69.4384 30.9848C69.5119 31.0583 69.6114 31.0997 69.7155 31.0997ZM55.0473 28.2194C55.1369 28.2194 55.2228 28.1838 55.2862 28.1205C55.3496 28.0571 55.3852 27.9711 55.3852 27.8815C55.3852 27.7919 55.3496 27.706 55.2862 27.6426C55.2228 27.5792 55.1369 27.5436 55.0473 27.5436C54.9577 27.5436 54.8717 27.5792 54.8084 27.6426C54.745 27.706 54.7094 27.7919 54.7094 27.8815C54.7094 27.9711 54.745 28.0571 54.8084 28.1205C54.8717 28.1838 54.9577 28.2194 55.0473 28.2194ZM58.119 27.292C58.2502 27.292 58.376 27.2399 58.4688 27.1472C58.5615 27.0544 58.6136 26.9286 58.6136 26.7974C58.6136 26.6662 58.5615 26.5404 58.4688 26.4477C58.376 26.3549 58.2502 26.3028 58.119 26.3028C57.9878 26.3028 57.862 26.3549 57.7693 26.4477C57.6765 26.5404 57.6244 26.6662 57.6244 26.7974C57.6244 26.9286 57.6765 27.0544 57.7693 27.1472C57.862 27.2399 57.9878 27.292 58.119 27.292ZM69.6279 29.9433C69.8008 29.9433 69.9668 29.8747 70.0889 29.7524C70.2109 29.6302 70.2798 29.4645 70.2798 29.2917C70.2798 29.1188 70.2109 28.9531 70.0889 28.8309C69.9668 28.7087 69.8008 28.64 69.6279 28.64C69.4553 28.64 69.2894 28.7087 69.1673 28.8309C69.0452 28.9531 68.9764 29.1188 68.9764 29.2917C68.9764 29.4645 69.0452 29.6302 69.1673 29.7524C69.2894 29.8747 69.4553 29.9433 69.6279 29.9433ZM57.3727 30.2095C57.5361 30.2095 57.6927 30.1447 57.8082 30.0292C57.9237 29.9137 57.9885 29.7571 57.9885 29.5937C57.9885 29.4304 57.9237 29.2738 57.8082 29.1583C57.6927 29.0428 57.5361 28.9779 57.3727 28.9779C57.2094 28.9779 57.0528 29.0428 56.9373 29.1583C56.8218 29.2738 56.7569 29.4304 56.7569 29.5937C56.7569 29.7571 56.8218 29.9137 56.9373 30.0292C57.0528 30.1447 57.2094 30.2095 57.3727 30.2095ZM59.6509 27.902C59.8138 27.902 59.9701 27.8373 60.0853 27.722C60.2005 27.6068 60.2652 27.4506 60.2652 27.2876C60.2652 27.1247 60.2005 26.9684 60.0853 26.8532C59.9701 26.738 59.8138 26.6733 59.6509 26.6733C59.488 26.6733 59.3318 26.738 59.2166 26.8532C59.1014 26.9684 59.0366 27.1247 59.0366 27.2876C59.0366 27.4505 59.1014 27.6067 59.2166 27.7219C59.3318 27.8371 59.488 27.902 59.6509 27.902ZM64.9759 28.6502C65.0603 28.6514 65.1442 28.6359 65.2224 28.6044C65.3007 28.573 65.3718 28.5263 65.4322 28.4671C65.492 28.4078 65.5401 28.3373 65.5726 28.2595C65.6052 28.1816 65.6217 28.0981 65.6217 28.0138C65.6217 27.9294 65.6052 27.8459 65.5726 27.7681C65.5401 27.6902 65.492 27.6197 65.4322 27.5604C65.3718 27.5012 65.3007 27.4545 65.2224 27.4231C65.1442 27.3917 65.0603 27.3761 64.9759 27.3773C64.809 27.3798 64.6494 27.4479 64.532 27.567C64.4146 27.6861 64.3489 27.8466 64.3489 28.0138C64.3489 28.181 64.4146 28.3414 64.532 28.4605C64.6494 28.5796 64.809 28.6477 64.9759 28.6502ZM71.5642 32.6506C71.6444 32.6523 71.724 32.638 71.7985 32.6085C71.873 32.579 71.9413 32.5349 71.9984 32.4788C72.0559 32.4226 72.1011 32.3556 72.1322 32.2817C72.1634 32.2078 72.1794 32.1283 72.1794 32.0482C72.1794 31.9679 72.1634 31.8885 72.1322 31.8146C72.1011 31.7406 72.0559 31.6737 71.9984 31.6175C71.9413 31.5614 71.873 31.5173 71.7985 31.4878C71.724 31.4583 71.6444 31.444 71.5642 31.4457C71.4063 31.449 71.2564 31.514 71.1461 31.6266C71.0358 31.7392 70.9741 31.8905 70.9741 32.0482C70.9741 32.2057 71.0358 32.3571 71.1461 32.4697C71.2564 32.5823 71.4063 32.6473 71.5642 32.6506ZM57.98 25.3569C58.0251 25.3569 58.0699 25.348 58.1116 25.3307C58.1533 25.3134 58.1912 25.2881 58.2232 25.2561C58.2551 25.2242 58.2805 25.1863 58.2977 25.1445C58.315 25.1028 58.3239 25.0581 58.3239 25.0129C58.3239 24.9677 58.315 24.923 58.2977 24.8813C58.2805 24.8395 58.2551 24.8016 58.2232 24.7697C58.1912 24.7378 58.1533 24.7124 58.1116 24.6951C58.0699 24.6778 58.0251 24.6689 57.98 24.6689C57.8887 24.6689 57.8012 24.7052 57.7367 24.7697C57.6722 24.8342 57.636 24.9217 57.636 25.0129C57.636 25.1041 57.6722 25.1916 57.7367 25.2561C57.8012 25.3206 57.8887 25.3569 57.98 25.3569Z" fill="#AFDAD2" stroke="white" stroke-width="1.57505"/>
<path d="M63.4755 29.0083C63.6287 29.0083 63.7756 28.9474 63.884 28.8391C63.9923 28.7308 64.0532 28.5838 64.0532 28.4306C64.0532 28.2774 63.9923 28.1305 63.884 28.0221C63.7756 27.9138 63.6287 27.8529 63.4755 27.8529C63.3238 27.8552 63.1791 27.9171 63.0727 28.0252C62.9662 28.1333 62.9066 28.2789 62.9066 28.4305C62.9066 28.5822 62.9662 28.7278 63.0727 28.8359C63.1791 28.944 63.3238 29.006 63.4755 29.0083ZM62.7026 27.8987C62.7638 27.8987 62.8245 27.8866 62.8811 27.8632C62.9376 27.8398 62.989 27.8054 63.0323 27.7621C63.0756 27.7188 63.11 27.6674 63.1334 27.6109C63.1568 27.5543 63.1689 27.4937 63.1689 27.4325C63.1689 27.3712 63.1568 27.3106 63.1334 27.254C63.11 27.1974 63.0756 27.146 63.0323 27.1028C62.989 27.0595 62.9376 27.0251 62.8811 27.0017C62.8245 26.9782 62.7638 26.9662 62.7026 26.9662C62.579 26.9662 62.4604 27.0153 62.3729 27.1028C62.2855 27.1902 62.2364 27.3088 62.2364 27.4325C62.2364 27.5561 62.2855 27.6747 62.3729 27.7621C62.4604 27.8496 62.579 27.8987 62.7026 27.8987ZM60.3596 26.8836C60.4381 26.8836 60.516 26.8681 60.5886 26.838C60.6611 26.808 60.7271 26.7639 60.7826 26.7084C60.8382 26.6528 60.8823 26.5868 60.9123 26.5143C60.9424 26.4417 60.9579 26.3639 60.9579 26.2853C60.9579 26.2067 60.9424 26.1289 60.9123 26.0563C60.8823 25.9838 60.8382 25.9178 60.7826 25.8622C60.7271 25.8067 60.6611 25.7626 60.5886 25.7326C60.516 25.7025 60.4381 25.687 60.3596 25.687C60.2009 25.687 60.0487 25.75 59.9365 25.8622C59.8243 25.9744 59.7613 26.1266 59.7613 26.2853C59.7613 26.444 59.8243 26.5962 59.9365 26.7084C60.0487 26.8206 60.2009 26.8836 60.3596 26.8836ZM53.7604 29.3232C53.8485 29.3232 53.9357 29.3058 54.0171 29.2721C54.0984 29.2384 54.1723 29.189 54.2346 29.1268C54.2969 29.0645 54.3463 28.9906 54.38 28.9092C54.4137 28.8279 54.431 28.7407 54.431 28.6526C54.431 28.5645 54.4137 28.4773 54.38 28.3959C54.3463 28.3146 54.2969 28.2407 54.2346 28.1784C54.1723 28.1161 54.0984 28.0667 54.0171 28.033C53.9357 27.9993 53.8485 27.982 53.7604 27.982C53.5826 27.982 53.412 28.0526 53.2862 28.1784C53.1605 28.3042 53.0898 28.4747 53.0898 28.6526C53.0898 28.8305 53.1605 29.001 53.2862 29.1268C53.412 29.2525 53.5826 29.3232 53.7604 29.3232ZM49.6229 28.3357C49.6714 28.3366 49.7197 28.3279 49.7648 28.31C49.8099 28.292 49.851 28.2653 49.8857 28.2312C49.9204 28.1973 49.9479 28.1567 49.9667 28.1119C49.9855 28.0672 49.9952 28.0191 49.9952 27.9705C49.9952 27.922 49.9855 27.8739 49.9667 27.8292C49.9479 27.7844 49.9204 27.7438 49.8857 27.7098C49.851 27.6758 49.8099 27.6491 49.7648 27.6311C49.7197 27.6132 49.6714 27.6045 49.6229 27.6054C49.5273 27.6072 49.4362 27.6465 49.3692 27.7148C49.3023 27.7831 49.2647 27.8749 49.2647 27.9705C49.2647 28.0662 49.3023 28.158 49.3692 28.2263C49.4362 28.2946 49.5273 28.3339 49.6229 28.3357ZM51.3591 28.0909C51.4847 28.0909 51.6051 28.041 51.694 27.9522C51.7828 27.8634 51.8326 27.743 51.8326 27.6174C51.8326 27.4918 51.7828 27.3713 51.694 27.2826C51.6051 27.1938 51.4847 27.1439 51.3591 27.1439C51.2336 27.1439 51.1131 27.1938 51.0243 27.2826C50.9355 27.3713 50.8856 27.4918 50.8856 27.6174C50.8856 27.743 50.9355 27.8634 51.0243 27.9522C51.1131 28.041 51.2336 28.0909 51.3591 28.0909ZM67.2662 30.9591C67.344 30.9603 67.4209 30.946 67.4925 30.9172C67.5641 30.8884 67.6297 30.8456 67.6848 30.7913C67.74 30.737 67.7838 30.6723 67.8135 30.6009C67.8437 30.5295 67.8588 30.4529 67.8588 30.3755C67.8588 30.2981 67.8437 30.2215 67.8135 30.1501C67.7838 30.0786 67.74 30.0139 67.6848 29.9596C67.6297 29.9053 67.5641 29.8625 67.4925 29.8337C67.4209 29.8049 67.344 29.7907 67.2662 29.7919C67.1116 29.7919 66.9632 29.8534 66.8538 29.9628C66.7444 30.0723 66.6827 30.2207 66.6827 30.3755C66.6827 30.5303 66.7444 30.6788 66.8538 30.7882C66.9632 30.8977 67.1116 30.9591 67.2662 30.9591ZM60.864 27.883C60.95 27.883 61.0324 27.8489 61.0932 27.7881C61.154 27.7273 61.1881 27.6449 61.1881 27.5589C61.1881 27.473 61.154 27.3906 61.0932 27.3298C61.0324 27.269 60.95 27.2349 60.864 27.2349C60.7781 27.2349 60.6956 27.269 60.6349 27.3298C60.5741 27.3906 60.54 27.473 60.54 27.5589C60.54 27.6449 60.5741 27.7273 60.6349 27.7881C60.6956 27.8489 60.7781 27.883 60.864 27.883ZM53.9828 27.9483C54.1458 27.9483 54.3021 27.8835 54.4174 27.7682C54.5327 27.653 54.5975 27.4966 54.5975 27.3336C54.5975 27.1706 54.5327 27.0142 54.4174 26.8989C54.3021 26.7837 54.1458 26.7189 53.9828 26.7189C53.8197 26.7189 53.6634 26.7837 53.5481 26.8989C53.4328 27.0142 53.3681 27.1706 53.3681 27.3336C53.3681 27.4966 53.4328 27.653 53.5481 27.7682C53.6634 27.8835 53.8197 27.9483 53.9828 27.9483ZM44.964 35.4825C45.0342 35.4825 45.1037 35.4687 45.1685 35.4418C45.2334 35.415 45.2923 35.3756 45.3419 35.326C45.3915 35.2764 45.4309 35.2174 45.4577 35.1526C45.4846 35.0878 45.4984 35.0183 45.4984 34.9482C45.4984 34.878 45.4846 34.8085 45.4577 34.7436C45.4309 34.6788 45.3915 34.6199 45.3419 34.5703C45.2923 34.5207 45.2334 34.4813 45.1685 34.4544C45.1037 34.4276 45.0342 34.4138 44.964 34.4138C44.8223 34.4138 44.6864 34.4701 44.5862 34.5703C44.486 34.6705 44.4297 34.8064 44.4297 34.9482C44.4297 35.0898 44.486 35.2258 44.5862 35.326C44.6864 35.4262 44.8223 35.4825 44.964 35.4825ZM46.3876 35.6669C46.5523 35.6669 46.7102 35.6015 46.8266 35.4851C46.9431 35.3687 47.0085 35.2107 47.0085 35.0461C47.0085 34.8814 46.9431 34.7235 46.8266 34.607C46.7102 34.4905 46.5523 34.4252 46.3876 34.4252C46.2229 34.4252 46.065 34.4905 45.9485 34.607C45.8321 34.7235 45.7667 34.8814 45.7667 35.0461C45.7667 35.2107 45.8321 35.3687 45.9485 35.4851C46.065 35.6015 46.2229 35.6669 46.3876 35.6669ZM51.4048 30.1932C51.4832 30.1932 51.5609 30.1778 51.6334 30.1478C51.7059 30.1178 51.7718 30.0737 51.8273 30.0183C51.8827 29.9628 51.9268 29.8969 51.9568 29.8244C51.9868 29.7519 52.0022 29.6743 52.0022 29.5958C52.0022 29.5173 51.9868 29.4396 51.9568 29.3672C51.9268 29.2947 51.8827 29.2288 51.8273 29.1733C51.7718 29.1178 51.7059 29.0738 51.6334 29.0438C51.5609 29.0138 51.4832 28.9983 51.4048 28.9983C51.2463 28.9983 51.0943 29.0613 50.9822 29.1733C50.8702 29.2854 50.8072 29.4374 50.8072 29.5959C50.8072 29.7543 50.8702 29.9063 50.9822 30.0184C51.0943 30.1305 51.2463 30.1932 51.4048 30.1932ZM45.1397 34.1524C45.2625 34.1524 45.3803 34.1036 45.4672 34.0168C45.554 33.9299 45.6028 33.8121 45.6028 33.6893C45.6028 33.5664 45.554 33.4486 45.4672 33.3618C45.3803 33.2749 45.2625 33.2261 45.1397 33.2261C45.0168 33.2261 44.899 33.2749 44.8122 33.3618C44.7253 33.4486 44.6765 33.5664 44.6765 33.6893C44.6765 33.8121 44.7253 33.9299 44.8122 34.0168C44.899 34.1036 45.0168 34.1524 45.1397 34.1524ZM63.8129 27.4297C63.9474 27.4297 64.0763 27.3763 64.1713 27.2813C64.2663 27.1862 64.3197 27.0573 64.3197 26.9229C64.3197 26.7885 64.2663 26.6596 64.1713 26.5646C64.0763 26.4695 63.9474 26.4161 63.8129 26.4161C63.6785 26.4161 63.5496 26.4695 63.4546 26.5646C63.3595 26.6596 63.3061 26.7885 63.3061 26.9229C63.3061 27.0573 63.3595 27.1862 63.4546 27.2813C63.5496 27.3763 63.6785 27.4297 63.8129 27.4297ZM49.7049 29.5577C49.8271 29.5577 49.9445 29.5091 50.031 29.4226C50.1174 29.3362 50.166 29.2189 50.166 29.0965C50.166 28.9743 50.1174 28.8569 50.031 28.7704C49.9445 28.684 49.8271 28.6354 49.7049 28.6354C49.5825 28.6354 49.4653 28.684 49.3788 28.7704C49.2923 28.8569 49.2437 28.9742 49.2437 29.0965C49.2437 29.2188 49.2923 29.336 49.3788 29.4225C49.4653 29.509 49.5825 29.5577 49.7049 29.5577Z" fill="#AFDAD2" stroke="white" stroke-width="1.57505"/>
<path d="M47.4667 35.1123C47.6382 35.1123 47.8027 35.0441 47.924 34.9229C48.0453 34.8016 48.1135 34.6371 48.1135 34.4655C48.1135 34.294 48.0453 34.1295 47.924 34.0082C47.8027 33.8869 47.6382 33.8188 47.4667 33.8188C47.2951 33.8188 47.1306 33.8869 47.0094 34.0082C46.8881 34.1295 46.8199 34.294 46.8199 34.4655C46.8199 34.6371 46.8881 34.8016 47.0094 34.9229C47.1306 35.0441 47.2951 35.1123 47.4667 35.1123ZM68.4921 30.7109C68.576 30.7121 68.6595 30.6966 68.7372 30.6653C68.815 30.634 68.8862 30.5875 68.9461 30.5285C69.0059 30.4696 69.0535 30.3993 69.0856 30.3218C69.1181 30.2443 69.1351 30.1612 69.1351 30.0772C69.1351 29.9932 69.1181 29.91 69.0856 29.8325C69.0535 29.755 69.0059 29.6847 68.9461 29.6257C68.8862 29.5668 68.815 29.5203 68.7372 29.489C68.6595 29.4577 68.576 29.4422 68.4921 29.4434C68.3238 29.4434 68.1626 29.5102 68.0439 29.6291C67.9251 29.748 67.8581 29.9091 67.8581 30.0772C67.8581 30.2453 67.9251 30.4065 68.0439 30.5253C68.1626 30.6442 68.3238 30.7109 68.4921 30.7109ZM70.7764 30.6354C70.8344 30.6364 70.8919 30.6259 70.9456 30.6045C70.9994 30.583 71.0484 30.5511 71.0899 30.5105C71.1309 30.47 71.1639 30.4215 71.1865 30.3682C71.2086 30.3148 71.22 30.2575 71.22 30.1996C71.22 30.1417 71.2086 30.0844 71.1865 30.031C71.1639 29.9776 71.1309 29.9292 71.0899 29.8886C71.0484 29.8481 70.9994 29.8161 70.9456 29.7947C70.8919 29.7732 70.8344 29.7627 70.7764 29.7637C70.6623 29.7657 70.5534 29.8125 70.4733 29.8941C70.3932 29.9756 70.3484 30.0853 70.3484 30.1996C70.3484 30.3138 70.3932 30.4236 70.4733 30.5051C70.5534 30.5866 70.6623 30.6334 70.7764 30.6354ZM55.7089 29.5567C55.8377 29.5567 55.9611 29.5055 56.0522 29.4145C56.1432 29.3234 56.1944 29.1999 56.1944 29.0712C56.1944 28.9424 56.1432 28.8189 56.0522 28.7279C55.9611 28.6368 55.8377 28.5857 55.7089 28.5857C55.5802 28.5857 55.4567 28.6368 55.3656 28.7279C55.2746 28.8189 55.2234 28.9424 55.2234 29.0712C55.2234 29.1999 55.2746 29.3234 55.3656 29.4145C55.4567 29.5055 55.5802 29.5567 55.7089 29.5567ZM66.3658 29.0109C66.4195 29.0119 66.4732 29.0021 66.5232 28.9821C66.5736 28.9621 66.6194 28.9323 66.658 28.8945C66.6962 28.8566 66.7268 28.8115 66.7481 28.7617C66.7688 28.7118 66.7796 28.6583 66.7796 28.6043C66.7796 28.5503 66.7688 28.4968 66.7481 28.447C66.7268 28.3971 66.6962 28.352 66.658 28.3141C66.6194 28.2763 66.5736 28.2465 66.5232 28.2265C66.4732 28.2065 66.4195 28.1967 66.3658 28.1977C66.2588 28.1997 66.1574 28.2433 66.0829 28.3194C66.008 28.3954 65.9665 28.4977 65.9665 28.6043C65.9665 28.7109 66.008 28.8132 66.0829 28.8893C66.1574 28.9653 66.2588 29.009 66.3658 29.0109ZM66.1909 27.9921C66.3667 27.9921 66.5355 27.9223 66.6599 27.7979C66.7844 27.6735 66.8541 27.5049 66.8541 27.329C66.8541 27.1531 66.7844 26.9844 66.6599 26.8601C66.5355 26.7357 66.3667 26.6658 66.1909 26.6658C66.0151 26.6658 65.8463 26.7357 65.7219 26.8601C65.5974 26.9844 65.5277 27.1531 65.5277 27.329C65.5277 27.5049 65.5974 27.6735 65.7219 27.7979C65.8463 27.9223 66.0151 27.9921 66.1909 27.9921ZM58.015 29.1223C58.1722 29.1223 58.323 29.0599 58.4342 28.9487C58.5454 28.8375 58.6079 28.6867 58.6079 28.5294C58.6079 28.3722 58.5454 28.2214 58.4342 28.1102C58.323 27.999 58.1722 27.9365 58.015 27.9365C57.8577 27.9365 57.7069 27.999 57.5957 28.1102C57.4845 28.2214 57.4221 28.3722 57.4221 28.5294C57.4221 28.6867 57.4845 28.8375 57.5957 28.9487C57.7069 29.0599 57.8577 29.1223 58.015 29.1223ZM70.5435 31.9883C70.6105 31.9883 70.6765 31.9751 70.7382 31.9495C70.8 31.924 70.8561 31.8865 70.9032 31.8393C70.9503 31.7921 70.988 31.736 71.0135 31.6743C71.039 31.6126 71.0521 31.5464 71.0521 31.4796C71.0521 31.4128 71.039 31.3467 71.0135 31.285C70.988 31.2233 70.9503 31.1672 70.9032 31.12C70.8561 31.0727 70.8 31.0353 70.7382 31.0097C70.6765 30.9842 70.6105 30.971 70.5435 30.971C70.4087 30.971 70.2796 31.0246 70.1839 31.12C70.0887 31.2154 70.0349 31.3447 70.0349 31.4796C70.0349 31.6145 70.0887 31.7439 70.1839 31.8393C70.2796 31.9347 70.4087 31.9883 70.5435 31.9883ZM46.2632 36.5806C46.3423 36.5806 46.4182 36.5492 46.4742 36.4933C46.5301 36.4373 46.5615 36.3614 46.5615 36.2823C46.5615 36.2032 46.5301 36.1273 46.4742 36.0714C46.4182 36.0154 46.3423 35.984 46.2632 35.984C46.1841 35.984 46.1082 36.0154 46.0522 36.0714C45.9963 36.1273 45.9648 36.2032 45.9648 36.2823C45.9648 36.3614 45.9963 36.4373 46.0522 36.4933C46.1082 36.5492 46.1841 36.5806 46.2632 36.5806ZM52.5324 28.3089C52.6801 28.3089 52.8217 28.2502 52.9262 28.1458C53.0307 28.0413 53.0893 27.8997 53.0893 27.7519C53.0893 27.6042 53.0307 27.4625 52.9262 27.3581C52.8217 27.2536 52.6801 27.1949 52.5324 27.1949C52.3846 27.1949 52.243 27.2536 52.1385 27.3581C52.034 27.4625 51.9754 27.6042 51.9754 27.7519C51.9754 27.8997 52.034 28.0413 52.1385 28.1458C52.243 28.2502 52.3846 28.3089 52.5324 28.3089ZM56.5978 27.4008C56.6507 27.4017 56.7032 27.3922 56.7523 27.3726C56.8014 27.3531 56.8461 27.3239 56.8839 27.2869C56.9216 27.2499 56.9516 27.2057 56.972 27.1569C56.9925 27.1082 57.003 27.0558 57.003 27.003C57.003 26.9501 56.9925 26.8978 56.972 26.849C56.9516 26.8003 56.9216 26.7561 56.8839 26.7191C56.8461 26.682 56.8014 26.6529 56.7523 26.6333C56.7032 26.6138 56.6507 26.6042 56.5978 26.6052C56.4936 26.6071 56.3943 26.6499 56.3212 26.7242C56.2482 26.7986 56.2073 26.8987 56.2073 27.003C56.2073 27.1072 56.2482 27.2073 56.3212 27.2817C56.3943 27.3561 56.4936 27.3988 56.5978 27.4008ZM68.1428 28.6258C68.2758 28.6258 68.403 28.5731 68.4968 28.4792C68.5906 28.3853 68.6434 28.2579 68.6434 28.1252C68.6434 27.9924 68.5906 27.8651 68.4968 27.7713C68.403 27.6774 68.2758 27.6246 68.1428 27.6246C68.0104 27.6246 67.8826 27.6774 67.7888 27.7713C67.695 27.8651 67.6422 27.9924 67.6422 28.1252C67.6422 28.2579 67.695 28.3853 67.7888 28.4792C67.8826 28.5731 68.0104 28.6258 68.1428 28.6258ZM55.486 26.5975C55.5677 26.5975 55.6487 26.5814 55.7242 26.5501C55.7997 26.5188 55.8684 26.4729 55.9262 26.4151C55.9839 26.3573 56.0298 26.2887 56.0611 26.2132C56.0924 26.1377 56.1085 26.0567 56.1085 25.975C56.1085 25.8933 56.0924 25.8123 56.0611 25.7368C56.0298 25.6613 55.9839 25.5927 55.9262 25.5349C55.8684 25.4771 55.7997 25.4312 55.7242 25.3999C55.6487 25.3686 55.5677 25.3525 55.486 25.3525C55.3209 25.3525 55.1626 25.4181 55.0459 25.5349C54.9291 25.6516 54.8635 25.8099 54.8635 25.975C54.8635 26.1401 54.9291 26.2984 55.0459 26.4151C55.1626 26.5319 55.3209 26.5975 55.486 26.5975Z" fill="#AFDAD2" stroke="white" stroke-width="1.57505"/>
<path d="M65.2502 27.1919C65.4029 27.1919 65.5491 27.1313 65.657 27.0233C65.7649 26.9154 65.8257 26.769 65.8257 26.6163C65.8257 26.4637 65.7649 26.3173 65.657 26.2093C65.5491 26.1014 65.4029 26.0407 65.2502 26.0407C65.0975 26.0407 64.9509 26.1014 64.8429 26.2093C64.7352 26.3172 64.6746 26.4636 64.6746 26.6163C64.6746 26.7689 64.7352 26.9153 64.8429 27.0232C64.9509 27.1312 65.0975 27.1919 65.2502 27.1919ZM52.6798 26.5782C52.8022 26.5782 52.9194 26.5296 53.0059 26.4432C53.0924 26.3567 53.141 26.2394 53.141 26.1171C53.141 25.9948 53.0924 25.8775 53.0059 25.791C52.9194 25.7046 52.8022 25.656 52.6798 25.656C52.5576 25.656 52.4403 25.7046 52.3538 25.791C52.2673 25.8775 52.2188 25.9948 52.2188 26.1171C52.2188 26.2394 52.2673 26.3567 52.3538 26.4432C52.4403 26.5296 52.5576 26.5782 52.6798 26.5782ZM53.7871 26.2218C53.8538 26.2218 53.92 26.2086 53.9817 26.1831C54.0434 26.1575 54.0995 26.12 54.1468 26.0728C54.194 26.0255 54.2315 25.9695 54.2571 25.9077C54.2826 25.846 54.2958 25.7799 54.2958 25.7131C54.2958 25.6463 54.2826 25.5801 54.2571 25.5184C54.2315 25.4567 54.194 25.4006 54.1468 25.3534C54.0995 25.3061 54.0434 25.2687 53.9817 25.2431C53.92 25.2175 53.8538 25.2044 53.7871 25.2044C53.6521 25.2044 53.5228 25.258 53.4273 25.3534C53.3319 25.4488 53.2783 25.5782 53.2783 25.7131C53.2783 25.848 53.3319 25.9774 53.4273 26.0728C53.5228 26.1682 53.6521 26.2218 53.7871 26.2218ZM61.6274 25.5842C61.7856 25.5842 61.9374 25.5213 62.0494 25.4094C62.1613 25.2975 62.2241 25.1457 62.2241 24.9874C62.2241 24.8291 62.1613 24.6773 62.0494 24.5654C61.9374 24.4535 61.7856 24.3906 61.6274 24.3906C61.4691 24.3906 61.3173 24.4535 61.2054 24.5654C61.0935 24.6773 61.0306 24.8291 61.0306 24.9874C61.0306 25.1457 61.0935 25.2975 61.2054 25.4094C61.3173 25.5213 61.4691 25.5842 61.6274 25.5842ZM59.2295 25.7107C59.2905 25.7107 59.3509 25.6987 59.4072 25.6753C59.4636 25.652 59.5148 25.6178 59.5579 25.5747C59.601 25.5315 59.6353 25.4803 59.6586 25.424C59.6819 25.3676 59.694 25.3072 59.694 25.2462C59.694 25.1852 59.6819 25.1248 59.6586 25.0685C59.6353 25.0121 59.601 24.9609 59.5579 24.9178C59.5148 24.8746 59.4636 24.8404 59.4072 24.8171C59.3509 24.7937 59.2905 24.7817 59.2295 24.7817C59.1063 24.7817 58.9881 24.8307 58.901 24.9178C58.8139 25.0049 58.765 25.123 58.765 25.2462C58.765 25.3694 58.8139 25.4875 58.901 25.5747C58.9881 25.6618 59.1063 25.7107 59.2295 25.7107ZM62.8192 26.2776C62.8664 26.2785 62.9133 26.27 62.9573 26.2526C63.0011 26.2351 63.0411 26.2091 63.0748 26.176C63.1086 26.143 63.1353 26.1035 63.1536 26.06C63.1719 26.0164 63.1814 25.9697 63.1814 25.9224C63.1814 25.8752 63.1719 25.8284 63.1536 25.7849C63.1353 25.7414 63.1086 25.7019 63.0748 25.6688C63.0411 25.6358 63.0011 25.6097 62.9573 25.5923C62.9133 25.5749 62.8664 25.5664 62.8192 25.5673C62.7262 25.5691 62.6376 25.6073 62.5725 25.6737C62.5074 25.7401 62.4709 25.8294 62.4709 25.9224C62.4709 26.0154 62.5074 26.1047 62.5725 26.1711C62.6376 26.2375 62.7262 26.2758 62.8192 26.2776Z" fill="#AFDAD2" stroke="white" stroke-width="1.57505"/>
<path d="M61.6356 26.823C61.7221 26.823 61.8078 26.806 61.8877 26.7729C61.9676 26.7398 62.0402 26.6913 62.1014 26.6301C62.1626 26.5689 62.2111 26.4963 62.2442 26.4164C62.2772 26.3365 62.2943 26.2508 62.2943 26.1643C62.2943 26.0778 62.2772 25.9922 62.2442 25.9123C62.2111 25.8324 62.1626 25.7597 62.1014 25.6986C62.0402 25.6374 61.9676 25.5889 61.8877 25.5558C61.8078 25.5227 61.7221 25.5057 61.6356 25.5057C61.4609 25.5057 61.2934 25.5751 61.1699 25.6986C61.0464 25.8221 60.9769 25.9897 60.9769 26.1643C60.9769 26.339 61.0464 26.5066 61.1699 26.6301C61.2934 26.7536 61.4609 26.823 61.6356 26.823ZM64.2497 26.1838C64.3704 26.1838 64.4861 26.1359 64.5715 26.0505C64.6568 25.9652 64.7048 25.8494 64.7048 25.7287C64.7048 25.608 64.6568 25.4922 64.5715 25.4069C64.4861 25.3215 64.3704 25.2735 64.2497 25.2735C64.1289 25.2735 64.0132 25.3215 63.9278 25.4069C63.8424 25.4922 63.7945 25.608 63.7945 25.7287C63.7945 25.8494 63.8424 25.9652 63.9278 26.0505C64.0132 26.1359 64.1289 26.1838 64.2497 26.1838ZM43.8257 37.2867C43.9773 37.2867 44.1227 37.2265 44.23 37.1192C44.3372 37.012 44.3974 36.8666 44.3974 36.7149C44.3974 36.5633 44.3372 36.4179 44.23 36.3107C44.1227 36.2034 43.9773 36.1432 43.8257 36.1432C43.674 36.1432 43.5286 36.2034 43.4214 36.3107C43.3141 36.4179 43.2539 36.5633 43.2539 36.7149C43.2539 36.8666 43.3141 37.012 43.4214 37.1192C43.5286 37.2265 43.674 37.2867 43.8257 37.2867ZM56.7984 26.1447C56.88 26.1447 56.9584 26.1123 57.0161 26.0545C57.0738 25.9968 57.1063 25.9185 57.1063 25.8368C57.1063 25.7552 57.0738 25.6769 57.0161 25.6191C56.9584 25.5614 56.88 25.529 56.7984 25.529C56.7168 25.529 56.6384 25.5614 56.5807 25.6191C56.523 25.6769 56.4905 25.7552 56.4905 25.8368C56.4905 25.9185 56.523 25.9968 56.5807 26.0545C56.6384 26.1123 56.7168 26.1447 56.7984 26.1447ZM67.3733 27.5539C67.4719 27.5539 67.5661 27.5147 67.6359 27.4451C67.7057 27.3754 67.7448 27.2809 67.7448 27.1824C67.7448 27.0838 67.7057 26.9893 67.6359 26.9197C67.5661 26.85 67.4719 26.8108 67.3733 26.8108C67.2748 26.8108 67.1801 26.85 67.1103 26.9196C67.0406 26.9893 67.0014 27.0838 67.0014 27.1823C67.0014 27.2808 67.0406 27.3753 67.1103 27.445C67.1801 27.5146 67.2748 27.5539 67.3733 27.5539ZM60.4304 25.6955C60.5729 25.6955 60.7095 25.6389 60.8102 25.5382C60.911 25.4374 60.9676 25.3008 60.9676 25.1583C60.9676 25.0158 60.911 24.8792 60.8102 24.7784C60.7095 24.6777 60.5729 24.6211 60.4304 24.6211C60.2879 24.6211 60.1513 24.6777 60.0505 24.7784C59.9498 24.8792 59.8931 25.0158 59.8931 25.1583C59.8931 25.3008 59.9498 25.4374 60.0505 25.5382C60.1513 25.6389 60.2879 25.6955 60.4304 25.6955ZM48.1624 33.8532C48.2437 33.8532 48.3242 33.8372 48.3993 33.8061C48.4743 33.775 48.5426 33.7294 48.6001 33.6719C48.6576 33.6145 48.7032 33.5462 48.7343 33.4711C48.7654 33.396 48.7814 33.3155 48.7814 33.2342C48.7814 33.153 48.7654 33.0724 48.7343 32.9974C48.7032 32.9223 48.6576 32.854 48.6001 32.7966C48.5426 32.739 48.4743 32.6935 48.3993 32.6624C48.3242 32.6312 48.2437 32.6152 48.1624 32.6152C47.9982 32.6152 47.8408 32.6805 47.7247 32.7966C47.6086 32.9126 47.5434 33.07 47.5434 33.2342C47.5434 33.3984 47.6086 33.5558 47.7247 33.6719C47.8408 33.788 47.9982 33.8532 48.1624 33.8532Z" fill="#AFDAD2" stroke="white" stroke-width="1.57505"/>
<path d="M65.2783 30.9297L64.6395 30.9146L64.0006 30.9292L63.3619 30.9736L62.7234 31.0471L62.0856 31.1491L61.4483 31.2779L60.812 31.4323L60.1768 31.6102L59.5425 31.8098L58.9093 32.0286L58.2772 32.2644L57.6462 32.5147L57.0161 32.7768L56.387 33.0484L55.7588 33.3268L55.1315 33.6094L53.8794 34.1782L53.2546 34.46L52.6304 34.7373L52.0067 35.0085L51.3838 35.2718L50.7614 35.5262L50.1394 35.7701L49.5178 36.003L48.8967 36.2237L48.2758 36.432L47.6551 36.6275L47.0348 36.8101L46.4143 36.9796L45.794 37.1364L45.1737 37.2805L44.5532 37.4124L43.9327 37.5324L43.3119 37.6413L42.631 37.749L42.601 37.9561C42.3979 39.3579 42.3753 40.78 42.5338 42.1875L42.5771 42.5725L43.4763 42.1734L44.1033 41.8906L45.3554 41.3219L45.9802 41.0402L46.6043 40.7637L47.2275 40.4947L47.8496 40.2358L48.4709 39.9894L49.0912 39.7581L49.7103 39.5441L50.3283 39.3495L50.9454 39.1766L51.5615 39.0272L52.1764 38.9026L52.7906 38.8047L53.404 38.734L54.0168 38.6913L54.6293 38.6772L55.2417 38.692L55.854 38.7351L56.4669 38.8063L57.0804 38.9048L57.6944 39.0295L58.3095 39.1791L58.9255 39.3521L59.5425 39.5465L60.1605 39.7604L60.7798 39.9915L61.4 40.2376L62.0212 40.4962L62.6435 40.7648L63.2665 41.041L63.8905 41.3222L65.1412 41.8903L65.7676 42.1727L66.3946 42.4513L67.0224 42.7243L67.6508 42.99L68.2796 43.2469L68.9089 43.4938L69.5386 43.7296L70.1688 43.9538L70.7991 44.1654L71.4297 44.3643L72.0604 44.5499L72.6916 44.7224L73.3223 44.882L73.9535 45.0286L74.8406 45.2175L74.9141 44.9643C75.3327 43.5272 75.5543 42.0401 75.5731 40.5435L75.5745 40.3347L75.5731 40.1242L75.5689 39.8989C75.5156 37.8693 75.09 35.8667 74.3131 33.9909L74.2556 33.8541L74.1533 33.6174L73.5085 33.3273L72.8816 33.0494L72.2532 32.7784L71.624 32.5165L70.9942 32.2666L70.363 32.0309L69.7309 31.8122L69.0979 31.6128L68.4634 31.4349L67.8285 31.2803L67.1916 31.1511L66.5548 31.0489L65.9171 30.9748L65.2783 30.9297ZM64.6329 31.1985L65.2585 31.2132L65.8841 31.2569L66.51 31.3294L67.1356 31.4296L67.7611 31.5563L68.3866 31.7082L69.0126 31.8836L69.6381 32.0807L70.2636 32.297L70.8896 32.5305L71.5151 32.7787L72.1406 33.039L72.7661 33.3092L73.3921 33.5864L73.937 33.8315C74.7722 35.7504 75.23 37.8123 75.2851 39.9044L75.2893 40.126L75.2908 40.3329L75.2893 40.5398C75.2705 42.0107 75.0527 43.4724 74.6417 44.8848L74.0176 44.7521L73.3921 44.6066L72.7661 44.4485L72.1406 44.2774L71.5151 44.0933L70.8896 43.8962L70.2636 43.6862L69.6381 43.4637L69.0126 43.2294L68.3866 42.9839L67.7611 42.7284L67.1356 42.4639L66.51 42.1917L65.8841 41.9138L65.2585 41.6317L64.0073 41.0632L63.3816 40.7813L62.756 40.5041L62.1304 40.234L61.5047 39.9737L60.8791 39.7254L60.2534 39.492L59.6278 39.2756L59.0022 39.0787L58.3765 38.9031L57.7509 38.7512L57.1252 38.6245L56.4996 38.5242L55.874 38.4518L55.2483 38.408L54.6227 38.3934L53.997 38.408L53.3713 38.4518L52.7457 38.5242L52.1201 38.6245L51.4944 38.7512L50.8688 38.9031L50.2431 39.0787L49.6175 39.2756L48.9919 39.492L48.3662 39.7254L47.7406 39.9737L47.1149 40.234L46.4893 40.5041L45.8637 40.7813L45.238 41.0632L43.9867 41.6317L43.3611 41.9138L42.816 42.1558C42.6602 40.7724 42.6824 39.3746 42.8821 37.9968L43.361 37.9211L43.9866 37.8114L44.6122 37.6902L45.2379 37.5571L45.8635 37.4118L46.4892 37.2536L47.1148 37.0825L47.7404 36.8984L48.3661 36.7012L48.9917 36.4913L49.6174 36.2688L50.243 36.0345L50.8687 35.789L51.4943 35.5335L52.12 35.2688L52.7456 34.9969L53.3712 34.7189L53.9969 34.4368L55.2482 33.8684L55.8738 33.5864L56.4994 33.3092L57.1251 33.039L57.7507 32.7787L58.3764 32.5305L59.002 32.297L59.6276 32.0807L60.2533 31.8836L60.8789 31.7082L61.5046 31.5563L62.1302 31.4294L62.756 31.3292L63.3816 31.2569L64.0073 31.2132L64.6329 31.1985Z" fill="white"/>
<path d="M64.6316 31.1309L65.2605 31.1455L65.8893 31.1895L66.5176 31.2622L67.1459 31.3628L67.7743 31.4901L68.4026 31.6428L69.0305 31.8188L69.6579 32.0165L70.2853 32.2333L70.9132 32.4676L71.5396 32.7162L72.1661 32.9769L72.7925 33.2474L73.4185 33.5247L73.9874 33.7811C74.8439 35.7405 75.3082 37.8489 75.3535 39.9869L75.3558 40.1256L75.3568 40.3334L75.3558 40.5407C75.3365 42.0387 75.1117 43.527 74.6874 44.9639L74.0011 44.8181L73.3742 44.6724L72.7468 44.5139L72.1203 44.3425L71.4929 44.1579L70.8665 43.9605L70.2396 43.75L69.6131 43.5271L68.9862 43.2924L68.3597 43.0466L67.7333 42.7907L67.1073 42.5259L66.4808 42.2538L65.8549 41.9756L65.2294 41.6934L63.9781 41.125L63.3528 40.8433L62.7278 40.5663L62.103 40.2965L61.4784 40.0365L60.8541 39.789L60.2292 39.5558L59.6051 39.3399L58.9814 39.1436L58.3579 38.9687L57.7347 38.8173L57.1118 38.6911L56.4888 38.5913L55.8663 38.5193L55.2437 38.4758L54.6213 38.4612L53.9987 38.4758L53.3762 38.5193L52.7535 38.5913L52.1306 38.6911L51.5077 38.8173L50.8845 38.9687L50.261 39.1434L49.6373 39.3399L49.0134 39.5558L48.3898 39.7884L47.7652 40.0363L47.1404 40.2963L46.5153 40.566L45.89 40.8431L45.2645 41.1249L44.0131 41.6935L43.3872 41.9757L42.7579 42.2554C42.588 40.8198 42.6092 39.3679 42.8208 37.9379L43.3479 37.8544L43.9724 37.7448L44.5969 37.624L45.2212 37.4913L45.8456 37.3461L46.4699 37.1884L47.0943 37.0177L47.7187 36.8338L48.3433 36.637L48.9677 36.4276L49.5923 36.2055L50.217 35.9715L50.8418 35.7264L51.4667 35.4711L52.0916 35.2069L52.7168 34.9351L53.3421 34.6572L53.9676 34.3751L55.219 33.8066L55.845 33.5245L56.4714 33.2469L57.0979 32.9767L57.7244 32.7158L58.3514 32.4672L58.9779 32.2333L59.6051 32.0164L60.2327 31.8188L60.8605 31.6428L61.4886 31.4903L62.1169 31.363L62.7453 31.2622L63.374 31.1895L64.0028 31.1455L64.6316 31.1309Z" fill="#7DB0BC" stroke="white" stroke-width="6.30022"/>
<path d="M54.622 38.7061L55.2477 38.7207L55.8734 38.7644L56.499 38.8369L57.1246 38.9371L57.7503 39.0638L58.3759 39.2157L59.0016 39.3912L59.6272 39.5882L60.2528 39.8045L60.8785 40.038L61.5041 40.2862L62.1298 40.5467L62.7554 40.8167L63.381 41.0939L64.0067 41.3759L64.6323 41.6601L65.2579 41.9443L65.8835 42.2264L66.5094 42.5044L67.1349 42.7765L67.7605 43.041L68.386 43.2965L69.0119 43.542L69.6375 43.7763L70.263 43.9988L70.8889 44.2087L71.5145 44.406L72.14 44.5902L72.7655 44.7611L73.3915 44.9193L74.017 45.0647L74.5524 45.1785C73.8421 47.4581 72.6396 49.5537 71.0294 51.3169C69.4192 53.08 67.4409 54.4676 65.2348 55.3813C61.2436 57.0343 56.7593 57.0343 52.7682 55.3811C48.7771 53.7279 45.6062 50.557 43.953 46.5659C43.4074 45.2489 43.0371 43.8659 42.8516 42.4524L43.3604 42.2264L43.986 41.9443L44.6116 41.66L45.2373 41.3759L45.8629 41.0939L46.4886 40.8167L47.1142 40.5467L47.7398 40.2862L48.3655 40.038L48.9911 39.8045L49.6168 39.5882L50.2424 39.3912L50.868 39.2157L51.4937 39.0638L52.1193 38.9371L52.745 38.8369L53.3706 38.7644L53.9963 38.7207L54.622 38.7061Z" fill="#5C7DA2"/>
<path d="M55.8711 42.9238V45.0219H59.6249V47.9193H63.3788V49.9011H67.1327V50.7376H70.8867V51.4687C68.6222 53.886 65.6747 55.5554 62.4371 56.2545C59.1996 56.9536 55.8259 56.649 52.7659 55.3814C49.2676 53.9323 46.3835 51.3096 44.6094 47.9644V46.0098H48.3632V43.3951H52.1171V42.9238H55.8711Z" fill="#444876"/>
<path d="M56.0025 42.7959V44.894H59.7564V47.7913H63.5103V49.7731H67.2643V50.6096H71.0178L71.0183 51.3304C70.9339 51.4224 70.8481 51.5139 70.7619 51.6043L70.7614 50.8657H67.2643V54.3708C67.179 54.4209 67.0936 54.4702 67.0078 54.5187V50.0294L63.5103 50.0292V55.9853C63.4249 56.01 63.3395 56.0338 63.2538 56.057V48.0475H59.7564V56.604C59.6709 56.6079 59.5854 56.6112 59.4999 56.6139V45.1502H56.0025V56.3427C55.9168 56.3267 55.8314 56.31 55.7459 56.2925L55.7461 43.052H52.2486V43.2673L52.2487 55.1552C52.1627 55.1161 52.0772 55.0762 51.9921 55.0356L51.9922 43.5235H48.4947V45.8817V52.7787C48.4085 52.7059 48.323 52.6323 48.2383 52.5578V46.1381H44.7408L44.7407 48.2014C44.6527 48.0417 44.5671 47.8804 44.4844 47.7177L44.4847 45.8817H48.2385V43.2673H51.9923V42.7959H56.0025Z" fill="white"/>
<path d="M59.0014 22.9995C63.5603 22.9996 67.9356 24.7958 71.1796 27.9988C74.4236 31.2019 76.2752 35.5541 76.3331 40.1126L76.3345 40.3329L76.3331 40.5531C76.2752 45.1116 74.4236 49.4638 71.1796 52.6669C67.9356 55.8699 63.5603 57.666 59.0014 57.6662C54.4043 57.6661 49.9956 55.8399 46.745 52.5893C43.4944 49.3388 41.6682 44.9301 41.668 40.333C41.6681 35.736 43.4943 31.3271 46.7449 28.0765C49.9955 24.8259 54.4043 22.9996 59.0014 22.9995ZM59.0014 23.5687C54.5553 23.5688 50.2913 25.3351 47.1474 28.4789C44.0035 31.6228 42.2372 35.8868 42.2372 40.3329C42.2373 44.779 44.0036 49.0429 47.1474 52.1868C50.2913 55.3307 54.5553 57.0969 59.0014 57.097C63.4106 57.0969 67.642 55.3597 70.7799 52.2619C73.9173 49.164 75.7081 44.9547 75.7642 40.546L75.7656 40.3329L75.7642 40.1199C75.7081 35.711 73.9173 31.5018 70.7799 28.4039C67.6424 25.306 63.4106 23.5688 59.0014 23.5687Z" fill="#444876"/>
</g>
</svg>
