<svg width="56" height="53" viewBox="0 0 56 53" fill="none" xmlns="http://www.w3.org/2000/svg">
<mask id="mask0_7196_4462" style="mask-type:alpha" maskUnits="userSpaceOnUse" x="0" y="0" width="56" height="53">
<rect width="56" height="53" fill="#D9D9D9"/>
</mask>
<g mask="url(#mask0_7196_4462)">
<path fill-rule="evenodd" clip-rule="evenodd" d="M54 27C54 41.3594 42.3594 53 28 53C13.6406 53 2 41.3594 2 27C2 12.6406 13.6406 1 28 1C42.3594 1 54 12.6406 54 27ZM48.8603 27.1804C48.8603 24.4216 45.3973 21.8071 40.088 20.1858C41.3132 14.7871 40.7686 10.4918 38.3692 9.11668C37.8184 8.79541 37.1747 8.64255 36.4718 8.64133V8.63283C34.1319 8.63283 31.0689 10.2966 27.9717 13.1827C24.8746 10.3136 21.8115 8.66679 19.4717 8.66679V8.67528C18.7569 8.67528 18.1103 8.82807 17.5487 9.15064C15.1578 10.5258 14.6218 14.8125 15.8555 20.1943C10.5632 21.8241 7.11719 24.4301 7.11719 27.1804C7.11719 29.9392 10.5802 32.5537 15.8895 34.175C14.6643 39.5737 15.2089 43.8689 17.6083 45.2441C18.1613 45.5666 18.808 45.7194 19.5227 45.7194C21.8626 45.7194 24.9257 44.0557 28.0228 41.1696C31.1199 44.0387 34.183 45.6855 36.5229 45.6855C37.2376 45.6855 37.8842 45.5327 38.4458 45.2101C40.8367 43.835 41.3727 39.5482 40.139 34.1665C45.4143 32.5452 48.8603 29.9307 48.8603 27.1804ZM29.3246 14.5069C32.094 11.939 34.6937 10.5303 36.4633 10.5258V10.5343C36.8547 10.5343 37.1695 10.6107 37.4333 10.755C38.5904 11.4171 39.0925 13.9382 38.7011 17.1808C38.6075 17.9788 38.4543 18.8191 38.2671 19.6765C37.2217 19.4211 36.1161 19.2023 34.9649 19.0245C34.3364 18.5223 33.6149 18.1004 32.8004 17.7588C32.4908 17.6268 32.173 17.5113 31.847 17.4121C31.0185 16.3625 30.1737 15.3901 29.3246 14.5069ZM28.9979 16.967C28.6535 16.5767 28.3084 16.2036 27.9632 15.8481C27.5807 16.2463 27.1961 16.6669 26.8135 17.1087C27.3981 17.0114 28.0159 16.9627 28.6667 16.9627C28.7778 16.9627 28.8882 16.9641 28.9979 16.967ZM23.1862 18.6386C24.2935 17.113 25.4562 15.7334 26.6189 14.5154C23.8451 11.9604 21.2329 10.5597 19.4717 10.5597V10.5682C19.0803 10.5682 18.7484 10.6361 18.4932 10.7889C17.3445 11.4595 16.851 13.9806 17.2509 17.2233C17.353 18.0127 17.4977 18.8361 17.6934 19.685C19.3432 19.2735 21.143 18.9617 23.0432 18.7578C23.0902 18.7174 23.1378 18.6777 23.1862 18.6386ZM21.5155 20.8704C20.3527 21.0453 19.2297 21.2663 18.1613 21.5185C18.4847 22.622 18.8761 23.7595 19.3355 24.897C19.6844 24.2179 20.0502 23.5388 20.4416 22.8597C20.7325 22.3488 21.0374 21.8473 21.3459 21.3551C21.3957 21.1896 21.4522 21.028 21.5155 20.8704ZM21.305 25.246C20.961 25.8961 20.6347 26.551 20.331 27.2058C20.8671 28.3433 21.4542 29.4723 22.1008 30.5843C22.7645 31.7218 23.4537 32.7998 24.1599 33.81C25.4192 33.9118 26.704 33.9712 27.9887 33.9712C29.0107 33.9712 30.0274 33.9341 31.0345 33.8641C31.1503 33.628 31.2082 33.363 31.2082 33.069C31.2082 32.477 31.0244 31.9973 30.657 31.6298C30.2895 31.2624 29.7996 30.946 29.1872 30.6806C28.5952 30.4152 27.9318 30.1601 27.1969 29.9151C26.4824 29.6701 25.7679 29.3945 25.0535 29.0883C24.339 28.7617 23.6755 28.3637 23.0631 27.8941C22.4711 27.4042 21.9914 26.802 21.624 26.0875C21.495 25.8297 21.3887 25.5492 21.305 25.246ZM35.9638 33.2332C35.9779 33.0398 35.9849 32.8421 35.9849 32.6403C35.9849 32.0322 35.931 31.4781 35.8233 30.9778C36.1051 30.4703 36.374 29.9604 36.6335 29.4553C37.0929 30.5928 37.4843 31.7303 37.8077 32.8338C37.2093 32.9796 36.5938 33.1132 35.9638 33.2332ZM30.0774 39.063C31.5628 38.8053 32.7971 38.2873 33.7803 37.5089C34.5633 36.8781 35.1378 36.1228 35.5037 35.2428C36.4686 35.0806 37.398 34.8883 38.2841 34.6673C38.4798 35.5247 38.633 36.348 38.7266 37.1375C39.1265 40.3801 38.633 42.9012 37.4843 43.5718C37.2291 43.7246 36.8972 43.7925 36.5058 43.7925C34.7446 43.7925 32.1324 42.3919 29.3586 39.8369C29.5984 39.5857 29.8381 39.3277 30.0774 39.063ZM20.1478 35.1935L19.603 35.733C20.6645 36.917 21.8281 37.8049 23.0938 38.3969C23.9541 38.7793 24.9241 39.0338 26.0038 39.1604C26.2197 39.3972 26.4362 39.6284 26.6529 39.8538C23.8791 42.4259 21.2755 43.835 19.5057 43.835C19.1228 43.8265 18.7995 43.7501 18.5442 43.6058C17.3871 42.9437 16.885 40.4226 17.2764 37.1799C17.37 36.382 17.5232 35.5416 17.7104 34.6843C18.4913 34.8751 19.3058 35.0454 20.1478 35.1935ZM34.8321 28.821C34.5769 28.4823 34.2875 28.1836 33.964 27.9248C33.372 27.4144 32.7188 26.996 32.0043 26.6693C31.2898 26.3427 30.5651 26.0569 29.8302 25.812C29.1158 25.567 28.4523 25.322 27.8399 25.0771C27.2479 24.8321 26.7682 24.5463 26.4008 24.2197C26.0333 23.8727 25.8496 23.4236 25.8496 22.8724C25.8496 22.2804 26.0945 21.8313 26.5845 21.5251C27.0744 21.1985 27.7378 21.0352 28.5748 21.0352C29.4118 21.0352 30.1569 21.1985 30.8101 21.5251C31.4837 21.8517 32.1472 22.3519 32.8004 23.0255L33.1852 22.6445C33.4185 23.0202 33.6491 23.4033 33.8767 23.7934C34.5233 24.9054 35.1104 26.0344 35.6465 27.1719C35.387 27.7225 35.1155 28.2732 34.8321 28.821ZM34.568 21.2753C34.8924 21.7846 35.2134 22.3042 35.5188 22.8342C35.9187 23.5133 36.2846 24.1924 36.6335 24.8715C37.0759 23.7425 37.4673 22.6135 37.7821 21.5185C36.8564 21.2929 35.8955 21.1024 34.9043 20.9422L34.568 21.2753ZM21.6754 33.5129C20.4672 33.3346 19.3015 33.1139 18.1869 32.8423C18.5017 31.7472 18.8931 30.6183 19.3355 29.4893C19.6844 30.1684 20.0502 30.8475 20.4501 31.5265C20.85 32.2056 21.2585 32.8677 21.6754 33.5129ZM13.9666 31.4756C10.9546 30.1938 9.00609 28.5131 9.00609 27.1804C9.00609 25.8477 10.9546 24.1584 13.9666 22.8852C14.6983 22.5711 15.4981 22.291 16.3235 22.0278C16.8085 23.6916 17.4466 25.4232 18.2379 27.1974C17.4551 28.963 16.8255 30.6862 16.349 32.3414C15.5067 32.0783 14.7068 31.7897 13.9666 31.4756ZM42.0024 31.4756C41.2706 31.7897 40.4708 32.0698 39.6455 32.333C39.1605 30.6692 38.5224 28.9375 37.7311 27.1634C38.5139 25.3978 39.1435 23.6746 39.62 22.0193C40.4623 22.2825 41.2621 22.5711 42.0109 22.8852C45.0229 24.1669 46.9714 25.8477 46.9714 27.1804C46.9629 28.5131 45.0144 30.2023 42.0024 31.4756Z" fill="black"/>
</g>
</svg>
