<svg width="59" height="40" viewBox="0 0 59 40" fill="none" xmlns="http://www.w3.org/2000/svg">
<path d="M4.71298 21.7992C5.50266 21.7992 6.24412 21.6979 6.91681 21.498C7.60587 21.2932 8.20613 20.9798 8.70032 20.5664C9.19706 20.1505 9.5899 19.6352 9.86847 19.0346C10.1459 18.4351 10.2864 17.7399 10.2864 16.9681C10.2864 16.242 10.1529 15.6217 9.88903 15.124C9.6301 14.6365 9.29003 14.2213 8.87827 13.8901C8.47761 13.5687 8.02745 13.3057 7.53964 13.1088C7.08493 12.9253 6.63659 12.7518 6.1959 12.5888C5.87093 12.4685 5.55615 12.3483 5.25156 12.2284C4.97353 12.1183 4.72844 11.9932 4.52265 11.8559C4.33943 11.7337 4.19386 11.5912 4.08979 11.4311C3.9979 11.2909 3.95332 11.1247 3.95332 10.9229C3.95332 10.7019 3.99662 10.5277 4.08232 10.4051C4.18131 10.2636 4.30413 10.1543 4.4577 10.0708C4.62837 9.97876 4.82306 9.91235 5.03594 9.8734C5.84619 9.72711 6.57546 9.83176 7.26252 10.136C7.77381 10.3634 8.19121 10.6032 8.50272 10.8491L8.81059 11.0923L9.08188 10.81C9.36919 10.5117 9.59645 10.203 9.75711 9.89279C9.93379 9.553 10.0199 9.27479 10.0199 9.0427C10.0199 8.676 9.8843 8.15761 9.27366 7.79378C9.1401 7.69506 8.95961 7.59203 8.72161 7.47823C8.49071 7.36856 8.20886 7.2623 7.88335 7.16214C7.56002 7.06306 7.19065 6.97726 6.78525 6.9069C6.37313 6.83582 5.92406 6.79956 5.45044 6.79956C4.75737 6.79956 4.08979 6.89003 3.46568 7.06916C2.83176 7.25099 2.26187 7.52526 1.77187 7.88389C1.26949 8.25185 0.86883 8.71943 0.580251 9.27371C0.290398 9.8305 0.143562 10.4736 0.143562 11.1857C0.143562 11.9236 0.272748 12.5493 0.52803 13.0452C0.780036 13.5351 1.1112 13.9452 1.51204 14.2644C1.89924 14.5735 2.33975 14.8262 2.8212 15.0157C3.26808 15.1924 3.71969 15.3582 4.16257 15.5081C4.51283 15.6278 4.84689 15.7475 5.16386 15.8673C5.45153 15.9762 5.707 16.1063 5.92279 16.2544C6.12112 16.3903 6.27596 16.5506 6.39587 16.7439C6.50377 16.9182 6.55854 17.1433 6.55854 17.4129C6.55854 17.6717 6.50941 17.8851 6.41279 18.0476C6.30799 18.2233 6.17935 18.3606 6.01923 18.4674C5.85001 18.5807 5.65149 18.6658 5.42805 18.7207C4.864 18.8596 4.23389 18.8244 3.73061 18.7006C3.42875 18.6259 3.14763 18.5295 2.89434 18.4134C2.63743 18.2963 2.39906 18.1646 2.186 18.0223C1.9631 17.8736 1.75786 17.7268 1.5759 17.5854L1.23329 17.3192L0.969089 17.6615C0.740008 17.9582 0.525483 18.2806 0.331702 18.6203C0.108444 19.012 0 19.3507 0 19.6567C0 19.9366 0.0827901 20.1904 0.246003 20.4112C0.384652 20.5994 0.559326 20.7635 0.78222 20.9092C1.08772 21.09 1.55243 21.2783 2.20347 21.4849C2.85923 21.6933 3.70331 21.7992 4.71298 21.7992Z" fill="white"/>
<path d="M23.8904 7.34494C23.6677 7.20063 23.4212 7.10173 23.157 7.05057C22.7747 6.9768 22.4585 6.96495 22.1084 7.00552L21.0489 7.13242V12.5829H16.7218V8.98839C16.7218 8.57825 16.6452 8.23559 16.494 7.96958C16.3457 7.70842 16.1523 7.49877 15.9192 7.34674C15.6969 7.20153 15.4498 7.10209 15.1847 7.05129C14.8308 6.98272 14.5014 6.95777 14.1291 7.00659L13.0762 7.12757V19.0729C13.0762 20.3872 14.1601 21.4564 15.4923 21.4564H16.7218V15.5929H21.0489V19.0727C21.0489 20.387 22.1326 21.4562 23.4648 21.4562H24.6943V8.98265C24.6943 8.57376 24.6177 8.23164 24.4663 7.96635C24.3182 7.70644 24.1248 7.49751 23.8904 7.34494Z" fill="white"/>
<path d="M29.9712 21.4563H31.7647V8.91057C31.7647 7.90307 30.9339 7.0835 29.9124 7.0835H28.1189V19.6294C28.1189 20.6366 28.9497 21.4563 29.9712 21.4563Z" fill="white"/>
<path d="M44.732 7.41073L44.6678 7.06287H35.293V19.0725C35.293 20.3867 36.3769 21.456 37.7091 21.456H38.9386V15.3905H40.7234C42.169 15.3905 43.3452 14.2299 43.3452 12.8038V12.3804H38.9386V10.073H42.7111C43.4765 10.073 44.0078 9.89349 44.3357 9.52391C44.6438 9.17605 44.8003 8.74221 44.8003 8.23442C44.8003 8.07521 44.7964 7.94095 44.7888 7.83164C44.7812 7.7182 44.7628 7.57766 44.732 7.41073Z" fill="white"/>
<path d="M58.2816 7.42634L58.229 7.06287H48.2241C47.4686 7.06287 46.9077 7.26516 46.5576 7.66381C46.2226 8.0447 46.0532 8.47495 46.0532 8.94199C46.0532 9.1012 46.0569 9.23834 46.0645 9.35214C46.0714 9.46396 46.0876 9.60127 46.1147 9.76533V10.174H50.3981V19.0725C50.3981 20.3867 51.482 21.456 52.8139 21.456H54.0847V10.174H56.2377C56.6089 10.174 56.9175 10.125 57.1817 10.0243C57.4446 9.92382 57.6679 9.78884 57.8451 9.62281C58.034 9.44565 58.1685 9.23618 58.2452 8.99997C58.3131 8.79032 58.3475 8.57367 58.3475 8.35576C58.3477 8.0395 58.3255 7.72663 58.2816 7.42634Z" fill="white"/>
<path d="M10.2194 36.4791C10.0451 36.2982 9.81562 36.1542 9.53668 36.0508C9.26721 35.951 8.94952 35.9027 8.56614 35.9027H4.60936V33.0091H8.3609C9.16149 33.0091 9.81289 32.3669 9.81289 31.5769V31.431C9.81289 30.6416 9.16149 29.9988 8.3609 29.9988H4.60936V27.5098H8.21788C9.0112 27.5098 9.55834 27.3547 9.88986 27.0362C10.221 26.7189 10.3891 26.2596 10.3891 25.6712C10.3891 25.5118 10.3853 25.3779 10.3779 25.2677C10.3698 25.1544 10.3513 25.0142 10.3209 24.8477L10.2567 24.4998H0.922607V38.8929H10.6113L10.653 38.5153C10.667 38.388 10.6779 38.2713 10.6857 38.1636C10.6928 38.0552 10.6968 37.9211 10.6968 37.7619C10.6968 37.5462 10.6628 37.3279 10.5955 37.1113C10.5212 36.874 10.395 36.6616 10.2194 36.4791Z" fill="#00A551"/>
<path d="M17.3719 28.6476C17.621 28.2615 17.9556 27.9432 18.3662 27.7022C18.7684 27.4665 19.2844 27.3471 19.8996 27.3471C20.2546 27.3471 20.5781 27.3863 20.8607 27.4629C21.1527 27.5433 21.4154 27.6413 21.64 27.7553C21.8638 27.8693 22.0686 28.0014 22.2479 28.1486C22.4427 28.3092 22.6196 28.4668 22.7728 28.618L23.0676 28.9089L23.3709 28.6264C23.6342 28.3817 23.878 28.1118 24.096 27.8246C24.3571 27.4814 24.4892 27.1238 24.4892 26.7618C24.4892 26.5112 24.4246 26.2757 24.296 26.0609C24.1846 25.8758 24.0494 25.7125 23.8911 25.5732C23.7665 25.4659 23.5958 25.3402 23.368 25.188C23.1298 25.0291 22.8425 24.8832 22.4888 24.7418C22.1469 24.6052 21.745 24.4862 21.2937 24.3871C20.8337 24.2864 20.3164 24.2358 19.7558 24.2358C18.6203 24.2358 17.6128 24.4284 16.7607 24.8091C15.9053 25.1912 15.1815 25.7302 14.6091 26.4104C14.0417 27.0852 13.6114 27.8933 13.3298 28.8125C13.0525 29.7177 12.9116 30.715 12.9116 31.7756C12.9116 32.8341 13.0412 33.8219 13.2968 34.7118C13.5579 35.6207 13.9753 36.4209 14.537 37.0903C15.1036 37.7655 15.8291 38.2981 16.693 38.6732C17.5507 39.046 18.5744 39.235 19.7355 39.235C20.3335 39.235 20.8758 39.1882 21.3467 39.0956C21.8159 39.0024 22.2202 38.8899 22.5488 38.7601C22.8791 38.6296 23.1551 38.4948 23.3698 38.3591C23.5894 38.22 23.7468 38.1021 23.8511 37.9994L23.8513 37.999C24.0307 37.8221 24.1611 37.6593 24.2512 37.5008C24.3545 37.3166 24.4071 37.0976 24.4071 36.8508C24.4071 36.6676 24.3609 36.4784 24.2657 36.2702C24.189 36.1054 24.0971 35.9384 23.9914 35.774C23.8886 35.6145 23.7759 35.4596 23.6567 35.312C23.5438 35.1734 23.4455 35.055 23.3611 34.9579L23.0765 34.6308L22.7499 34.9173C22.6307 35.0218 22.4819 35.1456 22.3025 35.2896C22.1391 35.4211 21.9429 35.5498 21.7197 35.6721C21.5019 35.7916 21.2448 35.8954 20.9551 35.9803C20.6756 36.0625 20.3619 36.1043 20.0224 36.1043C19.3755 36.1043 18.8364 35.9866 18.4192 35.7545C17.9956 35.5188 17.6484 35.2034 17.387 34.8164C17.1184 34.419 16.9259 33.9522 16.8147 33.428C16.6981 32.8804 16.6393 32.297 16.6393 31.6952C16.6393 31.1345 16.6981 30.5759 16.8144 30.0343C16.9266 29.5134 17.114 29.0469 17.3719 28.6476Z" fill="#00A551"/>
<path d="M38.1315 26.4317C37.6006 25.755 36.911 25.2146 36.0812 24.8229C35.2544 24.4334 34.2579 24.2358 33.119 24.2358C31.9665 24.2358 30.9521 24.4406 30.1042 24.8439C29.2574 25.2472 28.5454 25.8001 27.9883 26.4872C27.4359 27.168 27.0236 27.9694 26.7628 28.8694C26.5074 29.7529 26.3774 30.6969 26.3774 31.6747C26.3774 32.6632 26.4957 33.6169 26.7295 34.5098C26.9675 35.4213 27.3534 36.2359 27.8762 36.931C28.406 37.6354 29.0989 38.2017 29.935 38.6142C30.7707 39.0263 31.7869 39.2352 32.9555 39.2352C34.1352 39.2352 35.1636 39.0304 36.0116 38.6266C36.8615 38.2222 37.5684 37.6598 38.1131 36.9555C38.6508 36.2606 39.048 35.4416 39.2935 34.5219C39.5344 33.6206 39.6563 32.6559 39.6563 31.6539C39.6563 30.638 39.534 29.6757 39.2929 28.7937C39.0465 27.8948 38.6559 27.1 38.1315 26.4317ZM35.9078 31.6749C35.9078 32.2909 35.8516 32.8901 35.7415 33.455C35.6344 34.0021 35.4633 34.4912 35.2326 34.9096C35.0126 35.3084 34.7282 35.6155 34.3625 35.8482C34.0115 36.0716 33.5659 36.1849 33.0375 36.1849C32.5091 36.1849 32.0633 36.0716 31.7129 35.8482C31.3506 35.6179 31.0537 35.3005 30.8299 34.9056C30.5935 34.489 30.4197 34.0006 30.3127 33.455C30.2025 32.8906 30.1464 32.292 30.1464 31.6749C30.1464 31.0584 30.2025 30.4671 30.3124 29.9171C30.4185 29.3885 30.5935 28.9206 30.8333 28.5264C31.062 28.1504 31.3644 27.8492 31.732 27.63C32.0926 27.4157 32.553 27.3067 33.099 27.3067C33.6145 27.3067 34.0479 27.4141 34.386 27.625C34.7351 27.8433 35.0259 28.1448 35.2492 28.5217C35.4822 28.9157 35.6513 29.384 35.7512 29.9121C35.8547 30.4644 35.9078 31.0575 35.9078 31.6749Z" fill="#00A551"/>
<path d="M29.9371 0.000244141L26.1833 3.70321L33.7013 3.71362L29.9371 0.000244141Z" fill="#00A551"/>
</svg>
