<svg width="56" height="53" viewBox="0 0 56 53" fill="none" xmlns="http://www.w3.org/2000/svg">
<mask id="mask0_7200_56449" style="mask-type:alpha" maskUnits="userSpaceOnUse" x="0" y="0" width="56" height="53">
<rect width="56" height="53" fill="#D9D9D9"/>
</mask>
<g mask="url(#mask0_7200_56449)">
<path d="M43.2999 11.6156C43.2661 11.3698 43.0508 11.2338 42.8728 11.2188C42.6952 11.204 38.9362 10.9253 38.9362 10.9253C38.9362 10.9253 36.3255 8.33352 36.0389 8.04664C35.7522 7.75993 35.1923 7.84714 34.9749 7.91111C34.9429 7.92054 34.4045 8.08671 33.5139 8.3623C32.6419 5.8528 31.1028 3.54667 28.3951 3.54667C28.3204 3.54667 28.2434 3.5497 28.1665 3.55408C27.3964 2.5357 26.4425 2.09326 25.6186 2.09326C19.3112 2.09326 16.2978 9.97818 15.353 13.985C12.9021 14.7445 11.1609 15.2844 10.9385 15.3543C9.57047 15.7834 9.5272 15.8265 9.34757 17.1156C9.21238 18.0916 5.63281 45.774 5.63281 45.774L33.5256 51.0001L48.6388 47.7307C48.6388 47.7307 43.3333 11.8614 43.2999 11.6156ZM31.9723 8.83909L29.6121 9.56958C29.613 9.40324 29.6138 9.2396 29.6138 9.06064C29.6138 7.501 29.3973 6.24524 29.05 5.24975C30.4452 5.42484 31.3743 7.01226 31.9723 8.83909ZM27.3193 5.55902C27.7072 6.53094 27.9594 7.92576 27.9594 9.80797C27.9594 9.90427 27.9586 9.99232 27.9577 10.0814C26.4228 10.5568 24.7549 11.073 23.0833 11.5909C24.0219 7.96852 25.7812 6.21897 27.3193 5.55902ZM25.4454 3.78506C25.7176 3.78506 25.9918 3.87749 26.2543 4.05814C24.2329 5.00934 22.0661 7.40504 21.1511 12.1892L17.2981 13.3825C18.3699 9.73339 20.9149 3.78506 25.4454 3.78506Z" fill="#2E2E2E"/>
<path d="M42.8772 11.2189C42.6995 11.2041 38.9405 10.9254 38.9405 10.9254C38.9405 10.9254 36.3298 8.33359 36.0433 8.04672C35.936 7.93998 35.7914 7.88526 35.6402 7.86169L33.5312 50.9999L48.6431 47.7307C48.6431 47.7307 43.3376 11.8615 43.3043 11.6157C43.2704 11.3699 43.0551 11.2338 42.8772 11.2189Z" fill="black"/>
<path d="M28.3961 19.5696L26.5326 25.1128C26.5326 25.1128 24.8999 24.2414 22.8985 24.2414C19.9644 24.2414 19.8167 26.0827 19.8167 26.5467C19.8167 29.0784 26.4162 30.0485 26.4162 35.9786C26.4162 40.6443 23.4571 43.6486 19.467 43.6486C14.679 43.6486 12.2305 40.6687 12.2305 40.6687L13.5125 36.4329C13.5125 36.4329 16.0294 38.5937 18.1532 38.5937C19.541 38.5937 20.1055 37.5011 20.1055 36.7027C20.1055 33.4003 14.6911 33.253 14.6911 27.8264C14.6911 23.2591 17.9694 18.8392 24.5867 18.8392C27.1365 18.8392 28.3961 19.5696 28.3961 19.5696Z" fill="white"/>
<rect x="28.5977" y="34.7103" width="24.4002" height="16.1216" rx="8.06079" fill="white" stroke="black" stroke-width="0.5"/>
<path d="M36.474 46.7062C35.8774 46.7062 35.3222 46.6042 34.8087 46.4003C34.3027 46.1888 33.8571 45.8943 33.4719 45.5166C33.0943 45.139 32.7997 44.701 32.5883 44.2025C32.3768 43.6965 32.2711 43.1527 32.2711 42.5712C32.2711 41.9896 32.3768 41.4496 32.5883 40.9512C32.7997 40.4452 33.0943 40.0071 33.4719 39.6371C33.8495 39.267 34.2913 38.98 34.7973 38.7761C35.3109 38.5646 35.866 38.4589 36.4627 38.4589C37.0971 38.4589 37.6597 38.5608 38.1506 38.7647C38.6491 38.9687 39.0834 39.2481 39.4534 39.6031L38.2639 40.8039C38.0525 40.5773 37.7957 40.3999 37.4936 40.2715C37.199 40.1431 36.8554 40.0789 36.4627 40.0789C36.1153 40.0789 35.7943 40.1393 35.4997 40.2601C35.2127 40.3734 34.9635 40.5396 34.752 40.7586C34.5481 40.9776 34.3857 41.242 34.2649 41.5516C34.1516 41.8613 34.095 42.2011 34.095 42.5712C34.095 42.9488 34.1516 43.2924 34.2649 43.6021C34.3857 43.9117 34.5481 44.1761 34.752 44.3951C34.9635 44.6141 35.2127 44.7841 35.4997 44.9049C35.7943 45.0257 36.1153 45.0862 36.4627 45.0862C36.8705 45.0862 37.2255 45.022 37.5276 44.8936C37.8297 44.7652 38.0902 44.5877 38.3092 44.3611L39.5101 45.562C39.1249 45.9169 38.6831 46.1964 38.1846 46.4003C37.6937 46.6042 37.1235 46.7062 36.474 46.7062ZM40.4895 46.5815V38.5835H42.2681V46.5815H40.4895ZM41.8603 46.5815V45.0182H45.814V46.5815H41.8603ZM46.8397 46.5815V38.5835H48.6183V46.5815H46.8397Z" fill="black"/>
</g>
</svg>
