<svg width="80" height="80" viewBox="0 0 80 80" fill="none" xmlns="http://www.w3.org/2000/svg">
<mask id="mask0_7380_55995" style="mask-type:alpha" maskUnits="userSpaceOnUse" x="-1" y="-1" width="82" height="82">
<rect width="80" height="80" fill="white" stroke="white" stroke-width="2"/>
</mask>
<g mask="url(#mask0_7380_55995)">
<path d="M33.7819 58.6172C32.6021 58.6172 31.4487 58.9671 30.4677 59.6226C29.4866 60.2781 28.722 61.2098 28.2705 62.2998C27.819 63.3899 27.7009 64.5893 27.931 65.7465C28.1612 66.9037 28.7294 67.9667 29.5637 68.801C30.398 69.6353 31.4609 70.2034 32.6181 70.4336C33.7753 70.6638 34.9748 70.5457 36.0648 70.0941C37.1549 69.6426 38.0866 68.878 38.7421 67.897C39.3976 66.916 39.7474 65.7626 39.7474 64.5827C39.7492 63.7988 39.5961 63.0223 39.2969 62.2977C38.9978 61.5732 38.5584 60.9148 38.0041 60.3605C37.4498 59.8062 36.7915 59.3669 36.0669 59.0677C35.3423 58.7685 34.5658 58.6154 33.7819 58.6172ZM33.7819 66.6785C33.3514 66.6785 32.9306 66.5509 32.5726 66.3117C32.2147 66.0725 31.9357 65.7325 31.7709 65.3348C31.6062 64.9371 31.563 64.4994 31.647 64.0771C31.731 63.6549 31.9383 63.2671 32.2428 62.9626C32.5472 62.6582 32.935 62.4509 33.3573 62.3669C33.7795 62.2829 34.2172 62.326 34.6149 62.4908C35.0127 62.6555 35.3526 62.9345 35.5918 63.2925C35.831 63.6504 35.9586 64.0713 35.9586 64.5018C35.9598 64.788 35.9044 65.0716 35.7954 65.3362C35.6864 65.6008 35.5261 65.8413 35.3238 66.0436C35.1214 66.246 34.881 66.4063 34.6163 66.5153C34.3517 66.6242 34.0681 66.6797 33.7819 66.6785Z" fill="black"/>
<path d="M59.3405 58.6172C58.1607 58.6172 57.0073 58.9671 56.0263 59.6226C55.0452 60.2781 54.2806 61.2098 53.8291 62.2998C53.3776 63.3899 53.2594 64.5893 53.4896 65.7465C53.7198 66.9037 54.288 67.9667 55.1223 68.801C55.9566 69.6353 57.0195 70.2034 58.1767 70.4336C59.3339 70.6638 60.5334 70.5457 61.6234 70.0941C62.7135 69.6426 63.6452 68.878 64.3007 67.897C64.9562 66.916 65.306 65.7626 65.306 64.5827C65.3078 63.7988 65.1547 63.0223 64.8555 62.2977C64.5564 61.5732 64.117 60.9148 63.5627 60.3605C63.0084 59.8062 62.3501 59.3669 61.6255 59.0677C60.9009 58.7685 60.1244 58.6154 59.3405 58.6172ZM59.3405 66.6785C58.91 66.6785 58.4892 66.5509 58.1312 66.3117C57.7732 66.0725 57.4942 65.7325 57.3295 65.3348C57.1647 64.9371 57.1216 64.4994 57.2056 64.0771C57.2896 63.6549 57.4969 63.2671 57.8014 62.9626C58.1058 62.6582 58.4936 62.4509 58.9159 62.3669C59.3381 62.2829 59.7758 62.326 60.1735 62.4908C60.5713 62.6555 60.9112 62.9345 61.1504 63.2925C61.3896 63.6504 61.5172 64.0713 61.5172 64.5018C61.5184 64.788 61.463 65.0716 61.354 65.3362C61.245 65.6008 61.0847 65.8413 60.8824 66.0436C60.68 66.246 60.4396 66.4063 60.1749 66.5153C59.9103 66.6242 59.6267 66.6797 59.3405 66.6785Z" fill="black"/>
<path d="M62.8798 10C60.0435 10 57.2708 10.8411 54.9125 12.4168C52.5542 13.9926 50.7161 16.2323 49.6307 18.8528C48.5453 21.4732 48.2613 24.3566 48.8146 27.1385C49.368 29.9203 50.7338 32.4756 52.7394 34.4811C54.745 36.4867 57.3002 37.8526 60.0821 38.4059C62.8639 38.9592 65.7473 38.6752 68.3677 37.5898C70.9882 36.5044 73.2279 34.6663 74.8037 32.308C76.3794 29.9497 77.2205 27.177 77.2205 24.3407C77.2082 20.5411 75.6934 16.9006 73.0066 14.2139C70.3199 11.5271 66.6794 10.0123 62.8798 10Z" fill="black"/>
<path d="M71.2116 19.6184L70.784 18.8763C70.4606 18.315 70.2989 18.0344 70.0237 17.9225C69.7486 17.8106 69.4374 17.8989 68.8151 18.0755L67.7579 18.3732C67.3606 18.4649 66.9437 18.4129 66.5809 18.2265L66.289 18.0581C65.9779 17.8588 65.7386 17.565 65.6062 17.2197L65.3168 16.3556C65.1266 15.7838 65.0315 15.4978 64.805 15.3343C64.5786 15.1708 64.2778 15.1708 63.6762 15.1708H62.7104C62.1088 15.1708 61.808 15.1708 61.5816 15.3343C61.3551 15.4978 61.26 15.7838 61.0698 16.3556L60.7805 17.2197C60.648 17.565 60.4087 17.8588 60.0976 18.0581L59.8057 18.2265C59.4429 18.4129 59.0261 18.4649 58.6288 18.3732L57.5716 18.0755C56.9492 17.8989 56.638 17.8106 56.3629 17.9225C56.0878 18.0344 55.9261 18.315 55.6026 18.8763L55.175 19.6184C54.8719 20.1445 54.7203 20.4076 54.7497 20.6876C54.7791 20.9676 54.982 21.1933 55.3879 21.6446L56.2811 22.6433C56.4995 22.9197 56.6545 23.4014 56.6545 23.8344C56.6545 24.2678 56.4995 24.7493 56.2812 25.0257L55.3879 26.0244C54.982 26.4758 54.7791 26.7014 54.7497 26.9815C54.7203 27.2615 54.8719 27.5246 55.175 28.0507L55.6026 28.7928L55.6026 28.7928C55.926 29.354 56.0878 29.6347 56.3629 29.7466C56.6381 29.8585 56.9492 29.7702 57.5716 29.5936L58.6287 29.2958C59.0261 29.2042 59.4431 29.2562 59.8059 29.4426L60.0977 29.6111C60.4088 29.8103 60.648 30.1041 60.7804 30.4494L61.0698 31.3136C61.26 31.8854 61.3551 32.1713 61.5816 32.3348C61.808 32.4984 62.1088 32.4984 62.7104 32.4984H63.6762C64.2778 32.4984 64.5786 32.4984 64.805 32.3348C65.0315 32.1713 65.1266 31.8854 65.3168 31.3136L65.6062 30.4494C65.7386 30.1041 65.9779 29.8103 66.2889 29.6111L66.5807 29.4426C66.9436 29.2562 67.3605 29.2042 67.7579 29.2958L68.8151 29.5936C69.4374 29.7702 69.7486 29.8585 70.0237 29.7466C70.2989 29.6347 70.4606 29.354 70.784 28.7928L71.2116 28.0507L71.2116 28.0507C71.5148 27.5246 71.6664 27.2615 71.6369 26.9815C71.6075 26.7014 71.4046 26.4758 70.9988 26.0244L70.1055 25.0257C69.8871 24.7493 69.7322 24.2678 69.7322 23.8344C69.7322 23.4014 69.8872 22.9197 70.1055 22.6433L70.9988 21.6446C71.4046 21.1933 71.6075 20.9676 71.6369 20.6876C71.6664 20.4076 71.5148 20.1445 71.2116 19.6184Z" stroke="white" stroke-width="1.5" stroke-linecap="round"/>
<path d="M66.1858 23.8269C66.1858 25.5016 64.8281 26.8592 63.1534 26.8592C61.4787 26.8592 60.1211 25.5016 60.1211 23.8269C60.1211 22.1522 61.4787 20.7946 63.1534 20.7946C64.8281 20.7946 66.1858 22.1522 66.1858 23.8269Z" stroke="white" stroke-width="1.5"/>
<path fill-rule="evenodd" clip-rule="evenodd" d="M45.6099 22.5484H17.5589L14.9794 15.2126C14.692 14.3036 14.1234 13.5093 13.3555 12.9443C12.5877 12.3792 11.6602 12.0725 10.7069 12.0685H3.93486C3.68077 12.0685 3.42917 12.1185 3.19442 12.2158C2.95967 12.313 2.74638 12.4555 2.56671 12.6352C2.38704 12.8149 2.24452 13.0282 2.14728 13.2629C2.05005 13.4977 2 13.7493 2 14.0033C2 14.2574 2.05005 14.509 2.14728 14.7438C2.24452 14.9785 2.38704 15.1918 2.56671 15.3715C2.74638 15.5512 2.95967 15.6937 3.19442 15.7909C3.42917 15.8882 3.68077 15.9382 3.93486 15.9382H10.7069C10.8547 15.9271 11.0015 15.9699 11.1201 16.0589C11.2387 16.1479 11.3209 16.2769 11.3515 16.4219L25.4593 56.0047C25.7467 56.9137 26.3153 57.708 27.0831 58.2731C27.851 58.8382 28.7784 59.1448 29.7318 59.1489H64.1547C64.6678 59.1489 65.16 58.945 65.5228 58.5822C65.8857 58.2193 66.0895 57.7272 66.0895 57.214C66.0895 56.7009 65.8857 56.2087 65.5228 55.8459C65.16 55.483 64.6678 55.2792 64.1547 55.2792H29.7318C29.584 55.2903 29.4371 55.2474 29.3186 55.1584C29.2 55.0695 29.1178 54.9405 29.0871 54.7954L26.2658 46.8951H66.3323C66.9062 46.9122 67.4698 46.74 67.936 46.4049C68.4022 46.0698 68.7451 45.5905 68.9118 45.0411L70.6543 39.9825C70.1276 40.2692 69.5845 40.5288 69.027 40.7597C65.909 42.0512 62.4781 42.3891 59.1682 41.7307C55.8582 41.0723 52.8177 39.4472 50.4314 37.0608C48.045 34.6744 46.4199 31.634 45.7615 28.324C45.6093 27.5591 45.5104 26.7878 45.4641 26.0153C45.4594 25.9362 45.4552 25.8571 45.4516 25.778C45.4019 24.6977 45.4552 23.6162 45.6099 22.5484Z" fill="black"/>
</g>
</svg>
