<svg width="80" height="80" viewBox="0 0 80 80" fill="none" xmlns="http://www.w3.org/2000/svg">
<mask id="mask0_7380_56013" style="mask-type:alpha" maskUnits="userSpaceOnUse" x="-1" y="-1" width="82" height="82">
<rect width="80" height="80" fill="white" stroke="white" stroke-width="2"/>
</mask>
<g mask="url(#mask0_7380_56013)">
<path d="M34.0201 40.9797H38.4004V50.4802H34.0201V40.9797ZM41.5991 46.6371H45.9793V50.4922H41.5991V46.6371ZM26.4531 44.5006H30.8334V50.4802H26.4531V44.5006ZM49.1661 37.5781H53.5463V50.4802H49.1661V37.5781ZM52.4363 27.1228H48.2232C47.5667 27.1228 47.0296 27.6599 47.0296 28.3163C47.0296 28.9728 47.5667 29.5099 48.2232 29.5099H49.548L41.7065 37.3514L35.2495 30.8944C35.139 30.7837 35.0079 30.6959 34.8635 30.636C34.7191 30.5762 34.5643 30.5453 34.408 30.5453C34.2517 30.5453 34.0969 30.5762 33.9525 30.636C33.8082 30.6959 33.677 30.7837 33.5666 30.8944L27.3721 37.0888C27.2616 37.1993 27.174 37.3305 27.1142 37.4749C27.0544 37.6192 27.0236 37.774 27.0236 37.9302C27.0236 38.0865 27.0544 38.2413 27.1142 38.3856C27.174 38.53 27.2616 38.6612 27.3721 38.7717C27.4826 38.8822 27.6138 38.9698 27.7582 39.0296C27.9026 39.0894 28.0573 39.1202 28.2136 39.1202C28.3699 39.1202 28.5246 39.0894 28.669 39.0296C28.8133 38.9698 28.9445 38.8822 29.055 38.7717L34.414 33.4127L40.871 39.8697C41.1097 40.1084 41.4081 40.2159 41.7184 40.2159C42.0287 40.2159 42.3271 40.0965 42.5658 39.8697L51.2547 31.1808V32.5176C51.2547 33.174 51.7918 33.7111 52.4483 33.7111C53.1047 33.7111 53.6418 33.174 53.6418 32.5176V28.3044C53.6299 27.6599 53.0928 27.1228 52.4363 27.1228Z" fill="black"/>
<path d="M76.999 45.9085V34.0925L69.432 32.7677C68.7159 29.8197 67.5462 26.979 65.935 24.3055L70.3391 18.0156L61.9844 9.66089L55.6945 14.065C53.0692 12.4733 50.2153 11.2939 47.2323 10.568L45.9075 3.00098H34.0915L32.7667 10.568C29.8187 11.2841 26.9781 12.4538 24.3046 14.065L18.0146 9.66089L9.65991 18.0156L14.064 24.3055C12.4724 26.9308 11.293 29.7847 10.567 32.7677L3 34.0925V45.9085L10.567 47.2333C11.2831 50.1813 12.4528 53.0219 14.064 55.6954L9.65991 61.9854L18.0146 70.3401L24.3046 65.9359C26.9661 67.5472 29.8187 68.7169 32.7667 69.433L34.0915 77H45.9075L47.2323 69.433C50.1803 68.7169 53.021 67.5472 55.6945 65.9359L61.9844 70.3401L70.3391 61.9854L65.935 55.6954C67.5462 53.0339 68.7159 50.1813 69.432 47.2333L76.999 45.9085ZM54.4413 54.4422C46.4685 62.415 33.5306 62.415 25.5578 54.4422C17.585 46.4694 17.585 33.5315 25.5578 25.5587C33.5306 17.5859 46.4685 17.5859 54.4413 25.5587C62.4141 33.5315 62.4141 46.4694 54.4413 54.4422Z" fill="black"/>
</g>
</svg>
