<svg width="76" height="76" viewBox="0 0 76 76" fill="none" xmlns="http://www.w3.org/2000/svg">
<mask id="mask0_7039_55539" style="mask-type:alpha" maskUnits="userSpaceOnUse" x="-1" y="-1" width="78" height="78">
<rect width="76" height="76" fill="white" stroke="white" stroke-width="2"/>
</mask>
<g mask="url(#mask0_7039_55539)">
<path d="M69.602 54.8306L60.4598 47.1113C60.7562 46.5588 60.9438 45.9479 60.9977 45.3033C61.1021 44.0613 60.7181 42.8541 59.9174 41.9085C59.3312 41.2112 58.5687 40.7126 57.713 40.4554C58.9831 38.7574 58.9685 36.3442 57.5468 34.6552C56.9291 33.9219 56.1161 33.4087 55.2042 33.165C56.2205 31.5007 56.1172 29.3008 54.791 27.7253C54.0565 26.8561 53.0459 26.2957 51.9229 26.1295C52.4372 24.6292 52.1767 22.9021 51.0829 21.6051C50.2845 20.6561 49.1581 20.0767 47.915 19.9711C46.6651 19.8622 45.4635 20.2485 44.5146 21.0481L44.3416 21.194L39.1018 18.7493C36.3595 17.3254 33.9586 18.445 32.7974 20.1822C32.4111 20.7594 32.1742 21.3827 32.0506 22.0116L30.9086 21.0469C28.9422 19.3917 25.9966 19.6443 24.3403 21.6051C23.2465 22.9021 22.9859 24.6292 23.5014 26.1295C22.3784 26.2957 21.37 26.855 20.6333 27.7264C19.8337 28.6753 19.4508 29.8814 19.5552 31.1234C19.6181 31.8601 19.8461 32.5541 20.2189 33.165C19.3351 33.4031 18.5109 33.9028 17.8764 34.6541C16.4536 36.343 16.4401 38.7563 17.7113 40.4543C16.8792 40.7069 16.1077 41.1921 15.5069 41.9052C14.2413 43.4032 14.0953 45.474 14.969 47.1102L5.82232 54.8295C5.3473 55.2293 5.28778 55.9379 5.68756 56.4118C5.90991 56.6746 6.22659 56.8105 6.54776 56.8105C6.8038 56.8105 7.05984 56.724 7.27096 56.5466L16.4491 48.8014L20.1302 51.9053C20.9758 52.6184 22.0258 53.0002 23.1229 53.0002C23.2566 53.0002 23.3913 52.9935 23.5261 52.9822C24.767 52.8767 25.8922 52.2972 26.6884 51.3505C27.4902 50.4039 27.8743 49.1989 27.7698 47.9558C27.7148 47.2977 27.5194 46.6789 27.2151 46.1175C28.1427 45.8929 29.013 45.3931 29.6733 44.6104C30.5829 43.5312 30.8962 42.1589 30.6862 40.8642C30.6873 40.8642 30.6885 40.8642 30.6896 40.8642C31.999 40.8642 33.2893 40.3206 34.1731 39.2774C34.9985 38.4475 35.4252 37.3178 35.3724 36.0982C35.3702 36.0578 35.3567 36.0196 35.3544 35.9803C35.5386 36.0028 35.7205 36.0331 35.9081 36.0331C36.0417 36.0331 36.1776 36.0275 36.3123 36.0151C37.5555 35.9096 38.6796 35.329 39.4118 34.4531C40.2416 33.6277 40.6706 32.5013 40.6201 31.2806C40.574 30.1711 40.1249 29.1279 39.3949 28.3081L45.961 22.764C46.4517 22.3518 47.0739 22.1486 47.7229 22.2092C48.3687 22.2631 48.9515 22.563 49.3636 23.0526C50.2204 24.0689 50.0902 25.5972 49.0739 26.4552L48.2249 27.1739C48.2238 27.175 48.2238 27.175 48.2238 27.175C47.751 27.5748 47.6915 28.2834 48.0935 28.7573C48.4922 29.2301 49.2008 29.2885 49.6747 28.8887L49.6803 28.8831C50.1677 28.4754 50.7932 28.2823 51.4288 28.3317C52.0756 28.3856 52.6607 28.6843 53.0728 29.1739C53.9308 30.1925 53.8005 31.7186 52.7831 32.5766L50.9818 34.1004C50.9818 34.1004 50.9807 34.1016 50.9796 34.1016C50.5068 34.5025 50.4473 35.2111 50.8482 35.6838C51.248 36.1577 51.9566 36.2173 52.4305 35.8164C52.9201 35.4009 53.5624 35.2088 54.1891 35.2582C54.8336 35.3133 55.4153 35.612 55.8275 36.1016C56.6843 37.119 56.5541 38.6463 55.5389 39.5042L53.3536 41.3482L53.3524 41.3493C52.8785 41.7491 52.8179 42.4577 53.2177 42.9316C53.6175 43.4055 54.3249 43.4672 54.8 43.0663L54.8033 43.0641C55.2929 42.6519 55.9106 42.4599 56.5597 42.5093C57.2043 42.5643 57.786 42.8631 58.1992 43.3549C58.6136 43.8457 58.8112 44.47 58.7573 45.1135C58.7023 45.7581 58.4036 46.342 57.914 46.7553L47.7072 55.3708C43.5421 58.8869 40.1069 58.5151 34.9468 57.4887C34.6099 57.418 34.2651 57.5112 34.0024 57.7324L18.6344 70.7051C18.1605 71.1037 18.101 71.8123 18.5019 72.2874C18.7231 72.5501 19.0398 72.686 19.3598 72.686C19.6159 72.686 19.8719 72.5996 20.0842 72.421L35.04 59.7953C37.1714 60.2064 39.122 60.4927 41.0064 60.4231L55.3491 72.4244C55.5613 72.6007 55.8163 72.686 56.07 72.686C56.3912 72.686 56.7101 72.549 56.9325 72.284C57.33 71.8079 57.2683 71.1004 56.7921 70.7028L43.9722 59.975C45.6735 59.4933 47.3714 58.5949 49.1559 57.089L58.9797 48.7991L68.1533 56.5454C68.3644 56.724 68.6216 56.8105 68.8776 56.8105C69.1977 56.8105 69.5144 56.6757 69.7367 56.4129C70.1354 55.939 70.0758 55.2304 69.602 54.8306ZM34.7828 24.3159C33.9327 23.5983 34.0877 22.2934 34.6661 21.4299C34.9513 21.0031 36.0406 19.6926 38.1114 20.7628L42.4528 22.7887L37.7127 26.791L34.7929 24.3272L34.7851 24.3204C34.784 24.3193 34.7851 24.317 34.7828 24.3159ZM24.9747 49.8996C24.5626 50.3904 23.9809 50.6891 23.3374 50.743C22.6872 50.8014 22.0673 50.5993 21.5788 50.1871L17.5103 46.7575C16.494 45.8951 16.3649 44.369 17.2239 43.3538C18.0752 42.3431 19.5833 42.2095 20.6019 43.0517L24.6917 46.5004C25.1814 46.9125 25.4801 47.4953 25.534 48.1411C25.5879 48.7868 25.3891 49.41 24.9747 49.8996ZM27.9585 43.1606C27.1005 44.1769 25.5755 44.3072 24.5581 43.4515L22.0774 41.3594C22.0741 41.3571 22.073 41.3527 22.0696 41.3493L22.0685 41.3482L19.8843 39.5053C18.868 38.6451 18.7377 37.119 19.5934 36.1027C20.0078 35.612 20.5917 35.3133 21.2363 35.2582C21.8821 35.2055 22.5064 35.402 22.996 35.8164L22.9972 35.8175C22.9994 35.8197 23.0039 35.8197 23.0062 35.822L27.6676 39.7603C28.6851 40.6182 28.8142 42.1455 27.9585 43.1606ZM32.5223 37.7569C31.6621 38.7732 30.1371 38.9034 29.1185 38.0444L24.4312 34.0858C24.4301 34.0847 24.4278 34.0847 24.4267 34.0836L22.6378 32.5743C22.1482 32.1622 21.8495 31.5794 21.7945 30.9336C21.7394 30.2891 21.9382 29.6624 22.3503 29.1739C22.7636 28.6843 23.3464 28.3856 23.991 28.3317C24.6244 28.2722 25.2544 28.4721 25.7429 28.8797L25.753 28.8887L32.2314 34.3554C32.766 34.8068 33.1017 35.4941 33.1321 36.1926C33.1556 36.7788 32.9625 37.311 32.5223 37.7569ZM37.7644 32.9325C37.3522 33.4222 36.7705 33.7209 36.1259 33.7759C35.478 33.8354 34.857 33.6333 34.3696 33.2223C34.3146 33.1762 34.2651 33.1751 34.2191 33.2009C34.0507 33.0044 33.8788 32.8079 33.6801 32.6394L27.2005 27.1717C27.196 27.1672 27.1915 27.1649 27.187 27.1604L26.3481 26.4541C25.3318 25.595 25.2016 24.0677 26.0573 23.0526C26.9164 22.0374 28.4436 21.906 29.4599 22.7617L30.995 24.0588C30.9962 24.0588 30.9962 24.0599 30.9973 24.061L33.4364 26.1206L34.191 26.7573L37.4802 29.5344C38.0148 29.9847 38.3494 30.672 38.3797 31.3727C38.4033 31.9556 38.2079 32.4834 37.7644 32.9325Z" fill="black"/>
<path d="M42.2197 11.2144C42.8407 11.2144 43.3426 10.7124 43.3426 10.0914V4.1845C43.3426 3.5635 42.8407 3.06152 42.2197 3.06152C41.5987 3.06152 41.0967 3.5635 41.0967 4.1845V10.0914C41.0967 10.7124 41.5987 11.2144 42.2197 11.2144Z" fill="black"/>
<path d="M57.0898 14.4428C57.4357 14.4428 57.776 14.2834 57.9972 13.9846L61.4908 9.22321C61.8569 8.72348 61.7491 8.02049 61.2494 7.65328C60.7463 7.28494 60.0455 7.39612 59.6794 7.89472L56.1858 12.6562C55.8197 13.1559 55.9275 13.8589 56.4273 14.2261C56.6272 14.3721 56.8596 14.4428 57.0898 14.4428Z" fill="black"/>
<path d="M26.4275 13.9854C26.6465 14.2852 26.9879 14.4436 27.3338 14.4436C27.564 14.4436 27.7964 14.3728 27.9974 14.2257C28.4972 13.8596 28.605 13.1566 28.2378 12.6569L24.7419 7.89546C24.3758 7.39686 23.674 7.28793 23.1731 7.65514C22.6734 8.02123 22.5656 8.72422 22.9328 9.22395L26.4275 13.9854Z" fill="black"/>
</g>
</svg>
