<svg width="100" height="100" viewBox="0 0 100 100" fill="none" xmlns="http://www.w3.org/2000/svg">
<rect opacity="0.2" width="100" height="100" rx="20" fill="url(#paint0_linear_670_7203)"/>
<path d="M66.141 34.7352C66.1068 34.4839 65.8887 34.3448 65.7085 34.3295C65.5287 34.3144 61.7224 34.0295 61.7224 34.0295C61.7224 34.0295 59.0788 31.3797 58.7887 31.0864C58.4984 30.7933 57.9314 30.8825 57.7113 30.9479C57.6789 30.9575 57.1337 31.1274 56.2319 31.4092C55.3489 28.8436 53.7904 26.4859 51.0487 26.4859C50.973 26.4859 50.8951 26.489 50.8172 26.4935C50.0374 25.4523 49.0715 25 48.2372 25C41.8505 25 38.7991 33.0612 37.8425 37.1576C35.3607 37.934 33.5977 38.486 33.3725 38.5574C31.9872 38.9961 31.9434 39.0402 31.7615 40.3581C31.6246 41.3559 28 69.6571 28 69.6571L56.2437 75L71.5471 71.6575C71.5471 71.6575 66.1748 34.9865 66.141 34.7352ZM54.6709 31.8966L52.281 32.6434C52.2819 32.4734 52.2827 32.3061 52.2827 32.1231C52.2827 30.5286 52.0635 29.2448 51.7118 28.227C53.1245 28.406 54.0654 30.029 54.6709 31.8966ZM49.9594 28.5432C50.3521 29.5369 50.6075 30.9629 50.6075 32.8871C50.6075 32.9856 50.6066 33.0756 50.6058 33.1667C49.0516 33.6527 47.3627 34.1804 45.6701 34.7099C46.6205 31.0066 48.4019 29.2179 49.9594 28.5432ZM48.0618 26.7296C48.3375 26.7296 48.6152 26.8241 48.8809 27.0088C46.8341 27.9813 44.6401 30.4305 43.7136 35.3216L39.8121 36.5416C40.8973 32.8109 43.4744 26.7296 48.0618 26.7296Z" fill="black"/>
<path d="M65.7086 34.3297C65.5288 34.3145 61.7224 34.0297 61.7224 34.0297C61.7224 34.0297 59.0789 31.3799 58.7888 31.0866C58.6802 30.9775 58.5337 30.9216 58.3806 30.8975L56.2451 74.9998L71.5471 71.6576C71.5471 71.6576 66.1749 34.9866 66.1411 34.7354C66.1068 34.4841 65.8888 34.345 65.7086 34.3297Z" fill="black"/>
<path d="M51.0487 42.867L49.1617 48.5342C49.1617 48.5342 47.5085 47.6433 45.4819 47.6433C42.5109 47.6433 42.3614 49.5257 42.3614 50.0001C42.3614 52.5884 49.0439 53.5802 49.0439 59.6429C49.0439 64.4128 46.0475 67.4842 42.0073 67.4842C37.1591 67.4842 34.6797 64.4377 34.6797 64.4377L35.9778 60.1072C35.9778 60.1072 38.5264 62.3164 40.6769 62.3164C42.0822 62.3164 42.6538 61.1993 42.6538 60.3831C42.6538 57.0069 37.1713 56.8563 37.1713 51.3084C37.1713 46.639 40.4908 42.1204 47.1914 42.1204C49.7732 42.1204 51.0487 42.867 51.0487 42.867Z" fill="white"/>
<defs>
<linearGradient id="paint0_linear_670_7203" x1="11.809" y1="1.81213e-05" x2="100.05" y2="16.5617" gradientUnits="userSpaceOnUse">
<stop stop-color="#2EC4F3"/>
<stop offset="1" stop-color="#BFD633"/>
</linearGradient>
</defs>
</svg>
