<svg width="56" height="53" viewBox="0 0 56 53" fill="none" xmlns="http://www.w3.org/2000/svg">
<mask id="mask0_7200_56414" style="mask-type:alpha" maskUnits="userSpaceOnUse" x="0" y="0" width="56" height="53">
<rect width="56" height="53" fill="#D9D9D9"/>
</mask>
<g mask="url(#mask0_7200_56414)">
<path d="M44.2999 12.6156C44.2661 12.3698 44.0508 12.2338 43.8728 12.2188C43.6952 12.204 39.9362 11.9253 39.9362 11.9253C39.9362 11.9253 37.3255 9.33352 37.0389 9.04664C36.7522 8.75993 36.1923 8.84714 35.9749 8.91111C35.9429 8.92054 35.4045 9.08671 34.5139 9.3623C33.6419 6.8528 32.1028 4.54667 29.3951 4.54667C29.3204 4.54667 29.2434 4.5497 29.1665 4.55408C28.3964 3.5357 27.4425 3.09326 26.6186 3.09326C20.3112 3.09326 17.2978 10.9782 16.353 14.985C13.9021 15.7445 12.1609 16.2844 11.9385 16.3543C10.5705 16.7834 10.5272 16.8265 10.3476 18.1156C10.2124 19.0916 6.63281 46.774 6.63281 46.774L34.5256 52.0001L49.6388 48.7307C49.6388 48.7307 44.3333 12.8614 44.2999 12.6156ZM32.9723 9.83909L30.6121 10.5696C30.613 10.4032 30.6138 10.2396 30.6138 10.0606C30.6138 8.501 30.3973 7.24524 30.05 6.24975C31.4452 6.42484 32.3743 8.01226 32.9723 9.83909ZM28.3193 6.55902C28.7072 7.53094 28.9594 8.92576 28.9594 10.808C28.9594 10.9043 28.9586 10.9923 28.9577 11.0814C27.4228 11.5568 25.7549 12.073 24.0833 12.5909C25.0219 8.96852 26.7812 7.21897 28.3193 6.55902ZM26.4454 4.78506C26.7176 4.78506 26.9918 4.87749 27.2543 5.05814C25.2329 6.00934 23.0661 8.40504 22.1511 13.1892L18.2981 14.3825C19.3699 10.7334 21.9149 4.78506 26.4454 4.78506Z" fill="#2E2E2E"/>
<path d="M43.8772 12.2189C43.6995 12.2041 39.9405 11.9254 39.9405 11.9254C39.9405 11.9254 37.3298 9.33359 37.0433 9.04672C36.936 8.93998 36.7914 8.88526 36.6402 8.86169L34.5312 51.9999L49.6431 48.7307C49.6431 48.7307 44.3376 12.8615 44.3043 12.6157C44.2704 12.3699 44.0551 12.2338 43.8772 12.2189Z" fill="black"/>
<path d="M29.3961 20.5696L27.5326 26.1128C27.5326 26.1128 25.8999 25.2414 23.8985 25.2414C20.9644 25.2414 20.8167 27.0827 20.8167 27.5467C20.8167 30.0784 27.4162 31.0485 27.4162 36.9786C27.4162 41.6443 24.4571 44.6486 20.467 44.6486C15.679 44.6486 13.2305 41.6687 13.2305 41.6687L14.5125 37.4329C14.5125 37.4329 17.0294 39.5937 19.1532 39.5937C20.541 39.5937 21.1055 38.5011 21.1055 37.7027C21.1055 34.4003 15.6911 34.253 15.6911 28.8264C15.6911 24.2591 18.9694 19.8392 25.5867 19.8392C28.1365 19.8392 29.3961 20.5696 29.3961 20.5696Z" fill="white"/>
</g>
</svg>
