<svg width="76" height="76" viewBox="0 0 76 76" fill="none" xmlns="http://www.w3.org/2000/svg">
<mask id="mask0_7039_55536" style="mask-type:alpha" maskUnits="userSpaceOnUse" x="-1" y="-1" width="78" height="78">
<rect width="76" height="76" fill="white" stroke="white" stroke-width="2"/>
</mask>
<g mask="url(#mask0_7039_55536)">
<path fill-rule="evenodd" clip-rule="evenodd" d="M66.7944 7H9.20562C7.03013 7.00261 4.94448 7.87127 3.40619 9.41544C1.8679 10.9596 1.00256 13.0532 1 15.2369L1 26.0198H75V15.2369C74.997 13.0533 74.1315 10.96 72.5933 9.41601C71.0551 7.87198 68.9697 7.00296 66.7944 7ZM1 29.9136V60.7632C1.0026 62.9469 1.86795 65.0405 3.40624 66.5846C4.94453 68.1287 7.03015 68.9974 9.20562 69H66.7944C68.9697 68.997 71.0551 68.1282 72.5933 66.5842C74.1315 65.0401 74.997 62.9468 75 60.7632V29.9136H1ZM55.2304 42.5884L50.3285 47.5098L55.23 52.4312C55.4101 52.6119 55.553 52.8265 55.6505 53.0626C55.7481 53.2988 55.7983 53.5519 55.7984 53.8075C55.7984 54.0632 55.7483 54.3163 55.6509 54.5525C55.5535 54.7887 55.4108 55.0033 55.2307 55.1841C55.0507 55.3649 54.837 55.5084 54.6017 55.6063C54.3665 55.7042 54.1143 55.7546 53.8596 55.7546C53.605 55.7547 53.3528 55.7044 53.1175 55.6067C52.8822 55.5089 52.6684 55.3656 52.4882 55.1849L47.5855 50.2634L42.6814 55.1847C42.3177 55.5499 41.8243 55.7551 41.3099 55.7551C40.7955 55.7552 40.3021 55.5501 39.9383 55.185C39.5745 54.8199 39.3701 54.3247 39.3701 53.8083C39.37 53.2919 39.5743 52.7967 39.938 52.4315L44.8424 47.5098L39.938 42.5881C39.7579 42.4073 39.6151 42.1926 39.5176 41.9564C39.4202 41.7202 39.37 41.467 39.3701 41.2113C39.3701 40.9556 39.4203 40.7024 39.5178 40.4662C39.6153 40.23 39.7582 40.0154 39.9383 39.8346C40.1184 39.6538 40.3323 39.5104 40.5676 39.4126C40.803 39.3148 41.0552 39.2645 41.3099 39.2645C41.5646 39.2645 41.8168 39.3149 42.0522 39.4128C42.2875 39.5107 42.5013 39.6541 42.6814 39.8349L47.5855 44.7562L52.4882 39.8348C52.6684 39.654 52.8822 39.5107 53.1175 39.413C53.3528 39.3152 53.605 39.2649 53.8596 39.265C54.1143 39.265 54.3665 39.3155 54.6017 39.4134C54.837 39.5112 55.0507 39.6547 55.2307 39.8355C55.4108 40.0163 55.5535 40.2309 55.6509 40.4671C55.7483 40.7033 55.7984 40.9565 55.7984 41.2121C55.7983 41.4677 55.7481 41.7208 55.6505 41.957C55.553 42.1931 55.4106 42.4077 55.2304 42.5884ZM34.956 41.2046V48.354C34.9603 49.3294 34.7727 50.2959 34.4038 51.1983C34.035 52.1006 33.4922 52.9209 32.8067 53.6121C32.1211 54.3033 31.3063 54.8517 30.4091 55.226C29.5118 55.6002 28.5497 55.7929 27.5781 55.7929C26.6064 55.7929 25.6443 55.6002 24.7471 55.226C23.8498 54.8517 23.035 54.3033 22.3495 53.6121C21.6639 52.9209 21.1212 52.1006 20.7523 51.1983C20.3835 50.2959 20.1958 49.3294 20.2001 48.354V41.2046C20.2001 40.6884 20.4044 40.1932 20.7681 39.8282C21.1317 39.4631 21.625 39.2581 22.1393 39.2581C22.6536 39.2581 23.1468 39.4631 23.5105 39.8282C23.8742 40.1932 24.0785 40.6884 24.0785 41.2046V48.354C24.0785 49.2856 24.4471 50.179 25.1033 50.8377C25.7595 51.4964 26.6495 51.8664 27.5776 51.8664C28.5056 51.8664 29.3956 51.4964 30.0518 50.8377C30.708 50.179 31.0767 49.2856 31.0767 48.354V41.2046C31.0811 40.6911 31.2874 40.2002 31.6507 39.8387C32.0139 39.4771 32.5048 39.2743 33.0163 39.2743C33.5279 39.2743 34.0187 39.4771 34.382 39.8387C34.7453 40.2002 34.9516 40.6911 34.956 41.2046ZM42.307 18.4563C42.307 18.2006 42.3571 17.9475 42.4546 17.7113C42.552 17.4751 42.6948 17.2605 42.8749 17.0798C43.055 16.899 43.2688 16.7556 43.5041 16.6578C43.7394 16.56 43.9915 16.5097 44.2462 16.5097H63.2012C63.7127 16.5142 64.2018 16.7213 64.562 17.0859C64.9221 17.4506 65.1242 17.9433 65.1242 18.4568C65.1242 18.9703 64.9221 19.463 64.562 19.8277C64.2018 20.1923 63.7127 20.3994 63.2012 20.4038H44.2462C43.9915 20.4038 43.7392 20.3535 43.5039 20.2556C43.2685 20.1577 43.0547 20.0142 42.8746 19.8334C42.6946 19.6525 42.5517 19.4378 42.4544 19.2015C42.357 18.9652 42.3069 18.712 42.307 18.4563ZM10.8606 18.4563C10.8603 18.2007 10.9102 17.9475 11.0075 17.7112C11.1048 17.475 11.2475 17.2603 11.4275 17.0795C11.6076 16.8987 11.8213 16.7553 12.0566 16.6575C12.2919 16.5598 12.5441 16.5095 12.7988 16.5097H12.801C13.1846 16.5099 13.5596 16.6242 13.8785 16.8382C14.1975 17.0523 14.446 17.3564 14.5927 17.7123C14.7394 18.0681 14.7777 18.4596 14.7028 18.8373C14.6278 19.215 14.443 19.5619 14.1716 19.8341C13.9002 20.1063 13.5546 20.2917 13.1783 20.3667C12.802 20.4417 12.412 20.403 12.0576 20.2555C11.7032 20.1081 11.4003 19.8584 11.1872 19.5381C10.9742 19.2179 10.8605 18.8414 10.8606 18.4563ZM19.2569 18.4563C19.2566 18.2007 19.3065 17.9475 19.4037 17.7113C19.501 17.475 19.6437 17.2604 19.8237 17.0796C20.0038 16.8987 20.2175 16.7554 20.4528 16.6576C20.6881 16.5598 20.9403 16.5096 21.1949 16.5097H21.1981C21.5817 16.51 21.9566 16.6245 22.2754 16.8386C22.5942 17.0528 22.8426 17.357 22.9892 17.7129C23.1358 18.0687 23.174 18.4602 23.0989 18.8378C23.0239 19.2155 22.8389 19.5623 22.5676 19.8344C22.2962 20.1065 21.9505 20.2918 21.5742 20.3667C21.1979 20.4417 20.808 20.403 20.4536 20.2555C20.0993 20.108 19.7964 19.8583 19.5834 19.5381C19.3704 19.2178 19.2568 18.8413 19.2569 18.4563ZM27.6519 18.4563C27.6517 17.9402 27.8559 17.4451 28.2193 17.0801C28.5828 16.7151 29.0759 16.5099 29.59 16.5097H29.5942C29.9778 16.5103 30.3525 16.625 30.6711 16.8393C30.9898 17.0537 31.2379 17.358 31.3843 17.7139C31.5307 18.0697 31.5686 18.4612 31.4934 18.8387C31.4182 19.2162 31.2332 19.5629 30.9617 19.8349C30.6903 20.1069 30.3446 20.292 29.9683 20.3669C29.5921 20.4417 29.2022 20.4029 28.8479 20.2553C28.4937 20.1078 28.1909 19.8581 27.978 19.5379C27.765 19.2177 27.6517 18.8413 27.6519 18.4563Z" stroke="black" stroke-width="1.5"/>
</g>
</svg>
