<svg width="93" height="92" viewBox="0 0 93 92" fill="none" xmlns="http://www.w3.org/2000/svg">
<mask id="mask0_7374_81224" style="mask-type:alpha" maskUnits="userSpaceOnUse" x="0" y="0" width="93" height="92">
<rect x="0.125" width="92" height="92" fill="black"/>
</mask>
<g mask="url(#mask0_7374_81224)">
<path d="M72.0241 36.675L71.2991 29.75C70.2491 22.2 66.8241 19.125 59.4991 19.125H53.5991H49.8991H42.2991H38.5991H32.5991C25.2491 19.125 21.8491 22.2 20.7741 29.825L20.0991 36.7C19.8491 39.375 20.5741 41.975 22.1491 44C24.0491 46.475 26.9741 47.875 30.2241 47.875C33.3741 47.875 36.3991 46.3 38.2991 43.775C39.9991 46.3 42.8991 47.875 46.1241 47.875C49.3491 47.875 52.1741 46.375 53.8991 43.875C55.8241 46.35 58.7991 47.875 61.8991 47.875C65.2241 47.875 68.2241 46.4 70.0991 43.8C71.5991 41.8 72.2741 39.275 72.0241 36.675Z" fill="black"/>
<path d="M44.5008 57.6506C41.3258 57.9756 38.9258 60.6756 38.9258 63.8756V70.7256C38.9258 71.4006 39.4758 71.9506 40.1508 71.9506H52.0758C52.7508 71.9506 53.3008 71.4006 53.3008 70.7256V64.7506C53.3258 59.5256 50.2508 57.0506 44.5008 57.6506Z" fill="black"/>
<path d="M69.5492 51.9992V59.4492C69.5492 66.3492 63.9492 71.9492 57.0492 71.9492C56.3742 71.9492 55.8242 71.3992 55.8242 70.7242V64.7492C55.8242 61.5492 54.8492 59.0492 52.9492 57.3492C51.2742 55.8242 48.9992 55.0742 46.1742 55.0742C45.5492 55.0742 44.9242 55.0992 44.2492 55.1742C39.7992 55.6242 36.4242 59.3742 36.4242 63.8742V70.7242C36.4242 71.3992 35.8742 71.9492 35.1992 71.9492C28.2992 71.9492 22.6992 66.3492 22.6992 59.4492V52.0492C22.6992 50.2992 24.4242 49.1242 26.0492 49.6992C26.7242 49.9242 27.3992 50.0992 28.0992 50.1992C28.3992 50.2492 28.7242 50.2992 29.0242 50.2992C29.4242 50.3492 29.8242 50.3742 30.2242 50.3742C33.1242 50.3742 35.9742 49.2992 38.2242 47.4492C40.3742 49.2992 43.1742 50.3742 46.1242 50.3742C49.0992 50.3742 51.8492 49.3492 53.9992 47.4992C56.2492 49.3242 59.0492 50.3742 61.8992 50.3742C62.3492 50.3742 62.7992 50.3492 63.2242 50.2992C63.5242 50.2742 63.7992 50.2492 64.0742 50.1992C64.8492 50.0992 65.5492 49.8742 66.2492 49.6492C67.8742 49.0992 69.5492 50.2992 69.5492 51.9992Z" fill="black"/>
</g>
</svg>
