<svg width="80" height="80" viewBox="0 0 80 80" fill="none" xmlns="http://www.w3.org/2000/svg">
<mask id="mask0_7380_56025" style="mask-type:alpha" maskUnits="userSpaceOnUse" x="-1" y="-1" width="82" height="82">
<rect width="80" height="80" fill="white" stroke="white" stroke-width="2"/>
</mask>
<g mask="url(#mask0_7380_56025)">
<path fill-rule="evenodd" clip-rule="evenodd" d="M52.2806 48.2661C51.3444 47.5115 51.1401 46.1724 51.804 45.1794C61.955 28.9004 49.4266 6.66302 30.197 7.00437C22.2248 7.01004 14.7242 10.7834 9.96848 17.178C5.21363 23.5784 3.76672 31.8461 6.06469 39.4823C8.35699 47.114 14.1276 53.2136 21.6232 55.9254C29.1188 58.6372 37.4591 57.6503 44.109 53.2586C44.9658 52.6402 46.1346 52.6855 46.946 53.3721C46.958 53.3991 53.1746 58.8394 59.0284 63.9621C64.2353 68.5187 69.1551 72.8241 69.166 72.8453C70.6924 74.1503 72.9847 73.9858 74.3125 72.4765C75.6402 70.9728 75.5097 68.6748 74.0231 67.33L52.2806 48.2661ZM14.4794 37.9386C15.3093 38.3012 16.302 38.4826 17.4576 38.4826C18.5825 38.4826 19.5476 38.3135 20.3528 37.9755C21.1642 37.6312 21.7881 37.1425 22.2246 36.5094C22.661 35.8701 22.8792 35.114 22.8792 34.2412C22.8792 33.7125 22.7901 33.2392 22.6118 32.8212C22.4397 32.4032 22.1754 32.0344 21.8189 31.7148C21.4685 31.3951 21.029 31.1216 20.5004 30.8942C19.9779 30.6667 19.3693 30.4792 18.6747 30.3317L17.3746 30.0367C16.8521 29.9199 16.4157 29.7877 16.0653 29.6402C15.7211 29.4865 15.4629 29.3052 15.2908 29.0962C15.1249 28.8872 15.0419 28.6352 15.0419 28.3401C15.0419 28.0082 15.1402 27.7162 15.3369 27.4642C15.5336 27.2121 15.8102 27.0154 16.1668 26.8741C16.5233 26.7327 16.9351 26.662 17.4023 26.662C18.1338 26.662 18.7208 26.8403 19.1634 27.1968C19.6121 27.5533 19.8611 28.0481 19.9103 28.6813H22.575C22.5504 27.7838 22.326 27.0093 21.9019 26.3577C21.4777 25.7061 20.8815 25.2052 20.1131 24.8548C19.3509 24.4983 18.4442 24.32 17.3931 24.32C16.3665 24.32 15.4599 24.4952 14.673 24.8456C13.8924 25.1898 13.2838 25.6754 12.8474 26.3024C12.411 26.9232 12.1928 27.6516 12.1928 28.4876C12.1928 29.4711 12.5247 30.2764 13.1886 30.9034C13.8524 31.5304 14.8421 31.9914 16.1575 32.2864L17.6144 32.6092C18.1799 32.7383 18.6409 32.8827 18.9974 33.0425C19.3601 33.2023 19.6275 33.3929 19.7996 33.6142C19.9717 33.8293 20.0578 34.0875 20.0578 34.3887C20.0578 34.7391 19.9502 35.0464 19.7351 35.3108C19.5199 35.5751 19.2187 35.781 18.8315 35.9285C18.4442 36.076 17.9893 36.1498 17.4668 36.1498C16.9013 36.1498 16.4096 36.0576 15.9916 35.8732C15.5736 35.6888 15.2478 35.4245 15.0142 35.0802C14.7806 34.7299 14.6577 34.3088 14.6454 33.817H11.9069C11.9131 34.8067 12.1374 35.6519 12.58 36.3527C13.0226 37.0473 13.6557 37.5759 14.4794 37.9386ZM24.6311 24.5321V38.2705H34.3494V35.864H27.4618V32.5077H33.8239V30.1565H27.4618V26.9386H34.3494V24.5321H24.6311ZM38.849 37.6251C39.8264 38.1967 40.9298 38.4826 42.1591 38.4826C43.3885 38.4826 44.4888 38.1998 45.4601 37.6343C46.4313 37.0626 47.1996 36.2482 47.7652 35.1909C48.3307 34.1336 48.6134 32.8735 48.6134 31.4105C48.6134 29.9414 48.3307 28.6782 47.7652 27.6209C47.1996 26.5575 46.4313 25.743 45.4601 25.1775C44.4888 24.6058 43.3885 24.32 42.1591 24.32C40.9298 24.32 39.8264 24.6058 38.849 25.1775C37.8717 25.743 37.1002 26.5575 36.5347 27.6209C35.9753 28.6782 35.6956 29.9414 35.6956 31.4105C35.6956 32.8673 35.9753 34.1244 36.5347 35.1817C37.1002 36.2389 37.8717 37.0534 38.849 37.6251ZM44.0309 35.4491C43.49 35.8056 42.866 35.9838 42.1591 35.9838C41.4522 35.9838 40.8253 35.8056 40.2782 35.4491C39.7372 35.0925 39.3131 34.5731 39.0058 33.8908C38.6984 33.2085 38.5447 32.3817 38.5447 31.4105C38.5447 30.4331 38.6984 29.6033 39.0058 28.921C39.3131 28.2325 39.7372 27.71 40.2782 27.3535C40.8253 26.997 41.4522 26.8187 42.1591 26.8187C42.866 26.8187 43.49 26.997 44.0309 27.3535C44.5718 27.71 44.996 28.2325 45.3033 28.921C45.6107 29.6033 45.7643 30.4331 45.7643 31.4105C45.7643 32.3817 45.6107 33.2085 45.3033 33.8908C44.996 34.5731 44.5718 35.0925 44.0309 35.4491Z" fill="black"/>
</g>
</svg>
