<svg width="80" height="80" viewBox="0 0 80 80" fill="none" xmlns="http://www.w3.org/2000/svg">
<mask id="mask0_7380_56018" style="mask-type:alpha" maskUnits="userSpaceOnUse" x="-1" y="-1" width="82" height="82">
<rect width="80" height="80" fill="white" stroke="white"/>
</mask>
<g mask="url(#mask0_7380_56018)">
<path d="M65.4286 7H37.1429C33.2441 7 30.0714 10.1727 30.0714 14.0714H27.7143C27.0891 14.0714 26.4896 14.3198 26.0475 14.7618C25.6055 15.2039 25.3571 15.8034 25.3571 16.4286V20.0161C24.6567 20.2642 23.9698 20.549 23.2994 20.8694L20.7607 18.3331C20.3187 17.8912 19.7192 17.643 19.0942 17.643C18.4692 17.643 17.8697 17.8912 17.4277 18.3331L10.7617 24.9991C10.3198 25.4412 10.0716 26.0406 10.0716 26.6656C10.0716 27.2907 10.3198 27.8901 10.7617 28.3321L13.298 30.8708C12.9776 31.5412 12.6928 32.2281 12.4447 32.9286H8.85714C8.23199 32.9286 7.63244 33.1769 7.19039 33.619C6.74834 34.061 6.5 34.6606 6.5 35.2857V44.7143C6.5 45.3394 6.74834 45.939 7.19039 46.381C7.63244 46.8231 8.23199 47.0714 8.85714 47.0714H12.4447C12.6946 47.7739 12.9774 48.4598 13.298 49.1292L10.7617 51.6679C10.3198 52.1099 10.0716 52.7093 10.0716 53.3344C10.0716 53.9594 10.3198 54.5588 10.7617 55.0009L17.4277 61.6669C17.8697 62.1088 18.4692 62.357 19.0942 62.357C19.7192 62.357 20.3187 62.1088 20.7607 61.6669L23.2994 59.1306C23.9688 59.4511 24.6547 59.734 25.3571 59.9839V63.5714C25.3571 64.1966 25.6055 64.7961 26.0475 65.2382C26.4896 65.6802 27.0891 65.9286 27.7143 65.9286H30.0714C30.0714 69.8273 33.2441 73 37.1429 73H65.4286C69.3273 73 72.5 69.8273 72.5 65.9286V14.0714C72.5 10.1727 69.3273 7 65.4286 7ZM28.3036 55.9579C26.8146 55.5735 25.3871 54.9816 24.0631 54.1994C23.6119 53.9356 23.0862 53.8284 22.5678 53.8945C22.0494 53.9606 21.5673 54.1962 21.1968 54.5648L19.0942 56.6674L15.7612 53.3344L17.8638 51.2318C18.6251 50.4704 18.7736 49.2895 18.2291 48.3655C17.4462 47.0416 16.8534 45.6141 16.4684 44.125C16.3378 43.6195 16.0432 43.1717 15.6307 42.8517C15.2181 42.5317 14.7111 42.3578 14.189 42.3571H11.2143V37.6429H14.189C14.7111 37.6422 15.2181 37.4683 15.6307 37.1483C16.0432 36.8283 16.3378 36.3805 16.4684 35.875C16.8573 34.3806 17.4489 32.9521 18.2291 31.6345C18.4941 31.1837 18.602 30.6577 18.5359 30.139C18.4698 29.6202 18.2334 29.1381 17.8638 28.7682L15.7612 26.6656L19.0942 23.3326L21.1968 25.4352C21.9605 26.1966 23.1414 26.3451 24.0631 25.8006C25.387 25.0176 26.8145 24.4249 28.3036 24.0398C28.8091 23.9093 29.2569 23.6146 29.5769 23.2021C29.8968 22.7896 30.0708 22.2825 30.0714 21.7604V18.7857H34.7857V21.7604C34.7864 22.2825 34.9603 22.7896 35.2803 23.2021C35.6002 23.6146 36.0481 23.9093 36.5536 24.0398C38.048 24.4287 39.4764 25.0204 40.7941 25.8006C41.7204 26.3451 42.899 26.1966 43.6604 25.4352L45.7629 23.3326L49.0959 26.6656L46.9934 28.7682C46.6237 29.1381 46.3874 29.6202 46.3212 30.139C46.2551 30.6577 46.363 31.1837 46.628 31.6345C47.4082 32.9545 47.9999 34.3806 48.3888 35.875C48.5193 36.3805 48.8139 36.8283 49.2265 37.1483C49.639 37.4683 50.1461 37.6422 50.6681 37.6429H53.6429V42.3571H50.6681C50.1461 42.3578 49.639 42.5317 49.2265 42.8517C48.8139 43.1717 48.5193 43.6195 48.3888 44.125C48.0037 45.6141 47.411 47.0416 46.628 48.3655C46.0835 49.2895 46.232 50.4704 46.9934 51.2318L49.0959 53.3344L45.7629 56.6674L43.6604 54.5648C43.29 54.1959 42.808 53.96 42.2894 53.8939C41.7709 53.8278 41.2451 53.9352 40.7941 54.1994C39.4702 54.9824 38.0427 55.5751 36.5536 55.9602C36.0481 56.0907 35.6002 56.3854 35.2803 56.7979C34.9603 57.2104 34.7864 57.7175 34.7857 58.2396V61.2143H30.0714V58.2396C30.0708 57.7175 29.8968 57.2104 29.5769 56.7979C29.2569 56.3854 28.8091 56.0884 28.3036 55.9579ZM50.5 49C50.5 49.6252 51.7278 55.5158 51.2857 55.9579C50.8437 56.3999 52.1843 56.6674 51.5591 56.6674L50.6681 55.5L31.5 63C30.8748 63 35.9182 68.0374 35.4761 67.5953C35.0341 67.1533 34.7857 66.5537 34.7857 65.9286H37.1429C37.768 65.9286 38.3676 65.6802 38.8096 65.2382C39.2517 64.7961 39.5 64.1966 39.5 63.5714V59.9839C40.2004 59.7358 40.8873 59.451 41.5578 59.1306L44.0964 61.6669C44.5385 62.1088 45.1379 62.357 45.7629 62.357C46.388 62.357 46.9874 62.1088 47.4294 61.6669L54.0954 55.0009C54.5373 54.5588 54.7856 53.9594 54.7856 53.3344C54.7856 52.7093 54.5373 52.1099 54.0954 51.6679L51.5591 49.1292C51.8795 48.4588 52.1644 47.7719 52.4124 47.0714H56C56.6252 47.0714 57.2247 46.8231 57.6668 46.381C58.1088 45.939 58.3571 45.3394 58.3571 44.7143V35.2857C58.3571 34.6606 58.1088 34.061 57.6668 33.619C57.2247 33.1769 56.6252 32.9286 56 32.9286L48.5 24L52.4124 32.9286C52.1644 32.2281 53.5024 30.8094 53.182 30.139L54.0954 28.3321C54.5373 27.8901 54.7856 27.2907 54.7856 26.6656C54.7856 26.0406 54.5373 25.4412 54.0954 24.9991L47.4294 18.3331C46.9874 17.8912 46.388 17.643 45.7629 17.643C45.1379 17.643 44.5385 17.8912 44.0964 18.3331L43.5 18C42.8295 17.6796 43.2004 17.2481 42.5 17L43 16.4286C43 15.8034 39.2517 15.2039 38.8096 14.7618C38.3676 14.3198 38.6252 13.5 38 13.5L35.4761 10.5C35.4761 9.87485 35.0341 12.8467 35.4761 12.4047C35.9182 11.9626 36.5177 11.7143 37.1429 11.7143H46.5714C46.5714 14.3142 48.6858 16.4286 51.2857 16.4286C53.8856 16.4286 56 14.3142 56 11.7143L34 11C34.6252 11 50.0579 25.0579 50.5 25.5C50.9421 25.9421 57 39.3748 57 40L50.5 49Z" fill="black"/>
<path d="M39.9981 42.1074H39.7481V42.3574V51.7859C39.7481 52.3448 39.5261 52.8808 39.1309 53.2759C38.7358 53.6711 38.1998 53.8931 37.641 53.8931H28.2124C27.6535 53.8931 27.1176 53.6711 26.7224 53.2759C26.3272 52.8808 26.1052 52.3448 26.1052 51.7859V42.3574V42.1074H25.8552H18.7838H18.7833C18.3662 42.1083 17.9582 41.9853 17.6112 41.7539C17.2641 41.5226 16.9936 41.1933 16.834 40.808C16.6744 40.4226 16.6329 39.9986 16.7147 39.5896C16.7966 39.1806 16.9981 38.8052 17.2937 38.5109L17.2941 38.5105L31.4369 24.3677C31.4369 24.3677 31.4369 24.3677 31.437 24.3676C31.8321 23.9726 32.3679 23.7507 32.9267 23.7507C33.4854 23.7507 34.0213 23.9726 34.4164 24.3676C34.4164 24.3677 34.4164 24.3677 34.4164 24.3677L48.5593 38.5105L48.5597 38.5109C48.8553 38.8052 49.0568 39.1806 49.1386 39.5896C49.2204 39.9986 49.1789 40.4226 49.0193 40.808C48.8597 41.1933 48.5892 41.5226 48.2422 41.7539C47.8951 41.9853 47.4872 42.1083 47.0701 42.1074H47.0695H39.9981ZM40.2481 42.3574H47.0695H40.2481ZM35.2838 49.6788H35.5338V49.4288V40.0002C35.5338 39.4414 35.7558 38.9054 36.151 38.5103C36.5462 38.1151 37.0821 37.8931 37.641 37.8931H41.3794H41.9829L41.5562 37.4663L33.1035 29.0136L32.9267 28.8368L32.7499 29.0136L24.2972 37.4663L23.8704 37.8931H24.474H28.2124C28.7712 37.8931 29.3072 38.1151 29.7024 38.5103C30.0975 38.9054 30.3195 39.4414 30.3195 40.0002V49.4288V49.6788H30.5695H35.2838Z" fill="black" stroke="white" stroke-width="0.5"/>
<rect width="10" height="1" rx="0.5" transform="matrix(-1 0 0 1 57 10)" fill="#D9D9D9"/>
<path d="M45 10.5C45 10.7761 45.2239 11 45.5 11C45.7761 11 46 10.7761 46 10.5C46 10.2239 45.7761 10 45.5 10C45.2239 10 45 10.2239 45 10.5Z" fill="#D9D9D9"/>
</g>
</svg>
