<svg width="81" height="81" viewBox="0 0 81 81" fill="none" xmlns="http://www.w3.org/2000/svg">
<mask id="mask0_7380_56008" style="mask-type:alpha" maskUnits="userSpaceOnUse" x="0" y="0" width="82" height="82">
<rect x="1" y="1" width="80" height="80" fill="white" stroke="white" stroke-width="2"/>
</mask>
<g mask="url(#mask0_7380_56008)">
<path d="M43.8454 0.980713H9.55345C7.27976 0.980713 5.09918 1.88394 3.49144 3.49168C1.88369 5.09943 0.980469 7.28 0.980469 9.5537V72.4222C0.980469 74.6959 1.88369 76.8765 3.49144 78.4843C5.09918 80.092 7.27976 80.9952 9.55345 80.9952H43.8454C46.1191 80.9952 48.2997 80.092 49.9074 78.4843C51.5151 76.8765 52.4184 74.6959 52.4184 72.4222V9.5537C52.4184 7.28 51.5151 5.09943 49.9074 3.49168C48.2997 1.88394 46.1191 0.980713 43.8454 0.980713ZM49.5607 70.9934C49.5607 74.9313 46.3573 78.1376 42.4166 78.1376H10.9823C9.08823 78.1353 7.27241 77.3819 5.93311 76.0426C4.59381 74.7033 3.8404 72.8875 3.83813 70.9934V10.9825C3.83813 7.04467 7.04443 3.83837 10.9823 3.83837H42.4166C46.3573 3.83837 49.5607 7.04467 49.5607 10.9825V70.9934Z" fill="black"/>
<path d="M42.4161 6.69629H32.4143C32.4143 8.21209 31.8121 9.6658 30.7403 10.7376C29.6685 11.8095 28.2147 12.4116 26.6989 12.4116C25.1831 12.4116 23.7294 11.8095 22.6576 10.7376C21.5858 9.6658 20.9836 8.21209 20.9836 6.69629H10.9818C8.61852 6.69629 6.69531 8.6195 6.69531 10.9828V70.9937C6.69531 73.357 8.61852 75.2802 10.9818 75.2802H42.4161C44.7794 75.2802 46.7026 73.357 46.7026 70.9937V10.9828C46.7026 8.6195 44.7794 6.69629 42.4161 6.69629ZM23.3555 49.9156C23.6404 50.1657 23.8144 50.5187 23.839 50.8971C23.8637 51.2754 23.737 51.6481 23.4869 51.9331C23.2368 52.218 22.8838 52.392 22.5054 52.4166C22.127 52.4413 21.7544 52.3146 21.4694 52.0645L10.0388 42.0627C9.88579 41.9286 9.7632 41.7634 9.67921 41.5781C9.59522 41.3928 9.55178 41.1917 9.55178 40.9882C9.55178 40.7848 9.59522 40.5837 9.67921 40.3984C9.7632 40.2131 9.88579 40.0478 10.0388 39.9137L21.4694 29.9119C21.7551 29.6649 22.1269 29.541 22.5037 29.5674C22.8804 29.5937 23.2314 29.7682 23.4799 30.0525C23.7284 30.3369 23.8542 30.7081 23.8298 31.085C23.8055 31.4619 23.6329 31.8138 23.3498 32.0637L13.1536 40.9882L23.3555 49.9156ZM43.3591 42.0627L31.9285 52.0645C31.7877 52.1894 31.6236 52.285 31.4456 52.3459C31.2676 52.4068 31.0793 52.4317 30.8916 52.4192C30.7039 52.4067 30.5206 52.357 30.3522 52.2731C30.1839 52.1891 30.0339 52.0726 29.911 51.9302C29.6619 51.6451 29.5361 51.2728 29.5613 50.8951C29.5865 50.5174 29.7605 50.1651 30.0453 49.9156L40.2443 40.9882L30.0424 32.0609C29.7742 31.807 29.6148 31.4592 29.5974 31.0904C29.5801 30.7215 29.7062 30.3602 29.9494 30.0823C30.1925 29.8044 30.5338 29.6315 30.9017 29.5997C31.2696 29.5679 31.6355 29.6798 31.9227 29.9119L43.3534 39.9137C43.5064 40.0478 43.629 40.2131 43.713 40.3984C43.7969 40.5837 43.8404 40.7848 43.8404 40.9882C43.8404 41.1917 43.7969 41.3928 43.713 41.5781C43.629 41.7634 43.5064 41.9286 43.3534 42.0627H43.3591ZM79.54 46.4092L75.5135 44.1374C75.6707 43.0743 75.7478 42.0227 75.7478 40.9882C75.7478 39.9538 75.6707 38.9021 75.5135 37.8391L79.5428 35.5672C79.8741 35.3806 80.1648 35.1297 80.3979 34.8293C80.6309 34.5288 80.8017 34.1849 80.9002 33.8176C80.9986 33.4504 81.0228 33.0671 80.9713 32.6904C80.9198 32.3137 80.7936 31.951 80.6001 31.6237L74.7448 21.7276C74.3642 21.084 73.7465 20.6152 73.0242 20.4218C72.3019 20.2284 71.5325 20.3258 70.8812 20.6931L66.7834 23.0078C65.0546 21.6781 63.1493 20.5952 61.1223 19.7901V15.2693C61.1223 14.5114 60.8213 13.7845 60.2853 13.2486C59.7494 12.7127 59.0226 12.4116 58.2647 12.4116H55.2756V29.5576C58.3071 29.5576 61.2146 30.7619 63.3582 32.9055C65.5019 35.0492 66.7062 37.9566 66.7062 40.9882C66.7062 44.0198 65.5019 46.9272 63.3582 49.0709C61.2146 51.2146 58.3071 52.4189 55.2756 52.4189V69.5648H58.2675C59.0254 69.5648 59.7523 69.2638 60.2882 68.7278C60.8241 68.1919 61.1252 67.4651 61.1252 66.7072V62.1921C63.1516 61.3858 65.0567 60.303 66.7862 58.9743L70.8841 61.2862C71.5354 61.6535 72.3047 61.7509 73.027 61.5575C73.7493 61.3641 74.367 60.8953 74.7477 60.2517L80.5973 50.3528C80.7907 50.0254 80.9169 49.6628 80.9685 49.286C81.02 48.9093 80.9958 48.5261 80.8973 48.1588C80.7988 47.7915 80.6281 47.4476 80.395 47.1472C80.1619 46.8468 79.8712 46.5959 79.54 46.4092Z" fill="black"/>
</g>
</svg>
