<svg width="56" height="53" viewBox="0 0 56 53" fill="none" xmlns="http://www.w3.org/2000/svg">
<mask id="mask0_7200_56439" style="mask-type:alpha" maskUnits="userSpaceOnUse" x="0" y="0" width="56" height="53">
<rect width="56" height="53" fill="#D9D9D9"/>
</mask>
<g mask="url(#mask0_7200_56439)">
<path d="M42.2999 11.6156C42.2661 11.3698 42.0508 11.2338 41.8728 11.2188C41.6952 11.204 37.9362 10.9253 37.9362 10.9253C37.9362 10.9253 35.3255 8.33352 35.0389 8.04664C34.7522 7.75993 34.1923 7.84714 33.9749 7.91111C33.9429 7.92054 33.4045 8.08671 32.5139 8.3623C31.6419 5.8528 30.1028 3.54667 27.3951 3.54667C27.3204 3.54667 27.2434 3.5497 27.1665 3.55408C26.3964 2.5357 25.4425 2.09326 24.6186 2.09326C18.3112 2.09326 15.2978 9.97818 14.353 13.985C11.9021 14.7445 10.1609 15.2844 9.93853 15.3543C8.57047 15.7834 8.5272 15.8265 8.34757 17.1156C8.21238 18.0916 4.63281 45.774 4.63281 45.774L32.5256 51.0001L47.6388 47.7307C47.6388 47.7307 42.3333 11.8614 42.2999 11.6156ZM30.9723 8.83909L28.6121 9.56958C28.613 9.40324 28.6138 9.2396 28.6138 9.06064C28.6138 7.501 28.3973 6.24524 28.05 5.24975C29.4452 5.42484 30.3743 7.01226 30.9723 8.83909ZM26.3193 5.55902C26.7072 6.53094 26.9594 7.92576 26.9594 9.80797C26.9594 9.90427 26.9586 9.99232 26.9577 10.0814C25.4228 10.5568 23.7549 11.073 22.0833 11.5909C23.0219 7.96852 24.7812 6.21897 26.3193 5.55902ZM24.4454 3.78506C24.7176 3.78506 24.9918 3.87749 25.2543 4.05814C23.2329 5.00934 21.0661 7.40504 20.1511 12.1892L16.2981 13.3825C17.3699 9.73339 19.9149 3.78506 24.4454 3.78506Z" fill="#2E2E2E"/>
<path d="M41.8772 11.2189C41.6995 11.2041 37.9405 10.9254 37.9405 10.9254C37.9405 10.9254 35.3298 8.33359 35.0433 8.04672C34.936 7.93998 34.7914 7.88526 34.6402 7.86169L32.5312 50.9999L47.6431 47.7307C47.6431 47.7307 42.3376 11.8615 42.3043 11.6157C42.2704 11.3699 42.0551 11.2338 41.8772 11.2189Z" fill="black"/>
<path d="M27.3961 19.5696L25.5326 25.1128C25.5326 25.1128 23.8999 24.2414 21.8985 24.2414C18.9644 24.2414 18.8167 26.0827 18.8167 26.5467C18.8167 29.0784 25.4162 30.0485 25.4162 35.9786C25.4162 40.6443 22.4571 43.6486 18.467 43.6486C13.679 43.6486 11.2305 40.6687 11.2305 40.6687L12.5125 36.4329C12.5125 36.4329 15.0294 38.5937 17.1532 38.5937C18.541 38.5937 19.1055 37.5011 19.1055 36.7027C19.1055 33.4003 13.6911 33.253 13.6911 27.8264C13.6911 23.2591 16.9694 18.8392 23.5867 18.8392C26.1365 18.8392 27.3961 19.5696 27.3961 19.5696Z" fill="white"/>
<rect x="27.5977" y="34.7103" width="24.4002" height="16.1216" rx="8.06079" fill="white" stroke="black" stroke-width="0.5"/>
<path d="M31.0585 46.5815L34.2305 38.5835H35.8392L38.9772 46.5815H37.0967L34.695 39.9429H35.3407L32.9051 46.5815H31.0585ZM32.8598 45.1315V43.6814H37.2213V45.1315H32.8598ZM41.183 43.6701V42.288H42.9049C43.124 42.288 43.3241 42.2427 43.5054 42.152C43.6866 42.0614 43.8301 41.9292 43.9358 41.7555C44.0416 41.5818 44.0944 41.3703 44.0944 41.1211C44.0944 40.8794 44.0416 40.6717 43.9358 40.498C43.8301 40.3243 43.6866 40.1922 43.5054 40.1015C43.3241 40.0109 43.124 39.9656 42.9049 39.9656H41.183V38.5835H43.1655C43.6715 38.5835 44.1284 38.6854 44.5363 38.8894C44.9441 39.0933 45.2651 39.3878 45.4992 39.773C45.7409 40.1506 45.8617 40.6 45.8617 41.1211C45.8617 41.6422 45.7409 42.0954 45.4992 42.4806C45.2651 42.8582 44.9441 43.1527 44.5363 43.3642C44.1284 43.5681 43.6715 43.6701 43.1655 43.6701H41.183ZM39.8235 46.5815V38.5835H41.6021V46.5815H39.8235ZM46.8597 46.5815V38.5835H48.6383V46.5815H46.8597Z" fill="black"/>
</g>
</svg>
