<svg width="93" height="92" viewBox="0 0 93 92" fill="none" xmlns="http://www.w3.org/2000/svg">
<mask id="mask0_7374_81193" style="mask-type:alpha" maskUnits="userSpaceOnUse" x="0" y="0" width="93" height="92">
<rect x="0.125" width="92" height="92" fill="black"/>
</mask>
<g mask="url(#mask0_7374_81193)">
</g>
<g clip-path="url(#clip0_7374_81193)">
<path d="M71.1248 16H36.1252C33.3757 16 31.125 18.2507 31.125 21.0002V55.9998C31.125 58.7493 33.3757 61 36.1252 61H71.1248C73.8743 61 76.125 58.7493 76.125 55.9998V21.0002C76.125 18.2507 73.8743 16 71.1248 16ZM62.37 38.5L62.3722 32.401L43.7714 51.0002L41.1248 48.3438L59.7166 29.755L53.6228 29.7498V25.9998H63.6226C65.0048 26.0027 66.1223 27.1202 66.1201 28.5002L66.1254 38.5022L62.37 38.5Z" fill="black"/>
<path d="M41.1248 66.0002V70.9998H21.1252V51.0002H26.1248V46H18.6248C17.2507 46 16.125 47.1257 16.125 48.4998V73.5002C16.125 74.8721 17.2507 76 18.6248 76H43.6252C44.9993 76 46.125 74.8721 46.125 73.5002V66.0002H41.1248Z" fill="black"/>
</g>
<defs>
<clipPath id="clip0_7374_81193">
<rect width="60" height="60" fill="white" transform="translate(16.125 16)"/>
</clipPath>
</defs>
</svg>
