<svg width="93" height="92" viewBox="0 0 93 92" fill="none" xmlns="http://www.w3.org/2000/svg">
<mask id="mask0_7374_81152" style="mask-type:alpha" maskUnits="userSpaceOnUse" x="0" y="0" width="93" height="92">
<rect x="0.125" width="92" height="92" fill="black"/>
</mask>
<g mask="url(#mask0_7374_81152)">
</g>
<g clip-path="url(#clip0_7374_81152)">
<path d="M44.6359 61.3441C44.1507 61.5616 43.6398 61.8198 43.1164 62.1112C43.0281 62.1613 42.9516 62.2298 42.8921 62.312C42.8326 62.3943 42.7915 62.4884 42.7716 62.5879C42.7516 62.6875 42.7534 62.7902 42.7767 62.889C42.7999 62.9878 42.8442 63.0805 42.9064 63.1607L43.7584 64.2421C43.8255 64.3258 43.9108 64.3932 44.0078 64.4392C44.1047 64.4851 44.2109 64.5084 44.3182 64.5073C44.4256 64.5061 44.5312 64.4806 44.6272 64.4326C44.7232 64.3847 44.807 64.3155 44.8724 64.2303C45.3569 63.5833 45.6213 62.798 45.6268 61.9897C45.6263 61.8725 45.5966 61.7572 45.5404 61.6543C45.4843 61.5513 45.4035 61.4639 45.3053 61.4C45.2071 61.336 45.0945 61.2973 44.9776 61.2876C44.8608 61.2779 44.7434 61.2973 44.6359 61.3441Z" fill="black"/>
<path d="M40.6662 63.6489C38.8396 64.8786 36.4149 66.9122 34.5974 68.2802C34.5198 68.3355 34.4541 68.406 34.4044 68.4874C34.3547 68.5688 34.322 68.6593 34.3082 68.7537C34.2944 68.848 34.2999 68.9442 34.3242 69.0364C34.3485 69.1286 34.3912 69.2149 34.4498 69.2902L37.8261 73.5759C39.2909 75.5116 42.2846 75.8719 44.1678 74.328C45.1071 73.5858 45.7137 72.5014 45.8547 71.3127C45.9958 70.1239 45.6596 68.9277 44.92 67.9864L41.6165 63.7933C41.506 63.6531 41.3463 63.5602 41.1699 63.5334C40.9934 63.5066 40.8133 63.5479 40.6662 63.6489Z" fill="black"/>
<path d="M57.4776 58.9876C58.4435 58.2247 59.0674 57.1099 59.2124 55.8876C59.3574 54.6654 59.0117 53.4355 58.251 52.4678L40.4778 29.9092C39.7122 28.9529 38.5997 28.3379 37.3826 28.1982C36.1656 28.0586 34.9427 28.4057 33.9804 29.1638C33.0181 29.9219 32.3945 31.0296 32.2455 32.2456C32.0964 33.4615 32.434 34.6871 33.1846 35.6552L50.9578 58.2138C51.7207 59.1796 52.8355 59.8035 54.0577 59.9486C55.2799 60.0936 56.5098 59.748 57.4776 58.9876Z" fill="black"/>
<path d="M21.4057 49.5726L20.9135 49.9609C16.3081 53.4376 15.461 60.5763 19.1249 65.0342C20.8888 67.2671 23.4662 68.7093 26.2919 69.0446C29.1176 69.3799 31.9609 68.5809 34.1984 66.8228L34.6906 66.4345C34.837 66.3191 34.9317 66.1502 34.9537 65.965C34.9756 65.7799 34.9232 65.5935 34.8078 65.4471L22.3929 49.6897C22.2775 49.5433 22.1087 49.4487 21.9236 49.4268C21.7384 49.4048 21.5522 49.4573 21.4057 49.5726Z" fill="black"/>
<path d="M48.7612 57.6967L33.1934 37.9374C33.1162 37.8416 33.0153 37.7676 32.9008 37.7227C32.7863 37.6778 32.662 37.6635 32.5402 37.6812C32.4185 37.699 32.3035 37.7481 32.2065 37.8239C32.1096 37.8996 32.0341 37.9993 31.9874 38.1132C30.6771 41.4209 28.4077 44.0546 23.614 47.8317C23.4685 47.9477 23.3745 48.1165 23.3526 48.3013C23.3306 48.4862 23.3825 48.6722 23.4968 48.8191L35.9114 64.5767C36.0274 64.7223 36.1962 64.8163 36.3811 64.8382C36.5659 64.8602 36.752 64.8083 36.8989 64.6939C41.6918 60.9179 44.7836 59.3281 48.3075 58.8282C48.4292 58.8095 48.5438 58.7595 48.6402 58.6829C48.7366 58.6064 48.8114 58.5061 48.8572 58.3919C48.903 58.2777 48.9182 58.1535 48.9014 58.0316C48.8845 57.9097 48.8362 57.7943 48.7612 57.6967Z" fill="black"/>
<path d="M29.5367 16.5254C26.1813 16.5292 22.9643 17.8638 20.5916 20.2365C18.2189 22.6092 16.8843 25.8262 16.8805 29.1816C16.7777 35.3204 21.6615 40.944 27.7416 41.7105C27.8617 41.7275 27.9841 41.7131 28.097 41.6688C28.21 41.6245 28.3095 41.5518 28.3861 41.4577C30.1256 39.3171 30.825 37.4169 31.3217 35.6825C31.3669 35.5267 31.3562 35.36 31.2917 35.2112C31.1554 34.8991 31.0457 34.5762 30.9636 34.2457C30.9497 34.1862 30.9204 34.1313 30.8788 34.0866C30.8372 34.0418 30.7846 34.0087 30.7262 33.9905C30.6679 33.9722 30.6058 33.9695 30.5461 33.9826C30.4864 33.9957 30.4311 34.0241 30.3858 34.0651C30.0305 34.387 29.5965 34.7839 29.5772 34.7995C29.3743 34.9837 29.1279 35.1132 28.8612 35.176C28.5945 35.2387 28.3162 35.2326 28.0525 35.1581C27.7888 35.0837 27.5484 34.9434 27.3539 34.7504C27.1593 34.5575 27.0171 34.3182 26.9405 34.0551L26.5023 32.5509C26.3852 32.1492 26.1169 31.8086 25.7537 31.6007L24.3949 30.8226C24.1572 30.6866 23.9579 30.4923 23.8159 30.2581C23.6739 30.0239 23.5938 29.7574 23.5831 29.4836C23.5724 29.2099 23.6315 28.938 23.7549 28.6934C23.8782 28.4488 24.0617 28.2396 24.2882 28.0855L25.5834 27.2039C25.9294 26.9685 26.1704 26.6079 26.2557 26.1983L26.5755 24.6645C26.6314 24.3964 26.7546 24.1468 26.9335 23.9394C27.1123 23.7319 27.3411 23.5733 27.5981 23.4786C27.8551 23.3839 28.132 23.3561 28.4027 23.3978C28.6735 23.4395 28.9291 23.5494 29.1457 23.7172L30.3844 24.6766C30.7153 24.9326 31.1326 25.0502 31.5485 25.0047L33.106 24.8348C33.342 24.8096 33.5805 24.8365 33.8049 24.9136C34.0293 24.9907 34.234 25.1162 34.4045 25.2812C34.5751 25.4461 34.7073 25.6465 34.7919 25.8682C34.8765 26.0899 34.9113 26.3274 34.894 26.564C34.8915 26.6198 34.9022 26.6754 34.9253 26.7262C34.9484 26.777 34.9832 26.8217 35.0269 26.8565C35.0706 26.8913 35.1218 26.9152 35.1765 26.9264C35.2313 26.9375 35.2878 26.9356 35.3416 26.9206C36.3181 26.6705 37.3417 26.6694 38.3187 26.9172C39.2957 27.165 40.195 27.6539 40.9342 28.3392C41.3838 28.7856 42.2035 28.3718 42.1113 27.745C41.7621 24.6558 40.2865 21.8036 37.9667 19.7338C35.647 17.6639 32.6457 16.5217 29.5367 16.5254Z" fill="black"/>
<path d="M67.8172 17.7592C64.7393 16.4228 61.257 16.3619 58.1343 17.5897C55.0115 18.8176 52.5033 21.234 51.1599 24.3088C48.3145 30.4898 51.4167 38.3786 57.7097 40.9661C63.9577 43.7317 71.5672 40.8729 74.367 34.4163C75.7073 31.3389 75.7702 27.8551 74.5419 24.7312C73.3136 21.6074 70.8946 19.0995 67.8172 17.7592ZM69.6664 29.8034C69.2562 34.2185 64.1902 35.0534 60.9926 34.8247C60.5917 34.7966 60.2126 34.6315 59.9188 34.3572C57.5726 32.1714 54.7354 27.8931 57.6877 24.5862C58.6075 23.5559 60.2827 22.8845 61.5369 23.4568C62.7494 24.0103 63.4463 25.1827 63.5439 26.409C63.5478 26.4998 63.5772 26.5877 63.6286 26.6626C63.68 26.7375 63.7515 26.7965 63.8348 26.8328C63.9181 26.8691 64.0099 26.8812 64.0998 26.8678C64.1897 26.8544 64.274 26.8161 64.3431 26.7571C65.3076 25.9934 66.64 25.7051 67.8717 26.2159C69.1449 26.7443 69.7947 28.4283 69.6664 29.8034Z" fill="black"/>
<path d="M63.7 51.8594C62.6979 51.859 61.6999 51.9868 60.7302 52.2396C60.635 52.2652 60.5461 52.3105 60.4693 52.3725C60.3925 52.4345 60.3296 52.5118 60.2845 52.5996C60.2394 52.6873 60.2132 52.7835 60.2075 52.882C60.2018 52.9805 60.2167 53.0792 60.2514 53.1715C60.6523 54.2159 60.7557 55.351 60.5502 56.4506C60.3447 57.5502 59.8384 58.5713 59.0875 59.4005C58.3365 60.2296 57.3704 60.8343 56.2965 61.1474C55.2225 61.4605 54.0828 61.4696 53.004 61.1739C52.9086 61.1487 52.8091 61.1437 52.7117 61.1592C52.6144 61.1748 52.5213 61.2105 52.4386 61.2641C52.3558 61.3176 52.2852 61.3879 52.2312 61.4704C52.1772 61.5529 52.141 61.6458 52.125 61.7431C51.7498 64.1098 52.1091 66.5346 53.1546 68.6908C54.2 70.8469 55.8813 72.6308 57.9718 73.8019C60.0624 74.9731 62.4617 75.4752 64.8464 75.2406C67.2312 75.006 69.4867 74.046 71.309 72.49C73.1312 70.934 74.4327 68.8567 75.038 66.5382C75.6432 64.2196 75.5232 61.7713 74.694 59.523C73.8648 57.2748 72.3664 55.3349 70.4006 53.9646C68.4348 52.5943 66.0962 51.8595 63.7 51.8594ZM57.8406 65.2188C57.5161 65.2188 57.1989 65.1225 56.9291 64.9423C56.6593 64.762 56.4491 64.5058 56.3249 64.206C56.2007 63.9062 56.1682 63.5763 56.2315 63.2581C56.2948 62.9398 56.4511 62.6475 56.6805 62.418C56.91 62.1886 57.2023 62.0323 57.5206 61.969C57.8388 61.9057 58.1687 61.9382 58.4685 62.0624C58.7683 62.1866 59.0245 62.3968 59.2048 62.6666C59.385 62.9364 59.4813 63.2536 59.4813 63.5781C59.4813 64.0132 59.3084 64.4305 59.0007 64.7382C58.6931 65.0459 58.2758 65.2188 57.8406 65.2188ZM63.7 65.2188C63.3755 65.2188 63.0583 65.1225 62.7885 64.9423C62.5187 64.762 62.3084 64.5058 62.1843 64.206C62.0601 63.9062 62.0276 63.5763 62.0909 63.2581C62.1542 62.9398 62.3105 62.6475 62.5399 62.418C62.7694 62.1886 63.0617 62.0323 63.3799 61.969C63.6982 61.9057 64.0281 61.9382 64.3278 62.0624C64.6276 62.1866 64.8839 62.3968 65.0641 62.6666C65.2444 62.9364 65.3406 63.2536 65.3406 63.5781C65.3406 64.0132 65.1678 64.4305 64.8601 64.7382C64.5524 65.0459 64.1351 65.2188 63.7 65.2188ZM69.5594 65.2188C69.2349 65.2188 68.9177 65.1225 68.6479 64.9423C68.3781 64.762 68.1678 64.5058 68.0436 64.206C67.9195 63.9062 67.887 63.5763 67.9503 63.2581C68.0136 62.9398 68.1698 62.6475 68.3993 62.418C68.6287 62.1886 68.9211 62.0323 69.2393 61.969C69.5576 61.9057 69.8874 61.9382 70.1872 62.0624C70.487 62.1866 70.7432 62.3968 70.9235 62.6666C71.1038 62.9364 71.2 63.2536 71.2 63.5781C71.2 64.0132 71.0272 64.4305 70.7195 64.7382C70.4118 65.0459 69.9945 65.2188 69.5594 65.2188Z" fill="black"/>
</g>
<defs>
<clipPath id="clip0_7374_81152">
<rect width="60" height="60" fill="white" transform="translate(16.125 16)"/>
</clipPath>
</defs>
</svg>
