<svg width="80" height="80" viewBox="0 0 80 80" fill="none" xmlns="http://www.w3.org/2000/svg">
<mask id="mask0_7380_56032" style="mask-type:alpha" maskUnits="userSpaceOnUse" x="-1" y="-1" width="82" height="82">
<rect width="80" height="80" fill="white" stroke="white" stroke-width="2"/>
</mask>
<g mask="url(#mask0_7380_56032)">
<path d="M69.3173 30.3451H68.5097C67.9624 30.3451 67.4885 29.978 67.3717 29.4541C66.6008 26.0502 65.2593 22.8099 63.3838 19.8294C63.1001 19.3789 63.1702 18.7749 63.5507 18.3944L64.1313 17.8138C64.7954 17.1497 65.1759 16.2487 65.1759 15.2976C65.1759 14.3498 64.7955 13.4588 64.1313 12.7814L60.7741 9.42418C59.4326 8.08266 57.0833 8.08266 55.7417 9.42418L55.1611 10.0048C54.7806 10.3853 54.1767 10.4687 53.7261 10.1717C50.7493 8.29624 47.509 6.95471 44.1014 6.18378C43.5808 6.06365 43.2104 5.58977 43.2104 5.04584V4.23826C43.2104 2.27932 41.6086 0.67749 39.6496 0.67749H34.9042C32.9452 0.67749 31.3434 2.27932 31.3434 4.23826V5.04584C31.3434 5.59313 30.9763 6.067 30.4524 6.18378C27.0485 6.95466 23.8081 8.29624 20.8277 10.1717C20.3772 10.4687 19.7731 10.3853 19.3927 10.0048L18.8121 9.42418C17.4705 8.08266 15.1212 8.08266 13.7797 9.42418L10.4225 12.7814C9.75839 13.4588 9.37791 14.3465 9.37791 15.2976C9.37791 16.2453 9.75834 17.1497 10.4225 17.8138L11.0031 18.3944C11.3836 18.7749 11.4537 19.3789 11.17 19.8294C9.29453 22.8062 7.95301 26.0465 7.18208 29.4541C7.06194 29.9747 6.58807 30.3451 6.04413 30.3451H5.23655C3.27761 30.3451 1.67578 31.947 1.67578 33.9059V38.6513C1.67578 40.6103 3.27761 42.2121 5.23655 42.2121H6.04413C6.59142 42.2121 7.06529 42.5792 7.18208 43.1031C7.95295 46.507 9.29453 49.7474 11.17 52.7278C11.4537 53.1783 11.3836 53.7824 11.0031 54.1628L10.4225 54.7434C9.75839 55.4075 9.37791 56.3085 9.37791 57.2596C9.37791 58.2074 9.75834 59.0984 10.4225 59.7758L13.7797 63.133C15.1212 64.4746 17.4705 64.4746 18.8121 63.133L19.3927 62.5524C19.7732 62.1719 20.3771 62.1019 20.8277 62.3855C23.8045 64.261 27.0448 65.6025 30.4524 66.3734C30.973 66.4936 31.3434 66.9674 31.3434 67.5114V68.319C31.3434 70.2779 32.9452 71.8797 34.9042 71.8797V47.912C29.4947 46.8074 25.4136 42.0019 25.4136 36.2857C25.4136 29.7483 30.7398 24.4185 37.2809 24.4185C42.1331 24.4185 46.3212 27.3485 48.1503 31.5366H71.9642C71.3101 30.8125 70.3623 30.3486 69.3178 30.3486L69.3173 30.3451Z" fill="black"/>
<path d="M74.063 33.9016H43.2147C39.9443 33.9016 37.2812 36.5647 37.2812 39.8351V73.06C37.2812 76.3304 39.9443 78.9935 43.2147 78.9935H74.063C77.3334 78.9935 79.9964 76.3304 79.9964 73.06V39.8351C79.9964 36.5647 77.3334 33.9016 74.063 33.9016ZM77.6204 73.0598C77.6204 75.022 76.0252 76.6205 74.0597 76.6205H43.2114C41.2491 76.6205 39.6506 75.0254 39.6506 73.0598V39.8348C39.6506 37.8725 41.2458 36.274 43.2114 36.274H74.0597C76.0219 36.274 77.6204 37.8692 77.6204 39.8348V73.0598Z" fill="black"/>
<path d="M72.8734 55.2605H56.2613C56.2046 55.2605 56.1579 55.2839 56.1012 55.2939C55.5806 53.2348 53.7318 51.7031 51.5126 51.7031C49.2967 51.7031 47.4446 53.2382 46.924 55.2939C46.8706 55.2872 46.8205 55.2605 46.7638 55.2605H44.3911C43.7337 55.2605 43.2031 55.7911 43.2031 56.4485C43.2031 57.1059 43.7337 57.6365 44.3911 57.6365H46.7638C46.8205 57.6365 46.8673 57.6132 46.924 57.6031C47.4446 59.6622 49.2933 61.1939 51.5126 61.1939C53.7285 61.1939 55.5805 59.6588 56.1012 57.6031C56.1546 57.6098 56.2046 57.6365 56.2613 57.6365H72.8734C73.5308 57.6365 74.0614 57.1059 74.0614 56.4485C74.0614 55.7911 73.5308 55.2605 72.8734 55.2605ZM51.5156 58.8213C50.2075 58.8213 49.143 57.7567 49.143 56.4486C49.143 55.1405 50.2075 54.0759 51.5156 54.0759C52.8238 54.0759 53.8883 55.1405 53.8883 56.4486C53.8883 57.7567 52.8238 58.8213 51.5156 58.8213Z" fill="black"/>
<path d="M72.8786 43.3967H70.3356C69.805 41.3544 67.963 39.8359 65.757 39.8359C63.5512 39.8359 61.7091 41.3543 61.1785 43.3967H44.3989C43.7415 43.3967 43.2109 43.9273 43.2109 44.5847C43.2109 45.2421 43.7415 45.7727 44.3989 45.7727H61.1785C61.7091 47.815 63.5511 49.3335 65.757 49.3335C67.9629 49.3335 69.805 47.8151 70.3356 45.7727H72.8786C73.536 45.7727 74.0666 45.2421 74.0666 44.5847C74.0666 43.9273 73.536 43.3967 72.8786 43.3967ZM65.7605 46.9541C64.4523 46.9541 63.3878 45.8896 63.3878 44.5815C63.3878 43.2733 64.4523 42.2088 65.7605 42.2088C67.0686 42.2088 68.1331 43.2733 68.1331 44.5815C68.1331 45.8896 67.0686 46.9541 65.7605 46.9541Z" fill="black"/>
<path d="M72.8786 67.1267H70.3356C69.805 65.0844 67.963 63.5659 65.757 63.5659C63.5512 63.5659 61.7091 65.0843 61.1785 67.1267H44.3989C43.7415 67.1267 43.2109 67.6573 43.2109 68.3147C43.2109 68.9721 43.7415 69.5027 44.3989 69.5027H61.1785C61.7091 71.545 63.5511 73.0635 65.757 73.0635C67.9629 73.0635 69.805 71.5451 70.3356 69.5027H72.8786C73.536 69.5027 74.0666 68.9721 74.0666 68.3147C74.0666 67.6573 73.536 67.1267 72.8786 67.1267ZM65.7605 70.6841C64.4523 70.6841 63.3878 69.6196 63.3878 68.3114C63.3878 67.0033 64.4523 65.9388 65.7605 65.9388C67.0686 65.9388 68.1331 67.0033 68.1331 68.3114C68.1331 69.6196 67.0686 70.6841 65.7605 70.6841Z" fill="black"/>
</g>
</svg>
