<svg width="76" height="76" viewBox="0 0 76 76" fill="none" xmlns="http://www.w3.org/2000/svg">
<mask id="mask0_7035_55496" style="mask-type:alpha" maskUnits="userSpaceOnUse" x="-1" y="-1" width="78" height="78">
<rect width="76" height="76" fill="white" stroke="white" stroke-width="2"/>
</mask>
<g mask="url(#mask0_7035_55496)">
<path d="M42.6328 8.74223L42.0752 12.0881C42.0547 12.1921 42.0643 12.2998 42.1028 12.3986C42.1413 12.4973 42.2072 12.5831 42.2927 12.6457C42.377 12.708 42.4773 12.7452 42.5818 12.7531C42.6864 12.761 42.791 12.7392 42.8838 12.6903L45.8616 11.0899L48.8617 12.668C48.9545 12.7169 49.0591 12.7387 49.1637 12.7308C49.2682 12.7229 49.3684 12.6857 49.4528 12.6234C49.5383 12.5608 49.6042 12.475 49.6427 12.3763C49.6812 12.2775 49.6908 12.1698 49.6703 12.0658L49.1127 8.71992L51.5384 6.35551C51.611 6.28457 51.6629 6.19514 51.6885 6.09687C51.714 5.9986 51.7123 5.89521 51.6834 5.79787C51.6511 5.69876 51.5916 5.6107 51.5118 5.54367C51.4319 5.47665 51.3349 5.43334 51.2317 5.41867L47.8858 4.92795L46.3635 1.88879C46.3178 1.79451 46.2465 1.715 46.1578 1.65936C46.069 1.60373 45.9664 1.57422 45.8616 1.57422C45.7568 1.57422 45.6542 1.60373 45.5654 1.65936C45.4767 1.715 45.4054 1.79451 45.3597 1.88879L43.8597 4.92237L40.5138 5.4131C40.4106 5.42777 40.3136 5.47107 40.2337 5.5381C40.1539 5.60512 40.0944 5.69319 40.0621 5.79229C40.0332 5.88964 40.0314 5.99302 40.057 6.09129C40.0825 6.18956 40.1344 6.27899 40.2071 6.34994L42.6328 8.74223ZM44.3058 5.99862C44.3951 5.9852 44.4799 5.95028 44.5527 5.89685C44.6256 5.84342 44.6843 5.7731 44.724 5.69192L45.8393 3.4L46.9546 5.69192C46.9942 5.7731 47.053 5.84342 47.1259 5.89685C47.1987 5.95028 47.2835 5.9852 47.3728 5.99862L49.9045 6.36667L48.0922 8.14555C48.0286 8.20877 47.9812 8.28638 47.9541 8.37181C47.9269 8.45723 47.9207 8.54795 47.936 8.63627L48.3654 11.1568L46.1237 9.94116C46.0422 9.90085 45.9525 9.87988 45.8616 9.87988C45.7707 9.87988 45.681 9.90085 45.5995 9.94116L43.341 11.1345L43.7704 8.61397C43.7858 8.52564 43.7796 8.43493 43.7524 8.3495C43.7252 8.26408 43.6778 8.18646 43.6143 8.12324L41.7796 6.33878L44.3058 5.99862ZM56.9029 12.1717L56.3453 15.5176C56.3254 15.6221 56.3358 15.7302 56.3753 15.829C56.4149 15.9278 56.4818 16.0133 56.5683 16.0752C56.6491 16.1311 56.7432 16.1647 56.8412 16.1725C56.9391 16.1804 57.0373 16.1622 57.126 16.1198L60.1317 14.5417L63.1485 16.0752C63.2304 16.1145 63.3198 16.1354 63.4106 16.1366C63.4926 16.1378 63.5738 16.1209 63.6484 16.0871C63.7231 16.0534 63.7894 16.0036 63.8427 15.9413C63.8959 15.879 63.9348 15.8057 63.9565 15.7267C63.9782 15.6477 63.9822 15.5649 63.9683 15.4841L63.4106 12.1383L65.8364 9.76829C65.909 9.69735 65.9609 9.60792 65.9865 9.50964C66.012 9.41137 66.0103 9.30799 65.9814 9.21065C65.9499 9.1105 65.8908 9.02126 65.8109 8.95319C65.731 8.88513 65.6335 8.841 65.5297 8.82587L62.1838 8.34072L60.6838 5.30157C60.6381 5.20729 60.5668 5.12777 60.478 5.07214C60.3893 5.0165 60.2866 4.98699 60.1819 4.98699C60.0771 4.98699 59.9745 5.0165 59.8857 5.07214C59.797 5.12777 59.7257 5.20729 59.68 5.30157L58.1297 8.35745L54.7839 8.82587C54.68 8.841 54.5825 8.88513 54.5026 8.95319C54.4227 9.02126 54.3636 9.1105 54.3322 9.21065C54.3033 9.30799 54.3015 9.41137 54.3271 9.50964C54.3526 9.60792 54.4045 9.69735 54.4772 9.76829L56.9029 12.1717ZM58.5759 9.42255C58.6647 9.4097 58.749 9.37562 58.8219 9.3232C58.8947 9.27078 58.9537 9.20156 58.9941 9.12142L60.1094 6.82951L61.2247 9.12142C61.265 9.20156 61.3241 9.27078 61.3969 9.3232C61.4697 9.37562 61.5541 9.4097 61.6429 9.42255L64.1746 9.79059L62.34 11.5751C62.2755 11.6389 62.2277 11.7174 62.2005 11.8039C62.1732 11.8904 62.1675 11.9822 62.1838 12.0714L62.6132 14.5863L60.3492 13.3985C60.2705 13.3561 60.182 13.3349 60.0926 13.3372C60.0016 13.3359 59.9116 13.357 59.8306 13.3985L57.6 14.5863L58.0294 12.0714C58.0456 11.9822 58.0399 11.8904 58.0127 11.8039C57.9855 11.7174 57.9376 11.6389 57.8732 11.5751L56.0386 9.79059L58.5759 9.42255ZM28.3404 12.1717L27.7828 15.5176C27.7641 15.6232 27.7762 15.732 27.8177 15.8309C27.8593 15.9298 27.9285 16.0147 28.017 16.0752C28.1018 16.1242 28.1979 16.1499 28.2958 16.1499C28.3937 16.1499 28.4899 16.1242 28.5747 16.0752L31.5748 14.4971L34.5861 16.0752C34.6654 16.1159 34.7534 16.1369 34.8426 16.1366C34.9607 16.137 35.0759 16.0999 35.1716 16.0306C35.2581 15.9686 35.3251 15.8832 35.3646 15.7844C35.4041 15.6856 35.4145 15.5775 35.3946 15.473L34.837 12.1271L37.2627 9.75714C37.3354 9.68619 37.3873 9.59676 37.4128 9.49849C37.4384 9.40022 37.4366 9.29684 37.4077 9.19949C37.3733 9.0991 37.3109 9.01061 37.228 8.94443C37.145 8.87824 37.0448 8.83712 36.9393 8.82587L33.5934 8.34072L32.0934 5.30157C32.0477 5.20729 31.9764 5.12777 31.8877 5.07214C31.7989 5.0165 31.6963 4.98699 31.5915 4.98699C31.4867 4.98699 31.3841 5.0165 31.2953 5.07214C31.2066 5.12777 31.1353 5.20729 31.0896 5.30157L29.5784 8.35745L26.2326 8.8426C26.1287 8.85772 26.0312 8.90186 25.9513 8.96992C25.8714 9.03799 25.8123 9.12723 25.7809 9.22737C25.752 9.32472 25.7502 9.4281 25.7758 9.52637C25.8013 9.62465 25.8532 9.71408 25.9259 9.78502L28.3404 12.1717ZM30.0134 9.42255C30.1022 9.4097 30.1866 9.37562 30.2594 9.3232C30.3322 9.27078 30.3913 9.20156 30.4316 9.12142L31.5469 6.82951L32.6622 9.12142C32.7025 9.20156 32.7616 9.27078 32.8344 9.3232C32.9072 9.37562 32.9916 9.4097 33.0804 9.42255L35.6121 9.79059L33.7775 11.5751C33.7131 11.6389 33.6652 11.7174 33.638 11.8039C33.6108 11.8904 33.605 11.9822 33.6213 12.0714L34.0507 14.5863L31.7923 13.3985C31.7112 13.357 31.6212 13.3359 31.5302 13.3372C31.4408 13.3349 31.3523 13.3561 31.2736 13.3985L29.0096 14.5863L29.439 12.0714C29.4553 11.9822 29.4496 11.8904 29.4224 11.8039C29.3952 11.7174 29.3473 11.6389 29.2829 11.5751L27.4482 9.79059L30.0134 9.42255Z" fill="black" stroke="black" stroke-width="0.5"/>
<path d="M41.7174 51.8828H12.4758C11.1862 51.8828 10.1406 52.9284 10.1406 54.2179V74.5719C10.1406 75.0424 10.5153 75.4171 10.9858 75.4171H43.2159C43.6777 75.4171 44.0611 75.0424 44.0611 74.5719V54.2179C44.0611 52.9284 42.9983 51.8828 41.7174 51.8828ZM42.3709 73.7268H11.8311V54.2182C11.8311 53.861 12.1186 53.5735 12.4758 53.5735H41.7175C42.0747 53.5735 42.371 53.861 42.371 54.2182L42.3709 73.7268Z" fill="black" stroke="black" stroke-width="0.5"/>
<path d="M20.7776 70.8174C20.5336 70.8174 20.281 70.7128 20.1154 70.5037L15.0443 64.1778C14.8003 63.8728 14.8003 63.4284 15.0443 63.1235L20.1154 56.7976C20.4116 56.4317 20.9432 56.3794 21.3004 56.6669C21.6663 56.9632 21.7186 57.4947 21.4311 57.8519L16.787 63.6464L21.4398 69.4409C21.7274 69.8068 21.6751 70.3383 21.3091 70.6258C21.1523 70.7566 20.9693 70.8174 20.7776 70.8174Z" fill="black" stroke="black" stroke-width="0.5"/>
<path d="M33.4033 70.8174C33.2204 70.8174 33.0287 70.7564 32.8718 70.6344C32.5059 70.3381 32.4536 69.8066 32.7411 69.4494L37.394 63.6549L32.7411 57.8605C32.4536 57.4945 32.5059 56.963 32.8718 56.6755C33.2378 56.3792 33.7693 56.4402 34.0568 56.8062L39.1279 63.1321C39.3719 63.437 39.3719 63.8814 39.1279 64.1864L34.0568 70.5123C33.9 70.7127 33.656 70.8174 33.4033 70.8174Z" fill="black" stroke="black" stroke-width="0.5"/>
<path d="M24.4155 70.8178C24.3023 70.8178 24.1977 70.7917 24.0844 70.7481C23.6575 70.5651 23.4571 70.0685 23.6401 69.6415L29.0074 56.9897C29.1904 56.5628 29.687 56.3624 30.114 56.5453C30.5409 56.7283 30.7413 57.225 30.5583 57.6519L25.191 70.3037C25.0516 70.6261 24.7379 70.8178 24.4155 70.8178Z" fill="black" stroke="black" stroke-width="0.5"/>
<path d="M45.8418 40.5214C40.5703 40.5214 36.2832 36.2345 36.2832 30.9629C36.2832 25.6912 40.5701 21.4043 45.8418 21.4043C51.1134 21.4043 55.4003 25.6912 55.4003 30.9629C55.4003 36.2345 51.1134 40.5214 45.8418 40.5214ZM45.8418 23.0951C41.5026 23.0951 37.974 26.6239 37.974 30.9629C37.974 35.3018 41.5028 38.8306 45.8418 38.8306C50.1807 38.8306 53.7096 35.3018 53.7096 30.9629C53.7096 26.6239 50.1807 23.0951 45.8418 23.0951Z" fill="black" stroke="black" stroke-width="0.5"/>
<path d="M45.8347 45.8018C40.267 45.8018 35.2305 48.1369 31.6672 51.8834C31.1531 52.4149 30.6652 52.9813 30.2208 53.5737H32.4688C33.0003 52.9725 33.5754 52.4061 34.1852 51.8834C37.3133 49.1823 41.3911 47.5443 45.835 47.5443C55.6896 47.5443 63.6968 55.5604 63.6968 65.4061V73.6838H42.3759V73.7274H26.2305V74.5551C26.2305 75.0082 26.579 75.3742 27.0146 75.4178C27.0495 75.4265 27.0843 75.4265 27.1018 75.4265H64.5687C65.0566 75.4265 65.44 75.0344 65.44 74.5552V65.4065C65.44 54.5932 56.6571 45.802 45.8355 45.802L45.8347 45.8018Z" fill="black" stroke="black" stroke-width="0.5"/>
</g>
</svg>
