<svg width="76" height="76" viewBox="0 0 76 76" fill="none" xmlns="http://www.w3.org/2000/svg">
<mask id="mask0_7039_55521" style="mask-type:alpha" maskUnits="userSpaceOnUse" x="-1" y="-1" width="78" height="78">
<rect width="76" height="76" fill="white" stroke="white" stroke-width="2"/>
</mask>
<g mask="url(#mask0_7039_55521)">
<path d="M31.7598 60.7279H33.0165L33.3584 62.0977H33.3607C33.8983 64.2481 35.8317 65.7571 38.048 65.7571C40.2644 65.7571 42.1978 64.2481 42.7354 62.0977L43.0773 60.7279H44.3363C45.7251 60.7279 46.8498 59.6008 46.8498 58.2121V55.6962C48.2385 55.6962 49.3656 54.5716 49.3656 53.1828V51.9237C49.3656 51.5913 49.2335 51.2706 48.9978 51.0348C48.762 50.799 48.4413 50.667 48.1088 50.667H27.9872C27.294 50.667 26.7305 51.2305 26.7305 51.9237V53.1827C26.7305 54.5715 27.8575 55.6962 29.2463 55.6962V58.212C29.2463 59.6008 30.371 60.7279 31.7598 60.7279Z" stroke="black" stroke-width="1.5"/>
<path d="M20.4961 31.7543C20.4914 37.4532 23.2571 42.8009 27.9138 46.0899V48.7801H48.1863V46.0899C50.4569 44.4842 52.3125 42.3645 53.6046 39.903H52.0839C51.3506 39.903 50.6479 39.6082 50.1339 39.0848C49.6364 38.5849 49.3653 37.9035 49.3794 37.1985C49.3959 36.4676 48.9904 35.7909 48.3372 35.4632C47.802 35.1732 47.1607 35.1732 46.6255 35.4632C45.9724 35.7909 45.5668 36.4676 45.5833 37.1985C45.5974 37.9035 45.3263 38.5849 44.8288 39.0848C44.3148 39.6082 43.6122 39.903 42.8789 39.903H39.6345C38.8376 39.903 38.0736 39.5847 37.5101 39.0212C36.9466 38.4576 36.6283 37.6937 36.6283 36.8968V34.0414C34.0371 34.4376 31.5732 32.7824 30.9578 30.2312C30.8682 29.8445 30.821 29.4484 30.8187 29.05C30.8163 27.9041 31.203 26.7912 31.9127 25.8928C33.0492 24.4899 34.8411 23.7873 36.6283 24.0443V14.2617C32.2334 14.6177 28.1333 16.6124 25.1436 19.8545C22.1539 23.0965 20.4937 27.345 20.4961 31.7543Z" stroke="black" stroke-width="1.5"/>
<path d="M42.4555 36.758C42.6017 35.0391 43.6109 33.5113 45.134 32.6978C46.6053 31.9056 48.376 31.9056 49.8497 32.6978C51.3657 33.516 52.3678 35.0415 52.514 36.758H54.8789C55.367 35.1358 55.6122 33.45 55.6075 31.7547C55.6098 27.3951 53.99 23.1932 51.064 19.9633C48.1379 16.7354 44.1129 14.7125 39.7772 14.2881V26.4736C39.7702 27.0937 39.4023 27.6548 38.8341 27.9072C38.2682 28.1618 37.6033 28.0533 37.1482 27.6289C36.521 27.0678 35.5992 26.9829 34.88 27.4191C34.1609 27.8576 33.8096 28.7135 34.0171 29.5293C34.1845 30.1754 34.6773 30.6894 35.3185 30.8804C35.9598 31.0714 36.6554 30.911 37.1482 30.4583C37.6056 30.041 38.2658 29.9325 38.834 30.1825C39.4046 30.4371 39.7748 31.003 39.7772 31.6278V36.7584L42.4555 36.758Z" stroke="black" stroke-width="1.5"/>
<path d="M10.1787 12.4343C10.2448 12.7421 10.4162 13.0173 10.6634 13.2124C10.9106 13.4076 11.2182 13.5105 11.5331 13.5035H11.8176C11.9921 13.4666 12.1575 13.3955 12.3045 13.2945C12.4514 13.1935 12.577 13.0644 12.6739 12.9147C12.7708 12.7651 12.8372 12.5978 12.8692 12.4224C12.9012 12.2471 12.8982 12.0671 12.8605 11.8929C12.6146 10.8329 12.4471 9.75626 12.3593 8.67169L18.1698 14.4645C18.2957 14.5913 18.4455 14.692 18.6106 14.7607C18.7756 14.8295 18.9527 14.8648 19.1315 14.8648C19.3103 14.8648 19.4873 14.8295 19.6523 14.7607C19.8174 14.692 19.9672 14.5913 20.0931 14.4645C20.2201 14.3387 20.3208 14.189 20.3896 14.024C20.4583 13.8591 20.4937 13.6822 20.4937 13.5035C20.4937 13.3249 20.4583 13.148 20.3896 12.983C20.3208 12.8181 20.2201 12.6684 20.0931 12.5426L14.2962 6.73625C15.3707 6.80297 16.439 6.94772 17.4926 7.16936C17.6713 7.22163 17.8588 7.23654 18.0435 7.21316C18.2281 7.18977 18.406 7.1286 18.566 7.03345C18.7259 6.93831 18.8645 6.81123 18.9732 6.66016C19.0818 6.50909 19.1581 6.33727 19.1973 6.15542C19.2365 5.97357 19.2377 5.78559 19.201 5.60323C19.1642 5.42087 19.0902 5.24804 18.9837 5.09553C18.8771 4.94302 18.7402 4.81409 18.5815 4.71681C18.4228 4.61953 18.2458 4.55598 18.0615 4.53012C15.8673 4.05641 11.9665 3.47443 10.5444 4.89555C9.12225 6.31668 9.65048 10.2417 10.1787 12.4343Z" stroke="black" stroke-width="1.5"/>
<path d="M65.8203 12.4343C65.7542 12.7421 65.5828 13.0173 65.3356 13.2124C65.0884 13.4076 64.7809 13.5105 64.4659 13.5035H64.1815C64.007 13.4666 63.8415 13.3955 63.6945 13.2945C63.5476 13.1935 63.422 13.0644 63.3251 12.9147C63.2282 12.7651 63.1619 12.5978 63.1299 12.4224C63.0978 12.2471 63.1008 12.0671 63.1386 11.8929C63.3844 10.8329 63.5519 9.75626 63.6397 8.67169L57.8292 14.4645C57.7033 14.5913 57.5535 14.692 57.3884 14.7607C57.2234 14.8295 57.0464 14.8648 56.8676 14.8648C56.6888 14.8648 56.5117 14.8295 56.3467 14.7607C56.1816 14.692 56.0318 14.5913 55.9059 14.4645C55.779 14.3387 55.6782 14.189 55.6094 14.024C55.5407 13.8591 55.5053 13.6822 55.5053 13.5035C55.5053 13.3249 55.5407 13.148 55.6094 12.983C55.6782 12.8181 55.779 12.6684 55.9059 12.5426L61.7029 6.73625C60.6283 6.80297 59.56 6.94772 58.5064 7.16936C58.3278 7.22163 58.1402 7.23654 57.9556 7.21316C57.7709 7.18977 57.593 7.1286 57.4331 7.03345C57.2731 6.93831 57.1345 6.81123 57.0259 6.66016C56.9172 6.50909 56.841 6.33727 56.8018 6.15542C56.7626 5.97357 56.7613 5.78559 56.7981 5.60323C56.8348 5.42087 56.9088 5.24804 57.0154 5.09553C57.1219 4.94302 57.2588 4.81409 57.4175 4.71681C57.5762 4.61953 57.7532 4.55598 57.9376 4.53012C60.1317 4.05641 64.0325 3.47443 65.4546 4.89555C66.8768 6.31668 66.3485 10.2417 65.8203 12.4343Z" stroke="black" stroke-width="1.5"/>
<path d="M65.8203 62.5657C65.7542 62.2579 65.5828 61.9827 65.3356 61.7876C65.0884 61.5924 64.7809 61.4895 64.4659 61.4965H64.1815C64.007 61.5334 63.8415 61.6045 63.6945 61.7055C63.5476 61.8065 63.422 61.9356 63.3251 62.0853C63.2282 62.2349 63.1619 62.4022 63.1299 62.5776C63.0978 62.7529 63.1008 62.9329 63.1386 63.1071C63.3844 64.1671 63.5519 65.2437 63.6397 66.3283L57.8292 60.5355C57.7033 60.4087 57.5535 60.308 57.3884 60.2393C57.2234 60.1705 57.0464 60.1352 56.8676 60.1352C56.6888 60.1352 56.5117 60.1705 56.3467 60.2393C56.1816 60.308 56.0318 60.4087 55.9059 60.5355C55.779 60.6613 55.6782 60.811 55.6094 60.976C55.5407 61.1409 55.5053 61.3178 55.5053 61.4965C55.5053 61.6751 55.5407 61.852 55.6094 62.017C55.6782 62.1819 55.779 62.3316 55.9059 62.4574L61.7029 68.2637C60.6283 68.197 59.56 68.0523 58.5064 67.8306C58.3278 67.7784 58.1402 67.7635 57.9556 67.7868C57.7709 67.8102 57.593 67.8714 57.4331 67.9665C57.2731 68.0617 57.1345 68.1888 57.0259 68.3398C56.9172 68.4909 56.841 68.6627 56.8018 68.8446C56.7626 69.0264 56.7613 69.2144 56.7981 69.3968C56.8348 69.5791 56.9088 69.752 57.0154 69.9045C57.1219 70.057 57.2588 70.1859 57.4175 70.2832C57.5762 70.3805 57.7532 70.444 57.9376 70.4699C60.1317 70.9436 64.0325 71.5256 65.4546 70.1044C66.8768 68.6833 66.3485 64.7583 65.8203 62.5657Z" stroke="black" stroke-width="1.5"/>
<path d="M10.1787 62.5657C10.2448 62.2579 10.4162 61.9827 10.6634 61.7876C10.9106 61.5924 11.2182 61.4895 11.5331 61.4965H11.8176C11.9921 61.5334 12.1575 61.6045 12.3045 61.7055C12.4514 61.8065 12.577 61.9356 12.6739 62.0853C12.7708 62.2349 12.8372 62.4022 12.8692 62.5776C12.9012 62.7529 12.8982 62.9329 12.8605 63.1071C12.6146 64.1671 12.4471 65.2437 12.3593 66.3283L18.1698 60.5355C18.2957 60.4087 18.4455 60.308 18.6106 60.2393C18.7756 60.1705 18.9527 60.1352 19.1315 60.1352C19.3103 60.1352 19.4873 60.1705 19.6523 60.2393C19.8174 60.308 19.9672 60.4087 20.0931 60.5355C20.2201 60.6613 20.3208 60.811 20.3896 60.976C20.4583 61.1409 20.4937 61.3178 20.4937 61.4965C20.4937 61.6751 20.4583 61.852 20.3896 62.017C20.3208 62.1819 20.2201 62.3316 20.0931 62.4574L14.2962 68.2637C15.3707 68.197 16.439 68.0523 17.4926 67.8306C17.6713 67.7784 17.8588 67.7635 18.0435 67.7868C18.2281 67.8102 18.406 67.8714 18.566 67.9665C18.7259 68.0617 18.8645 68.1888 18.9732 68.3398C19.0818 68.4909 19.1581 68.6627 19.1973 68.8446C19.2365 69.0264 19.2377 69.2144 19.201 69.3968C19.1642 69.5791 19.0902 69.752 18.9837 69.9045C18.8771 70.057 18.7402 70.1859 18.5815 70.2832C18.4228 70.3805 18.2458 70.444 18.0615 70.4699C15.8673 70.9436 11.9665 71.5256 10.5444 70.1044C9.12225 68.6833 9.65048 64.7583 10.1787 62.5657Z" stroke="black" stroke-width="1.5"/>
</g>
</svg>
