<svg width="76" height="76" viewBox="0 0 76 76" fill="none" xmlns="http://www.w3.org/2000/svg">
<mask id="mask0_7039_55516" style="mask-type:alpha" maskUnits="userSpaceOnUse" x="-1" y="-1" width="78" height="78">
<rect width="76" height="76" fill="white" stroke="white" stroke-width="2"/>
</mask>
<g mask="url(#mask0_7039_55516)">
<path d="M44.5899 66.4238H44.2282H44.1929H44.1576H44.1223H44.087H44.0517H44.0164H43.9811H43.9458H43.9105H43.8752H43.8399H43.8046H43.7693H43.734H43.6987H43.6634H43.6281H43.5928H43.5575H43.5222H43.4869H43.4516H43.4163H43.381H43.3457H43.3104H43.275H43.2397H43.2044H43.1691H43.1338H43.0985H43.0632H43.0279H42.9926H42.9573H42.922H42.8867H42.8514H42.8161H42.7808H42.7455H42.7102H42.6749H42.6396H42.6043H42.569H42.5337H42.4984H42.4631H42.4278H42.3925H42.3572H42.3219H42.2866H42.2513H42.216H42.1807H42.1454H42.1101H42.0748H42.0395H42.0042H41.9689H41.9336H41.8983H41.863H41.8277H41.7924H41.7571H41.7218H41.6865H41.6512H41.6159H41.5806H41.5452H41.5099H41.4746H41.4393H41.404H41.3687H41.3334H41.2981H41.2628H41.2275H41.1922H41.1569H41.1216H41.0863H41.051H41.0157H40.9804H40.9451H40.9098H40.8745H40.8392H40.8039H40.7686H40.7333H40.698H40.6627H40.6274H40.5921H40.5568H40.5215H40.4862H40.4509H40.4156H40.3803H40.345H40.3097H40.2744H40.2391H40.2038H40.1685H40.1332H40.0979H40.0626H40.0273H39.992H39.9567H39.9214H39.8861H39.8508H39.8155H39.7802H39.7449H39.7096H39.6743H39.639H39.6037H39.5684H39.5331H39.4977H39.4624H39.4271H39.3918H39.3565H39.3212H39.2859H39.2506H39.2153H39.18H39.1447H39.1094H39.0741H39.0388H39.0035H38.9682H38.9329H38.8976H38.8623H38.827H38.7917H38.7564H38.7211H38.6858H38.6505H38.6152H38.5799H38.5446H38.5093H38.474H38.4387H38.4034H38.3681H38.3328H38.2975H38.2622H38.2269H38.1916H38.1563H38.121H38.0857H38.0504H38.0151H37.9798H37.9445H37.9092H37.8739H37.8386H37.8033H37.768H37.7327H37.6974H37.6621H37.6268H37.5915H37.5562H37.5209H37.4856H37.4503H37.415H37.3797H37.3444H37.3091H37.2738H37.2385H37.2032H37.1679H37.1326H37.0973H37.062H37.0267H36.9914H36.9561H36.9208H36.8855H36.8502H36.8149H36.7796H36.7443H36.709H36.6737H36.6384H36.6031H36.5678H36.5325H36.4972H36.4619H36.4266H36.3913H36.356H36.3207H36.2854H36.2501H36.2148H36.1795H36.1442H36.1089H36.0736H36.0383H36.003H35.9677H35.9324H35.8971H35.8618H35.8265H35.7912H35.7559H35.7206H35.6853H35.65H35.6147H35.5794H35.5441H35.5088H35.4735H35.4382H35.4029H35.3676H35.3323H35.297H35.2617H35.2264H35.1911H35.1558H35.1205H35.0852H35.0499H35.0146H34.9793H34.944H34.9087H34.8734H34.8381H34.8028H34.7675H34.7322H34.6969H34.6616H34.6263H34.591H34.5557H34.5204H34.4851H34.4498H34.4145H34.3792H34.3439H34.3086H34.2733H34.238H34.2027H34.1674H34.1321H34.0968H34.0615H34.0262H33.9909H33.9556H33.9203H33.885H33.8497H33.8144H33.7791H33.7438H33.7085H33.6732H33.6379H33.6026H33.5673H33.532H33.4967H33.4614H33.4261H33.3908H33.3555H33.3202H33.2849H33.2496H33.2143H33.179H33.1437H33.1084H33.0731H33.0378H33.0025H32.9672H32.9319H32.8966H32.8613H32.8261H32.7908H32.7555H32.7202H32.6849H32.6496H32.6143H32.579H32.5437H32.5084H32.4731H32.4378H32.4025H32.3672H32.3319H32.2966H32.2613H32.226H32.1907H32.1554H32.1201H32.0848H32.0495H32.0142H31.9789H31.9436H31.9083H31.873H31.8377H31.8024H31.7671H31.7318H31.6965H31.6612H31.6259H31.5906H31.5553H31.52H31.4847H31.4494H31.4142H31.3789H31.3436H31.3083H31.273H31.2377H31.2024H31.1671H31.1318H31.0965H31.0612H31.0259H30.9906H30.9553H30.92H30.8847H30.8494H30.8141H30.7788H30.7435H30.7082H30.6729H30.6376H30.6023H30.567H30.5317H30.4964H30.4611H30.4258H30.3905H30.3553H30.32H30.2847H30.2494H30.2141H30.1788H30.1435H30.1082H30.0729H30.0376H30.0023H29.967H29.9317H29.8964H29.8611H29.8258H29.7905H29.7552H29.7199H29.6846H29.6493H29.614H29.5787H29.5435H29.5082H29.4729H29.4376H29.4023H29.367H29.3317H29.2964H29.2611H29.2258H29.1905H29.1552H29.1199H29.0846H29.0493H29.014H28.9787H28.9434H28.9081H28.8728H28.8376H28.8023H28.767H28.7317H28.6964H28.6611H28.6258H28.5905H28.5552H28.5199H28.4846H28.4493H28.414H28.3787H28.3434H28.3081H28.2728H28.2375H28.2023H28.167H28.1317H28.0964H28.0611H28.0258H27.9905H27.9552H27.9199H27.8846H27.8493H27.814H27.7787H27.7434H27.7081H27.6728H27.6376H27.6023H27.567H27.5317H27.4964H27.4611H27.4258H27.3905H27.3552H27.3199H27.2846H27.2493H27.214H27.1787H27.1434H27.1082H27.0729H27.0376H27.0023H26.967H26.9317H26.8964H26.8611H26.8258H26.7905H26.7552H26.7199H26.6846H26.6493H26.6141H26.5788H26.5435H26.5082H26.4729H26.4376H26.4023H26.367H26.3317H26.2964H26.2611H26.2258H26.1905H26.1553C24.547 66.4238 23.2364 65.934 22.3275 65.0255C21.4185 64.117 20.9278 62.8065 20.927 61.1973C20.9258 57.2834 20.9262 53.3688 20.9266 49.4544C20.9268 47.4974 20.927 45.5404 20.927 43.5836C20.927 42.9592 20.9957 42.5116 21.2747 42.2334C21.5535 41.9554 22.0021 41.8866 22.6281 41.8857C22.9036 41.8854 23.1793 41.8848 23.4551 41.8842C24.5594 41.882 25.6654 41.8797 26.7702 41.891C26.9523 41.8927 27.0574 41.8763 27.1308 41.8323C27.1973 41.7925 27.2629 41.7136 27.319 41.5222C28.1289 38.7446 30.4393 36.967 33.1984 36.9634H33.1985C35.9577 36.9616 38.2822 38.7479 39.0922 41.5097M44.5899 66.4238L38.9483 41.5519M44.5899 66.4238L44.5882 66.422M44.5899 66.4238L44.5882 66.422M39.0922 41.5097L38.9483 41.5519M39.0922 41.5097C39.0922 41.5096 39.0922 41.5095 39.0921 41.5093L38.9483 41.5519M39.0922 41.5097C39.1421 41.6779 39.1883 41.7678 39.2464 41.8195C39.2984 41.8656 39.3823 41.9001 39.5589 41.8946L39.5593 41.8945C40.6126 41.8646 41.6687 41.8699 42.7202 41.891L42.7204 41.891C42.9143 41.8951 42.9881 41.8581 43.0218 41.8213C43.0591 41.7806 43.0886 41.697 43.0861 41.5068M38.9483 41.5519C39.05 41.8955 39.1709 42.0567 39.5636 42.0445C40.6136 42.0147 41.6671 42.0199 42.7172 42.041C43.1274 42.0497 43.2413 41.8955 43.236 41.5046M43.0861 41.5068C43.0861 41.5068 43.0861 41.5069 43.0861 41.507L43.236 41.5046M43.0861 41.5068C43.0861 41.5067 43.086 41.5067 43.086 41.5066L43.236 41.5046M43.0861 41.5068L43.2308 37.89C43.2238 39.0943 43.2168 40.3003 43.236 41.5046M44.5882 66.422H44.6161H44.6516H44.687H44.7224H44.7578H44.7933H44.8287H44.8641H44.8995H44.935H44.9704H45.0058H45.0413H45.0767H45.1121H45.1475H45.183H45.2184H45.2538H45.2892H45.3247H45.3601H45.3955H45.4309H45.4664H45.5018H45.5372H45.5726H45.6081H45.6435H45.6789H45.7144H45.7498H45.7852H45.8206H45.8561H45.8915H45.9269H45.9623H45.9978H46.0332H46.0686H46.1041H46.1395H46.1749H46.2103H46.2458H46.2812H46.3166H46.352H46.3875H46.4229H46.4583H46.4938H46.5292H46.5646H46.6H46.6355H46.6709H46.7063H46.7418H46.7772H46.8126H46.848H46.8835H46.9189H46.9543H46.9897H47.0252H47.0606H47.096H47.1315H47.1669H47.2023H47.2377H47.2732H47.3086H47.344H47.3795H47.4149H47.4503H47.4857H47.5212H47.5566H47.592H47.6275H47.6629H47.6983H47.7337H47.7692H47.8046H47.84H47.8755H47.9109H47.9463H47.9817H48.0172H48.0526H48.088H48.1235H48.1589H48.1943H48.2297H48.2652H48.3006H48.336H48.3715H48.4069H48.4423H48.4777H48.5132H48.5486H48.584H48.6195H48.6549H48.6903H48.7258H48.7612H48.7966H48.832H48.8675H48.9029H48.9383H48.9738H49.0092H49.0446H49.08H49.1155H49.1509H49.1863H49.2218H49.2572H49.2926H49.3281H49.3635H49.3989H49.4343H49.4698H49.5052H49.5406H49.5761H49.6115H49.6469H49.6823H49.7178H49.7532H49.7886H49.8241H49.8595H49.8949H49.9304H49.9658H50.0012H50.0366H50.0721H50.1075H50.1429H50.1784H50.2138H50.2492H50.2847H50.3201H50.3555H50.3909H50.4264H50.4618H50.4972H50.5327H50.5681H50.6035H50.639H50.6744H50.7098H50.7452H50.7807H50.8161H50.8515H50.887H50.9224H50.9578H50.9933H51.0287H51.0641H51.0995H51.135H51.1704H51.2058H51.2413H51.2767H51.3121H51.3476H51.383H51.4184H51.4539H51.4893H51.5247H51.5601H51.5956H51.631H51.6664H51.7019H51.7373H51.7727H51.8082H51.8436H51.879H51.9144H51.9499H51.9853H52.0207H52.0562H52.0916H52.127H52.1625H52.1979H52.2333H52.2688H52.3042H52.3396H52.375H52.4105H52.4459H52.4813H52.5168H52.5522H52.5876H52.6231H52.6585H52.6939H52.7293H52.7648H52.8002H52.8356H52.8711H52.9065H52.9419H52.9774H53.0128H53.0482H53.0837H53.1191H53.1545H53.1899H53.2254H53.2608H53.2962H53.3317H53.3671H53.4025H53.438H53.4734H53.5088H53.5443H53.5797H53.6151H53.6505H53.686H53.7214H53.7568H53.7923H53.8277H53.8631H53.8986H53.934H53.9694H54.0048H54.0403H54.0757H54.1111H54.1466H54.182H54.2174H54.2529H54.2883H54.3237H54.3591H54.3946H54.43H54.4654H54.5009H54.5363H54.5717H54.6072H54.6426H54.678H54.7135H54.7489H54.7843H54.8197H54.8552H54.8906H54.926H54.9615H54.9969H55.0323H55.0678H55.1032H55.1386H55.174H55.2095H55.2449H55.2803H55.3158H55.3512H55.3866H55.4221H55.4575H55.4929H55.5284H55.5638H55.5992H55.6346H55.6701H55.7055H55.7409H55.7764H55.8118H55.8472H55.8827H55.9181H55.9535H55.9889H56.0244H56.0598H56.0952H56.1307H56.1661H56.2015H56.237H56.2724H56.3078H56.3432H56.3787H56.4141H56.4495H56.485H56.5204H56.5558H56.5913H56.6267H56.6621H56.6975H56.733H56.7684H56.8038H56.8393H56.8747H56.9101H56.9456H56.981H57.0164H57.0518H57.0873H57.1227H57.1581H57.1936H57.229H57.2644H57.2999H57.3353H57.3707H57.4061H57.4416H57.477H57.5124H57.5479H57.5833H57.6187H57.6541H57.6896H57.725H57.7604H57.7959H57.8313H57.8667H57.9021H57.9376H57.973H58.0084H58.0439H58.0793H58.1147H58.1502H58.1856H58.221H58.2564H58.2919H58.3273H58.3627H58.3982H58.4336H58.469H58.5044H58.5399H58.5753H58.6107H58.6462H58.6816H58.717H58.7524H58.7879H58.8233H58.8587H58.8942H58.9296H58.965H59.0004H59.0359H59.0713H59.1067H59.1422H59.1776H59.213H59.2484H59.2839H59.3193H59.3547H59.3902H59.4256H59.461H59.4964H59.5319H59.5673H59.6027H59.6382H59.6736H59.709H59.7444H59.7799H59.8153H59.8507H59.8861H59.9216H59.957H59.9924H60.0279H60.0633H60.0987H60.1341H60.1696H60.205H60.2404H60.2759H60.3113H60.3467H60.3821H60.4176H60.453H60.4884H60.5238H60.5593H60.5947H60.6301H60.6656H60.701H60.7364H60.7718H60.8073H60.8427H60.8781H60.9135H60.949H60.9844H61.0198H61.0552H61.0907H61.1261H61.1615H61.197H61.2324H61.2678H61.3032H61.3387H61.3741H61.4095H61.4449H61.4804H61.5158H61.5512H61.5866H61.6221H61.6575H61.6929H61.7284H61.7638H61.7992H61.8346H61.8701H61.9055H61.9409H61.9763H62.0118H62.0472H62.0826H62.118H62.1535H62.1889H62.2243H62.2597H62.2952H62.3306H62.366H62.3661C63.9825 66.4212 65.2957 65.9356 66.2051 65.0317C67.1146 64.1277 67.6031 62.8221 67.6031 61.2148V61.1453V61.0759V61.0064V60.937V60.8676V60.7981V60.7287V60.6592V60.5898V60.5203V60.4509V60.3814V60.312V60.2426V60.1731V60.1037V60.0342V59.9648V59.8953V59.8259V59.7565V59.687V59.6176V59.5481V59.4787V59.4092V59.3398V59.2703V59.2009V59.1315V59.062V58.9926V58.9231V58.8537V58.7842V58.7148V58.6454V58.5759V58.5065V58.437V58.3676V58.2981V58.2287V58.1593V58.0898V58.0204V57.9509V57.8815V57.812V57.7426V57.6731V57.6037V57.5343V57.4648V57.3954V57.3259V57.2565V57.187V57.1176V57.0482V56.9787V56.9093V56.8398V56.7704V56.7009V56.6315V56.562V56.4926V56.4232V56.3537V56.2843V56.2148V56.1454V56.0759V56.0065V55.9371V55.8676V55.7982V55.7287V55.6593V55.5898V55.5204V55.4509V55.3815V55.3121V55.2426V55.1732V55.1037V55.0343V54.9648V54.8954V54.826V54.7565V54.6871V54.6176V54.5482V54.4787V54.4093V54.3399V54.2704V54.201V54.1315V54.0621V53.9926V53.9232V53.8537V53.7843V53.7149V53.6454V53.576V53.5065V53.4371V53.3676V53.2982V53.2288V53.1593V53.0899V53.0204V52.951V52.8815V52.8121V52.7426V52.6732V52.6038V52.5343V52.4649V52.3954V52.326V52.2565V52.1871V52.1177V52.0482V51.9788V51.9093V51.8399V51.7704V51.701V51.6315V51.5621V51.4927V51.4232V51.3538V51.2843V51.2149V51.1454V51.076V51.0066V50.9371V50.8677V50.7982V50.7288V50.6593V50.5899V50.5204V50.451V50.3816V50.3121V50.2427V50.1732V50.1038V50.0343V49.9649V49.8955V49.826V49.7566V49.6871V49.6177V49.5482V49.4788V49.4094V49.3399V49.2705V49.201V49.1316V49.0621V48.9927V48.9232V48.8538V48.7844V48.7149V48.6455V48.576V48.5066V48.4371V48.3677V48.2983V48.2288V48.1594V48.0899V48.0205V47.951V47.8816V47.8121V47.7427V47.6733V47.6038V47.5344V47.4649V47.3955V47.326V47.2566V47.1872V47.1177V47.0483V46.9788V46.9094V46.8399V46.7705V46.701V46.6316V46.5622V46.4927V46.4233V46.3538V46.2844V46.2149V46.1455V46.0761V46.0066V45.9372V45.8677V45.7983V45.7288V45.6594V45.59V45.5205V45.4511V45.3816V45.3122V45.2427V45.1733V45.1038V45.0344V44.965V44.8955V44.8261V44.7566V44.6872V44.6177V44.5483V44.4789V44.4094V44.34V44.2705V44.2011V44.1316V44.0622V43.9927V43.9233V43.8539V43.7844V43.715V43.6455V43.5761V43.5066V43.4372V43.3678V43.2983V43.2289V43.1594V43.09V43.0205V42.9511V42.8816V42.8122V42.7428V42.6733V42.6039V42.5344V42.465V42.3955V42.3261V42.2567V42.1872V42.1178V42.0483V41.9789V41.9094V41.84V41.7705V41.7011V41.6317V41.5622V41.4928V41.4233V41.3539V41.2844V41.215V41.1456V41.0761V41.0067V40.9372V40.8678V40.7983V40.7289V40.6595V40.59V40.5206V40.4511V40.3817V40.3122V40.2428V40.1733V40.1039V40.0345V39.965V39.8956V39.8261V39.7567V39.6872V39.6178V39.5484V39.4789V39.4095V39.34V39.2706V39.2011V39.1317V39.0622V38.9928V38.9234V38.8539V38.7845V38.715V38.6456V38.5761V38.5067V38.4373V38.3678V38.2984V38.2289V38.1595V38.09V38.0206V37.9511V37.8817V37.8123V37.7428V37.6734V37.6039V37.5345V37.465V37.3956V37.3262V37.2567V37.1873V37.1178V37.0484V36.9789V36.9095V36.8401V36.7706V36.7012V36.6317V36.5623V36.4928V36.4234V36.3539V36.2845V36.2151V36.1456V36.0762V36.0067V35.9373V35.8678V35.7984V35.729V35.6595V35.5901V35.5206V35.4512V35.3817V35.3123V35.2428V35.1734V35.104V35.0345V34.9651V34.8956V34.8262V34.7567V34.6873V34.6179V34.5484V34.479V34.4095V34.3401V34.2706V34.2012V34.1317V34.0623V33.9929V33.9234V33.854V33.7845V33.7151V33.6456V33.5762V33.5068V33.4373V33.3679V33.2984V33.229V33.1595V33.0901V33.0207V32.9512V32.8818V32.8123V32.7429V32.6734V32.604V32.5345V32.4651V32.3957V32.3262V32.2568V32.1873V32.1179V32.0484V31.979V31.9096V31.8401V31.7707V31.7012V31.6318V31.5623V31.4929V31.4234V31.354V31.2846V31.2151V31.1457V31.0762V31.0068V30.9373V30.8679V30.7985V30.729V30.6596V30.5901V30.5207V30.4512V30.3818V30.3123V30.2429V30.1735V30.104V30.0346V29.9651V29.8957V29.8262V29.7568V29.6874V29.6179V29.5485V29.479V29.4096V29.3401V29.2707V29.2013V29.1318V29.0624V28.9929V28.9235V28.854V28.7846V28.7151V28.6457V28.5763V28.5068V28.4374V28.3679V28.2985V28.229V28.1596V28.0902V28.0207V27.9513V27.8818V27.8124V27.7429V27.6735V27.604V27.5346V27.4652V27.3957V27.3263V27.2568V27.1874V27.1179V27.0485V26.9791V26.9096V26.8402V26.7707V26.7013V26.6318V26.5624V26.4929V26.4235V26.3541V26.2846V26.2152V26.1457V26.0763V26.0068V25.9374V25.868V25.7985V25.7291V25.6596C67.6031 24.0303 67.1177 22.7132 66.2062 21.8028C65.2948 20.8925 63.9752 20.4068 62.3416 20.405L62.3415 20.405C60.0194 20.4039 57.6973 20.4042 55.3751 20.4046C54.2141 20.4048 53.0531 20.405 51.8921 20.405C51.1912 20.405 50.4903 20.4045 49.7893 20.4039C48.0368 20.4024 46.2842 20.401 44.5309 20.4085L44.5882 66.422ZM38.2301 53.3878C38.4158 52.0769 38.8879 50.989 39.6357 50.1319C40.3833 49.2751 41.3993 48.6573 42.6596 48.2747L42.6597 48.2747C42.8618 48.2134 42.9606 48.1508 43.0142 48.0791C43.0666 48.0089 43.0954 47.9033 43.0896 47.7056C43.0615 46.7407 43.058 45.7717 43.0896 44.8057L43.0896 44.8053C43.0984 44.5586 43.0684 44.4385 43.0141 44.3753C42.9653 44.3186 42.861 44.2693 42.597 44.2769L42.5968 44.2769C41.528 44.3059 40.4577 44.2991 39.3901 44.2923C39.0992 44.2905 38.8086 44.2886 38.5183 44.2875C37.9752 44.2857 37.5823 44.2273 37.3202 43.991C37.0577 43.7544 36.9627 43.3722 36.9094 42.8413C36.7046 40.8173 35.1008 39.3438 33.1573 39.3757L33.1572 39.3757C31.225 39.406 29.6726 40.8827 29.4968 42.8711C29.4527 43.3711 29.3574 43.7405 29.1085 43.9764C28.8583 44.2135 28.4879 44.2831 27.9896 44.2857M38.2301 53.3878L27.9888 44.1357M38.2301 53.3878C37.8111 56.3301 39.6276 59.1327 42.4926 59.9721C42.7698 60.0535 42.9169 60.1427 42.9978 60.2543C43.0776 60.3645 43.1136 60.5255 43.0951 60.8034L43.0951 60.8037C43.0386 61.6827 43.0351 62.5711 43.0951 63.4495C43.1164 63.7591 43.0613 63.8796 42.9925 63.9371C42.9124 64.0042 42.7624 64.0352 42.4715 64.0325C40.4251 64.0119 38.3792 64.015 36.3339 64.018C35.5978 64.0191 34.8619 64.0203 34.1259 64.0203H34.1242C33.2259 64.0203 32.3279 64.0206 31.4299 64.021C29.6344 64.0218 27.8393 64.0226 26.0434 64.0203M38.2301 53.3878L26.0431 64.1703M27.9896 44.2857L27.9888 44.1357M27.9896 44.2857C27.9897 44.2857 27.9898 44.2857 27.9898 44.2857L27.9888 44.1357M27.9896 44.2857C27.7959 44.287 27.602 44.2884 27.408 44.2899C26.2438 44.2984 25.0768 44.3071 23.9112 44.2769M27.9888 44.1357C27.7947 44.137 27.6006 44.1384 27.4064 44.1399C26.2421 44.1484 25.0779 44.157 23.915 44.127C23.3663 44.113 23.1595 44.2269 23.163 44.8404C23.1808 48.5591 23.1801 52.2779 23.1794 55.9966C23.1791 57.7751 23.1788 59.5537 23.1805 61.3322C23.1805 63.1518 24.213 64.1667 26.0431 64.1703M23.9112 44.2769L23.915 44.1273L23.9111 44.2769C23.9111 44.2769 23.9111 44.2769 23.9112 44.2769ZM23.9112 44.2769C23.6341 44.2699 23.5014 44.3002 23.4299 44.3619C23.3641 44.4187 23.3112 44.5385 23.313 44.8396L23.313 44.8397C23.3308 48.5588 23.3301 52.2782 23.3294 55.9972C23.3291 57.7756 23.3288 59.5539 23.3305 61.3321L23.3305 61.3322C23.3305 62.214 23.5802 62.8797 24.031 63.3256C24.4821 63.7719 25.1553 64.0186 26.0434 64.0203M26.0434 64.0203C26.0433 64.0203 26.0433 64.0203 26.0433 64.0203L26.0431 64.1703M26.0434 64.0203L26.0431 64.1703M45.4719 23.2612L45.4719 23.2612C45.5107 24.293 45.4983 25.3272 45.4755 26.3568C45.4723 26.5153 45.5 26.5947 45.5399 26.6448C45.582 26.6978 45.6583 26.7449 45.8128 26.7923C48.6156 27.6478 50.3695 29.9037 50.3803 32.6603C50.3911 35.4524 48.6389 37.7247 45.8041 38.5874C45.6497 38.6345 45.5757 38.685 45.5357 38.7395C45.4962 38.7933 45.4715 38.8764 45.4755 39.0325C45.4983 39.8435 45.5089 40.6592 45.4737 41.4725L45.4737 41.4726C45.4637 41.701 45.5077 41.7861 45.5528 41.8249C45.6058 41.8704 45.71 41.8989 45.9291 41.8945L45.9295 41.8945C46.9999 41.8762 48.0706 41.8805 49.1395 41.8847C49.4063 41.8857 49.673 41.8868 49.9395 41.8875C49.9396 41.8875 49.9397 41.8875 49.9397 41.8875L49.9393 42.0375C51.1524 42.0392 51.3768 42.2426 51.5152 43.4538L45.4719 23.2612ZM45.4719 23.2612C45.4626 23.0144 45.5054 22.9213 45.5537 22.8781C45.6083 22.8291 45.717 22.798 45.9573 22.7998C48.0602 22.8156 50.1633 22.8136 52.2656 22.8116C52.9456 22.811 53.6254 22.8104 54.3052 22.8103L54.3069 22.8121H54.369C55.2597 22.8121 56.1502 22.8117 57.0408 22.8113C58.8217 22.8105 60.6025 22.8097 62.3834 22.8121H62.3834C63.3612 22.8129 64.058 23.0524 64.5119 23.5097C64.9659 23.9671 65.203 24.6691 65.203 25.6526C65.203 26.842 65.2026 28.0315 65.2021 29.2211C65.2006 33.2647 65.1991 37.3092 65.2153 41.3527C65.2162 41.6232 65.1823 41.7453 65.1255 41.8074C65.0738 41.864 64.9658 41.9084 64.6899 41.8998L64.6896 41.8998C63.5369 41.8661 62.384 41.8752 61.2343 41.8842C61.0046 41.886 60.7749 41.8878 60.5455 41.8892H60.5454C60.0498 41.8928 59.6756 41.9715 59.4208 42.2102C59.1661 42.4489 59.0643 42.8159 59.0278 43.3041C58.8829 45.2325 57.3404 46.6978 55.4048 46.7467M45.4719 23.2612L55.4048 46.7467M55.4048 46.7467C53.5056 46.7938 51.8853 45.3637 51.6643 43.4368L55.4048 46.7467ZM43.3731 36.7909C43.1485 37.0389 43.0834 37.4021 43.0808 37.8891L43.2325 21.8242L43.0825 21.8233C43.0825 21.8234 43.0825 21.8235 43.0825 21.8236C43.072 23.7505 43.072 25.6793 43.0825 27.608V27.6081C43.0853 28.0332 43.1704 28.3657 43.391 28.5993C43.6109 28.8321 43.9381 28.9377 44.3551 28.9749L44.3552 28.9749C46.4551 29.1615 47.9384 30.707 47.9417 32.6822C47.9451 34.6273 46.481 36.1878 44.4287 36.3962L44.4286 36.3962C43.9513 36.4449 43.598 36.5429 43.3731 36.7909ZM43.2395 44.8106C43.2571 44.3163 43.1396 44.1112 42.5927 44.127L42.7031 48.4182C43.1256 48.2902 43.2518 48.1202 43.2395 47.7013C43.2115 46.7389 43.208 45.773 43.2395 44.8106ZM54.341 64.0203L54.3406 64.022L45.4905 63.8471C45.4874 63.7726 45.488 63.6831 45.4888 63.5692C45.4895 63.487 45.4901 63.3921 45.4896 63.2807C45.4861 62.6344 45.4869 61.9886 45.4878 61.3423V61.3408C45.4887 60.6952 45.4896 60.0492 45.4861 59.4032C45.4834 58.8898 45.4061 58.5053 45.1626 58.2455C44.9192 57.9856 44.5418 57.8849 44.0356 57.8485L44.0355 57.8485C42.1176 57.712 40.6311 56.1671 40.5619 54.2379C40.4964 52.4078 41.8744 50.7766 43.7334 50.4965L43.7335 50.4965C43.8819 50.4741 44.0325 50.455 44.184 50.4376C44.6177 50.3881 44.9515 50.278 45.1733 50.0389C45.3959 49.7989 45.478 49.4587 45.4826 49.0177C45.4966 47.813 45.5036 46.6067 45.4773 45.3999L45.4773 45.3996C45.472 45.1775 45.502 45.0776 45.5463 45.028C45.5857 44.9839 45.6721 44.9424 45.9008 44.95L45.9009 44.95C46.9321 44.9835 47.9662 44.9711 48.995 44.9554H48.9951C49.1515 44.9529 49.2339 44.9766 49.2875 45.0159C49.3412 45.0553 49.3923 45.1297 49.4395 45.291L49.4395 45.2911C50.2564 48.0747 52.5467 49.8546 55.3045 49.8654C58.0958 49.8762 60.406 48.1071 61.2424 45.2916L61.2426 45.2908C61.2908 45.1257 61.3394 45.0513 61.39 45.0126C61.4391 44.9751 61.5163 44.9512 61.6729 44.9536C62.7258 44.9712 63.7777 44.9747 64.8317 44.9536C65.023 44.9501 65.1014 44.9745 65.1393 45.0074C65.1719 45.0359 65.21 45.104 65.2101 45.3081C65.2036 47.8149 65.2035 50.3203 65.2033 52.8256C65.2031 55.7729 65.203 58.7198 65.1925 61.6683C65.1876 63.0365 64.1388 64.0117 62.6845 64.0168C60.6992 64.0243 58.7132 64.0228 56.7265 64.0214C55.9314 64.0208 55.1363 64.0203 54.341 64.0203Z" fill="black" stroke="black" stroke-width="0.3"/>
<path d="M8.40722 14.3722L8.40722 14.3722C8.40991 12.8903 8.91634 11.6337 9.80289 10.7469C10.6895 9.86014 11.9457 9.35368 13.4285 9.35278L8.40722 14.3722ZM8.40722 14.3722C8.40371 16.3287 8.40488 18.2853 8.40605 20.2417C8.40663 21.2117 8.40721 22.1816 8.40722 23.1515L8.40547 23.1567M8.40722 14.3722L8.40547 23.1567M31.3649 9.35278V9.50278M31.3649 9.35278V9.50278M31.3649 9.35278C30.3681 9.35249 29.3714 9.35214 28.3748 9.3518C23.3926 9.3501 18.4112 9.3484 13.4286 9.35278L31.3649 9.35278ZM31.3649 9.50278C32.443 9.50278 32.776 9.83409 32.7795 10.9104L32.9295 10.9099L31.3649 9.50278ZM31.3649 9.50278L31.3649 9.35278L31.3649 9.50278ZM8.40547 23.1567V23.1811M8.40547 23.1567V23.1811M8.40547 23.1811C8.40547 24.203 8.40527 25.2249 8.40508 26.2469M8.40547 23.1811L8.40508 26.2469M14.9485 31.1132C15.7303 28.4732 18.0407 26.7501 20.6982 26.7676C23.3819 26.7869 25.6327 28.496 26.4198 31.1553C26.5285 31.5251 26.6793 31.6478 27.0474 31.6408C28.0764 31.6233 29.1071 31.6163 30.1343 31.6426M14.9485 31.1132L14.8047 31.0704C14.8047 31.0704 14.8047 31.0705 14.8047 31.0706M14.9485 31.1132L14.8047 31.0706M14.9485 31.1132L10.8055 31.1519M14.8047 31.0706C15.6049 28.3683 17.9731 26.5996 20.6992 26.6176H20.6993C23.451 26.6374 25.7584 28.392 26.5636 31.1127L26.5637 31.113C26.6153 31.2885 26.6689 31.3745 26.7287 31.4212C26.7862 31.4662 26.8746 31.4941 27.0445 31.4909L27.0448 31.4908C28.0747 31.4733 29.1078 31.4663 30.1382 31.4926M14.8047 31.0706C14.7442 31.2734 14.679 31.3692 14.6066 31.4203C14.5334 31.4718 14.4249 31.4976 14.2283 31.4926L14.2281 31.4926C13.1982 31.468 12.1652 31.4715 11.1348 31.4908L11.1347 31.4909C10.9573 31.4942 10.8933 31.4627 10.8652 31.4336C10.8348 31.402 10.8055 31.3318 10.8055 31.1519M30.1382 31.4926C30.1381 31.4926 30.138 31.4926 30.1379 31.4926L30.1343 31.6426M30.1382 31.4926L30.1343 31.6426M30.1382 31.4926C30.3469 31.4976 30.4296 31.4607 30.468 31.4202C30.5086 31.3776 30.5408 31.2891 30.5365 31.083L30.5365 31.0825C30.52 30.1453 30.5228 29.2074 30.5256 28.2713C30.5267 27.9153 30.5277 27.5595 30.5277 27.2041C30.5277 26.8526 30.5363 26.5681 30.5729 26.3391C30.6098 26.1085 30.6771 25.9199 30.805 25.7704C30.9331 25.6206 31.1082 25.5262 31.3285 25.4568C31.5471 25.3878 31.8234 25.3395 32.1657 25.2904C34.1188 25.0102 35.4442 23.4384 35.3852 21.4766M30.1343 31.6426C30.5691 31.6531 30.6953 31.5023 30.6865 31.0799C30.67 30.1443 30.6728 29.2088 30.6756 28.2732C30.6767 27.9169 30.6777 27.5605 30.6777 27.2041C30.6777 25.7982 30.818 25.6352 32.187 25.4389L29.9154 11.7353C29.9155 11.7353 29.9155 11.7353 29.9156 11.7353C30.243 11.7309 30.3805 11.7831 30.4472 11.8567C30.5171 11.9338 30.5524 12.0793 30.5419 12.3883L30.5418 12.3883C30.5058 13.4437 30.5146 14.5019 30.5233 15.5561C30.5257 15.8382 30.528 16.12 30.5295 16.4014C30.5322 16.8947 30.613 17.269 30.852 17.5253C31.091 17.7817 31.4572 17.887 31.9423 17.9245C33.861 18.073 35.3263 19.5882 35.3852 21.4766M35.3852 21.4766L35.5347 21.472L35.3852 21.4765C35.3852 21.4765 35.3852 21.4766 35.3852 21.4766ZM10.8055 31.1519C10.8098 28.8069 10.81 26.462 10.8102 24.1173C10.8104 20.768 10.8107 17.4189 10.823 14.0698C10.828 12.7369 11.88 11.763 13.2944 11.7563L10.8055 31.1519ZM8.40508 26.2469C8.40469 28.2908 8.4043 30.3348 8.40547 32.3788L8.40508 26.2469ZM32.9225 15.2493L32.9225 15.2492L32.776 32.4349L32.926 32.4358C32.926 32.4358 32.926 32.4358 32.926 32.4357C32.9348 30.9683 32.9383 29.5001 32.9225 28.0316C32.9208 27.8606 32.9385 27.7629 32.9795 27.696C33.0169 27.6349 33.0899 27.5749 33.2638 27.5232C36.0838 26.6906 37.8715 24.3774 37.8571 21.6044C37.8427 18.8473 36.06 16.539 33.2897 15.7273C33.1151 15.6757 33.0333 15.6233 32.9894 15.5657C32.9464 15.5093 32.92 15.4217 32.9225 15.2493ZM18.5963 29.672C20.9257 28.0973 24.0238 29.5433 24.346 32.3467L8.40547 32.3789C8.40548 32.8867 8.49193 33.2765 8.74385 33.5351C8.99659 33.7944 9.38133 33.8864 9.88516 33.8891L9.88525 33.8891C11.7474 33.8979 13.6095 33.8979 15.4716 33.8891L15.4717 33.8891C15.9659 33.8864 16.338 33.8072 16.5912 33.5665C16.8435 33.3265 16.9442 32.9577 16.9825 32.4676C17.0754 31.2764 17.6146 30.3366 18.5963 29.672ZM19.1827 11.7513C20.0003 11.7521 20.818 11.7528 21.636 11.7528L13.2944 11.7563C15.2576 11.7477 17.2198 11.7495 19.1827 11.7513Z" fill="black" stroke="black" stroke-width="0.3"/>
</g>
</svg>
