<svg width="93" height="92" viewBox="0 0 93 92" fill="none" xmlns="http://www.w3.org/2000/svg">
<mask id="mask0_7374_81175" style="mask-type:alpha" maskUnits="userSpaceOnUse" x="0" y="0" width="93" height="92">
<rect x="0.125" width="92" height="92" fill="black"/>
</mask>
<g mask="url(#mask0_7374_81175)">
<path d="M28.625 53.5C23.1 53.5 18.625 57.975 18.625 63.5C18.625 65.375 19.15 67.15 20.075 68.65C21.8 71.55 24.975 73.5 28.625 73.5C32.275 73.5 35.45 71.55 37.175 68.65C38.1 67.15 38.625 65.375 38.625 63.5C38.625 57.975 34.15 53.5 28.625 53.5ZM33.55 62.675L28.225 67.6C27.875 67.925 27.4 68.1 26.95 68.1C26.475 68.1 26 67.925 25.625 67.55L23.15 65.075C22.425 64.35 22.425 63.15 23.15 62.425C23.875 61.7 25.075 61.7 25.8 62.425L27 63.625L31 59.925C31.75 59.225 32.95 59.275 33.65 60.025C34.35 60.775 34.3 61.975 33.55 62.675Z" fill="black"/>
<path d="M69.875 47.25H63.625C60.875 47.25 58.625 49.5 58.625 52.25C58.625 55 60.875 57.25 63.625 57.25H69.875C70.575 57.25 71.125 56.7 71.125 56V48.5C71.125 47.8 70.575 47.25 69.875 47.25Z" fill="black"/>
<path d="M57.45 29.5004C58.2 30.2254 57.575 31.3504 56.525 31.3504L35.825 31.3254C34.625 31.3254 34.025 29.8754 34.875 29.0254L39.25 24.6254C42.95 20.9504 48.925 20.9504 52.625 24.6254L57.35 29.4004C57.375 29.4254 57.425 29.4754 57.45 29.5004Z" fill="black"/>
<path d="M70.7984 62.65C69.2734 67.8 64.8734 71 58.8734 71H42.6234C41.6484 71 41.0234 69.925 41.4234 69.025C42.1734 67.275 42.6484 65.3 42.6484 63.5C42.6484 55.925 36.4734 49.75 28.8984 49.75C26.9984 49.75 25.1484 50.15 23.4484 50.9C22.5234 51.3 21.3984 50.675 21.3984 49.675V46C21.3984 39.2 25.4984 34.45 31.8734 33.65C32.4984 33.55 33.1734 33.5 33.8734 33.5H58.8734C59.5234 33.5 60.1484 33.525 60.7484 33.625C65.7984 34.2 69.4484 37.275 70.7984 41.85C71.0484 42.675 70.4484 43.5 69.5984 43.5H63.8734C58.4484 43.5 54.1484 48.45 55.3234 54.075C56.1484 58.175 59.9484 61 64.1234 61H69.5984C70.4734 61 71.0484 61.85 70.7984 62.65Z" fill="black"/>
</g>
</svg>
