<svg width="93" height="92" viewBox="0 0 93 92" fill="none" xmlns="http://www.w3.org/2000/svg">
<mask id="mask0_7374_81208" style="mask-type:alpha" maskUnits="userSpaceOnUse" x="0" y="0" width="93" height="92">
<rect x="0.125" width="92" height="92" fill="black"/>
</mask>
<g mask="url(#mask0_7374_81208)">
</g>
<path d="M74.125 45.9991C74.1253 39.8082 72.0738 33.7919 68.2914 28.8909C64.509 23.9899 59.2089 20.4807 53.2202 18.9119C47.2314 17.3432 40.8916 17.8034 35.1922 20.2207C29.4928 22.6379 24.7552 26.8759 21.7203 32.2718C18.6854 37.6677 17.5244 43.9173 18.4188 50.0432C19.3131 56.169 22.2125 61.8258 26.6634 66.1288C31.1143 70.4317 36.8658 73.1383 43.0184 73.8252C49.171 74.5121 55.3778 73.1405 60.668 69.9251C60.7839 69.8537 60.9132 69.8069 61.0479 69.7876C61.1826 69.7684 61.3198 69.777 61.451 69.8131L70.684 72.3261C70.9288 72.3932 71.187 72.3944 71.4324 72.3295C71.6778 72.2646 71.9017 72.136 72.0813 71.9567C72.2609 71.7774 72.3899 71.5537 72.4552 71.3084C72.5205 71.0631 72.5198 70.805 72.453 70.5601L69.94 61.3271C69.9045 61.1958 69.8961 61.0586 69.9153 60.924C69.9346 60.7894 69.9811 60.6601 70.052 60.5441C72.7208 56.1623 74.1301 51.1296 74.125 45.9991ZM62.976 40.4741C63.0655 40.6189 63.1165 40.7842 63.1242 40.9543C63.1319 41.1244 63.0961 41.2937 63.02 41.4461L58.02 51.4461C57.9015 51.6834 57.6935 51.864 57.4418 51.948C57.1902 52.032 56.9154 52.0126 56.678 51.8941C56.4407 51.7755 56.2601 51.5675 56.1761 51.3158C56.0921 51.0642 56.1115 50.7894 56.23 50.5521L60.507 41.9991H57.125C56.8598 41.9991 56.6055 41.8937 56.4179 41.7062C56.2304 41.5186 56.125 41.2643 56.125 40.9991C56.125 40.7338 56.2304 40.4795 56.4179 40.292C56.6055 40.1044 56.8598 39.9991 57.125 39.9991H62.125C62.2956 39.9991 62.4634 40.0427 62.6123 40.1259C62.7613 40.209 62.8865 40.3289 62.976 40.4741ZM28.836 57.9451C28.6777 58.0459 28.4938 58.0993 28.306 58.0991C28.1365 58.0992 27.9698 58.0562 27.8214 57.9741C27.6731 57.8921 27.5481 57.7737 27.458 57.6301C24.7218 53.2513 23.6142 48.049 24.3295 42.9354C25.0448 37.8217 27.5373 33.1231 31.37 29.6631C35.2027 26.2032 40.131 24.2027 45.2909 24.0126C50.4508 23.8224 55.5131 25.4546 59.59 28.6231L59.451 26.3881C59.4428 26.2569 59.4604 26.1254 59.503 26.0011C59.5456 25.8768 59.6122 25.7621 59.6992 25.6636C59.7861 25.565 59.8916 25.4846 60.0096 25.4269C60.1276 25.3691 60.2559 25.3352 60.387 25.3271C60.5185 25.3169 60.6507 25.3332 60.7758 25.3751C60.9009 25.4169 61.0162 25.4835 61.1151 25.5708C61.214 25.6581 61.2943 25.7643 61.3513 25.8832C61.4083 26.0022 61.4409 26.1313 61.447 26.2631L61.733 30.8531C61.7498 31.1177 61.6606 31.3782 61.4853 31.5772C61.3099 31.7762 61.0627 31.8973 60.798 31.9141L56.207 32.2001H56.144C55.8788 32.2083 55.6212 32.1108 55.4279 31.9291C55.2345 31.7474 55.1213 31.4963 55.113 31.2311C55.1048 30.9658 55.2023 30.7082 55.384 30.5149C55.5657 30.3215 55.8168 30.2083 56.082 30.2001L58.206 30.0681C54.4832 27.2395 49.8867 25.8054 45.2159 26.015C40.5451 26.2246 36.0955 28.0648 32.641 31.2154C29.1865 34.366 26.9456 38.6278 26.3079 43.2596C25.6703 47.8914 26.6763 52.6002 29.151 56.5671C29.2919 56.7916 29.3378 57.0629 29.2787 57.3213C29.2197 57.5796 29.0604 57.804 28.836 57.9451ZM54.095 40.2451L51.095 52.2451C51.0403 52.4607 50.9152 52.652 50.7395 52.7886C50.5638 52.9252 50.3476 52.9992 50.125 52.9991C50.0431 52.9989 49.9615 52.9888 49.882 52.9691C49.6248 52.9048 49.4036 52.7411 49.2671 52.5138C49.1306 52.2865 49.0899 52.0143 49.154 51.7571L52.154 39.7571C52.1833 39.627 52.2383 39.5042 52.3157 39.3957C52.3931 39.2872 52.4914 39.1953 52.6048 39.1254C52.7183 39.0554 52.8446 39.0089 52.9763 38.9884C53.108 38.968 53.2424 38.9741 53.3717 39.0063C53.501 39.0386 53.6226 39.0964 53.7292 39.1763C53.8359 39.2562 53.9255 39.3566 53.9928 39.4716C54.0601 39.5867 54.1037 39.714 54.1211 39.8461C54.1385 39.9783 54.1293 40.1125 54.094 40.2411L54.095 40.2451ZM40.125 48.9991C39.9493 48.9994 39.7766 48.9535 39.6243 48.8658C39.4721 48.7782 39.3455 48.652 39.2575 48.4999C39.1695 48.3478 39.1232 48.1753 39.1231 47.9996C39.123 47.8239 39.1692 47.6512 39.257 47.4991L43.257 40.4991C43.3204 40.3818 43.4066 40.2784 43.5106 40.1949C43.6145 40.1114 43.7341 40.0495 43.8623 40.0129C43.9905 39.9763 44.1247 39.9657 44.257 39.9818C44.3894 39.9978 44.5172 40.0401 44.6329 40.1063C44.7487 40.1724 44.85 40.261 44.931 40.3669C45.012 40.4728 45.071 40.5938 45.1046 40.7228C45.1381 40.8519 45.1456 40.9863 45.1264 41.1182C45.1072 41.2501 45.0619 41.3769 44.993 41.4911L41.849 46.9991H44.125V45.9991C44.125 45.7338 44.2304 45.4795 44.4179 45.292C44.6055 45.1044 44.8598 44.9991 45.125 44.9991C45.3903 44.9991 45.6446 45.1044 45.8322 45.292C46.0197 45.4795 46.125 45.7338 46.125 45.9991V46.9991H47.125C47.3903 46.9991 47.6446 47.1044 47.8322 47.292C48.0197 47.4795 48.125 47.7338 48.125 47.9991C48.125 48.2643 48.0197 48.5186 47.8322 48.7062C47.6446 48.8937 47.3903 48.9991 47.125 48.9991H46.125V50.9991C46.125 51.2643 46.0197 51.5186 45.8322 51.7062C45.6446 51.8937 45.3903 51.9991 45.125 51.9991C44.8598 51.9991 44.6055 51.8937 44.4179 51.7062C44.2304 51.5186 44.125 51.2643 44.125 50.9991V48.9991H40.125ZM30.125 50.9991C30.125 49.0291 31.813 48.0551 33.303 47.1991C35.059 46.1811 36.125 45.4601 36.125 43.9991C36.125 43.4686 35.9143 42.9599 35.5393 42.5848C35.1642 42.2098 34.6555 41.9991 34.125 41.9991C33.5946 41.9991 33.0859 42.2098 32.7108 42.5848C32.3358 42.9599 32.125 43.4686 32.125 43.9991C32.125 44.2643 32.0197 44.5186 31.8321 44.7062C31.6446 44.8937 31.3903 44.9991 31.125 44.9991C30.8598 44.9991 30.6055 44.8937 30.4179 44.7062C30.2304 44.5186 30.125 44.2643 30.125 43.9991C30.125 42.9382 30.5465 41.9208 31.2966 41.1706C32.0468 40.4205 33.0642 39.9991 34.125 39.9991C35.1859 39.9991 36.2033 40.4205 36.9535 41.1706C37.7036 41.9208 38.125 42.9382 38.125 43.9991C38.125 46.7201 36.006 47.9431 34.303 48.9271C33.7259 49.2329 33.1786 49.5918 32.668 49.9991H37.125C37.3903 49.9991 37.6446 50.1044 37.8321 50.292C38.0197 50.4795 38.125 50.7338 38.125 50.9991C38.125 51.2643 38.0197 51.5186 37.8321 51.7062C37.6446 51.8937 37.3903 51.9991 37.125 51.9991H31.125C30.8598 51.9991 30.6055 51.8937 30.4179 51.7062C30.2304 51.5186 30.125 51.2643 30.125 50.9991ZM46.125 67.9991C41.2473 67.9985 36.509 66.3714 32.66 63.3751L32.799 65.6101C32.8073 65.7412 32.7897 65.8727 32.7471 65.997C32.7045 66.1213 32.6379 66.236 32.5509 66.3345C32.464 66.4331 32.3585 66.5135 32.2405 66.5713C32.1224 66.629 31.9942 66.6629 31.863 66.6711H31.8C31.5452 66.6716 31.2998 66.5747 31.114 66.4004C30.9281 66.2261 30.8158 65.9874 30.8 65.7331L30.514 61.1431C30.4973 60.8784 30.5865 60.6179 30.7618 60.4189C30.9372 60.2199 31.1844 60.0988 31.449 60.0821L36.04 59.7961C36.1714 59.7879 36.303 59.8056 36.4275 59.8483C36.5519 59.8909 36.6668 59.9577 36.7655 60.0448C36.8641 60.1318 36.9447 60.2374 37.0025 60.3556C37.0603 60.4738 37.0943 60.6022 37.1025 60.7336C37.1108 60.8649 37.093 60.9965 37.0503 61.121C37.0077 61.2455 36.9409 61.3603 36.8538 61.459C36.7668 61.5576 36.6612 61.6382 36.543 61.696C36.4248 61.7539 36.2964 61.7879 36.165 61.7961L34.041 61.9281C37.7636 64.7576 42.3603 66.1927 47.0316 65.9838C51.7028 65.7748 56.153 63.9351 59.6081 60.7845C63.0632 57.6339 65.3046 53.3718 65.9424 48.7396C66.5802 44.1074 65.5741 39.3982 63.099 35.4311C62.9677 35.2068 62.9288 34.9402 62.9906 34.6878C63.0524 34.4354 63.21 34.2169 63.4301 34.0787C63.6502 33.9405 63.9155 33.8934 64.1697 33.9474C64.4239 34.0014 64.6471 34.1523 64.792 34.3681C66.8694 37.6979 68.0178 41.5231 68.1181 45.4466C68.2183 49.3701 67.2666 53.2489 65.3619 56.6805C63.4572 60.112 60.6688 62.9714 57.2862 64.9617C53.9035 66.952 50.0498 68.0007 46.125 67.9991Z" fill="black"/>
</svg>
