<svg width="117" height="81" viewBox="0 0 117 81" fill="none" xmlns="http://www.w3.org/2000/svg">
<mask id="mask0_6572_17416" style="mask-type:alpha" maskUnits="userSpaceOnUse" x="0" y="0" width="118" height="81">
<rect x="0.335938" y="0.666992" width="116.667" height="80" fill="#D9D9D9"/>
</mask>
<g mask="url(#mask0_6572_17416)">
<path d="M36.5034 38.833C35.1399 38.6474 35.0157 36.8498 33.2809 36.9741C32.4135 36.9741 31.6075 37.346 31.6075 38.0899C31.6075 39.2671 33.4051 39.3913 34.5202 39.7011C36.3792 40.2587 38.2389 40.6306 38.2389 42.676C38.2389 45.2788 36.1929 46.1469 33.5286 46.1469C31.2977 46.1469 29.0039 45.3431 29.0039 43.2971C29.0381 43.0412 29.1635 42.8062 29.3571 42.6354C29.5507 42.4647 29.7995 42.3695 30.0576 42.3676C30.3011 42.3429 30.5455 42.4036 30.7491 42.5393C30.9526 42.675 31.1027 42.8773 31.1735 43.1115C31.3897 43.5889 31.7528 43.9848 32.2099 44.2413C32.667 44.4977 33.1941 44.6014 33.7142 44.5371C34.6437 44.5371 35.5732 44.1652 35.5732 43.4213C35.5732 42.3055 34.396 42.0578 33.2181 41.7479C31.1106 41.1283 29.3138 40.8805 29.0653 38.5254C28.8176 34.4969 37.1845 34.3726 37.6799 37.9057C37.6457 38.1842 37.5029 38.4379 37.2825 38.6115C37.0622 38.7852 36.7822 38.8648 36.5034 38.833ZM46.4195 35.3621C49.3322 35.3621 51.0056 37.8414 51.0056 40.8162C51.0056 43.8532 49.3943 46.2704 46.4195 46.2704C45.7416 46.3084 45.0663 46.1611 44.4657 45.8444C43.8652 45.5277 43.3622 45.0536 43.0106 44.4728V48.5014C43.0106 49.6786 42.6387 50.299 41.7684 50.299C40.7146 50.299 40.5261 49.6172 40.5261 48.5014V36.8498C40.5261 35.9203 40.8981 35.3007 41.7684 35.3007C42.5722 35.3007 43.0106 35.9203 43.0106 36.8498V37.1597C43.3875 36.6031 43.8956 36.148 44.4902 35.8344C45.0847 35.5209 45.7473 35.3587 46.4195 35.3621ZM45.7377 44.2251C47.4732 44.2251 48.2171 42.6138 48.2171 40.8162C48.2171 39.0186 47.4111 37.4074 45.7377 37.4074C43.9401 37.4074 43.1348 38.8951 43.1348 40.8162C43.0727 42.6752 43.9401 44.2251 45.7377 44.2251ZM52.9888 38.2134C52.9888 36.1059 55.4061 35.3635 57.7612 35.3635C61.0495 35.3635 62.4094 36.293 62.4094 39.5163V42.5532C62.4094 43.2971 62.8435 44.7227 62.8435 45.1561C62.8339 45.3079 62.7939 45.4562 62.7256 45.5921C62.6574 45.728 62.5625 45.8488 62.4465 45.9472C62.3305 46.0456 62.1959 46.1195 62.0506 46.1647C61.9054 46.2098 61.7525 46.2251 61.6012 46.2098C60.8573 46.2098 60.359 45.3424 59.9279 44.722C58.8372 45.6947 57.4227 46.2252 55.9614 46.2098C54.0403 46.2098 52.5526 45.094 52.5526 43.235C52.5526 41.5616 53.7298 40.6321 55.1554 40.3223C55.1554 40.3223 59.7415 39.2686 59.7415 39.2064C59.7415 37.7808 59.2453 37.1604 57.7583 37.1604C56.4569 37.1604 55.7751 37.5323 55.2789 38.2762C54.8449 38.8959 54.907 39.2057 54.1631 39.2057C54.0194 39.2259 53.873 39.2156 53.7336 39.1753C53.5941 39.135 53.4648 39.0657 53.354 38.972C53.2432 38.8782 53.1534 38.7621 53.0906 38.6312C53.0278 38.5004 52.9934 38.3577 52.9895 38.2126L52.9888 38.2134ZM56.8931 44.5349C58.8763 44.5349 59.743 43.4812 59.743 41.3738V40.9397C58.662 41.2661 57.5643 41.5344 56.4547 41.7435C56.122 41.7925 55.8166 41.955 55.5902 42.2036C55.3637 42.4521 55.2303 42.7713 55.2124 43.1071C55.2638 43.5121 55.4648 43.8831 55.776 44.1474C56.0872 44.4116 56.4852 44.5499 56.8931 44.5349ZM71.6445 31.3335C74.4945 31.3335 77.532 33.0069 77.532 35.734C77.5385 35.8935 77.5135 36.0527 77.4575 36.2022C77.4015 36.3517 77.316 36.4884 77.2065 36.6043C77.0965 36.7202 76.9645 36.8128 76.8185 36.8767C76.672 36.9406 76.5145 36.9744 76.3545 36.9762C75.4255 36.9762 75.301 36.4801 74.867 35.799C74.185 34.5568 73.379 33.6916 71.6445 33.6916C68.9175 33.6916 67.74 35.9846 67.74 38.8973C67.74 41.81 68.7315 43.9175 71.583 43.9175C72.3475 43.9496 73.1005 43.722 73.7195 43.2719C74.3385 42.8217 74.787 42.1754 74.992 41.4381C75.055 41.1007 75.23 40.7945 75.4885 40.569C75.7475 40.3436 76.075 40.2121 76.4175 40.1959C76.7585 40.2249 77.0755 40.3815 77.306 40.6343C77.536 40.8871 77.6625 41.2174 77.66 41.5594C77.66 44.4093 74.747 46.3939 71.7725 46.3939C68.484 46.3939 66.628 45.0304 65.634 42.6752C65.081 41.4709 64.806 40.1574 64.8303 38.8323C64.7032 34.4326 67.306 31.3335 71.6445 31.3335ZM87.883 35.3621C88.037 35.353 88.1915 35.3777 88.335 35.4345C88.4785 35.4914 88.608 35.579 88.714 35.6911C88.8205 35.8033 88.9005 35.9374 88.9495 36.0839C88.9985 36.2304 89.0145 36.3858 88.997 36.5393C88.923 36.9388 88.8195 37.3322 88.6875 37.7165L85.2165 46.8894C84.4125 48.8726 83.853 50.2361 81.188 50.2361C79.9455 50.2361 78.8325 50.1119 78.8325 49.0589C78.8325 48.4392 79.329 48.1294 79.9485 48.1294C80.0725 48.1294 80.2585 48.1915 80.3825 48.1915C80.568 48.1915 80.6925 48.2536 80.8165 48.2536C82.118 48.2536 82.3045 46.8901 82.8 45.9606L79.454 37.6551C79.2915 37.346 79.1865 37.01 79.144 36.6635C79.143 36.4896 79.179 36.3175 79.2485 36.1583C79.3185 35.9991 79.421 35.8563 79.5495 35.7393C79.678 35.6222 79.83 35.5334 79.995 35.4786C80.16 35.4238 80.3345 35.4043 80.5075 35.4212C81.375 35.4212 81.6845 36.103 81.933 36.8469L84.164 43.4783L86.395 37.3401C86.705 36.2915 86.7675 35.3621 87.883 35.3621Z" fill="#0DA2D5"/>
</g>
</svg>
