<svg width="175" height="120" viewBox="0 0 175 120" fill="none" xmlns="http://www.w3.org/2000/svg">
<mask id="mask0_6857_55543" style="mask-type:alpha" maskUnits="userSpaceOnUse" x="0" y="0" width="175" height="120">
<rect width="175" height="120" fill="#D9D9D9"/>
</mask>
<g mask="url(#mask0_6857_55543)">
<path d="M100.534 36.2954H67.9599C65.774 36.2954 64 38.0852 64 40.2553V76.1795C64 78.3654 65.7899 80.1394 67.9599 80.1394H89.4226C89.185 69.4635 92.8281 48.7453 100.542 36.2637L100.534 36.2954Z" fill="#0F80CC"/>
<path d="M99.3384 37.457H67.9522C67.2071 37.4591 66.4932 37.756 65.9664 38.2828C65.4396 38.8096 65.1427 39.5235 65.1406 40.2686V73.5714C72.2526 70.8391 82.9206 68.4869 90.3019 68.5977C92.5774 58.0169 95.5919 47.6106 99.3384 37.457Z" fill="url(#paint0_linear_6857_55543)"/>
<path d="M108.132 35.1231C105.899 33.1432 103.198 33.9351 100.529 36.2953L99.3409 37.4515C94.7791 42.2826 90.6291 51.2479 89.2353 58.0985C89.7319 59.1835 90.1243 60.3132 90.4074 61.4723L90.5816 62.2643L90.7559 63.0721C90.7559 63.0721 90.7163 62.9137 90.5499 62.4386L90.4391 62.1218C90.4168 62.0631 90.393 62.005 90.3678 61.9475C89.9136 60.9978 89.4195 60.0677 88.8868 59.1598C88.5986 60.0019 88.3267 60.8495 88.071 61.702C89.1165 63.6186 89.75 66.8974 89.75 66.8974C89.75 66.8974 89.6946 66.6836 89.4332 65.947C89.1957 65.2897 88.0394 63.2543 87.7701 62.7791C87.2949 64.5215 87.1127 65.6936 87.2791 65.9787C87.5959 66.5331 87.9126 67.5627 88.1898 68.5447C88.6175 70.2863 88.9664 72.0463 89.2353 73.8193L89.2749 74.3104C89.1928 76.2909 89.2324 78.2746 89.3936 80.2502C89.5996 82.7291 89.9876 84.8595 90.4787 86L90.8113 85.8178C90.0985 83.5686 89.7976 80.6304 89.9243 77.2328C90.1223 72.0453 91.3102 65.7886 93.5199 59.2706C97.2659 49.3471 102.43 41.4431 107.166 37.6733C102.849 41.5698 97.0125 54.1782 95.2702 58.843C93.314 64.07 91.928 68.9803 91.0885 73.6768C92.5299 69.2734 97.1867 67.3726 97.1867 67.3726C97.1867 67.3726 99.4835 64.5531 102.145 60.522L97.0363 61.8842L95.3889 62.6128C95.3889 62.6128 99.5864 60.0547 103.206 58.8905C108.172 51.0736 113.581 39.9621 108.132 35.1152" fill="#003B57"/>
</g>
<defs>
<linearGradient id="paint0_linear_6857_55543" x1="84.8689" y1="38.1936" x2="84.8689" y2="71.5677" gradientUnits="userSpaceOnUse">
<stop stop-color="#97D9F6"/>
<stop offset="0.92024" stop-color="#0F80CC"/>
<stop offset="1" stop-color="#0F80CC"/>
</linearGradient>
</defs>
</svg>
