<svg width="80" height="80" viewBox="0 0 80 80" fill="none" xmlns="http://www.w3.org/2000/svg">
<mask id="mask0_2176_61919" style="mask-type:alpha" maskUnits="userSpaceOnUse" x="-1" y="-1" width="82" height="82">
<rect width="80" height="80" fill="white" stroke="white" stroke-width="2"/>
</mask>
<g mask="url(#mask0_2176_61919)">
<path d="M43.5 72H25.7726C21.1365 72 17.4489 69.7441 14.138 66.5897C7.36009 60.1323 18.4884 54.972 22.7327 52.4448C29.481 48.4265 37.4595 47.1328 45 48.5635" stroke="black" stroke-width="3" stroke-linecap="round" stroke-linejoin="round"/>
<path d="M52.5 25.5C52.5 32.9558 46.4558 39 39 39C31.5442 39 25.5 32.9558 25.5 25.5C25.5 18.0442 31.5442 12 39 12C46.4558 12 52.5 18.0442 52.5 25.5Z" fill="white" stroke="black" stroke-width="3"/>
<path d="M62.0732 49.733L64.1849 53.9915C64.4729 54.5842 65.2408 55.1528 65.8887 55.2617L69.7163 55.9029C72.164 56.3142 72.74 58.1047 70.9762 59.871L68.0005 62.8713C67.4966 63.3794 67.2206 64.3593 67.3766 65.061L68.2285 68.775C68.9004 71.7148 67.3526 72.852 64.7729 71.3155L61.1853 69.1742C60.5373 68.7871 59.4695 68.7871 58.8095 69.1742L55.2219 71.3155C52.6542 72.852 51.0944 71.7027 51.7663 68.775L52.6182 65.061C52.7742 64.3593 52.4982 63.3794 51.9943 62.8713L49.0186 59.871C47.2668 58.1047 47.8307 56.3142 50.2785 55.9029L54.106 55.2617C54.742 55.1528 55.5099 54.5842 55.7979 53.9915L57.9096 49.733C59.0615 47.4223 60.9333 47.4223 62.0732 49.733Z" fill="white" stroke="black" stroke-width="3" stroke-linecap="round" stroke-linejoin="round"/>
</g>
</svg>
