<svg width="74" height="74" viewBox="0 0 74 74" fill="none" xmlns="http://www.w3.org/2000/svg">
<path d="M36.87 12.0002C50.66 11.9502 61.87 23.1302 61.91 36.9602C61.95 50.7402 50.86 61.9302 37.11 62.0002C23.27 62.0702 12.08 50.9802 12 37.1302C11.92 23.3202 23.07 12.0502 36.87 12.0002ZM35.41 56.6202H35.36C34.81 56.5602 34.52 55.9302 34.85 55.4802C35.37 54.7602 35.86 54.0902 36.37 53.3802C36.66 52.9802 37.25 52.9802 37.53 53.3802C38.05 54.1002 38.55 54.7802 39.06 55.4902C39.38 55.9302 39.11 56.5502 38.57 56.6202H38.5C38.14 56.6802 37.88 56.9802 37.88 57.3402V59.5502C37.88 59.9602 38.23 60.2902 38.64 60.2702C50.56 59.6202 59.92 49.2302 60.17 38.5802C60.17 38.1702 59.86 37.8402 59.45 37.8402H57.25C56.88 37.8402 56.58 38.1202 56.54 38.4802V38.5802C56.47 39.1202 55.84 39.4002 55.4 39.0802C54.7 38.5802 54.03 38.1002 53.32 37.5902C52.92 37.3002 52.92 36.7102 53.32 36.4202L55.41 34.9102C55.85 34.5902 56.49 34.8802 56.53 35.4402V35.4602C56.56 35.8302 56.87 36.1202 57.25 36.1202H59.51C59.93 36.1202 60.25 35.7702 60.23 35.3502C59.48 22.5602 48.29 13.9202 38.59 13.8002C38.19 13.8002 37.86 14.1202 37.86 14.5202V16.6602C37.86 17.0202 38.13 17.3302 38.49 17.3702H38.56C39.1 17.4402 39.38 18.0702 39.05 18.5102C38.53 19.2302 38.03 19.9202 37.52 20.6302C37.23 21.0302 36.64 21.0302 36.35 20.6302C35.82 19.8902 35.33 19.2002 34.83 18.5002C34.51 18.0602 34.79 17.4402 35.33 17.3702H35.4C35.76 17.3202 36.03 17.0102 36.03 16.6502V14.4902C36.03 14.0802 35.69 13.7602 35.28 13.7702C24.36 14.1602 14.14 23.8302 13.71 35.3702C13.69 35.7802 14.02 36.1202 14.43 36.1202H16.66C17.03 36.1202 17.34 35.8402 17.38 35.4702V35.4502C17.43 34.9002 18.07 34.6102 18.52 34.9402C19.23 35.4502 19.9 35.9302 20.6 36.4302C21 36.7202 21 37.3102 20.6 37.6002L18.5 39.1002C18.06 39.4202 17.43 39.1402 17.37 38.5902V38.5102C17.32 38.1402 17.01 37.8602 16.65 37.8602H14.36C13.94 37.8602 13.61 38.2302 13.64 38.6502C14.2 45.1902 16.9 50.5902 21.89 54.8402C25.76 58.1402 30.22 59.9502 35.3 60.3102C35.72 60.3402 36.08 60.0102 36.08 59.5902V57.3302C36.08 56.9602 35.8 56.6502 35.43 56.6102L35.41 56.6202Z" fill="black"/>
<path d="M47.37 46.2602C47.37 47.1102 47.44 47.9702 47.34 48.8002C47.32 48.9202 47.26 49.0402 47.18 49.1502C46.91 49.5302 46.33 49.5402 46.04 49.1702C45.95 49.0502 45.89 48.9402 45.88 48.8202C45.79 47.4702 45.83 46.1002 45.84 44.7402C45.87 42.4402 44.82 40.7402 42.86 39.6202C41.73 38.9702 40.67 38.6502 39.34 39.5502C37.7 40.6702 35.84 40.5102 34.19 39.3702C33.51 38.9002 32.91 38.8802 32.18 39.1202C29.65 39.9302 28.09 41.9802 28.06 44.6302C28.04 45.9902 28.11 47.3502 28.02 48.7102C28.02 48.8202 27.97 48.9302 27.9 49.0402C27.61 49.5002 26.93 49.4902 26.66 49.0202C26.6 48.9102 26.56 48.8002 26.55 48.6902C26.47 47.2102 26.48 45.7202 26.53 44.2302C26.67 40.5602 29.72 37.4802 33.41 37.2902C33.81 37.2702 34.29 37.5202 34.62 37.7802C36.14 38.9802 37.75 38.9602 39.28 37.7802C39.69 37.4702 40.35 37.2702 40.85 37.3402C44.85 37.9202 47.33 40.8302 47.37 44.8602C47.37 45.3302 47.37 45.7902 47.37 46.2602Z" fill="black"/>
<path d="M31.42 30.2401C31.42 25.8701 34.76 23.2601 38.77 24.4801C40.49 25.0001 41.67 26.1601 42.14 27.8401C42.96 30.7501 42.51 33.5001 40.47 35.8301C38.47 38.1101 35.48 38.1001 33.46 35.8401C32.03 34.2501 31.4 32.3601 31.42 30.2301V30.2401ZM40.93 30.0201C40.93 30.0201 40.93 29.9301 40.93 29.8901C40.88 29.5701 40.83 29.0101 40.69 28.4801C40.26 26.8901 38.96 25.8701 37.24 25.7401C35.65 25.6201 34.14 26.4701 33.47 27.8501C32.42 30.0101 33.16 33.5801 34.99 35.1401C36.25 36.2201 37.81 36.2001 39.03 35.0701C40.42 33.7801 40.89 32.1201 40.95 30.0201H40.93Z" fill="black"/>
<path d="M31.42 47.2202C31.42 47.8102 31.51 48.4302 31.38 48.9902C31.34 49.1502 31.22 49.2802 31.07 49.4102C30.8 49.6402 30.39 49.6302 30.13 49.3902C30.01 49.2802 29.92 49.1702 29.91 49.0502C29.83 47.8302 29.83 46.5902 29.91 45.3702C29.93 45.1102 30.44 44.6402 30.59 44.6902C30.91 44.7902 31.31 45.1402 31.38 45.4502C31.51 46.0202 31.42 46.6302 31.41 47.2202H31.42Z" fill="black"/>
<path d="M44.04 47.2701C44.04 47.8201 44.13 48.3901 44.01 48.9201C43.98 49.0601 43.89 49.1901 43.78 49.3101C43.52 49.6001 43.07 49.6301 42.78 49.3701C42.64 49.2501 42.54 49.1301 42.53 49.0001C42.44 47.8201 42.44 46.6201 42.53 45.4401C42.53 45.3101 42.64 45.1801 42.78 45.0601C43.07 44.8001 43.52 44.8201 43.78 45.1001C43.89 45.2201 43.98 45.3501 44.01 45.4901C44.13 46.0601 44.04 46.6701 44.04 47.2601V47.2701Z" fill="black"/>
</svg>
