<svg width="74" height="74" viewBox="0 0 74 74" fill="none" xmlns="http://www.w3.org/2000/svg">
<path d="M27.7 32.7398C26.6 33.1198 25.49 33.4398 24.44 33.8898C19.74 35.9298 16.29 39.2198 14.48 44.0998C13.89 45.6998 13.59 47.3598 13.58 49.0698C13.56 52.0798 13.58 55.0898 13.58 58.0998C13.58 59.5698 14.44 60.4298 15.92 60.4298C27.72 60.4298 39.52 60.4298 51.31 60.4298C51.83 60.4298 52.35 60.4298 52.87 60.4298C54.06 60.3998 54.96 59.5098 54.98 58.3098C54.99 57.5498 54.98 56.7898 54.98 55.9898C54.34 56.3998 53.78 56.8198 53.17 57.1298C50.69 58.4198 51.05 58.3798 48.76 57.1398C45.62 55.4398 43.58 52.7398 42.21 49.5198C40.7 45.9798 40.11 42.2598 40.15 38.4298C40.15 37.7998 40.43 37.5398 41.06 37.5498C43.27 37.5798 45.28 36.9098 47.18 35.8298C47.25 35.7898 47.3 35.7398 47.39 35.6698C45.37 34.2998 43.18 33.3698 40.78 32.7998C41.29 32.3998 41.74 32.0298 42.21 31.6998C42.32 31.6198 42.55 31.6698 42.71 31.7098C44.78 32.3398 46.7 33.2798 48.47 34.5098C48.58 34.5798 48.69 34.6498 48.86 34.7698C49.4 34.3098 49.95 33.8298 50.5 33.3598C50.92 32.9998 51.29 32.9798 51.66 33.3698C53.36 35.1998 55.53 36.2598 57.86 37.0098C58.97 37.3698 60.12 37.6098 61.25 37.8798C61.78 38.0098 62.02 38.2198 62.01 38.7298C61.9 43.0898 61.17 47.3098 58.97 51.1498C58.36 52.2198 57.54 53.1598 56.84 54.1798C56.69 54.3998 56.56 54.6898 56.55 54.9498C56.52 56.0398 56.55 57.1298 56.54 58.2198C56.53 60.3898 54.94 61.9898 52.78 61.9898C40.44 61.9898 28.11 61.9898 15.77 61.9898C13.6 61.9898 12.02 60.3898 12.01 58.2198C12.01 55.3998 12.01 52.5898 12.01 49.7698C12.01 43.2598 14.86 38.2498 20.08 34.5098C21.85 33.2398 23.8 32.3098 25.89 31.7098C26.07 31.6598 26.33 31.7198 26.49 31.8298C26.92 32.1098 27.31 32.4498 27.71 32.7498L27.7 32.7398ZM41.67 39.1198C41.71 39.7698 41.73 40.3898 41.78 40.9998C42.02 43.9698 42.64 46.8498 43.93 49.5598C45.35 52.5498 47.44 54.8898 50.49 56.2998C50.8 56.4398 51.06 56.4398 51.37 56.2998C53.36 55.3998 54.99 54.0598 56.31 52.3498C58.3 49.7798 59.39 46.8298 59.94 43.6698C60.18 42.2498 60.31 40.8098 60.49 39.3598C56.96 38.5598 53.71 37.3998 51.04 34.9998C48.31 37.2898 45.32 38.8998 41.67 39.1298V39.1198Z" fill="black"/>
<path d="M23.72 22.55C23.72 16.72 28.45 12 34.28 12C40.08 12 44.81 16.72 44.81 22.52C44.81 28.37 40.08 33.1 34.23 33.09C28.44 33.08 23.72 28.35 23.72 22.54V22.55ZM43.25 22.55C43.25 17.6 39.22 13.56 34.29 13.56C29.32 13.56 25.28 17.59 25.29 22.56C25.29 27.5 29.34 31.53 34.28 31.53C39.22 31.53 43.26 27.49 43.26 22.55H43.25Z" fill="black"/>
<path d="M25.48 57.31C23.66 57.31 21.83 57.31 20.01 57.31C19.81 57.31 19.62 57.31 19.42 57.3C18.16 57.21 17.5 56.62 17.49 55.37C17.47 52.57 17.4 49.77 17.59 46.98C17.78 44.1 19.14 41.68 21.18 39.65C21.56 39.27 22.01 39.25 22.34 39.59C22.67 39.92 22.64 40.39 22.24 40.8C20.75 42.31 19.72 44.07 19.29 46.15C19.14 46.86 19.05 47.6 19.04 48.32C19.01 50.53 19.03 52.75 19.03 54.96C19.03 55.75 19.03 55.76 19.86 55.76C23.62 55.76 27.38 55.76 31.14 55.76C31.29 55.76 31.43 55.76 31.58 55.76C32.01 55.81 32.31 56.13 32.31 56.53C32.31 56.94 32.01 57.27 31.58 57.3C31.16 57.33 30.73 57.3 30.31 57.31C28.7 57.31 27.09 57.31 25.48 57.31Z" fill="black"/>
<path d="M24.12 37.3901C24.54 37.3901 24.89 37.7601 24.89 38.1801C24.89 38.6001 24.52 38.9501 24.1 38.9501C23.68 38.9501 23.33 38.5801 23.34 38.1601C23.34 37.7301 23.7 37.3901 24.13 37.4001L24.12 37.3901Z" fill="black"/>
<path d="M49.69 47.26C51.47 45.66 53.21 44.09 54.95 42.53C55.03 42.45 55.11 42.37 55.2 42.3C55.6 41.99 56.04 42.01 56.33 42.35C56.61 42.68 56.59 43.1 56.25 43.44C55.95 43.74 55.63 44.01 55.31 44.29C53.69 45.75 52.07 47.21 50.45 48.67C49.79 49.26 49.53 49.26 48.88 48.65C47.92 47.75 46.95 46.85 45.99 45.95C45.53 45.51 45.47 45.09 45.8 44.72C46.13 44.36 46.59 44.38 47.04 44.8C47.91 45.6 48.78 46.42 49.68 47.26H49.69Z" fill="black"/>
</svg>
