<svg width="74" height="74" viewBox="0 0 74 74" fill="none" xmlns="http://www.w3.org/2000/svg">
<path d="M29.28 50.9702C29.28 49.6002 29.24 48.2402 29.28 46.8702C29.36 44.7102 28.6 42.8902 27.15 41.3502C26.2 40.3402 25.23 39.3502 24.21 38.4202C18.95 33.6002 18.75 25.9902 21.94 20.6402C25 15.5502 29.51 12.6702 35.43 12.0802C43.76 11.2502 51.5 16.7702 53.49 24.3702C54.86 29.6202 53.79 34.3202 49.82 38.2002C48.84 39.1502 47.85 40.0902 46.88 41.0502C45.21 42.7102 44.37 44.6802 44.42 47.0702C44.49 49.8602 44.45 52.6502 44.42 55.4402C44.42 56.0202 44.38 56.6202 44.23 57.1802C43.84 58.6502 42.63 59.6102 41.12 59.7802C40.93 59.8002 40.65 59.9202 40.58 60.0702C40 61.3102 38.97 61.8902 37.69 61.9802C36.87 62.0402 36.02 61.9402 35.22 61.7602C34.38 61.5702 33.78 60.9702 33.36 60.2002C33.26 60.0102 32.99 59.8202 32.78 59.8002C30.67 59.5802 29.32 58.1302 29.28 55.9702C29.25 54.3002 29.28 52.6302 29.28 50.9602V50.9702ZM42.77 48.9702C42.77 48.2602 42.79 47.5802 42.77 46.9002C42.68 44.2902 43.59 42.0702 45.38 40.2102C46.47 39.0802 47.62 38.0002 48.75 36.9002C52.26 33.4502 53.11 29.2702 51.84 24.6602C49.83 17.4502 42.15 12.3902 34.02 13.9502C26.89 15.3102 21.78 21.4202 21.56 27.6702C21.45 30.8602 22.21 33.7602 24.41 36.1602C25.2 37.0302 26.07 37.8202 26.89 38.6702C27.66 39.4802 28.46 40.2702 29.15 41.1402C30.37 42.6902 30.98 44.4802 30.95 46.4702C30.95 47.3002 30.95 48.1202 30.95 48.9702H42.76H42.77ZM36.9 50.6802C35.1 50.6802 33.3 50.6802 31.5 50.6802C31.19 50.6802 30.95 50.7002 30.95 51.1202C30.97 52.7702 30.92 54.4202 30.97 56.0602C31.01 57.3602 31.83 58.1002 33.12 58.1202C33.29 58.1202 33.47 58.1502 33.63 58.1202C34.25 58.0102 34.57 58.2802 34.69 58.8802C34.81 59.4602 35.08 59.9302 35.68 60.1702C37.33 60.8202 38.72 60.2302 39.3 58.5802C39.42 58.2402 39.58 58.0702 39.95 58.1202C40.14 58.1402 40.33 58.1202 40.52 58.1202C41.92 58.1202 42.69 57.4302 42.74 56.0302C42.8 54.4402 42.74 52.8502 42.77 51.2602C42.77 50.8202 42.63 50.6702 42.18 50.6802C40.42 50.7002 38.66 50.6802 36.89 50.6802H36.9Z" fill="black"/>
<path d="M20.02 37.0999C19.92 37.2099 19.77 37.5199 19.52 37.6599C18.37 38.2999 17.19 38.9099 16.01 39.5099C15.52 39.7599 15.05 39.6099 14.84 39.1899C14.62 38.7599 14.76 38.3099 15.24 38.0499C16.4 37.4199 17.57 36.7999 18.75 36.2099C19.39 35.8899 20.01 36.2699 20.01 37.1099L20.02 37.0999Z" fill="black"/>
<path d="M59.26 38.6298C59.24 39.3998 58.63 39.8198 58.07 39.5498C56.83 38.9398 55.62 38.2898 54.4 37.6398C53.96 37.3998 53.85 36.9198 54.07 36.5198C54.29 36.1198 54.73 35.9698 55.2 36.1798C55.71 36.4198 56.21 36.6998 56.71 36.9598C57.38 37.3098 58.06 37.6398 58.71 38.0298C58.97 38.1898 59.14 38.4998 59.26 38.6398V38.6298Z" fill="black"/>
<path d="M15.43 15.6802C15.72 15.7802 15.87 15.8102 16 15.8802C17.17 16.4902 18.36 17.0802 19.5 17.7402C19.75 17.8902 19.98 18.3202 19.96 18.6002C19.94 18.8502 19.59 19.1002 19.34 19.2902C19.24 19.3602 19 19.3202 18.86 19.2502C17.61 18.6102 16.36 17.9902 15.16 17.2902C14.93 17.1602 14.77 16.6702 14.82 16.3902C14.87 16.1202 15.23 15.9002 15.43 15.6902V15.6802Z" fill="black"/>
<path d="M58.5 15.6599C58.73 15.8799 59.1 16.0599 59.15 16.3099C59.21 16.5899 59.1 17.1099 58.89 17.2299C57.63 17.9599 56.34 18.6199 55.03 19.2599C54.64 19.4499 54.29 19.2399 54.08 18.8699C53.88 18.5099 53.91 18.0899 54.24 17.8999C55.55 17.1599 56.9 16.4699 58.24 15.7699C58.29 15.7499 58.35 15.7599 58.41 15.7499C58.44 15.7199 58.47 15.6799 58.5 15.6499V15.6599Z" fill="black"/>
<path d="M14.91 26.8702C15.55 26.8702 16.2 26.8602 16.84 26.8702C17.42 26.8902 17.73 27.1902 17.74 27.6802C17.74 28.1702 17.43 28.5102 16.86 28.5202C15.53 28.5402 14.2 28.5402 12.88 28.5202C12.34 28.5202 11.99 28.1302 12 27.6702C12.01 27.2102 12.37 26.8802 12.92 26.8702C13.58 26.8502 14.25 26.8702 14.91 26.8702Z" fill="black"/>
<path d="M59.09 26.8702C59.75 26.8702 60.42 26.8602 61.08 26.8702C61.63 26.8802 61.99 27.2102 62 27.6802C62 28.1402 61.65 28.5202 61.11 28.5302C59.78 28.5502 58.45 28.5502 57.13 28.5302C56.56 28.5202 56.25 28.1702 56.26 27.6802C56.26 27.1902 56.58 26.8902 57.16 26.8702C57.8 26.8502 58.45 26.8702 59.09 26.8702Z" fill="black"/>
<path d="M41.92 37.87C41.68 37.78 41.46 37.72 41.26 37.62C39.54 36.8 38.48 37.05 37.38 38.59C37.04 39.07 36.62 39.24 36.06 39.15C35.56 39.07 35.03 39.06 34.55 38.9C34.23 38.79 33.95 38.5 33.72 38.23C33.57 38.06 33.55 37.77 33.45 37.55C32.87 36.23 31.9 35.68 30.48 35.94C29.69 36.09 29.1 35.92 28.71 35.2C28.69 35.17 28.67 35.14 28.64 35.11C27.85 34.29 27.6 33.47 28.18 32.33C28.8 31.1 28.4 30.08 27.15 29.2C26.49 28.73 26.26 28.21 26.5 27.46C26.52 27.39 26.53 27.31 26.53 27.23C26.54 26.17 26.92 25.48 28.05 25.1C29.43 24.64 29.92 23.6 29.65 22.16C29.5 21.39 29.65 20.82 30.37 20.44C30.4 20.42 30.44 20.4 30.46 20.37C31.3 19.55 32.13 19.31 33.3 19.9C34.49 20.5 35.54 20.09 36.39 18.88C36.88 18.18 37.44 18.02 38.19 18.2C38.26 18.22 38.34 18.25 38.41 18.25C39.51 18.23 40.14 18.7 40.51 19.8C40.95 21.1 41.87 21.58 43.25 21.36C44.21 21.21 44.87 21.43 45.32 22.29C45.43 22.49 45.57 22.67 45.72 22.84C46.19 23.36 46.18 23.88 45.87 24.5C45.1 26.03 45.38 27.15 46.78 28.16C47.35 28.57 47.59 29.03 47.42 29.7C47.42 29.72 47.42 29.74 47.42 29.76C47.35 30.95 47.06 31.87 45.68 32.3C44.37 32.71 44 33.76 44.27 35.4C44.37 36.01 44.2 36.42 43.71 36.76C43.3 37.04 42.92 37.35 42.51 37.63C42.33 37.75 42.11 37.81 41.9 37.9L41.92 37.87ZM44.3 23.86C44.3 23.47 43.78 23.01 43.39 23.03C41.16 23.17 39.87 22.4 38.92 20.37C38.64 19.76 37.98 19.66 37.54 20.16C36.1 21.78 34.56 22.17 32.53 21.42C31.9 21.19 31.36 21.57 31.39 22.23C31.49 24.46 30.71 25.75 28.69 26.69C28.12 26.96 28.01 27.62 28.48 28.05C30.16 29.56 30.51 31 29.72 33.16C29.52 33.7 29.95 34.27 30.52 34.23C32.7 34.07 34.07 34.89 35.01 36.88C35.31 37.52 35.95 37.61 36.43 37.08C37.87 35.48 39.4 35.11 41.4 35.85C42.08 36.1 42.62 35.7 42.57 34.96C42.44 32.9 43.26 31.51 45.12 30.64C45.89 30.28 45.98 29.7 45.37 29.14C43.82 27.72 43.45 26.21 44.19 24.21C44.24 24.09 44.28 23.96 44.32 23.86H44.3Z" fill="black"/>
<path d="M37.05 32.7398C34.92 32.8598 33.01 31.0998 32.88 28.8698C32.74 26.5698 34.48 24.6498 36.82 24.5298C39 24.4198 40.93 26.1798 41.07 28.4098C41.21 30.7098 39.46 32.5998 37.06 32.7398H37.05ZM34.55 28.6098C34.55 29.9698 35.59 31.0498 36.93 31.0598C38.26 31.0698 39.37 29.9898 39.39 28.6598C39.41 27.3498 38.31 26.2298 36.99 26.1998C35.67 26.1798 34.56 27.2698 34.55 28.6098Z" fill="black"/>
</svg>
