<svg width="74" height="74" viewBox="0 0 74 74" fill="none" xmlns="http://www.w3.org/2000/svg">
<g clip-path="url(#clip0_1000_21680)">
<path d="M37.3049 56.2057C35.1219 58.8659 32.4087 58.6538 30.6941 55.7108C29.6159 56.2853 28.467 56.5327 27.2739 56.1085C26.0542 55.6755 25.3295 54.7475 24.9318 53.5543C21.5469 54.5619 19.4434 52.4319 19.7086 49.4889C18.2503 49.4094 16.9777 48.9498 16.2088 47.5711C15.4575 46.2189 15.7227 44.9197 16.5093 43.5587C14.5737 42.3744 12.6736 41.2166 10.7292 40.0323C10.3757 40.704 10.0841 41.3227 9.7394 41.9148C9.16494 42.9046 8.28998 43.2228 7.29129 42.6837C5.14368 41.5171 3.01374 40.3151 0.90147 39.0867C-0.053027 38.5299 -0.238623 37.6549 0.291652 36.5767C2.51881 32.0693 4.76365 27.5708 6.99964 23.0723C8.1309 20.7921 9.27099 18.512 10.4022 16.2229C11.127 14.7558 11.9931 14.473 13.3983 15.2508C15.3603 16.329 17.3135 17.4161 19.2755 18.5031C20.6277 19.2543 20.8664 19.9967 20.1858 21.3843C19.9737 21.8085 19.7881 22.2416 19.5583 22.7276C21.0166 23.3375 22.3776 23.2049 23.668 22.4802C25.3825 21.5257 27.0706 20.527 28.7586 19.5106C30.8974 18.2203 33.1334 17.9905 35.5108 18.7506C35.9085 18.8743 36.4034 18.9097 36.7835 18.7859C39.8591 17.7872 42.8198 18.0524 45.7009 19.4841C47.6453 20.4475 49.5808 21.4196 51.5693 22.2858C52.3824 22.6393 53.3192 22.7188 54.203 22.9221C54.2649 22.8249 54.3268 22.7276 54.3886 22.6304C54.1677 22.1532 53.9556 21.6671 53.7258 21.1898C53.222 20.1293 53.4076 19.2809 54.3975 18.7152C56.5804 17.4602 58.7811 16.2494 60.9906 15.0563C62.0158 14.5084 62.9437 14.9061 63.5182 16.0638C65.2681 19.5725 67.0092 23.0988 68.7503 26.6075C70.3588 29.8422 71.9584 33.0857 73.5758 36.3204C74.3182 37.814 74.1149 38.5122 72.639 39.3606C70.7565 40.4389 68.8652 41.5083 66.9738 42.56C65.7189 43.2582 64.8527 43.0019 64.1545 41.7204C63.7568 41.0045 63.3945 40.2621 62.9703 39.4313C61.7595 40.0412 60.6105 40.6333 59.4704 41.2166C60.9552 44.6722 58.7988 46.9878 55.8734 46.9436C55.1399 50.1341 54.5389 50.6555 51.2865 50.9295C50.6855 53.6958 50.0139 54.2967 46.9559 54.721C46.9206 55.9759 46.6113 57.1514 45.5949 58.0263C44.3664 59.0957 42.6607 59.3167 41.1582 58.4948C39.8679 57.7877 38.6218 56.9923 37.3049 56.2057ZM18.7983 24.0975C16.306 29.0114 13.8579 33.8369 11.3833 38.7066C13.4248 39.9439 15.3603 41.1105 17.2782 42.2772C20.2477 38.4592 22.0772 38.2647 24.596 41.3845C26.7789 39.7495 29.8457 40.2886 30.6676 43.7442C33.8493 43.4879 34.954 44.4159 35.5638 47.8716C35.6787 47.8892 35.8113 47.9157 35.9439 47.9246C39.0902 48.1367 40.5042 50.9383 38.8162 53.6251C38.5687 54.0228 38.3301 54.4381 38.0473 54.9066C39.3553 55.6931 40.5661 56.4709 41.8211 57.1867C42.9612 57.8319 44.3222 57.4872 45.0204 56.4444C45.7363 55.375 45.4888 53.9609 44.446 53.1301C43.8538 52.6617 43.1998 52.2552 42.6519 51.7337C42.2188 51.3184 41.1848 51.0002 41.8918 50.1517C42.5281 49.3917 43.0584 50.2136 43.5445 50.5495C44.446 51.1858 45.2856 51.9017 46.1694 52.5557C47.3183 53.4041 48.5291 53.2981 49.2715 52.317C49.9873 51.3802 49.7929 50.1959 48.7412 49.3121C47.5834 48.34 46.3903 47.3943 45.2237 46.431C44.7906 46.0686 44.1013 45.7063 44.6316 45.0346C45.1618 44.3629 45.6656 44.9197 46.1252 45.2732C47.6453 46.4575 49.1566 47.6595 50.6944 48.8172C51.8256 49.6745 53.0188 49.5596 53.8142 48.5786C54.5654 47.6506 54.3886 46.3514 53.3458 45.4765C52.2057 44.5308 51.0302 43.6294 49.8724 42.7102C49.0947 42.0916 48.2728 41.5083 47.5569 40.8189C47.3448 40.6156 47.4067 40.1119 47.3448 39.7495C47.7072 39.7407 48.096 39.6611 48.4407 39.7407C48.6793 39.7937 48.8826 40.0588 49.0947 40.2268C51.0391 41.7646 52.9834 43.3112 54.9366 44.8313C56.0413 45.6886 57.2786 45.5737 58.0564 44.5838C58.7811 43.6559 58.622 42.3567 57.588 41.5701C52.0289 37.3279 46.4698 33.0945 40.8754 28.8965C38.9311 27.4383 36.8453 27.6504 35.0601 29.3207C33.8581 30.452 32.665 31.6009 31.4542 32.7233C29.8545 34.1993 27.5655 34.5086 25.8068 33.5188C24.4369 32.7499 24.0127 31.4065 24.7197 29.9924C25.4886 28.4546 26.3194 26.9433 27.0529 25.3879C27.6274 24.1859 28.467 23.311 29.6336 22.6746C31.1272 21.8615 32.5678 20.9601 34.0349 20.1028C32.7092 19.6962 31.463 19.7228 30.3053 20.3414C29.0326 21.0219 27.7953 21.7732 26.5403 22.489C25.5858 23.037 24.6578 23.6468 23.6503 24.0887C22.0772 24.7957 20.4333 24.6543 18.7806 24.0887L18.7983 24.0975ZM62.3074 38.088C59.9035 33.3597 57.5526 28.7286 55.1664 24.018C53.1778 24.5925 51.4368 23.9473 49.7134 23.0635C47.8751 22.1178 46.0191 21.2164 44.119 20.4033C41.6267 19.325 39.046 19.272 36.6067 20.474C34.2381 21.6494 31.9756 23.0458 29.6954 24.398C29.2801 24.6455 28.9265 25.1051 28.6879 25.5381C27.7865 27.1996 26.9292 28.8877 26.0896 30.5846C25.6654 31.433 25.9393 32.0605 26.8408 32.3698C28.1488 32.8206 29.3684 32.6438 30.4025 31.6893C31.6486 30.5492 32.8594 29.3738 34.0879 28.216C36.4034 26.0507 39.373 25.874 41.883 27.7829C47.0708 31.7158 52.2587 35.6399 57.4289 39.5993C57.9945 40.0323 58.4452 40.1384 59.0816 39.7583C60.0891 39.175 61.1496 38.6801 62.3074 38.0791V38.088ZM54.9543 20.0674C54.9543 20.253 54.9454 20.2972 54.9543 20.3237C58.4187 27.1643 61.892 34.0048 65.3388 40.8631C65.6482 41.4729 65.9663 41.4464 66.4789 41.1547C68.2377 40.1472 70.0053 39.1397 71.7905 38.1764C72.4534 37.8228 72.5594 37.4958 72.2059 36.8065C69.5457 31.5214 66.9296 26.2186 64.2871 20.9159C63.5094 19.3604 62.7228 17.8049 61.9097 16.1964C59.497 17.5398 57.2256 18.8036 54.9454 20.0674H54.9543ZM19.1606 20.1293C16.7921 18.8124 14.4677 17.5221 12.1522 16.2406C11.9931 16.4262 11.9135 16.4969 11.8693 16.5853C8.48442 23.3905 5.09949 30.2045 1.69688 37.0009C1.38756 37.6284 1.65269 37.8582 2.12994 38.1145C3.87985 39.0778 5.6386 40.0235 7.34432 41.0575C8.12206 41.5259 8.44023 41.3138 8.81142 40.5714C10.4288 37.3014 12.0991 34.0667 13.7518 30.8144C15.5371 27.288 17.3223 23.7617 19.1606 20.1381V20.1293ZM23.5796 52.3524C23.8271 52.2021 24.5164 52.0165 24.8081 51.5747C26.231 49.3917 27.592 47.1645 28.8824 44.902C29.4126 43.974 28.9973 42.8163 28.14 42.2772C27.2739 41.738 26.0454 41.8794 25.4709 42.7632C24.0568 44.9462 22.6605 47.1557 21.3966 49.4359C20.6542 50.7792 21.7148 52.3347 23.5796 52.3436V52.3524ZM28.6526 55.0391C29.2005 54.6768 29.9164 54.4293 30.2522 53.9255C31.4807 52.1049 32.612 50.2136 33.7167 48.3135C34.3 47.3148 33.9553 46.1482 32.992 45.5118C32.0817 44.902 30.8444 44.9904 30.2257 45.9272C28.9266 47.8716 27.6539 49.8424 26.5668 51.9017C25.8333 53.2892 26.9645 54.8447 28.6526 55.048V55.0391ZM34.4237 56.6034C34.6889 56.4444 35.3164 56.2588 35.6257 55.8345C36.4565 54.7033 37.1989 53.5013 37.8705 52.264C38.3655 51.3625 37.9854 50.2843 37.1547 49.7364C36.2885 49.1619 35.0954 49.268 34.4679 50.1341C33.646 51.2742 32.8683 52.4584 32.2231 53.7046C31.5426 55.0126 32.6562 56.6299 34.4237 56.6034ZM19.6821 47.9423C19.9472 47.7655 20.6012 47.518 20.9547 47.0408C21.7325 45.9979 22.413 44.8755 23.0405 43.7266C23.5884 42.719 23.2349 41.6143 22.2893 41.0398C21.3878 40.4831 20.2742 40.6245 19.6202 41.5348C18.8248 42.6483 18.0824 43.8238 17.4461 45.0346C16.7567 46.3338 17.8349 47.9423 19.6821 47.9423Z" fill="black"/>
</g>
<defs>
<clipPath id="clip0_1000_21680">
<rect width="74" height="74" fill="white"/>
</clipPath>
</defs>
</svg>
