<svg width="175" height="120" viewBox="0 0 175 120" fill="none" xmlns="http://www.w3.org/2000/svg">
<mask id="mask0_6857_55390" style="mask-type:alpha" maskUnits="userSpaceOnUse" x="0" y="0" width="175" height="120">
<rect width="175" height="120" fill="#D9D9D9"/>
</mask>
<g mask="url(#mask0_6857_55390)">
<path d="M97.0261 82.4048C90.307 86.3536 81.0683 86.7594 71.7734 82.7066C64.2475 79.4491 58.003 73.7467 54 67.2316C55.9215 68.8604 58.1631 70.1639 60.5649 71.3036C70.1638 75.8808 79.7607 75.5674 86.5144 71.3152C76.9071 63.8218 68.731 54.0358 62.6467 46.0546C61.3652 44.7513 60.4045 43.1222 59.4437 41.6562C66.8092 48.4979 78.4984 57.1311 82.6606 59.5757C73.8553 50.1267 66.0089 38.3986 66.3285 38.7237C80.2593 53.0591 93.2297 61.2043 93.2297 61.2043C93.6588 61.4506 93.99 61.6555 94.2563 61.8387C94.537 61.1122 94.7831 60.3578 94.9905 59.5757C97.2321 51.2678 94.6709 41.8187 89.066 34C102.035 41.982 109.722 56.9684 106.518 69.5123C106.435 69.8507 106.344 70.1847 106.246 70.5128C112.65 78.6583 111.002 87.4319 110.201 85.8031C106.727 78.8866 100.296 81.0016 97.0261 82.4048Z" fill="url(#paint0_linear_6857_55390)"/>
</g>
<defs>
<linearGradient id="paint0_linear_6857_55390" x1="82.521" y1="34" x2="82.521" y2="86.0027" gradientUnits="userSpaceOnUse">
<stop stop-color="#F88A36"/>
<stop offset="1" stop-color="#FD2020"/>
</linearGradient>
</defs>
</svg>
