<svg width="175" height="120" viewBox="0 0 175 120" fill="none" xmlns="http://www.w3.org/2000/svg">
<path d="M102.874 87H72.1265C65.705 87 60.5 81.795 60.5 75.3735V44.6265C60.5 38.205 65.705 33 72.1265 33H102.872C109.295 33 114.5 38.205 114.5 44.6265V75.372C114.5 81.795 109.295 87 102.874 87Z" fill="#0D47A1"/>
<path d="M114.5 44.6265C114.5 38.205 109.295 33 102.874 33H72.1265C65.705 33 60.5 38.205 60.5 44.6265V58.1685C65 63 73.253 68.8785 80.969 68.8275C91.241 68.76 106.481 64.749 114.5 56.1105V44.6265Z" fill="#1565C0"/>
<path d="M114.5 44.6265C114.5 38.205 109.295 33 102.874 33H72.1265C65.705 33 60.5 38.205 60.5 44.6265V57.7515C65 63 71.3285 65.0385 81.041 65.109C96.7145 65.223 108.992 57.8655 114.5 50.988V44.6265Z" fill="#1E88E5"/>
<path d="M114.5 44.6265C114.5 38.205 109.295 33 102.874 33H72.1265C65.705 33 60.5 38.205 60.5 44.6265V56.8965C67.112 60.9 74.1155 61.7895 79.511 61.9005C95.2415 61.9905 109.417 54.0465 114.5 44.8035V44.6265Z" fill="#29B6F6"/>
<path d="M102.874 33H72.1265C65.705 33 60.5 38.205 60.5 44.6265V53.5965C66.7505 57.6585 73.208 58.8195 79.8755 58.7655C90.6665 58.7655 107.952 53.0175 113.273 39.4485C111.366 35.6295 107.432 33 102.874 33Z" fill="#00E5FF"/>
<path d="M102.874 33H72.1265C65.705 33 60.5 38.205 60.5 44.6265V50.163C67.622 54.9585 76.3145 57.0675 87.167 54.4635C100.581 51.2445 108.184 44.073 110.912 36.24C108.824 34.2375 105.995 33 102.874 33Z" fill="#18FFFF"/>
<path d="M82.3025 33H72.1265C65.705 33 60.5 38.205 60.5 44.6265V58.9275L60.5945 59.061C66.9695 68.061 82.7195 73.8735 93.032 64.4055C99.032 56.9055 95.564 44.6235 91.0625 40.593C88.802 38.568 85.265 35.526 82.3025 33Z" fill="#448AFF"/>
<path d="M82.9595 33H72.1265C65.705 33 60.5 38.205 60.5 44.6265V59.2035C68.1185 65.133 80.0075 67.4685 88.3445 59.8125C94.3445 52.3125 90.8765 40.0305 86.375 36C85.4195 35.145 84.2315 34.1025 82.9595 33Z" fill="#40C4FF"/>
<path d="M72.1265 33C65.705 33 60.5 38.205 60.5 44.6265V56.5245C67.529 59.487 75.9725 59.4735 82.3445 53.625C87.1805 47.58 85.862 38.433 82.8125 33H72.1265Z" fill="#00E5FF"/>
<path d="M72.1265 33C65.705 33 60.5 38.205 60.5 44.6265V51.7155C65.714 52.2885 71.0825 51.027 75.4685 46.9995C78.647 43.026 79.1585 37.7175 78.275 33H72.1265Z" fill="#18FFFF"/>
<path d="M70.4127 46.3049C70.4127 46.3049 80.6623 61.7954 89.2798 67.0349C86.0188 68.0834 78.9387 72.3674 66.5938 64.7969C69.7377 69.1064 75.3042 77.7494 88.9302 76.9349C93.7047 76.7024 96.6163 75.1874 99.2953 74.1404C101.974 73.0934 104.536 73.2089 106.749 77.1689C107.215 73.5584 107.331 70.1804 103.605 66.3374C103.605 66.3374 107.289 52.2929 91.6033 41.2109C94.8643 47.7329 96.7527 51.4109 95.2197 60.3974C91.7262 58.0679 78.8232 47.6774 75.9117 44.2994C78.0087 48.0269 84.0402 56.2034 86.1357 58.3004C82.4097 55.7384 70.4127 46.3049 70.4127 46.3049Z" fill="#212121"/>
</svg>
