<svg width="100" height="100" viewBox="0 0 100 100" fill="none" xmlns="http://www.w3.org/2000/svg">
<mask id="mask0_1280_6317" style="mask-type:alpha" maskUnits="userSpaceOnUse" x="0" y="0" width="100" height="100">
<rect width="100" height="100" rx="20" fill="white"/>
</mask>
<g mask="url(#mask0_1280_6317)">
<path d="M58.2875 32.9663C56.457 30.2206 52.4043 29.0167 50.5352 29.0009C43.8989 28.9483 34.4914 30.8305 33.9243 43.5031C33.8857 43.9765 33.7524 44.4411 33.5315 44.8636C31.5836 48.5982 29.804 52.157 29.0746 53.3353C28.8712 53.6631 29.1079 54.0857 29.4936 54.0857H32.6864C33.1511 54.0857 33.528 54.4609 33.5315 54.9238L33.5771 59.9137C33.5981 62.3473 35.5759 64.3093 38.0113 64.3093H40.92V71H57.0672C57.0672 71 57.0672 68.327 57.0672 64.3857C57.0672 63.9909 57.1777 63.5981 57.424 63.2894C58.4818 61.9641 59.4153 61.8287 61.3383 57.9827" stroke="black" stroke-width="2" stroke-miterlimit="10" stroke-linecap="round"/>
<path d="M71.1184 39.9353L70.595 39.0269C70.1992 38.34 70.0013 37.9965 69.6645 37.8596C69.3278 37.7226 68.9469 37.8307 68.1852 38.0468L66.8913 38.4113C66.405 38.5234 65.8948 38.4598 65.4507 38.2317L65.0935 38.0255C64.7128 37.7817 64.4199 37.4221 64.2578 36.9994L63.9036 35.9418C63.6708 35.2419 63.5544 34.892 63.2772 34.6919C63.0001 34.4917 62.6319 34.4917 61.8956 34.4917H60.7136C59.9773 34.4917 59.6091 34.4917 59.332 34.6919C59.0548 34.892 58.9384 35.2419 58.7056 35.9418L58.3514 36.9994C58.1893 37.4221 57.8964 37.7817 57.5157 38.0255L57.1585 38.2317C56.7144 38.4598 56.2042 38.5234 55.7179 38.4113L54.424 38.0468C53.6623 37.8307 53.2814 37.7226 52.9447 37.8596C52.6079 37.9965 52.41 38.34 52.0142 39.0269L51.4908 39.9353C51.1197 40.5792 50.9342 40.9011 50.9702 41.2439C51.0062 41.5866 51.2546 41.8628 51.7513 42.4152L52.8446 43.6375C53.1118 43.9758 53.3015 44.5654 53.3015 45.0954C53.3015 45.6257 53.1119 46.2151 52.8446 46.5535L51.7513 47.7758C51.2546 48.3282 51.0062 48.6044 50.9702 48.9471C50.9342 49.2899 51.1197 49.6118 51.4908 50.2557L52.0142 51.164L52.0142 51.164C52.41 51.851 52.6079 52.1945 52.9447 52.3314C53.2814 52.4684 53.6623 52.3603 54.424 52.1441L55.7179 51.7797C56.2043 51.6675 56.7146 51.7312 57.1586 51.9594L57.5158 52.1655C57.8965 52.4094 58.1893 52.7689 58.3514 53.1915L58.7056 54.2493C58.9384 54.9491 59.0548 55.2991 59.332 55.4992C59.6091 55.6994 59.9773 55.6994 60.7136 55.6994H61.8956C62.6319 55.6994 63.0001 55.6994 63.2772 55.4992C63.5544 55.2991 63.6708 54.9491 63.9036 54.2493L64.2578 53.1915C64.4199 52.7689 64.7127 52.4094 65.0934 52.1655L65.4506 51.9594C65.8946 51.7312 66.4049 51.6675 66.8913 51.7797L68.1852 52.1441C68.9469 52.3603 69.3278 52.4684 69.6645 52.3314C70.0013 52.1945 70.1992 51.851 70.595 51.164L71.1184 50.2557C71.4894 49.6118 71.675 49.2899 71.639 48.9471C71.603 48.6044 71.3546 48.3282 70.8579 47.7758L69.7646 46.5535C69.4973 46.2151 69.3077 45.6257 69.3077 45.0954C69.3077 44.5654 69.4974 43.9758 69.7646 43.6375L70.8579 42.4152C71.3546 41.8628 71.603 41.5866 71.639 41.2439C71.675 40.9011 71.4895 40.5792 71.1184 39.9353Z" stroke="black" stroke-width="2" stroke-linecap="round"/>
<path d="M64.9701 45.0873C64.9701 47.137 63.3085 48.7987 61.2588 48.7987C59.2091 48.7987 57.5474 47.137 57.5474 45.0873C57.5474 43.0376 59.2091 41.376 61.2588 41.376C63.3085 41.376 64.9701 43.0376 64.9701 45.0873Z" stroke="black" stroke-width="2"/>
</g>
</svg>
