<svg width="100" height="100" viewBox="0 0 100 100" fill="none" xmlns="http://www.w3.org/2000/svg">
<rect width="100" height="100" fill="white"/>
<path fill-rule="evenodd" clip-rule="evenodd" d="M48.2223 21.6442C50.667 22.1901 52.9985 23.156 55.113 24.4989L57.7244 21.8875C57.9337 21.6757 58.213 21.5473 58.5101 21.5264C58.8072 21.5054 59.1017 21.5933 59.3387 21.7736C61.3254 23.2694 63.0924 25.0365 64.5883 27.0231C64.7686 27.2601 64.8564 27.5547 64.8355 27.8517C64.8145 28.1488 64.6861 28.4281 64.4744 28.6375L61.863 31.2489C63.2058 33.3636 64.1721 35.6949 64.7191 38.1395H68.4119C68.7098 38.1378 68.9981 38.2447 69.223 38.44C69.4479 38.6354 69.5939 38.906 69.6339 39.2012C69.8075 40.4306 69.8945 41.6707 69.8941 42.9123C69.8941 43.3665 69.8814 43.8165 69.8589 44.2651C65.6934 42.7201 61.1372 42.5779 56.8834 43.8601C56.9059 43.5479 56.9172 43.232 56.9172 42.9123C56.9169 40.2493 56.127 37.6461 54.6473 35.432C53.1676 33.2179 51.0645 31.4923 48.6041 30.4734C46.1437 29.4545 43.4364 29.1881 40.8246 29.7078C38.2128 30.2275 35.8137 31.51 33.9308 33.3931C32.0478 35.2763 30.7655 37.6755 30.2461 40.2874C29.7267 42.8993 29.9934 45.6065 31.0126 48.0668C32.0317 50.5271 33.7576 52.6299 35.9718 54.1094C38.1861 55.5889 40.7893 56.3786 43.4523 56.3786H43.6689C42.1592 60.5567 42.0536 65.1132 43.368 69.3568C42.1521 69.3514 40.938 69.2626 39.7342 69.0911C39.4389 69.0511 39.1681 68.9051 38.9725 68.6802C38.7769 68.4554 38.6698 68.1671 38.6711 67.869V64.1762C36.2265 63.6294 33.8951 62.6631 31.7805 61.3201L29.1691 63.9329C28.9591 64.1443 28.6795 64.2723 28.3823 64.293C28.0851 64.3137 27.7905 64.2257 27.5533 64.0454C25.5671 62.5501 23.8005 60.7835 22.3052 58.7973C22.1248 58.56 22.0369 58.2653 22.0578 57.968C22.0788 57.6707 22.2072 57.3911 22.4191 57.1815L25.0389 54.5701C23.6953 52.4559 22.7289 50.1244 22.1828 47.6795H18.49C18.1932 47.6814 17.9057 47.5755 17.681 47.3816C17.4562 47.1876 17.3095 46.9187 17.268 46.6248C16.9211 44.1629 16.9211 41.6645 17.268 39.2026C17.3079 38.9074 17.454 38.6368 17.6789 38.4414C17.9038 38.2461 18.1921 38.1392 18.49 38.1409H22.1828C22.7285 35.6959 23.6949 33.3644 25.0389 31.2503L22.4275 28.6375C22.2157 28.4281 22.0874 28.1488 22.0664 27.8517C22.0454 27.5547 22.1333 27.2601 22.3136 27.0231C23.8094 25.0365 25.5765 23.2694 27.5631 21.7736C27.8002 21.5933 28.0947 21.5054 28.3918 21.5264C28.6888 21.5473 28.9681 21.6757 29.1775 21.8875L31.7889 24.4989C33.9032 23.1557 36.2347 22.1897 38.6795 21.6442V17.95C38.6776 17.6531 38.7835 17.3657 38.9774 17.1409C39.1714 16.9162 39.4403 16.7695 39.7342 16.7279C42.1961 16.3811 44.6945 16.3811 47.1564 16.7279C47.4516 16.7679 47.7222 16.914 47.9176 17.1389C48.113 17.3637 48.2198 17.6521 48.2181 17.95V21.6442H48.2223ZM77.1714 72.3957L74.1001 73.0482L66.062 65.0101C65.9575 64.9057 65.8334 64.8229 65.6969 64.7664C65.5604 64.7099 65.414 64.6809 65.2663 64.6809C64.9679 64.6811 64.6818 64.7997 64.4709 65.0108C64.2599 65.2219 64.1415 65.5082 64.1417 65.8066C64.1418 66.105 64.2605 66.3911 64.4716 66.602L72.5083 74.6387L71.8558 77.7114C71.8406 77.7801 71.8432 77.8516 71.8634 77.919C71.8836 77.9864 71.9207 78.0476 71.9711 78.0967L77.2811 83.4067C77.3353 83.4606 77.403 83.4987 77.4772 83.5171C77.5514 83.5355 77.6291 83.5334 77.7022 83.511C77.7753 83.4886 77.8409 83.4468 77.892 83.39C77.9432 83.3333 77.978 83.2637 77.9926 83.1887L78.6958 79.5662C78.7108 79.4833 78.7507 79.407 78.8103 79.3474C78.8698 79.2879 78.9462 79.2479 79.0291 79.2329L82.6516 78.5298C82.7268 78.5153 82.7967 78.4805 82.8537 78.4293C82.9107 78.378 82.9527 78.3122 82.9751 78.2389C82.9975 78.1656 82.9995 78.0876 82.9809 78.0132C82.9623 77.9389 82.9238 77.871 82.8695 77.8168L77.5623 72.5097C77.5132 72.4594 77.452 72.4225 77.3845 72.4025C77.3171 72.3826 77.2456 72.3803 77.177 72.3957H77.1714ZM62.7686 81.3761C65.4007 81.3777 68.0011 80.8017 70.3862 79.6886H70.3792C70.0642 79.3736 69.833 78.9849 69.7065 78.5578C69.58 78.1307 69.5623 77.6788 69.655 77.2431L69.9545 75.8368C66.9213 77.5751 63.36 78.1529 59.9327 77.4626C56.5055 76.7723 53.4455 74.8609 51.3217 72.0839C49.1979 69.3069 48.1548 65.8531 48.3862 62.3647C48.6177 58.8764 50.108 55.5907 52.5801 53.1186C55.0521 50.6465 58.3378 49.1562 61.8262 48.9248C65.3146 48.6933 68.7683 49.7365 71.5453 51.8603C74.3224 53.9841 76.2337 57.0441 76.924 60.4713C77.6143 63.8985 77.0366 67.4598 75.2983 70.4931L76.7045 70.1936C77.14 70.1002 77.5919 70.1176 78.0189 70.2441C78.4459 70.3706 78.8343 70.6023 79.1486 70.9178V70.9248C80.7968 67.3798 81.2507 63.3958 80.4423 59.5709C79.6339 55.7459 77.6068 52.2863 74.6651 49.7113C71.7235 47.1363 68.0261 45.5849 64.1278 45.2898C60.2295 44.9947 56.3406 45.9719 53.0449 48.0748C49.7492 50.1776 47.2244 53.2926 45.8494 56.9523C44.4745 60.612 44.3235 64.6189 45.4193 68.3716C46.5151 72.1244 48.7984 75.4205 51.9266 77.7653C55.0548 80.1101 58.8591 81.3771 62.7686 81.3761ZM62.7686 69.7562C63.2739 69.7567 63.7775 69.6977 64.2691 69.5804L62.8797 68.1925C62.5621 67.88 62.3095 67.5078 62.1365 67.0972C61.9635 66.6866 61.8735 66.2459 61.8717 65.8004C61.8699 65.3548 61.9563 64.9134 62.1259 64.5014C62.2956 64.0895 62.5451 63.7152 62.8602 63.4001C63.1752 63.0851 63.5495 62.8356 63.9614 62.6659C64.3734 62.4963 64.8149 62.4098 65.2604 62.4116C65.7059 62.4135 66.1467 62.5035 66.5572 62.6765C66.9678 62.8495 67.34 63.1021 67.6525 63.4196L69.0419 64.8076C69.3536 63.5044 69.2517 62.1364 68.7502 60.8937C68.2488 59.6511 67.3727 58.5955 66.2437 57.8737C65.1147 57.1519 63.7889 56.7997 62.4506 56.866C61.1122 56.9323 59.8277 57.4139 58.7757 58.2438C57.7236 59.0737 56.9561 60.2108 56.58 61.4969C56.2039 62.783 56.2377 64.1544 56.6768 65.4204C57.1159 66.6865 57.9385 67.7843 59.0302 68.5613C60.1219 69.3383 61.4286 69.756 62.7686 69.7562ZM66.0522 71.365C64.1941 72.1211 62.1315 72.2112 60.2146 71.6198C58.2976 71.0285 56.6443 69.7922 55.5351 68.1206C54.4258 66.4491 53.9291 64.4453 54.129 62.4492C54.329 60.453 55.2133 58.5876 56.6321 57.1693C58.0508 55.7509 59.9165 54.8671 61.9127 54.6678C63.9089 54.4684 65.9125 54.9658 67.5837 56.0755C69.255 57.1852 70.4908 58.8389 71.0816 60.756C71.6724 62.6732 71.5817 64.7357 70.825 66.5936L73.4378 69.2064C74.8573 66.6367 75.3012 63.6408 74.6877 60.7699C74.0742 57.899 72.4446 55.3462 70.0988 53.5811C67.7529 51.8161 64.8486 50.9575 61.9201 51.1633C58.9916 51.3692 56.236 52.6256 54.1601 54.7015C52.0843 56.7774 50.8278 59.533 50.622 62.4615C50.4161 65.39 51.2747 68.2943 53.0398 70.6402C54.8048 72.986 57.3576 74.6156 60.2285 75.2291C63.0994 75.8426 66.0953 75.3987 68.665 73.9792L66.0522 71.365Z" fill="black"/>
</svg>
