<svg width="117" height="81" viewBox="0 0 117 81" fill="none" xmlns="http://www.w3.org/2000/svg">
<mask id="mask0_6571_17330" style="mask-type:alpha" maskUnits="userSpaceOnUse" x="0" y="0" width="118" height="81">
<rect x="0.335938" y="0.666992" width="116.667" height="80" fill="#D9D9D9"/>
</mask>
<g mask="url(#mask0_6571_17330)">
</g>
<g clip-path="url(#clip0_6571_17330)">
<path d="M61.4735 27.7188V33.4375L71.3779 39.1563V33.4375L61.4735 27.7188ZM41.6641 33.4375V39.1563L46.6163 42.0151V36.2969L41.6641 33.4375ZM56.5207 36.2969L51.5685 39.1563V56.3114L56.5207 59.1708V47.7339L61.4735 50.5933V44.8745L56.5207 42.0151V36.2969Z" fill="#E55B2D"/>
<path d="M61.4744 27.7188L46.6172 36.2969V42.0151L56.5216 36.2969V42.0151L61.4744 39.1563V27.7188ZM76.3316 30.5781L71.3788 33.4375V39.1563L76.3316 36.2969V30.5781ZM66.4266 42.0151L61.4744 44.8745V50.5933L66.4266 47.7339V42.0151ZM61.4744 50.5933L56.5216 47.7339V59.1708L61.4744 56.3114V50.5933Z" fill="#ED8E24"/>
<path d="M61.4735 22.0005L41.6641 33.4374L46.6163 36.2968L61.4735 27.7187L71.3779 33.4374L76.3307 30.5781L61.4735 22.0005ZM61.4735 39.1562L56.5207 42.015L61.4735 44.8744L66.4257 42.015L61.4735 39.1562Z" fill="#F8BF3C"/>
</g>
<defs>
<clipPath id="clip0_6571_17330">
<rect width="34.6667" height="37.1703" fill="white" transform="translate(41.668 22.0005)"/>
</clipPath>
</defs>
</svg>
