<svg width="86" height="86" viewBox="0 0 86 86" fill="none" xmlns="http://www.w3.org/2000/svg">
<circle cx="43" cy="43" r="42" stroke="url(#paint0_linear_5212_36462)" stroke-width="1.5"/>
<mask id="mask0_5212_36462" style="mask-type:alpha" maskUnits="userSpaceOnUse" x="2" y="2" width="82" height="82">
<circle cx="43" cy="43" r="41" fill="#D9D9D9"/>
</mask>
<g mask="url(#mask0_5212_36462)">
<path d="M43.5002 40.719V49.2297M41.3726 47.2311L41.996 47.6985C42.8265 48.3219 44.1733 48.3219 45.0045 47.6985C45.8357 47.0751 45.8357 46.0652 45.0045 45.4417C44.5896 45.1297 44.0449 44.9744 43.5002 44.9744C42.9861 44.9744 42.4719 44.8183 42.0797 44.507C41.2953 43.8836 41.2953 42.8736 42.0797 42.2502C42.8641 41.6268 44.1364 41.6268 44.9208 42.2502L45.2152 42.4843M49.6197 43.159C49.3201 42.149 48.7722 41.2193 48.0137 40.4609C46.8167 39.2638 45.1931 38.5913 43.5002 38.5913C41.8074 38.5913 40.1838 39.2638 38.9867 40.4609C37.7897 41.6579 37.1172 43.2815 37.1172 44.9744C37.1172 45.8126 37.2823 46.6426 37.6031 47.4171C37.9238 48.1915 38.394 48.8951 38.9867 49.4879C39.5795 50.0806 40.2831 50.5508 41.0576 50.8715C41.832 51.1923 42.662 51.3574 43.5002 51.3574C43.9794 51.3574 44.4559 51.3035 44.9208 51.1973" stroke="url(#paint1_linear_5212_36462)" stroke-linecap="round" stroke-linejoin="round"/>
<path d="M46.3438 52.1755V57.9369C46.3438 59.2813 46.3438 59.9531 46.5842 60.4666C46.7958 60.9183 47.1331 61.2859 47.5483 61.516C48.0198 61.7774 48.6374 61.7774 49.8707 61.7774H62.6752C63.9085 61.7774 64.5252 61.7774 64.9967 61.516C65.4119 61.2859 65.7503 60.9183 65.9619 60.4666C66.2021 59.9536 66.2021 59.2827 66.2021 57.9409V52.1755M46.3438 52.1755V49.7751M46.3438 52.1755H66.2021M46.3438 49.7751V48.8151C46.3438 47.4707 46.3438 46.798 46.5842 46.2845C46.7958 45.8329 47.1331 45.4659 47.5483 45.2358C48.0203 44.9741 48.6386 44.9741 49.8743 44.9741H62.672C63.9077 44.9741 64.5247 44.9741 64.9967 45.2358C65.4119 45.4659 65.7503 45.8329 65.9619 46.2845C66.2021 46.7975 66.2021 47.4694 66.2021 48.8112V49.7751M46.3438 49.7751H66.2021M50.7567 56.9764H55.1697M66.2021 52.1755V49.7751" stroke="url(#paint2_linear_5212_36462)" stroke-width="1.34331" stroke-linecap="round" stroke-linejoin="round"/>
<path d="M35.2065 29.7624H51.7779M57.9922 42.9634L57.9922 31.4615V26.4217C57.9922 25.9023 57.774 25.4042 57.3855 25.037C56.997 24.6697 56.4701 24.4634 55.9208 24.4634H31.0636C30.5142 24.4634 29.9874 24.6697 29.5989 25.037C29.2104 25.4042 28.9922 25.9023 28.9922 26.4217V69.505C28.9922 70.0244 29.2104 70.5225 29.5989 70.8898C29.9874 71.2571 30.5142 71.4634 31.0636 71.4634H55.9208C56.4701 71.4634 56.997 71.2571 57.3855 70.8898C57.774 70.5225 57.9922 68.5269 57.9922 68.0075V63.667" stroke="url(#paint3_linear_5212_36462)" stroke-width="1.8"/>
<path d="M20.9453 24.2083L20.9453 24.2087C20.9378 24.2732 20.905 24.3321 20.8541 24.3724C20.8033 24.4127 20.7385 24.4312 20.674 24.4237C20.6095 24.4163 20.5506 24.3835 20.5103 24.3326C20.47 24.2817 20.4515 24.2169 20.4589 24.1524C20.7463 21.6809 21.86 19.3789 23.6194 17.6195C25.3788 15.86 27.6809 14.7464 30.1524 14.459C30.1844 14.4553 30.2167 14.4579 30.2476 14.4667C30.2785 14.4755 30.3074 14.4903 30.3326 14.5103C30.3578 14.5303 30.3788 14.555 30.3944 14.5831C30.41 14.6112 30.42 14.6421 30.4236 14.674L30.4237 14.6741C30.4274 14.706 30.4247 14.7384 30.4159 14.7693C30.4071 14.8002 30.3923 14.829 30.3723 14.8542C30.3524 14.8794 30.3277 14.9004 30.2996 14.916C30.2715 14.9317 30.2406 14.9416 30.2087 14.9453L30.2083 14.9454C27.8466 15.2201 25.6468 16.2844 23.9656 17.9656C22.2843 19.6469 21.2201 21.8466 20.9453 24.2083ZM25.4174 24.4791L25.4174 24.4793C25.4073 24.5435 25.3721 24.601 25.3195 24.6393C25.267 24.6775 25.2015 24.6933 25.1373 24.6832C25.0731 24.6731 25.0156 24.6379 24.9773 24.5854C24.9391 24.5329 24.9233 24.4673 24.9334 24.4031C25.1507 23.0306 25.7969 21.7622 26.7795 20.7796C27.7621 19.797 29.0306 19.1507 30.4031 18.9335C30.4348 18.9285 30.4673 18.9298 30.4986 18.9373L30.6157 18.4512L30.4986 18.9373C30.5298 18.9448 30.5593 18.9585 30.5853 18.9774C30.6113 18.9963 30.6334 19.0202 30.6501 19.0476L31.0767 18.7868L30.6501 19.0476C30.6669 19.0751 30.6781 19.1056 30.6831 19.1373C30.6881 19.1691 30.6868 19.2016 30.6793 19.2328C30.6718 19.2641 30.6581 19.2936 30.6392 19.3196C30.6203 19.3456 30.5964 19.3676 30.569 19.3844C30.5415 19.4012 30.511 19.4124 30.4793 19.4174L30.479 19.4175C29.2087 19.618 28.0346 20.2159 27.1252 21.1253C26.2159 22.0347 25.618 23.2088 25.4174 24.4791Z" stroke="url(#paint4_linear_5212_36462)"/>
</g>
<defs>
<linearGradient id="paint0_linear_5212_36462" x1="10.9196" y1="1.00002" x2="85.0417" y2="14.9118" gradientUnits="userSpaceOnUse">
<stop stop-color="#2EC4F3"/>
<stop offset="1" stop-color="#BFD633"/>
</linearGradient>
<linearGradient id="paint1_linear_5212_36462" x1="38.5936" y1="38.5913" x2="49.6413" y2="40.622" gradientUnits="userSpaceOnUse">
<stop stop-color="#2EC4F3"/>
<stop offset="1" stop-color="#BFD633"/>
</linearGradient>
<linearGradient id="paint2_linear_5212_36462" x1="48.6888" y1="44.9741" x2="65.9786" y2="48.8092" gradientUnits="userSpaceOnUse">
<stop stop-color="#2EC4F3"/>
<stop offset="1" stop-color="#BFD633"/>
</linearGradient>
<linearGradient id="paint3_linear_5212_36462" x1="32.4168" y1="24.4634" x2="58.5574" y2="27.4907" gradientUnits="userSpaceOnUse">
<stop stop-color="#2EC4F3"/>
<stop offset="1" stop-color="#BFD633"/>
</linearGradient>
<linearGradient id="paint4_linear_5212_36462" x1="19.2437" y1="21.288" x2="30.8508" y2="16.1935" gradientUnits="userSpaceOnUse">
<stop stop-color="#2EC4F3"/>
<stop offset="1" stop-color="#BFD633"/>
</linearGradient>
</defs>
</svg>
