<svg width="56" height="53" viewBox="0 0 56 53" fill="none" xmlns="http://www.w3.org/2000/svg">
<mask id="mask0_7200_55755" style="mask-type:alpha" maskUnits="userSpaceOnUse" x="0" y="0" width="56" height="53">
<rect width="56" height="53" fill="#D9D9D9"/>
</mask>
<g mask="url(#mask0_7200_55755)">
<path d="M4.36458 30.7487C3.50646 30.7487 2.74697 30.555 2.08612 30.1675C1.43513 29.7801 0.922233 29.2461 0.547422 28.5654C0.182474 27.8743 0 27.089 0 26.2094V19.4869H2.33764V26.3508C2.33764 26.7906 2.42641 27.1728 2.60395 27.4974C2.78149 27.822 3.02315 28.0733 3.32892 28.2513C3.64455 28.4188 3.98977 28.5026 4.36458 28.5026C4.75912 28.5026 5.10434 28.4188 5.40024 28.2513C5.69615 28.0733 5.92794 27.8272 6.09562 27.5131C6.27316 27.1885 6.36193 26.8063 6.36193 26.3665V19.4869H8.69957V26.2251C8.69957 27.1047 8.51709 27.8848 8.15215 28.5654C7.7872 29.2461 7.27923 29.7801 6.62824 30.1675C5.97725 30.555 5.2227 30.7487 4.36458 30.7487Z" fill="black"/>
<path d="M13.3918 34C12.6028 34 11.9074 33.8534 11.3057 33.5602C10.7139 33.2775 10.2454 32.8743 9.90017 32.3508L11.2909 30.8743C11.5474 31.199 11.8334 31.445 12.149 31.6126C12.4745 31.7801 12.8641 31.8639 13.3179 31.8639C13.8801 31.8639 14.319 31.7173 14.6346 31.4241C14.9601 31.1309 15.1229 30.7173 15.1229 30.1832V28.2356L15.5075 26.5707L15.1673 24.9058V22.9424H17.3865V30.1204C17.3865 30.9058 17.2139 31.5864 16.8687 32.1623C16.5235 32.7382 16.05 33.1885 15.4484 33.5131C14.8467 33.8377 14.1612 34 13.3918 34ZM13.2883 30.3403C12.6274 30.3403 12.0405 30.1728 11.5276 29.8377C11.0147 29.5026 10.6103 29.0471 10.3144 28.4712C10.0185 27.8953 9.87058 27.2565 9.87058 26.555C9.87058 25.8429 10.0185 25.2042 10.3144 24.6387C10.6103 24.0628 11.0147 23.6126 11.5276 23.288C12.0405 22.9529 12.6274 22.7853 13.2883 22.7853C13.7814 22.7853 14.2204 22.8848 14.605 23.0838C14.9996 23.2723 15.3152 23.5445 15.5519 23.9005C15.7985 24.2461 15.9366 24.6492 15.9662 25.1099V28.0157C15.9366 28.466 15.7985 28.8691 15.5519 29.2251C15.3152 29.5707 14.9996 29.8429 14.605 30.0419C14.2105 30.2408 13.7716 30.3403 13.2883 30.3403ZM13.7173 28.2042C14.033 28.2042 14.3042 28.1309 14.5311 27.9843C14.7678 27.8377 14.9453 27.644 15.0637 27.4031C15.1919 27.1518 15.256 26.8691 15.256 26.555C15.256 26.2408 15.1919 25.9581 15.0637 25.7068C14.9453 25.4555 14.7678 25.2565 14.5311 25.1099C14.3042 24.9634 14.033 24.8901 13.7173 24.8901C13.4116 24.8901 13.1403 24.9634 12.9036 25.1099C12.6669 25.2565 12.4844 25.4555 12.3562 25.7068C12.2279 25.9581 12.1638 26.2408 12.1638 26.555C12.1638 26.8482 12.2279 27.1257 12.3562 27.3874C12.4844 27.6387 12.6619 27.8377 12.8888 27.9843C13.1255 28.1309 13.4017 28.2042 13.7173 28.2042Z" fill="black"/>
<path d="M18.9842 30.5759V19.1728H21.2478V30.5759H18.9842Z" fill="black"/>
<path d="M22.8419 30.5759V22.9424H25.1056V30.5759H22.8419ZM23.9811 21.8901C23.6261 21.8901 23.3302 21.7644 23.0934 21.5131C22.8666 21.2513 22.7531 20.9372 22.7531 20.5707C22.7531 20.1937 22.8666 19.8796 23.0934 19.6283C23.3302 19.377 23.6261 19.2513 23.9811 19.2513C24.3362 19.2513 24.6272 19.377 24.8541 19.6283C25.0809 19.8796 25.1943 20.1937 25.1943 20.5707C25.1943 20.9372 25.0809 21.2513 24.8541 21.5131C24.6272 21.7644 24.3362 21.8901 23.9811 21.8901Z" fill="black"/>
<path d="M27.6169 30.5759V22.2827C27.6169 21.6649 27.7452 21.1099 28.0016 20.6178C28.2679 20.1152 28.6378 19.7225 29.1113 19.4398C29.5847 19.1466 30.1469 19 30.7979 19C31.2911 19 31.7201 19.089 32.0851 19.267C32.4599 19.4346 32.7854 19.6702 33.0616 19.9738L31.6412 21.4817C31.5426 21.377 31.4292 21.2984 31.3009 21.2461C31.1826 21.1832 31.0396 21.1518 30.8719 21.1518C30.5661 21.1518 30.3245 21.2461 30.1469 21.4346C29.9694 21.623 29.8806 21.8796 29.8806 22.2042V30.5759H27.6169ZM26.0339 24.9843V22.9424H31.9519V24.9843H26.0339Z" fill="black"/>
<path d="M35.204 30.6073L32.2449 22.9424H34.6862L36.5651 29.0209H35.6626L37.586 22.9424H40.0272L36.9498 30.6073H35.204ZM33.3546 33.7958L35.5147 28.8482L36.9498 30.6073L35.6774 33.7958H33.3546Z" fill="black"/>
<path d="M43.27 30.7487C42.6092 30.7487 42.0322 30.623 41.539 30.3717C41.0557 30.1099 40.6414 29.7487 40.2962 29.288L41.8497 27.7016C42.0272 27.9634 42.2344 28.1623 42.4711 28.2984C42.7177 28.4346 42.9938 28.5026 43.2996 28.5026C43.5955 28.5026 43.852 28.4398 44.069 28.3141C44.286 28.178 44.4586 27.9895 44.5868 27.7487C44.715 27.4974 44.7791 27.1885 44.7791 26.822V19.4869H47.1168V26.6806C47.1168 27.5079 46.9589 28.2251 46.6433 28.8325C46.3277 29.4398 45.8838 29.911 45.3118 30.2461C44.7397 30.5812 44.0591 30.7487 43.27 30.7487Z" fill="black"/>
<path d="M51.9905 30.7487C51.1324 30.7487 50.3926 30.6021 49.7712 30.3089C49.1597 30.0052 48.5975 29.5497 48.0846 28.9424L49.5937 27.356C49.929 27.7644 50.2989 28.0838 50.7033 28.3141C51.1176 28.534 51.596 28.644 52.1385 28.644C52.6316 28.644 53.0114 28.5497 53.2777 28.3613C53.5539 28.1728 53.692 27.911 53.692 27.5759C53.692 27.2723 53.6032 27.0262 53.4256 26.8377C53.2481 26.6492 53.0114 26.4869 52.7155 26.3508C52.4294 26.2147 52.1089 26.0838 51.7538 25.9581C51.4086 25.8325 51.0633 25.6911 50.7181 25.534C50.3729 25.3665 50.0523 25.1623 49.7564 24.9215C49.4704 24.6702 49.2386 24.3613 49.0611 23.9948C48.8835 23.6178 48.7947 23.1466 48.7947 22.5812C48.7947 21.9005 48.9476 21.3141 49.2534 20.822C49.569 20.3298 50.003 19.9581 50.5554 19.7068C51.1077 19.445 51.7439 19.3141 52.464 19.3141C53.1938 19.3141 53.8596 19.4503 54.4613 19.7225C55.0728 19.9948 55.5759 20.3665 55.9704 20.8377L54.4613 22.4241C54.1457 22.0785 53.8251 21.822 53.4996 21.6545C53.184 21.4869 52.824 21.4031 52.4196 21.4031C52.0152 21.4031 51.6946 21.4869 51.4579 21.6545C51.2212 21.8115 51.1028 22.0419 51.1028 22.3455C51.1028 22.6283 51.1916 22.8586 51.3691 23.0366C51.5466 23.2042 51.7784 23.3508 52.0645 23.4764C52.3604 23.6021 52.6809 23.7277 53.0262 23.8534C53.3813 23.9791 53.7314 24.1257 54.0766 24.2932C54.4218 24.4607 54.7375 24.6754 55.0235 24.9372C55.3194 25.1885 55.5561 25.5131 55.7337 25.911C55.9112 26.2984 56 26.7801 56 27.356C56 28.4136 55.6449 29.2461 54.9347 29.8534C54.2246 30.4503 53.2432 30.7487 51.9905 30.7487Z" fill="black"/>
</g>
</svg>
