<svg width="180" height="180" viewBox="0 0 180 180" fill="none" xmlns="http://www.w3.org/2000/svg">
<rect width="180" height="178.611" rx="48" transform="matrix(-1 0 0 1 180 0.400391)" fill="black"/>
<mask id="mask0_5801_46530" style="mask-type:alpha" maskUnits="userSpaceOnUse" x="40" y="40" width="100" height="100">
<rect x="40" y="40.0918" width="100" height="99.2282" fill="#D9D9D9"/>
</mask>
<g mask="url(#mask0_5801_46530)">
<path d="M87.5405 64.8678L78.4814 80.4376C78.3356 80.6882 78.2589 80.9724 78.2589 81.2616C78.2589 81.5509 78.3356 81.8351 78.4814 82.0857C78.6271 82.3362 78.8368 82.5443 79.0893 82.6889C79.3417 82.8336 79.6281 82.9097 79.9197 82.9097H88.7502C89.2048 85.2363 90.5258 87.3076 92.4501 88.7113C94.3743 90.1151 96.7608 90.7483 99.1343 90.4849C101.508 90.2215 103.694 89.0808 105.259 87.29C106.823 85.4991 107.65 83.1894 107.575 80.8207C107.481 78.3837 106.446 76.076 104.685 74.3747C102.923 72.6734 100.571 71.7087 98.1133 71.6798H98.0756C96.9348 71.6842 95.8041 71.8919 94.7374 72.2932L90.4171 64.8678C90.2713 64.6173 90.0617 64.4092 89.8092 64.2646C89.5567 64.1199 89.2703 64.0438 88.9788 64.0438C88.6873 64.0438 88.4009 64.1199 88.1484 64.2646C87.8959 64.4092 87.6862 64.6173 87.5405 64.8678ZM98.0748 74.976H98.0995C99.6981 74.9944 101.228 75.6217 102.374 76.728C103.52 77.8344 104.193 79.3353 104.255 80.9205C104.303 82.4062 103.805 83.8585 102.854 85.0074C101.904 86.1563 100.565 86.9236 99.087 87.1668C97.6091 87.4099 96.0925 87.1123 94.8191 86.3293C93.5457 85.5463 92.6021 84.3312 92.1637 82.9097H98.0379C98.3294 82.9097 98.6158 82.8336 98.8683 82.6889C99.1208 82.5443 99.3304 82.3362 99.4762 82.0857C99.622 81.8351 99.6987 81.5509 99.6987 81.2616C99.6987 80.9724 99.622 80.6882 99.4762 80.4376L96.429 75.2004C96.9649 75.0527 97.5185 74.9772 98.0748 74.976ZM95.1613 79.6136H82.7962L88.9787 68.988L95.1613 79.6136ZM135.848 48.9648H46.16C45.0592 48.9661 44.0038 49.4006 43.2254 50.173C42.447 50.9454 42.0091 51.9927 42.0078 53.085V108.921C42.0091 110.013 42.447 111.06 43.2254 111.833C44.0038 112.605 45.0592 113.04 46.16 113.041H77.726L75.497 119.48H67.0851C66.6446 119.48 66.2221 119.653 65.9106 119.962C65.5992 120.271 65.4242 120.691 65.4242 121.128V129.368C65.4242 129.805 65.5992 130.224 65.9106 130.533C66.2221 130.843 66.6446 131.016 67.0851 131.016H114.923C115.364 131.016 115.786 130.843 116.098 130.533C116.409 130.224 116.584 129.805 116.584 129.368V121.128C116.584 120.691 116.409 120.271 116.098 119.962C115.786 119.653 115.364 119.48 114.923 119.48H106.511L104.282 113.041H135.848C136.949 113.04 138.005 112.605 138.783 111.833C139.561 111.06 139.999 110.013 140.001 108.921V53.085C139.999 51.9927 139.561 50.9454 138.783 50.173C138.005 49.4006 136.949 48.9661 135.848 48.9648ZM135.848 52.261C136.069 52.2612 136.28 52.3481 136.435 52.5026C136.591 52.6571 136.679 52.8666 136.679 53.085V102.329H60.9188V52.261H135.848ZM46.16 52.261H57.597V102.329H45.3296V53.085C45.3298 52.8666 45.4174 52.6571 45.5731 52.5026C45.7288 52.3481 45.9399 52.2612 46.16 52.261ZM113.262 127.72H68.7459V122.776H113.262V127.72ZM102.999 119.48H79.0093L81.2383 113.041H100.77L102.999 119.48ZM135.848 109.745H46.16C45.9399 109.745 45.7288 109.658 45.5731 109.503C45.4174 109.349 45.3298 109.139 45.3296 108.921V105.625H136.679V108.921C136.679 109.139 136.591 109.349 136.435 109.503C136.28 109.658 136.069 109.745 135.848 109.745ZM54.1105 66.5151H48.683V63.2189H54.1105V66.5151ZM54.1105 72.6761H48.683V69.3799H54.1105V72.6761ZM54.1105 60.3549H48.683V57.0588H54.1105V60.3549ZM54.1105 78.8362H48.683V75.5401H54.1105V78.8362ZM113.334 97.5517H110.842V95.9036H111.673V95.0796H113.334V97.5517ZM81.5137 97.5517H78.2547V95.9036H81.5137V97.5517ZM91.2897 95.9036H94.5486V97.5517H91.2897L91.2897 95.9036ZM84.7722 95.9036H88.0312V97.5517H84.7722L84.7722 95.9036ZM97.8072 95.9036H101.066V97.5517H97.8071L97.8072 95.9036ZM104.325 95.9036H107.584V97.5517H104.325L104.325 95.9036ZM74.9962 97.5517H72.5049V95.0796H74.1658V95.9036H74.9962V97.5517ZM74.1658 65.9775H72.5049V62.7441H74.1658V65.9775ZM74.1658 85.3786H72.5049V82.1453H74.1658V85.3786ZM74.1658 72.4443H72.5049V69.2109H74.1658V72.4443ZM74.1658 78.9119H72.5049V75.6785H74.1658V78.9119ZM74.1658 91.8462H72.5049V88.6128H74.1658V91.8462ZM74.1658 59.51H72.5049V57.0378H74.9962V58.6859H74.1658V59.51ZM101.066 58.6859H97.8071V57.0378H101.066L101.066 58.6859ZM107.584 58.6859H104.325V57.0378H107.584L107.584 58.6859ZM88.0312 58.6859H84.7722V57.0378H88.0311L88.0312 58.6859ZM94.5486 58.6859H91.2897V57.0378H94.5486L94.5486 58.6859ZM81.5137 58.6859H78.2547V57.0378H81.5137L81.5137 58.6859ZM111.673 58.6859H110.843V57.0378H113.334V59.51H111.673V58.6859ZM111.673 88.6128H113.334V91.8462H111.673V88.6128ZM111.673 69.2117H113.334V72.4451H111.673V69.2117ZM111.673 82.146H113.334V85.3794H111.673V82.146ZM111.673 62.7441H113.334V65.9775H111.673V62.7441ZM111.673 75.6784H113.334V78.9118H111.673V75.6784ZM120.946 84.3269C120.948 83.6163 121.168 82.9231 121.576 82.3394C121.984 81.7556 122.562 81.309 123.232 81.0587V58.3833H125.724V81.0587C126.395 81.3073 126.974 81.7536 127.382 82.3377C127.791 82.9218 128.01 83.6158 128.01 84.3269C128.01 85.0379 127.791 85.7319 127.382 86.316C126.974 86.9001 126.395 87.3464 125.724 87.5951L123.232 87.595C122.562 87.3448 121.984 86.8981 121.576 86.3144C121.168 85.7307 120.948 85.0375 120.946 84.3269Z" fill="white"/>
<path d="M124.419 84.3977C124.23 84.3943 124.041 84.429 123.865 84.4995C123.689 84.57 123.529 84.675 123.395 84.8082C123.261 84.9413 123.155 85.1 123.084 85.2746C123.013 85.4493 122.978 85.6363 122.981 85.8246V93.491C122.982 93.5064 122.978 93.5216 122.969 93.5341C122.96 93.5466 122.947 93.5556 122.932 93.5597C122.917 93.5638 122.901 93.5626 122.887 93.5564C122.873 93.5502 122.861 93.5393 122.854 93.5256L122.261 91.7574C121.693 90.7138 121.015 90.6272 120.444 90.788C120.051 90.9011 119.712 91.1514 119.49 91.4928C119.241 91.8835 119.153 92.3559 119.385 93.1819L120.1 94.8512C121.036 96.8763 122.196 98.7916 123.56 100.561C123.676 100.707 123.825 100.825 123.994 100.906C124.163 100.987 124.349 101.029 124.537 101.029H129.82C130.021 101.03 130.219 100.983 130.398 100.89C130.576 100.798 130.728 100.664 130.842 100.5C132.442 98.1403 133.96 91.844 131.373 91.5225C130.974 91.5225 130.573 91.6882 130.453 92.0171C130.453 92.023 130.451 92.0287 130.447 92.0328C130.442 92.037 130.437 92.0393 130.431 92.0393C130.425 92.0393 130.419 92.037 130.415 92.0328C130.411 92.0287 130.408 92.023 130.408 92.0171C130.319 90.7855 129.608 90.5803 129.21 90.5803C128.998 90.5576 128.786 90.6139 128.615 90.7384C128.443 90.8628 128.325 91.0463 128.282 91.2529C128.282 91.2588 128.28 91.2645 128.276 91.2687C128.272 91.2728 128.266 91.2752 128.26 91.2752C128.254 91.2752 128.248 91.2728 128.244 91.2687C128.24 91.2645 128.238 91.2588 128.238 91.2529C128.123 90.2959 127.435 90.0857 127.054 90.0857C126.789 90.1008 126.536 90.1972 126.329 90.3616C126.122 90.5261 125.972 90.7503 125.9 91.0031C125.9 91.0091 125.897 91.0147 125.893 91.0189C125.889 91.0231 125.883 91.0254 125.877 91.0254C125.871 91.0254 125.866 91.0231 125.862 91.0189C125.857 91.0147 125.855 91.0091 125.855 91.0031C125.855 89.69 125.855 86.9721 125.855 85.8098C125.856 85.6229 125.82 85.4377 125.748 85.2649C125.676 85.0922 125.571 84.9354 125.437 84.8039C125.303 84.6723 125.144 84.5686 124.969 84.4989C124.795 84.4291 124.608 84.3947 124.419 84.3977Z" stroke="white" stroke-width="0.3" stroke-miterlimit="10"/>
</g>
</svg>
