<svg width="181" height="181" viewBox="0 0 181 181" fill="none" xmlns="http://www.w3.org/2000/svg">
<rect y="0.974609" width="181" height="179.603" rx="48" fill="black"/>
<mask id="mask0_5801_46592" style="mask-type:alpha" maskUnits="userSpaceOnUse" x="40" y="41" width="100" height="100">
<rect x="40" y="41.6582" width="100" height="99.2282" fill="#D9D9D9"/>
</mask>
<g mask="url(#mask0_5801_46592)">
<path d="M106.554 104.199L92.901 110.291C92.6708 108.039 90.976 105.923 87.9316 105.923H79.7296L66.1083 100.33C64.6123 99.7132 63.0012 99.8014 61.5888 100.565L55.1548 104.042H51.7861V103.151C51.7861 102.446 51.1793 101.878 50.4261 101.878H42.36C41.6068 101.878 41 102.446 41 103.151V122.671C41 123.377 41.6068 123.945 42.36 123.945H50.4156C51.1689 123.945 51.7757 123.377 51.7757 122.671V121.78H55.5419L73.6513 127.05C74.6661 127.343 75.6076 127.49 76.4969 127.49C77.7 127.49 78.7985 127.216 79.8028 126.677L91.928 120.125L110.362 111.29C112.747 110.144 113.071 107.794 112.161 106.06C111.23 104.307 109.012 103.102 106.554 104.199ZM49.066 121.398H43.7201V104.424H49.0556V121.398H49.066ZM109.127 109.028L90.6412 117.892L78.4637 124.474C77.3757 125.061 76.1412 125.11 74.4778 124.621L56.1696 119.292C56.0441 119.253 55.9081 119.234 55.7616 119.234H51.7861V106.589H55.521C55.7616 106.589 55.9918 106.53 56.201 106.422L62.9593 102.779C63.6289 102.417 64.3193 102.387 65.0308 102.671L78.9136 108.372C79.0809 108.44 79.2693 108.479 79.4576 108.479H87.9421C90.16 108.479 90.2228 110.585 90.2228 110.82C90.2228 111.457 90.0031 112.054 89.6369 112.475C89.2394 112.916 88.664 113.151 87.9421 113.151H71.8205C71.0672 113.151 70.4604 113.719 70.4604 114.425C70.4604 115.13 71.0672 115.698 71.8205 115.698H87.9421C89.4591 115.698 90.7982 115.14 91.7188 114.121C91.9071 113.905 92.0745 113.68 92.2314 113.435L107.746 106.511C109.002 105.943 109.629 106.991 109.744 107.206C109.849 107.412 110.341 108.479 109.148 109.047L109.127 109.028ZM138.65 59.0075H129.674C128.921 59.0075 128.314 59.5756 128.314 60.2808V61.4267H123.931L103.729 55.5402C101.113 54.7763 98.9061 54.9134 96.9915 55.9418L89.2707 60.1143L87.5969 57.4012C87.419 57.1074 87.1156 56.8919 86.7704 56.8037C86.4251 56.7156 86.0485 56.7645 85.7346 56.9311L59.35 71.2212C58.7014 71.5738 58.4817 72.3475 58.8583 72.9548L62.1851 78.3515C58.9106 80.8295 57.9586 85.2468 60.1242 88.7728C61.2854 90.6632 63.1686 92.0148 65.4074 92.5731C67.2068 93.0236 69.069 92.9257 70.7743 92.3086L74.1011 97.7054C74.279 97.9992 74.5824 98.2147 74.9276 98.3028C75.0427 98.3322 75.1578 98.342 75.2833 98.342C75.5239 98.342 75.7541 98.2833 75.9633 98.1755L82.8053 94.4732C83.454 94.1206 83.6737 93.3468 83.2971 92.7396C81.6441 90.0559 82.6275 86.6181 85.4836 85.0705C86.8645 84.3164 88.4756 84.1205 90.0135 84.5122C91.5619 84.904 92.8487 85.8247 93.6438 87.1274C93.8216 87.4212 94.125 87.6367 94.4703 87.7248C94.8155 87.813 95.1921 87.764 95.506 87.5975L102.348 83.8952C102.997 83.5426 103.216 82.7688 102.84 82.1616L102.055 80.8883L112.255 85.0803C112.977 85.3742 113.72 85.5211 114.452 85.5211C115.383 85.5211 116.304 85.286 117.151 84.8257L124.36 80.9275H128.304V82.0734C128.304 82.7786 128.91 83.3467 129.664 83.3467H138.64C139.393 83.3467 140 82.7786 140 82.0734V60.2808C140 59.5756 139.393 59.0075 138.64 59.0075H138.65ZM99.8058 82.3281L95.2235 84.8061C94.0727 83.474 92.5139 82.5142 90.7145 82.0636C88.4652 81.4956 86.1322 81.7894 84.1131 82.8766C80.3573 84.904 78.8299 89.1842 80.3468 92.8669L75.7646 95.3449L72.5005 90.0363C72.3226 89.7425 72.0192 89.527 71.674 89.4389C71.3288 89.3507 70.9521 89.3997 70.6383 89.5662C69.2573 90.3204 67.6462 90.5163 66.1083 90.1245C64.56 89.7327 63.2732 88.812 62.4781 87.5094C60.8251 84.8257 61.8085 81.3878 64.6646 79.8403C65.3132 79.4877 65.5329 78.7139 65.1563 78.1067L61.8818 72.7981L85.923 59.7812L90.3588 66.9998L91.112 68.2339H87.8584C86.2159 68.2339 84.7617 68.8411 83.7678 69.9381C82.91 70.898 82.4392 72.1614 82.4392 73.5131C82.4392 76.1478 84.3014 78.8217 87.8584 78.8217H97.0229L97.8285 79.1547L99.7848 82.3281H99.8058ZM124.004 78.3809C123.763 78.3809 123.533 78.4397 123.324 78.5474L115.802 82.6219C115.007 83.0529 114.191 83.0921 113.354 82.7492L97.8808 76.3926C97.7029 76.3241 97.5251 76.2849 97.3368 76.2849H87.8793C85.7451 76.2849 85.1802 74.5513 85.1802 73.5229C85.1802 72.7785 85.4313 72.0733 85.8707 71.5836C86.3519 71.0547 87.0215 70.7804 87.8793 70.7804H105.842C106.595 70.7804 107.202 70.2123 107.202 69.5071C107.202 68.8019 106.595 68.2339 105.842 68.2339H94.261L90.6308 62.3278L98.3516 58.1554C99.607 57.4795 101.019 57.4208 102.923 57.9791L123.324 63.9243C123.449 63.9635 123.585 63.9831 123.732 63.9831H128.314V78.3907H124.004V78.3809ZM137.29 80.8001H131.034V61.554H137.29V80.8001Z" fill="white"/>
</g>
</svg>
