<svg width="180" height="180" viewBox="0 0 180 180" fill="none" xmlns="http://www.w3.org/2000/svg">
<rect width="180" height="178.611" rx="48" transform="matrix(-1 0 0 1 180 0.976562)" fill="black"/>
<mask id="mask0_5801_46556" style="mask-type:alpha" maskUnits="userSpaceOnUse" x="40" y="40" width="100" height="100">
<rect x="40" y="40.667" width="100" height="99.2282" fill="#D9D9D9"/>
</mask>
<g mask="url(#mask0_5801_46556)">
<path d="M131.919 60.912H120.108L122.959 50.3615C123.394 48.7984 123.184 47.1237 122.373 45.7132C121.56 44.3027 120.213 43.2718 118.634 42.8513C117.051 42.4307 115.367 42.654 113.953 43.4728C112.539 44.2915 111.512 45.635 111.103 47.2093L107.401 60.9125H49.8867C47.085 60.9162 44.8084 63.1715 44.8047 65.9553V118.195C44.8084 120.979 47.085 123.235 49.8867 123.238H81.1624V129.989H79.7859C77.5693 129.993 75.7766 131.776 75.7766 133.971V136.647C75.7766 136.993 75.9153 137.325 76.1591 137.566C76.4067 137.812 76.7405 137.95 77.0893 137.95H104.715C105.064 137.95 105.398 137.812 105.646 137.57C105.889 137.325 106.028 136.993 106.028 136.647V133.971C106.028 131.776 104.235 129.993 102.019 129.989H100.642V123.238H131.918C134.72 123.235 136.996 120.979 137 118.195V65.9553C136.996 63.1715 134.72 60.9158 131.919 60.912ZM109.663 62.609C109.67 62.583 109.678 62.5569 109.685 62.5272L113.638 47.8827C114.141 46.0257 116.065 44.9203 117.936 45.4191C119.812 45.9178 120.922 47.8269 120.419 49.6878L109.46 90.2761L102.679 88.4674L109.663 62.609ZM107.994 92.583L103.992 97.06L102.78 91.1948L107.994 92.583ZM102.019 132.598C102.784 132.601 103.399 133.215 103.399 133.975V135.348H78.4019V133.975C78.4019 133.215 79.017 132.598 79.7858 132.594L102.019 132.598ZM83.7878 129.989V123.238H98.0171V129.989H83.7878ZM134.372 118.195C134.372 119.539 133.273 120.629 131.919 120.633H49.8864C48.5324 120.629 47.4335 119.539 47.4335 118.195V112.873H134.375L134.372 118.195ZM134.372 110.268H47.4339V65.9545C47.4339 64.6072 48.5328 63.5168 49.8868 63.5168H106.696L99.7992 89.051C99.7429 89.2445 99.7429 89.4492 99.7842 89.6464L101.945 100.138C102.046 100.622 102.41 101.005 102.89 101.135C103.002 101.165 103.115 101.18 103.231 101.18C103.606 101.18 103.962 101.02 104.214 100.741L111.37 92.732C111.505 92.5831 111.602 92.4008 111.655 92.2072L119.403 63.5176H131.919C133.273 63.5176 134.372 64.608 134.372 65.9553L134.372 110.268ZM87.7416 116.755C87.7416 116.036 88.3305 115.452 89.0544 115.452H92.7524C93.4613 115.471 94.0276 116.048 94.0276 116.755C94.0276 117.462 93.4613 118.039 92.7524 118.057H89.0544C88.7093 118.057 88.3755 117.92 88.128 117.678C87.8804 117.432 87.7379 117.101 87.7416 116.755Z" fill="white"/>
<path d="M88.5766 96.0838L85.9065 94.5735V74.5484C85.9034 72.692 84.3877 71.1881 82.5169 71.1865H58.7161C56.8454 71.1881 55.3297 72.6921 55.3281 74.5484V98.1655C55.3297 100.022 56.8454 101.526 58.7161 101.527H75.334L75.2793 103.514C75.2761 103.769 75.4294 104.001 75.6672 104.099C75.9034 104.197 76.1771 104.143 76.357 103.961L79.7012 100.487L82.6247 105.637C82.7123 105.794 82.8656 105.904 83.0408 105.94C83.2175 105.977 83.4021 105.937 83.546 105.83L86.0863 103.935C86.3397 103.745 86.41 103.399 86.2505 103.128L83.4631 98.3532L88.4061 97.2279C88.6548 97.1674 88.8409 96.9641 88.8784 96.7126C88.916 96.4612 88.7971 96.2126 88.5766 96.0838ZM58.7164 72.4281H82.5172C83.6966 72.4296 84.6539 73.378 84.6555 74.5483V77.5252H56.5801V74.5483C56.5816 73.378 57.5371 72.4296 58.7164 72.4281ZM58.7164 100.285C57.5371 100.285 56.5814 99.3353 56.5798 98.1651V78.7669H84.6536V93.8658L76.5885 89.3071C76.3961 89.2016 76.1646 89.2016 75.9738 89.3087C75.7829 89.4158 75.6609 89.6129 75.6531 89.8302L75.3684 100.287L58.7164 100.285ZM82.3559 97.33C82.1619 97.375 82.0039 97.5101 81.9257 97.6901C81.846 97.8701 81.8569 98.0766 81.9555 98.2473L84.8898 103.272L83.3648 104.409L80.3772 99.1478C80.2787 98.9786 80.105 98.8637 79.9095 98.8389C79.714 98.8141 79.5169 98.8824 79.3792 99.0236L76.5747 101.938L76.8766 90.8999L86.5634 96.3757L82.3559 97.33Z" fill="white" stroke="white" stroke-width="0.2"/>
<path d="M62.7789 75.8242C63.2905 75.8164 63.7007 75.4032 63.7007 74.8955C63.7007 74.3862 63.2905 73.973 62.7789 73.9668C62.2673 73.973 61.8555 74.3862 61.8555 74.8955C61.8555 75.4031 62.2672 75.8164 62.7789 75.8242Z" fill="white" stroke="white" stroke-width="0.2"/>
<path d="M59.6406 75.8242C60.1522 75.8164 60.564 75.4032 60.564 74.8955C60.564 74.3862 60.1522 73.973 59.6406 73.9668C59.129 73.973 58.7188 74.3862 58.7188 74.8955C58.7188 75.4031 59.129 75.8164 59.6406 75.8242Z" fill="white" stroke="white" stroke-width="0.2"/>
<path d="M65.8453 75.8242C66.3569 75.8164 66.7671 75.4032 66.7671 74.8955C66.7671 74.3862 66.3569 73.973 65.8453 73.9668C65.3337 73.973 64.9219 74.3862 64.9219 74.8955C64.9219 75.4031 65.3336 75.8164 65.8453 75.8242Z" fill="white" stroke="white" stroke-width="0.2"/>
<path d="M59.6132 82.7327L61.3338 82.725V82.7265C61.6342 83.5833 62.4475 84.1576 63.3626 84.1591C64.276 84.1607 65.091 83.588 65.396 82.7328H73.9348C74.2758 82.7281 74.5511 82.4518 74.5511 82.1119C74.5511 81.7736 74.2758 81.4973 73.9348 81.4911H65.4428C65.1988 80.5536 64.3463 79.8971 63.3687 79.8955C62.3927 79.894 61.5386 80.5474 61.2899 81.4849L59.61 81.4911H59.6116C59.2706 81.5004 59 81.7767 59 82.1135C59 82.4518 59.2738 82.7265 59.6132 82.7327ZM63.3657 81.1372C63.86 81.1465 64.2557 81.5469 64.2557 82.0374C64.2557 82.5263 63.86 82.9267 63.3657 82.936C62.8714 82.9267 62.4772 82.5263 62.4772 82.0374C62.4772 81.5469 62.8714 81.1465 63.3657 81.1372Z" fill="white" stroke="white" stroke-width="0.2"/>
<path d="M72.7507 85.3672C71.7746 85.3703 70.9221 86.0253 70.6734 86.9612L59.6131 86.9628C59.2721 86.9705 59 87.2468 59 87.5836C59 87.922 59.2722 88.1982 59.6131 88.2044L70.7203 88.2029C70.9831 88.9587 71.651 89.5051 72.4487 89.62C73.248 89.7333 74.0426 89.3949 74.5103 88.7415C74.9764 88.0896 75.0374 87.2328 74.6667 86.522C74.296 85.8126 73.5578 85.3656 72.7507 85.3672ZM72.7507 88.4078C72.2564 88.3984 71.8591 87.9996 71.8591 87.5091C71.8606 87.0171 72.2564 86.6182 72.7507 86.6089C73.245 86.6182 73.6423 87.0171 73.6423 87.5091C73.6423 87.9996 73.245 88.4 72.7507 88.4078Z" fill="white"/>
<path d="M72.7507 88.4062V88.4078M72.7507 88.4078C72.2564 88.3984 71.8591 87.9996 71.8591 87.5091C71.8606 87.0171 72.2564 86.6182 72.7507 86.6089C73.245 86.6182 73.6423 87.0171 73.6423 87.5091C73.6423 87.9996 73.245 88.4 72.7507 88.4078ZM72.7507 85.3672C71.7746 85.3703 70.9221 86.0253 70.6734 86.9612L59.6131 86.9628C59.2721 86.9705 59 87.2468 59 87.5836C59 87.922 59.2722 88.1982 59.6131 88.2044L70.7203 88.2029C70.9831 88.9587 71.651 89.5051 72.4487 89.62C73.248 89.7333 74.0426 89.3949 74.5103 88.7415C74.9764 88.0896 75.0374 87.2328 74.6667 86.522C74.296 85.8126 73.5578 85.3656 72.7507 85.3672Z" stroke="white" stroke-width="0.2"/>
<path d="M74.0065 92.9278L69.2858 92.917C69.1403 91.8616 68.23 91.0746 67.1554 91.0762C66.0808 91.0793 65.1736 91.8693 65.0312 92.9247L59.6835 92.9278C59.3425 92.9356 59.0703 93.2103 59.0703 93.5487C59.0719 93.887 59.344 94.1633 59.6851 94.1695L65.2362 94.1664C65.596 94.8974 66.3452 95.36 67.1649 95.3584C67.9829 95.3569 68.7306 94.8897 69.0872 94.1587L74.0049 94.1695C74.3459 94.1633 74.6181 93.887 74.6181 93.5502C74.6181 93.2119 74.3474 92.9356 74.0065 92.9278ZM67.1583 94.1168C66.664 94.109 66.2651 93.7086 66.2651 93.2165C66.2651 92.7261 66.664 92.3256 67.1583 92.3179C67.6541 92.3256 68.0515 92.7261 68.0515 93.2165C68.0515 93.7086 67.6541 94.109 67.1583 94.1168Z" fill="white" stroke="white" stroke-width="0.2"/>
</g>
</svg>
