<svg width="181" height="181" viewBox="0 0 181 181" fill="none" xmlns="http://www.w3.org/2000/svg">
<rect width="181" height="179.603" rx="48" transform="matrix(-1 0 0 1 181 0.947266)" fill="black"/>
<mask id="mask0_5801_46471" style="mask-type:alpha" maskUnits="userSpaceOnUse" x="40" y="41" width="100" height="100">
<rect width="100" height="99.2282" transform="matrix(-1 0 0 1 140 41.6309)" fill="#D9D9D9"/>
</mask>
<g mask="url(#mask0_5801_46471)">
<path d="M83.2734 59.1393C84.1028 58.5744 84.7328 57.7509 85.07 56.7907C85.4072 55.8305 85.4338 54.7846 85.1458 53.8078C84.8579 52.8309 84.2706 51.9749 83.471 51.3666C82.6714 50.7582 81.7019 50.4297 80.7059 50.4297C79.7099 50.4297 78.7404 50.7582 77.9408 51.3666C77.1412 51.9749 76.554 52.8309 76.266 53.8078C75.978 54.7846 76.0046 55.8305 76.3418 56.7907C76.6791 57.7509 77.309 58.5744 78.1384 59.1393C77.3188 59.5093 76.5903 60.0626 76.0064 60.7586C75.4226 61.4546 74.9982 62.2756 74.7643 63.1615C74.7193 63.3355 74.7436 63.5206 74.8318 63.6763C74.92 63.8319 74.7337 64.56 74.9035 64.6062C74.9574 64.6218 75.0131 64.6298 75.0691 64.63C75.2159 64.6298 75.3585 64.5798 75.4745 64.4876C75.5906 64.3955 75.6734 64.2664 75.7101 64.1208C76.2551 62.0197 78.5012 59.942 80.7009 59.942C82.9007 59.942 84.9303 61.9323 85.4752 64.0283C85.4956 64.1165 85.5331 64.1996 85.5854 64.2728C85.6376 64.3459 85.7037 64.4076 85.7796 64.4541C85.8555 64.5007 85.9398 64.5312 86.0274 64.5439C86.115 64.5565 86.2042 64.5511 86.2898 64.5278C86.3753 64.5046 86.3407 63.9418 86.4107 63.8863C86.4806 63.8308 86.5391 63.7616 86.5825 63.6826C86.6259 63.6036 86.6535 63.5165 86.6635 63.4264C86.6735 63.3363 86.6659 63.2451 86.6409 63.1581C86.4075 62.2734 85.984 61.4534 85.4013 60.758C84.8186 60.0626 84.0916 59.5096 83.2734 59.1393ZM77.393 55.1849C77.393 54.5135 77.5873 53.8573 77.9514 53.2991C78.3154 52.7409 78.8328 52.3058 79.4381 52.0489C80.0435 51.792 80.7096 51.7248 81.3522 51.8558C81.9949 51.9867 82.5852 52.31 83.0485 52.7847C83.5118 53.2594 83.8273 53.8642 83.9551 54.5227C84.083 55.1811 84.0174 55.8636 83.7666 56.4838C83.5159 57.104 83.0912 57.6342 82.5464 58.0071C82.0016 58.3801 81.3611 58.5792 80.7059 58.5792C79.8273 58.5792 78.9846 58.2216 78.3634 57.585C77.7421 56.9485 77.393 56.0851 77.393 55.1849Z" fill="white" stroke="white" stroke-width="0.1"/>
<path d="M107.739 114.005C107.223 114.516 106.813 115.124 106.534 115.792C106.254 116.461 106.111 117.178 106.111 117.901C106.111 118.625 106.254 119.342 106.534 120.01C106.813 120.679 107.223 121.286 107.739 121.797C107.85 121.907 107.938 122.038 107.998 122.182C108.058 122.325 108.088 122.479 108.088 122.635C108.088 122.79 108.058 122.944 107.998 123.088C107.938 123.231 107.85 123.362 107.739 123.472C107.628 123.582 107.497 123.669 107.352 123.729C107.207 123.788 107.052 123.819 106.895 123.819C106.738 123.819 106.583 123.788 106.439 123.729C106.294 123.669 106.162 123.582 106.051 123.472C104.563 121.994 103.726 119.991 103.726 117.901C103.726 115.812 104.563 113.808 106.051 112.331L108.848 109.559C109.374 109.049 109.792 108.441 110.079 107.77C110.366 107.098 110.516 106.377 110.52 105.648C110.524 104.919 110.383 104.196 110.103 103.522C109.824 102.847 109.412 102.234 108.893 101.719C108.373 101.203 107.755 100.795 107.075 100.518C106.396 100.241 105.667 100.101 104.932 100.105C104.198 100.11 103.471 100.259 102.794 100.544C102.118 100.829 101.505 101.245 100.992 101.766L81.0882 121.511C79.5966 122.975 77.5813 123.795 75.4828 123.789C73.3842 123.784 71.3732 122.954 69.8893 121.482C68.4054 120.009 67.5694 118.014 67.5639 115.931C67.5585 113.849 68.3841 111.849 69.8603 110.369L99.3045 81.1581C99.8301 80.6484 100.249 80.0403 100.536 79.3691C100.823 78.6978 100.973 77.9767 100.977 77.2475C100.981 76.5183 100.839 75.7956 100.56 75.1211C100.28 74.4467 99.8689 73.8339 99.3492 73.3184C98.8295 72.8029 98.2118 72.3948 97.532 72.1179C96.8522 71.8409 96.1238 71.7006 95.3889 71.705C94.6541 71.7094 93.9274 71.8584 93.251 72.1435C92.5746 72.4286 91.962 72.844 91.4486 73.3657L71.5477 93.11C70.0562 94.5747 68.0408 95.394 65.9423 95.3886C63.8438 95.3832 61.8327 94.5536 60.3489 93.0811C58.865 91.6087 58.0289 89.6132 58.0235 87.5309C58.018 85.4485 58.8436 83.4487 60.3198 81.9687L72.6568 69.7298C72.7666 69.6154 72.8983 69.524 73.0442 69.4609C73.1901 69.3977 73.3473 69.3643 73.5065 69.3624C73.6656 69.3605 73.8236 69.3903 73.9709 69.4499C74.1183 69.5095 74.2522 69.5979 74.3647 69.7096C74.4771 69.8214 74.5659 69.9544 74.6257 70.1008C74.6856 70.2471 74.7153 70.4039 74.7131 70.5618C74.7109 70.7198 74.6769 70.8757 74.6131 71.0204C74.5492 71.165 74.4568 71.2956 74.3413 71.4043L62.0043 83.6431C61.4787 84.1528 61.0603 84.7609 60.7733 85.4321C60.4862 86.1034 60.3363 86.8245 60.3321 87.5537C60.328 88.2829 60.4697 89.0057 60.7491 89.6801C61.0284 90.3546 61.4399 90.9673 61.9596 91.4828C62.4794 91.9983 63.097 92.4064 63.7768 92.6833C64.4566 92.9603 65.185 93.1006 65.9199 93.0962C66.6548 93.0918 67.3814 92.9428 68.0578 92.6577C68.7342 92.3727 69.3468 91.9572 69.8603 91.4355L89.7641 71.6912C91.2556 70.2265 93.271 69.4072 95.3695 69.4126C97.468 69.418 99.4791 70.2476 100.963 71.7201C102.447 73.1925 103.283 75.188 103.288 77.2704C103.294 79.3527 102.468 81.3525 100.992 82.8325L71.5477 112.044C71.0222 112.553 70.6037 113.161 70.3167 113.833C70.0297 114.504 69.8797 115.225 69.8756 115.954C69.8714 116.683 70.0132 117.406 70.2925 118.081C70.5719 118.755 70.9834 119.368 71.5031 119.883C72.0228 120.399 72.6405 120.807 73.3203 121.084C74.0001 121.361 74.7285 121.501 75.4634 121.497C76.1982 121.492 76.9249 121.343 77.6013 121.058C78.2776 120.773 78.8903 120.358 79.4037 119.836L99.3045 100.092C100.796 98.627 102.811 97.8078 104.91 97.8132C107.009 97.8186 109.02 98.6482 110.503 100.121C111.987 101.593 112.823 103.589 112.829 105.671C112.834 107.753 112.009 109.753 110.532 111.233L107.739 114.005Z" fill="white" stroke="white" stroke-width="0.02"/>
<path d="M80.6862 43.3281C77.8405 43.331 75.1123 44.3986 73.1001 46.2966C71.0879 48.1947 69.9562 50.7681 69.9531 53.4524C69.9531 57.1188 71.7637 61.0202 75.1919 64.7361C76.7427 66.4265 78.4882 67.9489 80.3961 69.2751C80.4819 69.3316 80.5841 69.3619 80.6887 69.3619C80.7934 69.3619 80.8955 69.3316 80.9813 69.2751C82.8874 67.9486 84.6312 66.4262 86.1805 64.7361C89.6061 61.0202 91.4192 57.1188 91.4192 53.4524C91.4161 50.7681 90.2844 48.1947 88.2722 46.2966C86.26 44.3986 83.5318 43.331 80.6862 43.3281ZM85.4266 64.0864C83.9986 65.629 82.4106 67.0329 80.6862 68.2772C78.9615 67.0314 77.3734 65.6259 75.9457 64.0816C73.6777 61.6241 70.9753 57.7793 70.9753 53.4524C70.9753 51.023 71.9984 48.6931 73.8196 46.9753C75.6407 45.2574 78.1107 44.2923 80.6862 44.2923C83.2616 44.2923 85.7316 45.2574 87.5528 46.9753C89.3739 48.6931 90.397 51.023 90.397 53.4524C90.397 57.7793 87.6946 61.6241 85.4266 64.0864Z" fill="white" stroke="white" stroke-width="0.3"/>
<path d="M120.029 129.857C120.06 129.888 120.084 129.924 120.101 129.964C120.118 130.005 120.127 130.048 120.127 130.091C120.127 130.135 120.118 130.178 120.101 130.218C120.084 130.258 120.06 130.295 120.029 130.326L115.354 134.965C115.323 134.995 115.286 135.02 115.246 135.036C115.205 135.053 115.162 135.062 115.118 135.062C115.074 135.062 115.03 135.053 114.99 135.036C114.949 135.02 114.912 134.995 114.881 134.965L112.878 132.976C112.815 132.914 112.78 132.83 112.78 132.742C112.78 132.654 112.815 132.57 112.878 132.508C112.941 132.445 113.026 132.411 113.114 132.411C113.203 132.411 113.288 132.445 113.35 132.508L115.118 134.261L119.556 129.857C119.587 129.826 119.624 129.802 119.665 129.785C119.705 129.768 119.749 129.76 119.793 129.76C119.836 129.76 119.88 129.768 119.92 129.785C119.961 129.802 119.998 129.826 120.029 129.857ZM124.801 132.079C124.801 133.718 124.312 135.319 123.394 136.681C122.477 138.044 121.173 139.105 119.648 139.732C118.123 140.359 116.444 140.523 114.825 140.204C113.205 139.884 111.718 139.095 110.551 137.937C109.383 136.778 108.588 135.302 108.266 133.695C107.944 132.089 108.109 130.423 108.741 128.909C109.373 127.396 110.443 126.102 111.816 125.192C113.188 124.282 114.802 123.796 116.453 123.796C118.667 123.798 120.789 124.672 122.354 126.225C123.919 127.778 124.799 129.883 124.801 132.079ZM124.133 132.079C124.133 130.572 123.683 129.099 122.839 127.845C121.995 126.592 120.796 125.615 119.392 125.039C117.989 124.462 116.445 124.311 114.955 124.605C113.465 124.899 112.097 125.625 111.023 126.691C109.949 127.756 109.217 129.114 108.921 130.593C108.625 132.071 108.777 133.603 109.358 134.996C109.939 136.388 110.924 137.578 112.187 138.416C113.45 139.253 114.934 139.7 116.453 139.7C118.49 139.698 120.442 138.894 121.882 137.466C123.321 136.037 124.131 134.1 124.133 132.079Z" fill="white" stroke="white" stroke-width="0.3"/>
</g>
</svg>
