<svg width="181" height="181" viewBox="0 0 181 181" fill="none" xmlns="http://www.w3.org/2000/svg">
<rect y="0.964844" width="181" height="179.603" rx="48" fill="black"/>
<mask id="mask0_5801_46544" style="mask-type:alpha" maskUnits="userSpaceOnUse" x="40" y="41" width="100" height="100">
<rect x="40" y="41.6484" width="100" height="99.2282" fill="#D9D9D9"/>
</mask>
<g mask="url(#mask0_5801_46544)">
<path d="M102.429 48.102L107.329 48.0709L107.316 44.6815L102.416 44.7214L102.429 48.102ZM113.867 107.971C119.188 107.975 123.771 111.871 124.805 117.274C125.842 122.678 123.047 128.086 118.125 130.193C113.207 132.3 107.535 130.517 104.576 125.938C101.618 121.355 102.201 115.251 105.966 111.356C108.058 109.182 110.901 107.967 113.867 107.971ZM120.037 113.153C117.096 110.109 112.487 109.639 109.032 112.03C105.572 114.422 104.226 119.004 105.82 122.984C107.411 126.959 111.497 129.217 115.574 128.378C119.656 127.54 122.593 123.831 122.593 119.528C122.597 117.136 121.679 114.839 120.037 113.153ZM125.379 101.911V101.907C125.559 101.907 125.744 101.92 125.919 101.946C126.58 102.057 127.188 102.381 127.66 102.869L129.971 105.26C130.944 106.259 131.18 107.798 130.55 109.058L130.035 110.096C129.979 110.203 129.949 110.318 129.945 110.442C129.954 110.558 129.984 110.673 130.035 110.779C130.297 111.294 130.528 111.8 130.73 112.301C130.94 112.82 131.12 113.352 131.287 113.889V113.885C131.351 114.115 131.523 114.297 131.746 114.364L132.822 114.723C134.125 115.158 135.004 116.414 135 117.829V121.214C135.004 122.629 134.125 123.884 132.822 124.319L131.746 124.679C131.523 124.745 131.351 124.927 131.287 125.158C131.12 125.695 130.94 126.222 130.73 126.737C130.52 127.252 130.297 127.749 130.035 128.263C129.984 128.37 129.954 128.485 129.945 128.6C129.949 128.72 129.979 128.84 130.035 128.942L130.55 129.98V129.985C131.18 131.244 130.944 132.779 129.971 133.782L127.66 136.173C126.695 137.18 125.212 137.42 123.99 136.768L122.987 136.235V136.24C122.884 136.182 122.772 136.151 122.657 136.151C122.541 136.151 122.429 136.182 122.331 136.24C121.833 136.511 121.34 136.75 120.856 136.959C120.371 137.167 119.848 137.362 119.329 137.535V137.531C119.218 137.562 119.115 137.62 119.034 137.704C118.956 137.784 118.896 137.886 118.862 138.001L118.515 139.115V139.11C118.095 140.459 116.881 141.373 115.514 141.373H112.234C110.866 141.373 109.653 140.459 109.233 139.11L108.885 137.997V138.001C108.851 137.886 108.795 137.784 108.714 137.704C108.628 137.62 108.53 137.562 108.418 137.526C107.899 137.353 107.385 137.167 106.883 136.95C106.403 136.741 105.91 136.502 105.413 136.231H105.417C105.318 136.178 105.207 136.147 105.091 136.147C104.975 136.142 104.864 136.173 104.761 136.231L103.758 136.763C102.54 137.416 101.052 137.172 100.088 136.164L97.7768 133.773C96.8035 132.775 96.572 131.24 97.198 129.976L97.7125 128.938C97.7639 128.831 97.7939 128.716 97.7982 128.596C97.7939 128.476 97.7639 128.361 97.7125 128.259C97.4509 127.744 97.2194 127.238 97.0179 126.737L96.9707 126.608L66.0764 126.613C65.4119 126.608 64.8673 126.058 64.8545 125.366V119.528C64.8545 118.831 65.399 118.264 66.0764 118.264H80.8167V112.532H57.545C56.8676 112.532 56.3188 111.968 56.3188 111.267V104.027H56.1473C54.6724 104.023 53.4805 102.79 53.472 101.263V96.7205H47.6668C46.1919 96.7116 45.0001 95.4739 45.0001 93.9478V51.6073C44.9958 51.1947 45.193 50.8043 45.5188 50.5692L55.5342 42.4152V42.4196C55.7485 42.2421 56.0143 42.1445 56.2887 42.1445H85.2119C86.6868 42.149 87.8829 43.3868 87.8872 44.9128V49.4557H93.688C95.1672 49.4601 96.3634 50.6979 96.3676 52.224V64.0513H100.063L99.9862 49.3802L99.9733 43.4754C99.9691 42.7788 100.509 42.211 101.182 42.2065L108.522 42.1577V42.1533C109.2 42.1533 109.749 42.7123 109.757 43.4133L109.779 49.3225V49.3358L109.856 64.0558L124.149 64.0513C124.823 64.0513 125.376 64.6192 125.376 65.3201L125.379 101.911ZM94.3904 124.093C93.3657 123.534 92.7269 122.424 92.7354 121.227V120.801H67.2982V124.101L94.3904 124.093ZM92.7354 118.263V117.837C92.7312 116.418 93.6144 115.158 94.9177 114.727L95.9896 114.368H95.9939C96.1011 114.333 96.1997 114.275 96.2811 114.191C96.3583 114.106 96.4183 114.004 96.4483 113.889C96.5855 113.432 96.7399 112.975 96.9114 112.536H83.2686V118.268L92.7354 118.263ZM97.6488 109.994L97.1858 109.058V109.062C96.5555 107.802 96.7913 106.263 97.7646 105.265L100.076 102.873C101.04 101.866 102.528 101.622 103.746 102.274L104.749 102.807C104.852 102.86 104.967 102.891 105.079 102.896C105.195 102.891 105.306 102.86 105.405 102.807C105.902 102.536 106.395 102.297 106.875 102.088C107.377 101.871 107.891 101.68 108.41 101.511C108.517 101.476 108.62 101.418 108.702 101.338C108.783 101.25 108.843 101.148 108.873 101.032L109.22 99.9232C109.641 98.5745 110.854 97.6606 112.226 97.6606H115.493C116.162 97.6606 116.813 97.878 117.354 98.2862C117.894 98.6899 118.297 99.2622 118.494 99.9232L118.841 101.032C118.876 101.148 118.931 101.25 119.013 101.338C119.094 101.418 119.197 101.48 119.304 101.511C119.823 101.676 120.333 101.871 120.831 102.088C121.328 102.305 121.808 102.536 122.306 102.807H122.31C122.409 102.86 122.52 102.891 122.636 102.896C122.734 102.896 122.837 102.873 122.927 102.825V66.584H109.872L109.936 78.9167V78.9122C109.957 79.2006 109.885 79.489 109.726 79.7285L107.908 82.5057L106.086 85.2917C106 85.4204 105.893 85.5357 105.769 85.6244C105.503 85.8152 105.177 85.8862 104.855 85.8285C104.538 85.7664 104.255 85.5801 104.071 85.305L100.375 79.7729H100.379C100.354 79.7329 100.328 79.693 100.302 79.6531V79.6442C100.289 79.622 100.281 79.5954 100.268 79.5732L100.264 79.5643L100.268 79.5555C100.255 79.5333 100.247 79.5067 100.242 79.48L100.238 79.4712C100.238 79.4534 100.229 79.4446 100.221 79.4268V79.4179L100.208 79.3958V79.378C100.204 79.3647 100.199 79.347 100.199 79.3292V79.2715L100.195 79.2627V79.1917L100.191 79.1828V79.1296L100.187 79.1207V79.0542L100.122 66.5795H96.3665V79.1791C96.5765 79.361 96.778 79.5562 96.971 79.7558H96.9667C100.8 83.7219 100.8 90.1546 96.9667 94.1203C96.7738 94.3244 96.5722 94.5107 96.3622 94.7015V101.263H96.3665C96.3579 102.784 95.1617 104.022 93.6868 104.027H58.771V109.998L97.6488 109.994ZM125.101 104.519L124.754 104.706L124.655 104.754L124.094 105.047L124.098 105.052C123.189 105.54 122.104 105.535 121.2 105.038C120.797 104.821 120.372 104.613 119.918 104.417C119.485 104.227 119.043 104.062 118.593 103.92C118.113 103.77 117.671 103.499 117.311 103.131V103.126C116.951 102.758 116.685 102.306 116.531 101.809L116.183 100.704C116.141 100.553 116.055 100.425 115.935 100.327C115.806 100.243 115.656 100.194 115.506 100.194H112.235C112.085 100.194 111.935 100.238 111.81 100.327C111.69 100.425 111.6 100.553 111.557 100.704L111.206 101.809C111.056 102.306 110.79 102.758 110.43 103.126V103.131C110.07 103.499 109.628 103.77 109.144 103.92C108.693 104.062 108.256 104.231 107.823 104.417C107.369 104.613 106.94 104.821 106.541 105.038C105.636 105.535 104.556 105.54 103.647 105.056L102.644 104.524C102.507 104.453 102.352 104.426 102.202 104.448C102.052 104.475 101.919 104.55 101.812 104.661L99.5012 107.053C99.394 107.159 99.3211 107.301 99.2954 107.456C99.274 107.612 99.2997 107.771 99.3683 107.909L99.8828 108.947V108.951C100.303 109.79 100.346 110.779 99.9985 111.658C99.9685 111.751 99.9299 111.839 99.8828 111.924L99.8699 111.946C99.6555 112.363 99.4583 112.802 99.274 113.272C99.0896 113.72 98.9267 114.173 98.7938 114.639L98.7895 114.634C98.4979 115.655 97.7305 116.458 96.7529 116.768L95.6854 117.132V117.136C95.5396 117.181 95.411 117.27 95.321 117.394C95.2352 117.527 95.1881 117.678 95.1923 117.837V121.222V121.218C95.188 121.378 95.2352 121.533 95.321 121.662C95.411 121.786 95.5396 121.879 95.6854 121.923L96.7529 122.283V122.278C97.2331 122.438 97.6662 122.717 98.0219 123.086C98.3778 123.458 98.6393 123.915 98.7851 124.412C98.8323 124.567 98.8837 124.714 98.9309 124.865V124.869C98.9523 124.913 98.9695 124.962 98.978 125.016C99.0681 125.277 99.1667 125.53 99.2653 125.783C99.4496 126.253 99.6511 126.697 99.8569 127.11H99.8612C100.101 127.571 100.226 128.086 100.23 128.609C100.234 129.128 100.114 129.643 99.8827 130.108L99.3682 131.147C99.2996 131.284 99.2739 131.444 99.2953 131.599C99.321 131.754 99.3939 131.896 99.5011 132.003L101.812 134.394C101.919 134.505 102.052 134.58 102.202 134.611C102.352 134.634 102.507 134.603 102.644 134.532L103.647 133.999C104.556 133.516 105.636 133.525 106.541 134.017C106.944 134.234 107.368 134.443 107.823 134.638C108.256 134.82 108.693 134.984 109.143 135.135C109.628 135.286 110.069 135.556 110.43 135.925C110.786 136.293 111.051 136.741 111.206 137.238L111.557 138.347V138.351C111.6 138.498 111.69 138.631 111.81 138.728C111.935 138.813 112.085 138.861 112.235 138.857H115.506C115.656 138.861 115.806 138.813 115.93 138.728C116.05 138.631 116.14 138.498 116.183 138.351L116.531 137.242V137.238C116.685 136.741 116.951 136.293 117.311 135.925C117.671 135.561 118.108 135.29 118.593 135.135C119.047 134.984 119.485 134.82 119.918 134.638C120.372 134.443 120.801 134.234 121.2 134.017C122.104 133.525 123.185 133.516 124.094 133.999L125.097 134.532C125.371 134.687 125.71 134.629 125.924 134.394L128.235 132.003C128.462 131.781 128.518 131.431 128.368 131.147L127.854 130.108H127.858C127.386 129.168 127.395 128.046 127.871 127.11C128.081 126.692 128.282 126.253 128.471 125.783C128.647 125.335 128.81 124.882 128.951 124.412C129.251 123.401 130.01 122.602 130.988 122.278L132.06 121.919V121.923C132.205 121.875 132.334 121.786 132.424 121.662C132.51 121.533 132.553 121.378 132.553 121.218V117.837C132.553 117.678 132.51 117.522 132.424 117.394C132.334 117.27 132.205 117.181 132.06 117.132L130.988 116.768C130.508 116.613 130.07 116.338 129.714 115.97C129.358 115.597 129.097 115.136 128.951 114.634C128.81 114.169 128.647 113.716 128.471 113.268C128.282 112.798 128.081 112.359 127.871 111.942V111.946C127.635 111.485 127.511 110.97 127.511 110.446C127.506 109.923 127.622 109.408 127.858 108.947L128.372 107.913C128.445 107.771 128.471 107.616 128.45 107.456C128.424 107.306 128.351 107.164 128.24 107.057L125.929 104.666C125.826 104.551 125.688 104.475 125.538 104.448C125.388 104.426 125.234 104.453 125.101 104.524L125.101 104.519ZM105.049 82.3469L106.395 80.2928L103.685 80.3106L105.049 82.3469ZM102.583 77.7863L107.484 77.7597L107.419 65.4395H107.415C107.411 65.3996 107.411 65.3596 107.411 65.3197C107.411 65.2842 107.411 65.2487 107.415 65.2132L107.334 50.6046L102.433 50.6312L102.51 65.2001L102.515 65.2045V65.3243V65.4308L102.583 77.7863ZM85.6095 87.7326C85.1079 87.2624 85.0736 86.4594 85.528 85.9448C85.9825 85.4258 86.7542 85.3858 87.2558 85.8561L89.2494 87.7326L92.7007 83.5137H92.6965C92.9065 83.2519 93.2066 83.0833 93.5325 83.0523C93.8626 83.0257 94.1842 83.1277 94.4371 83.3495C94.6858 83.5713 94.8401 83.8819 94.8659 84.2235C94.8873 84.5607 94.7801 84.8934 94.5615 85.1507L90.3127 90.3412C90.2955 90.3634 90.2784 90.3812 90.2569 90.3989C89.8025 90.9135 89.0307 90.9535 88.5334 90.4832L85.6095 87.7326ZM93.9184 77.6132V52.2278C93.9141 52.1657 93.8927 52.108 93.8498 52.0637C93.8112 52.0193 93.7512 51.9927 93.6912 51.9882H65.9907V58.94C65.9907 59.2772 65.8621 59.5966 65.6349 59.8362C65.4077 60.0758 65.0947 60.2133 64.7688 60.2133H55.9283V101.264C55.9283 101.321 55.9497 101.379 55.9926 101.423C56.0312 101.468 56.0912 101.494 56.1512 101.494H93.6869C93.8156 101.49 93.9142 101.383 93.9142 101.255V96.2682C90.8787 97.6258 87.3888 97.3108 84.6278 95.4298C81.8667 93.5532 80.2032 90.359 80.2032 86.9385C80.2032 83.5181 81.8667 80.3283 84.6278 78.4517C87.3888 76.5707 90.8787 76.2557 93.9142 77.6088L93.9184 77.6132ZM95.2432 81.5572H95.2389C92.7565 78.9841 88.8635 78.5848 85.9395 80.6034C83.0198 82.6219 81.8837 86.4949 83.2256 89.8532C84.5676 93.2115 88.0189 95.1236 91.4659 94.4138C94.9086 93.7039 97.3953 90.5763 97.3953 86.9429C97.3953 84.92 96.6193 82.9812 95.2344 81.5527L95.2432 81.5572ZM87.9289 64.584C88.5934 64.6017 89.1207 65.1652 89.1207 65.8528C89.1207 66.536 88.5934 67.0995 87.9289 67.1216H61.9088C61.2486 67.0995 60.7212 66.536 60.7212 65.8528C60.7212 65.1652 61.2486 64.6017 61.9088 64.584H87.9289ZM87.9289 71.5003V71.4958C88.6063 71.4958 89.1508 72.0637 89.1508 72.7646C89.1508 73.4611 88.6063 74.029 87.9289 74.029H61.9088C61.2357 74.029 60.6869 73.4612 60.6869 72.7646C60.6869 72.0637 61.2357 71.4958 61.9088 71.4958L87.9289 71.5003ZM75.0544 78.4121V78.4076C75.7318 78.4076 76.2806 78.9755 76.2806 79.6765C76.2806 80.3774 75.7318 80.9453 75.0544 80.9453H61.9088C61.2314 80.9453 60.6826 80.3774 60.6826 79.6765C60.6826 78.9755 61.2314 78.4076 61.9088 78.4076L75.0544 78.4121ZM75.0544 85.3283V85.3195C75.7318 85.3195 76.2806 85.8873 76.2806 86.5883C76.2806 87.2848 75.7318 87.8527 75.0544 87.8527H61.9088C61.2357 87.8527 60.6869 87.2848 60.6869 86.5883C60.6869 85.8873 61.2357 85.3195 61.9088 85.3195L75.0544 85.3283ZM75.0544 92.2357V92.2313C75.7189 92.2491 76.2462 92.8125 76.2462 93.5001C76.2462 94.1833 75.7189 94.7468 75.0544 94.7689H61.9088C61.2486 94.7468 60.7212 94.1833 60.7212 93.5001C60.7212 92.8125 61.2486 92.249 61.9088 92.2313L75.0544 92.2357ZM49.7247 50.3609H55.0625V46.0222L49.7247 50.3609ZM57.5149 44.6824V51.6297C57.5106 52.3307 56.9618 52.8985 56.2844 52.8985H47.4439V93.9488C47.4439 94.011 47.4696 94.0686 47.5124 94.1086C47.5553 94.1529 47.6111 94.1795 47.6668 94.184H53.4719V58.919L53.4762 58.9146C53.4762 58.502 53.6692 58.116 53.995 57.8765L63.9631 49.7668C64.1861 49.5672 64.4733 49.4562 64.7692 49.4562H85.4342V44.9134C85.4342 44.8513 85.4084 44.7892 85.3656 44.7448C85.3227 44.7049 85.2713 44.6783 85.2112 44.6783L57.5149 44.6824ZM63.543 53.3333L60.9191 55.4672L58.2095 57.6721H63.543V53.3333Z" fill="white"/>
</g>
</svg>
