<svg width="181" height="181" viewBox="0 0 181 181" fill="none" xmlns="http://www.w3.org/2000/svg">
<rect width="181" height="179.603" rx="48" transform="matrix(-1 0 0 1 181 0.649902)" fill="black"/>
<mask id="mask0_5801_46441" style="mask-type:alpha" maskUnits="userSpaceOnUse" x="40" y="41" width="100" height="100">
<rect width="100" height="99.2282" transform="matrix(-1 0 0 1 140 41.3335)" fill="#D9D9D9"/>
</mask>
<g mask="url(#mask0_5801_46441)">
<path d="M84.2612 111.122C84.564 111.122 84.8544 110.98 85.0684 110.727C85.2825 110.474 85.4028 110.131 85.4028 109.773C85.4028 109.415 85.2825 109.072 85.0684 108.819C84.8544 108.566 84.564 108.423 84.2612 108.423H58.5478C58.245 108.423 57.9547 108.566 57.7406 108.819C57.5265 109.072 57.4062 109.415 57.4062 109.773C57.4062 110.131 57.5265 110.474 57.7406 110.727C57.9547 110.98 58.245 111.122 58.5478 111.122H84.2612ZM58.5478 99.6124H97.1371C97.4399 99.6124 97.7302 99.4702 97.9443 99.2171C98.1584 98.964 98.2787 98.6208 98.2787 98.2629C98.2787 97.9049 98.1584 97.5617 97.9443 97.3086C97.7302 97.0555 97.4399 96.9133 97.1371 96.9133H58.5478C58.245 96.9133 57.9547 97.0555 57.7406 97.3086C57.5265 97.5617 57.4062 97.9049 57.4062 98.2629C57.4062 98.6208 57.5265 98.964 57.7406 99.2171C57.9547 99.4702 58.245 99.6124 58.5478 99.6124ZM58.5478 88.1023H77.6484C77.9512 88.1023 78.2415 87.9602 78.4556 87.7071C78.6697 87.454 78.79 87.1107 78.79 86.7528C78.79 86.3949 78.6697 86.0517 78.4556 85.7986C78.2415 85.5455 77.9512 85.4033 77.6484 85.4033H58.5478C58.245 85.4033 57.9547 85.5455 57.7406 85.7986C57.5265 86.0517 57.4062 86.3949 57.4062 86.7528C57.4062 87.1107 57.5265 87.454 57.7406 87.7071C57.9547 87.9602 58.245 88.1023 58.5478 88.1023Z" fill="white"/>
<path d="M109.954 64.6869L106.747 60.9758C106.553 60.7511 106.278 60.6124 105.981 60.59C105.684 60.5676 105.39 60.6635 105.164 60.8565C104.939 61.0495 104.799 61.3238 104.777 61.6192C104.754 61.9145 104.851 62.2066 105.045 62.4313L109.015 67.0255C109.113 67.1396 109.234 67.2327 109.37 67.2992C109.506 67.3656 109.653 67.4041 109.804 67.4124C109.955 67.4206 110.107 67.3984 110.249 67.347C110.391 67.2957 110.521 67.2163 110.632 67.1136L119.034 59.3059C119.252 59.1038 119.38 58.8239 119.39 58.5278C119.4 58.2318 119.292 57.9438 119.089 57.7273C118.885 57.5108 118.604 57.3834 118.306 57.3732C118.009 57.363 117.719 57.4709 117.502 57.673L109.954 64.6869Z" fill="white"/>
<ellipse cx="66.2209" cy="60.8983" rx="4.21701" ry="4.18447" stroke="white" stroke-width="2.2"/>
<ellipse cx="66.5039" cy="73.5825" rx="7.5" ry="4.96141" stroke="white" stroke-width="2.2"/>
<path d="M129.175 89.9728C129.175 104.189 129.175 111.297 126.92 116.974C123.295 126.101 115.628 133.3 105.909 136.704C99.8636 138.821 92.2941 138.821 77.1551 138.821C68.5042 138.821 64.1788 138.821 60.7242 137.611C55.1704 135.666 50.7896 131.552 48.7182 126.337C47.4297 123.093 47.4297 119.031 47.4297 110.908V54.1555C47.4297 48.835 47.4297 46.1748 49.0825 44.522C50.7354 42.8691 53.3956 42.8691 58.716 42.8691H92.0178H101.963" stroke="white" stroke-width="2.5" stroke-linecap="round" stroke-linejoin="round"/>
<path d="M129.163 91.3389C129.163 100.08 122.022 107.166 113.213 107.166C110.027 107.166 106.271 106.612 103.174 107.436C100.422 108.167 98.2719 110.3 97.5345 113.031C96.7045 116.105 97.2627 119.832 97.2627 122.993C97.2627 131.734 90.1216 138.82 81.3125 138.82" stroke="white" stroke-width="2.5" stroke-linecap="round" stroke-linejoin="round"/>
<path d="M133.996 84.1498L121.98 72.2267M121.98 72.2267C122.471 71.7395 122.927 71.218 123.345 70.6662C125.191 68.2285 126.285 65.1983 126.285 61.9146C126.285 53.8603 119.705 47.3311 111.588 47.3311C103.471 47.3311 96.8906 53.8603 96.8906 61.9146C96.8906 69.9689 103.471 76.4982 111.588 76.4982C115.646 76.4982 119.32 74.8658 121.98 72.2267Z" stroke="white" stroke-width="2.5" stroke-linecap="round"/>
</g>
</svg>
