<svg width="181" height="181" viewBox="0 0 181 181" fill="none" xmlns="http://www.w3.org/2000/svg">
<rect y="0.655273" width="181" height="179.603" rx="48" fill="black"/>
<mask id="mask0_5801_46428" style="mask-type:alpha" maskUnits="userSpaceOnUse" x="40" y="41" width="100" height="100">
<rect x="40" y="41.3389" width="100" height="99.2282" fill="#D9D9D9"/>
</mask>
<g mask="url(#mask0_5801_46428)">
<path d="M76.1548 61.5552H46.545C44.2895 61.5552 42.4609 63.3696 42.4609 65.6078V72.6998C42.4609 74.938 44.2895 76.7524 46.545 76.7524H76.1548C78.4104 76.7524 80.2389 74.938 80.2389 72.6998V65.6078C80.2389 63.3696 78.4104 61.5552 76.1548 61.5552Z" stroke="white" stroke-width="2.5"/>
<path d="M73.0917 98.0278H59.8184H46.545C44.2895 98.0278 42.4609 96.2134 42.4609 93.9752V86.8832C42.4609 84.645 44.2895 82.8306 46.545 82.8306H89" stroke="white" stroke-width="2.5"/>
<path d="M134.14 82.8306H111.678C109.422 82.8306 107.594 84.645 107.594 86.8832V93.9752C107.594 96.2134 109.422 98.0278 111.678 98.0278H134.14C136.396 98.0278 138.225 96.2134 138.225 93.9752V86.8832C138.225 84.645 136.396 82.8306 134.14 82.8306Z" stroke="white" stroke-width="2.5"/>
<path d="M135.913 61.5552H89.9669C87.7113 61.5552 85.8828 63.3696 85.8828 65.6078V72.6998C85.8828 74.938 87.7113 76.7524 89.9669 76.7524H135.913C138.169 76.7524 139.997 74.938 139.997 72.6998V65.6078C139.997 63.3696 138.169 61.5552 135.913 61.5552Z" stroke="white" stroke-width="2.5"/>
<path d="M92.3986 103.407H133.089C135.345 103.407 137.173 105.22 137.173 107.459V114.551C137.173 116.79 135.345 118.604 133.089 118.604H68.5156" stroke="white" stroke-width="2.5"/>
<path d="M66.3439 103.407H46.545C44.2886 103.407 42.4609 105.22 42.4609 107.459V114.551C42.4609 116.79 44.2886 118.604 46.545 118.604H73.0203" stroke="white" stroke-width="2.5"/>
<path d="M87.8575 83.8667L64.1719 105.511V116.333H77.9885L99.9549 95.5907M87.8575 83.8667L95.7527 77.5537L107.595 88.3759L99.9549 95.5907M87.8575 83.8667L93.9062 89.7287L99.9549 95.5907" stroke="white" stroke-width="2.5"/>
</g>
</svg>
