<svg width="181" height="181" viewBox="0 0 181 181" fill="none" xmlns="http://www.w3.org/2000/svg">
<rect y="0.442871" width="181" height="179.603" rx="48" fill="black"/>
<mask id="mask0_5801_46465" style="mask-type:alpha" maskUnits="userSpaceOnUse" x="40" y="41" width="100" height="100">
<rect x="40" y="41.6226" width="100" height="99.2282" fill="#D9D9D9"/>
</mask>
<g mask="url(#mask0_5801_46465)">
<mask id="path-3-inside-1_5801_46465" fill="white">
<path d="M130.787 43.1108H60.5998C59.9288 43.1108 59.3858 43.6247 59.3858 44.2597V50.6931H49.2141V50.6973C48.8918 50.6973 48.5828 50.8184 48.3532 51.0315C48.128 51.2487 48 51.5411 48 51.8461V138.213C48 138.518 48.128 138.811 48.3576 139.028C48.5828 139.241 48.8962 139.362 49.2185 139.362H122.093C122.415 139.362 122.724 139.241 122.95 139.024C123.179 138.811 123.307 138.518 123.307 138.213V128.588H130.786C131.108 128.588 131.417 128.467 131.647 128.25C131.872 128.033 132 127.74 132 127.435V44.2603C132 43.9553 131.872 43.6629 131.647 43.4498C131.417 43.2326 131.108 43.1115 130.786 43.1115L130.787 43.1108ZM50.4326 137.061V52.9991L104.624 53.0032V67.2281C104.624 67.5331 104.752 67.8255 104.977 68.0385C105.207 68.2558 105.516 68.3769 105.838 68.3769H120.871V137.061L50.4326 137.061ZM107.057 54.6203L119.163 66.0753H107.053L107.057 54.6203ZM129.573 126.291H123.308V67.2282C123.308 66.9232 123.18 66.6308 122.951 66.4136L106.7 51.0315C106.47 50.8185 106.161 50.6973 105.839 50.6973H61.8192V45.4127H129.573L129.573 126.291ZM70.6619 114.899H64.331C64.0088 114.895 63.6953 115.016 63.4702 115.233C63.2406 115.451 63.1081 115.743 63.1081 116.048V127.369C63.1081 127.674 63.2406 127.967 63.4657 128.184C63.6953 128.401 64.0044 128.522 64.3266 128.522H70.6575C70.9798 128.522 71.2888 128.401 71.514 128.184C71.7435 127.967 71.8716 127.674 71.8716 127.369V116.048C71.8716 115.413 71.3285 114.899 70.6619 114.899ZM69.4435 126.221H65.5408V117.201H69.4435V126.221ZM83.2092 103.645H76.8783H76.8827C76.5604 103.645 76.2514 103.762 76.0218 103.98C75.7923 104.197 75.6642 104.489 75.6642 104.794V127.369C75.6642 127.674 75.7923 127.967 76.0218 128.184C76.2514 128.401 76.5604 128.522 76.8827 128.522H83.2136H83.2092C83.5315 128.522 83.8449 128.401 84.0701 128.184C84.2996 127.967 84.4277 127.674 84.4277 127.369V104.79C84.4233 104.155 83.8802 103.641 83.2092 103.645ZM81.9951 126.221H78.0925V105.938H81.9951V126.221ZM95.7699 106.26H89.439C89.1167 106.26 88.8077 106.381 88.5781 106.599C88.353 106.812 88.2249 107.104 88.2249 107.409V127.369C88.2249 127.674 88.353 127.967 88.5781 128.184C88.8077 128.401 89.1167 128.522 89.439 128.522H95.7699C96.0922 128.522 96.4012 128.401 96.6264 128.184C96.8559 127.967 96.984 127.674 96.984 127.369V107.409C96.984 107.104 96.8559 106.812 96.6264 106.599C96.4012 106.381 96.0922 106.26 95.7699 106.26ZM94.547 126.221H90.6444V108.562H94.547V126.221ZM108.313 94.4748H101.986C101.664 94.4748 101.351 94.5959 101.125 94.809C100.896 95.0262 100.763 95.3186 100.763 95.6236V127.369C100.763 127.674 100.891 127.971 101.121 128.184C101.351 128.401 101.66 128.522 101.986 128.522H108.317H108.313C108.635 128.522 108.944 128.401 109.174 128.184C109.403 127.967 109.531 127.674 109.531 127.369V95.6236C109.527 94.9886 108.984 94.4748 108.313 94.4748ZM107.099 126.221H103.196V96.7773H107.099V126.221ZM92.5961 90.999C91.0995 90.999 89.7176 91.7635 88.9804 92.9959L84.1815 91.9933V91.9975C84.0844 90.8236 83.4442 89.7541 82.4244 89.0773C81.409 88.4006 80.1242 88.1917 78.9278 88.505C77.7314 88.8225 76.7469 89.6246 76.2436 90.7024C75.7403 91.7761 75.7712 93.0084 76.3275 94.057L69.5331 100.152H69.5375C67.7407 99.187 65.4626 99.609 64.1912 101.15C62.9153 102.692 63.0212 104.881 64.4428 106.301C65.8644 107.722 68.1733 107.943 69.8642 106.824C71.5595 105.704 72.1334 103.578 71.2107 101.823L78.0051 95.728H78.0007C78.9587 96.2418 80.0933 96.3755 81.1529 96.0956C82.2124 95.8157 83.1131 95.1515 83.6516 94.2449L88.4505 95.2475L88.4549 95.2434C88.5477 96.4256 89.201 97.4993 90.2297 98.1719C91.2539 98.8445 92.5475 99.045 93.7483 98.7149C94.9447 98.3849 95.9248 97.5661 96.4149 96.4757C96.9049 95.3896 96.8475 94.1529 96.2648 93.1045L103.178 86.6125C104.997 87.5399 107.258 87.0679 108.494 85.5012C109.73 83.9389 109.571 81.754 108.119 80.367C106.662 78.9758 104.357 78.8046 102.693 79.9618C101.024 81.1147 100.507 83.2495 101.47 84.979L94.5562 91.471H94.5518C93.9514 91.166 93.2804 91.0032 92.5961 90.999ZM67.4934 105.198C66.7959 105.198 66.169 104.801 65.9042 104.191C65.6349 103.582 65.785 102.88 66.275 102.416C66.7695 101.948 67.5112 101.81 68.1557 102.061C68.7959 102.316 69.2153 102.909 69.2153 103.569C69.2153 104.467 68.447 105.198 67.4934 105.198ZM80.0442 93.9401C79.3467 93.9401 78.7197 93.5432 78.4549 92.9333C78.1856 92.3233 78.3357 91.6215 78.8258 91.1577C79.3202 90.6899 80.0574 90.552 80.7021 90.8026C81.3467 91.0533 81.7661 91.6465 81.7661 92.3065C81.7661 93.2089 80.9977 93.9359 80.0442 93.9401ZM92.5916 96.5635V96.5594C91.894 96.5594 91.2671 96.1625 90.9978 95.5567C90.7329 94.9468 90.8786 94.2449 91.373 93.7771C91.8631 93.3134 92.6047 93.1713 93.2494 93.4261C93.8939 93.6768 94.3133 94.27 94.3133 94.93C94.3133 95.8282 93.5452 96.5551 92.596 96.5592L92.5916 96.5635ZM105.147 81.5163C105.844 81.5163 106.471 81.9131 106.741 82.5231C107.006 83.133 106.86 83.8307 106.365 84.2986C105.875 84.7665 105.134 84.9043 104.489 84.6537C103.844 84.3988 103.425 83.8056 103.425 83.1455C103.429 82.2473 104.198 81.5163 105.147 81.5163ZM65.1042 77.2384L64.1241 78.6171C63.7974 79.0724 63.8548 79.6865 64.2698 80.0751L68.04 83.6427C68.4506 84.0354 69.0996 84.0938 69.5808 83.7847L71.0377 82.8531V82.8489C71.541 83.0871 72.062 83.2917 72.5961 83.463L72.9273 85.0964H72.9317C73.042 85.6395 73.5409 86.028 74.1237 86.028H79.4612C80.0396 86.028 80.5429 85.6395 80.6532 85.0964L80.9844 83.463C81.5186 83.2917 82.0395 83.0871 82.5472 82.8489L84.0041 83.7805V83.7847C84.4853 84.0938 85.1299 84.0354 85.5449 83.6427L89.3151 80.0709V80.0751C89.7257 79.6866 89.7875 79.0724 89.4652 78.6171L88.4807 77.2384H88.4763C88.7279 76.758 88.9443 76.2651 89.1253 75.7596L90.8514 75.4379V75.4421C91.4209 75.3377 91.8359 74.8614 91.8359 74.31V69.2634C91.8359 68.712 91.4209 68.2399 90.8514 68.1354L89.1253 67.8179V67.8221C88.9443 67.3166 88.7279 66.8237 88.4763 66.3433L89.4608 64.9646H89.4652C89.7875 64.5093 89.7257 63.8994 89.3151 63.5066L85.5449 59.9349V59.939C85.1299 59.5505 84.4854 59.492 84.0041 59.8012L82.5472 60.7328C82.0395 60.4947 81.5185 60.29 80.9844 60.1187L80.6533 58.4853C80.5429 57.9464 80.0396 57.5537 79.4612 57.5537H74.1237C73.5409 57.5537 73.0421 57.9464 72.9317 58.4853L72.6006 60.1228C72.0664 60.2941 71.5454 60.4988 71.0377 60.737L69.5808 59.8054V59.8012C69.0996 59.4962 68.4506 59.5505 68.04 59.9432L64.2654 63.515L64.2698 63.5108C63.8548 63.8993 63.793 64.5134 64.1197 64.9688L65.1042 66.3474C64.857 66.8279 64.6407 67.3208 64.4597 67.8263L62.7335 68.1354C62.1596 68.244 61.749 68.7161 61.749 69.2717V74.3183C61.749 74.8697 62.164 75.3418 62.7335 75.4462L64.4597 75.7679C64.6407 76.2692 64.857 76.7622 65.1042 77.2384ZM64.1771 70.2159L65.634 69.9486L65.6384 69.9528C66.0932 69.8692 66.4552 69.5475 66.5788 69.1256C66.8128 68.3277 67.1483 67.5632 67.581 66.8405C67.8105 66.4603 67.7885 65.9924 67.528 65.629L66.698 64.4635L69.051 62.2369L70.2827 63.0223V63.0265C70.6624 63.2729 71.1613 63.2896 71.563 63.0724C72.3224 62.663 73.1347 62.3455 73.9779 62.1241C74.4238 62.0113 74.7593 61.6646 74.8476 61.2343L75.1257 59.8556H78.4545L78.7326 61.2343H78.737C78.8253 61.6646 79.1653 62.0113 79.6112 62.1241C80.4544 62.3455 81.2623 62.663 82.0216 63.0724C82.4278 63.2896 82.9223 63.2729 83.3063 63.0265L84.538 62.2411L86.8911 64.4677L86.0611 65.6332L86.0567 65.629C85.7962 65.9924 85.7785 66.4603 86.0081 66.8405C86.4407 67.5632 86.7763 68.3277 87.0103 69.1256C87.1295 69.5475 87.4959 69.8692 87.9506 69.9528L89.4075 70.2201V73.37L87.9506 73.6374V73.6332C87.4959 73.7125 87.1295 74.0342 87.0103 74.4562C86.7763 75.2541 86.4407 76.0227 86.0081 76.7413C85.7785 77.1214 85.7962 77.5935 86.0567 77.9528L86.8866 79.1182L84.5336 81.349L83.3019 80.5595C82.9222 80.313 82.4234 80.2963 82.0216 80.5135C81.2623 80.9229 80.45 81.2404 79.6067 81.4576C79.1609 81.5746 78.8253 81.9214 78.737 82.3516L78.4589 83.7303H75.1257L74.8476 82.3516C74.7593 81.9214 74.4194 81.5746 73.9735 81.4576C73.1303 81.2404 72.3224 80.9229 71.563 80.5135C71.1568 80.2963 70.6624 80.313 70.2783 80.5595L69.0466 81.349L66.698 79.1224L67.528 77.9569C67.7885 77.5935 67.8061 77.1256 67.5765 76.7413C67.1439 76.0227 66.8084 75.2583 66.5744 74.4603C66.4552 74.0384 66.0888 73.7167 65.634 73.6332L64.1771 73.3658L64.1771 70.2159ZM76.79 78.2787C79.5625 78.2787 82.0613 76.6995 83.1209 74.2766C84.1849 71.8494 83.5977 69.063 81.6375 67.2081C79.6773 65.3532 76.7282 64.7976 74.1676 65.8003C71.6071 66.8071 69.9382 69.1715 69.9382 71.7951C69.9427 75.3753 73.0065 78.2745 76.79 78.2787ZM76.79 67.6091C78.5824 67.6091 80.1938 68.6243 80.8782 70.1909C81.5669 71.7533 81.1872 73.5538 79.9246 74.7528C78.6575 75.9476 76.7547 76.3068 75.1036 75.6593C73.4525 75.0118 72.3708 73.487 72.3708 71.7951C72.3752 69.4848 74.353 67.6133 76.79 67.6091Z"/>
</mask>
<path d="M130.787 43.1108H60.5998C59.9288 43.1108 59.3858 43.6247 59.3858 44.2597V50.6931H49.2141V50.6973C48.8918 50.6973 48.5828 50.8184 48.3532 51.0315C48.128 51.2487 48 51.5411 48 51.8461V138.213C48 138.518 48.128 138.811 48.3576 139.028C48.5828 139.241 48.8962 139.362 49.2185 139.362H122.093C122.415 139.362 122.724 139.241 122.95 139.024C123.179 138.811 123.307 138.518 123.307 138.213V128.588H130.786C131.108 128.588 131.417 128.467 131.647 128.25C131.872 128.033 132 127.74 132 127.435V44.2603C132 43.9553 131.872 43.6629 131.647 43.4498C131.417 43.2326 131.108 43.1115 130.786 43.1115L130.787 43.1108ZM50.4326 137.061V52.9991L104.624 53.0032V67.2281C104.624 67.5331 104.752 67.8255 104.977 68.0385C105.207 68.2558 105.516 68.3769 105.838 68.3769H120.871V137.061L50.4326 137.061ZM107.057 54.6203L119.163 66.0753H107.053L107.057 54.6203ZM129.573 126.291H123.308V67.2282C123.308 66.9232 123.18 66.6308 122.951 66.4136L106.7 51.0315C106.47 50.8185 106.161 50.6973 105.839 50.6973H61.8192V45.4127H129.573L129.573 126.291ZM70.6619 114.899H64.331C64.0088 114.895 63.6953 115.016 63.4702 115.233C63.2406 115.451 63.1081 115.743 63.1081 116.048V127.369C63.1081 127.674 63.2406 127.967 63.4657 128.184C63.6953 128.401 64.0044 128.522 64.3266 128.522H70.6575C70.9798 128.522 71.2888 128.401 71.514 128.184C71.7435 127.967 71.8716 127.674 71.8716 127.369V116.048C71.8716 115.413 71.3285 114.899 70.6619 114.899ZM69.4435 126.221H65.5408V117.201H69.4435V126.221ZM83.2092 103.645H76.8783H76.8827C76.5604 103.645 76.2514 103.762 76.0218 103.98C75.7923 104.197 75.6642 104.489 75.6642 104.794V127.369C75.6642 127.674 75.7923 127.967 76.0218 128.184C76.2514 128.401 76.5604 128.522 76.8827 128.522H83.2136H83.2092C83.5315 128.522 83.8449 128.401 84.0701 128.184C84.2996 127.967 84.4277 127.674 84.4277 127.369V104.79C84.4233 104.155 83.8802 103.641 83.2092 103.645ZM81.9951 126.221H78.0925V105.938H81.9951V126.221ZM95.7699 106.26H89.439C89.1167 106.26 88.8077 106.381 88.5781 106.599C88.353 106.812 88.2249 107.104 88.2249 107.409V127.369C88.2249 127.674 88.353 127.967 88.5781 128.184C88.8077 128.401 89.1167 128.522 89.439 128.522H95.7699C96.0922 128.522 96.4012 128.401 96.6264 128.184C96.8559 127.967 96.984 127.674 96.984 127.369V107.409C96.984 107.104 96.8559 106.812 96.6264 106.599C96.4012 106.381 96.0922 106.26 95.7699 106.26ZM94.547 126.221H90.6444V108.562H94.547V126.221ZM108.313 94.4748H101.986C101.664 94.4748 101.351 94.5959 101.125 94.809C100.896 95.0262 100.763 95.3186 100.763 95.6236V127.369C100.763 127.674 100.891 127.971 101.121 128.184C101.351 128.401 101.66 128.522 101.986 128.522H108.317H108.313C108.635 128.522 108.944 128.401 109.174 128.184C109.403 127.967 109.531 127.674 109.531 127.369V95.6236C109.527 94.9886 108.984 94.4748 108.313 94.4748ZM107.099 126.221H103.196V96.7773H107.099V126.221ZM92.5961 90.999C91.0995 90.999 89.7176 91.7635 88.9804 92.9959L84.1815 91.9933V91.9975C84.0844 90.8236 83.4442 89.7541 82.4244 89.0773C81.409 88.4006 80.1242 88.1917 78.9278 88.505C77.7314 88.8225 76.7469 89.6246 76.2436 90.7024C75.7403 91.7761 75.7712 93.0084 76.3275 94.057L69.5331 100.152H69.5375C67.7407 99.187 65.4626 99.609 64.1912 101.15C62.9153 102.692 63.0212 104.881 64.4428 106.301C65.8644 107.722 68.1733 107.943 69.8642 106.824C71.5595 105.704 72.1334 103.578 71.2107 101.823L78.0051 95.728H78.0007C78.9587 96.2418 80.0933 96.3755 81.1529 96.0956C82.2124 95.8157 83.1131 95.1515 83.6516 94.2449L88.4505 95.2475L88.4549 95.2434C88.5477 96.4256 89.201 97.4993 90.2297 98.1719C91.2539 98.8445 92.5475 99.045 93.7483 98.7149C94.9447 98.3849 95.9248 97.5661 96.4149 96.4757C96.9049 95.3896 96.8475 94.1529 96.2648 93.1045L103.178 86.6125C104.997 87.5399 107.258 87.0679 108.494 85.5012C109.73 83.9389 109.571 81.754 108.119 80.367C106.662 78.9758 104.357 78.8046 102.693 79.9618C101.024 81.1147 100.507 83.2495 101.47 84.979L94.5562 91.471H94.5518C93.9514 91.166 93.2804 91.0032 92.5961 90.999ZM67.4934 105.198C66.7959 105.198 66.169 104.801 65.9042 104.191C65.6349 103.582 65.785 102.88 66.275 102.416C66.7695 101.948 67.5112 101.81 68.1557 102.061C68.7959 102.316 69.2153 102.909 69.2153 103.569C69.2153 104.467 68.447 105.198 67.4934 105.198ZM80.0442 93.9401C79.3467 93.9401 78.7197 93.5432 78.4549 92.9333C78.1856 92.3233 78.3357 91.6215 78.8258 91.1577C79.3202 90.6899 80.0574 90.552 80.7021 90.8026C81.3467 91.0533 81.7661 91.6465 81.7661 92.3065C81.7661 93.2089 80.9977 93.9359 80.0442 93.9401ZM92.5916 96.5635V96.5594C91.894 96.5594 91.2671 96.1625 90.9978 95.5567C90.7329 94.9468 90.8786 94.2449 91.373 93.7771C91.8631 93.3134 92.6047 93.1713 93.2494 93.4261C93.8939 93.6768 94.3133 94.27 94.3133 94.93C94.3133 95.8282 93.5452 96.5551 92.596 96.5592L92.5916 96.5635ZM105.147 81.5163C105.844 81.5163 106.471 81.9131 106.741 82.5231C107.006 83.133 106.86 83.8307 106.365 84.2986C105.875 84.7665 105.134 84.9043 104.489 84.6537C103.844 84.3988 103.425 83.8056 103.425 83.1455C103.429 82.2473 104.198 81.5163 105.147 81.5163ZM65.1042 77.2384L64.1241 78.6171C63.7974 79.0724 63.8548 79.6865 64.2698 80.0751L68.04 83.6427C68.4506 84.0354 69.0996 84.0938 69.5808 83.7847L71.0377 82.8531V82.8489C71.541 83.0871 72.062 83.2917 72.5961 83.463L72.9273 85.0964H72.9317C73.042 85.6395 73.5409 86.028 74.1237 86.028H79.4612C80.0396 86.028 80.5429 85.6395 80.6532 85.0964L80.9844 83.463C81.5186 83.2917 82.0395 83.0871 82.5472 82.8489L84.0041 83.7805V83.7847C84.4853 84.0938 85.1299 84.0354 85.5449 83.6427L89.3151 80.0709V80.0751C89.7257 79.6866 89.7875 79.0724 89.4652 78.6171L88.4807 77.2384H88.4763C88.7279 76.758 88.9443 76.2651 89.1253 75.7596L90.8514 75.4379V75.4421C91.4209 75.3377 91.8359 74.8614 91.8359 74.31V69.2634C91.8359 68.712 91.4209 68.2399 90.8514 68.1354L89.1253 67.8179V67.8221C88.9443 67.3166 88.7279 66.8237 88.4763 66.3433L89.4608 64.9646H89.4652C89.7875 64.5093 89.7257 63.8994 89.3151 63.5066L85.5449 59.9349V59.939C85.1299 59.5505 84.4854 59.492 84.0041 59.8012L82.5472 60.7328C82.0395 60.4947 81.5185 60.29 80.9844 60.1187L80.6533 58.4853C80.5429 57.9464 80.0396 57.5537 79.4612 57.5537H74.1237C73.5409 57.5537 73.0421 57.9464 72.9317 58.4853L72.6006 60.1228C72.0664 60.2941 71.5454 60.4988 71.0377 60.737L69.5808 59.8054V59.8012C69.0996 59.4962 68.4506 59.5505 68.04 59.9432L64.2654 63.515L64.2698 63.5108C63.8548 63.8993 63.793 64.5134 64.1197 64.9688L65.1042 66.3474C64.857 66.8279 64.6407 67.3208 64.4597 67.8263L62.7335 68.1354C62.1596 68.244 61.749 68.7161 61.749 69.2717V74.3183C61.749 74.8697 62.164 75.3418 62.7335 75.4462L64.4597 75.7679C64.6407 76.2692 64.857 76.7622 65.1042 77.2384ZM64.1771 70.2159L65.634 69.9486L65.6384 69.9528C66.0932 69.8692 66.4552 69.5475 66.5788 69.1256C66.8128 68.3277 67.1483 67.5632 67.581 66.8405C67.8105 66.4603 67.7885 65.9924 67.528 65.629L66.698 64.4635L69.051 62.2369L70.2827 63.0223V63.0265C70.6624 63.2729 71.1613 63.2896 71.563 63.0724C72.3224 62.663 73.1347 62.3455 73.9779 62.1241C74.4238 62.0113 74.7593 61.6646 74.8476 61.2343L75.1257 59.8556H78.4545L78.7326 61.2343H78.737C78.8253 61.6646 79.1653 62.0113 79.6112 62.1241C80.4544 62.3455 81.2623 62.663 82.0216 63.0724C82.4278 63.2896 82.9223 63.2729 83.3063 63.0265L84.538 62.2411L86.8911 64.4677L86.0611 65.6332L86.0567 65.629C85.7962 65.9924 85.7785 66.4603 86.0081 66.8405C86.4407 67.5632 86.7763 68.3277 87.0103 69.1256C87.1295 69.5475 87.4959 69.8692 87.9506 69.9528L89.4075 70.2201V73.37L87.9506 73.6374V73.6332C87.4959 73.7125 87.1295 74.0342 87.0103 74.4562C86.7763 75.2541 86.4407 76.0227 86.0081 76.7413C85.7785 77.1214 85.7962 77.5935 86.0567 77.9528L86.8866 79.1182L84.5336 81.349L83.3019 80.5595C82.9222 80.313 82.4234 80.2963 82.0216 80.5135C81.2623 80.9229 80.45 81.2404 79.6067 81.4576C79.1609 81.5746 78.8253 81.9214 78.737 82.3516L78.4589 83.7303H75.1257L74.8476 82.3516C74.7593 81.9214 74.4194 81.5746 73.9735 81.4576C73.1303 81.2404 72.3224 80.9229 71.563 80.5135C71.1568 80.2963 70.6624 80.313 70.2783 80.5595L69.0466 81.349L66.698 79.1224L67.528 77.9569C67.7885 77.5935 67.8061 77.1256 67.5765 76.7413C67.1439 76.0227 66.8084 75.2583 66.5744 74.4603C66.4552 74.0384 66.0888 73.7167 65.634 73.6332L64.1771 73.3658L64.1771 70.2159ZM76.79 78.2787C79.5625 78.2787 82.0613 76.6995 83.1209 74.2766C84.1849 71.8494 83.5977 69.063 81.6375 67.2081C79.6773 65.3532 76.7282 64.7976 74.1676 65.8003C71.6071 66.8071 69.9382 69.1715 69.9382 71.7951C69.9427 75.3753 73.0065 78.2745 76.79 78.2787ZM76.79 67.6091C78.5824 67.6091 80.1938 68.6243 80.8782 70.1909C81.5669 71.7533 81.1872 73.5538 79.9246 74.7528C78.6575 75.9476 76.7547 76.3068 75.1036 75.6593C73.4525 75.0118 72.3708 73.487 72.3708 71.7951C72.3752 69.4848 74.353 67.6133 76.79 67.6091Z" stroke="white" stroke-width="4" mask="url(#path-3-inside-1_5801_46465)"/>
</g>
</svg>
