<svg width="180" height="179" viewBox="0 0 180 179" fill="none" xmlns="http://www.w3.org/2000/svg">
<rect y="0.15332" width="180" height="178.611" rx="48" fill="black"/>
<mask id="mask0_5801_46409" style="mask-type:alpha" maskUnits="userSpaceOnUse" x="40" y="39" width="100" height="100">
<rect x="40" y="39.3481" width="100" height="99.2282" fill="#D9D9D9"/>
</mask>
<g mask="url(#mask0_5801_46409)">
<path d="M139.629 129.517L118.328 113.66C123.388 106.522 126.218 97.9839 126.218 89.0707C126.218 65.4836 106.88 46.2944 83.109 46.2944C59.3384 46.2988 40 65.488 40 89.0751C40 101.627 45.5257 113.505 55.1581 121.654C62.896 128.23 72.8244 131.851 83.109 131.851C86.9669 131.851 90.7728 131.341 94.4347 130.36C100.535 128.723 106.226 125.767 111.06 121.658C113.18 119.865 115.061 117.865 116.768 115.743L138.065 131.592C138.301 131.769 138.575 131.851 138.849 131.851C139.245 131.851 139.637 131.674 139.894 131.332C140.325 130.762 140.208 129.945 139.633 129.518L139.629 129.517ZM79.5506 129.103C79.1718 129.068 78.8017 129.003 78.4229 128.956C77.626 128.865 76.8291 128.779 76.0454 128.64C75.5925 128.563 75.1527 128.442 74.7042 128.351C74.0031 128.204 73.3021 128.066 72.6141 127.884C72.1351 127.759 71.6735 127.595 71.1989 127.452C70.5501 127.253 69.9013 127.068 69.2655 126.843C68.7866 126.67 68.325 126.463 67.8547 126.273C67.2451 126.026 66.6311 125.793 66.0303 125.516C65.56 125.3 65.1028 125.05 64.6368 124.812C64.062 124.518 63.4785 124.233 62.9168 123.918C62.4596 123.654 62.0198 123.365 61.5713 123.084C61.027 122.747 60.4827 122.414 59.9558 122.047C59.5161 121.744 59.0937 121.407 58.667 121.088C58.2664 120.785 57.8701 120.487 57.4826 120.167C60.6221 108.687 71.0422 100.737 83.1081 100.737C95.174 100.737 105.594 108.687 108.734 120.167C108.35 120.483 107.954 120.781 107.558 121.079C107.127 121.403 106.7 121.74 106.256 122.051C105.733 122.414 105.193 122.742 104.653 123.079C104.201 123.36 103.756 123.654 103.295 123.922C102.737 124.237 102.163 124.518 101.592 124.808C101.122 125.045 100.665 125.3 100.186 125.521C99.5936 125.793 98.984 126.026 98.3787 126.268C97.9041 126.463 97.4338 126.67 96.9505 126.843C96.3191 127.068 95.6747 127.253 95.0345 127.448C94.5555 127.595 94.0852 127.759 93.6063 127.889C92.927 128.066 92.239 128.2 91.551 128.347C91.0894 128.442 90.6365 128.563 90.1749 128.645C89.3955 128.779 88.6029 128.865 87.8148 128.956C87.4316 129.003 87.0571 129.072 86.674 129.103C85.4939 129.202 84.3095 129.258 83.1164 129.258C81.9233 129.258 80.7389 129.206 79.5589 129.103L79.5506 129.103ZM110.877 118.253C107.036 106.315 95.9238 98.1481 83.1089 98.1481C70.2939 98.1481 59.1811 106.314 55.3408 118.253C47.2547 110.666 42.6128 100.17 42.6128 89.0745C42.6128 66.9176 60.7796 48.891 83.1089 48.891C105.438 48.891 123.605 66.9176 123.605 89.0745C123.605 100.17 118.963 110.666 110.877 118.253Z" fill="white"/>
<path d="M83.1078 63.5815C74.7037 63.5815 67.8672 70.3652 67.8672 78.7046C67.8672 87.0439 74.7036 93.8276 83.1078 93.8276C91.512 93.8276 98.3485 87.0439 98.3485 78.7046C98.3485 70.3652 91.512 63.5815 83.1078 63.5815ZM83.1078 91.2348C76.1451 91.2348 70.4801 85.6134 70.4801 78.7046C70.4801 71.7957 76.1452 66.1743 83.1078 66.1743C90.0704 66.1743 95.7355 71.7957 95.7355 78.7046C95.7355 85.6134 90.0704 91.2348 83.1078 91.2348Z" fill="white"/>
</g>
</svg>
