<svg width="180" height="182" viewBox="0 0 180 182" fill="none" xmlns="http://www.w3.org/2000/svg">
<rect width="180" height="180.595" rx="48" transform="matrix(-1 0 0 1 180 0.830078)" fill="black"/>
<mask id="mask0_5801_46577" style="mask-type:alpha" maskUnits="userSpaceOnUse" x="40" y="40" width="100" height="102">
<rect x="40" y="40.9629" width="100" height="100.331" fill="#D9D9D9"/>
</mask>
<g mask="url(#mask0_5801_46577)">
<mask id="mask1_5801_46577" style="mask-type:alpha" maskUnits="userSpaceOnUse" x="44" y="45" width="93" height="93">
<rect x="44.207" y="45.9062" width="92.7925" height="92.0764" fill="#D9D9D9"/>
</mask>
<g mask="url(#mask1_5801_46577)">
<path d="M92.6146 131.538H69.0367C62.8705 131.538 57.966 128.56 53.5623 124.397C44.5476 115.875 59.3485 109.065 64.9935 105.729C73.9689 100.426 84.5806 98.7188 94.6096 100.607" stroke="white" stroke-width="3" stroke-linecap="round" stroke-linejoin="round"/>
<path d="M104.606 70.1693C104.606 80.0093 96.5671 87.9861 86.6507 87.9861C76.7342 87.9861 68.6953 80.0093 68.6953 70.1693C68.6953 60.3294 76.7342 52.3525 86.6507 52.3525C96.5671 52.3525 104.606 60.3294 104.606 70.1693Z" stroke="white" stroke-width="3"/>
<path d="M117.315 102.15L120.124 107.771C120.507 108.553 121.528 109.303 122.39 109.447L127.481 110.293C130.736 110.836 131.502 113.199 129.157 115.53L125.199 119.49C124.529 120.16 124.162 121.454 124.369 122.38L125.502 127.281C126.396 131.161 124.337 132.662 120.906 130.634L116.134 127.808C115.273 127.297 113.852 127.297 112.975 127.808L108.203 130.634C104.788 132.662 102.713 131.145 103.607 127.281L104.74 122.38C104.947 121.454 104.58 120.16 103.91 119.49L99.9524 115.53C97.6225 113.199 98.3725 110.836 101.628 110.293L106.719 109.447C107.565 109.303 108.586 108.553 108.969 107.771L111.778 102.15C113.31 99.1009 115.799 99.1009 117.315 102.15Z" stroke="white" stroke-width="3" stroke-linecap="round" stroke-linejoin="round"/>
</g>
</g>
</svg>
