<svg width="181" height="180" viewBox="0 0 181 180" fill="none" xmlns="http://www.w3.org/2000/svg">
<rect y="0.387695" width="181" height="179.603" rx="48" fill="black"/>
<mask id="mask0_5801_46497" style="mask-type:alpha" maskUnits="userSpaceOnUse" x="40" y="41" width="100" height="100">
<rect x="40" y="41.0713" width="100" height="99.2282" fill="#D9D9D9"/>
</mask>
<g mask="url(#mask0_5801_46497)">
<path d="M132.268 135.135H48.5097C44.2402 135.135 40.7812 131.703 40.7812 127.466V55.327C40.7812 51.0905 44.2402 47.6582 48.5097 47.6582H132.268C134.319 47.6582 136.283 48.4665 137.732 49.9049C139.182 51.3434 139.997 53.2916 139.997 55.327V127.479C139.988 131.712 136.534 135.135 132.268 135.135ZM48.5011 50.7794C45.9612 50.7794 43.9058 52.8189 43.9058 55.3392V127.479C43.9058 129.999 45.9612 132.038 48.5011 132.038H132.26C134.8 132.038 136.855 129.999 136.855 127.479V55.3264C136.855 52.8061 134.8 50.7666 132.26 50.7666L48.5011 50.7794Z" fill="white"/>
<path d="M138.431 70.6353H42.3478C41.483 70.6353 40.7812 69.9389 40.7812 69.0767C40.7812 68.2186 41.4831 67.5264 42.3478 67.5264H138.431C139.295 67.5264 139.997 68.2186 139.997 69.0767C139.997 69.9389 139.295 70.6353 138.431 70.6353Z" fill="white"/>
<path d="M58.43 60.7036H52.2974C51.4284 60.7036 50.7266 60.0072 50.7266 59.1492C50.7266 58.2911 51.4284 57.5947 52.2974 57.5947H58.43C59.2947 57.5947 59.9965 58.2911 59.9965 59.1492C59.9965 60.0072 59.2947 60.7036 58.43 60.7036Z" fill="white"/>
<path d="M72.9533 60.7036H66.8165C65.9518 60.7036 65.25 60.0072 65.25 59.1492C65.25 58.2911 65.9518 57.5947 66.8165 57.5947H72.9533C73.818 57.5947 74.5198 58.2911 74.5198 59.1492C74.5198 60.0072 73.818 60.7036 72.9533 60.7036Z" fill="white"/>
<path d="M87.5041 60.7036H81.3631C80.4984 60.7036 79.8008 60.0072 79.8008 59.1492C79.8008 58.2911 80.4984 57.5947 81.3631 57.5947H87.5041C88.3688 57.5947 89.0664 58.2911 89.0664 59.1492C89.0664 60.0072 88.3688 60.7036 87.5041 60.7036Z" fill="white"/>
<path d="M128.494 64.5847H95.9263C95.5085 64.5847 95.1116 64.4189 94.815 64.1287C94.5226 63.8344 94.3555 63.4406 94.3555 63.026V55.2702C94.3555 54.4122 95.0573 53.7158 95.9263 53.7158H128.494C128.912 53.7158 129.309 53.8816 129.605 54.1718C129.898 54.462 130.065 54.8599 130.065 55.2703V63.0303V63.0261C130.065 63.4407 129.898 63.8345 129.605 64.1288C129.309 64.419 128.912 64.5847 128.494 64.5847ZM97.4887 61.4757H126.94V56.8248H97.4887V61.4757Z" fill="white"/>
<path d="M111.764 92.9156C111.292 92.9156 110.82 92.8409 110.373 92.6876C108.836 92.157 107.758 90.7931 107.065 88.5174C105.126 82.1379 106.948 77.2423 111.936 75.4181C117.893 73.2419 127.33 76.4088 130.567 83.7543V83.7584C130.818 84.3305 130.701 85.002 130.262 85.458C129.824 85.9099 129.151 86.0591 128.562 85.8311C125.88 84.7948 122.313 87.2487 119.163 89.4126C116.556 91.1951 114.066 92.9156 111.764 92.9156ZM116.08 77.8393C115.035 77.8268 113.999 78.0009 113.014 78.345C109.672 79.5678 108.615 82.8633 110.064 87.6221C110.432 88.8242 110.9 89.5787 111.409 89.7528C112.579 90.159 115.127 88.4014 117.383 86.851C120.115 84.9691 123.115 82.9131 126.156 82.5234C123.641 79.5015 119.581 77.8393 116.08 77.8393Z" fill="white"/>
<path d="M94.0755 89.8106H56.1232C52.8314 89.7525 50.1953 87.0871 50.1953 83.8248C50.1953 80.5584 52.8313 77.8971 56.1232 77.835H94.0755C94.4891 77.835 94.8901 78.0008 95.1826 78.2909C95.475 78.5811 95.6421 78.9791 95.6421 79.3895V88.2604C95.6421 88.6708 95.475 89.0645 95.1826 89.3589C94.8902 89.6491 94.4891 89.8106 94.0755 89.8106ZM56.1232 80.9438C54.5483 80.9853 53.2951 82.262 53.2951 83.8247C53.2951 85.3834 54.5484 86.6601 56.1232 86.7015H92.5088V80.9437L56.1232 80.9438Z" fill="white"/>
<path d="M82.2384 89.8101C81.3737 89.8101 80.6719 89.1178 80.6719 88.2598V79.3806C80.6719 78.5225 81.3737 77.8262 82.2384 77.8262C83.1031 77.8262 83.8049 78.5226 83.8049 79.3806V88.2515C83.8091 88.6619 83.642 89.0598 83.3496 89.3542C83.053 89.6485 82.6561 89.8143 82.2383 89.8143L82.2384 89.8101Z" fill="white"/>
<path d="M72.8599 89.8101C71.9909 89.8101 71.2891 89.1178 71.2891 88.2598V79.3806C71.2891 78.5225 71.9909 77.8262 72.8599 77.8262C73.7246 77.8262 74.4222 78.5226 74.4222 79.3806V88.2515C74.4264 88.6619 74.2635 89.0598 73.9669 89.3542C73.6744 89.6485 73.2734 89.8143 72.8598 89.8143L72.8599 89.8101Z" fill="white"/>
<path d="M63.4809 89.8101C62.612 89.8101 61.9102 89.1178 61.9102 88.2598V79.3806C61.9102 78.5225 62.612 77.8262 63.4809 77.8262C64.3457 77.8262 65.0433 78.5226 65.0433 79.3806V88.2515H65.0475C65.0475 88.6619 64.8846 89.0598 64.5879 89.3542C64.2955 89.6485 63.8945 89.8143 63.4809 89.8143L63.4809 89.8101Z" fill="white"/>
<path d="M94.0509 89.8099C93.1862 89.8099 92.4844 89.1135 92.4844 88.2596V79.3805C92.4844 78.9286 92.6849 78.4975 93.0316 78.2032C93.3742 77.9089 93.8337 77.7762 94.2849 77.8467L108.363 79.9484V79.9442C109.219 80.0727 109.808 80.8645 109.679 81.7143C109.549 82.5641 108.752 83.1486 107.899 83.0201L95.6179 81.1878V86.444L107.846 84.62C108.259 84.5454 108.686 84.6449 109.028 84.8895C109.371 85.134 109.596 85.5071 109.659 85.9175C109.722 86.332 109.617 86.7548 109.362 87.0865C109.107 87.4181 108.727 87.6378 108.31 87.6917L94.2817 89.7851H94.2859C94.2107 89.8017 94.1313 89.81 94.052 89.8141L94.0509 89.8099Z" fill="white"/>
<path d="M113.91 86.1355C113.3 86.1355 112.748 85.7831 112.489 85.2359C112.234 84.6888 112.318 84.0462 112.711 83.582C114.244 81.7622 116.429 80.6098 118.806 80.3611C119.67 80.3113 120.41 80.9663 120.46 81.8243C120.51 82.6824 119.85 83.4202 118.981 83.47C117.469 83.6607 116.086 84.4193 115.113 85.5841C114.812 85.9365 114.373 86.1396 113.91 86.1355Z" fill="white"/>
<path d="M90.384 127.935C81.2185 127.935 72.1286 122.605 63.372 112.096C62.8916 111.52 62.8916 110.691 63.372 110.115C72.1281 99.6023 81.2189 94.2754 90.384 94.2754C99.5491 94.2754 108.639 99.6062 117.396 110.115C117.872 110.691 117.872 111.52 117.396 112.096C108.64 122.608 99.5491 127.935 90.384 127.935ZM66.6306 111.106C74.4927 120.209 82.4797 124.827 90.384 124.827C98.2919 124.827 106.275 120.209 114.137 111.106C106.275 102.003 98.2882 97.3849 90.384 97.3849C82.476 97.3849 74.4931 101.999 66.6306 111.106Z" fill="white"/>
<path d="M90.3905 122.077C85.9205 122.077 81.8893 119.408 80.1764 115.308C78.4678 111.212 79.412 106.495 82.5743 103.357C85.7367 100.219 90.4907 99.2822 94.6184 100.978C98.75 102.677 101.44 106.677 101.44 111.113C101.44 111.971 100.738 112.667 99.8737 112.667C99.009 112.667 98.3072 111.971 98.3072 111.113C98.3072 107.937 96.3772 105.073 93.4195 103.854C90.4619 102.64 87.0572 103.311 84.793 105.558C82.5288 107.805 81.852 111.183 83.076 114.118C84.3042 117.053 87.1909 118.968 90.3908 118.968C91.2555 118.968 91.9573 119.664 91.9573 120.522C91.9573 121.38 91.2552 122.077 90.3905 122.077Z" fill="white"/>
<path d="M90.4029 116.125C88.3559 116.125 86.5136 114.902 85.7283 113.024C84.9471 111.151 85.3773 108.991 86.8269 107.557C88.2723 106.118 90.4488 105.691 92.337 106.467C94.2293 107.246 95.4618 109.074 95.4618 111.105C95.4576 113.874 93.1935 116.121 90.4029 116.125ZM90.4029 109.194C89.6259 109.194 88.9199 109.658 88.6232 110.376C88.3266 111.089 88.4895 111.909 89.041 112.456C89.5924 113.004 90.4196 113.165 91.138 112.871C91.8607 112.577 92.3286 111.876 92.3286 111.105C92.3245 110.052 91.464 109.198 90.4029 109.194Z" fill="white"/>
<path d="M56.3673 105.542C55.5026 105.542 54.8008 104.845 54.8008 103.987V96.0075C54.8008 95.1495 55.5026 94.4531 56.3673 94.4531H64.409C65.2737 94.4531 65.9755 95.1495 65.9755 96.0075C65.9755 96.8656 65.2737 97.562 64.409 97.562H57.9338V103.987C57.9338 104.398 57.7667 104.795 57.4743 105.086C57.1819 105.376 56.7809 105.542 56.3673 105.542Z" fill="white"/>
<path d="M64.409 127.758H56.3673C55.5026 127.758 54.8008 127.061 54.8008 126.203V118.224C54.8008 117.361 55.5026 116.665 56.3673 116.665C57.232 116.665 57.9338 117.361 57.9338 118.224V124.649H64.409C65.2737 124.649 65.9755 125.341 65.9755 126.199C65.9755 127.061 65.2737 127.758 64.409 127.758Z" fill="white"/>
<path d="M124.389 105.542C123.525 105.542 122.823 104.845 122.823 103.987V97.562H116.348C115.483 97.562 114.781 96.8656 114.781 96.0075C114.781 95.1495 115.483 94.4531 116.348 94.4531H124.389C124.803 94.4531 125.204 94.6189 125.497 94.9091C125.789 95.1993 125.956 95.5972 125.956 96.0076V103.987C125.956 104.398 125.789 104.796 125.497 105.086C125.204 105.376 124.803 105.542 124.389 105.542Z" fill="white"/>
<path d="M124.389 127.757H116.348C115.483 127.757 114.781 127.061 114.781 126.203C114.781 125.345 115.483 124.649 116.348 124.649H122.823V118.223C122.823 117.365 123.525 116.669 124.389 116.669C125.254 116.669 125.956 117.365 125.956 118.223V126.203C125.956 126.613 125.789 127.011 125.496 127.302C125.204 127.592 124.803 127.757 124.389 127.757Z" fill="white"/>
<path d="M57.2188 112.659H51.3243C50.4554 112.659 49.7578 111.962 49.7578 111.104C49.7578 110.246 50.4555 109.55 51.3243 109.55H57.2188C58.0877 109.55 58.7896 110.246 58.7896 111.104C58.7896 111.962 58.0877 112.659 57.2188 112.659Z" fill="white"/>
<path d="M129.462 112.659H123.563C122.694 112.659 121.992 111.962 121.992 111.104C121.992 110.246 122.694 109.55 123.563 109.55H129.462C130.326 109.55 131.024 110.246 131.024 111.104C131.024 111.962 130.326 112.659 129.462 112.659Z" fill="white"/>
</g>
</svg>
