<svg width="180" height="179" viewBox="0 0 180 179" fill="none" xmlns="http://www.w3.org/2000/svg">
<rect width="180" height="178.611" rx="48" transform="matrix(-1 0 0 1 180 0.392578)" fill="black"/>
<mask id="mask0_5801_46486" style="mask-type:alpha" maskUnits="userSpaceOnUse" x="40" y="40" width="100" height="100">
<rect x="40" y="40.0835" width="100" height="99.2282" fill="#D9D9D9"/>
</mask>
<g mask="url(#mask0_5801_46486)">
<path d="M41 56.7132V134.847H140V44.5493H41V56.7132ZM138.742 133.543H42.2567V58.0121H138.742V133.543ZM42.2567 45.852H138.742V56.7126H42.2567V45.852ZM46.2253 50.6035H50.7986V51.9074H46.2253V50.6035ZM55.0462 50.6035H59.6338V51.9074H55.0699L55.0462 50.6035ZM63.867 50.6035H68.4404V51.9074H63.9284L63.867 50.6035ZM72.2344 78.7854H49.2115V106.132H72.2961L72.2344 78.7854ZM59.762 92.327L50.412 103.671V81.0122L59.762 92.327ZM51.442 80.1137H69.9147L60.6545 91.3504L51.442 80.1137ZM60.7164 93.3577L70.1515 104.819H51.2531L60.7164 93.3577ZM61.5338 92.3566L71.0963 80.7684V103.994L61.5338 92.3566ZM57.7447 72.5844H72.2961V73.8883H57.7447V72.5844ZM53.8374 73.8883H49.8309V72.5844H53.7995L53.8374 73.8883ZM72.3342 69.7326H49.8315V68.4287L72.2968 68.4335L72.3342 69.7326ZM103.38 78.8498H80.2432V106.197H103.337L103.38 78.8498ZM90.9073 92.3914L81.5479 103.735L81.5431 81.0128L90.9073 92.3914ZM82.4644 80.1487L100.956 80.1536L91.682 91.3903L82.4644 80.1487ZM91.7246 93.3927L101.174 104.854H82.2754L91.7246 93.3927ZM92.5561 92.3916L102.119 80.8035V103.995L92.5561 92.3916ZM88.7764 72.6244H103.338V73.9283H88.7486L88.7764 72.6244ZM84.8597 73.9283H80.8768V72.6244H84.8313L84.8597 73.9283ZM103.366 69.7726H80.8768V68.4687L103.337 68.4736L103.366 69.7726ZM131.814 78.8899H108.706V106.237H131.791L131.814 78.8899ZM119.341 92.4314L109.991 103.775V81.0141L119.341 92.4314ZM110.913 80.1888H129.432L120.172 91.4254L110.913 80.1888ZM120.173 93.4328L129.561 104.816H110.662L120.173 93.4328ZM121.004 92.4317L130.553 80.8435V103.996L121.004 92.4317ZM117.225 72.6644H131.791V73.9683H117.21L117.225 72.6644ZM113.308 73.9683H109.325V72.6644H113.294L113.308 73.9683ZM131.805 69.8126H109.325V68.5087L131.79 68.5136L131.805 69.8126ZM70.0683 123.202L113.596 123.207V112.972H69.9921L70.0683 123.202ZM71.3298 114.388H112.334V121.903H71.2487L71.3298 114.388ZM57.5475 114.388H49.2133V113.084H57.4672L57.5475 114.388ZM62.7115 118.802H49.2134V117.499L62.6316 117.503L62.7115 118.802ZM57.5475 123.202L49.2133 123.207V121.903H57.4672L57.5475 123.202ZM123.616 113.084H131.87V114.388H123.536L123.616 113.084ZM118.452 117.498L131.79 117.503V118.807L118.371 118.802L118.452 117.498ZM123.616 121.898H131.87V123.202L123.536 123.207L123.616 121.898Z" fill="white" stroke="white" stroke-width="0.8"/>
</g>
</svg>
