<svg width="115" height="115" viewBox="0 0 115 115" fill="none" xmlns="http://www.w3.org/2000/svg">
<mask id="mask0_7606_86718" style="mask-type:alpha" maskUnits="userSpaceOnUse" x="0" y="0" width="115" height="115">
<rect width="115" height="115" fill="#D9D9D9"/>
</mask>
<g mask="url(#mask0_7606_86718)">
</g>
<g clip-path="url(#clip0_7606_86718)">
<path d="M8.76172 82.29V83.24V84.97V85.14H51.2617V82.29H8.76172Z" fill="#05060F"/>
<path d="M5.67078 79.3899H5.91078V36.6099H3.05078V79.3899H3.61078H5.67078Z" fill="#05060F"/>
<path d="M54.2188 79.3899H54.8687H56.9287H57.0687V36.6099H54.2188V79.3899Z" fill="#05060F"/>
<path d="M8.76172 33.2501H51.2617V30.3901H8.76172V31.8501V33.2501Z" fill="#05060F"/>
<path d="M17.4525 72.1198C17.8025 72.4698 18.3025 72.5998 18.7725 72.4798L35.9525 67.9298C35.9525 67.9298 36.0025 67.9198 36.0225 67.9098C37.2225 67.5198 38.2225 66.6898 38.8225 65.5798V65.5598L42.1725 59.1598C42.3425 58.8498 42.4525 58.5198 42.5025 58.1798C43.0725 58.0398 43.6125 57.7298 44.0325 57.3098L44.9225 56.4198C46.1525 55.1898 46.1525 53.1998 44.9225 51.9798L37.8325 44.8898C36.6025 43.6598 34.6125 43.6598 33.3925 44.8898L32.5025 45.7798C32.0825 46.1998 31.7725 46.7298 31.6325 47.2998C31.3225 47.3498 31.0225 47.4398 30.7325 47.5898L24.1325 50.7398H24.1125C22.9325 51.3398 22.0425 52.3698 21.6425 53.6298C21.6425 53.6498 21.6225 53.6798 21.6225 53.6998L17.1025 70.8198C16.9725 71.2898 17.1125 71.7998 17.4625 72.1398L17.4525 72.1198ZM34.4425 47.7098L35.3325 46.8198C35.4825 46.6698 35.7325 46.6698 35.8925 46.8198L42.9825 53.9098C43.1325 54.0598 43.1325 54.3098 42.9825 54.4698L42.0925 55.3598C41.9625 55.4898 41.8525 55.5198 41.7925 55.5198C41.7625 55.5198 41.7425 55.5198 41.7225 55.5098C41.7025 55.5098 41.6725 55.4898 41.6325 55.4498L34.3525 48.1698C34.3525 48.1698 34.3025 48.0998 34.2925 48.0898C34.2925 48.0698 34.2825 48.0498 34.2925 48.0198C34.2925 47.9598 34.3325 47.8398 34.4625 47.7098H34.4425ZM24.2625 54.4298C24.4425 53.8998 24.8325 53.4598 25.3325 53.1998L31.9325 50.0498H31.9525C32.1025 49.9598 32.2825 49.9898 32.4025 50.1098L39.6825 57.3898C39.8025 57.5098 39.8325 57.6998 39.7525 57.8598V57.8798L36.4025 64.2798C36.1425 64.7498 35.7125 65.1098 35.2025 65.2798L22.9825 68.5098L27.8125 63.6798C29.6725 64.6998 31.8225 64.1898 33.0825 62.9198C34.8625 61.1398 34.8625 58.2498 33.0825 56.4598C31.3025 54.6798 28.4125 54.6798 26.6225 56.4598C25.3525 57.7298 24.9325 59.9198 25.8825 61.7198L21.0325 66.5698L24.2425 54.4198L24.2625 54.4298ZM28.5825 58.4198C29.2925 57.7098 30.4425 57.7098 31.1525 58.4198C31.8625 59.1298 31.8625 60.2798 31.1525 60.9898C30.5725 61.5698 29.4925 61.7398 28.6625 60.9098C27.8925 60.1398 28.0325 58.9698 28.5825 58.4198Z" fill="#05060F"/>
<path d="M8.76 36.61V28H0V36.61H8.76ZM2.97 30.86H5.91V33.8H2.97V30.86Z" fill="#05060F"/>
<path d="M56.9317 28H51.2617V36.61H60.0217V28H56.9317ZM57.1717 31.51V33.79H54.2317V30.85H57.1717V31.5V31.51Z" fill="#05060F"/>
<path d="M8.76 83.2401V79.3901H0V88.0001H8.76V83.2401ZM5.91 82.9001V85.1801H2.97V82.2401H5.91V82.8901V82.9001Z" fill="#05060F"/>
<path d="M54.8717 79.3901H51.2617V88.0001H60.0217V79.3901H54.8617H54.8717ZM57.1717 82.9001V85.1801H54.2317V82.2401H57.1717V82.8901V82.9001Z" fill="#05060F"/>
</g>
<defs>
<clipPath id="clip0_7606_86718">
<rect width="60.03" height="60" fill="white" transform="translate(0 28)"/>
</clipPath>
</defs>
</svg>
