<svg width="160" height="80" viewBox="0 0 160 80" fill="none" xmlns="http://www.w3.org/2000/svg">
<mask id="mask0_7771_51795" style="mask-type:alpha" maskUnits="userSpaceOnUse" x="0" y="0" width="160" height="80">
<rect width="160" height="80" fill="#D9D9D9"/>
</mask>
<g mask="url(#mask0_7771_51795)">
<mask id="path-2-outside-1_7771_51795" maskUnits="userSpaceOnUse" x="35" y="2" width="125" height="78" fill="black">
<rect fill="white" x="35" y="2" width="125" height="78"/>
<path d="M68.8023 78.2C62.669 78.2 57.2023 76.6333 52.4023 73.5C47.669 70.3 43.9357 65.9333 41.2023 60.4C38.469 54.8 37.1023 48.4333 37.1023 41.3C37.1023 34.1667 38.4357 27.8333 41.1023 22.3C43.8357 16.7667 47.569 12.4333 52.3023 9.3C57.0357 6.16666 62.469 4.6 68.6023 4.6C74.8023 4.6 80.269 6.16666 85.0023 9.3C89.8023 12.4333 93.5357 16.7667 96.2023 22.3C98.9357 27.8333 100.302 34.2 100.302 41.4C100.302 48.6 98.9357 54.9667 96.2023 60.5C93.5357 66.0333 89.8357 70.3667 85.1023 73.5C80.369 76.6333 74.9357 78.2 68.8023 78.2ZM68.7023 61.2C71.169 61.2 73.269 60.4333 75.0023 58.9C76.7357 57.3667 78.0357 55.1333 78.9023 52.2C79.8357 49.2 80.3023 45.6 80.3023 41.4C80.3023 37.2 79.8357 33.6333 78.9023 30.7C78.0357 27.7667 76.7357 25.5333 75.0023 24C73.269 22.4 71.1357 21.6 68.6023 21.6C66.2023 21.6 64.1357 22.3667 62.4023 23.9C60.669 25.4333 59.3357 27.6667 58.4023 30.6C57.5357 33.5333 57.1023 37.1 57.1023 41.3C57.1023 45.5 57.5357 49.1 58.4023 52.1C59.3357 55.0333 60.669 57.3 62.4023 58.9C64.1357 60.4333 66.2357 61.2 68.7023 61.2ZM128.48 78.2C123.614 78.2 118.847 77.3667 114.18 75.7C109.58 73.9667 105.78 71.5333 102.78 68.4L115.38 56.1C116.514 57.7 118.214 59.0333 120.48 60.1C122.814 61.1 125.214 61.6 127.68 61.6C129.814 61.6 131.647 61.2333 133.18 60.5C134.714 59.7667 135.914 58.7333 136.78 57.4C137.647 56 138.08 54.4 138.08 52.6C138.08 50.8 137.614 49.2 136.68 47.8C135.814 46.3333 134.514 45.2 132.78 44.4C131.047 43.5333 128.914 43.1 126.38 43.1C124.247 43.1 122.247 43.4333 120.38 44.1C118.514 44.7667 116.914 45.6 115.58 46.6L117.78 33.8C119.78 32.8 121.48 31.9667 122.88 31.3C124.28 30.6333 125.714 30.1667 127.18 29.9C128.647 29.5667 130.38 29.4 132.38 29.4C137.914 29.4 142.547 30.5 146.28 32.7C150.014 34.9 152.847 37.8333 154.78 41.5C156.714 45.1 157.68 49.0333 157.68 53.3C157.68 58.1667 156.48 62.5 154.08 66.3C151.747 70.0333 148.414 72.9667 144.08 75.1C139.747 77.1667 134.547 78.2 128.48 78.2ZM115.58 46.6L108.28 40.2L111.98 5.8H129.78L126.08 38.3L115.58 46.6ZM114.18 22.2L111.98 5.8H153.78V22.2H114.18Z"/>
</mask>
<path d="M52.4023 73.5L51.3942 74.9912L51.4063 74.9993L51.4184 75.0073L52.4023 73.5ZM41.2023 60.4L39.5847 61.1895L39.5885 61.1972L41.2023 60.4ZM41.1023 22.3L39.4885 21.5028L39.4846 21.5106L39.4808 21.5185L41.1023 22.3ZM52.3023 9.3L53.2959 10.8009L53.2959 10.8009L52.3023 9.3ZM85.0023 9.3L84.0088 10.801L84.0184 10.8073L85.0023 9.3ZM96.2023 22.3L94.5808 23.0815L94.5846 23.0893L94.5885 23.0972L96.2023 22.3ZM96.2023 60.5L94.5885 59.7028L94.5846 59.7107L94.5808 59.7185L96.2023 60.5ZM85.1023 73.5L86.0959 75.0009L86.0959 75.0009L85.1023 73.5ZM78.9023 52.2L77.1836 51.6653L77.1798 51.6776L77.1761 51.69L78.9023 52.2ZM78.9023 30.7L77.1761 31.21L77.1814 31.2279L77.1871 31.2458L78.9023 30.7ZM75.0023 24L73.7814 25.3226L73.7954 25.3356L73.8097 25.3482L75.0023 24ZM62.4023 23.9L61.2097 22.5518L61.2097 22.5518L62.4023 23.9ZM58.4023 30.6L56.6871 30.0542L56.6814 30.072L56.6761 30.09L58.4023 30.6ZM58.4023 52.1L56.6731 52.5996L56.6798 52.6228L56.6871 52.6458L58.4023 52.1ZM62.4023 58.9L61.1814 60.2226L61.1954 60.2356L61.2097 60.2482L62.4023 58.9ZM68.8023 76.4C62.9928 76.4 57.8729 74.9215 53.3863 71.9927L51.4184 75.0073C56.5318 78.3452 62.3452 80 68.8023 80V76.4ZM53.4105 72.0088C48.9564 68.9976 45.4227 64.8793 42.8162 59.6028L39.5885 61.1972C42.4487 66.9873 46.3816 71.6024 51.3942 74.9912L53.4105 72.0088ZM42.8199 59.6105C40.2229 54.2897 38.9023 48.1994 38.9023 41.3H35.3023C35.3023 48.6673 36.7151 55.3103 39.5847 61.1895L42.8199 59.6105ZM38.9023 41.3C38.9023 34.3937 40.1922 28.3346 42.7239 23.0815L39.4808 21.5185C36.6791 27.332 35.3023 33.9396 35.3023 41.3H38.9023ZM42.7162 23.0972C45.3213 17.8235 48.8508 13.7435 53.2959 10.8009L51.3088 7.79906C46.2872 11.1232 42.3501 15.7098 39.4885 21.5028L42.7162 23.0972ZM53.2959 10.8009C57.7107 7.87845 62.7926 6.4 68.6023 6.4V2.8C62.1454 2.8 56.3606 4.45488 51.3088 7.79906L53.2959 10.8009ZM68.6023 6.4C74.483 6.4 79.5972 7.8806 84.0088 10.8009L85.9959 7.79906C80.9408 4.45272 75.1217 2.8 68.6023 2.8V6.4ZM84.0184 10.8073C88.524 13.7484 92.046 17.8217 94.5808 23.0815L97.8239 21.5185C95.0254 15.7117 91.0807 11.1182 85.9863 7.79271L84.0184 10.8073ZM94.5885 23.0972C97.1805 28.3445 98.5023 34.4305 98.5023 41.4H102.102C102.102 33.9695 100.691 27.3222 97.8162 21.5028L94.5885 23.0972ZM98.5023 41.4C98.5023 48.3695 97.1805 54.4555 94.5885 59.7028L97.8162 61.2972C100.691 55.4778 102.102 48.8305 102.102 41.4H98.5023ZM94.5808 59.7185C92.0429 64.9847 88.5498 69.0593 84.1088 71.9991L86.0959 75.0009C91.1216 71.6741 95.0284 67.082 97.8239 61.2815L94.5808 59.7185ZM84.1088 71.9991C79.694 74.9215 74.6121 76.4 68.8023 76.4V80C75.2593 80 81.0441 78.3451 86.0959 75.0009L84.1088 71.9991ZM68.7023 63C71.5769 63 74.1097 62.0928 76.195 60.2482L73.8097 57.5518C72.4283 58.7738 70.7611 59.4 68.7023 59.4V63ZM76.195 60.2482C78.2505 58.4298 79.6963 55.8655 80.6286 52.71L77.1761 51.69C76.3751 54.4012 75.2209 56.3035 73.8097 57.5518L76.195 60.2482ZM80.6211 52.7347C81.6229 49.5145 82.1023 45.7243 82.1023 41.4H78.5023C78.5023 45.4757 78.0484 48.8855 77.1836 51.6653L80.6211 52.7347ZM82.1023 41.4C82.1023 37.0774 81.6234 33.3151 80.6176 30.1542L77.1871 31.2458C78.048 33.9515 78.5023 37.3226 78.5023 41.4H82.1023ZM80.6286 30.19C79.6963 27.0345 78.2505 24.4702 76.195 22.6518L73.8097 25.3482C75.2209 26.5965 76.3751 28.4988 77.1761 31.21L80.6286 30.19ZM76.2233 22.6774C74.1315 20.7465 71.5516 19.8 68.6023 19.8V23.4C70.7197 23.4 72.4065 24.0535 73.7814 25.3226L76.2233 22.6774ZM68.6023 19.8C65.7808 19.8 63.2853 20.7157 61.2097 22.5518L63.595 25.2482C64.9861 24.0176 66.6239 23.4 68.6023 23.4V19.8ZM61.2097 22.5518C59.1652 24.3604 57.6874 26.9104 56.6871 30.0542L60.1176 31.1458C60.984 28.4229 62.1728 26.5063 63.595 25.2482L61.2097 22.5518ZM56.6761 30.09C55.7461 33.2376 55.3023 36.9868 55.3023 41.3H58.9023C58.9023 37.2132 59.3252 33.829 60.1286 31.11L56.6761 30.09ZM55.3023 41.3C55.3023 45.6148 55.7465 49.3923 56.6731 52.5996L60.1316 51.6004C59.3248 48.8077 58.9023 45.3852 58.9023 41.3H55.3023ZM56.6871 52.6458C57.687 55.7883 59.1592 58.3559 61.1814 60.2226L63.6232 57.5774C62.1789 56.2441 60.9844 54.2784 60.1176 51.5542L56.6871 52.6458ZM61.2097 60.2482C63.295 62.0928 65.8278 63 68.7023 63V59.4C66.6435 59.4 64.9764 58.7738 63.595 57.5518L61.2097 60.2482ZM114.18 75.7L113.546 77.3844L113.56 77.3899L113.575 77.3951L114.18 75.7ZM102.78 68.4L101.523 67.112L100.247 68.3572L101.48 69.6448L102.78 68.4ZM115.38 56.1L116.849 55.0596L115.631 53.3398L114.123 54.812L115.38 56.1ZM120.48 60.1L119.714 61.7287L119.742 61.7421L119.771 61.7545L120.48 60.1ZM133.18 60.5L133.957 62.1238L133.957 62.1238L133.18 60.5ZM136.78 57.4L138.29 58.381L138.3 58.3643L138.311 58.3474L136.78 57.4ZM136.68 47.8L135.131 48.7157L135.156 48.7578L135.183 48.7985L136.68 47.8ZM132.78 44.4L131.975 46.01L132.001 46.0225L132.026 46.0343L132.78 44.4ZM120.38 44.1L119.775 42.4049L119.775 42.4049L120.38 44.1ZM115.58 46.6L113.806 46.2951L113.04 50.7555L116.66 48.04L115.58 46.6ZM117.78 33.8L116.975 32.19L116.161 32.5974L116.006 33.4951L117.78 33.8ZM127.18 29.9L127.502 31.671L127.541 31.6639L127.579 31.6552L127.18 29.9ZM154.78 41.5L153.188 42.3396L153.195 42.3516L154.78 41.5ZM154.08 66.3L152.559 65.3388L152.554 65.346L154.08 66.3ZM144.08 75.1L144.855 76.7247L144.865 76.7199L144.876 76.7149L144.08 75.1ZM115.58 46.6L114.394 47.9535L115.521 48.9416L116.697 48.0121L115.58 46.6ZM108.28 40.2L106.491 40.0075L106.391 40.9371L107.094 41.5535L108.28 40.2ZM111.98 5.8V4H110.364L110.191 5.6075L111.98 5.8ZM129.78 5.8L131.569 6.00361L131.797 4H129.78V5.8ZM126.08 38.3L127.197 39.7121L127.784 39.2477L127.869 38.5036L126.08 38.3ZM114.18 22.2L112.396 22.4393L112.606 24H114.18V22.2ZM111.98 5.8V4H109.923L110.196 6.03932L111.98 5.8ZM153.78 5.8H155.58V4H153.78V5.8ZM153.78 22.2V24H155.58V22.2H153.78ZM128.48 76.4C123.824 76.4 119.262 75.6034 114.786 74.0049L113.575 77.3951C118.432 79.1299 123.404 80 128.48 80V76.4ZM114.815 74.0156C110.433 72.3645 106.871 70.0696 104.081 67.1552L101.48 69.6448C104.69 72.997 108.728 75.5688 113.546 77.3844L114.815 74.0156ZM104.038 69.688L116.638 57.388L114.123 54.812L101.523 67.112L104.038 69.688ZM113.912 57.1404C115.268 59.0548 117.243 60.5657 119.714 61.7287L121.247 58.4713C119.185 57.5009 117.76 56.3452 116.849 55.0596L113.912 57.1404ZM119.771 61.7545C122.322 62.8476 124.963 63.4 127.68 63.4V59.8C125.465 59.8 123.305 59.3524 121.19 58.4455L119.771 61.7545ZM127.68 63.4C130.016 63.4 132.128 62.9988 133.957 62.1238L132.404 58.8762C131.167 59.4678 129.612 59.8 127.68 59.8V63.4ZM133.957 62.1238C135.768 61.2579 137.23 60.0111 138.29 58.381L135.271 56.419C134.598 57.4555 133.66 58.2754 132.404 58.8762L133.957 62.1238ZM138.311 58.3474C139.37 56.6366 139.88 54.7024 139.88 52.6H136.28C136.28 54.0976 135.924 55.3634 135.25 56.4526L138.311 58.3474ZM139.88 52.6C139.88 50.4707 139.323 48.5182 138.178 46.8015L135.183 48.7985C135.905 49.8818 136.28 51.1293 136.28 52.6H139.88ZM138.23 46.8843C137.155 45.0656 135.558 43.6997 133.535 42.7657L132.026 46.0343C133.469 46.7003 134.472 47.6011 135.131 48.7157L138.23 46.8843ZM133.585 42.79C131.537 41.766 129.111 41.3 126.38 41.3V44.9C128.717 44.9 130.557 45.3006 131.975 46.01L133.585 42.79ZM126.38 41.3C124.057 41.3 121.85 41.6637 119.775 42.4049L120.986 45.7951C122.644 45.203 124.438 44.9 126.38 44.9V41.3ZM119.775 42.4049C117.77 43.1211 116.003 44.0334 114.5 45.16L116.66 48.04C117.825 47.1666 119.258 46.4122 120.986 45.7951L119.775 42.4049ZM117.354 46.9049L119.554 34.1049L116.006 33.4951L113.806 46.2951L117.354 46.9049ZM118.585 35.41C120.579 34.4131 122.268 33.5852 123.654 32.9251L122.107 29.6748C120.693 30.3481 118.982 31.1869 116.975 32.19L118.585 35.41ZM123.654 32.9251C124.917 32.3241 126.198 31.9081 127.502 31.671L126.858 28.129C125.229 28.4253 123.644 28.9426 122.107 29.6748L123.654 32.9251ZM127.579 31.6552C128.88 31.3595 130.474 31.2 132.38 31.2V27.6C130.287 27.6 128.414 27.7738 126.782 28.1448L127.579 31.6552ZM132.38 31.2C137.68 31.2 141.977 32.2533 145.367 34.2508L147.194 31.1492C143.117 28.7467 138.148 27.6 132.38 27.6V31.2ZM145.367 34.2508C148.826 36.2893 151.418 38.982 153.188 42.3395L156.373 40.6605C154.276 36.6846 151.202 33.5107 147.194 31.1492L145.367 34.2508ZM153.195 42.3516C154.981 45.6781 155.88 49.317 155.88 53.3H159.48C159.48 48.7497 158.447 44.5219 156.366 40.6484L153.195 42.3516ZM155.88 53.3C155.88 57.8557 154.762 61.8503 152.559 65.3388L155.602 67.2612C158.199 63.1497 159.48 58.4776 159.48 53.3H155.88ZM152.554 65.346C150.415 68.768 147.348 71.4849 143.285 73.4851L144.876 76.7149C149.479 74.4485 153.079 71.2986 155.607 67.254L152.554 65.346ZM143.306 73.4753C139.269 75.4003 134.348 76.4 128.48 76.4V80C134.747 80 140.225 78.933 144.855 76.7247L143.306 73.4753ZM116.767 45.2465L109.467 38.8465L107.094 41.5535L114.394 47.9535L116.767 45.2465ZM110.07 40.3925L113.77 5.99249L110.191 5.6075L106.491 40.0075L110.07 40.3925ZM111.98 7.6H129.78V4H111.98V7.6ZM127.992 5.59639L124.292 38.0964L127.869 38.5036L131.569 6.00361L127.992 5.59639ZM124.964 36.8879L114.464 45.1879L116.697 48.0121L127.197 39.7121L124.964 36.8879ZM115.964 21.9607L113.764 5.56068L110.196 6.03932L112.396 22.4393L115.964 21.9607ZM111.98 7.6H153.78V4H111.98V7.6ZM151.98 5.8V22.2H155.58V5.8H151.98ZM153.78 20.4H114.18V24H153.78V20.4Z" fill="url(#paint0_linear_7771_51795)" mask="url(#path-2-outside-1_7771_51795)"/>
</g>
<defs>
<linearGradient id="paint0_linear_7771_51795" x1="160" y1="40.2981" x2="-0.000432916" y2="39.8655" gradientUnits="userSpaceOnUse">
<stop stop-color="#B9B9B9"/>
<stop offset="1" stop-color="#F5F5F5"/>
</linearGradient>
</defs>
</svg>
