<svg width="160" height="80" viewBox="0 0 160 80" fill="none" xmlns="http://www.w3.org/2000/svg">
<mask id="mask0_7771_51783" style="mask-type:alpha" maskUnits="userSpaceOnUse" x="0" y="0" width="160" height="80">
<rect width="160" height="80" fill="#D9D9D9"/>
</mask>
<g mask="url(#mask0_7771_51783)">
<mask id="path-2-outside-1_7771_51783" maskUnits="userSpaceOnUse" x="34" y="2" width="126" height="78" fill="black">
<rect fill="white" x="34" y="2" width="126" height="78"/>
<path d="M67.6305 78.2C61.4971 78.2 56.0305 76.6333 51.2305 73.5C46.4971 70.3 42.7638 65.9333 40.0305 60.4C37.2971 54.8 35.9305 48.4333 35.9305 41.3C35.9305 34.1667 37.2638 27.8333 39.9305 22.3C42.6638 16.7667 46.3971 12.4333 51.1305 9.3C55.8638 6.16666 61.2971 4.6 67.4305 4.6C73.6305 4.6 79.0971 6.16666 83.8305 9.3C88.6305 12.4333 92.3638 16.7667 95.0305 22.3C97.7638 27.8333 99.1305 34.2 99.1305 41.4C99.1305 48.6 97.7638 54.9667 95.0305 60.5C92.3638 66.0333 88.6638 70.3667 83.9305 73.5C79.1971 76.6333 73.7638 78.2 67.6305 78.2ZM67.5305 61.2C69.9971 61.2 72.0971 60.4333 73.8305 58.9C75.5638 57.3667 76.8638 55.1333 77.7305 52.2C78.6638 49.2 79.1305 45.6 79.1305 41.4C79.1305 37.2 78.6638 33.6333 77.7305 30.7C76.8638 27.7667 75.5638 25.5333 73.8305 24C72.0971 22.4 69.9638 21.6 67.4305 21.6C65.0305 21.6 62.9638 22.3667 61.2305 23.9C59.4971 25.4333 58.1638 27.6667 57.2305 30.6C56.3638 33.5333 55.9305 37.1 55.9305 41.3C55.9305 45.5 56.3638 49.1 57.2305 52.1C58.1638 55.0333 59.4971 57.3 61.2305 58.9C62.9638 60.4333 65.0638 61.2 67.5305 61.2ZM103.309 66.3L131.709 37.7C132.842 36.5667 133.742 35.5333 134.409 34.6C135.142 33.6 135.642 32.6667 135.909 31.8C136.242 30.9333 136.409 30.0333 136.409 29.1C136.409 26.7667 135.642 24.9333 134.109 23.6C132.642 22.2 130.642 21.5 128.109 21.5C125.842 21.5 123.742 22.2 121.809 23.6C119.875 24.9333 117.809 27.2333 115.609 30.5L102.609 18.8C105.542 14.1333 109.309 10.6 113.909 8.2C118.575 5.8 123.875 4.6 129.809 4.6C135.209 4.6 139.842 5.56666 143.709 7.49999C147.642 9.36666 150.642 12.0667 152.709 15.6C154.842 19.1333 155.909 23.3333 155.909 28.2C155.909 30.9333 155.542 33.5 154.809 35.9C154.075 38.3 152.909 40.6667 151.309 43C149.709 45.2667 147.642 47.6 145.109 50L127.209 67L103.309 66.3ZM103.309 77V66.3L119.909 60.6H157.409V77H103.309Z"/>
</mask>
<path d="M51.2305 73.5L50.2223 74.9912L50.2344 74.9993L50.2465 75.0073L51.2305 73.5ZM40.0305 60.4L38.4129 61.1895L38.4166 61.1972L40.0305 60.4ZM39.9305 22.3L38.3166 21.5028L38.3128 21.5106L38.3089 21.5185L39.9305 22.3ZM51.1305 9.3L52.124 10.8009L52.124 10.8009L51.1305 9.3ZM83.8305 9.3L82.8369 10.801L82.8466 10.8073L83.8305 9.3ZM95.0305 22.3L93.409 23.0815L93.4128 23.0893L93.4166 23.0972L95.0305 22.3ZM95.0305 60.5L93.4166 59.7028L93.4128 59.7107L93.409 59.7185L95.0305 60.5ZM83.9305 73.5L84.924 75.0009L84.924 75.0009L83.9305 73.5ZM77.7305 52.2L76.0117 51.6653L76.0079 51.6776L76.0042 51.69L77.7305 52.2ZM77.7305 30.7L76.0042 31.21L76.0095 31.2279L76.0152 31.2458L77.7305 30.7ZM73.8305 24L72.6096 25.3226L72.6236 25.3356L72.6378 25.3482L73.8305 24ZM61.2305 23.9L60.0378 22.5518L60.0378 22.5518L61.2305 23.9ZM57.2305 30.6L55.5152 30.0542L55.5095 30.072L55.5042 30.09L57.2305 30.6ZM57.2305 52.1L55.5012 52.5996L55.5079 52.6228L55.5152 52.6458L57.2305 52.1ZM61.2305 58.9L60.0096 60.2226L60.0236 60.2356L60.0378 60.2482L61.2305 58.9ZM67.6305 76.4C61.821 76.4 56.701 74.9215 52.2144 71.9927L50.2465 75.0073C55.3599 78.3452 61.1733 80 67.6305 80V76.4ZM52.2386 72.0088C47.7845 68.9976 44.2508 64.8793 41.6443 59.6028L38.4166 61.1972C41.2768 66.9873 45.2097 71.6024 50.2223 74.9912L52.2386 72.0088ZM41.6481 59.6105C39.051 54.2897 37.7305 48.1994 37.7305 41.3H34.1305C34.1305 48.6673 35.5432 55.3103 38.4129 61.1895L41.6481 59.6105ZM37.7305 41.3C37.7305 34.3937 39.0203 28.3346 41.552 23.0815L38.3089 21.5185C35.5073 27.332 34.1305 33.9396 34.1305 41.3H37.7305ZM41.5443 23.0972C44.1494 17.8235 47.6789 13.7435 52.124 10.8009L50.1369 7.79906C45.1153 11.1232 41.1782 15.7098 38.3166 21.5028L41.5443 23.0972ZM52.124 10.8009C56.5389 7.87845 61.6208 6.4 67.4305 6.4V2.8C60.9735 2.8 55.1887 4.45488 50.1369 7.79906L52.124 10.8009ZM67.4305 6.4C73.3111 6.4 78.4253 7.8806 82.8369 10.8009L84.824 7.79906C79.7689 4.45272 73.9499 2.8 67.4305 2.8V6.4ZM82.8466 10.8073C87.3521 13.7484 90.8741 17.8217 93.409 23.0815L96.652 21.5185C93.8535 15.7117 89.9088 11.1182 84.8144 7.79271L82.8466 10.8073ZM93.4166 23.0972C96.0087 28.3445 97.3305 34.4305 97.3305 41.4H100.93C100.93 33.9695 99.519 27.3222 96.6443 21.5028L93.4166 23.0972ZM97.3305 41.4C97.3305 48.3695 96.0087 54.4555 93.4166 59.7028L96.6443 61.2972C99.519 55.4778 100.93 48.8305 100.93 41.4H97.3305ZM93.409 59.7185C90.8711 64.9847 87.3779 69.0593 82.9369 71.9991L84.924 75.0009C89.9497 71.6741 93.8566 67.082 96.652 61.2815L93.409 59.7185ZM82.9369 71.9991C78.5221 74.9215 73.4402 76.4 67.6305 76.4V80C74.0874 80 79.8722 78.3451 84.924 75.0009L82.9369 71.9991ZM67.5305 63C70.405 63 72.9378 62.0928 75.0231 60.2482L72.6378 57.5518C71.2564 58.7738 69.5893 59.4 67.5305 59.4V63ZM75.0231 60.2482C77.0786 58.4298 78.5244 55.8655 79.4567 52.71L76.0042 51.69C75.2032 54.4012 74.049 56.3035 72.6378 57.5518L75.0231 60.2482ZM79.4492 52.7347C80.4511 49.5145 80.9305 45.7243 80.9305 41.4H77.3305C77.3305 45.4757 76.8765 48.8855 76.0117 51.6653L79.4492 52.7347ZM80.9305 41.4C80.9305 37.0774 80.4515 33.3151 79.4457 30.1542L76.0152 31.2458C76.8761 33.9515 77.3305 37.3226 77.3305 41.4H80.9305ZM79.4567 30.19C78.5244 27.0345 77.0786 24.4702 75.0231 22.6518L72.6378 25.3482C74.049 26.5965 75.2032 28.4988 76.0042 31.21L79.4567 30.19ZM75.0514 22.6774C72.9596 20.7465 70.3797 19.8 67.4305 19.8V23.4C69.5479 23.4 71.2347 24.0535 72.6096 25.3226L75.0514 22.6774ZM67.4305 19.8C64.609 19.8 62.1134 20.7157 60.0378 22.5518L62.4231 25.2482C63.8142 24.0176 65.452 23.4 67.4305 23.4V19.8ZM60.0378 22.5518C57.9933 24.3604 56.5155 26.9104 55.5152 30.0542L58.9457 31.1458C59.8121 28.4229 61.0009 26.5063 62.4231 25.2482L60.0378 22.5518ZM55.5042 30.09C54.5743 33.2376 54.1305 36.9868 54.1305 41.3H57.7305C57.7305 37.2132 58.1534 33.829 58.9567 31.11L55.5042 30.09ZM54.1305 41.3C54.1305 45.6148 54.5746 49.3923 55.5012 52.5996L58.9598 51.6004C58.153 48.8077 57.7305 45.3852 57.7305 41.3H54.1305ZM55.5152 52.6458C56.5151 55.7883 57.9873 58.3559 60.0096 60.2226L62.4514 57.5774C61.007 56.2441 59.8125 54.2784 58.9457 51.5542L55.5152 52.6458ZM60.0378 60.2482C62.1231 62.0928 64.6559 63 67.5305 63V59.4C65.4717 59.4 63.8045 58.7738 62.4231 57.5518L60.0378 60.2482ZM103.309 66.3L102.031 65.0317L99.1059 67.9777L103.256 68.0992L103.309 66.3ZM131.709 37.7L130.436 36.4272L130.431 36.4317L131.709 37.7ZM134.409 34.6L132.957 33.5355L132.95 33.5446L132.944 33.5538L134.409 34.6ZM135.909 31.8L134.229 31.1538L134.206 31.2115L134.188 31.2706L135.909 31.8ZM134.109 23.6L132.866 24.902L132.896 24.9309L132.927 24.9583L134.109 23.6ZM121.809 23.6L122.831 25.0818L122.848 25.07L122.864 25.0579L121.809 23.6ZM115.609 30.5L114.404 31.8379L115.944 33.2238L117.102 31.5055L115.609 30.5ZM102.609 18.8L101.085 17.8421L100.279 19.1246L101.404 20.1379L102.609 18.8ZM113.909 8.2L113.085 6.59925L113.076 6.60415L113.909 8.2ZM143.709 7.49999L142.904 9.10996L142.92 9.11823L142.937 9.12616L143.709 7.49999ZM152.709 15.6L151.155 16.5088L151.161 16.5196L151.168 16.5304L152.709 15.6ZM154.809 35.9L156.53 36.426L156.53 36.426L154.809 35.9ZM151.309 43L152.779 44.038L152.786 44.028L152.793 44.018L151.309 43ZM145.109 50L143.871 48.6933L143.869 48.6948L145.109 50ZM127.209 67L127.156 68.7992L127.905 68.8212L128.448 68.3052L127.209 67ZM103.309 77H101.509V78.8H103.309V77ZM103.309 66.3L102.724 64.5976L101.509 65.0149V66.3H103.309ZM119.909 60.6V58.8H119.608L119.324 58.8976L119.909 60.6ZM157.409 60.6H159.209V58.8H157.409V60.6ZM157.409 77V78.8H159.209V77H157.409ZM104.586 67.5683L132.986 38.9683L130.431 36.4317L102.031 65.0317L104.586 67.5683ZM132.981 38.9728C134.16 37.7946 135.131 36.6849 135.873 35.6462L132.944 33.5538C132.352 34.3818 131.524 35.3387 130.436 36.4272L132.981 38.9728ZM135.86 35.6645C136.672 34.5577 137.286 33.4443 137.629 32.3294L134.188 31.2706C133.998 31.889 133.612 32.6423 132.957 33.5355L135.86 35.6645ZM137.589 32.4462C138.002 31.3722 138.209 30.2531 138.209 29.1H134.609C134.609 29.8136 134.482 30.4945 134.229 31.1538L137.589 32.4462ZM138.209 29.1C138.209 26.3315 137.277 23.9694 135.29 22.2417L132.927 24.9583C134.007 25.8972 134.609 27.2019 134.609 29.1H138.209ZM135.351 22.298C133.472 20.5035 130.984 19.7 128.109 19.7V23.3C130.3 23.3 131.812 23.8965 132.866 24.902L135.351 22.298ZM128.109 19.7C125.442 19.7 122.976 20.5323 120.753 22.1421L122.864 25.0579C124.508 23.8677 126.242 23.3 128.109 23.3V19.7ZM120.787 22.1182C118.584 23.6374 116.368 26.1502 114.116 29.4945L117.102 31.5055C119.249 28.3165 121.167 26.2293 122.831 25.0818L120.787 22.1182ZM116.813 29.1621L103.813 17.4621L101.404 20.1379L114.404 31.8379L116.813 29.1621ZM104.133 19.7579C106.907 15.3439 110.442 12.039 114.741 9.79585L113.076 6.60415C108.175 9.16103 104.177 12.9227 101.085 17.8421L104.133 19.7579ZM114.732 9.80072C119.112 7.54793 124.124 6.4 129.809 6.4V2.8C123.627 2.8 118.038 4.05207 113.085 6.59928L114.732 9.80072ZM129.809 6.4C134.997 6.4 139.341 7.32883 142.904 9.10996L144.514 5.89003C140.343 3.80449 135.42 2.8 129.809 2.8V6.4ZM142.937 9.12616C146.565 10.8481 149.283 13.308 151.155 16.5088L154.262 14.6912C152.001 10.8253 148.719 7.8852 144.48 5.87383L142.937 9.12616ZM151.168 16.5304C153.103 19.7362 154.109 23.6019 154.109 28.2H157.709C157.709 23.0647 156.581 18.5305 154.25 14.6696L151.168 16.5304ZM154.109 28.2C154.109 30.7709 153.764 33.159 153.087 35.374L156.53 36.426C157.32 33.841 157.709 31.0958 157.709 28.2H154.109ZM153.087 35.374C152.414 37.5782 151.334 39.7807 149.824 41.982L152.793 44.018C154.484 41.5526 155.737 39.0218 156.53 36.426L153.087 35.374ZM149.838 41.962C148.321 44.1106 146.339 46.3551 143.871 48.6933L146.347 51.3067C148.945 48.8449 151.096 46.4228 152.779 44.038L149.838 41.962ZM143.869 48.6948L125.969 65.6948L128.448 68.3052L146.348 51.3052L143.869 48.6948ZM127.261 65.2008L103.361 64.5008L103.256 68.0992L127.156 68.7992L127.261 65.2008ZM105.109 77V66.3H101.509V77H105.109ZM103.893 68.0024L120.493 62.3024L119.324 58.8976L102.724 64.5976L103.893 68.0024ZM119.909 62.4H157.409V58.8H119.909V62.4ZM155.609 60.6V77H159.209V60.6H155.609ZM157.409 75.2H103.309V78.8H157.409V75.2Z" fill="url(#paint0_linear_7771_51783)" mask="url(#path-2-outside-1_7771_51783)"/>
</g>
<defs>
<linearGradient id="paint0_linear_7771_51783" x1="160" y1="40.2981" x2="-0.000432916" y2="39.8655" gradientUnits="userSpaceOnUse">
<stop stop-color="#B9B9B9"/>
<stop offset="1" stop-color="#F5F5F5"/>
</linearGradient>
</defs>
</svg>
