<svg width="80" height="81" viewBox="0 0 80 81" fill="none" xmlns="http://www.w3.org/2000/svg">
<path d="M32.5 36.75C31.8107 36.75 31.25 37.3107 31.25 38V40.9167H33.75V38C33.75 37.3107 33.1893 36.75 32.5 36.75Z" fill="black"/>
<path d="M40.0013 18.417C27.8244 18.417 17.918 28.3234 17.918 40.5003C17.918 52.6772 27.8244 62.5837 40.0013 62.5837C52.1782 62.5837 62.0846 52.6772 62.0846 40.5003C62.0846 28.3234 52.1782 18.417 40.0013 18.417ZM40.0013 60.0837C29.203 60.0837 20.418 51.2987 20.418 40.5003C20.418 29.702 29.203 20.917 40.0013 20.917C50.7996 20.917 59.5846 29.702 59.5846 40.5003C59.5846 51.2987 50.7996 60.0837 40.0013 60.0837Z" fill="black"/>
<path d="M40.0013 23.417C30.5815 23.417 22.918 31.0806 22.918 40.5003C22.918 49.9201 30.5815 57.5837 40.0013 57.5837C49.4211 57.5837 57.0846 49.9201 57.0846 40.5003C57.0846 31.0806 49.4211 23.417 40.0013 23.417ZM36.2513 45.5003C36.2513 46.1904 35.6914 46.7503 35.0013 46.7503C34.3112 46.7503 33.7513 46.1904 33.7513 45.5003V43.417H31.2513V45.5003C31.2513 46.1904 30.6914 46.7503 30.0013 46.7503C29.3112 46.7503 28.7513 46.1904 28.7513 45.5003V38.0003C28.7513 35.9325 30.4334 34.2503 32.5013 34.2503C34.5692 34.2503 36.2513 35.9325 36.2513 38.0003V45.5003ZM42.5013 41.7503H41.2513V45.5003C41.2513 46.1904 40.6914 46.7503 40.0013 46.7503C39.3112 46.7503 38.7513 46.1904 38.7513 45.5003V35.5003C38.7513 34.8102 39.3112 34.2503 40.0013 34.2503H42.5013C44.5692 34.2503 46.2513 35.9325 46.2513 38.0003C46.2513 40.0682 44.5692 41.7503 42.5013 41.7503ZM51.2513 45.5003C51.2513 46.1904 50.6914 46.7503 50.0013 46.7503C49.3112 46.7503 48.7513 46.1904 48.7513 45.5003V35.5003C48.7513 34.8102 49.3112 34.2503 50.0013 34.2503C50.6914 34.2503 51.2513 34.8102 51.2513 35.5003V45.5003Z" fill="black"/>
<path d="M42.5 36.75H41.25V39.25H42.5C43.1893 39.25 43.75 38.6893 43.75 38C43.75 37.3107 43.1893 36.75 42.5 36.75Z" fill="black"/>
<path d="M73.9395 32.2083C69.3305 31.5926 67.0342 26.062 69.8623 22.3646C71.2523 20.5474 71.0798 17.957 69.4619 16.3392L64.1608 11.0389C62.5431 9.42106 59.9553 9.24853 58.1365 10.6383C54.4327 13.4684 48.9037 11.155 48.2925 6.56135C47.9897 4.2933 46.0366 2.5835 43.749 2.5835H36.2523C33.9648 2.5835 32.0117 4.2932 31.7088 6.56106C31.0936 11.1687 25.5638 13.4688 21.8651 10.6385C20.0462 9.24855 17.4583 9.42106 15.8405 11.0389L10.5394 16.3392C8.92165 17.9569 8.74902 20.5472 10.1388 22.3644C12.9656 26.0605 10.6503 31.5979 6.06183 32.2083C3.79378 32.5111 2.08398 34.4642 2.08398 36.7518V44.2485C2.08398 46.536 3.79368 48.4891 6.06155 48.7919C10.6568 49.4056 12.9556 54.9532 10.139 58.6357C8.74903 60.4538 8.92155 63.0433 10.5394 64.6603L15.8397 69.9614C17.4566 71.5792 20.0477 71.7518 21.8649 70.3619C25.5496 67.5439 31.1013 69.8728 31.7088 74.439C32.0116 76.707 33.9647 78.4168 36.2523 78.4168H43.749C46.0365 78.4168 47.9896 76.7071 48.2925 74.4391C48.9078 69.8301 54.4414 67.537 58.1362 70.3618C59.9551 71.7518 62.543 71.5793 64.1608 69.9614L69.4619 64.6603C71.0805 63.0433 71.2523 60.4532 69.8617 58.636C67.0428 54.9524 69.3704 49.3998 73.9395 48.792C76.2075 48.4893 77.9173 46.5362 77.9173 44.2486V36.7518C77.9173 34.4643 76.2076 32.5112 73.9395 32.2083ZM40.0007 65.0835C26.4452 65.0835 15.4173 54.0557 15.4173 40.5002C15.4173 26.9447 26.4452 15.9168 40.0007 15.9168C53.5562 15.9168 64.584 26.9447 64.584 40.5002C64.584 54.0557 53.5562 65.0835 40.0007 65.0835Z" fill="black"/>
</svg>
