<svg width="115" height="115" viewBox="0 0 115 115" fill="none" xmlns="http://www.w3.org/2000/svg">
<mask id="mask0_7606_86780" style="mask-type:alpha" maskUnits="userSpaceOnUse" x="0" y="0" width="115" height="115">
<rect width="115" height="115" fill="#D9D9D9"/>
</mask>
<g mask="url(#mask0_7606_86780)">
</g>
<g clip-path="url(#clip0_7606_86780)">
<path d="M3.3265 99C5.28724 94.9956 7.2615 90.9776 9.23577 86.9733C9.62792 86.1943 9.8578 85.1283 10.4933 84.732C11.1289 84.3356 12.1836 84.5953 13.0491 84.5953C16.6325 84.5953 20.2294 84.5953 23.9346 84.5953V80.591C23.9346 78.992 23.9346 79.0193 22.4606 78.541C10.2364 74.4956 2.85322 66.1043 0.567939 53.326C0.0135223 50.2373 0.175791 47.0256 0 43.8003H4.90862C4.90862 44.0873 4.90862 44.4016 4.90862 44.7023C4.93566 47.5996 4.77339 50.5243 5.36838 53.3943C7.27503 62.6193 12.4676 69.275 21.0543 72.9103C36.2805 79.3473 53.2375 70.1906 56.6722 53.8726C57.2672 51.03 57.2131 48.1463 57.1996 45.2626C57.1996 44.7843 57.1996 44.3196 57.1996 43.8003H61.8377C61.8377 43.8003 61.9189 43.8686 61.9189 43.9096C62.3381 51.6996 61.2698 59.1343 56.8209 65.749C52.4803 72.227 46.6116 76.5866 39.1202 78.664C38.3629 78.869 38.133 79.1696 38.1601 79.9486C38.2277 81.4656 38.1736 82.9826 38.1736 84.5816H39.0796C43.0687 84.5816 47.0578 84.5816 51.0334 84.5816C51.4661 84.5816 51.7365 84.6636 51.9529 85.1146C54.1706 89.652 56.4153 94.1756 58.66 98.6993C58.7005 98.795 58.7276 98.8906 58.7682 99H3.3265ZM51.101 94.162C50.3978 92.727 49.7082 91.4423 49.1267 90.1166C48.8698 89.529 48.5182 89.3923 47.9232 89.3923C36.6861 89.406 25.4356 89.3923 14.1985 89.3923C14.0092 89.3923 13.8198 89.365 13.6441 89.3923C13.5088 89.4196 13.3195 89.488 13.2654 89.5973C12.5082 91.0733 11.778 92.5766 10.9937 94.1483H51.101V94.162ZM28.708 84.5543H33.3867V79.771H28.708V84.5543Z" fill="black"/>
<path d="M52.5737 43.554C52.425 46.4513 52.4926 49.3213 52.0869 52.1366C50.7347 61.5803 42.7024 69.138 33.3043 70.04C22.1214 71.1196 12.3041 63.808 10.0865 52.697C9.8025 51.303 9.70784 49.8406 9.6808 48.4056C9.62671 45.235 9.65375 42.0506 9.66727 38.88C9.6808 27.8783 17.2533 18.954 28.0036 17.232C39.2271 15.4416 50.4237 23.628 52.0869 34.9713C52.5061 37.8003 52.425 40.7113 52.5872 43.5403L52.5737 43.554ZM47.5434 43.6086C47.5434 41.258 47.7327 38.9073 47.5028 36.584C46.7321 28.6163 39.7951 22.152 31.8575 21.8513C22.216 21.4823 14.4407 29.0263 14.4136 38.7706C14.4136 41.996 14.3731 45.2213 14.4271 48.4466C14.4542 49.7176 14.5624 51.016 14.8328 52.246C16.7665 60.7466 24.4607 66.2133 33.0339 65.243C40.5794 64.382 46.7456 58.2046 47.5028 50.5513C47.7327 48.2553 47.5434 45.9183 47.5434 43.595V43.6086Z" fill="black"/>
<path d="M38.1666 50.948C38.1666 54.925 34.9618 58.1777 31.0133 58.164C27.1189 58.164 23.9141 54.925 23.9141 50.9753C23.9141 46.9983 27.1189 43.7457 31.0674 43.7593C34.9753 43.7593 38.1666 46.9983 38.1666 50.948ZM31.0674 48.57C29.7828 48.5563 28.6875 49.6223 28.6604 50.9207C28.6334 52.2053 29.6881 53.326 30.9727 53.367C32.2844 53.408 33.4068 52.301 33.4203 50.9753C33.4203 49.677 32.352 48.5837 31.0809 48.57H31.0674Z" fill="black"/>
<path d="M26.2376 41.0125H21.5859V31.5142H26.2376V41.0125Z" fill="black"/>
<path d="M35.8359 40.9851V31.4868H40.4876V40.9851H35.8359Z" fill="black"/>
</g>
<defs>
<clipPath id="clip0_7606_86780">
<rect width="62" height="82" fill="white" transform="translate(0 17)"/>
</clipPath>
</defs>
</svg>
