<svg width="160" height="80" viewBox="0 0 160 80" fill="none" xmlns="http://www.w3.org/2000/svg">
<mask id="mask0_7771_51799" style="mask-type:alpha" maskUnits="userSpaceOnUse" x="0" y="0" width="160" height="80">
<rect width="160" height="80" fill="#D9D9D9"/>
</mask>
<g mask="url(#mask0_7771_51799)">
<mask id="path-2-outside-1_7771_51799" maskUnits="userSpaceOnUse" x="31" y="2" width="130" height="78" fill="black">
<rect fill="white" x="31" y="2" width="130" height="78"/>
<path d="M64.5055 78.2C58.3721 78.2 52.9055 76.6333 48.1055 73.5C43.3721 70.3 39.6388 65.9333 36.9055 60.4C34.1721 54.8 32.8055 48.4333 32.8055 41.3C32.8055 34.1667 34.1388 27.8333 36.8055 22.3C39.5388 16.7667 43.2721 12.4333 48.0055 9.3C52.7388 6.16666 58.1721 4.6 64.3055 4.6C70.5055 4.6 75.9721 6.16666 80.7055 9.3C85.5055 12.4333 89.2388 16.7667 91.9055 22.3C94.6388 27.8333 96.0055 34.2 96.0055 41.4C96.0055 48.6 94.6388 54.9667 91.9055 60.5C89.2388 66.0333 85.5388 70.3667 80.8055 73.5C76.0721 76.6333 70.6388 78.2 64.5055 78.2ZM64.4055 61.2C66.8721 61.2 68.9721 60.4333 70.7055 58.9C72.4388 57.3667 73.7388 55.1333 74.6055 52.2C75.5388 49.2 76.0055 45.6 76.0055 41.4C76.0055 37.2 75.5388 33.6333 74.6055 30.7C73.7388 27.7667 72.4388 25.5333 70.7055 24C68.9721 22.4 66.8388 21.6 64.3055 21.6C61.9055 21.6 59.8388 22.3667 58.1055 23.9C56.3721 25.4333 55.0388 27.6667 54.1055 30.6C53.2388 33.5333 52.8055 37.1 52.8055 41.3C52.8055 45.5 53.2388 49.1 54.1055 52.1C55.0388 55.0333 56.3721 57.3 58.1055 58.9C59.8388 60.4333 61.9388 61.2 64.4055 61.2ZM99.5836 53L120.984 5.8H142.184L120.284 53H99.5836ZM99.5836 63.7V53L104.984 47.3H158.384V63.7H99.5836ZM132.984 77V35.4H152.484V77H132.984Z"/>
</mask>
<path d="M48.1055 73.5L47.0973 74.9912L47.1094 74.9993L47.1215 75.0073L48.1055 73.5ZM36.9055 60.4L35.2879 61.1895L35.2916 61.1972L36.9055 60.4ZM36.8055 22.3L35.1916 21.5028L35.1878 21.5106L35.1839 21.5185L36.8055 22.3ZM48.0055 9.3L48.999 10.8009L48.999 10.8009L48.0055 9.3ZM80.7055 9.3L79.7119 10.801L79.7216 10.8073L80.7055 9.3ZM91.9055 22.3L90.284 23.0815L90.2878 23.0893L90.2916 23.0972L91.9055 22.3ZM91.9055 60.5L90.2916 59.7028L90.2878 59.7107L90.284 59.7185L91.9055 60.5ZM80.8055 73.5L81.799 75.0009L81.799 75.0009L80.8055 73.5ZM74.6055 52.2L72.8867 51.6653L72.8829 51.6776L72.8792 51.69L74.6055 52.2ZM74.6055 30.7L72.8792 31.21L72.8845 31.2279L72.8902 31.2458L74.6055 30.7ZM70.7055 24L69.4846 25.3226L69.4986 25.3356L69.5128 25.3482L70.7055 24ZM58.1055 23.9L56.9128 22.5518L56.9128 22.5518L58.1055 23.9ZM54.1055 30.6L52.3902 30.0542L52.3845 30.072L52.3792 30.09L54.1055 30.6ZM54.1055 52.1L52.3762 52.5996L52.3829 52.6228L52.3902 52.6458L54.1055 52.1ZM58.1055 58.9L56.8846 60.2226L56.8986 60.2356L56.9128 60.2482L58.1055 58.9ZM64.5055 76.4C58.696 76.4 53.576 74.9215 49.0894 71.9927L47.1215 75.0073C52.2349 78.3452 58.0483 80 64.5055 80V76.4ZM49.1136 72.0088C44.6595 68.9976 41.1258 64.8793 38.5193 59.6028L35.2916 61.1972C38.1518 66.9873 42.0847 71.6024 47.0973 74.9912L49.1136 72.0088ZM38.5231 59.6105C35.926 54.2897 34.6055 48.1994 34.6055 41.3H31.0055C31.0055 48.6673 32.4182 55.3103 35.2879 61.1895L38.5231 59.6105ZM34.6055 41.3C34.6055 34.3937 35.8953 28.3346 38.427 23.0815L35.1839 21.5185C32.3823 27.332 31.0055 33.9396 31.0055 41.3H34.6055ZM38.4193 23.0972C41.0244 17.8235 44.5539 13.7435 48.999 10.8009L47.0119 7.79906C41.9903 11.1232 38.0532 15.7098 35.1916 21.5028L38.4193 23.0972ZM48.999 10.8009C53.4139 7.87845 58.4958 6.4 64.3055 6.4V2.8C57.8485 2.8 52.0637 4.45488 47.0119 7.79906L48.999 10.8009ZM64.3055 6.4C70.1861 6.4 75.3003 7.8806 79.7119 10.8009L81.699 7.79906C76.6439 4.45272 70.8249 2.8 64.3055 2.8V6.4ZM79.7216 10.8073C84.2271 13.7484 87.7491 17.8217 90.284 23.0815L93.527 21.5185C90.7285 15.7117 86.7838 11.1182 81.6894 7.79271L79.7216 10.8073ZM90.2916 23.0972C92.8837 28.3445 94.2055 34.4305 94.2055 41.4H97.8055C97.8055 33.9695 96.394 27.3222 93.5193 21.5028L90.2916 23.0972ZM94.2055 41.4C94.2055 48.3695 92.8837 54.4555 90.2916 59.7028L93.5193 61.2972C96.394 55.4778 97.8055 48.8305 97.8055 41.4H94.2055ZM90.284 59.7185C87.7461 64.9847 84.2529 69.0593 79.8119 71.9991L81.799 75.0009C86.8247 71.6741 90.7316 67.082 93.527 61.2815L90.284 59.7185ZM79.8119 71.9991C75.3971 74.9215 70.3152 76.4 64.5055 76.4V80C70.9624 80 76.7472 78.3451 81.799 75.0009L79.8119 71.9991ZM64.4055 63C67.28 63 69.8128 62.0928 71.8981 60.2482L69.5128 57.5518C68.1314 58.7738 66.4643 59.4 64.4055 59.4V63ZM71.8981 60.2482C73.9536 58.4298 75.3994 55.8655 76.3317 52.71L72.8792 51.69C72.0782 54.4012 70.924 56.3035 69.5128 57.5518L71.8981 60.2482ZM76.3242 52.7347C77.3261 49.5145 77.8055 45.7243 77.8055 41.4H74.2055C74.2055 45.4757 73.7515 48.8855 72.8867 51.6653L76.3242 52.7347ZM77.8055 41.4C77.8055 37.0774 77.3265 33.3151 76.3207 30.1542L72.8902 31.2458C73.7511 33.9515 74.2055 37.3226 74.2055 41.4H77.8055ZM76.3317 30.19C75.3994 27.0345 73.9536 24.4702 71.8981 22.6518L69.5128 25.3482C70.924 26.5965 72.0782 28.4988 72.8792 31.21L76.3317 30.19ZM71.9264 22.6774C69.8346 20.7465 67.2547 19.8 64.3055 19.8V23.4C66.4229 23.4 68.1097 24.0535 69.4846 25.3226L71.9264 22.6774ZM64.3055 19.8C61.484 19.8 58.9884 20.7157 56.9128 22.5518L59.2981 25.2482C60.6892 24.0176 62.327 23.4 64.3055 23.4V19.8ZM56.9128 22.5518C54.8683 24.3604 53.3905 26.9104 52.3902 30.0542L55.8207 31.1458C56.6871 28.4229 57.8759 26.5063 59.2981 25.2482L56.9128 22.5518ZM52.3792 30.09C51.4493 33.2376 51.0055 36.9868 51.0055 41.3H54.6055C54.6055 37.2132 55.0284 33.829 55.8317 31.11L52.3792 30.09ZM51.0055 41.3C51.0055 45.6148 51.4496 49.3923 52.3762 52.5996L55.8348 51.6004C55.028 48.8077 54.6055 45.3852 54.6055 41.3H51.0055ZM52.3902 52.6458C53.3901 55.7883 54.8623 58.3559 56.8846 60.2226L59.3264 57.5774C57.882 56.2441 56.6875 54.2784 55.8207 51.5542L52.3902 52.6458ZM56.9128 60.2482C58.9981 62.0928 61.5309 63 64.4055 63V59.4C62.3467 59.4 60.6795 58.7738 59.2981 57.5518L56.9128 60.2482ZM99.5836 53L97.9442 52.2567L96.7911 54.8H99.5836V53ZM120.984 5.8V4H119.823L119.344 5.05672L120.984 5.8ZM142.184 5.8L143.816 6.55759L145.003 4H142.184V5.8ZM120.284 53V54.8H121.433L121.916 53.7576L120.284 53ZM99.5836 63.7H97.7836V65.5H99.5836V63.7ZM99.5836 53L98.2769 51.7621L97.7836 52.2827V53H99.5836ZM104.984 47.3V45.5H104.209L103.677 46.0621L104.984 47.3ZM158.384 47.3H160.184V45.5H158.384V47.3ZM158.384 63.7V65.5H160.184V63.7H158.384ZM132.984 77H131.184V78.8H132.984V77ZM132.984 35.4V33.6H131.184V35.4H132.984ZM152.484 35.4H154.284V33.6H152.484V35.4ZM152.484 77V78.8H154.284V77H152.484ZM101.223 53.7433L122.623 6.54327L119.344 5.05672L97.9442 52.2567L101.223 53.7433ZM120.984 7.6H142.184V4H120.984V7.6ZM140.551 5.0424L118.651 52.2424L121.916 53.7576L143.816 6.55759L140.551 5.0424ZM120.284 51.2H99.5836V54.8H120.284V51.2ZM101.384 63.7V53H97.7836V63.7H101.384ZM100.89 54.2379L106.29 48.5379L103.677 46.0621L98.2769 51.7621L100.89 54.2379ZM104.984 49.1H158.384V45.5H104.984V49.1ZM156.584 47.3V63.7H160.184V47.3H156.584ZM158.384 61.9H99.5836V65.5H158.384V61.9ZM134.784 77V35.4H131.184V77H134.784ZM132.984 37.2H152.484V33.6H132.984V37.2ZM150.684 35.4V77H154.284V35.4H150.684ZM152.484 75.2H132.984V78.8H152.484V75.2Z" fill="url(#paint0_linear_7771_51799)" mask="url(#path-2-outside-1_7771_51799)"/>
</g>
<defs>
<linearGradient id="paint0_linear_7771_51799" x1="160" y1="40.2981" x2="-0.000432916" y2="39.8655" gradientUnits="userSpaceOnUse">
<stop stop-color="#B9B9B9"/>
<stop offset="1" stop-color="#F5F5F5"/>
</linearGradient>
</defs>
</svg>
