<svg width="160" height="80" viewBox="0 0 160 80" fill="none" xmlns="http://www.w3.org/2000/svg">
<mask id="mask0_7771_51791" style="mask-type:alpha" maskUnits="userSpaceOnUse" x="0" y="0" width="160" height="80">
<rect width="160" height="80" fill="#D9D9D9"/>
</mask>
<g mask="url(#mask0_7771_51791)">
<mask id="path-2-outside-1_7771_51791" maskUnits="userSpaceOnUse" x="34" y="2" width="127" height="78" fill="black">
<rect fill="white" x="34" y="2" width="127" height="78"/>
<path d="M67.9234 78.2C61.7901 78.2 56.3234 76.6333 51.5234 73.5C46.7901 70.3 43.0568 65.9333 40.3234 60.4C37.5901 54.8 36.2234 48.4333 36.2234 41.3C36.2234 34.1667 37.5568 27.8333 40.2234 22.3C42.9568 16.7667 46.6901 12.4333 51.4234 9.3C56.1568 6.16666 61.5901 4.6 67.7234 4.6C73.9234 4.6 79.3901 6.16666 84.1234 9.3C88.9234 12.4333 92.6568 16.7667 95.3234 22.3C98.0568 27.8333 99.4234 34.2 99.4234 41.4C99.4234 48.6 98.0568 54.9667 95.3234 60.5C92.6568 66.0333 88.9568 70.3667 84.2234 73.5C79.4901 76.6333 74.0568 78.2 67.9234 78.2ZM67.8234 61.2C70.2901 61.2 72.3901 60.4333 74.1234 58.9C75.8568 57.3667 77.1568 55.1333 78.0234 52.2C78.9568 49.2 79.4234 45.6 79.4234 41.4C79.4234 37.2 78.9568 33.6333 78.0234 30.7C77.1568 27.7667 75.8568 25.5333 74.1234 24C72.3901 22.4 70.2568 21.6 67.7234 21.6C65.3234 21.6 63.2568 22.3667 61.5234 23.9C59.7901 25.4333 58.4568 27.6667 57.5234 30.6C56.6568 33.5333 56.2234 37.1 56.2234 41.3C56.2234 45.5 56.6568 49.1 57.5234 52.1C58.4568 55.0333 59.7901 57.3 61.5234 58.9C63.2568 60.4333 65.3568 61.2 67.8234 61.2ZM130.802 78.2C125.602 78.2 120.902 77.1 116.702 74.9C112.568 72.7 109.268 69.7333 106.802 66C104.402 62.2 103.202 57.9333 103.202 53.2C103.202 47.6 105.135 41.9667 109.002 36.3L129.702 5.8H151.902L128.002 38.8L120.502 37.2C121.635 35.5333 122.702 34.1 123.702 32.9C124.768 31.7 126.035 30.7667 127.502 30.1C129.035 29.4333 131.035 29.1 133.502 29.1C138.168 29.1 142.368 30.2 146.102 32.4C149.835 34.5333 152.802 37.4333 155.002 41.1C157.268 44.7 158.402 48.7333 158.402 53.2C158.402 57.9333 157.168 62.2 154.702 66C152.302 69.7333 149.035 72.7 144.902 74.9C140.768 77.1 136.068 78.2 130.802 78.2ZM130.802 61.6C132.468 61.6 133.935 61.2333 135.202 60.5C136.535 59.7 137.568 58.6333 138.302 57.3C139.035 55.9 139.402 54.3333 139.402 52.6C139.402 50.8667 139.035 49.3333 138.302 48C137.568 46.6 136.535 45.5333 135.202 44.8C133.935 44 132.468 43.6 130.802 43.6C129.135 43.6 127.635 44 126.302 44.8C125.035 45.5333 124.035 46.6 123.302 48C122.568 49.3333 122.202 50.8667 122.202 52.6C122.202 54.3333 122.568 55.9 123.302 57.3C124.035 58.6333 125.035 59.7 126.302 60.5C127.635 61.2333 129.135 61.6 130.802 61.6Z"/>
</mask>
<path d="M51.5234 73.5L50.5153 74.9912L50.5273 74.9993L50.5395 75.0073L51.5234 73.5ZM40.3234 60.4L38.7058 61.1895L38.7096 61.1972L40.3234 60.4ZM40.2234 22.3L38.6096 21.5028L38.6057 21.5106L38.6019 21.5185L40.2234 22.3ZM51.4234 9.3L52.417 10.8009L52.417 10.8009L51.4234 9.3ZM84.1234 9.3L83.1298 10.801L83.1395 10.8073L84.1234 9.3ZM95.3234 22.3L93.7019 23.0815L93.7057 23.0893L93.7096 23.0972L95.3234 22.3ZM95.3234 60.5L93.7096 59.7028L93.7057 59.7107L93.7019 59.7185L95.3234 60.5ZM84.2234 73.5L85.217 75.0009L85.217 75.0009L84.2234 73.5ZM78.0234 52.2L76.3047 51.6653L76.3009 51.6776L76.2972 51.69L78.0234 52.2ZM78.0234 30.7L76.2972 31.21L76.3025 31.2279L76.3082 31.2458L78.0234 30.7ZM74.1234 24L72.9025 25.3226L72.9165 25.3356L72.9308 25.3482L74.1234 24ZM61.5234 23.9L60.3308 22.5518L60.3308 22.5518L61.5234 23.9ZM57.5234 30.6L55.8082 30.0542L55.8025 30.072L55.7972 30.09L57.5234 30.6ZM57.5234 52.1L55.7942 52.5996L55.8009 52.6228L55.8082 52.6458L57.5234 52.1ZM61.5234 58.9L60.3025 60.2226L60.3165 60.2356L60.3308 60.2482L61.5234 58.9ZM67.9234 76.4C62.1139 76.4 56.994 74.9215 52.5074 71.9927L50.5395 75.0073C55.6529 78.3452 61.4663 80 67.9234 80V76.4ZM52.5316 72.0088C48.0775 68.9976 44.5438 64.8793 41.9373 59.6028L38.7096 61.1972C41.5698 66.9873 45.5027 71.6024 50.5153 74.9912L52.5316 72.0088ZM41.941 59.6105C39.344 54.2897 38.0234 48.1994 38.0234 41.3H34.4234C34.4234 48.6673 35.8362 55.3103 38.7058 61.1895L41.941 59.6105ZM38.0234 41.3C38.0234 34.3937 39.3133 28.3346 41.845 23.0815L38.6019 21.5185C35.8002 27.332 34.4234 33.9396 34.4234 41.3H38.0234ZM41.8373 23.0972C44.4424 17.8235 47.9719 13.7435 52.417 10.8009L50.4299 7.79906C45.4083 11.1232 41.4712 15.7098 38.6096 21.5028L41.8373 23.0972ZM52.417 10.8009C56.8318 7.87845 61.9137 6.4 67.7234 6.4V2.8C61.2665 2.8 55.4817 4.45488 50.4299 7.79906L52.417 10.8009ZM67.7234 6.4C73.6041 6.4 78.7183 7.8806 83.1299 10.8009L85.117 7.79906C80.0619 4.45272 74.2428 2.8 67.7234 2.8V6.4ZM83.1395 10.8073C87.6451 13.7484 91.1671 17.8217 93.7019 23.0815L96.945 21.5185C94.1465 15.7117 90.2018 11.1182 85.1074 7.79271L83.1395 10.8073ZM93.7096 23.0972C96.3016 28.3445 97.6234 34.4305 97.6234 41.4H101.223C101.223 33.9695 99.8119 27.3222 96.9373 21.5028L93.7096 23.0972ZM97.6234 41.4C97.6234 48.3695 96.3016 54.4555 93.7096 59.7028L96.9373 61.2972C99.8119 55.4778 101.223 48.8305 101.223 41.4H97.6234ZM93.7019 59.7185C91.164 64.9847 87.6709 69.0593 83.2299 71.9991L85.217 75.0009C90.2427 71.6741 94.1495 67.082 96.945 61.2815L93.7019 59.7185ZM83.2299 71.9991C78.8151 74.9215 73.7332 76.4 67.9234 76.4V80C74.3804 80 80.1652 78.3451 85.217 75.0009L83.2299 71.9991ZM67.8234 63C70.698 63 73.2308 62.0928 75.3161 60.2482L72.9308 57.5518C71.5494 58.7738 69.8822 59.4 67.8234 59.4V63ZM75.3161 60.2482C77.3716 58.4298 78.8174 55.8655 79.7497 52.71L76.2972 51.69C75.4962 54.4012 74.342 56.3035 72.9308 57.5518L75.3161 60.2482ZM79.7422 52.7347C80.744 49.5145 81.2234 45.7243 81.2234 41.4H77.6234C77.6234 45.4757 77.1695 48.8855 76.3047 51.6653L79.7422 52.7347ZM81.2234 41.4C81.2234 37.0774 80.7445 33.3151 79.7387 30.1542L76.3082 31.2458C77.1691 33.9515 77.6234 37.3226 77.6234 41.4H81.2234ZM79.7497 30.19C78.8174 27.0345 77.3716 24.4702 75.3161 22.6518L72.9308 25.3482C74.342 26.5965 75.4962 28.4988 76.2972 31.21L79.7497 30.19ZM75.3443 22.6774C73.2526 20.7465 70.6727 19.8 67.7234 19.8V23.4C69.8408 23.4 71.5276 24.0535 72.9025 25.3226L75.3443 22.6774ZM67.7234 19.8C64.9019 19.8 62.4064 20.7157 60.3308 22.5518L62.7161 25.2482C64.1072 24.0176 65.7449 23.4 67.7234 23.4V19.8ZM60.3308 22.5518C58.2863 24.3604 56.8085 26.9104 55.8082 30.0542L59.2387 31.1458C60.1051 28.4229 61.2939 26.5063 62.7161 25.2482L60.3308 22.5518ZM55.7972 30.09C54.8672 33.2376 54.4234 36.9868 54.4234 41.3H58.0234C58.0234 37.2132 58.4463 33.829 59.2497 31.11L55.7972 30.09ZM54.4234 41.3C54.4234 45.6148 54.8676 49.3923 55.7942 52.5996L59.2527 51.6004C58.4459 48.8077 58.0234 45.3852 58.0234 41.3H54.4234ZM55.8082 52.6458C56.8081 55.7883 58.2802 58.3559 60.3025 60.2226L62.7443 57.5774C61.3 56.2441 60.1055 54.2784 59.2387 51.5542L55.8082 52.6458ZM60.3308 60.2482C62.4161 62.0928 64.9489 63 67.8234 63V59.4C65.7646 59.4 64.0975 58.7738 62.7161 57.5518L60.3308 60.2482ZM116.702 74.9L115.856 76.489L115.866 76.4945L116.702 74.9ZM106.802 66L105.28 66.9612L105.29 66.9768L105.3 66.9923L106.802 66ZM109.002 36.3L110.488 37.3146L110.491 37.3108L109.002 36.3ZM129.702 5.8V4H128.748L128.212 4.78918L129.702 5.8ZM151.902 5.8L153.359 6.85582L155.428 4H151.902V5.8ZM128.002 38.8L127.626 40.5604L128.772 40.8049L129.459 39.8558L128.002 38.8ZM120.502 37.2L119.013 36.1878L117.508 38.4018L120.126 38.9604L120.502 37.2ZM123.702 32.9L122.356 31.7041L122.337 31.7256L122.319 31.7477L123.702 32.9ZM127.502 30.1L126.784 28.4493L126.77 28.4552L126.757 28.4613L127.502 30.1ZM146.102 32.4L145.188 33.9508L145.198 33.9569L145.209 33.9628L146.102 32.4ZM155.002 41.1L153.458 42.0261L153.468 42.0427L153.478 42.0591L155.002 41.1ZM154.702 66L153.192 65.0199L153.187 65.0266L154.702 66ZM144.902 74.9L144.056 73.3111L144.056 73.3111L144.902 74.9ZM135.202 60.5L136.103 62.0578L136.116 62.0507L136.128 62.0435L135.202 60.5ZM138.302 57.3L139.879 58.1675L139.888 58.1514L139.896 58.1352L138.302 57.3ZM138.302 48L136.707 48.8352L136.716 48.8514L136.724 48.8675L138.302 48ZM135.202 44.8L134.24 46.3219L134.286 46.3509L134.334 46.3772L135.202 44.8ZM126.302 44.8L127.203 46.3578L127.216 46.3507L127.228 46.3435L126.302 44.8ZM123.302 48L124.879 48.8675L124.888 48.8514L124.896 48.8352L123.302 48ZM123.302 57.3L121.707 58.1352L121.716 58.1514L121.724 58.1675L123.302 57.3ZM126.302 60.5L125.34 62.0219L125.386 62.051L125.434 62.0772L126.302 60.5ZM130.802 76.4C125.864 76.4 121.455 75.3578 117.537 73.3055L115.866 76.4945C120.348 78.8422 125.339 80 130.802 80V76.4ZM117.547 73.3111C113.666 71.2453 110.597 68.4788 108.303 65.0077L105.3 66.9923C107.94 70.9879 111.47 74.1547 115.856 76.4889L117.547 73.3111ZM108.323 65.0388C106.115 61.5421 105.002 57.612 105.002 53.2H101.402C101.402 58.2546 102.688 62.8579 105.28 66.9612L108.323 65.0388ZM105.002 53.2C105.002 48.0364 106.779 42.7502 110.488 37.3145L107.515 35.2855C103.49 41.1831 101.402 47.1636 101.402 53.2H105.002ZM110.491 37.3108L131.191 6.81082L128.212 4.78918L107.512 35.2892L110.491 37.3108ZM129.702 7.6H151.902V4H129.702V7.6ZM150.444 4.74418L126.544 37.7442L129.459 39.8558L153.359 6.85582L150.444 4.74418ZM128.377 37.0396L120.877 35.4396L120.126 38.9604L127.626 40.5604L128.377 37.0396ZM121.99 38.2122C123.099 36.5808 124.131 35.1967 125.084 34.0523L122.319 31.7477C121.272 33.0033 120.17 34.4858 119.013 36.1878L121.99 38.2122ZM125.047 34.0959C125.946 33.0844 127.008 32.3017 128.246 31.7387L126.757 28.4613C125.062 29.2317 123.591 30.3156 122.356 31.7041L125.047 34.0959ZM128.219 31.7507C129.445 31.2178 131.175 30.9 133.502 30.9V27.3C130.895 27.3 128.625 27.6489 126.784 28.4493L128.219 31.7507ZM133.502 30.9C137.872 30.9 141.753 31.9265 145.188 33.9508L147.015 30.8492C142.984 28.4735 138.464 27.3 133.502 27.3V30.9ZM145.209 33.9628C148.676 35.944 151.418 38.6254 153.458 42.0261L156.545 40.1739C154.185 36.2412 150.994 33.1226 146.995 30.8372L145.209 33.9628ZM153.478 42.0591C155.555 45.3572 156.602 49.0549 156.602 53.2H160.202C160.202 48.4117 158.982 44.0428 156.525 40.1409L153.478 42.0591ZM156.602 53.2C156.602 57.6019 155.46 61.5252 153.192 65.02L156.211 66.98C158.876 62.8748 160.202 58.2648 160.202 53.2H156.602ZM153.187 65.0266C150.963 68.4866 147.933 71.2475 144.056 73.3111L145.747 76.4889C150.137 74.1525 153.64 70.98 156.216 66.9734L153.187 65.0266ZM144.056 73.3111C140.214 75.3559 135.811 76.4 130.802 76.4V80C136.326 80 141.323 78.8441 145.747 76.4889L144.056 73.3111ZM130.802 63.4C132.74 63.4 134.526 62.9708 136.103 62.0578L134.3 58.9422C133.343 59.4959 132.196 59.8 130.802 59.8V63.4ZM136.128 62.0435C137.728 61.0834 138.989 59.7861 139.879 58.1675L136.724 56.4325C136.148 57.4806 135.342 58.3166 134.275 58.9565L136.128 62.0435ZM139.896 58.1352C140.777 56.4532 141.202 54.5955 141.202 52.6H137.602C137.602 54.0711 137.293 55.3468 136.707 56.4648L139.896 58.1352ZM141.202 52.6C141.202 50.6061 140.778 48.7667 139.879 47.1325L136.724 48.8675C137.292 49.8999 137.602 51.1272 137.602 52.6H141.202ZM139.896 47.1648C139.005 45.4642 137.725 44.1335 136.069 43.2228L134.334 46.3772C135.345 46.9332 136.131 47.7358 136.707 48.8352L139.896 47.1648ZM136.163 43.2781C134.577 42.2764 132.769 41.8 130.802 41.8V45.4C132.168 45.4 133.293 45.7236 134.24 46.3219L136.163 43.2781ZM130.802 41.8C128.833 41.8 127.009 42.2766 125.375 43.2565L127.228 46.3435C128.261 45.7234 129.437 45.4 130.802 45.4V41.8ZM125.4 43.2422C123.815 44.1597 122.585 45.4883 121.707 47.1648L124.896 48.8352C125.485 47.7116 126.255 46.9069 127.203 46.3578L125.4 43.2422ZM121.724 47.1325C120.826 48.7667 120.402 50.6061 120.402 52.6H124.002C124.002 51.1272 124.311 49.8999 124.879 48.8675L121.724 47.1325ZM120.402 52.6C120.402 54.5955 120.826 56.4532 121.707 58.1352L124.896 56.4648C124.31 55.3468 124.002 54.0711 124.002 52.6H120.402ZM121.724 58.1675C122.602 59.7631 123.812 61.0567 125.34 62.0219L127.263 58.9781C126.258 58.3433 125.468 57.5035 124.879 56.4325L121.724 58.1675ZM125.434 62.0772C127.058 62.9703 128.861 63.4 130.802 63.4V59.8C129.409 59.8 128.212 59.4963 127.169 58.9228L125.434 62.0772Z" fill="url(#paint0_linear_7771_51791)" mask="url(#path-2-outside-1_7771_51791)"/>
</g>
<defs>
<linearGradient id="paint0_linear_7771_51791" x1="160" y1="40.2981" x2="-0.000432916" y2="39.8655" gradientUnits="userSpaceOnUse">
<stop stop-color="#B9B9B9"/>
<stop offset="1" stop-color="#F5F5F5"/>
</linearGradient>
</defs>
</svg>
