<svg width="160" height="80" viewBox="0 0 160 80" fill="none" xmlns="http://www.w3.org/2000/svg">
<mask id="mask0_7771_51787" style="mask-type:alpha" maskUnits="userSpaceOnUse" x="0" y="0" width="160" height="80">
<rect width="160" height="80" fill="#D9D9D9"/>
</mask>
<g mask="url(#mask0_7771_51787)">
<mask id="path-2-outside-1_7771_51787" maskUnits="userSpaceOnUse" x="35" y="2" width="125" height="78" fill="black">
<rect fill="white" x="35" y="2" width="125" height="78"/>
<path d="M68.5094 78.2C62.376 78.2 56.9094 76.6333 52.1094 73.5C47.376 70.3 43.6427 65.9333 40.9094 60.4C38.176 54.8 36.8094 48.4333 36.8094 41.3C36.8094 34.1667 38.1427 27.8333 40.8094 22.3C43.5427 16.7667 47.276 12.4333 52.0094 9.3C56.7427 6.16666 62.176 4.6 68.3094 4.6C74.5094 4.6 79.976 6.16666 84.7094 9.3C89.5094 12.4333 93.2427 16.7667 95.9094 22.3C98.6427 27.8333 100.009 34.2 100.009 41.4C100.009 48.6 98.6427 54.9667 95.9094 60.5C93.2427 66.0333 89.5427 70.3667 84.8094 73.5C80.076 76.6333 74.6427 78.2 68.5094 78.2ZM68.4094 61.2C70.876 61.2 72.976 60.4333 74.7094 58.9C76.4427 57.3667 77.7427 55.1333 78.6094 52.2C79.5427 49.2 80.0094 45.6 80.0094 41.4C80.0094 37.2 79.5427 33.6333 78.6094 30.7C77.7427 27.7667 76.4427 25.5333 74.7094 24C72.976 22.4 70.8427 21.6 68.3094 21.6C65.9094 21.6 63.8427 22.3667 62.1094 23.9C60.376 25.4333 59.0427 27.6667 58.1094 30.6C57.2427 33.5333 56.8094 37.1 56.8094 41.3C56.8094 45.5 57.2427 49.1 58.1094 52.1C59.0427 55.0333 60.376 57.3 62.1094 58.9C63.8427 60.4333 65.9427 61.2 68.4094 61.2ZM128.088 78.2C123.021 78.2 118.288 77.3667 113.888 75.7C109.554 73.9667 105.888 71.5333 102.888 68.4L115.387 56.1C116.521 57.7 118.254 59.0333 120.588 60.1C122.921 61.1 125.321 61.6 127.788 61.6C129.788 61.6 131.554 61.2667 133.088 60.6C134.688 59.9333 135.921 58.9667 136.788 57.7C137.721 56.4333 138.188 54.9 138.188 53.1C138.188 51.3 137.721 49.7667 136.788 48.5C135.854 47.2333 134.521 46.2667 132.788 45.6C131.054 44.9333 128.988 44.6 126.588 44.6C125.254 44.6 123.821 44.7 122.288 44.9C120.821 45.0333 119.688 45.2667 118.888 45.6L127.588 34.8C129.921 34.2667 131.988 33.8333 133.788 33.5C135.654 33.1 137.288 32.9 138.688 32.9C142.288 32.9 145.521 33.7333 148.388 35.4C151.254 37.0667 153.521 39.4667 155.188 42.6C156.854 45.6667 157.688 49.3333 157.688 53.6C157.688 58.4667 156.454 62.7667 153.988 66.5C151.588 70.1667 148.154 73.0333 143.688 75.1C139.288 77.1667 134.088 78.2 128.088 78.2ZM118.888 45.6V34.9L134.588 16.4L155.888 16.5L139.688 34.8L118.888 45.6ZM108.188 22.2V5.8H155.888V16.5L141.188 22.2H108.188Z"/>
</mask>
<path d="M52.1094 73.5L51.1012 74.9912L51.1133 74.9993L51.1255 75.0073L52.1094 73.5ZM40.9094 60.4L39.2918 61.1895L39.2955 61.1972L40.9094 60.4ZM40.8094 22.3L39.1955 21.5028L39.1917 21.5106L39.1879 21.5185L40.8094 22.3ZM52.0094 9.3L53.003 10.8009L53.003 10.8009L52.0094 9.3ZM84.7094 9.3L83.7158 10.801L83.7255 10.8073L84.7094 9.3ZM95.9094 22.3L94.2879 23.0815L94.2917 23.0893L94.2955 23.0972L95.9094 22.3ZM95.9094 60.5L94.2955 59.7028L94.2917 59.7107L94.2879 59.7185L95.9094 60.5ZM84.8094 73.5L85.803 75.0009L85.803 75.0009L84.8094 73.5ZM78.6094 52.2L76.8906 51.6653L76.8868 51.6776L76.8831 51.69L78.6094 52.2ZM78.6094 30.7L76.8831 31.21L76.8884 31.2279L76.8941 31.2458L78.6094 30.7ZM74.7094 24L73.4885 25.3226L73.5025 25.3356L73.5167 25.3482L74.7094 24ZM62.1094 23.9L60.9167 22.5518L60.9167 22.5518L62.1094 23.9ZM58.1094 30.6L56.3941 30.0542L56.3884 30.072L56.3831 30.09L58.1094 30.6ZM58.1094 52.1L56.3801 52.5996L56.3868 52.6228L56.3941 52.6458L58.1094 52.1ZM62.1094 58.9L60.8885 60.2226L60.9025 60.2356L60.9167 60.2482L62.1094 58.9ZM68.5094 76.4C62.6999 76.4 57.58 74.9215 53.0933 71.9927L51.1255 75.0073C56.2388 78.3452 62.0522 80 68.5094 80V76.4ZM53.1175 72.0088C48.6634 68.9976 45.1297 64.8793 42.5232 59.6028L39.2955 61.1972C42.1557 66.9873 46.0887 71.6024 51.1012 74.9912L53.1175 72.0088ZM42.527 59.6105C39.9299 54.2897 38.6094 48.1994 38.6094 41.3H35.0094C35.0094 48.6673 36.4221 55.3103 39.2918 61.1895L42.527 59.6105ZM38.6094 41.3C38.6094 34.3937 39.8992 28.3346 42.4309 23.0815L39.1879 21.5185C36.3862 27.332 35.0094 33.9396 35.0094 41.3H38.6094ZM42.4232 23.0972C45.0283 17.8235 48.5578 13.7435 53.003 10.8009L51.0158 7.79906C45.9943 11.1232 42.0571 15.7098 39.1955 21.5028L42.4232 23.0972ZM53.003 10.8009C57.4178 7.87845 62.4997 6.4 68.3094 6.4V2.8C61.8524 2.8 56.0677 4.45488 51.0158 7.79906L53.003 10.8009ZM68.3094 6.4C74.19 6.4 79.3042 7.8806 83.7158 10.8009L85.703 7.79906C80.6478 4.45272 74.8288 2.8 68.3094 2.8V6.4ZM83.7255 10.8073C88.231 13.7484 91.753 17.8217 94.2879 23.0815L97.5309 21.5185C94.7324 15.7117 90.7877 11.1182 85.6933 7.79271L83.7255 10.8073ZM94.2955 23.0972C96.8876 28.3445 98.2094 34.4305 98.2094 41.4H101.809C101.809 33.9695 100.398 27.3222 97.5232 21.5028L94.2955 23.0972ZM98.2094 41.4C98.2094 48.3695 96.8876 54.4555 94.2955 59.7028L97.5232 61.2972C100.398 55.4778 101.809 48.8305 101.809 41.4H98.2094ZM94.2879 59.7185C91.75 64.9847 88.2568 69.0593 83.8158 71.9991L85.803 75.0009C90.8286 71.6741 94.7355 67.082 97.5309 61.2815L94.2879 59.7185ZM83.8158 71.9991C79.401 74.9215 74.3191 76.4 68.5094 76.4V80C74.9663 80 80.7511 78.3451 85.803 75.0009L83.8158 71.9991ZM68.4094 63C71.2839 63 73.8167 62.0928 75.902 60.2482L73.5167 57.5518C72.1353 58.7738 70.4682 59.4 68.4094 59.4V63ZM75.902 60.2482C77.9575 58.4298 79.4033 55.8655 80.3356 52.71L76.8831 51.69C76.0821 54.4012 74.9279 56.3035 73.5167 57.5518L75.902 60.2482ZM80.3281 52.7347C81.33 49.5145 81.8094 45.7243 81.8094 41.4H78.2094C78.2094 45.4757 77.7555 48.8855 76.8906 51.6653L80.3281 52.7347ZM81.8094 41.4C81.8094 37.0774 81.3304 33.3151 80.3246 30.1542L76.8941 31.2458C77.755 33.9515 78.2094 37.3226 78.2094 41.4H81.8094ZM80.3356 30.19C79.4033 27.0345 77.9575 24.4702 75.902 22.6518L73.5167 25.3482C74.9279 26.5965 76.0821 28.4988 76.8831 31.21L80.3356 30.19ZM75.9303 22.6774C73.8385 20.7465 71.2587 19.8 68.3094 19.8V23.4C70.4268 23.4 72.1136 24.0535 73.4885 25.3226L75.9303 22.6774ZM68.3094 19.8C65.4879 19.8 62.9923 20.7157 60.9167 22.5518L63.302 25.2482C64.6931 24.0176 66.3309 23.4 68.3094 23.4V19.8ZM60.9167 22.5518C58.8722 24.3604 57.3944 26.9104 56.3941 30.0542L59.8246 31.1458C60.691 28.4229 61.8798 26.5063 63.302 25.2482L60.9167 22.5518ZM56.3831 30.09C55.4532 33.2376 55.0094 36.9868 55.0094 41.3H58.6094C58.6094 37.2132 59.0323 33.829 59.8356 31.11L56.3831 30.09ZM55.0094 41.3C55.0094 45.6148 55.4535 49.3923 56.3801 52.5996L59.8387 51.6004C59.0319 48.8077 58.6094 45.3852 58.6094 41.3H55.0094ZM56.3941 52.6458C57.394 55.7883 58.8662 58.3559 60.8885 60.2226L63.3303 57.5774C61.8859 56.2441 60.6914 54.2784 59.8246 51.5542L56.3941 52.6458ZM60.9167 60.2482C63.002 62.0928 65.5348 63 68.4094 63V59.4C66.3506 59.4 64.6834 58.7738 63.302 57.5518L60.9167 60.2482ZM113.888 75.7L113.219 77.3713L113.234 77.3774L113.25 77.3833L113.888 75.7ZM102.888 68.4L101.625 67.117L100.359 68.3623L101.587 69.6448L102.888 68.4ZM115.387 56.1L116.856 55.0596L115.633 53.3329L114.125 54.817L115.387 56.1ZM120.588 60.1L119.839 61.7371L119.859 61.746L119.878 61.7545L120.588 60.1ZM133.088 60.6L132.395 58.9385L132.382 58.9438L132.37 58.9493L133.088 60.6ZM136.788 57.7L135.338 56.6322L135.32 56.6576L135.302 56.6836L136.788 57.7ZM136.788 48.5L138.237 47.4322L138.237 47.4322L136.788 48.5ZM132.788 45.6L133.434 43.92L133.434 43.92L132.788 45.6ZM122.288 44.9L122.45 46.6926L122.485 46.6894L122.52 46.6849L122.288 44.9ZM118.888 45.6L117.486 44.4708L119.58 47.2615L118.888 45.6ZM127.588 34.8L127.186 33.0453L126.578 33.1844L126.186 33.6708L127.588 34.8ZM133.788 33.5L134.115 35.2699L134.14 35.2653L134.165 35.26L133.788 33.5ZM148.388 35.4L147.483 36.9561L147.483 36.9561L148.388 35.4ZM155.188 42.6L153.598 43.4453L153.602 43.4524L153.606 43.4595L155.188 42.6ZM153.988 66.5L152.486 65.5077L152.481 65.5142L153.988 66.5ZM143.688 75.1L142.932 73.4664L142.922 73.4708L143.688 75.1ZM118.888 45.6H117.088V48.5628L119.717 47.1975L118.888 45.6ZM118.888 34.9L117.515 33.7353L117.088 34.2392V34.9H118.888ZM134.588 16.4L134.596 14.6L133.758 14.5961L133.215 15.2353L134.588 16.4ZM155.888 16.5L157.235 17.6931L159.868 14.7187L155.896 14.7L155.888 16.5ZM139.688 34.8L140.517 36.3975L140.814 36.2434L141.035 35.9931L139.688 34.8ZM108.188 22.2H106.388V24H108.188V22.2ZM108.188 5.8V4H106.388V5.8H108.188ZM155.888 5.8H157.688V4H155.888V5.8ZM155.888 16.5L156.538 18.1782L157.688 17.7326V16.5H155.888ZM141.188 22.2V24H141.524L141.838 23.8782L141.188 22.2ZM128.088 76.4C123.222 76.4 118.706 75.6005 114.525 74.0167L113.25 77.3833C117.869 79.1329 122.82 80 128.088 80V76.4ZM114.556 74.0287C110.443 72.3835 106.997 70.0891 104.188 67.1552L101.587 69.6448C104.778 72.9775 108.665 75.5498 113.219 77.3713L114.556 74.0287ZM104.15 69.683L116.65 57.383L114.125 54.817L101.625 67.117L104.15 69.683ZM113.919 57.1404C115.284 59.0673 117.304 60.5781 119.839 61.7371L121.336 58.4629C119.204 57.4886 117.758 56.3327 116.856 55.0596L113.919 57.1404ZM119.878 61.7545C122.429 62.8476 125.07 63.4 127.788 63.4V59.8C125.572 59.8 123.413 59.3524 121.297 58.4455L119.878 61.7545ZM127.788 63.4C129.987 63.4 132.006 63.0332 133.805 62.2507L132.37 58.9493C131.103 59.5001 129.588 59.8 127.788 59.8V63.4ZM133.78 62.2615C135.658 61.4789 137.185 60.3063 138.273 58.7164L135.302 56.6836C134.656 57.627 133.717 58.3878 132.395 58.9385L133.78 62.2615ZM138.237 58.7678C139.43 57.1484 139.988 55.2266 139.988 53.1H136.388C136.388 54.5734 136.012 55.7183 135.338 56.6322L138.237 58.7678ZM139.988 53.1C139.988 50.9734 139.43 49.0516 138.237 47.4322L135.338 49.5678C136.012 50.4817 136.388 51.6266 136.388 53.1H139.988ZM138.237 47.4322C137.065 45.8424 135.429 44.6874 133.434 43.92L132.141 47.28C133.613 47.846 134.643 48.6242 135.338 49.5678L138.237 47.4322ZM133.434 43.92C131.444 43.1546 129.147 42.8 126.588 42.8V46.4C128.828 46.4 130.665 46.7121 132.141 47.28L133.434 43.92ZM126.588 42.8C125.165 42.8 123.653 42.9066 122.055 43.1151L122.52 46.6849C123.988 46.4934 125.343 46.4 126.588 46.4V42.8ZM122.125 43.1074C120.584 43.2474 119.241 43.5026 118.195 43.9385L119.58 47.2615C120.134 47.0308 121.058 46.8192 122.45 46.6926L122.125 43.1074ZM120.289 46.7292L128.989 35.9292L126.186 33.6708L117.486 44.4708L120.289 46.7292ZM127.989 36.5547C130.305 36.0254 132.346 35.5976 134.115 35.2699L133.46 31.7301C131.629 32.0691 129.537 32.5079 127.186 33.0453L127.989 36.5547ZM134.165 35.26C135.949 34.8777 137.451 34.7 138.688 34.7V31.1C137.124 31.1 135.36 31.3223 133.41 31.74L134.165 35.26ZM138.688 34.7C141.998 34.7 144.914 35.4627 147.483 36.9561L149.292 33.8439C146.127 32.0039 142.577 31.1 138.688 31.1V34.7ZM147.483 36.9561C150.039 38.4423 152.078 40.5864 153.598 43.4453L156.777 41.7547C154.964 38.347 152.469 35.691 149.292 33.8439L147.483 36.9561ZM153.606 43.4595C155.101 46.2098 155.888 49.5674 155.888 53.6H159.488C159.488 49.0992 158.608 45.1235 156.769 41.7405L153.606 43.4595ZM155.888 53.6C155.888 58.1461 154.741 62.0946 152.486 65.5077L155.489 67.4923C158.168 63.4387 159.488 58.7872 159.488 53.6H155.888ZM152.481 65.5142C150.288 68.8653 147.131 71.5233 142.932 73.4664L144.443 76.7336C149.177 74.5434 152.887 71.468 155.494 67.4858L152.481 65.5142ZM142.922 73.4708C138.811 75.4018 133.884 76.4 128.088 76.4V80C134.291 80 139.764 78.9315 144.453 76.7292L142.922 73.4708ZM120.688 45.6V34.9H117.088V45.6H120.688ZM120.26 36.0647L135.96 17.5647L133.215 15.2353L117.515 33.7353L120.26 36.0647ZM134.579 18.2L155.879 18.3L155.896 14.7L134.596 14.6L134.579 18.2ZM154.54 15.3069L138.34 33.6069L141.035 35.9931L157.235 17.6931L154.54 15.3069ZM138.858 33.2025L118.058 44.0025L119.717 47.1975L140.517 36.3975L138.858 33.2025ZM109.988 22.2V5.8H106.388V22.2H109.988ZM108.188 7.6H155.888V4H108.188V7.6ZM154.088 5.8V16.5H157.688V5.8H154.088ZM155.237 14.8217L140.537 20.5217L141.838 23.8782L156.538 18.1782L155.237 14.8217ZM141.188 20.4H108.188V24H141.188V20.4Z" fill="url(#paint0_linear_7771_51787)" mask="url(#path-2-outside-1_7771_51787)"/>
</g>
<defs>
<linearGradient id="paint0_linear_7771_51787" x1="160" y1="40.2981" x2="-0.000432916" y2="39.8655" gradientUnits="userSpaceOnUse">
<stop stop-color="#B9B9B9"/>
<stop offset="1" stop-color="#F5F5F5"/>
</linearGradient>
</defs>
</svg>
