<svg width="80" height="81" viewBox="0 0 80 81" fill="none" xmlns="http://www.w3.org/2000/svg">
<path fill-rule="evenodd" clip-rule="evenodd" d="M40.0007 4.6665C29.4152 4.6665 20.834 13.2477 20.834 23.8332V40.4998C20.834 51.0852 29.4152 59.6665 40.0007 59.6665C50.586 59.6665 59.1673 51.0852 59.1673 40.4998V23.8332C59.1673 13.2477 50.586 4.6665 40.0007 4.6665ZM35.1557 29.0508C38.2053 27.5258 41.7953 27.5258 44.8453 29.0508L45.549 29.4027C46.784 30.0201 48.2857 29.5196 48.903 28.2846C49.5206 27.0497 49.02 25.548 47.785 24.9305L47.0813 24.5786C42.6236 22.3499 37.377 22.3499 32.9195 24.5786L32.2157 24.9305C30.9807 25.548 30.4802 27.0497 31.0976 28.2846C31.7151 29.5196 33.2168 30.0201 34.4517 29.4027L35.1557 29.0508ZM38.137 40.8935C39.31 40.3068 40.6906 40.3068 41.8636 40.8935L42.2157 41.0695C43.4506 41.6868 44.9523 41.1862 45.5696 39.9512C46.1873 38.7165 45.6867 37.2148 44.4517 36.5972L44.1 36.4212C41.5193 35.1308 38.4816 35.1308 35.901 36.4212L35.549 36.5972C34.314 37.2148 33.8137 38.7165 34.431 39.9512C35.0483 41.1862 36.55 41.6868 37.785 41.0695L38.137 40.8935ZM15.834 37.1665C15.834 35.7858 14.7147 34.6665 13.334 34.6665C11.9533 34.6665 10.834 35.7858 10.834 37.1665C10.834 47.3378 12.5066 55.5788 17.2468 61.2668C21.6817 66.5888 28.3983 69.2178 37.5007 69.6135V77.1665C37.5007 78.5472 38.62 79.6665 40.0007 79.6665C41.3813 79.6665 42.5007 78.5472 42.5007 77.1665V69.6135C51.603 69.2178 58.3197 66.5888 62.7547 61.2668C67.4947 55.5788 69.1673 47.3378 69.1673 37.1665C69.1673 35.7858 68.048 34.6665 66.6673 34.6665C65.2867 34.6665 64.1673 35.7858 64.1673 37.1665C64.1673 46.9952 62.5066 53.7542 58.9133 58.0662C55.4116 62.2682 49.618 64.6665 40.0007 64.6665C30.3832 64.6665 24.5895 62.2682 21.0879 58.0662C17.4948 53.7542 15.834 46.9952 15.834 37.1665Z" fill="black"/>
</svg>
