<svg width="81" height="80" viewBox="0 0 81 80" fill="none" xmlns="http://www.w3.org/2000/svg">
<path fill-rule="evenodd" clip-rule="evenodd" d="M28.3896 28.3993C25.8174 31.2317 24.1977 34.9446 24.0347 39.0324H18.25C17.823 37.4247 16.3578 36.2398 14.6156 36.2398C12.539 36.2397 10.8555 37.9232 10.8555 40C10.8555 42.0768 12.539 43.7603 14.6158 43.7603C16.3579 43.7603 17.8231 42.5754 18.2501 40.9677H24.0662C24.3425 44.7229 25.8507 48.1353 28.188 50.8034L22.0814 56.8006C21.0372 56.0219 19.742 55.561 18.3393 55.561C14.878 55.561 12.072 58.367 12.072 61.8281C12.072 65.2894 14.878 68.0954 18.3393 68.0954C21.8005 68.0954 24.6065 65.2895 24.6065 61.8281C24.6065 60.466 24.1717 59.2056 23.4337 58.1776L29.5398 52.1807C32.3061 54.6936 35.9126 56.297 39.8878 56.5223V62.6052C38.2801 63.0323 37.0953 64.4974 37.0953 66.2396C37.0952 68.3165 38.7787 70 40.8555 70C42.9322 70 44.6157 68.3165 44.6157 66.2397C44.6157 64.4977 43.431 63.0324 41.8232 62.6054V56.5224C45.6904 56.3031 49.2084 54.7789 51.9437 52.3826L57.9409 58.4892C57.1624 59.5335 56.7015 60.8286 56.7015 62.2313C56.7015 65.6926 59.5075 68.4985 62.9686 68.4985C66.4299 68.4985 69.2358 65.6926 69.2358 62.2313C69.2358 58.7701 66.43 55.9642 62.9686 55.9642C61.6065 55.9642 60.346 56.399 59.318 57.137L53.3212 51.0309C55.7738 48.3309 57.3607 44.8304 57.6447 40.9679H63.4608C63.8878 42.5755 65.353 43.7604 67.0952 43.7604C69.172 43.7603 70.8555 42.0768 70.8555 40C70.8555 37.9232 69.172 36.2397 67.0952 36.2397C65.353 36.2397 63.8878 37.4246 63.4608 39.0323H57.6763C57.5174 35.0529 55.9781 31.4291 53.5231 28.6266L59.6295 22.6294C60.6737 23.4081 61.9689 23.869 63.3717 23.869C66.8329 23.869 69.6389 21.063 69.6389 17.6019C69.6389 14.1406 66.8329 11.3346 63.3717 11.3346C59.9104 11.3346 57.1045 14.1405 57.1045 17.6019C57.1045 18.964 57.5392 20.2244 58.2772 21.2524L52.1712 27.2492C49.4049 24.7364 45.7983 23.1329 41.8231 22.9075V17.3946C43.4307 16.9676 44.6156 15.5025 44.6156 13.7603C44.6158 11.6835 42.9322 10 40.8555 10C38.7787 10 37.0952 11.6835 37.0952 13.7603C37.0952 15.5025 38.2801 16.9676 39.8877 17.3946V22.9076C36.0204 23.1269 32.5022 24.651 29.7671 27.0474L23.7699 20.9409C24.5485 19.8966 25.0094 18.6015 25.0094 17.1988C25.0094 13.7375 22.2035 10.9316 18.7423 10.9316C15.2811 10.9316 12.4751 13.7375 12.4751 17.1988C12.4751 20.66 15.281 23.466 18.7423 23.466C20.1044 23.466 21.3649 23.0312 22.3929 22.2932L28.3896 28.3993Z" fill="black"/>
<path fill-rule="evenodd" clip-rule="evenodd" d="M40.856 28.6565C37.6539 28.6565 35.0582 31.2523 35.0582 34.4543V39.4959C35.0582 42.6979 37.6539 45.2937 40.856 45.2937C44.058 45.2937 46.6538 42.6979 46.6538 39.4959V34.4543C46.6538 31.2523 44.058 28.6565 40.856 28.6565ZM39.3904 36.0326C40.3129 35.5713 41.3989 35.5713 42.3215 36.0326L42.5343 36.1391C42.9079 36.3258 43.3621 36.1744 43.5489 35.8009C43.7357 35.4273 43.5843 34.973 43.2107 34.7863L42.9978 34.6798C41.6494 34.0056 40.0623 34.0056 38.714 34.6798L38.5011 34.7863C38.1275 34.973 37.9761 35.4273 38.1629 35.8009C38.3496 36.1744 38.8039 36.3258 39.1774 36.1391L39.3904 36.0326ZM40.2922 39.615C40.647 39.4375 41.0647 39.4375 41.4195 39.615L41.526 39.6682C41.8996 39.855 42.3538 39.7035 42.5406 39.3299C42.7274 38.9564 42.576 38.5022 42.2024 38.3154L42.096 38.2621C41.3154 37.8718 40.3965 37.8718 39.6158 38.2621L39.5094 38.3154C39.1358 38.5022 38.9844 38.9564 39.1712 39.3299C39.3579 39.7035 39.8122 39.855 40.1857 39.6682L40.2922 39.615ZM33.5457 38.4876C33.5457 38.0699 33.2071 37.7313 32.7894 37.7313C32.3718 37.7313 32.0332 38.0699 32.0332 38.4876C32.0332 41.5644 32.5391 44.0572 33.973 45.7778C35.3146 47.3877 37.3463 48.1829 40.0997 48.3026V50.5874C40.0997 51.005 40.4383 51.3436 40.856 51.3436C41.2736 51.3436 41.6122 51.005 41.6122 50.5874V48.3026C44.3656 48.1829 46.3974 47.3877 47.7389 45.7778C49.1728 44.0572 49.6787 41.5644 49.6787 38.4876C49.6787 38.0699 49.3402 37.7313 48.9225 37.7313C48.5049 37.7313 48.1663 38.0699 48.1663 38.4876C48.1663 41.4607 47.6639 43.5053 46.577 44.8096C45.5177 46.0807 43.7652 46.8062 40.856 46.8062C37.9467 46.8062 36.1942 46.0807 35.135 44.8096C34.0481 43.5053 33.5457 41.4607 33.5457 38.4876Z" fill="white"/>
</svg>
