<svg width="160" height="80" viewBox="0 0 160 80" fill="none" xmlns="http://www.w3.org/2000/svg">
<mask id="mask0_7771_51779" style="mask-type:alpha" maskUnits="userSpaceOnUse" x="0" y="0" width="160" height="80">
<rect width="160" height="80" fill="#D9D9D9"/>
</mask>
<g mask="url(#mask0_7771_51779)">
<mask id="path-2-outside-1_7771_51779" maskUnits="userSpaceOnUse" x="52" y="2" width="105" height="78" fill="black">
<rect fill="white" x="52" y="2" width="105" height="78"/>
<path d="M86.1852 78.2C80.0518 78.2 74.5852 76.6333 69.7852 73.5C65.0518 70.3 61.3185 65.9333 58.5852 60.4C55.8518 54.8 54.4852 48.4333 54.4852 41.3C54.4852 34.1667 55.8185 27.8333 58.4852 22.3C61.2185 16.7667 64.9518 12.4333 69.6852 9.3C74.4185 6.16666 79.8518 4.6 85.9852 4.6C92.1852 4.6 97.6518 6.16666 102.385 9.3C107.185 12.4333 110.918 16.7667 113.585 22.3C116.318 27.8333 117.685 34.2 117.685 41.4C117.685 48.6 116.318 54.9667 113.585 60.5C110.918 66.0333 107.218 70.3667 102.485 73.5C97.7518 76.6333 92.3185 78.2 86.1852 78.2ZM86.0852 61.2C88.5518 61.2 90.6518 60.4333 92.3852 58.9C94.1185 57.3667 95.4185 55.1333 96.2852 52.2C97.2185 49.2 97.6852 45.6 97.6852 41.4C97.6852 37.2 97.2185 33.6333 96.2852 30.7C95.4185 27.7667 94.1185 25.5333 92.3852 24C90.6518 22.4 88.5185 21.6 85.9852 21.6C83.5852 21.6 81.5185 22.3667 79.7852 23.9C78.0518 25.4333 76.7185 27.6667 75.7852 30.6C74.9185 33.5333 74.4852 37.1 74.4852 41.3C74.4852 45.5 74.9185 49.1 75.7852 52.1C76.7185 55.0333 78.0518 57.3 79.7852 58.9C81.5185 60.4333 83.6185 61.2 86.0852 61.2ZM134.463 77V5.8H154.263V77H134.463ZM121.163 22.2V5.8H153.263V22.2H121.163Z"/>
</mask>
<path d="M69.7852 73.5L68.777 74.9912L68.7891 74.9993L68.8012 75.0073L69.7852 73.5ZM58.5852 60.4L56.9675 61.1895L56.9713 61.1972L58.5852 60.4ZM58.4852 22.3L56.8713 21.5028L56.8674 21.5107L56.8636 21.5185L58.4852 22.3ZM69.6852 9.3L70.6787 10.8009L69.6852 9.3ZM102.385 9.3L101.392 10.801L101.401 10.8073L102.385 9.3ZM113.585 22.3L111.964 23.0815L111.967 23.0893L111.971 23.0972L113.585 22.3ZM113.585 60.5L111.971 59.7028L111.967 59.7107L111.964 59.7185L113.585 60.5ZM102.485 73.5L103.479 75.0009L102.485 73.5ZM96.2852 52.2L94.5664 51.6653L94.5626 51.6776L94.5589 51.69L96.2852 52.2ZM96.2852 30.7L94.5589 31.21L94.5642 31.2279L94.5699 31.2458L96.2852 30.7ZM92.3852 24L91.1643 25.3226L91.1783 25.3356L91.1925 25.3482L92.3852 24ZM79.7852 23.9L78.5925 22.5518V22.5518L79.7852 23.9ZM75.7852 30.6L74.0699 30.0542L74.0642 30.072L74.0589 30.09L75.7852 30.6ZM75.7852 52.1L74.0559 52.5996L74.0626 52.6228L74.0699 52.6458L75.7852 52.1ZM79.7852 58.9L78.5643 60.2226L78.5783 60.2356L78.5925 60.2482L79.7852 58.9ZM86.1852 76.4C80.3756 76.4 75.2557 74.9215 70.7691 71.9927L68.8012 75.0073C73.9146 78.3452 79.728 80 86.1852 80V76.4ZM70.7933 72.0088C66.3392 68.9976 62.8055 64.8793 60.199 59.6028L56.9713 61.1972C59.8315 66.9873 63.7644 71.6024 68.777 74.9912L70.7933 72.0088ZM60.2028 59.6105C57.6057 54.2897 56.2852 48.1994 56.2852 41.3H52.6852C52.6852 48.6673 54.0979 55.3103 56.9676 61.1895L60.2028 59.6105ZM56.2852 41.3C56.2852 34.3937 57.575 28.3346 60.1067 23.0814L56.8636 21.5185C54.062 27.332 52.6852 33.9396 52.6852 41.3H56.2852ZM60.099 23.0972C62.7041 17.8235 66.2336 13.7435 70.6787 10.8009L68.6916 7.79906C63.67 11.1232 59.7329 15.7098 56.8713 21.5028L60.099 23.0972ZM70.6787 10.8009C75.0935 7.87845 80.1754 6.4 85.9852 6.4V2.8C79.5282 2.8 73.7434 4.45488 68.6916 7.79906L70.6787 10.8009ZM85.9852 6.4C91.8658 6.4 96.98 7.8806 101.392 10.8009L103.379 7.79906C98.3236 4.45272 92.5045 2.8 85.9852 2.8V6.4ZM101.401 10.8073C105.907 13.7484 109.429 17.8217 111.964 23.0815L115.207 21.5185C112.408 15.7117 108.464 11.1182 103.369 7.79271L101.401 10.8073ZM111.971 23.0972C114.563 28.3445 115.885 34.4305 115.885 41.4H119.485C119.485 33.9695 118.074 27.3222 115.199 21.5028L111.971 23.0972ZM115.885 41.4C115.885 48.3695 114.563 54.4555 111.971 59.7028L115.199 61.2972C118.074 55.4778 119.485 48.8305 119.485 41.4H115.885ZM111.964 59.7185C109.426 64.9847 105.933 69.0593 101.492 71.9991L103.479 75.0009C108.504 71.6741 112.411 67.082 115.207 61.2815L111.964 59.7185ZM101.492 71.9991C97.0768 74.9215 91.9949 76.4 86.1852 76.4V80C92.6421 80 98.4269 78.3451 103.479 75.0009L101.492 71.9991ZM86.0852 63C88.9597 63 91.4925 62.0928 93.5778 60.2482L91.1925 57.5518C89.8111 58.7738 88.144 59.4 86.0852 59.4V63ZM93.5778 60.2482C95.6333 58.4298 97.0791 55.8655 98.0114 52.71L94.5589 51.69C93.7579 54.4012 92.6037 56.3035 91.1925 57.5518L93.5778 60.2482ZM98.0039 52.7347C99.0058 49.5145 99.4852 45.7243 99.4852 41.4H95.8852C95.8852 45.4757 95.4312 48.8855 94.5664 51.6653L98.0039 52.7347ZM99.4852 41.4C99.4852 37.0774 99.0062 33.3151 98.0004 30.1542L94.5699 31.2458C95.4308 33.9515 95.8852 37.3226 95.8852 41.4H99.4852ZM98.0114 30.19C97.0791 27.0345 95.6333 24.4701 93.5778 22.6518L91.1925 25.3482C92.6037 26.5965 93.7579 28.4988 94.5589 31.21L98.0114 30.19ZM93.6061 22.6774C91.5143 20.7465 88.9344 19.8 85.9852 19.8V23.4C88.1025 23.4 89.7893 24.0535 91.1643 25.3226L93.6061 22.6774ZM85.9852 19.8C83.1637 19.8 80.6681 20.7157 78.5925 22.5518L80.9778 25.2482C82.3689 24.0176 84.0067 23.4 85.9852 23.4V19.8ZM78.5925 22.5518C76.548 24.3604 75.0702 26.9104 74.0699 30.0542L77.5004 31.1458C78.3668 28.4229 79.5556 26.5063 80.9778 25.2482L78.5925 22.5518ZM74.0589 30.09C73.1289 33.2376 72.6852 36.9868 72.6852 41.3H76.2852C76.2852 37.2132 76.708 33.829 77.5114 31.11L74.0589 30.09ZM72.6852 41.3C72.6852 45.6148 73.1293 49.3923 74.0559 52.5996L77.5144 51.6004C76.7077 48.8077 76.2852 45.3852 76.2852 41.3H72.6852ZM74.0699 52.6458C75.0698 55.7883 76.542 58.3559 78.5643 60.2226L81.0061 57.5774C79.5617 56.2441 78.3672 54.2784 77.5004 51.5542L74.0699 52.6458ZM78.5925 60.2482C80.6778 62.0928 83.2106 63 86.0852 63V59.4C84.0264 59.4 82.3592 58.7738 80.9778 57.5518L78.5925 60.2482ZM134.463 77H132.663V78.8H134.463V77ZM134.463 5.8V4H132.663V5.8H134.463ZM154.263 5.8H156.063V4H154.263V5.8ZM154.263 77V78.8H156.063V77H154.263ZM121.163 22.2H119.363V24H121.163V22.2ZM121.163 5.8V4H119.363V5.8H121.163ZM153.263 5.8H155.063V4H153.263V5.8ZM153.263 22.2V24H155.063V22.2H153.263ZM136.263 77V5.8H132.663V77H136.263ZM134.463 7.6H154.263V4H134.463V7.6ZM152.463 5.8V77H156.063V5.8H152.463ZM154.263 75.2H134.463V78.8H154.263V75.2ZM122.963 22.2V5.8H119.363V22.2H122.963ZM121.163 7.6H153.263V4H121.163V7.6ZM151.463 5.8V22.2H155.063V5.8H151.463ZM153.263 20.4H121.163V24H153.263V20.4Z" fill="url(#paint0_linear_7771_51779)" mask="url(#path-2-outside-1_7771_51779)"/>
</g>
<defs>
<linearGradient id="paint0_linear_7771_51779" x1="160" y1="40.2981" x2="-0.000432916" y2="39.8655" gradientUnits="userSpaceOnUse">
<stop stop-color="#B9B9B9"/>
<stop offset="1" stop-color="#F5F5F5"/>
</linearGradient>
</defs>
</svg>
