<svg width="80" height="80" viewBox="0 0 80 80" fill="none" xmlns="http://www.w3.org/2000/svg">
<mask id="mask0_7380_56355" style="mask-type:alpha" maskUnits="userSpaceOnUse" x="-1" y="-1" width="82" height="82">
<rect width="80" height="80" fill="white" stroke="white" stroke-width="2"/>
</mask>
<g mask="url(#mask0_7380_56355)">
<path fill-rule="evenodd" clip-rule="evenodd" d="M19.2917 57.0525L19.3502 54.9242C19.3506 54.9107 19.3508 54.8972 19.3507 54.8837C19.3507 54.894 19.3505 54.9042 19.3502 54.9145L19.2914 57.0527C19.2915 57.0526 19.2916 57.0526 19.2917 57.0525ZM6.00001 76.9245C5.99941 77.0825 6.02802 77.2394 6.08447 77.3872C6.14461 77.5446 6.23517 77.6886 6.35098 77.811C6.46679 77.9333 6.60558 78.0317 6.75942 78.1005C6.91326 78.1692 7.07914 78.2069 7.24758 78.2116L17.4187 78.4915H17.4538C17.788 78.4916 18.1091 78.3613 18.3486 78.1283C18.5882 77.8952 18.7274 77.5779 18.7365 77.2438L18.7658 76.176L21.4081 74.7612C22.4449 74.2031 23.6581 74.0703 24.791 74.391L40.5701 78.8195C40.5977 78.8277 40.6251 78.834 40.6535 78.8404C41.794 79.0789 42.956 79.1987 44.1212 79.1979C46.5889 79.1994 49.0277 78.6673 51.2705 77.6379C51.3257 77.6127 51.3788 77.5833 51.4295 77.55L74.3079 62.7518C74.5825 62.5742 74.7788 62.2984 74.8569 61.9808C74.8821 61.8782 74.8944 61.7737 74.894 61.6696C74.8936 61.7705 74.8813 61.8717 74.8569 61.9711C74.7788 62.2887 74.5825 62.5644 74.3079 62.7421L51.4295 77.5403C51.3788 77.5736 51.3257 77.603 51.2705 77.6282C49.0277 78.6575 46.5889 79.1897 44.1212 79.1882C42.956 79.189 41.794 79.0691 40.6535 78.8307C40.6251 78.8243 40.5977 78.818 40.5701 78.8098L24.791 74.3812C23.6581 74.0606 22.4449 74.1933 21.4081 74.7515L18.7658 76.1662L18.7365 77.2341C18.7274 77.5682 18.5882 77.8855 18.3486 78.1185C18.1091 78.3516 17.788 78.4819 17.4538 78.4818H17.4187L7.24758 78.2018C7.07914 78.1972 6.91326 78.1595 6.75942 78.0907C6.60558 78.022 6.46679 77.9236 6.35098 77.8012C6.23517 77.6788 6.14461 77.5348 6.08447 77.3774C6.02917 77.2327 6.0006 77.0792 6.00001 76.9245ZM42.531 2.28267V14.4681C42.531 14.8082 42.3959 15.1345 42.1553 15.375C41.9148 15.6156 41.5885 15.7507 41.2483 15.7507C40.9081 15.7507 40.5819 15.6156 40.3413 15.375C40.1008 15.1345 39.9657 14.8082 39.9657 14.4681V2.28267C39.9657 1.94249 40.1008 1.61623 40.3413 1.37569C40.5819 1.13514 40.9081 1 41.2483 1C41.5885 1 41.9148 1.13514 42.1553 1.37569C42.3959 1.61623 42.531 1.94249 42.531 2.28267ZM52.151 8.69603V14.4681C52.151 14.8082 52.0159 15.1345 51.7753 15.375C51.5348 15.6156 51.2085 15.7507 50.8684 15.7507C50.5282 15.7507 50.2019 15.6156 49.9614 15.375C49.7208 15.1345 49.5857 14.8082 49.5857 14.4681V8.69603C49.5857 8.35585 49.7208 8.02959 49.9614 7.78905C50.2019 7.5485 50.5282 7.41336 50.8684 7.41336C51.2085 7.41336 51.5348 7.5485 51.7753 7.78905C52.0159 8.02959 52.151 8.35585 52.151 8.69603ZM32.911 8.69603V14.4681C32.911 14.8082 32.7758 15.1345 32.5353 15.375C32.2947 15.6156 31.9685 15.7507 31.6283 15.7507C31.2881 15.7507 30.9618 15.6156 30.7213 15.375C30.4808 15.1345 30.3456 14.8082 30.3456 14.4681V8.69603C30.3456 8.35585 30.4808 8.02959 30.7213 7.78905C30.9618 7.5485 31.2881 7.41336 31.6283 7.41336C31.9685 7.41336 32.2947 7.5485 32.5353 7.78905C32.7758 8.02959 32.911 8.35585 32.911 8.69603ZM9.14385 55.9165L8.60031 75.6727L16.2069 75.8826L16.7504 56.1258L9.14385 55.9165ZM41.2214 76.3298C44.2166 76.9418 47.3285 76.5945 50.115 75.337L71.745 61.3448C71.1579 60.8014 70.4187 60.4507 69.6265 60.3397C68.8343 60.2287 68.0271 60.3628 67.3133 60.724C67.3032 60.7291 67.2933 60.7341 67.2832 60.7384L56.9774 65.6081C57.0756 66.157 57.1171 66.7146 57.1013 67.272C57.0923 67.6059 56.9533 67.9231 56.714 68.1561C56.4747 68.3891 56.1539 68.5195 55.82 68.5198H55.7842L40.5363 68.1002C40.1962 68.0907 39.8737 67.9466 39.6399 67.6995C39.406 67.4524 39.2799 67.1225 39.2892 66.7824C39.3092 66.0747 39.8986 65.5161 40.607 65.5353L54.4239 65.9167C53.8953 63.3639 51.6825 61.5088 49.0771 61.4338L39.8008 61.1789C37.9453 61.1251 36.1256 60.655 34.4761 59.8034L33.5322 59.3143C31.2948 58.1485 28.7855 57.6044 26.266 57.7387C23.7466 57.8731 21.3094 58.6811 19.2087 60.0783L18.8473 73.2139L20.1976 72.4904C21.8183 71.6192 23.7142 71.4119 25.4849 71.9124L41.2214 76.3298Z" fill="black"/>
<path fill-rule="evenodd" clip-rule="evenodd" d="M40.5688 55.8214C30.2962 55.8214 21.9688 47.494 21.9688 37.2214C21.9808 26.9537 30.3011 18.6326 40.5688 18.6213C50.8414 18.6213 59.1688 26.9488 59.1688 37.2214C59.1688 47.494 50.8414 55.8214 40.5688 55.8214ZM40.3244 44.3241C40.4706 44.3025 40.6196 44.3076 40.764 44.3392C42.3499 44.2814 43.5974 42.9638 43.5679 41.3773C43.5392 39.791 42.2447 38.5202 40.6576 38.5202C37.9138 38.5206 35.5931 36.491 35.2287 33.7716C34.8642 31.0521 36.5678 28.4823 39.2146 27.7597V26.5139C39.2146 26.1737 39.3497 25.8474 39.5902 25.6069C39.8308 25.3663 40.157 25.2312 40.4972 25.2312C40.8374 25.2312 41.1637 25.3663 41.4042 25.6069C41.6448 25.8474 41.7799 26.1737 41.7799 26.5139V27.6813C44.3159 28.2161 46.1315 30.4515 46.1352 33.0432C46.1352 33.3833 46.0001 33.7096 45.7595 33.9501C45.519 34.1907 45.1927 34.3258 44.8525 34.3258C44.5124 34.3258 44.1861 34.1907 43.9456 33.9501C43.705 33.7096 43.5699 33.3833 43.5699 33.0432C43.5699 31.4347 42.2659 30.1308 40.6576 30.1308C39.0493 30.1308 37.7453 31.4348 37.7453 33.0432C37.7453 34.6515 39.0493 35.9555 40.6576 35.9555C43.4641 35.9561 45.8158 38.0773 46.1052 40.8687C46.3938 43.6602 44.5269 46.2186 41.7799 46.7936V47.9986C41.7799 48.3388 41.6448 48.6651 41.4042 48.9056C41.1637 49.1462 40.8374 49.2813 40.4972 49.2813C40.157 49.2813 39.8308 49.1462 39.5902 48.9056C39.3497 48.6651 39.2146 48.3388 39.2146 47.9986V46.716C36.8346 46.0628 35.1838 43.9007 35.1799 41.4325C35.1799 41.0923 35.3151 40.766 35.5556 40.5255C35.7961 40.2849 36.1224 40.1498 36.4626 40.1498C36.8028 40.1498 37.129 40.2849 37.3696 40.5255C37.6101 40.766 37.7453 41.0923 37.7453 41.4325C37.7478 42.9106 38.8557 44.1532 40.3244 44.3241Z" fill="black"/>
</g>
</svg>
