<svg width="80" height="80" viewBox="0 0 80 80" fill="none" xmlns="http://www.w3.org/2000/svg">
<mask id="mask0_7380_56365" style="mask-type:alpha" maskUnits="userSpaceOnUse" x="-1" y="-1" width="82" height="82">
<rect width="80" height="80" fill="white" stroke="white" stroke-width="2"/>
</mask>
<g mask="url(#mask0_7380_56365)">
<path fill-rule="evenodd" clip-rule="evenodd" d="M42.3573 7.64344C41.7322 7.01853 40.8845 6.66748 40.0006 6.66748C39.1167 6.66748 38.269 7.01853 37.6439 7.64344L27.6439 17.6434C27.019 18.2685 26.668 19.1162 26.668 20.0001C26.668 20.884 27.019 21.7317 27.6439 22.3568L37.6439 32.3568C38.269 32.9817 39.1167 33.3327 40.0006 33.3327C40.8845 33.3327 41.7322 32.9817 42.3573 32.3568L52.3573 22.3568C52.9822 21.7317 53.3332 20.884 53.3332 20.0001C53.3332 19.1162 52.9822 18.2685 52.3573 17.6434L42.3573 7.64344ZM37.6439 47.6434C38.269 47.0185 39.1167 46.6675 40.0006 46.6675C40.8845 46.6675 41.7322 47.0185 42.3573 47.6434L52.3573 57.6434C52.9822 58.2685 53.3332 59.1162 53.3332 60.0001C53.3332 60.884 52.9822 61.7317 52.3573 62.3568L42.3573 72.3568C41.7322 72.9817 40.8845 73.3327 40.0006 73.3327C39.1167 73.3327 38.269 72.9817 37.6439 72.3568L27.6439 62.3568C27.019 61.7317 26.668 60.884 26.668 60.0001C26.668 59.1162 27.019 58.2685 27.6439 57.6434L37.6439 47.6434ZM57.6439 27.6434C58.269 27.0185 59.1167 26.6675 60.0006 26.6675C60.8845 26.6675 61.7322 27.0185 62.3573 27.6434L72.3573 37.6434C72.9822 38.2685 73.3332 39.1162 73.3332 40.0001C73.3332 40.884 72.9822 41.7317 72.3573 42.3568L62.3573 52.3568C61.7322 52.9817 60.8845 53.3327 60.0006 53.3327C59.1167 53.3327 58.269 52.9817 57.6439 52.3568L47.6439 42.3568C47.019 41.7317 46.668 40.884 46.668 40.0001C46.668 39.1162 47.019 38.2685 47.6439 37.6434L57.6439 27.6434ZM17.6439 27.6434C18.269 27.0185 19.1167 26.6675 20.0006 26.6675C20.8845 26.6675 21.7322 27.0185 22.3573 27.6434L32.3573 37.6434C32.9822 38.2685 33.3332 39.1162 33.3332 40.0001C33.3332 40.884 32.9822 41.7317 32.3573 42.3568L22.3573 52.3568C21.7322 52.9817 20.8845 53.3327 20.0006 53.3327C19.1167 53.3327 18.269 52.9817 17.6439 52.3568L7.64392 42.3568C7.01902 41.7317 6.66797 40.884 6.66797 40.0001C6.66797 39.1162 7.01902 38.2685 7.64392 37.6434L17.6439 27.6434Z" fill="black"/>
</g>
</svg>
