<svg width="80" height="80" viewBox="0 0 80 80" fill="none" xmlns="http://www.w3.org/2000/svg">
<mask id="mask0_7380_56369" style="mask-type:alpha" maskUnits="userSpaceOnUse" x="-1" y="-1" width="82" height="82">
<rect width="80" height="80" fill="white" stroke="white" stroke-width="2"/>
</mask>
<g mask="url(#mask0_7380_56369)">
<path fill-rule="evenodd" clip-rule="evenodd" d="M63.3468 13H16.6532C14.8893 13.0023 13.1982 13.7589 11.951 15.1038C10.7037 16.4487 10.0021 18.2721 10 20.1741V29.5656H70V20.1741C69.9976 18.2723 69.2958 16.4491 68.0486 15.1043C66.8014 13.7595 65.1106 13.0026 63.3468 13ZM10 32.957V59.826C10.0021 61.728 10.7037 63.5514 11.951 64.8963C13.1983 66.2412 14.8893 66.9977 16.6532 67H63.3468C65.1106 66.9974 66.8015 66.2407 68.0486 64.8959C69.2958 63.5511 69.9976 61.7279 70 59.826V32.957H10ZM53.9706 43.9963L49.9961 48.2827L53.9703 52.5691C54.1163 52.7265 54.2322 52.9134 54.3112 53.1191C54.3903 53.3247 54.431 53.5452 54.4311 53.7678C54.4312 53.9905 54.3905 54.211 54.3116 54.4167C54.2326 54.6224 54.1168 54.8093 53.9709 54.9668C53.8249 55.1243 53.6516 55.2492 53.4608 55.3345C53.2701 55.4198 53.0656 55.4637 52.8592 55.4637C52.6527 55.4638 52.4482 55.42 52.2574 55.3348C52.0666 55.2497 51.8933 55.1249 51.7472 54.9675L47.772 50.6811L43.7957 54.9673C43.5008 55.2854 43.1008 55.4641 42.6837 55.4641C42.2666 55.4642 41.8666 55.2856 41.5716 54.9676C41.2766 54.6496 41.1109 54.2183 41.1109 53.7685C41.1108 53.3188 41.2765 52.8874 41.5714 52.5694L45.5479 48.2827L41.5714 43.9961C41.4253 43.8386 41.3095 43.6516 41.2305 43.4459C41.1515 43.2401 41.1108 43.0196 41.1109 42.7969C41.1109 42.5742 41.1516 42.3537 41.2306 42.148C41.3097 41.9423 41.4256 41.7553 41.5716 41.5979C41.7177 41.4404 41.891 41.3156 42.0819 41.2304C42.2727 41.1452 42.4772 41.1013 42.6837 41.1013C42.8902 41.1014 43.0947 41.1452 43.2855 41.2305C43.4763 41.3157 43.6497 41.4407 43.7957 41.5981L47.772 45.8844L51.7472 41.598C51.8933 41.4406 52.0666 41.3158 52.2574 41.2306C52.4482 41.1455 52.6527 41.1017 52.8592 41.1018C53.0656 41.1018 53.2701 41.1457 53.4608 41.231C53.6516 41.3162 53.8249 41.4412 53.9709 41.5987C54.1168 41.7561 54.2326 41.9431 54.3116 42.1488C54.3905 42.3545 54.4312 42.575 54.4311 42.7976C54.431 43.0203 54.3903 43.2407 54.3112 43.4464C54.2322 43.6521 54.1167 43.8389 53.9706 43.9963ZM37.5319 42.7911V49.018C37.5354 49.8675 37.3832 50.7094 37.0842 51.4953C36.7851 52.2812 36.345 52.9956 35.7892 53.5976C35.2333 54.1996 34.5727 54.6773 33.8452 55.0033C33.1177 55.3292 32.3376 55.497 31.5498 55.497C30.762 55.497 29.9819 55.3292 29.2544 55.0033C28.5269 54.6773 27.8662 54.1996 27.3104 53.5976C26.7546 52.9956 26.3145 52.2812 26.0154 51.4953C25.7163 50.7094 25.5642 49.8675 25.5677 49.018V42.7911C25.5677 42.3415 25.7333 41.9102 26.0282 41.5923C26.323 41.2744 26.723 41.0957 27.14 41.0957C27.557 41.0957 27.9569 41.2744 28.2517 41.5923C28.5466 41.9102 28.7123 42.3415 28.7123 42.7911V49.018C28.7123 49.8294 29.0112 50.6075 29.5432 51.1812C30.0753 51.7549 30.7969 52.0772 31.5494 52.0772C32.3018 52.0772 33.0235 51.7549 33.5555 51.1812C34.0876 50.6075 34.3865 49.8294 34.3865 49.018V42.7911C34.3901 42.3439 34.5573 41.9163 34.8519 41.6014C35.1464 41.2865 35.5444 41.1099 35.9592 41.1099C36.374 41.1099 36.772 41.2865 37.0665 41.6014C37.3611 41.9163 37.5283 42.3439 37.5319 42.7911ZM43.4922 22.9781C43.4922 22.7554 43.5328 22.5349 43.6118 22.3292C43.6908 22.1235 43.8066 21.9366 43.9526 21.7792C44.0986 21.6217 44.272 21.4968 44.4628 21.4117C44.6535 21.3265 44.858 21.2826 45.0645 21.2827H60.4334C60.8482 21.2865 61.2447 21.4669 61.5367 21.7845C61.8288 22.1021 61.9926 22.5313 61.9926 22.9785C61.9926 23.4257 61.8288 23.8549 61.5367 24.1725C61.2447 24.4901 60.8482 24.6705 60.4334 24.6743H45.0645C44.8579 24.6743 44.6534 24.6304 44.4626 24.5452C44.2718 24.4599 44.0984 24.335 43.9524 24.1774C43.8064 24.0199 43.6906 23.8329 43.6116 23.6271C43.5327 23.4213 43.4921 23.2008 43.4922 22.9781ZM17.9951 22.9781C17.9949 22.7554 18.0353 22.5349 18.1142 22.3291C18.1931 22.1234 18.3088 21.9364 18.4548 21.7789C18.6007 21.6214 18.7741 21.4966 18.9648 21.4114C19.1556 21.3263 19.3601 21.2825 19.5666 21.2827H19.5684C19.8794 21.2828 20.1835 21.3823 20.4421 21.5688C20.7007 21.7552 20.9022 22.0201 21.0211 22.33C21.1401 22.64 21.1711 22.981 21.1104 23.3099C21.0496 23.6389 20.8997 23.941 20.6797 24.1781C20.4597 24.4152 20.1794 24.5766 19.8743 24.642C19.5692 24.7073 19.2529 24.6736 18.9656 24.5452C18.6782 24.4167 18.4327 24.1993 18.2599 23.9203C18.0872 23.6414 17.995 23.3135 17.9951 22.9781ZM24.8029 22.9781C24.8026 22.7554 24.8431 22.5349 24.922 22.3292C25.0008 22.1234 25.1165 21.9364 25.2625 21.779C25.4084 21.6215 25.5818 21.4966 25.7725 21.4114C25.9633 21.3263 26.1678 21.2825 26.3743 21.2827H26.3768C26.6879 21.2829 26.9919 21.3826 27.2504 21.5691C27.5088 21.7557 27.7103 22.0206 27.8291 22.3306C27.9479 22.6405 27.9789 22.9815 27.918 23.3104C27.8572 23.6393 27.7073 23.9413 27.4872 24.1784C27.2672 24.4154 26.9869 24.5767 26.6818 24.642C26.3767 24.7073 26.0605 24.6736 25.7732 24.5451C25.4859 24.4166 25.2404 24.1992 25.0676 23.9202C24.8949 23.6413 24.8028 23.3134 24.8029 22.9781ZM31.6096 22.9781C31.6095 22.5285 31.775 22.0974 32.0697 21.7794C32.3644 21.4615 32.7642 21.2828 33.1811 21.2827H33.1845C33.4955 21.2832 33.7993 21.3831 34.0577 21.5697C34.316 21.7564 34.5173 22.0215 34.6359 22.3314C34.7546 22.6414 34.7854 22.9823 34.7244 23.3111C34.6634 23.64 34.5134 23.9419 34.2933 24.1788C34.0732 24.4157 33.7929 24.5769 33.4878 24.6421C33.1828 24.7073 32.8667 24.6735 32.5794 24.545C32.2922 24.4165 32.0467 24.199 31.874 23.9201C31.7014 23.6412 31.6095 23.3134 31.6096 22.9781Z" fill="black"/>
</g>
</svg>
