<svg width="80" height="80" viewBox="0 0 80 80" fill="none" xmlns="http://www.w3.org/2000/svg">
<mask id="mask0_7380_56375" style="mask-type:alpha" maskUnits="userSpaceOnUse" x="-1" y="-1" width="82" height="82">
<rect width="80" height="80" fill="white" stroke="white" stroke-width="2"/>
</mask>
<g mask="url(#mask0_7380_56375)">
<path d="M39.5026 63.7235C41.8452 62.4633 42.7187 59.5354 41.4538 57.1839L41.1844 56.683C40.9019 56.158 41.0982 55.5035 41.6227 55.2213L46.6336 52.5258L43.2033 46.1488L41.4955 47.0675C38.4533 48.7039 34.6427 47.5526 33.0011 44.5008C31.3594 41.449 32.4989 37.6348 35.5411 35.9983L37.2489 35.0797L33.9486 28.9445L28.9377 31.64C28.4132 31.9222 27.759 31.7253 27.4765 31.2002L27.1988 30.684C25.9339 28.3325 23.0094 27.4477 20.6668 28.7078C18.3242 29.968 17.4507 32.8959 18.7156 35.2473L18.9933 35.7635C19.2757 36.2886 19.0794 36.943 18.5549 37.2252L13.0284 40.198C12.5039 40.4802 12.3076 41.1346 12.5901 41.6597L24.2522 63.3395C24.5347 63.8645 25.1889 64.0615 25.7134 63.7793L31.2399 60.8065C31.7644 60.5243 32.4187 60.7212 32.7011 61.2464L32.9706 61.7473C34.2355 64.0988 37.1601 64.9835 39.5026 63.7235Z" fill="black"/>
<path d="M43.8457 16.2387C41.5031 17.4988 40.6296 20.4267 41.8945 22.7782L42.1722 23.2943C42.4546 23.8194 42.2584 24.4739 41.7339 24.756L36.6694 27.4803L40.7026 34.9779C41.1073 35.7304 40.8262 36.6682 40.0744 37.0726L37.0056 38.7234C35.4643 39.5525 34.8885 41.4874 35.7218 43.0366C36.5552 44.5858 38.487 45.1717 40.0283 44.3426L43.0971 42.6918C43.8488 42.2875 44.7864 42.5697 45.1911 43.3222L49.3544 51.0616L54.5151 48.2855C55.0396 48.0034 55.2359 47.3489 54.9534 46.8239L53.9638 44.9841C52.7243 42.68 53.5804 39.8111 55.8757 38.5764C58.171 37.3416 61.0366 38.2085 62.2761 40.5127L63.2658 42.3525C63.5482 42.8775 64.2025 43.0745 64.727 42.7923L70.2581 39.817C70.7826 39.5348 70.9789 38.8804 70.6964 38.3553L59.0344 16.6756C58.7519 16.1506 58.0976 15.9536 57.5731 16.2358L52.1167 19.1709C51.5922 19.4531 50.938 19.2562 50.6555 18.7311L50.3778 18.2149C49.1128 15.8633 46.1883 14.9785 43.8457 16.2387Z" fill="black"/>
</g>
</svg>
