<svg width="93" height="92" viewBox="0 0 93 92" fill="none" xmlns="http://www.w3.org/2000/svg">
<mask id="mask0_7374_56932" style="mask-type:alpha" maskUnits="userSpaceOnUse" x="0" y="0" width="93" height="92">
<rect x="0.625" width="92" height="92" fill="black"/>
</mask>
<g mask="url(#mask0_7374_56932)">
</g>
<g clip-path="url(#clip0_7374_56932)">
<path d="M74.125 23.5H19.125C17.7425 23.5 16.625 24.62 16.625 26V65.9999C16.625 67.3825 17.7425 68.5 19.125 68.5H74.1249C75.5074 68.5 76.6249 67.3825 76.6249 66V26C76.625 24.62 75.5075 23.5 74.125 23.5ZM31.625 51C28.8625 51 26.625 48.7626 26.625 46C26.625 43.24 28.8624 41 31.625 41C34.385 41 36.625 43.24 36.625 46C36.625 48.7625 34.385 51 31.625 51ZM66.095 47.4525C64.4625 49.5475 62.055 50.7925 59.495 50.8725C59.41 50.875 59.325 50.875 59.24 50.875C56.8 50.875 54.4125 49.815 52.585 47.93C52.465 47.8375 52.355 47.7325 52.2526 47.6174C51.2976 46.5399 50.005 45.9624 48.9076 46.0025C47.8201 46.0349 46.8226 46.5674 46.0951 47.5C45.2451 48.5875 43.675 48.785 42.5875 47.9325C41.4976 47.085 41.305 45.5125 42.155 44.425C43.7875 42.33 46.195 41.0825 48.7525 41.005C51.2725 40.9175 53.7725 41.995 55.6651 43.9475C55.7851 44.0375 55.8951 44.1425 55.9975 44.26C56.9525 45.335 58.2301 45.9225 59.3425 45.875C60.4276 45.8399 61.4275 45.31 62.155 44.3774C63.0025 43.2875 64.5725 43.0874 65.6626 43.9449C66.7525 44.7925 66.945 46.3625 66.095 47.4525Z" fill="black"/>
</g>
<defs>
<clipPath id="clip0_7374_56932">
<rect width="60" height="60" fill="white" transform="translate(16.625 16)"/>
</clipPath>
</defs>
</svg>
