<svg width="93" height="92" viewBox="0 0 93 92" fill="none" xmlns="http://www.w3.org/2000/svg">
<mask id="mask0_7374_56897" style="mask-type:alpha" maskUnits="userSpaceOnUse" x="0" y="0" width="93" height="92">
<rect x="0.625" width="92" height="92" fill="black"/>
</mask>
<g mask="url(#mask0_7374_56897)">
<path d="M49.3184 46.6016H48.2197C48.1615 46.6016 48.1056 46.6247 48.0644 46.6659C48.0231 46.7071 48 46.763 48 46.8213C48 46.8796 48.0231 46.9355 48.0644 46.9767C48.1056 47.0179 48.1615 47.041 48.2197 47.041H48.7888L47.6243 48.2056C47.5359 48.1628 47.439 48.1402 47.3408 48.1397H45.1436C44.9687 48.1397 44.8011 48.2091 44.6774 48.3327C44.5538 48.4563 44.4844 48.624 44.4844 48.7988V50.9961C44.4844 51.1709 44.5538 51.3386 44.6774 51.4622C44.8011 51.5858 44.9687 51.6553 45.1436 51.6553H47.3408C47.5156 51.6553 47.6833 51.5858 47.8069 51.4622C47.9306 51.3386 48 51.1709 48 50.9961V48.7988C47.9998 48.7013 47.9773 48.605 47.9341 48.5176L49.0986 47.3508V47.9199C49.0986 47.9782 49.1218 48.0341 49.163 48.0753C49.2042 48.1165 49.2601 48.1397 49.3184 48.1397C49.3766 48.1397 49.4325 48.1165 49.4737 48.0753C49.5149 48.0341 49.5381 47.9782 49.5381 47.9199V46.8213C49.5373 46.7631 49.5145 46.7074 49.4744 46.6653C49.4538 46.6449 49.4295 46.6288 49.4027 46.6179C49.3759 46.6069 49.3473 46.6014 49.3184 46.6016Z" fill="black"/>
<path d="M44.7041 47.6992C44.7624 47.6992 44.8183 47.6761 44.8595 47.6349C44.9007 47.5937 44.9238 47.5378 44.9238 47.4795V47.04C44.9238 46.9818 44.9007 46.9259 44.8595 46.8847C44.8183 46.8435 44.7624 46.8203 44.7041 46.8203C44.6458 46.8203 44.5899 46.8435 44.5487 46.8847C44.5075 46.9259 44.4844 46.9818 44.4844 47.04V47.4795C44.4844 47.5378 44.5075 47.5937 44.5487 47.6349C44.5899 47.6761 44.6458 47.6992 44.7041 47.6992Z" fill="black"/>
<path d="M50.4189 46.8203C50.3607 46.8203 50.3048 46.8435 50.2636 46.8847C50.2224 46.9259 50.1992 46.9818 50.1992 47.04V47.4795C50.1992 47.5378 50.2224 47.5937 50.2636 47.6349C50.3048 47.6761 50.3607 47.6992 50.4189 47.6992C50.4772 47.6992 50.5331 47.6761 50.5743 47.6349C50.6155 47.5937 50.6387 47.5378 50.6387 47.4795V47.04C50.6387 46.9818 50.6155 46.9259 50.5743 46.8847C50.5331 46.8435 50.4772 46.8203 50.4189 46.8203Z" fill="black"/>
<path d="M50.4189 49.457C50.3607 49.457 50.3048 49.4802 50.2636 49.5214C50.2224 49.5626 50.1992 49.6185 50.1992 49.6768V50.1162C50.1992 50.1745 50.2224 50.2304 50.2636 50.2716C50.3048 50.3128 50.3607 50.3359 50.4189 50.3359C50.4772 50.3359 50.5331 50.3128 50.5743 50.2716C50.6155 50.2304 50.6387 50.1745 50.6387 50.1162V49.6768C50.6387 49.6185 50.6155 49.5626 50.5743 49.5214C50.5331 49.4802 50.4772 49.457 50.4189 49.457Z" fill="black"/>
<path d="M50.4189 48.1387C50.3607 48.1387 50.3048 48.1618 50.2636 48.203C50.2224 48.2442 50.1992 48.3001 50.1992 48.3584V48.7979C50.1992 48.8561 50.2224 48.912 50.2636 48.9532C50.3048 48.9944 50.3607 49.0176 50.4189 49.0176C50.4772 49.0176 50.5331 48.9944 50.5743 48.9532C50.6155 48.912 50.6387 48.8561 50.6387 48.7979V48.3584C50.6387 48.3001 50.6155 48.2442 50.5743 48.203C50.5331 48.1618 50.4772 48.1387 50.4189 48.1387Z" fill="black"/>
<path d="M48.6611 45.9414H49.1006C49.1589 45.9414 49.2147 45.9183 49.256 45.877C49.2972 45.8358 49.3203 45.78 49.3203 45.7217C49.3203 45.6634 49.2972 45.6075 49.256 45.5663C49.2147 45.5251 49.1589 45.502 49.1006 45.502H48.6611C48.6029 45.502 48.547 45.5251 48.5058 45.5663C48.4646 45.6075 48.4414 45.6634 48.4414 45.7217C48.4414 45.78 48.4646 45.8358 48.5058 45.877C48.547 45.9183 48.6029 45.9414 48.6611 45.9414Z" fill="black"/>
<path d="M46.0244 45.9414H46.4639C46.5221 45.9414 46.578 45.9183 46.6192 45.877C46.6604 45.8358 46.6836 45.78 46.6836 45.7217C46.6836 45.6634 46.6604 45.6075 46.6192 45.5663C46.578 45.5251 46.5221 45.502 46.4639 45.502H46.0244C45.9661 45.502 45.9103 45.5251 45.869 45.5663C45.8278 45.6075 45.8047 45.6634 45.8047 45.7217C45.8047 45.78 45.8278 45.8358 45.869 45.877C45.9103 45.9183 45.9661 45.9414 46.0244 45.9414Z" fill="black"/>
<path d="M47.3447 45.9414H47.7842C47.8425 45.9414 47.8983 45.9183 47.9395 45.877C47.9808 45.8358 48.0039 45.78 48.0039 45.7217C48.0039 45.6634 47.9808 45.6075 47.9395 45.5663C47.8983 45.5251 47.8425 45.502 47.7842 45.502H47.3447C47.2865 45.502 47.2306 45.5251 47.1894 45.5663C47.1481 45.6075 47.125 45.6634 47.125 45.7217C47.125 45.78 47.1481 45.8358 47.1894 45.877C47.2306 45.9183 47.2865 45.9414 47.3447 45.9414Z" fill="black"/>
<path d="M49.1006 51.2148H48.6611C48.6029 51.2148 48.547 51.238 48.5058 51.2792C48.4646 51.3204 48.4414 51.3763 48.4414 51.4346C48.4414 51.4928 48.4646 51.5487 48.5058 51.5899C48.547 51.6311 48.6029 51.6543 48.6611 51.6543H49.1006C49.1589 51.6543 49.2147 51.6311 49.256 51.5899C49.2972 51.5487 49.3203 51.4928 49.3203 51.4346C49.3203 51.3763 49.2972 51.3204 49.256 51.2792C49.2147 51.238 49.1589 51.2148 49.1006 51.2148Z" fill="black"/>
<path d="M50.417 50.7754C50.3587 50.7754 50.3028 50.7985 50.2616 50.8397C50.2204 50.881 50.1973 50.9368 50.1973 50.9951C50.1973 51.0534 50.1741 51.1093 50.1329 51.1505C50.0917 51.1917 50.0358 51.2148 49.9775 51.2148C49.9193 51.2148 49.8634 51.238 49.8222 51.2792C49.781 51.3204 49.7578 51.3763 49.7578 51.4346C49.7578 51.4928 49.781 51.5487 49.8222 51.5899C49.8634 51.6311 49.9193 51.6543 49.9775 51.6543C50.1524 51.6543 50.32 51.5848 50.4436 51.4612C50.5673 51.3376 50.6367 51.1699 50.6367 50.9951C50.6367 50.9368 50.6136 50.881 50.5724 50.8397C50.5312 50.7985 50.4753 50.7754 50.417 50.7754Z" fill="black"/>
<path d="M49.9775 45.9414C50.0358 45.9414 50.0917 45.9646 50.1329 46.0058C50.1741 46.047 50.1973 46.1029 50.1973 46.1611C50.1973 46.2194 50.2204 46.2753 50.2616 46.3165C50.3028 46.3577 50.3587 46.3809 50.417 46.3809C50.4753 46.3809 50.5312 46.3577 50.5724 46.3165C50.6136 46.2753 50.6367 46.2194 50.6367 46.1611C50.6367 45.9863 50.5673 45.8186 50.4436 45.695C50.32 45.5714 50.1524 45.502 49.9775 45.502C49.9193 45.502 49.8634 45.5251 49.8222 45.5663C49.781 45.6075 49.7578 45.6634 49.7578 45.7217C49.7578 45.78 49.781 45.8358 49.8222 45.877C49.8634 45.9183 49.9193 45.9414 49.9775 45.9414Z" fill="black"/>
<path d="M44.7041 46.3809C44.7624 46.3809 44.8183 46.3577 44.8595 46.3165C44.9007 46.2753 44.9238 46.2194 44.9238 46.1611C44.9238 46.1029 44.947 46.047 44.9882 46.0058C45.0294 45.9646 45.0853 45.9414 45.1436 45.9414C45.2018 45.9414 45.2577 45.9183 45.2989 45.877C45.3401 45.8358 45.3633 45.78 45.3633 45.7217C45.3633 45.6634 45.3401 45.6075 45.2989 45.5663C45.2577 45.5251 45.2018 45.502 45.1436 45.502C44.9687 45.502 44.8011 45.5714 44.6774 45.695C44.5538 45.8186 44.4844 45.9863 44.4844 46.1611C44.4844 46.2194 44.5075 46.2753 44.5487 46.3165C44.5899 46.3577 44.6458 46.3809 44.7041 46.3809Z" fill="black"/>
<g clip-path="url(#clip0_7374_56897)">
<path d="M75.9336 45.3086H72.2305C72.0547 38.7227 69.418 32.5586 64.7422 27.8828C60.0664 23.207 53.9023 20.5703 47.3164 20.3945V16.6914C47.3164 16.3164 47.0117 16 46.625 16C46.2383 16 45.9336 16.3047 45.9336 16.6914V20.3945C39.3477 20.5703 33.1836 23.207 28.5078 27.8828C23.832 32.5586 21.1953 38.7227 21.0195 45.3086H17.3164C16.9414 45.3086 16.625 45.6133 16.625 46C16.625 46.3867 16.9297 46.6914 17.3164 46.6914H21.0195C21.1953 53.2773 23.832 59.4414 28.5078 64.1172C33.1836 68.793 39.3477 71.4414 45.9336 71.6055V75.3086C45.9336 75.6836 46.2383 76 46.625 76C47.0117 76 47.3164 75.6953 47.3164 75.3086V71.6055C53.9023 71.4297 60.0664 68.793 64.7422 64.1172C69.418 59.4414 72.0664 53.2773 72.2305 46.6914H75.9336C76.3086 46.6914 76.625 46.3867 76.625 46C76.625 45.6133 76.3203 45.3086 75.9336 45.3086ZM59.9961 53.3242C59.9961 53.5703 59.8672 53.793 59.6562 53.9219L46.9766 61.2344C46.7656 61.3516 46.4961 61.3516 46.2852 61.2344L33.5938 53.9102C33.3828 53.7812 33.2539 53.5586 33.2539 53.3125V38.6289C33.2656 38.4062 33.3945 38.1953 33.5938 38.0781L46.2734 30.7656C46.4844 30.6367 46.7539 30.6367 46.9648 30.7656L59.6445 38.0898C59.8438 38.207 59.9727 38.4062 59.9844 38.6406C59.9844 38.6523 59.9844 38.6641 59.9961 38.6875V53.3242ZM47.3164 59.4414L58.6133 52.9141V39.8828L47.3164 46.4102V59.4414ZM46.625 32.1602L35.3164 38.6875L46.625 45.2148L57.9336 38.6875L46.625 32.1602ZM34.6367 52.9141L45.9336 59.4414V46.4102L34.6367 39.8828V52.9141ZM47.3164 46.4102V59.4414L58.6133 52.9141V39.8828L47.3164 46.4102ZM34.6367 39.8828V52.9141L45.9336 59.4414V46.4102L34.6367 39.8828ZM46.625 32.1602L35.3164 38.6875L46.625 45.2148L57.9336 38.6875L46.625 32.1602ZM47.3164 46.4102V59.4414L58.6133 52.9141V39.8828L47.3164 46.4102ZM46.625 32.1602L35.3164 38.6875L46.625 45.2148L57.9336 38.6875L46.625 32.1602ZM34.6367 52.9141L45.9336 59.4414V46.4102L34.6367 39.8828V52.9141Z" fill="black"/>
</g>
</g>
<defs>
<clipPath id="clip0_7374_56897">
<rect width="60" height="60" fill="white" transform="translate(16.625 16)"/>
</clipPath>
</defs>
</svg>
