<svg width="93" height="92" viewBox="0 0 93 92" fill="none" xmlns="http://www.w3.org/2000/svg">
<mask id="mask0_7374_56960" style="mask-type:alpha" maskUnits="userSpaceOnUse" x="0" y="0" width="93" height="92">
<rect x="0.625" width="92" height="92" fill="black"/>
</mask>
<g mask="url(#mask0_7374_56960)">
</g>
<path d="M61.625 19.0469H31.625C28.4556 19.0494 25.4167 20.3095 23.1756 22.5506C20.9345 24.7917 19.6744 27.8306 19.6719 31V61C19.6744 64.1694 20.9345 67.2083 23.1756 69.4494C25.4167 71.6905 28.4556 72.9506 31.625 72.9531H61.625C64.7944 72.9506 67.8333 71.6905 70.0744 69.4494C72.3155 67.2083 73.5756 64.1694 73.5781 61V31C73.5756 27.8306 72.3155 24.7917 70.0744 22.5506C67.8333 20.3095 64.7944 19.0494 61.625 19.0469ZM39.2938 59.3594C39.303 60.5326 38.9717 61.6834 38.3401 62.6722C37.7086 63.661 36.8038 64.4454 35.7354 64.9304C34.667 65.4153 33.4809 65.58 32.3208 65.4044C31.1607 65.2289 30.0764 64.7206 29.1993 63.9413C28.3222 63.162 27.69 62.145 27.3793 61.0135C27.0685 59.8821 27.0926 58.6849 27.4486 57.5669C27.8045 56.4489 28.4771 55.4581 29.3848 54.7146C30.2925 53.9712 31.3963 53.5069 32.5625 53.3781V38.6219C31.0252 38.4425 29.6146 37.6822 28.6196 36.4967C27.6246 35.3111 27.1204 33.7901 27.2102 32.245C27.3001 30.6999 27.9772 29.2475 29.1029 28.1853C30.2287 27.1232 31.7179 26.5315 33.2656 26.5315C34.8134 26.5315 36.3026 27.1232 37.4283 28.1853C38.554 29.2475 39.2312 30.6999 39.321 32.245C39.4109 33.7901 38.9067 35.3111 37.9117 36.4967C36.9166 37.6822 35.5061 38.4425 33.9688 38.6219V53.3781C35.4379 53.5589 36.7902 54.2705 37.771 55.3791C38.7518 56.4877 39.2934 57.9167 39.2938 59.3969V59.3594ZM60.0219 65.4156C58.4713 65.4235 56.9767 64.8364 55.8461 63.7752C54.7156 62.714 54.0351 61.2595 53.945 59.7115C53.8548 58.1635 54.3619 56.6399 55.3616 55.4546C56.3614 54.2694 57.7777 53.5127 59.3188 53.3406V42.6531C59.3094 40.2997 58.4153 38.0359 56.814 36.3112C55.2127 34.5866 53.0213 33.5273 50.675 33.3438V37.9656C50.6747 38.1039 50.6336 38.239 50.5569 38.3541C50.4802 38.4691 50.3713 38.559 50.2438 38.6125C50.158 38.6499 50.0654 38.669 49.9719 38.6688C49.8761 38.6777 49.7794 38.6673 49.6876 38.6383C49.5959 38.6094 49.5108 38.5623 49.4375 38.5L44.0844 33.1375C44.018 33.0729 43.9653 32.9956 43.9293 32.9103C43.8933 32.8249 43.8748 32.7332 43.8748 32.6406C43.8748 32.548 43.8933 32.4563 43.9293 32.371C43.9653 32.2857 44.018 32.2084 44.0844 32.1437L49.4375 26.7531C49.5358 26.6549 49.6611 26.588 49.7974 26.561C49.9337 26.5339 50.075 26.5478 50.2034 26.601C50.3318 26.6541 50.4415 26.7442 50.5188 26.8597C50.5961 26.9752 50.6374 27.111 50.6375 27.25V31.9375C53.3586 32.118 55.9096 33.3248 57.7752 35.3139C59.6407 37.303 60.6816 39.9261 60.6875 42.6531V53.3781C62.2285 53.5502 63.6449 54.3069 64.6446 55.4921C65.6444 56.6774 66.1514 58.201 66.0613 59.749C65.9712 61.297 65.2907 62.7515 64.1601 63.8127C63.0295 64.8739 61.535 65.461 59.9844 65.4531L60.0219 65.4156Z" fill="black"/>
</svg>
