<svg width="93" height="92" viewBox="0 0 93 92" fill="none" xmlns="http://www.w3.org/2000/svg">
<mask id="mask0_7374_56969" style="mask-type:alpha" maskUnits="userSpaceOnUse" x="0" y="0" width="93" height="92">
<rect x="0.625" width="92" height="92" fill="black"/>
</mask>
<g mask="url(#mask0_7374_56969)">
</g>
<path d="M21.4258 42.1523V53.3243C25.2442 57.1043 33.9562 59.1995 46.6258 59.1995C59.2954 59.1995 68.0073 57.1043 71.8258 53.3243V42.1523C67.6762 44.9771 60.1425 47.1995 46.6258 47.1995C33.109 47.1995 25.5754 44.9771 21.4258 42.1523Z" fill="black"/>
<path d="M21.4258 56.5527V67.5999C21.4258 73.1151 34.1025 75.9999 46.6258 75.9999C59.149 75.9999 71.8258 73.1151 71.8258 67.5999V56.5527C67.6762 59.3775 60.1425 61.5999 46.6258 61.5999C33.109 61.5999 25.5754 59.3775 21.4258 56.5527Z" fill="black"/>
<path d="M46.6258 16C34.1025 16 21.4258 18.8848 21.4258 24.4V24.5248C25.2442 28.3048 33.9562 30.4 46.6258 30.4C59.2954 30.4 68.0073 28.3048 71.8258 24.5248V24.4C71.8258 18.8848 59.149 16 46.6258 16Z" fill="black"/>
<path d="M21.4258 27.752V38.9239C25.2442 42.7039 33.9562 44.7991 46.6258 44.7991C59.2954 44.7991 68.0073 42.7039 71.8258 38.9239V27.752C67.6762 30.5768 60.1425 32.7991 46.6258 32.7991C33.109 32.7991 25.5754 30.5768 21.4258 27.752Z" fill="black"/>
</svg>
