<svg width="93" height="92" viewBox="0 0 93 92" fill="none" xmlns="http://www.w3.org/2000/svg">
<mask id="mask0_7374_56941" style="mask-type:alpha" maskUnits="userSpaceOnUse" x="0" y="0" width="93" height="92">
<rect x="0.625" width="92" height="92" fill="black"/>
</mask>
<g mask="url(#mask0_7374_56941)">
</g>
<g clip-path="url(#clip0_7374_56941)">
<path d="M48.3763 40.9227V26.6551C48.3763 25.384 47.7192 24.2458 46.6185 23.6105L34.2624 16.4766C33.1617 15.8411 31.8475 15.8411 30.7466 16.4766L18.3908 23.6104C17.2899 24.2458 16.6328 25.384 16.6328 26.6551V40.9227C16.6328 42.1937 17.2899 43.332 18.3907 43.9673L30.7469 51.1012C31.2972 51.4189 31.901 51.5778 32.5046 51.5777C33.1084 51.5777 33.7123 51.4189 34.2625 51.1011L46.6185 43.9673C47.7192 43.332 48.3763 42.1937 48.3763 40.9227ZM32.5045 41.9922C27.9812 41.9922 24.3011 38.3121 24.3011 33.7888C24.7135 22.9208 40.2972 22.9237 40.7079 33.7889C40.7079 38.3122 37.0279 41.9922 32.5045 41.9922Z" fill="black"/>
<path d="M32.5041 29.1016C29.9193 29.1016 27.8164 31.2044 27.8164 33.7892C28.0521 39.9995 36.957 39.9978 37.1917 33.7891C37.1917 31.2044 35.0888 29.1016 32.5041 29.1016Z" fill="black"/>
<path d="M60.7462 53.5234C58.1615 53.5234 56.0586 55.6263 56.0586 58.2111C56.2943 64.4214 65.1992 64.4197 65.4339 58.211C65.4339 55.6263 63.331 53.5234 60.7462 53.5234Z" fill="black"/>
<path d="M74.8608 48.0322L62.5047 40.8984C61.4041 40.263 60.09 40.263 58.9889 40.8984L46.633 48.0322C45.5321 48.6676 44.875 49.8059 44.875 51.077V65.3446C44.875 66.6156 45.5321 67.7539 46.6329 68.3892L58.9891 75.5231C59.5394 75.8408 60.1432 75.9997 60.7468 75.9996C61.3506 75.9996 61.9545 75.8408 62.5047 75.523L74.8606 68.3892C75.9615 67.7538 76.6186 66.6155 76.6186 65.3444V51.0769C76.6186 49.8058 75.9615 48.6676 74.8608 48.0322ZM60.7468 66.414C56.2235 66.414 52.5434 62.734 52.5434 58.2106C52.9558 47.3427 68.5395 47.3456 68.9502 58.2108C68.9502 62.734 65.2702 66.414 60.7468 66.414Z" fill="black"/>
</g>
<defs>
<clipPath id="clip0_7374_56941">
<rect width="60" height="60" fill="white" transform="translate(16.625 16)"/>
</clipPath>
</defs>
</svg>
