<svg width="76" height="76" viewBox="0 0 76 76" fill="none" xmlns="http://www.w3.org/2000/svg">
<mask id="mask0_7039_89903" style="mask-type:alpha" maskUnits="userSpaceOnUse" x="-1" y="-1" width="78" height="78">
<rect width="76" height="76" fill="white" stroke="white" stroke-width="2"/>
</mask>
<g mask="url(#mask0_7039_89903)">
<path d="M64.7297 34.7487C63.1375 34.7487 61.8153 35.8922 61.5275 37.3907H33.0109C32.723 35.8922 31.4008 34.7487 29.8087 34.7487C28.0076 34.7487 26.5403 36.2091 26.5403 38.0018C26.5403 39.7944 28.0076 41.2548 29.8087 41.2548C31.4008 41.2548 32.723 40.1113 33.0109 38.6128H61.5294C61.8173 40.1113 63.1395 41.2548 64.7316 41.2548C66.5327 41.2548 68 39.7944 68 38.0018C67.9975 36.2091 66.5307 34.7487 64.7297 34.7487ZM29.8011 40.0327C28.6725 40.0327 27.7606 39.125 27.7606 38.0018C27.7606 36.8785 28.6725 35.9708 29.8011 35.9708C30.9296 35.9708 31.8416 36.8785 31.8416 38.0018C31.8493 39.125 30.9296 40.0327 29.8011 40.0327ZM64.7297 40.0327C63.6011 40.0327 62.6891 39.125 62.6891 38.0018C62.6891 36.8785 63.6011 35.9708 64.7297 35.9708C65.8582 35.9708 66.7702 36.8785 66.7702 38.0018C66.7727 39.125 65.8582 40.0327 64.7297 40.0327ZM58.2158 25.0197H51.8573C51.707 25.0197 51.5643 25.0704 51.4523 25.1744L44.709 31.1532H38.6511C38.3633 29.6547 37.0411 28.5111 35.4489 28.5111C33.6479 28.5111 32.1805 29.9716 32.1805 31.7642C32.1805 33.5568 33.6479 35.0173 35.4489 35.0173C37.0411 35.0173 38.3633 33.8738 38.6511 32.3753H44.9382C45.0885 32.3753 45.2312 32.3246 45.3433 32.2206L52.0865 26.2418L58.2157 26.2393C58.5036 27.7378 59.8257 28.8813 61.4179 28.8813C63.2189 28.8813 64.6863 27.4209 64.6863 25.6282C64.6863 23.8356 63.2189 22.3752 61.4179 22.3752C59.8257 22.3777 58.5036 23.5212 58.2158 25.0197ZM35.4414 33.7955C34.3128 33.7955 33.4008 32.8878 33.4008 31.7646C33.4008 30.6413 34.3128 29.7336 35.4414 29.7336C36.5699 29.7336 37.4819 30.6413 37.4819 31.7646C37.4844 32.8802 36.5699 33.7955 35.4414 33.7955ZM61.4178 23.5975C62.5464 23.5975 63.4584 24.5052 63.4584 25.6285C63.4584 26.7518 62.5464 27.6595 61.4178 27.6595C60.2893 27.6595 59.3773 26.7518 59.3773 25.6285C59.3773 24.5078 60.297 23.5975 61.4178 23.5975ZM58.1036 59.4934C56.5114 59.4934 55.1893 60.6369 54.9014 62.1354H49.7632L46.7572 56.8057L43.02 50.1855C42.941 50.0435 42.806 49.9396 42.6481 49.899C42.4927 49.8534 42.322 49.8737 42.1844 49.9573C40.1363 51.1059 37.8028 51.7094 35.4412 51.7094C27.8495 51.7094 21.6671 45.5632 21.6671 37.9998C21.6671 30.4436 27.8422 24.2902 35.4412 24.2902C37.8027 24.2902 40.1362 24.8936 42.1844 26.0422C42.3271 26.1208 42.4901 26.1386 42.6481 26.1005C42.8035 26.0549 42.9359 25.9509 43.02 25.814L46.7572 19.1938L49.7632 13.8642H54.9014C55.1893 15.3627 56.5114 16.5062 58.1036 16.5062C59.9047 16.5062 61.372 15.0457 61.372 13.2531C61.372 11.4605 59.9047 10 58.1036 10C56.5114 10 55.1893 11.1435 54.9014 12.642H49.4091C49.1874 12.642 48.9862 12.7587 48.8741 12.9539L45.9853 18.0757C44.5765 17.3353 43.0888 16.7318 41.5577 16.3109C41.2113 16.2146 40.9769 15.9534 40.9132 15.6035L40.3324 12.429C40.149 11.4224 39.2701 10.6896 38.2384 10.6896L32.6518 10.6947C31.6227 10.6947 30.7412 11.4275 30.5578 12.4341L29.977 15.6086C29.9108 15.9585 29.6764 16.2197 29.3325 16.316C27.6054 16.7952 25.9342 17.4899 24.3624 18.3673C24.0491 18.5422 23.6975 18.5295 23.4045 18.3216L20.7374 16.4859C19.889 15.9027 18.7478 16.0067 18.0167 16.7319L14.0706 20.6594C13.3395 21.3871 13.2351 22.5231 13.8235 23.3674L15.6679 26.0221C15.8691 26.3137 15.8895 26.6636 15.7137 26.9755C14.8323 28.5399 14.1343 30.2007 13.6528 31.9223C13.556 32.2672 13.2936 32.5004 12.9421 32.5638L9.75266 33.1419C8.73621 33.3219 8 34.1992 8 35.2236V40.779C8 41.8033 8.73621 42.6806 9.74757 42.8632L12.937 43.4413C13.2885 43.5072 13.5509 43.7404 13.6477 44.0827C14.1292 45.8018 14.8272 47.4651 15.7086 49.0296C15.8844 49.3415 15.8717 49.6913 15.6628 49.983L13.8184 52.6377C13.2325 53.482 13.337 54.6179 14.0655 55.3457L18.0116 59.2732C18.7427 60.0009 19.884 60.1048 20.7323 59.5192L23.3994 57.6835C23.6924 57.4831 24.0439 57.4629 24.3573 57.6378C25.9291 58.5151 27.5977 59.2099 29.3274 59.6891C29.6739 59.7854 29.9083 60.0466 29.9719 60.3965L30.5528 63.571C30.7362 64.5776 31.615 65.3104 32.6468 65.3104H38.2283C39.2574 65.3104 40.1389 64.5776 40.3222 63.571L40.9031 60.3965C40.9693 60.0466 41.2037 59.7854 41.5476 59.6891C43.0812 59.2606 44.5612 58.6647 45.9751 57.9243L48.8639 63.0461C48.976 63.2413 49.1773 63.358 49.3989 63.358H54.8912C55.1791 64.8565 56.5013 66 58.0934 66C59.8945 66 61.3618 64.5395 61.3618 62.7469C61.372 60.9543 59.9123 59.4934 58.1036 59.4934ZM58.1036 11.227C59.2322 11.227 60.1441 12.1347 60.1441 13.258C60.1441 14.3812 59.2322 15.2889 58.1036 15.2889C56.9751 15.2889 56.0631 14.3812 56.0631 13.258C56.0631 12.1347 56.9828 11.227 58.1036 11.227ZM41.2266 58.5197C40.4241 58.7403 39.856 59.3641 39.7083 60.1805L39.1275 63.355C39.0485 63.7911 38.6842 64.0953 38.2333 64.0953H32.6518C32.2086 64.0953 31.8443 63.7911 31.7577 63.355L31.1768 60.1805C31.0265 59.3615 30.4584 58.7403 29.6586 58.5197C28.0206 58.0658 26.4437 57.4092 24.956 56.58C24.6223 56.3924 24.2656 56.3011 23.9064 56.3011C23.4886 56.3011 23.0709 56.4304 22.6989 56.684L20.0317 58.5197C19.6674 58.7732 19.191 58.7276 18.8777 58.4157L14.9317 54.4882C14.6183 54.1763 14.5725 53.7022 14.8272 53.3396L16.6792 50.6849C17.1556 50.0028 17.1938 49.1585 16.7837 48.4384C15.9481 46.9577 15.2908 45.3882 14.8348 43.7578C14.6056 42.9591 13.9865 42.3937 13.1662 42.2467L9.97684 41.6686C9.53867 41.59 9.23299 41.2274 9.23299 40.7786V35.2232C9.23299 34.782 9.53869 34.4194 9.97684 34.3332L13.1662 33.7551C13.9891 33.6055 14.6132 33.0401 14.8348 32.244C15.2908 30.6136 15.9506 29.0441 16.7837 27.5634C17.1938 26.8357 17.1556 25.9989 16.6792 25.3169L14.8349 22.6622C14.5801 22.2996 14.626 21.8255 14.9393 21.5136L18.8854 17.5861C19.1987 17.2742 19.675 17.2286 20.0393 17.4821L22.7065 19.3178C23.3918 19.792 24.2401 19.83 24.9635 19.4218C26.4512 18.5902 28.0281 17.9359 29.6661 17.4821C30.4686 17.2615 31.0367 16.6377 31.1844 15.8213L31.7652 12.6468C31.8442 12.2107 32.2085 11.9065 32.6594 11.9065H38.2409C38.6841 11.9065 39.0484 12.2107 39.1351 12.6468L39.7159 15.8213C39.8662 16.6403 40.4343 17.2615 41.2341 17.4821C42.676 17.8852 44.072 18.4355 45.3942 19.1302L42.2582 24.6932C40.1591 23.6283 37.8231 23.0704 35.4563 23.0704C27.172 23.073 20.449 29.7717 20.449 38.0023C20.449 46.2329 27.1792 52.9238 35.4406 52.9238C37.8072 52.9238 40.1484 52.366 42.2426 51.301L45.3785 56.864C44.064 57.5663 42.6608 58.1166 41.2266 58.5197ZM58.1036 64.7774C56.9751 64.7774 56.0631 63.8697 56.0631 62.7464C56.0631 61.6232 56.9751 60.7155 58.1036 60.7155C59.2322 60.7155 60.1441 61.6232 60.1441 62.7464C60.1518 63.8697 59.2322 64.7774 58.1036 64.7774ZM61.4178 47.1226C59.8257 47.1226 58.5035 48.2661 58.2156 49.7646H52.0916L45.3483 43.7858C45.2362 43.6895 45.0936 43.6311 44.9433 43.6311H38.6511C38.3632 42.1326 37.041 40.9891 35.4489 40.9891C33.6478 40.9891 32.1805 42.4496 32.1805 44.2422C32.1805 46.0348 33.6478 47.4953 35.4489 47.4953C37.041 47.4953 38.3632 46.3518 38.6511 44.8533H44.709L51.4522 50.8321C51.5643 50.9335 51.7069 50.9842 51.8572 50.9842H58.2157C58.5036 52.4827 59.8257 53.6262 61.4179 53.6262C63.2189 53.6262 64.6863 52.1657 64.6863 50.3731C64.6863 48.583 63.2189 47.1226 61.4178 47.1226ZM35.4414 46.2782C34.3128 46.2782 33.4008 45.3705 33.4008 44.2473C33.4008 43.124 34.3128 42.2163 35.4414 42.2163C36.5699 42.2163 37.4819 43.124 37.4819 44.2473C37.4844 45.3629 36.5699 46.2782 35.4414 46.2782ZM61.4178 52.4066C60.2893 52.4066 59.3773 51.4989 59.3773 50.3757C59.3773 49.2524 60.2893 48.3447 61.4178 48.3447C62.5464 48.3447 63.4584 49.2524 63.4584 50.3757C63.4584 51.4964 62.5464 52.4066 61.4178 52.4066Z" fill="black" stroke="black"/>
</g>
</svg>
