<svg width="76" height="76" viewBox="0 0 76 76" fill="none" xmlns="http://www.w3.org/2000/svg">
<mask id="mask0_7039_89906" style="mask-type:alpha" maskUnits="userSpaceOnUse" x="-1" y="-1" width="78" height="78">
<rect width="76" height="76" fill="white" stroke="white" stroke-width="2"/>
</mask>
<g mask="url(#mask0_7039_89906)">
<path d="M69.602 54.8316L60.4598 47.1123C60.7562 46.5598 60.9438 45.9489 60.9977 45.3043C61.1021 44.0623 60.7181 42.855 59.9174 41.9095C59.3312 41.2121 58.5687 40.7135 57.713 40.4564C58.9831 38.7584 58.9685 36.3451 57.5468 34.6562C56.9291 33.9229 56.1161 33.4097 55.2042 33.166C56.2205 31.5017 56.1172 29.3018 54.791 27.7263C54.0565 26.8571 53.0459 26.2967 51.9229 26.1305C52.4372 24.6302 52.1767 22.9031 51.0829 21.606C50.2845 20.6571 49.1581 20.0777 47.915 19.9721C46.6651 19.8632 45.4635 20.2495 44.5146 21.049L44.3416 21.195L39.1018 18.7503C36.3595 17.3264 33.9586 18.446 32.7974 20.1832C32.4111 20.7604 32.1742 21.3837 32.0506 22.0125L30.9086 21.0479C28.9422 19.3926 25.9966 19.6453 24.3403 21.606C23.2465 22.9031 22.9859 24.6302 23.5014 26.1305C22.3784 26.2967 21.37 26.856 20.6333 27.7274C19.8337 28.6763 19.4508 29.8824 19.5552 31.1244C19.6181 31.8611 19.8461 32.5551 20.2189 33.166C19.3351 33.4041 18.5109 33.9038 17.8764 34.6551C16.4536 36.344 16.4401 38.7573 17.7113 40.4552C16.8792 40.7079 16.1077 41.193 15.5069 41.9061C14.2413 43.4042 14.0953 45.475 14.969 47.1111L5.82232 54.8305C5.3473 55.2303 5.28778 55.9389 5.68756 56.4128C5.90991 56.6756 6.22659 56.8114 6.54776 56.8114C6.8038 56.8114 7.05984 56.725 7.27096 56.5475L16.4491 48.8023L20.1302 51.9063C20.9758 52.6194 22.0258 53.0012 23.1229 53.0012C23.2566 53.0012 23.3913 52.9944 23.5261 52.9832C24.767 52.8776 25.8922 52.2982 26.6884 51.3515C27.4902 50.4048 27.8743 49.1999 27.7698 47.9567C27.7148 47.2987 27.5194 46.6799 27.2151 46.1184C28.1427 45.8938 29.013 45.3941 29.6733 44.6114C30.5829 43.5322 30.8962 42.1599 30.6862 40.8651C30.6873 40.8651 30.6885 40.8651 30.6896 40.8651C31.999 40.8651 33.2893 40.3216 34.1731 39.2784C34.9985 38.4485 35.4252 37.3188 35.3724 36.0992C35.3702 36.0588 35.3567 36.0206 35.3544 35.9813C35.5386 36.0037 35.7205 36.0341 35.9081 36.0341C36.0417 36.0341 36.1776 36.0285 36.3123 36.0161C37.5555 35.9105 38.6796 35.33 39.4118 34.454C40.2416 33.6286 40.6706 32.5023 40.6201 31.2816C40.574 30.1721 40.1249 29.1289 39.3949 28.3091L45.961 22.7649C46.4517 22.3528 47.0739 22.1496 47.7229 22.2102C48.3687 22.2641 48.9515 22.5639 49.3636 23.0535C50.2204 24.0698 50.0902 25.5982 49.0739 26.4562L48.2249 27.1749C48.2238 27.176 48.2238 27.176 48.2238 27.176C47.751 27.5758 47.6915 28.2844 48.0935 28.7583C48.4922 29.2311 49.2008 29.2895 49.6747 28.8897L49.6803 28.8841C50.1677 28.4764 50.7932 28.2833 51.4288 28.3327C52.0756 28.3866 52.6607 28.6853 53.0728 29.1749C53.9308 30.1935 53.8005 31.7196 52.7831 32.5775L50.9818 34.1014C50.9818 34.1014 50.9807 34.1025 50.9796 34.1025C50.5068 34.5034 50.4473 35.212 50.8482 35.6848C51.248 36.1587 51.9566 36.2182 52.4305 35.8173C52.9201 35.4018 53.5624 35.2098 54.1891 35.2592C54.8336 35.3142 55.4153 35.613 55.8275 36.1026C56.6843 37.12 56.5541 38.6472 55.5389 39.5052L53.3536 41.3491L53.3524 41.3503C52.8785 41.75 52.8179 42.4586 53.2177 42.9325C53.6175 43.4064 54.3249 43.4682 54.8 43.0673L54.8033 43.065C55.2929 42.6529 55.9106 42.4609 56.5597 42.5103C57.2043 42.5653 57.786 42.864 58.1992 43.3559C58.6136 43.8466 58.8112 44.471 58.7573 45.1145C58.7023 45.7591 58.4036 46.343 57.914 46.7563L47.7072 55.3718C43.5421 58.8878 40.1069 58.5161 34.9468 57.4897C34.6099 57.419 34.2651 57.5122 34.0024 57.7334L18.6344 70.7061C18.1605 71.1047 18.101 71.8133 18.5019 72.2883C18.7231 72.5511 19.0398 72.687 19.3598 72.687C19.6159 72.687 19.8719 72.6005 20.0842 72.422L35.04 59.7963C37.1714 60.2073 39.122 60.4937 41.0064 60.4241L55.3491 72.4253C55.5613 72.6017 55.8163 72.687 56.07 72.687C56.3912 72.687 56.7101 72.55 56.9325 72.285C57.33 71.8088 57.2683 71.1014 56.7921 70.7038L43.9722 59.976C45.6735 59.4942 47.3714 58.5959 49.1559 57.0899L58.9797 48.8001L68.1533 56.5464C68.3644 56.725 68.6216 56.8114 68.8776 56.8114C69.1977 56.8114 69.5144 56.6767 69.7367 56.4139C70.1354 55.94 70.0758 55.2314 69.602 54.8316ZM34.7828 24.3169C33.9327 23.5993 34.0877 22.2944 34.6661 21.4308C34.9513 21.0041 36.0406 19.6936 38.1114 20.7638L42.4528 22.7896L37.7127 26.7919L34.7929 24.3281L34.7851 24.3214C34.784 24.3203 34.7851 24.318 34.7828 24.3169ZM24.9747 49.9006C24.5626 50.3914 23.9809 50.6901 23.3374 50.744C22.6872 50.8024 22.0673 50.6002 21.5788 50.1881L17.5103 46.7585C16.494 45.8961 16.3649 44.3699 17.2239 43.3548C18.0752 42.3441 19.5833 42.2105 20.6019 43.0527L24.6917 46.5014C25.1814 46.9135 25.4801 47.4963 25.534 48.142C25.5879 48.7878 25.3891 49.411 24.9747 49.9006ZM27.9585 43.1616C27.1005 44.1779 25.5755 44.3082 24.5581 43.4525L22.0774 41.3604C22.0741 41.3581 22.073 41.3536 22.0696 41.3503L22.0685 41.3491L19.8843 39.5063C18.868 38.6461 18.7377 37.12 19.5934 36.1037C20.0078 35.613 20.5917 35.3142 21.2363 35.2592C21.8821 35.2064 22.5064 35.403 22.996 35.8173L22.9972 35.8185C22.9994 35.8207 23.0039 35.8207 23.0062 35.8229L27.6676 39.7612C28.6851 40.6192 28.8142 42.1464 27.9585 43.1616ZM32.5223 37.7578C31.6621 38.7741 30.1371 38.9044 29.1185 38.0453L24.4312 34.0868C24.4301 34.0857 24.4278 34.0857 24.4267 34.0846L22.6378 32.5753C22.1482 32.1632 21.8495 31.5803 21.7945 30.9346C21.7394 30.29 21.9382 29.6634 22.3503 29.1749C22.7636 28.6853 23.3464 28.3866 23.991 28.3327C24.6244 28.2732 25.2544 28.473 25.7429 28.8807L25.753 28.8897L32.2314 34.3563C32.766 34.8078 33.1017 35.495 33.1321 36.1935C33.1556 36.7797 32.9625 37.312 32.5223 37.7578ZM37.7644 32.9335C37.3522 33.4231 36.7705 33.7219 36.1259 33.7769C35.478 33.8364 34.857 33.6343 34.3696 33.2233C34.3146 33.1772 34.2651 33.1761 34.2191 33.2019C34.0507 33.0054 33.8788 32.8089 33.6801 32.6404L27.2005 27.1726C27.196 27.1681 27.1915 27.1659 27.187 27.1614L26.3481 26.4551C25.3318 25.596 25.2016 24.0687 26.0573 23.0535C26.9164 22.0384 28.4436 21.907 29.4599 22.7627L30.995 24.0597C30.9962 24.0597 30.9962 24.0609 30.9973 24.062L33.4364 26.1215L34.191 26.7583L37.4802 29.5354C38.0148 29.9857 38.3494 30.673 38.3797 31.3737C38.4033 31.9565 38.2079 32.4843 37.7644 32.9335Z" fill="black"/>
<path d="M42.2197 11.2153C42.8407 11.2153 43.3426 10.7134 43.3426 10.0924V4.18548C43.3426 3.56447 42.8407 3.0625 42.2197 3.0625C41.5987 3.0625 41.0967 3.56447 41.0967 4.18548V10.0924C41.0967 10.7134 41.5987 11.2153 42.2197 11.2153Z" fill="black"/>
<path d="M57.0898 14.4428C57.4357 14.4428 57.776 14.2834 57.9972 13.9846L61.4908 9.22321C61.8569 8.72348 61.7491 8.02049 61.2494 7.65328C60.7463 7.28494 60.0455 7.39612 59.6794 7.89472L56.1858 12.6562C55.8197 13.1559 55.9275 13.8589 56.4273 14.2261C56.6272 14.3721 56.8596 14.4428 57.0898 14.4428Z" fill="black"/>
<path d="M26.4275 13.9873C26.6465 14.2872 26.9879 14.4455 27.3338 14.4455C27.564 14.4455 27.7964 14.3748 27.9974 14.2277C28.4972 13.8616 28.605 13.1586 28.2378 12.6588L24.7419 7.89741C24.3758 7.39881 23.674 7.28988 23.1731 7.6571C22.6734 8.02319 22.5656 8.72617 22.9328 9.2259L26.4275 13.9873Z" fill="black"/>
</g>
</svg>
