<svg width="76" height="76" viewBox="0 0 76 76" fill="none" xmlns="http://www.w3.org/2000/svg">
<mask id="mask0_7039_89896" style="mask-type:alpha" maskUnits="userSpaceOnUse" x="-1" y="-1" width="78" height="78">
<rect width="76" height="76" fill="white" stroke="white" stroke-width="2"/>
</mask>
<g mask="url(#mask0_7039_89896)">
<path d="M22.354 32.663C22.0068 32.8024 21.7041 33.0337 21.4784 33.3321C21.2527 33.6306 21.1125 33.9849 21.073 34.357C21.024 34.857 21 35.399 21 35.999C21 36.599 21.024 37.141 21.072 37.63C21.1102 38.0045 21.2502 38.3614 21.4767 38.6621C21.7032 38.9628 22.0076 39.1958 22.357 39.336L24.788 40.307C25.1225 41.4918 25.5958 42.6331 26.198 43.707L25.17 46.113C25.0163 46.4572 24.9624 46.8377 25.0144 47.2111C25.0664 47.5845 25.2221 47.9358 25.464 48.225C25.771 48.598 26.119 48.979 26.572 49.442C27.02 49.88 27.401 50.228 27.762 50.525C28.052 50.7689 28.4047 50.9263 28.78 50.9794C29.1552 51.0324 29.5377 50.9789 29.884 50.825L32.3 49.799C33.3739 50.4012 34.5151 50.8745 35.7 51.209L36.672 53.643C36.8114 53.9902 37.0427 54.2929 37.3412 54.5186C37.6396 54.7443 37.9939 54.8844 38.366 54.924C38.866 54.973 39.403 54.997 40.008 54.997C40.613 54.997 41.15 54.973 41.639 54.925C42.0135 54.8867 42.3704 54.7468 42.6711 54.5203C42.9718 54.2938 43.2049 53.9894 43.345 53.64L44.316 51.209C45.5009 50.8745 46.6421 50.4012 47.716 49.799L50.125 50.827C50.4693 50.9803 50.8497 51.034 51.2231 50.982C51.5964 50.9301 51.9476 50.7745 52.237 50.533C52.61 50.226 52.991 49.878 53.454 49.425C53.892 48.977 54.24 48.596 54.537 48.235C54.7812 47.9451 54.9389 47.5924 54.992 47.2171C55.045 46.8418 54.9913 46.4591 54.837 46.113L53.8 43.704C54.4022 42.6301 54.8755 41.4888 55.21 40.304L57.644 39.332C57.9912 39.1926 58.2939 38.9612 58.5196 38.6628C58.7453 38.3643 58.8855 38.01 58.925 37.638C58.974 37.138 58.998 36.601 58.998 35.996C58.998 35.391 58.974 34.854 58.926 34.365C58.8878 33.9904 58.7478 33.6335 58.5213 33.3328C58.2948 33.0321 57.9904 32.7991 57.641 32.659L55.21 31.688C54.8755 30.5031 54.4022 29.3618 53.8 28.288L54.828 25.879C54.9817 25.5347 55.0356 25.1542 54.9836 24.7808C54.9316 24.4074 54.7759 24.0561 54.534 23.767C54.227 23.394 53.879 23.013 53.426 22.55C52.978 22.112 52.597 21.764 52.236 21.467C51.9462 21.2226 51.5935 21.0649 51.2181 21.0118C50.8428 20.9587 50.4602 21.0125 50.114 21.167L47.705 22.199C46.6311 21.5967 45.4899 21.1235 44.305 20.789L43.333 18.355C43.1936 18.0077 42.9623 17.705 42.6638 17.4793C42.3654 17.2536 42.0111 17.1135 41.639 17.074C40.5501 16.978 39.4549 16.978 38.366 17.074C37.9915 17.1122 37.6346 17.2521 37.3339 17.4786C37.0332 17.7051 36.8001 18.0095 36.66 18.359L35.689 20.79C34.5041 21.1245 33.3629 21.5977 32.289 22.2L29.886 21.169C29.5417 21.0154 29.1613 20.9615 28.7879 21.0135C28.4145 21.0655 28.0632 21.2212 27.774 21.463C27.401 21.77 27.02 22.118 26.557 22.571C26.119 23.019 25.771 23.4 25.474 23.761C25.2298 24.0508 25.0721 24.4035 25.019 24.7788C24.966 25.1541 25.0197 25.5368 25.174 25.883L26.2 28.299C25.5978 29.3728 25.1245 30.5141 24.79 31.699L22.354 32.663ZM26.597 32.673C26.9275 31.3362 27.4582 30.0571 28.171 28.879C28.2528 28.7433 28.3011 28.5901 28.312 28.432C28.323 28.274 28.2962 28.1156 28.234 27.97L27.005 25.047C27.312 24.675 27.646 24.318 27.971 23.985C28.3215 23.6309 28.6986 23.3043 29.099 23.008L31.971 24.233C32.1168 24.2947 32.2751 24.3212 32.433 24.3103C32.591 24.2993 32.7441 24.2512 32.88 24.17C34.0583 23.4582 35.3374 22.9285 36.674 22.599C36.8283 22.5609 36.9712 22.4866 37.091 22.3822C37.2108 22.2779 37.3041 22.1465 37.363 21.999L38.556 19.065C39.5281 18.9557 40.51 18.9681 41.479 19.102L42.637 21.999C42.6959 22.1465 42.7892 22.2779 42.909 22.3822C43.0288 22.4866 43.1717 22.5609 43.326 22.599C44.6628 22.9295 45.9419 23.4601 47.12 24.173C47.2559 24.2542 47.409 24.3023 47.567 24.3133C47.7249 24.3242 47.8832 24.2977 48.029 24.236L50.952 23.007C51.324 23.315 51.681 23.648 52.014 23.973C52.3683 24.3232 52.695 24.7003 52.991 25.101L51.766 27.973C51.7037 28.1186 51.677 28.277 51.688 28.435C51.6989 28.5931 51.7472 28.7463 51.829 28.882C52.5405 30.0593 53.0702 31.3374 53.4 32.673C53.4381 32.8272 53.5124 32.9702 53.6167 33.09C53.7211 33.2098 53.8524 33.303 54 33.362L56.934 34.555C56.976 34.987 56.997 35.455 56.997 35.999C57.0055 36.4939 56.9721 36.9887 56.897 37.478L54 38.636C53.8524 38.6949 53.7211 38.7881 53.6167 38.9079C53.5124 39.0277 53.4381 39.1707 53.4 39.325C53.0695 40.6617 52.5388 41.9408 51.826 43.119C51.7442 43.2546 51.6959 43.4078 51.685 43.5659C51.674 43.7239 51.7008 43.8823 51.763 44.028L53 46.951C52.693 47.323 52.359 47.68 52.034 48.013C51.6838 48.3673 51.3067 48.6939 50.906 48.99L48.034 47.765C47.8883 47.7027 47.7299 47.676 47.5719 47.6869C47.4139 47.6979 47.2607 47.7462 47.125 47.828C45.9451 48.5402 44.6643 49.0699 43.326 49.399C43.1717 49.437 43.0288 49.5113 42.909 49.6157C42.7892 49.72 42.6959 49.8514 42.637 49.999L41.444 52.933C40.4719 53.0422 39.49 53.0298 38.521 52.896L37.363 49.999C37.3041 49.8514 37.2108 49.72 37.091 49.6157C36.9712 49.5113 36.8283 49.437 36.674 49.399C35.3372 49.0685 34.0581 48.5378 32.88 47.825C32.7239 47.7311 32.5451 47.6816 32.363 47.682C32.2283 47.6817 32.0949 47.709 31.971 47.762L29.048 48.999C28.676 48.692 28.319 48.358 27.986 48.033C27.6317 47.6828 27.305 47.3056 27.009 46.905L28.234 44.033C28.2962 43.8873 28.323 43.7289 28.312 43.5709C28.3011 43.4128 28.2528 43.2596 28.171 43.124C27.4587 41.9441 26.9291 40.6633 26.6 39.325C26.5619 39.1707 26.4876 39.0277 26.3833 38.9079C26.2789 38.7881 26.1476 38.6949 26 38.636L23.066 37.443C23.021 37.011 23 36.538 23 35.999C22.9915 35.504 23.0249 35.0092 23.1 34.52L26 33.362C26.1476 33.303 26.2789 33.2098 26.3833 33.09C26.4876 32.9702 26.5619 32.8272 26.6 32.673H26.597Z" fill="black"/>
<path d="M39.9688 48C42.3421 48 44.6622 47.2962 46.6356 45.9776C48.609 44.6591 50.1471 42.7849 51.0553 40.5922C51.9636 38.3995 52.2012 35.9867 51.7382 33.6589C51.2752 31.3311 50.1323 29.193 48.454 27.5147C46.7758 25.8365 44.6376 24.6936 42.3098 24.2306C39.9821 23.7676 37.5693 24.0052 35.3765 24.9135C33.1838 25.8217 31.3097 27.3598 29.9911 29.3332C28.6725 31.3066 27.9688 33.6266 27.9688 36C27.9722 39.1815 29.2376 42.2318 31.4873 44.4815C33.737 46.7312 36.7872 47.9966 39.9688 48ZM39.9688 26C41.9466 26 43.88 26.5865 45.5245 27.6853C47.1689 28.7841 48.4507 30.3459 49.2075 32.1732C49.9644 34.0004 50.1625 36.0111 49.7766 37.9509C49.3908 39.8907 48.4383 41.6725 47.0398 43.0711C45.6413 44.4696 43.8595 45.422 41.9197 45.8079C39.9798 46.1937 37.9692 45.9957 36.1419 45.2388C34.3147 44.4819 32.7529 43.2002 31.6541 41.5557C30.5552 39.9112 29.9687 37.9778 29.9688 36C29.9719 33.3488 31.0265 30.8071 32.9012 28.9324C34.7759 27.0578 37.3176 26.0032 39.9688 26Z" fill="black"/>
<path d="M39.9688 43C41.3532 43 42.7066 42.5895 43.8577 41.8203C45.0089 41.0511 45.9061 39.9579 46.4359 38.6788C46.9657 37.3997 47.1043 35.9922 46.8342 34.6344C46.5642 33.2765 45.8975 32.0292 44.9185 31.0503C43.9395 30.0713 42.6922 29.4046 41.3344 29.1345C39.9765 28.8644 38.569 29.003 37.29 29.5328C36.0109 30.0627 34.9176 30.9599 34.1485 32.111C33.3793 33.2622 32.9688 34.6155 32.9688 36C32.9711 37.8558 33.7094 39.6349 35.0216 40.9471C36.3339 42.2594 38.113 42.9976 39.9688 43ZM39.9688 31C40.9577 31 41.9244 31.2932 42.7466 31.8427C43.5688 32.3921 44.2097 33.173 44.5881 34.0866C44.9666 35.0002 45.0656 36.0056 44.8727 36.9755C44.6798 37.9454 44.2035 38.8363 43.5043 39.5355C42.805 40.2348 41.9141 40.711 40.9442 40.9039C39.9743 41.0969 38.969 40.9978 38.0553 40.6194C37.1417 40.241 36.3608 39.6001 35.8114 38.7779C35.262 37.9556 34.9688 36.9889 34.9688 36C34.9703 34.6744 35.4976 33.4036 36.435 32.4662C37.3723 31.5289 38.6432 31.0016 39.9688 31Z" fill="black"/>
<path d="M67.9988 35.9992C67.9228 28.6584 64.9668 21.641 59.7675 16.4583C54.5681 11.2756 47.5413 8.34222 40.2003 8.28978C32.8593 8.23733 25.7913 11.0701 20.5184 16.1779C15.2455 21.2858 12.1896 28.2602 12.0088 35.5992L9.70877 33.2992C9.61846 33.1975 9.50835 33.1153 9.38518 33.0575C9.262 32.9998 9.12835 32.9679 8.9924 32.9636C8.85644 32.9593 8.72104 32.9828 8.59448 33.0327C8.46792 33.0825 8.35286 33.1576 8.25634 33.2535C8.15982 33.3493 8.08386 33.4639 8.03312 33.5901C7.98238 33.7163 7.95792 33.8515 7.96123 33.9875C7.96455 34.1235 7.99557 34.2573 8.05241 34.3809C8.10924 34.5045 8.19069 34.6152 8.29177 34.7062L12.2918 38.7062C12.4793 38.8937 12.7336 38.999 12.9988 38.999C13.2639 38.999 13.5182 38.8937 13.7058 38.7062L17.7058 34.7062C17.8879 34.5176 17.9887 34.265 17.9864 34.0028C17.9842 33.7406 17.879 33.4898 17.6936 33.3044C17.5082 33.119 17.2574 33.0138 16.9952 33.0115C16.733 33.0092 16.4804 33.11 16.2918 33.2922L14.0098 35.5742C14.1285 29.0931 16.6686 22.8911 21.1301 18.1886C25.5917 13.4862 31.6517 10.6238 38.1176 10.1647C44.5835 9.7056 50.9871 11.6831 56.0683 15.708C61.1495 19.733 64.5404 25.5139 65.5736 31.9132C66.6069 38.3125 65.2077 44.8668 61.6514 50.2864C58.0951 55.7059 52.6392 59.5982 46.3574 61.1974C40.0755 62.7966 33.4226 61.9868 27.7078 58.9274C21.993 55.8681 17.6302 50.7806 15.4778 44.6662C15.3841 44.4233 15.1995 44.2265 14.963 44.1176C14.7266 44.0088 14.457 43.9964 14.2116 44.0831C13.9661 44.1698 13.7642 44.3488 13.6486 44.582C13.5331 44.8153 13.513 45.0844 13.5928 45.3322C14.9271 49.0924 17.0489 52.5245 19.8163 55.3988C22.5836 58.273 25.9328 60.5234 29.6398 61.9992H8.99877C8.73355 61.9992 8.4792 62.1046 8.29166 62.2921C8.10412 62.4796 7.99877 62.734 7.99877 62.9992C7.99877 63.2644 8.10412 63.5188 8.29166 63.7063C8.4792 63.8938 8.73355 63.9992 8.99877 63.9992H64.5848L62.2918 66.2922C62.1963 66.3844 62.1201 66.4948 62.0677 66.6168C62.0153 66.7388 61.9877 66.87 61.9865 67.0028C61.9854 67.1356 62.0107 67.2673 62.0609 67.3902C62.1112 67.5131 62.1855 67.6247 62.2794 67.7186C62.3733 67.8125 62.4849 67.8867 62.6078 67.937C62.7307 67.9873 62.8624 68.0126 62.9952 68.0115C63.1279 68.0103 63.2592 67.9827 63.3812 67.9303C63.5032 67.8779 63.6135 67.8017 63.7058 67.7062L67.7058 63.7062C67.8932 63.5187 67.9986 63.2644 67.9986 62.9992C67.9986 62.734 67.8932 62.4797 67.7058 62.2922L63.7058 58.2922C63.5172 58.11 63.2646 58.0092 63.0024 58.0115C62.7402 58.0138 62.4894 58.119 62.3039 58.3044C62.1185 58.4898 62.0134 58.7406 62.0111 59.0028C62.0088 59.265 62.1096 59.5176 62.2918 59.7062L64.5848 61.9992H50.3708C55.569 59.9206 60.026 56.3334 63.1677 51.6996C66.3094 47.0658 67.992 41.5976 67.9988 35.9992Z" fill="black"/>
</g>
</svg>
