<svg width="78" height="76" viewBox="0 0 78 76" fill="none" xmlns="http://www.w3.org/2000/svg">
<mask id="mask0_7039_89917" style="mask-type:alpha" maskUnits="userSpaceOnUse" x="0" y="-1" width="78" height="78">
<rect x="1" width="76" height="76" fill="white" stroke="white" stroke-width="2"/>
</mask>
<g mask="url(#mask0_7039_89917)">
<path fill-rule="evenodd" clip-rule="evenodd" d="M47.1616 52.0226L70.5861 42.1391C71.6755 41.6789 72.8504 41.6758 73.889 42.0452C74.9276 42.4177 75.8302 43.1628 76.3717 44.2053L76.4984 44.4495C77.062 45.5328 77.1349 46.7381 76.796 47.8181C76.4572 48.9014 75.7067 49.8562 74.6205 50.4322L47.7887 64.727C45.9235 65.8477 44.09 66.5584 42.2849 66.8902C40.4545 67.2252 38.6654 67.172 36.9142 66.765C36.8825 66.7588 36.8508 66.7494 36.8191 66.7368L28.2024 64.2354C27.9333 64.1572 27.6768 64.1258 27.4234 64.1384C27.1733 64.1509 26.9199 64.2073 26.6602 64.3137L26.0111 64.5735C26.0301 65.015 25.9414 65.4502 25.7609 65.8446C25.7514 65.8634 25.7419 65.8853 25.7324 65.9009C25.4316 66.5145 24.9028 67.0217 24.2092 67.2878L24.1491 67.3098L22.6164 67.8576C22.8571 68.6246 22.7874 69.4167 22.4739 70.0992C22.1382 70.8255 21.527 71.4298 20.7132 71.7428L20.6467 71.7679L14.9593 73.806C14.1201 74.1065 13.2303 74.047 12.4702 73.7027C11.7071 73.3614 11.0737 72.7353 10.7507 71.9119C10.5671 71.4423 10.8046 70.9132 11.2796 70.7316C11.7546 70.55 12.2897 70.7848 12.4734 71.2544C12.6128 71.6113 12.8914 71.8837 13.2271 72.034C13.566 72.1874 13.9586 72.2155 14.326 72.0872L20.0451 70.0397C20.3871 69.9082 20.6436 69.6546 20.7861 69.3478C20.9286 69.0379 20.9539 68.6778 20.8273 68.3366V68.3335C20.8241 68.3241 20.8273 68.3366 20.8178 68.3053L20.5676 67.6698C20.5613 67.6541 20.5549 67.6385 20.5486 67.626L20.5454 67.6197L11.2859 43.9832C11.27 43.9456 11.2574 43.9112 11.2384 43.8768C11.232 43.8642 11.2225 43.8486 11.2194 43.8361C11.0674 43.5512 10.8204 43.332 10.5322 43.2037C10.1933 43.0503 9.80067 43.0221 9.43331 43.1504L3.71421 45.1979C3.3722 45.3294 3.1157 45.583 2.9732 45.8867C2.8307 46.1966 2.80537 46.5566 2.93204 46.8979L2.94154 46.9292L11.5582 68.9131C11.7419 69.3827 11.5044 69.9118 11.0294 70.0934C10.5544 70.275 10.0192 70.0401 9.83551 69.5705L1.19368 47.5209C0.896007 46.7101 0.953006 45.8617 1.28551 45.1353C1.62118 44.409 2.23239 43.8047 3.04623 43.4917L3.11273 43.4667L8.80012 41.4286C9.63934 41.128 10.5291 41.1906 11.2892 41.5319C11.7103 41.7197 12.0903 41.9952 12.4007 42.3427L14.1582 41.7134C14.8992 41.4473 15.6814 41.5037 16.3496 41.8042C16.6884 41.9576 16.9987 42.1705 17.2584 42.4397L21.0141 40.9401C21.581 40.7147 22.1446 40.5864 22.7179 40.5582C23.2942 40.53 23.8674 40.5989 24.45 40.7648L43.8334 46.2811C45.1032 46.6442 46.1102 47.4864 46.7056 48.5508C47.2851 49.5776 47.4783 50.8111 47.1616 52.0226ZM24.1018 64.3482L24.0987 64.3451C24.0923 64.3325 24.0892 64.3169 24.0828 64.3044L16.1407 44.0396C16.1344 44.0208 16.1249 44.002 16.1154 43.9832C16.109 43.9676 16.0995 43.9551 16.0932 43.9394C15.9824 43.7296 15.8019 43.57 15.5897 43.4729C15.3395 43.3602 15.0545 43.3383 14.7885 43.4354L13.2622 43.9801L21.9518 66.1515L23.5162 65.5912V65.5943L23.5194 65.5912C23.5384 65.5849 23.5099 65.5943 23.5384 65.5849C23.7727 65.4941 23.9532 65.325 24.0545 65.1184L24.0704 65.084C24.1717 64.8617 24.1907 64.6019 24.102 64.3577L24.1018 64.3482ZM25.4825 62.811L25.9733 62.6138C26.423 62.4353 26.8759 62.332 27.3382 62.3101C27.7974 62.2882 28.2565 62.3445 28.7252 62.4792L37.3419 64.9774C38.8493 65.3281 40.3851 65.375 41.9526 65.087C43.5328 64.7959 45.1605 64.1635 46.8325 63.1554C46.8515 63.1428 46.8737 63.1303 46.8958 63.1178L73.7463 48.8166C74.386 48.4754 74.8293 47.9119 75.0288 47.2732C75.2283 46.6314 75.1871 45.9176 74.8546 45.2789L74.728 45.0347C74.405 44.418 73.873 43.9735 73.2586 43.7543C72.6474 43.5351 71.9539 43.5382 71.308 43.8106L44.7963 55.0093C43.7292 55.5822 42.4435 55.7576 41.1895 55.4007L25.9795 51.071C25.4887 50.9332 25.2037 50.426 25.343 49.9408C25.4824 49.4555 25.9954 49.1737 26.4862 49.3115L41.6962 53.6412C42.4752 53.8635 43.2795 53.7508 43.9414 53.3876C44.6 53.0276 45.1225 52.4171 45.3474 51.65C45.5722 50.8799 45.4582 50.0847 45.0909 49.4304C44.7267 48.7792 44.1092 48.2627 43.3333 48.0404L23.95 42.5241C23.5573 42.4114 23.1805 42.3645 22.8164 42.3832C22.449 42.402 22.0817 42.4866 21.7048 42.6368L18.1328 44.0612L25.4825 62.811ZM8.76225 45.8522C8.08774 45.6613 7.39739 45.7583 6.82424 46.0682C6.25107 46.3813 5.79825 46.9135 5.6019 47.5835C5.40873 48.2503 5.5069 48.9328 5.8204 49.4994C6.13708 50.0661 6.67542 50.5137 7.35307 50.7079C8.02758 50.8988 8.72109 50.8018 9.29108 50.4918C9.86425 50.1788 10.3171 49.6497 10.5134 48.9766C10.7066 48.3098 10.6084 47.6242 10.2949 47.0607C9.97825 46.494 9.44306 46.0463 8.76225 45.8522ZM8.67358 47.9435C8.58808 47.7901 8.4424 47.668 8.25558 47.6148C8.06557 47.5616 7.8724 47.5866 7.71407 47.6743C7.55889 47.7588 7.4354 47.9028 7.38156 48.0875C7.32772 48.2754 7.35306 48.4664 7.44173 48.6229C7.52723 48.7763 7.6729 48.8984 7.85974 48.9516C8.04973 49.0048 8.24291 48.9798 8.40124 48.8921C8.55642 48.8076 8.67992 48.6636 8.73375 48.4789C8.78759 48.2879 8.76225 48.1001 8.67358 47.9435ZM48.0766 35.2421C48.0766 35.7493 47.6618 36.1594 47.1488 36.1594C46.6358 36.1594 46.221 35.7492 46.221 35.2421V32.4339C45.2551 32.3337 44.3526 32.077 43.5482 31.6982C42.4336 31.1753 41.5089 30.4083 40.885 29.4848C40.6 29.0653 40.714 28.4986 41.1383 28.2169C41.5627 27.9351 42.1359 28.0478 42.4208 28.4673C42.8578 29.1123 43.526 29.657 44.343 30.042C45.1569 30.424 46.1164 30.6463 47.1455 30.6463C48.6498 30.6463 50.0019 30.1798 50.9677 29.4253C51.8734 28.7178 52.4339 27.7536 52.4339 26.7048C52.4339 25.656 51.8734 24.6918 50.9677 23.9843C50.0019 23.2298 48.6528 22.7633 47.1455 22.7633C45.2202 22.7633 43.4626 22.1434 42.1801 21.1385C40.8375 20.0897 40.0046 18.6215 40.0046 16.9872C40.0046 15.353 40.8342 13.8878 42.1801 12.8359C43.2536 11.9969 44.6597 11.424 46.2177 11.2612V8.45302C46.2177 7.94585 46.6326 7.53576 47.1455 7.53576C47.6585 7.53576 48.0734 7.94588 48.0734 8.45302V11.2612C48.9315 11.352 49.7422 11.5649 50.4769 11.8749C51.5219 12.3194 52.418 12.9706 53.0767 13.7658C53.3997 14.154 53.3427 14.73 52.95 15.0494C52.5542 15.3687 51.9747 15.3155 51.6517 14.9242C51.183 14.3607 50.5275 13.8879 49.7453 13.5561C48.9789 13.2305 48.0922 13.0458 47.1486 13.0458C45.6444 13.0458 44.2922 13.5123 43.3264 14.2667C42.4207 14.9743 41.8602 15.9354 41.8602 16.9873C41.8602 18.0361 42.4207 18.9972 43.3264 19.7078C44.2922 20.4623 45.6413 20.9287 47.1486 20.9287C49.0739 20.9287 50.8315 21.5486 52.114 22.5504C53.4566 23.5992 54.2895 25.0675 54.2895 26.7017C54.2895 28.3359 53.4599 29.8011 52.114 30.853C51.0405 31.692 49.6344 32.2649 48.0764 32.4277L48.0796 35.2422L48.0766 35.2421ZM47.1519 39.8661C52.1838 39.8661 56.7407 37.8499 60.0377 34.5878C63.3342 31.3287 65.3767 26.8237 65.3767 21.8487C65.3767 16.874 63.3374 12.3691 60.0377 9.10954C56.7411 5.85051 52.1842 3.83124 47.1519 3.83124C42.1201 3.83124 37.5632 5.84738 34.2662 9.10954C30.9697 12.3686 28.9272 16.8736 28.9272 21.8487C28.9272 26.8233 30.9665 31.3283 34.2662 34.5878C37.5628 37.8499 42.1197 39.8661 47.1519 39.8661ZM61.3485 35.8838C64.9808 32.2929 67.2291 27.3275 67.2291 21.8487C67.2291 16.367 64.9808 11.405 61.3485 7.81367C57.7163 4.22275 52.6937 2 47.1519 2C41.6071 2 36.588 4.22275 32.9553 7.81367C29.3231 11.4046 27.0748 16.37 27.0748 21.8487C27.0748 27.3305 29.3231 32.2925 32.9553 35.8838C36.5876 39.4751 41.6101 41.6975 47.1519 41.6975C52.6968 41.6975 57.7159 39.4779 61.3485 35.8838Z" fill="black" stroke="black" stroke-width="0.5"/>
</g>
</svg>
