<svg width="76" height="76" viewBox="0 0 76 76" fill="none" xmlns="http://www.w3.org/2000/svg">
<mask id="mask0_7039_89875" style="mask-type:alpha" maskUnits="userSpaceOnUse" x="-1" y="-1" width="78" height="78">
<rect width="76" height="76" fill="white" stroke="white" stroke-width="2"/>
</mask>
<g mask="url(#mask0_7039_89875)">
<path d="M42.391 54.9154C41.3564 54.9154 40.3605 54.3095 39.4709 53.7681C38.7586 53.333 38.0205 52.8817 37.5016 52.8817C36.9859 52.8817 36.2479 53.333 35.5323 53.7681C34.6428 54.3128 33.6468 54.9154 32.6122 54.9154C32.4285 54.9154 32.2384 54.8961 32.0482 54.8542C30.7654 54.5641 29.9919 53.3651 29.3118 52.308C28.8928 51.6602 28.4159 50.9221 27.9904 50.7158C27.5423 50.4967 26.6915 50.5837 25.876 50.6643C24.6384 50.7867 23.2332 50.9253 22.2275 50.1196C21.2122 49.3106 21.0382 47.9085 20.8803 46.6709C20.7804 45.8587 20.6708 45.0143 20.3646 44.6339C20.0616 44.2536 19.2688 43.9699 18.4985 43.6863C17.3221 43.2609 15.9877 42.7774 15.4205 41.5979C14.8661 40.4408 15.3076 39.1097 15.7041 37.93C15.9652 37.1436 16.2391 36.3314 16.1263 35.8382C16.0232 35.3838 15.4172 34.7617 14.8822 34.2138C13.9991 33.3113 13 32.2864 13 30.9585C13 29.6306 13.9991 28.6089 14.8822 27.7033C15.4172 27.1553 16.0264 26.5301 16.1263 26.0788C16.2391 25.5889 15.9652 24.7735 15.7041 23.987C15.3076 22.8106 14.8661 21.4795 15.4205 20.3192C15.9877 19.1428 17.3221 18.6593 18.4985 18.2307C19.2688 17.9535 20.0616 17.6634 20.3646 17.2832C20.6708 16.8996 20.7739 16.0584 20.8803 15.2462C21.0382 14.0085 21.2091 12.6065 22.2275 11.7975C23.2332 10.9917 24.6416 11.1271 25.876 11.2528C26.6979 11.3334 27.5455 11.4172 27.9904 11.2012C28.4222 10.9949 28.8928 10.2601 29.3118 9.60902C29.9919 8.5519 30.7654 7.35287 32.0482 7.06285C33.2891 6.77922 34.4816 7.51085 35.5323 8.15223C36.2446 8.58733 36.9827 9.03855 37.4984 9.03855C38.0141 9.03855 38.7521 8.58732 39.4677 8.15223C40.5183 7.51084 41.7109 6.7824 42.9518 7.06285C44.2346 7.35292 45.0081 8.5519 45.6882 9.60902C46.1072 10.2569 46.5841 10.9949 47.0096 11.2012C47.4576 11.4204 48.3021 11.3334 49.124 11.2528C50.3616 11.1303 51.7668 10.9917 52.7725 11.7975C53.7878 12.6065 53.9618 14.0085 54.1197 15.2462C54.2196 16.0584 54.3292 16.9028 54.6354 17.2832C54.9384 17.6635 55.7312 17.9471 56.5015 18.2307C57.6779 18.6561 59.0123 19.1396 59.5795 20.3192C60.1339 21.4762 59.6923 22.8074 59.2959 23.9806C59.0348 24.767 58.7609 25.5792 58.8737 26.0724C58.9768 26.5268 59.5828 27.1489 60.1178 27.6968C61.0009 28.5993 62 29.6242 62 30.9521C62 32.2768 61.0009 33.3017 60.1178 34.2074C59.5828 34.7553 58.9736 35.3806 58.8737 35.8318C58.7609 36.3217 59.0348 37.1371 59.2959 37.9236C59.6923 39.1 60.1339 40.4312 59.5795 41.585C59.0123 42.7614 57.6779 43.2448 56.5015 43.6735C55.7312 43.9507 54.9384 44.2407 54.6354 44.621C54.3292 45.0046 54.2261 45.8458 54.1197 46.658C53.9618 47.8957 53.7909 49.2977 52.7725 50.1067C51.7668 50.9125 50.3584 50.7771 49.124 50.6514C48.3021 50.5708 47.4545 50.487 47.0096 50.703C46.5778 50.9092 46.1072 51.6441 45.6882 52.2952C45.0081 53.3523 44.2346 54.5513 42.9518 54.8413C42.7584 54.8961 42.5747 54.9154 42.391 54.9154ZM37.4984 50.8834C38.5749 50.8834 39.5579 51.4829 40.5087 52.0631C41.2371 52.5079 42.059 53.0106 42.5102 52.9075C42.9969 52.7947 43.5384 51.9599 44.0121 51.2282C44.5987 50.3129 45.2111 49.3718 46.1458 48.9205C47.0965 48.4628 48.2278 48.5724 49.3237 48.6788C50.1811 48.7626 51.1577 48.8593 51.5315 48.5563C51.9118 48.2533 52.0343 47.28 52.1439 46.4162C52.2793 45.3268 52.4211 44.1987 53.0786 43.3768C53.7296 42.5582 54.7932 42.1714 55.8214 41.8007C56.64 41.5042 57.5683 41.169 57.7842 40.721C57.9905 40.2956 57.6811 39.3706 57.4039 38.5583C57.0526 37.5109 56.6916 36.4311 56.9269 35.3933C57.1557 34.391 57.9325 33.5884 58.6931 32.8149C59.3087 32.1832 60.0081 31.4677 60.0081 30.9584C60.0081 30.446 59.3119 29.7304 58.6931 29.1019C57.9389 28.3284 57.1589 27.5258 56.9269 26.5235C56.6884 25.4857 57.0526 24.4028 57.4039 23.3585C57.6778 22.5463 57.984 21.6213 57.7842 21.1958C57.5715 20.7511 56.6432 20.4159 55.8214 20.1161C54.7932 19.7422 53.7296 19.3587 53.0786 18.54C52.4211 17.7181 52.2793 16.5933 52.1439 15.5007C52.0343 14.6369 51.9151 13.6635 51.5315 13.3605C51.1576 13.064 50.1811 13.1543 49.3237 13.238C48.2279 13.3476 47.0966 13.4572 46.1458 12.9963C45.2111 12.5451 44.6019 11.604 44.0121 10.6886C43.5351 9.95052 43.0001 9.11579 42.5102 9.00935C42.059 8.90944 41.2371 9.41223 40.5087 9.85376C39.5579 10.4339 38.5781 11.0334 37.4984 11.0334C36.4219 11.0334 35.4388 10.4339 34.4881 9.85376C33.7597 9.40898 32.9378 8.90622 32.4866 9.00935C31.9999 9.12216 31.4584 9.9569 30.9846 10.6886C30.398 11.604 29.7857 12.5451 28.851 12.9963C27.9002 13.454 26.769 13.3444 25.6731 13.238C24.8157 13.1543 23.8391 13.0576 23.4653 13.3605C23.0849 13.6635 22.9625 14.6369 22.8529 15.5007C22.7175 16.59 22.5757 17.7117 21.9182 18.54C21.2671 19.3587 20.2036 19.7454 19.1754 20.1161C18.3567 20.4126 17.4285 20.7478 17.2126 21.1958C17.0063 21.6181 17.3157 22.5463 17.5929 23.3585C17.9442 24.406 18.3052 25.4857 18.0699 26.5235C17.8411 27.5258 17.0643 28.3284 16.3037 29.1019C15.6881 29.7337 14.9886 30.4492 14.9886 30.9649C14.9886 31.4773 15.6848 32.1929 16.3037 32.8278C17.0579 33.6013 17.8379 34.4039 18.0699 35.4062C18.3084 36.444 17.9442 37.527 17.5929 38.5712C17.3189 39.3834 17.0127 40.3084 17.2126 40.7339C17.4253 41.1786 18.3535 41.5138 19.1754 41.8136C20.2036 42.1875 21.2672 42.571 21.9182 43.3897C22.5757 44.2116 22.7175 45.3364 22.8529 46.429C22.9625 47.2928 23.0817 48.2662 23.4653 48.5692C23.8391 48.8657 24.8157 48.7755 25.6731 48.6917C26.7689 48.5821 27.9002 48.4725 28.851 48.9334C29.7857 49.3846 30.3949 50.3257 30.9846 51.2411C31.4616 51.9792 31.9967 52.8139 32.4866 52.9204C32.9378 53.0203 33.7597 52.5175 34.4881 52.0759C35.4388 51.4797 36.422 50.8834 37.4984 50.8834Z" fill="black"/>
<path d="M37.492 48.9241C35.0682 48.9241 32.7154 48.4471 30.4979 47.5092C28.3578 46.6035 26.4369 45.311 24.7899 43.6576C23.1429 42.0074 21.844 40.0865 20.9383 37.9496C20.0004 35.7321 19.5234 33.3793 19.5234 30.9555C19.5234 28.5318 20.0037 26.1822 20.9383 23.9647C21.844 21.8246 23.1365 19.9037 24.7899 18.2567C26.4369 16.6097 28.361 15.3108 30.4979 14.4051C32.7154 13.4672 35.0682 12.9902 37.492 12.9902C39.9157 12.9902 42.2685 13.4672 44.486 14.4051C46.6261 15.3108 48.5471 16.6033 50.194 18.2567C51.841 19.9037 53.1399 21.8278 54.0456 23.9647C54.9835 26.1822 55.4605 28.535 55.4605 30.9588C55.4605 33.3857 54.9835 35.7353 54.0456 37.9528C53.1399 40.0929 51.8475 42.0139 50.194 43.6608C48.5471 45.3078 46.6229 46.6067 44.486 47.5124C42.2685 48.4503 39.9157 48.9241 37.492 48.9241ZM37.492 14.9918C28.6865 14.9918 21.5222 22.1535 21.5222 30.9616C21.5222 39.7671 28.687 46.9315 37.492 46.9315C46.3007 46.9315 53.4618 39.7698 53.4618 30.9616C53.4618 22.1529 46.2969 14.9918 37.492 14.9918Z" fill="black"/>
<path d="M31.0007 41.9403C30.7944 41.9403 30.5913 41.8759 30.4141 41.7502C30.1079 41.5278 29.9499 41.1507 30.0144 40.7768L31.1618 34.0729L26.295 29.3157C26.0211 29.0514 25.9244 28.655 26.0404 28.2907C26.1564 27.9298 26.4723 27.6655 26.8462 27.6107L33.5791 26.6309L36.5894 20.5329C36.757 20.1912 37.1051 19.9785 37.4854 19.9785C37.8657 19.9785 38.2106 20.1977 38.3814 20.5329L41.3917 26.6309L48.1247 27.6107C48.4985 27.6687 48.8144 27.9298 48.9304 28.2907C49.0464 28.6517 48.9498 29.0482 48.6758 29.3157L43.8058 34.0664L44.9532 40.7704C45.0177 41.1442 44.8629 41.5246 44.5535 41.7437C44.2473 41.9661 43.8412 41.9984 43.5029 41.8211L37.479 38.6561L31.4551 41.8211C31.3165 41.9049 31.1618 41.9403 31.0007 41.9403ZM37.4854 36.5321C37.6466 36.5321 37.8045 36.5675 37.9496 36.6449L42.6488 39.1137L41.7496 33.8828C41.6915 33.5605 41.8011 33.2317 42.0364 32.9997L45.8364 29.2964L40.5861 28.5357C40.2605 28.4874 39.9801 28.2843 39.8319 27.9878L37.4854 23.2338L35.1358 27.991C34.9908 28.2843 34.7104 28.4906 34.3816 28.5389L29.1313 29.2996L32.9313 33.0029C33.1633 33.2317 33.2729 33.5637 33.2181 33.886L32.3254 39.1137L37.0245 36.6449C37.1664 36.574 37.3243 36.5321 37.4854 36.5321Z" fill="black"/>
<path d="M48.0457 68.8884C47.6557 68.8884 47.3044 68.6628 47.14 68.3083L40.6069 54.1529C40.378 53.6533 40.594 53.0603 41.0936 52.8282C41.5931 52.5994 42.1862 52.8153 42.4183 53.3149L48.0425 65.5016L50.9722 59.1071C51.1785 58.6591 51.6781 58.4302 52.1519 58.5624L58.917 60.4801L52.3291 46.205C52.1003 45.7054 52.3162 45.1124 52.8158 44.8803C53.3154 44.6515 53.9084 44.8674 54.1405 45.367L61.6373 61.614C61.8016 61.9686 61.7404 62.3843 61.489 62.6809C61.2344 62.9774 60.8315 63.0999 60.4576 62.9903L52.429 60.7148L48.9514 68.3019C48.7934 68.6596 48.439 68.8884 48.0457 68.8884Z" fill="black"/>
<path d="M26.9561 68.8872C26.5661 68.8872 26.2116 68.6584 26.0504 68.3038L22.5728 60.7168L14.5441 62.9923C14.1703 63.0954 13.7674 62.9761 13.5128 62.6828C13.2581 62.3863 13.2033 61.9705 13.3645 61.616L20.8613 45.369C21.0901 44.8694 21.6864 44.6534 22.186 44.8823C22.6856 45.1111 22.9015 45.7074 22.6726 46.207L16.0815 60.4853L22.8466 58.5676C23.3237 58.4355 23.82 58.6643 24.0263 59.1123L26.9561 65.5068L32.5803 53.3201C32.8091 52.8205 33.4054 52.6046 33.905 52.8334C34.4045 53.0623 34.6205 53.6585 34.3916 54.1581L27.8585 68.3136C27.7006 68.6616 27.3461 68.8872 26.9561 68.8872Z" fill="black"/>
</g>
</svg>
