<svg width="76" height="76" viewBox="0 0 76 76" fill="none" xmlns="http://www.w3.org/2000/svg">
<mask id="mask0_7039_89883" style="mask-type:alpha" maskUnits="userSpaceOnUse" x="-1" y="-1" width="78" height="78">
<rect width="76" height="76" fill="white" stroke="white" stroke-width="2"/>
</mask>
<g mask="url(#mask0_7039_89883)">
<path d="M44.587 66.4238H44.2253H44.19H44.1547H44.1194H44.0841H44.0488H44.0135H43.9782H43.9429H43.9076H43.8723H43.837H43.8017H43.7663H43.731H43.6957H43.6604H43.6251H43.5898H43.5545H43.5192H43.4839H43.4486H43.4133H43.378H43.3427H43.3074H43.2721H43.2368H43.2015H43.1662H43.1309H43.0956H43.0603H43.025H42.9897H42.9544H42.9191H42.8838H42.8485H42.8132H42.7779H42.7426H42.7073H42.672H42.6367H42.6014H42.5661H42.5308H42.4955H42.4602H42.4249H42.3896H42.3543H42.319H42.2837H42.2484H42.2131H42.1778H42.1425H42.1072H42.0718H42.0365H42.0012H41.9659H41.9306H41.8953H41.86H41.8247H41.7894H41.7541H41.7188H41.6835H41.6482H41.6129H41.5776H41.5423H41.507H41.4717H41.4364H41.4011H41.3658H41.3305H41.2952H41.2599H41.2246H41.1893H41.154H41.1187H41.0834H41.0481H41.0128H40.9775H40.9422H40.9069H40.8716H40.8363H40.801H40.7657H40.7304H40.6951H40.6598H40.6245H40.5892H40.5539H40.5186H40.4833H40.448H40.4127H40.3774H40.3421H40.3068H40.2715H40.2362H40.2009H40.1656H40.1302H40.0949H40.0596H40.0243H39.989H39.9537H39.9184H39.8831H39.8478H39.8125H39.7772H39.7419H39.7066H39.6713H39.636H39.6007H39.5654H39.5301H39.4948H39.4595H39.4242H39.3889H39.3536H39.3183H39.283H39.2477H39.2124H39.1771H39.1418H39.1065H39.0712H39.0359H39.0006H38.9653H38.93H38.8947H38.8594H38.8241H38.7888H38.7535H38.7182H38.6829H38.6476H38.6123H38.577H38.5417H38.5064H38.4711H38.4358H38.4005H38.3652H38.3299H38.2946H38.2593H38.224H38.1887H38.1534H38.1181H38.0828H38.0475H38.0122H37.9769H37.9416H37.9063H37.871H37.8357H37.8004H37.7651H37.7298H37.6945H37.6592H37.6239H37.5886H37.5533H37.518H37.4827H37.4474H37.4121H37.3768H37.3415H37.3062H37.2709H37.2356H37.2003H37.165H37.1297H37.0943H37.059H37.0237H36.9884H36.9531H36.9178H36.8825H36.8472H36.8119H36.7766H36.7413H36.706H36.6707H36.6354H36.6001H36.5648H36.5295H36.4942H36.4589H36.4236H36.3883H36.353H36.3177H36.2824H36.2471H36.2118H36.1765H36.1412H36.1059H36.0706H36.0353H36H35.9647H35.9294H35.8941H35.8588H35.8235H35.7882H35.7529H35.7176H35.6823H35.647H35.6117H35.5764H35.5411H35.5058H35.4705H35.4352H35.3999H35.3646H35.3293H35.294H35.2587H35.2234H35.1881H35.1528H35.1175H35.0822H35.0469H35.0116H34.9763H34.941H34.9057H34.8705H34.8351H34.7999H34.7646H34.7293H34.694H34.6587H34.6234H34.5881H34.5528H34.5175H34.4822H34.4469H34.4116H34.3763H34.341H34.3057H34.2704H34.2351H34.1998H34.1645H34.1292H34.0939H34.0586H34.0233H33.988H33.9527H33.9174H33.8821H33.8468H33.8115H33.7762H33.7409H33.7056H33.6703H33.635H33.5997H33.5644H33.5291H33.4938H33.4585H33.4232H33.3879H33.3526H33.3173H33.282H33.2467H33.2114H33.1761H33.1408H33.1055H33.0702H33.0349H32.9996H32.9643H32.929H32.8937H32.8584H32.8231H32.7878H32.7525H32.7172H32.6819H32.6466H32.6113H32.576H32.5407H32.5054H32.4701H32.4348H32.3995H32.3642H32.329H32.2937H32.2584H32.2231H32.1878H32.1525H32.1172H32.0819H32.0466H32.0113H31.976H31.9407H31.9054H31.8701H31.8348H31.7995H31.7642H31.7289H31.6936H31.6583H31.623H31.5877H31.5524H31.5171H31.4818H31.4465H31.4112H31.3759H31.3406H31.3053H31.27H31.2347H31.1994H31.1641H31.1288H31.0935H31.0583H31.023H30.9877H30.9524H30.9171H30.8818H30.8465H30.8112H30.7759H30.7406H30.7053H30.67H30.6347H30.5994H30.5641H30.5288H30.4935H30.4582H30.4229H30.3876H30.3523H30.317H30.2817H30.2464H30.2111H30.1758H30.1405H30.1053H30.07H30.0347H29.9994H29.9641H29.9288H29.8935H29.8582H29.8229H29.7876H29.7523H29.717H29.6817H29.6464H29.6111H29.5758H29.5405H29.5052H29.4699H29.4346H29.3993H29.364H29.3287H29.2935H29.2582H29.2229H29.1876H29.1523H29.117H29.0817H29.0464H29.0111H28.9758H28.9405H28.9052H28.8699H28.8346H28.7993H28.764H28.7287H28.6934H28.6581H28.6229H28.5876H28.5523H28.517H28.4817H28.4464H28.4111H28.3758H28.3405H28.3052H28.2699H28.2346H28.1993H28.164H28.1287H28.0934H28.0581H28.0229H27.9876H27.9523H27.917H27.8817H27.8464H27.8111H27.7758H27.7405H27.7052H27.6699H27.6346H27.5993H27.564H27.5287H27.4934H27.4582H27.4229H27.3876H27.3523H27.317H27.2817H27.2464H27.2111H27.1758H27.1405H27.1052H27.0699H27.0346H26.9993H26.9641H26.9288H26.8935H26.8582H26.8229H26.7876H26.7523H26.717H26.6817H26.6464H26.6111H26.5758H26.5405H26.5052H26.47H26.4347H26.3994H26.3641H26.3288H26.2935H26.2582H26.2229H26.1876H26.1523C24.5441 66.4238 23.2335 65.934 22.3245 65.0255C21.4156 64.117 20.9249 62.8065 20.924 61.1973C20.9229 57.2834 20.9232 53.3688 20.9236 49.4544C20.9238 47.4974 20.924 45.5404 20.924 43.5836C20.924 42.9592 20.9928 42.5116 21.2718 42.2334C21.5506 41.9554 21.9992 41.8866 22.6252 41.8857C22.9007 41.8854 23.1764 41.8848 23.4521 41.8842C24.5565 41.882 25.6625 41.8797 26.7673 41.891C26.9494 41.8927 27.0545 41.8763 27.1278 41.8323C27.1943 41.7925 27.2599 41.7136 27.316 41.5222C28.126 38.7446 30.4363 36.967 33.1955 36.9634H33.1956C35.9547 36.9616 38.2792 38.7479 39.0893 41.5097M44.587 66.4238L38.9454 41.5519M44.587 66.4238L44.5853 66.422M44.587 66.4238L44.5853 66.422M39.0893 41.5097L38.9454 41.5519M39.0893 41.5097C39.0893 41.5096 39.0893 41.5095 39.0892 41.5093L38.9454 41.5519M39.0893 41.5097C39.1391 41.6779 39.1853 41.7678 39.2435 41.8195C39.2955 41.8656 39.3793 41.9001 39.556 41.8946L39.5564 41.8945C40.6097 41.8646 41.6658 41.8699 42.7172 41.891L42.7174 41.891C42.9113 41.8951 42.9852 41.8581 43.0189 41.8213C43.0562 41.7806 43.0857 41.697 43.0831 41.5068M38.9454 41.5519C39.0471 41.8955 39.168 42.0567 39.5607 42.0445C40.6107 42.0147 41.6642 42.0199 42.7142 42.041C43.1244 42.0497 43.2384 41.8955 43.2331 41.5046M43.0831 41.5068C43.0831 41.5068 43.0831 41.5069 43.0831 41.507L43.2331 41.5046M43.0831 41.5068C43.0831 41.5067 43.0831 41.5067 43.0831 41.5066L43.2331 41.5046M43.0831 41.5068L43.2278 37.89C43.2208 39.0943 43.2138 40.3003 43.2331 41.5046M44.5853 66.422H44.6132H44.6486H44.6841H44.7195H44.7549H44.7903H44.8258H44.8612H44.8966H44.932H44.9675H45.0029H45.0383H45.0737H45.1092H45.1446H45.18H45.2155H45.2509H45.2863H45.3217H45.3572H45.3926H45.428H45.4634H45.4989H45.5343H45.5697H45.6051H45.6406H45.676H45.7114H45.7469H45.7823H45.8177H45.8531H45.8886H45.924H45.9594H45.9948H46.0303H46.0657H46.1011H46.1366H46.172H46.2074H46.2428H46.2783H46.3137H46.3491H46.3845H46.42H46.4554H46.4908H46.5263H46.5617H46.5971H46.6325H46.668H46.7034H46.7388H46.7742H46.8097H46.8451H46.8805H46.916H46.9514H46.9868H47.0222H47.0577H47.0931H47.1285H47.164H47.1994H47.2348H47.2702H47.3057H47.3411H47.3765H47.412H47.4474H47.4828H47.5182H47.5537H47.5891H47.6245H47.66H47.6954H47.7308H47.7662H47.8017H47.8371H47.8725H47.908H47.9434H47.9788H48.0142H48.0497H48.0851H48.1205H48.156H48.1914H48.2268H48.2622H48.2977H48.3331H48.3685H48.404H48.4394H48.4748H48.5102H48.5457H48.5811H48.6165H48.652H48.6874H48.7228H48.7583H48.7937H48.8291H48.8645H48.9H48.9354H48.9708H49.0063H49.0417H49.0771H49.1125H49.148H49.1834H49.2188H49.2543H49.2897H49.3251H49.3606H49.396H49.4314H49.4668H49.5023H49.5377H49.5731H49.6086H49.644H49.6794H49.7148H49.7503H49.7857H49.8211H49.8566H49.892H49.9274H49.9629H49.9983H50.0337H50.0691H50.1046H50.14H50.1754H50.2109H50.2463H50.2817H50.3172H50.3526H50.388H50.4234H50.4589H50.4943H50.5297H50.5652H50.6006H50.636H50.6715H50.7069H50.7423H50.7777H50.8132H50.8486H50.884H50.9195H50.9549H50.9903H51.0258H51.0612H51.0966H51.132H51.1675H51.2029H51.2383H51.2738H51.3092H51.3446H51.3801H51.4155H51.4509H51.4864H51.5218H51.5572H51.5926H51.6281H51.6635H51.6989H51.7344H51.7698H51.8052H51.8407H51.8761H51.9115H51.9469H51.9824H52.0178H52.0532H52.0887H52.1241H52.1595H52.195H52.2304H52.2658H52.3013H52.3367H52.3721H52.4075H52.443H52.4784H52.5138H52.5493H52.5847H52.6201H52.6556H52.691H52.7264H52.7618H52.7973H52.8327H52.8681H52.9036H52.939H52.9744H53.0099H53.0453H53.0807H53.1162H53.1516H53.187H53.2224H53.2579H53.2933H53.3287H53.3642H53.3996H53.435H53.4705H53.5059H53.5413H53.5768H53.6122H53.6476H53.683H53.7185H53.7539H53.7893H53.8248H53.8602H53.8956H53.9311H53.9665H54.0019H54.0373H54.0728H54.1082H54.1436H54.1791H54.2145H54.2499H54.2854H54.3208H54.3562H54.3917H54.4271H54.4625H54.4979H54.5334H54.5688H54.6042H54.6397H54.6751H54.7105H54.746H54.7814H54.8168H54.8522H54.8877H54.9231H54.9585H54.994H55.0294H55.0648H55.1003H55.1357H55.1711H55.2066H55.242H55.2774H55.3128H55.3483H55.3837H55.4191H55.4546H55.49H55.5254H55.5609H55.5963H55.6317H55.6671H55.7026H55.738H55.7734H55.8089H55.8443H55.8797H55.9152H55.9506H55.986H56.0214H56.0569H56.0923H56.1277H56.1632H56.1986H56.234H56.2695H56.3049H56.3403H56.3757H56.4112H56.4466H56.482H56.5175H56.5529H56.5883H56.6238H56.6592H56.6946H56.73H56.7655H56.8009H56.8363H56.8718H56.9072H56.9426H56.9781H57.0135H57.0489H57.0843H57.1198H57.1552H57.1906H57.2261H57.2615H57.2969H57.3323H57.3678H57.4032H57.4386H57.4741H57.5095H57.5449H57.5804H57.6158H57.6512H57.6866H57.7221H57.7575H57.7929H57.8284H57.8638H57.8992H57.9346H57.9701H58.0055H58.0409H58.0764H58.1118H58.1472H58.1827H58.2181H58.2535H58.2889H58.3244H58.3598H58.3952H58.4307H58.4661H58.5015H58.5369H58.5724H58.6078H58.6432H58.6787H58.7141H58.7495H58.7849H58.8204H58.8558H58.8912H58.9267H58.9621H58.9975H59.0329H59.0684H59.1038H59.1392H59.1747H59.2101H59.2455H59.2809H59.3164H59.3518H59.3872H59.4227H59.4581H59.4935H59.5289H59.5644H59.5998H59.6352H59.6707H59.7061H59.7415H59.7769H59.8124H59.8478H59.8832H59.9186H59.9541H59.9895H60.0249H60.0604H60.0958H60.1312H60.1666H60.2021H60.2375H60.2729H60.3083H60.3438H60.3792H60.4146H60.4501H60.4855H60.5209H60.5563H60.5918H60.6272H60.6626H60.6981H60.7335H60.7689H60.8043H60.8398H60.8752H60.9106H60.946H60.9815H61.0169H61.0523H61.0877H61.1232H61.1586H61.194H61.2295H61.2649H61.3003H61.3357H61.3712H61.4066H61.442H61.4774H61.5129H61.5483H61.5837H61.6191H61.6546H61.69H61.7254H61.7608H61.7963H61.8317H61.8671H61.9026H61.938H61.9734H62.0088H62.0443H62.0797H62.1151H62.1505H62.186H62.2214H62.2568H62.2922H62.3277H62.3631H62.3632C63.9796 66.4212 65.2928 65.9356 66.2022 65.0317C67.1117 64.1277 67.6002 62.8221 67.6002 61.2148V61.1453V61.0759V61.0064V60.937V60.8676V60.7981V60.7287V60.6592V60.5898V60.5203V60.4509V60.3814V60.312V60.2426V60.1731V60.1037V60.0342V59.9648V59.8953V59.8259V59.7565V59.687V59.6176V59.5481V59.4787V59.4092V59.3398V59.2703V59.2009V59.1315V59.062V58.9926V58.9231V58.8537V58.7842V58.7148V58.6454V58.5759V58.5065V58.437V58.3676V58.2981V58.2287V58.1593V58.0898V58.0204V57.9509V57.8815V57.812V57.7426V57.6731V57.6037V57.5343V57.4648V57.3954V57.3259V57.2565V57.187V57.1176V57.0482V56.9787V56.9093V56.8398V56.7704V56.7009V56.6315V56.562V56.4926V56.4232V56.3537V56.2843V56.2148V56.1454V56.0759V56.0065V55.9371V55.8676V55.7982V55.7287V55.6593V55.5898V55.5204V55.4509V55.3815V55.3121V55.2426V55.1732V55.1037V55.0343V54.9648V54.8954V54.826V54.7565V54.6871V54.6176V54.5482V54.4787V54.4093V54.3399V54.2704V54.201V54.1315V54.0621V53.9926V53.9232V53.8537V53.7843V53.7149V53.6454V53.576V53.5065V53.4371V53.3676V53.2982V53.2288V53.1593V53.0899V53.0204V52.951V52.8815V52.8121V52.7426V52.6732V52.6038V52.5343V52.4649V52.3954V52.326V52.2565V52.1871V52.1177V52.0482V51.9788V51.9093V51.8399V51.7704V51.701V51.6315V51.5621V51.4927V51.4232V51.3538V51.2843V51.2149V51.1454V51.076V51.0066V50.9371V50.8677V50.7982V50.7288V50.6593V50.5899V50.5204V50.451V50.3816V50.3121V50.2427V50.1732V50.1038V50.0343V49.9649V49.8955V49.826V49.7566V49.6871V49.6177V49.5482V49.4788V49.4094V49.3399V49.2705V49.201V49.1316V49.0621V48.9927V48.9232V48.8538V48.7844V48.7149V48.6455V48.576V48.5066V48.4371V48.3677V48.2983V48.2288V48.1594V48.0899V48.0205V47.951V47.8816V47.8121V47.7427V47.6733V47.6038V47.5344V47.4649V47.3955V47.326V47.2566V47.1872V47.1177V47.0483V46.9788V46.9094V46.8399V46.7705V46.701V46.6316V46.5622V46.4927V46.4233V46.3538V46.2844V46.2149V46.1455V46.0761V46.0066V45.9372V45.8677V45.7983V45.7288V45.6594V45.59V45.5205V45.4511V45.3816V45.3122V45.2427V45.1733V45.1038V45.0344V44.965V44.8955V44.8261V44.7566V44.6872V44.6177V44.5483V44.4789V44.4094V44.34V44.2705V44.2011V44.1316V44.0622V43.9927V43.9233V43.8539V43.7844V43.715V43.6455V43.5761V43.5066V43.4372V43.3678V43.2983V43.2289V43.1594V43.09V43.0205V42.9511V42.8816V42.8122V42.7428V42.6733V42.6039V42.5344V42.465V42.3955V42.3261V42.2567V42.1872V42.1178V42.0483V41.9789V41.9094V41.84V41.7705V41.7011V41.6317V41.5622V41.4928V41.4233V41.3539V41.2844V41.215V41.1456V41.0761V41.0067V40.9372V40.8678V40.7983V40.7289V40.6595V40.59V40.5206V40.4511V40.3817V40.3122V40.2428V40.1733V40.1039V40.0345V39.965V39.8956V39.8261V39.7567V39.6872V39.6178V39.5484V39.4789V39.4095V39.34V39.2706V39.2011V39.1317V39.0622V38.9928V38.9234V38.8539V38.7845V38.715V38.6456V38.5761V38.5067V38.4373V38.3678V38.2984V38.2289V38.1595V38.09V38.0206V37.9511V37.8817V37.8123V37.7428V37.6734V37.6039V37.5345V37.465V37.3956V37.3262V37.2567V37.1873V37.1178V37.0484V36.9789V36.9095V36.8401V36.7706V36.7012V36.6317V36.5623V36.4928V36.4234V36.3539V36.2845V36.2151V36.1456V36.0762V36.0067V35.9373V35.8678V35.7984V35.729V35.6595V35.5901V35.5206V35.4512V35.3817V35.3123V35.2428V35.1734V35.104V35.0345V34.9651V34.8956V34.8262V34.7567V34.6873V34.6179V34.5484V34.479V34.4095V34.3401V34.2706V34.2012V34.1317V34.0623V33.9929V33.9234V33.854V33.7845V33.7151V33.6456V33.5762V33.5068V33.4373V33.3679V33.2984V33.229V33.1595V33.0901V33.0207V32.9512V32.8818V32.8123V32.7429V32.6734V32.604V32.5345V32.4651V32.3957V32.3262V32.2568V32.1873V32.1179V32.0484V31.979V31.9096V31.8401V31.7707V31.7012V31.6318V31.5623V31.4929V31.4234V31.354V31.2846V31.2151V31.1457V31.0762V31.0068V30.9373V30.8679V30.7985V30.729V30.6596V30.5901V30.5207V30.4512V30.3818V30.3123V30.2429V30.1735V30.104V30.0346V29.9651V29.8957V29.8262V29.7568V29.6874V29.6179V29.5485V29.479V29.4096V29.3401V29.2707V29.2013V29.1318V29.0624V28.9929V28.9235V28.854V28.7846V28.7151V28.6457V28.5763V28.5068V28.4374V28.3679V28.2985V28.229V28.1596V28.0902V28.0207V27.9513V27.8818V27.8124V27.7429V27.6735V27.604V27.5346V27.4652V27.3957V27.3263V27.2568V27.1874V27.1179V27.0485V26.9791V26.9096V26.8402V26.7707V26.7013V26.6318V26.5624V26.4929V26.4235V26.3541V26.2846V26.2152V26.1457V26.0763V26.0068V25.9374V25.868V25.7985V25.7291V25.6596C67.6002 24.0303 67.1148 22.7132 66.2033 21.8028C65.2919 20.8925 63.9722 20.4068 62.3387 20.405L62.3386 20.405C60.0165 20.4039 57.6943 20.4042 55.3722 20.4046C54.2112 20.4048 53.0502 20.405 51.8892 20.405C51.1882 20.405 50.4873 20.4045 49.7864 20.4039C48.0339 20.4024 46.2813 20.401 44.528 20.4085L44.5853 66.422ZM38.2272 53.3878C38.4129 52.0769 38.885 50.989 39.6328 50.1319C40.3804 49.2751 41.3963 48.6573 42.6566 48.2747L42.6567 48.2747C42.8589 48.2134 42.9577 48.1508 43.0113 48.0791C43.0637 48.0089 43.0925 47.9033 43.0867 47.7056C43.0586 46.7407 43.055 45.7717 43.0867 44.8057L43.0867 44.8053C43.0955 44.5586 43.0655 44.4385 43.0111 44.3753C42.9624 44.3186 42.858 44.2693 42.5941 44.2769L42.5938 44.2769C41.5251 44.3059 40.4548 44.2991 39.3871 44.2923C39.0963 44.2905 38.8057 44.2886 38.5153 44.2875C37.9723 44.2857 37.5793 44.2273 37.3172 43.991C37.0548 43.7544 36.9598 43.3722 36.9065 42.8413C36.7016 40.8173 35.0978 39.3438 33.1543 39.3757L33.1542 39.3757C31.2221 39.406 29.6697 40.8827 29.4939 42.8711C29.4498 43.3711 29.3545 43.7405 29.1056 43.9764C28.8554 44.2135 28.485 44.2831 27.9867 44.2857M38.2272 53.3878L27.9859 44.1357M38.2272 53.3878C37.8082 56.3301 39.6246 59.1327 42.4897 59.9721C42.7668 60.0535 42.914 60.1427 42.9948 60.2543C43.0747 60.3645 43.1107 60.5255 43.0922 60.8034L43.0922 60.8037C43.0357 61.6827 43.0321 62.5711 43.0922 63.4495C43.1135 63.7591 43.0583 63.8796 42.9896 63.9371C42.9094 64.0042 42.7595 64.0352 42.4686 64.0325C40.4221 64.0119 38.3763 64.015 36.331 64.018C35.5949 64.0191 34.8589 64.0203 34.123 64.0203H34.1213C33.223 64.0203 32.3249 64.0206 31.427 64.021C29.6315 64.0218 27.8364 64.0226 26.0404 64.0203M38.2272 53.3878L26.0401 64.1703M27.9867 44.2857L27.9859 44.1357M27.9867 44.2857C27.9868 44.2857 27.9868 44.2857 27.9869 44.2857L27.9859 44.1357M27.9867 44.2857C27.7929 44.287 27.599 44.2884 27.4051 44.2899C26.2408 44.2984 25.0738 44.3071 23.9082 44.2769M27.9859 44.1357C27.7918 44.137 27.5976 44.1384 27.4035 44.1399C26.2391 44.1484 25.0749 44.157 23.9121 44.127C23.3634 44.113 23.1565 44.2269 23.16 44.8404C23.1778 48.5591 23.1772 52.2779 23.1765 55.9966C23.1762 57.7751 23.1759 59.5537 23.1776 61.3322C23.1776 63.1518 24.2101 64.1667 26.0401 64.1703M23.9082 44.2769L23.912 44.1273L23.9082 44.2769C23.9082 44.2769 23.9082 44.2769 23.9082 44.2769ZM23.9082 44.2769C23.6312 44.2699 23.4985 44.3002 23.427 44.3619C23.3612 44.4187 23.3083 44.5385 23.31 44.8396L23.31 44.8397C23.3278 48.5588 23.3272 52.2782 23.3265 55.9972C23.3262 57.7756 23.3259 59.5539 23.3276 61.3321L23.3276 61.3322C23.3276 62.214 23.5772 62.8797 24.0281 63.3256C24.4792 63.7719 25.1524 64.0186 26.0404 64.0203M26.0404 64.0203C26.0404 64.0203 26.0404 64.0203 26.0403 64.0203L26.0401 64.1703M26.0404 64.0203L26.0401 64.1703M45.469 23.2612L45.469 23.2612C45.5077 24.293 45.4954 25.3272 45.4726 26.3568C45.4694 26.5153 45.4971 26.5947 45.5369 26.6448C45.579 26.6978 45.6554 26.7449 45.8099 26.7923C48.6126 27.6478 50.3666 29.9037 50.3774 32.6603C50.3882 35.4524 48.6359 37.7247 45.8012 38.5874C45.6468 38.6345 45.5727 38.685 45.5328 38.7395C45.4933 38.7933 45.4686 38.8764 45.4726 39.0325C45.4954 39.8435 45.506 40.6592 45.4707 41.4725L45.4707 41.4726C45.4607 41.701 45.5047 41.7861 45.5499 41.8249C45.6029 41.8704 45.707 41.8989 45.9262 41.8945L45.9266 41.8945C46.997 41.8762 48.0677 41.8805 49.1365 41.8847C49.4033 41.8857 49.6701 41.8868 49.9366 41.8875C49.9367 41.8875 49.9367 41.8875 49.9368 41.8875L49.9364 42.0375C51.1494 42.0392 51.3738 42.2426 51.5123 43.4538L45.469 23.2612ZM45.469 23.2612C45.4597 23.0144 45.5025 22.9213 45.5507 22.8781C45.6054 22.8291 45.7141 22.798 45.9543 22.7998C48.0572 22.8156 50.1603 22.8136 52.2627 22.8116C52.9426 22.811 53.6225 22.8104 54.3023 22.8103L54.304 22.8121H54.3661C55.2567 22.8121 56.1473 22.8117 57.0378 22.8113C58.8188 22.8105 60.5995 22.8097 62.3804 22.8121H62.3805C63.3583 22.8129 64.0551 23.0524 64.5089 23.5097C64.963 23.9671 65.2001 24.6691 65.2001 25.6526C65.2001 26.842 65.1997 28.0315 65.1992 29.2211C65.1977 33.2647 65.1961 37.3092 65.2124 41.3527C65.2133 41.6232 65.1794 41.7453 65.1226 41.8074C65.0709 41.864 64.9628 41.9084 64.6869 41.8998L64.6866 41.8998C63.5339 41.8661 62.381 41.8752 61.2314 41.8842C61.0016 41.886 60.772 41.8878 60.5426 41.8892H60.5424C60.0469 41.8928 59.6727 41.9715 59.4179 42.2102C59.1632 42.4489 59.0614 42.8159 59.0249 43.3041C58.8799 45.2325 57.3374 46.6978 55.4019 46.7467M45.469 23.2612L55.4019 46.7467M55.4019 46.7467C53.5027 46.7938 51.8824 45.3637 51.6613 43.4368L55.4019 46.7467ZM43.3702 36.7909C43.1455 37.0389 43.0805 37.4021 43.0778 37.8891L43.2296 21.8242L43.0796 21.8233C43.0796 21.8234 43.0796 21.8235 43.0796 21.8236C43.0691 23.7505 43.0691 25.6793 43.0796 27.608V27.6081C43.0823 28.0332 43.1675 28.3657 43.3881 28.5993C43.6079 28.8321 43.9352 28.9377 44.3522 28.9749L44.3522 28.9749C46.4522 29.1615 47.9354 30.707 47.9388 32.6822C47.9421 34.6273 46.4781 36.1878 44.4257 36.3962L44.4257 36.3962C43.9483 36.4449 43.595 36.5429 43.3702 36.7909ZM43.2366 44.8106C43.2541 44.3163 43.1367 44.1112 42.5898 44.127L42.7002 48.4182C43.1227 48.2902 43.2489 48.1202 43.2366 47.7013C43.2086 46.7389 43.2051 45.773 43.2366 44.8106ZM54.3381 64.0203L54.3377 64.022L45.4876 63.8471C45.4844 63.7726 45.4851 63.6831 45.4859 63.5692C45.4865 63.487 45.4872 63.3921 45.4866 63.2807C45.4831 62.6344 45.484 61.9886 45.4849 61.3423V61.3408C45.4858 60.6952 45.4867 60.0492 45.4831 59.4032C45.4805 58.8898 45.4032 58.5053 45.1597 58.2455C44.9162 57.9856 44.5388 57.8849 44.0327 57.8485L44.0326 57.8485C42.1146 57.712 40.6281 56.1671 40.559 54.2379C40.4935 52.4078 41.8715 50.7766 43.7305 50.4965L43.7306 50.4965C43.879 50.4741 44.0296 50.455 44.1811 50.4376C44.6147 50.3881 44.9486 50.278 45.1703 50.0389C45.3929 49.7989 45.4751 49.4587 45.4796 49.0177C45.4937 47.813 45.5007 46.6067 45.4743 45.3999L45.4743 45.3996C45.4691 45.1775 45.4991 45.0776 45.5434 45.028C45.5828 44.9839 45.6692 44.9424 45.8979 44.95L45.898 44.95C46.9292 44.9835 47.9632 44.9711 48.9921 44.9554H48.9921C49.1485 44.9529 49.2309 44.9766 49.2845 45.0159C49.3382 45.0553 49.3893 45.1297 49.4366 45.291L49.4366 45.2911C50.2534 48.0747 52.5437 49.8546 55.3016 49.8654C58.0929 49.8762 60.4031 48.1071 61.2395 45.2916L61.2397 45.2908C61.2879 45.1257 61.3364 45.0513 61.3871 45.0126C61.4362 44.9751 61.5133 44.9512 61.6699 44.9536C62.7229 44.9712 63.7747 44.9747 64.8287 44.9536C65.0201 44.9501 65.0985 44.9745 65.1363 45.0074C65.169 45.0359 65.2071 45.104 65.2071 45.3081C65.2007 47.8149 65.2005 50.3203 65.2004 52.8256C65.2002 55.7729 65.2 58.7198 65.1896 61.6683C65.1847 63.0365 64.1359 64.0117 62.6816 64.0168C60.6963 64.0243 58.7103 64.0228 56.7236 64.0214C55.9285 64.0208 55.1333 64.0203 54.3381 64.0203Z" fill="black" stroke="black" stroke-width="0.3"/>
<path d="M8.40527 14.3722L8.40527 14.3722C8.40796 12.8903 8.91438 11.6337 9.80093 10.7469C10.6875 9.86014 11.9437 9.35368 13.4266 9.35278L8.40527 14.3722ZM8.40527 14.3722C8.40176 16.3287 8.40293 18.2853 8.4041 20.2417C8.40468 21.2117 8.40526 22.1816 8.40527 23.1515L8.40351 23.1567M8.40527 14.3722L8.40351 23.1567M31.3629 9.35278V9.50278M31.3629 9.35278V9.50278M31.3629 9.35278C30.3662 9.35249 29.3695 9.35214 28.3728 9.3518C23.3907 9.3501 18.4093 9.3484 13.4266 9.35278L31.3629 9.35278ZM31.3629 9.50278C32.441 9.50278 32.7741 9.83409 32.7776 10.9104L32.9276 10.9099L31.3629 9.50278ZM31.3629 9.50278L31.363 9.35278L31.3629 9.50278ZM8.40351 23.1567V23.1811M8.40351 23.1567V23.1811M8.40351 23.1811C8.40351 24.203 8.40332 25.2249 8.40312 26.2469M8.40351 23.1811L8.40312 26.2469M14.9465 31.1132C15.7284 28.4732 18.0387 26.7501 20.6962 26.7676C23.38 26.7869 25.6308 28.496 26.4179 31.1553C26.5265 31.5251 26.6773 31.6478 27.0454 31.6408C28.0744 31.6233 29.1051 31.6163 30.1324 31.6426M14.9465 31.1132L14.8028 31.0704C14.8028 31.0704 14.8027 31.0705 14.8027 31.0706M14.9465 31.1132L14.8027 31.0706M14.9465 31.1132L10.8036 31.1519M14.8027 31.0706C15.603 28.3683 17.9711 26.5996 20.6972 26.6176H20.6973C23.449 26.6374 25.7564 28.392 26.5617 31.1127L26.5618 31.113C26.6134 31.2885 26.6669 31.3745 26.7267 31.4212C26.7843 31.4662 26.8726 31.4941 27.0426 31.4909L27.0429 31.4908C28.0727 31.4733 29.1059 31.4663 30.1362 31.4926M14.8027 31.0706C14.7422 31.2734 14.6771 31.3692 14.6046 31.4203C14.5315 31.4718 14.423 31.4976 14.2264 31.4926L14.2261 31.4926C13.1962 31.468 12.1633 31.4715 11.1328 31.4908L11.1328 31.4909C10.9553 31.4942 10.8913 31.4627 10.8633 31.4336C10.8329 31.402 10.8036 31.3318 10.8036 31.1519M30.1362 31.4926C30.1361 31.4926 30.1361 31.4926 30.136 31.4926L30.1324 31.6426M30.1362 31.4926L30.1324 31.6426M30.1362 31.4926C30.3449 31.4976 30.4276 31.4607 30.4661 31.4202C30.5067 31.3776 30.5389 31.2891 30.5346 31.083L30.5346 31.0825C30.518 30.1453 30.5209 29.2074 30.5237 28.2713C30.5247 27.9153 30.5258 27.5595 30.5258 27.2041C30.5258 26.8526 30.5344 26.5681 30.571 26.3391C30.6078 26.1085 30.6751 25.9199 30.8031 25.7704C30.9312 25.6206 31.1062 25.5262 31.3266 25.4568C31.5451 25.3878 31.8215 25.3395 32.1638 25.2904C34.1168 25.0102 35.4423 23.4384 35.3833 21.4766M30.1324 31.6426C30.5671 31.6531 30.6933 31.5023 30.6846 31.0799C30.668 30.1443 30.6709 29.2088 30.6737 28.2732C30.6747 27.9169 30.6758 27.5605 30.6758 27.2041C30.6758 25.7982 30.816 25.6352 32.1851 25.4389L29.9135 11.7353C29.9135 11.7353 29.9136 11.7353 29.9136 11.7353C30.2411 11.7309 30.3785 11.7831 30.4452 11.8567C30.5151 11.9338 30.5505 12.0793 30.5399 12.3883L30.5399 12.3883C30.5038 13.4437 30.5126 14.5019 30.5214 15.5561C30.5237 15.8382 30.5261 16.12 30.5275 16.4014C30.5302 16.8947 30.6111 17.269 30.85 17.5253C31.089 17.7817 31.4552 17.887 31.9404 17.9245C33.8591 18.073 35.3244 19.5882 35.3833 21.4766M35.3833 21.4766L35.5328 21.472L35.3833 21.4765C35.3833 21.4765 35.3833 21.4766 35.3833 21.4766ZM10.8036 31.1519C10.8079 28.8069 10.8081 26.462 10.8082 24.1173C10.8085 20.768 10.8087 17.4189 10.8211 14.0698C10.826 12.7369 11.878 11.763 13.2924 11.7563L10.8036 31.1519ZM8.40312 26.2469C8.40273 28.2908 8.40234 30.3348 8.40351 32.3788L8.40312 26.2469ZM32.9205 15.2493L32.9206 15.2492L32.7741 32.4349L32.9241 32.4358C32.9241 32.4358 32.9241 32.4358 32.9241 32.4357C32.9328 30.9683 32.9363 29.5001 32.9206 28.0316C32.9189 27.8606 32.9365 27.7629 32.9775 27.696C33.015 27.6349 33.0879 27.5749 33.2619 27.5232C36.0819 26.6906 37.8695 24.3774 37.8551 21.6044C37.8407 18.8473 36.0581 16.539 33.2878 15.7273C33.1131 15.6757 33.0313 15.6233 32.9874 15.5657C32.9445 15.5093 32.9181 15.4217 32.9205 15.2493ZM18.5944 29.672C20.9238 28.0973 24.0218 29.5433 24.3441 32.3467L8.40351 32.3789C8.40352 32.8867 8.48997 33.2765 8.7419 33.5351C8.99464 33.7944 9.37938 33.8864 9.8832 33.8891L9.8833 33.8891C11.7454 33.8979 13.6075 33.8979 15.4696 33.8891L15.4697 33.8891C15.9639 33.8864 16.336 33.8072 16.5892 33.5665C16.8415 33.3265 16.9423 32.9577 16.9805 32.4676C17.0734 31.2764 17.6127 30.3366 18.5944 29.672ZM19.1808 11.7513C19.9983 11.7521 20.8161 11.7528 21.6341 11.7528L13.2925 11.7563C15.2557 11.7477 17.2178 11.7495 19.1808 11.7513Z" fill="black" stroke="black" stroke-width="0.3"/>
</g>
</svg>
