<svg width="76" height="76" viewBox="0 0 76 76" fill="none" xmlns="http://www.w3.org/2000/svg">
<mask id="mask0_7039_89914" style="mask-type:alpha" maskUnits="userSpaceOnUse" x="-1" y="-1" width="78" height="78">
<rect width="76" height="76" fill="white" stroke="white" stroke-width="2"/>
</mask>
<g mask="url(#mask0_7039_89914)">
<path d="M8.00563 24.8121C8.0276 19.0738 10.2995 13.8827 13.9614 10.122C17.6426 6.3416 22.7332 4 28.3537 4C33.9716 4 39.0623 6.33879 42.7432 10.122C46.4243 13.9025 48.7045 19.1304 48.7045 24.9024C48.7045 26.0563 48.6083 27.2017 48.427 28.3273C48.3254 28.9621 48.1935 29.5884 48.0397 30.2007C53.4708 30.3079 58.3854 32.5987 61.9755 36.2578L62.0387 36.3198C65.7171 40.0974 67.9917 45.3108 68 51.072V70.9167C68 71.5148 67.5275 72 66.9451 72H47.6166C44.8338 71.9944 42.1691 71.4104 39.7408 70.3581C37.2134 69.2607 34.947 67.6582 33.068 65.6749C32.6642 65.2489 32.6724 64.5633 33.0872 64.1486C33.502 63.7339 34.1696 63.7423 34.5734 64.1683C36.2601 65.9514 38.2958 67.3901 40.5567 68.3719C42.7214 69.3114 45.1087 69.8333 47.6195 69.8333H65.8882V51.1002L65.8937 51.0042C65.8635 45.8696 63.8279 41.2202 60.5478 37.8518L60.4983 37.7982C57.2018 34.441 52.6604 32.3674 47.6476 32.3674C42.6121 32.3674 38.0494 34.4635 34.7497 37.8546C31.4504 41.2429 29.4066 45.9291 29.4066 51.1032C29.4066 52.3163 29.5164 53.4955 29.728 54.6297C29.945 55.8033 30.2691 56.9374 30.6812 58.0095C30.8955 58.5624 30.6318 59.1915 30.0934 59.4088C29.5549 59.6288 28.9423 59.358 28.7308 58.805C28.2638 57.5919 27.8984 56.3252 27.6622 55.0274C27.4259 53.7495 27.3023 52.4348 27.3023 51.106C27.3023 49.2779 27.5331 47.5005 27.9616 45.8106H9.0614C8.47901 45.8106 8.0065 45.3253 8.0065 44.7273V34.9548C8.0065 34.3567 8.47901 33.8715 9.0614 33.8715C9.64379 33.8715 10.1163 34.3567 10.1163 34.9548V43.6439H28.3575L28.6405 43.6383C29.6734 40.8707 31.2585 38.3852 33.2639 36.3315C36.5467 32.9601 40.9449 30.7371 45.8403 30.2941C46.0601 29.5437 46.2332 28.7763 46.3568 27.9948C46.5161 27.0046 46.5985 25.9748 46.5985 24.9169C46.5985 19.7456 44.5575 15.06 41.2554 11.6684C37.9561 8.28013 33.3929 6.18113 28.3575 6.18113C23.322 6.18113 18.7594 8.27724 15.4568 11.6684C12.1658 15.0482 10.122 19.7198 10.1137 24.8772V27.199C10.1137 27.7971 9.64116 28.2824 9.05877 28.2824C8.47638 28.2824 8.00387 27.7971 8.00387 27.199V24.9138L8.00937 24.8264L8.00563 24.8121ZM59.1842 47.2069C59.7666 47.2069 60.2391 47.6922 60.2391 48.2903C60.2391 48.8884 59.7666 49.3736 59.1842 49.3736H55.2092C54.6268 49.3736 54.1543 48.8884 54.1543 48.2903C54.1543 47.6922 54.6268 47.2069 55.2092 47.2069H59.1842ZM59.1842 52.8211C59.7666 52.8211 60.2391 53.3063 60.2391 53.9044C60.2391 54.5025 59.7666 54.9878 59.1842 54.9878H55.2092C54.6268 54.9878 54.1543 54.5025 54.1543 53.9044C54.1543 53.3063 54.6268 52.8211 55.2092 52.8211H59.1842ZM40.0892 52.8211C40.6716 52.8211 41.1441 53.3063 41.1441 53.9044C41.1441 54.5025 40.6716 54.9878 40.0892 54.9878H36.1142C35.5318 54.9878 35.0593 54.5025 35.0593 53.9044C35.0593 53.3063 35.5318 52.8211 36.1142 52.8211H40.0892ZM49.6381 52.8211C50.2205 52.8211 50.693 53.3063 50.693 53.9044C50.693 54.5025 50.2205 54.9878 49.6381 54.9878H45.6631C45.0807 54.9878 44.6082 54.5025 44.6082 53.9044C44.6082 53.3063 45.0807 52.8211 45.6631 52.8211H49.6381ZM40.0892 47.2069C40.6716 47.2069 41.1441 47.6922 41.1441 48.2903C41.1441 48.8884 40.6716 49.3736 40.0892 49.3736H36.1142C35.5318 49.3736 35.0593 48.8884 35.0593 48.2903C35.0593 47.6922 35.5318 47.2069 36.1142 47.2069H40.0892ZM49.6381 47.2069C50.2205 47.2069 50.693 47.6922 50.693 48.2903C50.693 48.8884 50.2205 49.3736 49.6381 49.3736H45.6631C45.0807 49.3736 44.6082 48.8884 44.6082 48.2903C44.6082 47.6922 45.0807 47.2069 45.6631 47.2069H49.6381ZM30.4439 62.2581C30.128 61.7588 30.2654 61.0902 30.7516 60.7657C31.2379 60.4413 31.8889 60.5824 32.2048 61.0817L32.4356 61.4456C32.7515 61.945 32.6142 62.6136 32.1279 62.9381C31.6417 63.2625 30.9906 63.1214 30.6747 62.6221L30.4439 62.2581ZM16.8182 23.1792C16.2358 23.1792 15.7633 22.6939 15.7633 22.0958C15.7633 21.4977 16.2358 21.0125 16.8182 21.0125H20.7933C21.3757 21.0125 21.8482 21.4977 21.8482 22.0958C21.8482 22.6939 21.3757 23.1792 20.7933 23.1792H16.8182ZM16.8182 28.7933C16.2358 28.7933 15.7633 28.3081 15.7633 27.71C15.7633 27.1119 16.2358 26.6266 16.8182 26.6266H20.7933C21.3757 26.6266 21.8482 27.1119 21.8482 27.71C21.8482 28.3081 21.3757 28.7933 20.7933 28.7933H16.8182ZM35.9132 28.7933C35.3308 28.7933 34.8583 28.3081 34.8583 27.71C34.8583 27.1119 35.3308 26.6266 35.9132 26.6266H39.8883C40.4707 26.6266 40.9432 27.1119 40.9432 27.71C40.9432 28.3081 40.4707 28.7933 39.8883 28.7933H35.9132ZM26.3643 28.7933C25.7819 28.7933 25.3094 28.3081 25.3094 27.71C25.3094 27.1119 25.7819 26.6266 26.3643 26.6266H30.3394C30.9218 26.6266 31.3943 27.1119 31.3943 27.71C31.3943 28.3081 30.9218 28.7933 30.3394 28.7933H26.3643ZM35.9132 23.1792C35.3308 23.1792 34.8583 22.6939 34.8583 22.0958C34.8583 21.4977 35.3308 21.0125 35.9132 21.0125H39.8883C40.4707 21.0125 40.9432 21.4977 40.9432 22.0958C40.9432 22.6939 40.4707 23.1792 39.8883 23.1792H35.9132ZM26.3643 23.1792C25.7819 23.1792 25.3094 22.6939 25.3094 22.0958C25.3094 21.4977 25.7819 21.0125 26.3643 21.0125H30.3394C30.9218 21.0125 31.3943 21.4977 31.3943 22.0958C31.3943 22.6939 30.9218 23.1792 30.3394 23.1792H26.3643ZM8 30.8499C8 30.2519 8.47251 29.7666 9.0549 29.7666C9.63728 29.7666 10.1098 30.2519 10.1098 30.8499V31.2844C10.1098 31.8825 9.63728 32.3677 9.0549 32.3677C8.47251 32.3677 8 31.8825 8 31.2844V30.8499Z" fill="black"/>
</g>
</svg>
