<svg width="181" height="181" viewBox="0 0 181 181" fill="none" xmlns="http://www.w3.org/2000/svg">
<rect width="181" height="181" rx="48" transform="matrix(-1 0 0 1 181 0)" fill="black"/>
<mask id="mask0_5759_56809" style="mask-type:alpha" maskUnits="userSpaceOnUse" x="40" y="41" width="100" height="100">
<rect width="100" height="100" transform="matrix(-1 0 0 1 140 41)" fill="#D9D9D9"/>
</mask>
<g mask="url(#mask0_5759_56809)">
</g>
<g clip-path="url(#clip0_5759_56809)">
<path d="M119.28 108.271H63.2805C61.7405 108.271 60.4805 109.525 60.4805 111.057V116.629C60.4805 118.161 61.7405 119.414 63.2805 119.414H119.28C120.82 119.414 122.08 118.161 122.08 116.629V111.057C122.08 109.525 120.82 108.271 119.28 108.271ZM63.2805 116.629V111.057H119.28V116.629H63.2805Z" fill="white"/>
<path d="M64.6805 102.7H88.4805C90.7905 102.7 92.6805 100.819 92.6805 98.5213V81.807C92.6805 79.5088 90.7905 77.6284 88.4805 77.6284H64.6805C62.3705 77.6284 60.4805 79.5088 60.4805 81.807V98.5213C60.4805 100.819 62.3705 102.7 64.6805 102.7ZM89.8805 98.187L78.9465 90.1641L89.8805 82.1413V98.187ZM87.5145 99.9141H65.6325L76.5665 91.8913L87.5005 99.9141H87.5145ZM76.5805 88.437L65.6465 80.4141H87.5285L76.5945 88.437H76.5805ZM74.2145 90.1641L63.2805 98.187V82.1413L74.2145 90.1641Z" fill="white"/>
<path d="M120.679 77.6284H98.2789C97.5089 77.6284 96.8789 78.2552 96.8789 79.0213C96.8789 79.7873 97.5089 80.4141 98.2789 80.4141H120.679C121.449 80.4141 122.079 79.7873 122.079 79.0213C122.079 78.2552 121.449 77.6284 120.679 77.6284Z" fill="white"/>
<path d="M120.679 88.7715H98.2789C97.5089 88.7715 96.8789 89.3983 96.8789 90.1643C96.8789 90.9304 97.5089 91.5572 98.2789 91.5572H120.679C121.449 91.5572 122.079 90.9304 122.079 90.1643C122.079 89.3983 121.449 88.7715 120.679 88.7715Z" fill="white"/>
<path d="M120.679 99.9141H98.2789C97.5089 99.9141 96.8789 100.541 96.8789 101.307C96.8789 102.073 97.5089 102.7 98.2789 102.7H120.679C121.449 102.7 122.079 102.073 122.079 101.307C122.079 100.541 121.449 99.9141 120.679 99.9141Z" fill="white"/>
<path d="M126.277 52.5571H56.2773C52.4133 52.5571 49.2773 55.6771 49.2773 59.5214V123.593C49.2773 127.437 52.4133 130.557 56.2773 130.557H126.277C130.141 130.557 133.277 127.437 133.277 123.593V59.5214C133.277 55.6771 130.141 52.5571 126.277 52.5571ZM52.0773 59.5214C52.0773 57.2232 53.9673 55.3428 56.2773 55.3428H126.277C128.587 55.3428 130.477 57.2232 130.477 59.5214V69.2714H101.749L96.5693 62.8364C96.3033 62.5021 95.8973 62.3071 95.4773 62.3071H52.0773V59.5214ZM126.277 127.771H56.2773C53.9673 127.771 52.0773 125.891 52.0773 123.593V65.0928H94.8053L99.9853 71.5278C100.251 71.8621 100.657 72.0571 101.077 72.0571H130.477V123.593C130.477 125.891 128.587 127.771 126.277 127.771Z" fill="white"/>
<path d="M122.78 64.3963C123.939 64.3963 124.88 63.4609 124.88 62.3071C124.88 61.1532 123.939 60.2178 122.78 60.2178C121.62 60.2178 120.68 61.1532 120.68 62.3071C120.68 63.4609 121.62 64.3963 122.78 64.3963Z" fill="white"/>
<path d="M114.377 64.3963C115.537 64.3963 116.477 63.4609 116.477 62.3071C116.477 61.1532 115.537 60.2178 114.377 60.2178C113.218 60.2178 112.277 61.1532 112.277 62.3071C112.277 63.4609 113.218 64.3963 114.377 64.3963Z" fill="white"/>
<path d="M105.979 64.3963C107.139 64.3963 108.079 63.4609 108.079 62.3071C108.079 61.1532 107.139 60.2178 105.979 60.2178C104.819 60.2178 103.879 61.1532 103.879 62.3071C103.879 63.4609 104.819 64.3963 105.979 64.3963Z" fill="white"/>
</g>
<defs>
<clipPath id="clip0_5759_56809">
<rect width="84" height="78" fill="white" transform="translate(49 52)"/>
</clipPath>
</defs>
</svg>
