<svg width="180" height="180" viewBox="0 0 180 180" fill="none" xmlns="http://www.w3.org/2000/svg">
<rect width="180" height="180" rx="48" transform="matrix(-1 0 0 1 180 0)" fill="black"/>
<mask id="mask0_5759_56801" style="mask-type:alpha" maskUnits="userSpaceOnUse" x="40" y="40" width="100" height="100">
<rect x="40" y="40" width="100" height="100" fill="#D9D9D9"/>
</mask>
<g mask="url(#mask0_5759_56801)">
<path fill-rule="evenodd" clip-rule="evenodd" d="M110.372 100.422C109.852 100.016 109.762 99.262 110.172 98.7425C110.579 98.223 111.333 98.1331 111.852 98.5433L115.504 101.414L121.356 94.6566C121.786 94.1566 122.543 94.1019 123.04 94.5355C123.536 94.9652 123.594 95.723 123.161 96.2191L116.61 103.785L116.602 103.797C116.196 104.317 115.442 104.407 114.922 103.996L110.372 100.418L110.372 100.422ZM51.7346 56.6172H56.6604C56.9963 56.6172 57.301 56.4805 57.5197 56.2578C57.7424 56.0352 57.8791 55.7305 57.8791 55.3984V49.1758L51.7346 56.621L51.7346 56.6172ZM58.0237 128.371V131.387C58.0237 131.723 58.1604 132.027 58.383 132.246C58.6057 132.469 58.9104 132.606 59.2424 132.606H118.418C118.754 132.606 119.059 132.469 119.278 132.246C119.5 132.024 119.637 131.719 119.637 131.387V117.231C118.797 117.594 117.93 117.91 117.039 118.172C116.821 118.239 116.582 118.246 116.348 118.176C115.688 117.981 115.036 117.758 114.403 117.508V124.754C114.403 125.75 113.997 126.653 113.34 127.309C112.684 127.965 111.782 128.371 110.786 128.371L58.0237 128.371ZM119.637 81.0782V55.2462C119.637 54.9103 119.5 54.6056 119.277 54.3868C119.055 54.1642 118.75 54.0274 118.418 54.0274H114.402V80.8864L116.336 80.3278C116.547 80.2653 116.781 80.2575 117.008 80.3239L119.633 81.0818L119.637 81.0782ZM120.617 83.8438C120.539 83.8282 120.461 83.8086 120.391 83.7774L116.684 82.711L113.648 83.586C113.578 83.6133 113.5 83.6368 113.422 83.6524L102.324 86.8516V96.1719C102.324 100.707 103.828 105.004 106.425 108.484C108.316 111.019 110.785 113.125 113.668 114.57C113.714 114.589 113.757 114.613 113.8 114.636C114.722 115.089 115.683 115.476 116.683 115.789C117.914 115.402 119.093 114.906 120.203 114.308C120.242 114.285 120.285 114.261 120.324 114.242C122.937 112.812 125.187 110.835 126.941 108.484C129.535 105.003 131.043 100.71 131.043 96.1718V86.8515L120.617 83.8476L120.617 83.8438ZM114.402 51.6328V48.6172C114.402 47.6211 113.996 46.7188 113.34 46.0625C112.684 45.4062 111.781 45 110.785 45H58.7851V45.0039C58.4414 45.0039 58.0976 45.1523 57.8632 45.4375L48.3437 56.9725C48.1641 57.1561 48.043 57.3944 48.0117 57.66V57.6639C48.0078 57.6834 48.0078 57.703 48.0039 57.7225L48 57.7537V57.785V124.758C48 125.754 48.4063 126.656 49.0625 127.313L49.0664 127.309L49.0703 127.313C49.7266 127.969 50.6289 128.375 51.6211 128.375H55.6367V131.391C55.6367 132.387 56.043 133.289 56.6992 133.945C57.3555 134.602 58.2578 135.008 59.2539 135.008H118.43C119.426 135.008 120.328 134.602 120.985 133.945C121.641 133.289 122.047 132.387 122.047 131.391V116.024C124.731 114.457 127.047 112.371 128.875 109.918C131.77 106.035 133.453 101.239 133.453 96.1763V85.9573C133.453 85.3714 133.031 84.8831 132.473 84.7776L122.047 81.7737L122.031 55.2467C122.031 54.2506 121.625 53.3483 120.969 52.692C120.312 52.0357 119.41 51.6295 118.414 51.6295H114.398L114.402 51.6328ZM58.6171 109.505C57.957 109.505 57.4179 108.969 57.4179 108.305C57.4179 107.645 57.9531 107.106 58.6171 107.106H102.707C101.559 104.989 100.738 102.684 100.297 100.274L58.6209 100.27C57.9608 100.27 57.4217 99.735 57.4217 99.071C57.4217 98.4108 57.9569 97.8718 58.6209 97.8718H99.9919C99.949 97.3054 99.9294 96.739 99.9294 96.1648V85.9458H99.9333C99.9333 85.4263 100.273 84.9497 100.797 84.8013L112.004 81.5708L112.008 48.6138C112.008 48.2779 111.871 47.9732 111.648 47.7544C111.425 47.5318 111.121 47.395 110.789 47.395H60.2728V55.395C60.2728 56.3911 59.8665 57.2934 59.2103 57.9497C58.554 58.606 57.6517 59.0122 56.6556 59.0122H50.3939V124.754C50.3939 125.09 50.5306 125.395 50.7533 125.614L50.7493 125.618C50.972 125.836 51.2767 125.973 51.6126 125.973H110.789C111.125 125.973 111.429 125.836 111.648 125.614C111.871 125.391 112.007 125.086 112.007 124.754V116.395C109.035 114.797 106.488 112.567 104.507 109.91C104.39 109.754 104.277 109.594 104.164 109.434C104.043 109.473 103.918 109.496 103.781 109.496H58.6208L58.6171 109.505ZM58.6171 118.735C57.957 118.735 57.4179 118.2 57.4179 117.536C57.4179 116.876 57.9531 116.337 58.6171 116.337H103.777C104.437 116.337 104.976 116.872 104.976 117.536C104.976 118.196 104.441 118.735 103.777 118.735L58.6211 118.727L58.6171 118.735Z" fill="white"/>
<path d="M71.6825 77.1051H74.3814L76.2812 79.582L77.1779 80.6829L80.2053 84.6335H77.3999L75.3757 81.9968L74.6832 81.038L71.6825 77.1051ZM80.7912 73.9091C80.7912 75.8504 80.4361 77.5194 79.7259 78.9162C79.0156 80.3071 78.042 81.3783 76.805 82.13C75.574 82.8757 74.1742 83.2486 72.6058 83.2486C71.0315 83.2486 69.6258 82.8757 68.3888 82.13C67.1578 81.3783 66.1871 80.3041 65.4769 78.9073C64.7667 77.5105 64.4116 75.8445 64.4116 73.9091C64.4116 71.9678 64.7667 70.3017 65.4769 68.9109C66.1871 67.5141 67.1578 66.4428 68.3888 65.6971C69.6258 64.9454 71.0315 64.5696 72.6058 64.5696C74.1742 64.5696 75.574 64.9454 76.805 65.6971C78.042 66.4428 79.0156 67.5141 79.7259 68.9109C80.4361 70.3017 80.7912 71.9678 80.7912 73.9091ZM78.0746 73.9091C78.0746 72.4295 77.8349 71.1836 77.3555 70.1715C76.882 69.1535 76.2309 68.3841 75.4023 67.8633C74.5797 67.3365 73.6475 67.0732 72.6058 67.0732C71.5582 67.0732 70.6231 67.3365 69.8004 67.8633C68.9777 68.3841 68.3267 69.1535 67.8473 70.1715C67.3738 71.1836 67.1371 72.4295 67.1371 73.9091C67.1371 75.3887 67.3738 76.6375 67.8473 77.6555C68.3267 78.6676 68.9777 79.437 69.8004 79.9638C70.6231 80.4846 71.5582 80.745 72.6058 80.745C73.6475 80.745 74.5797 80.4846 75.4023 79.9638C76.2309 79.437 76.882 78.6676 77.3555 77.6555C77.8349 76.6375 78.0746 75.3887 78.0746 73.9091ZM84.8439 83H81.932L88.475 64.8182H91.6444L98.1873 83H95.2754L90.1351 68.1207H89.9931L84.8439 83ZM85.3322 75.88H94.7782V78.1882H85.3322V75.88Z" fill="white"/>
</g>
</svg>
