<svg width="181" height="181" viewBox="0 0 181 181" fill="none" xmlns="http://www.w3.org/2000/svg">
<rect width="181" height="181" rx="48" fill="black"/>
<mask id="mask0_5759_56795" style="mask-type:alpha" maskUnits="userSpaceOnUse" x="41" y="40" width="100" height="100">
<rect x="41" y="40" width="100" height="100" fill="#D9D9D9"/>
</mask>
<g mask="url(#mask0_5759_56795)">
<path d="M82.5821 120.45L82.582 120.45C82.537 123.258 83.5987 125.967 85.5311 127.982C87.4633 129.997 90.1076 131.153 92.8816 131.199C95.6557 131.244 98.3355 130.175 100.331 128.224C102.327 126.273 103.475 123.6 103.52 120.793L103.529 120.234L104.057 120.05C108.493 118.506 112.362 115.637 115.149 111.823C117.937 108.008 119.512 103.428 119.665 98.6878L119.69 97.9136H120.465H121.73C124.504 97.9105 127.164 96.797 129.127 94.8147C131.091 92.8322 132.197 90.1427 132.2 87.3357L132.2 83.2007L132.2 83.1995M82.5821 120.45L121.731 71.8225C124.719 71.8269 127.582 73.0269 129.695 75.1596C131.807 77.2922 132.996 80.1835 133 83.1995H132.2M82.5821 120.45L82.5821 120.437C82.5797 118.108 83.3382 115.845 84.7388 113.997C86.1392 112.15 88.1031 110.821 90.3251 110.217C92.547 109.612 94.9043 109.764 97.0323 110.65C99.1603 111.535 100.941 113.105 102.098 115.118L102.457 115.744L103.117 115.451C107.515 113.492 110.613 110.939 112.59 107.353C114.555 103.789 115.364 99.2938 115.364 93.5422V81.131C115.364 72.7301 113.018 65.554 108.774 60.4629C104.52 55.3581 98.4012 52.4056 91.002 52.4056C83.6028 52.4056 77.4845 55.3592 73.2297 60.4645C68.9862 65.5561 66.6399 72.7321 66.6399 81.131V95.6097C66.6391 96.2229 66.3974 96.8093 65.9702 97.2406C65.5432 97.6717 64.966 97.9128 64.3655 97.9136H60.2697C57.497 97.9105 54.8372 96.7975 52.8739 94.8161C50.9105 92.8346 49.8042 90.1462 49.8 87.3401V83.2041C49.8031 80.3969 50.9089 77.707 52.8724 75.7239C54.8357 73.741 57.4962 72.6266 60.27 72.6225H62.2276H62.877L63.0105 71.9869C66.0471 57.5249 76.3824 47.8 91.002 47.8C105.622 47.8 115.953 57.5247 118.989 71.9869L119.123 72.6225H119.772H121.73M82.5821 120.45L121.73 72.6225M132.2 83.1995C132.196 80.3932 131.089 77.7046 129.126 75.7226C127.163 73.7405 124.503 72.6266 121.73 72.6225M132.2 83.1995L121.73 72.6225M87.1287 120.437V120.437C87.1287 121.617 87.4751 122.77 88.1248 123.752C88.7747 124.734 89.6991 125.5 90.7821 125.953C91.8652 126.406 93.0574 126.525 94.2077 126.294C95.358 126.063 96.4135 125.493 97.2412 124.657C98.0689 123.822 98.6317 122.758 98.8596 121.601C99.0875 120.444 98.9706 119.245 98.5233 118.155C98.076 117.065 97.3181 116.131 96.3441 115.474C95.37 114.817 94.2239 114.466 93.0509 114.466H93.0503C91.4777 114.467 89.9714 115.099 88.8618 116.219C87.7524 117.339 87.13 118.856 87.1287 120.437ZM119.911 92.5121V93.3121H120.711H121.731C123.305 93.3121 124.812 92.6813 125.923 91.5609C127.033 90.4407 127.656 88.9229 127.657 87.3414V87.3407V83.2036C127.657 81.6221 127.036 80.1038 125.926 78.9827C124.816 77.8614 123.309 77.2294 121.736 77.2281H121.735H120.711H119.911V78.0281V92.5121ZM54.3466 87.3407L54.3466 87.342C54.3491 88.9219 54.9721 90.4378 56.0814 91.5568C57.1909 92.676 58.6964 93.3067 60.2682 93.3079H60.2688H61.2933H62.0933V92.5079V78.0281V77.2281H61.2933L60.2688 77.2281L60.2682 77.2281C58.6948 77.2294 57.1878 77.8614 56.078 78.9827C54.9685 80.1038 54.3466 81.6221 54.3466 83.2036L54.3466 87.3407Z" fill="white" stroke="black" stroke-width="1.6"/>
</g>
</svg>
