<svg width="115" height="115" viewBox="0 0 115 115" fill="none" xmlns="http://www.w3.org/2000/svg">
<mask id="mask0_7606_86695" style="mask-type:alpha" maskUnits="userSpaceOnUse" x="0" y="0" width="115" height="115">
<rect width="115" height="115" fill="#D9D9D9"/>
</mask>
<g mask="url(#mask0_7606_86695)">
</g>
<g clip-path="url(#clip0_7606_86695)">
<path d="M0 81.37C0 65.79 0 50.21 0 34.63C0.03 34.57 0.07 34.51 0.09 34.45C1.06 30.19 3.79 28 8.15 28C13.48 28 18.82 28 24.15 28C36.14 28 48.14 28 60.13 28C64.64 28 67.98 31.25 67.98 35.67C67.99 50.56 67.99 65.46 67.97 80.35C67.97 81.22 67.82 82.13 67.54 82.95C66.47 86.1 63.63 88 60.12 88C42.7 88 25.29 88 7.87 88C7.63 88 7.38 88 7.14 87.99C3.97 87.83 1.18 85.62 0.3 82.59C0.19 82.18 0.1 81.77 0 81.37ZM65.74 46.04H2.25C2.25 46.31 2.25 46.53 2.25 46.75C2.25 57.83 2.25 68.92 2.25 80C2.25 83.54 4.46 85.74 8.01 85.74C25.33 85.74 42.66 85.74 59.98 85.74C63.53 85.74 65.73 83.54 65.73 79.98C65.73 68.92 65.73 57.85 65.73 46.79V46.03L65.74 46.04ZM2.28 43.7H65.7C65.7 40.79 65.73 37.94 65.68 35.09C65.67 34.47 65.45 33.82 65.17 33.26C64.11 31.14 62.3 30.26 59.98 30.26C42.65 30.26 25.32 30.26 8 30.26C7.87 30.26 7.73 30.26 7.6 30.26C4.72 30.35 2.45 32.31 2.31 35.09C2.17 37.94 2.28 40.79 2.28 43.7Z" fill="black"/>
<path d="M37.0414 53.8999C36.7814 55.1599 36.4914 56.5499 36.2014 57.9299C35.0214 63.5499 33.8314 69.1699 32.6514 74.7899C32.6114 74.9799 32.5714 75.1799 32.5214 75.3699C32.3414 75.9999 31.7914 76.3699 31.2314 76.2599C30.5814 76.1299 30.2014 75.5599 30.3414 74.8599C30.6114 73.4999 30.9114 72.1399 31.2014 70.7699C32.4014 65.0899 33.5914 59.3999 34.7914 53.7199C34.9614 52.8999 35.4314 52.4899 36.0714 52.5599C36.6614 52.6299 37.0614 53.1299 37.0414 53.8999Z" fill="black"/>
<path d="M21.2952 64.3398C23.2752 66.0198 25.1752 67.6398 27.0752 69.2598C27.2752 69.4298 27.4852 69.5998 27.6552 69.7998C28.0252 70.2498 28.0252 70.7398 27.6852 71.1998C27.3552 71.6498 26.7552 71.7498 26.2552 71.4598C26.0852 71.3598 25.9352 71.2298 25.7752 71.0998C23.5652 69.2198 21.3652 67.3398 19.1552 65.4698C18.2152 64.6698 18.1952 64.0298 19.1152 63.2398C21.3852 61.2998 23.6652 59.3698 25.9352 57.4298C26.4052 57.0298 26.9052 56.8798 27.4452 57.2498C27.8852 57.5498 28.0252 57.9998 27.8452 58.4798C27.7352 58.7698 27.4852 59.0298 27.2452 59.2398C25.5252 60.7298 23.7852 62.1998 22.0452 63.6798C21.8152 63.8798 21.5752 64.0798 21.2852 64.3398H21.2952Z" fill="black"/>
<path d="M46.669 64.3301C45.219 63.1001 43.819 61.8901 42.409 60.6901C41.799 60.1701 41.189 59.6701 40.589 59.1401C39.999 58.6201 39.899 57.9501 40.309 57.4501C40.729 56.9401 41.409 56.9101 42.009 57.4201C44.339 59.3901 46.669 61.3701 48.979 63.3601C49.729 64.0001 49.719 64.6901 48.979 65.3301C46.669 67.3201 44.339 69.3001 42.009 71.2701C41.399 71.7801 40.739 71.7501 40.299 71.2401C39.889 70.7501 39.979 70.0601 40.569 69.5501C42.409 67.9601 44.269 66.3901 46.119 64.8201C46.279 64.6801 46.439 64.5301 46.649 64.3401L46.669 64.3301Z" fill="black"/>
<path d="M4.73438 37.03C4.73438 35.08 6.31438 33.48 8.26438 33.48C10.1944 33.48 11.8144 35.1 11.8144 37.03C11.8144 38.96 10.1944 40.58 8.27438 40.59C6.33438 40.59 4.74437 38.99 4.73438 37.04V37.03ZM9.56438 37.01C9.56438 36.33 8.96437 35.74 8.28437 35.73C7.57437 35.72 6.97438 36.33 6.98438 37.04C6.98438 37.73 7.56437 38.31 8.25437 38.32C8.94438 38.33 9.57438 37.7 9.56438 37V37.01Z" fill="black"/>
<path d="M33.6169 37.06C33.6369 39.02 32.0769 40.61 30.1169 40.62C28.1569 40.64 26.5569 39.08 26.5469 37.12C26.5369 35.16 28.1069 33.56 30.0469 33.55C32.0069 33.53 33.5969 35.1 33.6169 37.06ZM30.0669 38.38C30.7669 38.38 31.3369 37.85 31.3669 37.15C31.3969 36.42 30.8369 35.82 30.1069 35.81C29.3869 35.8 28.7969 36.38 28.8069 37.11C28.8069 37.81 29.3769 38.37 30.0769 38.38H30.0669Z" fill="black"/>
<path d="M19.2286 33.5302C21.1886 33.5602 22.7386 35.1502 22.7186 37.1102C22.6986 39.0602 21.0786 40.6302 19.1286 40.6002C17.1786 40.5702 15.6286 38.9702 15.6486 37.0102C15.6686 35.0502 17.2686 33.5002 19.2286 33.5302ZM17.8986 37.0702C17.8986 37.7702 18.4486 38.3402 19.1486 38.3502C19.8686 38.3702 20.4686 37.7802 20.4586 37.0602C20.4586 36.3602 19.8986 35.8002 19.1986 35.7802C18.4686 35.7702 17.8886 36.3402 17.8886 37.0702H17.8986Z" fill="black"/>
</g>
<defs>
<clipPath id="clip0_7606_86695">
<rect width="67.99" height="60" fill="white" transform="translate(0 28)"/>
</clipPath>
</defs>
</svg>
