<svg width="100" height="100" viewBox="0 0 100 100" fill="none" xmlns="http://www.w3.org/2000/svg">
<rect opacity="0.2" width="100" height="100" rx="20" fill="url(#paint0_linear_3269_34729)"/>
<path fill-rule="evenodd" clip-rule="evenodd" d="M28.062 21C25.2664 21 23 23.2664 23 26.062V73.7899C23 76.5856 25.2664 78.852 28.062 78.852H52.6491C55.4448 78.852 57.7112 76.5856 57.7112 73.7899V26.062C57.7112 23.2664 55.4448 21 52.6491 21H28.062ZM52.9548 22.4463H44.9727C44.9727 23.661 44.4922 24.8259 43.6368 25.6848C42.7814 26.5437 41.6212 27.0262 40.4115 27.0262C39.2018 27.0262 38.0416 26.5437 37.1862 25.6848C36.3309 24.8259 35.8503 23.661 35.8503 22.4463H27.8682C25.9821 22.4463 24.4473 23.9874 24.4473 25.8812V73.9707C24.4473 75.8645 25.9821 77.4057 27.8682 77.4057H52.9548C54.8409 77.4057 56.3757 75.8645 56.3757 73.9707V25.8812C56.3757 23.9874 54.8409 22.4463 52.9548 22.4463Z" fill="black"/>
<path d="M75.2718 54.6582L75.2722 54.6584C75.4526 54.7605 75.6112 54.8978 75.7384 55.0625C75.8657 55.2272 75.959 55.4159 76.0129 55.6176C76.0667 55.8193 76.08 56.0298 76.0518 56.2367C76.0236 56.4437 75.9546 56.6428 75.8489 56.8223L75.8489 56.8224L71.1806 64.7546C71.1806 64.7547 71.1805 64.7548 71.1805 64.7548C70.9725 65.1078 70.6357 65.364 70.2428 65.4697C69.8499 65.5753 69.4313 65.5222 69.0767 65.3213L65.8064 63.4688L65.3885 63.2321L65.0083 63.5254C63.6809 64.5493 62.2189 65.3837 60.6638 66.005L60.2089 66.1867V66.6765V70.2947C60.2089 70.7112 60.0441 71.11 59.7517 71.4036C59.4594 71.6971 59.0636 71.8615 58.6515 71.8615H56.9868V59.5413C59.3345 59.3678 61.5515 58.3541 63.2266 56.6722C65.0727 54.8186 66.1092 52.3051 66.1092 49.6849C66.1092 47.0647 65.0727 44.5512 63.2266 42.6976C61.5515 41.0156 59.3345 40.002 56.9868 39.8285V27.5083H58.6492C59.0613 27.5083 59.4571 27.6727 59.7494 27.9662C60.0418 28.2598 60.2066 28.6586 60.2066 29.0751V32.6979V33.188L60.6619 33.3696C62.2171 33.9898 63.6791 34.8242 65.0057 35.8487L65.3862 36.1426L65.8044 35.9054L69.0744 34.0508C69.4291 33.8499 69.8476 33.7968 70.2405 33.9024C70.6335 34.0081 70.9704 34.2644 71.1783 34.6175L71.1784 34.6176L75.8512 42.5475C75.9569 42.727 76.0259 42.9261 76.0541 43.1331C76.0823 43.34 76.069 43.5505 76.0152 43.7522C75.9613 43.9539 75.868 44.1426 75.7407 44.3073C75.6135 44.472 75.4549 44.6093 75.2745 44.7114L75.2743 44.7115L72.0586 46.532L71.6273 46.7763L71.6995 47.2667C71.8199 48.0843 71.8788 48.8918 71.8788 49.6849C71.8788 50.478 71.8199 51.2855 71.6995 52.1031L71.6273 52.5934L72.0585 52.8376L75.2718 54.6582Z" stroke="black" stroke-width="1.4463"/>
<path d="M48.0669 46.1416L50.5209 48.2567C51.5525 49.1459 52.0684 49.5905 52.0684 50.143C52.0684 50.6955 51.5525 51.1401 50.5209 52.0293L48.0669 54.1445" stroke="black" stroke-width="1.90544" stroke-linecap="round" stroke-linejoin="round"/>
<path d="M32.062 46.1416L29.608 48.2567C28.5764 49.1459 28.0605 49.5905 28.0605 50.143C28.0605 50.6955 28.5764 51.1401 29.608 52.0293L32.062 54.1445" stroke="black" stroke-width="1.90544" stroke-linecap="round" stroke-linejoin="round"/>
<path d="M42.0639 44.1406L38.0625 56.1449" stroke="black" stroke-width="1.90544" stroke-linecap="round" stroke-linejoin="round"/>
<defs>
<linearGradient id="paint0_linear_3269_34729" x1="11.809" y1="1.81213e-05" x2="100.05" y2="16.5617" gradientUnits="userSpaceOnUse">
<stop stop-color="#2EC4F3"/>
<stop offset="1" stop-color="#BFD633"/>
</linearGradient>
</defs>
</svg>
