<svg width="100" height="100" viewBox="0 0 100 100" fill="none" xmlns="http://www.w3.org/2000/svg">
<rect opacity="0.2" width="100" height="100" rx="20" fill="url(#paint0_linear_3269_34763)"/>
<path d="M55.4934 26.6027C55.6957 26.6027 55.8897 26.5224 56.0327 26.3794C56.1757 26.2364 56.256 26.0424 56.256 25.8401V24.7626C56.256 24.5603 56.1757 24.3664 56.0327 24.2234C55.8897 24.0803 55.6957 24 55.4934 24C55.2912 24 55.0972 24.0803 54.9542 24.2234C54.8112 24.3664 54.7308 24.5603 54.7308 24.7626V25.8401C54.7308 26.0424 54.8112 26.2364 54.9542 26.3794C55.0972 26.5224 55.2912 26.6027 55.4934 26.6027ZM49.395 27.6788C49.445 27.7655 49.5117 27.8416 49.5912 27.9026C49.6707 27.9636 49.7614 28.0084 49.8581 28.0343C49.9549 28.0603 50.0558 28.0669 50.1552 28.0539C50.2545 28.0408 50.3503 28.0083 50.4371 27.9582C50.5238 27.9082 50.5999 27.8415 50.6609 27.762C50.7219 27.6826 50.7667 27.5919 50.7926 27.4951C50.8186 27.3983 50.8252 27.2974 50.8122 27.1981C50.7991 27.0987 50.7666 27.0029 50.7165 26.9162L50.1774 25.9827C50.0755 25.809 49.9091 25.6826 49.7144 25.6312C49.5197 25.5797 49.3126 25.6073 49.1382 25.708C48.9638 25.8087 48.8363 25.9743 48.7836 26.1686C48.7308 26.363 48.757 26.5703 48.8566 26.7453L49.395 27.6788ZM44.7607 31.3995L45.6933 31.9379C45.7801 31.9916 45.8769 32.0273 45.9777 32.0429C46.0786 32.0586 46.1816 32.0538 46.2806 32.0289C46.3796 32.004 46.4726 31.9595 46.554 31.8979C46.6355 31.8364 46.7038 31.7592 46.7549 31.6708C46.8059 31.5824 46.8387 31.4847 46.8513 31.3834C46.8639 31.2821 46.856 31.1793 46.8282 31.0811C46.8003 30.9829 46.753 30.8913 46.689 30.8117C46.6251 30.7321 46.5458 30.6662 46.4559 30.6178L45.5233 30.0786C45.4365 30.0278 45.3405 29.9946 45.2409 29.981C45.1413 29.9673 45.0399 29.9736 44.9427 29.9993C44.8454 30.025 44.7543 30.0696 44.6744 30.1307C44.5945 30.1918 44.5275 30.2681 44.4772 30.3552C44.4269 30.4423 44.3943 30.5385 44.3814 30.6382C44.3684 30.738 44.3753 30.8393 44.4016 30.9363C44.428 31.0334 44.4733 31.1243 44.5349 31.2038C44.5965 31.2832 44.6732 31.3498 44.7607 31.3995ZM65.2936 31.9379L66.2262 31.3995C66.3999 31.2976 66.5263 31.1312 66.5778 30.9365C66.6293 30.7418 66.6016 30.5347 66.5009 30.3603C66.4003 30.1859 66.2347 30.0584 66.0403 30.0056C65.846 29.9529 65.6387 29.9791 65.4636 30.0786L64.531 30.6178C64.4411 30.6662 64.3618 30.7321 64.2979 30.8117C64.2339 30.8913 64.1866 30.9829 64.1587 31.0811C64.1309 31.1793 64.123 31.2821 64.1356 31.3834C64.1481 31.4847 64.1809 31.5824 64.232 31.6708C64.2831 31.7592 64.3514 31.8364 64.4328 31.8979C64.5143 31.9595 64.6073 32.004 64.7063 32.0289C64.8053 32.0538 64.9083 32.0586 65.0092 32.0429C65.11 32.0273 65.2067 31.9916 65.2936 31.9379ZM60.5502 27.9579C60.7254 28.059 60.9335 28.0864 61.1289 28.0341C61.3242 27.9817 61.4908 27.8539 61.5919 27.6788L62.1311 26.7453C62.1811 26.6586 62.2136 26.5628 62.2267 26.4634C62.2397 26.3641 62.2331 26.2632 62.2071 26.1664C62.1812 26.0696 62.1364 25.9789 62.0754 25.8995C62.0144 25.82 61.9384 25.7533 61.8516 25.7033C61.7648 25.6532 61.669 25.6207 61.5697 25.6076C61.4703 25.5946 61.3694 25.6012 61.2727 25.6272C61.1759 25.6531 61.0852 25.6979 61.0057 25.7589C60.9262 25.8199 60.8596 25.896 60.8095 25.9827L60.2711 26.9162C60.17 27.0913 60.1426 27.2995 60.1949 27.4948C60.2473 27.6902 60.3751 27.8567 60.5502 27.9579Z" fill="black"/>
<path d="M71.1563 43.3448H60.6882C60.9119 42.9421 61.185 42.5688 61.5011 42.2337C62.9729 40.6932 63.7889 38.6571 63.7889 36.5218C63.7889 31.9539 60.0674 28.2324 55.4995 28.2324C50.9239 28.2324 47.2024 31.9539 47.2024 36.5218C47.2024 38.6571 48.0184 40.6932 49.4978 42.2337C49.8235 42.5768 50.0873 42.952 50.3062 43.3448H38.1802L37.6212 40.4545C37.5035 39.8554 37.1969 39.3098 36.7463 38.8977C36.2957 38.4857 35.7248 38.229 35.1176 38.1652C34.9596 37.6899 34.6564 37.2762 34.2507 36.9824C33.845 36.6887 33.3574 36.5297 32.8565 36.5279H28.3953C27.7603 36.5289 27.1517 36.7816 26.7027 37.2306C26.2537 37.6796 26.001 38.2883 26 38.9232C26.0008 39.5583 26.2534 40.1671 26.7025 40.6161C27.1515 41.0651 27.7603 41.3177 28.3953 41.3186H32.8565C33.3433 41.3173 33.8182 41.1675 34.2177 40.8892C34.6172 40.611 34.9224 40.2175 35.0924 39.7613C35.5805 39.8727 35.977 40.2456 36.0762 40.7527L40.5435 63.8517C39.7276 63.9302 38.97 64.3093 38.418 64.9151C37.8659 65.521 37.5588 66.3105 37.5564 67.1301C37.5564 68.9527 39.0358 70.4245 40.8508 70.4245H44.0178C43.7075 70.7016 43.4589 71.0409 43.2883 71.4203C43.1176 71.7998 43.0287 72.2109 43.0272 72.6269C43.0272 74.2772 44.3709 75.6216 46.0219 75.6216C47.673 75.6216 49.0166 74.2772 49.0166 72.6269C49.0166 71.753 48.63 70.9721 48.0253 70.4245H60.6462C60.336 70.7017 60.0876 71.041 59.9171 71.4204C59.7465 71.7999 59.6577 72.2109 59.6564 72.6269C59.6574 73.4208 59.9732 74.182 60.5346 74.7434C61.096 75.3048 61.8571 75.6206 62.6511 75.6216C63.4449 75.6204 64.2058 75.3045 64.7671 74.7431C65.3283 74.1817 65.644 73.4207 65.645 72.6269C65.6436 72.2109 65.5546 71.7998 65.384 71.4203C65.2133 71.0409 64.9647 70.7016 64.6544 70.4245H68.5101C68.7184 70.4245 68.9182 70.3418 69.0655 70.1945C69.2128 70.0472 69.2956 69.8474 69.2956 69.639C69.2956 69.4307 69.2128 69.2309 69.0655 69.0836C68.9182 68.9363 68.7184 68.8536 68.5101 68.8536H40.8508C39.9052 68.8536 39.1273 68.0834 39.1273 67.1301C39.1273 66.1845 39.9052 65.4143 40.8508 65.4143H66.3138C68.4949 65.4143 70.4013 63.8586 70.8436 61.7233L73.9398 46.7688C74.3104 44.9981 72.9515 43.3448 71.1563 43.3448ZM50.596 41.1813C49.3934 39.9286 48.7236 38.2583 48.7276 36.5218C48.7276 32.7927 51.7628 29.7576 55.4995 29.7576C59.2286 29.7576 62.2637 32.7927 62.2637 36.5218C62.2637 38.2682 61.6002 39.923 60.3953 41.1813C59.7953 41.8087 59.3174 42.5423 58.9861 43.3448H56.0737V40.5765L58.2524 38.7944C58.5727 38.5198 58.6261 38.0394 58.3516 37.7191C58.2888 37.6416 58.2112 37.5773 58.1234 37.5299C58.0356 37.4825 57.9393 37.453 57.84 37.4431C57.7407 37.4331 57.6405 37.443 57.545 37.472C57.4496 37.5011 57.3608 37.5488 57.2839 37.6123L55.3126 39.2344L53.3413 37.6131C53.185 37.4857 52.9845 37.4254 52.7838 37.4455C52.5832 37.4655 52.3986 37.5643 52.2705 37.7201C52.1424 37.8759 52.0813 38.076 52.1005 38.2768C52.1197 38.4776 52.2176 38.6626 52.3728 38.7913L54.5462 40.5788V43.3448H51.9877C51.6615 42.5438 51.1896 41.8102 50.596 41.1813ZM72.3993 46.4485L69.3032 61.403C69.1593 62.0898 68.7838 62.7062 68.2396 63.1491C67.6954 63.5919 67.0155 63.8344 66.3138 63.8357H42.1472L38.5706 44.9157C58.3714 44.9157 50.7622 44.9195 71.1563 44.9157C71.9067 44.9157 72.5549 45.5929 72.3993 46.4485Z" fill="black"/>
<path d="M45.7867 48.0342C44.9402 48.0342 44.2539 48.7205 44.2539 49.5678V58.3376C44.2539 59.1841 44.9402 59.8704 45.7867 59.8704C46.6408 59.8704 47.3272 59.1841 47.3272 58.3376V49.5678C47.3272 48.7213 46.6408 48.0342 45.7867 48.0342ZM52.345 48.0342C51.4986 48.0342 50.8046 48.7205 50.8046 49.5678V58.3376C50.8046 59.1841 51.4986 59.8704 52.345 59.8704C53.1915 59.8704 53.8779 59.1841 53.8779 58.3376V49.5678C53.8779 48.7213 53.1915 48.0342 52.345 48.0342ZM58.8881 48.0342C58.0416 48.0342 57.3553 48.7205 57.3553 49.5678V58.3376C57.3553 59.1841 58.0416 59.8704 58.8881 59.8704C59.7346 59.8704 60.4285 59.1841 60.4285 58.3376V49.5678C60.4285 48.7213 59.7346 48.0342 58.8881 48.0342ZM65.4464 48.0342C64.5923 48.0342 63.906 48.7205 63.906 49.5678V58.3376C63.906 59.1841 64.5923 59.8704 65.4464 59.8704C66.2929 59.8704 66.9792 59.1841 66.9792 58.3376V49.5678C66.9792 48.7213 66.2929 48.0342 65.4464 48.0342Z" fill="black"/>
<defs>
<linearGradient id="paint0_linear_3269_34763" x1="11.809" y1="1.81213e-05" x2="100.05" y2="16.5617" gradientUnits="userSpaceOnUse">
<stop stop-color="#2EC4F3"/>
<stop offset="1" stop-color="#BFD633"/>
</linearGradient>
</defs>
</svg>
