<svg width="100" height="100" viewBox="0 0 100 100" fill="none" xmlns="http://www.w3.org/2000/svg">
<rect opacity="0.2" width="100" height="100" rx="20" fill="url(#paint0_linear_3052_29338)"/>
<path fill-rule="evenodd" clip-rule="evenodd" d="M29.1704 38.9787C29.4274 38.7217 29.8423 38.7217 30.0967 38.9787C30.3537 39.2357 30.3537 39.6506 30.0967 39.905L26.654 43.3477L30.0967 46.7904C30.3537 47.0474 30.3537 47.4623 30.0967 47.7167C29.8424 47.971 29.4247 47.971 29.1704 47.7167L25.2646 43.8108C25.0076 43.5538 25.0076 43.1389 25.2646 42.8845L29.1704 38.9787ZM36.2725 31.1214C36.9739 31.1214 37.5414 30.5539 37.5414 29.8524C37.5414 29.1511 36.9739 28.5835 36.2725 28.5835C35.5711 28.5835 35.0035 29.151 35.0035 29.8524C35.0035 30.5538 35.5711 31.1214 36.2725 31.1214ZM30.217 31.1214C30.9183 31.1214 31.4859 30.5539 31.4859 29.8524C31.4859 29.1511 30.9184 28.5835 30.217 28.5835C29.5156 28.5835 28.948 29.151 28.948 29.8524C28.948 30.5538 29.5155 31.1214 30.217 31.1214ZM24.4532 31.1214C25.1546 31.1214 25.7222 30.5539 25.7222 29.8524C25.7222 29.1511 25.1546 28.5835 24.4532 28.5835C23.7518 28.5835 23.1842 29.151 23.1842 29.8524C23.1842 30.5538 23.7518 31.1214 24.4532 31.1214ZM69.2032 67.9846C70.5471 67.9846 71.7625 67.4412 72.6433 66.5604C73.524 65.6797 74.0674 64.4643 74.0674 63.1204C74.0674 61.7766 73.524 60.5611 72.6433 59.6804C71.7625 58.7997 70.5471 58.2562 69.2032 58.2562C67.8594 58.2562 66.6439 58.7997 65.7632 59.6804C64.8825 60.5612 64.339 61.7766 64.339 63.1204C64.339 64.4643 64.8825 65.6797 65.7632 66.5604C66.644 67.4412 67.8594 67.9846 69.2032 67.9846ZM73.5695 67.4867C72.4505 68.603 70.9085 69.2964 69.2032 69.2964C67.4979 69.2964 65.9533 68.6057 64.8369 67.4867C63.7206 66.3704 63.0299 64.8257 63.0299 63.1204C63.0299 61.4151 63.7206 59.8704 64.8396 58.7541C65.9559 57.6377 67.5006 56.9444 69.2059 56.9444C70.9112 56.9444 72.4559 57.6351 73.5722 58.7541C74.6886 59.8704 75.3792 61.4151 75.3792 63.1204C75.3792 64.8257 74.6886 66.3704 73.5695 67.4867ZM71.6126 71.9494C71.4064 72.0056 71.2324 72.1609 71.1602 72.3777L70.4373 74.605H67.9691L67.2569 72.4152C67.198 72.1957 67.0294 72.011 66.7938 71.9467C66.4163 71.845 66.0523 71.7192 65.7043 71.5746C65.3536 71.43 65.0109 71.2614 64.6789 71.0713C64.4915 70.9589 64.2533 70.9428 64.0445 71.0472L61.9537 72.1127L60.2109 70.3699L61.2737 68.2818C61.37 68.0917 61.3727 67.8588 61.2576 67.658C61.1478 67.4679 61.0488 67.2778 60.9524 67.0824C60.9444 67.061 60.9337 67.0369 60.923 67.0182C60.8614 66.887 60.8025 66.7558 60.7463 66.622C60.6017 66.274 60.4759 65.9098 60.3742 65.5297C60.318 65.3236 60.1627 65.1495 59.9459 65.0773L57.7185 64.3544V61.8862L59.9084 61.174C60.1279 61.1151 60.3126 60.9465 60.3742 60.7109C60.4759 60.3334 60.6017 59.9667 60.7463 59.6214C60.8909 59.2707 61.0595 58.928 61.2496 58.596C61.362 58.4086 61.3781 58.1704 61.2737 57.9616L60.2082 55.8734L61.951 54.1306L64.0418 55.1961C64.2319 55.2925 64.4648 55.2952 64.6656 55.1801C65.0029 54.9873 65.3482 54.816 65.7042 54.6687C66.0523 54.5242 66.4164 54.3984 66.7938 54.2966C66.9999 54.2404 67.1739 54.0851 67.2462 53.8683L67.969 51.641H70.4373L71.1494 53.8308C71.2083 54.0503 71.377 54.2351 71.6126 54.2993C71.99 54.401 72.3541 54.5268 72.7021 54.6714C73.0528 54.816 73.3955 54.9846 73.7274 55.1747C73.9148 55.2871 74.1531 55.3032 74.3619 55.1988L76.45 54.1333L78.1928 55.8761L77.1273 57.9642C77.031 58.1543 77.0283 58.3872 77.1434 58.588C77.3362 58.9253 77.5075 59.2707 77.6547 59.6267C77.7993 59.9747 77.9251 60.3388 78.0268 60.719C78.0831 60.9251 78.2383 61.0991 78.4552 61.1714L80.6825 61.8942V64.3625L78.4927 65.0746C78.2731 65.1335 78.0884 65.3022 78.0268 65.5378C77.9251 65.9152 77.7993 66.2793 77.6547 66.6273C77.5102 66.978 77.3415 67.3207 77.1514 67.6526C77.039 67.84 77.0229 68.0783 77.1273 68.2871L78.1928 70.3752L76.45 72.118L74.3619 71.0552C74.1718 70.9588 73.9389 70.9562 73.7381 71.0713C73.4008 71.264 73.0555 71.4354 72.6995 71.5826C72.3541 71.7218 71.99 71.845 71.6126 71.9494ZM73.2054 72.7846C73.5053 72.6615 73.7971 72.525 74.0781 72.3751L76.2813 73.4967C76.541 73.6279 76.8462 73.5717 77.0416 73.3763L79.459 70.9589C79.6705 70.7474 79.708 70.4235 79.5688 70.1745L78.4578 67.9927C78.605 67.7116 78.7442 67.4198 78.8674 67.12C78.9905 66.8229 79.1003 66.5204 79.194 66.2152L81.5444 65.4522C81.8202 65.3612 81.9969 65.1069 81.9969 64.8284L81.9996 64.8311V61.4125C81.9996 61.1073 81.7907 60.8503 81.5043 60.778L79.194 60.0257C79.1003 59.7205 78.9878 59.418 78.8647 59.1182C78.7415 58.8184 78.6023 58.5266 78.4551 58.2455L79.5768 56.0423C79.708 55.7826 79.6517 55.4775 79.4563 55.282L77.0389 52.8646C76.8275 52.6532 76.5035 52.6157 76.2546 52.7549L74.0728 53.8659C73.789 53.716 73.4999 53.5794 73.2001 53.4563C72.9029 53.3331 72.6004 53.2234 72.2952 53.127L71.5322 50.7765C71.4412 50.5008 71.1842 50.3241 70.9085 50.3241H70.9112H69.8484V28.5244C69.8484 27.483 69.4227 26.538 68.74 25.8554C68.0547 25.1701 67.1097 24.7471 66.071 24.7471H21.53C20.4886 24.7471 19.5463 25.1727 18.861 25.8554C18.1757 26.5407 17.75 27.4857 17.75 28.5244V64.2068C17.75 65.2482 18.1757 66.1932 18.8583 66.8758C19.5436 67.5612 20.4887 67.9842 21.5273 67.9842H59.9435L59.9489 67.9922L58.8272 70.1954C58.696 70.4551 58.7523 70.7603 58.9477 70.9557L61.3651 73.3731C61.5765 73.5846 61.9005 73.622 62.1494 73.4828L64.3312 72.3718C64.615 72.5218 64.9041 72.6583 65.2039 72.7814C65.5011 72.9046 65.8036 73.0143 66.1088 73.1107L66.8718 75.4612C66.9628 75.7369 67.2171 75.9136 67.4955 75.9136V75.9163H70.9141C71.2193 75.9163 71.4763 75.7075 71.5486 75.421L72.2982 73.1107C72.6034 73.017 72.9056 72.9078 73.2054 72.7846ZM59.3652 66.6755C59.309 66.5229 59.2581 66.3704 59.2099 66.2151L56.8996 65.4655C56.6158 65.3932 56.4043 65.1362 56.4043 64.831V61.4124H56.407C56.407 61.1366 56.5837 60.8796 56.8594 60.7886L59.2099 60.0256C59.3036 59.7204 59.416 59.4179 59.5392 59.1181C59.6623 58.8183 59.8015 58.5265 59.9488 58.2454L58.8378 56.0636C58.6986 55.8146 58.7334 55.4907 58.9476 55.2792L61.3649 52.8619C61.5604 52.6664 61.8655 52.6102 62.1252 52.7414L64.3284 53.8631C64.6122 53.7158 64.9013 53.5766 65.2011 53.4535C65.4983 53.3303 65.8008 53.2206 66.106 53.1242L66.8583 50.8139C66.9305 50.5301 67.1875 50.3186 67.4927 50.3186H68.5368V34.9576H19.0621V64.2075C19.0621 64.8848 19.3405 65.5032 19.7876 65.9503C20.2346 66.3974 20.853 66.6758 21.5303 66.6758L59.3652 66.6755ZM19.0616 33.646V28.5248C19.0616 27.8475 19.34 27.2291 19.7871 26.782C20.2341 26.3349 20.8525 26.0565 21.5299 26.0565H66.0709C66.7482 26.0565 67.3666 26.3349 67.8137 26.782C68.2607 27.229 68.5392 27.8475 68.5392 28.5248V33.646H19.0616ZM48.3567 46.5337C47.9953 46.5337 47.7008 46.2392 47.7008 45.8778C47.7008 45.5164 47.9953 45.2219 48.3567 45.2219H58.0802C58.4416 45.2219 58.7361 45.5164 58.7361 45.8778C58.7361 46.2392 58.4416 46.5337 58.0802 46.5337H48.3567ZM48.3567 41.4767C47.9953 41.4767 47.7008 41.1822 47.7008 40.8208C47.7008 40.4594 47.9953 40.1649 48.3567 40.1649H60.1944C60.5558 40.1649 60.8503 40.4594 60.8503 40.8208C60.8503 41.1822 60.5558 41.4767 60.1944 41.4767H48.3567ZM25.4865 62.9735C25.1251 62.9735 24.8307 62.679 24.8307 62.3176C24.8307 61.9562 25.1251 61.6617 25.4865 61.6617H38.7031C39.0645 61.6617 39.359 61.9562 39.359 62.3176C39.359 62.679 39.0645 62.9735 38.7031 62.9735H25.4865ZM25.4865 57.9165C25.1251 57.9165 24.8307 57.622 24.8307 57.2606C24.8307 56.8992 25.1251 56.6047 25.4865 56.6047H41.5761C41.9375 56.6047 42.2319 56.8992 42.2319 57.2606C42.2319 57.622 41.9375 57.9165 41.5761 57.9165H25.4865ZM25.4865 52.8595C25.1251 52.8595 24.8307 52.565 24.8307 52.2036C24.8307 51.8422 25.1251 51.5477 25.4865 51.5477H35.9433C36.3047 51.5477 36.5992 51.8422 36.5992 52.2036C36.5992 52.565 36.3047 52.8595 35.9433 52.8595H25.4865ZM35.3437 39.9054C35.0893 39.651 35.0893 39.2334 35.3437 38.9791C35.6007 38.7221 36.0156 38.7221 36.2699 38.9791L40.1758 42.8849C40.4328 43.1419 40.4328 43.5569 40.1758 43.8112L36.2699 47.717C36.0129 47.9714 35.598 47.9714 35.3437 47.717C35.0893 47.46 35.0893 47.0451 35.3437 46.7907L38.7863 43.3481L35.3437 39.9054Z" fill="black"/>
<defs>
<linearGradient id="paint0_linear_3052_29338" x1="11.809" y1="1.81213e-05" x2="100.05" y2="16.5617" gradientUnits="userSpaceOnUse">
<stop stop-color="#2EC4F3"/>
<stop offset="1" stop-color="#BFD633"/>
</linearGradient>
</defs>
</svg>
