<svg width="100" height="100" viewBox="0 0 100 100" fill="none" xmlns="http://www.w3.org/2000/svg">
<rect opacity="0.2" width="100" height="100" rx="20" fill="url(#paint0_linear_3269_34701)"/>
<path d="M55.2363 26.5202L55.2365 26.5198C55.3386 26.3394 55.4759 26.1808 55.6406 26.0536C55.8053 25.9263 55.994 25.833 56.1957 25.7791C56.3974 25.7252 56.6079 25.712 56.8149 25.7402C57.0218 25.7684 57.2209 25.8374 57.4005 25.9431L57.4005 25.9431L65.3328 30.6114C65.3328 30.6114 65.3329 30.6115 65.333 30.6115C65.6859 30.8194 65.9422 31.1563 66.0478 31.5492C66.1534 31.9421 66.1003 32.3606 65.8995 32.7153L64.0469 35.9856L63.8102 36.4035L64.1035 36.7837C65.1274 38.1111 65.9618 39.5731 66.5831 41.1282L66.7648 41.5831L67.2546 41.5831L70.8728 41.5831C71.2893 41.5831 71.6881 41.7479 71.9818 42.0403C72.2753 42.3326 72.4396 42.7284 72.4396 43.1405L72.4396 44.8052L60.1194 44.8052C59.9459 42.4575 58.9323 40.2405 57.2503 38.5654C55.3967 36.7193 52.8832 35.6827 50.263 35.6827C47.6428 35.6827 45.1294 36.7193 43.2757 38.5654C41.5938 40.2405 40.5801 42.4575 40.4066 44.8052L28.0864 44.8052L28.0864 43.1428C28.0864 42.7307 28.2508 42.3349 28.5443 42.0426C28.8379 41.7502 29.2368 41.5854 29.6533 41.5854L33.276 41.5854L33.7661 41.5854L33.9477 41.1301C34.568 39.5749 35.4023 38.1129 36.4268 36.7863L36.7207 36.4058L36.4835 35.9876L34.6289 32.7176C34.428 32.3629 34.3749 31.9444 34.4805 31.5515C34.5862 31.1585 34.8425 30.8216 35.1956 30.6137L35.1957 30.6136L43.1256 25.9408C43.3052 25.8351 43.5042 25.7661 43.7112 25.7379C43.9181 25.7097 44.1287 25.723 44.3303 25.7768C44.532 25.8307 44.7207 25.924 44.8854 26.0513C45.0501 26.1785 45.1875 26.3371 45.2895 26.5175L45.2896 26.5177L47.1102 29.7333L47.3544 30.1647L47.8448 30.0925C48.6624 29.9721 49.4699 29.9132 50.263 29.9132C51.0561 29.9132 51.8636 29.9721 52.6812 30.0925L53.1715 30.1647L53.4158 29.7335L55.2363 26.5202Z" stroke="black" stroke-width="1.4463"/>
<path d="M25 44.8643H44" stroke="black" stroke-width="1.5" stroke-linecap="round"/>
<path d="M56 44.8643H75" stroke="black" stroke-width="1.5" stroke-linecap="round"/>
<path d="M50 44.8643H50.1" stroke="black" stroke-width="1.5" stroke-linecap="round"/>
<path d="M34.6 68.6043C33.416 68.6043 32.312 68.3883 31.288 67.9563C30.28 67.5243 29.4 66.9163 28.648 66.1323C27.896 65.3483 27.312 64.4443 26.896 63.4203C26.496 62.3803 26.296 61.2683 26.296 60.0843C26.296 58.9003 26.496 57.7963 26.896 56.7723C27.312 55.7323 27.888 54.8283 28.624 54.0603C29.376 53.2923 30.256 52.6923 31.264 52.2603C32.272 51.8283 33.36 51.6123 34.528 51.6123C35.792 51.6123 36.92 51.8363 37.912 52.2843C38.92 52.7323 39.8 53.3483 40.552 54.1323L39.352 55.3323C38.776 54.6923 38.08 54.1963 37.264 53.8443C36.448 53.4763 35.536 53.2923 34.528 53.2923C33.6 53.2923 32.744 53.4603 31.96 53.7963C31.192 54.1323 30.512 54.6123 29.92 55.2363C29.344 55.8443 28.896 56.5643 28.576 57.3963C28.272 58.2123 28.12 59.1083 28.12 60.0843C28.12 61.0603 28.28 61.9643 28.6 62.7963C28.92 63.6283 29.368 64.3563 29.944 64.9803C30.52 65.5883 31.2 66.0603 31.984 66.3963C32.768 66.7323 33.624 66.9003 34.552 66.9003C35.608 66.9003 36.544 66.7163 37.36 66.3483C38.192 65.9803 38.896 65.4763 39.472 64.8363L40.672 66.0603C39.936 66.8443 39.056 67.4683 38.032 67.9323C37.008 68.3803 35.864 68.6043 34.6 68.6043ZM43.7526 68.3643V51.8523H45.0006L52.1286 63.5403H51.2406L58.3686 51.8523H59.6166V68.3643H57.8406V54.9243L58.2486 55.0203L52.2966 64.7883H51.0486L45.0966 55.0203L45.5046 54.9243V68.3643H43.7526ZM68.047 68.6043C66.767 68.6043 65.663 68.3643 64.735 67.8843C63.807 67.3883 62.991 66.7003 62.287 65.8203L63.511 64.6203C64.071 65.4043 64.719 65.9883 65.455 66.3723C66.207 66.7563 67.095 66.9483 68.119 66.9483C69.175 66.9483 70.031 66.7083 70.687 66.2283C71.343 65.7483 71.671 65.0843 71.671 64.2363C71.671 63.5803 71.519 63.0443 71.215 62.6283C70.911 62.1963 70.511 61.8523 70.015 61.5963C69.535 61.3243 68.999 61.0843 68.407 60.8763C67.815 60.6683 67.223 60.4523 66.631 60.2283C66.055 59.9883 65.519 59.6923 65.023 59.3403C64.527 58.9883 64.127 58.5403 63.823 57.9963C63.535 57.4523 63.391 56.7563 63.391 55.9083C63.391 55.0123 63.607 54.2443 64.039 53.6043C64.471 52.9643 65.063 52.4763 65.815 52.1403C66.567 51.7883 67.423 51.6123 68.383 51.6123C69.455 51.6123 70.407 51.8203 71.239 52.2363C72.087 52.6523 72.791 53.2123 73.351 53.9163L72.151 55.1163C71.639 54.5083 71.079 54.0443 70.471 53.7243C69.863 53.4043 69.151 53.2443 68.335 53.2443C67.375 53.2443 66.607 53.4683 66.031 53.9163C65.455 54.3643 65.167 54.9883 65.167 55.7883C65.167 56.4123 65.311 56.9163 65.599 57.3003C65.903 57.6843 66.303 58.0043 66.799 58.2603C67.295 58.5163 67.831 58.7483 68.407 58.9563C68.999 59.1483 69.591 59.3643 70.183 59.6043C70.775 59.8443 71.311 60.1483 71.791 60.5163C72.287 60.8843 72.687 61.3563 72.991 61.9323C73.295 62.4923 73.447 63.2123 73.447 64.0923C73.447 65.5163 72.959 66.6283 71.983 67.4283C71.023 68.2123 69.711 68.6043 68.047 68.6043Z" fill="black"/>
<defs>
<linearGradient id="paint0_linear_3269_34701" x1="11.809" y1="1.81213e-05" x2="100.05" y2="16.5617" gradientUnits="userSpaceOnUse">
<stop stop-color="#2EC4F3"/>
<stop offset="1" stop-color="#BFD633"/>
</linearGradient>
</defs>
</svg>
