<svg width="80" height="80" viewBox="0 0 80 80" fill="none" xmlns="http://www.w3.org/2000/svg">
<mask id="mask0_7962_31124" style="mask-type:alpha" maskUnits="userSpaceOnUse" x="-1" y="-1" width="82" height="82">
<rect width="80" height="80" fill="white" stroke="white" stroke-width="2"/>
</mask>
<g mask="url(#mask0_7962_31124)">
<path d="M33.8222 51.2226V69.4326C33.8222 71.6726 32.0022 73.4926 29.7622 73.4926H12.6322C9.79219 73.4926 7.49219 71.1926 7.49219 68.3526V51.2226C7.49219 48.9826 9.31219 47.1626 11.5522 47.1626H29.7622C32.0022 47.1626 33.8222 48.9826 33.8222 51.2226Z" stroke="black" stroke-width="3" stroke-miterlimit="10" stroke-linecap="round"/>
<path d="M33.8222 51.2226V69.4326C33.8222 71.6726 32.0022 73.4926 29.7622 73.4926H12.6322C9.79219 73.4926 7.49219 71.1926 7.49219 68.3526V51.2226C7.49219 48.9826 9.31219 47.1626 11.5522 47.1626H29.7622C32.0022 47.1626 33.8222 48.9826 33.8222 51.2226Z" stroke="black" stroke-width="3" stroke-miterlimit="10" stroke-linecap="round"/>
<path d="M33.8222 51.2226V69.4326C33.8222 71.6726 32.0022 73.4926 29.7622 73.4926H12.6322C9.79219 73.4926 7.49219 71.1926 7.49219 68.3526V51.2226C7.49219 48.9826 9.31219 47.1626 11.5522 47.1626H29.7622C32.0022 47.1626 33.8222 48.9826 33.8222 51.2226Z" stroke="black" stroke-width="3" stroke-miterlimit="10" stroke-linecap="round"/>
<path d="M7.49219 40.0627V12.6327C7.49219 9.79268 9.79219 7.49268 12.6322 7.49268H68.3522C71.1922 7.49268 73.4922 9.79268 73.4922 12.6327V68.3527C73.4922 71.1927 71.1922 73.4927 68.3522 73.4927H40.9222" stroke="black" stroke-width="3" stroke-miterlimit="10" stroke-linecap="round"/>
<path d="M38.9037 39.4207C38.3118 40.0003 38.3017 40.95 38.8813 41.5419C39.4609 42.1339 40.4106 42.1439 41.0025 41.5644L38.9037 39.4207ZM58.173 24.1384C58.1818 23.31 57.5174 22.6314 56.689 22.6226L43.1897 22.4799C42.3614 22.4711 41.6827 23.1355 41.674 23.9639C41.6652 24.7923 42.3296 25.4709 43.158 25.4797L55.1573 25.6066L55.0304 37.6059C55.0217 38.4343 55.6861 39.113 56.5145 39.1217C57.3429 39.1305 58.0215 38.466 58.0303 37.6377L58.173 24.1384ZM41.0025 41.5644L57.7225 25.1944L55.6237 23.0507L38.9037 39.4207L41.0025 41.5644Z" fill="black"/>
</g>
</svg>
