<svg width="80" height="80" viewBox="0 0 80 80" fill="none" xmlns="http://www.w3.org/2000/svg">
<mask id="mask0_7962_6474" style="mask-type:alpha" maskUnits="userSpaceOnUse" x="-1" y="-1" width="82" height="82">
<rect width="80" height="80" fill="white" stroke="white" stroke-width="2"/>
</mask>
<g mask="url(#mask0_7962_6474)">
<path d="M36.65 67.9996H17.1499C12.0501 67.9996 7.99382 65.5181 4.35178 62.0483C-3.1039 54.9452 9.13725 49.2688 13.806 46.4888C21.2291 42.0688 30.0055 40.6457 38.3 42.2194" stroke="black" stroke-width="3" stroke-linecap="round" stroke-linejoin="round"/>
<path d="M46.5516 16.85C46.5516 25.0514 39.903 31.7 31.7016 31.7C23.5001 31.7 16.8516 25.0514 16.8516 16.85C16.8516 8.64857 23.5001 2 31.7016 2C39.903 2 46.5516 8.64857 46.5516 16.85Z" stroke="black" stroke-width="3"/>
<path d="M57.082 43.5059L59.405 48.1902C59.7218 48.8423 60.5665 49.4677 61.2792 49.5875L65.4895 50.2928C68.182 50.7453 68.8155 52.7148 66.8754 54.6577L63.6021 57.958C63.0478 58.5169 62.7442 59.5948 62.9158 60.3667L63.8529 64.4521C64.592 67.6859 62.8894 68.9368 60.0517 67.2467L56.1054 64.8913C55.3926 64.4654 54.218 64.4654 53.492 64.8913L49.5457 67.2467C46.7212 68.9368 45.0054 67.6725 45.7445 64.4521L46.6816 60.3667C46.8532 59.5948 46.5496 58.5169 45.9953 57.958L42.722 54.6577C40.795 52.7148 41.4154 50.7453 44.1079 50.2928L48.3182 49.5875C49.0177 49.4677 49.8624 48.8423 50.1792 48.1902L52.5021 43.5059C53.7692 40.9642 55.8282 40.9642 57.082 43.5059Z" stroke="black" stroke-width="3" stroke-linecap="round" stroke-linejoin="round"/>
</g>
</svg>
