<svg width="80" height="80" viewBox="0 0 80 80" fill="none" xmlns="http://www.w3.org/2000/svg">
<mask id="mask0_7962_15794" style="mask-type:alpha" maskUnits="userSpaceOnUse" x="-1" y="-1" width="82" height="82">
<rect width="80" height="80" fill="white" stroke="white" stroke-width="2"/>
</mask>
<g mask="url(#mask0_7962_15794)">
<path d="M27.5703 57.4638L36.0953 64.0638C37.1953 65.1638 39.6703 65.7138 41.3203 65.7138H51.7703C55.0703 65.7138 58.6453 63.2388 59.4703 59.9388L66.0703 39.8638C67.4453 36.0138 64.9703 32.7138 60.8453 32.7138H49.8453C48.1953 32.7138 46.8203 31.3388 47.0953 29.4138L48.4703 20.6138C49.0203 18.1388 47.3703 15.3888 44.8953 14.5638C42.6953 13.7388 39.9453 14.8388 38.8453 16.4888L27.5703 33.2638" stroke="black" stroke-width="3" stroke-miterlimit="10"/>
<path d="M13.5469 57.4641V30.5141C13.5469 26.6641 15.1969 25.2891 19.0469 25.2891H21.7969C25.6469 25.2891 27.2969 26.6641 27.2969 30.5141V57.4641C27.2969 61.3141 25.6469 62.6891 21.7969 62.6891H19.0469C15.1969 62.6891 13.5469 61.3141 13.5469 57.4641Z" stroke="black" stroke-width="3" stroke-linecap="round" stroke-linejoin="round"/>
</g>
</svg>
