<svg width="357" height="174" viewBox="0 0 357 174" fill="none" xmlns="http://www.w3.org/2000/svg">
<path d="M2.36037 88.76C1.27965 88.6574 0.698246 88.6574 0.691406 88.6574V87.9734C0.691406 87.9734 1.31385 87.9734 2.42877 88.0828L2.36037 88.76Z" fill="#263238"/>
<path d="M86.5128 114.889C85.3774 114.889 84.2374 114.868 83.0928 114.827V114.143C84.2488 114.143 85.3979 114.198 86.5128 114.205V114.889ZM89.9328 114.889V114.205C91.1025 114.205 92.2516 114.157 93.3528 114.109V114.793C92.2858 114.841 91.1367 114.889 89.9534 114.889H89.9328ZM79.5976 114.704C78.4622 114.649 77.313 114.574 76.1776 114.485L76.2323 113.801C77.3814 113.89 78.5237 113.965 79.6523 114.02L79.5976 114.704ZM96.8207 114.622L96.7797 113.938C97.9767 113.863 99.1121 113.774 100.2 113.678L100.261 114.362C99.1874 114.465 98.0451 114.547 96.8412 114.622H96.8207ZM72.7439 114.205C71.588 114.082 70.4388 113.952 69.3239 113.808L69.4128 113.124C70.5278 113.268 71.67 113.398 72.8328 113.514L72.7439 114.205ZM65.9039 113.315C64.7616 113.131 63.6194 112.932 62.4839 112.72L62.607 112.036C63.7151 112.248 64.8506 112.447 65.986 112.625L65.9039 113.315ZM59.1323 112.009C57.9969 111.749 56.8683 111.469 55.7807 111.175L55.9585 110.491C57.0393 110.778 58.1542 111.058 59.2828 111.318L59.1323 112.009ZM52.4702 110.203C51.3552 109.848 50.254 109.465 49.2075 109.075L49.4469 108.432C50.4866 108.822 51.5741 109.198 52.6822 109.547L52.4702 110.203ZM45.9927 107.755C44.9256 107.283 43.8723 106.783 42.8736 106.263L43.1883 105.655C44.1732 106.168 45.2403 106.66 46.2731 107.125L45.9927 107.755ZM39.8367 104.56C39.2895 104.218 38.7423 103.876 38.2156 103.507L36.957 102.666L37.3332 102.091L38.5986 102.939C39.1185 103.295 39.652 103.623 40.1992 103.979L39.8367 104.56ZM34.0706 100.812C33.0993 100.21 32.1075 99.6218 31.1293 99.0541L31.4713 98.4658C32.4563 99.0336 33.455 99.6286 34.4331 100.231L34.0706 100.812ZM28.1334 97.392C27.1211 96.8516 26.0814 96.3249 25.0828 95.8324L25.3838 95.2168C26.4029 95.7162 27.4358 96.2428 28.4549 96.79L28.1334 97.392ZM21.9774 94.3892C20.9309 93.9241 19.8707 93.4795 18.8174 93.0691L19.0704 92.433C20.1306 92.8502 21.1977 93.2948 22.2579 93.7668L21.9774 94.3892ZM15.6094 91.8721C14.5218 91.4959 13.4274 91.1402 12.3536 90.8256L12.5519 90.1416C13.6326 90.463 14.7407 90.8256 15.8351 91.2018L15.6094 91.8721ZM9.05667 89.9432C7.92123 89.6628 6.79263 89.4302 5.71875 89.2592L5.83503 88.5752C6.92943 88.7736 8.06487 89.013 9.25503 89.2592L9.05667 89.9432Z" fill="#263238"/>
<path d="M103.716 114.013L103.641 113.329C104.229 113.261 104.79 113.186 105.323 113.11L105.419 113.794C104.879 113.87 104.311 113.945 103.716 114.013Z" fill="#263238"/>
<path d="M104.967 116.927L110.193 112.543L103.784 110.21L104.967 116.927Z" fill="#263238"/>
<path d="M1.29276 12.8017L0 11.6868L0.45144 11.1738L1.73736 12.2887L1.29276 12.8017Z" fill="#263238"/>
<path d="M104.694 83.5478C103.702 83.1716 102.642 82.7544 101.431 82.2756L101.691 81.6394C102.867 82.1182 103.948 82.5355 104.933 82.9048L104.694 83.5478ZM98.2025 80.9349C97.1901 80.5108 96.1208 80.0548 94.9945 79.5669L95.2681 78.9376C96.3944 79.4347 97.4615 79.8907 98.4692 80.3056L98.2025 80.9349ZM91.8207 78.11L88.647 76.6394L88.9411 76.017C90.0423 76.5368 91.0957 77.0224 92.108 77.4876L91.8207 78.11ZM85.4938 75.1346L82.5662 73.7119L82.3542 73.6093L82.6552 72.9937L82.8672 73.0963L85.7947 74.519L85.4938 75.1346ZM79.242 71.9745C78.2844 71.4478 77.2584 70.8596 76.1982 70.2303L76.547 69.6421C77.6004 70.2645 78.599 70.8459 79.5772 71.3726L79.242 71.9745ZM73.2091 68.4109C72.2447 67.809 71.2529 67.1797 70.2542 66.5299L70.6236 65.9553C71.6222 66.6028 72.6049 67.2276 73.5716 67.8295L73.2091 68.4109ZM67.3267 64.601C66.3782 63.9672 65.4138 63.3128 64.4334 62.6379L64.8233 62.0702C65.7945 62.7405 66.7567 63.3949 67.7097 64.0333L67.3267 64.601ZM61.5606 60.6406C60.6167 59.9794 59.6659 59.2954 58.7083 58.5886L59.105 58.0346L61.9505 60.0866L61.5606 60.6406ZM55.8697 56.5366L53.0516 54.4846L53.462 53.9374L56.2733 55.9894L55.8697 56.5366ZM50.2472 52.3711C49.317 51.6871 48.3867 51.0031 47.4565 50.2644L47.8669 49.724C48.7971 50.408 49.7274 51.133 50.6576 51.8239L50.2472 52.3711ZM44.6248 48.1713L41.8888 46.0304L42.306 45.49C43.2294 46.174 44.1528 46.9196 45.0762 47.6241L44.6248 48.1713ZM39.1528 43.8895L36.4168 41.728L36.8408 41.1877L39.5768 43.3491L39.1528 43.8895ZM33.6807 39.5529L30.9447 37.3778L31.3688 36.8443L34.1048 39.0194L33.6807 39.5529ZM28.2087 35.1822L25.4727 32.9865L25.9037 32.453L28.6397 34.6486L28.2087 35.1822ZM22.7367 30.7567L20.0007 28.5337L20.4317 28.007L23.1677 30.2232L22.7367 30.7567ZM17.3331 26.3107L14.645 24.074L15.0828 23.5473L17.7709 25.784L17.3331 26.3107ZM11.9637 21.8647L9.28247 19.6143L9.72707 19.0945L12.4015 21.3448L11.9637 21.8647ZM6.60803 17.3571C5.62307 16.5226 4.72703 15.7634 3.94043 15.0862L4.38503 14.5664L7.05263 16.8373L6.60803 17.3571Z" fill="#263238"/>
<path d="M109.502 85.2031C109.009 85.0526 108.462 84.8748 107.867 84.6764L108.086 83.9924C108.674 84.1908 109.215 84.3618 109.707 84.5191L109.502 85.2031Z" fill="#263238"/>
<path d="M107.84 87.8911L114.386 85.9828L109.461 81.2632L107.84 87.8911Z" fill="#263238"/>
<path d="M3.74906 155.012C2.63414 154.91 2.03906 154.821 2.03906 154.821L2.14166 154.137C2.14166 154.137 2.7299 154.219 3.81746 154.328L3.74906 155.012Z" fill="#263238"/>
<path d="M13.8448 155.361V154.677C14.9324 154.677 16.061 154.629 17.1896 154.581V155.265C16.0747 155.313 14.9461 155.347 13.8448 155.361ZM10.4795 155.361C9.33042 155.361 8.19498 155.306 7.11426 155.251L7.14846 154.567C8.22234 154.622 9.3441 154.663 10.4932 154.677L10.4795 155.361ZM20.5754 155.067L20.5275 154.383C21.6287 154.308 22.7505 154.205 23.8586 154.096L23.927 154.78C22.8121 154.889 21.6835 154.985 20.5754 155.067ZM27.2717 154.383L27.1828 153.699C28.2909 153.555 29.4058 153.398 30.5002 153.227L30.6028 153.911C29.5016 154.096 28.3798 154.253 27.2717 154.396V154.383ZM33.9271 153.35L33.8039 152.666C34.8778 152.468 35.9722 152.256 37.0871 152.016L37.2239 152.7C36.109 152.946 35.0078 153.193 33.9271 153.364V153.35ZM40.5071 151.982L40.3498 151.298C41.4305 151.038 42.5249 150.758 43.592 150.47L43.7698 151.154C42.6959 151.428 41.6015 151.708 40.5208 151.968L40.5071 151.982ZM47.012 150.231L46.8136 149.547C47.8738 149.232 48.9477 148.863 50.0079 148.541L50.2199 149.191C49.1597 149.554 48.079 149.896 47.012 150.217V150.231ZM53.4005 148.124L53.1748 147.481C54.2145 147.105 55.2679 146.708 56.3007 146.298L56.5538 146.934C55.5141 147.331 54.4539 147.721 53.4005 148.111V148.124ZM59.6728 145.669L59.4061 145.039C60.4252 144.608 61.4581 144.15 62.4704 143.671L62.7508 144.294C61.7248 144.752 60.692 145.21 59.6728 145.669ZM65.8288 142.857L65.521 142.242C66.2369 141.886 66.9551 141.524 67.6756 141.154L68.5033 140.716L68.8247 141.325L67.9903 141.756C67.1968 142.112 66.5128 142.481 65.7878 142.837L65.8288 142.857ZM71.8001 139.773L71.4787 139.164L74.4541 137.611L74.7755 138.22L71.8001 139.773ZM77.7509 136.66L77.4295 136.058L80.4049 134.499L80.7195 135.108L77.7509 136.66ZM83.6949 133.548L83.3734 132.939L86.342 131.38L86.6635 131.982L83.6949 133.548Z" fill="#263238"/>
<path d="M90.7865 128.993L89.2744 129.791L89.5938 130.396L91.1059 129.598L90.7865 128.993Z" fill="#263238"/>
<path d="M91.6425 132.755L95.2814 126.989L88.4688 126.715L91.6425 132.755Z" fill="#263238"/>
<path d="M65.7234 38.3374H61.2021V54.172H65.7234V38.3374Z" fill="#263238"/>
<path d="M66.0724 54.514H60.8604V37.9954H66.0724V54.514ZM61.5444 53.83H65.3884V38.6794H61.5444V53.83Z" fill="#263238"/>
<path d="M73.6443 29.8079H69.123V54.1719H73.6443V29.8079Z" fill="#BFD633"/>
<path d="M73.6445 54.5141H69.1232C69.0325 54.5141 68.9456 54.4781 68.8814 54.414C68.8173 54.3499 68.7812 54.2628 68.7812 54.1721V29.8081C68.7812 29.7174 68.8173 29.6304 68.8814 29.5662C68.9456 29.5021 69.0325 29.4661 69.1232 29.4661H73.6445C73.7352 29.4661 73.8222 29.5021 73.8863 29.5662C73.9505 29.6304 73.9865 29.7174 73.9865 29.8081V54.1721C73.9865 54.2628 73.9505 54.3499 73.8863 54.414C73.8222 54.4781 73.7352 54.5141 73.6445 54.5141ZM69.4652 53.8301H73.3025V30.1501H69.4652V53.8301Z" fill="#263238"/>
<path d="M81.5583 43.105H77.0371V54.1721H81.5583V43.105Z" fill="#263238"/>
<path d="M81.9006 54.5141H76.6953V42.7629H81.9006V54.5141ZM77.3793 53.8301H81.2166V43.4469H77.3793V53.8301Z" fill="#263238"/>
<path d="M89.4724 30.998H84.9512V54.1719H89.4724V30.998Z" fill="#BFD633"/>
<path d="M89.4716 54.5139H84.9504C84.8602 54.5122 84.7743 54.4756 84.7105 54.4118C84.6467 54.3481 84.6101 54.2621 84.6084 54.1719V30.998C84.6084 30.9073 84.6444 30.8203 84.7086 30.7562C84.7727 30.692 84.8597 30.656 84.9504 30.656H89.4716C89.5623 30.656 89.6493 30.692 89.7135 30.7562C89.7776 30.8203 89.8136 30.9073 89.8136 30.998V54.1719C89.8136 54.2626 89.7776 54.3496 89.7135 54.4138C89.6493 54.4779 89.5623 54.5139 89.4716 54.5139ZM85.2924 53.8299H89.1433V31.3537H85.3061L85.2924 53.8299Z" fill="#263238"/>
<path d="M59.082 28.823H55.9082V29.507H59.082V28.823Z" fill="#263238"/>
<path d="M59.082 32.3936H55.9082V33.0776H59.082V32.3936Z" fill="#263238"/>
<path d="M59.082 35.9639H55.9082V36.6479H59.082V35.9639Z" fill="#263238"/>
<path d="M59.082 39.5413H55.9082V40.2253H59.082V39.5413Z" fill="#263238"/>
<path d="M59.082 43.1118H55.9082V43.7958H59.082V43.1118Z" fill="#263238"/>
<path d="M59.082 46.6824H55.9082V47.3664H59.082V46.6824Z" fill="#263238"/>
<path d="M59.082 50.2529H55.9082V50.9369H59.082V50.2529Z" fill="#263238"/>
<path d="M59.082 53.8301H55.9082V54.5141H59.082V53.8301Z" fill="#263238"/>
<path d="M62.5091 34.5616L62.0098 34.0897L72.2219 23.2688L79.3492 33.3715L86.3944 25.1293L86.9142 25.5739L79.3013 34.4796L72.1398 24.3427L62.5091 34.5616Z" fill="#263238"/>
<path d="M88.5968 28.3238L89.8417 21.6206L83.4121 23.8983L88.5968 28.3238Z" fill="#263238"/>
<path d="M28.7892 113.07H0.649414V148.631H28.7892V113.07Z" fill="#263238"/>
<path d="M29.1314 148.973H0.307617V112.721H29.1314V148.973ZM0.991617 148.289H28.4474V113.405H0.991617V148.289Z" fill="#263238"/>
<path d="M30.4855 111.681H2.3457V147.242H30.4855V111.681Z" fill="#2EC4F3"/>
<path d="M30.4857 147.591H2.34591C2.2552 147.591 2.16821 147.555 2.10408 147.491C2.03994 147.427 2.00391 147.34 2.00391 147.249V111.681C2.00391 111.59 2.03994 111.503 2.10408 111.439C2.16821 111.375 2.2552 111.339 2.34591 111.339H30.4857C30.5764 111.339 30.6634 111.375 30.7275 111.439C30.7916 111.503 30.8277 111.59 30.8277 111.681V147.249C30.8277 147.34 30.7916 147.427 30.7275 147.491C30.6634 147.555 30.5764 147.591 30.4857 147.591ZM2.68791 146.907H30.1437V112.023H2.68791V146.907Z" fill="#263238"/>
<path d="M24.9185 121.544H7.59961V122.228H24.9185V121.544Z" fill="#263238"/>
<path d="M24.9185 127.112H7.59961V127.796H24.9185V127.112Z" fill="#263238"/>
<path d="M24.9185 132.68H7.59961V133.364H24.9185V132.68Z" fill="#263238"/>
<path d="M24.9185 138.248H7.59961V138.932H24.9185V138.248Z" fill="#263238"/>
<path d="M28.2632 110.518C26.465 110.517 24.7068 111.049 23.211 112.047C21.7152 113.045 20.549 114.464 19.8599 116.125C19.1709 117.786 18.9899 119.614 19.3399 121.378C19.6898 123.141 20.5551 124.762 21.8261 126.034C23.0971 127.306 24.7169 128.172 26.4804 128.524C28.244 128.875 30.0721 128.695 31.7335 128.007C33.395 127.32 34.8151 126.155 35.8143 124.659C36.8134 123.164 37.3467 121.407 37.3467 119.608C37.3467 117.199 36.3899 114.888 34.6867 113.183C32.9834 111.478 30.6729 110.52 28.2632 110.518ZM28.2632 126.749C26.8509 126.749 25.4702 126.331 24.2959 125.546C23.1216 124.761 22.2063 123.646 21.6658 122.341C21.1254 121.036 20.9839 119.601 21.2595 118.215C21.535 116.83 22.2151 115.558 23.2138 114.559C24.2125 113.56 25.4849 112.88 26.8701 112.605C28.2553 112.329 29.6911 112.471 30.9959 113.011C32.3008 113.552 33.4161 114.467 34.2007 115.641C34.9854 116.815 35.4042 118.196 35.4042 119.608C35.4042 120.546 35.2195 121.475 34.8606 122.341C34.5017 123.208 33.9757 123.995 33.3126 124.658C32.6495 125.321 31.8623 125.847 30.9959 126.206C30.1296 126.565 29.201 126.749 28.2632 126.749Z" fill="#263238"/>
<path d="M28.2624 129.034C26.3963 129.036 24.5717 128.483 23.0195 127.447C21.4673 126.411 20.2573 124.938 19.5426 123.215C18.8278 121.491 18.6404 119.594 19.0042 117.763C19.3679 115.933 20.2664 114.252 21.5859 112.932C22.9055 111.613 24.5868 110.714 26.4171 110.35C28.2475 109.987 30.1446 110.174 31.8684 110.889C33.5922 111.603 35.0653 112.814 36.1012 114.366C37.1371 115.918 37.6893 117.743 37.688 119.609C37.6843 122.107 36.6901 124.503 34.9233 126.269C33.1565 128.036 30.7611 129.031 28.2624 129.034ZM28.2624 110.86C26.5319 110.859 24.8398 111.371 23.4003 112.331C21.9607 113.292 20.8383 114.658 20.1751 116.256C19.5119 117.854 19.3377 119.614 19.6745 121.311C20.0113 123.009 20.844 124.568 22.0672 125.792C23.2904 127.016 24.8492 127.85 26.5464 128.188C28.2436 128.527 30.0029 128.354 31.6019 127.692C33.2008 127.03 34.5675 125.908 35.5291 124.47C36.4907 123.031 37.004 121.339 37.004 119.609C37.0004 117.291 36.0784 115.069 34.4401 113.429C32.8017 111.789 30.5804 110.866 28.2624 110.86ZM28.2624 127.092C26.7819 127.094 25.3338 126.658 24.1014 125.837C22.869 125.017 21.9078 123.849 21.3393 122.482C20.7709 121.115 20.6207 119.61 20.9079 118.157C21.1951 116.705 21.9067 115.37 22.9527 114.322C23.9986 113.274 25.3319 112.56 26.7839 112.27C28.2358 111.981 29.7411 112.128 31.1092 112.694C32.4773 113.26 33.6468 114.219 34.4697 115.45C35.2925 116.681 35.7317 118.128 35.7317 119.609C35.7299 121.59 34.9428 123.491 33.5429 124.893C32.1429 126.296 30.2441 127.086 28.2624 127.092ZM28.2624 112.81C26.9172 112.807 25.6013 113.203 24.4814 113.949C23.3615 114.694 22.488 115.755 21.9713 116.997C21.4546 118.239 21.318 119.607 21.5788 120.927C21.8396 122.246 22.486 123.459 23.4363 124.411C24.3866 125.364 25.5981 126.012 26.9173 126.276C28.2366 126.539 29.6043 126.406 30.8474 125.891C32.0906 125.377 33.1533 124.506 33.9009 123.387C34.6486 122.269 35.0477 120.954 35.0477 119.609C35.0387 117.813 34.3205 116.094 33.0496 114.826C31.7787 113.557 30.058 112.842 28.2624 112.837V112.81Z" fill="#263238"/>
<path d="M49.6655 132.098C49.4072 132.099 49.1522 132.04 48.9199 131.927L35.0484 125.149C34.6412 124.949 34.3299 124.596 34.183 124.167C34.0361 123.738 34.0657 123.268 34.2652 122.861C34.4648 122.454 34.818 122.142 35.247 121.995C35.6761 121.849 36.146 121.878 36.5532 122.078L50.4111 128.849C50.76 129.018 51.0411 129.301 51.2084 129.651C51.3756 130 51.4191 130.396 51.3316 130.774C51.2442 131.152 51.031 131.489 50.727 131.729C50.423 131.97 50.0463 132.1 49.6587 132.098H49.6655Z" fill="#263238"/>
<path d="M59.5002 81.5574H81.8533C82.3255 81.5565 82.7931 81.6487 83.2296 81.8288C83.6661 82.0088 84.0628 82.2732 84.3969 82.6067C84.7311 82.9403 84.9963 83.3365 85.1771 83.7726C85.358 84.2087 85.4511 84.6762 85.4511 85.1484V98.6779C85.4511 99.1501 85.358 99.6176 85.1771 100.054C84.9963 100.49 84.7311 100.886 84.3969 101.22C84.0628 101.553 83.6661 101.817 83.2296 101.998C82.7931 102.178 82.3255 102.27 81.8533 102.269H79.8834L75.6563 108.692L75.1638 102.269H59.5002C59.028 102.27 58.5603 102.178 58.1239 101.998C57.6874 101.817 57.2907 101.553 56.9565 101.22C56.6224 100.886 56.3572 100.49 56.1763 100.054C55.9955 99.6176 55.9023 99.1501 55.9023 98.6779V85.1484C55.9023 84.6762 55.9955 84.2087 56.1763 83.7726C56.3572 83.3365 56.6224 82.9403 56.9565 82.6067C57.2907 82.2732 57.6874 82.0088 58.1239 81.8288C58.5603 81.6487 59.028 81.5565 59.5002 81.5574Z" fill="#263238"/>
<path d="M75.4034 109.718L74.8562 102.611H59.5004C58.4578 102.609 57.4585 102.194 56.7213 101.457C55.9841 100.72 55.5692 99.7204 55.5674 98.6779V85.1483C55.5692 84.1046 55.9851 83.1042 56.7238 82.3669C57.4624 81.6295 58.4635 81.2153 59.5072 81.2153H81.8603C82.9041 81.2153 83.9051 81.6295 84.6438 82.3669C85.3825 83.1042 85.7984 84.1046 85.8002 85.1483V98.6779C85.7984 99.7216 85.3825 100.722 84.6438 101.459C83.9051 102.197 82.9041 102.611 81.8603 102.611H80.0751L75.4034 109.718ZM59.5072 81.8993C58.6449 81.8993 57.8178 82.2414 57.2074 82.8505C56.597 83.4596 56.2532 84.286 56.2514 85.1483V98.6779C56.2532 99.5402 56.597 100.367 57.2074 100.976C57.8178 101.585 58.6449 101.927 59.5072 101.927H75.4923L75.9301 107.666L79.7057 101.927H81.8603C82.7227 101.927 83.5498 101.585 84.1602 100.976C84.7705 100.367 85.1144 99.5402 85.1162 98.6779V85.1483C85.1144 84.286 84.7705 83.4596 84.1602 82.8505C83.5498 82.2414 82.7227 81.8993 81.8603 81.8993H59.5072Z" fill="#263238"/>
<path d="M66.1359 91.7557C66.1345 91.4083 66.0303 91.0691 65.8363 90.7809C65.6423 90.4927 65.3673 90.2685 65.046 90.1365C64.7246 90.0045 64.3714 89.9707 64.0309 90.0393C63.6903 90.1079 63.3777 90.2758 63.1326 90.5219C62.8874 90.768 62.7207 91.0813 62.6534 91.4221C62.5861 91.7629 62.6213 92.116 62.7546 92.4368C62.8878 92.7576 63.1131 93.0318 63.4021 93.2246C63.691 93.4175 64.0306 93.5204 64.378 93.5204C64.6094 93.5204 64.8386 93.4747 65.0523 93.3859C65.266 93.2972 65.4601 93.1671 65.6234 93.0031C65.7867 92.8392 65.9161 92.6446 66.004 92.4305C66.092 92.2164 66.1368 91.9871 66.1359 91.7557Z" fill="white"/>
<path d="M71.6348 93.5136C72.6057 93.5136 73.3927 92.7265 73.3927 91.7557C73.3927 90.7848 72.6057 89.9978 71.6348 89.9978C70.664 89.9978 69.877 90.7848 69.877 91.7557C69.877 92.7265 70.664 93.5136 71.6348 93.5136Z" fill="white"/>
<path d="M80.6505 91.7557C80.6492 91.4083 80.5449 91.0691 80.3509 90.7809C80.157 90.4927 79.8819 90.2685 79.5606 90.1365C79.2393 90.0045 78.8861 89.9707 78.5455 90.0393C78.205 90.1079 77.8924 90.2758 77.6472 90.5219C77.4021 90.768 77.2353 91.0813 77.168 91.4221C77.1008 91.7629 77.136 92.116 77.2692 92.4368C77.4025 92.7576 77.6278 93.0318 77.9167 93.2246C78.2057 93.4175 78.5453 93.5204 78.8926 93.5204C79.1241 93.5204 79.3532 93.4747 79.5669 93.3859C79.7807 93.2972 79.9747 93.1671 80.1381 93.0031C80.3014 92.8392 80.4307 92.6446 80.5187 92.4305C80.6066 92.2164 80.6514 91.9871 80.6505 91.7557Z" fill="white"/>
<path d="M63.6385 72.7542H41.2853C40.3311 72.7542 39.416 73.1332 38.7413 73.8079C38.0666 74.4827 37.6875 75.3978 37.6875 76.352V89.8815C37.6875 90.3537 37.7806 90.8212 37.9615 91.2573C38.1424 91.6934 38.4075 92.0896 38.7417 92.4232C39.0759 92.7567 39.4726 93.0211 39.909 93.2011C40.3455 93.3812 40.8132 93.4734 41.2853 93.4725H43.2553L47.4824 99.8953L47.9749 93.4725H63.6385C64.1106 93.4734 64.5783 93.3812 65.0148 93.2011C65.4513 93.0211 65.8479 92.7567 66.1821 92.4232C66.5163 92.0896 66.7814 91.6934 66.9623 91.2573C67.1432 90.8212 67.2363 90.3537 67.2363 89.8815V76.352C67.2363 75.3978 66.8572 74.4827 66.1825 73.8079C65.5078 73.1332 64.5927 72.7542 63.6385 72.7542Z" fill="white"/>
<path d="M47.7425 100.921L43.0708 93.8145H41.2855C40.2418 93.8145 39.2407 93.4003 38.5021 92.6629C37.7634 91.9256 37.3475 90.9252 37.3457 89.8815V76.352C37.3475 75.3076 37.7632 74.3065 38.5017 73.5681C39.2401 72.8296 40.2412 72.4139 41.2855 72.4121H63.6387C64.683 72.4139 65.6841 72.8296 66.4226 73.5681C67.161 74.3065 67.5767 75.3076 67.5785 76.352V89.8815C67.5767 90.9252 67.1608 91.9256 66.4221 92.6629C65.6835 93.4003 64.6824 93.8145 63.6387 93.8145H48.2897L47.7425 100.921ZM41.2855 73.0961C40.422 73.0961 39.5939 73.4391 38.9833 74.0497C38.3727 74.6603 38.0297 75.4885 38.0297 76.352V89.8815C38.0315 90.7438 38.3753 91.5702 38.9857 92.1793C39.5961 92.7884 40.4232 93.1305 41.2855 93.1305H43.4401L47.2158 98.8692L47.6604 93.1305H63.6387C64.501 93.1305 65.3281 92.7884 65.9385 92.1793C66.5489 91.5702 66.8927 90.7438 66.8945 89.8815V76.352C66.8945 75.4885 66.5515 74.6603 65.9409 74.0497C65.3303 73.4391 64.5022 73.0961 63.6387 73.0961H41.2855Z" fill="#263238"/>
<path d="M46.963 83.6229C46.963 83.2752 46.8599 82.9353 46.6668 82.6462C46.4736 82.3572 46.1991 82.1319 45.8779 81.9988C45.5566 81.8658 45.2032 81.8309 44.8622 81.8988C44.5212 81.9666 44.208 82.134 43.9621 82.3799C43.7163 82.6257 43.5489 82.9389 43.481 83.2799C43.4132 83.6209 43.448 83.9744 43.5811 84.2956C43.7141 84.6168 43.9394 84.8913 44.2285 85.0845C44.5176 85.2777 44.8575 85.3808 45.2051 85.3808C45.6708 85.379 46.1169 85.1932 46.4462 84.8639C46.7754 84.5346 46.9612 84.0885 46.963 83.6229Z" fill="#263238"/>
<path d="M45.2053 85.7227C44.7881 85.7241 44.3798 85.6015 44.0324 85.3705C43.6849 85.1395 43.4138 84.8106 43.2535 84.4254C43.0932 84.0401 43.0509 83.616 43.1319 83.2067C43.213 82.7974 43.4138 82.4214 43.7088 82.1263C44.0039 81.8313 44.3799 81.6305 44.7892 81.5494C45.1985 81.4684 45.6226 81.5107 46.0079 81.671C46.3931 81.8313 46.7221 82.1023 46.953 82.4498C47.184 82.7973 47.3066 83.2056 47.3052 83.6228C47.3034 84.1792 47.0816 84.7123 46.6882 85.1057C46.2948 85.4991 45.7617 85.7209 45.2053 85.7227ZM45.2053 82.2001C44.9237 82.1988 44.6479 82.281 44.4131 82.4365C44.1782 82.592 43.9948 82.8138 43.8861 83.0736C43.7773 83.3335 43.7482 83.6197 43.8023 83.8962C43.8564 84.1726 43.9914 84.4267 44.1901 84.6264C44.3888 84.826 44.6423 84.9622 44.9184 85.0177C45.1946 85.0731 45.481 85.0454 45.7414 84.9379C46.0017 84.8304 46.2243 84.6481 46.381 84.414C46.5376 84.1798 46.6212 83.9045 46.6212 83.6228C46.6212 83.2467 46.4723 82.8858 46.2069 82.6192C45.9416 82.3526 45.5815 82.2019 45.2053 82.2001Z" fill="#263238"/>
<path d="M54.1994 83.6229C54.1994 83.2752 54.0963 82.9353 53.9031 82.6462C53.7099 82.3572 53.4354 82.1319 53.1142 81.9988C52.793 81.8658 52.4395 81.8309 52.0985 81.8988C51.7575 81.9666 51.4443 82.134 51.1985 82.3799C50.9526 82.6257 50.7852 82.9389 50.7174 83.2799C50.6495 83.6209 50.6844 83.9744 50.8174 84.2956C50.9505 84.6168 51.1758 84.8913 51.4648 85.0845C51.7539 85.2777 52.0938 85.3808 52.4415 85.3808C52.9071 85.379 53.3532 85.1932 53.6825 84.8639C54.0118 84.5346 54.1976 84.0885 54.1994 83.6229Z" fill="#263238"/>
<path d="M52.4622 85.7227C52.0449 85.7241 51.6367 85.6015 51.2892 85.3705C50.9417 85.1395 50.6706 84.8106 50.5103 84.4254C50.35 84.0401 50.3077 83.616 50.3888 83.2067C50.4699 82.7974 50.6706 82.4214 50.9657 82.1263C51.2607 81.8313 51.6367 81.6305 52.046 81.5494C52.4553 81.4684 52.8795 81.5107 53.2647 81.671C53.6499 81.8313 53.9789 82.1023 54.2099 82.4498C54.4408 82.7973 54.5634 83.2056 54.5621 83.6228C54.5603 84.1792 54.3384 84.7123 53.945 85.1057C53.5516 85.4991 53.0185 85.7209 52.4622 85.7227ZM52.4622 82.2001C52.1805 82.1988 51.9048 82.281 51.6699 82.4365C51.435 82.592 51.2516 82.8138 51.1429 83.0736C51.0342 83.3335 51.005 83.6197 51.0591 83.8962C51.1133 84.1726 51.2482 84.4267 51.4469 84.6264C51.6456 84.826 51.8991 84.9622 52.1753 85.0177C52.4514 85.0731 52.7378 85.0454 52.9982 84.9379C53.2586 84.8304 53.4812 84.6481 53.6378 84.414C53.7944 84.1798 53.8781 83.9045 53.8781 83.6228C53.8781 83.2467 53.7291 82.8858 53.4638 82.6192C53.1984 82.3526 52.8383 82.2019 52.4622 82.2001Z" fill="#263238"/>
<path d="M61.4777 83.6229C61.4777 83.2752 61.3746 82.9353 61.1814 82.6462C60.9883 82.3572 60.7137 82.1319 60.3925 81.9988C60.0713 81.8658 59.7178 81.8309 59.3768 81.8988C59.0359 81.9666 58.7226 82.134 58.4768 82.3799C58.2309 82.6257 58.0635 82.9389 57.9957 83.2799C57.9279 83.6209 57.9627 83.9744 58.0957 84.2956C58.2288 84.6168 58.4541 84.8913 58.7432 85.0845C59.0322 85.2777 59.3721 85.3808 59.7198 85.3808C60.1855 85.379 60.6315 85.1932 60.9608 84.8639C61.2901 84.5346 61.4759 84.0885 61.4777 83.6229Z" fill="#263238"/>
<path d="M59.72 85.7227C59.3027 85.7241 58.8945 85.6015 58.547 85.3705C58.1995 85.1395 57.9284 84.8106 57.7681 84.4254C57.6078 84.0401 57.5655 83.616 57.6466 83.2067C57.7277 82.7974 57.9284 82.4214 58.2235 82.1263C58.5185 81.8313 58.8945 81.6305 59.3038 81.5494C59.7131 81.4684 60.1373 81.5107 60.5225 81.671C60.9078 81.8313 61.2367 82.1023 61.4677 82.4498C61.6986 82.7973 61.8212 83.2056 61.8199 83.6228C61.8181 84.1792 61.5963 84.7123 61.2028 85.1057C60.8094 85.4991 60.2764 85.7209 59.72 85.7227ZM59.72 82.2001C59.4383 82.1988 59.1626 82.281 58.9277 82.4365C58.6929 82.592 58.5094 82.8138 58.4007 83.0736C58.292 83.3335 58.2628 83.6197 58.3169 83.8962C58.3711 84.1726 58.506 84.4267 58.7047 84.6264C58.9034 84.826 59.1569 84.9622 59.4331 85.0177C59.7092 85.0731 59.9956 85.0454 60.256 84.9379C60.5164 84.8304 60.739 84.6481 60.8956 84.414C61.0523 84.1798 61.1359 83.9045 61.1359 83.6228C61.1359 83.2467 60.9869 82.8858 60.7216 82.6192C60.4563 82.3526 60.0961 82.2019 59.72 82.2001Z" fill="#263238"/>
<path d="M130.993 150.085L122.101 144.941L126.252 143.867C127.527 143.617 128.71 143.023 129.672 142.15C130.139 141.592 130.547 140.986 130.89 140.344C131.499 139.298 132.032 138.395 132.709 138.292C132.841 138.269 132.976 138.275 133.105 138.31C133.235 138.346 133.354 138.41 133.455 138.498C134.266 139.202 134.851 140.13 135.138 141.165C135.425 142.2 135.401 143.297 135.069 144.318C134.303 146.952 131.253 149.79 131.123 149.934L130.993 150.085ZM123.92 145.18L130.897 149.236C131.581 148.552 133.859 146.206 134.474 144.106C134.77 143.216 134.799 142.259 134.555 141.353C134.312 140.447 133.808 139.633 133.106 139.011C132.997 138.929 132.935 138.935 132.908 138.942C132.538 139.011 131.991 139.948 131.54 140.693C131.171 141.377 130.733 142.021 130.233 142.615C129.168 143.603 127.845 144.27 126.417 144.537L123.92 145.18Z" fill="#263238"/>
<path d="M108.66 143.963L108.441 148.135C108.441 148.135 104.159 165.584 104.378 166.227C104.597 166.87 104.056 185.277 104.48 187.431C104.904 189.586 105.664 194.818 105.664 194.818C105.664 194.818 111.546 194.606 114.22 193.211C116.429 191.914 118.509 190.409 120.431 188.717L118.29 180.372C119.568 179.511 120.601 178.333 121.286 176.952C121.887 175.582 122.319 174.145 122.572 172.67L124.282 172.137C124.282 172.137 126.532 173.313 127.6 172.24C128.667 171.166 127.818 169.675 127.497 168.922C127.175 168.17 125.999 165.502 125.999 165.502C125.999 165.502 127.285 167.431 128.564 167.219C129.843 167.007 130.171 167.11 130.281 166.255C130.226 165.166 130.044 164.087 129.74 163.04C129.74 163.04 132.203 164.004 133.16 163.04C133.471 162.743 133.687 162.362 133.782 161.944C133.877 161.525 133.846 161.088 133.694 160.687C133.591 160.365 130.698 153.847 130.698 153.847C130.698 153.847 136.375 155.126 136.799 155.126C137.317 155.095 137.813 154.903 138.216 154.577C138.619 154.25 138.911 153.806 139.05 153.306C139.474 151.808 134.768 149.989 130.842 147.103C126.916 144.216 122.49 143.033 120.671 143.033C118.851 143.033 109.542 142.356 108.66 143.963Z" fill="white"/>
<path d="M105.39 195.16L105.349 194.852C105.349 194.805 104.597 189.592 104.173 187.486C103.92 186.193 103.995 179.538 104.063 173.669C104.104 170.249 104.145 166.672 104.063 166.316C103.851 165.694 106.519 154.606 108.126 148.053L108.372 143.806C109.056 142.533 113.208 142.437 119.241 142.622C119.87 142.622 120.363 142.656 120.657 142.656C122.477 142.656 126.902 143.778 131.027 146.76C132.429 147.786 133.934 148.682 135.26 149.496C137.867 151.035 139.748 152.15 139.399 153.368C139.234 153.935 138.898 154.436 138.436 154.804C137.974 155.171 137.409 155.387 136.82 155.42C136.444 155.42 132.942 154.64 131.307 154.271C132.059 155.967 133.947 160.256 134.043 160.529C134.22 160.995 134.256 161.503 134.146 161.99C134.037 162.476 133.787 162.92 133.427 163.265C132.627 164.066 131.102 163.792 130.247 163.546C130.496 164.437 130.625 165.357 130.63 166.282C130.507 167.267 130.028 167.335 129.159 167.458L128.639 167.54C128.083 167.598 127.526 167.436 127.087 167.089C127.381 167.773 127.682 168.457 127.825 168.778L127.935 169.025C128.304 169.832 128.988 171.343 127.86 172.479C126.731 173.614 124.802 172.746 124.269 172.479L122.901 172.91C122.642 174.341 122.215 175.737 121.628 177.068C120.958 178.436 119.954 179.613 118.708 180.488L120.842 188.806L120.684 188.95C118.742 190.661 116.639 192.182 114.405 193.491C111.669 194.9 105.944 195.126 105.698 195.133L105.39 195.16ZM109.022 144.072L108.81 148.176C107.134 155.016 104.706 165.413 104.74 166.186C104.822 166.432 104.809 168.443 104.74 173.71C104.679 179.257 104.597 186.159 104.836 187.39C105.206 189.209 105.807 193.327 105.978 194.483C107.21 194.415 111.854 194.093 114.084 192.93C116.21 191.685 118.214 190.243 120.069 188.621L117.928 180.181L118.133 180.044C119.356 179.216 120.346 178.088 121.006 176.767C121.589 175.424 122.012 174.017 122.264 172.575V172.363L124.316 171.726L124.44 171.788C125.007 172.082 126.628 172.691 127.36 171.959C128.092 171.227 127.73 170.228 127.299 169.271L127.182 169.018C126.861 168.265 125.684 165.598 125.684 165.598L126.28 165.269C126.608 165.748 127.648 166.973 128.509 166.829L129.05 166.747C129.884 166.631 129.884 166.631 129.939 166.165C129.892 165.122 129.715 164.088 129.412 163.087L129.234 162.403L129.871 162.65C130.493 162.896 132.271 163.382 132.928 162.725C133.196 162.475 133.382 162.15 133.462 161.792C133.543 161.435 133.514 161.062 133.379 160.721C133.297 160.475 131.546 156.507 130.397 153.881L130.117 153.258L130.801 153.409C132.955 153.894 136.492 154.674 136.834 154.688C137.275 154.653 137.696 154.483 138.038 154.202C138.381 153.921 138.629 153.541 138.749 153.115C138.947 152.431 136.991 151.241 134.918 150.016C133.55 149.216 132.059 148.32 130.63 147.28C126.854 144.544 122.531 143.279 120.664 143.279C120.363 143.279 119.864 143.279 119.228 143.238C116.868 143.245 109.836 142.978 109.022 144.072Z" fill="#263238"/>
<path d="M129.775 153.436C128.687 152.588 125.671 150.317 124.857 150.071C124.173 149.866 118.017 149.161 114.303 148.703C112.511 148.498 111.656 148.402 111.252 148.306C110.89 148.224 110.896 148.135 110.903 147.978V147.656H111.232V147.957L111.3 147.663C111.437 147.663 112.791 147.848 114.357 148.026C119.385 148.6 124.344 149.175 125.035 149.394C126.129 149.722 129.768 152.554 130.178 152.875L129.775 153.436Z" fill="#263238"/>
<path d="M129.481 163.19C128.052 160.83 125.507 156.979 124.734 156.699C123.824 156.371 114.919 154.818 110.37 154.038L110.48 153.354C111.027 153.443 123.797 155.611 124.994 156.042C126.191 156.473 129.454 161.774 130.09 162.828L129.481 163.19Z" fill="#263238"/>
<path d="M125.076 165.201C124.185 164.4 123.208 163.7 122.162 163.115C121.259 162.698 113.127 160.776 108.954 159.818L109.111 159.134C109.604 159.25 121.252 161.932 122.449 162.479C123.555 163.092 124.588 163.829 125.527 164.674L125.076 165.201Z" fill="#263238"/>
<path d="M123.441 171.508L119.788 168.17L112.969 167.965L111.355 169.175L110.944 168.628L112.75 167.274L120.062 167.493L123.899 171.001L123.441 171.508Z" fill="#263238"/>
<path d="M138.263 74.1607C138.263 74.1607 130.958 91.1445 131.868 93.3127C132.777 95.481 136.437 98.9763 134.795 101.35C133.154 103.723 123.653 111.576 125.479 115.597C127.305 119.619 132.052 119.797 132.052 119.797C132.052 119.797 131.143 125.091 132.415 126.37L133.694 127.65C133.694 127.65 133.694 130.386 134.611 131.665C135.527 132.944 137.894 134.038 137.894 134.038C137.894 134.038 133.331 140.796 134.241 142.985C135.151 145.174 145.568 148.648 149.973 149.743C154.378 150.837 162.203 149.38 162.203 149.38L164.399 160.324L205.849 136.035L199.461 119.784C199.461 119.784 210.405 109.92 210.965 95.1253C211.526 80.3304 206.944 66.4589 198.729 61.5273C190.514 56.5956 179.372 57.5122 179.372 57.5122C177.31 55.3912 174.675 53.9163 171.789 53.2677C168.903 52.6191 165.891 52.8248 163.12 53.8596C153.051 57.3343 138.263 74.1607 138.263 74.1607Z" fill="white"/>
<path d="M164.132 160.864L161.916 149.77C160.349 150.037 153.81 151.056 149.864 150.071C146.136 149.134 134.973 145.611 133.926 143.115C133.058 141.028 136.416 135.659 137.394 134.168C136.226 133.614 135.183 132.827 134.33 131.856C133.482 130.666 133.372 128.381 133.359 127.752L132.175 126.569C130.972 125.365 131.491 121.37 131.656 120.064C130.452 119.927 126.772 119.222 125.164 115.693C123.707 112.478 128.769 107.232 132.114 103.757C132.966 102.928 133.765 102.046 134.508 101.117C135.541 99.6259 134.132 97.5191 132.887 95.645C132.377 94.938 131.93 94.1873 131.553 93.4015C130.616 91.1374 137.196 75.7064 137.948 73.9553L138.003 73.8664C138.612 73.1824 152.969 56.9579 162.983 53.4969C165.794 52.4684 168.84 52.2632 171.763 52.9053C174.687 53.5475 177.366 55.0103 179.488 57.1221C180.917 57.0332 191.218 56.5954 198.886 61.2261C206.875 66.0141 211.882 79.6462 211.287 95.132C210.774 108.867 201.259 118.504 199.843 119.865L206.253 136.172L205.999 136.322L164.132 160.864ZM162.456 148.976L164.617 159.791L205.404 135.892L199.036 119.694L199.207 119.53C199.317 119.435 210.062 109.592 210.603 95.1251C211.164 79.8788 206.314 66.4997 198.53 61.828C190.507 57.04 179.488 57.8471 179.378 57.854H179.207L179.111 57.7445C177.083 55.6924 174.507 54.2667 171.691 53.6373C168.876 53.0079 165.938 53.2013 163.229 54.1946C153.653 57.512 139.392 73.4081 138.605 74.3247C135.801 80.8432 131.608 91.6915 132.237 93.1826C132.598 93.9283 133.021 94.6422 133.502 95.3167C134.87 97.3687 136.416 99.6737 135.123 101.548C134.356 102.508 133.531 103.422 132.654 104.284C129.631 107.417 124.569 112.663 125.814 115.46C127.538 119.243 132.045 119.455 132.093 119.462H132.483L132.415 119.845C132.175 121.268 131.731 125.173 132.688 126.117L134.056 127.485V127.629C134.056 127.629 134.056 130.269 134.911 131.446C135.766 132.622 138.037 133.696 138.058 133.71L138.427 133.874L138.201 134.209C136.957 136.049 133.892 141.179 134.583 142.834C135.39 144.777 145.226 148.183 150.055 149.394C154.316 150.454 162.066 149.038 162.141 149.024L162.456 148.976Z" fill="#263238"/>
<path d="M134.973 93.128C134.973 93.128 134.973 95.1321 137.346 94.2224C139.72 93.3127 140.999 91.6643 142.818 92.0268C144.638 92.3893 147.018 93.3059 145.554 90.7545C144.09 88.2032 140.622 89.2908 138.612 90.2005C137.22 90.9309 135.984 91.9252 134.973 93.128Z" fill="#263238"/>
<path d="M136.26 94.8038C135.929 94.8139 135.604 94.7206 135.33 94.537C135.118 94.3679 134.946 94.1537 134.828 93.9099C134.71 93.6661 134.647 93.399 134.646 93.128V93.0049L134.728 92.9091C135.774 91.6632 137.057 90.6378 138.503 89.8927C142.074 88.2648 144.659 88.5247 145.877 90.5767C146.403 91.5001 146.513 92.0815 146.219 92.4714C145.788 93.0528 144.755 92.8065 143.551 92.5329L142.771 92.3551C141.759 92.1567 140.904 92.6697 139.823 93.3195C139.082 93.7954 138.299 94.2029 137.484 94.537C137.095 94.6993 136.681 94.7897 136.26 94.8038ZM135.336 93.2374C135.346 93.3809 135.386 93.5208 135.453 93.648C135.52 93.7752 135.613 93.887 135.726 93.9762C135.966 94.0799 136.226 94.127 136.487 94.114C136.748 94.1009 137.003 94.028 137.231 93.9009C138.01 93.5841 138.759 93.1972 139.468 92.745C140.624 92.061 141.629 91.4385 142.888 91.6916L143.688 91.8694C144.317 92.0199 145.487 92.2935 145.651 92.0678C145.651 92.0678 145.795 91.8558 145.261 90.9187C143.934 88.5999 140.624 89.6738 138.763 90.5151C137.457 91.1949 136.294 92.1191 135.336 93.2374Z" fill="#263238"/>
<path d="M139.275 108.265C138.536 108.265 137.839 107.533 137.148 106.042C136.461 104.434 135.957 102.755 135.643 101.035C135.29 99.3256 135.131 97.5817 135.171 95.8366C135.26 94.0308 135.705 93.1006 136.539 92.9159C137.374 92.7312 138.14 93.47 138.892 95.1116C139.584 96.7291 140.089 98.4204 140.397 100.153C140.748 101.865 140.904 103.611 140.862 105.358C140.78 107.157 140.335 108.094 139.494 108.279L139.275 108.265ZM136.813 94.3318C136.512 94.9132 136.286 97.1704 136.99 100.775C137.695 104.38 138.735 106.391 139.227 106.822C139.528 106.24 139.747 103.983 139.049 100.378C138.352 96.7668 137.305 94.7627 136.813 94.3318Z" fill="#263238"/>
<path d="M174.369 95.7375L139.49 98.1091L139.583 99.474L174.462 97.1023L174.369 95.7375Z" fill="#263238"/>
<path d="M134.426 121.794C133.957 121.692 133.472 121.687 133.001 121.781C132.53 121.874 132.083 122.064 131.689 122.338C131.295 122.613 130.961 122.965 130.71 123.374C130.458 123.783 130.294 124.24 130.226 124.715C130.094 125.281 130.081 125.867 130.187 126.438C130.292 127.009 130.515 127.552 130.841 128.032C131.166 128.513 131.588 128.921 132.079 129.23C132.57 129.54 133.12 129.745 133.694 129.831C134.611 129.831 136.253 128.737 139.166 130.016C142.08 131.295 144.638 132.937 144.638 136.042C144.638 139.148 143.544 141.336 141.17 141.152C138.797 140.967 137.155 136.589 135.876 137.137C134.597 137.684 131.307 142.8 133.503 146.268C135.699 149.736 150.302 156.309 155.049 156.131C159.796 155.953 177.511 140.604 179.885 134.927C182.258 129.25 179.153 126.89 178.606 125.249C178.059 123.607 172.58 109.722 172.58 105.707C172.58 101.692 175.138 92.5603 180.247 92.191C185.357 91.8216 188.455 102.786 186.827 106.801C185.956 109.078 184.509 111.091 182.628 112.643C182.628 112.643 181.527 124.332 184.632 126.323C187.737 128.313 195.952 130.885 199.789 131.07C203.627 131.254 205.083 131.801 207.094 127.964C209.105 124.127 205.631 122.492 206.732 120.297C207.833 118.101 216.773 107.301 217.676 95.823C218.579 84.3455 215.665 75.0089 210.733 67.7038C205.802 60.3986 195.213 53.6407 191.739 53.0935C189.194 52.6268 186.691 51.9543 184.256 51.0826C184.256 51.0826 188.086 49.441 185.165 46.8828C182.245 44.3246 176.403 43.0456 166.903 46.1509C157.402 49.2563 153.804 52.9567 153.804 52.9567C153.804 52.9567 154.351 48.0251 148.872 50.2207C143.393 52.4164 133.9 62.2728 135.192 68.6887C136.485 75.1046 139.392 74.8994 143.4 73.6204C147.409 72.3413 153.626 69.6053 156.396 69.9678C159.167 70.3303 160.959 70.515 156.034 74.7148C151.109 78.9145 144.344 83.299 147.997 85.3099C151.649 87.3209 161.875 92.9776 163.154 97.1773C164.433 101.377 158.77 130.782 156.759 134.25C154.748 137.718 150.918 138.812 148.551 136.254C146.184 133.696 144.166 127.13 140.151 124.202C136.136 121.275 134.426 121.794 134.426 121.794Z" fill="#263238"/>
<path d="M154.864 156.473C149.713 156.473 135.383 149.873 133.222 146.446C132.1 144.667 132.387 142.622 132.818 141.22C133.502 139.086 134.87 137.191 135.753 136.822C136.635 136.453 137.346 137.39 138.229 138.457C139.111 139.524 140.096 140.728 141.211 140.816C141.542 140.853 141.878 140.819 142.195 140.717C142.512 140.614 142.804 140.445 143.051 140.221C143.865 139.469 144.309 137.985 144.309 136.042C144.309 133.046 141.779 131.528 139.036 130.331C137.656 129.671 136.078 129.556 134.617 130.009C134.317 130.101 134.007 130.156 133.694 130.173C132.535 130.018 131.481 129.42 130.752 128.504C130.324 127.971 130.024 127.347 129.875 126.679C129.725 126.011 129.731 125.319 129.891 124.654C129.966 124.126 130.149 123.62 130.428 123.166C130.707 122.712 131.076 122.32 131.512 122.013C132.381 121.486 133.408 121.285 134.412 121.446C134.856 121.35 136.628 121.234 140.287 123.894C142.805 125.721 144.521 128.901 146.04 131.699C146.779 133.224 147.685 134.662 148.742 135.987C149.148 136.452 149.661 136.811 150.236 137.032C150.812 137.254 151.433 137.332 152.045 137.26C152.971 137.096 153.847 136.72 154.603 136.163C155.36 135.605 155.978 134.88 156.409 134.045C158.461 130.543 163.968 101.213 162.771 97.2457C161.519 93.1417 151.143 87.444 147.777 85.5698C147.456 85.4296 147.176 85.2095 146.964 84.9305C146.753 84.6516 146.616 84.323 146.567 83.9761C146.389 82.0062 149.474 79.5164 153.051 76.6436C153.954 75.9117 154.891 75.1593 155.753 74.4206C158.379 72.1839 158.81 71.3084 158.708 71.0006C158.605 70.6928 157.428 70.4602 156.396 70.3166H156.293C154.364 70.0567 150.472 71.4657 147.045 72.7106C145.759 73.1757 144.549 73.6135 143.482 73.9555C141.095 74.7079 139.193 75.0294 137.675 74.1333C136.307 73.3262 135.39 71.6162 134.822 68.7639C133.454 62.0402 143.194 52.1427 148.728 49.9334C150.63 49.1742 152.066 49.1536 153.017 49.8718C153.355 50.1668 153.628 50.5289 153.819 50.9352C154.01 51.3414 154.114 51.7829 154.125 52.2316C155.493 51.1099 159.351 48.3534 166.827 45.9115C178.024 42.2452 183.284 44.8376 185.418 46.7049C186.341 47.512 186.738 48.3328 186.608 49.1536C186.505 49.5621 186.32 49.9451 186.063 50.2792C185.807 50.6133 185.485 50.8913 185.117 51.0962C187.304 51.8443 189.545 52.4251 191.82 52.8336C195.281 53.3808 206.02 60.1455 211.04 67.5943C216.512 75.727 218.886 85.262 218.038 95.9324C217.299 105.317 211.3 114.161 208.414 118.409C207.764 119.366 207.251 120.125 207.046 120.529C206.649 121.322 206.971 122.048 207.367 122.964C207.935 124.257 208.64 125.864 207.408 128.204C205.507 131.842 203.988 131.74 200.904 131.555L199.789 131.494C195.883 131.309 187.572 128.703 184.46 126.706C181.218 124.606 182.251 113.176 182.299 112.69V112.533L182.422 112.444C184.257 110.929 185.67 108.967 186.526 106.746C187.654 104.01 186.464 98.128 184.132 94.9064C183.325 93.7915 181.998 92.485 180.295 92.6082C175.445 92.957 172.942 101.999 172.942 105.782C172.942 109.045 176.683 119.093 178.284 123.381C178.612 124.284 178.858 124.927 178.968 125.214C179.127 125.617 179.331 126 179.576 126.357C180.602 128.026 182.155 130.55 180.26 135.132C177.736 141.145 159.884 156.336 155.123 156.528L154.864 156.473ZM136.115 137.431C136.083 137.424 136.051 137.424 136.019 137.431C135.404 137.697 134.104 139.373 133.475 141.398C133.19 142.153 133.072 142.961 133.129 143.766C133.186 144.571 133.416 145.355 133.803 146.063C135.855 149.325 150.335 155.974 155.048 155.769C159.535 155.591 177.189 140.502 179.583 134.79C181.368 130.536 179.987 128.286 178.974 126.637C178.697 126.237 178.467 125.805 178.29 125.351C178.195 125.071 177.955 124.435 177.606 123.545C175.992 119.223 172.223 109.093 172.223 105.707C172.223 101.199 175.041 92.2183 180.213 91.8489C181.806 91.7326 183.345 92.6287 184.652 94.4344C187.1 97.8134 188.325 104.01 187.128 106.931C186.244 109.216 184.803 111.243 182.935 112.827C182.648 116.131 182.436 124.524 184.802 126.056C187.846 128.019 195.972 130.563 199.789 130.748L200.917 130.81C203.947 131.001 205.083 131.069 206.779 127.827C207.853 125.775 207.272 124.455 206.718 123.176C206.28 122.184 205.869 121.24 206.41 120.16C206.843 119.404 207.316 118.671 207.826 117.964C210.671 113.757 216.601 105.023 217.333 95.8161C218.168 85.303 215.849 75.9117 210.452 67.9158C205.514 60.6038 195.049 53.9827 191.69 53.4492C189.131 52.9668 186.615 52.2806 184.166 51.3972L183.352 51.103L184.146 50.761C184.146 50.761 185.76 50.077 185.938 48.9553C186.027 48.3875 185.698 47.772 184.966 47.1358C182.914 45.3574 177.914 42.9156 167.039 46.4518C157.729 49.4956 154.043 53.0866 154.043 53.1208L153.359 53.8048L153.461 52.8404C153.461 52.8404 153.639 51.0757 152.62 50.3028C151.881 49.735 150.664 49.7898 149.002 50.4532C143.79 52.5394 134.255 62.218 135.513 68.5108C136.033 71.1237 136.881 72.7311 138.044 73.4288C139.344 74.1949 141.081 73.8871 143.29 73.1826C144.35 72.8474 145.554 72.4096 146.833 71.9514C150.506 70.6176 154.309 69.2154 156.409 69.5163H156.505C157.983 69.7147 159.145 69.872 159.385 70.686C159.624 71.4999 158.701 72.7379 156.218 74.8515C155.342 75.5971 154.405 76.3563 153.482 77.0882C150.349 79.6122 147.114 82.2182 147.251 83.8256C147.293 84.0607 147.394 84.2812 147.545 84.4665C147.696 84.6519 147.891 84.7961 148.112 84.8858C151.573 86.7873 162.1 92.574 163.434 96.9516C164.802 101.473 158.892 131.042 157.011 134.298C156.527 135.225 155.834 136.028 154.989 136.644C154.143 137.26 153.166 137.672 152.134 137.848C151.414 137.93 150.685 137.838 150.008 137.58C149.33 137.322 148.725 136.904 148.242 136.364C147.148 134.997 146.209 133.513 145.445 131.938C143.967 129.202 142.285 126.097 139.891 124.359C136.136 121.623 134.549 122.034 134.535 122.034H134.453H134.364C133.513 121.888 132.639 122.048 131.895 122.485C131.523 122.752 131.211 123.094 130.979 123.489C130.747 123.883 130.6 124.322 130.547 124.777C130.406 125.344 130.398 125.936 130.524 126.507C130.65 127.077 130.906 127.611 131.272 128.067C131.874 128.818 132.731 129.322 133.68 129.483C133.937 129.461 134.192 129.413 134.439 129.339C136.045 128.845 137.779 128.972 139.296 129.695C142.107 130.926 144.98 132.636 144.98 136.035C144.98 138.204 144.467 139.825 143.502 140.721C143.186 141.01 142.812 141.227 142.405 141.36C141.998 141.492 141.568 141.535 141.142 141.487C139.733 141.377 138.646 140.057 137.722 138.888C137.134 138.204 136.498 137.431 136.115 137.431Z" fill="#263238"/>
<path d="M177.744 114.106V113.422C179.377 113.146 180.993 112.783 182.587 112.335L182.758 113.019C181.106 113.467 179.433 113.83 177.744 114.106Z" fill="#263238"/>
<path d="M158.653 165.988C158.653 165.988 150.5 172.616 149.351 175.413C148.202 178.211 148.461 183.566 148.461 184.079C148.461 184.592 142.217 189.298 140.048 195.673C137.88 202.048 137.757 209.941 137.757 209.941L151.895 184.202L159.959 167.869L158.653 165.988Z" fill="#2EC4F3"/>
<path d="M137.388 211.309V209.941C137.388 209.859 137.538 201.911 139.7 195.577C141.334 190.789 145.247 186.897 147.121 185.037C147.46 184.719 147.782 184.384 148.085 184.032V183.84C147.99 179.907 148.297 177.034 149.009 175.297C150.172 172.451 158.072 166.008 158.407 165.721L158.701 165.488L160.288 167.875L152.203 184.353L137.388 211.309ZM158.592 166.501C157.135 167.704 150.664 173.156 149.7 175.55C149.241 176.685 148.715 179.031 148.831 183.819V184.086C148.831 184.346 148.626 184.558 147.661 185.516C145.815 187.342 141.984 191.138 140.404 195.776C138.824 200.413 138.352 205.92 138.188 208.485L151.629 184.032L159.556 167.916L158.592 166.501Z" fill="#263238"/>
<path d="M192.682 138.6C192.682 138.6 156.889 158.505 157.436 161.056C157.983 163.607 159.994 171.104 159.994 171.104C159.994 171.104 188.113 148.826 193.23 146.083C198.346 143.34 209.119 139.325 209.119 139.325C209.119 139.325 207.108 134.031 206.561 133.484C206.014 132.937 196.697 136.952 192.682 138.6Z" fill="white"/>
<path d="M159.796 171.692L159.666 171.193C159.666 171.118 157.648 163.669 157.101 161.131C156.985 160.577 156.711 159.291 174.68 148.573C183.462 143.341 192.423 138.313 192.518 138.313L194.755 137.39C204.427 133.368 206.308 132.814 206.766 133.286C207.341 133.853 209.064 138.354 209.406 139.25L209.523 139.572L209.201 139.688C209.092 139.729 198.394 143.73 193.36 146.425C188.326 149.12 160.453 171.186 160.172 171.412L159.796 171.692ZM192.833 138.908C175.856 148.347 157.805 159.298 157.771 160.995C158.23 163.122 159.734 168.792 160.193 170.509C163.804 167.657 188.237 148.354 193.066 145.782C197.648 143.327 206.841 139.825 208.675 139.127C208.02 137.293 207.245 135.504 206.356 133.771H206.315C205.193 133.771 198.627 136.507 195.056 137.985L192.833 138.908Z" fill="#263238"/>
<path d="M161.636 163.984L132.969 218.581L112.333 252.917H235.959C235.959 252.917 235.049 224.429 233.223 206.351C231.397 188.272 218.1 153.026 215.323 149.401C212.546 145.776 211.855 143.929 211.855 143.929C211.855 143.929 211.308 138.081 209.297 137.171C207.286 136.261 187.388 142.978 161.636 163.984Z" fill="#263238"/>
<path d="M236.315 253.259H111.725L132.676 218.409L161.369 163.765L161.424 163.724C186.588 143.204 206.951 135.68 209.441 136.829C211.493 137.773 212.108 142.985 212.177 143.812C213.125 145.715 214.271 147.513 215.597 149.175C218.422 152.937 231.753 188.423 233.566 206.323C235.378 224.223 236.302 252.623 236.302 252.91L236.315 253.259ZM112.935 252.575H235.611C235.494 249.237 234.578 223.163 232.875 206.385C231.076 188.601 217.827 153.306 215.043 149.579C212.259 145.851 211.561 144.107 211.534 144.018V143.922C211.39 142.355 210.679 138.128 209.181 137.444C207.355 136.617 187.703 143.197 161.93 164.202L133.284 218.745L112.935 252.575Z" fill="#263238"/>
<path d="M273.925 112.596C298.97 122.392 327.215 110.03 337.011 84.985C346.807 59.9397 334.445 31.6952 309.399 21.8993C284.354 12.1033 256.11 24.4654 246.314 49.5107C236.518 74.556 248.88 102.8 273.925 112.596Z" fill="#263238"/>
<path d="M273.8 112.915C264.765 109.386 256.98 103.256 251.43 95.3024C245.879 87.3484 242.812 77.9269 242.616 68.2296C242.421 58.5323 245.105 48.9948 250.33 40.8234C255.556 32.6519 263.087 26.2136 271.972 22.3227C280.856 18.4319 290.695 17.2633 300.244 18.9647C309.793 20.6661 318.623 25.1611 325.617 31.8812C332.611 38.6014 337.455 47.2447 339.536 56.718C341.617 66.1914 340.842 76.0691 337.309 85.102C332.562 97.201 323.21 106.923 311.304 112.137C299.398 117.351 285.911 117.631 273.8 112.915ZM309.274 22.2177C300.369 18.7301 290.629 17.9619 281.287 20.0103C271.945 22.0586 263.42 26.8314 256.791 33.725C250.161 40.6186 245.725 49.3234 244.044 58.7384C242.362 68.1534 243.51 77.8556 247.343 86.618C251.176 95.3803 257.521 102.809 265.577 107.965C273.632 113.121 283.035 115.772 292.597 115.583C302.16 115.394 311.451 112.373 319.296 106.903C327.142 101.434 333.189 93.7598 336.672 84.8529C341.327 72.9123 341.057 59.6132 335.921 47.8717C330.785 36.1301 321.202 26.9045 309.274 22.2177Z" fill="#263238"/>
<path d="M243.603 96.7341C247.079 98.0936 250.961 96.475 252.274 93.1187C253.587 89.7624 251.833 85.9395 248.357 84.58C244.881 83.2205 240.999 84.8392 239.687 88.1955C238.374 91.5517 240.127 95.3746 243.603 96.7341Z" fill="#263238"/>
<path d="M243.48 97.0528C242.25 96.517 241.205 95.6314 240.474 94.5061C239.744 93.3808 239.36 92.0656 239.372 90.7241C239.383 89.3826 239.789 88.0741 240.538 86.9613C241.287 85.8486 242.347 84.9808 243.586 84.4659C244.825 83.951 246.188 83.8117 247.505 84.0655C248.823 84.3192 250.036 84.9548 250.995 85.893C251.954 86.8312 252.616 88.0307 252.898 89.3421C253.181 90.6536 253.071 92.0192 252.583 93.2689C251.872 94.9733 250.516 96.3276 248.811 97.0364C247.106 97.7452 245.189 97.7511 243.48 97.0528ZM248.234 84.8987C247.093 84.5071 245.862 84.4594 244.694 84.7614C243.526 85.0634 242.473 85.7018 241.665 86.5974C240.857 87.493 240.33 88.6062 240.149 89.7988C239.968 90.9914 240.142 92.2109 240.648 93.3057C241.154 94.4005 241.971 95.3224 242.997 95.9569C244.023 96.5914 245.213 96.9105 246.418 96.8746C247.624 96.8387 248.793 96.4494 249.779 95.755C250.765 95.0606 251.526 94.0918 251.966 92.9688C252.534 91.4033 252.461 89.6767 251.762 88.1652C251.062 86.6536 249.794 85.4796 248.234 84.8987Z" fill="#263238"/>
<path d="M238.132 96.5478C237.81 97.4646 237.222 98.2643 236.442 98.8444C235.662 99.4244 234.727 99.7583 233.757 99.8033C232.786 99.8483 231.824 99.6023 230.994 99.0969C230.164 98.5914 229.504 97.8496 229.099 96.9665C228.693 96.0834 228.561 95.0993 228.718 94.1405C228.876 93.1816 229.317 92.2917 229.983 91.5849C230.65 90.8781 231.513 90.3866 232.461 90.1735C233.409 89.9604 234.399 90.0353 235.304 90.3887C235.895 90.607 236.436 90.9395 236.898 91.3673C237.36 91.7951 237.733 92.3098 237.995 92.8819C238.258 93.4539 238.405 94.0722 238.429 94.7012C238.452 95.3302 238.351 95.9577 238.132 96.5478Z" fill="#263238"/>
<path d="M231.754 99.466C230.844 99.0739 230.069 98.4224 229.526 97.5928C228.984 96.7632 228.698 95.7922 228.703 94.8009C228.709 93.8097 229.006 92.842 229.558 92.0187C230.11 91.1954 230.893 90.5528 231.807 90.1711C232.722 89.7895 233.729 89.6856 234.703 89.8725C235.676 90.0594 236.573 90.5288 237.282 91.2221C237.99 91.9154 238.479 92.802 238.687 93.7712C238.895 94.7405 238.813 95.7494 238.451 96.6723C238.195 97.2955 237.818 97.8622 237.343 98.3399C236.868 98.8176 236.303 99.197 235.681 99.4564C235.059 99.7158 234.392 99.8502 233.719 99.8519C233.045 99.8535 232.377 99.7224 231.754 99.466ZM235.18 90.7072C234.371 90.427 233.498 90.3906 232.669 90.6026C231.84 90.8147 231.092 91.2658 230.517 91.8998C229.943 92.5338 229.567 93.3227 229.437 94.1685C229.308 95.0143 229.429 95.8795 229.787 96.6567C230.145 97.4338 230.724 98.0886 231.451 98.5394C232.179 98.9903 233.022 99.2174 233.878 99.1925C234.733 99.1676 235.562 98.8919 236.262 98.3995C236.962 97.9071 237.501 97.2198 237.814 96.4232C238.222 95.3159 238.174 94.0919 237.68 93.0202C237.186 91.9484 236.287 91.1165 235.18 90.7072Z" fill="#263238"/>
<path d="M273.374 108.877C298.42 118.673 326.664 106.311 336.46 81.266C346.256 56.2207 333.894 27.9763 308.849 18.1803C283.803 8.38431 255.559 20.7464 245.763 45.7917C235.967 70.837 248.329 99.0815 273.374 108.877Z" fill="white"/>
<path d="M273.249 109.196C264.217 105.663 256.435 99.5318 250.888 91.5765C245.341 83.6211 242.277 74.1995 242.085 64.503C241.892 54.8066 244.579 45.2707 249.806 37.1014C255.033 28.932 262.565 22.4961 271.45 18.6074C280.334 14.7188 290.173 13.5521 299.72 15.2548C309.268 16.9576 318.097 21.4534 325.089 28.1736C332.082 34.8939 336.925 43.5367 339.005 53.0093C341.086 62.4819 340.311 72.3588 336.778 81.3909C332.029 93.4931 322.673 103.217 310.763 108.43C298.853 113.643 285.362 113.918 273.249 109.196ZM308.724 18.499C299.817 15.0156 290.078 14.2513 280.738 16.3029C271.398 18.3545 262.875 23.1298 256.249 30.0249C249.622 36.92 245.189 45.6253 243.51 55.0399C241.831 64.4544 242.982 74.1555 246.816 82.9162C250.65 91.6769 256.997 99.1039 265.052 104.258C273.107 109.412 282.51 112.061 292.071 111.872C301.633 111.682 310.923 108.661 318.767 103.191C326.611 97.721 332.658 90.0478 336.141 81.1417C340.787 69.2001 340.508 55.9037 335.366 44.1673C330.224 32.4308 320.639 23.2117 308.711 18.5309L308.724 18.499Z" fill="#263238"/>
<path d="M243.053 93.0156C246.529 94.3752 250.411 92.7565 251.724 89.4002C253.037 86.0439 251.283 82.2211 247.807 80.8615C244.331 79.502 240.449 81.1207 239.137 84.477C237.824 87.8332 239.578 91.6561 243.053 93.0156Z" fill="white"/>
<path d="M242.929 93.3341C241.699 92.7983 240.654 91.9126 239.923 90.7874C239.193 89.6621 238.81 88.3469 238.821 87.0054C238.832 85.6639 239.238 84.3553 239.987 83.2426C240.737 82.1298 241.797 81.262 243.036 80.7471C244.274 80.2322 245.637 80.093 246.955 80.3467C248.272 80.6005 249.485 81.236 250.444 82.1742C251.403 83.1124 252.065 84.3119 252.348 85.6234C252.63 86.9349 252.52 88.3005 252.033 89.5502C251.323 91.2558 249.967 92.6112 248.261 93.3202C246.556 94.0292 244.638 94.0342 242.929 93.3341ZM247.683 81.18C246.542 80.7884 245.311 80.7407 244.143 81.0427C242.975 81.3447 241.922 81.9831 241.114 82.8787C240.306 83.7742 239.779 84.8875 239.598 86.0801C239.417 87.2727 239.591 88.4921 240.097 89.5869C240.604 90.6817 241.421 91.6036 242.446 92.2381C243.472 92.8726 244.662 93.1918 245.868 93.1559C247.073 93.12 248.242 92.7307 249.228 92.0363C250.215 91.3419 250.975 90.3731 251.416 89.2501C251.985 87.6846 251.913 85.9573 251.213 84.4453C250.514 82.9332 249.245 81.7593 247.683 81.18Z" fill="#263238"/>
<path d="M237.591 92.8033C237.269 93.7204 236.68 94.5203 235.9 95.1004C235.12 95.6805 234.185 96.0143 233.214 96.0589C232.243 96.1036 231.281 95.8571 230.451 95.3511C229.621 94.845 228.961 94.1025 228.556 93.2189C228.151 92.3352 228.02 91.3507 228.178 90.3918C228.337 89.4328 228.778 88.543 229.446 87.8367C230.114 87.1304 230.977 86.6397 231.926 86.4277C232.875 86.2156 233.865 86.2919 234.77 86.6467C235.359 86.8656 235.9 87.1985 236.361 87.6264C236.822 88.0543 237.194 88.5688 237.456 89.1405C237.718 89.7123 237.865 90.33 237.888 90.9584C237.911 91.5869 237.81 92.2138 237.591 92.8033Z" fill="white"/>
<path d="M231.208 95.7561C230.297 95.3652 229.521 94.7147 228.977 93.8858C228.434 93.0569 228.146 92.0863 228.15 91.095C228.155 90.1038 228.451 89.1357 229.002 88.3117C229.553 87.4876 230.334 86.844 231.249 86.4611C232.163 86.0782 233.17 85.973 234.143 86.1586C235.117 86.3442 236.015 86.8124 236.724 87.5048C237.434 88.1972 237.923 89.0831 238.133 90.0521C238.342 91.021 238.261 92.0301 237.9 92.9535C237.383 94.2116 236.388 95.2132 235.133 95.7386C233.879 96.2639 232.467 96.2703 231.208 95.7561ZM234.636 86.9909C233.828 86.7093 232.954 86.6716 232.125 86.8826C231.295 87.0936 230.546 87.5439 229.97 88.1774C229.395 88.811 229.018 89.5999 228.888 90.4458C228.757 91.2918 228.878 92.1574 229.236 92.9351C229.593 93.7128 230.172 94.3682 230.899 94.8196C231.626 95.271 232.47 95.4986 233.326 95.474C234.181 95.4494 235.011 95.1737 235.711 94.6813C236.411 94.1888 236.951 93.5013 237.263 92.7044C237.671 91.5982 237.623 90.3756 237.131 89.3045C236.638 88.2335 235.741 87.4014 234.636 86.9909Z" fill="#263238"/>
<path d="M312.168 56.691C312.17 53.3868 311.376 50.1307 309.854 47.1983C308.331 44.2659 306.124 41.7435 303.42 39.8446C300.716 37.9458 297.595 36.7263 294.319 36.2894C291.044 35.8526 287.712 36.2112 284.605 37.335C281.498 38.4588 278.707 40.3146 276.469 42.7455C274.231 45.1763 272.611 48.1105 271.748 51.2997C270.884 54.489 270.801 57.8394 271.506 61.0675C272.212 64.2955 273.684 67.306 275.8 69.8443C278.826 73.4804 280.484 78.0616 280.485 82.7925V85.6174H302.715V82.7993C302.711 78.0815 304.362 73.5118 307.38 69.8854C310.484 66.1904 312.18 61.5165 312.168 56.691Z" fill="#2EC4F3"/>
<path d="M302.708 85.9524H280.478C280.388 85.9524 280.301 85.9164 280.237 85.8522C280.173 85.7881 280.136 85.7011 280.136 85.6104V82.7923C280.133 78.1432 278.502 73.6419 275.526 70.0699C272.983 67.0153 271.362 63.2993 270.855 59.357C270.347 55.4146 270.973 51.4093 272.66 47.8101C274.347 44.2108 277.024 41.1666 280.378 39.0341C283.733 36.9016 287.625 35.769 291.6 35.769C295.575 35.769 299.468 36.9016 302.822 39.0341C306.177 41.1666 308.854 44.2108 310.541 47.8101C312.227 51.4093 312.853 55.4146 312.346 59.357C311.838 63.2993 310.218 67.0153 307.674 70.0699C304.703 73.6411 303.077 78.1401 303.078 82.7855V85.6172C303.077 85.664 303.067 85.71 303.047 85.7526C303.028 85.7952 303 85.8334 302.966 85.8648C302.931 85.8962 302.89 85.9202 302.846 85.9352C302.802 85.9503 302.755 85.9561 302.708 85.9524ZM280.82 85.2684H302.366V82.7923C302.372 77.9822 304.066 73.3267 307.154 69.639C310.465 65.6697 312.129 60.5835 311.806 55.4251C311.483 50.2667 309.197 45.4279 305.417 41.9028C303.392 39.995 300.992 38.5303 298.369 37.6023C295.746 36.6742 292.959 36.3032 290.184 36.5129C286.472 36.7758 282.905 38.0582 279.875 40.2187C276.845 42.3793 274.47 45.3342 273.011 48.758C271.553 52.1818 271.068 55.9417 271.609 59.6236C272.151 63.3054 273.698 66.7664 276.08 69.6253C279.166 73.3202 280.86 77.9787 280.868 82.7923L280.82 85.2684Z" fill="#263238"/>
<path d="M302.715 85.6106H280.479V91.11H302.715V85.6106Z" fill="white"/>
<path d="M302.709 91.4587H280.479C280.388 91.4587 280.301 91.4227 280.237 91.3586C280.173 91.2944 280.137 91.2074 280.137 91.1167V85.6447C280.137 85.554 280.173 85.467 280.237 85.4029C280.301 85.3388 280.388 85.3027 280.479 85.3027H302.709C302.799 85.3027 302.886 85.3388 302.951 85.4029C303.015 85.467 303.051 85.554 303.051 85.6447V91.1167C303.051 91.2074 303.015 91.2944 302.951 91.3586C302.886 91.4227 302.799 91.4587 302.709 91.4587ZM280.821 90.7747H302.367V85.9867H280.821V90.7747Z" fill="#263238"/>
<path d="M280.479 91.1304H302.715V93.4013C302.715 93.8261 302.632 94.2468 302.469 94.6394C302.306 95.0319 302.068 95.3885 301.768 95.689C301.467 95.9894 301.111 96.2277 300.718 96.3903C300.326 96.5529 299.905 96.6366 299.48 96.6366H283.707C282.849 96.6366 282.026 96.2957 281.419 95.689C280.813 95.0822 280.472 94.2593 280.472 93.4013V91.1304H280.479Z" fill="white"/>
<path d="M299.48 96.9717H283.707C282.76 96.9699 281.851 96.5922 281.182 95.9215C280.513 95.2508 280.137 94.3419 280.137 93.3944V91.1303C280.137 91.0396 280.173 90.9526 280.237 90.8885C280.301 90.8244 280.388 90.7883 280.479 90.7883H302.709C302.799 90.7883 302.886 90.8244 302.951 90.8885C303.015 90.9526 303.051 91.0396 303.051 91.1303V93.3944C303.051 94.3419 302.675 95.2508 302.005 95.9215C301.336 96.5922 300.428 96.9699 299.48 96.9717ZM280.821 91.4997V93.4217C280.821 94.1879 281.125 94.9228 281.666 95.4652C282.207 96.0076 282.941 96.3132 283.707 96.3151H299.48C300.246 96.3132 300.981 96.0076 301.522 95.4652C302.063 94.9228 302.367 94.1879 302.367 93.4217V91.4997H280.821Z" fill="#263238"/>
<path d="M283.283 96.623H299.904V97.738C299.904 98.3137 299.791 98.8839 299.571 99.4158C299.35 99.9478 299.027 100.431 298.62 100.838C298.213 101.245 297.73 101.568 297.198 101.789C296.666 102.009 296.096 102.122 295.52 102.122H287.668C286.505 102.122 285.39 101.66 284.567 100.838C283.745 100.016 283.283 98.9008 283.283 97.738V96.623Z" fill="#263238"/>
<path d="M295.519 102.464H287.667C286.414 102.463 285.213 101.964 284.327 101.078C283.441 100.192 282.942 98.9909 282.94 97.7379V96.281H300.246V97.7379C300.244 98.9909 299.745 100.192 298.859 101.078C297.973 101.964 296.772 102.463 295.519 102.464ZM283.624 96.9924V97.7653C283.626 98.8369 284.053 99.864 284.81 100.622C285.568 101.379 286.595 101.806 287.667 101.808H295.519C296.591 101.806 297.618 101.379 298.376 100.622C299.133 99.864 299.56 98.8369 299.562 97.7653V96.9924H283.624Z" fill="#263238"/>
<path d="M324.48 57.1425H315.082C314.992 57.1425 314.905 57.1065 314.84 57.0423C314.776 56.9782 314.74 56.8912 314.74 56.8005C314.74 56.7098 314.776 56.6228 314.84 56.5587C314.905 56.4945 314.992 56.4585 315.082 56.4585H324.48C324.571 56.4585 324.658 56.4945 324.722 56.5587C324.786 56.6228 324.822 56.7098 324.822 56.8005C324.822 56.8912 324.786 56.9782 324.722 57.0423C324.658 57.1065 324.571 57.1425 324.48 57.1425Z" fill="#263238"/>
<path d="M267.346 57.1425H257.77C257.679 57.1425 257.592 57.1065 257.528 57.0423C257.464 56.9782 257.428 56.8912 257.428 56.8005C257.428 56.7098 257.464 56.6228 257.528 56.5587C257.592 56.4945 257.679 56.4585 257.77 56.4585H267.346C267.436 56.4585 267.523 56.4945 267.588 56.5587C267.652 56.6228 267.688 56.7098 267.688 56.8005C267.686 56.8907 267.649 56.9766 267.586 57.0404C267.522 57.1041 267.436 57.1407 267.346 57.1425Z" fill="#263238"/>
<path d="M291.149 33.2367C291.058 33.2367 290.971 33.2007 290.907 33.1366C290.843 33.0724 290.807 32.9854 290.807 32.8947V23.4487C290.807 23.358 290.843 23.271 290.907 23.2069C290.971 23.1427 291.058 23.1067 291.149 23.1067C291.239 23.1067 291.326 23.1427 291.39 23.2069C291.455 23.271 291.491 23.358 291.491 23.4487V32.8947C291.491 32.9854 291.455 33.0724 291.39 33.1366C291.326 33.2007 291.239 33.2367 291.149 33.2367Z" fill="#263238"/>
<path d="M308.229 40.0629C308.184 40.0627 308.14 40.0535 308.099 40.0358C308.058 40.0182 308.021 39.9925 307.99 39.9603C307.958 39.9285 307.932 39.8907 307.915 39.849C307.898 39.8074 307.889 39.7627 307.889 39.7175C307.889 39.6724 307.898 39.6277 307.915 39.586C307.932 39.5443 307.958 39.5065 307.99 39.4747L314.495 32.9493C314.559 32.8867 314.645 32.8516 314.734 32.8516C314.824 32.8516 314.91 32.8867 314.973 32.9493C315.006 32.9811 315.031 33.0189 315.048 33.0606C315.066 33.1023 315.075 33.147 315.075 33.1921C315.075 33.2373 315.066 33.282 315.048 33.3237C315.031 33.3653 315.006 33.4032 314.973 33.435L308.475 39.9398C308.445 39.976 308.407 40.0055 308.365 40.0267C308.323 40.0479 308.276 40.0602 308.229 40.0629Z" fill="#263238"/>
<path d="M267.571 80.7201C267.48 80.7196 267.392 80.6855 267.325 80.6243C267.262 80.5592 267.227 80.4722 267.227 80.3815C267.227 80.2909 267.262 80.2038 267.325 80.1387L273.926 73.5381C273.957 73.5062 273.995 73.4809 274.037 73.4636C274.079 73.4464 274.123 73.4375 274.168 73.4375C274.213 73.4375 274.258 73.4464 274.3 73.4636C274.341 73.4809 274.379 73.5062 274.411 73.5381C274.443 73.57 274.468 73.6078 274.486 73.6495C274.503 73.6911 274.512 73.7358 274.512 73.7809C274.512 73.826 274.503 73.8707 274.486 73.9123C274.468 73.954 274.443 73.9918 274.411 74.0237L267.811 80.6243C267.745 80.684 267.66 80.718 267.571 80.7201Z" fill="#263238"/>
<path d="M273.864 39.8715C273.775 39.8721 273.689 39.8377 273.625 39.7758L267.305 33.4556C267.24 33.3912 267.204 33.3039 267.204 33.2128C267.204 33.1217 267.24 33.0344 267.305 32.97C267.369 32.9056 267.456 32.8694 267.548 32.8694C267.639 32.8694 267.726 32.9056 267.79 32.97L274.104 39.2901C274.151 39.3379 274.182 39.3984 274.195 39.4641C274.208 39.5298 274.201 39.5979 274.176 39.6598C274.15 39.7217 274.107 39.7747 274.052 39.8124C273.996 39.85 273.931 39.8706 273.864 39.8715Z" fill="#263238"/>
<path d="M314.733 80.7199C314.644 80.719 314.559 80.6849 314.494 80.6241L308.201 74.3313C308.169 74.2994 308.144 74.2616 308.127 74.2199C308.109 74.1783 308.101 74.1336 308.101 74.0885C308.101 74.0434 308.109 73.9988 308.127 73.9571C308.144 73.9154 308.169 73.8776 308.201 73.8457C308.233 73.8138 308.271 73.7885 308.313 73.7713C308.354 73.754 308.399 73.7451 308.444 73.7451C308.489 73.7451 308.534 73.754 308.575 73.7713C308.617 73.7885 308.655 73.8138 308.687 73.8457L314.973 80.1385C315.02 80.1863 315.051 80.2468 315.064 80.3125C315.077 80.3782 315.07 80.4462 315.045 80.5081C315.019 80.57 314.976 80.6231 314.921 80.6607C314.865 80.6984 314.8 80.7189 314.733 80.7199Z" fill="#263238"/>
<path d="M188.913 68.8459V66.7187H186.471C186.349 65.5357 186.035 64.3806 185.541 63.2987L187.668 62.0743L186.636 60.207L184.508 61.4314C183.813 60.4617 182.963 59.6135 181.991 58.9211L183.222 56.7939L181.376 55.7268L180.144 57.8472C179.062 57.355 177.907 57.0431 176.724 56.9238V54.4751H174.59V56.9238C173.408 57.0431 172.252 57.355 171.17 57.8472L169.939 55.7268L168.099 56.7939L169.323 58.9211C168.352 59.6135 167.501 60.4617 166.806 61.4314L164.679 60.207L163.619 62.0538L165.739 63.2782C165.245 64.3593 164.933 65.515 164.816 66.6982H162.367V68.8254H164.748C164.864 70.0086 165.176 71.1643 165.671 72.2454L163.551 73.4698L164.611 75.3166L166.738 74.0922C167.435 75.0606 168.285 75.9085 169.255 76.6025L168.031 78.7297L169.871 79.7968L171.102 77.6695C172.182 78.167 173.338 78.4814 174.522 78.5998V81.0485H176.656V78.5998C177.84 78.4814 178.995 78.167 180.076 77.6695L181.307 79.7968L183.154 78.7297L181.923 76.6025C182.893 75.9085 183.743 75.0606 184.44 74.0922L186.567 75.3166L187.634 73.4698L185.507 72.2454C186.001 71.1635 186.315 70.0084 186.437 68.8254L188.913 68.8459ZM175.609 59.4341C177.692 59.4397 179.697 60.2239 181.231 61.6325C182.765 63.0412 183.717 64.9725 183.9 67.047H177.169C177.029 66.7458 176.806 66.4906 176.526 66.3113C176.246 66.1321 175.921 66.0361 175.589 66.0347C175.505 66.0276 175.42 66.0276 175.336 66.0347L171.834 60.3096C173.005 59.7218 174.299 59.4217 175.609 59.4341ZM167.265 67.7789C167.261 66.4371 167.582 65.1143 168.2 63.9234C168.819 62.7324 169.715 61.7085 170.815 60.9389L174.324 66.6366C174.047 66.9506 173.894 67.3539 173.893 67.7721C173.894 68.1524 174.019 68.522 174.248 68.8254L170.828 74.5984C169.73 73.8315 168.833 72.8113 168.213 71.6243C167.592 70.4372 167.267 69.1182 167.265 67.7789ZM175.609 76.1305C174.302 76.1279 173.014 75.8187 171.847 75.2277L175.267 69.4821C175.389 69.51 175.513 69.5237 175.637 69.5231C176.015 69.5236 176.383 69.4001 176.684 69.1715C176.986 68.943 177.204 68.622 177.306 68.2577H183.961C183.842 70.3898 182.909 72.395 181.355 73.8598C179.802 75.3246 177.745 76.1374 175.609 76.1305Z" fill="#D1D1D1"/>
<path d="M194.57 96.7668H196.697V94.3181C197.881 94.1989 199.036 93.8846 200.117 93.3878L201.341 95.5151L203.188 94.4412L201.957 92.3208C202.927 91.6241 203.777 90.7739 204.474 89.8037L206.601 91.028L207.662 89.1812L205.541 87.9569C206.033 86.8746 206.344 85.7194 206.465 84.5369H208.906V82.3686H206.471C206.349 81.1856 206.035 80.0305 205.541 78.9486L207.662 77.7242L206.594 75.8774L204.474 77.1086C203.776 76.14 202.926 75.2901 201.957 74.5915L203.181 72.4643L201.335 71.4041L200.11 73.5245C199.029 73.0298 197.873 72.7178 196.69 72.6011V70.1523H194.556V72.5942C193.373 72.7164 192.218 73.0306 191.136 73.5245L189.905 71.4041L188.065 72.4711L189.289 74.5915C188.32 75.2865 187.471 76.137 186.779 77.1086L184.652 75.8843L183.585 77.7311L185.712 78.9554C185.217 80.0366 184.905 81.1922 184.789 82.3754H182.34V84.5095H184.789C184.908 85.693 185.222 86.8486 185.719 87.9295L183.571 89.2086L184.638 91.0554L186.765 89.831C187.464 90.7976 188.314 91.6453 189.282 92.3413L188.058 94.4685L189.905 95.5356L191.129 93.4083C192.21 93.9029 193.366 94.2149 194.549 94.3317L194.57 96.7668ZM203.975 83.4561C203.974 85.5412 203.194 87.5506 201.786 89.0887C200.378 90.6268 198.446 91.5822 196.369 91.7667V85.0362C196.67 84.8964 196.924 84.6733 197.103 84.3932C197.281 84.1132 197.375 83.788 197.374 83.4561C197.374 83.3741 197.374 83.292 197.374 83.2099L203.051 79.701C203.646 80.8641 203.962 82.1497 203.975 83.4561ZM195.616 75.1113C196.958 75.1091 198.28 75.4307 199.471 76.0487C200.662 76.6667 201.686 77.5629 202.456 78.6613L196.765 82.1497C196.453 81.8714 196.049 81.718 195.63 81.7188C195.252 81.7203 194.884 81.8451 194.583 82.0745L188.81 78.6545C189.578 77.5621 190.597 76.6701 191.782 76.0535C192.966 75.437 194.281 75.1138 195.616 75.1113ZM187.278 83.463C187.278 82.1553 187.587 80.866 188.181 79.701L193.92 83.121C193.892 83.2445 193.879 83.3707 193.879 83.4972C193.879 83.8763 194.003 84.245 194.233 84.5465C194.463 84.848 194.786 85.0657 195.151 85.1661V91.8215C193.018 91.7007 191.013 90.7666 189.549 89.2116C188.084 87.6566 187.271 85.5991 187.278 83.463Z" fill="#D1D1D1"/>
</svg>
